<svg width="24" height="24" viewBox="0 0 24 24" fill="none" xmlns="http://www.w3.org/2000/svg">
<path d="M21 4.5C21 4.83029 20.7322 5.09804 20.402 5.09804H19.1471V6.35294C19.1471 6.7103 18.8574 7 18.5 7C18.1426 7 17.8529 6.7103 17.8529 6.35294V5.09804H16.598C16.2678 5.09804 16 4.83029 16 4.5C16 4.16971 16.2678 3.90196 16.598 3.90196H17.8529V2.64706C17.8529 2.2897 18.1426 2 18.5 2C18.8574 2 19.1471 2.2897 19.1471 2.64706V3.90196H20.402C20.7322 3.90196 21 4.16971 21 4.5Z" fill="#0055B8"/>
<path fill-rule="evenodd" clip-rule="evenodd" d="M14.7578 2H12.2381H6.53481H5.90111C5.3969 2 4.91335 2.19754 4.55682 2.54916C4.20029 2.90078 4 3.37768 4 3.87495V18.8746C4 19.3718 4.20029 19.8487 4.55682 20.2004C4.91335 20.552 5.3969 20.7495 5.90111 20.7495H10.3408C10.3497 20.607 10.3725 20.462 10.4093 20.3158L10.8845 18.4433C11.062 17.7407 11.43 17.0991 11.9492 16.5871L18.0707 10.5498C18.3973 10.2269 18.7837 9.96895 19.2089 9.7898V8.94449C18.9779 8.98103 18.7412 9 18.5 9C16.0147 9 14 6.98528 14 4.5C14 3.57493 14.2791 2.71505 14.7578 2ZM7.16851 5H11C11.1681 5 11.3293 5.06585 11.4481 5.18305C11.5669 5.30026 11.6337 5.45923 11.6337 5.62498C11.6337 5.79074 11.5669 5.94971 11.4481 6.06691C11.3293 6.18412 11.1681 6.24997 11 6.24997H7.16851C7.00044 6.24997 6.83926 6.18412 6.72042 6.06691C6.60158 5.94971 6.53481 5.79074 6.53481 5.62498C6.53481 5.45923 6.60158 5.30026 6.72042 5.18305C6.83926 5.06585 7.00044 5 7.16851 5ZM14.1392 9.37489C14.1392 9.54064 14.0725 9.69961 13.9536 9.81682C13.8348 9.93402 13.6736 9.99987 13.5055 9.99987H7.16851C7.00044 9.99987 6.83926 9.93402 6.72042 9.81682C6.60158 9.69961 6.53481 9.54064 6.53481 9.37489C6.53481 9.20913 6.60158 9.05016 6.72042 8.93296C6.83926 8.81575 7.00044 8.7499 7.16851 8.7499H13.5055C13.6736 8.7499 13.8348 8.81575 13.9536 8.93296C14.0725 9.05016 14.1392 9.20913 14.1392 9.37489ZM7.16851 12.4998H9.70332C9.87139 12.4998 10.0326 12.5657 10.1514 12.6829C10.2703 12.8001 10.337 12.959 10.337 13.1248C10.337 13.2905 10.2703 13.4495 10.1514 13.5667C10.0326 13.6839 9.87139 13.7498 9.70332 13.7498H7.16851C7.00044 13.7498 6.83926 13.6839 6.72042 13.5667C6.60158 13.4495 6.53481 13.2905 6.53481 13.1248C6.53481 12.959 6.60158 12.8001 6.72042 12.6829C6.83926 12.5657 7.00044 12.4998 7.16851 12.4998ZM18.9681 11.4348L12.8465 17.4721C12.4897 17.8238 12.2365 18.2645 12.1139 18.7471L11.6387 20.6195C11.5918 20.8057 11.5945 21.0008 11.6467 21.1856C11.6988 21.3705 11.7985 21.5389 11.9362 21.6745C12.0738 21.8101 12.2447 21.9083 12.4322 21.9596C12.6197 22.0108 12.8174 22.0134 13.0062 21.967L14.9048 21.4995C15.3941 21.3788 15.841 21.129 16.1975 20.777L22.3191 14.7397C22.7578 14.3001 23.0025 13.7073 23 13.0905C22.9974 12.4737 22.7478 11.8829 22.3055 11.4469C21.8632 11.0108 21.2641 10.7649 20.6387 10.7626C20.0133 10.7603 19.4123 11.0019 18.9668 11.4348H18.9681Z" fill="#0055B8"/>
</svg>
