<svg width="24" height="24" viewBox="0 0 24 24" fill="none" xmlns="http://www.w3.org/2000/svg">
<path fill-rule="evenodd" clip-rule="evenodd" d="M14.7578 2H7.36842C6.47506 2 5.61829 2.34116 4.98659 2.94842C4.35489 3.55568 4 4.3793 4 5.2381V18.7619C4 19.6207 4.35489 20.4443 4.98659 21.0516C5.61829 21.6588 6.47506 22 7.36842 22H19.1579C19.623 22 20 21.6376 20 21.1905V8.74394C19.5308 8.90977 19.026 9 18.5 9C18.4383 9 18.3769 8.99876 18.3158 8.9963V20.381H7.36842C6.92174 20.381 6.49336 20.2104 6.1775 19.9067C5.86165 19.6031 5.68421 19.1913 5.68421 18.7619C5.68421 18.5823 5.71483 18.4096 5.77127 18.2481C5.85327 18.0125 5.99135 17.796 6.1775 17.6171C6.38859 17.4141 6.64993 17.2707 6.93341 17.1978C7.07232 17.162 7.21816 17.1429 7.36842 17.1429H16.1579C16.623 17.1429 17 16.7804 17 16.3333V8.74394C15.2522 8.12619 14 6.45933 14 4.5C14 3.57493 14.2791 2.71505 14.7578 2ZM7.78947 17.9524C7.32439 17.9524 6.94737 18.3148 6.94737 18.7619C6.94737 19.209 7.32439 19.5714 7.78947 19.5714H16.2105C16.6756 19.5714 17.0526 19.209 17.0526 18.7619C17.0526 18.3148 16.6756 17.9524 16.2105 17.9524H7.78947Z" fill="#0055B8"/>
<path d="M21 4.5C21 4.83029 20.7322 5.09804 20.402 5.09804H19.1471V6.35294C19.1471 6.7103 18.8574 7 18.5 7C18.1426 7 17.8529 6.7103 17.8529 6.35294V5.09804H16.598C16.2678 5.09804 16 4.83029 16 4.5C16 4.16971 16.2678 3.90196 16.598 3.90196H17.8529V2.64706C17.8529 2.2897 18.1426 2 18.5 2C18.8574 2 19.1471 2.2897 19.1471 2.64706V3.90196H20.402C20.7322 3.90196 21 4.16971 21 4.5Z" fill="#0055B8"/>
</svg>
