<svg width="24" height="24" viewBox="0 0 24 24" fill="none" xmlns="http://www.w3.org/2000/svg">
<path fill-rule="evenodd" clip-rule="evenodd" d="M14.0467 5.15056L12.3958 4.23384C12.1132 4.08031 11.7978 4 11.4775 4C11.1571 4 10.8418 4.08031 10.5591 4.23384L2.49504 8.71586C1.83499 9.08612 1.83499 10.0605 2.49504 10.4307L10.5591 14.9127C11.1331 15.2343 11.8218 15.2343 12.3958 14.9127L20.0868 10.6353V16.3938C20.0868 16.9296 20.5173 17.3681 21.0434 17.3681C21.5695 17.3681 22 16.9296 22 16.3938V10.1482C22 9.78765 21.8087 9.46611 21.5026 9.29073L20.3026 8.62441C19.7507 8.86597 19.141 9 18.5 9C16.2357 9 14.3619 7.32757 14.0467 5.15056ZM4.7813 15.6252V12.8872L10.5591 16.1026C11.1331 16.4241 11.8218 16.4241 12.3958 16.1026L18.1736 12.8872V15.6252C18.1736 16.3364 17.791 16.999 17.1788 17.34L12.3958 20C11.8218 20.3215 11.1331 20.3215 10.5591 20L5.77616 17.34C5.16394 16.999 4.7813 16.3364 4.7813 15.6252Z" fill="#0055B8"/>
<path d="M21 4.5C21 4.83029 20.7322 5.09804 20.402 5.09804H19.1471V6.35294C19.1471 6.7103 18.8574 7 18.5 7C18.1426 7 17.8529 6.7103 17.8529 6.35294V5.09804H16.598C16.2678 5.09804 16 4.83029 16 4.5C16 4.16971 16.2678 3.90196 16.598 3.90196H17.8529V2.64706C17.8529 2.2897 18.1426 2 18.5 2C18.8574 2 19.1471 2.2897 19.1471 2.64706V3.90196H20.402C20.7322 3.90196 21 4.16971 21 4.5Z" fill="#0055B8"/>
</svg>
