<svg width="44" height="43" viewBox="0 0 44 43" fill="none" xmlns="http://www.w3.org/2000/svg">
<path opacity="0.3" d="M31.9541 47.0029L33.3837 47.255C34.9628 47.5334 36.4685 46.479 36.747 44.9L43.0487 9.161C43.3271 7.58195 42.2728 6.07618 40.6937 5.79775L14.9617 1.26049C13.3826 0.982059 11.8768 2.03642 11.5984 3.61547L11.0943 6.47459L31.9541 47.0029Z" fill="#2BAFFC"/>
<path d="M35.9013 7.90029C37.4803 8.17871 38.5347 9.6845 38.2562 11.2635L31.9545 47.0025C31.6761 48.5816 30.1703 49.6359 28.5912 49.3575L2.85915 44.8203C1.2801 44.5418 0.225742 43.036 0.50417 41.457L6.04971 10.0067L14.4579 4.11924L35.9013 7.90029Z" fill="#2BAFFC"/>
<path d="M14.4579 4.11924L13.4496 9.83748C13.3104 10.627 12.5575 11.1542 11.7679 11.015L6.04971 10.0067L14.4579 4.11924Z" fill="#0071CE"/>
<path d="M11.9534 18.3198L31.9673 21.8487C32.1568 21.8822 32.3519 21.8389 32.5096 21.7285C32.6673 21.6181 32.7747 21.4496 32.8081 21.26C32.8415 21.0704 32.7983 20.8753 32.6878 20.7176C32.5774 20.56 32.4089 20.4526 32.2193 20.4192L12.2055 16.8902C12.0159 16.8568 11.8208 16.9 11.6632 17.0104C11.5055 17.1208 11.3981 17.2894 11.3647 17.4789C11.3313 17.6685 11.3745 17.8636 11.4849 18.0213C11.5953 18.179 11.7639 18.2863 11.9534 18.3198Z" fill="white"/>
<path d="M31.4634 24.708L26.4599 23.8257C26.2703 23.7923 26.0752 23.8356 25.9176 23.946C25.7599 24.0564 25.6525 24.2249 25.6191 24.4145C25.5857 24.6041 25.6289 24.7991 25.7393 24.9568C25.8497 25.1145 26.0183 25.2219 26.2078 25.2553L31.2113 26.1375C31.4009 26.171 31.5959 26.1277 31.7536 26.0173C31.9113 25.9069 32.0187 25.7384 32.0521 25.5488C32.0855 25.3592 32.0423 25.1641 31.9319 25.0065C31.8215 24.8488 31.6529 24.7414 31.4634 24.708Z" fill="white"/>
<path d="M8.3382 22.1044L23.3486 24.7512C23.5381 24.7846 23.7332 24.7413 23.8909 24.6309C24.0486 24.5205 24.156 24.352 24.1894 24.1624C24.2228 23.9728 24.1796 23.7778 24.0692 23.6201C23.9587 23.4624 23.7902 23.355 23.6006 23.3216L8.59027 20.6749C8.4007 20.6414 8.20561 20.6847 8.04793 20.7951C7.89024 20.9055 7.78288 21.074 7.74945 21.2636C7.71603 21.4532 7.75928 21.6483 7.86969 21.8059C7.9801 21.9636 8.14863 22.071 8.3382 22.1044Z" fill="white"/>
<path d="M30.707 28.9969L14.9819 26.2242C14.7923 26.1908 14.5972 26.234 14.4395 26.3444C14.2818 26.4548 14.1745 26.6234 14.1411 26.8129C14.1076 27.0025 14.1509 27.1976 14.2613 27.3553C14.3717 27.5129 14.5402 27.6203 14.7298 27.6537L30.455 30.4265C30.6445 30.4599 30.8396 30.4167 30.9973 30.3063C31.155 30.1959 31.2623 30.0273 31.2958 29.8378C31.3292 29.6482 31.2859 29.4531 31.1755 29.2954C31.0651 29.1377 30.8966 29.0304 30.707 28.9969Z" fill="white"/>
<path d="M7.58234 26.393L11.871 27.1492C12.0606 27.1826 12.2557 27.1394 12.4134 27.029C12.571 26.9186 12.6784 26.75 12.7118 26.5605C12.7453 26.3709 12.702 26.1758 12.5916 26.0181C12.4812 25.8604 12.3127 25.7531 12.1231 25.7196L7.83441 24.9634C7.64484 24.93 7.44975 24.9733 7.29207 25.0837C7.13439 25.1941 7.02702 25.3626 6.99359 25.5522C6.96017 25.7418 7.00342 25.9368 7.11383 26.0945C7.22424 26.2522 7.39277 26.3596 7.58234 26.393Z" fill="white"/>
<path d="M29.9509 33.2854L27.0917 32.7813C26.9022 32.7479 26.7071 32.7911 26.5494 32.9015C26.3917 33.012 26.2843 33.1805 26.2509 33.3701C26.2175 33.5596 26.2607 33.7547 26.3712 33.9124C26.4816 34.0701 26.6501 34.1774 26.8397 34.2109L29.6988 34.715C29.8884 34.7484 30.0834 34.7052 30.2411 34.5948C30.3988 34.4844 30.5062 34.3158 30.5396 34.1263C30.573 33.9367 30.5298 33.7416 30.4194 33.5839C30.309 33.4262 30.1404 33.3189 29.9509 33.2854Z" fill="white"/>
<path d="M6.82599 30.6821L23.9807 33.7069C24.1703 33.7403 24.3654 33.6971 24.523 33.5867C24.6807 33.4763 24.7881 33.3077 24.8215 33.1182C24.8549 32.9286 24.8117 32.7335 24.7013 32.5758C24.5909 32.4181 24.4223 32.3108 24.2328 32.2773L7.07806 29.2525C6.88849 29.2191 6.6934 29.2623 6.53572 29.3727C6.37804 29.4831 6.27067 29.6517 6.23725 29.8412C6.20382 30.0308 6.24707 30.2259 6.35748 30.3836C6.46789 30.5413 6.63642 30.6486 6.82599 30.6821Z" fill="white"/>
<path d="M25.6207 36.9442L16.3285 35.3057C16.139 35.2723 15.9439 35.3155 15.7862 35.426C15.6285 35.5364 15.5212 35.7049 15.4877 35.8945C15.4543 36.084 15.4976 36.2791 15.608 36.4368C15.7184 36.5945 15.8869 36.7019 16.0765 36.7353L25.3686 38.3737C25.5582 38.4072 25.7533 38.3639 25.911 38.2535C26.0686 38.1431 26.176 37.9746 26.2094 37.785C26.2429 37.5954 26.1996 37.4003 26.0892 37.2427C25.9788 37.085 25.8103 36.9776 25.6207 36.9442Z" fill="white"/>
<path d="M13.4695 34.8014L6.32171 33.5411C6.13214 33.5076 5.93706 33.5509 5.77937 33.6613C5.62169 33.7717 5.51433 33.9402 5.4809 34.1298C5.44747 34.3194 5.49072 34.5145 5.60113 34.6722C5.71154 34.8298 5.88007 34.9372 6.06964 34.9706L13.2174 36.231C13.407 36.2644 13.6021 36.2212 13.7598 36.1108C13.9175 36.0003 14.0248 35.8318 14.0583 35.6422C14.0917 35.4527 14.0484 35.2576 13.938 35.0999C13.8276 34.9422 13.6591 34.8349 13.4695 34.8014Z" fill="white"/>
</svg>
