<svg width="72" height="80" viewBox="0 0 72 80" fill="none" xmlns="http://www.w3.org/2000/svg">
<rect width="72" height="80" rx="10" fill="#EFF7FF"/>
<rect x="27" y="13" width="7.875" height="7.875" rx="2" fill="#007BE0"/>
<rect opacity="0.4" x="37.125" y="13" width="7.875" height="7.875" rx="2" fill="#007BE0"/>
<rect opacity="0.4" x="27" y="23.125" width="7.875" height="7.875" rx="2" fill="#007BE0"/>
<rect x="37.125" y="23.125" width="7.875" height="7.875" rx="2" fill="#007BE0"/>
<path d="M21.7979 47.987C21.7979 48.3537 21.7099 48.6947 21.5339 49.01C21.3579 49.3253 21.0902 49.582 20.7309 49.78C20.3715 49.978 19.9279 50.077 19.3999 50.077C18.8865 50.077 18.4282 49.9853 18.0249 49.802C17.6289 49.6113 17.3099 49.3547 17.0679 49.032C16.8332 48.702 16.6975 48.328 16.6609 47.91H17.7279C17.7499 48.13 17.8232 48.3463 17.9479 48.559C18.0799 48.7643 18.2632 48.9367 18.4979 49.076C18.7399 49.208 19.0295 49.274 19.3669 49.274C19.8069 49.274 20.1442 49.1567 20.3789 48.922C20.6135 48.6873 20.7309 48.3867 20.7309 48.02C20.7309 47.7047 20.6465 47.448 20.4779 47.25C20.3165 47.052 20.1149 46.898 19.8729 46.788C19.6309 46.6707 19.3009 46.546 18.8829 46.414C18.3915 46.2527 17.9955 46.1023 17.6949 45.963C17.4015 45.8163 17.1485 45.6 16.9359 45.314C16.7305 45.028 16.6279 44.6503 16.6279 44.181C16.6279 43.7777 16.7232 43.422 16.9139 43.114C17.1119 42.806 17.3905 42.5677 17.7499 42.399C18.1165 42.2303 18.5455 42.146 19.0369 42.146C19.7995 42.146 20.4045 42.333 20.8519 42.707C21.2992 43.0737 21.5595 43.543 21.6329 44.115H20.5549C20.4962 43.807 20.3385 43.5357 20.0819 43.301C19.8252 43.0663 19.4769 42.949 19.0369 42.949C18.6335 42.949 18.3109 43.0553 18.0689 43.268C17.8269 43.4733 17.7059 43.7667 17.7059 44.148C17.7059 44.4487 17.7829 44.6943 17.9369 44.885C18.0982 45.0683 18.2962 45.215 18.5309 45.325C18.7655 45.4277 19.0882 45.545 19.4989 45.677C19.9975 45.8383 20.3972 45.9923 20.6979 46.139C21.0059 46.2857 21.2662 46.5093 21.4789 46.81C21.6915 47.1033 21.7979 47.4957 21.7979 47.987ZM28.9488 46.645C28.9488 46.8577 28.9342 47.041 28.9048 47.195H24.0758C24.0978 47.8843 24.2922 48.4013 24.6588 48.746C25.0328 49.0907 25.4875 49.263 26.0228 49.263C26.5068 49.263 26.9102 49.142 27.2328 48.9C27.5628 48.6507 27.7645 48.3207 27.8378 47.91H28.9048C28.8315 48.328 28.6665 48.702 28.4098 49.032C28.1605 49.362 27.8342 49.6187 27.4308 49.802C27.0275 49.9853 26.5728 50.077 26.0668 50.077C25.4875 50.077 24.9742 49.9523 24.5268 49.703C24.0795 49.4537 23.7275 49.098 23.4708 48.636C23.2215 48.1667 23.0968 47.6167 23.0968 46.986C23.0968 46.3553 23.2215 45.8053 23.4708 45.336C23.7275 44.8667 24.0795 44.5073 24.5268 44.258C24.9742 44.0087 25.4875 43.884 26.0668 43.884C26.6535 43.884 27.1632 44.0087 27.5958 44.258C28.0358 44.5073 28.3695 44.841 28.5968 45.259C28.8315 45.677 28.9488 46.139 28.9488 46.645ZM27.9368 46.711C27.9588 46.2637 27.8855 45.8897 27.7168 45.589C27.5482 45.2883 27.3172 45.0647 27.0238 44.918C26.7305 44.7713 26.4115 44.698 26.0668 44.698C25.5168 44.698 25.0548 44.8703 24.6808 45.215C24.3068 45.5523 24.1052 46.051 24.0758 46.711H27.9368ZM37.9331 43.862C38.6371 43.862 39.2017 44.0893 39.6271 44.544C40.0597 44.9913 40.2761 45.6403 40.2761 46.491V50H39.2751V46.579C39.2751 45.985 39.1284 45.5303 38.8351 45.215C38.5491 44.8997 38.1531 44.742 37.6471 44.742C37.1191 44.742 36.6937 44.918 36.3711 45.27C36.0557 45.6147 35.8981 46.1243 35.8981 46.799V50H34.8971V46.579C34.8971 45.985 34.7504 45.5303 34.4571 45.215C34.1637 44.8997 33.7677 44.742 33.2691 44.742C32.7337 44.742 32.3047 44.918 31.9821 45.27C31.6667 45.6147 31.5091 46.1243 31.5091 46.799V50H30.5081V43.961H31.5091V45.336C31.6557 44.8593 31.9161 44.4963 32.2901 44.247C32.6714 43.9903 33.1077 43.862 33.5991 43.862C34.1124 43.862 34.5561 43.994 34.9301 44.258C35.3114 44.5147 35.5827 44.896 35.7441 45.402C35.9127 44.9107 36.1951 44.533 36.5911 44.269C36.9871 43.9977 37.4344 43.862 37.9331 43.862ZM47.4483 43.961V50H46.4473V48.581C46.2933 49.0723 46.0183 49.45 45.6223 49.714C45.2337 49.9707 44.779 50.099 44.2583 50.099C43.5617 50.099 42.997 49.8753 42.5643 49.428C42.1317 48.9733 41.9153 48.3243 41.9153 47.481V43.961H42.9163V47.382C42.9163 47.9833 43.0703 48.449 43.3783 48.779C43.6863 49.1017 44.1043 49.263 44.6323 49.263C45.1823 49.263 45.6223 49.087 45.9523 48.735C46.2823 48.3757 46.4473 47.855 46.4473 47.173V43.961H47.4483ZM51.777 43.884C52.3637 43.884 52.8587 44.0307 53.262 44.324C53.6727 44.6173 53.9587 45.0097 54.12 45.501V43.961H55.121V50H54.12V48.46C53.9587 48.9513 53.6727 49.3437 53.262 49.637C52.8587 49.9303 52.3637 50.077 51.777 50.077C51.2417 50.077 50.765 49.9523 50.347 49.703C49.929 49.4537 49.599 49.098 49.357 48.636C49.1224 48.1667 49.005 47.6167 49.005 46.986C49.005 46.3553 49.1224 45.8053 49.357 45.336C49.599 44.8667 49.929 44.5073 50.347 44.258C50.765 44.0087 51.2417 43.884 51.777 43.884ZM52.063 44.775C51.447 44.775 50.952 44.973 50.578 45.369C50.2114 45.7577 50.028 46.2967 50.028 46.986C50.028 47.6753 50.2114 48.218 50.578 48.614C50.952 49.0027 51.447 49.197 52.063 49.197C52.459 49.197 52.811 49.1053 53.119 48.922C53.4344 48.7387 53.68 48.482 53.856 48.152C54.032 47.8147 54.12 47.426 54.12 46.986C54.12 46.546 54.032 46.1573 53.856 45.82C53.68 45.4827 53.4344 45.226 53.119 45.05C52.811 44.8667 52.459 44.775 52.063 44.775ZM10.824 62.876V66H9.82302V58.245H12.287C13.1744 58.245 13.838 58.454 14.278 58.872C14.718 59.2827 14.938 59.8473 14.938 60.566C14.938 61.292 14.7107 61.8603 14.256 62.271C13.8014 62.6743 13.145 62.876 12.287 62.876H10.824ZM12.199 62.04C12.8077 62.04 13.244 61.9117 13.508 61.655C13.7794 61.3983 13.915 61.0353 13.915 60.566C13.915 60.082 13.7794 59.7153 13.508 59.466C13.244 59.2093 12.8077 59.081 12.199 59.081H10.824V62.04H12.199ZM21.9122 62.645C21.9122 62.8577 21.8975 63.041 21.8682 63.195H17.0392C17.0612 63.8843 17.2555 64.4013 17.6222 64.746C17.9962 65.0907 18.4509 65.263 18.9862 65.263C19.4702 65.263 19.8735 65.142 20.1962 64.9C20.5262 64.6507 20.7279 64.3207 20.8012 63.91H21.8682C21.7949 64.328 21.6299 64.702 21.3732 65.032C21.1239 65.362 20.7975 65.6187 20.3942 65.802C19.9909 65.9853 19.5362 66.077 19.0302 66.077C18.4509 66.077 17.9375 65.9523 17.4902 65.703C17.0429 65.4537 16.6909 65.098 16.4342 64.636C16.1849 64.1667 16.0602 63.6167 16.0602 62.986C16.0602 62.3553 16.1849 61.8053 16.4342 61.336C16.6909 60.8667 17.0429 60.5073 17.4902 60.258C17.9375 60.0087 18.4509 59.884 19.0302 59.884C19.6169 59.884 20.1265 60.0087 20.5592 60.258C20.9992 60.5073 21.3329 60.841 21.5602 61.259C21.7949 61.677 21.9122 62.139 21.9122 62.645ZM20.9002 62.711C20.9222 62.2637 20.8489 61.8897 20.6802 61.589C20.5115 61.2883 20.2805 61.0647 19.9872 60.918C19.6939 60.7713 19.3749 60.698 19.0302 60.698C18.4802 60.698 18.0182 60.8703 17.6442 61.215C17.2702 61.5523 17.0685 62.051 17.0392 62.711H20.9002ZM24.4725 57.86V66H23.4715V57.86H24.4725ZM28.8068 59.884C29.3935 59.884 29.8885 60.0307 30.2918 60.324C30.7025 60.6173 30.9885 61.0097 31.1498 61.501V59.961H32.1508V66H31.1498V64.46C30.9885 64.9513 30.7025 65.3437 30.2918 65.637C29.8885 65.9303 29.3935 66.077 28.8068 66.077C28.2715 66.077 27.7948 65.9523 27.3768 65.703C26.9588 65.4537 26.6288 65.098 26.3868 64.636C26.1521 64.1667 26.0348 63.6167 26.0348 62.986C26.0348 62.3553 26.1521 61.8053 26.3868 61.336C26.6288 60.8667 26.9588 60.5073 27.3768 60.258C27.7948 60.0087 28.2715 59.884 28.8068 59.884ZM29.0928 60.775C28.4768 60.775 27.9818 60.973 27.6078 61.369C27.2411 61.7577 27.0578 62.2967 27.0578 62.986C27.0578 63.6753 27.2411 64.218 27.6078 64.614C27.9818 65.0027 28.4768 65.197 29.0928 65.197C29.4888 65.197 29.8408 65.1053 30.1488 64.922C30.4641 64.7387 30.7098 64.482 30.8858 64.152C31.0618 63.8147 31.1498 63.426 31.1498 62.986C31.1498 62.546 31.0618 62.1573 30.8858 61.82C30.7098 61.4827 30.4641 61.226 30.1488 61.05C29.8408 60.8667 29.4888 60.775 29.0928 60.775ZM34.5659 58.806C34.3606 58.806 34.1919 58.751 34.0599 58.641C33.9353 58.5237 33.8729 58.3733 33.8729 58.19C33.8729 58.0067 33.9353 57.86 34.0599 57.75C34.1919 57.6327 34.3606 57.574 34.5659 57.574C34.7639 57.574 34.9253 57.6327 35.0499 57.75C35.1746 57.86 35.2369 58.0067 35.2369 58.19C35.2369 58.3733 35.1746 58.5237 35.0499 58.641C34.9253 58.751 34.7639 58.806 34.5659 58.806ZM32.8829 67.98H33.3009C33.5649 67.98 33.7556 67.9213 33.8729 67.804C33.9976 67.6867 34.0599 67.485 34.0599 67.199V59.961H35.0719V67.232C35.0719 68.3173 34.5219 68.86 33.4219 68.86H32.8829V67.98ZM39.3937 59.884C39.9804 59.884 40.4754 60.0307 40.8787 60.324C41.2894 60.6173 41.5754 61.0097 41.7367 61.501V59.961H42.7377V66H41.7367V64.46C41.5754 64.9513 41.2894 65.3437 40.8787 65.637C40.4754 65.9303 39.9804 66.077 39.3937 66.077C38.8584 66.077 38.3817 65.9523 37.9637 65.703C37.5457 65.4537 37.2157 65.098 36.9737 64.636C36.7391 64.1667 36.6217 63.6167 36.6217 62.986C36.6217 62.3553 36.7391 61.8053 36.9737 61.336C37.2157 60.8667 37.5457 60.5073 37.9637 60.258C38.3817 60.0087 38.8584 59.884 39.3937 59.884ZM39.6797 60.775C39.0637 60.775 38.5687 60.973 38.1947 61.369C37.8281 61.7577 37.6447 62.2967 37.6447 62.986C37.6447 63.6753 37.8281 64.218 38.1947 64.614C38.5687 65.0027 39.0637 65.197 39.6797 65.197C40.0757 65.197 40.4277 65.1053 40.7357 64.922C41.0511 64.7387 41.2967 64.482 41.4727 64.152C41.6487 63.8147 41.7367 63.426 41.7367 62.986C41.7367 62.546 41.6487 62.1573 41.4727 61.82C41.2967 61.4827 41.0511 61.226 40.7357 61.05C40.4277 60.8667 40.0757 60.775 39.6797 60.775ZM45.5818 61.182C45.7798 60.764 46.0695 60.4413 46.4508 60.214C46.8322 59.9793 47.2868 59.862 47.8148 59.862V60.951H47.5068C46.9422 60.951 46.4802 61.0977 46.1208 61.391C45.7615 61.677 45.5818 62.1537 45.5818 62.821V66H44.5808V59.961H45.5818V61.182ZM51.5275 59.884C52.1142 59.884 52.6092 60.0307 53.0125 60.324C53.4232 60.6173 53.7092 61.0097 53.8705 61.501V59.961H54.8715V66H53.8705V64.46C53.7092 64.9513 53.4232 65.3437 53.0125 65.637C52.6092 65.9303 52.1142 66.077 51.5275 66.077C50.9922 66.077 50.5155 65.9523 50.0975 65.703C49.6795 65.4537 49.3495 65.098 49.1075 64.636C48.8728 64.1667 48.7555 63.6167 48.7555 62.986C48.7555 62.3553 48.8728 61.8053 49.1075 61.336C49.3495 60.8667 49.6795 60.5073 50.0975 60.258C50.5155 60.0087 50.9922 59.884 51.5275 59.884ZM51.8135 60.775C51.1975 60.775 50.7025 60.973 50.3285 61.369C49.9618 61.7577 49.7785 62.2967 49.7785 62.986C49.7785 63.6753 49.9618 64.218 50.3285 64.614C50.7025 65.0027 51.1975 65.197 51.8135 65.197C52.2095 65.197 52.5615 65.1053 52.8695 64.922C53.1848 64.7387 53.4305 64.482 53.6065 64.152C53.7825 63.8147 53.8705 63.426 53.8705 62.986C53.8705 62.546 53.7825 62.1573 53.6065 61.82C53.4305 61.4827 53.1848 61.226 52.8695 61.05C52.5615 60.8667 52.2095 60.775 51.8135 60.775ZM59.8936 59.862C60.5976 59.862 61.166 60.0893 61.5986 60.544C62.0313 60.9913 62.2476 61.6403 62.2476 62.491V66H61.2466V62.579C61.2466 61.9777 61.0926 61.5157 60.7846 61.193C60.4766 60.8703 60.0586 60.709 59.5306 60.709C58.9806 60.709 58.5406 60.8887 58.2106 61.248C57.8806 61.6 57.7156 62.117 57.7156 62.799V66H56.7146V59.961H57.7156V61.391C57.8696 60.8997 58.141 60.522 58.5296 60.258C58.9256 59.994 59.3803 59.862 59.8936 59.862Z" fill="#1D252D"/>
</svg>
