<svg width="20" height="15" viewBox="0 0 20 15" fill="none" xmlns="http://www.w3.org/2000/svg">
<path d="M10.0001 9.43179C11.1576 9.43179 12.096 8.4934 12.096 7.33584C12.096 6.17827 11.1576 5.23988 10.0001 5.23988C8.84249 5.23988 7.9041 6.17827 7.9041 7.33584C7.9041 8.4934 8.84249 9.43179 10.0001 9.43179Z" fill="#0055B8"/>
<path fill-rule="evenodd" clip-rule="evenodd" d="M0 7.33588C1.33539 3.0841 5.30753 0 10 0C14.6925 0 18.6646 3.08407 20 7.3358C18.6646 11.5876 14.6925 14.6717 9.99999 14.6717C5.30754 14.6717 1.33541 11.5876 0 7.33588ZM14.192 7.33584C14.192 9.65096 12.3152 11.5277 10.0001 11.5277C7.68492 11.5277 5.80814 9.65096 5.80814 7.33584C5.80814 5.02071 7.68492 3.14393 10.0001 3.14393C12.3152 3.14393 14.192 5.02071 14.192 7.33584Z" fill="#0055B8"/>
</svg>
