<svg width="16" height="16" viewBox="0 0 16 16" fill="none" xmlns="http://www.w3.org/2000/svg">
<path opacity="0.4" fill-rule="evenodd" clip-rule="evenodd" d="M3.94043 13.726C3.94043 13.166 4.39376 12.7126 4.95376 12.7126C5.5071 12.7126 5.96043 13.166 5.96043 13.726C5.96043 14.2793 5.5071 14.7326 4.95376 14.7326C4.39376 14.7326 3.94043 14.2793 3.94043 13.726ZM11.4404 13.726C11.4404 13.166 11.8938 12.7126 12.4538 12.7126C13.0071 12.7126 13.4604 13.166 13.4604 13.726C13.4604 14.2793 13.0071 14.7326 12.4538 14.7326C11.8938 14.7326 11.4404 14.2793 11.4404 13.726Z" fill="white"/>
<path fill-rule="evenodd" clip-rule="evenodd" d="M13.4602 4.23297C13.8668 4.23297 14.1335 4.37297 14.4002 4.67964C14.6668 4.9863 14.7135 5.4263 14.6535 5.82563L14.0202 10.199C13.9002 11.0396 13.1802 11.659 12.3335 11.659H5.06017C4.1735 11.659 3.44017 10.979 3.36684 10.0996L2.7535 2.8323L1.74684 2.65897C1.48017 2.6123 1.2935 2.3523 1.34017 2.08564C1.38684 1.8123 1.64684 1.6323 1.92017 1.6723L3.51017 1.9123C3.73684 1.95297 3.9035 2.13897 3.9235 2.36564L4.05017 3.85897C4.07017 4.07297 4.2435 4.23297 4.45684 4.23297H13.4602ZM9.42017 7.69897H11.2668C11.5468 7.69897 11.7668 7.4723 11.7668 7.19897C11.7668 6.91897 11.5468 6.69897 11.2668 6.69897H9.42017C9.14017 6.69897 8.92017 6.91897 8.92017 7.19897C8.92017 7.4723 9.14017 7.69897 9.42017 7.69897Z" fill="white"/>
</svg>
