<svg width="16" height="16" viewBox="0 0 16 16" fill="none" xmlns="http://www.w3.org/2000/svg">
<path d="M9.9987 1.33398H5.9987C5.63051 1.33398 5.33203 1.63246 5.33203 2.00065V3.33398C5.33203 3.70217 5.63051 4.00065 5.9987 4.00065H9.9987C10.3669 4.00065 10.6654 3.70217 10.6654 3.33398V2.00065C10.6654 1.63246 10.3669 1.33398 9.9987 1.33398Z" stroke="#0055B8" stroke-width="1.5" stroke-linecap="round" stroke-linejoin="round"/>
<path d="M10.668 2.66602H12.0013C12.3549 2.66602 12.6941 2.80649 12.9441 3.05654C13.1942 3.30659 13.3346 3.64573 13.3346 3.99935V13.3327C13.3346 13.6863 13.1942 14.0254 12.9441 14.2755C12.6941 14.5255 12.3549 14.666 12.0013 14.666H4.0013C3.64768 14.666 3.30854 14.5255 3.05849 14.2755C2.80844 14.0254 2.66797 13.6863 2.66797 13.3327V3.99935C2.66797 3.64573 2.80844 3.30659 3.05849 3.05654C3.30854 2.80649 3.64768 2.66602 4.0013 2.66602H5.33464" stroke="#0055B8" stroke-width="1.5" stroke-linecap="round" stroke-linejoin="round"/>
<path d="M8 7.33301H10.6667" stroke="#0055B8" stroke-width="1.5" stroke-linecap="round" stroke-linejoin="round"/>
<path d="M8 10.667H10.6667" stroke="#0055B8" stroke-width="1.5" stroke-linecap="round" stroke-linejoin="round"/>
<path d="M5.33203 7.33398H5.3387" stroke="#0055B8" stroke-width="1.5" stroke-linecap="round" stroke-linejoin="round"/>
<path d="M5.33203 10.666H5.3387" stroke="#0055B8" stroke-width="1.5" stroke-linecap="round" stroke-linejoin="round"/>
</svg>
