<svg width="33" height="32" viewBox="0 0 33 32" fill="none" xmlns="http://www.w3.org/2000/svg">
<rect x="0.5" width="32" height="32" rx="16" fill="#FFE784"/>
<path d="M19.0858 10.5858C19.8668 9.80474 21.1331 9.80474 21.9142 10.5858C22.6952 11.3668 22.6952 12.6332 21.9142 13.4142L18.9142 16.4142C18.1331 17.1953 16.8668 17.1953 16.0858 16.4142C15.6952 16.0237 15.0621 16.0237 14.6716 16.4142C14.281 16.8047 14.281 17.4379 14.6716 17.8284C16.2337 19.3905 18.7663 19.3905 20.3284 17.8284L23.3284 14.8284C24.8905 13.2663 24.8905 10.7337 23.3284 9.17157C21.7663 7.60948 19.2337 7.60948 17.6716 9.17157L16.1716 10.6716C15.781 11.0621 15.781 11.6953 16.1716 12.0858C16.5621 12.4763 17.1952 12.4763 17.5858 12.0858L19.0858 10.5858Z" fill="#998122"/>
<path d="M14.0858 15.5858C14.8668 14.8047 16.1332 14.8047 16.9142 15.5858C17.3047 15.9763 17.9379 15.9763 18.3284 15.5858C18.719 15.1953 18.719 14.5621 18.3284 14.1716C16.7663 12.6095 14.2337 12.6095 12.6716 14.1716L9.67157 17.1716C8.10948 18.7337 8.10948 21.2663 9.67157 22.8284C11.2337 24.3905 13.7663 24.3905 15.3284 22.8284L16.8284 21.3284C17.2189 20.9379 17.2189 20.3047 16.8284 19.9142C16.4379 19.5237 15.8047 19.5237 15.4142 19.9142L13.9142 21.4142C13.1332 22.1953 11.8668 22.1953 11.0858 21.4142C10.3047 20.6332 10.3047 19.3668 11.0858 18.5858L14.0858 15.5858Z" fill="#998122"/>
</svg>
