<svg width="24" height="24" viewBox="0 0 24 24" fill="none" xmlns="http://www.w3.org/2000/svg">
<path d="M9.44933 11.3833L4.5 5.06267L2.01867 11.3833H9.44933Z" fill="#FF9E16"/>
<path d="M11.9587 3.68933L7.58333 11.9487H16.3333L11.9587 3.68933Z" fill="#FF9E16"/>
<path d="M14.5507 11.3833L19.5 5.06267L21.9813 11.3833H14.5507Z" fill="#FF9E16"/>
<path d="M19.1127 10.1267L15.9247 2.34867L12.0047 10.1273L12 10.1293L11.9953 10.1267L8.07533 2.348L4.88733 10.1267C2.798 7.222 0.853333 5.36133 0.853333 5.36133C0.853333 5.36133 2 11.8333 2 20H22C22 11.8333 23.1467 5.36133 23.1467 5.36133C23.1467 5.36133 21.202 7.222 19.1127 10.1267Z" fill="#FFCE00"/>
<path d="M11.9713 17.1253C13.3292 17.1253 14.43 16.0246 14.43 14.6667C14.43 13.3088 13.3292 12.208 11.9713 12.208C10.6134 12.208 9.51267 13.3088 9.51267 14.6667C9.51267 16.0246 10.6134 17.1253 11.9713 17.1253Z" fill="#FF9E16"/>
<path d="M22 20.3427H2C1.82319 20.3427 1.65362 20.2724 1.5286 20.1474C1.40357 20.0224 1.33333 19.8528 1.33333 19.676C1.33333 19.4992 1.40357 19.3296 1.5286 19.2046C1.65362 19.0796 1.82319 19.0093 2 19.0093H22C22.1768 19.0093 22.3464 19.0796 22.4714 19.2046C22.5964 19.3296 22.6667 19.4992 22.6667 19.676C22.6667 19.8528 22.5964 20.0224 22.4714 20.1474C22.3464 20.2724 22.1768 20.3427 22 20.3427Z" fill="#FF9E16"/>
<path d="M0.964667 6.29933C1.48271 6.29933 1.90267 5.87937 1.90267 5.36133C1.90267 4.84329 1.48271 4.42333 0.964667 4.42333C0.446624 4.42333 0.0266666 4.84329 0.0266666 5.36133C0.0266666 5.87937 0.446624 6.29933 0.964667 6.29933Z" fill="#FFCE00"/>
<path d="M4.5 5.85733C4.93888 5.85733 5.29467 5.50155 5.29467 5.06266C5.29467 4.62378 4.93888 4.268 4.5 4.268C4.06112 4.268 3.70533 4.62378 3.70533 5.06266C3.70533 5.50155 4.06112 5.85733 4.5 5.85733Z" fill="#FF9E16"/>
<path d="M8.07533 3.538C8.73218 3.538 9.26467 3.00552 9.26467 2.34867C9.26467 1.69182 8.73218 1.15933 8.07533 1.15933C7.41848 1.15933 6.886 1.69182 6.886 2.34867C6.886 3.00552 7.41848 3.538 8.07533 3.538Z" fill="#FFCE00"/>
<path d="M23.0353 6.29933C23.5534 6.29933 23.9733 5.87937 23.9733 5.36133C23.9733 4.84329 23.5534 4.42333 23.0353 4.42333C22.5173 4.42333 22.0973 4.84329 22.0973 5.36133C22.0973 5.87937 22.5173 6.29933 23.0353 6.29933Z" fill="#FFCE00"/>
<path d="M19.5 5.85733C19.9389 5.85733 20.2947 5.50155 20.2947 5.06266C20.2947 4.62378 19.9389 4.268 19.5 4.268C19.0611 4.268 18.7053 4.62378 18.7053 5.06266C18.7053 5.50155 19.0611 5.85733 19.5 5.85733Z" fill="#FF9E16"/>
<path d="M15.9247 3.538C16.5815 3.538 17.114 3.00552 17.114 2.34867C17.114 1.69182 16.5815 1.15933 15.9247 1.15933C15.2678 1.15933 14.7353 1.69182 14.7353 2.34867C14.7353 3.00552 15.2678 3.538 15.9247 3.538Z" fill="#FFCE00"/>
<path d="M11.9587 4.87867C12.6155 4.87867 13.148 4.34618 13.148 3.68933C13.148 3.03248 12.6155 2.5 11.9587 2.5C11.3018 2.5 10.7693 3.03248 10.7693 3.68933C10.7693 4.34618 11.3018 4.87867 11.9587 4.87867Z" fill="#FF9E16"/>
</svg>
