<svg width="24" height="24" viewBox="0 0 24 24" fill="none" xmlns="http://www.w3.org/2000/svg">
<path fill-rule="evenodd" clip-rule="evenodd" d="M6.00002 5.9999C6.00002 4.01168 7.6118 2.3999 9.60002 2.3999C10.522 2.3999 11.3631 2.74653 12 3.31658C12.6369 2.74653 13.478 2.3999 14.4 2.3999C16.3882 2.3999 18 4.01168 18 5.9999C18 6.42067 17.9278 6.82457 17.7952 7.1999H19.2C20.5255 7.1999 21.6 8.27442 21.6 9.5999C21.6 10.9254 20.5255 11.9999 19.2 11.9999H13.2V10.7999C13.2 10.1372 12.6628 9.5999 12 9.5999C11.3373 9.5999 10.8 10.1372 10.8 10.7999V11.9999H4.80002C3.47454 11.9999 2.40002 10.9254 2.40002 9.5999C2.40002 8.27442 3.47454 7.1999 4.80002 7.1999H6.20487C6.07221 6.82457 6.00002 6.42067 6.00002 5.9999ZM10.8 7.1999V5.9999C10.8 5.33716 10.2628 4.7999 9.60002 4.7999C8.93728 4.7999 8.40002 5.33716 8.40002 5.9999C8.40002 6.66264 8.93728 7.1999 9.60002 7.1999H10.8ZM14.4 7.1999C15.0628 7.1999 15.6 6.66264 15.6 5.9999C15.6 5.33716 15.0628 4.7999 14.4 4.7999C13.7373 4.7999 13.2 5.33716 13.2 5.9999V7.1999H14.4Z" fill="#0055B8"/>
<path d="M10.8 13.1999H3.60002V19.1999C3.60002 20.5254 4.67454 21.5999 6.00002 21.5999H10.8V13.1999Z" fill="#0055B8"/>
<path d="M13.2 21.5999H18C19.3255 21.5999 20.4 20.5254 20.4 19.1999V13.1999H13.2V21.5999Z" fill="#0055B8"/>
<circle cx="19" cy="5" r="3.5" fill="#D92037" stroke="white"/>
</svg>
