<svg width="315" height="74" viewBox="0 0 315 74" fill="none" xmlns="http://www.w3.org/2000/svg">
<path d="M315 12.9288V55.1292H314.944C314.981 55.2943 315 55.4598 315 55.6259C315 65.7736 244.485 74 157.5 74C70.5152 74 0 65.7736 0 55.6259C0 55.4598 0.018884 55.2943 0.0564151 55.1292H0V12.4218H0.0564151C2.31232 2.50358 157.5 1 157.5 1C157.5 1 312.688 2.50358 314.944 12.4218H315V12.9079C315 12.9114 315 12.9149 315 12.9184C315 12.9219 315 12.9253 315 12.9288Z" fill="#F5F7F9"/>
<ellipse cx="157.5" cy="12" rx="157.5" ry="12" fill="#E7EBEE"/>
</svg>
