<svg width="194" height="165" viewBox="0 0 194 165" fill="none" xmlns="http://www.w3.org/2000/svg">
<path opacity="0.1" d="M-13.3289 266.065C-7.34748 270.174 -1.41079 271.705 3.15646 272.581C15.2938 274.911 28.5967 271.952 39.701 264.036C43.2036 261.539 46.4716 258.557 49.3786 255.07L146.344 138.639C151.166 133.897 155.754 127.256 162.227 120.575L172.341 109.232L183.505 96.0535C204.256 71.582 190.769 34.9812 159.405 30.4813L-44.3833 1.33998C-79.8561 -3.71042 -110.021 30.4087 -98.3262 62.3061L-65.1868 151.665L-65.4103 151.824L-56.6108 173.389L-37.7434 225.836C-37.7434 225.836 -35.7857 231.4 -32.5449 238.442L-32.4704 238.389C-29.6302 244.085 -24.5796 253.968 -20.129 259.712L-20.2035 259.765C-18.044 262.467 -15.6666 264.687 -13.3289 266.065Z" fill="white"/>
</svg>
