<svg width="168" height="190" viewBox="0 0 168 190" fill="none" xmlns="http://www.w3.org/2000/svg">
<path opacity="0.1" d="M-39.3289 266.065C-33.3475 270.174 -27.4108 271.705 -22.8435 272.581C-10.7062 274.911 2.59668 271.952 13.701 264.036C17.2036 261.539 20.4716 258.557 23.3786 255.07L120.344 138.639C125.166 133.897 129.754 127.256 136.227 120.575L146.341 109.232L157.505 96.0535C178.256 71.582 164.769 34.9812 133.405 30.4813L-70.3833 1.33998C-105.856 -3.71042 -136.021 30.4087 -124.326 62.3061L-91.1868 151.665L-91.4103 151.824L-82.6108 173.389L-63.7434 225.836C-63.7434 225.836 -61.7857 231.4 -58.5449 238.442L-58.4704 238.389C-55.6302 244.085 -50.5796 253.968 -46.129 259.712L-46.2035 259.765C-44.044 262.467 -41.6666 264.687 -39.3289 266.065Z" fill="white"/>
</svg>
