<svg width="88" height="88" viewBox="0 0 88 88" fill="none" xmlns="http://www.w3.org/2000/svg">
<g clip-path="url(#clip0_1330_130333)">
<rect width="88" height="88" fill="#FFE784"/>
<g clip-path="url(#clip1_1330_130333)">
<path d="M44.9259 13.1279V26.8322C44.9259 27.1118 44.8148 27.3799 44.6171 27.5776C44.4194 27.7753 44.1513 27.8863 43.8717 27.8863C43.5921 27.8863 43.324 27.7753 43.1263 27.5776C42.9286 27.3799 42.8175 27.1118 42.8175 26.8322V13.1279H44.9259Z" fill="#002E6D"/>
<path d="M54.4102 66.4297V47.4546H73.3853V68.538H57.5727L54.4102 66.4297Z" fill="#F5F7F9"/>
<path d="M73.3853 65.376H54.4102V68.5385H73.3853V65.376Z" fill="#FFCE00"/>
<path d="M33.3264 66.4297V47.4546H14.3513V68.538H30.1639" fill="#F5F7F9"/>
<path d="M33.3264 65.376H14.3513V68.5385H33.3264V65.376Z" fill="#FFCE00"/>
<path d="M76.5493 47.4541H11.1888C13.5819 43.2373 11.8952 46.2102 19.6224 32.6953H68.1157C75.9273 46.3999 74.1984 43.3217 76.5493 47.4541Z" fill="#007BE0"/>
<path d="M76.5493 47.4546H11.1888L12.9915 44.292H74.7466L76.5493 47.4546Z" fill="#002E6D"/>
<path d="M54.4093 36.3489V68.7005H33.3258V36.3489L43.8675 27.4243L54.4093 36.3489Z" fill="white"/>
<path d="M54.4093 35.8577V40.0744C53.6292 40.0744 54.9785 41.0653 43.8675 31.2826C32.7671 41.0548 34.1059 40.0744 33.3258 40.0744V35.8577L43.8675 27.4243L54.4093 35.8577Z" fill="#DFE3EA"/>
<path d="M60.7389 37.9664H54.6563L43.8721 28.4789L33.0879 37.9664H27.0054L43.8721 23.208L60.7389 37.9664Z" fill="white"/>
<path d="M49.1398 57.9966H38.598V68.7079H49.1398V57.9966Z" fill="#FFCE00"/>
<path d="M44.9259 57.9966H42.8175V68.7079H44.9259V57.9966Z" fill="#FFCE00"/>
<path d="M69.1714 53.7798H58.6296V59.0506H69.1714V53.7798Z" fill="#86BEFF"/>
<path d="M64.9531 53.7798H62.8447V59.0506H64.9531V53.7798Z" fill="#BDDCFF"/>
<path d="M29.108 53.7798H18.5663V59.0506H29.108V53.7798Z" fill="#86BEFF"/>
<path d="M24.8898 53.7798H22.7815V59.0506H24.8898V53.7798Z" fill="#BDDCFF"/>
<path d="M43.8673 47.4544C46.1961 47.4544 48.084 45.5665 48.084 43.2377C48.084 40.9089 46.1961 39.021 43.8673 39.021C41.5385 39.021 39.6506 40.9089 39.6506 43.2377C39.6506 45.5665 41.5385 47.4544 43.8673 47.4544Z" fill="#FFCE00"/>
<path d="M43.8642 47.4545C43.2209 47.454 42.5863 47.3063 42.0088 47.0228C41.4314 46.7393 40.9265 46.3274 40.5328 45.8187C40.139 45.31 39.8669 44.718 39.7372 44.0879C39.6075 43.4578 39.6237 42.8064 39.7845 42.1836C40.0204 43.086 40.5487 43.8847 41.2869 44.4547C42.0251 45.0248 42.9315 45.334 43.8642 45.334C44.7969 45.334 45.7032 45.0248 46.4414 44.4547C47.1796 43.8847 47.708 43.086 47.9438 42.1836C48.1046 42.8064 48.1208 43.4578 47.9911 44.0879C47.8615 44.718 47.5893 45.31 47.1956 45.8187C46.8019 46.3274 46.297 46.7393 45.7195 47.0228C45.1421 47.3063 44.5075 47.454 43.8642 47.4545Z" fill="#FFCE00"/>
<path d="M52.3051 13.1279H42.8175V19.453H52.3051V13.1279Z" fill="#007BE0"/>
</g>
<rect x="4.88611" y="68.4448" width="78.2222" height="24.4444" fill="#D6EBFF"/>
</g>
<defs>
<clipPath id="clip0_1330_130333">
<rect width="88" height="88" rx="44" fill="white"/>
</clipPath>
<clipPath id="clip1_1330_130333">
<rect width="66" height="66" fill="white" transform="translate(11 2.44482)"/>
</clipPath>
</defs>
</svg>
