<svg width="120" height="120" viewBox="0 0 120 120" fill="none" xmlns="http://www.w3.org/2000/svg">
<mask id="mask0_908_73835" style="mask-type:alpha" maskUnits="userSpaceOnUse" x="0" y="0" width="120" height="120">
<rect width="120" height="120" fill="#D9D9D9"/>
</mask>
<g mask="url(#mask0_908_73835)">
<path d="M5.84668 13.9998C5.84668 10.8988 7.07853 7.92487 9.27123 5.73217C11.4639 3.53946 14.4379 2.30762 17.5388 2.30762H44.3489C47.4496 2.30828 50.4231 3.54056 52.6152 5.73342L72.5737 25.6919C74.7666 27.8841 75.9989 30.8576 75.9995 33.9582V84.1526C75.9995 87.2536 74.7677 90.2275 72.575 92.4202C70.3823 94.6129 67.4083 95.8448 64.3074 95.8448H55.3746C61.3482 89.1622 64.5369 80.4464 64.2862 71.4867C64.0354 62.527 60.3642 54.0032 54.0262 47.6652C47.6883 41.3272 39.1645 37.656 30.2047 37.4053C21.245 37.1545 12.5292 40.3433 5.84668 46.3168V13.9998Z" fill="#FFF7D7"/>
<path fill-rule="evenodd" clip-rule="evenodd" d="M29.2315 49.076C25.1081 49.0754 21.0578 50.1652 17.4914 52.2348C13.9249 54.3044 10.9691 57.2803 8.92371 60.8606C6.87829 64.441 5.81598 68.4986 5.84447 72.6219C5.87297 76.7453 6.99127 80.7878 9.08598 84.3395L1.71408 91.7056C1.17092 92.2484 0.739991 92.8928 0.445888 93.6021C0.151785 94.3114 0.000271806 95.0717 3.65368e-07 95.8396C-0.000271075 96.6075 0.150704 97.3679 0.444306 98.0774C0.737907 98.787 1.16839 99.4317 1.71116 99.9748C2.25394 100.518 2.89838 100.949 3.6077 101.243C4.31702 101.537 5.07732 101.689 5.84519 101.689C6.61306 101.689 7.37347 101.538 8.083 101.245C8.79252 100.951 9.43727 100.521 9.98043 99.9778L17.3523 92.6059C20.4498 94.4315 23.9266 95.5183 27.5124 95.7817C31.0983 96.0452 34.6965 95.4782 38.0276 94.1249C41.3587 92.7716 44.3328 90.6684 46.7189 87.9787C49.1049 85.289 50.8386 82.0854 51.7852 78.6167C52.7318 75.1481 52.8658 71.5079 52.1768 67.979C51.4877 64.4502 49.9942 61.1277 47.8124 58.2699C45.6305 55.4121 42.819 53.096 39.5965 51.5014C36.3739 49.9069 32.827 49.0769 29.2315 49.076ZM17.5394 72.4603C17.5394 69.3594 18.7712 66.3854 20.9639 64.1927C23.1567 62 26.1306 60.7682 29.2315 60.7682C32.3325 60.7682 35.3064 62 37.4991 64.1927C39.6918 66.3854 40.9237 69.3594 40.9237 72.4603C40.9237 75.5613 39.6918 78.5352 37.4991 80.7279C35.3064 82.9206 32.3325 84.1525 29.2315 84.1525C26.1306 84.1525 23.1567 82.9206 20.9639 80.7279C18.7712 78.5352 17.5394 75.5613 17.5394 72.4603Z" fill="#FFE784"/>
<mask id="mask1_908_73835" style="mask-type:alpha" maskUnits="userSpaceOnUse" x="42" y="14" width="93" height="92">
<rect x="42.75" y="14.4002" width="91.5" height="91.5" fill="#D9D9D9"/>
</mask>
<g mask="url(#mask1_908_73835)">
<path d="M111.038 74.3604C113.722 66.637 107.943 58.592 99.7699 58.7206L96.6033 58.7688C96.5792 58.7688 96.5631 58.7688 96.539 58.7688L88.6468 58.8974L80.7545 58.7688C80.7304 58.7688 80.7143 58.7688 80.6902 58.7688L77.5237 58.7206C69.3502 58.592 63.5716 66.637 66.2559 74.3604C67.132 76.884 68.0723 79.2308 69.0528 81.4088C69.5832 82.6867 70.2664 84.0931 71.0299 85.5478C74.3571 92.0738 77.8693 96.9924 80.5616 101.019C80.6661 101.172 80.7786 101.324 80.8912 101.469C82.6754 104.049 85.649 105.278 88.6548 105.238C91.6526 105.286 94.6343 104.049 96.4185 101.469C96.531 101.324 96.6435 101.172 96.748 101.019C99.4404 96.9924 102.952 92.0738 106.28 85.5478C107.043 84.0931 107.726 82.6947 108.257 81.4088C109.221 79.2228 110.162 76.884 111.038 74.3604Z" fill="#F89E1C"/>
<path d="M97.2542 90.0244C99.4805 85.7167 95.0682 82.7591 90.1657 85.5961C84.3228 88.9716 80.867 87.4526 76.9691 80.991C73.8025 75.7348 69.1733 77.093 67.5498 77.7842C68.0561 79.0621 68.5705 80.2998 69.1009 81.4812C69.6314 82.7591 70.3145 84.1655 71.078 85.6202C74.4053 92.1462 77.9174 97.0648 80.6098 101.091C80.7143 101.244 80.8268 101.397 80.9393 101.541C82.7235 104.121 85.6972 105.351 88.703 105.311C91.7007 105.359 94.6824 104.121 96.4666 101.541C96.5791 101.397 96.6917 101.244 96.7961 101.091C97.6722 99.7732 98.6446 98.3668 99.6573 96.8317C97.3266 96.454 95.1003 94.1876 97.2542 90.0244Z" fill="#032663"/>
<path d="M88.5022 105.448C85.3277 105.448 82.4504 104.025 80.7868 101.614C80.6743 101.469 80.5618 101.317 80.4573 101.156C80.0715 100.577 79.6616 99.9745 79.2437 99.3557C76.8005 95.7471 73.7706 91.2625 70.9175 85.6688C70.1057 84.1258 69.4387 82.7273 68.9324 81.5218C68.3939 80.3243 67.8715 79.0786 67.3812 77.8248L67.333 77.6962L67.4616 77.64C69.286 76.8604 73.8751 75.6227 77.0577 80.911C81.044 87.5254 84.4436 88.7148 90.0614 85.4679C93.0511 83.74 95.6792 84.1981 96.9571 85.4197C98.1305 86.5449 98.2832 88.2889 97.3509 90.0891C96.4106 91.9135 96.2418 93.5289 96.8687 94.7666C97.375 95.7632 98.4117 96.4785 99.6414 96.6794L99.8664 96.7116L99.7378 96.8964C99.1672 97.7564 98.6127 98.5761 98.0742 99.3637C97.6563 99.9826 97.2544 100.577 96.8687 101.148C96.7642 101.309 96.6517 101.461 96.5391 101.606C94.8514 104.049 91.9179 105.488 88.663 105.432C88.6067 105.448 88.5505 105.448 88.5022 105.448ZM88.663 105.158C91.8215 105.207 94.6665 103.824 96.3061 101.453C96.4186 101.301 96.5311 101.156 96.6276 101.003C97.0133 100.425 97.4152 99.8299 97.8331 99.211C98.3314 98.4797 98.8377 97.7162 99.3681 96.9286C98.1385 96.6714 97.1178 95.9239 96.6034 94.9032C96.1373 93.979 95.8399 92.3716 97.0937 89.9605L97.2223 90.0248L97.0937 89.9605C97.9617 88.2808 97.8411 86.6654 96.7561 85.6367C95.5506 84.4874 93.0592 84.0695 90.2061 85.7251C84.4838 89.0363 80.8511 87.7745 76.8085 81.0717C73.8108 76.1049 69.5351 77.1176 67.7027 77.865C68.1769 79.0705 68.6832 80.268 69.1976 81.4253C69.6959 82.6309 70.3629 84.0132 71.1747 85.5563C74.0197 91.1339 77.0496 95.6105 79.4848 99.211C79.9027 99.8299 80.3126 100.433 80.6984 101.011C80.8029 101.164 80.9074 101.309 81.0199 101.461C82.6594 103.824 85.5205 105.215 88.663 105.158Z" fill="#10319B"/>
<path d="M88.7997 105.447C88.7435 105.447 88.6952 105.447 88.639 105.447C85.4082 105.495 82.4506 104.065 80.7628 101.613C80.6503 101.469 80.5378 101.316 80.4333 101.155C80.0475 100.577 79.6376 99.9738 79.2197 99.355C76.7765 95.7464 73.7466 91.2618 70.8935 85.6681C70.0818 84.125 69.4147 82.7266 68.9084 81.5211C67.8796 79.2145 66.9393 76.8436 66.1115 74.4646C64.8095 70.7275 65.3962 66.7412 67.7109 63.5425C70.0175 60.3599 73.5859 58.5757 77.5239 58.6319L80.6824 58.6802H80.7467L88.639 58.8087L96.5312 58.6802H96.5714L99.7621 58.6319C103.7 58.5676 107.269 60.3599 109.575 63.5425C111.89 66.7412 112.476 70.7275 111.174 74.4646C110.347 76.8436 109.406 79.2225 108.378 81.5291C107.879 82.7346 107.212 84.1331 106.393 85.6761C103.539 91.2618 100.501 95.7544 98.0663 99.363C97.6484 99.9818 97.2385 100.585 96.8527 101.163C96.7482 101.324 96.6357 101.477 96.5232 101.621C94.8596 104.024 91.9823 105.447 88.7997 105.447ZM88.639 105.158C91.7975 105.206 94.6426 103.823 96.2821 101.453C96.3946 101.3 96.5071 101.155 96.6036 101.003C96.9893 100.424 97.3992 99.8211 97.8171 99.2023C100.252 95.6017 103.282 91.1171 106.127 85.5476C106.939 84.0125 107.598 82.6221 108.104 81.4246C109.133 79.1261 110.073 76.7552 110.893 74.3843C112.163 70.7355 111.592 66.8457 109.334 63.7273C107.084 60.6251 103.588 58.8811 99.7621 58.9373L96.6036 58.9856H96.5634L88.647 59.1141L80.7467 58.9856H80.6824L77.5159 58.9373C73.6903 58.8811 70.1943 60.6251 67.9439 63.7273C65.6856 66.8537 65.1149 70.7355 66.3848 74.3843C67.2045 76.7552 68.1449 79.1261 69.1736 81.4246C69.6719 82.6301 70.3389 84.0125 71.1507 85.5556C73.9957 91.1332 77.0256 95.6098 79.4608 99.2103C79.8788 99.8291 80.2886 100.432 80.6744 101.011C80.7789 101.163 80.8834 101.308 80.9959 101.461C82.6435 103.823 85.5046 105.214 88.639 105.158Z" fill="#10319B"/>
<path d="M107.245 62.9965C105.212 61.2364 102.624 60.1755 99.7305 60.2318L96.556 60.288C96.5319 60.288 96.5158 60.288 96.4917 60.288L88.5592 60.4247L80.6268 60.288C80.6027 60.288 80.5866 60.288 80.5625 60.288L77.3879 60.2318C72.9837 60.1595 70.5887 63.326 68.5152 66.9507C68.049 67.7704 68.5071 68.8313 69.3992 69.0081C76.9137 70.4949 94.0083 72.1586 107.245 62.9965Z" fill="#E26907"/>
<path d="M86.5821 84.1974C85.8266 84.1974 85.0631 84.0126 84.3639 83.6348C82.8771 82.8311 81.9609 81.3443 81.9046 79.6566L81.6153 69.9801C81.5671 68.2924 82.3949 66.7493 83.8335 65.8652C85.2721 64.9731 87.0161 64.9249 88.5029 65.7286L97.0944 70.3498C98.533 71.1214 99.4412 72.5519 99.5296 74.1834C99.618 75.8149 98.8625 77.3339 97.5203 78.2501C97.4801 78.2822 97.4319 78.3064 97.3917 78.3385L97.3355 78.3706L89.0414 83.4982C88.2779 83.9563 87.426 84.1974 86.5821 84.1974ZM86.2847 65.7366C85.5453 65.7366 84.7979 65.9456 84.1308 66.3555C82.869 67.135 82.1457 68.4852 82.1939 69.964L82.4833 79.6405C82.5315 81.1193 83.3352 82.4213 84.6372 83.1205C85.9391 83.8197 87.4742 83.7795 88.7279 82.9999L97.0783 77.8402C97.1185 77.8161 97.1587 77.792 97.1908 77.7679C98.3642 76.9642 99.0232 75.6381 98.9429 74.2075C98.8705 72.785 98.0749 71.5312 96.8131 70.8561L88.2216 66.2349C87.6108 65.8974 86.9438 65.7366 86.2847 65.7366Z" fill="#F89E1C"/>
<path d="M86.5412 84.2705C85.7937 84.2705 85.0383 84.0856 84.3391 83.7079C82.8603 82.9123 81.9521 81.4415 81.9039 79.7618L81.6065 69.8442C81.5583 68.1726 82.378 66.6455 83.8006 65.7615C85.2231 64.8774 86.9591 64.8292 88.4379 65.6249L97.2383 70.3666C98.6608 71.1301 99.561 72.5527 99.6494 74.1681C99.7378 75.7835 98.9903 77.2945 97.6643 78.2026C97.6241 78.2348 97.5758 78.2589 97.5357 78.291L97.4794 78.3232L88.9764 83.5793C88.2209 84.0374 87.385 84.2705 86.5412 84.2705ZM86.2358 65.3596C85.4481 65.3596 84.6605 65.5766 83.9533 66.0187C82.6192 66.8465 81.8476 68.277 81.8958 69.8442L82.1932 79.7618C82.2414 81.329 83.0933 82.7113 84.4757 83.4588C85.858 84.2062 87.4815 84.158 88.8237 83.3302L97.3749 78.0419C97.4151 78.0178 97.4553 77.9856 97.4955 77.9615C98.7412 77.1096 99.4404 75.7031 99.36 74.1842C99.2797 72.6732 98.4358 71.3391 97.1017 70.6238L88.3013 65.882C87.6503 65.5365 86.943 65.3596 86.2358 65.3596Z" fill="#10319B"/>
<path d="M87.1204 81.9715C86.5418 81.9715 85.9631 81.8268 85.4246 81.5375C84.2834 80.9267 83.5842 79.7935 83.544 78.4995L83.327 71.2502C83.2868 69.9563 83.9217 68.7829 85.0228 68.1078C86.1238 67.4247 87.458 67.3925 88.5912 68.0033L95.0207 71.4672C96.1218 72.062 96.8129 73.155 96.8772 74.4007C96.9415 75.6464 96.3709 76.8118 95.3422 77.511C95.31 77.5351 95.2779 77.5512 95.2457 77.5753L95.2055 77.5994L88.993 81.441C88.4144 81.7866 87.7714 81.9715 87.1204 81.9715ZM86.8954 68.148C86.3489 68.148 85.8104 68.3007 85.3201 68.598C84.4039 69.1687 83.8735 70.1492 83.9057 71.2342L84.1226 78.4834C84.1548 79.5684 84.7415 80.5168 85.6979 81.0311C86.6462 81.5455 87.7714 81.5134 88.6876 80.9427L94.9323 77.077C94.9644 77.0609 94.9886 77.0368 95.0127 77.0207C95.8726 76.434 96.3468 75.4616 96.2905 74.4248C96.2343 73.388 95.6556 72.4718 94.7394 71.9735L88.3099 68.5096C87.8678 68.2685 87.3856 68.148 86.8954 68.148Z" fill="#F89E1C"/>
<path d="M95.0284 77.2617C95.0605 77.2457 95.0927 77.2216 95.1168 77.2055C97.0698 75.8714 96.9331 72.9218 94.8275 71.7886L88.5426 68.397C86.3646 67.2236 83.7446 68.8471 83.8169 71.3225L84.0259 78.403C84.0982 80.8703 86.8227 82.333 88.9203 81.0391L94.9962 77.2858C95.0043 77.2778 95.0204 77.2698 95.0284 77.2617Z" fill="#032663"/>
<path d="M92.4004 76.1691C92.4165 76.161 92.4326 76.145 92.4486 76.1369C93.5497 75.3895 93.4693 73.7258 92.2799 73.0829L88.7356 71.1781C87.5059 70.5191 86.0271 71.4353 86.0754 72.8257L86.1959 76.8201C86.2361 78.2104 87.7712 79.0382 88.9526 78.3069L92.3763 76.1932C92.3843 76.1851 92.3924 76.1771 92.4004 76.1691Z" fill="#33FCFE"/>
<path d="M108.458 65.7209C107.477 66.8381 101.763 69.6751 101.763 69.6751C101.763 69.6751 103.724 71.1459 103.756 74.2561C103.78 76.5788 101.586 78.6604 101.586 78.6604C103.563 80.6776 102.816 84.238 101.353 86.9384C99.8905 89.6388 101.184 90.4264 101.184 90.4264C101.184 90.4264 109.736 77.6477 110.483 70.4708C110.789 67.5534 108.458 65.7209 108.458 65.7209Z" fill="#F4B821"/>
<path d="M69.8242 79.2388C69.8242 79.2388 72.0424 78.8691 73.2319 80.372C74.4213 81.8749 81.4938 95.2081 84.7889 99.974C85.3837 100.834 86.9107 103.784 88.6065 103.197C88.6065 103.197 86.2436 104.539 82.7636 101.035C79.2917 97.5228 71.8656 83.4662 69.8242 79.2388Z" fill="#0E51A0"/>
<path d="M65.8559 23.4779C67.4751 22.3364 69.41 21.3649 71.5474 20.5553L71.4097 20.5877C71.4097 20.5877 78.2751 16.7906 88.5166 16.7906C98.7256 16.7906 105.672 20.4743 105.712 20.4986C107.915 21.3163 109.89 22.304 111.55 23.4698C119.54 29.0966 118.885 41.1839 115.379 52.575C112.845 60.8653 100.774 64.638 88.7109 64.4518C76.6478 64.638 64.5767 60.8653 62.0265 52.575C58.5209 41.192 57.8651 29.1047 65.8559 23.4779Z" fill="#F89E1C"/>
<path d="M65.8554 23.5195C66.7055 22.9204 67.6446 22.3699 68.6485 21.8598C60.8197 27.5513 61.4836 39.5739 64.9649 50.9083C67.5151 59.2148 79.5781 62.9875 91.6493 62.8094C98.5066 62.9146 105.364 61.7326 110.481 59.1743C105.275 62.9632 96.9926 64.7119 88.7023 64.5824C76.6393 64.7686 64.5682 60.9878 62.0179 52.6813C58.5205 41.274 57.8647 29.1624 65.8554 23.5195Z" fill="#F5851F"/>
<path d="M69.5877 33.6562C64.6896 32.6361 64.3658 24.8316 64.3496 24.4916L64.9325 24.4754C64.9325 24.5482 65.2564 32.1585 69.7011 33.0814L69.5877 33.6562Z" fill="#F89E1C"/>
<path d="M106.772 33.9548L106.61 33.3962C111.484 31.9794 111.768 24.0615 111.768 23.9805L112.35 23.9967C112.342 24.3368 112.051 32.4247 106.772 33.9548Z" fill="#F4B821"/>
<path d="M88.8802 23.73C86.1356 23.73 83.5854 22.8313 82.0957 21.3174C82.0472 21.2688 81.9986 21.2202 81.95 21.1636L79.2783 18.1519L79.9341 17.5689L82.6058 20.5726C82.6382 20.613 82.6786 20.6535 82.7191 20.694C84.1683 22.1675 86.7752 22.9771 89.5359 22.8313C92.2157 22.6856 94.5474 21.6655 95.7699 20.1192L97.6805 17.6904L98.3687 18.2328L96.458 20.6616C95.0898 22.4104 92.5153 23.5438 89.5845 23.7057C89.3416 23.7219 89.115 23.73 88.8802 23.73Z" fill="#F4B821"/>
<path d="M88.8645 26.8949C85.2294 26.8949 81.9343 25.6724 79.8374 23.5351C79.7646 23.4622 79.6836 23.3812 79.6108 23.3003L79.5298 23.2112L75.8623 19.0904L76.5181 18.5075L80.2584 22.7174C80.3232 22.7902 80.388 22.8631 80.4608 22.9279C82.3958 24.8871 85.4642 26.0205 88.8645 26.0205C89.1397 26.0205 89.4231 26.0124 89.7065 25.9963C93.3335 25.7939 96.4504 24.369 98.2477 22.0778L100.976 18.6046L101.664 19.147L98.9359 22.6202C96.9848 25.1057 93.633 26.652 89.755 26.8706C89.4636 26.8868 89.164 26.8949 88.8645 26.8949Z" fill="#F4B821"/>
<path d="M111.096 25.6072C109.436 24.4333 107.461 23.4294 105.258 22.6117C105.21 22.5874 98.2473 18.3451 88.0382 18.3451C81.3185 18.337 75.4489 19.4623 72.1943 20.2314C74.2588 19.2599 80.2984 16.7906 88.524 16.7906C98.733 16.7906 105.679 20.5067 105.72 20.531C107.922 21.3568 109.897 22.3526 111.557 23.5265C118.682 28.5865 118.933 38.828 116.415 49.1261C118.406 39.5566 117.742 30.3272 111.096 25.6072Z" fill="#F4B821"/>
<path d="M107.25 33.558L107.193 33.2746C111.76 32.3274 112.253 24.199 112.261 24.118L112.553 24.1342C112.529 24.4743 112.035 32.5622 107.25 33.558Z" fill="#10319B"/>
<path d="M98.5879 22.3217L101.316 18.8485C100.361 18.5409 99.2517 18.2251 98.013 17.9337L96.1024 20.3625C94.807 22.0141 92.3539 23.0827 89.5527 23.2447C86.6706 23.4066 83.9341 22.5403 82.404 20.9778C82.3554 20.9292 82.3149 20.8887 82.2744 20.8401L79.6028 17.8365C78.3317 18.1199 77.1901 18.4437 76.1943 18.7595L79.8618 22.8803L79.9428 22.9694C80.0156 23.0423 80.0804 23.1232 80.1533 23.1961C82.1692 25.2444 85.3752 26.4183 88.8646 26.4183C89.1479 26.4183 89.4394 26.4102 89.7308 26.394C93.4793 26.1997 96.7096 24.71 98.5879 22.3217Z" fill="#032663"/>
<path d="M70.0648 33.5588C65.28 32.563 64.7538 24.5561 64.7295 24.216L65.0209 24.1998C65.029 24.2808 65.5553 32.3282 70.1214 33.2755L70.0648 33.5588Z" fill="#10319B"/>
<path d="M88.6459 64.3479C82.6791 64.4369 76.7204 63.6111 71.7819 61.7976C70.6323 60.5671 69.7174 58.9802 69.1831 57.1343C67.8148 52.3982 66.2766 45.7757 65.6856 38.3354C65.3941 34.6761 67.4586 31.3567 70.4218 30.6443C74.4617 29.6727 80.6956 28.5474 88.0953 28.434V28.4259C88.3058 28.4259 88.5082 28.434 88.7187 28.434C88.9292 28.434 89.1316 28.4259 89.3421 28.4259V28.434C96.7419 28.5474 102.83 29.4865 106.87 30.458C109.833 31.1705 112.043 34.6761 111.752 38.3354C111.161 45.7757 109.623 52.3982 108.254 57.1343C107.728 58.9398 106.846 60.4942 105.728 61.7248C100.733 63.5869 94.6855 64.4369 88.6459 64.3479Z" fill="#032663"/>
<path d="M109.25 59.8784L108.076 60.518C108.295 59.8703 108.659 58.7773 108.902 58.0082C109.55 55.9842 110.286 53.6849 110.942 52.1467C112.003 49.6612 114.95 47.783 116.885 46.8438L116.553 48.1149C114.747 48.9974 112.699 50.2522 111.744 52.4948C111.104 54.0007 110.375 56.2757 109.728 58.2835C109.493 59.0445 109.469 59.2307 109.25 59.8784Z" fill="#F4B821"/>
<path d="M68.527 60.0648C68.4622 60.0648 68.4056 60.0244 68.3894 59.9677C68.1951 59.3929 67.9927 58.7614 67.7822 58.1218C67.1507 56.1707 66.4301 53.9524 65.7582 52.3736C64.7786 50.0825 62.6736 48.8114 60.7387 47.8642C60.6658 47.8318 60.6334 47.7427 60.6739 47.6699C60.7063 47.597 60.7953 47.5646 60.8682 47.6051C62.8517 48.5685 65.0133 49.8801 66.0334 52.2603C66.7135 53.8552 67.434 56.0735 68.0655 58.0327C68.276 58.6723 68.4784 59.2957 68.6646 59.8786C68.6889 59.9515 68.6484 60.0405 68.5756 60.0648C68.5594 60.0648 68.5432 60.0648 68.527 60.0648Z" fill="#F89E1C"/>
<path d="M116.649 48.0743C116.301 49.5802 115.896 51.0941 115.435 52.5919C114.488 55.6846 112.245 58.1457 109.177 60.024C109.97 57.6519 110.634 55.0045 111.525 52.9076C112.585 50.4384 114.941 48.9001 116.649 48.0743Z" fill="#032663"/>
<path d="M114.569 52.7785C114.893 51.9042 115.192 51.0298 115.475 50.1473C114.569 50.7302 113.638 51.5722 113.071 52.7461C112.464 53.9929 111.929 55.5312 111.379 56.9965C112.82 55.8874 113.929 54.4868 114.569 52.7785Z" fill="#0E51A0"/>
<path d="M109.363 60.0077L109.088 59.9186C109.363 59.1009 109.622 58.2347 109.873 57.4008C110.351 55.814 110.853 54.1786 111.436 52.7942C112.488 50.3168 114.844 48.7624 116.625 47.888L116.755 48.1471C115.014 48.9971 112.731 50.503 111.703 52.8994C111.12 54.2676 110.626 55.8949 110.148 57.4736C109.897 58.3237 109.638 59.19 109.363 60.0077Z" fill="#10319B"/>
<path d="M60.7383 48.0743C61.0864 49.5802 61.4912 51.0941 61.9527 52.5919C62.8999 55.6846 65.1425 58.1457 68.2109 60.024C67.4175 57.6519 66.7536 55.0045 65.863 52.9076C64.8106 50.4384 62.4465 48.9001 60.7383 48.0743Z" fill="#032663"/>
<path d="M89.5036 64.5822C89.2364 64.5822 88.9692 64.5822 88.7101 64.5741C78.0801 64.736 64.6893 61.7 61.8881 52.6082C59.3784 44.4637 56.5528 29.8423 65.7742 23.3493L65.8552 23.4707L65.7742 23.3493C67.3853 22.2159 71.2957 20.4914 71.4657 20.4185C71.5223 20.3862 78.3635 16.6458 88.5239 16.6458C98.7168 16.6458 105.72 20.3295 105.793 20.37C108.051 21.2039 110.027 22.2078 111.646 23.3493C120.867 29.8423 118.042 44.4637 115.532 52.6001C112.796 61.4733 99.9879 64.5822 89.5036 64.5822ZM88.7021 64.2827C88.9611 64.2827 89.2283 64.2908 89.4955 64.2908C99.8826 64.2908 112.561 61.2386 115.249 52.5192C117.734 44.4556 120.544 29.9799 111.476 23.5922C109.873 22.4668 107.922 21.471 105.671 20.6371C105.582 20.5886 98.6358 16.9454 88.5239 16.9454C78.4444 16.9454 71.66 20.6452 71.5952 20.6857C71.5466 20.71 67.5391 22.4749 65.9442 23.5922C56.8686 29.9718 59.686 44.4556 62.1634 52.5192C64.916 61.4572 78.1854 64.4446 88.7021 64.2827Z" fill="#10319B"/>
<path d="M88.7107 63.0684C83.594 63.1413 78.4854 62.5017 74.1298 61.1011C73.4578 60.8825 72.8506 60.4777 72.4296 59.911C71.7091 58.9556 71.1424 57.8303 70.7619 56.5754C69.4989 52.3169 68.0821 46.3502 67.5396 39.6548C67.2725 36.3597 69.175 33.3723 71.9034 32.7327C75.6275 31.8584 81.3757 30.8464 88.2006 30.7411V30.733C88.3949 30.733 88.5811 30.733 88.7754 30.7411C88.9697 30.7411 89.156 30.733 89.3503 30.733V30.7411C96.1752 30.8464 101.915 31.8584 105.648 32.7327C108.384 33.3723 110.278 36.3597 110.011 39.6548C109.461 46.3502 108.052 52.3169 106.789 56.5754C106.417 57.8222 105.858 58.9314 105.146 59.8786C104.741 60.421 104.174 60.8096 103.534 61.0201C99.114 62.4855 93.9164 63.1494 88.7107 63.0684Z" fill="#FCE8CA"/>
<path d="M87.7389 64.4125C81.8369 64.4125 76.3154 63.53 71.725 61.846L71.6926 61.8379L71.6683 61.8137C70.4701 60.5264 69.5634 58.891 69.0371 57.0856C67.7822 52.7299 66.1469 45.9212 65.5316 38.2219C65.232 34.4735 67.3127 31.0974 70.3811 30.3607C74.5019 29.373 92.7989 26.4746 107.04 30.3607C110.092 31.1946 112.173 34.5706 111.881 38.2219C111.266 45.9212 109.639 52.7299 108.376 57.0856C107.866 58.8586 106.975 60.4697 105.817 61.7408L105.793 61.7651L105.761 61.7813C100.968 63.5786 94.8876 64.5177 88.6375 64.4206C88.338 64.4125 88.0384 64.4125 87.7389 64.4125ZM88.6456 64.1129C94.8472 64.2101 100.871 63.279 105.631 61.506C106.748 60.2673 107.606 58.7129 108.1 56.9965C109.355 52.6571 110.982 45.8645 111.59 38.1895C111.873 34.6759 109.881 31.4294 106.959 30.636C92.7746 26.7661 74.5505 29.6563 70.4458 30.636C67.5232 31.3403 65.5316 34.5868 65.823 38.1895C66.4383 45.8645 68.0575 52.6571 69.3124 56.9965C69.8224 58.7534 70.6968 60.3402 71.8545 61.587C76.5745 63.3033 82.5332 64.2101 88.6456 64.1129Z" fill="#10319B"/>
<path d="M68.0818 59.9104C67.8146 59.117 67.5636 58.2912 67.3208 57.4897C66.8431 55.9191 66.3412 54.2999 65.7501 52.9074C64.73 50.5109 62.4389 48.997 60.6982 48.155L60.8278 47.8959C62.6089 48.7622 64.9567 50.3166 66.0173 52.8021C66.6164 54.2027 67.1184 55.8381 67.596 57.4087C67.8389 58.2102 68.0899 59.036 68.3571 59.8213L68.0818 59.9104Z" fill="#10319B"/>
<path d="M112.367 48.0098L116.116 45.8238C116.116 45.8238 117.184 35.0562 113.703 30.1581L112.699 33.2427C112.699 33.2427 114.31 35.5824 112.367 48.0098Z" fill="#F4B821"/>
<ellipse cx="88.9279" cy="55.7841" rx="1.99426" ry="2.74211" fill="#032663"/>
<path d="M76.0824 41.4164C76.13 41.4085 76.1775 41.3847 76.2171 41.3451C76.8274 40.814 77.628 40.6 78.4206 40.7665C78.5949 40.8061 78.7614 40.6951 78.7931 40.5208C78.8327 40.3464 78.7218 40.1799 78.5474 40.1482C77.5566 39.9422 76.558 40.2037 75.7971 40.8695C75.6623 40.9884 75.6544 41.1865 75.7654 41.3213C75.8525 41.4085 75.9714 41.4402 76.0824 41.4164Z" fill="#032663"/>
<path d="M101.541 41.4165C101.493 41.4086 101.446 41.3848 101.406 41.3452C100.796 40.8142 99.9954 40.6002 99.2028 40.7666C99.0284 40.8062 98.862 40.6953 98.8303 40.5209C98.7907 40.3465 98.9016 40.1801 99.076 40.1484C100.067 39.9423 101.065 40.2039 101.826 40.8696C101.961 40.9885 101.969 41.1867 101.858 41.3214C101.779 41.4086 101.652 41.4403 101.541 41.4165Z" fill="#032663"/>
<path d="M84.0574 49.5717C83.994 49.7461 83.9148 49.9204 83.8197 50.0789L78.2398 50.5545C78.1209 50.4118 78.0178 50.2533 77.9307 50.0869L84.0574 49.5717Z" fill="#0052A3"/>
<path d="M84.2399 48.8814C84.2161 49.0558 84.1765 49.2223 84.129 49.3808L77.8357 49.9197C77.7644 49.7691 77.701 49.6106 77.6455 49.4442L84.2399 48.8814Z" fill="#0052A3"/>
<path d="M84.2399 47.5186L84.2716 48.01L77.4791 48.5886L77.4395 48.1051L84.2399 47.5186Z" fill="#0052A3"/>
<path d="M84.2798 48.2003C84.2877 48.3667 84.2798 48.5332 84.2639 48.6917L77.5823 49.2624C77.5427 49.1038 77.511 48.9453 77.4951 48.7789L84.2798 48.2003Z" fill="#0052A3"/>
<path d="M83.0589 51.0141C82.7815 51.2519 82.4724 51.4421 82.1315 51.5848L80.158 51.7512C79.8013 51.6719 79.4605 51.5293 79.1514 51.347L83.0589 51.0141Z" fill="#0052A3"/>
<path d="M83.1851 43.3494L77.8271 43.8091C77.946 43.6189 78.0887 43.4445 78.2393 43.286L82.7016 42.9056C82.876 43.0324 83.0424 43.183 83.1851 43.3494Z" fill="#0052A3"/>
<path d="M83.7001 50.2846C83.5732 50.4749 83.4306 50.6492 83.28 50.8078L78.889 51.1803C78.7067 51.0455 78.5402 50.8949 78.3896 50.7285L83.7001 50.2846Z" fill="#0052A3"/>
<path d="M81.5046 42.3267C81.8454 42.4139 82.1625 42.5486 82.4557 42.7388L78.4531 43.0796C78.7147 42.8498 79.0079 42.6596 79.3329 42.5169L81.5046 42.3267Z" fill="#0052A3"/>
<path d="M83.7318 44.1741C83.8031 44.3247 83.8665 44.4833 83.9141 44.6497L77.2959 45.2124C77.3197 45.0381 77.3593 44.8716 77.4069 44.7131L83.7318 44.1741Z" fill="#0052A3"/>
<path d="M83.9702 44.832C84.0099 44.9905 84.0416 45.149 84.0574 45.3155L77.2728 45.8941C77.2649 45.7276 77.2649 45.5612 77.2807 45.4027L83.9702 44.832Z" fill="#0052A3"/>
<path d="M83.3437 43.5237C83.4547 43.6663 83.5577 43.8249 83.6449 43.9913L77.4785 44.5144C77.5419 44.34 77.6133 44.1657 77.7084 44.0071L83.3437 43.5237Z" fill="#0052A3"/>
<path d="M84.1285 46.171L84.1681 46.6624L77.3756 47.241L77.3359 46.7496L84.1285 46.171Z" fill="#0052A3"/>
<path d="M84.0808 45.4978L84.1125 45.9892L77.3199 46.5678L77.2803 46.0764L84.0808 45.4978Z" fill="#0052A3"/>
<path d="M84.1842 46.8442L84.2238 47.3356L77.4233 47.9142L77.3916 47.4228L84.1842 46.8442Z" fill="#0052A3"/>
<path d="M99.9894 49.9353C99.9022 50.1018 99.8071 50.2682 99.6962 50.4188L94.0925 50.2444C93.9974 50.0859 93.9102 49.9195 93.8389 49.7451L99.9894 49.9353Z" fill="#0052A3"/>
<path d="M100.251 49.2695C100.204 49.4359 100.148 49.5944 100.077 49.753L93.7597 49.5627C93.7043 49.4042 93.6567 49.2378 93.625 49.0713L100.251 49.2695Z" fill="#0052A3"/>
<path d="M100.402 47.9145L100.378 48.4059L93.5615 48.1998L93.5853 47.7084L100.402 47.9145Z" fill="#0052A3"/>
<path d="M100.37 48.5962C100.354 48.7627 100.338 48.9212 100.298 49.0797L93.601 48.8736C93.5773 48.7151 93.5693 48.5487 93.5693 48.3822L100.37 48.5962Z" fill="#0052A3"/>
<path d="M98.8247 51.2513C98.5235 51.4574 98.1906 51.608 97.834 51.711L95.8525 51.6476C95.5037 51.5287 95.1867 51.3464 94.9014 51.1324L98.8247 51.2513Z" fill="#0052A3"/>
<path d="M99.8387 43.6506L94.4648 43.492C94.6075 43.3177 94.766 43.1592 94.9325 43.0165L99.4027 43.1512C99.5692 43.3018 99.7118 43.4683 99.8387 43.6506Z" fill="#0052A3"/>
<path d="M99.5538 50.6007C99.4111 50.775 99.2447 50.9336 99.0703 51.0762L94.6714 50.9415C94.5049 50.7909 94.3623 50.6244 94.2275 50.4421L99.5538 50.6007Z" fill="#0052A3"/>
<path d="M98.2858 42.4379C98.6108 42.5647 98.9199 42.7391 99.1894 42.9531L95.1709 42.8263C95.4562 42.6281 95.7733 42.4696 96.1062 42.3666L98.2858 42.4379Z" fill="#0052A3"/>
<path d="M100.29 44.5298C100.346 44.6883 100.386 44.8548 100.417 45.0212L93.7832 44.8151C93.8308 44.6487 93.8862 44.4902 93.9496 44.3316L100.29 44.5298Z" fill="#0052A3"/>
<path d="M100.45 45.2121C100.473 45.3706 100.481 45.537 100.481 45.7035L93.6729 45.4974C93.6808 45.331 93.7046 45.1725 93.7363 45.0139L100.45 45.2121Z" fill="#0052A3"/>
<path d="M99.9737 43.8408C100.069 43.9993 100.148 44.1657 100.219 44.3401L94.0371 44.1499C94.1243 43.9834 94.2115 43.817 94.3224 43.6664L99.9737 43.8408Z" fill="#0052A3"/>
<path d="M100.449 46.5664L100.434 47.0499L93.6172 46.8438L93.633 46.3603L100.449 46.5664Z" fill="#0052A3"/>
<path d="M100.481 45.8926L100.457 46.3761L93.6406 46.17L93.6644 45.6786L100.481 45.8926Z" fill="#0052A3"/>
<path d="M100.425 47.2407L100.409 47.7322L93.5928 47.5182L93.6086 47.0347L100.425 47.2407Z" fill="#0052A3"/>
<path fill-rule="evenodd" clip-rule="evenodd" d="M97.4458 53.3773C93.4842 53.3773 90.2745 50.1552 90.2745 46.206C90.2745 42.2445 93.4842 39.0223 97.4458 39.0223C101.395 39.0223 104.617 42.2445 104.617 46.206C104.617 50.1552 101.395 53.3773 97.4458 53.3773M80.0623 53.3773C76.1131 53.3773 72.891 50.1552 72.891 46.206C72.891 42.2445 76.1131 39.0223 80.0623 39.0223C84.0238 39.0223 87.246 42.2445 87.246 46.206C87.246 50.1552 84.0238 53.3773 80.0623 53.3773M97.4457 35.9948C93.7756 35.9948 90.5524 37.9575 88.7607 40.8769C86.9555 37.9575 83.7446 35.9948 80.0622 35.9948C74.4417 35.9948 69.8623 40.5742 69.8623 46.207C69.8623 51.8274 74.4417 56.4069 80.0622 56.4069C83.7446 56.4069 86.9555 54.4441 88.7607 51.5258C90.5524 54.4441 93.7756 56.4069 97.4457 56.4069C103.067 56.4069 107.646 51.8274 107.646 46.207C107.646 40.5742 103.067 35.9948 97.4457 35.9948" fill="#002E6D"/>
<path fill-rule="evenodd" clip-rule="evenodd" d="M104.525 46.2637C104.525 50.2524 101.268 53.5068 97.2757 53.5068C93.271 53.5068 90.0264 50.2524 90.0264 46.2637C90.0264 42.2625 93.271 39.0081 97.2757 39.0081C101.268 39.0081 104.525 42.2625 104.525 46.2637" fill="#92E0FF"/>
<path fill-rule="evenodd" clip-rule="evenodd" d="M87.1266 46.2637C87.1266 50.2524 83.8722 53.5068 79.871 53.5068C75.8823 53.5068 72.6279 50.2524 72.6279 46.2637C72.6279 42.2625 75.8823 39.0081 79.871 39.0081C83.8722 39.0081 87.1266 42.2625 87.1266 46.2637" fill="#92E0FF"/>
<path fill-rule="evenodd" clip-rule="evenodd" d="M75.6117 50.6075C75.2941 50.6075 74.9753 50.4862 74.7328 50.2437C74.2466 49.7574 74.2466 48.9709 74.7328 48.4847L80.945 42.2721C81.4312 41.787 82.2176 41.787 82.7027 42.2721C83.1889 42.7584 83.1889 43.5449 82.7027 44.0311L76.4906 50.2437C76.248 50.4862 75.9293 50.6075 75.6117 50.6075" fill="white"/>
<path fill-rule="evenodd" clip-rule="evenodd" d="M80.7576 50.0272C80.4589 50.0272 80.159 49.9029 79.9309 49.6507C79.4736 49.1487 79.4736 48.3335 79.9309 47.8314L83.3909 44.0244C83.8483 43.5223 84.5881 43.5223 85.0443 44.0244C85.5017 44.5264 85.5017 45.3404 85.0443 45.8436L81.5843 49.6507C81.3562 49.9029 81.0564 50.0272 80.7576 50.0272" fill="white"/>
<path fill-rule="evenodd" clip-rule="evenodd" d="M95.3295 51.1875C95.0119 51.1875 94.6931 51.0663 94.4506 50.8238C93.9644 50.3387 93.9644 49.5511 94.4506 49.0649L100.663 42.853C101.149 42.3668 101.935 42.3668 102.42 42.853C102.907 43.338 102.907 44.1256 102.42 44.6107L96.2083 50.8238C95.9658 51.0663 95.6471 51.1875 95.3295 51.1875" fill="white"/>
<path fill-rule="evenodd" clip-rule="evenodd" d="M95.255 46.5477C94.9562 46.5477 94.6563 46.4336 94.4282 46.2055C93.9719 45.748 93.9719 45.0081 94.4282 44.5507L97.8887 41.0913C98.3461 40.6339 99.086 40.6339 99.5423 41.0913C99.9998 41.5476 99.9998 42.2875 99.5423 42.7449L96.0818 46.2055C95.8537 46.4336 95.5538 46.5477 95.255 46.5477" fill="white"/>
<path d="M56.3245 66.8924C57.1843 62.2224 60.0426 51.3496 69.0124 41.1362C69.8907 40.1403 71.5328 40.6672 71.6756 41.9844L71.7915 43.0131C72.931 53.4452 67.4638 63.4883 58.083 68.2015C57.1783 68.6623 56.1454 67.8924 56.3245 66.8924Z" fill="#F5851F"/>
<path d="M58.083 68.2009C57.184 68.652 56.151 67.8821 56.3245 66.8918C57.0782 62.7837 59.3793 53.873 66.0349 44.8461C61.2023 53.5308 59.9711 63.8175 59.6832 67.3263C59.1557 67.6299 58.6283 67.9336 58.083 68.2009Z" fill="#F89E1C"/>
<path d="M65.5179 46.6502C65.0909 46.4017 64.7837 46.3269 64.7392 46.314L64.5533 47.1022L64.6386 46.7101L64.538 47.1063C64.5825 47.1192 69.3154 48.6521 67.4943 59.7517L68.475 58.4906C69.8128 49.695 66.9639 47.4916 65.5179 46.6502Z" fill="#F89E1C"/>
<path d="M66.9429 43.6211C66.9429 43.6211 71.6617 43.9506 71.2064 51.2073C71.2064 51.2073 72.9375 42.8743 70.7806 40.8658C70.7806 40.8658 69.3786 39.5693 66.9429 43.6211Z" fill="#032663"/>
<path d="M71.0399 40.6657C70.9234 40.598 70.811 40.5456 70.6776 40.5069C70.0163 40.304 69.3255 40.4866 68.8645 41.0108C59.7485 51.386 56.9173 62.5473 56.1258 66.8543C56.027 67.3814 56.2345 67.9178 56.6664 68.2471C57.0983 68.5764 57.6787 68.6283 58.1626 68.3772C67.574 63.656 73.1219 53.4519 71.9743 42.9892L71.8584 41.9604C71.8125 41.4141 71.5057 40.9368 71.0399 40.6657ZM57.0193 67.9978C56.9805 67.9752 56.9514 67.9583 56.9182 67.926C56.6011 67.6895 56.4536 67.3179 56.5235 66.9299C57.3134 62.6479 60.1189 51.5755 69.1647 41.2764C69.5118 40.8808 70.0394 40.7331 70.5576 40.8918C71.0605 41.0545 71.4206 41.4849 71.4778 42.0118L71.5936 43.0405C72.7217 53.336 67.2545 63.3791 57.9941 68.0194C57.6766 68.1854 57.3202 68.1729 57.0193 67.9978Z" fill="#10319B"/>
<path d="M68.4835 44.0108C67.6586 43.5308 66.9909 43.428 66.9756 43.4321L66.9251 43.8314C67.1045 43.8579 71.4599 44.5216 71.1301 51.2277L71.5367 51.2434C71.7501 46.7689 69.8907 44.8296 68.4835 44.0108Z" fill="#10319B"/>
<path d="M65.7766 46.5409C65.3593 46.298 65.0618 46.2289 65.0173 46.216L64.9321 46.6081C64.9765 46.6209 69.7051 47.8265 68.2901 58.4739L68.6894 58.5244C69.8174 50.0223 67.1546 47.3427 65.7766 46.5409Z" fill="#10319B"/>
<path d="M120.553 66.8486C119.612 62.1942 116.566 51.3726 107.42 41.3162C106.525 40.3357 104.892 40.8908 104.772 42.2104L104.674 43.2409C103.716 53.6912 109.356 63.6381 118.817 68.1879C119.73 68.633 120.749 67.8453 120.553 66.8486Z" fill="#F89E1C"/>
<path d="M118.945 66.2737C118.923 66.2603 118.908 66.2565 118.887 66.2431C115.473 64.3983 113.606 60.5543 114.203 56.7277C114.398 55.4676 114.794 54.1913 115.5 53.0813C118.636 58.2836 119.731 63.1069 120.093 65.4605C120.19 66.0975 119.508 66.5758 118.945 66.2737Z" fill="#F4B821"/>
<path d="M112.634 63.8717C107.093 58.6422 104.042 51.0652 104.674 43.2409L104.753 42.2219C104.758 42.1006 104.794 41.9869 104.831 41.8731L106.637 40.9109C106.905 40.985 107.148 41.1265 107.353 41.3568C108.272 42.3757 109.125 43.3949 109.928 44.4181C105.858 50.0973 110.177 59.4659 112.634 63.8717Z" fill="#F5851F"/>
<path d="M110.921 46.7966C109.471 47.6746 106.905 50.4614 108.362 59.0035L109.296 60.0262C106.996 48.3987 111.923 47.2144 111.967 47.2008L111.802 46.4081C111.748 46.4275 111.402 46.5059 110.921 46.7966Z" fill="#F89E1C"/>
<path d="M109.533 43.7654C109.533 43.7654 104.82 44.1767 105.401 51.4244C105.401 51.4244 103.526 43.1226 105.648 41.077C105.648 41.077 107.027 39.7565 109.533 43.7654Z" fill="#032663"/>
<path d="M105.385 40.8815C104.924 41.1605 104.619 41.6335 104.57 42.2018L104.472 43.2324C103.505 53.7134 109.239 63.814 118.721 68.3772C119.219 68.6141 119.783 68.5483 120.215 68.2212C120.641 67.8845 120.845 67.3542 120.731 66.8193C119.859 62.517 116.845 51.4006 107.547 41.2004C107.082 40.6938 106.383 40.5136 105.725 40.728C105.611 40.7573 105.5 40.8117 105.385 40.8815ZM119.877 67.9664C119.579 68.1467 119.233 68.1596 118.908 68.0145C109.569 63.5354 103.929 53.5885 104.878 43.2751L104.976 42.2445C105.024 41.7167 105.377 41.2801 105.877 41.1087C106.377 40.9373 106.907 41.0758 107.276 41.4691C116.509 51.6041 119.496 62.632 120.36 66.8997C120.436 67.2864 120.295 67.6605 119.983 67.9025C119.944 67.9257 119.915 67.9432 119.877 67.9664Z" fill="#10319B"/>
<path d="M107.999 44.1817C106.607 45.0248 104.781 46.9961 105.078 51.4758L105.484 51.453C105.032 44.744 109.376 44.0049 109.56 43.985L109.503 43.5866C109.482 43.5732 108.816 43.6875 107.999 44.1817Z" fill="#10319B"/>
<path d="M110.749 46.664C109.385 47.4897 106.769 50.215 108.045 58.6962L108.443 58.6388C106.845 47.9771 111.551 46.7302 111.595 46.7166L111.503 46.326C111.459 46.3397 111.162 46.414 110.749 46.664Z" fill="#10319B"/>
</g>
</g>
</svg>
