<svg width="16" height="16" viewBox="0 0 16 16" fill="none" xmlns="http://www.w3.org/2000/svg">
<mask id="mask0_318_289" style="mask-type:alpha" maskUnits="userSpaceOnUse" x="0" y="0" width="16" height="16">
<rect width="16" height="16" fill="#D9D9D9"/>
</mask>
<g mask="url(#mask0_318_289)">
<path d="M7.50481 1.17267C8.12361 0.815408 8.88601 0.815408 9.50481 1.17267L14 3.76797C14.6188 4.12524 15 4.78549 15 5.50002L14.9953 11.0954C14.9953 11.8099 14.6141 12.4701 13.9953 12.8274L9.50007 15.4227C8.5 16 7.5 16 6.5 15.5L3.00488 13.5C2.38608 13.1427 2.00488 12.4825 2.00488 11.7679L2.00488 5.90477C2.00488 5.19023 2.38608 4.52998 3.00488 4.17271L7.50481 1.17267Z" fill="#FF9E16"/>
<path d="M6.5 0.57735C7.1188 0.220085 7.8812 0.220085 8.5 0.57735L12.9952 3.17265C13.614 3.52992 13.9952 4.19017 13.9952 4.9047V10.0953C13.9952 10.8098 13.614 11.4701 12.9952 11.8274L8.5 14.4226C7.8812 14.7799 7.1188 14.7799 6.5 14.4226L2.00481 11.8274C1.38601 11.4701 1.00481 10.8098 1.00481 10.0953V4.9047C1.00481 4.19017 1.38601 3.52992 2.00481 3.17265L6.5 0.57735Z" fill="#0055B8"/>
<path d="M6.27062 10L5.1707 8.31662L4.17276 10H3.02185L4.62438 7.47851L3 5H4.17276L5.27268 6.67622L6.26333 5H7.41424L5.81899 7.51433L7.44338 10H6.27062Z" fill="#FFCE00"/>
<path d="M12 6.54728C12 6.81471 11.9344 7.06542 11.8033 7.29943C11.6771 7.53343 11.4755 7.72206 11.1987 7.86533C10.9268 8.0086 10.582 8.08023 10.1644 8.08023H9.31212V10H8.29233V5H10.1644C10.5577 5 10.8928 5.06686 11.1696 5.20057C11.4464 5.33429 11.6528 5.51815 11.7888 5.75215C11.9296 5.98615 12 6.25119 12 6.54728ZM10.1207 7.27077C10.4023 7.27077 10.6111 7.20869 10.7471 7.08453C10.8831 6.95559 10.9511 6.7765 10.9511 6.54728C10.9511 6.06017 10.6743 5.81662 10.1207 5.81662H9.31212V7.27077H10.1207Z" fill="#FFCE00"/>
</g>
</svg>
