<svg width="24" height="24" viewBox="0 0 24 24" fill="none" xmlns="http://www.w3.org/2000/svg">
<path d="M23 12C23 14.9174 21.8411 17.7153 19.7782 19.7782C17.7153 21.8411 14.9174 23 12 23C9.08262 23 6.28473 21.8411 4.22183 19.7782C2.15893 17.7153 1 14.9174 1 12C1 9.08262 2.15893 6.28473 4.22183 4.22183C6.28473 2.15893 9.08262 1 12 1C14.9174 1 17.7153 2.15893 19.7782 4.22183C21.8411 6.28473 23 9.08262 23 12ZM6.5 12C6.5 12.1823 6.57243 12.3572 6.70136 12.4861C6.8303 12.6151 7.00516 12.6875 7.1875 12.6875H11.3125V16.8125C11.3125 16.9948 11.3849 17.1697 11.5139 17.2986C11.6428 17.4276 11.8177 17.5 12 17.5C12.1823 17.5 12.3572 17.4276 12.4861 17.2986C12.6151 17.1697 12.6875 16.9948 12.6875 16.8125V12.6875H16.8125C16.9948 12.6875 17.1697 12.6151 17.2986 12.4861C17.4276 12.3572 17.5 12.1823 17.5 12C17.5 11.8177 17.4276 11.6428 17.2986 11.5139C17.1697 11.3849 16.9948 11.3125 16.8125 11.3125H12.6875V7.1875C12.6875 7.00516 12.6151 6.8303 12.4861 6.70136C12.3572 6.57243 12.1823 6.5 12 6.5C11.8177 6.5 11.6428 6.57243 11.5139 6.70136C11.3849 6.8303 11.3125 7.00516 11.3125 7.1875V11.3125H7.1875C7.00516 11.3125 6.8303 11.3849 6.70136 11.5139C6.57243 11.6428 6.5 11.8177 6.5 12Z" fill="#0055B8"/>
</svg>
