<svg width="56" height="56" viewBox="0 0 56 56" fill="none" xmlns="http://www.w3.org/2000/svg">
<g clip-path="url(#clip0_917_74906)">
<path d="M11.2766 62.64C4.96318 59.3067 -1.44098 54.5364 -4.27584 47.9748C-7.0713 41.3672 -6.30395 32.9093 -3.45846 25.698C-0.61297 18.4868 -0.925088 8.16645 4.94736 5.04967C10.8198 1.93289 23.1713 3.03556 28.3229 6.01251C34.7101 9.70343 35.2953 18.0621 41.3664 21.0542C47.4374 24.0004 58.347 25.068 61.6682 30.2845C64.9894 35.501 64.2166 39.7465 60.3821 45.1467C56.5936 50.501 49.941 53.2306 44.4354 56.9117C38.8904 60.6322 34.4466 65.2581 29.133 66.5901C23.8194 67.9221 17.5901 65.9733 11.2766 62.64Z" fill="#FFCE00"/>
<path opacity="0.8" d="M35.6322 24.7824C39.0839 27.9824 42.3482 32.113 43.0339 36.7752C43.6866 41.4601 41.7547 46.7153 38.7122 50.822C35.6697 54.9287 34.1074 61.5541 29.8359 62.5369C25.5644 63.5196 17.887 60.7099 15.1143 57.935C11.6766 54.4947 12.7302 49.072 9.37462 46.1306C6.01117 43.2185 -0.75401 40.6771 -1.97891 36.7884C-3.20382 32.8997 -1.98723 30.328 1.37608 27.5433C4.70229 24.7801 9.40457 24.177 13.5387 22.7723C17.7047 21.3492 21.324 19.1616 24.935 19.22C28.5461 19.2784 32.1805 21.5824 35.6322 24.7824Z" fill="#FFE784"/>
<path opacity="0.8" d="M27.7331 45.2921C26.6877 49.8814 24.7427 54.7737 21.0478 57.6986C17.317 60.6063 11.7999 61.5608 6.72216 60.9792C1.64439 60.3977 -4.87451 62.3574 -7.86137 59.1496C-10.8482 55.9417 -12.2536 47.888 -11.2369 44.0994C-9.97632 39.4021 -4.75326 37.6032 -3.88377 33.2265C-3.04353 28.8576 -4.22519 21.7281 -1.46996 18.7229C1.28528 15.7178 4.12076 15.4855 8.214 17.0059C12.2702 18.5049 15.1436 22.2756 18.4272 25.1535C21.7426 28.0498 25.4468 30.0904 27.2017 33.2469C28.9566 36.4034 28.7785 40.7028 27.7331 45.2921Z" fill="#FFF7D7"/>
<g style="mix-blend-mode:overlay">
<path d="M23.2271 13.2045C23.8419 13.2045 24.3407 13.7032 24.3407 14.3181C24.3407 13.7032 24.8394 13.2045 25.4543 13.2045C24.8394 13.2045 24.3407 12.7057 24.3407 12.0908C24.3407 12.7057 23.8419 13.2045 23.2271 13.2045Z" fill="#002E6D"/>
</g>
<g style="mix-blend-mode:overlay">
<path d="M22.2729 31.3407C22.8878 31.3407 23.3866 31.8394 23.3866 32.4543C23.3866 31.8394 23.8853 31.3407 24.5002 31.3407C23.8853 31.3407 23.3866 30.8419 23.3866 30.2271C23.3866 30.8419 22.8878 31.3407 22.2729 31.3407Z" fill="#002E6D"/>
</g>
<g style="mix-blend-mode:overlay">
<path d="M18.4546 9.38614C20.4734 9.38614 22.1137 11.0264 22.1137 13.0452C22.1137 11.0264 23.754 9.38614 25.7728 9.38614C23.754 9.38614 22.1137 7.74586 22.1137 5.72705C22.1137 7.74586 20.4734 9.38614 18.4546 9.38614Z" fill="#002E6D"/>
</g>
<g style="mix-blend-mode:overlay">
<path d="M45.1816 40.8862C46.6738 40.8862 47.8862 42.0986 47.8862 43.5907C47.8862 42.0986 49.0986 40.8862 50.5907 40.8862C49.0986 40.8862 47.8862 39.6738 47.8862 38.1816C47.8862 39.6738 46.6738 40.8862 45.1816 40.8862Z" fill="#002E6D"/>
</g>
<g style="mix-blend-mode:overlay">
<path d="M44.2271 44.8637C44.7537 44.8637 45.1816 45.2916 45.1816 45.8183C45.1816 45.2916 45.6095 44.8637 46.1361 44.8637C45.6095 44.8637 45.1816 44.4358 45.1816 43.9092C45.1816 44.4358 44.7537 44.8637 44.2271 44.8637Z" fill="#002E6D"/>
</g>
<rect x="29.6011" y="9.21826" width="15.1782" height="18.5855" rx="1.27273" transform="rotate(-2.53912 29.6011 9.21826)" fill="#E7EBEE"/>
<rect x="28.9546" y="8.62695" width="15.1782" height="18.5855" rx="1.27273" transform="rotate(-2.53912 28.9546 8.62695)" fill="white"/>
<g clip-path="url(#clip1_917_74906)">
<path fill-rule="evenodd" clip-rule="evenodd" d="M33.9019 14.0158C33.99 13.7554 34.1411 13.5206 34.3417 13.3325C34.5423 13.1444 34.7862 13.0088 35.0518 12.9376L37.1279 12.3813C37.3935 12.3101 37.6726 12.3057 37.9404 12.3683C38.2082 12.4309 38.4564 12.5586 38.6629 12.7401L39.2753 13.2788C39.3442 13.3392 39.4269 13.3818 39.5162 13.4026C39.6054 13.4234 39.6984 13.4219 39.7869 13.3982L40.2871 13.2642C40.7151 13.1495 41.171 13.2095 41.5547 13.431C41.9384 13.6526 42.2184 14.0174 42.333 14.4454L43.6301 19.286C43.7447 19.7139 43.6847 20.1699 43.4632 20.5535C43.2417 20.9372 42.8768 21.2172 42.4489 21.3318L34.919 23.3495C34.4911 23.4641 34.0351 23.4041 33.6515 23.1826C33.2678 22.9611 32.9878 22.5962 32.8732 22.1683L31.5761 17.3277C31.4615 16.8997 31.5215 16.4438 31.743 16.0601C31.9645 15.6764 32.3294 15.3964 32.7573 15.2818L33.2575 15.1477C33.346 15.124 33.4273 15.0788 33.4942 15.0162C33.5611 14.9535 33.6115 14.8753 33.6409 14.7885L33.9018 14.0153L33.9019 14.0158ZM36.4553 18.3261C36.3789 18.0408 36.4189 17.7369 36.5666 17.4811C36.7143 17.2253 36.9575 17.0386 37.2428 16.9622C37.5281 16.8858 37.8321 16.9258 38.0878 17.0734C38.3436 17.2211 38.5303 17.4644 38.6067 17.7497C38.6832 18.0349 38.6431 18.3389 38.4955 18.5947C38.3478 18.8505 38.1045 19.0371 37.8193 19.1136C37.534 19.19 37.23 19.15 36.9742 19.0023C36.7184 18.8546 36.5318 18.6114 36.4553 18.3261ZM36.9546 15.8865C36.384 16.0394 35.8975 16.4127 35.6022 16.9242C35.3068 17.4358 35.2268 18.0438 35.3796 18.6143C35.5325 19.1849 35.9058 19.6714 36.4174 19.9668C36.929 20.2621 37.5369 20.3422 38.1075 20.1893C38.6781 20.0364 39.1645 19.6631 39.4599 19.1515C39.7553 18.64 39.8353 18.032 39.6824 17.4614C39.5295 16.8908 39.1562 16.4044 38.6447 16.109C38.1331 15.8137 37.5251 15.7336 36.9546 15.8865Z" fill="#007BE0"/>
</g>
<path d="M19.9654 24.4673H12.228V28.7649H19.9654V24.4673Z" fill="#CADCEF"/>
<path d="M11.7324 26.4924L12.2011 27.5093L19.1692 27.5977L19.6201 26.5278L18.2584 23.8838L12.6963 24.2817" fill="#CADCEF"/>
<path d="M12.7762 24.7856L12.6347 27.1378L10.4683 28.0574L12.3341 31.3381L20.602 30.1266L18.7097 29.1716L18.241 27.1908L17.7458 24.4673" fill="#FBC6B6"/>
<path d="M11.3965 27.8276C11.3965 27.8276 13.4569 31.2585 16.1274 31.1524C17.4361 31.0994 18.7183 28.3758 20.31 27.5181L26.3142 57.1059L26.3496 62.8802C26.3496 62.8802 14.1201 66.5764 5.51611 62.6149L5.63991 51.1016L11.3965 27.8276Z" fill="#EBF4FF"/>
<path d="M11.3965 27.8276C11.3965 27.8276 13.4569 31.2585 16.1274 31.1524C17.4361 31.0994 18.7183 28.3758 20.31 27.5181L26.3142 57.1059L26.3496 62.8802C26.3496 62.8802 14.1201 66.5764 5.51611 62.6149L5.63991 51.1016L11.3965 27.8276Z" stroke="#191708" stroke-width="0.191215" stroke-miterlimit="10" stroke-linecap="round" stroke-linejoin="round"/>
<path d="M18.5417 24.5113C18.5417 24.5113 18.4444 26.3948 19.4348 26.9254C19.4348 26.9254 17.9846 29.8966 17.9492 30.3299C17.9139 30.7631 18.0377 31.0992 18.0377 32.063C18.0377 33.018 18.7451 37.7224 18.6213 37.9434C18.4975 38.1645 18.188 46.5474 18.8423 51.2164C19.4967 55.8854 19.647 62.0487 20.0184 62.0487C20.3898 62.0487 21.0353 61.0318 22.8039 60.9346C24.5636 60.8373 25.7131 60.8108 26.6063 59.9442C27.4994 59.0776 28.5251 58.3083 28.6136 57.9634C28.702 57.6274 28.702 55.7969 28.702 55.7969C28.702 55.7969 30.3733 54.3732 31.178 52.4544C31.9826 50.5355 31.4521 42.3648 30.7093 38.81C29.9665 35.2553 29.9046 31.0461 29.038 30.5509C28.1714 30.0557 23.2814 28.7912 22.0169 27.3322C20.7435 25.882 20.5313 24.9535 19.8504 24.6705C19.1961 24.3875 18.5417 24.5113 18.5417 24.5113Z" fill="#2DBFE8"/>
<path d="M18.6389 24.5113C18.6389 24.5113 18.5504 26.3948 19.532 26.9254C19.532 26.9254 18.0818 29.8966 18.0464 30.3299C18.011 30.7631 18.1348 31.0992 18.1348 32.063C18.1348 33.018 18.8422 37.7224 18.7184 37.9434C18.5946 38.1645 18.2852 46.5474 18.9395 51.2164C19.585 55.8854 19.7442 62.0487 20.1156 62.0487C20.487 62.0487 21.1325 61.0318 22.9011 60.9346C24.6608 60.8373 25.8103 60.8108 26.7034 59.9442C27.5965 59.0776 28.6223 58.3083 28.7107 57.9634C28.808 57.6274 28.808 55.7969 28.808 55.7969C28.808 55.7969 30.4793 54.3732 31.284 52.4544C32.0887 50.5355 31.5581 42.3648 30.8241 38.81C30.0814 35.2553 30.0195 31.0461 29.1529 30.5509C28.2863 30.0557 23.3962 28.7912 22.1317 27.3322C20.8672 25.882 20.6462 24.9535 19.9653 24.6705C19.2932 24.3875 18.6389 24.5113 18.6389 24.5113Z" stroke="#0D94C9" stroke-width="0.213349" stroke-miterlimit="10" stroke-linecap="round"/>
<path d="M12.3871 24.5732C12.3871 24.5732 10.9988 25.0065 10.7158 25.5902C10.4417 26.1826 9.32748 28.2164 9.32748 28.2164C9.32748 28.2164 3.07567 31.5059 2.76617 32.3106C2.45668 33.1153 -0.231512 49.6424 0.0160845 50.5974C0.263681 51.5524 3.42054 55.6997 3.42054 55.6997L3.08451 57.9546C3.08451 57.9546 4.41092 60.9522 6.70119 61.695C8.99146 62.4378 9.73425 62.093 9.73425 62.093L10.256 56.9288C10.256 56.9288 11.6178 56.5574 12.1129 54.0195C12.6081 51.4817 13.9964 45.8489 14.0318 44.2749C14.0583 42.692 14.2794 37.5632 13.7223 35.6443C13.1652 33.7255 12.5462 30.321 12.7319 29.4544C12.9176 28.5878 11.7415 26.7043 11.7415 26.7043C11.7415 26.7043 12.2633 26.1826 12.3871 24.5732Z" fill="#2DBFE8"/>
<path d="M12.3871 24.5732C12.3871 24.5732 10.9988 25.0065 10.7158 25.5902C10.4417 26.1826 9.32748 28.2164 9.32748 28.2164C9.32748 28.2164 3.07567 31.5059 2.76617 32.3106C2.45668 33.1153 -0.231512 49.6424 0.0160845 50.5974C0.263681 51.5524 3.42054 55.6997 3.42054 55.6997L3.08451 57.9546C3.08451 57.9546 4.41092 60.9522 6.70119 61.695C8.99146 62.4378 9.73425 62.093 9.73425 62.093L10.256 56.9288C10.256 56.9288 11.6178 56.5574 12.1129 54.0195C12.6081 51.4817 13.9964 45.8489 14.0318 44.2749C14.0583 42.692 14.2794 37.5632 13.7223 35.6443C13.1652 33.7255 12.5462 30.321 12.7319 29.4544C12.9176 28.5878 11.7415 26.7043 11.7415 26.7043C11.7415 26.7043 12.2633 26.1826 12.3871 24.5732Z" stroke="#0D94C9" stroke-width="0.213349" stroke-miterlimit="10" stroke-linecap="round"/>
<path d="M2.76611 32.3105C2.76611 32.3105 5.09175 33.6723 5.68422 36.3428" stroke="#0D94C9" stroke-width="0.213349" stroke-miterlimit="10" stroke-linecap="round"/>
<path d="M10.707 25.5988C10.707 25.5988 11.3437 26.2178 11.6974 26.8191C11.6974 26.8191 12.2987 25.6695 12.2987 24.6084C12.2987 24.6084 11.0431 25.139 10.707 25.5988Z" fill="#1148B7"/>
<path d="M19.6028 27.0052C19.6028 27.0052 20.1422 25.7319 20.6462 25.3163C20.6462 25.3163 20.2129 24.3524 18.7362 24.5823C18.7362 24.5823 18.5682 26.2448 19.6028 27.0052Z" fill="#1148B7"/>
<path d="M29.1618 30.5508C29.1618 30.5508 27.2517 31.9479 27.2517 37.059C27.2517 42.1701 27.0483 48.3866 27.0483 48.3866" stroke="#0D94C9" stroke-width="0.213349" stroke-miterlimit="10" stroke-linecap="round"/>
<path d="M25.8721 49.0674C25.8721 49.0674 28.5337 51.6229 28.8255 55.7967" stroke="#0D94C9" stroke-width="0.213349" stroke-miterlimit="10" stroke-linecap="round"/>
<path d="M12.0866 24.6619C12.0866 24.6619 10.8928 24.3524 9.94664 25.502C9.00047 26.6516 9.14195 26.793 8.38148 27.4386C7.621 28.0841 7.78017 29.0745 8.4699 29.7642C9.15964 30.4539 11.0962 31.2851 12.4757 31.4708C13.8551 31.6565 15.3319 31.8157 15.4468 32.4612L16.6406 32.532C16.6406 32.532 16.225 30.0383 14.8986 29.2778C13.5722 28.5174 12.175 27.5535 12.4314 25.2013" fill="#EBF4FF"/>
<path d="M17.6661 24.9714C17.6661 24.9714 18.9394 25.8733 19.1517 26.9079C19.3551 27.9425 18.0994 28.65 17.6307 28.7915C17.1621 28.9329 16.3043 29.5166 16.0567 30.3655C15.8091 31.2144 16.8172 32.3993 16.8172 32.3993C16.8172 32.3993 17.0206 31.0906 19.1782 30.7634C21.3358 30.4362 22.6976 28.6588 22.8037 27.916C22.9098 27.1732 22.5119 26.4658 21.5569 25.7761C20.6019 25.0863 20.708 24.432 20.0183 24.1667C19.3285 23.9103 17.8253 23.8926 17.8253 23.8926" fill="#EBF4FF"/>
<path d="M11.9007 24.6881C11.9007 24.6881 10.6539 24.299 9.69004 25.82C8.72618 27.3409 9.14179 26.5982 8.2133 27.6151C7.29366 28.632 8.399 30.0999 10.424 30.9311C11.6089 31.4174 12.7938 31.4086 13.6958 31.5236" stroke="#191708" stroke-width="0.191215" stroke-miterlimit="10" stroke-linecap="round" stroke-linejoin="round"/>
<path d="M12.5991 26.8811C12.5991 26.8811 12.9705 28.402 14.3942 28.9503C15.8179 29.4985 15.9594 30.6569 15.9594 30.6569C15.9594 30.6569 16.2777 29.1802 17.5687 28.8177C18.8598 28.4463 19.2754 27.3409 19.0897 26.7485C18.904 26.1472 18.2585 25.5547 18.2585 25.5547" stroke="#191708" stroke-width="0.191215" stroke-miterlimit="10" stroke-linecap="round" stroke-linejoin="round"/>
<path d="M16.8794 32.2663C16.8794 32.2663 17.295 31.0194 18.586 30.8426C19.8771 30.6569 22.3177 29.7372 22.7333 28.0836C23.1489 26.4301 21.398 26.0144 20.9382 25.0948C20.4784 24.1752 19.2316 23.733 18.4092 24.1928" stroke="#191708" stroke-width="0.191215" stroke-miterlimit="10" stroke-linecap="round" stroke-linejoin="round"/>
<path d="M9.97314 27.0845C9.97314 27.0845 10.0174 28.4197 13.8816 29.7108" stroke="#191708" stroke-width="0.191215" stroke-miterlimit="10" stroke-linecap="round" stroke-linejoin="round"/>
<path d="M27.2781 39.8359C27.2781 39.8359 23.9002 40.8086 18.4796 41.0651C18.4531 42.4799 18.4443 44.2308 18.4885 45.9816C21.3093 45.849 24.3689 45.4599 27.3135 44.611L27.2781 39.8359Z" fill="#0D94C9"/>
<path d="M14.0938 41.1004C12.0069 41.0297 8.73509 40.5345 6.32103 40.1631C6.32103 40.1631 5.88773 42.8866 5.56055 44.8674C5.56055 44.8674 9.62821 45.8224 13.802 45.9904C13.9346 45.2565 14.0142 44.664 14.023 44.2838C14.0407 43.656 14.0849 42.4445 14.0938 41.1004Z" fill="#0D94C9"/>
<path d="M6.45379 39.084L4.97705 48.3423" stroke="#0D94C9" stroke-width="0.213349" stroke-miterlimit="10" stroke-linecap="round"/>
<path d="M6.51542 48.6787C6.51542 48.6787 4.09251 51.9682 3.41162 55.7087" stroke="#0D94C9" stroke-width="0.213349" stroke-miterlimit="10" stroke-linecap="round"/>
<path d="M4.07471 46.9277L5.82557 49.6867" stroke="#0D94C9" stroke-width="0.213349" stroke-miterlimit="10" stroke-linecap="round"/>
<path d="M9.0359 15.5714C9.0359 15.5714 8.79714 14.1477 10.9282 12.3526C13.0682 10.5487 16.4815 10.7875 19.037 11.6894L18.6391 13.1662L19.32 12.5825C19.32 12.5825 20.4519 13.8736 20.222 15.6068C19.992 17.3399 19.6295 18.9051 19.6295 18.9051C19.6295 18.9051 18.365 13.8824 15.049 14.6606C11.7241 15.4387 9.92901 16.7386 9.92901 16.7386L10.1059 21.5225C10.1059 21.5225 8.16931 18.9493 7.8775 18.012C7.46189 16.6767 9.0359 15.5714 9.0359 15.5714Z" fill="#002E6D"/>
<path d="M9.76069 20.0547C9.76069 20.0547 8.19553 18.4454 7.46158 20.0105C6.66574 21.7083 10.2824 23.3619 10.2824 23.3619" fill="#FAC8BB"/>
<path d="M18.7627 19.2764C18.7627 19.2764 19.868 17.3221 20.9734 18.6486C22.176 20.0899 19.0899 22.6013 19.0899 22.6013" fill="#F38F6F"/>
<path d="M9.03569 20.09C9.03569 20.09 8.38133 19.5682 8.00109 20.143C7.62086 20.7178 8.27522 21.1953 8.27522 21.1953" stroke="#FF7F66" stroke-width="0.278688" stroke-miterlimit="10" stroke-linecap="round"/>
<path d="M16.057 26.8019L15.2965 26.8815C12.4226 27.1733 9.79631 24.6619 9.46029 21.3105L9.18616 18.587C8.89435 15.7219 10.6717 13.1752 13.1212 12.9276L14.6333 12.7773C17.0916 12.5297 19.3376 14.6697 19.6206 17.5347L19.9831 21.1425C20.2838 24.0076 18.5152 26.5543 16.057 26.8019Z" fill="#FAC8BB"/>
<path d="M10.5215 24.3789C10.5215 24.3789 12.3431 27.3324 15.7741 26.7753" stroke="#FF7F66" stroke-width="0.278688" stroke-miterlimit="10" stroke-linecap="round"/>
<path d="M19.7617 19.2676C19.7617 19.2676 19.5671 16.7297 18.338 16.0489C18.338 16.0489 16.8701 16.9066 14.2173 17.1542C11.7236 17.393 11.3964 17.3134 10.7244 16.9773C10.5122 16.8712 10.185 16.6855 10.185 16.6855L10.6271 17.6317C10.6271 17.6317 9.4245 20.1519 9.61904 21.9912L8.02734 18.2861L10.3707 13.8559L14.3499 11.5391L16.5694 12.4233L20.2126 15.3857" fill="#002E6D"/>
<path d="M13.4201 21.6093C13.7877 21.5298 14.0111 21.121 13.9192 20.6962C13.8274 20.2714 13.4549 19.9914 13.0874 20.0709C12.7198 20.1504 12.4964 20.5592 12.5882 20.9841C12.6801 21.4089 13.0526 21.6888 13.4201 21.6093Z" fill="white"/>
<path d="M13.4067 21.4094C13.6884 21.3485 13.8598 21.036 13.7896 20.7114C13.7193 20.3868 13.4341 20.173 13.1525 20.2339C12.8709 20.2949 12.6995 20.6074 12.7697 20.932C12.8399 21.2565 13.1251 21.4703 13.4067 21.4094Z" fill="#213469"/>
<path d="M11.9712 18.4101C12.3161 18.2067 13.3065 17.7292 13.5895 18.2863C13.8194 18.7284 12.6256 18.9583 12.1746 18.9937C11.7237 19.0291 11.5556 18.6577 11.9712 18.4101Z" fill="#002E6D"/>
<path d="M17.6269 20.7717C17.9743 20.628 18.1213 20.1858 17.9552 19.7842C17.789 19.3826 17.3726 19.1736 17.0251 19.3173C16.6777 19.4611 16.5307 19.9032 16.6969 20.3048C16.863 20.7064 17.2794 20.9155 17.6269 20.7717Z" fill="white"/>
<path d="M17.5038 20.652C17.7701 20.5418 17.883 20.2038 17.756 19.8969C17.6291 19.5901 17.3103 19.4306 17.0441 19.5408C16.7778 19.6509 16.6649 19.989 16.7919 20.2958C16.9188 20.6027 17.2376 20.7622 17.5038 20.652Z" fill="#213469"/>
<path d="M17.6661 17.4285C17.2682 17.3577 16.1805 17.2428 16.101 17.8706C16.0391 18.3658 17.2328 18.1712 17.675 18.0563C18.1171 17.9236 18.1436 17.5169 17.6661 17.4285Z" fill="#002E6D"/>
<path d="M15.4202 20.9565C15.9508 21.4606 16.6228 22.336 15.9508 23.1142C15.8447 23.238 15.6413 23.1938 15.5971 23.0346L15.0842 21.1599C15.0312 20.9654 15.2699 20.8151 15.4202 20.9565Z" fill="#FF8D76"/>
<path d="M14.0229 23.8394C14.0229 23.8394 14.6419 24.7855 15.9507 24.2992" stroke="#FF7F66" stroke-width="0.278688" stroke-miterlimit="10" stroke-linecap="round"/>
<path d="M9.30088 15.6155C9.30088 15.6155 8.0629 15.3679 7.51465 16.0134" stroke="#002E6D" stroke-width="0.300167" stroke-miterlimit="10" stroke-linecap="round"/>
</g>
<defs>
<clipPath id="clip0_917_74906">
<rect width="56" height="56" rx="28" fill="white"/>
</clipPath>
<clipPath id="clip1_917_74906">
<rect width="13.3636" height="13.3636" fill="white" transform="translate(29.2031 12.7754) rotate(-15)"/>
</clipPath>
</defs>
</svg>
