<svg width="22" height="20" viewBox="0 0 22 20" fill="none" xmlns="http://www.w3.org/2000/svg">
<path d="M9.56586 1.09205C9.69794 0.824214 9.90235 0.598686 10.1559 0.440986C10.4096 0.283285 10.7022 0.199707 11.0009 0.199707C11.2995 0.199707 11.5922 0.283285 11.8458 0.440986C12.0994 0.598686 12.3038 0.824214 12.4359 1.09205L14.6599 5.59605L19.6319 6.31805C19.9274 6.36097 20.2051 6.48576 20.4334 6.67831C20.6617 6.87085 20.8316 7.12346 20.9238 7.40754C21.016 7.69162 21.0268 7.99584 20.9551 8.28576C20.8834 8.57569 20.7319 8.83974 20.5179 9.04805L16.9199 12.5541L17.7699 17.5061C17.8204 17.8002 17.7877 18.1026 17.6754 18.3792C17.5631 18.6557 17.3757 18.8953 17.1343 19.0709C16.893 19.2465 16.6073 19.3511 16.3097 19.3728C16.012 19.3946 15.7142 19.3327 15.4499 19.1941L10.9999 16.8541L6.55186 19.1941C6.28754 19.3327 5.98972 19.3946 5.69205 19.3728C5.39438 19.3511 5.10874 19.2465 4.8674 19.0709C4.62605 18.8953 4.43864 18.6557 4.32633 18.3792C4.21402 18.1026 4.1813 17.8002 4.23186 17.5061L5.07986 12.5541L1.48186 9.04805C1.26779 8.83961 1.11636 8.5754 1.04472 8.28532C0.973079 7.99525 0.984094 7.69092 1.07652 7.40678C1.16894 7.12265 1.33907 6.87007 1.56765 6.67765C1.79623 6.48523 2.07413 6.36066 2.36986 6.31805L7.34186 5.59805L9.56386 1.09205H9.56586Z" fill="#FFCE00"/>
</svg>
