<svg width="24" height="24" viewBox="0 0 24 24" fill="none" xmlns="http://www.w3.org/2000/svg">
<path fill-rule="evenodd" clip-rule="evenodd" d="M13 1H7C6.20435 1 5.44129 1.31607 4.87868 1.87868C4.31607 2.44129 4 3.20435 4 4V13.5997C4.75007 13.2163 5.59978 13 6.5 13C9.53757 13 12 15.4624 12 18.5C12 19.4002 11.7837 20.2499 11.4003 21H19C19.7956 21 20.5587 20.6839 21.1213 20.1213C21.6839 19.5587 22 18.7956 22 18V10H16C15.2043 10 14.4413 9.68393 13.8787 9.12132C13.3161 8.55871 13 7.79565 13 7V1ZM22 8V7.828C21.9996 7.03276 21.6834 6.27023 21.121 5.708L17.293 1.878C16.7304 1.31572 15.9674 0.999905 15.172 1H15V7C15 7.26522 15.1054 7.51957 15.2929 7.70711C15.4804 7.89464 15.7348 8 16 8H22ZM8.29517 11H10V3H8.59862L6 5.05198L6.82207 6.06977L7.74897 5.33105C7.85563 5.23985 7.96966 5.13771 8.09103 5.02462C8.21609 4.90789 8.29885 4.82581 8.33931 4.77839C8.33195 4.9389 8.3246 5.11947 8.31724 5.32011C8.30989 5.5171 8.30437 5.71044 8.30069 5.90014C8.29701 6.08618 8.29517 6.24305 8.29517 6.37073V11Z" fill="#0055B8"/>
<rect x="2" y="14" width="9" height="9" rx="4.5" fill="#0055B8"/>
<g clip-path="url(#clip0_1206_52161)">
<path d="M6.5 18.9219V16.1094M6.5 18.9219L5.5625 17.9844M6.5 18.9219L7.4375 17.9844M4.15625 19.3906L4.3018 19.973C4.32715 20.0745 4.38566 20.1645 4.46805 20.2288C4.55043 20.2932 4.65196 20.3281 4.75648 20.3281H8.24352C8.34805 20.3281 8.44957 20.2932 8.53195 20.2288C8.61434 20.1645 8.67286 20.0745 8.6982 19.973L8.84375 19.3906" stroke="white" stroke-width="0.7" stroke-linecap="round" stroke-linejoin="round"/>
</g>
<defs>
<clipPath id="clip0_1206_52161">
<rect width="5.625" height="5.625" fill="white" transform="translate(3.6875 15.4062)"/>
</clipPath>
</defs>
</svg>
