<svg width="319" height="184" viewBox="0 0 319 184" fill="none" xmlns="http://www.w3.org/2000/svg">
<path d="M242.17 141.286C247.796 142.937 255.529 142.478 260.238 138.681C263.903 135.745 265.956 129.379 260.587 127.196C258.479 126.352 251.534 126.352 250.71 129.214C250.123 131.214 252.267 132.406 253.99 132.663C259.029 133.452 263.757 128.132 263.628 123.38C263.464 116.244 255.163 113.878 249.299 113.823C248.914 113.823 249.005 113.089 249.299 113.07C259.286 112.098 270.427 121.363 261.539 130.645C259.157 133.14 255.419 134.92 251.974 133.544C250.032 132.755 248.492 130.994 249.464 128.884C251.021 125.49 257.288 124.903 260.33 125.765C261.136 125.98 261.89 126.358 262.545 126.876C263.2 127.394 263.741 128.041 264.136 128.777C264.531 129.513 264.771 130.322 264.842 131.155C264.912 131.987 264.811 132.825 264.545 133.617C262.089 142.643 249.464 144.624 241.987 141.818C241.767 141.818 241.859 141.212 242.115 141.286H242.17Z" fill="#FF9E16"/>
<path d="M295.877 0C295.877 0 295.034 16.0691 306.673 25L318.863 21.1819C318.863 21.1819 310.726 17.1979 306.673 0H295.877Z" fill="#0055B8"/>
<path d="M56.8633 181.137C56.8633 181.137 52.1738 172.108 42.6235 171L36.8633 177.019C36.8633 177.019 43.9083 175.953 51.8526 184L56.8633 181.137Z" fill="#007BE0"/>
<path d="M0.937253 87.3161C5.85041 91.0065 13.6166 93.2543 19.6701 90.9866C24.3595 89.2376 28.7203 83.362 24.2566 79.211C22.4998 77.5952 15.6778 75.1499 13.8056 77.823C12.4874 79.6872 14.1508 81.6768 15.7475 82.5492C20.4047 85.1403 27.0233 81.296 28.6789 76.3372C31.1476 68.883 23.872 63.5098 18.1324 61.3882C17.7544 61.2527 18.1168 60.5251 18.4116 60.6093C28.5825 63.1188 36.0878 76.6348 23.9305 83.1243C20.6464 84.8626 16.314 85.389 13.4407 82.7513C11.8255 81.2506 10.9671 78.885 12.7042 77.0423C15.4939 74.0764 21.8677 75.6751 24.5357 77.6389C25.2481 78.1453 25.8483 78.8022 26.2991 79.5692C26.7499 80.3361 27.0418 81.1967 27.1566 82.0979C27.2715 82.999 27.207 83.9214 26.967 84.8082C26.727 85.6949 26.3167 86.5271 25.7614 87.2533C19.9993 95.735 6.87997 93.3477 0.559793 87.8025C0.343793 87.725 0.658493 87.1304 0.883256 87.2967L0.937253 87.3161Z" fill="#002E6D"/>
<path d="M54.8633 22.1347C54.8633 22.1347 39.3271 20.1559 29.8633 31.3689L32.7057 44C32.7057 44 37.163 36.019 54.1204 33.0508L54.8633 22.1347Z" fill="#FF9E16"/>
<path d="M308.863 149.965C308.863 149.965 303.001 162.466 291.064 164L283.863 155.666C283.863 155.666 292.669 157.141 302.6 146L308.863 149.965Z" fill="#FFE784"/>
</svg>
