<svg width="56" height="56" viewBox="0 0 56 56" fill="none" xmlns="http://www.w3.org/2000/svg">
<g clip-path="url(#clip0_917_51346)">
<path d="M12.8675 61.0497C6.554 57.7164 0.149837 52.9461 -2.68502 46.3844C-5.48048 39.7769 -4.71313 31.3189 -1.86764 24.1077C0.97785 16.8964 0.665732 6.57612 6.53818 3.45934C12.4106 0.342559 24.7621 1.44523 29.9137 4.42218C36.3009 8.1131 36.8861 16.4717 42.9572 19.4638C49.0283 22.41 59.9378 23.4776 63.259 28.6941C66.5802 33.9106 65.8074 38.1562 61.9729 43.5564C58.1844 48.9107 51.5318 51.6403 46.0262 55.3214C40.4812 59.0418 36.0374 63.6678 30.7238 64.9998C25.4102 66.3318 19.1809 64.383 12.8675 61.0497Z" fill="#F6EEFF"/>
<path opacity="0.8" d="M38.5764 11.7346C43.2554 11.2239 48.5147 11.4645 52.4859 14.0014C56.4526 16.578 59.1567 21.4808 60.2653 26.4701C61.374 31.4593 65.3554 36.9807 63.2989 40.8515C61.2425 44.7222 54.0894 48.6808 50.1764 48.9572C45.3251 49.2999 41.9189 44.9507 37.4983 45.5583C33.0945 46.191 26.7419 49.6364 23.0017 48.0137C19.2615 46.391 18.1159 43.7868 18.2161 39.4215C18.3081 35.0982 20.9336 31.1508 22.5814 27.1074C24.236 23.0278 24.955 18.8604 27.3652 16.1708C29.7755 13.4812 33.8973 12.2454 38.5764 11.7346Z" fill="#D4ABFF"/>
<path opacity="0.8" d="M28.4771 66.0042C22.9874 68.9383 16.4152 71.2364 10.2912 70.0817C4.15315 68.876 -1.58261 64.1933 -5.40335 58.6178C-9.22409 53.0422 -16.8322 48.2303 -16.2175 42.4666C-15.6028 36.7028 -8.77736 28.3179 -4.11218 26.0493C1.67187 23.2365 7.99609 26.8936 13.121 23.9681C18.2127 21.0202 24.309 13.6599 29.6987 13.8068C35.0884 13.9536 37.7783 16.5842 39.808 21.9902C41.8269 27.3406 40.5517 33.479 40.5237 39.2532C40.5049 45.0751 41.6778 50.5434 40.0465 55.0323C38.4152 59.5211 33.9668 63.0702 28.4771 66.0042Z" fill="#D4ABFF"/>
<g style="mix-blend-mode:overlay">
<path d="M23.2275 13.2045C23.8424 13.2045 24.3412 13.7032 24.3412 14.3181C24.3412 13.7032 24.8399 13.2045 25.4548 13.2045C24.8399 13.2045 24.3412 12.7057 24.3412 12.0908C24.3412 12.7057 23.8424 13.2045 23.2275 13.2045Z" fill="#002E6D"/>
</g>
<g style="mix-blend-mode:multiply">
<path d="M3.5 32.6139C4.81762 32.6139 5.88636 33.6826 5.88636 35.0003C5.88636 33.6826 6.9551 32.6139 8.27273 32.6139C6.9551 32.6139 5.88636 31.5452 5.88636 30.2275C5.88636 31.5452 4.81762 32.6139 3.5 32.6139Z" fill="#D4ABFF"/>
</g>
<g style="mix-blend-mode:overlay">
<path d="M14 7.47745C16.0188 7.47745 17.6591 9.11773 17.6591 11.1365C17.6591 9.11773 19.2994 7.47745 21.3182 7.47745C19.2994 7.47745 17.6591 5.83717 17.6591 3.81836C17.6591 5.83717 16.0188 7.47745 14 7.47745Z" fill="#002E6D"/>
</g>
<g style="mix-blend-mode:multiply">
<path d="M30.5449 49.7954C32.0371 49.7954 33.2495 51.0077 33.2495 52.4999C33.2495 51.0077 34.4618 49.7954 35.954 49.7954C34.4618 49.7954 33.2495 48.583 33.2495 47.0908C33.2495 48.583 32.0371 49.7954 30.5449 49.7954Z" fill="#D4ABFF"/>
</g>
<g style="mix-blend-mode:overlay">
<path d="M44.2275 44.8637C44.7542 44.8637 45.1821 45.2916 45.1821 45.8183C45.1821 45.2916 45.61 44.8637 46.1366 44.8637C45.61 44.8637 45.1821 44.4358 45.1821 43.9092C45.1821 44.4358 44.7542 44.8637 44.2275 44.8637Z" fill="#002E6D"/>
</g>
<mask id="mask0_917_51346" style="mask-type:alpha" maskUnits="userSpaceOnUse" x="2" y="4" width="54" height="51">
<path d="M52.9587 54.5677C53.2324 54.5677 53.4544 54.222 53.4544 53.7956V39.2009L55.6816 32.0471L51.4528 16.5512V5.22626C51.4528 4.79981 51.2309 4.4541 50.9571 4.4541L3.04095 4.4541C2.76719 4.4541 2.54527 4.79981 2.54527 5.22626V53.7956C2.54527 54.222 2.76719 54.5677 3.04095 54.5677H52.9587Z" fill="white"/>
</mask>
<g mask="url(#mask0_917_51346)">
<rect x="6.82715" y="13.1934" width="26.5682" height="16.4303" rx="1.86667" fill="#D4ABFF"/>
<rect x="6.04492" y="12.1641" width="26.744" height="16.715" rx="1.86667" fill="#F6EEFF"/>
<circle cx="19.4172" cy="21.716" r="2.86543" fill="#D4ABFF"/>
<path d="M19.8875 20.9021C20.5097 21.2614 20.5097 22.1714 19.8875 22.5306C19.2653 22.8899 18.4772 22.4349 18.4772 21.7164C18.4772 20.9979 19.2653 20.5429 19.8875 20.9021Z" fill="white"/>
<path d="M6.04492 14.0307C6.04492 12.9998 6.88066 12.1641 7.91159 12.1641H30.9222C31.9532 12.1641 32.7889 12.9998 32.7889 14.0307V14.0743H6.04492V14.0307Z" fill="#D4ABFF"/>
<circle cx="8.43265" cy="13.1192" r="0.477571" fill="#E91639"/>
<circle cx="10.3428" cy="13.1192" r="0.477571" fill="#FFCE00"/>
<circle cx="12.253" cy="13.1192" r="0.477571" fill="#09B95A"/>
<path d="M37.6797 40.1019C37.686 40.398 38.6319 72.9555 38.6319 72.9555L42.9804 73.0093L44.8423 43.051L47.6445 73.0564H51.7848L51.4233 40.3433L49.8156 33.7041L37.6797 40.1019Z" fill="black"/>
<path d="M51.6852 26.627C51.4638 26.3689 51.0742 26.3386 50.8165 26.5617C50.5587 26.7834 50.5284 27.1735 50.7513 27.4316C50.9726 27.6896 51.3623 27.7201 51.62 27.497C51.8777 27.2753 51.9065 26.885 51.6852 26.627Z" fill="#6B36BF"/>
<path d="M32.6993 31.0516H31.1847C31.0755 31.0516 30.9876 30.9635 30.9876 30.8542V30.7099C30.9876 30.6007 31.0755 30.5127 31.1847 30.5127H32.6993C32.8085 30.5127 32.8965 30.6007 32.8965 30.7099V30.8542C32.8965 30.9635 32.8085 31.0516 32.6993 31.0516Z" stroke="#A4C6D7" stroke-width="0.65893" stroke-miterlimit="10"/>
<path d="M45.1787 20.4238H41.4173L41.5138 17.0945L44.9548 15.9014L45.1787 20.4238Z" fill="#FAC8BB"/>
<path d="M39.8678 12.2231C39.8678 12.2231 38.4684 11.0526 38.2318 12.4053C37.9969 13.7579 40.5166 14.5807 40.5166 14.5807" fill="#FF8D76"/>
<path d="M41.9628 19.0547L41.9961 19.3155L41.89 19.2643L41.9628 19.0547Z" fill="#002252"/>
<path d="M39.3975 9.29102L38.6303 9.55365C38.6303 9.55365 38.0239 10.7423 39.108 12.3955" fill="#170475"/>
<path d="M42.148 17.2378L42.6786 17.2317C44.689 17.2105 46.3158 15.3629 46.2917 13.1253L46.2719 11.3066C46.2522 9.39379 44.8286 7.8423 43.1093 7.86051L42.0495 7.87115C40.3302 7.88936 38.9399 9.4697 38.9596 11.3825L38.9852 13.7902C39.0049 15.706 40.4286 17.256 42.148 17.2378Z" fill="#FAC8BB"/>
<path d="M39.7426 12.2778C39.7393 11.9601 39.9598 11.7002 40.2354 11.6973C40.5109 11.6944 40.7369 11.9496 40.7402 12.2673C40.7435 12.5851 40.5228 12.845 40.2474 12.8479C39.972 12.8508 39.746 12.5956 39.7426 12.2778Z" fill="white"/>
<path d="M39.8199 12.377C39.8173 12.1322 39.987 11.9319 40.1987 11.9297C40.4105 11.9275 40.5844 12.1241 40.5869 12.3689C40.5895 12.6137 40.4198 12.814 40.2081 12.8162C39.9961 12.8184 39.8224 12.6218 39.8199 12.377Z" fill="#002E6D"/>
<path d="M42.4106 12.3052C42.4073 11.9874 42.6278 11.7275 42.9032 11.7246C43.1788 11.7217 43.4048 11.9769 43.4082 12.2947C43.4115 12.6124 43.1908 12.8723 42.9154 12.8752C42.64 12.8781 42.414 12.6229 42.4106 12.3052Z" fill="white"/>
<path d="M42.4887 12.4053C42.4862 12.1605 42.6557 11.9603 42.8677 11.958C43.0794 11.9558 43.2532 12.1524 43.2558 12.3972C43.2585 12.642 43.0888 12.8423 42.877 12.8445C42.6651 12.8467 42.4913 12.6501 42.4887 12.4053Z" fill="#002E6D"/>
<path d="M43.5871 10.4791C43.3052 10.3896 42.5289 10.2089 42.4167 10.6552C42.3272 11.0089 43.2111 10.9771 43.5386 10.93C43.8661 10.8814 43.9237 10.5869 43.5871 10.4791Z" fill="#002E6D"/>
<path d="M39.3748 10.8017C39.6219 10.6377 40.3178 10.2506 40.5482 10.6484C40.7302 10.9641 39.8719 11.1767 39.5445 11.2207C39.217 11.2647 39.0791 10.9975 39.3748 10.8017Z" fill="#002E6D"/>
<path d="M45.9309 11.8397C45.9309 11.8397 46.9346 10.5432 47.5941 11.6226C48.3112 12.7931 45.8171 14.2854 45.8171 14.2854" fill="#FAC8BB"/>
<path fill-rule="evenodd" clip-rule="evenodd" d="M46.5244 11.6922C46.5244 11.6923 46.5244 11.6923 46.5841 11.7521L46.5244 11.6922C46.4914 11.7253 46.4914 11.7789 46.5244 11.8119C46.5573 11.8449 46.6107 11.8449 46.6437 11.812L46.6441 11.8117L46.6463 11.8095C46.6484 11.8075 46.6517 11.8044 46.6562 11.8004C46.6652 11.7925 46.6785 11.7811 46.6955 11.7682C46.7297 11.7422 46.7765 11.7116 46.8291 11.6902C46.8818 11.6687 46.936 11.6581 46.9876 11.6659C47.0371 11.6734 47.092 11.699 47.1469 11.7638L47.1474 11.7645C47.2039 11.8299 47.2249 11.8928 47.2281 11.9498C47.2313 12.0084 47.2161 12.0664 47.1915 12.12C47.1669 12.1736 47.1344 12.2196 47.1074 12.2527C47.0941 12.2691 47.0824 12.2819 47.0743 12.2904C47.0702 12.2946 47.0671 12.2977 47.0651 12.2997L47.063 12.3018L47.0628 12.302C47.0628 12.3019 47.0627 12.302 47.0628 12.302C47.0628 12.3019 47.0628 12.302 47.1202 12.364L47.1776 12.426C47.1434 12.4578 47.0899 12.4558 47.0582 12.4215C47.0265 12.3872 47.0286 12.3337 47.0628 12.302M47.1202 12.364C47.1776 12.426 47.1776 12.4261 47.1776 12.426L47.1779 12.4258L47.1783 12.4254L47.1795 12.4243L47.1833 12.4205C47.1865 12.4174 47.1909 12.413 47.1963 12.4074C47.2071 12.3961 47.2217 12.38 47.2383 12.3597C47.2711 12.3195 47.3127 12.2612 47.345 12.1906C47.3774 12.1202 47.402 12.0342 47.3968 11.9403C47.3914 11.845 47.3555 11.7469 47.2755 11.6541C47.1964 11.5609 47.1059 11.5127 47.0129 11.4986C46.9218 11.4848 46.8359 11.5047 46.7653 11.5335C46.6946 11.5624 46.6348 11.602 46.5933 11.6335C46.5724 11.6494 46.5556 11.6636 46.5439 11.6741C46.538 11.6793 46.5334 11.6836 46.5301 11.6867L46.5262 11.6905L46.525 11.6916L46.5246 11.692L46.5244 11.6922" fill="#FF7F66"/>
<path fill-rule="evenodd" clip-rule="evenodd" d="M45.9135 14.9546C45.8654 14.9318 45.8079 14.9524 45.7851 15.0006L45.8723 15.0419C45.7851 15.0006 45.7851 15.0006 45.7851 15.0005L45.7851 15.0007L45.7846 15.0016L45.7825 15.0059C45.7806 15.0098 45.7777 15.0158 45.7736 15.0237C45.7655 15.0395 45.7531 15.0632 45.7364 15.0934C45.7029 15.1539 45.652 15.2408 45.5829 15.345C45.4447 15.5535 45.2344 15.8304 44.9468 16.1034C44.3722 16.6486 43.4915 17.1762 42.2562 17.1163C42.203 17.1137 42.1578 17.1548 42.1552 17.2081C42.1527 17.2614 42.1937 17.3067 42.2469 17.3092C43.5483 17.3723 44.4779 16.8145 45.0795 16.2435C45.38 15.9584 45.5993 15.6695 45.7436 15.4518C45.8158 15.3429 45.8694 15.2515 45.9051 15.1871C45.9229 15.1548 45.9363 15.1293 45.9454 15.1116C45.9499 15.1027 45.9533 15.0959 45.9557 15.0911L45.9584 15.0855L45.9591 15.0839L45.9593 15.0835L45.9594 15.0833C45.9594 15.0833 45.9595 15.0832 45.8723 15.0419L45.9595 15.0832C45.9822 15.035 45.9617 14.9774 45.9135 14.9546ZM45.7851 15.0005C45.7851 15.0005 45.7851 15.0005 45.7851 15.0005L45.7851 15.0005Z" fill="#FF7F66"/>
<path fill-rule="evenodd" clip-rule="evenodd" d="M42.8131 14.5269C42.7635 14.5079 42.7078 14.5326 42.6886 14.5822L42.6883 14.583C42.6879 14.5838 42.6873 14.5854 42.6864 14.5876C42.6845 14.592 42.6814 14.5989 42.677 14.6079C42.6683 14.626 42.6544 14.6526 42.6346 14.6845C42.5951 14.7483 42.5325 14.8324 42.4412 14.9124C42.2613 15.07 41.9631 15.218 41.4881 15.1515C41.4354 15.1441 41.3866 15.1809 41.3793 15.2337C41.3719 15.2866 41.4087 15.3354 41.4614 15.3428C41.9946 15.4174 42.3483 15.2504 42.5682 15.0577C42.6768 14.9626 42.7512 14.8627 42.7985 14.7863C42.8222 14.7481 42.8393 14.7155 42.8507 14.692C42.8564 14.6803 42.8606 14.6707 42.8636 14.6639C42.865 14.6605 42.8662 14.6577 42.867 14.6557L42.868 14.6531L42.8683 14.6523L42.8685 14.652L42.8685 14.6518C42.8685 14.6518 42.8686 14.6517 42.7785 14.6171L42.8686 14.6517C42.8877 14.6019 42.8628 14.5461 42.8131 14.5269Z" fill="#FF7F66"/>
<path d="M51.4365 40.3047H37.6821C38.5674 35.6532 40.3049 34.3916 40.3049 34.3916L48.7059 33.8906C50.6997 35.8582 51.2758 38.1307 51.4365 40.3047Z" fill="black"/>
<path d="M28.9897 25.7601L29.8418 26.3659C30.0239 26.4948 30.274 26.4523 30.4029 26.2703L30.9138 25.5505C31.0427 25.3685 31.0001 25.1179 30.8183 24.989L29.9662 24.3832C29.7842 24.2541 29.5341 24.2967 29.4051 24.4788L28.8942 25.1983C28.7669 25.3806 28.8093 25.631 28.9897 25.7601Z" fill="#FF8300"/>
<path d="M27.1504 25.0538C28.6726 26.0162 30.0115 31.5239 33.1635 33.8739C33.341 34.006 33.5258 34.1108 33.7154 34.1911C35.3453 34.8743 37.292 33.6719 37.292 31.7653L34.9571 29.6292L29.6976 24.8184L27.1504 25.0538Z" fill="#FAC8BB"/>
<path d="M33.7135 34.1917C35.3433 34.875 37.29 33.6726 37.29 31.766L34.9553 29.6299C36.4729 32.4809 35.6481 34.5865 33.7165 34.1903C33.7151 34.1903 33.7151 34.1903 33.7135 34.1917Z" fill="#EBB197"/>
<path d="M29.6943 24.8181L30.2734 26.2391C27.7505 27.4885 25.9494 26.315 24.8335 26.1465L26.3087 23.1514L29.6943 24.8181Z" fill="#EDBEA7"/>
<path d="M25.4015 24.503C25.4576 24.5378 25.5077 24.585 25.5485 24.6412C25.5592 24.6563 25.5698 24.6715 25.5774 24.6882C25.6744 24.8536 25.6714 25.0556 25.5803 25.2165C25.5471 25.2787 25.4986 25.3334 25.4409 25.3789L25.074 25.6627L24.5555 26.0635C24.4811 26.1213 24.3978 26.1546 24.3114 26.1667C24.1901 26.1835 24.0673 26.1578 23.9642 26.0924C23.9081 26.0576 23.858 26.009 23.8186 25.9528C23.6716 25.7432 23.7004 25.4609 23.8793 25.2863L23.8809 25.2848C23.8898 25.2757 23.9006 25.2665 23.9127 25.2575L24.7754 24.544C24.7829 24.5364 24.7921 24.5303 24.801 24.5243C24.9831 24.3876 25.221 24.3876 25.4015 24.503Z" fill="#EDBEA7"/>
<path d="M21.9414 23.1613C21.8989 22.9049 22.0855 22.6665 22.3447 22.6467L24.5809 22.4844L26.7764 23.1189L26.4049 25.0073L23.9851 23.5804L22.3628 23.5288C22.1521 23.5242 21.9763 23.3693 21.9414 23.1613Z" fill="#EDBEA7"/>
<path d="M24.2548 26.8646C24.3624 27.0134 24.5458 27.0999 24.743 27.0742L25.8527 26.9238C26.1378 26.8844 26.3425 26.6248 26.3137 26.3379C26.3046 26.2559 26.2757 26.18 26.2363 26.1132C26.2288 26.0995 26.2212 26.0889 26.2136 26.0782C26.2075 26.0692 26.1999 26.0584 26.1908 26.0509C26.0742 25.9082 25.8861 25.8308 25.692 25.8658L24.5898 26.0509C24.4336 26.0798 24.3017 26.1754 24.2289 26.306C24.2183 26.3242 24.2092 26.3455 24.2001 26.3652C24.1668 26.4381 24.1531 26.52 24.1607 26.6051C24.1682 26.7053 24.2032 26.7917 24.2548 26.8646Z" fill="#EDBEA7"/>
<path d="M26.0545 25.4378C26.0605 25.4467 26.0681 25.4575 26.0742 25.468C26.0818 25.4802 26.0878 25.4923 26.0953 25.5045L26.0939 25.5061C26.1425 25.5955 26.1652 25.7003 26.153 25.8127C26.1228 26.0981 25.8695 26.3091 25.5814 26.2864L24.4655 26.2027C24.411 26.1983 24.3595 26.1862 24.3109 26.1665C24.2214 26.13 24.1426 26.0692 24.0881 25.9918C24.0123 25.8886 23.9759 25.7595 23.9924 25.6244C24.0032 25.5469 24.0274 25.4786 24.0652 25.4149C24.0957 25.3678 24.1321 25.3254 24.176 25.2904C24.27 25.2115 24.3943 25.1644 24.5262 25.1704L25.5785 25.2176L25.6467 25.2206C25.8164 25.2266 25.962 25.3103 26.0545 25.4378Z" fill="#EDBEA7"/>
<path d="M25.4621 23.7212C25.5409 23.7712 25.6061 23.8395 25.6501 23.9276C25.782 24.1856 25.6849 24.5015 25.4332 24.6411L25.1163 24.8157L24.4522 25.18C24.3523 25.2346 24.2415 25.2543 24.1385 25.2392C24.0627 25.2316 23.9914 25.2043 23.9278 25.1633C23.8488 25.1133 23.7851 25.0434 23.7412 24.9553C23.623 24.7139 23.7093 24.421 23.9399 24.2844L24.2522 24.0991L24.5827 23.9017L24.9026 23.712C25.0831 23.6043 25.2983 23.6164 25.4621 23.7212Z" fill="#EDBEA7"/>
<path d="M24.0036 25.0394C24.0703 25.1685 24.1901 25.2701 24.3432 25.3052L25.4333 25.5602C25.7138 25.6269 25.9973 25.457 26.0701 25.1807C26.102 25.0578 26.0898 24.9362 26.0429 24.8285C26.0397 24.8179 26.0337 24.8058 26.0292 24.7966C25.9564 24.6554 25.826 24.5492 25.6607 24.5157L24.5631 24.294C24.4326 24.2683 24.3023 24.294 24.1962 24.3593C24.0854 24.4231 24.0021 24.5309 23.9642 24.6615C23.9278 24.7936 23.9459 24.9257 24.0036 25.0394Z" fill="#EDBEA7"/>
<path d="M29.6953 24.8184L26.7767 23.1182L24.7542 23.5144L25.4622 24.5299L26.296 24.615C26.296 24.615 27.5379 27.0866 29.6953 24.8184Z" fill="#EDBEA7"/>
<path d="M24.7538 23.5146L24.2475 24.5985C24.1367 24.8338 24.2368 25.1147 24.4703 25.2286C24.678 25.3302 24.9281 25.2665 25.0632 25.0798L25.4619 24.5302L24.7538 23.5146Z" fill="#EDBEA7"/>
<path d="M29.7493 24.7559L28.3014 26.9266L28.7685 27.6553L30.5332 25.3844L29.7493 24.7559Z" fill="#7C4513"/>
<path d="M38.6188 36.9196L47.7173 36.9347L51.0225 36.9409C51.0225 36.9409 50.4206 35.4789 49.8944 33.548C49.4533 31.925 49.0666 29.9742 49.1364 28.2816C49.1773 27.269 49.3092 26.2064 49.3092 25.1163C49.3077 24.4241 49.8869 19.6361 49.3092 19.1959C47.9795 18.1802 44.8213 18.1514 44.8213 18.1514L42.9263 19.0971C42.6351 19.2429 42.3092 19.3037 41.9847 19.2732L41.8997 19.2656L41.548 19.0668C40.1062 19.076 38.9357 20.2328 38.9085 21.6764L38.6188 36.9196Z" fill="#A958FF"/>
<path fill-rule="evenodd" clip-rule="evenodd" d="M41.2275 12.2714C41.2275 11.4976 40.661 10.8584 39.9484 10.8584C39.2355 10.8584 38.669 11.4976 38.669 12.2714C38.669 13.0451 39.2355 13.6844 39.9484 13.6844C40.661 13.6844 41.2275 13.0451 41.2275 12.2714ZM39.9484 10.9913C40.5752 10.9913 41.0948 11.5578 41.0948 12.2714C41.0948 12.985 40.5752 13.5515 39.9484 13.5515C39.3214 13.5515 38.8017 12.985 38.8017 12.2714C38.8017 11.5578 39.3214 10.9913 39.9484 10.9913Z" fill="#1D252D"/>
<path fill-rule="evenodd" clip-rule="evenodd" d="M44.1875 12.4003C44.1875 11.6265 43.621 10.9873 42.9081 10.9873C42.1953 10.9873 41.629 11.6266 41.629 12.4003C41.629 13.174 42.1953 13.8133 42.9081 13.8133C43.621 13.8133 44.1875 13.1741 44.1875 12.4003ZM42.9081 11.1202C43.5351 11.1202 44.0548 11.6867 44.0548 12.4003C44.0548 13.1139 43.5351 13.6804 42.9081 13.6804C42.2812 13.6804 41.7617 13.1139 41.7617 12.4003C41.7617 11.6867 42.2812 11.1202 42.9081 11.1202Z" fill="#1D252D"/>
<path fill-rule="evenodd" clip-rule="evenodd" d="M46.2258 11.5841C46.2124 11.5402 46.1659 11.5156 46.1221 11.5291L44.098 12.1515C44.0541 12.165 44.0295 12.2115 44.043 12.2554C44.0564 12.2992 44.1029 12.3239 44.1467 12.3104L46.1708 11.688C46.2147 11.6745 46.2393 11.628 46.2258 11.5841Z" fill="#1D252D"/>
<path d="M50.5961 33.2548L53.6829 32.7522C54.2742 28.0599 53.1053 23.9337 49.9957 19.8059C49.2694 18.842 47.9246 18.6005 46.9087 19.2517C46.0324 19.8135 45.6412 20.8928 45.952 21.8857L50.5961 33.2548Z" fill="#A958FF"/>
<path d="M51.1582 38.6912L42.9603 39.8299L42.5131 36.9424H50.5336L51.1582 38.6912Z" fill="#653599"/>
<path d="M41.877 36.9424L41.3569 39.8299L38.3867 38.6912L39.0115 36.9424H41.877Z" fill="#653599"/>
<path d="M41.2965 12.3484C40.9084 12.7188 40.4217 13.3595 40.9175 13.9287C40.9963 14.0183 41.1435 13.9834 41.1754 13.868L41.5452 12.4972C41.5846 12.3499 41.4057 12.2422 41.2965 12.3484Z" fill="#FF8D76"/>
<path d="M46.4584 11.3607L45.9807 13.1126C45.9807 13.1126 45.3441 10.4651 45.388 10.1311L45.67 9.6301C45.67 9.6301 43.4578 10.084 42.9075 9.96409L43.3836 9.51017C43.3836 9.51017 41.2882 9.9155 40.7364 9.9155L41.1518 9.51017C41.1518 9.51017 38.7124 10.6563 38.1983 10.6609C38.1983 10.6609 37.3812 7.99056 40.0496 7.13435C42.7044 6.2827 44.9438 6.59239 46.0716 8.0452C46.9056 9.12003 46.7479 11.2256 46.7479 11.2256L46.4584 11.3607Z" fill="#002E6D"/>
<path d="M46.2012 18.1433L45.2854 17.8852C45.0777 17.826 44.8549 17.8534 44.6653 17.9581L42.6626 19.0816L43.4721 19.9149L46.2012 18.1433Z" fill="#002E6D"/>
<path d="M42.664 19.083V19.2029L42.752 19.1741L42.664 19.083Z" fill="#002252"/>
<path d="M34.3145 29.0451L37.5863 32.6218C38.7219 31.4467 42.9323 25.2438 43.7222 22.3441C44.0604 21.1025 43.3901 19.806 42.1789 19.3733C41.6769 19.1942 41.1477 19.1881 40.6641 19.3293C40.138 19.4825 39.6649 19.809 39.3345 20.2811L34.3145 29.0451Z" fill="#A958FF"/>
<path d="M35.8773 34.0647C36.0896 33.9508 36.2245 33.7336 36.2351 33.4924C36.2701 32.6649 36.132 30.7067 34.3158 29.0459C34.3158 29.0459 33.9366 28.7528 34.1337 28.557C34.3309 28.3596 35.0025 28.0393 35.5771 28.8485C36.1517 29.6576 38.1227 31.3184 37.5875 32.6224C37.0523 33.928 36.4975 34.5231 35.6105 34.2089L35.8773 34.0647Z" fill="#653599"/>
<path d="M27.833 25.7714C27.5374 25.6347 27.2583 25.4664 26.9976 25.2766C26.8687 25.1793 26.7473 25.0732 26.6351 24.9592C26.5261 24.8423 26.4274 24.718 26.3441 24.5843L26.3349 24.5692L26.3182 24.5616C25.9332 24.3885 25.5526 24.2062 25.1661 24.0393C24.7793 23.8723 24.3957 23.6962 24.0046 23.5369L23.994 23.5323H23.9865L23.3103 23.5293C23.0844 23.5323 22.86 23.5307 22.634 23.5383C22.8584 23.5596 23.0844 23.5733 23.3087 23.5899L23.9835 23.6293L23.9652 23.6249C24.3442 23.81 24.731 23.9785 25.1145 24.1562C25.4965 24.3337 25.8863 24.4978 26.2713 24.6678L26.2456 24.6451C26.3365 24.7877 26.4426 24.9168 26.5639 25.0305C26.6867 25.1429 26.8156 25.2463 26.9521 25.3387C27.0885 25.4313 27.231 25.5118 27.3796 25.5831C27.5266 25.656 27.6768 25.7214 27.833 25.7714Z" fill="#FF7F66"/>
<path d="M27.957 23.8054C27.766 23.6809 27.5735 23.561 27.381 23.4379C27.1885 23.315 26.9929 23.1996 26.7987 23.0797L26.7957 23.0781L26.7898 23.0767C26.4273 22.9613 26.062 22.852 25.6965 22.7442C25.3311 22.6364 24.9672 22.5241 24.6003 22.4239L24.5882 22.4209L24.5776 22.4223C24.0848 22.4633 23.5906 22.4968 23.0978 22.5468L22.3595 22.6181C22.229 22.6379 22.1092 22.7032 22.0291 22.8034C21.9471 22.9052 21.929 23.0402 21.9425 23.1616C21.9411 23.0387 21.9714 22.9112 22.0531 22.8231C22.1321 22.7351 22.2503 22.6835 22.3655 22.6743L23.107 22.6379C23.6012 22.6167 24.094 22.5771 24.5868 22.5468L24.5655 22.5438C24.9294 22.6546 25.2978 22.7532 25.6647 22.858C26.0316 22.9628 26.3984 23.0645 26.7669 23.1602L26.7578 23.1556C26.9579 23.2649 27.1551 23.3787 27.3568 23.4851C27.5538 23.5928 27.7539 23.702 27.957 23.8054Z" fill="#FF7F66"/>
<path d="M24.6992 24.3209C25.0312 24.3787 25.3631 24.459 25.6649 24.5956C25.8105 24.6655 25.9621 24.7596 26.0137 24.8962C26.0258 24.9311 26.0304 24.9616 26.0288 25.001C26.0272 25.042 26.0272 25.0831 26.0226 25.1209C26.0137 25.1984 25.9954 25.2757 25.9484 25.3122C25.906 25.3502 25.8271 25.3562 25.7483 25.3502C25.6679 25.3456 25.5845 25.3319 25.5012 25.3213L24.9994 25.247L23.9957 25.1104H23.9925H23.9866C23.9547 25.1088 23.9046 25.0815 23.8743 25.042C23.8409 25.0026 23.8182 24.951 23.8001 24.8962C23.7683 24.7855 23.7606 24.6625 23.7621 24.541V24.538L23.7606 24.5289C23.7592 24.5137 23.7759 24.4636 23.8001 24.4333C23.8242 24.3984 23.8531 24.3665 23.8849 24.3347C23.9486 24.2739 24.0214 24.2191 24.0972 24.1675C24.2488 24.0673 24.4125 23.9825 24.5778 23.9004C24.405 23.9626 24.2352 24.0355 24.0715 24.1251C23.9911 24.1707 23.9092 24.2191 23.8379 24.2829C23.8015 24.3133 23.7683 24.3482 23.7379 24.3877C23.709 24.4303 23.6772 24.4667 23.6804 24.5456L23.6788 24.5349C23.6712 24.661 23.6712 24.79 23.7015 24.9205C23.7182 24.9843 23.7424 25.0496 23.7864 25.1088C23.832 25.1665 23.8925 25.2166 23.9866 25.2227H23.976L24.9795 25.3759C25.1464 25.4002 25.3148 25.4231 25.4815 25.4443C25.5648 25.4534 25.6498 25.4656 25.7377 25.4701C25.8227 25.4715 25.9303 25.4747 26.0196 25.4002C26.1046 25.3229 26.1183 25.2195 26.1289 25.1315C26.1334 25.0861 26.1334 25.042 26.1319 24.9994C26.1319 24.9554 26.1227 24.9008 26.103 24.8568C26.0167 24.6747 25.8454 24.5926 25.6908 24.5243C25.5314 24.4576 25.3647 24.415 25.198 24.3847C25.0372 24.3528 24.8689 24.3301 24.6992 24.3209Z" fill="#FF7F66"/>
<path d="M26.0958 25.5029C26.0944 25.6896 26.061 25.8884 25.9458 26.0175C25.8881 26.0797 25.8093 26.1131 25.7259 26.1147C25.6364 26.1177 25.5393 26.1177 25.447 26.1177L24.316 26.1085H24.3128H24.3114C24.2431 26.1115 24.1642 26.1025 24.0945 26.0828C24.0247 26.0615 23.9565 26.0296 23.9019 25.9826C23.8474 25.9354 23.7989 25.8749 23.773 25.8019C23.7428 25.7306 23.7322 25.6531 23.7231 25.5742C23.7155 25.6531 23.7124 25.7352 23.7352 25.8155C23.7519 25.896 23.7927 25.9735 23.852 26.0356C23.9111 26.098 23.9853 26.145 24.0641 26.1739C24.1445 26.2027 24.2249 26.2209 24.3144 26.2225H24.3098C24.6874 26.2436 25.0664 26.2498 25.4454 26.2392C25.5409 26.2346 25.6334 26.233 25.7319 26.2209C25.835 26.2117 25.9428 26.1587 26.0049 26.0721C26.0685 25.9886 26.0958 25.8884 26.1065 25.7912C26.1187 25.6942 26.1141 25.597 26.0958 25.5029Z" fill="#FF7F66"/>
<path d="M26.2367 26.1152C26.2853 26.2882 26.2974 26.481 26.2216 26.6298C26.1472 26.7832 25.9789 26.8378 25.8076 26.8818C25.6363 26.9258 25.459 26.9531 25.28 26.9744C25.1027 26.9941 24.9207 27.0109 24.7434 27.0184H24.7372H24.7358C24.6752 27.029 24.6039 27.029 24.5387 27.0184C24.4734 27.0079 24.4082 26.9896 24.3537 26.9531C24.2976 26.9182 24.249 26.8696 24.2203 26.8075C24.1869 26.7467 24.1732 26.6768 24.1597 26.6055C24.1565 26.6768 24.1581 26.7527 24.1839 26.8226C24.205 26.8939 24.2506 26.9623 24.3113 27.0109C24.372 27.0595 24.4446 27.0928 24.5204 27.1095C24.5962 27.1262 24.6706 27.1338 24.751 27.1262H24.7434C24.9282 27.1278 25.1117 27.1202 25.2953 27.1005C25.4787 27.0806 25.6606 27.0487 25.8394 26.9957C25.929 26.9639 26.0169 26.941 26.1032 26.8864C26.1882 26.8332 26.261 26.7543 26.2958 26.6603C26.3322 26.566 26.3352 26.4674 26.3217 26.3748C26.308 26.2852 26.2791 26.1957 26.2367 26.1152Z" fill="#FF7F66"/>
<path d="M27.5537 26.7925C27.3991 26.7272 27.24 26.6923 27.0792 26.665C26.9185 26.6391 26.7547 26.6226 26.588 26.6331C26.7426 26.6984 26.9017 26.7333 27.0625 26.7606C27.2248 26.7865 27.387 26.8046 27.5537 26.7925Z" fill="#FF7F66"/>
<path fill-rule="evenodd" clip-rule="evenodd" d="M46.9657 23.9684C46.9229 23.9848 46.9015 24.0329 46.9179 24.0757L49.2496 30.1755C49.266 30.2183 49.314 30.2398 49.3568 30.2234C49.3996 30.207 49.421 30.1589 49.4046 30.116L47.0729 24.0163C47.0565 23.9734 47.0085 23.952 46.9657 23.9684Z" fill="#002E6D"/>
<path fill-rule="evenodd" clip-rule="evenodd" d="M48.6382 19.4108C48.6331 19.3652 48.592 19.3323 48.5464 19.3374L48.5557 19.42C48.5464 19.3374 48.5464 19.3374 48.5463 19.3374L48.5462 19.3375L48.5457 19.3375L48.5442 19.3377L48.5388 19.3384C48.5341 19.339 48.5274 19.3399 48.5188 19.3411C48.5015 19.3436 48.4767 19.3474 48.4454 19.3531C48.3829 19.3644 48.2946 19.383 48.1903 19.4119C47.9822 19.4695 47.7077 19.5693 47.4467 19.7377C47.1855 19.9063 46.9354 20.1454 46.7814 20.4819C46.6269 20.8191 46.5724 21.2469 46.6901 21.7862C46.6999 21.8311 46.7441 21.8595 46.7889 21.8497C46.8337 21.8399 46.8621 21.7956 46.8523 21.7507C46.7411 21.2412 46.795 20.8509 46.9323 20.5511C47.0699 20.2506 47.2946 20.0337 47.5367 19.8774C47.7791 19.721 48.0366 19.6269 48.2346 19.5721C48.3333 19.5447 48.4166 19.5273 48.475 19.5167C48.5041 19.5114 48.527 19.5079 48.5424 19.5056C48.5501 19.5045 48.5559 19.5038 48.5597 19.5033L48.5639 19.5028L48.5648 19.5027L48.5649 19.5026L48.5649 19.5026C48.5649 19.5026 48.5649 19.5026 48.5649 19.5026C48.6104 19.4975 48.6432 19.4564 48.6382 19.4108Z" fill="#002E6D"/>
<path d="M34.7285 28.3232C34.7285 28.3232 33.8128 28.3201 34.1327 28.8454C34.4526 29.3707 36.231 30.5639 36.2219 32.8562C36.2219 32.8562 36.51 33.8491 35.6109 34.2058C35.6109 34.2058 35.7671 34.4608 36.3781 34.2877C36.9875 34.1148 37.4985 33.1188 37.5879 32.6194" stroke="#002252" stroke-width="0.537676" stroke-miterlimit="10" stroke-linecap="round" stroke-linejoin="round"/>
<path d="M50.8145 37.2108C50.8145 37.2108 50.8827 36.9285 50.4491 36.9056C50.0154 36.8829 39.0112 36.942 39.0112 36.942" stroke="#002252" stroke-width="0.537676" stroke-miterlimit="10" stroke-linecap="round" stroke-linejoin="round"/>
<path d="M41.9629 19.055L41.7232 19.8216L41.0471 18.9988L41.2578 18.9122C41.4261 18.7817 41.455 18.8409 41.5883 18.8895L41.9629 19.055Z" fill="#002E6D"/>
<path fill-rule="evenodd" clip-rule="evenodd" d="M39.8465 23.0731C39.8022 23.0613 39.7567 23.0877 39.745 23.1321L39.8252 23.1535L39.9054 23.1748C39.9172 23.1305 39.8908 23.0849 39.8465 23.0731ZM38.7923 32.1699C38.8127 29.6889 39.0911 27.4395 39.3644 25.8102C39.5011 24.9957 39.6365 24.3363 39.7376 23.8809C39.7882 23.6531 39.8302 23.4764 39.8595 23.3567C39.8742 23.2968 39.8857 23.2512 39.8935 23.2207C39.8974 23.2054 39.9004 23.1939 39.9024 23.1862L39.9047 23.1776L39.9054 23.1748C39.9054 23.1748 39.9054 23.1748 39.8252 23.1535C39.745 23.1321 39.745 23.132 39.745 23.1321L39.7441 23.1352L39.7418 23.1442C39.7397 23.1521 39.7366 23.1639 39.7327 23.1794C39.7247 23.2105 39.7131 23.2567 39.6983 23.3171C39.6687 23.4379 39.6264 23.6158 39.5755 23.8448C39.4738 24.3027 39.3379 24.9649 39.2007 25.7827C38.9264 27.4181 38.6468 29.6766 38.6262 32.1689L38.6262 32.1695L38.6262 33.9973C38.6262 34.0432 38.6634 34.0804 38.7093 34.0804C38.7551 34.0804 38.7923 34.0432 38.7923 33.9973V32.1699Z" fill="#002E6D"/>
<path d="M34.2056 25.4112L34.4634 25.0848L34.4648 25.0863C34.4952 25.0515 34.5362 25.024 34.5892 25.018L39.547 24.3622C39.6927 24.3425 39.8367 24.4001 39.929 24.514L45.2553 31.0434C45.3493 31.1572 45.2902 31.3303 45.1461 31.3636L41.7303 32.1606C41.5909 32.194 41.4436 32.153 41.3406 32.0514L34.5317 25.4097H34.2056V25.4112Z" fill="#E4EAE8"/>
<path d="M45.0005 31.3613L39.6742 24.8319C39.5817 24.7181 39.4377 24.662 39.2922 24.6801L34.3343 25.3359C34.169 25.3572 34.1024 25.5606 34.2205 25.6759L41.0842 32.3693C41.1874 32.4695 41.3344 32.5105 41.4739 32.4787L44.8897 31.6816C45.0353 31.6498 45.0944 31.4767 45.0005 31.3613Z" fill="white"/>
<path d="M38.7292 28.5915C38.2759 28.1784 38.0872 27.6469 38.3078 27.4046C38.5282 27.1621 39.0742 27.3005 39.5275 27.7138C39.9805 28.127 40.1694 28.6584 39.9489 28.9007C39.7285 29.1432 39.1824 29.0046 38.7292 28.5915Z" fill="#E4EAE8"/>
<path d="M39.1159 25.3755C39.1826 25.4879 39.3161 25.5759 39.413 25.5743C39.51 25.5728 39.5343 25.4801 39.4661 25.3678C39.3994 25.2556 39.2659 25.1676 39.1689 25.169C39.0734 25.172 39.0491 25.2646 39.1159 25.3755Z" fill="#E4EAE8"/>
<path d="M41.2701 31.6104L37.566 29.0402L39.7539 27.9609L41.1275 28.9295L42.5527 28.9643L43.0439 30.9074L41.2701 31.6104Z" fill="#FAC8BB"/>
<path d="M49.5242 29.2802L42.3785 30.0043L41.2703 31.6105C41.2703 31.6105 46.1554 34.0651 50.7356 33.7601C52.7157 33.628 53.4101 31.0625 51.7636 29.9527L51.5043 29.7782C50.9221 29.3849 50.2216 29.2088 49.5242 29.2802Z" fill="#FAC8BB"/>
<path d="M53.8634 29.3695C53.8634 29.3695 54.4411 33.2362 52.696 33.9254C50.9494 34.6147 47.8777 34.3019 48.8192 33.2407C48.8192 33.2407 50.5537 31.7212 48.7191 29.5624C48.7191 29.5624 48.3841 29.0068 49.0481 28.9082C49.7122 28.8094 53.8634 29.3695 53.8634 29.3695Z" fill="#653599"/>
<path d="M42.5537 28.9934L42.3581 27.741C42.3414 27.6332 42.2489 27.5527 42.1383 27.5527C41.782 27.5527 41.4939 27.8412 41.4939 28.198V29.1301L42.5537 28.9934Z" fill="#FAC8BB"/>
<path d="M41.1451 29.594C41.3179 29.459 41.3482 29.2115 41.2149 29.0384L39.7699 27.1802C39.635 27.0073 39.3879 26.9768 39.215 27.1105C39.0421 27.2456 39.0119 27.493 39.1454 27.6661L40.5902 29.5243C40.7251 29.6974 40.9738 29.7293 41.1451 29.594Z" fill="#FAC8BB"/>
<path d="M39.8805 29.2014C40.0532 29.0664 40.0836 28.819 39.9501 28.6458L38.5054 26.7878C38.3703 26.6147 38.1232 26.5843 37.9503 26.7179C37.7776 26.853 37.7472 27.1004 37.8806 27.2735L39.3254 29.1331C39.4605 29.3048 39.709 29.3367 39.8805 29.2014Z" fill="#FAC8BB"/>
<path d="M39.2232 29.6234C39.3961 29.4883 39.4264 29.2408 39.2929 29.0678L37.8481 27.2096C37.7132 27.0365 37.4659 27.0062 37.2932 27.1397C37.1203 27.275 37.0901 27.5224 37.2234 27.6955L38.6683 29.5535C38.8032 29.7266 39.0519 29.7571 39.2232 29.6234Z" fill="#FAC8BB"/>
<path d="M37.984 29.0504C38.1265 28.9381 38.1523 28.7317 38.0417 28.5889L37.5095 27.9058C37.3973 27.7631 37.1912 27.7373 37.0486 27.848C36.9061 27.9604 36.8802 28.1669 36.991 28.3096L37.5231 28.9927C37.6339 29.1369 37.84 29.1628 37.984 29.0504Z" fill="#FAC8BB"/>
<path d="M42.8047 29.9605C42.6955 29.2545 42.5303 28.5685 42.4241 27.8701V27.8792C42.4271 27.823 42.4181 27.7744 42.3998 27.7228C42.3831 27.6742 42.3513 27.6256 42.3073 27.5953C42.2633 27.5649 42.2134 27.5483 42.1649 27.5452C42.1163 27.5406 42.0678 27.5497 42.0224 27.5603C42.0694 27.5603 42.1163 27.5635 42.1603 27.574C42.2043 27.5846 42.2437 27.6059 42.2725 27.6364C42.3013 27.6667 42.3195 27.7031 42.3286 27.7441C42.3377 27.7836 42.3377 27.829 42.3332 27.8671V27.8701V27.8762C42.3513 28.2344 42.412 28.5882 42.4908 28.9358C42.5711 29.2864 42.6728 29.6295 42.8047 29.9605Z" fill="#FF7F66"/>
<path d="M41.5393 27.9609C41.4422 28.1339 41.4406 28.3526 41.4482 28.5392C41.4514 28.7124 41.3998 28.9643 41.2739 28.8687C41.2086 28.8307 41.136 28.7578 41.0692 28.6926C40.9995 28.6273 40.9359 28.5544 40.8676 28.4861C40.7341 28.345 40.5992 28.2068 40.4598 28.0687C40.5599 28.2372 40.6705 28.3996 40.7918 28.553C40.8509 28.6303 40.9162 28.7048 40.9812 28.7777C41.0511 28.8504 41.1131 28.9203 41.2148 28.9841C41.2647 29.0098 41.3421 29.0327 41.412 28.9946C41.4786 28.9568 41.5089 28.896 41.5256 28.8444C41.5574 28.7367 41.559 28.6335 41.5498 28.5333C41.5256 28.3374 41.4922 28.1536 41.5393 27.9609Z" fill="#FF7F66"/>
<path d="M39.2141 27.1133C39.1353 27.1573 39.073 27.2408 39.0533 27.3364C39.0352 27.4336 39.0595 27.5352 39.1019 27.6219C39.1974 27.7934 39.3036 27.9239 39.4081 28.0727C39.6219 28.3581 39.8448 28.639 40.0996 28.8954C39.9281 28.5767 39.7236 28.2822 39.5113 27.9922L39.349 27.7782C39.2929 27.7067 39.2354 27.6384 39.1914 27.5717C39.1474 27.5019 39.1156 27.4244 39.117 27.3424C39.117 27.2635 39.152 27.18 39.2141 27.1133Z" fill="#FF7F66"/>
<path d="M37.95 26.7188C37.8424 26.7703 37.7833 26.9008 37.7894 27.0239C37.7954 27.1483 37.8485 27.2638 37.9106 27.3654C38.0425 27.5644 38.1806 27.7435 38.3185 27.9287C38.599 28.2945 38.8886 28.6543 39.21 28.9897C38.972 28.5921 38.7006 28.217 38.4231 27.8497C38.2836 27.6676 38.135 27.4839 37.9956 27.3092C37.9319 27.2198 37.8728 27.1241 37.8531 27.0178C37.8288 26.913 37.8607 26.7961 37.95 26.7188Z" fill="#FF7F66"/>
<path d="M37.2939 27.1416C37.2044 27.1888 37.1286 27.2677 37.0908 27.3725C37.0709 27.4255 37.0741 27.4832 37.0801 27.5394C37.0922 27.594 37.1149 27.6456 37.1437 27.6928C37.1726 27.7398 37.2074 27.7793 37.2454 27.8173L37.35 27.9235C37.4197 27.9934 37.4879 28.0647 37.5546 28.1374C37.8291 28.4259 38.0989 28.7189 38.3945 28.9922C38.1779 28.6522 37.923 28.3424 37.6487 28.048C37.5788 27.9751 37.5076 27.9038 37.4348 27.8338C37.359 27.7625 37.2818 27.7034 37.2271 27.6334C37.171 27.5621 37.1362 27.4771 37.1513 27.3876C37.1634 27.2966 37.2211 27.2099 37.2939 27.1416Z" fill="#FF7F66"/>
<path d="M37.112 27.8105C37.0287 27.8576 36.9544 27.935 36.927 28.0368C36.9013 28.14 36.9377 28.2478 36.9952 28.3313C37.1182 28.4892 37.2242 28.6424 37.341 28.8034C37.4562 28.9628 37.5973 29.1086 37.7534 29.2331C37.911 29.3576 38.0702 29.4608 38.2295 29.5745C38.5494 29.7962 38.8694 30.0164 39.1952 30.2289C39.5197 30.4429 39.8456 30.654 40.1807 30.8544C39.8775 30.61 39.5651 30.3777 39.2529 30.1469C38.9406 29.9146 38.6237 29.6915 38.3053 29.4683C38.1476 29.3576 37.9808 29.2496 37.8306 29.1359C37.6776 29.0219 37.5457 28.8869 37.4214 28.7412C37.3 28.5938 37.1757 28.4361 37.0484 28.2948C36.9893 28.2251 36.9499 28.137 36.962 28.0444C36.9756 27.9518 37.0362 27.8683 37.112 27.8105Z" fill="#FF7F66"/>
<path d="M50.8738 29.1294C50.8738 29.1294 49.1545 28.589 48.7937 28.9898C48.4328 29.389 48.8968 29.7852 48.8968 29.7852C48.8968 29.7852 50.3887 31.6069 48.9225 33.1357C48.9225 33.1357 48.1615 33.7171 49.1788 34.1072C50.1961 34.4974 53.28 34.4731 53.6787 32.7502" stroke="#002252" stroke-width="0.537676" stroke-miterlimit="10" stroke-linecap="round" stroke-linejoin="round"/>
</g>
</g>
<defs>
<clipPath id="clip0_917_51346">
<rect width="56" height="56" rx="28" fill="white"/>
</clipPath>
</defs>
</svg>
