<svg width="56" height="56" viewBox="0 0 56 56" fill="none" xmlns="http://www.w3.org/2000/svg">
<g clip-path="url(#clip0_917_51779)">
<path d="M13.8225 60.0946C7.50908 56.7613 1.10491 51.991 -1.72994 45.4294C-4.52541 38.8218 -3.75805 30.3638 -0.912563 23.1526C1.93293 15.9414 1.62081 5.62103 7.49326 2.50426C13.3657 -0.612526 25.7172 0.490147 30.8688 3.46709C37.256 7.15802 37.8412 15.5167 43.9123 18.5088C49.9833 21.4549 60.8929 22.5226 64.2141 27.7391C67.5353 32.9556 66.7625 37.2011 62.928 42.6013C59.1395 47.9556 52.4869 50.6852 46.9813 54.3663C41.4363 58.0868 36.9925 62.7127 31.6789 64.0447C26.3653 65.3767 20.136 63.4279 13.8225 60.0946Z" fill="#F6EEFF"/>
<path opacity="0.8" d="M38.5764 11.7346C43.2554 11.2239 48.5147 11.4645 52.4859 14.0014C56.4526 16.578 59.1567 21.4808 60.2653 26.4701C61.374 31.4593 65.3554 36.9807 63.2989 40.8515C61.2425 44.7222 54.0894 48.6808 50.1764 48.9572C45.3251 49.2999 41.9189 44.9507 37.4983 45.5583C33.0945 46.191 26.7419 49.6364 23.0017 48.0137C19.2615 46.391 18.1159 43.7868 18.2161 39.4215C18.3081 35.0982 20.9336 31.1508 22.5814 27.1074C24.236 23.0278 24.955 18.8604 27.3652 16.1708C29.7755 13.4812 33.8973 12.2454 38.5764 11.7346Z" fill="#D4ABFF"/>
<path opacity="0.8" d="M32.1477 70.3317C25.4945 73.8876 17.5295 76.6729 10.1075 75.2734C2.66858 73.8122 -4.28282 68.137 -8.91334 61.3798C-13.5438 54.6226 -22.7644 48.7909 -22.0194 41.8055C-21.2744 34.8202 -13.0024 24.6582 -7.34851 21.9087C-0.338588 18.4998 7.326 22.932 13.5371 19.3865C19.708 15.8138 27.0963 6.89357 33.6283 7.07152C40.1603 7.24946 43.4202 10.4376 45.8801 16.9893C48.3269 23.4737 46.7814 30.9132 46.7475 37.9111C46.7248 44.9669 48.1463 51.5942 46.1692 57.0344C44.1922 62.4747 38.801 66.7758 32.1477 70.3317Z" fill="#D4ABFF"/>
<g style="mix-blend-mode:overlay">
<path d="M23.2275 13.2045C23.8424 13.2045 24.3412 13.7032 24.3412 14.3181C24.3412 13.7032 24.8399 13.2045 25.4548 13.2045C24.8399 13.2045 24.3412 12.7057 24.3412 12.0908C24.3412 12.7057 23.8424 13.2045 23.2275 13.2045Z" fill="#002E6D"/>
</g>
<g style="mix-blend-mode:multiply">
<path d="M3.5 32.6139C4.81762 32.6139 5.88636 33.6826 5.88636 35.0003C5.88636 33.6826 6.9551 32.6139 8.27273 32.6139C6.9551 32.6139 5.88636 31.5452 5.88636 30.2275C5.88636 31.5452 4.81762 32.6139 3.5 32.6139Z" fill="#D4ABFF"/>
</g>
<g style="mix-blend-mode:overlay">
<path d="M14 7.47745C16.0188 7.47745 17.6591 9.11773 17.6591 11.1365C17.6591 9.11773 19.2994 7.47745 21.3182 7.47745C19.2994 7.47745 17.6591 5.83717 17.6591 3.81836C17.6591 5.83717 16.0188 7.47745 14 7.47745Z" fill="#002E6D"/>
</g>
<g style="mix-blend-mode:multiply">
<path d="M30.5459 49.7954C32.0381 49.7954 33.2504 51.0077 33.2504 52.4999C33.2504 51.0077 34.4628 49.7954 35.955 49.7954C34.4628 49.7954 33.2504 48.583 33.2504 47.0908C33.2504 48.583 32.0381 49.7954 30.5459 49.7954Z" fill="#D4ABFF"/>
</g>
<g style="mix-blend-mode:overlay">
<path d="M44.2275 44.8637C44.7542 44.8637 45.1821 45.2916 45.1821 45.8183C45.1821 45.2916 45.61 44.8637 46.1366 44.8637C45.61 44.8637 45.1821 44.4358 45.1821 43.9092C45.1821 44.4358 44.7542 44.8637 44.2275 44.8637Z" fill="#002E6D"/>
</g>
<path d="M54.6897 27.4447C53.3512 25.6228 49.7925 19.8222 49.7925 19.8222C49.269 19.3049 47.998 18.4829 46.9877 19.3086C45.9593 20.1501 47.0213 22.6804 47.0213 22.6804C46.3675 21.9323 44.2911 19.1996 42.9082 20.6706C41.9115 21.7312 42.8144 22.9606 42.8144 22.9606C42.8144 22.9606 42.0029 22.26 41.1318 23.0304C40.0812 23.9611 41.2723 25.5539 41.2723 25.5539L41.9356 26.6198C41.9356 26.6198 41.2473 26.0875 40.4395 26.9467C39.7068 27.7264 40.711 29.1283 40.711 29.1283L44.6345 35.2734C44.6247 37.3407 44.6345 38.1077 44.6345 39.7829C44.6345 43.8943 46.8346 44.4314 46.8346 44.4314V51.1835L56.2534 51.207V32.7029C56.2534 32.7029 56.4453 29.8332 54.6897 27.4447Z" fill="#EBB197"/>
<path d="M3.19082 27.4447C4.52886 25.6228 8.08858 19.8222 8.08858 19.8222C8.61179 19.3049 9.88271 18.4829 10.8929 19.3086C11.9216 20.1501 10.8594 22.6804 10.8594 22.6804C11.5132 21.9323 13.5899 19.1996 14.9725 20.6705C15.9692 21.7312 15.0663 22.9606 15.0663 22.9606C15.0663 22.9606 15.8778 22.26 16.7492 23.0304C17.7997 23.961 16.6084 25.5539 16.6084 25.5539L15.9451 26.6198C15.9451 26.6198 16.6334 26.0875 17.4411 26.9467C18.1739 27.7264 17.1697 29.1282 17.1697 29.1282L13.2462 35.2734C13.256 37.3407 13.2462 38.1077 13.2462 39.7828C13.2462 43.8943 11.0465 44.4314 11.0465 44.4314V51.1835L1.62732 51.207V32.7029C1.62732 32.7029 1.43482 29.8332 3.19082 27.4447Z" fill="#EBB197"/>
<path d="M7.77441 11.5972C7.77441 9.2379 9.69046 7.31886 12.0451 7.31886L44.278 7.31851C46.6342 7.31851 48.5496 9.2379 48.5496 11.5972V30.5445C48.5496 32.9038 46.6342 34.8232 44.278 34.8232H12.0451C9.69046 34.8232 7.77441 32.9038 7.77441 30.5445V11.5972Z" fill="black"/>
<path d="M8.27246 30.2274C8.27246 31.9846 9.69701 33.4092 11.4543 33.4092H44.5452C46.3025 33.4092 47.727 31.9846 47.727 30.2274V11.7728C47.727 10.0155 46.3025 8.591 44.5452 8.591H11.4543C9.69701 8.591 8.27246 10.0155 8.27246 11.7728V30.2274Z" fill="#F6EEFF"/>
<path d="M44.278 8.78574C45.8258 8.78574 47.0857 10.0474 47.0857 11.5972V30.5445C47.0857 32.0943 45.8258 33.3565 44.278 33.3565H12.0451C10.4979 33.3565 9.23855 32.0943 9.23855 30.5445V11.5972C9.23855 10.0477 10.4979 8.7861 12.0451 8.7861L44.278 8.78574ZM12.0451 7.31886C9.69046 7.31886 7.77441 9.2379 7.77441 11.5972V30.5445C7.77441 32.9038 9.69046 34.8232 12.0451 34.8232H44.278C46.6342 34.8232 48.5496 32.9038 48.5496 30.5445V11.5972C48.5496 9.2379 46.6342 7.31851 44.278 7.31851L12.0451 7.31886Z" fill="#D4ABFF"/>
<path d="M1.62785 51.1968C1.62785 51.1968 1.61265 40.454 1.62785 39.5889C1.61265 36.8728 2.12463 35.9884 3.94482 34.2562L10.7863 27.8324C10.7863 27.8324 12.0525 26.3647 13.3477 27.6209C14.4477 28.6886 13.7698 30.1752 13.0688 30.9799L8.90513 36.1354V39.6696C8.90513 39.6696 9.11504 41.947 8.20513 42.9409C7.62313 43.5767 7.01277 43.9659 6.47829 44.1392V51.207L1.62785 51.1968Z" fill="#FAC8BB"/>
<path d="M10.3597 29.0445C10.1809 28.8732 10.175 28.5897 10.3468 28.4109L10.9251 27.8245C11.3879 27.344 12.2579 27.2473 12.7413 27.7112C13.2235 28.1743 13.2387 28.9971 12.7745 29.478L12.0937 30.0897C11.922 30.2672 11.6387 30.2729 11.4604 30.1018L10.3597 29.0445Z" fill="#F9E7DC"/>
<path d="M11.9908 51.2496C12.1601 51.2496 12.2971 51.1142 12.297 50.946L12.2817 46.1727C12.2817 46.0051 12.1439 45.8698 11.9746 45.8702L1.26031 45.9024C1.09126 45.9031 0.953382 46.0397 0.954104 46.2073L0.969385 50.9806C0.970347 51.148 1.10811 51.2822 1.27655 51.2822L11.9908 51.2496Z" fill="#A958FF"/>
<path d="M56.2528 51.1968C56.2528 51.1968 56.2686 40.454 56.2528 39.5889C56.2686 36.8728 55.756 35.9884 53.9361 34.2562L47.0947 27.8324C47.0947 27.8324 45.8286 26.3647 44.5331 27.6209C43.4333 28.6886 44.1111 30.1752 44.8121 30.9799L48.9762 36.1354V39.6696C48.9762 39.6696 48.7661 41.947 49.6763 42.9409C50.2577 43.5767 50.8681 43.9659 51.4028 44.1392V51.207L56.2528 51.1968Z" fill="#FAC8BB"/>
<path d="M47.5217 29.0445C47.7009 28.8732 47.7065 28.5897 47.5346 28.4109L46.9564 27.8245C46.4936 27.344 45.6236 27.2473 45.1407 27.7112C44.658 28.1743 44.6429 28.9971 45.1069 29.478L45.7878 30.0897C45.9595 30.2672 46.2427 30.2729 46.4212 30.1018L47.5217 29.0445Z" fill="#F9E7DC"/>
<path d="M45.9625 51.2496C45.7946 51.2496 45.658 51.1142 45.6582 50.946L45.6735 46.1727C45.6735 46.0051 45.8105 45.8698 45.9789 45.8702L56.6231 45.9024C56.7906 45.9031 56.9275 46.0397 56.927 46.2073L56.9124 50.9806C56.9118 51.148 56.7748 51.2822 56.6066 51.2822L45.9625 51.2496Z" fill="#A958FF"/>
<path d="M47.1415 12.582C47.1163 12.5783 47.092 12.5746 47.0674 12.5708V12.5079C47.0913 12.5332 47.116 12.5579 47.1415 12.582Z" fill="#A21A26"/>
<rect width="2.63241" height="11.1159" transform="matrix(-0.888766 0.458361 0.458361 0.888766 27.6777 20.0234)" fill="#D4ABFF"/>
<path d="M25.3379 31.1543V17.1991H20.1878V31.1543H25.3379Z" fill="#D4ABFF"/>
<path d="M22.0155 21.1146V27.4051C22.0155 27.9159 22.3503 28.3301 22.7631 28.3301C23.176 28.3301 23.5107 27.9159 23.5107 27.4051V21.1146C23.5107 20.6037 23.176 20.1896 22.7631 20.1896C22.3503 20.1896 22.0155 20.6037 22.0155 21.1146Z" fill="#FFF5F5"/>
<rect width="3.8468" height="18.2217" transform="matrix(-1 0 0 1 18.8008 13.0459)" fill="#A958FF"/>
<rect width="3.8468" height="10.4722" transform="matrix(-1 0 0 1 18.8008 16.8154)" fill="#D4ABFF"/>
<path d="M42.075 15.773C42.28 15.8936 42.28 16.183 42.075 16.3036L41.3696 16.7135L40.6642 17.1235C40.4593 17.244 40.2061 17.0933 40.2061 16.8582V16.0383V15.2184C40.2061 14.9832 40.4593 14.8385 40.6642 14.9531L41.3696 15.3631L42.075 15.773Z" fill="#0055B8"/>
<path d="M38.585 14.38C38.7781 14.38 38.9347 14.2234 38.9347 14.0303C38.9347 13.8372 38.7781 13.6807 38.585 13.6807C38.3919 13.6807 38.2354 13.8372 38.2354 14.0303C38.2354 14.2234 38.3919 14.38 38.585 14.38Z" fill="#A958FF"/>
<path d="M41.0504 19.3756C40.7128 19.3756 40.3932 19.3334 40.0978 19.243C39.9109 19.1887 39.8084 18.9958 39.8627 18.8089C39.917 18.622 40.1099 18.5195 40.2968 18.5738C40.5319 18.6401 40.7851 18.6763 41.0564 18.6763C42.3647 18.6763 43.1966 17.9528 43.1966 16.6807C43.1966 16.4878 43.3534 16.3311 43.5463 16.3311C43.7392 16.3311 43.896 16.4878 43.896 16.6807C43.8899 18.3507 42.7565 19.3756 41.0504 19.3756ZM39.1031 18.5738C39.0066 18.5738 38.9101 18.5316 38.8378 18.4532C38.4098 17.9589 38.1807 17.3138 38.1807 16.5783V15.0469C38.1807 14.854 38.3374 14.6973 38.5303 14.6973C38.7233 14.6973 38.88 14.854 38.88 15.0469V16.5783C38.88 17.145 39.0488 17.6333 39.3623 17.995C39.4889 18.1397 39.4769 18.3628 39.3322 18.4894C39.2658 18.5497 39.1814 18.5738 39.1031 18.5738Z" fill="#A958FF"/>
<path d="M38.941 19.7877C38.8686 19.7877 38.7963 19.7636 38.73 19.7214C38.6275 19.643 38.5732 19.5225 38.5913 19.3959L38.7541 18.1841C38.7782 17.9912 38.9591 17.8586 39.146 17.8827C39.3389 17.9068 39.4715 18.0817 39.4474 18.2746L39.369 18.8593L40.002 18.57C40.1768 18.4916 40.3818 18.57 40.4662 18.7448C40.5446 18.9196 40.4662 19.1246 40.2914 19.209L39.0857 19.7576C39.0374 19.7817 38.9892 19.7877 38.941 19.7877Z" fill="#A958FF"/>
<path d="M43.5586 14.38C43.7517 14.38 43.9083 14.2234 43.9083 14.0303C43.9083 13.8372 43.7517 13.6807 43.5586 13.6807C43.3655 13.6807 43.209 13.8372 43.209 14.0303C43.209 14.2234 43.3655 14.38 43.5586 14.38Z" fill="#0055B8"/>
<path d="M43.5586 16.0323C43.3657 16.0323 43.209 15.8756 43.209 15.6827V15.0557C43.209 14.8628 43.3657 14.7061 43.5586 14.7061C43.7516 14.7061 43.9083 14.8628 43.9083 15.0557V15.6887C43.9023 15.8816 43.7516 16.0323 43.5586 16.0323Z" fill="#0055B8"/>
<g clip-path="url(#clip1_917_51779)">
<path d="M38.1782 31.1606C37.7186 31.1606 37.2589 31.057 36.8252 30.8563C36.0548 30.4937 35.4721 29.8593 35.1873 29.0565C34.993 28.5192 34.9477 27.943 35.0578 27.3862C35.0966 27.192 35.2844 27.0625 35.4786 27.1014C35.6728 27.1402 35.8023 27.328 35.7634 27.5222C35.6793 27.9559 35.7181 28.4026 35.867 28.817C36.0871 29.432 36.5403 29.9305 37.1359 30.2089C37.7315 30.4873 38.3983 30.5196 39.0198 30.2995C39.3176 30.1959 39.5831 30.0341 39.8161 29.8269C40.0104 29.6586 40.1722 29.4579 40.3017 29.2378C40.4635 28.9594 40.5736 28.6551 40.6189 28.3379C40.6772 27.9365 40.6383 27.5287 40.5024 27.1467C40.3146 26.6223 39.965 26.1886 39.4924 25.8972C39.3241 25.7936 39.2723 25.5735 39.3759 25.4052C39.4795 25.2369 39.6996 25.1851 39.8679 25.2887C40.4765 25.6706 40.9297 26.2274 41.1757 26.9072C41.3505 27.3992 41.4087 27.9301 41.331 28.448C41.2728 28.8558 41.1303 29.2443 40.9232 29.6068C40.7549 29.8917 40.5412 30.1506 40.2952 30.3643C39.9909 30.6297 39.6478 30.8369 39.2658 30.9793C38.9033 31.0958 38.5408 31.1606 38.1782 31.1606Z" fill="#24C11B"/>
<path d="M38.1785 25.5943C38.393 25.5943 38.5669 25.4203 38.5669 25.2058C38.5669 24.9913 38.393 24.8174 38.1785 24.8174C37.9639 24.8174 37.79 24.9913 37.79 25.2058C37.79 25.4203 37.9639 25.5943 38.1785 25.5943Z" fill="#24C11B"/>
<path d="M36.7348 25.8856C36.885 25.8856 37.0067 25.7639 37.0067 25.6137C37.0067 25.4635 36.885 25.3418 36.7348 25.3418C36.5846 25.3418 36.4629 25.4635 36.4629 25.6137C36.4629 25.7639 36.5846 25.8856 36.7348 25.8856Z" fill="#24C11B"/>
<path d="M35.7508 26.6237C35.8295 26.6237 35.8932 26.56 35.8932 26.4813C35.8932 26.4026 35.8295 26.3389 35.7508 26.3389C35.6722 26.3389 35.6084 26.4026 35.6084 26.4813C35.6084 26.56 35.6722 26.6237 35.7508 26.6237Z" fill="#24C11B"/>
<path d="M37.8937 29.2131C37.8289 29.2066 37.7707 29.1807 37.7189 29.1354L36.6377 28.229C36.4953 28.106 36.4759 27.8859 36.5989 27.7435C36.7219 27.5946 36.942 27.5816 37.0844 27.7046L37.9066 28.3973L39.2403 26.8889C39.3633 26.7465 39.5834 26.7335 39.7258 26.8565C39.8682 26.9795 39.8812 27.1997 39.7582 27.3421L38.2044 29.0965C38.1203 29.1872 38.0037 29.226 37.8937 29.2131Z" fill="#0055B8"/>
</g>
<path d="M28.5972 13.7154L28.437 13.8191C28.2201 13.9605 27.9561 13.9322 27.8336 13.7343C27.7016 13.5363 27.7959 13.2911 28.0127 13.1403L28.2107 13.0083C28.3992 12.8763 28.4935 12.7632 28.4935 12.6029C28.4935 12.4332 28.3615 12.3012 28.1824 12.3012C27.8336 12.3012 27.7582 12.6406 27.4282 12.6406C27.1642 12.6406 27.0322 12.4615 27.0322 12.2541C27.0322 11.8487 27.579 11.415 28.2201 11.415C29.012 11.415 29.4269 11.9618 29.4269 12.5369C29.4269 12.9895 29.2289 13.31 28.5972 13.7154ZM28.8235 14.7524C28.8235 15.073 28.5595 15.3275 28.239 15.3275C27.9184 15.3275 27.6639 15.073 27.6639 14.7524C27.6639 14.4319 27.9184 14.1679 28.239 14.1679C28.5595 14.1679 28.8235 14.4319 28.8235 14.7524Z" fill="#0055B8"/>
<path d="M30.5859 12.132C30.4351 12.132 30.2843 12.0943 30.1617 12.0283L29.9826 12.0566L29.6055 12.1132L29.8034 11.6418C29.7375 11.5098 29.7092 11.3684 29.7092 11.2175C29.7092 10.6896 30.0957 10.2842 30.6048 10.2842C31.1139 10.2842 31.5004 10.6801 31.5004 11.2175C31.4816 11.736 31.095 12.132 30.5859 12.132Z" fill="#0055B8"/>
<path d="M31.2647 15.6393L30.9442 14.8662C31.1704 14.4137 31.2836 13.9046 31.2836 13.3861C31.2836 13.0278 31.2364 12.6884 31.1327 12.3679C30.9819 12.4339 30.8122 12.4716 30.6425 12.4716C30.6331 12.4716 30.6331 12.4716 30.6236 12.4716C30.7179 12.7544 30.7651 13.0655 30.7651 13.3955C30.7651 13.8763 30.6519 14.3383 30.4257 14.7437C30.3879 14.8191 30.3879 14.9039 30.4162 14.9699C30.4257 14.9794 30.4257 14.9888 30.4257 14.9888L30.7651 15.7996L30.4068 15.7524C30.3974 15.7524 30.3879 15.7524 30.3785 15.7524L29.6714 15.6582C29.6149 15.6487 29.5583 15.6582 29.5017 15.6959C29.1058 15.9316 28.6721 16.0447 28.2007 16.0447C26.7489 16.0447 25.6552 14.9039 25.6552 13.3861C25.6552 11.8588 26.7489 10.6992 28.2007 10.6992C28.625 10.6992 29.0304 10.8029 29.3698 10.982C29.3886 10.8029 29.4546 10.6332 29.5395 10.4824C29.1435 10.2844 28.6815 10.1807 28.2007 10.1807C26.4566 10.1807 25.1367 11.5571 25.1367 13.3767C25.1367 15.1868 26.4566 16.5444 28.2007 16.5444C28.7287 16.5444 29.2378 16.4124 29.6809 16.1672L30.3314 16.2521C30.3408 16.2521 30.3408 16.2521 30.3502 16.2521L30.6896 16.2992C30.8782 16.3275 31.0667 16.2521 31.1799 16.1013C31.3024 15.9787 31.3307 15.7996 31.2647 15.6393Z" fill="#FFD600"/>
</g>
<defs>
<clipPath id="clip0_917_51779">
<rect width="56" height="56" rx="28" fill="white"/>
</clipPath>
<clipPath id="clip1_917_51779">
<rect width="7.63636" height="7.63636" fill="white" transform="translate(34.3633 24.1816)"/>
</clipPath>
</defs>
</svg>
