<svg width="56" height="56" viewBox="0 0 56 56" fill="none" xmlns="http://www.w3.org/2000/svg">
<g clip-path="url(#clip0_917_51587)">
<path d="M12.8675 61.0497C6.554 57.7164 0.149837 52.9461 -2.68502 46.3844C-5.48048 39.7769 -4.71313 31.3189 -1.86764 24.1077C0.97785 16.8964 0.665732 6.57611 6.53818 3.45933C12.4106 0.342552 24.7621 1.44523 29.9137 4.42217C36.3009 8.11309 36.8861 16.4717 42.9572 19.4638C49.0283 22.41 59.9378 23.4776 63.259 28.6941C66.5802 33.9106 65.8074 38.1561 61.9729 43.5564C58.1844 48.9107 51.5318 51.6403 46.0262 55.3214C40.4812 59.0418 36.0374 63.6678 30.7238 64.9998C25.4102 66.3318 19.1809 64.383 12.8675 61.0497Z" fill="#F6EEFF"/>
<path opacity="0.8" d="M38.5764 11.7346C43.2554 11.2239 48.5147 11.4645 52.4859 14.0014C56.4526 16.578 59.1567 21.4808 60.2653 26.4701C61.374 31.4593 65.3554 36.9807 63.2989 40.8515C61.2425 44.7222 54.0894 48.6808 50.1764 48.9572C45.3251 49.2999 41.9189 44.9507 37.4983 45.5583C33.0945 46.191 26.7419 49.6364 23.0017 48.0137C19.2615 46.391 18.1159 43.7868 18.2161 39.4215C18.3081 35.0982 20.9336 31.1508 22.5814 27.1074C24.236 23.0278 24.955 18.8604 27.3652 16.1708C29.7755 13.4812 33.8973 12.2454 38.5764 11.7346Z" fill="#D4ABFF"/>
<path opacity="0.8" d="M28.4771 66.0042C22.9874 68.9383 16.4152 71.2364 10.2912 70.0817C4.15316 68.876 -1.5826 64.1933 -5.40334 58.6178C-9.22409 53.0422 -16.8322 48.2303 -16.2175 42.4666C-15.6028 36.7028 -8.77736 28.3179 -4.11218 26.0492C1.67187 23.2365 7.9961 26.8936 13.121 23.9681C18.2128 21.0202 24.309 13.6599 29.6987 13.8068C35.0884 13.9536 37.7783 16.5842 39.808 21.9902C41.8269 27.3406 40.5517 33.479 40.5237 39.2532C40.5049 45.0751 41.6778 50.5434 40.0465 55.0323C38.4152 59.5211 33.9668 63.0702 28.4771 66.0042Z" fill="#D4ABFF"/>
<g style="mix-blend-mode:overlay">
<path d="M23.2275 13.2045C23.8424 13.2045 24.3412 13.7032 24.3412 14.3181C24.3412 13.7032 24.8399 13.2045 25.4548 13.2045C24.8399 13.2045 24.3412 12.7057 24.3412 12.0908C24.3412 12.7057 23.8424 13.2045 23.2275 13.2045Z" fill="#002E6D"/>
</g>
<g style="mix-blend-mode:multiply">
<path d="M3.5 32.6139C4.81762 32.6139 5.88636 33.6826 5.88636 35.0003C5.88636 33.6826 6.9551 32.6139 8.27273 32.6139C6.9551 32.6139 5.88636 31.5452 5.88636 30.2275C5.88636 31.5452 4.81762 32.6139 3.5 32.6139Z" fill="#D4ABFF"/>
</g>
<g style="mix-blend-mode:overlay">
<path d="M14 7.47745C16.0188 7.47745 17.6591 9.11773 17.6591 11.1365C17.6591 9.11773 19.2994 7.47745 21.3182 7.47745C19.2994 7.47745 17.6591 5.83717 17.6591 3.81836C17.6591 5.83717 16.0188 7.47745 14 7.47745Z" fill="#002E6D"/>
</g>
<g style="mix-blend-mode:multiply">
<path d="M30.5459 49.7954C32.0381 49.7954 33.2504 51.0077 33.2504 52.4999C33.2504 51.0077 34.4628 49.7954 35.955 49.7954C34.4628 49.7954 33.2504 48.583 33.2504 47.0908C33.2504 48.583 32.0381 49.7954 30.5459 49.7954Z" fill="#D4ABFF"/>
</g>
<g style="mix-blend-mode:overlay">
<path d="M44.2275 44.8637C44.7542 44.8637 45.1821 45.2916 45.1821 45.8183C45.1821 45.2916 45.61 44.8637 46.1366 44.8637C45.61 44.8637 45.1821 44.4358 45.1821 43.9092C45.1821 44.4358 44.7542 44.8637 44.2275 44.8637Z" fill="#002E6D"/>
</g>
<mask id="mask0_917_51587" style="mask-type:alpha" maskUnits="userSpaceOnUse" x="2" y="4" width="55" height="51">
<path d="M52.9593 54.5677C53.2331 54.5677 53.455 54.222 53.455 53.7956V39.2009L56.7959 30.0677L51.4534 16.5512V5.22626C51.4534 4.79981 51.2315 4.4541 50.9577 4.4541L3.04158 4.4541C2.76782 4.4541 2.5459 4.79981 2.5459 5.22626V53.7956C2.5459 54.222 2.76782 54.5677 3.04158 54.5677H52.9593Z" fill="white"/>
</mask>
<g mask="url(#mask0_917_51587)">
<rect x="6.8291" y="13.1934" width="26.5682" height="16.4303" rx="0.636364" fill="#D4ABFF"/>
<rect x="6.0459" y="12.1641" width="26.744" height="16.715" rx="0.636364" fill="#F6EEFF"/>
<circle cx="19.4182" cy="21.716" r="2.86543" fill="#D4ABFF"/>
<path d="M20.8216 21.4408C21.0337 21.5633 21.0337 21.8695 20.8216 21.9919L18.9554 23.0693C18.7433 23.1918 18.4782 23.0387 18.4782 22.7938L18.4782 20.639C18.4782 20.394 18.7433 20.241 18.9554 20.3634L20.8216 21.4408Z" fill="white"/>
<path d="M6.0459 12.8004C6.0459 12.449 6.33081 12.1641 6.68226 12.1641H32.1535C32.505 12.1641 32.7899 12.449 32.7899 12.8004V14.0743H6.0459V12.8004Z" fill="#D4ABFF"/>
<circle cx="8.43363" cy="13.1192" r="0.477571" fill="#E91639"/>
<circle cx="10.3438" cy="13.1192" r="0.477571" fill="#FFCE00"/>
<circle cx="12.2539" cy="13.1192" r="0.477571" fill="#09B95A"/>
<path d="M38.9727 40.1019C38.979 40.398 39.9249 72.9555 39.9249 72.9555L44.2734 73.0093L46.1353 43.051L48.9375 73.0564H53.0778L52.7163 40.3433L51.1086 33.7041L38.9727 40.1019Z" fill="black"/>
<path d="M52.9782 26.627C52.7568 26.3689 52.3672 26.3386 52.1094 26.5617C51.8517 26.7834 51.8213 27.1735 52.0442 27.4316C52.2656 27.6896 52.6552 27.7201 52.913 27.497C53.1707 27.2753 53.1995 26.885 52.9782 26.627Z" fill="#6B36BF"/>
<path d="M33.9923 31.0516H32.4777C32.3685 31.0516 32.2805 30.9635 32.2805 30.8542V30.7099C32.2805 30.6007 32.3685 30.5127 32.4777 30.5127H33.9923C34.1015 30.5127 34.1895 30.6007 34.1895 30.7099V30.8542C34.1895 30.9635 34.1015 31.0516 33.9923 31.0516Z" stroke="#A4C6D7" stroke-width="0.224635" stroke-miterlimit="10"/>
<path d="M46.4717 20.4238H42.7103L42.8067 17.0945L46.2477 15.9014L46.4717 20.4238Z" fill="#FAC8BB"/>
<path d="M41.1608 12.2231C41.1608 12.2231 39.7614 11.0526 39.5248 12.4053C39.2898 13.7579 41.8096 14.5807 41.8096 14.5807" fill="#FF8D76"/>
<path d="M43.2558 19.0547L43.2891 19.3155L43.183 19.2643L43.2558 19.0547Z" fill="#002252"/>
<path d="M40.6904 9.29102L39.9233 9.55365C39.9233 9.55365 39.3169 10.7423 40.4009 12.3955" fill="#170475"/>
<path d="M43.4409 17.2378L43.9716 17.2317C45.982 17.2105 47.6088 15.3629 47.5847 13.1253L47.5648 11.3066C47.5451 9.39379 46.1216 7.8423 44.4023 7.86051L43.3425 7.87115C41.6231 7.88936 40.2328 9.4697 40.2525 11.3825L40.2782 13.7902C40.2979 15.706 41.7216 17.256 43.4409 17.2378Z" fill="#FAC8BB"/>
<path d="M41.0346 12.2778C41.0313 11.9601 41.2518 11.7002 41.5274 11.6973C41.8029 11.6944 42.0288 11.9496 42.0322 12.2673C42.0355 12.5851 41.8148 12.845 41.5394 12.8479C41.264 12.8508 41.038 12.5956 41.0346 12.2778Z" fill="white"/>
<path d="M41.1129 12.377C41.1102 12.1322 41.28 11.9319 41.4917 11.9297C41.7035 11.9275 41.8774 12.1241 41.8799 12.3689C41.8825 12.6137 41.7128 12.814 41.501 12.8162C41.2891 12.8184 41.1153 12.6218 41.1129 12.377Z" fill="#002E6D"/>
<path d="M43.7036 12.3052C43.7002 11.9874 43.9208 11.7275 44.1962 11.7246C44.4718 11.7217 44.6978 11.9769 44.7011 12.2947C44.7045 12.6124 44.4838 12.8723 44.2083 12.8752C43.9329 12.8781 43.7069 12.6229 43.7036 12.3052Z" fill="white"/>
<path d="M43.7807 12.4053C43.7782 12.1605 43.9477 11.9603 44.1597 11.958C44.3714 11.9558 44.5452 12.1524 44.5478 12.3972C44.5505 12.642 44.3807 12.8423 44.169 12.8445C43.9571 12.8467 43.7833 12.6501 43.7807 12.4053Z" fill="#002E6D"/>
<path d="M44.8801 10.4791C44.5982 10.3896 43.8219 10.2089 43.7097 10.6552C43.6201 11.0089 44.5041 10.9771 44.8316 10.93C45.159 10.8814 45.2167 10.5869 44.8801 10.4791Z" fill="#002E6D"/>
<path d="M40.6687 10.8017C40.9158 10.6377 41.6117 10.2506 41.8421 10.6484C42.0242 10.9641 41.1659 11.1767 40.8384 11.2207C40.5109 11.2647 40.3731 10.9975 40.6687 10.8017Z" fill="#002E6D"/>
<path d="M47.2238 11.8397C47.2238 11.8397 48.2276 10.5432 48.8871 11.6226C49.6041 12.7931 47.1101 14.2854 47.1101 14.2854" fill="#FAC8BB"/>
<path fill-rule="evenodd" clip-rule="evenodd" d="M47.8164 11.6922C47.8164 11.6923 47.8164 11.6923 47.8761 11.7521L47.8164 11.6922C47.7834 11.7253 47.7834 11.7789 47.8164 11.8119C47.8493 11.8449 47.9027 11.8449 47.9357 11.812L47.9361 11.8117L47.9383 11.8095C47.9404 11.8075 47.9437 11.8044 47.9482 11.8004C47.9572 11.7925 47.9705 11.7811 47.9875 11.7682C48.0217 11.7422 48.0685 11.7116 48.1211 11.6902C48.1738 11.6687 48.228 11.6581 48.2796 11.6659C48.3291 11.6734 48.3839 11.699 48.4389 11.7638L48.4394 11.7645C48.4959 11.8299 48.5169 11.8928 48.5201 11.9498C48.5233 12.0084 48.5081 12.0664 48.4835 12.12C48.4589 12.1736 48.4264 12.2196 48.3994 12.2527C48.3861 12.2691 48.3744 12.2819 48.3663 12.2904C48.3622 12.2946 48.3591 12.2977 48.3571 12.2997L48.355 12.3018L48.3548 12.302C48.3548 12.3019 48.3547 12.302 48.3548 12.302C48.3548 12.3019 48.3548 12.302 48.4122 12.364L48.4696 12.426C48.4354 12.4578 48.3819 12.4558 48.3502 12.4215C48.3185 12.3872 48.3206 12.3337 48.3548 12.302M48.4122 12.364C48.4696 12.426 48.4696 12.4261 48.4696 12.426L48.4699 12.4258L48.4703 12.4254L48.4715 12.4243L48.4753 12.4205C48.4785 12.4174 48.4829 12.413 48.4883 12.4074C48.4991 12.3961 48.5137 12.38 48.5303 12.3597C48.5631 12.3195 48.6046 12.2612 48.637 12.1906C48.6694 12.1202 48.694 12.0342 48.6887 11.9403C48.6834 11.845 48.6475 11.7469 48.5675 11.6541C48.4884 11.5609 48.3979 11.5127 48.3049 11.4986C48.2138 11.4848 48.1279 11.5047 48.0573 11.5335C47.9866 11.5624 47.9268 11.602 47.8853 11.6335C47.8644 11.6494 47.8476 11.6636 47.8359 11.6741C47.83 11.6793 47.8254 11.6836 47.8221 11.6867L47.8182 11.6905L47.817 11.6916L47.8166 11.692L47.8164 11.6922" fill="#FF7F66"/>
<path fill-rule="evenodd" clip-rule="evenodd" d="M47.2055 14.9546C47.1574 14.9318 47.0999 14.9524 47.0771 15.0006L47.1643 15.0419C47.0771 15.0006 47.0771 15.0006 47.0771 15.0005L47.077 15.0007L47.0766 15.0016L47.0745 15.0059C47.0726 15.0098 47.0696 15.0158 47.0656 15.0237C47.0575 15.0395 47.0451 15.0632 47.0284 15.0934C46.9949 15.1539 46.944 15.2408 46.8749 15.345C46.7367 15.5535 46.5264 15.8304 46.2388 16.1034C45.6642 16.6486 44.7835 17.1762 43.5482 17.1163C43.495 17.1137 43.4498 17.1548 43.4472 17.2081C43.4447 17.2614 43.4857 17.3067 43.5389 17.3092C44.8403 17.3723 45.7699 16.8145 46.3715 16.2435C46.672 15.9584 46.8913 15.6695 47.0356 15.4518C47.1078 15.3429 47.1614 15.2515 47.1971 15.1871C47.2149 15.1548 47.2283 15.1293 47.2374 15.1116C47.2419 15.1027 47.2453 15.0959 47.2476 15.0911L47.2504 15.0855L47.2511 15.0839L47.2513 15.0835L47.2514 15.0833C47.2514 15.0833 47.2515 15.0832 47.1643 15.0419L47.2515 15.0832C47.2742 15.035 47.2537 14.9774 47.2055 14.9546ZM47.0771 15.0005C47.0771 15.0005 47.0771 15.0005 47.0771 15.0005L47.0771 15.0005Z" fill="#FF7F66"/>
<path fill-rule="evenodd" clip-rule="evenodd" d="M44.1061 14.5269C44.0564 14.5079 44.0008 14.5326 43.9816 14.5822L43.9813 14.583C43.9809 14.5838 43.9803 14.5854 43.9793 14.5876C43.9775 14.592 43.9744 14.5989 43.97 14.6079C43.9612 14.626 43.9474 14.6526 43.9276 14.6845C43.888 14.7483 43.8254 14.8324 43.7342 14.9124C43.5543 15.07 43.2561 15.218 42.7811 15.1515C42.7284 15.1441 42.6796 15.1809 42.6722 15.2337C42.6649 15.2866 42.7016 15.3354 42.7544 15.3428C43.2875 15.4174 43.6412 15.2504 43.8612 15.0577C43.9698 14.9626 44.0441 14.8627 44.0915 14.7863C44.1152 14.7481 44.1323 14.7155 44.1436 14.692C44.1493 14.6803 44.1536 14.6707 44.1565 14.6639C44.158 14.6605 44.1591 14.6577 44.16 14.6557L44.161 14.6531L44.1613 14.6523L44.1614 14.652L44.1615 14.6518C44.1615 14.6518 44.1615 14.6517 44.0715 14.6171L44.1615 14.6517C44.1806 14.6019 44.1558 14.5461 44.1061 14.5269Z" fill="#FF7F66"/>
<path d="M52.7295 40.3047H38.9751C39.8604 35.6532 41.5979 34.3916 41.5979 34.3916L49.9989 33.8906C51.9926 35.8582 52.5688 38.1307 52.7295 40.3047Z" fill="black"/>
<path d="M30.2827 25.7601L31.1348 26.3659C31.3168 26.4948 31.5669 26.4523 31.6958 26.2703L32.2068 25.5505C32.3357 25.3685 32.2931 25.1179 32.1113 24.989L31.2591 24.3832C31.0771 24.2541 30.827 24.2967 30.6981 24.4788L30.1872 25.1983C30.0599 25.3806 30.1023 25.631 30.2827 25.7601Z" fill="#FF8300"/>
<path d="M28.4434 25.0538C29.9656 26.0162 31.3045 31.5239 34.4565 33.8739C34.634 34.006 34.8188 34.1108 35.0084 34.1911C36.6382 34.8743 38.585 33.6719 38.585 31.7653L36.2501 29.6292L30.9906 24.8184L28.4434 25.0538Z" fill="#FAC8BB"/>
<path d="M35.0065 34.1917C36.6363 34.875 38.583 33.6726 38.583 31.766L36.2483 29.6299C37.7659 32.4809 36.9411 34.5865 35.0094 34.1903C35.008 34.1903 35.008 34.1903 35.0065 34.1917Z" fill="#EBB197"/>
<path d="M30.9873 24.8181L31.5664 26.2391C29.0435 27.4885 27.2424 26.315 26.1265 26.1465L27.6017 23.1514L30.9873 24.8181Z" fill="#EDBEA7"/>
<path d="M26.6944 24.503C26.7505 24.5378 26.8007 24.585 26.8415 24.6412C26.8522 24.6563 26.8628 24.6715 26.8703 24.6882C26.9674 24.8536 26.9644 25.0556 26.8733 25.2165C26.8401 25.2787 26.7915 25.3334 26.7338 25.3789L26.367 25.6627L25.8485 26.0635C25.7741 26.1213 25.6907 26.1546 25.6044 26.1667C25.483 26.1835 25.3603 26.1578 25.2572 26.0924C25.2011 26.0576 25.151 26.009 25.1116 25.9528C24.9646 25.7432 24.9934 25.4609 25.1723 25.2863L25.1738 25.2848C25.1828 25.2757 25.1935 25.2665 25.2057 25.2575L26.0683 24.544C26.0759 24.5364 26.085 24.5303 26.094 24.5243C26.276 24.3876 26.514 24.3876 26.6944 24.503Z" fill="#EDBEA7"/>
<path d="M23.2344 23.1613C23.1918 22.9049 23.3784 22.6665 23.6377 22.6467L25.8739 22.4844L28.0693 23.1189L27.6979 25.0073L25.2781 23.5804L23.6558 23.5288C23.4451 23.5242 23.2692 23.3693 23.2344 23.1613Z" fill="#EDBEA7"/>
<path d="M25.5477 26.8646C25.6554 27.0134 25.8388 27.0999 26.0359 27.0742L27.1457 26.9238C27.4308 26.8844 27.6355 26.6248 27.6067 26.3379C27.5975 26.2559 27.5687 26.18 27.5293 26.1132C27.5217 26.0995 27.5142 26.0889 27.5066 26.0782C27.5004 26.0692 27.4929 26.0584 27.4837 26.0509C27.3671 25.9082 27.1791 25.8308 26.985 25.8658L25.8828 26.0509C25.7266 26.0798 25.5947 26.1754 25.5219 26.306C25.5113 26.3242 25.5022 26.3455 25.493 26.3652C25.4598 26.4381 25.4461 26.52 25.4536 26.6051C25.4612 26.7053 25.4962 26.7917 25.5477 26.8646Z" fill="#EDBEA7"/>
<path d="M27.3475 25.4378C27.3535 25.4467 27.3611 25.4575 27.3672 25.468C27.3748 25.4802 27.3807 25.4923 27.3883 25.5045L27.3869 25.5061C27.4354 25.5955 27.4581 25.7003 27.446 25.8127C27.4157 26.0981 27.1625 26.3091 26.8744 26.2864L25.7585 26.2027C25.704 26.1983 25.6524 26.1862 25.6039 26.1665C25.5144 26.13 25.4356 26.0692 25.3811 25.9918C25.3053 25.8886 25.2689 25.7595 25.2854 25.6244C25.2961 25.5469 25.3204 25.4786 25.3582 25.4149C25.3886 25.3678 25.425 25.3254 25.469 25.2904C25.5629 25.2115 25.6873 25.1644 25.8192 25.1704L26.8714 25.2176L26.9397 25.2206C27.1094 25.2266 27.255 25.3103 27.3475 25.4378Z" fill="#EDBEA7"/>
<path d="M26.7541 23.7212C26.8329 23.7712 26.8981 23.8395 26.9421 23.9276C27.074 24.1856 26.9769 24.5015 26.7252 24.6411L26.4083 24.8157L25.7442 25.18C25.6443 25.2346 25.5335 25.2543 25.4304 25.2392C25.3546 25.2316 25.2834 25.2043 25.2197 25.1633C25.1408 25.1133 25.0771 25.0434 25.0331 24.9553C24.915 24.7139 25.0013 24.421 25.2319 24.2844L25.5442 24.0991L25.8747 23.9017L26.1946 23.712C26.3751 23.6043 26.5903 23.6164 26.7541 23.7212Z" fill="#EDBEA7"/>
<path d="M25.2966 25.0394C25.3633 25.1685 25.483 25.2701 25.6362 25.3052L26.7263 25.5602C27.0068 25.6269 27.2903 25.457 27.3631 25.1807C27.3949 25.0578 27.3828 24.9362 27.3359 24.8285C27.3327 24.8179 27.3267 24.8058 27.3221 24.7966C27.2493 24.6554 27.119 24.5492 26.9537 24.5157L25.8561 24.294C25.7256 24.2683 25.5952 24.294 25.4892 24.3593C25.3784 24.4231 25.295 24.5309 25.2572 24.6615C25.2208 24.7936 25.2389 24.9257 25.2966 25.0394Z" fill="#EDBEA7"/>
<path d="M30.9883 24.8184L28.0697 23.1182L26.0471 23.5144L26.7552 24.5299L27.589 24.615C27.589 24.615 28.8308 27.0866 30.9883 24.8184Z" fill="#EDBEA7"/>
<path d="M26.0468 23.5146L25.5405 24.5985C25.4297 24.8338 25.5297 25.1147 25.7633 25.2286C25.971 25.3302 26.2211 25.2665 26.3562 25.0798L26.7549 24.5302L26.0468 23.5146Z" fill="#EDBEA7"/>
<path d="M31.0423 24.7559L29.5943 26.9266L30.0615 27.6553L31.8262 25.3844L31.0423 24.7559Z" fill="#7C4513"/>
<path d="M39.9118 36.9196L49.0102 36.9347L52.3154 36.9409C52.3154 36.9409 51.7135 35.4789 51.1874 33.548C50.7462 31.925 50.3596 29.9742 50.4293 28.2816C50.4703 27.269 50.6022 26.2064 50.6022 25.1163C50.6007 24.4241 51.1798 19.6361 50.6022 19.1959C49.2725 18.1802 46.1143 18.1514 46.1143 18.1514L44.2193 19.0971C43.928 19.2429 43.6021 19.3037 43.2776 19.2732L43.1927 19.2656L42.8409 19.0668C41.3991 19.076 40.2287 20.2328 40.2014 21.6764L39.9118 36.9196Z" fill="#A958FF"/>
<path fill-rule="evenodd" clip-rule="evenodd" d="M42.5205 12.2714C42.5205 11.4976 41.954 10.8584 41.2413 10.8584C40.5285 10.8584 39.962 11.4976 39.962 12.2714C39.962 13.0451 40.5285 13.6844 41.2413 13.6844C41.954 13.6844 42.5205 13.0451 42.5205 12.2714ZM41.2413 10.9913C41.8681 10.9913 42.3878 11.5578 42.3878 12.2714C42.3878 12.985 41.8681 13.5515 41.2413 13.5515C40.6144 13.5515 40.0947 12.985 40.0947 12.2714C40.0947 11.5578 40.6144 10.9913 41.2413 10.9913Z" fill="#1D252D"/>
<path fill-rule="evenodd" clip-rule="evenodd" d="M45.4805 12.4003C45.4805 11.6265 44.9139 10.9873 44.2011 10.9873C43.4883 10.9873 42.9219 11.6266 42.9219 12.4003C42.9219 13.174 43.4883 13.8133 44.2011 13.8133C44.9139 13.8133 45.4805 13.1741 45.4805 12.4003ZM44.2011 11.1202C44.8281 11.1202 45.3478 11.6867 45.3478 12.4003C45.3478 13.1139 44.8281 13.6804 44.2011 13.6804C43.5741 13.6804 43.0546 13.1139 43.0546 12.4003C43.0546 11.6867 43.5741 11.1202 44.2011 11.1202Z" fill="#1D252D"/>
<path fill-rule="evenodd" clip-rule="evenodd" d="M47.5188 11.5841C47.5053 11.5402 47.4589 11.5156 47.4151 11.5291L45.3909 12.1515C45.3471 12.165 45.3225 12.2115 45.3359 12.2554C45.3494 12.2992 45.3958 12.3239 45.4397 12.3104L47.4638 11.688C47.5076 11.6745 47.5322 11.628 47.5188 11.5841Z" fill="#1D252D"/>
<path d="M51.889 33.2548L54.9759 32.7522C55.5672 28.0599 54.3982 23.9337 51.2886 19.8059C50.5624 18.842 49.2176 18.6005 48.2017 19.2517C47.3253 19.8135 46.9342 20.8928 47.245 21.8857L51.889 33.2548Z" fill="#A958FF"/>
<path d="M52.4502 38.6912L44.2523 39.8299L43.8051 36.9424H51.8255L52.4502 38.6912Z" fill="#653599"/>
<path d="M43.1699 36.9424L42.6499 39.8299L39.6797 38.6912L40.3044 36.9424H43.1699Z" fill="#653599"/>
<path d="M42.5895 12.3484C42.2013 12.7188 41.7147 13.3595 42.2105 13.9287C42.2893 14.0183 42.4365 13.9834 42.4683 13.868L42.8382 12.4972C42.8776 12.3499 42.6987 12.2422 42.5895 12.3484Z" fill="#FF8D76"/>
<path d="M47.7514 11.3607L47.2737 13.1126C47.2737 13.1126 46.637 10.4651 46.681 10.1311L46.9629 9.6301C46.9629 9.6301 44.7508 10.084 44.2005 9.96409L44.6766 9.51017C44.6766 9.51017 42.5812 9.9155 42.0293 9.9155L42.4447 9.51017C42.4447 9.51017 40.0054 10.6563 39.4913 10.6609C39.4913 10.6609 38.6742 7.99056 41.3425 7.13435C43.9973 6.2827 46.2367 6.59239 47.3646 8.0452C48.1986 9.12003 48.0408 11.2256 48.0408 11.2256L47.7514 11.3607Z" fill="#002E6D"/>
<path d="M47.4941 18.1433L46.5784 17.8852C46.3707 17.826 46.1478 17.8534 45.9582 17.9581L43.9556 19.0816L44.7651 19.9149L47.4941 18.1433Z" fill="#002E6D"/>
<path d="M43.957 19.083V19.2029L44.0449 19.1741L43.957 19.083Z" fill="#002252"/>
<path d="M35.6075 29.0451L38.8793 32.6218C40.0149 31.4467 44.2253 25.2438 45.0151 22.3441C45.3533 21.1025 44.6831 19.806 43.4718 19.3733C42.9699 19.1942 42.4407 19.1881 41.957 19.3293C41.431 19.4825 40.9579 19.809 40.6274 20.2811L35.6075 29.0451Z" fill="#A958FF"/>
<path d="M37.1703 34.0647C37.3826 33.9508 37.5175 33.7336 37.528 33.4924C37.563 32.6649 37.425 30.7067 35.6087 29.0459C35.6087 29.0459 35.2295 28.7528 35.4267 28.557C35.6239 28.3596 36.2955 28.0393 36.8701 28.8485C37.4447 29.6576 39.4157 31.3184 38.8805 32.6224C38.3453 33.928 37.7904 34.5231 36.9035 34.2089L37.1703 34.0647Z" fill="#653599"/>
<path d="M29.126 25.7714C28.8303 25.6347 28.5512 25.4664 28.2906 25.2766C28.1617 25.1793 28.0403 25.0732 27.9281 24.9592C27.8191 24.8423 27.7204 24.718 27.637 24.5843L27.6279 24.5692L27.6112 24.5616C27.2262 24.3885 26.8456 24.2062 26.459 24.0393C26.0723 23.8723 25.6887 23.6962 25.2976 23.5369L25.287 23.5323H25.2795L24.6032 23.5293C24.3774 23.5323 24.153 23.5307 23.927 23.5383C24.1514 23.5596 24.3774 23.5733 24.6016 23.5899L25.2765 23.6293L25.2582 23.6249C25.6372 23.81 26.0239 23.9785 26.4075 24.1562C26.7895 24.3337 27.1792 24.4978 27.5642 24.6678L27.5385 24.6451C27.6295 24.7877 27.7355 24.9168 27.8569 25.0305C27.9796 25.1429 28.1085 25.2463 28.245 25.3387C28.3815 25.4313 28.524 25.5118 28.6726 25.5831C28.8196 25.656 28.9698 25.7214 29.126 25.7714Z" fill="#FF7F66"/>
<path d="M29.25 23.8054C29.059 23.6809 28.8664 23.561 28.674 23.4379C28.4814 23.315 28.2859 23.1996 28.0917 23.0797L28.0887 23.0781L28.0827 23.0767C27.7203 22.9613 27.355 22.852 26.9895 22.7442C26.624 22.6364 26.2602 22.5241 25.8933 22.4239L25.8811 22.4209L25.8706 22.4223C25.3778 22.4633 24.8836 22.4968 24.3908 22.5468L23.6525 22.6181C23.522 22.6379 23.4022 22.7032 23.322 22.8034C23.2401 22.9052 23.2219 23.0402 23.2355 23.1616C23.2341 23.0387 23.2643 22.9112 23.3461 22.8231C23.4251 22.7351 23.5433 22.6835 23.6585 22.6743L24.3999 22.6379C24.8941 22.6167 25.3869 22.5771 25.8797 22.5468L25.8585 22.5438C26.2223 22.6546 26.5908 22.7532 26.9577 22.858C27.3245 22.9628 27.6914 23.0645 28.0599 23.1602L28.0507 23.1556C28.2509 23.2649 28.448 23.3787 28.6497 23.4851C28.8467 23.5928 29.0469 23.702 29.25 23.8054Z" fill="#FF7F66"/>
<path d="M25.9922 24.3209C26.3242 24.3787 26.6561 24.459 26.9579 24.5956C27.1035 24.6655 27.2551 24.7596 27.3066 24.8962C27.3188 24.9311 27.3233 24.9616 27.3218 25.001C27.3202 25.042 27.3202 25.0831 27.3156 25.1209C27.3066 25.1984 27.2883 25.2757 27.2414 25.3122C27.199 25.3502 27.12 25.3562 27.0412 25.3502C26.9609 25.3456 26.8775 25.3319 26.7941 25.3213L26.2924 25.247L25.2887 25.1104H25.2855H25.2795C25.2477 25.1088 25.1976 25.0815 25.1673 25.042C25.1339 25.0026 25.1112 24.951 25.0931 24.8962C25.0613 24.7855 25.0535 24.6625 25.0551 24.541V24.538L25.0535 24.5289C25.0521 24.5137 25.0688 24.4636 25.0931 24.4333C25.1172 24.3984 25.146 24.3665 25.1779 24.3347C25.2415 24.2739 25.3143 24.2191 25.3901 24.1675C25.5418 24.0673 25.7055 23.9825 25.8708 23.9004C25.6979 23.9626 25.5282 24.0355 25.3645 24.1251C25.2841 24.1707 25.2021 24.2191 25.1309 24.2829C25.0945 24.3133 25.0613 24.3482 25.0308 24.3877C25.002 24.4303 24.9702 24.4667 24.9733 24.5456L24.9717 24.5349C24.9642 24.661 24.9642 24.79 24.9944 24.9205C25.0111 24.9843 25.0354 25.0496 25.0794 25.1088C25.1249 25.1665 25.1854 25.2166 25.2795 25.2227H25.269L26.2725 25.3759C26.4394 25.4002 26.6077 25.4231 26.7744 25.4443C26.8578 25.4534 26.9428 25.4656 27.0307 25.4701C27.1156 25.4715 27.2233 25.4747 27.3126 25.4002C27.3976 25.3229 27.4113 25.2195 27.4218 25.1315C27.4264 25.0861 27.4264 25.042 27.4248 24.9994C27.4248 24.9554 27.4157 24.9008 27.396 24.8568C27.3096 24.6747 27.1383 24.5926 26.9837 24.5243C26.8244 24.4576 26.6577 24.415 26.4909 24.3847C26.3302 24.3528 26.1619 24.3301 25.9922 24.3209Z" fill="#FF7F66"/>
<path d="M27.3888 25.5029C27.3874 25.6896 27.3539 25.8884 27.2387 26.0175C27.1811 26.0797 27.1023 26.1131 27.0189 26.1147C26.9294 26.1177 26.8323 26.1177 26.74 26.1177L25.6089 26.1085H25.6058H25.6044C25.5361 26.1115 25.4571 26.1025 25.3875 26.0828C25.3177 26.0615 25.2494 26.0296 25.1949 25.9826C25.1404 25.9354 25.0919 25.8749 25.066 25.8019C25.0358 25.7306 25.0252 25.6531 25.0161 25.5742C25.0085 25.6531 25.0053 25.7352 25.0282 25.8155C25.0449 25.896 25.0857 25.9735 25.145 26.0356C25.2041 26.098 25.2783 26.145 25.3571 26.1739C25.4374 26.2027 25.5178 26.2209 25.6073 26.2225H25.6028C25.9804 26.2436 26.3594 26.2498 26.7384 26.2392C26.8339 26.2346 26.9264 26.233 27.0249 26.2209C27.1279 26.2117 27.2358 26.1587 27.2978 26.0721C27.3615 25.9886 27.3888 25.8884 27.3995 25.7912C27.4116 25.6942 27.4071 25.597 27.3888 25.5029Z" fill="#FF7F66"/>
<path d="M27.5287 26.1152C27.5773 26.2882 27.5894 26.481 27.5136 26.6298C27.4392 26.7832 27.2709 26.8378 27.0996 26.8818C26.9283 26.9258 26.751 26.9531 26.572 26.9744C26.3947 26.9941 26.2127 27.0109 26.0354 27.0184H26.0292H26.0278C25.9671 27.029 25.8959 27.029 25.8307 27.0184C25.7654 27.0079 25.7002 26.9896 25.6457 26.9531C25.5895 26.9182 25.541 26.8696 25.5123 26.8075C25.4789 26.7467 25.4652 26.6768 25.4517 26.6055C25.4485 26.6768 25.4501 26.7527 25.4759 26.8226C25.497 26.8939 25.5426 26.9623 25.6033 27.0109C25.6639 27.0595 25.7366 27.0928 25.8124 27.1095C25.8882 27.1262 25.9626 27.1338 26.043 27.1262H26.0354C26.2202 27.1278 26.4037 27.1202 26.5873 27.1005C26.7707 27.0806 26.9526 27.0487 27.1314 26.9957C27.2209 26.9639 27.3089 26.941 27.3952 26.8864C27.4802 26.8332 27.553 26.7543 27.5878 26.6603C27.6242 26.566 27.6272 26.4674 27.6137 26.3748C27.6 26.2852 27.5711 26.1957 27.5287 26.1152Z" fill="#FF7F66"/>
<path d="M28.8467 26.7925C28.6921 26.7272 28.5329 26.6923 28.3722 26.665C28.2114 26.6391 28.0477 26.6226 27.881 26.6331C28.0356 26.6984 28.1947 26.7333 28.3555 26.7606C28.5178 26.7865 28.68 26.8046 28.8467 26.7925Z" fill="#FF7F66"/>
<path fill-rule="evenodd" clip-rule="evenodd" d="M48.2587 23.9684C48.2159 23.9848 48.1944 24.0329 48.2108 24.0757L50.5426 30.1755C50.559 30.2183 50.6069 30.2398 50.6498 30.2234C50.6926 30.207 50.714 30.1589 50.6976 30.116L48.3659 24.0163C48.3495 23.9734 48.3015 23.952 48.2587 23.9684Z" fill="#002E6D"/>
<path fill-rule="evenodd" clip-rule="evenodd" d="M49.9311 19.4108C49.926 19.3652 49.885 19.3323 49.8394 19.3374L49.8486 19.42C49.8394 19.3374 49.8394 19.3374 49.8393 19.3374L49.8392 19.3375L49.8387 19.3375L49.8372 19.3377L49.8317 19.3384C49.8271 19.339 49.8204 19.3399 49.8117 19.3411C49.7945 19.3436 49.7696 19.3474 49.7384 19.3531C49.6759 19.3644 49.5876 19.383 49.4833 19.4119C49.2751 19.4695 49.0006 19.5693 48.7397 19.7377C48.4784 19.9063 48.2284 20.1454 48.0743 20.4819C47.9199 20.8191 47.8653 21.2469 47.9831 21.7862C47.9929 21.8311 48.0371 21.8595 48.0819 21.8497C48.1267 21.8399 48.1551 21.7956 48.1453 21.7507C48.034 21.2412 48.088 20.8509 48.2252 20.5511C48.3628 20.2506 48.5875 20.0337 48.8296 19.8774C49.072 19.721 49.3295 19.6269 49.5275 19.5721C49.6263 19.5447 49.7096 19.5273 49.7679 19.5167C49.7971 19.5114 49.82 19.5079 49.8354 19.5056C49.8431 19.5045 49.8489 19.5038 49.8527 19.5033L49.8568 19.5028L49.8577 19.5027L49.8578 19.5026L49.8579 19.5026C49.8579 19.5026 49.8579 19.5026 49.8579 19.5026C49.9034 19.4975 49.9362 19.4564 49.9311 19.4108Z" fill="#002E6D"/>
<path d="M36.0215 28.3232C36.0215 28.3232 35.1057 28.3201 35.4257 28.8454C35.7456 29.3707 37.524 30.5639 37.5149 32.8562C37.5149 32.8562 37.8029 33.8491 36.9039 34.2058C36.9039 34.2058 37.06 34.4608 37.671 34.2877C38.2804 34.1148 38.7915 33.1188 38.8809 32.6194" stroke="#002252" stroke-width="0.183299" stroke-miterlimit="10" stroke-linecap="round" stroke-linejoin="round"/>
<path d="M52.1074 37.2108C52.1074 37.2108 52.1756 36.9285 51.742 36.9056C51.3084 36.8829 40.3042 36.942 40.3042 36.942" stroke="#002252" stroke-width="0.183299" stroke-miterlimit="10" stroke-linecap="round" stroke-linejoin="round"/>
<path d="M43.2559 19.055L43.0161 19.8216L42.3401 18.9988L42.5508 18.9122C42.7191 18.7817 42.7479 18.8409 42.8812 18.8895L43.2559 19.055Z" fill="#002E6D"/>
<path fill-rule="evenodd" clip-rule="evenodd" d="M41.1395 23.0731C41.0952 23.0613 41.0497 23.0877 41.0379 23.1321L41.1181 23.1535L41.1984 23.1748C41.2102 23.1305 41.1838 23.0849 41.1395 23.0731ZM40.0852 32.1699C40.1057 29.6889 40.3841 27.4395 40.6574 25.8102C40.7941 24.9957 40.9294 24.3363 41.0306 23.8809C41.0811 23.6531 41.1232 23.4764 41.1525 23.3567C41.1672 23.2968 41.1787 23.2512 41.1865 23.2207C41.1904 23.2054 41.1934 23.1939 41.1954 23.1862L41.1976 23.1776L41.1984 23.1748C41.1984 23.1748 41.1984 23.1748 41.1181 23.1535C41.0379 23.1321 41.0379 23.132 41.0379 23.1321L41.0371 23.1352L41.0347 23.1442C41.0327 23.1521 41.0296 23.1639 41.0256 23.1794C41.0177 23.2105 41.0061 23.2567 40.9913 23.3171C40.9616 23.4379 40.9194 23.6158 40.8685 23.8448C40.7668 24.3027 40.6309 24.9649 40.4937 25.7827C40.2193 27.4181 39.9398 29.6766 39.9192 32.1689L39.9192 32.1695L39.9192 33.9973C39.9192 34.0432 39.9564 34.0804 40.0022 34.0804C40.0481 34.0804 40.0852 34.0432 40.0852 33.9973V32.1699Z" fill="#002E6D"/>
<path d="M35.4986 25.4112L35.7564 25.0848L35.7578 25.0863C35.7882 25.0515 35.8292 25.024 35.8821 25.018L40.84 24.3622C40.9856 24.3425 41.1297 24.4001 41.222 24.514L46.5483 31.0434C46.6422 31.1572 46.5831 31.3303 46.4391 31.3636L43.0233 32.1606C42.8838 32.194 42.7366 32.153 42.6336 32.0514L35.8246 25.4097H35.4986V25.4112Z" fill="#E4EAE8"/>
<path d="M46.2935 31.3613L40.9672 24.8319C40.8747 24.7181 40.7306 24.662 40.5852 24.6801L35.6273 25.3359C35.462 25.3572 35.3953 25.5606 35.5135 25.6759L42.3771 32.3693C42.4804 32.4695 42.6274 32.5105 42.7669 32.4787L46.1827 31.6816C46.3283 31.6498 46.3874 31.4767 46.2935 31.3613Z" fill="white"/>
<path d="M40.0221 28.5915C39.5689 28.1784 39.3802 27.6469 39.6007 27.4046C39.8211 27.1621 40.3672 27.3005 40.8204 27.7138C41.2735 28.127 41.4624 28.6584 41.2418 28.9007C41.0215 29.1432 40.4754 29.0046 40.0221 28.5915Z" fill="#E4EAE8"/>
<path d="M40.4089 25.3755C40.4755 25.4879 40.609 25.5759 40.7059 25.5743C40.803 25.5728 40.8273 25.4801 40.759 25.3678C40.6924 25.2556 40.5589 25.1676 40.4618 25.169C40.3663 25.172 40.3421 25.2646 40.4089 25.3755Z" fill="#E4EAE8"/>
<path d="M42.5631 31.6104L38.859 29.0402L41.0469 27.9609L42.4204 28.9295L43.8457 28.9643L44.3369 30.9074L42.5631 31.6104Z" fill="#FAC8BB"/>
<path d="M50.8172 29.2802L43.6715 30.0043L42.5633 31.6105C42.5633 31.6105 47.4484 34.0651 52.0286 33.7601C54.0087 33.628 54.7031 31.0625 53.0565 29.9527L52.7973 29.7782C52.2151 29.3849 51.5146 29.2088 50.8172 29.2802Z" fill="#FAC8BB"/>
<path d="M55.1564 29.3695C55.1564 29.3695 55.734 33.2362 53.989 33.9254C52.2424 34.6147 49.1707 34.3019 50.1122 33.2407C50.1122 33.2407 51.8466 31.7212 50.0121 29.5624C50.0121 29.5624 49.677 29.0068 50.3411 28.9082C51.0052 28.8094 55.1564 29.3695 55.1564 29.3695Z" fill="#653599"/>
<path d="M43.8457 28.9934L43.6501 27.741C43.6334 27.6332 43.5409 27.5527 43.4303 27.5527C43.074 27.5527 42.7859 27.8412 42.7859 28.198V29.1301L43.8457 28.9934Z" fill="#FAC8BB"/>
<path d="M42.438 29.594C42.6109 29.459 42.6412 29.2115 42.5079 29.0384L41.0629 27.1802C40.928 27.0073 40.6809 26.9768 40.508 27.1105C40.3351 27.2456 40.3049 27.493 40.4384 27.6661L41.8832 29.5243C42.018 29.6974 42.2667 29.7293 42.438 29.594Z" fill="#FAC8BB"/>
<path d="M41.1725 29.2014C41.3452 29.0664 41.3756 28.819 41.2421 28.6458L39.7973 26.7878C39.6623 26.6147 39.4152 26.5843 39.2423 26.7179C39.0696 26.853 39.0392 27.1004 39.1726 27.2735L40.6174 29.1331C40.7525 29.3048 41.001 29.3367 41.1725 29.2014Z" fill="#FAC8BB"/>
<path d="M40.5162 29.6234C40.6891 29.4883 40.7193 29.2408 40.5858 29.0678L39.141 27.2096C39.0061 27.0365 38.7589 27.0062 38.5862 27.1397C38.4133 27.275 38.383 27.5224 38.5163 27.6955L39.9613 29.5535C40.0962 29.7266 40.3449 29.7571 40.5162 29.6234Z" fill="#FAC8BB"/>
<path d="M39.277 29.0504C39.4195 28.9381 39.4453 28.7317 39.3347 28.5889L38.8025 27.9058C38.6903 27.7631 38.4842 27.7373 38.3415 27.848C38.1991 27.9604 38.1732 28.1669 38.284 28.3096L38.816 28.9927C38.9268 29.1369 39.133 29.1628 39.277 29.0504Z" fill="#FAC8BB"/>
<path d="M44.0977 29.9605C43.9884 29.2545 43.8233 28.5685 43.7171 27.8701V27.8792C43.7201 27.823 43.7111 27.7744 43.6928 27.7228C43.6761 27.6742 43.6443 27.6256 43.6003 27.5953C43.5563 27.5649 43.5064 27.5483 43.4578 27.5452C43.4093 27.5406 43.3607 27.5497 43.3154 27.5603C43.3623 27.5603 43.4093 27.5635 43.4533 27.574C43.4972 27.5846 43.5366 27.6059 43.5655 27.6364C43.5943 27.6667 43.6124 27.7031 43.6216 27.7441C43.6307 27.7836 43.6307 27.829 43.6261 27.8671V27.8701V27.8762C43.6443 28.2344 43.7049 28.5882 43.7837 28.9358C43.8641 29.2864 43.9658 29.6295 44.0977 29.9605Z" fill="#FF7F66"/>
<path d="M42.8323 27.9609C42.7352 28.1339 42.7336 28.3526 42.7412 28.5392C42.7443 28.7124 42.6928 28.9643 42.5669 28.8687C42.5016 28.8307 42.429 28.7578 42.3621 28.6926C42.2925 28.6273 42.2288 28.5544 42.1606 28.4861C42.0271 28.345 41.8922 28.2068 41.7527 28.0687C41.8528 28.2372 41.9634 28.3996 42.0848 28.553C42.1439 28.6303 42.2091 28.7048 42.2742 28.7777C42.344 28.8504 42.4061 28.9203 42.5078 28.9841C42.5577 29.0098 42.6351 29.0327 42.7049 28.9946C42.7716 28.9568 42.8018 28.896 42.8185 28.8444C42.8504 28.7367 42.852 28.6335 42.8428 28.5333C42.8185 28.3374 42.7851 28.1536 42.8323 27.9609Z" fill="#FF7F66"/>
<path d="M40.5071 27.1133C40.4283 27.1573 40.366 27.2408 40.3463 27.3364C40.3282 27.4336 40.3525 27.5352 40.3948 27.6219C40.4903 27.7934 40.5966 27.9239 40.701 28.0727C40.9149 28.3581 41.1377 28.639 41.3926 28.8954C41.2211 28.5767 41.0166 28.2822 40.8043 27.9922L40.642 27.7782C40.5858 27.7067 40.5283 27.6384 40.4844 27.5717C40.4404 27.5019 40.4086 27.4244 40.41 27.3424C40.41 27.2635 40.445 27.18 40.5071 27.1133Z" fill="#FF7F66"/>
<path d="M39.243 26.7197C39.1353 26.7713 39.0762 26.9018 39.0824 27.0249C39.0884 27.1492 39.1415 27.2648 39.2036 27.3664C39.3355 27.5654 39.4735 27.7444 39.6114 27.9297C39.8919 28.2955 40.1816 28.6552 40.5029 28.9907C40.265 28.5931 39.9936 28.218 39.7161 27.8506C39.5766 27.6685 39.428 27.4849 39.2885 27.3102C39.2249 27.2207 39.1658 27.1251 39.1461 27.0187C39.1218 26.914 39.1536 26.797 39.243 26.7197Z" fill="#FF7F66"/>
<path d="M38.5869 27.1416C38.4974 27.1888 38.4216 27.2677 38.3838 27.3725C38.3639 27.4255 38.367 27.4832 38.373 27.5394C38.3852 27.594 38.4078 27.6456 38.4367 27.6928C38.4655 27.7398 38.5004 27.7793 38.5383 27.8173L38.643 27.9235C38.7126 27.9934 38.7809 28.0647 38.8475 28.1374C39.1221 28.4259 39.3919 28.7189 39.6875 28.9922C39.4708 28.6522 39.216 28.3424 38.9416 28.048C38.8718 27.9751 38.8006 27.9038 38.7278 27.8338C38.652 27.7625 38.5748 27.7034 38.5201 27.6334C38.464 27.5621 38.4291 27.4771 38.4443 27.3876C38.4564 27.2966 38.5141 27.2099 38.5869 27.1416Z" fill="#FF7F66"/>
<path d="M38.404 27.8105C38.3207 27.8576 38.2464 27.935 38.219 28.0368C38.1933 28.14 38.2297 28.2478 38.2872 28.3313C38.4102 28.4892 38.5162 28.6424 38.633 28.8034C38.7482 28.9628 38.8893 29.1086 39.0454 29.2331C39.203 29.3576 39.3622 29.4608 39.5215 29.5745C39.8414 29.7962 40.1613 30.0164 40.4872 30.2289C40.8117 30.4429 41.1376 30.654 41.4727 30.8544C41.1695 30.61 40.8571 30.3777 40.5449 30.1469C40.2326 29.9146 39.9157 29.6915 39.5973 29.4683C39.4396 29.3576 39.2728 29.2496 39.1226 29.1359C38.9696 29.0219 38.8377 28.8869 38.7134 28.7412C38.592 28.5938 38.4677 28.4361 38.3404 28.2948C38.2813 28.2251 38.2419 28.137 38.254 28.0444C38.2675 27.9518 38.3282 27.8683 38.404 27.8105Z" fill="#FF7F66"/>
<path d="M52.1668 29.1304C52.1668 29.1304 50.4475 28.5899 50.0866 28.9907C49.7258 29.39 50.1897 29.7862 50.1897 29.7862C50.1897 29.7862 51.6816 31.6079 50.2155 33.1366C50.2155 33.1366 49.4545 33.7181 50.4717 34.1082C51.4891 34.4984 54.5729 34.4741 54.9717 32.7512" stroke="#002252" stroke-width="0.183299" stroke-miterlimit="10" stroke-linecap="round" stroke-linejoin="round"/>
</g>
<path d="M21.4843 28.1698C21.0658 28.1072 21.0177 27.6984 21.0802 27.4675C21.1283 27.2943 21.2437 26.8614 21.1283 26.8036C20.7964 26.6401 20.4933 27.4001 20.4933 27.4001C19.9353 28.7326 20.1374 29.3916 20.1374 29.3916L19.209 30.3344L21.5708 31.6043L23.0524 30.2863C23.2737 30.0891 23.4661 29.8582 23.6248 29.5984L24.3223 28.4536C24.457 28.2467 24.5195 27.9966 24.4955 27.7513L24.3849 26.7026C24.3608 26.4525 24.1443 26.2697 23.899 26.2745L23.3266 26.2937C23.1823 26.2986 23.0428 26.3659 22.9514 26.4765L21.4843 28.1698Z" fill="url(#paint0_linear_917_51587)"/>
<path d="M24.3128 26.6934L22.4512 29.0552" stroke="#FF7F66" stroke-width="0.154622" stroke-miterlimit="10" stroke-linecap="round"/>
<path d="M24.3986 27.5439L23.0518 29.4296" stroke="#FF7F66" stroke-width="0.154622" stroke-miterlimit="10" stroke-linecap="round"/>
<path d="M23.5907 26.3418L21.96 28.4535" stroke="#FF7F66" stroke-width="0.154622" stroke-miterlimit="10" stroke-linecap="round"/>
<path d="M7.91967 24.1091C7.91967 24.1091 8.64601 24.0129 9.28578 24.8066C9.92555 25.6003 10.5894 25.5234 10.6086 26.37L7.50598 26.5576L6.86621 25.2011" fill="#F6EEFF"/>
<path d="M5.98559 23.835C5.98559 23.835 3.81134 23.7195 3.34955 24.5132C2.88777 25.3069 1.89203 24.9077 2.1085 26.2112L8.22237 27.3128" fill="#F6EEFF"/>
<path d="M12.7526 27.5391L16.6057 32.8111L19.6746 29.6508C19.6746 29.6508 20.4202 29.9971 20.7906 30.2713C21.7815 31.0073 22.0221 31.7 22.0221 31.7C22.0221 31.7 19.2225 35.0287 18.1883 36.2216C17.5052 37.0057 16.1968 37.2751 15.4223 36.568L12.4736 33.8454" fill="#A958FF"/>
<path d="M10.3964 42.1385C10.4349 42.1433 10.5599 50.3737 10.6176 54.0969C10.6369 55.2658 10.3338 56.4202 9.74698 57.4304L1.55506 70.346L-2.04785 68.0948L4.54705 55.083L1.79557 41.7633L7.24563 37.0732L10.3964 42.1385Z" fill="#002E6D"/>
<path d="M13.5719 40.8784C13.5478 41.3546 9.14643 71.5825 9.14643 71.5825L4.80273 71.2121L6.53444 40.2627L13.5719 40.8784Z" fill="#002E6D"/>
<path d="M3.25242 30.6521C3.25242 30.7916 2.42504 37.6366 2.42504 37.6366L5.94136 44.5635C5.59502 45.2177 4.94564 45.8093 4.21928 46.3866C4.21928 46.3866 3.31976 45.6362 3.26684 44.0488C3.26684 44.0488 -0.725695 39.7724 -1.13938 38.6516C-1.54825 37.526 -0.417837 29.8584 -0.417837 29.8584L3.25242 30.6521Z" fill="#FBC6B6"/>
<path d="M8.92358 43.3936L10.3041 54.6304C10.4292 55.6598 10.2175 56.7084 9.69804 57.608L3.27148 67.6711" stroke="#011F3D" stroke-width="0.160558" stroke-miterlimit="10" stroke-linecap="round" stroke-linejoin="round"/>
<path d="M3.19141 47.0348C3.19141 47.0348 5.04818 46.4143 6.11607 44.1631" stroke="#011F3D" stroke-width="0.160558" stroke-miterlimit="10" stroke-linecap="round" stroke-linejoin="round"/>
<path d="M6.17813 26.9713L8.4101 26.7885L8.23693 23.9023L6.00977 24.0899L6.17813 26.9713Z" fill="#FAC8BB"/>
<path d="M4.53271 25.3164C4.53271 25.3164 1.7235 25.2828 -0.35936 27.6446C-0.35936 27.6446 -1.43205 34.278 -1.50421 37.6067C-1.51864 38.2561 -1.30217 38.8911 -0.883677 39.4202L2.93569 44.2353C2.93569 44.2353 4.60487 43.7831 5.15324 42.5421" fill="#A958FF"/>
<path d="M6.08081 41.7675C6.08081 41.7675 9.88575 42.4891 12.618 41.4693C12.618 41.4693 12.5458 28.8038 8.71204 24.9507C8.71204 24.9507 7.84137 24.8449 7.78846 25.8022C7.77884 25.9609 7.71631 26.1533 7.67301 26.312C7.64415 26.4131 7.48061 26.4323 7.41807 26.3409C7.2449 26.0715 6.93704 25.6867 6.53779 25.5568C5.89321 25.35 5.00811 25.2105 4.51746 25.3211C4.02681 25.427 3.47363 28.1255 3.47363 28.1255L6.08081 41.7675Z" fill="#F6EEFF"/>
<path d="M7.40406 33.0033C6.77873 29.4196 5.73009 26.5238 5.25387 25.3164C2.39655 25.3501 1.32867 26.798 1.32867 26.798L1.2998 37.4287L1.97325 43.7542C1.97325 43.7542 1.46816 44.495 1.46816 45.0386C1.46816 45.6255 1.82413 45.9189 1.82413 45.9189C2.39174 44.5143 4.03205 44.2353 5.11437 43.9082C5.94174 43.658 6.71138 44.4229 7.69749 45.0723C7.96206 45.2454 8.33245 45.0675 8.32283 44.7692C8.21219 41.5319 7.95244 36.1636 7.40406 33.0033Z" fill="#A958FF"/>
<path d="M13.7784 35.4903C13.7784 35.4903 13.3936 28.5539 12.7779 27.5245C12.1622 26.4951 9.94944 25.8841 9.94944 25.8841L9.12207 25.7783C9.31929 26.4133 9.56942 27.2262 9.8869 28.2508C10.9885 31.8249 11.811 39.3578 12.2632 43.6101C12.2824 43.7977 12.4893 43.9131 12.6817 43.8458C13.5139 43.562 14.12 43.3022 14.12 43.3022C14.12 43.3022 14.3124 42.9559 14.3124 42.4027C14.3124 41.8543 13.7784 35.4903 13.7784 35.4903Z" fill="#A958FF"/>
<path d="M0.949219 41.71L2.8108 44.1584" stroke="#0D94C9" stroke-width="0.137081" stroke-miterlimit="10" stroke-linecap="round"/>
<path d="M5.74999 42.2003L1.7334 36.9619" stroke="#0D94C9" stroke-width="0.137081" stroke-miterlimit="10" stroke-linecap="round"/>
<path d="M2.97411 29.6504L2.22852 37.6643" stroke="#D4ABFF" stroke-width="0.137081" stroke-miterlimit="10" stroke-linecap="round"/>
<path d="M3.72013 30.4297L2.83984 31.4206" stroke="#D4ABFF" stroke-width="0.137081" stroke-miterlimit="10" stroke-linecap="round"/>
<path d="M12.7002 28.5879C13.2582 30.4976 13.8162 36.472 13.8162 36.472" stroke="#D4ABFF" stroke-width="0.137081" stroke-miterlimit="10" stroke-linecap="round"/>
<path d="M2.0752 25.8694C2.0752 25.8694 3.62892 25.3018 5.1153 26.2638C6.60649 27.2259 6.94802 28.0148 6.94802 28.0148L7.42905 27.2066C7.42905 27.2066 5.99558 24.7823 4.71123 24.46" fill="#F6EEFF"/>
<path d="M8.82324 25.3408L9.20807 27.3371C9.37162 26.2211 10.1749 25.8651 10.1749 25.8651" fill="#EBF4FF"/>
<path d="M7.10049 31.4551C5.90753 31.5753 4.4933 31.6427 2.8097 31.609L2.55957 34.524C2.55957 34.524 4.95509 34.9329 7.64885 34.7261C7.57189 34.1055 7.49012 33.5235 7.39872 33.004C7.31214 32.4701 7.20631 31.9553 7.10049 31.4551Z" fill="#D4ABFF"/>
<path d="M12.9544 29.4395C12.9544 29.4395 12.406 30.2476 10.5107 30.82C10.7128 31.8109 10.9004 32.9077 11.0784 34.0525C12.0019 33.7206 12.7572 33.3983 13.4354 32.7441L12.9544 29.4395Z" fill="#D4ABFF"/>
<path d="M0.150391 27.4287C0.150391 27.4287 1.32891 27.116 1.98311 28.1406" stroke="#D4ABFF" stroke-width="0.137081" stroke-miterlimit="10" stroke-linecap="round"/>
<path d="M6.45215 28.9482C6.45215 28.9482 8.03473 34.0087 8.09727 39.9975" stroke="#D4ABFF" stroke-width="0.137081" stroke-miterlimit="10" stroke-linecap="round"/>
<path d="M9.02539 40.6136C9.02539 40.6136 10.3578 40.7386 11.3536 40.2432" stroke="#191708" stroke-width="0.123804" stroke-miterlimit="10" stroke-linecap="round" stroke-linejoin="round"/>
<path d="M5.25044 53.707L3.5957 57.0165" stroke="#011F3D" stroke-width="0.160558" stroke-miterlimit="10" stroke-linecap="round" stroke-linejoin="round"/>
<path d="M4.27734 53.707L4.55153 55.0828" stroke="#011F3D" stroke-width="0.160558" stroke-miterlimit="10" stroke-linecap="round" stroke-linejoin="round"/>
<path d="M6.5297 27.4093C6.5297 27.4093 4.30253 24.9416 2.07056 25.9373C2.07056 25.9373 2.01284 25.3601 2.48906 25.1436C2.96527 24.9271 3.02781 24.7877 3.48478 24.3066C3.94176 23.8304 5.27421 23.7871 5.27421 23.7871" stroke="#191708" stroke-width="0.123804" stroke-miterlimit="10" stroke-linecap="round" stroke-linejoin="round"/>
<path d="M8.26074 24.1719C8.26074 24.1719 8.7562 24.1815 9.19394 24.7202C9.63168 25.259 10.4687 25.538 10.5649 26.1345L10.0454 25.9276C10.0454 25.9276 9.46813 26.2547 9.21799 27.0003" stroke="#191708" stroke-width="0.123804" stroke-miterlimit="10" stroke-linecap="round" stroke-linejoin="round"/>
<path d="M5.25977 24.999C5.25977 24.999 5.28863 25.2684 5.79852 25.3261C6.3036 25.3838 7.19351 25.5185 7.51098 26.5576" stroke="#191708" stroke-width="0.123804" stroke-miterlimit="10" stroke-linecap="round" stroke-linejoin="round"/>
<path d="M8.85579 20.0544C8.85579 20.0544 9.8467 19.0202 10.1497 20.0544C10.4528 21.0886 8.55273 21.9544 8.55273 21.9544" fill="#FF8D76"/>
<path d="M8.97168 17.7261L10.0492 17.5C10.0492 17.5 10.1743 18.7411 9.47195 20.1264" fill="#002E6D"/>
<path d="M7.51429 24.1722L7.1006 24.2155C5.52764 24.3742 4.09417 23.0754 3.91619 21.3245L3.77188 19.9006C3.62276 18.4046 4.59925 17.0674 5.94613 16.9327L6.77831 16.8509C8.12519 16.7162 9.35182 17.8274 9.50094 19.3234L9.69335 21.2042C9.83766 22.7002 8.85636 24.0375 7.51429 24.1722Z" fill="#FAC8BB"/>
<path d="M7.75028 20.2753C8.087 20.5302 8.52474 20.9872 8.18321 21.4779C8.1303 21.5548 8.01004 21.5404 7.97637 21.4538L7.56749 20.4148C7.52901 20.3041 7.65889 20.2031 7.75028 20.2753Z" fill="#FF8D76"/>
<path d="M8.61613 20.5779C8.83287 20.556 8.98822 20.3368 8.96312 20.0884C8.93802 19.8399 8.74198 19.6562 8.52525 19.6781C8.30851 19.7 8.15316 19.9192 8.17826 20.1676C8.20335 20.4161 8.3994 20.5997 8.61613 20.5779Z" fill="white"/>
<path d="M8.54299 20.5591C8.7095 20.5423 8.82891 20.3744 8.80969 20.1841C8.79046 19.9937 8.63989 19.8531 8.47337 19.8699C8.30686 19.8868 8.18746 20.0547 8.20668 20.245C8.22591 20.4353 8.37647 20.5759 8.54299 20.5591Z" fill="#213469"/>
<path d="M6.52726 20.8327C6.744 20.8108 6.89935 20.5917 6.87425 20.3432C6.84915 20.0948 6.65311 19.9111 6.43638 19.933C6.21964 19.9549 6.06429 20.1741 6.08939 20.4225C6.11449 20.671 6.31053 20.8546 6.52726 20.8327Z" fill="white"/>
<path d="M6.45412 20.814C6.62064 20.7971 6.74004 20.6292 6.72082 20.4389C6.7016 20.2486 6.55102 20.108 6.38451 20.1248C6.21799 20.1416 6.09859 20.3095 6.11782 20.4998C6.13704 20.6902 6.28761 20.8308 6.45412 20.814Z" fill="#213469"/>
<path d="M5.7978 19.0147C6.00945 18.9185 6.60112 18.7117 6.731 19.0484C6.83201 19.3178 6.13933 19.3707 5.87958 19.3611C5.61501 19.3563 5.54285 19.1302 5.7978 19.0147Z" fill="#002E6D"/>
<path d="M9.12094 18.8996C8.9141 18.7938 8.33686 18.5533 8.18775 18.8804C8.0723 19.145 8.76017 19.2316 9.02474 19.2412C9.28449 19.2508 9.36627 19.0295 9.12094 18.8996Z" fill="#002E6D"/>
<path d="M5.14824 18.2694C5.14824 18.2694 7.62554 18.7264 9.45826 17.976C9.45826 17.976 10.1461 17.2304 10.3193 16.2635C10.3193 16.2635 5.68699 14.1181 4.18618 17.4901C4.18618 17.4901 3.12792 17.4901 2.99323 18.279C2.85854 19.0679 3.34438 20.2945 4.0082 21.6077L4.84519 18.5821L4.44594 18.1876L5.14824 18.2694Z" fill="#002E6D"/>
<path d="M4.08485 20.2849C4.08485 20.2849 3.18533 19.3613 2.76683 20.2608C2.30986 21.2373 4.3879 22.185 4.3879 22.185" fill="#FAC8BB"/>
<path d="M4.40284 17.6248C4.40284 17.6248 4.0084 17.0476 3.20508 17.418" stroke="#002E6D" stroke-width="0.194344" stroke-miterlimit="10" stroke-linecap="round"/>
<path d="M4.40723 22.7812C4.40723 22.7812 5.45587 24.4793 7.42809 24.1618" stroke="#FF7F66" stroke-width="0.172478" stroke-miterlimit="10" stroke-linecap="round"/>
<path d="M3.66667 20.309C3.66667 20.309 3.28666 20.0107 3.0702 20.3378C2.85373 20.6649 3.22894 20.9439 3.22894 20.9439" stroke="#FF7F66" stroke-width="0.172478" stroke-miterlimit="10" stroke-linecap="round"/>
<path d="M6.75 21.8145C6.75 21.8145 7.04824 22.3917 7.8227 22.1945" stroke="#FF7F66" stroke-width="0.172478" stroke-miterlimit="10" stroke-linecap="round"/>
</g>
<defs>
<linearGradient id="paint0_linear_917_51587" x1="23.4984" y1="29.7837" x2="20.4381" y2="27.338" gradientUnits="userSpaceOnUse">
<stop offset="0.8704" stop-color="#FAC8BB"/>
<stop offset="0.9615" stop-color="#FAC8BB"/>
</linearGradient>
<clipPath id="clip0_917_51587">
<rect width="56" height="56" rx="28" fill="white"/>
</clipPath>
</defs>
</svg>
