<svg width="56" height="56" viewBox="0 0 56 56" fill="none" xmlns="http://www.w3.org/2000/svg">
<g clip-path="url(#clip0_917_51460)">
<path d="M13.8225 60.0946C7.50908 56.7613 1.10491 51.991 -1.72994 45.4294C-4.52541 38.8218 -3.75805 30.3638 -0.912563 23.1526C1.93293 15.9414 1.62081 5.62103 7.49326 2.50426C13.3657 -0.612526 25.7172 0.490147 30.8688 3.46709C37.256 7.15802 37.8412 15.5167 43.9123 18.5088C49.9833 21.4549 60.8929 22.5226 64.2141 27.7391C67.5353 32.9556 66.7625 37.2011 62.928 42.6013C59.1395 47.9556 52.4869 50.6852 46.9813 54.3663C41.4363 58.0868 36.9925 62.7127 31.6789 64.0447C26.3653 65.3767 20.136 63.4279 13.8225 60.0946Z" fill="#F6EEFF"/>
<path opacity="0.8" d="M38.5764 11.7346C43.2554 11.2239 48.5147 11.4645 52.4859 14.0014C56.4526 16.578 59.1567 21.4808 60.2653 26.4701C61.374 31.4593 65.3554 36.9807 63.2989 40.8515C61.2425 44.7222 54.0894 48.6808 50.1764 48.9572C45.3251 49.2999 41.9189 44.9507 37.4983 45.5583C33.0945 46.191 26.7419 49.6364 23.0017 48.0137C19.2615 46.391 18.1159 43.7868 18.2161 39.4215C18.3081 35.0982 20.9336 31.1508 22.5814 27.1074C24.236 23.0278 24.955 18.8604 27.3652 16.1708C29.7755 13.4812 33.8973 12.2454 38.5764 11.7346Z" fill="#D4ABFF"/>
<path opacity="0.8" d="M32.1477 70.3317C25.4945 73.8876 17.5295 76.6729 10.1075 75.2734C2.66858 73.8122 -4.28282 68.137 -8.91334 61.3798C-13.5438 54.6226 -22.7644 48.7909 -22.0194 41.8055C-21.2744 34.8202 -13.0024 24.6582 -7.34851 21.9087C-0.338588 18.4998 7.326 22.932 13.5371 19.3865C19.708 15.8138 27.0963 6.89357 33.6283 7.07152C40.1603 7.24946 43.4202 10.4376 45.8801 16.9893C48.3269 23.4737 46.7814 30.9132 46.7475 37.9111C46.7248 44.9669 48.1463 51.5942 46.1692 57.0344C44.1922 62.4747 38.801 66.7758 32.1477 70.3317Z" fill="#D4ABFF"/>
<g style="mix-blend-mode:overlay">
<path d="M23.2275 13.2045C23.8424 13.2045 24.3412 13.7032 24.3412 14.3181C24.3412 13.7032 24.8399 13.2045 25.4548 13.2045C24.8399 13.2045 24.3412 12.7057 24.3412 12.0908C24.3412 12.7057 23.8424 13.2045 23.2275 13.2045Z" fill="#002E6D"/>
</g>
<g style="mix-blend-mode:multiply">
<path d="M3.5 32.6139C4.81762 32.6139 5.88636 33.6826 5.88636 35.0003C5.88636 33.6826 6.9551 32.6139 8.27273 32.6139C6.9551 32.6139 5.88636 31.5452 5.88636 30.2275C5.88636 31.5452 4.81762 32.6139 3.5 32.6139Z" fill="#D4ABFF"/>
</g>
<g style="mix-blend-mode:overlay">
<path d="M14 7.47745C16.0188 7.47745 17.6591 9.11773 17.6591 11.1365C17.6591 9.11773 19.2994 7.47745 21.3182 7.47745C19.2994 7.47745 17.6591 5.83717 17.6591 3.81836C17.6591 5.83717 16.0188 7.47745 14 7.47745Z" fill="#002E6D"/>
</g>
<g style="mix-blend-mode:multiply">
<path d="M30.5459 49.7954C32.0381 49.7954 33.2504 51.0077 33.2504 52.4999C33.2504 51.0077 34.4628 49.7954 35.955 49.7954C34.4628 49.7954 33.2504 48.583 33.2504 47.0908C33.2504 48.583 32.0381 49.7954 30.5459 49.7954Z" fill="#D4ABFF"/>
</g>
<g style="mix-blend-mode:overlay">
<path d="M44.2275 44.8637C44.7542 44.8637 45.1821 45.2916 45.1821 45.8183C45.1821 45.2916 45.61 44.8637 46.1366 44.8637C45.61 44.8637 45.1821 44.4358 45.1821 43.9092C45.1821 44.4358 44.7542 44.8637 44.2275 44.8637Z" fill="#002E6D"/>
</g>
<path d="M54.6897 27.4447C53.3512 25.6228 49.7925 19.8222 49.7925 19.8222C49.269 19.3049 47.998 18.4829 46.9877 19.3086C45.9593 20.1501 47.0213 22.6804 47.0213 22.6804C46.3675 21.9323 44.2911 19.1996 42.9082 20.6706C41.9115 21.7312 42.8144 22.9606 42.8144 22.9606C42.8144 22.9606 42.0029 22.26 41.1318 23.0304C40.0812 23.9611 41.2723 25.5539 41.2723 25.5539L41.9356 26.6198C41.9356 26.6198 41.2473 26.0875 40.4395 26.9467C39.7068 27.7264 40.711 29.1283 40.711 29.1283L44.6345 35.2734C44.6247 37.3407 44.6345 38.1077 44.6345 39.7829C44.6345 43.8943 46.8346 44.4314 46.8346 44.4314V51.1835L56.2534 51.207V32.7029C56.2534 32.7029 56.4453 29.8332 54.6897 27.4447Z" fill="#EBB197"/>
<path d="M3.19082 27.4447C4.52886 25.6228 8.08858 19.8222 8.08858 19.8222C8.61179 19.3049 9.88271 18.4829 10.8929 19.3086C11.9216 20.1501 10.8594 22.6804 10.8594 22.6804C11.5132 21.9323 13.5899 19.1996 14.9725 20.6705C15.9692 21.7312 15.0663 22.9606 15.0663 22.9606C15.0663 22.9606 15.8778 22.26 16.7492 23.0304C17.7997 23.961 16.6084 25.5539 16.6084 25.5539L15.9451 26.6198C15.9451 26.6198 16.6334 26.0875 17.4411 26.9467C18.1739 27.7264 17.1697 29.1282 17.1697 29.1282L13.2462 35.2734C13.256 37.3407 13.2462 38.1077 13.2462 39.7828C13.2462 43.8943 11.0465 44.4314 11.0465 44.4314V51.1835L1.62732 51.207V32.7029C1.62732 32.7029 1.43482 29.8332 3.19082 27.4447Z" fill="#EBB197"/>
<path d="M7.77441 11.5972C7.77441 9.2379 9.69046 7.31886 12.0451 7.31886L44.278 7.31851C46.6342 7.31851 48.5496 9.2379 48.5496 11.5972V30.5445C48.5496 32.9038 46.6342 34.8232 44.278 34.8232H12.0451C9.69046 34.8232 7.77441 32.9038 7.77441 30.5445V11.5972Z" fill="black"/>
<path d="M8.27246 30.2274C8.27246 31.9846 9.69701 33.4092 11.4543 33.4092H44.5452C46.3025 33.4092 47.727 31.9846 47.727 30.2274V11.7728C47.727 10.0155 46.3025 8.591 44.5452 8.591H11.4543C9.69701 8.591 8.27246 10.0155 8.27246 11.7728V30.2274Z" fill="#F6EEFF"/>
<path d="M44.278 8.78574C45.8258 8.78574 47.0857 10.0474 47.0857 11.5972V30.5445C47.0857 32.0943 45.8258 33.3565 44.278 33.3565H12.0451C10.4979 33.3565 9.23855 32.0943 9.23855 30.5445V11.5972C9.23855 10.0477 10.4979 8.7861 12.0451 8.7861L44.278 8.78574ZM12.0451 7.31886C9.69046 7.31886 7.77441 9.2379 7.77441 11.5972V30.5445C7.77441 32.9038 9.69046 34.8232 12.0451 34.8232H44.278C46.6342 34.8232 48.5496 32.9038 48.5496 30.5445V11.5972C48.5496 9.2379 46.6342 7.31851 44.278 7.31851L12.0451 7.31886Z" fill="#D4ABFF"/>
<path d="M1.62785 51.1968C1.62785 51.1968 1.61265 40.454 1.62785 39.5889C1.61265 36.8728 2.12463 35.9884 3.94482 34.2562L10.7863 27.8324C10.7863 27.8324 12.0525 26.3647 13.3477 27.6209C14.4477 28.6886 13.7698 30.1752 13.0688 30.9799L8.90513 36.1354V39.6696C8.90513 39.6696 9.11504 41.947 8.20513 42.9409C7.62313 43.5767 7.01277 43.9659 6.47829 44.1392V51.207L1.62785 51.1968Z" fill="#FAC8BB"/>
<path d="M10.3597 29.0445C10.1809 28.8732 10.175 28.5897 10.3468 28.4109L10.9251 27.8245C11.3879 27.344 12.2579 27.2473 12.7413 27.7112C13.2235 28.1743 13.2387 28.9971 12.7745 29.478L12.0937 30.0897C11.922 30.2672 11.6387 30.2729 11.4604 30.1018L10.3597 29.0445Z" fill="#F9E7DC"/>
<path d="M11.9908 51.2496C12.1601 51.2496 12.2971 51.1142 12.297 50.946L12.2817 46.1727C12.2817 46.0051 12.1439 45.8698 11.9746 45.8702L1.26031 45.9024C1.09126 45.9031 0.953382 46.0397 0.954104 46.2073L0.969385 50.9806C0.970347 51.148 1.10811 51.2822 1.27655 51.2822L11.9908 51.2496Z" fill="#A958FF"/>
<path d="M56.2528 51.1968C56.2528 51.1968 56.2686 40.454 56.2528 39.5889C56.2686 36.8728 55.756 35.9884 53.9361 34.2562L47.0947 27.8324C47.0947 27.8324 45.8286 26.3647 44.5331 27.6209C43.4333 28.6886 44.1111 30.1752 44.8121 30.9799L48.9762 36.1354V39.6696C48.9762 39.6696 48.7661 41.947 49.6763 42.9409C50.2577 43.5767 50.8681 43.9659 51.4028 44.1392V51.207L56.2528 51.1968Z" fill="#FAC8BB"/>
<path d="M47.5217 29.0445C47.7009 28.8732 47.7065 28.5897 47.5346 28.4109L46.9564 27.8245C46.4936 27.344 45.6236 27.2473 45.1407 27.7112C44.658 28.1743 44.6429 28.9971 45.1069 29.478L45.7878 30.0897C45.9595 30.2672 46.2427 30.2729 46.4212 30.1018L47.5217 29.0445Z" fill="#F9E7DC"/>
<path d="M45.9625 51.2496C45.7946 51.2496 45.658 51.1142 45.6582 50.946L45.6735 46.1727C45.6735 46.0051 45.8105 45.8698 45.9789 45.8702L56.6231 45.9024C56.7906 45.9031 56.9275 46.0397 56.927 46.2073L56.9124 50.9806C56.9118 51.148 56.7748 51.2822 56.6066 51.2822L45.9625 51.2496Z" fill="#A958FF"/>
<path d="M47.1415 12.582C47.1163 12.5783 47.092 12.5746 47.0674 12.5708V12.5079C47.0913 12.5332 47.116 12.5579 47.1415 12.582Z" fill="#A21A26"/>
<mask id="mask0_917_51460" style="mask-type:alpha" maskUnits="userSpaceOnUse" x="18" y="8" width="27" height="26">
<path d="M43.4043 33.476C43.5398 33.476 43.6496 33.3049 43.6496 33.0939V25.8707L44.752 22.3301L42.659 14.6609V9.05598C42.659 8.84492 42.5492 8.67383 42.4137 8.67383L18.699 8.67383C18.5636 8.67383 18.4537 8.84492 18.4537 9.05598V33.0939C18.4537 33.3049 18.5636 33.476 18.699 33.476H43.4043Z" fill="white"/>
</mask>
<g mask="url(#mask0_917_51460)">
<rect x="20.5742" y="12.998" width="13.1491" height="8.13169" rx="0.636364" fill="#D4ABFF"/>
<rect x="20.1865" y="12.4893" width="13.2361" height="8.27258" rx="0.636364" fill="#F6EEFF"/>
<circle cx="26.8049" cy="17.217" r="1.41816" fill="#D4ABFF"/>
<path d="M27.2581 16.9412C27.4702 17.0637 27.4702 17.3699 27.2581 17.4924L26.8166 17.7472C26.6045 17.8697 26.3394 17.7166 26.3394 17.4717L26.3394 16.9619C26.3394 16.717 26.6045 16.5639 26.8166 16.6864L27.2581 16.9412Z" fill="white"/>
<path d="M20.1865 13.1256C20.1865 12.7742 20.4714 12.4893 20.8229 12.4893H32.7863C33.1377 12.4893 33.4226 12.7742 33.4226 13.1256V13.4347H20.1865V13.1256Z" fill="#D4ABFF"/>
<circle cx="21.3682" cy="12.9619" r="0.236359" fill="#E91639"/>
<circle cx="22.3135" cy="12.9619" r="0.236359" fill="#FFCE00"/>
<circle cx="23.2598" cy="12.9619" r="0.236359" fill="#09B95A"/>
<path d="M35.8428 26.3178C35.8459 26.4643 36.314 42.5777 36.314 42.5777L38.4662 42.6043L39.3877 27.7773L40.7746 42.6276H42.8237L42.6447 26.4372L41.8491 23.1514L35.8428 26.3178Z" fill="black"/>
<path d="M42.774 19.6484C42.6645 19.5206 42.4716 19.5056 42.3441 19.616C42.2165 19.7258 42.2015 19.9188 42.3118 20.0466C42.4213 20.1743 42.6142 20.1893 42.7418 20.0789C42.8693 19.9692 42.8836 19.776 42.774 19.6484Z" fill="#6B36BF"/>
<path d="M33.378 21.838H32.6284C32.5743 21.838 32.5308 21.7944 32.5308 21.7403V21.6689C32.5308 21.6149 32.5743 21.5713 32.6284 21.5713H33.378C33.4321 21.5713 33.4756 21.6149 33.4756 21.6689V21.7403C33.4756 21.7944 33.4321 21.838 33.378 21.838Z" stroke="#A4C6D7" stroke-width="0.224635" stroke-miterlimit="10"/>
<path d="M39.5547 16.5781H37.6931L37.7408 14.9303L39.4439 14.3398L39.5547 16.5781Z" fill="#FAC8BB"/>
<path d="M36.926 12.5198C36.926 12.5198 36.2334 11.9405 36.1163 12.61C36 13.2794 37.2471 13.6866 37.2471 13.6866" fill="#FF8D76"/>
<path d="M37.963 15.9004L37.9795 16.0295L37.927 16.0041L37.963 15.9004Z" fill="#002252"/>
<path d="M36.6934 11.0684L36.3137 11.1983C36.3137 11.1983 36.0136 11.7866 36.5501 12.6048" fill="#170475"/>
<path d="M38.0545 15.0014L38.3171 14.9984C39.3121 14.9879 40.1173 14.0735 40.1053 12.9661L40.0955 12.066C40.0858 11.1193 39.3812 10.3514 38.5303 10.3604L38.0058 10.3657C37.1548 10.3747 36.4668 11.1569 36.4765 12.1035L36.4892 13.2951C36.499 14.2433 37.2036 15.0104 38.0545 15.0014Z" fill="#FAC8BB"/>
<path d="M36.8637 12.5461C36.862 12.3889 36.9712 12.2602 37.1076 12.2588C37.2439 12.2574 37.3557 12.3837 37.3574 12.5409C37.3591 12.6982 37.2498 12.8268 37.1135 12.8283C36.9772 12.8297 36.8653 12.7034 36.8637 12.5461Z" fill="white"/>
<path d="M36.9026 12.5954C36.9013 12.4742 36.9853 12.3751 37.0901 12.374C37.1949 12.3729 37.281 12.4703 37.2822 12.5914C37.2835 12.7126 37.1995 12.8117 37.0947 12.8128C36.9898 12.8139 36.9038 12.7165 36.9026 12.5954Z" fill="#002E6D"/>
<path d="M38.184 12.5598C38.1824 12.4025 38.2915 12.2739 38.4278 12.2725C38.5642 12.271 38.6761 12.3973 38.6777 12.5546C38.6794 12.7119 38.5701 12.8405 38.4338 12.8419C38.2975 12.8434 38.1857 12.717 38.184 12.5598Z" fill="white"/>
<path d="M38.2228 12.6091C38.2216 12.4879 38.3055 12.3888 38.4104 12.3877C38.5152 12.3866 38.6012 12.4839 38.6025 12.6051C38.6038 12.7262 38.5198 12.8253 38.415 12.8264C38.3101 12.8275 38.2241 12.7302 38.2228 12.6091Z" fill="#002E6D"/>
<path d="M38.7669 11.6565C38.6274 11.6121 38.2431 11.5227 38.1876 11.7436C38.1433 11.9187 38.5808 11.9029 38.7429 11.8796C38.9049 11.8556 38.9335 11.7098 38.7669 11.6565Z" fill="#002E6D"/>
<path d="M36.6822 11.8162C36.8045 11.735 37.149 11.5434 37.263 11.7403C37.3531 11.8966 36.9283 12.0018 36.7662 12.0235C36.6042 12.0453 36.5359 11.9131 36.6822 11.8162Z" fill="#002E6D"/>
<path d="M39.9272 12.3296C39.9272 12.3296 40.4239 11.688 40.7503 12.2222C41.1052 12.8015 39.8709 13.5401 39.8709 13.5401" fill="#FAC8BB"/>
<path fill-rule="evenodd" clip-rule="evenodd" d="M40.2203 12.2562C40.2202 12.2563 40.2202 12.2563 40.2498 12.2859L40.2203 12.2562C40.2039 12.2726 40.2039 12.2991 40.2202 12.3155C40.2365 12.3318 40.263 12.3318 40.2793 12.3155L40.2795 12.3153L40.2806 12.3143C40.2816 12.3133 40.2833 12.3118 40.2855 12.3098C40.2899 12.3058 40.2965 12.3002 40.3049 12.2939C40.3219 12.281 40.345 12.2659 40.371 12.2552C40.3971 12.2446 40.4239 12.2393 40.4495 12.2432C40.474 12.2469 40.5011 12.2596 40.5283 12.2917L40.5286 12.292C40.5566 12.3244 40.5669 12.3555 40.5685 12.3837C40.5701 12.4127 40.5626 12.4414 40.5504 12.468C40.5382 12.4945 40.5222 12.5173 40.5088 12.5336C40.5022 12.5417 40.4964 12.5481 40.4924 12.5523C40.4904 12.5544 40.4888 12.5559 40.4878 12.5569L40.4868 12.5579L40.4867 12.558C40.4867 12.558 40.4867 12.558 40.4867 12.558C40.4867 12.558 40.4867 12.558 40.5151 12.5887L40.5435 12.6194C40.5266 12.6351 40.5001 12.6341 40.4844 12.6172C40.4688 12.6002 40.4698 12.5737 40.4867 12.558M40.5151 12.5887C40.5435 12.6194 40.5435 12.6194 40.5435 12.6194L40.5437 12.6193L40.5439 12.6191L40.5445 12.6185L40.5464 12.6167C40.5479 12.6151 40.5501 12.613 40.5528 12.6102C40.5581 12.6046 40.5654 12.5966 40.5736 12.5866C40.5898 12.5667 40.6104 12.5378 40.6264 12.5029C40.6424 12.468 40.6546 12.4255 40.652 12.379C40.6493 12.3318 40.6316 12.2833 40.592 12.2374C40.5529 12.1912 40.5081 12.1674 40.462 12.1604C40.4169 12.1536 40.3744 12.1634 40.3395 12.1777C40.3045 12.192 40.2749 12.2116 40.2544 12.2272C40.244 12.235 40.2357 12.2421 40.2299 12.2472C40.227 12.2498 40.2247 12.252 40.2231 12.2535L40.2211 12.2554L40.2206 12.2559L40.2204 12.2561L40.2203 12.2562" fill="#FF7F66"/>
<path fill-rule="evenodd" clip-rule="evenodd" d="M39.918 13.8718C39.8942 13.8605 39.8657 13.8707 39.8544 13.8945L39.8976 13.915C39.8544 13.8945 39.8544 13.8945 39.8544 13.8945L39.8544 13.8946L39.8542 13.8951L39.8532 13.8972C39.8522 13.8991 39.8507 13.9021 39.8487 13.906C39.8447 13.9138 39.8386 13.9255 39.8303 13.9405C39.8137 13.9704 39.7885 14.0134 39.7543 14.065C39.6859 14.1682 39.5819 14.3053 39.4395 14.4403C39.1552 14.7102 38.7193 14.9713 38.1079 14.9417C38.0816 14.9404 38.0592 14.9607 38.0579 14.9871C38.0567 15.0135 38.077 15.0359 38.1033 15.0371C38.7474 15.0684 39.2075 14.7923 39.5052 14.5097C39.6539 14.3686 39.7625 14.2256 39.8339 14.1179C39.8696 14.0639 39.8961 14.0187 39.9138 13.9868C39.9226 13.9709 39.9293 13.9582 39.9337 13.9495C39.936 13.9451 39.9377 13.9417 39.9388 13.9393L39.9402 13.9366L39.9405 13.9358L39.9407 13.9356L39.9407 13.9355C39.9407 13.9355 39.9407 13.9354 39.8976 13.915L39.9407 13.9354C39.952 13.9116 39.9418 13.8831 39.918 13.8718ZM39.8544 13.8945C39.8544 13.8945 39.8544 13.8945 39.8544 13.8945L39.8544 13.8945Z" fill="#FF7F66"/>
<path fill-rule="evenodd" clip-rule="evenodd" d="M38.3834 13.6594C38.3589 13.65 38.3313 13.6622 38.3218 13.6868L38.3217 13.6872C38.3215 13.6876 38.3212 13.6884 38.3207 13.6894C38.3198 13.6916 38.3182 13.695 38.3161 13.6995C38.3118 13.7085 38.3049 13.7216 38.2951 13.7374C38.2755 13.769 38.2445 13.8106 38.1994 13.8502C38.1103 13.9282 37.9627 14.0014 37.7277 13.9685C37.7016 13.9649 37.6774 13.9831 37.6738 14.0092C37.6701 14.0354 37.6883 14.0595 37.7145 14.0632C37.9783 14.1001 38.1534 14.0175 38.2622 13.9221C38.316 13.875 38.3528 13.8256 38.3762 13.7878C38.3879 13.7689 38.3964 13.7528 38.402 13.7411C38.4048 13.7353 38.4069 13.7306 38.4084 13.7272C38.4091 13.7255 38.4097 13.7241 38.4101 13.7231L38.4106 13.7219L38.4108 13.7215L38.4108 13.7213L38.4109 13.7212C38.4109 13.7212 38.4109 13.7212 38.3663 13.7041L38.4109 13.7212C38.4203 13.6965 38.408 13.6689 38.3834 13.6594Z" fill="#FF7F66"/>
<path d="M42.6514 26.4166H35.844C36.2822 24.1145 37.1421 23.4901 37.1421 23.4901L41.2999 23.2422C42.2867 24.216 42.5718 25.3407 42.6514 26.4166Z" fill="black"/>
<path d="M31.5421 19.2194L31.9639 19.5192C32.0539 19.583 32.1777 19.562 32.2415 19.4718L32.4944 19.1156C32.5582 19.0255 32.5371 18.9015 32.4471 18.8377L32.0254 18.5379C31.9353 18.474 31.8115 18.4951 31.7477 18.5852L31.4949 18.9413C31.4318 19.0315 31.4528 19.1555 31.5421 19.2194Z" fill="#FF8300"/>
<path d="M30.6321 18.8704C31.3855 19.3467 32.0481 22.0726 33.6081 23.2357C33.6959 23.301 33.7874 23.3529 33.8813 23.3926C34.6879 23.7308 35.6514 23.1357 35.6514 22.1921L34.4958 21.1349L31.8928 18.7539L30.6321 18.8704Z" fill="#FAC8BB"/>
<path d="M33.8803 23.3915C34.6869 23.7297 35.6504 23.1346 35.6504 22.191L34.4949 21.1338C35.246 22.5448 34.8378 23.5869 33.8818 23.3908C33.8811 23.3908 33.8811 23.3908 33.8803 23.3915Z" fill="#EBB197"/>
<path d="M31.8911 18.7536L32.1777 19.4569C30.9291 20.0752 30.0377 19.4944 29.4854 19.411L30.2155 17.9287L31.8911 18.7536Z" fill="#EDBEA7"/>
<path d="M29.766 18.5972C29.7937 18.6145 29.8185 18.6379 29.8387 18.6657C29.844 18.6732 29.8493 18.6807 29.853 18.6889C29.9011 18.7708 29.8996 18.8707 29.8545 18.9504C29.838 18.9812 29.814 19.0083 29.7855 19.0308L29.6039 19.1712L29.3473 19.3696C29.3105 19.3982 29.2692 19.4147 29.2265 19.4207C29.1664 19.429 29.1057 19.4162 29.0546 19.3839C29.0269 19.3666 29.0021 19.3426 28.9826 19.3148C28.9098 19.2111 28.9241 19.0714 29.0126 18.9849L29.0134 18.9842C29.0178 18.9797 29.0231 18.9751 29.0291 18.9707L29.4561 18.6176C29.4598 18.6138 29.4644 18.6108 29.4688 18.6078C29.5589 18.5402 29.6767 18.5402 29.766 18.5972Z" fill="#EDBEA7"/>
<path d="M28.0534 17.9327C28.0323 17.8058 28.1247 17.6878 28.253 17.678L29.3597 17.5977L30.4463 17.9117L30.2625 18.8463L29.0648 18.1401L28.2619 18.1146C28.1577 18.1123 28.0706 18.0356 28.0534 17.9327Z" fill="#EDBEA7"/>
<path d="M29.1984 19.7661C29.2517 19.8397 29.3425 19.8825 29.44 19.8698L29.9893 19.7953C30.1304 19.7758 30.2317 19.6474 30.2174 19.5054C30.2129 19.4648 30.1986 19.4272 30.1791 19.3942C30.1754 19.3874 30.1716 19.3821 30.1679 19.3768C30.1648 19.3724 30.1611 19.3671 30.1566 19.3633C30.0989 19.2927 30.0058 19.2544 29.9097 19.2717L29.3642 19.3633C29.2869 19.3776 29.2216 19.4249 29.1856 19.4896C29.1804 19.4986 29.1759 19.5091 29.1713 19.5189C29.1549 19.555 29.1481 19.5955 29.1518 19.6376C29.1556 19.6872 29.1729 19.73 29.1984 19.7661Z" fill="#EDBEA7"/>
<path d="M30.0893 19.0593C30.0923 19.0638 30.096 19.0691 30.0991 19.0743C30.1028 19.0803 30.1058 19.0863 30.1095 19.0923L30.1088 19.0931C30.1328 19.1374 30.1441 19.1893 30.1381 19.2449C30.1231 19.3861 29.9977 19.4906 29.8552 19.4793L29.3029 19.4379C29.2759 19.4357 29.2504 19.4297 29.2264 19.42C29.1821 19.4019 29.1431 19.3718 29.1161 19.3335C29.0786 19.2824 29.0605 19.2185 29.0687 19.1517C29.074 19.1133 29.0861 19.0795 29.1048 19.048C29.1198 19.0247 29.1378 19.0037 29.1596 18.9864C29.2061 18.9473 29.2676 18.924 29.3329 18.927L29.8537 18.9504L29.8875 18.9519C29.9715 18.9548 30.0435 18.9962 30.0893 19.0593Z" fill="#EDBEA7"/>
<path d="M29.7958 18.2098C29.8348 18.2345 29.8671 18.2684 29.8888 18.3119C29.9541 18.4396 29.9061 18.596 29.7815 18.6651L29.6246 18.7514L29.296 18.9318C29.2465 18.9588 29.1917 18.9686 29.1407 18.9611C29.1032 18.9573 29.0679 18.9438 29.0364 18.9235C28.9973 18.8987 28.9658 18.8641 28.9441 18.8206C28.8856 18.7011 28.9283 18.5561 29.0424 18.4885L29.197 18.3968L29.3606 18.2991L29.5189 18.2053C29.6082 18.1519 29.7147 18.1579 29.7958 18.2098Z" fill="#EDBEA7"/>
<path d="M29.0739 18.8621C29.1069 18.926 29.1662 18.9762 29.242 18.9936L29.7815 19.1198C29.9203 19.1528 30.0607 19.0687 30.0967 18.932C30.1124 18.8711 30.1064 18.811 30.0832 18.7577C30.0816 18.7524 30.0787 18.7464 30.0764 18.7419C30.0404 18.672 29.9759 18.6194 29.894 18.6029L29.3508 18.4931C29.2862 18.4804 29.2217 18.4931 29.1692 18.5255C29.1144 18.557 29.0731 18.6104 29.0544 18.675C29.0364 18.7404 29.0454 18.8058 29.0739 18.8621Z" fill="#EDBEA7"/>
<path d="M31.8916 18.7536L30.4471 17.9121L29.4461 18.1082L29.7966 18.6108L30.2092 18.6529C30.2092 18.6529 30.8238 19.8761 31.8916 18.7536Z" fill="#EDBEA7"/>
<path d="M29.4455 18.1074L29.1949 18.6439C29.14 18.7603 29.1896 18.8993 29.3051 18.9557C29.4079 19.006 29.5317 18.9744 29.5986 18.8821L29.7959 18.61L29.4455 18.1074Z" fill="#EDBEA7"/>
<path d="M31.9187 18.7227L31.2021 19.797L31.4333 20.1577L32.3066 19.0337L31.9187 18.7227Z" fill="#7C4513"/>
<path d="M36.3075 24.7419L40.8105 24.7494L42.4463 24.7524C42.4463 24.7524 42.1484 24.0289 41.888 23.0732C41.6697 22.27 41.4783 21.3045 41.5128 20.4668C41.5331 19.9656 41.5984 19.4397 41.5984 18.9002C41.5976 18.5576 41.8843 16.188 41.5984 15.9701C40.9403 15.4674 39.3772 15.4531 39.3772 15.4531L38.4393 15.9212C38.2952 15.9934 38.1339 16.0234 37.9733 16.0083L37.9313 16.0046L37.7572 15.9062C37.0436 15.9107 36.4643 16.4833 36.4508 17.1977L36.3075 24.7419Z" fill="#A958FF"/>
<path fill-rule="evenodd" clip-rule="evenodd" d="M37.5986 12.5431C37.5986 12.1601 37.3182 11.8438 36.9655 11.8438C36.6128 11.8438 36.3324 12.1601 36.3324 12.5431C36.3324 12.926 36.6128 13.2424 36.9655 13.2424C37.3182 13.2424 37.5986 12.926 37.5986 12.5431ZM36.9655 11.9095C37.2758 11.9095 37.533 12.1899 37.533 12.5431C37.533 12.8962 37.2758 13.1766 36.9655 13.1766C36.6552 13.1766 36.398 12.8962 36.398 12.5431C36.398 12.1899 36.6552 11.9095 36.9655 11.9095Z" fill="#1D252D"/>
<path fill-rule="evenodd" clip-rule="evenodd" d="M39.0635 12.6065C39.0635 12.2236 38.7831 11.9072 38.4303 11.9072C38.0775 11.9072 37.7972 12.2236 37.7972 12.6065C37.7972 12.9895 38.0775 13.3059 38.4303 13.3059C38.7831 13.3059 39.0635 12.9895 39.0635 12.6065ZM38.4303 11.973C38.7406 11.973 38.9978 12.2534 38.9978 12.6065C38.9978 12.9597 38.7406 13.2401 38.4303 13.2401C38.12 13.2401 37.8629 12.9597 37.8629 12.6065C37.8629 12.2534 38.12 11.973 38.4303 11.973Z" fill="#1D252D"/>
<path fill-rule="evenodd" clip-rule="evenodd" d="M40.0724 12.2029C40.0657 12.1812 40.0428 12.169 40.0211 12.1757L39.0193 12.4837C38.9976 12.4904 38.9854 12.5134 38.9921 12.5351C38.9987 12.5568 39.0217 12.569 39.0434 12.5623L40.0452 12.2543C40.0669 12.2476 40.0791 12.2246 40.0724 12.2029Z" fill="#1D252D"/>
<path d="M42.2358 22.9284L43.7636 22.6797C44.0563 20.3574 43.4777 18.3152 41.9387 16.2723C41.5793 15.7952 40.9137 15.6757 40.4109 15.998C39.9772 16.2761 39.7836 16.8102 39.9374 17.3016L42.2358 22.9284Z" fill="#A958FF"/>
<path d="M42.5137 25.6185L38.4564 26.182L38.235 24.7529H42.2045L42.5137 25.6185Z" fill="#653599"/>
<path d="M37.9199 24.7529L37.6625 26.182L36.1926 25.6185L36.5017 24.7529H37.9199Z" fill="#653599"/>
<path d="M37.633 12.5817C37.4409 12.765 37.2 13.0821 37.4454 13.3638C37.4844 13.4082 37.5572 13.3909 37.573 13.3338L37.756 12.6553C37.7755 12.5825 37.687 12.5291 37.633 12.5817Z" fill="#FF8D76"/>
<path d="M40.1878 12.0925L39.9513 12.9596C39.9513 12.9596 39.6363 11.6493 39.658 11.484L39.7975 11.236C39.7975 11.236 38.7027 11.4607 38.4304 11.4013L38.666 11.1767C38.666 11.1767 37.629 11.3773 37.3558 11.3773L37.5614 11.1767C37.5614 11.1767 36.3541 11.7439 36.0997 11.7462C36.0997 11.7462 35.6953 10.4246 37.0159 10.0008C38.3298 9.57933 39.4381 9.7326 39.9964 10.4516C40.4091 10.9836 40.331 12.0257 40.331 12.0257L40.1878 12.0925Z" fill="#002E6D"/>
<path d="M40.0605 15.4496L39.6073 15.3219C39.5045 15.2926 39.3942 15.3061 39.3004 15.3579L38.3092 15.9139L38.7099 16.3264L40.0605 15.4496Z" fill="#002E6D"/>
<path d="M38.31 15.9141V15.9734L38.3535 15.9591L38.31 15.9141Z" fill="#002252"/>
<path d="M34.1777 20.8447L35.7969 22.6149C36.359 22.0334 38.4428 18.9634 38.8337 17.5283C39.0011 16.9138 38.6694 16.2722 38.0699 16.058C37.8215 15.9694 37.5596 15.9663 37.3202 16.0362C37.0598 16.1121 36.8257 16.2736 36.6621 16.5073L34.1777 20.8447Z" fill="#A958FF"/>
<path d="M34.9512 23.3289C35.0563 23.2725 35.1231 23.165 35.1283 23.0456C35.1456 22.6361 35.0773 21.6669 34.1784 20.845C34.1784 20.845 33.9907 20.6999 34.0883 20.603C34.1859 20.5053 34.5183 20.3468 34.8027 20.7473C35.087 21.1477 36.0625 21.9697 35.7976 22.6151C35.5328 23.2612 35.2582 23.5557 34.8192 23.4003L34.9512 23.3289Z" fill="#653599"/>
<path d="M30.9697 19.2249C30.8234 19.1573 30.6853 19.0739 30.5563 18.98C30.4925 18.9319 30.4324 18.8793 30.3769 18.8229C30.3229 18.7651 30.2741 18.7035 30.2328 18.6374L30.2283 18.6299L30.22 18.6261C30.0295 18.5405 29.8411 18.4503 29.6498 18.3676C29.4584 18.285 29.2686 18.1979 29.075 18.119L29.0697 18.1167H29.066L28.7313 18.1152C28.6196 18.1167 28.5085 18.1159 28.3966 18.1197C28.5077 18.1302 28.6196 18.137 28.7305 18.1452L29.0645 18.1647L29.0555 18.1626C29.2431 18.2542 29.4345 18.3376 29.6243 18.4255C29.8134 18.5134 30.0062 18.5946 30.1968 18.6787L30.1841 18.6674C30.2291 18.738 30.2816 18.8019 30.3416 18.8582C30.4024 18.9138 30.4662 18.965 30.5337 19.0108C30.6013 19.0566 30.6718 19.0964 30.7453 19.1317C30.8181 19.1678 30.8924 19.2001 30.9697 19.2249Z" fill="#FF7F66"/>
<path d="M31.0312 18.2516C30.9367 18.19 30.8414 18.1306 30.7462 18.0697C30.6509 18.0089 30.5541 17.9518 30.458 17.8925L30.4565 17.8917L30.4535 17.891C30.2741 17.8339 30.0934 17.7798 29.9125 17.7264C29.7316 17.6731 29.5515 17.6175 29.3699 17.5679L29.3639 17.5664L29.3587 17.5671C29.1148 17.5874 28.8702 17.604 28.6263 17.6287L28.2609 17.664C28.1963 17.6738 28.1371 17.7061 28.0974 17.7557C28.0568 17.8061 28.0478 17.8729 28.0546 17.933C28.0539 17.8721 28.0688 17.809 28.1093 17.7655C28.1484 17.7219 28.2069 17.6964 28.2639 17.6918L28.6309 17.6738C28.8755 17.6633 29.1193 17.6437 29.3632 17.6287L29.3527 17.6272C29.5328 17.6821 29.7152 17.7309 29.8967 17.7827C30.0783 17.8346 30.2599 17.885 30.4422 17.9323L30.4377 17.93C30.5368 17.9841 30.6343 18.0404 30.7342 18.0931C30.8317 18.1464 30.9307 18.2005 31.0312 18.2516Z" fill="#FF7F66"/>
<path d="M29.4184 18.507C29.5827 18.5355 29.747 18.5753 29.8964 18.6429C29.9684 18.6775 30.0435 18.7241 30.069 18.7917C30.075 18.8089 30.0772 18.824 30.0764 18.8435C30.0757 18.8639 30.0757 18.8842 30.0734 18.9029C30.069 18.9412 30.0599 18.9795 30.0367 18.9975C30.0157 19.0164 29.9766 19.0193 29.9376 19.0164C29.8978 19.0141 29.8566 19.0073 29.8153 19.0021L29.567 18.9653L29.0702 18.8977H29.0687H29.0657C29.05 18.8969 29.0251 18.8834 29.0102 18.8639C28.9936 18.8443 28.9824 18.8188 28.9734 18.7917C28.9577 18.7369 28.9539 18.676 28.9546 18.6159V18.6144L28.9539 18.6099C28.9532 18.6024 28.9614 18.5775 28.9734 18.5626C28.9854 18.5453 28.9996 18.5295 29.0154 18.5138C29.0469 18.4837 29.0829 18.4566 29.1205 18.431C29.1955 18.3815 29.2765 18.3394 29.3583 18.2988C29.2728 18.3296 29.1888 18.3657 29.1077 18.41C29.068 18.4326 29.0274 18.4566 28.9922 18.4881C28.9741 18.5032 28.9577 18.5205 28.9426 18.54C28.9284 18.5611 28.9126 18.5791 28.9142 18.6182L28.9134 18.6128C28.9096 18.6752 28.9096 18.7391 28.9246 18.8037C28.9329 18.8353 28.9449 18.8676 28.9667 18.8969C28.9892 18.9255 29.0191 18.9502 29.0657 18.9533H29.0605L29.5572 19.0291C29.6398 19.0411 29.7231 19.0525 29.8056 19.0629C29.8468 19.0674 29.8889 19.0735 29.9324 19.0757C29.9744 19.0764 30.0277 19.078 30.0719 19.0411C30.114 19.0029 30.1208 18.9517 30.126 18.9081C30.1282 18.8856 30.1282 18.8639 30.1275 18.8428C30.1275 18.821 30.1229 18.794 30.1132 18.7722C30.0704 18.682 29.9857 18.6414 29.9092 18.6076C29.8303 18.5746 29.7478 18.5535 29.6653 18.5385C29.5857 18.5227 29.5024 18.5115 29.4184 18.507Z" fill="#FF7F66"/>
<path d="M30.1095 19.0918C30.1088 19.1842 30.0923 19.2826 30.0353 19.3465C30.0067 19.3772 29.9677 19.3938 29.9265 19.3946C29.8822 19.3961 29.8341 19.3961 29.7884 19.3961L29.2286 19.3915H29.2271H29.2264C29.1926 19.393 29.1535 19.3886 29.119 19.3788C29.0845 19.3683 29.0507 19.3525 29.0237 19.3292C28.9967 19.3058 28.9727 19.2759 28.9599 19.2398C28.945 19.2045 28.9397 19.1661 28.9352 19.1271C28.9315 19.1661 28.9299 19.2068 28.9412 19.2465C28.9495 19.2863 28.9697 19.3247 28.999 19.3554C29.0283 19.3863 29.065 19.4096 29.104 19.4239C29.1438 19.4382 29.1835 19.4471 29.2278 19.4479H29.2256C29.4125 19.4584 29.6 19.4614 29.7876 19.4562C29.8349 19.4539 29.8807 19.4531 29.9294 19.4471C29.9804 19.4426 30.0338 19.4164 30.0645 19.3735C30.096 19.3322 30.1095 19.2826 30.1148 19.2345C30.1208 19.1864 30.1186 19.1383 30.1095 19.0918Z" fill="#FF7F66"/>
<path d="M30.1799 19.3955C30.2039 19.4811 30.2099 19.5765 30.1724 19.6502C30.1356 19.7261 30.0523 19.7531 29.9675 19.7749C29.8827 19.7967 29.795 19.8102 29.7064 19.8207C29.6186 19.8305 29.5285 19.8388 29.4408 19.8425H29.4377H29.437C29.407 19.8478 29.3718 19.8478 29.3395 19.8425C29.3072 19.8373 29.2749 19.8282 29.2479 19.8102C29.2201 19.7929 29.1961 19.7689 29.1819 19.7381C29.1654 19.708 29.1586 19.6734 29.1519 19.6381C29.1503 19.6734 29.1511 19.711 29.1639 19.7456C29.1744 19.7809 29.1969 19.8147 29.2269 19.8388C29.257 19.8628 29.2929 19.8793 29.3304 19.8876C29.3679 19.8959 29.4048 19.8996 29.4445 19.8959H29.4408C29.5323 19.8966 29.6231 19.8929 29.7139 19.8831C29.8047 19.8733 29.8947 19.8575 29.9832 19.8313C30.0275 19.8155 30.0711 19.8042 30.1138 19.7772C30.1558 19.7508 30.1919 19.7118 30.2091 19.6653C30.2271 19.6186 30.2286 19.5698 30.2219 19.524C30.2151 19.4796 30.2008 19.4353 30.1799 19.3955Z" fill="#FF7F66"/>
<path d="M30.832 19.7299C30.7555 19.6976 30.6767 19.6803 30.5972 19.6668C30.5176 19.654 30.4366 19.6458 30.3541 19.651C30.4306 19.6833 30.5094 19.7006 30.5889 19.7141C30.6693 19.7269 30.7495 19.7359 30.832 19.7299Z" fill="#FF7F66"/>
<path fill-rule="evenodd" clip-rule="evenodd" d="M40.4386 18.3328C40.4174 18.3409 40.4068 18.3647 40.4149 18.3859L41.569 21.4048C41.5771 21.426 41.6008 21.4366 41.622 21.4285C41.6432 21.4204 41.6538 21.3966 41.6457 21.3754L40.4917 18.3565C40.4836 18.3353 40.4598 18.3247 40.4386 18.3328Z" fill="#002E6D"/>
<path fill-rule="evenodd" clip-rule="evenodd" d="M41.2663 16.0766C41.2638 16.054 41.2435 16.0378 41.221 16.0403L41.2255 16.0812C41.221 16.0403 41.2209 16.0403 41.2209 16.0403L41.2208 16.0403L41.2206 16.0403L41.2198 16.0404L41.2172 16.0408C41.2149 16.0411 41.2115 16.0415 41.2073 16.0421C41.1987 16.0433 41.1864 16.0453 41.171 16.0481C41.14 16.0537 41.0963 16.0628 41.0447 16.0771C40.9417 16.1057 40.8058 16.155 40.6767 16.2384C40.5474 16.3219 40.4236 16.4402 40.3474 16.6067C40.271 16.7736 40.2439 16.9853 40.3022 17.2523C40.3071 17.2745 40.329 17.2885 40.3511 17.2837C40.3733 17.2788 40.3873 17.2569 40.3825 17.2347C40.3274 16.9825 40.3542 16.7893 40.4221 16.641C40.4902 16.4923 40.6014 16.3849 40.7212 16.3076C40.8412 16.2301 40.9686 16.1836 41.0666 16.1564C41.1155 16.1429 41.1567 16.1342 41.1856 16.129C41.2 16.1264 41.2113 16.1246 41.219 16.1235C41.2228 16.123 41.2256 16.1226 41.2275 16.1224L41.2296 16.1221L41.23 16.1221L41.2301 16.1221L41.2301 16.1221C41.2301 16.1221 41.2301 16.1221 41.2301 16.1221C41.2526 16.1195 41.2689 16.0992 41.2663 16.0766Z" fill="#002E6D"/>
<path d="M34.3827 20.4883C34.3827 20.4883 33.9295 20.4867 34.0878 20.7467C34.2461 21.0067 35.1263 21.5972 35.1218 22.7317C35.1218 22.7317 35.2644 23.2231 34.8194 23.3997C34.8194 23.3997 34.8967 23.5259 35.1991 23.4402C35.5007 23.3546 35.7536 22.8617 35.7979 22.6145" stroke="#002252" stroke-width="0.183299" stroke-miterlimit="10" stroke-linecap="round" stroke-linejoin="round"/>
<path d="M42.3438 24.886C42.3438 24.886 42.3775 24.7463 42.1629 24.735C41.9483 24.7237 36.5021 24.753 36.5021 24.753" stroke="#002252" stroke-width="0.183299" stroke-miterlimit="10" stroke-linecap="round" stroke-linejoin="round"/>
<path d="M37.9629 15.9009L37.8443 16.2803L37.5097 15.8731L37.6139 15.8302C37.6972 15.7656 37.7115 15.7949 37.7775 15.819L37.9629 15.9009Z" fill="#002E6D"/>
<path fill-rule="evenodd" clip-rule="evenodd" d="M36.9158 17.8891C36.8938 17.8832 36.8713 17.8963 36.8655 17.9183L36.9052 17.9288L36.9449 17.9394C36.9507 17.9175 36.9377 17.8949 36.9158 17.8891ZM36.394 22.3913C36.4041 21.1634 36.5419 20.0501 36.6772 19.2437C36.7448 18.8406 36.8118 18.5143 36.8619 18.2889C36.8869 18.1761 36.9077 18.0887 36.9222 18.0294C36.9295 17.9998 36.9351 17.9772 36.939 17.9621C36.9409 17.9546 36.9424 17.9489 36.9434 17.9451L36.9445 17.9408L36.9449 17.9394C36.9449 17.9394 36.9449 17.9394 36.9052 17.9288C36.8655 17.9183 36.8655 17.9182 36.8655 17.9183L36.8651 17.9198L36.8639 17.9243C36.8629 17.9282 36.8614 17.934 36.8594 17.9417C36.8555 17.9571 36.8497 17.9799 36.8424 18.0098C36.8277 18.0696 36.8068 18.1577 36.7816 18.271C36.7313 18.4976 36.664 18.8254 36.5961 19.2301C36.4604 20.0395 36.322 21.1573 36.3118 22.3907L36.3118 22.3911L36.3118 23.2957C36.3118 23.3184 36.3302 23.3368 36.3529 23.3368C36.3756 23.3368 36.394 23.3184 36.394 23.2957V22.3913Z" fill="#002E6D"/>
<path d="M34.123 19.0465L34.2506 18.8849L34.2513 18.8857C34.2664 18.8684 34.2867 18.8548 34.3129 18.8518L36.7666 18.5273C36.8387 18.5175 36.91 18.546 36.9557 18.6024L39.5918 21.8339C39.6383 21.8902 39.609 21.9759 39.5377 21.9924L37.8472 22.3868C37.7781 22.4034 37.7053 22.3831 37.6543 22.3328L34.2844 19.0457H34.123V19.0465Z" fill="#E4EAE8"/>
<path d="M39.4658 21.9909L36.8297 18.7594C36.7839 18.7031 36.7126 18.6753 36.6407 18.6843L34.1869 19.0088C34.1051 19.0194 34.0721 19.1201 34.1306 19.1771L37.5275 22.4898C37.5786 22.5394 37.6514 22.5597 37.7204 22.5439L39.411 22.1495C39.4831 22.1337 39.5123 22.048 39.4658 21.9909Z" fill="white"/>
<path d="M36.3625 20.6211C36.1382 20.4167 36.0448 20.1537 36.1539 20.0337C36.263 19.9137 36.5332 19.9822 36.7576 20.1868C36.9818 20.3912 37.0753 20.6543 36.9661 20.7742C36.857 20.8942 36.5868 20.8256 36.3625 20.6211Z" fill="#E4EAE8"/>
<path d="M36.5536 19.029C36.5866 19.0846 36.6526 19.1282 36.7006 19.1274C36.7486 19.1266 36.7607 19.0808 36.7269 19.0252C36.6939 18.9696 36.6278 18.9261 36.5798 18.9268C36.5325 18.9282 36.5205 18.9741 36.5536 19.029Z" fill="#E4EAE8"/>
<path d="M37.6201 22.1148L35.7869 20.8428L36.8697 20.3086L37.5495 20.7879L38.2549 20.8052L38.498 21.7669L37.6201 22.1148Z" fill="#FAC8BB"/>
<path d="M41.7054 20.9618L38.1689 21.3202L37.6204 22.1151C37.6204 22.1151 40.0381 23.33 42.305 23.179C43.2849 23.1136 43.6286 21.8439 42.8137 21.2946L42.6854 21.2083C42.3972 21.0136 42.0506 20.9265 41.7054 20.9618Z" fill="#FAC8BB"/>
<path d="M43.8531 21.0056C43.8531 21.0056 44.139 22.9193 43.2753 23.2604C42.4109 23.6015 40.8906 23.4467 41.3566 22.9215C41.3566 22.9215 42.215 22.1695 41.3071 21.101C41.3071 21.101 41.1412 20.8261 41.4699 20.7773C41.7986 20.7284 43.8531 21.0056 43.8531 21.0056Z" fill="#653599"/>
<path d="M38.2549 20.8195L38.1581 20.1996C38.1498 20.1463 38.104 20.1064 38.0493 20.1064C37.8729 20.1064 37.7304 20.2492 37.7304 20.4258V20.8871L38.2549 20.8195Z" fill="#FAC8BB"/>
<path d="M37.5582 21.117C37.6437 21.0501 37.6587 20.9277 37.5927 20.842L36.8776 19.9224C36.8108 19.8368 36.6885 19.8217 36.603 19.8878C36.5174 19.9547 36.5024 20.0771 36.5685 20.1628L37.2835 21.0825C37.3503 21.1681 37.4734 21.1839 37.5582 21.117Z" fill="#FAC8BB"/>
<path d="M36.9322 20.9226C37.0177 20.8558 37.0328 20.7333 36.9667 20.6477L36.2516 19.7281C36.1848 19.6424 36.0625 19.6273 35.9769 19.6935C35.8915 19.7603 35.8764 19.8828 35.9425 19.9685L36.6575 20.8888C36.7244 20.9738 36.8474 20.9896 36.9322 20.9226Z" fill="#FAC8BB"/>
<path d="M36.607 21.1307C36.6926 21.0639 36.7076 20.9413 36.6415 20.8557L35.9264 19.9361C35.8597 19.8504 35.7373 19.8354 35.6518 19.9015C35.5662 19.9684 35.5513 20.0909 35.6172 20.1765L36.3324 21.0961C36.3992 21.1818 36.5222 21.1968 36.607 21.1307Z" fill="#FAC8BB"/>
<path d="M35.9931 20.8479C36.0636 20.7923 36.0764 20.6901 36.0217 20.6194L35.7583 20.2814C35.7028 20.2108 35.6008 20.1979 35.5302 20.2528C35.4597 20.3084 35.4469 20.4106 35.5017 20.4812L35.765 20.8193C35.8198 20.8906 35.9219 20.9035 35.9931 20.8479Z" fill="#FAC8BB"/>
<path d="M38.3799 21.2986C38.3258 20.9492 38.2441 20.6096 38.1915 20.2639V20.2685C38.193 20.2407 38.1886 20.2166 38.1795 20.1911C38.1712 20.167 38.1555 20.143 38.1337 20.128C38.112 20.1129 38.0872 20.1047 38.0632 20.1031C38.0392 20.1009 38.0152 20.1054 37.9927 20.1106C38.016 20.1106 38.0392 20.1122 38.061 20.1174C38.0827 20.1227 38.1022 20.1332 38.1165 20.1483C38.1308 20.1633 38.1397 20.1813 38.1443 20.2016C38.1488 20.2211 38.1488 20.2436 38.1465 20.2625V20.2639V20.267C38.1555 20.4443 38.1855 20.6194 38.2245 20.7914C38.2643 20.9649 38.3146 21.1347 38.3799 21.2986Z" fill="#FF7F66"/>
<path d="M37.7531 20.3086C37.7051 20.3942 37.7043 20.5024 37.708 20.5948C37.7096 20.6805 37.6841 20.8052 37.6218 20.7579C37.5895 20.7391 37.5535 20.703 37.5205 20.6707C37.486 20.6384 37.4545 20.6023 37.4207 20.5685C37.3546 20.4987 37.2879 20.4303 37.2189 20.3619C37.2684 20.4453 37.3231 20.5257 37.3832 20.6016C37.4124 20.6399 37.4447 20.6767 37.4769 20.7128C37.5115 20.7488 37.5422 20.7834 37.5925 20.815C37.6172 20.8277 37.6555 20.839 37.6901 20.8202C37.7231 20.8015 37.7381 20.7714 37.7463 20.7458C37.7621 20.6925 37.7629 20.6414 37.7583 20.5918C37.7463 20.4949 37.7298 20.4039 37.7531 20.3086Z" fill="#FF7F66"/>
<path d="M36.6028 19.8887C36.5638 19.9105 36.5329 19.9518 36.5232 19.9991C36.5142 20.0472 36.5262 20.0975 36.5472 20.1404C36.5945 20.2253 36.6471 20.2898 36.6988 20.3635C36.8046 20.5048 36.9149 20.6438 37.041 20.7707C36.9561 20.6129 36.8549 20.4672 36.7499 20.3237L36.6695 20.2178C36.6417 20.1824 36.6133 20.1486 36.5915 20.1155C36.5698 20.081 36.554 20.0427 36.5547 20.0021C36.5547 19.963 36.572 19.9217 36.6028 19.8887Z" fill="#FF7F66"/>
<path d="M35.977 19.6934C35.9237 19.7189 35.8945 19.7835 35.8975 19.8444C35.9005 19.9059 35.9268 19.9631 35.9575 20.0134C36.0228 20.1119 36.0911 20.2005 36.1594 20.2922C36.2982 20.4732 36.4416 20.6513 36.6006 20.8173C36.4828 20.6205 36.3485 20.4349 36.2112 20.2531C36.1421 20.1629 36.0686 20.072 35.9996 19.9856C35.968 19.9413 35.9388 19.894 35.929 19.8413C35.917 19.7895 35.9328 19.7316 35.977 19.6934Z" fill="#FF7F66"/>
<path d="M35.6516 19.9033C35.6073 19.9267 35.5698 19.9657 35.551 20.0176C35.5412 20.0438 35.5428 20.0724 35.5457 20.1002C35.5517 20.1272 35.563 20.1528 35.5772 20.1761C35.5915 20.1994 35.6087 20.2189 35.6275 20.2377L35.6793 20.2903C35.7138 20.3249 35.7476 20.3602 35.7806 20.3962C35.9164 20.5389 36.05 20.684 36.1963 20.8192C36.0891 20.6509 35.9629 20.4976 35.8271 20.3519C35.7926 20.3158 35.7573 20.2805 35.7213 20.2459C35.6838 20.2106 35.6456 20.1813 35.6185 20.1467C35.5907 20.1114 35.5735 20.0694 35.581 20.0251C35.587 19.98 35.6155 19.9371 35.6516 19.9033Z" fill="#FF7F66"/>
<path d="M35.5623 20.2344C35.5211 20.2576 35.4843 20.296 35.4708 20.3464C35.458 20.3974 35.4761 20.4508 35.5045 20.4921C35.5654 20.5703 35.6179 20.6461 35.6757 20.7258C35.7327 20.8046 35.8025 20.8768 35.8798 20.9384C35.9578 21 36.0365 21.0511 36.1154 21.1074C36.2737 21.2171 36.4321 21.3261 36.5934 21.4313C36.7539 21.5372 36.9152 21.6417 37.0811 21.7408C36.931 21.6199 36.7764 21.5049 36.6219 21.3907C36.4673 21.2757 36.3105 21.1653 36.1529 21.0549C36.0748 21 35.9923 20.9466 35.918 20.8903C35.8423 20.8339 35.777 20.7671 35.7154 20.695C35.6554 20.622 35.5938 20.5439 35.5308 20.4741C35.5016 20.4395 35.4821 20.396 35.4881 20.3501C35.4948 20.3043 35.5248 20.263 35.5623 20.2344Z" fill="#FF7F66"/>
<path d="M42.3735 20.8875C42.3735 20.8875 41.5226 20.62 41.344 20.8183C41.1654 21.0159 41.395 21.212 41.395 21.212C41.395 21.212 42.1334 22.1136 41.4078 22.8702C41.4078 22.8702 41.0311 23.158 41.5346 23.3511C42.0381 23.5442 43.5644 23.5322 43.7617 22.6795" stroke="#002252" stroke-width="0.183299" stroke-miterlimit="10" stroke-linecap="round" stroke-linejoin="round"/>
</g>
</g>
<defs>
<clipPath id="clip0_917_51460">
<rect width="56" height="56" rx="28" fill="white"/>
</clipPath>
</defs>
</svg>
