<svg width="55" height="20" viewBox="0 0 55 20" fill="none" xmlns="http://www.w3.org/2000/svg">
<path d="M13.5357 2.4559V12.463C13.5357 17.9535 9.42839 19.0685 6.66198 19.0685C3.4439 19.0685 0.282287 17.9111 0.282287 15.6387C0.282287 14.5801 1.04447 13.8462 2.17362 13.8462C3.5286 13.8462 4.30487 15.0883 6.3938 15.0883C8.01695 15.0883 9.17434 14.2555 9.17434 12.6465V11.7149C8.35571 12.4489 7.25478 12.8723 5.87157 12.8723C2.70996 12.8723 0 10.3317 0 6.3797C0 2.59704 2.70996 0 5.87157 0C7.43827 0 8.63799 0.465774 9.47074 1.27029C9.8236 0.649261 10.5011 0.268173 11.3338 0.268173C12.6323 0.268173 13.5357 1.15738 13.5357 2.4559ZM9.17434 6.3797C9.17434 5.02472 8.14399 3.96614 6.76079 3.96614C5.37758 3.96614 4.34722 5.02472 4.34722 6.3797C4.34722 7.7629 5.37758 8.79325 6.76079 8.79325C8.14399 8.79325 9.17434 7.73468 9.17434 6.3797Z" fill="#0055B8"/>
<path d="M40.8325 2.27241C40.8325 3.59916 39.9433 4.36134 38.7013 4.36134C38.1085 4.36134 37.431 4.2202 36.697 4.2202C35.8361 4.2202 35.2574 4.72831 35.2574 5.54695V11.3056C35.2574 12.6041 34.3682 13.4933 33.0979 13.4933C31.7994 13.4933 30.9102 12.6041 30.9102 11.3056V2.4559C30.9102 1.15738 31.7994 0.268173 33.0696 0.268173C34.1 0.268173 34.8763 0.832748 35.1586 1.73607C35.8925 0.790405 36.9934 0 38.4049 0C39.7034 0 40.8325 0.748062 40.8325 2.27241Z" fill="#0055B8"/>
<path d="M48.4402 9.41428C49.654 9.41428 50.4726 8.44039 50.4726 6.95838V2.18773C50.4726 0.889205 51.3618 0 52.6321 0C53.9307 0 54.8199 0.889205 54.8199 2.18773V7.2689C54.8199 11.0092 52.2793 13.4933 48.4402 13.4933C44.5728 13.4933 42.0322 11.0092 42.0322 7.2689V2.18773C42.0322 0.889205 42.9214 0 44.1917 0C45.4903 0 46.3795 0.889205 46.3795 2.18773V6.94427C46.3795 8.44039 47.1981 9.41428 48.4402 9.41428Z" fill="#0055B8"/>
<path d="M24.6294 4.98247C25.1092 5.26475 25.1092 5.94224 24.6294 6.22453L22.978 7.18431L21.3266 8.14408C20.8467 8.42637 20.2539 8.07351 20.2539 7.52305V5.6035V3.68394C20.2539 3.13348 20.8467 2.79474 21.3266 3.06291L22.978 4.02269L24.6294 4.98247Z" fill="#0055B8"/>
<path d="M16.4573 1.72166C16.9094 1.72166 17.2759 1.35516 17.2759 0.903065C17.2759 0.450969 16.9094 0.0844727 16.4573 0.0844727C16.0052 0.0844727 15.6387 0.450969 15.6387 0.903065C15.6387 1.35516 16.0052 1.72166 16.4573 1.72166Z" fill="#A958FF"/>
<path d="M22.2311 13.4083C21.4407 13.4083 20.6927 13.3095 20.0011 13.0978C19.5635 12.9708 19.3236 12.5191 19.4506 12.0816C19.5776 11.644 20.0293 11.4041 20.4668 11.5311C21.0173 11.6864 21.6101 11.7711 22.2452 11.7711C25.3081 11.7711 27.2558 10.0773 27.2558 7.09919C27.2558 6.64753 27.6228 6.28056 28.0745 6.28056C28.5261 6.28056 28.8931 6.64753 28.8931 7.09919C28.879 11.0089 26.2255 13.4083 22.2311 13.4083ZM17.6722 11.5311C17.4464 11.5311 17.2205 11.4323 17.0511 11.2488C16.049 10.0914 15.5127 8.5812 15.5127 6.85925V3.2742C15.5127 2.82254 15.8797 2.45557 16.3313 2.45557C16.783 2.45557 17.15 2.82254 17.15 3.2742V6.85925C17.15 8.186 17.5452 9.32926 18.2791 10.1761C18.5755 10.5149 18.5473 11.0371 18.2085 11.3335C18.0533 11.4746 17.8557 11.5311 17.6722 11.5311Z" fill="#A958FF"/>
<path d="M17.2915 14.3821C17.1221 14.3821 16.9528 14.3256 16.7975 14.2268C16.5576 14.0433 16.4306 13.7611 16.4729 13.4647L16.854 10.6278C16.9104 10.1762 17.3338 9.86569 17.7714 9.92215C18.223 9.9786 18.5335 10.3879 18.477 10.8395L18.2936 12.2086L19.7755 11.5311C20.1848 11.3476 20.6646 11.5311 20.8622 11.9404C21.0457 12.3497 20.8623 12.8296 20.453 13.0272L17.6302 14.3115C17.5173 14.3679 17.4044 14.3821 17.2915 14.3821Z" fill="#A958FF"/>
<path d="M28.1008 1.72166C28.5529 1.72166 28.9194 1.35516 28.9194 0.903065C28.9194 0.450969 28.5529 0.0844727 28.1008 0.0844727C27.6487 0.0844727 27.2822 0.450969 27.2822 0.903065C27.2822 1.35516 27.6487 1.72166 28.1008 1.72166Z" fill="#0055B8"/>
<path d="M28.1038 5.58889C27.6521 5.58889 27.2852 5.22194 27.2852 4.7703V3.30248C27.2852 2.85084 27.6521 2.48389 28.1038 2.48389C28.5554 2.48389 28.9224 2.85084 28.9224 3.30248V4.78441C28.9082 5.23605 28.5554 5.58889 28.1038 5.58889Z" fill="#0055B8"/>
<path d="M36.2891 15.7239C36.2891 15.9215 36.4443 16.0768 36.6419 16.0768C36.8395 16.0768 36.9947 15.9215 36.9947 15.7239C36.9947 15.5263 36.8395 15.3711 36.6419 15.3711C36.4443 15.3852 36.2891 15.5405 36.2891 15.7239Z" fill="#FFD600"/>
<path d="M23.6126 18.9416C23.528 18.9416 23.4856 18.9133 23.4292 18.8287L22.6247 17.7419H22.1025V18.7863C22.1025 18.871 22.0319 18.9416 21.9472 18.9416C21.8626 18.9416 21.792 18.8851 21.792 18.7863V15.4414C21.792 15.3567 21.8484 15.2861 21.9472 15.2861C22.0319 15.2861 22.1025 15.3426 22.1025 15.4414V17.4596H22.6247L23.4009 16.4858C23.4433 16.4152 23.4997 16.387 23.5703 16.387C23.6973 16.387 23.7538 16.514 23.6832 16.6128L22.8928 17.5867L23.7114 18.7016C23.8102 18.8145 23.7255 18.9416 23.6126 18.9416Z" fill="#002E6D"/>
<path d="M26.4211 17.5302C26.4211 17.6572 26.3506 17.7419 26.2094 17.7419H24.29C24.3323 18.2782 24.7275 18.7016 25.2779 18.7016C25.8001 18.7016 25.9554 18.4335 26.0824 18.4335C26.153 18.4335 26.2094 18.4758 26.2094 18.5464C26.2094 18.7157 25.8143 18.9698 25.2779 18.9698C24.5158 18.9698 23.9795 18.377 23.9795 17.6431C23.9795 16.9092 24.4876 16.3164 25.2215 16.3164C25.9695 16.3305 26.4211 16.9515 26.4211 17.5302ZM24.29 17.5161H26.0965C26.0401 16.9515 25.6731 16.6128 25.1933 16.6128C24.7134 16.6128 24.3464 17.008 24.29 17.5161Z" fill="#002E6D"/>
<path d="M27.084 15.2861C27.1687 15.2861 27.2392 15.3567 27.2392 15.4414V18.7722C27.2392 18.8569 27.1687 18.9275 27.084 18.9275C26.9993 18.9275 26.9287 18.871 26.9287 18.7722V15.4273C26.9287 15.3426 26.9993 15.2861 27.084 15.2861Z" fill="#002E6D"/>
<path d="M30.3451 16.5423V18.7722C30.3451 18.8569 30.2887 18.9275 30.1899 18.9275C30.0911 18.9275 30.0346 18.871 30.0346 18.7722V18.4194C29.8229 18.7581 29.4842 18.9839 29.0467 18.9839C28.341 18.9839 27.8047 18.4053 27.8047 17.6573C27.8047 16.9233 28.3269 16.3306 29.0467 16.3306C29.4842 16.3306 29.8229 16.5423 30.0346 16.881V16.5282C30.0346 16.4435 30.0911 16.3729 30.1899 16.3729C30.2887 16.387 30.3451 16.4576 30.3451 16.5423ZM30.0346 17.6573C30.0346 17.0927 29.6395 16.627 29.089 16.627C28.5386 16.627 28.1293 17.0786 28.1293 17.6573C28.1293 18.2218 28.5386 18.7017 29.089 18.7017C29.6395 18.6875 30.0346 18.2218 30.0346 17.6573Z" fill="#002E6D"/>
<path d="M31.8561 18.984C31.2916 18.984 30.8682 18.6735 30.8682 18.5041C30.8682 18.4194 30.9246 18.3771 30.9952 18.3771C31.1363 18.3771 31.3057 18.7158 31.8844 18.7158C32.2654 18.7158 32.4771 18.5323 32.4771 18.2783C32.4771 17.5867 30.9528 17.9255 30.9528 17.0222C30.9528 16.6411 31.2916 16.3447 31.842 16.3447C32.3078 16.3447 32.6747 16.5564 32.6747 16.7258C32.6747 16.7964 32.6183 16.8387 32.5477 16.8387C32.4066 16.8387 32.2372 16.6129 31.8138 16.6129C31.4751 16.6129 31.2492 16.7822 31.2492 17.0081C31.2492 17.6432 32.7735 17.3327 32.7735 18.2642C32.7735 18.6876 32.4348 18.984 31.8561 18.984Z" fill="#002E6D"/>
<path d="M35.9488 17.6572C35.9488 18.4335 35.3984 18.9839 34.735 18.9839C34.4104 18.9839 34.1423 18.8569 33.9588 18.6311V19.6755C33.9588 19.859 33.8318 20.0001 33.6342 20.0001C33.4366 20.0001 33.3096 19.859 33.3096 19.6755V16.6975C33.3096 16.514 33.4366 16.3729 33.6342 16.3729C33.8035 16.3729 33.9306 16.4858 33.9588 16.6552C34.1423 16.4435 34.3963 16.3306 34.735 16.3306C35.4266 16.3306 35.9488 16.8951 35.9488 17.6572ZM35.2996 17.6572C35.2996 17.248 35.0173 16.9233 34.6363 16.9233C34.2552 16.9233 33.9729 17.248 33.9729 17.6572C33.9729 18.0524 34.2552 18.377 34.6363 18.377C35.0173 18.377 35.2996 18.0524 35.2996 17.6572Z" fill="#002E6D"/>
<path d="M36.6401 18.9276C36.4566 18.9276 36.3154 18.8006 36.3154 18.603V16.6977C36.3154 16.5142 36.4425 16.373 36.6259 16.373C36.8235 16.373 36.9505 16.5001 36.9505 16.6977V18.603C36.9505 18.8006 36.8235 18.9276 36.6401 18.9276Z" fill="#002E6D"/>
<path d="M39.76 17.389V18.6028C39.76 18.7863 39.6329 18.9274 39.4354 18.9274C39.2519 18.9274 39.1107 18.8004 39.1107 18.6028V17.4737C39.1107 17.135 38.9131 16.9233 38.6026 16.9233C38.2921 16.9233 38.0946 17.135 38.0946 17.4737V18.6028C38.0946 18.7863 37.9675 18.9274 37.7699 18.9274C37.5865 18.9274 37.4453 18.8004 37.4453 18.6028V16.6975C37.4453 16.514 37.5723 16.3729 37.7558 16.3729C37.9393 16.3729 38.0522 16.4717 38.0804 16.641C38.2357 16.4293 38.4897 16.3164 38.7861 16.3164C39.3789 16.3305 39.76 16.7257 39.76 17.389Z" fill="#002E6D"/>
<path d="M41.6656 18.3065C41.8349 18.3065 41.9337 18.4194 41.9337 18.5464C41.9337 18.7863 41.6656 18.9839 41.2563 18.9839C40.7341 18.9839 40.4095 18.6734 40.4095 18.0524V16.9657H40.1836C40.0143 16.9657 39.9014 16.8528 39.9014 16.6834C39.9014 16.514 40.0143 16.4011 40.1836 16.4011H40.4236V16.0624C40.4236 15.8648 40.5506 15.7378 40.7341 15.7378C40.9317 15.7378 41.0587 15.8648 41.0587 16.0624V16.4011H41.5244C41.6938 16.4011 41.8067 16.514 41.8067 16.6834C41.8067 16.8528 41.6938 16.9657 41.5244 16.9657H41.0587V18.123C41.0587 18.3065 41.1434 18.377 41.2845 18.377C41.4256 18.377 41.5386 18.3065 41.6656 18.3065Z" fill="#002E6D"/>
<path d="M44.5871 16.6975V18.6029C44.5871 18.7863 44.46 18.9275 44.2624 18.9275C44.079 18.9275 43.9519 18.8005 43.9378 18.6311C43.7543 18.8428 43.5003 18.9839 43.1757 18.9839C42.5124 18.9839 41.9619 18.4476 41.9619 17.6573C41.9619 16.8951 42.47 16.3306 43.1757 16.3306C43.5003 16.3306 43.7685 16.4576 43.9378 16.6552C43.9519 16.4858 44.079 16.3729 44.2624 16.3729C44.4459 16.3729 44.5871 16.514 44.5871 16.6975ZM43.9378 17.6431C43.9378 17.2338 43.6556 16.9233 43.2745 16.9233C42.8793 16.9233 42.597 17.248 42.597 17.6431C42.597 18.0524 42.8793 18.377 43.2745 18.377C43.6556 18.377 43.9378 18.0524 43.9378 17.6431Z" fill="#002E6D"/>
<path d="M46.7874 16.6692C46.7874 16.8527 46.6604 16.9797 46.4769 16.9797C46.3781 16.9797 46.2652 16.9515 46.1241 16.9515C45.8982 16.9515 45.743 17.1209 45.743 17.389V18.6028C45.743 18.7863 45.616 18.9274 45.4184 18.9274C45.2349 18.9274 45.0938 18.8004 45.0938 18.6028V16.6975C45.0938 16.514 45.2208 16.3729 45.4043 16.3729C45.5878 16.3729 45.7148 16.4858 45.7289 16.6551C45.87 16.4575 46.0817 16.3164 46.3499 16.3164C46.5616 16.3305 46.7874 16.4434 46.7874 16.6692Z" fill="#002E6D"/>
<path d="M16.853 17.1494V18.8007C16.853 18.8713 16.7965 18.9278 16.7259 18.9278C16.6554 18.9278 16.5989 18.8713 16.5989 18.8007V18.7161C16.5001 18.8572 16.3449 18.956 16.1332 18.956C15.7803 18.956 15.498 18.6596 15.498 18.2644C15.498 17.8692 15.7662 17.5728 16.1332 17.5728C16.3308 17.5728 16.5001 17.6575 16.5989 17.7987V17.1353C16.5989 17.0648 16.6413 17.0083 16.7259 17.0083C16.8106 17.0365 16.853 17.0789 16.853 17.1494ZM16.613 18.2644C16.613 18.0104 16.4437 17.7987 16.1896 17.7987C15.9356 17.7987 15.7662 17.9963 15.7662 18.2644C15.7662 18.5185 15.9497 18.7302 16.1896 18.7302C16.4296 18.7302 16.613 18.5185 16.613 18.2644Z" fill="#0055B8"/>
<path d="M18.5756 17.7281V18.8148C18.5756 18.8854 18.5192 18.9418 18.4486 18.9418C18.378 18.9418 18.3216 18.8854 18.3216 18.8148V18.7301C18.2228 18.8713 18.0675 18.9701 17.8558 18.9701C17.503 18.9701 17.2207 18.6737 17.2207 18.2785C17.2207 17.8833 17.4889 17.5869 17.8558 17.5869C18.0534 17.5869 18.2228 17.6716 18.3216 17.8127V17.7281C18.3216 17.6575 18.378 17.601 18.4486 17.601C18.5333 17.601 18.5756 17.6575 18.5756 17.7281ZM18.3357 18.2644C18.3357 18.0103 18.1663 17.7986 17.9123 17.7986C17.6582 17.7986 17.4889 17.9962 17.4889 18.2644C17.4889 18.5184 17.6723 18.7301 17.9123 18.7301C18.1522 18.7301 18.3357 18.5184 18.3357 18.2644Z" fill="#0055B8"/>
<path d="M19.8324 17.7139C19.8324 17.7845 19.79 17.8268 19.7194 17.8268C19.6771 17.8268 19.6206 17.8127 19.5501 17.8127C19.3948 17.8127 19.296 17.9397 19.296 18.1373V18.8148C19.296 18.8853 19.2396 18.9418 19.169 18.9418C19.0984 18.9418 19.042 18.8994 19.042 18.8148V17.728C19.042 17.6574 19.0984 17.601 19.169 17.601C19.2396 17.601 19.296 17.6433 19.296 17.728V17.7703C19.3666 17.6574 19.4795 17.5728 19.6348 17.5728C19.7194 17.5728 19.8324 17.6151 19.8324 17.7139Z" fill="#0055B8"/>
<path d="M20.3955 17.2339C20.3955 17.3185 20.3249 17.3891 20.2402 17.3891C20.1555 17.3891 20.085 17.3185 20.085 17.2339C20.085 17.1492 20.1555 17.0786 20.2402 17.0786C20.3249 17.0786 20.3955 17.1492 20.3955 17.2339ZM20.2402 18.9275C20.1697 18.9275 20.1132 18.8852 20.1132 18.8005V17.7137C20.1132 17.6432 20.1555 17.5867 20.2402 17.5867C20.3108 17.5867 20.3672 17.629 20.3672 17.7137V18.8005C20.3672 18.8852 20.3108 18.9275 20.2402 18.9275Z" fill="#0055B8"/>
</svg>
