<svg width="114" height="110" viewBox="0 0 114 110" fill="none" xmlns="http://www.w3.org/2000/svg">
<g filter="url(#filter0_d_1_106)">
<g filter="url(#filter1_d_1_106)">
<mask id="path-1-outside-1_1_106" maskUnits="userSpaceOnUse" x="30.8416" y="18.8777" width="65" height="60" fill="black">
<rect fill="white" x="30.8416" y="18.8777" width="65" height="60"/>
<path fill-rule="evenodd" clip-rule="evenodd" d="M42.3606 26.9481C42.3606 24.1582 44.6623 21.8784 47.4611 21.8777C48.4314 21.877 49.3311 22.1408 50.1655 22.6045C51.5443 23.3706 53.1923 23.7847 54.6099 23.0929V23.0929C55.6001 22.6097 56.7568 22.6057 57.7502 23.0822L60.5144 24.4079C60.6309 24.4638 60.7701 24.4358 60.8579 24.341V24.341C62.238 22.8498 63.8431 21.8777 65.7059 21.8777C68.504 21.8777 70.8038 24.1578 70.8038 26.9481C70.8038 27.1701 70.7892 27.3888 70.7611 27.6034C70.6477 28.4668 70.9506 29.4131 71.7357 29.7896L72.8815 30.3391C73.5928 30.6803 73.6039 31.689 72.9003 32.0457V32.0457V32.0457C73.6921 31.6534 74.6203 32.2298 74.6197 33.1134L74.6104 46.4829C74.6094 48.0066 75.8286 49.2251 77.0704 50.1081V50.1081L80.7826 52.7489C81.3893 53.1805 82.231 53.0385 82.6626 52.4318V52.4318C83.0942 51.8251 83.936 51.6831 84.5427 52.1147L90.4635 56.3267C90.5722 56.4041 90.6878 56.4714 90.8087 56.5278V56.5278C91.5839 56.8896 92.0794 57.6675 92.0794 58.523V69.7402C92.0794 73.2352 88.819 75.6932 85.5689 74.4081C84.7427 74.0815 83.8948 73.7323 83.0454 73.3669C82.1402 72.9775 81.0812 73.2609 80.5101 74.0638V74.0638L79.7286 75.1624C79.2969 75.7692 78.4552 75.9111 77.8485 75.4795L71.2571 70.7904C70.6503 70.3588 70.5084 69.5171 70.94 68.9104V68.9104C71.3716 68.3036 71.2297 67.4619 70.6229 67.0303L69.8416 66.4745C69.343 66.1198 68.724 65.9777 68.1206 66.0794L56.2258 68.0854C55.5273 68.2033 54.8124 68.1825 54.122 68.024C53.4316 67.8656 52.7792 67.5727 52.202 67.1621L35.2587 55.1089C34.8741 54.8353 34.5512 54.4841 34.3109 54.0778C34.0707 53.6715 33.9184 53.2193 33.8641 52.7504C33.8097 52.2816 33.8544 51.8065 33.9953 51.3561C34.1362 50.9056 34.3701 50.4897 34.682 50.1354C35.2713 49.5106 36.0695 49.124 36.9251 49.0488V49.0488C37.508 48.9977 38.0665 48.5712 38.066 47.986L38.0543 33.3641C38.0535 32.3531 39.1036 31.684 40.0196 32.1119V32.1119V32.1119C39.225 31.7328 39.22 30.6036 40.0112 30.2175L41.2785 29.599C42.1038 29.1963 42.4361 28.2127 42.3727 27.2965C42.3647 27.1814 42.3606 27.0652 42.3606 26.9481ZM48.3372 56.1401C48.3712 56.1643 48.4186 56.1396 48.4191 56.0978V56.0978C48.4194 56.0775 48.4079 56.0589 48.3895 56.0504L48.0771 55.9051C48.0635 55.8988 48.0479 55.9087 48.0479 55.9237V55.9237C48.0479 55.9304 48.0512 55.9366 48.0566 55.9405L48.3372 56.1401ZM67.22 27.5983C67.2091 27.6031 67.2088 27.6185 67.2196 27.6237L68.2445 28.1152C68.3023 28.143 68.3719 28.1182 68.3966 28.059V28.059C68.5435 27.7071 68.6192 27.3295 68.6191 26.9481C68.6191 25.3445 67.3296 24.0627 65.7039 24.0624C65.7036 24.0624 65.7033 24.0621 65.7033 24.0618V24.0618C65.7033 24.0614 65.703 24.0611 65.7026 24.0611C64.787 24.0613 63.993 24.3986 63.1197 25.1762C62.9504 25.3269 62.9961 25.5981 63.2004 25.6961L63.2179 25.7045C63.2953 25.7416 63.3853 25.7421 63.4631 25.7059V25.7059C63.5365 25.6718 63.6209 25.6702 63.6955 25.7015L67.2926 27.2134C67.3791 27.2497 67.3826 27.371 67.2984 27.4123L67.1667 27.4769C67.1366 27.4917 67.1372 27.5349 67.1677 27.5488L67.2202 27.5729C67.2312 27.5779 67.231 27.5935 67.22 27.5983V27.5983ZM49.6423 24.8449C49.8965 25.0362 49.8403 25.4206 49.5543 25.5602L49.3651 25.6525C49.3643 25.6529 49.3634 25.6529 49.3626 25.6526V25.6526C49.3623 25.6524 49.3618 25.6523 49.3614 25.6523V25.6523C49.361 25.6523 49.3605 25.6524 49.3601 25.6526L49.2483 25.7095L45.6076 27.4863C45.1311 27.7189 44.5452 27.4783 44.5453 26.9481V26.9481C44.5453 25.3458 45.8361 24.0615 47.4618 24.0611C47.4621 24.0611 47.4624 24.0614 47.4624 24.0618V24.0618C47.4624 24.0621 47.4627 24.0624 47.4631 24.0624C48.2352 24.0625 48.9213 24.3024 49.6423 24.8449Z"/>
</mask>
<path fill-rule="evenodd" clip-rule="evenodd" d="M42.3606 26.9481C42.3606 24.1582 44.6623 21.8784 47.4611 21.8777C48.4314 21.877 49.3311 22.1408 50.1655 22.6045C51.5443 23.3706 53.1923 23.7847 54.6099 23.0929V23.0929C55.6001 22.6097 56.7568 22.6057 57.7502 23.0822L60.5144 24.4079C60.6309 24.4638 60.7701 24.4358 60.8579 24.341V24.341C62.238 22.8498 63.8431 21.8777 65.7059 21.8777C68.504 21.8777 70.8038 24.1578 70.8038 26.9481C70.8038 27.1701 70.7892 27.3888 70.7611 27.6034C70.6477 28.4668 70.9506 29.4131 71.7357 29.7896L72.8815 30.3391C73.5928 30.6803 73.6039 31.689 72.9003 32.0457V32.0457V32.0457C73.6921 31.6534 74.6203 32.2298 74.6197 33.1134L74.6104 46.4829C74.6094 48.0066 75.8286 49.2251 77.0704 50.1081V50.1081L80.7826 52.7489C81.3893 53.1805 82.231 53.0385 82.6626 52.4318V52.4318C83.0942 51.8251 83.936 51.6831 84.5427 52.1147L90.4635 56.3267C90.5722 56.4041 90.6878 56.4714 90.8087 56.5278V56.5278C91.5839 56.8896 92.0794 57.6675 92.0794 58.523V69.7402C92.0794 73.2352 88.819 75.6932 85.5689 74.4081C84.7427 74.0815 83.8948 73.7323 83.0454 73.3669C82.1402 72.9775 81.0812 73.2609 80.5101 74.0638V74.0638L79.7286 75.1624C79.2969 75.7692 78.4552 75.9111 77.8485 75.4795L71.2571 70.7904C70.6503 70.3588 70.5084 69.5171 70.94 68.9104V68.9104C71.3716 68.3036 71.2297 67.4619 70.6229 67.0303L69.8416 66.4745C69.343 66.1198 68.724 65.9777 68.1206 66.0794L56.2258 68.0854C55.5273 68.2033 54.8124 68.1825 54.122 68.024C53.4316 67.8656 52.7792 67.5727 52.202 67.1621L35.2587 55.1089C34.8741 54.8353 34.5512 54.4841 34.3109 54.0778C34.0707 53.6715 33.9184 53.2193 33.8641 52.7504C33.8097 52.2816 33.8544 51.8065 33.9953 51.3561C34.1362 50.9056 34.3701 50.4897 34.682 50.1354C35.2713 49.5106 36.0695 49.124 36.9251 49.0488V49.0488C37.508 48.9977 38.0665 48.5712 38.066 47.986L38.0543 33.3641C38.0535 32.3531 39.1036 31.684 40.0196 32.1119V32.1119V32.1119C39.225 31.7328 39.22 30.6036 40.0112 30.2175L41.2785 29.599C42.1038 29.1963 42.4361 28.2127 42.3727 27.2965C42.3647 27.1814 42.3606 27.0652 42.3606 26.9481ZM48.3372 56.1401C48.3712 56.1643 48.4186 56.1396 48.4191 56.0978V56.0978C48.4194 56.0775 48.4079 56.0589 48.3895 56.0504L48.0771 55.9051C48.0635 55.8988 48.0479 55.9087 48.0479 55.9237V55.9237C48.0479 55.9304 48.0512 55.9366 48.0566 55.9405L48.3372 56.1401ZM67.22 27.5983C67.2091 27.6031 67.2088 27.6185 67.2196 27.6237L68.2445 28.1152C68.3023 28.143 68.3719 28.1182 68.3966 28.059V28.059C68.5435 27.7071 68.6192 27.3295 68.6191 26.9481C68.6191 25.3445 67.3296 24.0627 65.7039 24.0624C65.7036 24.0624 65.7033 24.0621 65.7033 24.0618V24.0618C65.7033 24.0614 65.703 24.0611 65.7026 24.0611C64.787 24.0613 63.993 24.3986 63.1197 25.1762C62.9504 25.3269 62.9961 25.5981 63.2004 25.6961L63.2179 25.7045C63.2953 25.7416 63.3853 25.7421 63.4631 25.7059V25.7059C63.5365 25.6718 63.6209 25.6702 63.6955 25.7015L67.2926 27.2134C67.3791 27.2497 67.3826 27.371 67.2984 27.4123L67.1667 27.4769C67.1366 27.4917 67.1372 27.5349 67.1677 27.5488L67.2202 27.5729C67.2312 27.5779 67.231 27.5935 67.22 27.5983V27.5983ZM49.6423 24.8449C49.8965 25.0362 49.8403 25.4206 49.5543 25.5602L49.3651 25.6525C49.3643 25.6529 49.3634 25.6529 49.3626 25.6526V25.6526C49.3623 25.6524 49.3618 25.6523 49.3614 25.6523V25.6523C49.361 25.6523 49.3605 25.6524 49.3601 25.6526L49.2483 25.7095L45.6076 27.4863C45.1311 27.7189 44.5452 27.4783 44.5453 26.9481V26.9481C44.5453 25.3458 45.8361 24.0615 47.4618 24.0611C47.4621 24.0611 47.4624 24.0614 47.4624 24.0618V24.0618C47.4624 24.0621 47.4627 24.0624 47.4631 24.0624C48.2352 24.0625 48.9213 24.3024 49.6423 24.8449Z" fill="white"/>
<path d="M47.4611 21.8777L47.4619 24.8777L47.4632 24.8777L47.4611 21.8777ZM84.5427 52.1147L82.8037 54.5593L82.8037 54.5593L84.5427 52.1147ZM79.7286 75.1624L82.1731 76.9015L82.1732 76.9014L79.7286 75.1624ZM77.8485 75.4795L79.5875 73.0349L79.5875 73.0349L77.8485 75.4795ZM71.2571 70.7904L72.9961 68.3459L72.9961 68.3459L71.2571 70.7904ZM56.2258 68.0854L55.7269 65.1272L55.7264 65.1273L56.2258 68.0854ZM54.122 68.024L53.451 70.948L53.451 70.948L54.122 68.024ZM52.202 67.1621L53.9411 64.7176L53.941 64.7175L52.202 67.1621ZM35.2587 55.1089L36.9977 52.6643L36.9974 52.6641L35.2587 55.1089ZM33.8641 52.7504L36.8441 52.4049L33.8641 52.7504ZM33.9953 51.3561L31.1321 50.4605L31.1321 50.4605L33.9953 51.3561ZM34.682 50.1354L32.4997 48.0769L32.4641 48.1145L32.4299 48.1534L34.682 50.1354ZM68.6191 26.9481L65.6191 26.9481L65.6191 26.9483L68.6191 26.9481ZM49.2483 25.7095L50.5641 28.4056L50.5868 28.3945L50.6093 28.383L49.2483 25.7095ZM45.6076 27.4863L44.2918 24.7903L45.6076 27.4863ZM44.5453 26.9481L47.5453 26.9483V26.9481H44.5453ZM67.2202 27.5729L65.9723 30.301L67.2202 27.5729ZM63.6955 25.7015L64.8579 22.9359L63.6955 25.7015ZM63.2179 25.7045L64.5152 22.9995L63.2179 25.7045ZM63.1197 25.1762L61.1247 22.9356L63.1197 25.1762ZM63.2004 25.6961L64.4977 22.9911L63.2004 25.6961ZM67.2196 27.6237L68.5169 24.9187L67.2196 27.6237ZM68.2445 28.1152L66.9472 30.8202L68.2445 28.1152ZM68.3966 28.059L65.6282 26.9032L65.6281 26.9033L68.3966 28.059ZM48.0566 55.9405L49.7956 53.4959L48.0566 55.9405ZM48.0771 55.9051L46.812 58.6253L48.0771 55.9051ZM48.3372 56.1401L50.0762 53.6955L48.3372 56.1401ZM83.0454 73.3669L81.8599 76.1227L83.0454 73.3669ZM80.5101 74.0638L78.0655 72.3248L78.0655 72.3249L80.5101 74.0638ZM47.4618 24.0611L47.4624 27.0611L47.4618 24.0611ZM90.4635 56.3267L88.7245 58.7713L90.4635 56.3267ZM49.5543 25.5602L48.2385 22.8641L49.5543 25.5602ZM49.6423 24.8449L47.8385 27.242L49.6423 24.8449ZM74.6104 46.4829L71.6104 46.4808L71.6104 46.4808L74.6104 46.4829ZM77.0704 50.1081L78.8095 47.6636L78.8089 47.6632L77.0704 50.1081ZM49.3651 25.6525L50.6809 28.3486L49.3651 25.6525ZM74.6197 33.1134L77.6197 33.1155L77.6197 33.1155L74.6197 33.1134ZM67.1667 27.4769L68.4884 30.1701L67.1667 27.4769ZM67.1677 27.5488L65.9198 30.277L67.1677 27.5488ZM72.8815 30.3391L71.5842 33.0441L72.8815 30.3391ZM69.8416 66.4745L68.1026 68.919L69.8416 66.4745ZM68.1206 66.0794L67.6218 63.1212L68.1206 66.0794ZM65.7026 24.0611L65.7031 27.0611L65.7026 24.0611ZM60.8579 24.341L63.0587 26.3797L63.0597 26.3787L60.8579 24.341ZM48.4191 56.0978L45.4194 56.0578L48.4191 56.0978ZM48.3895 56.0504L47.1243 58.7706L48.3895 56.0504ZM47.4631 24.0624L47.4636 21.0624L47.4631 24.0624ZM67.2926 27.2134L68.455 24.4477L67.2926 27.2134ZM67.2984 27.4123L65.9767 24.7191L67.2984 27.4123ZM70.7611 27.6034L73.7355 27.9938L70.7611 27.6034ZM49.3601 25.6526L50.7212 28.3261L49.3601 25.6526ZM82.6626 52.4318L80.2181 50.6928L80.2181 50.6928L82.6626 52.4318ZM70.94 68.9104L68.4954 67.1714L68.4954 67.1714L70.94 68.9104ZM65.7039 24.0624L65.7033 27.0624L65.7039 24.0624ZM57.7502 23.0822L56.4529 25.7872L57.7502 23.0822ZM47.4604 18.8777C43.0256 18.8788 39.3606 22.4811 39.3606 26.9481H45.3606C45.3606 25.8354 46.2989 24.878 47.4619 24.8777L47.4604 18.8777ZM51.6227 19.9821C50.3975 19.3013 49 18.8766 47.459 18.8777L47.4632 24.8777C47.8628 24.8774 48.2647 24.9803 48.7083 25.2268L51.6227 19.9821ZM61.8117 21.7029L59.0475 20.3772L56.4529 25.7872L59.2171 27.1129L61.8117 21.7029ZM65.7059 18.8777C62.7004 18.8777 60.3553 20.4673 58.6561 22.3034L63.0597 26.3787C64.1207 25.2322 64.9858 24.8777 65.7059 24.8777V18.8777ZM73.8038 26.9481C73.8038 22.4829 70.1428 18.8777 65.7059 18.8777V24.8777C66.8653 24.8777 67.8038 25.8327 67.8038 26.9481H73.8038ZM73.7355 27.9938C73.7806 27.6503 73.8038 27.3012 73.8038 26.9481H67.8038C67.8038 27.039 67.7978 27.1273 67.7866 27.213L73.7355 27.9938ZM74.1788 27.6341L73.033 27.0846L70.4384 32.4946L71.5842 33.0441L74.1788 27.6341ZM77.6104 46.4849L77.6197 33.1155L71.6197 33.1113L71.6104 46.4808L77.6104 46.4849ZM82.5216 50.3043L78.8095 47.6636L75.3314 52.5527L79.0435 55.1934L82.5216 50.3043ZM86.2817 49.6702C84.3249 48.2781 81.6101 48.736 80.2181 50.6928L85.1071 54.1708C84.5783 54.9142 83.547 55.0881 82.8037 54.5593L86.2817 49.6702ZM92.2025 53.8822L86.2817 49.6702L82.8037 54.5593L88.7245 58.7713L92.2025 53.8822ZM95.0794 69.7402V58.523H89.0794V69.7402H95.0794ZM81.8599 76.1227C82.7374 76.5002 83.6128 76.8607 84.4658 77.198L86.672 71.6183C85.8727 71.3023 85.0522 70.9644 84.2308 70.611L81.8599 76.1227ZM82.1732 76.9014L82.9546 75.8028L78.0655 72.3249L77.284 73.4235L82.1732 76.9014ZM76.1095 77.924C78.0663 79.3161 80.7811 78.8582 82.1731 76.9015L77.284 73.4234C77.8128 72.6801 78.8441 72.5061 79.5875 73.0349L76.1095 77.924ZM69.518 73.235L76.1095 77.924L79.5875 73.0349L72.9961 68.3459L69.518 73.235ZM68.4954 67.1714C67.1034 69.1282 67.5612 71.8429 69.518 73.235L72.9961 68.3459C73.7394 68.8747 73.9134 69.906 73.3845 70.6494L68.4954 67.1714ZM68.1026 68.919L68.8839 69.4748L72.3619 64.5857L71.5806 64.0299L68.1026 68.919ZM56.7246 71.0437L68.6195 69.0377L67.6218 63.1212L55.7269 65.1272L56.7246 71.0437ZM53.451 70.948C54.5255 71.1946 55.6381 71.2271 56.7251 71.0436L55.7264 65.1273C55.4165 65.1796 55.0993 65.1703 54.793 65.1L53.451 70.948ZM50.4629 69.6066C51.3611 70.2456 52.3765 70.7015 53.451 70.948L54.793 65.1C54.4867 65.0297 54.1972 64.8998 53.9411 64.7176L50.4629 69.6066ZM33.5197 57.5534L50.463 69.6066L53.941 64.7175L36.9977 52.6643L33.5197 57.5534ZM31.7286 55.6048C32.1827 56.3727 32.793 57.0366 33.52 57.5537L36.9974 52.6641C36.9551 52.634 36.9196 52.5954 36.8932 52.5508L31.7286 55.6048ZM30.884 53.096C30.9868 53.9822 31.2745 54.8369 31.7286 55.6048L36.8932 52.5508C36.8668 52.5061 36.8501 52.4564 36.8441 52.4049L30.884 53.096ZM31.1321 50.4605C30.8658 51.312 30.7813 52.2099 30.884 53.096L36.8441 52.4049C36.8381 52.3533 36.843 52.3011 36.8585 52.2516L31.1321 50.4605ZM32.4299 48.1534C31.8405 48.8231 31.3984 49.6091 31.1321 50.4605L36.8585 52.2516C36.874 52.2021 36.8997 52.1564 36.934 52.1174L32.4299 48.1534ZM36.6626 46.0604C35.0748 46.1998 33.5934 46.9174 32.4997 48.0769L36.8642 52.194C36.9492 52.1039 37.0643 52.0482 37.1876 52.0373L36.6626 46.0604ZM35.0543 33.3665L35.066 47.9884L41.066 47.9836L41.0543 33.3616L35.0543 33.3665ZM39.9627 26.903L38.6954 27.5215L41.327 32.9136L42.5943 32.2951L39.9627 26.903ZM39.3606 26.9481C39.3606 27.1345 39.3671 27.3198 39.3798 27.5038L45.3655 27.0893C45.3623 27.043 45.3606 26.9959 45.3606 26.9481H39.3606ZM46.812 58.6253L47.1243 58.7706L49.6547 53.3302L49.3423 53.185L46.812 58.6253ZM50.0762 53.6955L49.7956 53.4959L46.3176 58.385L46.5982 58.5846L50.0762 53.6955ZM69.5418 25.4102L68.5169 24.9187L65.9223 30.3287L66.9472 30.8202L69.5418 25.4102ZM65.6191 26.9483C65.6191 26.9329 65.6222 26.9176 65.6282 26.9032L71.165 29.2148C71.4649 28.4966 71.6192 27.7261 71.6191 26.9479L65.6191 26.9483ZM65.7033 27.0624C65.7125 27.0624 65.707 27.0636 65.6939 27.0582C65.6824 27.0534 65.6704 27.0457 65.6593 27.0348C65.6482 27.0238 65.6375 27.0088 65.6295 26.99C65.6207 26.9693 65.6191 26.9527 65.6191 26.9481H71.6191C71.6191 23.6622 68.9611 21.0631 65.7045 21.0624L65.7033 27.0624ZM65.1146 27.4167C65.3784 27.1819 65.5273 27.1059 65.5805 27.083C65.614 27.0687 65.6367 27.0611 65.7031 27.0611L65.7021 21.0611C63.88 21.0614 62.4045 21.7961 61.1247 22.9356L65.1146 27.4167ZM64.5152 22.9995L64.4977 22.9911L61.9031 28.4011L61.9206 28.4095L64.5152 22.9995ZM68.455 24.4477L64.8579 22.9359L62.5331 28.4672L66.1302 29.979L68.455 24.4477ZM68.4884 30.1701L68.6201 30.1055L65.9767 24.7191L65.845 24.7837L68.4884 30.1701ZM68.4681 24.8447L68.4156 24.8207L65.9198 30.277L65.9723 30.301L68.4681 24.8447ZM50.6809 28.3486L50.8701 28.2563L48.2385 22.8641L48.0494 22.9565L50.6809 28.3486ZM50.6093 28.383L50.7212 28.3261L47.9991 22.9791L47.8872 23.0361L50.6093 28.383ZM46.9233 30.1824L50.5641 28.4056L47.9325 23.0135L44.2918 24.7903L46.9233 30.1824ZM47.4612 21.0611C44.2038 21.0618 41.5453 23.6643 41.5453 26.9481H47.5453C47.5453 26.9538 47.5435 26.9706 47.5348 26.991C47.527 27.0095 47.5166 27.0239 47.5061 27.0343C47.4955 27.0447 47.484 27.0521 47.4728 27.0568C47.4598 27.0622 47.454 27.0611 47.4624 27.0611L47.4612 21.0611ZM51.4461 22.4478C50.2751 21.5666 48.9685 21.0626 47.4636 21.0624L47.4626 27.0624C47.5249 27.0624 47.547 27.0698 47.5637 27.0758C47.5882 27.0845 47.6753 27.1192 47.8385 27.242L51.4461 22.4478ZM44.2918 24.7903C44.8359 24.5247 45.5263 24.4822 46.1794 24.7908C46.9194 25.1405 47.5453 25.943 47.5453 26.9483L41.5453 26.9479C41.5452 28.4834 42.464 29.6713 43.616 30.2156C44.6811 30.719 45.9028 30.6805 46.9233 30.1824L44.2918 24.7903ZM50.5925 22.9162C50.2069 22.7429 49.7874 22.6523 49.3614 22.6523V28.6523C48.9362 28.6523 48.5176 28.5619 48.1328 28.3889L50.5925 22.9162ZM65.9723 30.301C63.626 29.2277 63.6535 25.8846 66.0171 24.85L68.4229 30.3466C70.8086 29.3024 70.8364 25.928 68.4681 24.8447L65.9723 30.301ZM64.7286 28.4259C64.0353 28.7485 63.2381 28.7635 62.5331 28.4672L64.8579 22.9359C64.0037 22.5769 63.0377 22.595 62.1976 22.9859L64.7286 28.4259ZM61.9206 28.4095C62.807 28.8346 63.8373 28.8406 64.7286 28.4259L62.1976 22.9859C62.9333 22.6436 63.7836 22.6486 64.5152 22.9995L61.9206 28.4095ZM61.1247 22.9356C59.2572 24.5983 59.8869 27.4341 61.9031 28.4011L64.4977 22.9911C66.1052 23.7621 66.6436 26.0554 65.1146 27.4167L61.1247 22.9356ZM68.5169 24.9187C70.8202 26.0233 70.7631 29.3223 68.4229 30.3466L66.0171 24.85C63.6551 25.8839 63.5974 29.2137 65.9223 30.3287L68.5169 24.9187ZM66.9472 30.8202C68.4804 31.5555 70.4476 30.9334 71.1651 29.2147L65.6281 26.9033C66.2962 25.303 68.1243 24.7304 69.5418 25.4102L66.9472 30.8202ZM45.0479 55.9237C45.0479 56.9013 45.521 57.8184 46.3176 58.385L49.7956 53.4959C50.5813 54.0549 51.0479 54.9595 51.0479 55.9237H45.0479ZM49.3423 53.185C47.3401 52.2537 45.0479 53.7155 45.0479 55.9237H51.0479C51.0479 58.1019 48.787 59.5439 46.812 58.6253L49.3423 53.185ZM41.0543 33.3616C41.0553 34.5471 39.8238 35.3317 38.7497 34.8299L41.2894 29.3939C38.3835 28.0363 35.0517 30.1591 35.0543 33.3665L41.0543 33.3616ZM45.4194 56.0578C45.4501 53.7558 48.0779 52.274 50.0762 53.6955L46.5982 58.5846C48.6646 60.0547 51.387 58.5233 51.4189 56.1378L45.4194 56.0578ZM84.2308 70.611C82.0597 69.6771 79.4763 70.3416 78.0655 72.3248L82.9546 75.8028C82.6861 76.1803 82.2208 76.278 81.8599 76.1227L84.2308 70.611ZM42.5943 32.2951C44.97 31.1357 45.4722 28.6293 45.3655 27.0893L39.3798 27.5038C39.3833 27.5539 39.367 27.5378 39.407 27.4457C39.4557 27.3334 39.6142 27.0731 39.9627 26.903L42.5943 32.2951ZM47.4624 27.0611C45.83 27.0615 44.4624 25.7427 44.4624 24.0618H50.4624C50.4624 22.3801 49.0943 21.0608 47.4612 21.0611L47.4624 27.0611ZM89.54 59.2464C89.259 59.1152 89.0794 58.8331 89.0794 58.523H95.0794C95.0794 56.502 93.9088 54.6639 92.0774 53.8093L89.54 59.2464ZM41.3115 29.4044C42.7833 30.1066 42.7925 32.1984 41.327 32.9136L38.6954 27.5215C35.6476 29.0089 35.6668 33.359 38.7277 34.8195L41.3115 29.4044ZM88.7245 58.7713C88.9814 58.954 89.2544 59.113 89.54 59.2464L92.0774 53.8093C92.1212 53.8297 92.1631 53.8541 92.2025 53.8822L88.7245 58.7713ZM50.8701 28.2563C52.9272 27.2523 53.7018 24.1452 51.4461 22.4478L47.8385 27.242C46.0912 25.9273 46.7534 23.589 48.2385 22.8641L50.8701 28.2563ZM71.6104 46.4808C71.6083 49.623 74.0387 51.6334 75.3319 52.553L78.8089 47.6632C78.3163 47.3129 77.9682 46.9908 77.7633 46.7211C77.5704 46.4671 77.6105 46.4043 77.6104 46.4849L71.6104 46.4808ZM48.0494 22.9565C48.8524 22.5645 49.7843 22.553 50.5925 22.9162L48.1328 28.3889C48.9426 28.7529 49.8763 28.7413 50.6809 28.3486L48.0494 22.9565ZM74.2324 34.7338C73.0293 35.33 71.6188 34.4541 71.6197 33.1113L77.6197 33.1155C77.6218 30.0054 74.3548 27.9767 71.5682 29.3577L74.2324 34.7338ZM65.845 24.7837C63.5431 25.9134 63.5879 29.2103 65.9198 30.277L68.4156 24.8207C70.6864 25.8594 70.7301 29.07 68.4884 30.1701L65.845 24.7837ZM71.5842 33.0441C70.0529 32.3097 70.029 30.1379 71.5438 29.37L74.2568 34.7215C77.1789 33.2402 77.1328 29.0508 74.1788 27.6341L71.5842 33.0441ZM71.5806 64.0299C70.4337 63.214 69.0097 62.8871 67.6218 63.1212L68.6195 69.0377C68.4383 69.0682 68.2524 69.0255 68.1026 68.919L71.5806 64.0299ZM68.7033 24.0618C68.7033 22.3867 67.3418 21.0608 65.7021 21.0611L65.7031 27.0611C64.0641 27.0614 62.7033 25.7361 62.7033 24.0618H68.7033ZM59.2171 27.1129C60.5448 27.7496 62.0961 27.4189 63.0587 26.3797L58.657 22.3024C59.444 21.4528 60.7171 21.1779 61.8117 21.7029L59.2171 27.1129ZM51.4189 56.1378C51.4347 54.952 50.7585 53.8436 49.6547 53.3302L47.1243 58.7706C46.0572 58.2743 45.4041 57.2031 45.4194 56.0578L51.4189 56.1378ZM44.4624 24.0618C44.4624 25.7346 45.8215 27.0621 47.4626 27.0624L47.4636 21.0624C49.104 21.0627 50.4624 22.3896 50.4624 24.0618H44.4624ZM89.0794 69.7402C89.0794 70.5312 88.7207 71.1179 88.2752 71.4429C87.8507 71.7524 87.3021 71.8675 86.672 71.6183L84.4658 77.198C89.9007 79.3469 95.0794 75.1152 95.0794 69.7402H89.0794ZM66.1302 29.979C63.8433 29.0179 63.7498 25.812 65.9767 24.7191L68.6201 30.1055C71.0154 28.9299 70.9148 25.4816 68.455 24.4477L66.1302 29.979ZM67.7866 27.213C67.5799 28.7876 68.0347 31.3418 70.4384 32.4946L73.033 27.0846C73.4305 27.2752 73.6217 27.5803 73.6893 27.7462C73.7481 27.8904 73.7387 27.97 73.7355 27.9938L67.7866 27.213ZM37.1876 52.0373C38.6916 51.9053 41.0682 50.6847 41.066 47.9836L35.066 47.9884C35.0655 47.2577 35.4281 46.7322 35.7371 46.4615C36.0245 46.2096 36.3469 46.0881 36.6626 46.0604L37.1876 52.0373ZM49.3614 22.6523C48.8879 22.6523 48.4211 22.7643 47.9991 22.9791L50.7212 28.3261C50.3 28.5405 49.834 28.6523 49.3614 28.6523V22.6523ZM79.0435 55.1934C81.0003 56.5854 83.7151 56.1276 85.1071 54.1708L80.2181 50.6928C80.7469 49.9494 81.7782 49.7755 82.5216 50.3043L79.0435 55.1934ZM73.3845 70.6494C74.7766 68.6926 74.3188 65.9778 72.3619 64.5857L68.8839 69.4748C68.1406 68.946 67.9666 67.9147 68.4954 67.1714L73.3845 70.6494ZM65.7045 21.0624C67.3356 21.0627 68.7033 22.3804 68.7033 24.0618H62.7033C62.7033 25.7438 64.0715 27.0621 65.7033 27.0624L65.7045 21.0624ZM55.9257 25.789C56.0919 25.7078 56.2861 25.7072 56.4529 25.7872L59.0475 20.3772C57.2275 19.5043 55.1082 19.5115 53.2942 20.3968L55.9257 25.789ZM48.7083 25.2268C50.4152 26.1752 53.1963 27.121 55.9257 25.789L53.2942 20.3968C53.2379 20.4243 53.1066 20.4714 52.8128 20.4278C52.4988 20.3813 52.0876 20.2404 51.6227 19.9821L48.7083 25.2268Z" fill="white" mask="url(#path-1-outside-1_1_106)"/>
</g>
<path d="M92.0794 57.1208L84.5794 53.6208L74.0794 68.6208C76.1163 70.1022 79.2678 71.7123 82.4622 73.1135C87.2283 75.2043 92.0794 71.5791 92.0794 66.3746V57.1208Z" fill="#007BE0"/>
<path fill-rule="evenodd" clip-rule="evenodd" d="M74.621 31.1734L56.1775 22.3279L38.0526 31.1734L56.8909 40.1619L74.621 31.1734Z" fill="#FFE785"/>
<path fill-rule="evenodd" clip-rule="evenodd" d="M56.8909 39.994V60.0045L38.0687 51.2501L38.0526 31.193L56.8909 39.994Z" fill="#FFD839"/>
<path fill-rule="evenodd" clip-rule="evenodd" d="M74.621 31.193L56.8909 39.9798V60.0045L74.6071 51.2501L74.621 31.193Z" fill="#EFC100"/>
<path d="M49.3607 25.9153L45.8233 27.7009L52.3938 30.8567L43.5932 34.9513L43.6145 34.9684V54.7064C45.5803 55.5388 46.4007 55.9819 48.0479 56.6788V36.8645L56.3348 32.8001L64.6243 36.8632V56.6801L69.0578 54.7077V34.9684L69.0804 34.9513L60.2798 30.8567L67.514 27.3065L63.5783 25.6523L56.3348 29.0224L49.3621 25.9153H49.3607Z" fill="#F46264"/>
<g filter="url(#filter2_d_1_106)">
<path d="M47.4624 21.8777C44.663 21.8777 42.3606 24.1578 42.3606 26.9481C42.3606 29.7384 44.663 32.0159 47.4624 32.0159H55.4683C55.6598 32.0156 55.8479 31.9649 56.0136 31.869C56.1794 31.773 56.317 31.6352 56.4127 31.4693C56.5084 31.3034 56.5587 31.1153 56.5588 30.9238C56.5588 30.7323 56.5084 30.5441 56.4128 30.3781C54.9568 27.8743 53.6879 25.8323 52.3065 24.341C50.9264 22.8498 49.3239 21.8764 47.4611 21.8777H47.4624ZM47.4624 24.0624C48.6005 24.0624 49.5515 24.5831 50.7027 25.8258C51.519 26.7075 52.4713 28.3113 53.4132 29.8314H47.4611C47.0798 29.8357 46.7013 29.7642 46.3477 29.6212C45.9942 29.4783 45.6724 29.2666 45.4012 28.9985C45.13 28.7303 44.9147 28.411 44.7678 28.059C44.6209 27.7071 44.5452 27.3295 44.5453 26.9481C44.5453 25.3456 45.8364 24.0611 47.4624 24.0611V24.0624Z" fill="#F46264"/>
</g>
<g filter="url(#filter3_d_1_106)">
<path d="M65.7059 21.8777C63.8431 21.8777 62.238 22.8497 60.8579 24.341C59.4765 25.8323 58.2102 27.8743 56.7542 30.3781C56.6583 30.5438 56.6076 30.7319 56.6073 30.9233C56.607 31.1148 56.6571 31.3028 56.7525 31.4688C56.848 31.6348 56.9854 31.7728 57.151 31.8688C57.3167 31.9648 57.5047 32.0155 57.6961 32.0159H65.7059C68.5053 32.0159 70.8038 29.7397 70.8038 26.9481C70.8038 24.1578 68.504 21.8777 65.7059 21.8777ZM65.7033 24.0624C67.3293 24.0624 68.6191 25.3443 68.6191 26.9481C68.6192 27.3295 68.5435 27.7071 68.3966 28.059C68.2497 28.411 68.0344 28.7303 67.7632 28.9985C67.492 29.2666 67.1703 29.4783 66.8167 29.6212C66.4631 29.7642 66.0846 29.8357 65.7033 29.8314H59.7551C60.697 28.31 61.6454 26.7075 62.463 25.8258C63.6129 24.5831 64.5639 24.0611 65.7033 24.0611V24.0624Z" fill="#F46264"/>
</g>
<path d="M34.682 50.1354C35.2713 49.5106 36.0695 49.124 36.9251 49.0488C37.7807 48.9737 38.6341 49.2153 39.3233 49.7278L49.2995 56.8246C49.1911 56.3773 49.1762 55.9124 49.2556 55.459C49.3351 55.0056 49.5072 54.5734 49.7612 54.1895C50.0152 53.8056 50.3456 53.4782 50.7318 53.2278C51.1181 52.9774 51.5518 52.8093 52.0059 52.7341L73.0477 49.1855C74.4579 48.9475 75.9049 49.2793 77.0704 50.1081L90.6697 59.7824L80.5101 74.0638L69.0629 65.9205L56.2258 68.0854C55.5273 68.2033 54.8124 68.1825 54.122 68.024C53.4316 67.8656 52.7792 67.5727 52.202 67.1621L35.2587 55.1089C34.8741 54.8353 34.5512 54.484 34.3109 54.0778C34.0707 53.6715 33.9184 53.2193 33.8641 52.7504C33.8097 52.2816 33.8544 51.8065 33.9953 51.3561C34.1362 50.9056 34.3701 50.4897 34.682 50.1354V50.1354Z" fill="#FFD5C5"/>
<path d="M91.1341 56.8038L84.5427 52.1147C83.936 51.6831 83.0942 51.8251 82.6626 52.4318L70.94 68.9104C70.5084 69.5171 70.6503 70.3588 71.2571 70.7904L77.8485 75.4795C78.4552 75.9111 79.2969 75.7692 79.7286 75.1624L91.4512 58.6839C91.8828 58.0771 91.7408 57.2354 91.1341 56.8038Z" fill="#0055B8"/>
<path d="M52.4138 57.7829C52.2066 57.8284 51.9922 57.83 51.7843 57.7876C51.5765 57.7453 51.3798 57.6598 51.207 57.5369C51.0341 57.4139 50.8889 57.2561 50.7807 57.0737C50.6725 56.8912 50.6037 56.6881 50.5787 56.4775C50.5333 56.2702 50.5317 56.0557 50.5741 55.8478C50.6166 55.6398 50.702 55.4431 50.825 55.2702C50.9481 55.0973 51.1059 54.952 51.2884 54.8437C51.4709 54.7355 51.6741 54.6666 51.8848 54.6416C52.024 54.6173 52.157 54.5655 52.2759 54.4892C52.3949 54.4129 52.4974 54.3137 52.5775 54.1973C52.6577 54.0809 52.7138 53.9497 52.7426 53.8113C52.7714 53.673 52.7723 53.5303 52.7454 53.3916C52.7184 53.2529 52.664 53.121 52.5854 53.0035C52.5068 52.8861 52.4056 52.7855 52.2877 52.7077C52.1697 52.6298 52.0375 52.5762 51.8986 52.5501C51.7597 52.524 51.617 52.5258 51.4789 52.5555C50.9981 52.6328 50.5376 52.8058 50.1249 53.0643C49.7122 53.3228 49.3557 53.6616 49.0764 54.0605C48.7971 54.4595 48.6007 54.9104 48.499 55.3867C48.3973 55.8629 48.3923 56.3548 48.4842 56.833C48.5554 57.3167 48.7232 57.7812 48.9777 58.1987C49.2322 58.6162 49.5681 58.9782 49.9655 59.2631C50.3629 59.548 50.8136 59.7499 51.2907 59.8569C51.7678 59.9639 52.2616 59.9737 52.7425 59.8858L58.8857 58.8498C59.1596 58.7987 59.4025 58.642 59.5621 58.4135C59.7217 58.1851 59.7851 57.9031 59.7388 57.6283C59.6924 57.3535 59.54 57.1079 59.3143 56.9444C59.0887 56.7809 58.8078 56.7126 58.5323 56.7541L52.4138 57.7829Z" fill="#F4A490"/>
<mask id="path-13-outside-2_1_106" maskUnits="userSpaceOnUse" x="14.0142" y="10.4579" width="85" height="23" fill="black">
<rect fill="white" x="14.0142" y="10.4579" width="85" height="23"/>
<path fill-rule="evenodd" clip-rule="evenodd" d="M61.4894 18.4428C61.9669 18.1823 62.3575 17.8351 62.6614 17.401C62.9652 16.967 63.1388 16.4027 63.1388 15.795C63.1388 15.1873 63.052 14.6664 62.835 14.189C62.618 13.7115 62.2707 13.3642 61.7932 13.0604C61.3592 12.8 60.7949 12.6263 60.1438 12.5829L57.8126 12.458C57.7576 12.4551 57.7105 12.4972 57.7074 12.5523L57.3714 18.5163C57.3683 18.5715 57.4107 18.6188 57.4659 18.6218L59.7965 18.7466C60.4042 18.79 61.0119 18.7032 61.4894 18.4428ZM61.446 15.7516C61.4026 16.2725 61.229 16.6197 60.9251 16.8801C60.6213 17.1406 60.2306 17.2274 59.7531 17.2274L59.2865 17.1915C59.2322 17.1873 59.1913 17.1406 59.1943 17.0862L59.3568 14.1607C59.3599 14.1048 59.4084 14.0623 59.4643 14.0666L59.9268 14.1021C60.4476 14.1456 60.8383 14.2758 61.0987 14.5796C61.3592 14.8835 61.4894 15.2741 61.446 15.7516ZM54.8308 17.6844C54.8152 17.6447 54.7762 17.6192 54.7336 17.6209L52.7064 17.702C52.6634 17.7037 52.6264 17.7327 52.6144 17.7739L52.3511 18.6765C52.3389 18.7183 52.3011 18.7474 52.2576 18.7484L50.6927 18.7866C50.6236 18.7883 50.5737 18.7211 50.5953 18.6554L52.569 12.6501C52.5823 12.6099 52.6194 12.5823 52.6618 12.5814L54.4752 12.5411C54.5168 12.5402 54.5547 12.5651 54.5702 12.6037L56.9212 18.4392C56.9473 18.504 56.9007 18.5748 56.8309 18.5765L55.2655 18.6147C55.2235 18.6157 55.1853 18.5904 55.1699 18.5512L54.8308 17.6844ZM54.1878 16.3205C54.2563 16.3183 54.3022 16.2494 54.278 16.1853L53.6967 14.6465C53.6626 14.5563 53.5331 14.5618 53.5069 14.6546L53.0624 16.2276C53.044 16.2928 53.0943 16.357 53.1619 16.3547L54.1878 16.3205ZM50.0611 18.8027C50.1159 18.7957 50.1546 18.7455 50.1476 18.6908L49.3918 12.8123C49.3847 12.7575 49.3346 12.7188 49.2799 12.7258L47.7858 12.9174C47.7308 12.9244 47.6921 12.9748 47.6993 13.0297L47.9768 15.1308C47.9841 15.1859 47.9452 15.2363 47.8901 15.2432L46.0051 15.4788C45.9505 15.4856 45.9007 15.4471 45.8935 15.3927L45.6157 13.2893C45.6085 13.2347 45.5585 13.1962 45.5039 13.2032L44.009 13.3949C43.9542 13.4019 43.9155 13.452 43.9225 13.5067L44.6785 19.4286C44.6855 19.4834 44.7356 19.5222 44.7904 19.5152L46.2853 19.3235C46.3399 19.3165 46.3786 19.2667 46.3719 19.2121L46.0921 16.9337C46.0854 16.8798 46.1231 16.8304 46.1769 16.8226L48.0624 16.5476C48.118 16.5395 48.1693 16.5787 48.1761 16.6344L48.4552 18.9072C48.462 18.9622 48.5122 19.0013 48.5672 18.9942L50.0611 18.8027ZM40.4577 19.0406C40.4704 19.0941 40.524 19.1272 40.5776 19.1148L42.2506 18.7257C42.3041 18.7133 42.3576 18.7463 42.3705 18.7996L42.6277 19.8653C42.6406 19.9188 42.6079 19.9727 42.5545 19.9859L39.2331 20.8059C39.1792 20.8193 39.1247 20.786 39.1119 20.732L37.7259 14.894C37.7131 14.8403 37.7464 14.7863 37.8001 14.7736L39.255 14.429C39.3087 14.4163 39.3626 14.4495 39.3754 14.5031L40.4577 19.0406ZM38.2133 21.0753C38.2668 21.0598 38.2973 21.0036 38.2813 20.9504L36.5593 15.2386C36.5435 15.1861 36.4884 15.1562 36.4358 15.1714L34.9785 15.5933C34.925 15.6087 34.8945 15.6649 34.9105 15.7182L36.6325 21.4299C36.6483 21.4824 36.7034 21.5124 36.756 21.4971L38.2133 21.0753ZM34.838 19.311C35.1418 19.4846 35.3588 19.745 35.4891 20.0923C35.6627 20.5697 35.6627 21.0472 35.4457 21.4379C35.2286 21.8285 34.7946 22.1758 34.1869 22.3928L31.415 23.4428C31.3636 23.4622 31.3061 23.4366 31.2863 23.3853L29.1448 17.8425C29.1247 17.7907 29.1508 17.7324 29.2029 17.7129L31.8864 16.7066C32.4506 16.4895 32.9715 16.4461 33.4056 16.5764C33.8396 16.7066 34.1435 17.0104 34.3171 17.4879C34.4473 17.8351 34.4473 18.139 34.3605 18.4428C34.314 18.6058 34.2424 18.7437 34.146 18.8701C34.0815 18.9546 34.1671 19.1332 34.2732 19.1402C34.4704 19.1532 34.6615 19.2101 34.838 19.311ZM31.545 19.3076C31.5658 19.3578 31.6229 19.3821 31.6735 19.3624L32.3638 19.0939C32.7545 18.9203 32.8847 18.7033 32.7545 18.356C32.6243 18.0088 32.3638 17.922 31.9298 18.0522L31.2439 18.3189C31.1916 18.3393 31.1662 18.3987 31.1878 18.4506L31.545 19.3076ZM33.7528 20.4829C33.6226 20.1357 33.3188 20.0489 32.9281 20.1791L32.1095 20.4909C32.0581 20.5105 32.0322 20.568 32.0515 20.6195L32.3719 21.474C32.3914 21.5259 32.4494 21.552 32.5012 21.5323L33.3188 21.2208C33.7094 21.0906 33.883 20.8302 33.7528 20.4829ZM30.541 23.7867C30.5889 23.7599 30.6063 23.6995 30.5799 23.6513L27.7235 18.4427C27.6972 18.3946 27.637 18.3767 27.5887 18.4026L25.8713 19.3212C25.8342 19.341 25.8135 19.382 25.8195 19.4236L26.3789 23.2995C26.3921 23.3911 26.2845 23.4499 26.2145 23.3894L23.2576 20.8321C23.2261 20.8048 23.1808 20.8 23.1442 20.82L21.4698 21.7369C21.4213 21.7635 21.4036 21.8243 21.4302 21.8727L24.2858 27.0801C24.3123 27.1283 24.3728 27.1461 24.4212 27.1199L25.765 26.3904C25.8135 26.364 25.8315 26.3033 25.8052 26.2548L24.5056 23.8607C24.4512 23.7606 24.5798 23.662 24.6623 23.7405L26.7989 25.7721C26.8302 25.8017 26.8769 25.8081 26.9149 25.7878L28.0891 25.1616C28.1274 25.1411 28.1482 25.0983 28.1405 25.0556L27.613 22.1372C27.5928 22.0254 27.7451 21.9718 27.7993 22.0717L29.1035 24.474C29.13 24.523 29.1915 24.5408 29.2401 24.5136L30.541 23.7867ZM20.06 29.232C20.0459 29.1915 20.0593 29.1464 20.0932 29.1201L21.7158 27.8626C21.7498 27.8363 21.7968 27.8346 21.8325 27.8585L22.6238 28.386C22.6599 28.41 22.7072 28.4081 22.7412 28.3813L24.0043 27.3862C24.0588 27.3432 24.054 27.259 23.9949 27.2226L18.6197 23.9051C18.5842 23.8831 18.5388 23.8856 18.5058 23.9112L17.0529 25.0413C17.0199 25.0669 17.0063 25.1104 17.0189 25.1502L18.9078 31.1529C18.9288 31.2196 19.0101 31.2447 19.0651 31.2014L20.3277 30.2066C20.3612 30.1802 20.3743 30.1355 20.3603 30.0952L20.06 29.232ZM19.0066 26.1926C18.975 26.1018 19.0773 26.0231 19.157 26.0769L20.5308 27.0042C20.5869 27.042 20.59 27.1235 20.537 27.1655L19.7127 27.818C19.6587 27.8608 19.5788 27.8375 19.5562 27.7725L19.0066 26.1926ZM66.0346 13.1779C66.0894 13.185 66.1281 13.2351 66.1211 13.2899L65.3653 19.1684C65.3582 19.2232 65.3081 19.2618 65.2534 19.2548L63.7589 19.0632C63.7041 19.0562 63.6654 19.0061 63.6724 18.9513L64.4282 13.0728C64.4353 13.018 64.4854 12.9793 64.5401 12.9864L66.0346 13.1779ZM68.0083 18.7247C68.0293 18.6862 68.0731 18.6658 68.1161 18.6746L70.1028 19.0801C70.1436 19.0884 70.175 19.1211 70.1815 19.1623L70.3332 20.1101C70.3398 20.1515 70.3716 20.1844 70.4128 20.1924L71.984 20.499C72.0521 20.5123 72.1126 20.454 72.102 20.3855L71.1363 14.1712C71.1298 14.1297 71.0982 14.0967 71.0571 14.0885L69.2404 13.7252C69.1994 13.717 69.1577 13.7351 69.1357 13.7707L65.8191 19.1445C65.7824 19.204 65.8164 19.2818 65.885 19.2952L67.4509 19.6008C67.4937 19.6091 67.537 19.5888 67.5579 19.5505L68.0083 18.7247ZM69.5877 15.9687C69.6354 15.8853 69.7618 15.9105 69.7737 16.0059L69.9798 17.6541C69.9882 17.7218 69.9279 17.7779 69.8609 17.7645L68.8308 17.5585C68.7639 17.5451 68.7298 17.4701 68.7636 17.4108L69.5877 15.9687ZM79.4083 16.4154C79.4607 16.4324 79.4895 16.4885 79.4728 16.5409L77.667 22.2102C77.6502 22.263 77.5936 22.292 77.5409 22.2749L76.1243 21.8155C76.0722 21.7986 76.0434 21.7431 76.0596 21.6909L76.7387 19.4937C76.7551 19.4408 76.7253 19.3846 76.6723 19.3685L74.8669 18.819C74.8143 18.803 74.7585 18.8326 74.7423 18.8852L74.0635 21.0813C74.0471 21.1343 73.9907 21.1638 73.9378 21.1471L72.4799 20.6867C72.4272 20.67 72.398 20.6137 72.4148 20.561L74.2205 14.8917C74.2373 14.8392 74.2933 14.8101 74.3459 14.8267L75.8051 15.2875C75.8576 15.3041 75.8869 15.3602 75.8704 15.4128L75.2359 17.435C75.2193 17.488 75.2491 17.5445 75.3022 17.5606L77.1076 18.1101C77.1601 18.1261 77.2157 18.0967 77.2321 18.0444L77.8667 16.0216C77.8833 15.9685 77.9401 15.9392 77.993 15.9564L79.4083 16.4154ZM84.7518 25.5202C84.8017 25.543 84.8607 25.5214 84.884 25.4717L87.4041 20.0953C87.4275 20.0455 87.4063 19.9863 87.3567 19.9626L85.6002 19.1243C85.562 19.1061 85.5164 19.1139 85.4864 19.1438L82.7309 21.8993C82.6655 21.9648 82.5539 21.9138 82.5605 21.8215L82.8403 17.9045C82.8433 17.8628 82.82 17.8236 82.7819 17.8063L81.0253 17.0079C80.9755 16.9852 80.9167 17.0069 80.8934 17.0564L78.3733 22.4327C78.3499 22.4826 78.3713 22.542 78.4212 22.5655L79.8027 23.2179C79.8528 23.2416 79.9126 23.22 79.936 23.1697L81.1056 20.6586C81.1536 20.5556 81.309 20.5998 81.2956 20.7127L80.944 23.6655C80.9389 23.7089 80.9624 23.7505 81.0022 23.7685L82.2162 24.3168C82.255 24.3343 82.3006 24.3254 82.3299 24.2946L84.3773 22.1412C84.4554 22.0591 84.5883 22.1496 84.5404 22.2523L83.3652 24.7756C83.3418 24.8259 83.3638 24.8857 83.4143 24.9088L84.7518 25.5202ZM90.1862 21.6856C90.2313 21.7167 90.2431 21.7783 90.2125 21.8238L88.3144 24.6499C88.143 24.9499 88.0562 25.2076 88.054 25.4229C88.054 25.4284 88.0544 25.434 88.0554 25.4394C88.1001 25.6953 88.2304 25.8671 88.488 26.0389C88.7449 26.2101 89.0017 26.2547 89.217 26.2142C89.223 26.2131 89.2288 26.2114 89.2344 26.2091C89.4486 26.1211 89.6628 25.9487 89.877 25.6916L91.7748 22.8661C91.8055 22.8204 91.8674 22.8081 91.9132 22.8387L93.1792 23.6827C93.2253 23.7134 93.2376 23.7757 93.2068 23.8216L91.3094 26.6466C91.0056 27.124 90.615 27.4713 90.1809 27.6883C89.7468 27.9053 89.3128 27.9922 88.8787 27.9053C88.4446 27.8185 88.0106 27.6883 87.5765 27.3845C87.1425 27.124 86.8386 26.7768 86.6216 26.3861C86.4045 25.9955 86.3177 25.5614 86.3611 25.1273C86.4045 24.6499 86.5782 24.2158 86.9254 23.6949L88.8223 20.8706C88.8534 20.8244 88.9161 20.8125 88.962 20.844L90.1862 21.6856ZM92.015 30.7045C92.0568 30.7408 92.1201 30.7362 92.1562 30.6942L93.1108 29.5869C93.1468 29.5452 93.1422 29.4822 93.1005 29.4461L91.9495 28.4485C91.9077 28.4123 91.8444 28.4169 91.8082 28.4588L90.8537 29.5661C90.8177 29.6078 90.8223 29.6708 90.8639 29.7069L92.015 30.7045ZM93.4508 28.8425C93.4914 28.8768 93.5517 28.8734 93.5882 28.8348L96.3156 25.942C96.3549 25.9003 96.3513 25.8342 96.3076 25.7971L95.0352 24.7175C94.9918 24.6806 94.9264 24.6874 94.8915 24.7324L92.4534 27.873C92.4205 27.9154 92.4268 27.9761 92.4678 28.0107L93.4508 28.8425Z"/>
</mask>
<path fill-rule="evenodd" clip-rule="evenodd" d="M61.4894 18.4428C61.9669 18.1823 62.3575 17.8351 62.6614 17.401C62.9652 16.967 63.1388 16.4027 63.1388 15.795C63.1388 15.1873 63.052 14.6664 62.835 14.189C62.618 13.7115 62.2707 13.3642 61.7932 13.0604C61.3592 12.8 60.7949 12.6263 60.1438 12.5829L57.8126 12.458C57.7576 12.4551 57.7105 12.4972 57.7074 12.5523L57.3714 18.5163C57.3683 18.5715 57.4107 18.6188 57.4659 18.6218L59.7965 18.7466C60.4042 18.79 61.0119 18.7032 61.4894 18.4428ZM61.446 15.7516C61.4026 16.2725 61.229 16.6197 60.9251 16.8801C60.6213 17.1406 60.2306 17.2274 59.7531 17.2274L59.2865 17.1915C59.2322 17.1873 59.1913 17.1406 59.1943 17.0862L59.3568 14.1607C59.3599 14.1048 59.4084 14.0623 59.4643 14.0666L59.9268 14.1021C60.4476 14.1456 60.8383 14.2758 61.0987 14.5796C61.3592 14.8835 61.4894 15.2741 61.446 15.7516ZM54.8308 17.6844C54.8152 17.6447 54.7762 17.6192 54.7336 17.6209L52.7064 17.702C52.6634 17.7037 52.6264 17.7327 52.6144 17.7739L52.3511 18.6765C52.3389 18.7183 52.3011 18.7474 52.2576 18.7484L50.6927 18.7866C50.6236 18.7883 50.5737 18.7211 50.5953 18.6554L52.569 12.6501C52.5823 12.6099 52.6194 12.5823 52.6618 12.5814L54.4752 12.5411C54.5168 12.5402 54.5547 12.5651 54.5702 12.6037L56.9212 18.4392C56.9473 18.504 56.9007 18.5748 56.8309 18.5765L55.2655 18.6147C55.2235 18.6157 55.1853 18.5904 55.1699 18.5512L54.8308 17.6844ZM54.1878 16.3205C54.2563 16.3183 54.3022 16.2494 54.278 16.1853L53.6967 14.6465C53.6626 14.5563 53.5331 14.5618 53.5069 14.6546L53.0624 16.2276C53.044 16.2928 53.0943 16.357 53.1619 16.3547L54.1878 16.3205ZM50.0611 18.8027C50.1159 18.7957 50.1546 18.7455 50.1476 18.6908L49.3918 12.8123C49.3847 12.7575 49.3346 12.7188 49.2799 12.7258L47.7858 12.9174C47.7308 12.9244 47.6921 12.9748 47.6993 13.0297L47.9768 15.1308C47.9841 15.1859 47.9452 15.2363 47.8901 15.2432L46.0051 15.4788C45.9505 15.4856 45.9007 15.4471 45.8935 15.3927L45.6157 13.2893C45.6085 13.2347 45.5585 13.1962 45.5039 13.2032L44.009 13.3949C43.9542 13.4019 43.9155 13.452 43.9225 13.5067L44.6785 19.4286C44.6855 19.4834 44.7356 19.5222 44.7904 19.5152L46.2853 19.3235C46.3399 19.3165 46.3786 19.2667 46.3719 19.2121L46.0921 16.9337C46.0854 16.8798 46.1231 16.8304 46.1769 16.8226L48.0624 16.5476C48.118 16.5395 48.1693 16.5787 48.1761 16.6344L48.4552 18.9072C48.462 18.9622 48.5122 19.0013 48.5672 18.9942L50.0611 18.8027ZM40.4577 19.0406C40.4704 19.0941 40.524 19.1272 40.5776 19.1148L42.2506 18.7257C42.3041 18.7133 42.3576 18.7463 42.3705 18.7996L42.6277 19.8653C42.6406 19.9188 42.6079 19.9727 42.5545 19.9859L39.2331 20.8059C39.1792 20.8193 39.1247 20.786 39.1119 20.732L37.7259 14.894C37.7131 14.8403 37.7464 14.7863 37.8001 14.7736L39.255 14.429C39.3087 14.4163 39.3626 14.4495 39.3754 14.5031L40.4577 19.0406ZM38.2133 21.0753C38.2668 21.0598 38.2973 21.0036 38.2813 20.9504L36.5593 15.2386C36.5435 15.1861 36.4884 15.1562 36.4358 15.1714L34.9785 15.5933C34.925 15.6087 34.8945 15.6649 34.9105 15.7182L36.6325 21.4299C36.6483 21.4824 36.7034 21.5124 36.756 21.4971L38.2133 21.0753ZM34.838 19.311C35.1418 19.4846 35.3588 19.745 35.4891 20.0923C35.6627 20.5697 35.6627 21.0472 35.4457 21.4379C35.2286 21.8285 34.7946 22.1758 34.1869 22.3928L31.415 23.4428C31.3636 23.4622 31.3061 23.4366 31.2863 23.3853L29.1448 17.8425C29.1247 17.7907 29.1508 17.7324 29.2029 17.7129L31.8864 16.7066C32.4506 16.4895 32.9715 16.4461 33.4056 16.5764C33.8396 16.7066 34.1435 17.0104 34.3171 17.4879C34.4473 17.8351 34.4473 18.139 34.3605 18.4428C34.314 18.6058 34.2424 18.7437 34.146 18.8701C34.0815 18.9546 34.1671 19.1332 34.2732 19.1402C34.4704 19.1532 34.6615 19.2101 34.838 19.311ZM31.545 19.3076C31.5658 19.3578 31.6229 19.3821 31.6735 19.3624L32.3638 19.0939C32.7545 18.9203 32.8847 18.7033 32.7545 18.356C32.6243 18.0088 32.3638 17.922 31.9298 18.0522L31.2439 18.3189C31.1916 18.3393 31.1662 18.3987 31.1878 18.4506L31.545 19.3076ZM33.7528 20.4829C33.6226 20.1357 33.3188 20.0489 32.9281 20.1791L32.1095 20.4909C32.0581 20.5105 32.0322 20.568 32.0515 20.6195L32.3719 21.474C32.3914 21.5259 32.4494 21.552 32.5012 21.5323L33.3188 21.2208C33.7094 21.0906 33.883 20.8302 33.7528 20.4829ZM30.541 23.7867C30.5889 23.7599 30.6063 23.6995 30.5799 23.6513L27.7235 18.4427C27.6972 18.3946 27.637 18.3767 27.5887 18.4026L25.8713 19.3212C25.8342 19.341 25.8135 19.382 25.8195 19.4236L26.3789 23.2995C26.3921 23.3911 26.2845 23.4499 26.2145 23.3894L23.2576 20.8321C23.2261 20.8048 23.1808 20.8 23.1442 20.82L21.4698 21.7369C21.4213 21.7635 21.4036 21.8243 21.4302 21.8727L24.2858 27.0801C24.3123 27.1283 24.3728 27.1461 24.4212 27.1199L25.765 26.3904C25.8135 26.364 25.8315 26.3033 25.8052 26.2548L24.5056 23.8607C24.4512 23.7606 24.5798 23.662 24.6623 23.7405L26.7989 25.7721C26.8302 25.8017 26.8769 25.8081 26.9149 25.7878L28.0891 25.1616C28.1274 25.1411 28.1482 25.0983 28.1405 25.0556L27.613 22.1372C27.5928 22.0254 27.7451 21.9718 27.7993 22.0717L29.1035 24.474C29.13 24.523 29.1915 24.5408 29.2401 24.5136L30.541 23.7867ZM20.06 29.232C20.0459 29.1915 20.0593 29.1464 20.0932 29.1201L21.7158 27.8626C21.7498 27.8363 21.7968 27.8346 21.8325 27.8585L22.6238 28.386C22.6599 28.41 22.7072 28.4081 22.7412 28.3813L24.0043 27.3862C24.0588 27.3432 24.054 27.259 23.9949 27.2226L18.6197 23.9051C18.5842 23.8831 18.5388 23.8856 18.5058 23.9112L17.0529 25.0413C17.0199 25.0669 17.0063 25.1104 17.0189 25.1502L18.9078 31.1529C18.9288 31.2196 19.0101 31.2447 19.0651 31.2014L20.3277 30.2066C20.3612 30.1802 20.3743 30.1355 20.3603 30.0952L20.06 29.232ZM19.0066 26.1926C18.975 26.1018 19.0773 26.0231 19.157 26.0769L20.5308 27.0042C20.5869 27.042 20.59 27.1235 20.537 27.1655L19.7127 27.818C19.6587 27.8608 19.5788 27.8375 19.5562 27.7725L19.0066 26.1926ZM66.0346 13.1779C66.0894 13.185 66.1281 13.2351 66.1211 13.2899L65.3653 19.1684C65.3582 19.2232 65.3081 19.2618 65.2534 19.2548L63.7589 19.0632C63.7041 19.0562 63.6654 19.0061 63.6724 18.9513L64.4282 13.0728C64.4353 13.018 64.4854 12.9793 64.5401 12.9864L66.0346 13.1779ZM68.0083 18.7247C68.0293 18.6862 68.0731 18.6658 68.1161 18.6746L70.1028 19.0801C70.1436 19.0884 70.175 19.1211 70.1815 19.1623L70.3332 20.1101C70.3398 20.1515 70.3716 20.1844 70.4128 20.1924L71.984 20.499C72.0521 20.5123 72.1126 20.454 72.102 20.3855L71.1363 14.1712C71.1298 14.1297 71.0982 14.0967 71.0571 14.0885L69.2404 13.7252C69.1994 13.717 69.1577 13.7351 69.1357 13.7707L65.8191 19.1445C65.7824 19.204 65.8164 19.2818 65.885 19.2952L67.4509 19.6008C67.4937 19.6091 67.537 19.5888 67.5579 19.5505L68.0083 18.7247ZM69.5877 15.9687C69.6354 15.8853 69.7618 15.9105 69.7737 16.0059L69.9798 17.6541C69.9882 17.7218 69.9279 17.7779 69.8609 17.7645L68.8308 17.5585C68.7639 17.5451 68.7298 17.4701 68.7636 17.4108L69.5877 15.9687ZM79.4083 16.4154C79.4607 16.4324 79.4895 16.4885 79.4728 16.5409L77.667 22.2102C77.6502 22.263 77.5936 22.292 77.5409 22.2749L76.1243 21.8155C76.0722 21.7986 76.0434 21.7431 76.0596 21.6909L76.7387 19.4937C76.7551 19.4408 76.7253 19.3846 76.6723 19.3685L74.8669 18.819C74.8143 18.803 74.7585 18.8326 74.7423 18.8852L74.0635 21.0813C74.0471 21.1343 73.9907 21.1638 73.9378 21.1471L72.4799 20.6867C72.4272 20.67 72.398 20.6137 72.4148 20.561L74.2205 14.8917C74.2373 14.8392 74.2933 14.8101 74.3459 14.8267L75.8051 15.2875C75.8576 15.3041 75.8869 15.3602 75.8704 15.4128L75.2359 17.435C75.2193 17.488 75.2491 17.5445 75.3022 17.5606L77.1076 18.1101C77.1601 18.1261 77.2157 18.0967 77.2321 18.0444L77.8667 16.0216C77.8833 15.9685 77.9401 15.9392 77.993 15.9564L79.4083 16.4154ZM84.7518 25.5202C84.8017 25.543 84.8607 25.5214 84.884 25.4717L87.4041 20.0953C87.4275 20.0455 87.4063 19.9863 87.3567 19.9626L85.6002 19.1243C85.562 19.1061 85.5164 19.1139 85.4864 19.1438L82.7309 21.8993C82.6655 21.9648 82.5539 21.9138 82.5605 21.8215L82.8403 17.9045C82.8433 17.8628 82.82 17.8236 82.7819 17.8063L81.0253 17.0079C80.9755 16.9852 80.9167 17.0069 80.8934 17.0564L78.3733 22.4327C78.3499 22.4826 78.3713 22.542 78.4212 22.5655L79.8027 23.2179C79.8528 23.2416 79.9126 23.22 79.936 23.1697L81.1056 20.6586C81.1536 20.5556 81.309 20.5998 81.2956 20.7127L80.944 23.6655C80.9389 23.7089 80.9624 23.7505 81.0022 23.7685L82.2162 24.3168C82.255 24.3343 82.3006 24.3254 82.3299 24.2946L84.3773 22.1412C84.4554 22.0591 84.5883 22.1496 84.5404 22.2523L83.3652 24.7756C83.3418 24.8259 83.3638 24.8857 83.4143 24.9088L84.7518 25.5202ZM90.1862 21.6856C90.2313 21.7167 90.2431 21.7783 90.2125 21.8238L88.3144 24.6499C88.143 24.9499 88.0562 25.2076 88.054 25.4229C88.054 25.4284 88.0544 25.434 88.0554 25.4394C88.1001 25.6953 88.2304 25.8671 88.488 26.0389C88.7449 26.2101 89.0017 26.2547 89.217 26.2142C89.223 26.2131 89.2288 26.2114 89.2344 26.2091C89.4486 26.1211 89.6628 25.9487 89.877 25.6916L91.7748 22.8661C91.8055 22.8204 91.8674 22.8081 91.9132 22.8387L93.1792 23.6827C93.2253 23.7134 93.2376 23.7757 93.2068 23.8216L91.3094 26.6466C91.0056 27.124 90.615 27.4713 90.1809 27.6883C89.7468 27.9053 89.3128 27.9922 88.8787 27.9053C88.4446 27.8185 88.0106 27.6883 87.5765 27.3845C87.1425 27.124 86.8386 26.7768 86.6216 26.3861C86.4045 25.9955 86.3177 25.5614 86.3611 25.1273C86.4045 24.6499 86.5782 24.2158 86.9254 23.6949L88.8223 20.8706C88.8534 20.8244 88.9161 20.8125 88.962 20.844L90.1862 21.6856ZM92.015 30.7045C92.0568 30.7408 92.1201 30.7362 92.1562 30.6942L93.1108 29.5869C93.1468 29.5452 93.1422 29.4822 93.1005 29.4461L91.9495 28.4485C91.9077 28.4123 91.8444 28.4169 91.8082 28.4588L90.8537 29.5661C90.8177 29.6078 90.8223 29.6708 90.8639 29.7069L92.015 30.7045ZM93.4508 28.8425C93.4914 28.8768 93.5517 28.8734 93.5882 28.8348L96.3156 25.942C96.3549 25.9003 96.3513 25.8342 96.3076 25.7971L95.0352 24.7175C94.9918 24.6806 94.9264 24.6874 94.8915 24.7324L92.4534 27.873C92.4205 27.9154 92.4268 27.9761 92.4678 28.0107L93.4508 28.8425Z" fill="#0055B8"/>
<path d="M62.6614 17.401L61.0229 16.2541L61.0229 16.2541L62.6614 17.401ZM61.4894 18.4428L60.5317 16.687L60.5317 16.687L61.4894 18.4428ZM62.835 14.189L61.0142 15.0166L61.0143 15.0166L62.835 14.189ZM61.7932 13.0604L62.867 11.3731L62.8448 11.359L62.8222 11.3454L61.7932 13.0604ZM60.1438 12.5829L60.2768 10.5874L60.2638 10.5865L60.2508 10.5858L60.1438 12.5829ZM59.7965 18.7466L59.939 16.7517L59.9213 16.7504L59.9035 16.7495L59.7965 18.7466ZM60.9251 16.8801L59.6235 15.3616L59.6235 15.3616L60.9251 16.8801ZM61.446 15.7516L59.4542 15.5705L59.4535 15.578L59.4529 15.5855L61.446 15.7516ZM59.7531 17.2274L59.5997 19.2215L59.6763 19.2274H59.7531V17.2274ZM59.9268 14.1021L60.0929 12.109L60.0802 12.108L59.9268 14.1021ZM61.0987 14.5796L59.5802 15.8812L59.5802 15.8812L61.0987 14.5796ZM35.4891 20.0923L37.3687 19.4088L37.3652 19.3994L37.3617 19.39L35.4891 20.0923ZM34.838 19.311L35.8303 17.5745L35.8302 17.5745L34.838 19.311ZM35.4457 21.4379L33.6973 20.4666L33.6973 20.4666L35.4457 21.4379ZM34.1869 22.3928L33.5142 20.5093L33.4963 20.5157L33.4784 20.5225L34.1869 22.3928ZM31.8864 16.7066L32.5886 18.5792L32.5965 18.5763L32.6043 18.5733L31.8864 16.7066ZM33.4056 16.5764L32.8309 18.492L32.8309 18.492L33.4056 16.5764ZM34.3171 17.4879L32.4375 18.1714L32.4409 18.1808L32.4444 18.1901L34.3171 17.4879ZM32.3638 19.0939L33.0887 20.9579L33.1328 20.9408L33.1761 20.9215L32.3638 19.0939ZM31.9298 18.0522L31.3551 16.1365L31.2789 16.1594L31.2049 16.1882L31.9298 18.0522ZM32.9281 20.1791L32.2956 18.2817L32.2556 18.2951L32.2161 18.3101L32.9281 20.1791ZM33.7528 20.4829L35.6255 19.7807L35.6255 19.7807L33.7528 20.4829ZM33.3188 21.2208L32.6863 19.3235L32.6462 19.3368L32.6068 19.3519L33.3188 21.2208ZM88.3144 24.6499L86.6541 23.5348L86.6138 23.5948L86.5779 23.6576L88.3144 24.6499ZM88.488 26.0389L87.3786 27.703L87.3786 27.703L88.488 26.0389ZM89.877 25.6916L91.4135 26.972L91.4797 26.8926L91.5373 26.8067L89.877 25.6916ZM91.3094 26.6466L89.6492 25.5314L89.6354 25.552L89.6221 25.5728L91.3094 26.6466ZM90.1809 27.6883L89.2865 25.8994L89.2865 25.8995L90.1809 27.6883ZM88.8787 27.9053L88.4865 29.8665L88.4865 29.8665L88.8787 27.9053ZM87.5765 27.3845L88.7234 25.746L88.6658 25.7057L88.6055 25.6695L87.5765 27.3845ZM86.6216 26.3861L84.8733 27.3574L84.8733 27.3574L86.6216 26.3861ZM86.3611 25.1273L88.3512 25.3263L88.3521 25.3174L88.3529 25.3084L86.3611 25.1273ZM86.9254 23.6949L85.2651 22.5798L85.2613 22.5855L86.9254 23.6949ZM92.4534 27.873L94.0332 29.0995L92.4534 27.873ZM92.4678 28.0107L91.1759 29.5375L92.4678 28.0107ZM95.0352 24.7175L96.3291 23.1925L95.0352 24.7175ZM94.8915 24.7324L96.4713 25.9589L94.8915 24.7324ZM93.5882 28.8348L95.0433 30.2068L93.5882 28.8348ZM93.4508 28.8425L92.1589 30.3693L93.4508 28.8425ZM96.3156 25.942L94.8605 24.5699L96.3156 25.942ZM96.3076 25.7971L95.0136 27.3221L96.3076 25.7971ZM90.8537 29.5661L89.3388 28.2602L90.8537 29.5661ZM90.8639 29.7069L89.5541 31.2183L90.8639 29.7069ZM91.9495 28.4485L90.6396 29.9599L91.9495 28.4485ZM91.8082 28.4588L90.2934 27.1529L91.8082 28.4588ZM92.1562 30.6942L93.671 32.0001L92.1562 30.6942ZM92.015 30.7045L90.7051 32.2159L92.015 30.7045ZM93.1108 29.5869L94.6256 30.8928L93.1108 29.5869ZM93.1005 29.4461L94.4104 27.9347L93.1005 29.4461ZM88.8223 20.8706L87.1621 19.7555L88.8223 20.8706ZM88.962 20.844L90.0951 19.1959L88.962 20.844ZM93.1792 23.6827L94.2886 22.0186L93.1792 23.6827ZM93.2068 23.8216L94.8671 24.9368L93.2068 23.8216ZM91.7748 22.8661L93.435 23.9812L91.7748 22.8661ZM91.9132 22.8387L90.8038 24.5028L91.9132 22.8387ZM89.217 26.2142L88.8476 24.2486L89.217 26.2142ZM89.2344 26.2091L89.9938 28.0593L89.2344 26.2091ZM88.054 25.4229L86.0541 25.4028L88.054 25.4229ZM88.0554 25.4394L86.0853 25.7841L88.0554 25.4394ZM90.2125 21.8238L91.8728 22.9389L90.2125 21.8238ZM90.1862 21.6856L89.0531 23.3337L90.1862 21.6856ZM83.3652 24.7756L85.1782 25.62L83.3652 24.7756ZM83.4143 24.9088L84.2458 23.0898L83.4143 24.9088ZM84.3773 22.1412L85.8267 23.5193L84.3773 22.1412ZM84.5404 22.2523L86.3534 23.0968L84.5404 22.2523ZM82.2162 24.3168L83.0394 22.4941L82.2162 24.3168ZM82.3299 24.2946L80.8805 22.9164L82.3299 24.2946ZM80.944 23.6655L82.93 23.902L80.944 23.6655ZM81.0022 23.7685L81.8253 21.9458L81.0022 23.7685ZM81.1056 20.6586L79.2926 19.8142L81.1056 20.6586ZM81.2956 20.7127L79.3096 20.4762L81.2956 20.7127ZM79.8027 23.2179L78.9487 25.0264L79.8027 23.2179ZM79.936 23.1697L78.1231 22.3253L79.936 23.1697ZM78.3733 22.4327L80.1842 23.2815L78.3733 22.4327ZM78.4212 22.5655L79.2752 20.757L78.4212 22.5655ZM81.0253 17.0079L81.8529 15.1871L81.0253 17.0079ZM80.8934 17.0564L82.7043 17.9053L80.8934 17.0564ZM82.8403 17.9045L84.8352 18.047L82.8403 17.9045ZM82.7819 17.8063L83.6095 15.9856L82.7819 17.8063ZM82.7309 21.8993L84.1452 23.3135L82.7309 21.8993ZM82.5605 21.8215L84.5554 21.964L82.5605 21.8215ZM85.6002 19.1243L86.4617 17.3193L85.6002 19.1243ZM85.4864 19.1438L84.0722 17.7296L85.4864 19.1438ZM76.7387 19.4937L78.6495 20.0843L76.7387 19.4937ZM76.6723 19.3685L77.2546 17.4551L76.6723 19.3685ZM76.1243 21.8155L75.5073 23.7179L76.1243 21.8155ZM76.0596 21.6909L74.1488 21.1002L76.0596 21.6909ZM68.8308 17.5585L69.2231 15.5973L68.8308 17.5585ZM68.7636 17.4108L67.0271 16.4185L68.7636 17.4108ZM69.7737 16.0059L71.7583 15.7578L69.7737 16.0059ZM69.5877 15.9687L71.3242 16.961L69.5877 15.9687ZM69.9798 17.6541L71.9643 17.406L69.9798 17.6541ZM69.8609 17.7645L70.2532 15.8034L69.8609 17.7645ZM67.4509 19.6008L67.0679 21.5637L67.4509 19.6008ZM67.5579 19.5505L69.3137 20.5082L67.5579 19.5505ZM71.1363 14.1712L69.16 14.4783L71.1363 14.1712ZM71.0571 14.0885L70.6648 16.0497L71.0571 14.0885ZM71.984 20.499L71.601 22.462L71.984 20.499ZM72.102 20.3855L70.1257 20.6926L72.102 20.3855ZM70.3332 20.1101L72.3081 19.7941L70.3332 20.1101ZM70.4128 20.1924L70.7958 18.2295L70.4128 20.1924ZM68.1161 18.6746L67.7162 20.6342L68.1161 18.6746ZM68.0083 18.7247L69.7641 19.6824L68.0083 18.7247ZM70.1028 19.0801L69.7029 21.0397L70.1028 19.0801ZM70.1815 19.1623L72.1564 18.8463L70.1815 19.1623ZM64.4282 13.0728L62.4446 12.8177L64.4282 13.0728ZM64.5401 12.9864L64.2858 14.9701L64.5401 12.9864ZM63.7589 19.0632L64.0132 17.0795L63.7589 19.0632ZM63.6724 18.9513L65.6561 19.2063L63.6724 18.9513ZM66.1211 13.2899L68.1047 13.5449L66.1211 13.2899ZM66.0346 13.1779L65.7803 15.1617L66.0346 13.1779ZM65.3653 19.1684L63.3816 18.9133L65.3653 19.1684ZM19.7127 27.818L20.9541 29.3861L19.7127 27.818ZM19.5562 27.7725L21.4452 27.1154L19.5562 27.7725ZM19.157 26.0769L18.0381 27.7346L19.157 26.0769ZM19.0066 26.1926L17.1176 26.8496L19.0066 26.1926ZM20.5308 27.0042L21.6498 25.3465L20.5308 27.0042ZM20.537 27.1655L21.7784 28.7336L20.537 27.1655ZM20.3277 30.2066L19.09 28.6356L20.3277 30.2066ZM20.3603 30.0952L22.2493 29.4381L20.3603 30.0952ZM18.9078 31.1529L17 31.7532L18.9078 31.1529ZM19.0651 31.2014L17.8273 29.6304L19.0651 31.2014ZM17.0529 25.0413L18.2807 26.62L17.0529 25.0413ZM17.0189 25.1502L18.9266 24.5499L17.0189 25.1502ZM18.6197 23.9051L19.6701 22.2031L18.6197 23.9051ZM18.5058 23.9112L19.7337 25.4899L18.5058 23.9112ZM24.0043 27.3862L25.242 28.9572L24.0043 27.3862ZM23.9949 27.2226L25.0453 25.5206L23.9949 27.2226ZM22.6238 28.386L23.7332 26.7219L22.6238 28.386ZM22.7412 28.3813L21.5035 26.8104L22.7412 28.3813ZM20.0932 29.1201L21.3184 30.701L20.0932 29.1201ZM20.06 29.232L18.1711 29.8891L20.06 29.232ZM21.7158 27.8626L22.941 29.4435L21.7158 27.8626ZM21.8325 27.8585L22.9419 26.1944L21.8325 27.8585ZM29.1035 24.474L27.3458 25.4282L29.1035 24.474ZM29.2401 24.5136L30.2158 26.2595L29.2401 24.5136ZM27.613 22.1372L29.5812 21.7815L27.613 22.1372ZM27.7993 22.0717L26.0416 23.0259L27.7993 22.0717ZM28.0891 25.1616L27.1479 23.3969L28.0891 25.1616ZM28.1405 25.0556L26.1723 25.4112L28.1405 25.0556ZM26.9149 25.7878L27.8561 27.5525L26.9149 25.7878ZM24.5056 23.8607L22.7478 24.8149L24.5056 23.8607ZM25.765 26.3904L26.7192 28.1481L25.765 26.3904ZM25.8052 26.2548L24.0475 27.209L25.8052 26.2548ZM24.2858 27.0801L22.5322 28.0417L24.2858 27.0801ZM24.4212 27.1199L25.3754 28.8776L24.4212 27.1199ZM21.4698 21.7369L20.5092 19.9828L21.4698 21.7369ZM21.4302 21.8727L19.6765 22.8344L21.4302 21.8727ZM23.2576 20.8321L24.5659 19.3194L23.2576 20.8321ZM23.1442 20.82L22.1836 19.0658L23.1442 20.82ZM26.3789 23.2995L28.3584 23.0138L26.3789 23.2995ZM26.2145 23.3894L24.9062 24.9021L26.2145 23.3894ZM31.545 19.3076L29.6988 20.0769L31.545 19.3076ZM36.6325 21.4299L34.7176 22.0072L36.6325 21.4299ZM36.756 21.4971L36.1999 19.576L36.756 21.4971ZM34.9785 15.5933L34.4224 13.6721L34.9785 15.5933ZM34.9105 15.7182L32.9957 16.2955L34.9105 15.7182ZM38.2813 20.9504L40.1961 20.3731L38.2813 20.9504ZM38.2133 21.0753L37.6572 19.1541L38.2133 21.0753ZM36.5593 15.2386L38.4742 14.6613L36.5593 15.2386ZM36.4358 15.1714L36.9919 17.0925L36.4358 15.1714ZM39.255 14.429L38.7941 12.4829L39.255 14.429ZM39.3754 14.5031L41.3208 14.0391L39.3754 14.5031ZM37.7259 14.894L39.6718 14.432L37.7259 14.894ZM37.8001 14.7736L38.2611 16.7198L37.8001 14.7736ZM39.2331 20.8059L38.7537 18.8643L38.7537 18.8643L39.2331 20.8059ZM39.1119 20.732L41.0578 20.27L39.1119 20.732ZM42.6277 19.8653L40.6836 20.3346L42.6277 19.8653ZM42.5545 19.9859L42.0751 18.0442L42.5545 19.9859ZM40.5776 19.1148L40.1246 17.1668L40.5776 19.1148ZM40.4577 19.0406L38.5123 19.5046L40.4577 19.0406ZM42.2506 18.7257L41.7976 16.7777L42.2506 18.7257ZM42.3705 18.7996L40.4263 19.2689L42.3705 18.7996ZM48.4552 18.9072L46.4702 19.151L48.4552 18.9072ZM48.5672 18.9942L48.8215 20.978L48.5672 18.9942ZM48.0624 16.5476L47.7738 14.5685L48.0624 16.5476ZM48.1761 16.6344L46.191 16.8782L48.1761 16.6344ZM46.0921 16.9337L48.0772 16.69L46.0921 16.9337ZM46.1769 16.8226L46.4655 18.8017L46.1769 16.8226ZM46.2853 19.3235L46.5397 21.3073L46.2853 19.3235ZM46.3719 19.2121L48.357 18.9683L46.3719 19.2121ZM44.6785 19.4286L46.6624 19.1754L44.6785 19.4286ZM44.7904 19.5152L45.0447 21.4989L44.7904 19.5152ZM44.009 13.3949L43.7547 11.4111L44.009 13.3949ZM43.9225 13.5067L41.9386 13.76L43.9225 13.5067ZM45.6157 13.2893L47.5985 13.0275L45.6157 13.2893ZM45.5039 13.2032L45.7582 15.187L45.5039 13.2032ZM45.8935 15.3927L47.8763 15.1308L45.8935 15.3927ZM50.1476 18.6908L48.1639 18.9458L50.1476 18.6908ZM49.3918 12.8123L51.3754 12.5572L49.3918 12.8123ZM49.2799 12.7258L49.0255 10.7421L49.2799 12.7258ZM53.0624 16.2276L51.1378 15.6837L53.0624 16.2276ZM25.8713 19.3212L24.928 17.5576L25.8713 19.3212ZM25.8195 19.4236L27.799 19.1379L25.8195 19.4236ZM84.884 25.4717L86.6949 26.3206L84.884 25.4717ZM84.7518 25.5202L85.5834 23.7013L84.7518 25.5202ZM54.278 16.1853L52.4071 16.8921L54.278 16.1853ZM30.5799 23.6513L28.8262 24.613L30.5799 23.6513ZM30.541 23.7867L29.5653 22.0408L30.541 23.7867ZM87.4041 20.0953L89.2151 20.9442L87.4041 20.0953ZM87.3567 19.9626L86.4952 21.7676L87.3567 19.9626ZM53.6967 14.6465L55.5676 13.9397L53.6967 14.6465ZM53.5069 14.6546L51.5823 14.1107L53.5069 14.6546ZM27.7235 18.4427L25.9699 19.4043L27.7235 18.4427ZM27.5887 18.4026L28.532 20.1662L27.5887 18.4026ZM77.8667 16.0216L79.775 16.6203L77.8667 16.0216ZM77.993 15.9564L77.376 17.8588L77.993 15.9564ZM55.2655 18.6147L55.3143 20.6141L55.2655 18.6147ZM55.1699 18.5512L57.0324 17.8224L55.1699 18.5512ZM77.1076 18.1101L76.5252 20.0234L77.1076 18.1101ZM77.2321 18.0444L79.1404 18.643L77.2321 18.0444ZM56.9212 18.4392L55.0661 19.1866L56.9212 18.4392ZM56.8309 18.5765L56.7821 16.5771L56.8309 18.5765ZM32.3719 21.474L30.4993 22.1762L32.3719 21.474ZM32.5012 21.5323L31.7892 19.6633L32.5012 21.5323ZM75.2359 17.435L73.3276 16.8364L75.2359 17.435ZM75.3022 17.5606L75.8846 15.6473L75.3022 17.5606ZM54.5702 12.6037L52.7151 13.3511L54.5702 12.6037ZM32.0515 20.6195L33.9242 19.9172L32.0515 20.6195ZM75.8051 15.2875L75.2028 17.1947L75.8051 15.2875ZM75.8704 15.4128L77.7787 16.0115L75.8704 15.4128ZM52.569 12.6501L54.469 13.2746L52.569 12.6501ZM52.6618 12.5814L52.6174 10.5819L52.6618 12.5814ZM74.2205 14.8917L72.3149 14.2847L74.2205 14.8917ZM74.3459 14.8267L74.9482 12.9196L74.3459 14.8267ZM50.6927 18.7866L50.6439 16.7872L50.6439 16.7872L50.6927 18.7866ZM50.5953 18.6554L48.6953 18.0309L50.5953 18.6554ZM79.4728 16.5409L81.3784 17.1479L79.4728 16.5409ZM79.4083 16.4154L80.0253 14.513L79.4083 16.4154ZM59.3568 14.1607L57.3599 14.0498L59.3568 14.1607ZM59.4643 14.0666L59.6177 12.0725L59.4643 14.0666ZM34.146 18.8701L35.7357 20.0836L35.7357 20.0836L34.146 18.8701ZM34.2732 19.1402L34.1417 21.1359L34.2732 19.1402ZM77.667 22.2102L75.7613 21.6032L77.667 22.2102ZM77.5409 22.2749L76.9238 24.1774L77.5409 22.2749ZM59.2865 17.1915L59.1331 19.1856L59.2865 17.1915ZM59.1943 17.0862L61.1912 17.1972L59.1943 17.0862ZM72.4799 20.6867L73.0822 18.7795L72.4799 20.6867ZM72.4148 20.561L70.5091 19.954L72.4148 20.561ZM52.3511 18.6765L50.4311 18.1165L52.3511 18.6765ZM52.2576 18.7484L52.2088 16.749L52.2576 18.7484ZM47.9768 15.1308L45.9941 15.3927L47.9768 15.1308ZM47.8901 15.2432L48.1382 17.2277L47.8901 15.2432ZM29.1448 17.8425L31.0104 17.1217L29.1448 17.8425ZM29.2029 17.7129L28.5007 15.8402L29.2029 17.7129ZM65.8191 19.1445L64.1171 18.0941L65.8191 19.1445ZM65.885 19.2952L66.268 17.3322L65.885 19.2952ZM57.3714 18.5163L55.3746 18.4038L57.3714 18.5163ZM57.4659 18.6218L57.3589 20.6189L57.4659 18.6218ZM74.8669 18.819L74.2846 20.7324L74.8669 18.819ZM74.7423 18.8852L76.6531 19.4758L74.7423 18.8852ZM52.7064 17.702L52.7863 19.7004L52.7064 17.702ZM52.6144 17.7739L50.6944 17.2139L52.6144 17.7739ZM31.2439 18.3189L30.519 16.4549L31.2439 18.3189ZM31.1878 18.4506L29.3417 19.2198L31.1878 18.4506ZM74.0635 21.0813L75.9743 21.6719L74.0635 21.0813ZM73.9378 21.1471L74.5401 19.2399L73.9378 21.1471ZM54.7336 17.6209L54.6537 15.6225L54.7336 17.6209ZM54.8308 17.6844L56.6933 16.9556L56.6933 16.9556L54.8308 17.6844ZM47.7858 12.9174L48.0401 14.9011L47.7858 12.9174ZM47.6993 13.0297L45.7165 13.2915L47.6993 13.0297ZM31.415 23.4428L32.1234 25.3131L31.415 23.4428ZM31.2863 23.3853L33.1519 22.6645L31.2863 23.3853ZM69.2404 13.7252L69.6327 11.764L69.2404 13.7252ZM69.1357 13.7707L67.4338 12.7203L69.1357 13.7707ZM57.8126 12.458L57.7056 14.4552L57.8126 12.458ZM57.7074 12.5523L59.7043 12.6648L57.7074 12.5523ZM61.0229 16.2541C60.9008 16.4286 60.7457 16.5702 60.5317 16.687L62.4471 20.1986C63.188 19.7944 63.8143 19.2416 64.2998 18.5479L61.0229 16.2541ZM61.1388 15.795C61.1388 16.0321 61.0696 16.1873 61.0229 16.2541L64.2998 18.5479C64.8608 17.7466 65.1388 16.7733 65.1388 15.795H61.1388ZM61.0143 15.0166C61.08 15.1612 61.1388 15.3801 61.1388 15.795H65.1388C65.1388 14.9945 65.024 14.1716 64.6557 13.3613L61.0143 15.0166ZM60.7195 14.7477C60.8537 14.8331 60.9214 14.8942 60.9554 14.9303C60.9844 14.9611 61 14.9852 61.0142 15.0166L64.6557 13.3614C64.2356 12.4371 63.572 11.8217 62.867 11.3731L60.7195 14.7477ZM60.0108 14.5785C60.3946 14.6041 60.6419 14.702 60.7642 14.7754L62.8222 11.3454C62.0765 10.898 61.1952 10.6486 60.2768 10.5874L60.0108 14.5785ZM57.7056 14.4552L60.0368 14.5801L60.2508 10.5858L57.9196 10.4609L57.7056 14.4552ZM59.3683 18.6288L59.7043 12.6648L55.7106 12.4398L55.3746 18.4038L59.3683 18.6288ZM59.9035 16.7495L57.5729 16.6246L57.3589 20.6189L59.6896 20.7437L59.9035 16.7495ZM60.5317 16.687C60.4935 16.7078 60.3015 16.7776 59.939 16.7517L59.6541 20.7415C60.5069 20.8025 61.5304 20.6986 62.4471 20.1986L60.5317 16.687ZM62.2267 18.3987C62.9988 17.7368 63.3602 16.8647 63.4391 15.9177L59.4529 15.5855C59.4464 15.6636 59.4377 15.6382 59.4736 15.5619C59.4913 15.5242 59.5155 15.4839 59.5454 15.4451C59.575 15.4067 59.6032 15.379 59.6235 15.3616L62.2267 18.3987ZM59.7531 19.2274C60.4446 19.2274 61.4009 19.1065 62.2267 18.3987L59.6235 15.3616C59.6684 15.3232 59.7167 15.2912 59.7644 15.2667C59.8111 15.2426 59.8482 15.2302 59.8689 15.2244C59.8886 15.2189 59.8915 15.22 59.8714 15.2223C59.8509 15.2246 59.8131 15.2274 59.7531 15.2274V19.2274ZM59.1331 19.1856L59.5997 19.2215L59.9065 15.2333L59.4399 15.1974L59.1331 19.1856ZM57.3599 14.0498L57.1974 16.9753L61.1912 17.1972L61.3537 14.2717L57.3599 14.0498ZM60.0802 12.108L59.6177 12.0725L59.3109 16.0607L59.7734 16.0963L60.0802 12.108ZM62.6172 13.278C61.8475 12.3801 60.8099 12.1688 60.0929 12.1091L59.7607 16.0952C59.8306 16.1011 59.8737 16.108 59.8963 16.1126C59.9186 16.1171 59.912 16.1175 59.8855 16.1072C59.8577 16.0964 59.8091 16.0742 59.7506 16.0342C59.6907 15.9933 59.632 15.9416 59.5802 15.8812L62.6172 13.278ZM63.4378 15.9327C63.5268 14.9537 63.2522 14.0188 62.6172 13.278L59.5802 15.8812C59.5379 15.8318 59.4975 15.7632 59.4736 15.6849C59.4503 15.6086 59.4548 15.5634 59.4542 15.5705L63.4378 15.9327ZM52.7863 19.7004L54.8136 19.6193L54.6537 15.6225L52.6264 15.7036L52.7863 19.7004ZM54.2711 19.2365L54.5344 18.3339L50.6944 17.2139L50.4311 18.1165L54.2711 19.2365ZM50.7415 20.786L52.3063 20.7478L52.2088 16.749L50.6439 16.7872L50.7415 20.786ZM50.669 12.0257L48.6953 18.0309L52.4953 19.2799L54.469 13.2746L50.669 12.0257ZM54.4308 10.5416L52.6174 10.5819L52.7062 14.5809L54.5197 14.5406L54.4308 10.5416ZM58.7763 17.6918L56.4253 11.8563L52.7151 13.3511L55.0661 19.1866L58.7763 17.6918ZM55.3143 20.6141L56.8797 20.5759L56.7821 16.5771L55.2167 16.6153L55.3143 20.6141ZM52.9683 18.4132L53.3075 19.28L57.0324 17.8224L56.6933 16.9556L52.9683 18.4132ZM51.8257 15.3533L52.4071 16.8921L56.1489 15.4785L55.5676 13.9397L51.8257 15.3533ZM54.987 16.7715L55.4315 15.1986L51.5823 14.1107L51.1378 15.6837L54.987 16.7715ZM54.1212 14.3217L53.0953 14.3559L53.2286 18.3536L54.2544 18.3194L54.1212 14.3217ZM47.4081 13.0673L48.1639 18.9458L52.1313 18.4357L51.3754 12.5572L47.4081 13.0673ZM48.0401 14.9011L49.5342 14.7096L49.0255 10.7421L47.5314 10.9336L48.0401 14.9011ZM49.9596 14.869L49.6821 12.7678L45.7165 13.2915L45.9941 15.3927L49.9596 14.869ZM46.2531 17.4633L48.1382 17.2277L47.642 13.2586L45.757 13.4942L46.2531 17.4633ZM43.633 13.5512L43.9107 15.6545L47.8763 15.1308L47.5985 13.0275L43.633 13.5512ZM44.2633 15.3787L45.7582 15.187L45.2495 11.2195L43.7547 11.4111L44.2633 15.3787ZM46.6624 19.1754L45.9064 13.2535L41.9386 13.76L42.6946 19.6819L46.6624 19.1754ZM46.031 17.3397L44.5361 17.5314L45.0447 21.4989L46.5397 21.3073L46.031 17.3397ZM44.107 17.1775L44.3868 19.4559L48.357 18.9683L48.0772 16.69L44.107 17.1775ZM47.7738 14.5685L45.8883 14.8435L46.4655 18.8017L48.3511 18.5267L47.7738 14.5685ZM50.4403 18.6634L50.1612 16.3906L46.191 16.8782L46.4702 19.151L50.4403 18.6634ZM49.8068 16.8189L48.3129 17.0105L48.8215 20.978L50.3154 20.7865L49.8068 16.8189ZM41.7976 16.7777L40.1246 17.1668L41.0306 21.0628L42.7037 20.6737L41.7976 16.7777ZM44.5719 19.396L44.3147 18.3304L40.4263 19.2689L40.6836 20.3346L44.5719 19.396ZM39.7126 22.7476L43.0339 21.9275L42.0751 18.0442L38.7537 18.8643L39.7126 22.7476ZM35.78 15.356L37.1659 21.1939L41.0578 20.27L39.6718 14.432L35.78 15.356ZM38.7941 12.4829L37.3392 12.8275L38.2611 16.7198L39.716 16.3752L38.7941 12.4829ZM42.4031 18.5765L41.3208 14.0391L37.4299 14.9672L38.5123 19.5046L42.4031 18.5765ZM34.6445 15.8159L36.3664 21.5276L40.1961 20.3731L38.4742 14.6613L34.6445 15.8159ZM35.5346 17.5144L36.9919 17.0925L35.8797 13.2503L34.4224 13.6721L35.5346 17.5144ZM38.5473 20.8527L36.8254 15.1409L32.9957 16.2955L34.7176 22.0072L38.5473 20.8527ZM37.6572 19.1541L36.1999 19.576L37.3121 23.4183L38.7694 22.9964L37.6572 19.1541ZM37.3617 19.39C37.0782 18.6341 36.5646 17.9941 35.8303 17.5745L33.8457 21.0474C33.7973 21.0198 33.7413 20.9758 33.6922 20.9169C33.6441 20.8592 33.6227 20.8114 33.6164 20.7945L37.3617 19.39ZM37.194 22.4091C37.7664 21.3788 37.6815 20.2691 37.3687 19.4088L33.6095 20.7758C33.6245 20.8169 33.6131 20.8073 33.6144 20.75C33.6159 20.6867 33.6336 20.5814 33.6973 20.4666L37.194 22.4091ZM34.8596 24.2763C35.7887 23.9444 36.6793 23.3356 37.194 22.4091L33.6973 20.4666C33.7406 20.3887 33.7723 20.3729 33.7433 20.3952C33.7157 20.4164 33.6445 20.4628 33.5142 20.5093L34.8596 24.2763ZM32.1234 25.3131L34.8953 24.2631L33.4784 20.5225L30.7065 21.5724L32.1234 25.3131ZM27.2792 18.5633L29.4207 24.1061L33.1519 22.6645L31.0104 17.1217L27.2792 18.5633ZM31.1841 14.8339L28.5007 15.8402L29.9052 19.5855L32.5886 18.5792L31.1841 14.8339ZM33.9803 14.6607C33.0036 14.3677 32.014 14.5146 31.1684 14.8399L32.6043 18.5733C32.7383 18.5217 32.8247 18.5074 32.8644 18.504C32.9024 18.5008 32.8853 18.5084 32.8309 18.492L33.9803 14.6607ZM36.1967 16.8044C35.8372 15.8158 35.0991 14.9963 33.9803 14.6607L32.8309 18.492C32.7488 18.4674 32.6398 18.4111 32.5448 18.3161C32.4558 18.2271 32.4326 18.1577 32.4375 18.1714L36.1967 16.8044ZM36.2836 18.9923C36.4836 18.2923 36.476 17.549 36.1898 16.7856L32.4444 18.1901C32.4404 18.1793 32.4241 18.1286 32.4214 18.0506C32.4187 17.9728 32.4312 17.9154 32.4375 17.8934L36.2836 18.9923ZM35.7357 20.0836C35.9782 19.7659 36.1659 19.4041 36.2836 18.9923L32.4375 17.8934C32.448 17.8564 32.4643 17.8129 32.4875 17.7671C32.5105 17.7215 32.5351 17.6842 32.5562 17.6566L35.7357 20.0836ZM35.8302 17.5745C35.3904 17.3231 34.9049 17.1775 34.4046 17.1445L34.1417 21.1359C34.0359 21.1289 33.9326 21.0971 33.8457 21.0474L35.8302 17.5745ZM31.6389 17.2299L30.9486 17.4984L32.3984 21.2264L33.0887 20.9579L31.6389 17.2299ZM30.8818 19.0583C30.8208 18.8955 30.6945 18.39 30.9987 17.8324C31.1274 17.5964 31.2846 17.4491 31.387 17.3702C31.4381 17.3307 31.4802 17.3047 31.5066 17.2897C31.5331 17.2745 31.5494 17.2672 31.5515 17.2663L33.1761 20.9215C33.517 20.77 34.1315 20.4421 34.5103 19.7478C34.9446 18.9514 34.8184 18.1638 34.6271 17.6538L30.8818 19.0583ZM32.5045 19.9678C32.5039 19.968 32.4892 19.9724 32.4623 19.9776C32.4355 19.9827 32.391 19.9897 32.3318 19.9929C32.214 19.9993 32.0147 19.9918 31.7786 19.9068C31.2107 19.7024 30.9586 19.2631 30.8818 19.0583L34.6271 17.6538C34.4201 17.1017 33.9727 16.4454 33.1335 16.1433C32.4069 15.8817 31.7371 16.0219 31.3551 16.1365L32.5045 19.9678ZM31.9688 20.1829L32.6547 19.9162L31.2049 16.1882L30.519 16.4549L31.9688 20.1829ZM33.3911 18.5384L33.034 17.6813L29.3417 19.2198L29.6988 20.0769L33.3911 18.5384ZM33.5606 22.0764C33.5162 22.0912 33.2074 22.1885 32.7839 22.0419C32.2772 21.8665 31.9903 21.4789 31.8802 21.1852L35.6255 19.7807C35.3851 19.1397 34.8812 18.535 34.0923 18.262C33.3867 18.0177 32.7307 18.1367 32.2956 18.2817L33.5606 22.0764ZM32.8215 22.3599L33.6401 22.0481L32.2161 18.3101L31.3975 18.6219L32.8215 22.3599ZM34.2446 20.7717L33.9242 19.9172L30.1788 21.3217L30.4993 22.1762L34.2446 20.7717ZM32.6068 19.3519L31.7892 19.6633L33.2132 23.4013L34.0307 23.0898L32.6068 19.3519ZM31.8802 21.1852C31.773 20.8993 31.7202 20.3904 32.0227 19.8934C32.2799 19.4709 32.6227 19.3447 32.6863 19.3235L33.9512 23.1182C34.4054 22.9668 35.0304 22.6452 35.4395 21.9732C35.894 21.2265 35.8629 20.4138 35.6255 19.7807L31.8802 21.1852ZM25.9699 19.4043L28.8262 24.613L32.3335 22.6896L29.4772 17.481L25.9699 19.4043ZM26.8146 21.0848L28.532 20.1662L26.6454 16.639L24.928 17.5576L26.8146 21.0848ZM28.3584 23.0138L27.799 19.1379L23.84 19.7093L24.3994 23.5852L28.3584 23.0138ZM21.9493 22.3448L24.9062 24.9021L27.5228 21.8767L24.5659 19.3194L21.9493 22.3448ZM22.4304 23.4911L24.1048 22.5742L22.1836 19.0658L20.5092 19.9828L22.4304 23.4911ZM26.0394 26.1184L23.1838 20.9111L19.6765 22.8344L22.5322 28.0417L26.0394 26.1184ZM24.8108 24.6327L23.467 25.3622L25.3754 28.8776L26.7192 28.1481L24.8108 24.6327ZM22.7478 24.8149L24.0475 27.209L27.5629 25.3006L26.2633 22.9065L22.7478 24.8149ZM28.1771 24.3227L26.0405 22.2911L23.2842 25.19L25.4208 27.2215L28.1771 24.3227ZM27.1479 23.3969L25.9737 24.0231L27.8561 27.5525L29.0303 26.9263L27.1479 23.3969ZM25.6449 22.4929L26.1723 25.4112L30.1086 24.6999L29.5812 21.7815L25.6449 22.4929ZM30.8612 23.5198L29.557 21.1175L26.0416 23.0259L27.3458 25.4282L30.8612 23.5198ZM29.5653 22.0408L28.2645 22.7677L30.2158 26.2595L31.5166 25.5326L29.5653 22.0408ZM20.4907 26.2818L18.8681 27.5393L21.3184 30.701L22.941 29.4435L20.4907 26.2818ZM23.7332 26.7219L22.9419 26.1944L20.7231 29.5226L21.5144 30.0501L23.7332 26.7219ZM22.7665 25.8152L21.5035 26.8104L23.9789 29.9523L25.242 28.9572L22.7665 25.8152ZM17.5693 25.607L22.9445 28.9245L25.0453 25.5206L19.6701 22.2031L17.5693 25.607ZM18.2807 26.62L19.7337 25.4899L17.2779 22.3325L15.825 23.4626L18.2807 26.62ZM20.8156 30.5525L18.9266 24.5499L15.1111 25.7506L17 31.7532L20.8156 30.5525ZM19.09 28.6356L17.8273 29.6304L20.3028 32.7724L21.5655 31.7776L19.09 28.6356ZM18.1711 29.8891L18.4713 30.7522L22.2493 29.4381L21.949 28.575L18.1711 29.8891ZM21.6498 25.3465L20.276 24.4192L18.0381 27.7346L19.4119 28.6619L21.6498 25.3465ZM20.9541 29.3861L21.7784 28.7336L19.2956 25.5974L18.4713 26.25L20.9541 29.3861ZM17.1176 26.8496L17.6672 28.4295L21.4452 27.1154L20.8956 25.5356L17.1176 26.8496ZM67.3489 19.4234L68.1047 13.5449L64.1374 13.0348L63.3816 18.9133L67.3489 19.4234ZM63.5046 21.047L64.999 21.2386L65.5077 17.2711L64.0132 17.0795L63.5046 21.047ZM62.4446 12.8177L61.6887 18.6962L65.6561 19.2063L66.4119 13.3278L62.4446 12.8177ZM66.2889 11.1942L64.7945 11.0026L64.2858 14.9701L65.7803 15.1617L66.2889 11.1942ZM70.5027 17.1205L68.516 16.715L67.7162 20.6342L69.7029 21.0397L70.5027 17.1205ZM72.3081 19.7941L72.1564 18.8463L68.2067 19.4782L68.3583 20.4261L72.3081 19.7941ZM72.3671 18.536L70.7958 18.2295L70.0298 22.1554L71.601 22.462L72.3671 18.536ZM69.16 14.4783L70.1257 20.6926L74.0783 20.0784L73.1125 13.8641L69.16 14.4783ZM68.8482 15.6863L70.6648 16.0497L71.4493 12.1273L69.6327 11.764L68.8482 15.6863ZM67.521 20.195L70.8377 14.8211L67.4338 12.7203L64.1171 18.0941L67.521 20.195ZM67.834 17.6378L66.268 17.3322L65.502 21.2582L67.0679 21.5637L67.834 17.6378ZM66.2525 17.767L65.8021 18.5928L69.3137 20.5082L69.7641 19.6824L66.2525 17.767ZM71.9643 17.406L71.7583 15.7578L67.7892 16.254L67.9952 17.9021L71.9643 17.406ZM68.4386 19.5197L69.4687 19.7257L70.2532 15.8034L69.2231 15.5973L68.4386 19.5197ZM67.8512 14.9764L67.0271 16.4185L70.5001 18.4031L71.3242 16.961L67.8512 14.9764ZM79.5727 22.8172L81.3784 17.1479L77.5671 15.9339L75.7613 21.6032L79.5727 22.8172ZM75.5073 23.7179L76.9238 24.1774L78.1579 20.3725L76.7413 19.9131L75.5073 23.7179ZM74.8279 18.9031L74.1488 21.1002L77.9704 22.2815L78.6495 20.0843L74.8279 18.9031ZM74.2846 20.7324L76.0899 21.2818L77.2546 17.4551L75.4493 16.9057L74.2846 20.7324ZM75.9743 21.6719L76.6531 19.4758L72.8315 18.2946L72.1527 20.4906L75.9743 21.6719ZM71.8777 22.5939L73.3356 23.0543L74.5401 19.2399L73.0822 18.7795L71.8777 22.5939ZM72.3149 14.2847L70.5091 19.954L74.3204 21.168L76.1262 15.4987L72.3149 14.2847ZM76.4073 13.3803L74.9482 12.9196L73.7437 16.7339L75.2028 17.1947L76.4073 13.3803ZM77.1442 18.0337L77.7787 16.0115L73.9621 14.8141L73.3276 16.8364L77.1442 18.0337ZM77.6899 16.1967L75.8846 15.6473L74.7199 19.474L76.5252 20.0234L77.6899 16.1967ZM75.9584 15.4229L75.3238 17.4457L79.1404 18.643L79.775 16.6203L75.9584 15.4229ZM80.0253 14.513L78.61 14.0539L77.376 17.8588L78.7913 18.3179L80.0253 14.513ZM85.5932 19.2464L83.073 24.6228L86.6949 26.3206L89.2151 20.9442L85.5932 19.2464ZM84.7388 20.9293L86.4952 21.7676L88.2181 18.1577L86.4617 17.3193L84.7388 20.9293ZM84.1452 23.3135L86.9006 20.5581L84.0722 17.7296L81.3167 20.4851L84.1452 23.3135ZM80.8454 17.762L80.5656 21.679L84.5554 21.964L84.8352 18.047L80.8454 17.762ZM80.1977 18.8286L81.9543 19.627L83.6095 15.9856L81.8529 15.1871L80.1977 18.8286ZM80.1842 23.2815L82.7043 17.9053L79.0825 16.2076L76.5624 21.5838L80.1842 23.2815ZM80.6567 21.4094L79.2752 20.757L77.5671 24.374L78.9487 25.0264L80.6567 21.4094ZM79.2926 19.8142L78.1231 22.3253L81.749 24.0141L82.9186 21.503L79.2926 19.8142ZM82.93 23.902L83.2815 20.9491L79.3096 20.4762L78.958 23.4291L82.93 23.902ZM83.0394 22.4941L81.8253 21.9458L80.179 25.5912L81.3931 26.1395L83.0394 22.4941ZM82.9279 20.7631L80.8805 22.9164L83.7793 25.6727L85.8267 23.5193L82.9279 20.7631ZM85.1782 25.62L86.3534 23.0968L82.7274 21.4079L81.5522 23.9312L85.1782 25.62ZM85.5834 23.7013L84.2458 23.0898L82.5828 26.7277L83.9203 27.3392L85.5834 23.7013ZM89.9747 25.765L91.8728 22.9389L88.5523 20.7087L86.6541 23.5348L89.9747 25.765ZM90.0539 25.4431C90.0524 25.5925 90.0231 25.6859 90.0161 25.7066C90.0088 25.7283 90.0131 25.7083 90.0509 25.6422L86.5779 23.6576C86.3291 24.093 86.0612 24.6994 86.0541 25.4028L90.0539 25.4431ZM89.5974 24.3748C89.5886 24.3689 89.6938 24.4359 89.8074 24.5917C89.9358 24.7676 90.0007 24.9532 90.0255 25.0947L86.0853 25.7841C86.249 26.7196 86.7999 27.3172 87.3786 27.703L89.5974 24.3748ZM88.8476 24.2486C89.1967 24.183 89.4647 24.2863 89.5974 24.3748L87.3786 27.703C88.025 28.1339 88.8068 28.3263 89.5863 28.1798L88.8476 24.2486ZM88.3406 24.4113C88.3006 24.4592 88.2862 24.4682 88.3014 24.456C88.3171 24.4434 88.3742 24.4002 88.4751 24.3588L89.9938 28.0593C90.6139 27.8048 91.0772 27.3755 91.4135 26.972L88.3406 24.4113ZM90.1145 21.751L88.2168 24.5765L91.5373 26.8067L93.435 23.9812L90.1145 21.751ZM94.2886 22.0186L93.0226 21.1746L90.8038 24.5028L92.0698 25.3468L94.2886 22.0186ZM92.9697 27.7617L94.8671 24.9368L91.5465 22.7065L89.6492 25.5314L92.9697 27.7617ZM91.0753 29.4772C91.8502 29.0897 92.5085 28.4875 92.9968 27.7203L89.6221 25.5728C89.5027 25.7605 89.3797 25.8528 89.2865 25.8994L91.0753 29.4772ZM88.4865 29.8665C89.461 30.0614 90.3505 29.8396 91.0753 29.4772L89.2865 25.8995C89.2111 25.9371 89.1789 25.9418 89.185 25.9407C89.1885 25.9401 89.1996 25.9385 89.2167 25.9386C89.2341 25.9387 89.2528 25.9406 89.2709 25.9442L88.4865 29.8665ZM86.4296 29.0229C87.1803 29.5485 87.9153 29.7523 88.4865 29.8665L89.2709 25.9442C88.974 25.8848 88.8408 25.8282 88.7234 25.746L86.4296 29.0229ZM84.8733 27.3574C85.2377 28.0133 85.7744 28.6356 86.5475 29.0994L88.6055 25.6695C88.551 25.6368 88.5111 25.603 88.4782 25.5678C88.4442 25.5315 88.4077 25.483 88.3699 25.4148L84.8733 27.3574ZM84.3711 24.9283C84.2875 25.7641 84.4564 26.607 84.8733 27.3574L88.3699 25.4148C88.3597 25.3965 88.3552 25.3822 88.3529 25.3711C88.3506 25.3599 88.3493 25.3455 88.3512 25.3263L84.3711 24.9283ZM85.2613 22.5855C84.79 23.2925 84.4515 24.0425 84.3694 24.9462L88.3529 25.3084C88.3576 25.2572 88.3663 25.1392 88.5895 24.8043L85.2613 22.5855ZM87.1621 19.7555L85.2651 22.5798L88.5857 24.81L90.4826 21.9858L87.1621 19.7555ZM91.3192 20.0375L90.0951 19.1959L87.8289 22.4921L89.0531 23.3337L91.3192 20.0375ZM91.5959 28.2811L90.6414 29.3884L93.671 32.0001L94.6256 30.8928L91.5959 28.2811ZM90.6396 29.9599L91.7907 30.9575L94.4104 27.9347L93.2593 26.9371L90.6396 29.9599ZM92.3685 30.872L93.3231 29.7647L90.2934 27.1529L89.3388 28.2602L92.3685 30.872ZM93.3248 29.1931L92.1738 28.1956L89.5541 31.2183L90.7051 32.2159L93.3248 29.1931ZM94.8605 24.5699L92.133 27.4627L95.0433 30.2068L97.7708 27.314L94.8605 24.5699ZM93.7412 26.2425L95.0136 27.3221L97.6015 24.2721L96.3291 23.1925L93.7412 26.2425ZM94.0332 29.0995L96.4713 25.9589L93.3117 23.506L90.8735 26.6466L94.0332 29.0995ZM94.7427 27.3157L93.7596 26.4839L91.1759 29.5375L92.1589 30.3693L94.7427 27.3157ZM90.8735 26.6466C90.1834 27.5356 90.3168 28.8105 91.1759 29.5375L93.7596 26.4839C94.5369 27.1416 94.6576 28.2952 94.0332 29.0995L90.8735 26.6466ZM96.3291 23.1925C95.4175 22.4189 94.0449 22.5615 93.3117 23.506L96.4713 25.9589C95.808 26.8133 94.5661 26.9424 93.7412 26.2425L96.3291 23.1925ZM92.133 27.4627C92.8256 26.7281 93.9719 26.6635 94.7427 27.3157L92.1589 30.3693C93.0108 31.0901 94.2778 31.0188 95.0433 30.2068L92.133 27.4627ZM97.7708 27.314C98.5961 26.4387 98.5188 25.0504 97.6015 24.2721L95.0136 27.3221C94.1837 26.6179 94.1138 25.3619 94.8605 24.5699L97.7708 27.314ZM89.3388 28.2602C88.583 29.137 88.6792 30.4601 89.5541 31.2183L92.1738 28.1956C92.9653 28.8815 93.0524 30.0787 92.3685 30.872L89.3388 28.2602ZM93.2593 26.9371C92.3812 26.1761 91.0521 26.2728 90.2934 27.1529L93.3231 29.7647C92.6366 30.5609 91.4341 30.6484 90.6396 29.9599L93.2593 26.9371ZM90.6414 29.3884C91.3278 28.5921 92.5304 28.5046 93.3248 29.1931L90.7051 32.2159C91.5832 32.9769 92.9123 32.8802 93.671 32.0001L90.6414 29.3884ZM94.6256 30.8928C95.3815 30.016 95.2852 28.6929 94.4104 27.9347L91.7907 30.9575C90.9992 30.2715 90.9121 29.0744 91.5959 28.2811L94.6256 30.8928ZM90.4826 21.9858C89.8931 22.8635 88.7003 23.0911 87.8289 22.4921L90.0951 19.1959C89.132 18.5338 87.8137 18.7853 87.1621 19.7555L90.4826 21.9858ZM92.0698 25.3468C91.1946 24.7633 90.96 23.5797 91.5465 22.7065L94.8671 24.9368C95.5153 23.9716 95.256 22.6635 94.2886 22.0186L92.0698 25.3468ZM93.435 23.9812C92.8514 24.8502 91.6748 25.0834 90.8038 24.5028L93.0226 21.1746C92.06 20.5328 90.7596 20.7906 90.1145 21.751L93.435 23.9812ZM89.5863 28.1798C89.7285 28.1531 89.8648 28.1122 89.9938 28.0593L88.4751 24.3588C88.5927 24.3105 88.7174 24.2731 88.8476 24.2486L89.5863 28.1798ZM86.0541 25.4028C86.0528 25.5342 86.0639 25.6618 86.0853 25.7841L90.0255 25.0947C90.045 25.2062 90.0551 25.3227 90.0539 25.4431L86.0541 25.4028ZM91.8728 22.9389C92.5145 21.9835 92.2676 20.6896 91.3192 20.0375L89.0531 23.3337C88.1951 22.7438 87.9717 21.5731 88.5523 20.7087L91.8728 22.9389ZM81.5522 23.9312C81.0601 24.9878 81.5227 26.2431 82.5828 26.7277L84.2458 23.0898C85.205 23.5283 85.6235 24.664 85.1782 25.62L81.5522 23.9312ZM85.8267 23.5193C84.3435 25.0793 81.8186 23.3593 82.7274 21.4079L86.3534 23.0968C87.3579 20.94 84.5673 19.039 82.9279 20.7631L85.8267 23.5193ZM81.3931 26.1395C82.2068 26.507 83.164 26.3198 83.7793 25.6727L80.8805 22.9164C81.4371 22.331 82.3031 22.1615 83.0394 22.4941L81.3931 26.1395ZM78.958 23.4291C78.8497 24.339 79.3439 25.2141 80.179 25.5912L81.8253 21.9458C82.5809 22.287 83.028 23.0787 82.93 23.902L78.958 23.4291ZM82.9186 21.503C82.0066 23.4612 79.0542 22.6212 79.3096 20.4762L83.2815 20.9491C83.5638 18.5783 80.3006 17.6499 79.2926 19.8142L82.9186 21.503ZM78.9487 25.0264C80.0014 25.5235 81.2575 25.0694 81.749 24.0141L78.1231 22.3253C78.5678 21.3705 79.7043 20.9597 80.6567 21.4094L78.9487 25.0264ZM76.5624 21.5838C76.0711 22.6318 76.5205 23.8798 77.5671 24.374L79.2752 20.757C80.2221 21.2042 80.6287 22.3333 80.1842 23.2815L76.5624 21.5838ZM81.8529 15.1871C80.8058 14.7112 79.5707 15.1661 79.0825 16.2076L82.7043 17.9053C82.2626 18.8476 81.1451 19.2592 80.1977 18.8286L81.8529 15.1871ZM84.8352 18.047C84.8977 17.1712 84.4088 16.3489 83.6095 15.9856L81.9543 19.627C81.2311 19.2983 80.7888 18.5543 80.8454 17.762L84.8352 18.047ZM81.3167 20.4851C82.5604 19.2414 84.6807 20.2096 84.5554 21.964L80.5656 21.679C80.4271 23.618 82.7706 24.6881 84.1452 23.3135L81.3167 20.4851ZM86.4617 17.3193C85.6587 16.9361 84.7014 17.1005 84.0722 17.7296L86.9006 20.5581C86.3314 21.1273 85.4653 21.276 84.7388 20.9293L86.4617 17.3193ZM78.6495 20.0843C78.993 18.9728 78.3675 17.7939 77.2546 17.4551L76.0899 21.2818C75.083 20.9754 74.5171 19.9087 74.8279 18.9031L78.6495 20.0843ZM76.7413 19.9131C77.7297 20.2336 78.2772 21.2887 77.9704 22.2815L74.1488 21.1002C73.8096 22.1975 74.4148 23.3636 75.5073 23.7179L76.7413 19.9131ZM69.2231 15.5973C70.4947 15.8517 71.1435 17.2771 70.5001 18.4031L67.0271 16.4185C66.316 17.6631 67.0331 19.2385 68.4386 19.5197L69.2231 15.5973ZM71.7583 15.7578C71.508 13.7553 68.8525 13.2242 67.8512 14.9764L71.3242 16.961C70.4183 18.5463 68.0157 18.0658 67.7892 16.254L71.7583 15.7578ZM67.9952 17.9021C67.8344 16.6153 68.9815 15.549 70.2532 15.8034L69.4687 19.7257C70.8742 20.0068 72.1421 18.8283 71.9643 17.406L67.9952 17.9021ZM67.0679 21.5637C67.9666 21.7391 68.8752 21.312 69.3137 20.5082L65.8021 18.5928C66.1988 17.8656 67.0209 17.4791 67.834 17.6378L67.0679 21.5637ZM73.1125 13.8641C72.9773 12.9936 72.3131 12.3001 71.4493 12.1273L70.6648 16.0497C69.8833 15.8934 69.2824 15.2659 69.16 14.4783L73.1125 13.8641ZM71.601 22.462C73.0297 22.7408 74.3018 21.5168 74.0783 20.0784L70.1257 20.6926C69.9235 19.3913 71.0744 18.2838 72.3671 18.536L71.601 22.462ZM68.3583 20.4261C68.4975 21.2961 69.165 21.9867 70.0298 22.1554L70.7958 18.2295C71.5782 18.3821 72.1821 19.007 72.3081 19.7941L68.3583 20.4261ZM68.516 16.715C67.6124 16.5306 66.6941 16.9574 66.2525 17.767L69.7641 19.6824C69.3645 20.415 68.5338 20.8011 67.7162 20.6342L68.516 16.715ZM69.7029 21.0397C68.9277 20.8815 68.3316 20.2595 68.2067 19.4782L72.1564 18.8463C72.0183 17.9828 71.3595 17.2953 70.5027 17.1205L69.7029 21.0397ZM66.4119 13.3278C66.2781 14.3683 65.3264 15.1035 64.2858 14.9701L64.7945 11.0026C63.6444 10.8551 62.5924 11.6677 62.4446 12.8177L66.4119 13.3278ZM64.0132 17.0795C65.0543 17.2129 65.7899 18.1653 65.6561 19.2063L61.6887 18.6962C61.5408 19.8469 62.3539 20.8995 63.5046 21.047L64.0132 17.0795ZM68.1047 13.5449C68.2527 12.3943 67.4396 11.3417 66.2889 11.1942L65.7803 15.1617C64.7392 15.0282 64.0035 14.0759 64.1374 13.0348L68.1047 13.5449ZM63.3816 18.9133C63.5154 17.8728 64.4671 17.1377 65.5077 17.2711L64.999 21.2386C66.1491 21.386 67.2011 20.5735 67.3489 19.4234L63.3816 18.9133ZM18.4713 26.25C19.4963 25.4385 21.0156 25.8806 21.4452 27.1154L17.6672 28.4295C18.1419 29.7943 19.8211 30.2831 20.9541 29.3861L18.4713 26.25ZM20.276 24.4192C18.6022 23.2894 16.4542 24.9423 17.1176 26.8496L20.8956 25.5356C21.4958 27.2612 19.5525 28.7568 18.0381 27.7346L20.276 24.4192ZM19.4119 28.6619C18.3465 27.9427 18.2877 26.3952 19.2956 25.5974L21.7784 28.7336C22.8923 27.8517 22.8274 26.1413 21.6498 25.3465L19.4119 28.6619ZM21.5655 31.7776C22.2689 31.2233 22.5435 30.284 22.2493 29.4381L18.4713 30.7522C18.2051 29.9869 18.4535 29.1371 19.09 28.6356L21.5655 31.7776ZM17 31.7532C17.4411 33.1549 19.1485 33.6818 20.3028 32.7724L17.8273 29.6304C18.8717 28.8076 20.4165 29.2843 20.8156 30.5525L17 31.7532ZM15.825 23.4626C15.1324 24.0012 14.8477 24.9137 15.1111 25.7506L18.9266 24.5499C19.1649 25.3071 18.9073 26.1326 18.2807 26.62L15.825 23.4626ZM19.6701 22.2031C18.9239 21.7426 17.9701 21.7942 17.2779 22.3325L19.7337 25.4899C19.1074 25.977 18.2444 26.0237 17.5693 25.607L19.6701 22.2031ZM25.242 28.9572C26.388 28.0543 26.2868 26.2868 25.0453 25.5206L22.9445 28.9245C21.8212 28.2313 21.7297 26.6321 22.7665 25.8152L25.242 28.9572ZM21.5144 30.0501C22.2706 30.5542 23.2651 30.5147 23.9789 29.9523L21.5035 26.8104C22.1493 26.3015 23.0491 26.2658 23.7332 26.7219L21.5144 30.0501ZM18.8681 27.5393C18.1554 28.0917 17.8748 29.0374 18.1711 29.8891L21.949 28.575C22.2171 29.3455 21.9632 30.2012 21.3184 30.701L18.8681 27.5393ZM22.941 29.4435C22.2955 29.9437 21.4026 29.9755 20.7231 29.5226L22.9419 26.1944C22.191 25.6937 21.2041 25.7289 20.4907 26.2818L22.941 29.4435ZM27.3458 25.4282C27.9039 26.4563 29.1945 26.8302 30.2158 26.2595L28.2645 22.7677C29.1884 22.2514 30.3562 22.5896 30.8612 23.5198L27.3458 25.4282ZM29.5812 21.7815C29.9651 23.906 27.0716 24.9231 26.0416 23.0259L29.557 21.1175C28.4187 19.0205 25.2206 20.1447 25.6449 22.4929L29.5812 21.7815ZM29.0303 26.9263C29.8351 26.4971 30.2708 25.5974 30.1086 24.6999L26.1723 25.4112C26.0256 24.5992 26.4198 23.7852 27.1479 23.3969L29.0303 26.9263ZM25.4208 27.2215C26.0765 27.8449 27.0578 27.9783 27.8561 27.5525L25.9737 24.0231C26.696 23.6379 27.5838 23.7586 28.1771 24.3227L25.4208 27.2215ZM26.2633 22.9065C27.296 24.8089 24.853 26.6816 23.2842 25.19L26.0405 22.2911C24.3066 20.6425 21.6064 22.7123 22.7478 24.8149L26.2633 22.9065ZM26.7192 28.1481C27.7385 27.5947 28.1162 26.3199 27.5629 25.3006L24.0475 27.209C23.5468 26.2867 23.8886 25.1333 24.8108 24.6327L26.7192 28.1481ZM22.5322 28.0417C23.0882 29.0556 24.3591 29.4292 25.3754 28.8776L23.467 25.3622C24.3864 24.863 25.5364 25.2011 26.0394 26.1184L22.5322 28.0417ZM20.5092 19.9828C19.4915 20.5401 19.1186 21.8171 19.6765 22.8344L23.1838 20.9111C23.6886 21.8315 23.3512 22.9869 22.4304 23.4911L20.5092 19.9828ZM24.5659 19.3194C23.9027 18.7457 22.9527 18.6446 22.1836 19.0658L24.1048 22.5742C23.4089 22.9553 22.5495 22.8638 21.9493 22.3448L24.5659 19.3194ZM24.3994 23.5852C24.1482 21.8446 26.1927 20.7263 27.5228 21.8767L24.9062 24.9021C26.3763 26.1736 28.636 24.9375 28.3584 23.0138L24.3994 23.5852ZM30.9486 17.4984C31.9101 17.1245 32.9943 17.5861 33.3911 18.5384L29.6988 20.0769C30.1374 21.1294 31.3357 21.6397 32.3984 21.2264L30.9486 17.4984ZM34.7176 22.0072C35.0497 23.109 36.2067 23.7382 37.3121 23.4183L36.1999 19.576C37.2 19.2865 38.2468 19.8558 38.5473 20.8527L34.7176 22.0072ZM34.4224 13.6721C33.2996 13.9972 32.6583 15.1764 32.9957 16.2955L36.8254 15.1409C37.1307 16.1534 36.5504 17.2203 35.5346 17.5144L34.4224 13.6721ZM36.3664 21.5276C36.0611 20.5151 36.6414 19.4482 37.6572 19.1541L38.7694 22.9964C39.8922 22.6714 40.5335 21.4922 40.1961 20.3731L36.3664 21.5276ZM38.4742 14.6613C38.1421 13.5595 36.985 12.9303 35.8797 13.2503L36.9919 17.0925C35.9918 17.382 34.945 16.8127 34.6445 15.8159L38.4742 14.6613ZM39.716 16.3752C38.696 16.6168 37.6731 15.9867 37.4299 14.9672L41.3208 14.0391C41.052 12.9122 39.9214 12.2159 38.7941 12.4829L39.716 16.3752ZM39.6718 14.432C39.9143 15.4534 39.2825 16.4778 38.2611 16.7198L37.3392 12.8275C36.2102 13.0948 35.512 14.2271 35.78 15.356L39.6718 14.432ZM38.7537 18.8643C39.7789 18.6111 40.8138 19.2425 41.0578 20.27L37.1659 21.1939C37.4356 22.3296 38.5794 23.0274 39.7126 22.7476L38.7537 18.8643ZM40.6836 20.3346C40.4383 19.3183 41.0601 18.2948 42.0751 18.0442L43.0339 21.9275C44.1557 21.6506 44.843 20.5193 44.5719 19.396L40.6836 20.3346ZM40.1246 17.1668C41.1426 16.93 42.1606 17.5599 42.4031 18.5765L38.5123 19.5046C38.7803 20.6283 39.9055 21.3244 41.0306 21.0628L40.1246 17.1668ZM42.7037 20.6737C41.6876 20.91 40.6711 20.2829 40.4263 19.2689L44.3147 18.3304C44.0441 17.2096 42.9206 16.5165 41.7976 16.7777L42.7037 20.6737ZM46.4702 19.151C46.6121 20.3065 47.6668 21.126 48.8215 20.978L48.3129 17.0105C49.3576 16.8765 50.3119 17.618 50.4403 18.6634L46.4702 19.151ZM48.3511 18.5267C47.2961 18.6805 46.321 17.9364 46.191 16.8782L50.1612 16.3906C50.0176 15.221 48.9399 14.3985 47.7738 14.5685L48.3511 18.5267ZM48.0772 16.69C48.203 17.7149 47.4873 18.6526 46.4655 18.8017L45.8883 14.8435C44.7589 15.0082 43.9679 16.0447 44.107 17.1775L48.0772 16.69ZM46.5397 21.3073C47.6857 21.1603 48.4978 20.1152 48.357 18.9683L44.3868 19.4559C44.2594 18.4183 44.9941 17.4727 46.031 17.3397L46.5397 21.3073ZM42.6946 19.6819C42.8415 20.8328 43.8939 21.6465 45.0447 21.4989L44.5361 17.5314C45.5773 17.3979 46.5295 18.1341 46.6624 19.1754L42.6946 19.6819ZM43.7547 11.4111C42.6047 11.5586 41.7918 12.61 41.9386 13.76L45.9064 13.2535C46.0392 14.294 45.3037 15.2453 44.2633 15.3787L43.7547 11.4111ZM47.5985 13.0275C47.4471 11.8807 46.3968 11.0724 45.2495 11.2195L45.7582 15.187C44.7202 15.3201 43.77 14.5887 43.633 13.5512L47.5985 13.0275ZM45.757 13.4942C46.7931 13.3647 47.7396 14.0956 47.8763 15.1308L43.9107 15.6545C44.0619 16.7987 45.108 17.6065 46.2531 17.4633L45.757 13.4942ZM48.1639 18.9458C48.0301 17.9048 48.7657 16.9524 49.8068 16.8189L50.3154 20.7865C51.4661 20.6389 52.2792 19.5863 52.1313 18.4357L48.1639 18.9458ZM51.3754 12.5572C51.2276 11.4072 50.1756 10.5946 49.0255 10.7421L49.5342 14.7096C48.4937 14.843 47.5419 14.1078 47.4081 13.0673L51.3754 12.5572ZM51.1378 15.6837C50.7511 17.052 51.8075 18.401 53.2286 18.3536L53.0953 14.3559C54.3811 14.313 55.3369 15.5335 54.987 16.7715L51.1378 15.6837ZM24.928 17.5576C24.1487 17.9745 23.7138 18.8346 23.84 19.7093L27.799 19.1379C27.9132 19.9294 27.5197 20.7076 26.8146 21.0848L24.928 17.5576ZM83.073 24.6228C83.5154 23.6791 84.6355 23.2679 85.5834 23.7013L83.9203 27.3392C84.968 27.8181 86.2059 27.3636 86.6949 26.3206L83.073 24.6228ZM52.4071 16.8921C51.947 15.6743 52.8201 14.365 54.1212 14.3217L54.2544 18.3194C55.6924 18.2715 56.6574 16.8244 56.1489 15.4785L52.4071 16.8921ZM28.8262 24.613C28.3245 23.6981 28.6545 22.5498 29.5653 22.0408L31.5166 25.5326C32.5233 24.97 32.888 23.7008 32.3335 22.6896L28.8262 24.613ZM89.2151 20.9442C89.7049 19.8992 89.2597 18.6548 88.2181 18.1577L86.4952 21.7676C85.5529 21.3178 85.15 20.1919 85.5932 19.2464L89.2151 20.9442ZM55.5676 13.9397C54.8518 12.045 52.1331 12.1616 51.5823 14.1107L55.4315 15.1986C54.9332 16.962 52.4734 17.0676 51.8257 15.3533L55.5676 13.9397ZM29.4772 17.481C28.9236 16.4716 27.6605 16.096 26.6454 16.639L28.532 20.1662C27.6135 20.6574 26.4707 20.3176 25.9699 19.4043L29.4772 17.481ZM79.775 16.6203C79.4587 17.6283 78.3809 18.1848 77.376 17.8588L78.61 14.0539C77.4992 13.6937 76.3079 14.3087 75.9584 15.4229L79.775 16.6203ZM55.2167 16.6153C56.0156 16.5958 56.7412 17.0783 57.0324 17.8224L53.3075 19.28C53.6293 20.1025 54.4313 20.6357 55.3143 20.6141L55.2167 16.6153ZM76.5252 20.0234C77.6281 20.3591 78.7953 19.743 79.1404 18.643L75.3238 17.4457C75.636 16.4505 76.6921 15.8931 77.6899 16.1967L76.5252 20.0234ZM55.0661 19.1866C54.5704 17.9562 55.4561 16.6095 56.7821 16.5771L56.8797 20.5759C58.3453 20.5402 59.3242 19.0517 58.7763 17.6918L55.0661 19.1866ZM30.4993 22.1762C30.908 23.2662 32.1253 23.8157 33.2132 23.4013L31.7892 19.6633C32.7734 19.2884 33.8748 19.7856 34.2446 20.7717L30.4993 22.1762ZM73.3276 16.8364C72.9784 17.9497 73.6036 19.1342 74.7199 19.474L75.8846 15.6473C76.8945 15.9547 77.4602 17.0264 77.1442 18.0337L73.3276 16.8364ZM54.5197 14.5406C53.7293 14.5582 53.0106 14.0844 52.7151 13.3511L56.4253 11.8563C56.0988 11.0458 55.3044 10.5222 54.4308 10.5416L54.5197 14.5406ZM31.3975 18.6219C30.3177 19.0333 29.7731 20.2398 30.1788 21.3217L33.9242 19.9172C34.2912 20.8961 33.7985 21.9877 32.8215 22.3599L31.3975 18.6219ZM75.2028 17.1947C74.2035 16.8791 73.6484 15.814 73.9621 14.8141L77.7787 16.0115C78.1254 14.9063 77.5118 13.7291 76.4073 13.3803L75.2028 17.1947ZM54.469 13.2746C54.2176 14.0396 53.5113 14.563 52.7062 14.5809L52.6174 10.5819C51.7276 10.6017 50.9469 11.1802 50.669 12.0257L54.469 13.2746ZM76.1262 15.4987C75.8083 16.4968 74.7425 17.0493 73.7437 16.7339L74.9482 12.9196C73.8442 12.5709 72.6662 13.1816 72.3149 14.2847L76.1262 15.4987ZM50.6439 16.7872C51.9566 16.7552 52.9053 18.0325 52.4953 19.2799L48.6953 18.0309C48.2421 19.4096 49.2906 20.8214 50.7415 20.786L50.6439 16.7872ZM81.3784 17.1479C81.7291 16.0469 81.1245 14.8695 80.0253 14.513L78.7913 18.3179C77.7969 17.9953 77.2498 16.93 77.5671 15.9339L81.3784 17.1479ZM61.3537 14.2717C61.2947 15.3352 60.373 16.1424 59.3109 16.0607L59.6177 12.0725C58.4439 11.9822 57.4252 12.8743 57.3599 14.0498L61.3537 14.2717ZM32.5562 17.6566C31.8562 18.5737 32.1767 19.5501 32.3386 19.8913C32.5038 20.2397 33.0376 21.0632 34.1417 21.1359L34.4046 17.1445C34.9261 17.1789 35.2995 17.4133 35.5109 17.5969C35.7253 17.7831 35.8645 17.9913 35.9526 18.1771C36.0404 18.3622 36.1169 18.6081 36.1233 18.904C36.1296 19.1992 36.064 19.6536 35.7357 20.0836L32.5562 17.6566ZM75.7613 21.6032C76.081 20.5996 77.156 20.0476 78.1579 20.3725L76.9238 24.1774C78.0312 24.5365 79.2194 23.9264 79.5727 22.8172L75.7613 21.6032ZM59.4399 15.1974C60.4704 15.2767 61.2485 16.1652 61.1912 17.1972L57.1974 16.9753C57.134 18.1159 57.994 19.098 59.1331 19.1856L59.4399 15.1974ZM73.0822 18.7795C74.0846 19.0961 74.6395 20.1664 74.3204 21.168L70.5091 19.954C70.1565 21.061 70.7698 22.244 71.8777 22.5939L73.0822 18.7795ZM50.4311 18.1165C50.6628 17.3222 51.3817 16.7692 52.2088 16.749L52.3063 20.7478C53.2205 20.7255 54.0151 20.1143 54.2711 19.2365L50.4311 18.1165ZM45.9941 15.3927C45.856 14.3473 46.5957 13.3894 47.642 13.2586L48.1382 17.2277C49.2947 17.0831 50.1122 16.0244 49.9596 14.869L45.9941 15.3927ZM31.0104 17.1217C31.3912 18.1074 30.8946 19.2145 29.9052 19.5855L28.5007 15.8402C27.4071 16.2503 26.8582 17.4739 27.2792 18.5633L31.0104 17.1217ZM64.1171 18.0941C63.3463 19.343 64.0616 20.9771 65.502 21.2582L66.268 17.3322C67.5713 17.5865 68.2184 19.065 67.521 20.195L64.1171 18.0941ZM55.3746 18.4038C55.3092 19.564 56.1985 20.5567 57.3589 20.6189L57.5729 16.6246C58.6228 16.6809 59.4274 17.5791 59.3683 18.6288L55.3746 18.4038ZM75.4493 16.9057C74.3431 16.569 73.1729 17.1899 72.8315 18.2946L76.6531 19.4758C76.3441 20.4753 75.2854 21.037 74.2846 20.7324L75.4493 16.9057ZM52.6264 15.7036C51.7248 15.7397 50.947 16.3477 50.6944 17.2139L54.5344 18.3339C54.3058 19.1177 53.6021 19.6678 52.7863 19.7004L52.6264 15.7036ZM30.519 16.4549C29.4198 16.8824 28.888 18.1311 29.3417 19.2198L33.034 17.6813C33.4444 18.6664 32.9633 19.7961 31.9688 20.1829L30.519 16.4549ZM72.1527 20.4906C72.4639 19.4838 73.5351 18.9226 74.5401 19.2399L73.3356 23.0543C74.4463 23.405 75.6303 22.7847 75.9743 21.6719L72.1527 20.4906ZM54.8136 19.6193C54.0043 19.6517 53.2634 19.1675 52.9683 18.4132L56.6933 16.9556C56.367 16.122 55.5482 15.5867 54.6537 15.6225L54.8136 19.6193ZM47.5314 10.9336C46.3779 11.0815 45.5643 12.1386 45.7165 13.2915L49.6821 12.7678C49.8199 13.8109 49.0837 14.7673 48.0401 14.9011L47.5314 10.9336ZM30.7065 21.5724C31.6832 21.2025 32.7755 21.6902 33.1519 22.6645L29.4207 24.1061C29.8367 25.1829 31.0439 25.722 32.1234 25.3131L30.7065 21.5724ZM69.6327 11.764C68.7719 11.5919 67.8948 11.9733 67.4338 12.7203L70.8377 14.8211C70.4205 15.497 69.627 15.8421 68.8482 15.6863L69.6327 11.764ZM57.9196 10.4609C56.7638 10.399 55.7757 11.2841 55.7106 12.4398L59.7043 12.6648C59.6454 13.7104 58.7514 14.5112 57.7056 14.4552L57.9196 10.4609Z" fill="white" mask="url(#path-13-outside-2_1_106)"/>
<rect x="79.4999" y="70" width="19" height="19" rx="9.5" fill="white"/>
<path d="M86.9999 83.5L90.9999 79.5L86.9999 75.5" stroke="#0055B8" stroke-width="2" stroke-linecap="round" stroke-linejoin="round"/>
<rect x="79.4999" y="70" width="19" height="19" rx="9.5" stroke="#F5F7F9"/>
</g>
<defs>
<filter id="filter0_d_1_106" x="0" y="0" width="114" height="110" filterUnits="userSpaceOnUse" color-interpolation-filters="sRGB">
<feFlood flood-opacity="0" result="BackgroundImageFix"/>
<feColorMatrix in="SourceAlpha" type="matrix" values="0 0 0 0 0 0 0 0 0 0 0 0 0 0 0 0 0 0 127 0" result="hardAlpha"/>
<feOffset dy="5"/>
<feGaussianBlur stdDeviation="7.5"/>
<feComposite in2="hardAlpha" operator="out"/>
<feColorMatrix type="matrix" values="0 0 0 0 0 0 0 0 0 0 0 0 0 0 0 0 0 0 0.15 0"/>
<feBlend mode="normal" in2="BackgroundImageFix" result="effect1_dropShadow_1_106"/>
<feBlend mode="normal" in="SourceGraphic" in2="effect1_dropShadow_1_106" result="shape"/>
</filter>
<filter id="filter1_d_1_106" x="20.8416" y="11.8777" width="84.2377" height="79.8517" filterUnits="userSpaceOnUse" color-interpolation-filters="sRGB">
<feFlood flood-opacity="0" result="BackgroundImageFix"/>
<feColorMatrix in="SourceAlpha" type="matrix" values="0 0 0 0 0 0 0 0 0 0 0 0 0 0 0 0 0 0 127 0" result="hardAlpha"/>
<feOffset dy="3"/>
<feGaussianBlur stdDeviation="5"/>
<feComposite in2="hardAlpha" operator="out"/>
<feColorMatrix type="matrix" values="0 0 0 0 0 0 0 0 0 0 0 0 0 0 0 0 0 0 0.1 0"/>
<feBlend mode="normal" in2="BackgroundImageFix" result="effect1_dropShadow_1_106"/>
<feBlend mode="normal" in="SourceGraphic" in2="effect1_dropShadow_1_106" result="shape"/>
</filter>
<filter id="filter2_d_1_106" x="42.3606" y="21.8777" width="14.1981" height="11.1382" filterUnits="userSpaceOnUse" color-interpolation-filters="sRGB">
<feFlood flood-opacity="0" result="BackgroundImageFix"/>
<feColorMatrix in="SourceAlpha" type="matrix" values="0 0 0 0 0 0 0 0 0 0 0 0 0 0 0 0 0 0 127 0" result="hardAlpha"/>
<feOffset dy="1"/>
<feComposite in2="hardAlpha" operator="out"/>
<feColorMatrix type="matrix" values="0 0 0 0 0.572549 0 0 0 0 0.231373 0 0 0 0 0.235294 0 0 0 1 0"/>
<feBlend mode="normal" in2="BackgroundImageFix" result="effect1_dropShadow_1_106"/>
<feBlend mode="normal" in="SourceGraphic" in2="effect1_dropShadow_1_106" result="shape"/>
</filter>
<filter id="filter3_d_1_106" x="56.6073" y="21.8777" width="14.1965" height="11.1382" filterUnits="userSpaceOnUse" color-interpolation-filters="sRGB">
<feFlood flood-opacity="0" result="BackgroundImageFix"/>
<feColorMatrix in="SourceAlpha" type="matrix" values="0 0 0 0 0 0 0 0 0 0 0 0 0 0 0 0 0 0 127 0" result="hardAlpha"/>
<feOffset dy="1"/>
<feComposite in2="hardAlpha" operator="out"/>
<feColorMatrix type="matrix" values="0 0 0 0 0.572549 0 0 0 0 0.231373 0 0 0 0 0.235294 0 0 0 1 0"/>
<feBlend mode="normal" in2="BackgroundImageFix" result="effect1_dropShadow_1_106"/>
<feBlend mode="normal" in="SourceGraphic" in2="effect1_dropShadow_1_106" result="shape"/>
</filter>
</defs>
</svg>
