<svg width="18" height="14" viewBox="0 0 18 14" fill="none" xmlns="http://www.w3.org/2000/svg">
<path d="M2.98441 7.73952V10.0211C2.98441 10.6139 3.30327 11.166 3.81345 11.4502L7.79926 13.6668C8.27756 13.9348 8.85152 13.9348 9.32982 13.6668L13.3156 11.4502C13.8258 11.166 14.1447 10.6139 14.1447 10.0211V7.73952L9.32982 10.419C8.85152 10.6869 8.27756 10.6869 7.79926 10.419L2.98441 7.73952ZM7.79926 0.528366L1.07919 4.26338C0.529146 4.57193 0.529146 5.38389 1.07919 5.69243L7.79926 9.42744C8.27756 9.69539 8.85152 9.69539 9.32982 9.42744L15.739 5.86294V10.6616C15.739 11.1082 16.0977 11.4736 16.5362 11.4736C16.9746 11.4736 17.3333 11.1082 17.3333 10.6616V5.45696C17.3333 5.15654 17.1739 4.88859 16.9188 4.74244L9.32982 0.528366C9.09429 0.400422 8.83147 0.333496 8.56454 0.333496C8.29761 0.333496 8.03479 0.400422 7.79926 0.528366Z" fill="#D92037"/>
</svg>
