<svg width="18" height="14" viewBox="0 0 18 14" fill="none" xmlns="http://www.w3.org/2000/svg">
<path d="M2.98441 7.73928V10.0209C2.98441 10.6136 3.30327 11.1658 3.81345 11.4499L7.79926 13.6666C8.27756 13.9345 8.85152 13.9345 9.32982 13.6666L13.3156 11.4499C13.8258 11.1658 14.1447 10.6136 14.1447 10.0209V7.73928L9.32982 10.4187C8.85152 10.6867 8.27756 10.6867 7.79926 10.4187L2.98441 7.73928ZM7.79926 0.528122L1.07919 4.26314C0.529146 4.57168 0.529146 5.38364 1.07919 5.69219L7.79926 9.4272C8.27756 9.69515 8.85152 9.69515 9.32982 9.4272L15.739 5.8627V10.6614C15.739 11.108 16.0977 11.4733 16.5362 11.4733C16.9746 11.4733 17.3333 11.108 17.3333 10.6614V5.45672C17.3333 5.15629 17.1739 4.88835 16.9188 4.74219L9.32982 0.528122C9.09429 0.400178 8.83147 0.333252 8.56454 0.333252C8.29761 0.333252 8.03479 0.400178 7.79926 0.528122Z" fill="#868E96"/>
</svg>
