<svg width="16" height="16" viewBox="0 0 16 16" fill="none" xmlns="http://www.w3.org/2000/svg">
<path d="M7.1998 4.80039C7.1998 6.12587 6.12529 7.20039 4.7998 7.20039C3.47432 7.20039 2.3998 6.12587 2.3998 4.80039C2.3998 3.47491 3.47432 2.40039 4.7998 2.40039C6.12529 2.40039 7.1998 3.47491 7.1998 4.80039Z" fill="#0055B8"/>
<path d="M13.5998 4.80039C13.5998 6.12587 12.5253 7.20039 11.1998 7.20039C9.87432 7.20039 8.7998 6.12587 8.7998 4.80039C8.7998 3.47491 9.87432 2.40039 11.1998 2.40039C12.5253 2.40039 13.5998 3.47491 13.5998 4.80039Z" fill="#0055B8"/>
<path d="M10.3431 13.6004C10.3805 13.3391 10.3998 13.072 10.3998 12.8004C10.3998 11.4922 9.95128 10.2889 9.19961 9.33564C9.788 8.99523 10.4712 8.80039 11.1998 8.80039C13.409 8.80039 15.1998 10.5913 15.1998 12.8004V13.6004H10.3431Z" fill="#0055B8"/>
<path d="M4.7998 8.80039C7.00894 8.80039 8.7998 10.5913 8.7998 12.8004V13.6004H0.799805V12.8004C0.799805 10.5913 2.59067 8.80039 4.7998 8.80039Z" fill="#0055B8"/>
</svg>
