<svg width="16" height="16" viewBox="0 0 16 16" fill="none" xmlns="http://www.w3.org/2000/svg">
<path fill-rule="evenodd" clip-rule="evenodd" d="M10.3907 2C10.6407 1.75004 10.9798 1.60962 11.3333 1.60962C11.6869 1.60962 12.026 1.75004 12.276 2L14 3.724C14.25 3.97404 14.3904 4.31312 14.3904 4.66667C14.3904 5.02022 14.25 5.3593 14 5.60933L12.9427 6.66667L9.33333 3.05733L10.3907 2ZM8.39067 4L2.39067 10C2.1406 10.25 2.00008 10.5891 2 10.9427V12.6667C2 13.0203 2.14048 13.3594 2.39052 13.6095C2.64057 13.8595 2.97971 14 3.33333 14H5.05733C5.41093 13.9999 5.75001 13.8594 6 13.6093L12 7.60933L8.39067 4Z" fill="#0055B8"/>
</svg>
