<svg width="24" height="24" viewBox="0 0 16 16" fill="none" xmlns="http://www.w3.org/2000/svg">
<path fill-rule="evenodd" clip-rule="evenodd" d="M1.3335 8.00016C1.3335 4.31816 4.31816 1.3335 8.00016 1.3335C11.6822 1.3335 14.6668 4.31816 14.6668 8.00016C14.6668 11.6822 11.6822 14.6668 8.00016 14.6668C4.31816 14.6668 1.3335 11.6822 1.3335 8.00016ZM8.66683 4.66683C8.66683 4.49002 8.59659 4.32045 8.47157 4.19542C8.34654 4.0704 8.17697 4.00016 8.00016 4.00016C7.82335 4.00016 7.65378 4.0704 7.52876 4.19542C7.40373 4.32045 7.3335 4.49002 7.3335 4.66683V7.17616C7.33351 7.54753 7.43692 7.91156 7.63214 8.22747C7.82736 8.54339 8.10669 8.7987 8.43883 8.96483L10.3688 9.9295C10.4474 9.97187 10.5337 9.99803 10.6226 10.0064C10.7115 10.0148 10.8011 10.0053 10.8863 9.97835C10.9714 9.95143 11.0503 9.90768 11.1182 9.8497C11.1861 9.79173 11.2416 9.72071 11.2815 9.64085C11.3215 9.561 11.3449 9.47393 11.3506 9.38483C11.3562 9.29572 11.3439 9.2064 11.3144 9.12214C11.2848 9.03789 11.2387 8.96043 11.1786 8.89435C11.1186 8.82828 11.0459 8.77494 10.9648 8.7375L9.0355 7.77216C8.92478 7.71684 8.83164 7.63178 8.76653 7.52651C8.70142 7.42125 8.66689 7.29994 8.66683 7.17616V4.66683Z" fill="#0055B8"/>
</svg>
