<svg width="16" height="16" viewBox="0 0 16 16" fill="none" xmlns="http://www.w3.org/2000/svg">
<path fill-rule="evenodd" clip-rule="evenodd" d="M1.33398 7.99967C1.33398 4.31767 4.31865 1.33301 8.00065 1.33301C11.6827 1.33301 14.6673 4.31767 14.6673 7.99967C14.6673 11.6817 11.6827 14.6663 8.00065 14.6663C4.31865 14.6663 1.33398 11.6817 1.33398 7.99967ZM8.66732 4.66634C8.66732 4.48953 8.59708 4.31996 8.47205 4.19494C8.34703 4.06991 8.17746 3.99967 8.00065 3.99967C7.82384 3.99967 7.65427 4.06991 7.52925 4.19494C7.40422 4.31996 7.33398 4.48953 7.33398 4.66634V7.17567C7.334 7.54704 7.43741 7.91107 7.63263 8.22698C7.82785 8.5429 8.10718 8.79822 8.43932 8.96434L10.3693 9.92901C10.4479 9.97138 10.5342 9.99754 10.6231 10.0059C10.712 10.0143 10.8016 10.0048 10.8868 9.97786C10.9719 9.95094 11.0507 9.90719 11.1186 9.84922C11.1865 9.79124 11.2421 9.72022 11.282 9.64036C11.322 9.56051 11.3454 9.47344 11.3511 9.38434C11.3567 9.29524 11.3444 9.20591 11.3149 9.12165C11.2853 9.0374 11.2392 8.95994 11.1791 8.89386C11.1191 8.82779 11.0464 8.77445 10.9653 8.73701L9.03598 7.77167C8.92526 7.71635 8.83213 7.63129 8.76702 7.52602C8.70191 7.42076 8.66738 7.29945 8.66732 7.17567V4.66634Z" fill="#A5B0BB"/>
</svg>
