<svg width="16" height="16" viewBox="0 0 16 16" fill="none" xmlns="http://www.w3.org/2000/svg">
<path fill-rule="evenodd" clip-rule="evenodd" d="M4.8001 1.6001C4.35827 1.6001 4.0001 1.95827 4.0001 2.4001V3.2001H3.2001C2.31644 3.2001 1.6001 3.91644 1.6001 4.8001V12.8001C1.6001 13.6838 2.31644 14.4001 3.2001 14.4001H12.8001C13.6838 14.4001 14.4001 13.6838 14.4001 12.8001V4.8001C14.4001 3.91644 13.6838 3.2001 12.8001 3.2001H12.0001V2.4001C12.0001 1.95827 11.6419 1.6001 11.2001 1.6001C10.7583 1.6001 10.4001 1.95827 10.4001 2.4001V3.2001H5.6001V2.4001C5.6001 1.95827 5.24193 1.6001 4.8001 1.6001ZM4.8001 5.6001C4.35827 5.6001 4.0001 5.95827 4.0001 6.4001C4.0001 6.84193 4.35827 7.2001 4.8001 7.2001H11.2001C11.6419 7.2001 12.0001 6.84193 12.0001 6.4001C12.0001 5.95827 11.6419 5.6001 11.2001 5.6001H4.8001Z" fill="#0055B8"/>
</svg>
