<svg width="16" height="16" viewBox="0 0 16 16" fill="none" xmlns="http://www.w3.org/2000/svg">
<path d="M8.00004 11.333C8.18893 11.333 8.34737 11.269 8.47537 11.141C8.60293 11.0135 8.66671 10.8552 8.66671 10.6663V7.98301C8.66671 7.79412 8.60293 7.63856 8.47537 7.51634C8.34737 7.39412 8.18893 7.33301 8.00004 7.33301C7.81115 7.33301 7.65293 7.39679 7.52537 7.52434C7.39737 7.65234 7.33337 7.81079 7.33337 7.99967V10.683C7.33337 10.8719 7.39737 11.0275 7.52537 11.1497C7.65293 11.2719 7.81115 11.333 8.00004 11.333ZM8.00004 5.99967C8.18893 5.99967 8.34737 5.93567 8.47537 5.80767C8.60293 5.68012 8.66671 5.5219 8.66671 5.33301C8.66671 5.14412 8.60293 4.98567 8.47537 4.85767C8.34737 4.73012 8.18893 4.66634 8.00004 4.66634C7.81115 4.66634 7.65293 4.73012 7.52537 4.85767C7.39737 4.98567 7.33337 5.14412 7.33337 5.33301C7.33337 5.5219 7.39737 5.68012 7.52537 5.80767C7.65293 5.93567 7.81115 5.99967 8.00004 5.99967ZM8.00004 14.6663C7.07782 14.6663 6.21115 14.4912 5.40004 14.141C4.58893 13.7912 3.88337 13.3163 3.28337 12.7163C2.68337 12.1163 2.20849 11.4108 1.85871 10.5997C1.50849 9.78856 1.33337 8.9219 1.33337 7.99967C1.33337 7.07745 1.50849 6.21079 1.85871 5.39967C2.20849 4.58856 2.68337 3.88301 3.28337 3.28301C3.88337 2.68301 4.58893 2.2079 5.40004 1.85767C6.21115 1.5079 7.07782 1.33301 8.00004 1.33301C8.92226 1.33301 9.78893 1.5079 10.6 1.85767C11.4112 2.2079 12.1167 2.68301 12.7167 3.28301C13.3167 3.88301 13.7916 4.58856 14.1414 5.39967C14.4916 6.21079 14.6667 7.07745 14.6667 7.99967C14.6667 8.9219 14.4916 9.78856 14.1414 10.5997C13.7916 11.4108 13.3167 12.1163 12.7167 12.7163C12.1167 13.3163 11.4112 13.7912 10.6 14.141C9.78893 14.4912 8.92226 14.6663 8.00004 14.6663Z" fill="#A5B0BB"/>
</svg>
