<svg width="16" height="16" viewBox="0 0 16 16" fill="none" xmlns="http://www.w3.org/2000/svg">
<path d="M7.04403 2.06133C7.13208 1.88277 7.26835 1.73242 7.43742 1.62728C7.60649 1.52215 7.80161 1.46643 8.0007 1.46643C8.19979 1.46643 8.3949 1.52215 8.56397 1.62728C8.73304 1.73242 8.86931 1.88277 8.95736 2.06133L10.44 5.06399L13.7547 5.54533C13.9517 5.57394 14.1368 5.65714 14.2891 5.7855C14.4413 5.91386 14.5545 6.08226 14.616 6.27165C14.6774 6.46104 14.6847 6.66385 14.6369 6.85713C14.589 7.05042 14.4881 7.22646 14.3454 7.36533L11.9467 9.70266L12.5134 13.004C12.5471 13.2001 12.5253 13.4017 12.4504 13.5861C12.3755 13.7704 12.2506 13.9301 12.0897 14.0472C11.9288 14.1643 11.7383 14.234 11.5399 14.2485C11.3415 14.263 11.1429 14.2217 10.9667 14.1293L8.00003 12.5693L5.0347 14.1293C4.85848 14.2217 4.65994 14.263 4.46149 14.2485C4.26304 14.234 4.07261 14.1643 3.91172 14.0472C3.75083 13.9301 3.62588 13.7704 3.55101 13.5861C3.47614 13.4017 3.45432 13.2001 3.48803 13.004L4.05336 9.70266L1.6547 7.36533C1.51198 7.22637 1.41103 7.05022 1.36327 6.85684C1.31551 6.66346 1.32285 6.46057 1.38447 6.27115C1.44608 6.08172 1.5595 5.91334 1.71189 5.78506C1.86428 5.65678 2.04954 5.57374 2.2467 5.54533L5.56136 5.06533L7.0427 2.06133H7.04403Z" fill="#FFCE00"/>
</svg>
