<svg width="16" height="16" viewBox="0 0 16 16" fill="none" xmlns="http://www.w3.org/2000/svg">
<path fill-rule="evenodd" clip-rule="evenodd" d="M10.3907 1.99976C10.6407 1.7498 10.9798 1.60938 11.3333 1.60938C11.6869 1.60938 12.026 1.7498 12.276 1.99976L14 3.72376C14.25 3.97379 14.3904 4.31287 14.3904 4.66642C14.3904 5.01998 14.25 5.35905 14 5.60909L12.9427 6.66642L9.33333 3.05709L10.3907 1.99976ZM8.39067 3.99976L2.39067 9.99976C2.1406 10.2497 2.00008 10.5888 2 10.9424V12.6664C2 13.02 2.14048 13.3592 2.39052 13.6092C2.64057 13.8593 2.97971 13.9998 3.33333 13.9998H5.05733C5.41093 13.9997 5.75001 13.8592 6 13.6091L12 7.60909L8.39067 3.99976Z" fill="#0055B8"/>
</svg>
