<svg width="16" height="16" viewBox="0 0 16 16" fill="none" xmlns="http://www.w3.org/2000/svg">
<path fill-rule="evenodd" clip-rule="evenodd" d="M2.6665 12.5081V3.49223C2.6665 2.9197 2.90309 2.37061 3.32423 1.96577C3.74536 1.56093 4.31654 1.3335 4.91212 1.3335H10.7718C11.0818 1.3335 11.3332 1.57512 11.3332 1.87318V10.8891C11.3332 11.1871 11.0818 11.4287 10.7718 11.4287H4.91212C4.81195 11.4287 4.71472 11.4415 4.62211 11.4654C4.43312 11.5139 4.2589 11.6096 4.11817 11.7449C3.99407 11.8642 3.90202 12.0085 3.84735 12.1656C3.80972 12.2732 3.78931 12.3884 3.78931 12.5081C3.78931 12.7944 3.90761 13.0689 4.11817 13.2713C4.32874 13.4737 4.61433 13.5875 4.91212 13.5875H12.2104V2.41286C12.2104 2.1148 12.4617 1.87318 12.7718 1.87318C13.0818 1.87318 13.3332 2.1148 13.3332 2.41286V14.1271C13.3332 14.4252 13.0818 14.6668 12.7718 14.6668H4.91212C4.31654 14.6668 3.74536 14.4394 3.32423 14.0346C2.90309 13.6297 2.6665 13.0806 2.6665 12.5081ZM5.27332 5.8708C5.60285 6.11871 6.07391 5.88361 6.07391 5.47125V3.66683C6.07391 3.11454 5.6262 2.66683 5.07391 2.66683H4.99984C4.44755 2.66683 3.99984 3.11454 3.99984 3.66683V5.42425C3.99984 5.84248 4.48652 6.07209 4.8093 5.80613C4.91515 5.71892 5.06697 5.71556 5.17657 5.79802L5.27332 5.8708Z" fill="#0055B8"/>
</svg>
