<svg width="20" height="20" viewBox="0 0 20 20" fill="none" xmlns="http://www.w3.org/2000/svg">
<path fill-rule="evenodd" clip-rule="evenodd" d="M14.1654 1.66666H14.7904C15.2876 1.66666 15.7646 1.86421 16.1162 2.21584C16.4678 2.56747 16.6654 3.04438 16.6654 3.54166V8.60917C16.0418 8.31279 15.3333 8.24722 14.6659 8.42413C13.9986 8.60104 13.4156 9.00895 13.0207 9.5753C12.6259 10.1417 12.4447 10.8297 12.5095 11.5171C12.5743 12.2045 12.8808 12.8466 13.3745 13.3292H13.1429C12.8395 13.3292 12.5391 13.3889 12.2589 13.505C11.9786 13.6211 11.7239 13.7912 11.5094 14.0057C11.2949 14.2203 11.1248 14.4749 11.0087 14.7552C10.8926 15.0354 10.8329 15.3358 10.8329 15.6392V15.725C10.8329 16.3425 11.012 16.9608 11.3895 17.5H5.20786C4.71058 17.5 4.23367 17.3025 3.88204 16.9508C3.53041 16.5992 3.33286 16.1223 3.33286 15.625L3.33203 3.5425C3.33203 3.04522 3.52958 2.5683 3.88121 2.21667C4.23284 1.86504 4.70975 1.6675 5.20703 1.6675L5.82953 1.66666L10.4162 1.66666H14.1654ZM6.45453 10.8333H9.37202L9.45702 10.8392C9.60662 10.8597 9.7437 10.9338 9.84293 11.0476C9.94216 11.1614 9.99683 11.3073 9.99683 11.4583C9.99683 11.6093 9.94216 11.7552 9.84293 11.8691C9.7437 11.9829 9.60662 12.0569 9.45702 12.0775L9.37202 12.0833H6.45453L6.36953 12.0775C6.21994 12.0569 6.08285 11.9829 5.98362 11.8691C5.88439 11.7552 5.82972 11.6093 5.82972 11.4583C5.82972 11.3073 5.88439 11.1614 5.98362 11.0476C6.08285 10.9338 6.21994 10.8597 6.36953 10.8392L6.45453 10.8333ZM6.45453 4.16666H13.5387L13.6237 4.1725C13.7733 4.19308 13.9104 4.26713 14.0096 4.38095C14.1088 4.49476 14.1635 4.64066 14.1635 4.79166C14.1635 4.94267 14.1088 5.08856 14.0096 5.20238C13.9104 5.3162 13.7733 5.39025 13.6237 5.41083L13.5387 5.41666H6.45453L6.36953 5.41083C6.21994 5.39025 6.08285 5.3162 5.98362 5.20238C5.88439 5.08856 5.82972 4.94267 5.82972 4.79166C5.82972 4.64066 5.88439 4.49476 5.98362 4.38095C6.08285 4.26713 6.21994 4.19308 6.36953 4.1725L6.45453 4.16666ZM6.45453 8.75C6.10953 8.75 5.82953 8.47 5.82953 8.125C5.82953 7.95924 5.89538 7.80027 6.01259 7.68306C6.1298 7.56585 6.28877 7.5 6.45453 7.5H11.0404C11.2061 7.5 11.3651 7.56585 11.4823 7.68306C11.5995 7.80027 11.6654 7.95924 11.6654 8.125C11.6654 8.29076 11.5995 8.44973 11.4823 8.56694C11.3651 8.68415 11.2061 8.75 11.0404 8.75H6.45453Z" fill="#0055B8"/>
<path fill-rule="evenodd" clip-rule="evenodd" d="M16.8893 12.719C17.28 12.3283 17.4995 11.7984 17.4995 11.2458C17.4995 10.6933 17.28 10.1634 16.8893 9.77269C16.4986 9.38199 15.9687 9.1625 15.4162 9.1625C14.8637 9.1625 14.3338 9.38199 13.9431 9.77269C13.5524 10.1634 13.3329 10.6933 13.3329 11.2458C13.3329 11.7984 13.5524 12.3283 13.9431 12.719C14.3338 13.1097 14.8637 13.3292 15.4162 13.3292C15.9687 13.3292 16.4986 13.1097 16.8893 12.719ZM15.4162 18.3292C18.0945 18.3292 19.1662 17.0217 19.1662 15.725V15.6392C19.1662 14.8233 18.5054 14.1625 17.6887 14.1625H13.1437C12.3279 14.1625 11.6662 14.8225 11.6662 15.6392V15.725C11.6662 17.0267 12.7379 18.3292 15.4162 18.3292Z" fill="#0055B8"/>
</svg>
