<svg width="24" height="24" viewBox="0 0 24 24" fill="none" xmlns="http://www.w3.org/2000/svg">
<path fill-rule="evenodd" clip-rule="evenodd" d="M10.8 2.3999C10.3455 2.3999 9.92993 2.65671 9.72666 3.06325L8.85834 4.7999H4.79998C4.13723 4.7999 3.59998 5.33716 3.59998 5.9999C3.59998 6.66264 4.13723 7.1999 4.79998 7.1999L4.79998 19.1999C4.79998 20.5254 5.87449 21.5999 7.19998 21.5999H16.8C18.1255 21.5999 19.2 20.5254 19.2 19.1999V7.1999C19.8627 7.1999 20.4 6.66264 20.4 5.9999C20.4 5.33716 19.8627 4.7999 19.2 4.7999H15.1416L14.2733 3.06325C14.07 2.65671 13.6545 2.3999 13.2 2.3999H10.8ZM8.39998 9.5999C8.39998 8.93716 8.93723 8.3999 9.59998 8.3999C10.2627 8.3999 10.8 8.93716 10.8 9.5999V16.7999C10.8 17.4626 10.2627 17.9999 9.59998 17.9999C8.93723 17.9999 8.39998 17.4626 8.39998 16.7999V9.5999ZM14.4 8.3999C13.7372 8.3999 13.2 8.93716 13.2 9.5999V16.7999C13.2 17.4626 13.7372 17.9999 14.4 17.9999C15.0627 17.9999 15.6 17.4626 15.6 16.7999V9.5999C15.6 8.93716 15.0627 8.3999 14.4 8.3999Z" fill="#495057"/>
</svg>
