<svg width="24" height="24" viewBox="0 0 24 24" fill="none" xmlns="http://www.w3.org/2000/svg">
<path d="M19.2501 12C19.2501 10.6466 18.8712 9.32011 18.1564 8.17082C17.4416 7.02153 16.4193 6.09529 15.2053 5.49692C13.9913 4.89856 12.634 4.65196 11.2871 4.78506C9.94024 4.91815 8.65748 5.42561 7.58407 6.25001H8.25007C8.51528 6.25001 8.76964 6.35537 8.95717 6.5429C9.14471 6.73044 9.25007 6.98479 9.25007 7.25001C9.25007 7.51523 9.14471 7.76958 8.95717 7.95712C8.76964 8.14465 8.51528 8.25001 8.25007 8.25001H5.25007C4.98485 8.25001 4.7305 8.14465 4.54296 7.95712C4.35543 7.76958 4.25007 7.51523 4.25007 7.25001V7.00001H4.21607L4.25007 6.94801V4.25001C4.25007 3.98479 4.35543 3.73044 4.54296 3.5429C4.7305 3.35537 4.98485 3.25001 5.25007 3.25001C5.51529 3.25001 5.76964 3.35537 5.95718 3.5429C6.14471 3.73044 6.25007 3.98479 6.25007 4.25001V4.75401C7.88409 3.4534 9.91163 2.74676 12.0001 2.75001C13.8778 2.75027 15.7109 3.32197 17.2559 4.38912C18.8008 5.45628 19.9844 6.96834 20.6494 8.72436C21.3143 10.4804 21.4291 12.3972 20.9784 14.22C20.5278 16.0428 19.5331 17.6853 18.1265 18.9292C16.7199 20.1731 14.9681 20.9594 13.1039 21.1838C11.2396 21.4081 9.35127 21.0597 7.68976 20.185C6.02825 19.3103 4.67229 17.9507 3.80209 16.2868C2.9319 14.6229 2.58869 12.7336 2.81807 10.87C2.88107 10.358 3.33407 10 3.85007 10C4.44007 10 4.86707 10.569 4.79907 11.156C4.68446 12.1368 4.77141 13.1307 5.0546 14.0767C5.33779 15.0227 5.81125 15.9008 6.44594 16.6573C7.08062 17.4138 7.86315 18.0327 8.74554 18.476C9.62793 18.9192 10.5916 19.1776 11.5774 19.2352C12.5632 19.2927 13.5503 19.1483 14.4783 18.8108C15.4063 18.4732 16.2555 17.9497 16.974 17.2722C17.6924 16.5948 18.2649 15.7777 18.6563 14.8711C19.0477 13.9645 19.2497 12.9875 19.2501 12ZM13.0001 8.00001C13.0001 7.73479 12.8947 7.48044 12.7072 7.2929C12.5196 7.10537 12.2653 7.00001 12.0001 7.00001C11.7349 7.00001 11.4805 7.10537 11.293 7.2929C11.1054 7.48044 11.0001 7.73479 11.0001 8.00001V13C11.0001 13.2652 11.1054 13.5196 11.293 13.7071C11.4805 13.8947 11.7349 14 12.0001 14H15.0001C15.2653 14 15.5196 13.8947 15.7072 13.7071C15.8947 13.5196 16.0001 13.2652 16.0001 13C16.0001 12.7348 15.8947 12.4804 15.7072 12.2929C15.5196 12.1054 15.2653 12 15.0001 12H13.0001V8.00001Z" fill="white"/>
<circle cx="19" cy="5" r="3.5" fill="#D92037" stroke="white"/>
</svg>
