<svg width="24" height="24" viewBox="0 0 24 24" fill="none" xmlns="http://www.w3.org/2000/svg">
<path d="M4.80005 4.7999C4.80005 4.16338 5.0529 3.55293 5.50299 3.10285C5.95308 2.65276 6.56353 2.3999 7.20005 2.3999H15.6C16.2366 2.3999 16.847 2.65276 17.2971 3.10285C17.7472 3.55293 18 4.16338 18 4.7999V13.1999H20.6C21.1523 13.1999 21.6 13.6476 21.6 14.1999V15.5999C21.6 16.5547 21.2208 17.4704 20.5456 18.1455C19.8705 18.8206 18.9548 19.1999 18 19.1999H12.9516C13.2726 18.0694 13.2859 16.8738 12.9902 15.7365C12.6944 14.5992 12.1004 13.5614 11.2695 12.7305C10.4385 11.8995 9.40078 11.3055 8.26347 11.0098C7.12615 10.7141 5.93051 10.7274 4.80005 11.0483V4.7999ZM18 17.9999C18.6366 17.9999 19.247 17.747 19.6971 17.297C20.1472 16.8469 20.4 16.2364 20.4 15.5999V14.3999H18V17.9999ZM9.00005 5.9999C8.84092 5.9999 8.68831 6.06312 8.57578 6.17564C8.46326 6.28816 8.40005 6.44077 8.40005 6.5999C8.40005 6.75903 8.46326 6.91164 8.57578 7.02417C8.68831 7.13669 8.84092 7.1999 9.00005 7.1999H13.8C13.9592 7.1999 14.1118 7.13669 14.2243 7.02417C14.3368 6.91164 14.4 6.75903 14.4 6.5999C14.4 6.44077 14.3368 6.28816 14.2243 6.17564C14.1118 6.06312 13.9592 5.9999 13.8 5.9999H9.00005ZM9.00005 9.5999C8.84092 9.5999 8.68831 9.66312 8.57578 9.77564C8.46326 9.88816 8.40005 10.0408 8.40005 10.1999C8.40005 10.359 8.46326 10.5116 8.57578 10.6242C8.68831 10.7367 8.84092 10.7999 9.00005 10.7999H13.8C13.9592 10.7999 14.1118 10.7367 14.2243 10.6242C14.3368 10.5116 14.4 10.359 14.4 10.1999C14.4 10.0408 14.3368 9.88816 14.2243 9.77564C14.1118 9.66312 13.9592 9.5999 13.8 9.5999H9.00005Z" fill="#0055B8"/>
<path fill-rule="evenodd" clip-rule="evenodd" d="M1 17.5C1 14.4624 3.46235 12 6.5 12C9.53765 12 12 14.4624 12 17.5C12 20.5377 9.53765 23 6.5 23C3.46235 23 1 20.5377 1 17.5ZM7.05 14.75C7.05 14.6041 6.99205 14.4642 6.88891 14.3611C6.78576 14.2579 6.64587 14.2 6.5 14.2C6.35413 14.2 6.21424 14.2579 6.11109 14.3611C6.00795 14.4642 5.95 14.6041 5.95 14.75V16.8202C5.95001 17.1266 6.03532 17.4269 6.19638 17.6875C6.35744 17.9482 6.58789 18.1588 6.8619 18.2958L8.45415 19.0917C8.51898 19.1267 8.59018 19.1482 8.66351 19.1552C8.73684 19.1621 8.81081 19.1542 8.88104 19.132C8.95127 19.1098 9.01633 19.0737 9.07234 19.0259C9.12836 18.978 9.1742 18.9195 9.20714 18.8536C9.24008 18.7877 9.25945 18.7159 9.2641 18.6424C9.26876 18.5688 9.2586 18.4951 9.23423 18.4256C9.20986 18.3561 9.17177 18.2922 9.12224 18.2377C9.0727 18.1832 9.01272 18.1392 8.94585 18.1083L7.35415 17.3119C7.26281 17.2663 7.18597 17.1961 7.13225 17.1092C7.07854 17.0224 7.05005 16.9223 7.05 16.8202V14.75Z" fill="#0055B8"/>
</svg>
