<svg width="16" height="16" viewBox="0 0 16 16" fill="none" xmlns="http://www.w3.org/2000/svg">
<path d="M13.3334 10.6665V13.3332C11.4947 13.3332 9.95335 13.0032 8.66669 12.4498C6.10602 11.3485 4.54935 9.36317 3.66669 7.33317C2.93335 5.64784 2.66669 3.93184 2.66669 2.6665H5.33335L6.00002 5.33317L3.66669 7.33317C4.54935 9.36317 6.10602 11.3485 8.66669 12.4498L10.6667 9.99984L13.3334 10.6665Z" fill="#0055B8"/>
<path d="M8.66669 12.4498C6.10602 11.3485 4.54935 9.36317 3.66669 7.33317M8.66669 12.4498C9.95335 13.0032 11.4947 13.3332 13.3334 13.3332V10.6665L10.6667 9.99984L8.66669 12.4498ZM3.66669 7.33317C2.93335 5.64784 2.66669 3.93184 2.66669 2.6665H5.33335L6.00002 5.33317L3.66669 7.33317Z" stroke="#0055B8" stroke-width="2" stroke-linecap="round" stroke-linejoin="round"/>
</svg>
