<svg width="24" height="24" viewBox="0 0 24 24" fill="none" xmlns="http://www.w3.org/2000/svg">
<path fill-rule="evenodd" clip-rule="evenodd" d="M6 2C4.34315 2 3 3.34315 3 5V18.4309C3 20.0878 4.34315 21.4309 6 21.4309H15.866C17.5228 21.4309 18.866 20.0878 18.866 18.4309V5C18.866 3.34315 17.5228 2 15.866 2H6ZM6.08654 4.9442C5.68005 4.9442 5.35052 5.27373 5.35052 5.68022C5.35052 6.08671 5.68005 6.41624 6.08654 6.41624H14.6042C15.0107 6.41624 15.3402 6.08671 15.3402 5.68022C15.3402 5.27373 15.0107 4.9442 14.6042 4.9442H6.08654ZM5.35052 9.21308C5.35052 8.80659 5.68005 8.47706 6.08654 8.47706H12.8413C13.2478 8.47706 13.5773 8.80659 13.5773 9.21308C13.5773 9.61957 13.2478 9.9491 12.8413 9.9491H6.08654C5.68005 9.9491 5.35052 9.61957 5.35052 9.21308ZM6.08654 12.0099C5.68005 12.0099 5.35052 12.3394 5.35052 12.7459C5.35052 13.1524 5.68005 13.4819 6.08654 13.4819H10.4908C10.8973 13.4819 11.2268 13.1524 11.2268 12.7459C11.2268 12.3394 10.8973 12.0099 10.4908 12.0099H6.08654Z" fill="#0055B8"/>
<path d="M17.2987 22.6578C20.2264 22.6578 22.5997 20.2845 22.5997 17.3568C22.5997 14.4291 20.2264 12.0558 17.2987 12.0558C14.371 12.0558 11.9977 14.4291 11.9977 17.3568C11.9977 20.2845 14.371 22.6578 17.2987 22.6578Z" fill="#0055B8" stroke="white" stroke-width="1.2"/>
<path fill-rule="evenodd" clip-rule="evenodd" d="M17.6104 14.9738C17.6104 15.1494 17.468 15.2918 17.2924 15.2918C17.1167 15.2918 16.9744 15.1494 16.9744 14.9738C16.9744 14.7981 17.1167 14.6558 17.2924 14.6558C17.468 14.6558 17.6104 14.7981 17.6104 14.9738ZM16.1917 19.5489C16.5415 19.7132 16.9125 19.798 17.2888 19.798C17.5803 19.798 17.8771 19.7503 18.158 19.6549C18.4707 19.5436 18.7515 19.374 18.9953 19.1567C19.1967 18.9818 19.3663 18.7751 19.5041 18.5419C19.679 18.2504 19.7903 17.9377 19.838 17.6038C19.8963 17.1851 19.8539 16.7505 19.7108 16.353C19.5147 15.8071 19.1437 15.3514 18.6508 15.044C18.5184 14.9592 18.3382 14.9963 18.2534 15.1341C18.1686 15.2666 18.2057 15.4468 18.3435 15.5315C18.7304 15.77 19.0113 16.1251 19.165 16.5491C19.2762 16.8565 19.308 17.1904 19.2603 17.5137C19.2232 17.7681 19.1331 18.0119 19.0006 18.2398C18.8946 18.42 18.7622 18.579 18.6085 18.7168C18.4177 18.8864 18.2004 19.0189 17.9619 19.1037C17.4637 19.2839 16.9178 19.2574 16.4355 19.0295C15.9532 18.8016 15.5875 18.4041 15.4073 17.9006C15.2854 17.5614 15.2536 17.201 15.3225 16.8512C15.3543 16.6922 15.2536 16.5438 15.0946 16.512C14.9356 16.4802 14.7872 16.5809 14.7554 16.7399C14.6706 17.1904 14.7077 17.6568 14.8614 18.0914C15.0946 18.738 15.5663 19.2574 16.1917 19.5489ZM16.1149 15.5203C16.2379 15.5203 16.3375 15.4206 16.3375 15.2977C16.3375 15.1748 16.2379 15.0751 16.1149 15.0751C15.992 15.0751 15.8923 15.1748 15.8923 15.2977C15.8923 15.4206 15.992 15.5203 16.1149 15.5203ZM15.4411 15.9993C15.4411 16.0635 15.389 16.1156 15.3248 16.1156C15.2606 16.1156 15.2085 16.0635 15.2085 15.9993C15.2085 15.9351 15.2606 15.8831 15.3248 15.8831C15.389 15.8831 15.4411 15.9351 15.4411 15.9993Z" fill="white"/>
<path d="M17.0652 18.2131C17.0122 18.2078 16.9645 18.1866 16.9221 18.1495L16.0476 17.4128C15.931 17.3121 15.9151 17.1372 16.0158 17.0206C16.1165 16.904 16.2914 16.8881 16.408 16.9888L17.0758 17.5506L18.157 16.3317C18.2576 16.2151 18.4378 16.2045 18.5491 16.3052C18.6657 16.4059 18.6763 16.5861 18.5756 16.6974L17.3143 18.123C17.2454 18.1972 17.15 18.229 17.0652 18.2131Z" fill="white"/>
</svg>
