<svg width="24" height="24" viewBox="0 0 24 24" fill="none" xmlns="http://www.w3.org/2000/svg">
<path d="M21.5999 3.60003C21.5999 3.18413 21.3846 2.79789 21.0308 2.57924C20.677 2.3606 20.2352 2.34072 19.8632 2.52671L10.5166 7.20003H5.9999C4.01168 7.20003 2.3999 8.8118 2.3999 10.8C2.3999 12.7882 4.01168 14.4 5.9999 14.4H6.335L8.46149 20.7795C8.62483 21.2695 9.0834 21.6 9.59991 21.6H10.7999C11.4627 21.6 11.9999 21.0628 11.9999 20.4V15.1417L19.8632 19.0733C20.2352 19.2593 20.677 19.2395 21.0308 19.0208C21.3846 18.8022 21.5999 18.4159 21.5999 18V3.60003Z" fill="#0055B8"/>
</svg>
