<svg width="24" height="24" viewBox="0 0 24 24" fill="none" xmlns="http://www.w3.org/2000/svg">
<path fill-rule="evenodd" clip-rule="evenodd" d="M14.2561 3H9.33333C8.39533 3 7 3.65169 7 5.44688V11.0539C7.6154 10.9186 8.27472 11.0385 8.8121 11.4079L12.028 13.618C12.6286 14.0325 13 14.7061 13 15.4496V17.7375H20C20.5523 17.7375 21 17.2898 21 16.7375V8.24223C20.285 8.72086 19.4251 9 18.5 9C16.0147 9 14 6.98528 14 4.5C14 3.97405 14.0902 3.46917 14.2561 3ZM12.8767 21H20.1844C20.6348 21 21 20.6348 21 20.1844C21 19.7339 20.6348 19.3687 20.1844 19.3687H13V20.3812C13 20.6031 12.9558 20.8115 12.8767 21ZM10.8847 9.73836C11.2143 9.98626 11.6853 9.75116 11.6853 9.3388V5.63125C11.6853 5.07897 11.2376 4.63125 10.6853 4.63125H9.57422C9.02194 4.63125 8.57422 5.07897 8.57422 5.63125V9.28081C8.57422 9.70343 9.06601 9.93544 9.39217 9.66669L9.87674 9.26743C9.9837 9.1793 10.1371 9.17591 10.2479 9.25923L10.8847 9.73836ZM11.46 14.441L8.24571 12.232C7.79571 11.9227 7.19786 11.9227 6.75429 12.232L3.54 14.441C3.19929 14.6762 3 15.0474 3 15.4496V20.3812C3 20.7216 3.28929 21 3.64286 21H6.21429V17.2874H8.78571V21H11.3571C11.7107 21 12 20.7216 12 20.3812V15.4496C12 15.0474 11.8007 14.6762 11.46 14.441Z" fill="#0055B8"/>
<path d="M21 4.5C21 4.83029 20.7322 5.09804 20.402 5.09804H19.1471V6.35294C19.1471 6.7103 18.8574 7 18.5 7C18.1426 7 17.8529 6.7103 17.8529 6.35294V5.09804H16.598C16.2678 5.09804 16 4.83029 16 4.5C16 4.16971 16.2678 3.90196 16.598 3.90196H17.8529V2.64706C17.8529 2.2897 18.1426 2 18.5 2C18.8574 2 19.1471 2.2897 19.1471 2.64706V3.90196H20.402C20.7322 3.90196 21 4.16971 21 4.5Z" fill="#0055B8"/>
</svg>
