<svg width="24" height="24" viewBox="0 0 24 24" fill="none" xmlns="http://www.w3.org/2000/svg">
<path fill-rule="evenodd" clip-rule="evenodd" d="M9.59844 4.80039C6.94747 4.80039 4.79844 6.94942 4.79844 9.60039C4.79844 12.2514 6.94747 14.4004 9.59844 14.4004C12.2494 14.4004 14.3984 12.2514 14.3984 9.60039C14.3984 6.94942 12.2494 4.80039 9.59844 4.80039ZM2.39844 9.60039C2.39844 5.62394 5.62199 2.40039 9.59844 2.40039C13.5749 2.40039 16.7984 5.62394 16.7984 9.60039C16.7984 11.1554 16.3055 12.5953 15.4673 13.7722L21.247 19.5519C21.7156 20.0205 21.7156 20.7803 21.247 21.2489C20.7783 21.7175 20.0185 21.7175 19.5499 21.2489L13.7703 15.4693C12.5933 16.3074 11.1534 16.8004 9.59844 16.8004C5.62199 16.8004 2.39844 13.5768 2.39844 9.60039Z" fill="#0055B8"/>
<path d="M9.60158 10.171C9.94885 10.171 10.2304 9.9152 10.2304 9.59961C10.2304 9.28402 9.94885 9.02818 9.60158 9.02818C9.25431 9.02818 8.97279 9.28402 8.97279 9.59961C8.97279 9.9152 9.25431 10.171 9.60158 10.171Z" fill="#0055B8"/>
<path fill-rule="evenodd" clip-rule="evenodd" d="M6.60156 9.59962C7.00218 8.44044 8.19382 7.59961 9.60157 7.59961C11.0093 7.59961 12.2009 8.44043 12.6016 9.5996C12.2009 10.7588 11.0093 11.5996 9.60156 11.5996C8.19382 11.5996 7.00219 10.7588 6.60156 9.59962ZM10.8591 9.59961C10.8591 10.2308 10.2961 10.7425 9.60158 10.7425C8.90704 10.7425 8.34401 10.2308 8.34401 9.59961C8.34401 8.96843 8.90704 8.45675 9.60158 8.45675C10.2961 8.45675 10.8591 8.96843 10.8591 9.59961Z" fill="#0055B8"/>
</svg>
