<svg width="24" height="24" viewBox="0 0 24 24" fill="none" xmlns="http://www.w3.org/2000/svg">
<path fill-rule="evenodd" clip-rule="evenodd" d="M4 5.4C4 4.07452 5.07452 3 6.4 3H11.9029C12.5395 3 13.1499 3.25286 13.6 3.70294L17.6971 7.8C18.1471 8.25009 18.4 8.86054 18.4 9.49706V19.8C18.4 21.1255 17.3255 22.2 16 22.2H6.4C5.07452 22.2 4 21.1255 4 19.8V5.4Z" fill="#90D5FD"/>
<path fill-rule="evenodd" clip-rule="evenodd" d="M6 3.4C6 2.07452 7.07452 1 8.4 1H13.9029C14.5395 1 15.1499 1.25286 15.6 1.70294L19.6971 5.8C20.1471 6.25009 20.4 6.86054 20.4 7.49706V17.8C20.4 19.1255 19.3255 20.2 18 20.2H8.4C7.07452 20.2 6 19.1255 6 17.8V3.4Z" fill="#0055B8"/>
<rect x="8" y="8" width="10" height="1.5" rx="0.75" fill="white"/>
<rect x="8" y="11" width="6" height="1.5" rx="0.75" fill="white"/>
<path d="M8 14.75C8 14.3358 8.33579 14 8.75 14H15.25C15.6642 14 16 14.3358 16 14.75C16 15.1642 15.6642 15.5 15.25 15.5H8.75C8.33579 15.5 8 15.1642 8 14.75Z" fill="white"/>
</svg>
