<svg width="24" height="24" viewBox="0 0 24 24" fill="none" xmlns="http://www.w3.org/2000/svg">
<path fill-rule="evenodd" clip-rule="evenodd" d="M4.65 2.55003C4.65 1.97013 5.1201 1.50003 5.7 1.50003C6.2799 1.50003 6.75 1.97013 6.75 2.55003V3.60003H13.05V2.55003C13.05 1.97013 13.5201 1.50003 14.1 1.50003C14.6799 1.50003 15.15 1.97013 15.15 2.55003V3.60003H16.2C17.3598 3.60003 18.3 4.54023 18.3 5.70003V11.1412C17.8814 11.0488 17.4464 11 17 11C13.6863 11 11 13.6863 11 17C11 17.4464 11.0487 17.8814 11.1412 18.3H3.6C2.4402 18.3 1.5 17.3598 1.5 16.2V5.70003C1.5 4.54023 2.4402 3.60003 3.6 3.60003H4.65V2.55003ZM4.65 7.80003C4.65 7.22013 5.1201 6.75003 5.7 6.75003H14.1C14.6799 6.75003 15.15 7.22013 15.15 7.80003C15.15 8.37993 14.6799 8.85003 14.1 8.85003H5.7C5.1201 8.85003 4.65 8.37993 4.65 7.80003Z" fill="#0055B8"/>
<path fill-rule="evenodd" clip-rule="evenodd" d="M12 17C12 14.2385 14.2385 12 17 12C19.7615 12 22 14.2385 22 17C22 19.7615 19.7615 22 17 22C14.2385 22 12 19.7615 12 17ZM17.5 14.5C17.5 14.3674 17.4473 14.2402 17.3536 14.1465C17.2598 14.0527 17.1326 14 17 14C16.8674 14 16.7402 14.0527 16.6464 14.1465C16.5527 14.2402 16.5 14.3674 16.5 14.5V16.382C16.5 16.6606 16.5776 16.9336 16.724 17.1705C16.8704 17.4074 17.0799 17.5989 17.329 17.7235L18.7765 18.447C18.8354 18.4788 18.9002 18.4984 18.9668 18.5047C19.0335 18.511 19.1007 18.5039 19.1646 18.4837C19.2284 18.4635 19.2876 18.4307 19.3385 18.3872C19.3894 18.3437 19.4311 18.2904 19.461 18.2305C19.491 18.1707 19.5086 18.1054 19.5128 18.0385C19.5171 17.9717 19.5078 17.9047 19.4857 17.8415C19.4635 17.7783 19.4289 17.7202 19.3839 17.6707C19.3388 17.6211 19.2843 17.5811 19.2235 17.553L17.7765 16.829C17.6935 16.7875 17.6236 16.7237 17.5748 16.6448C17.5259 16.5658 17.5 16.4749 17.5 16.382V14.5Z" fill="#0055B8"/>
</svg>
