<svg width="24" height="24" viewBox="0 0 24 24" fill="none" xmlns="http://www.w3.org/2000/svg">
<path d="M10.8008 2.4C10.138 2.4 9.60078 2.93726 9.60078 3.6C9.60078 4.26274 10.138 4.8 10.8008 4.8H13.2008C13.8635 4.8 14.4008 4.26274 14.4008 3.6C14.4008 2.93726 13.8635 2.4 13.2008 2.4H10.8008Z" fill="#0055B8"/>
<path fill-rule="evenodd" clip-rule="evenodd" d="M4.80078 6C4.80078 4.67452 5.8753 3.6 7.20078 3.6C7.20078 5.58823 8.81256 7.2 10.8008 7.2H13.2008C15.189 7.2 16.8008 5.58823 16.8008 3.6C18.1263 3.6 19.2008 4.67452 19.2008 6V19.2C19.2008 20.5255 18.1263 21.6 16.8008 21.6H7.20078C5.8753 21.6 4.80078 20.5255 4.80078 19.2V6ZM8.40078 10.8C7.73804 10.8 7.20078 11.3373 7.20078 12C7.20078 12.6627 7.73804 13.2 8.40078 13.2H8.41278C9.07552 13.2 9.61278 12.6627 9.61278 12C9.61278 11.3373 9.07552 10.8 8.41278 10.8H8.40078ZM12.0008 10.8C11.338 10.8 10.8008 11.3373 10.8008 12C10.8008 12.6627 11.338 13.2 12.0008 13.2H15.6008C16.2635 13.2 16.8008 12.6627 16.8008 12C16.8008 11.3373 16.2635 10.8 15.6008 10.8H12.0008ZM8.40078 15.6C7.73804 15.6 7.20078 16.1373 7.20078 16.8C7.20078 17.4627 7.73804 18 8.40078 18H8.41278C9.07552 18 9.61278 17.4627 9.61278 16.8C9.61278 16.1373 9.07552 15.6 8.41278 15.6H8.40078ZM12.0008 15.6C11.338 15.6 10.8008 16.1373 10.8008 16.8C10.8008 17.4627 11.338 18 12.0008 18H15.6008C16.2635 18 16.8008 17.4627 16.8008 16.8C16.8008 16.1373 16.2635 15.6 15.6008 15.6H12.0008Z" fill="#0055B8"/>
</svg>
