<svg width="16" height="16" viewBox="0 0 16 16" fill="none" xmlns="http://www.w3.org/2000/svg">
<path fill-rule="evenodd" clip-rule="evenodd" d="M8.00065 1.33337C4.31865 1.33337 1.33398 4.31804 1.33398 8.00004C1.33398 11.682 4.31865 14.6667 8.00065 14.6667C11.6827 14.6667 14.6673 11.682 14.6673 8.00004C14.6673 4.31804 11.6827 1.33337 8.00065 1.33337ZM8.00065 4.66671C8.17746 4.66671 8.34703 4.73695 8.47206 4.86197C8.59708 4.98699 8.66732 5.15656 8.66732 5.33337V8.66671C8.66732 8.84352 8.59708 9.01309 8.47206 9.13811C8.34703 9.26314 8.17746 9.33337 8.00065 9.33337C7.82384 9.33337 7.65427 9.26314 7.52925 9.13811C7.40422 9.01309 7.33398 8.84352 7.33398 8.66671V5.33337C7.33398 5.15656 7.40422 4.98699 7.52925 4.86197C7.65427 4.73695 7.82384 4.66671 8.00065 4.66671ZM8.66732 10.6667C8.66732 10.4899 8.59708 10.3203 8.47206 10.1953C8.34703 10.0703 8.17746 10 8.00065 10C7.82384 10 7.65427 10.0703 7.52925 10.1953C7.40422 10.3203 7.33398 10.4899 7.33398 10.6667C7.33398 10.8435 7.40422 11.0131 7.52925 11.1381C7.65427 11.2631 7.82384 11.3334 8.00065 11.3334C8.17746 11.3334 8.34703 11.2631 8.47206 11.1381C8.59708 11.0131 8.66732 10.8435 8.66732 10.6667Z" fill="#D92037"/>
</svg>
