<svg width="24" height="24" viewBox="0 0 24 24" fill="none" xmlns="http://www.w3.org/2000/svg">
<path d="M19.25 12C19.25 10.6466 18.8712 9.32014 18.1563 8.17085C17.4415 7.02156 16.4192 6.09532 15.2052 5.49695C13.9912 4.89859 12.634 4.652 11.2871 4.78509C9.94017 4.91818 8.65742 5.42565 7.58401 6.25004H8.25001C8.51522 6.25004 8.76958 6.3554 8.95711 6.54294C9.14465 6.73047 9.25001 6.98483 9.25001 7.25004C9.25001 7.51526 9.14465 7.76961 8.95711 7.95715C8.76958 8.14468 8.51522 8.25004 8.25001 8.25004H5.25001C4.98479 8.25004 4.73044 8.14468 4.5429 7.95715C4.35536 7.76961 4.25001 7.51526 4.25001 7.25004V7.00004H4.21601L4.25001 6.94804V4.25004C4.25001 3.98483 4.35536 3.73047 4.5429 3.54293C4.73044 3.3554 4.98479 3.25004 5.25001 3.25004C5.51522 3.25004 5.76958 3.3554 5.95711 3.54293C6.14465 3.73047 6.25001 3.98483 6.25001 4.25004V4.75404C7.88403 3.45343 9.91157 2.74679 12 2.75004C13.8777 2.7503 15.7108 3.322 17.2558 4.38915C18.8008 5.45631 19.9844 6.96837 20.6493 8.72439C21.3142 10.4804 21.429 12.3972 20.9784 14.22C20.5277 16.0428 19.533 17.6853 18.1265 18.9292C16.7199 20.1731 14.9681 20.9595 13.1038 21.1838C11.2396 21.4081 9.35121 21.0598 7.6897 20.1851C6.02819 19.3104 4.67223 17.9507 3.80203 16.2868C2.93184 14.623 2.58862 12.7337 2.81801 10.87C2.88101 10.358 3.33401 10 3.85001 10C4.44001 10 4.86701 10.569 4.79901 11.156C4.68439 12.1368 4.77135 13.1307 5.05454 14.0767C5.33773 15.0227 5.81119 15.9009 6.44587 16.6574C7.08056 17.4139 7.86309 18.0327 8.74548 18.476C9.62786 18.9193 10.5915 19.1776 11.5773 19.2352C12.5631 19.2928 13.5503 19.1484 14.4782 18.8108C15.4062 18.4733 16.2555 17.9497 16.9739 17.2722C17.6924 16.5948 18.2648 15.7777 18.6562 14.8711C19.0476 13.9645 19.2497 12.9875 19.25 12ZM13 8.00004C13 7.73483 12.8947 7.48047 12.7071 7.29293C12.5196 7.1054 12.2652 7.00004 12 7.00004C11.7348 7.00004 11.4804 7.1054 11.2929 7.29293C11.1054 7.48047 11 7.73483 11 8.00004V13C11 13.2653 11.1054 13.5196 11.2929 13.7071C11.4804 13.8947 11.7348 14 12 14H15C15.2652 14 15.5196 13.8947 15.7071 13.7071C15.8947 13.5196 16 13.2653 16 13C16 12.7348 15.8947 12.4805 15.7071 12.2929C15.5196 12.1054 15.2652 12 15 12H13V8.00004Z" fill="#0055B8"/>
</svg>
