<svg width="24" height="24" viewBox="0 0 24 24" fill="none" xmlns="http://www.w3.org/2000/svg">
<path fill-rule="evenodd" clip-rule="evenodd" d="M17.586 2C17.9611 1.62506 18.4697 1.41443 19 1.41443C19.5303 1.41443 20.0389 1.62506 20.414 2L22 3.586C22.3749 3.96106 22.5856 4.46967 22.5856 5C22.5856 5.53033 22.3749 6.03895 22 6.414L20.414 8L16 3.586L17.586 2ZM14.586 5L9.586 10C9.2109 10.375 9.00011 10.8836 9 11.414V13C9 13.5304 9.21071 14.0391 9.58579 14.4142C9.96086 14.7893 10.4696 15 11 15H12.586C13.1164 14.9999 13.625 14.7891 14 14.414L19 9.414L14.586 5Z" fill="#0055B8"/>
<path d="M6 14H5C4.46957 14 3.96086 14.2107 3.58579 14.5858C3.21071 14.9609 3 15.4696 3 16V16C3 16.5304 3.21071 17.0391 3.58579 17.4142C3.96086 17.7893 4.46957 18 5 18H19C19.5304 18 20.0391 18.2107 20.4142 18.5858C20.7893 18.9609 21 19.4696 21 20C21 20.5304 20.7893 21.0391 20.4142 21.4142C20.0391 21.7893 19.5304 22 19 22H15" stroke="#0055B8" stroke-width="2" stroke-linecap="round" stroke-linejoin="round"/>
</svg>
