<svg width="24" height="24" viewBox="0 0 24 24" fill="none" xmlns="http://www.w3.org/2000/svg">
<path d="M3.50004 3C3.1458 2.99947 2.80281 3.12433 2.5318 3.35246C2.2608 3.58059 2.07928 3.89727 2.0194 4.24641C1.95951 4.59555 2.02512 4.95462 2.20461 5.26002C2.38409 5.56543 2.66587 5.79745 3.00004 5.915H11.25V16V18.5H9.00006C8.80115 18.5 8.61038 18.579 8.46973 18.7197C8.32908 18.8603 8.25006 19.0511 8.25006 19.25C8.25006 19.4489 8.32908 19.6397 8.46973 19.7803C8.61038 19.921 8.80115 20 9.00006 20H15.0001C15.199 20 15.3897 19.921 15.5304 19.7803C15.671 19.6397 15.7501 19.4489 15.7501 19.25C15.7501 19.0511 15.671 18.8603 15.5304 18.7197C15.3897 18.579 15.199 18.5 15.0001 18.5H12.75V16V5.915H21C21.3342 5.79745 21.616 5.56543 21.7955 5.26002C21.975 4.95462 22.0406 4.59555 21.9807 4.24641C21.9208 3.89727 21.7393 3.58059 21.4683 3.35246C21.1973 3.12433 20.8543 2.99947 20.5 3H3.50004Z" fill="#0055B8"/>
<path fill-rule="evenodd" clip-rule="evenodd" d="M3.0293 5H20.9999L20.9999 11.0955C20.8116 10.7983 20.5671 10.5452 20.2817 10.3518C19.9963 10.1585 19.6761 10.0291 19.3411 9.97175C19.0061 9.9144 18.6634 9.93032 18.3345 10.0185C18.0056 10.1067 17.6975 10.2653 17.4293 10.4843C17.1612 10.7034 16.9389 10.9782 16.7762 11.2917C16.6135 11.6052 16.5139 11.9506 16.4837 12.3064C16.4535 12.6622 16.4932 13.0207 16.6005 13.3596C16.7077 13.6985 16.8802 14.0106 17.1071 14.2762C16.6665 14.3184 16.2504 14.5088 15.9207 14.8193C15.591 15.1298 15.365 15.5438 15.2764 16H5.49991C4.84467 16 4.21627 15.7261 3.75294 15.2385C3.28962 14.7509 3.02932 14.0896 3.02932 13.4L3.0293 5ZM6.05876 11.1333V7.86667C6.05876 7.63681 6.14553 7.41637 6.29997 7.25384C6.45441 7.09131 6.66388 7 6.88229 7H10.1764C10.3948 7 10.6043 7.09131 10.7587 7.25384C10.9132 7.41637 10.9999 7.63681 10.9999 7.86667V11.1333C10.9999 11.3632 10.9132 11.5836 10.7587 11.7462C10.6043 11.9087 10.3948 12 10.1764 12H6.88229C6.66388 12 6.45441 11.9087 6.29997 11.7462C6.14553 11.5836 6.05876 11.3632 6.05876 11.1333Z" fill="#0055B8"/>
<path fill-rule="evenodd" clip-rule="evenodd" d="M20.1058 13.759C20.4146 13.4339 20.5882 12.993 20.5882 12.5333C20.5882 12.0736 20.4146 11.6327 20.1058 11.3077C19.7969 10.9826 19.3779 10.8 18.9411 10.8C18.5043 10.8 18.0854 10.9826 17.7765 11.3077C17.4676 11.6327 17.2941 12.0736 17.2941 12.5333C17.2941 12.993 17.4676 13.4339 17.7765 13.759C18.0854 14.084 18.5043 14.2667 18.9411 14.2667C19.3779 14.2667 19.7969 14.084 20.1058 13.759ZM18.9411 18.6C20.9999 18.6 21.8235 17.5123 21.8235 16.4333C21.8235 16.0886 21.6933 15.7579 21.4617 15.5141C21.23 15.2703 20.9158 15.1333 20.5882 15.1333H17.2941C16.9664 15.1333 16.6522 15.2703 16.4206 15.5141C16.1889 15.7579 16.0588 16.0886 16.0588 16.4333C16.0588 17.5167 16.8823 18.6 18.9411 18.6Z" fill="#0055B8"/>
</svg>
