<svg width="24" height="24" viewBox="0 0 24 24" fill="none" xmlns="http://www.w3.org/2000/svg">
<path d="M20.3997 13.8851C20.3997 14.4503 20.1752 14.9923 19.7755 15.392C19.3759 15.7917 18.8338 16.0162 18.2686 16.0162C17.7034 16.0162 17.1613 15.7917 16.7616 15.392C16.362 14.9923 16.1374 14.4503 16.1374 13.8851C16.1374 13.3198 16.362 12.7778 16.7616 12.3781C17.1613 11.9784 17.7034 11.7539 18.2686 11.7539C18.8338 11.7539 19.3759 11.9784 19.7755 12.3781C20.1752 12.7778 20.3997 13.3198 20.3997 13.8851ZM21.9981 18.6801C21.9981 20.0068 20.9325 21.3441 18.2686 21.3441C15.6046 21.3441 14.5391 20.0121 14.5391 18.6801C14.5391 18.2562 14.7075 17.8497 15.0072 17.5499C15.307 17.2502 15.7135 17.0818 16.1374 17.0818H20.3997C20.8236 17.0818 21.2302 17.2502 21.5299 17.5499C21.8297 17.8497 21.9981 18.2562 21.9981 18.6801Z" fill="#0055B8"/>
<path fill-rule="evenodd" clip-rule="evenodd" d="M5.26588 3.08863C5.26588 2.4874 5.75328 2 6.35451 2C6.95574 2 7.44314 2.4874 7.44314 3.08863V4.17726H13.9749V3.08863C13.9749 2.4874 14.4623 2 15.0635 2C15.6648 2 16.1522 2.4874 16.1522 3.08863V4.17726H17.2408C18.4433 4.17726 19.418 5.15205 19.418 6.35451V10.5529C19.0522 10.4269 18.6648 10.3609 18.2705 10.3609C17.3358 10.3609 16.4393 10.7322 15.7783 11.3932C15.1173 12.0542 14.746 12.9507 14.746 13.8855C14.746 14.5719 14.9462 15.2377 15.3143 15.8047C14.831 15.9434 14.3858 16.2031 14.0239 16.565C13.4628 17.1261 13.1476 17.8871 13.1476 18.6805C13.1476 18.9269 13.1711 19.174 13.2192 19.418H4.17726C2.97479 19.418 2 18.4433 2 17.2408V6.35451C2 5.15205 2.97479 4.17726 4.17726 4.17726H5.26588V3.08863ZM5.26588 8.53177C5.26588 7.93053 5.75328 7.44314 6.35451 7.44314H15.0635C15.6648 7.44314 16.1522 7.93053 16.1522 8.53177C16.1522 9.133 15.6648 9.62039 15.0635 9.62039H6.35451C5.75328 9.62039 5.26588 9.133 5.26588 8.53177Z" fill="#0055B8"/>
</svg>
