<svg width="24" height="24" viewBox="0 0 24 24" fill="none" xmlns="http://www.w3.org/2000/svg">
<path d="M0.571289 5.60621C0.571289 5.05801 0.96055 4.58702 1.49895 4.4838L1.80292 4.42551C4.76205 3.85816 7.80909 3.85816 10.7682 4.42551L11.9999 4.66165V20L10.7682 19.7639C7.8091 19.1965 4.76206 19.1965 1.80292 19.7639C1.16387 19.8864 0.571289 19.3966 0.571289 18.7459V5.60621Z" fill="#CFE7FE"/>
<path d="M12 4.66165L13.2316 4.42551C16.1908 3.85816 19.2378 3.85816 22.1969 4.42551L22.5009 4.4838C23.0393 4.58702 23.4286 5.05801 23.4286 5.60621V18.7459C23.4286 19.3966 22.836 19.8864 22.1969 19.7639C19.2378 19.1965 16.1908 19.1965 13.2316 19.7639L12 20V4.66165Z" fill="#9ECEFC"/>
<path d="M14.8569 9.07611C15.8093 8.69516 18.2855 8.16183 20.5712 9.07611" stroke="#0055B8" stroke-width="1.14286" stroke-linecap="round"/>
<path d="M14.8569 11.8666C15.8093 11.4857 18.2855 10.9524 20.5712 11.8666" stroke="#0055B8" stroke-width="1.14286" stroke-linecap="round"/>
<path d="M14.8569 14.6572C15.8093 14.2762 18.2855 13.7429 20.5712 14.6572" stroke="#0055B8" stroke-width="1.14286" stroke-linecap="round"/>
<path d="M9.12234 13.4326C9.31509 13.3869 9.48942 13.4121 9.64533 13.5083C9.80689 13.5953 9.91052 13.7352 9.9562 13.9279C10.0001 14.1133 9.97032 14.2848 9.86674 14.4424C9.76883 14.5909 9.62349 14.688 9.43074 14.7337L5.8166 15.5904C5.62384 15.6361 5.44581 15.6117 5.28249 15.5173C5.12482 15.4137 5.02315 15.2656 4.97746 15.0728L3.4539 8.64519C3.40822 8.45244 3.43716 8.27723 3.54073 8.11957C3.64254 7.95449 3.79724 7.84735 4.00482 7.79815C4.18275 7.75597 4.35425 7.78579 4.51933 7.88761C4.69006 7.98025 4.79827 8.12295 4.84396 8.3157L6.26471 14.3096L5.97525 14.1786L9.12234 13.4326Z" fill="#0055B8"/>
<path d="M9.64533 13.5083L9.49534 13.7515C9.5001 13.7544 9.50495 13.7572 9.50988 13.7599L9.64533 13.5083ZM9.86674 14.4424L10.1053 14.5997L10.1055 14.5993L9.86674 14.4424ZM5.28249 15.5173L5.12562 15.7561C5.13016 15.7591 5.1348 15.7619 5.13951 15.7647L5.28249 15.5173ZM3.54073 8.11957L3.77962 8.2765L3.78391 8.26955L3.54073 8.11957ZM4.51933 7.88761L4.36934 8.13079C4.37384 8.13356 4.37841 8.13621 4.38306 8.13873L4.51933 7.88761ZM6.26471 14.3096L6.14687 14.5699C6.24613 14.6148 6.36231 14.5994 6.4464 14.5301C6.5305 14.4608 6.56786 14.3497 6.54273 14.2437L6.26471 14.3096ZM5.97525 14.1786L5.90936 13.9006C5.79043 13.9287 5.7026 14.0295 5.69086 14.1511C5.67912 14.2728 5.74607 14.3884 5.85741 14.4388L5.97525 14.1786ZM9.18824 13.7106C9.31389 13.6808 9.40951 13.6985 9.49534 13.7515L9.79532 13.2651C9.56934 13.1257 9.3163 13.093 9.05644 13.1546L9.18824 13.7106ZM9.50988 13.7599C9.59339 13.8048 9.64964 13.8734 9.67819 13.9938L10.2342 13.862C10.1714 13.597 10.0204 13.3857 9.78078 13.2567L9.50988 13.7599ZM9.67819 13.9938C9.7042 14.1035 9.68788 14.1943 9.62795 14.2856L10.1055 14.5993C10.2527 14.3752 10.2961 14.123 10.2342 13.862L9.67819 13.9938ZM9.62822 14.2851C9.57505 14.3658 9.49551 14.4247 9.36484 14.4557L9.49664 15.0117C9.75148 14.9513 9.96261 14.8161 10.1053 14.5997L9.62822 14.2851ZM9.36484 14.4557L5.7507 15.3124L5.88249 15.8684L9.49664 15.0117L9.36484 14.4557ZM5.7507 15.3124C5.625 15.3421 5.52222 15.3259 5.42547 15.2699L5.13951 15.7647C5.36939 15.8975 5.62268 15.93 5.88249 15.8684L5.7507 15.3124ZM5.43936 15.2785C5.34596 15.2171 5.28526 15.1326 5.25547 15.0069L4.69945 15.1387C4.76103 15.3985 4.90369 15.6103 5.12562 15.7561L5.43936 15.2785ZM5.25547 15.0069L3.73192 8.57929L3.17589 8.71109L4.69945 15.1387L5.25547 15.0069ZM3.73192 8.57929C3.70334 8.45872 3.72148 8.36479 3.77953 8.27644L3.30193 7.96269C3.15283 8.18967 3.11309 8.44615 3.17589 8.71109L3.73192 8.57929ZM3.78391 8.26955C3.84178 8.17572 3.92877 8.1098 4.07072 8.07616L3.93892 7.52013C3.66571 7.5849 3.44331 7.73325 3.29755 7.96958L3.78391 8.26955ZM4.07072 8.07616C4.17009 8.0526 4.26442 8.06607 4.36934 8.13079L4.66931 7.64443C4.44408 7.50551 4.1954 7.45934 3.93892 7.52013L4.07072 8.07616ZM4.38306 8.13873C4.48075 8.19174 4.53858 8.26615 4.56595 8.3816L5.12197 8.2498C5.05796 7.97974 4.89937 7.76876 4.65559 7.63648L4.38306 8.13873ZM4.56595 8.3816L5.9867 14.3755L6.54273 14.2437L5.12197 8.2498L4.56595 8.3816ZM6.38256 14.0493L6.0931 13.9183L5.85741 14.4388L6.14687 14.5699L6.38256 14.0493ZM6.04115 14.4566L9.18824 13.7106L9.05644 13.1546L5.90936 13.9006L6.04115 14.4566Z" fill="#0055B8"/>
</svg>
