<svg width="24" height="25" viewBox="0 0 24 25" fill="none" xmlns="http://www.w3.org/2000/svg">
<path d="M10 14.2861C10.3259 14.6187 10.7148 14.883 11.1441 15.0634C11.5734 15.2437 12.0344 15.3367 12.5 15.3367C12.9656 15.3367 13.4266 15.2437 13.8559 15.0634C14.2852 14.883 14.6741 14.6187 15 14.2861L19 10.2861C19.663 9.6231 20.0355 8.72383 20.0355 7.78614C20.0355 6.84846 19.663 5.94919 19 5.28614C18.337 4.6231 17.4377 4.25061 16.5 4.25061C15.5623 4.25061 14.663 4.6231 14 5.28614L13.5 5.78614" stroke="#0055B8" stroke-width="2" stroke-linecap="round" stroke-linejoin="round"/>
<path d="M14 10.2861C13.6741 9.95353 13.2852 9.68931 12.8559 9.50892C12.4266 9.32854 11.9656 9.23562 11.5 9.23562C11.0344 9.23562 10.5734 9.32854 10.1441 9.50892C9.71485 9.68931 9.32588 9.95353 9 10.2861L5 14.2861C4.33696 14.9492 3.96447 15.8485 3.96447 16.7861C3.96447 17.7238 4.33696 18.6231 5 19.2861C5.66304 19.9492 6.56232 20.3217 7.5 20.3217C8.43768 20.3217 9.33696 19.9492 10 19.2861L10.5 18.7861M16 21.2861V19.2861M19 16.2861H21M3 8.28613H5M8 3.28613V5.28613" stroke="#0055B8" stroke-width="2" stroke-linecap="round" stroke-linejoin="round"/>
</svg>
