<svg width="24" height="24" viewBox="0 0 24 24" fill="none" xmlns="http://www.w3.org/2000/svg">
<path fill-rule="evenodd" clip-rule="evenodd" d="M9.02505 2.783C9.07442 2.56094 9.19802 2.36234 9.37546 2.21999C9.5529 2.07764 9.77357 2.00004 10.0011 2H14.0011C14.2285 2.00004 14.4492 2.07764 14.6266 2.21999C14.8041 2.36234 14.9277 2.56094 14.9771 2.783L15.4171 4.764C15.8171 4.954 16.1981 5.174 16.5571 5.424L18.4951 4.814C18.7121 4.74577 18.9459 4.75356 19.1578 4.8361C19.3698 4.91864 19.5473 5.07099 19.6611 5.268L21.6611 8.732C21.7748 8.92904 21.818 9.159 21.7835 9.3839C21.7489 9.6088 21.6387 9.81519 21.4711 9.969L19.9741 11.342C20.0097 11.7799 20.0097 12.2201 19.9741 12.658L21.4711 14.031C21.6387 14.1848 21.7489 14.3912 21.7835 14.6161C21.818 14.841 21.7748 15.071 21.6611 15.268L19.6611 18.732C19.5473 18.929 19.3698 19.0814 19.1578 19.1639C18.9459 19.2464 18.7121 19.2542 18.4951 19.186L16.5581 18.576C16.1981 18.826 15.8171 19.046 15.4181 19.236L14.9781 21.216C14.9289 21.4384 14.8052 21.6374 14.6275 21.7799C14.4499 21.9225 14.2288 22.0001 14.0011 22H10.0011C9.77357 22 9.5529 21.9224 9.37546 21.78C9.19802 21.6377 9.07442 21.4391 9.02505 21.217L8.58505 19.236C8.18505 19.046 7.80405 18.826 7.44505 18.576L5.50705 19.186C5.29004 19.2542 5.05626 19.2464 4.84427 19.1639C4.63229 19.0814 4.45479 18.929 4.34105 18.732L2.34105 15.268C2.22727 15.071 2.18408 14.841 2.21862 14.6161C2.25317 14.3912 2.36338 14.1848 2.53105 14.031L4.02805 12.658C3.99235 12.2201 3.99235 11.7799 4.02805 11.342L2.53105 9.97C2.36338 9.81619 2.25317 9.6098 2.21862 9.3849C2.18408 9.16 2.22727 8.93004 2.34105 8.733L4.34105 5.269C4.45479 5.07199 4.63229 4.91964 4.84427 4.8371C5.05626 4.75456 5.29004 4.74677 5.50705 4.815L7.44405 5.425C7.80405 5.175 8.18505 4.955 8.58405 4.765L9.02405 2.785L9.02505 2.783ZM12.0011 15C12.7967 15 13.5598 14.6839 14.1224 14.1213C14.685 13.5587 15.0011 12.7956 15.0011 12C15.0011 11.2044 14.685 10.4413 14.1224 9.87868C13.5598 9.31607 12.7967 9 12.0011 9C11.2054 9 10.4423 9.31607 9.87973 9.87868C9.31712 10.4413 9.00105 11.2044 9.00105 12C9.00105 12.7956 9.31712 13.5587 9.87973 14.1213C10.4423 14.6839 11.2054 15 12.0011 15Z" fill="white"/>
</svg>
