<svg width="24" height="25" viewBox="0 0 24 25" fill="none" xmlns="http://www.w3.org/2000/svg">
<path fill-rule="evenodd" clip-rule="evenodd" d="M5 20.5254C4.20435 20.5254 3.44129 20.2093 2.87868 19.6467C2.31607 19.0841 2 18.321 2 17.5254V7.52539C2 6.72974 2.31607 5.96668 2.87868 5.40407C3.44129 4.84146 4.20435 4.52539 5 4.52539H19C19.7956 4.52539 20.5587 4.84146 21.1213 5.40407C21.6839 5.96668 22 6.72974 22 7.52539V17.5254C22 18.321 21.6839 19.0841 21.1213 19.6467C20.5587 20.2093 19.7956 20.5254 19 20.5254H5ZM7.625 8.74539C7.52313 8.65841 7.40483 8.59278 7.27711 8.55239C7.1494 8.51201 7.01487 8.4977 6.88151 8.5103C6.74816 8.52291 6.61869 8.56218 6.50081 8.62579C6.38292 8.68939 6.27901 8.77603 6.19525 8.88056C6.11149 8.98509 6.04959 9.10539 6.01321 9.2343C5.97684 9.36322 5.96673 9.49813 5.9835 9.63103C6.00026 9.76392 6.04356 9.8921 6.11081 10.0079C6.17806 10.1238 6.2679 10.2249 6.375 10.3054L10.125 13.3064C10.6571 13.7324 11.3184 13.9645 12 13.9645C12.6816 13.9645 13.3429 13.7324 13.875 13.3064L17.625 10.3064C17.7276 10.2243 17.813 10.1228 17.8763 10.0078C17.9396 9.89269 17.9797 9.76626 17.9942 9.6357C18.0087 9.50514 17.9973 9.37301 17.9607 9.24684C17.9241 9.12068 17.8631 9.00295 17.781 8.90039C17.6989 8.79783 17.5974 8.71244 17.4824 8.64909C17.3673 8.58574 17.2409 8.54568 17.1103 8.5312C16.9798 8.51671 16.8476 8.52808 16.7215 8.56466C16.5953 8.60124 16.4776 8.66231 16.375 8.74439L12.625 11.7444C12.4476 11.8864 12.2272 11.9638 12 11.9638C11.7728 11.9638 11.5524 11.8864 11.375 11.7444L7.625 8.74439V8.74539Z" fill="#0055B8"/>
</svg>
