<svg width="24" height="24" viewBox="0 0 24 24" fill="none" xmlns="http://www.w3.org/2000/svg">
<path d="M2 4C2 2.89543 2.89543 2 4 2H18C20.2091 2 22 3.79086 22 6V20C22 21.1046 21.1046 22 20 22H6C3.79086 22 2 20.2091 2 18V4Z" fill="currentColor"/>
<path d="M5.60693 4.85692C5.60693 4.44271 5.27114 4.10693 4.85692 4.10693C4.44271 4.10694 4.10693 4.44273 4.10693 4.85694L4.10708 14.8423C4.10688 14.8523 4.10688 14.8622 4.10708 14.8722L4.10711 16.9998C4.10711 17.6889 4.39603 18.3413 4.89629 18.8159C5.39521 19.2893 6.06384 19.5487 6.75328 19.5487H19.778C20.1922 19.5487 20.528 19.2129 20.528 18.7987C20.528 18.3845 20.1922 18.0487 19.778 18.0487H6.75328C6.43694 18.0487 6.14097 17.9291 5.92869 17.7277C5.71774 17.5276 5.60711 17.2649 5.60711 16.9998L5.60709 15.1985L9.21528 12.0604L12.7364 15.401C13.0258 15.6756 13.4794 15.6756 13.7688 15.401L18.5258 10.888V11.9998C18.5258 12.414 18.8615 12.7498 19.2758 12.7498C19.69 12.7498 20.0258 12.414 20.0258 11.9998V9.14264C20.0258 8.72843 19.69 8.39264 19.2758 8.39264H16.2642C15.85 8.39264 15.5142 8.72843 15.5142 9.14264C15.5142 9.55685 15.85 9.89264 16.2642 9.89264H17.3955L13.2526 13.8231L9.7534 10.5033C9.47308 10.2374 9.03659 10.2279 8.74503 10.4815L5.60706 13.2106L5.60693 4.85692Z" fill="white"/>
</svg>
