<svg width="24" height="24" viewBox="0 0 24 24" fill="none" xmlns="http://www.w3.org/2000/svg">
<path d="M14.9637 2.02812C14.5647 1.66242 14.0401 1.46483 13.499 1.47657C12.958 1.48831 12.4423 1.70846 12.0597 2.09112L2.13566 12.0166C1.94063 12.2116 1.78593 12.4431 1.68038 12.6979C1.57483 12.9527 1.52051 13.2258 1.52051 13.5016C1.52051 13.7774 1.57483 14.0505 1.68038 14.3053C1.78593 14.5601 1.94063 14.7916 2.13566 14.9866L3.52466 16.3741C4.04516 16.8961 4.79366 16.7701 5.23466 16.4761C5.552 16.2652 5.93257 16.1706 6.31173 16.2084C6.6909 16.2462 7.04529 16.4141 7.31473 16.6836C7.58417 16.953 7.75205 17.3074 7.78986 17.6866C7.82767 18.0657 7.73308 18.4463 7.52216 18.7636C7.22966 19.2046 7.10366 19.9546 7.62416 20.4751L8.98166 21.8311C9.18042 22.0301 9.41712 22.1871 9.67771 22.2928C9.9383 22.3986 10.2175 22.4509 10.4987 22.4467C10.7799 22.4425 11.0574 22.3819 11.3147 22.2684C11.572 22.1549 11.8039 21.9909 11.9967 21.7861L21.8937 11.2681C22.0842 11.0657 22.2326 10.8274 22.3303 10.5671C22.4281 10.3069 22.4731 10.0298 22.463 9.75199C22.4528 9.47418 22.3875 9.20115 22.271 8.94874C22.1545 8.69634 21.989 8.46958 21.7842 8.28162L20.4552 7.06212C20.3088 6.93159 20.1341 6.83693 19.9448 6.78564C19.7555 6.73435 19.5569 6.72784 19.3647 6.76662C19.0242 6.82662 18.7017 7.00662 18.4677 7.26162C18.3212 7.42138 18.1447 7.55072 17.9483 7.64227C17.7518 7.73381 17.5393 7.78577 17.3228 7.79517C17.1062 7.80457 16.89 7.77124 16.6863 7.69706C16.4827 7.62289 16.2957 7.50933 16.1359 7.36287C15.8133 7.06709 15.6214 6.65526 15.6024 6.21797C15.593 6.00145 15.6263 5.78519 15.7005 5.58155C15.7746 5.37791 15.8882 5.19088 16.0347 5.03112C16.2702 4.77912 16.4217 4.44162 16.4532 4.09662C16.4748 3.90195 16.4509 3.70489 16.3832 3.52108C16.3155 3.33727 16.2059 3.17175 16.0632 3.03762L14.9637 2.02812Z" fill="#0055B8"/>
<mask id="mask0_32248_181269" style="mask-type:alpha" maskUnits="userSpaceOnUse" x="1" y="1" width="22" height="22">
<path d="M14.9637 2.02812C14.5647 1.66242 14.0401 1.46483 13.499 1.47657C12.958 1.48831 12.4423 1.70846 12.0597 2.09112L2.13566 12.0166C1.94063 12.2116 1.78593 12.4431 1.68038 12.6979C1.57483 12.9527 1.52051 13.2258 1.52051 13.5016C1.52051 13.7774 1.57483 14.0505 1.68038 14.3053C1.78593 14.5601 1.94063 14.7916 2.13566 14.9866L3.52466 16.3741C4.04516 16.8961 4.79366 16.7701 5.23466 16.4761C5.552 16.2652 5.93257 16.1706 6.31173 16.2084C6.6909 16.2462 7.04529 16.4141 7.31473 16.6836C7.58417 16.953 7.75205 17.3074 7.78986 17.6866C7.82767 18.0657 7.73308 18.4463 7.52216 18.7636C7.22966 19.2046 7.10366 19.9546 7.62416 20.4751L8.98166 21.8311C9.18042 22.0301 9.41712 22.1871 9.67771 22.2928C9.9383 22.3986 10.2175 22.4509 10.4987 22.4467C10.7799 22.4425 11.0574 22.3819 11.3147 22.2684C11.572 22.1549 11.8039 21.9909 11.9967 21.7861L21.8937 11.2681C22.0842 11.0657 22.2326 10.8274 22.3303 10.5671C22.4281 10.3069 22.4731 10.0298 22.463 9.75199C22.4528 9.47418 22.3875 9.20115 22.271 8.94874C22.1545 8.69634 21.989 8.46958 21.7842 8.28162L20.4552 7.06212C20.3088 6.93159 20.1341 6.83693 19.9448 6.78564C19.7555 6.73435 19.5569 6.72784 19.3647 6.76662C19.0242 6.82662 18.7017 7.00662 18.4677 7.26162C18.3212 7.42138 18.1447 7.55072 17.9483 7.64227C17.7518 7.73381 17.5393 7.78577 17.3228 7.79517C17.1062 7.80457 16.89 7.77124 16.6863 7.69706C16.4827 7.62289 16.2957 7.50933 16.1359 7.36287C15.8133 7.06709 15.6214 6.65526 15.6024 6.21797C15.593 6.00145 15.6263 5.78519 15.7005 5.58155C15.7746 5.37791 15.8882 5.19088 16.0347 5.03112C16.2702 4.77912 16.4217 4.44162 16.4532 4.09662C16.4748 3.90195 16.4509 3.70489 16.3832 3.52108C16.3155 3.33727 16.2059 3.17175 16.0632 3.03762L14.9637 2.02812Z" fill="#4D545C"/>
</mask>
<g mask="url(#mask0_32248_181269)">
<path opacity="0.4" d="M9.84243 16.1047C10.0295 16.3346 10.2446 16.463 10.4135 16.5499C10.8624 16.781 11.4178 16.8182 11.9442 16.6358C12.1102 16.5783 12.2726 16.499 12.4267 16.3959L17.5677 12.9492C17.8113 12.8189 18.0675 12.6114 18.3982 12.4241L18.9252 12.096L19.5145 11.7081C20.6095 10.9879 20.5024 9.39813 19.325 8.86062L11.6736 5.37192C10.3415 4.76552 8.76636 5.75539 8.85742 7.14019L9.12729 11.024L9.11669 11.0276L9.21325 11.9741L9.34879 14.2469C9.34879 14.2469 9.36145 14.4875 9.40738 14.8008L9.41092 14.7996C9.45664 15.0555 9.54078 15.5011 9.64907 15.7774L9.64554 15.7786C9.69907 15.9094 9.76668 16.0238 9.84243 16.1047Z" fill="#0055B8"/>
</g>
</svg>
