<svg width="24" height="25" viewBox="0 0 24 25" fill="none" xmlns="http://www.w3.org/2000/svg">
<path fill-rule="evenodd" clip-rule="evenodd" d="M2.00012 12.5254C2.00012 7.00239 6.47712 2.52539 12.0001 2.52539C17.5231 2.52539 22.0001 7.00239 22.0001 12.5254C22.0001 18.0484 17.5231 22.5254 12.0001 22.5254C10.2701 22.528 8.5693 22.08 7.06512 21.2254L3.31612 22.4744C3.13992 22.5331 2.95084 22.5417 2.77007 22.499C2.5893 22.4564 2.42398 22.3642 2.29265 22.2329C2.16131 22.1015 2.06915 21.9362 2.02649 21.7554C1.98383 21.5747 1.99236 21.3856 2.05112 21.2094L3.30112 17.4604C2.44616 15.9563 1.99777 14.2555 2.00012 12.5254ZM8.00012 7.52539C7.7349 7.52539 7.48055 7.63075 7.29301 7.81828C7.10547 8.00582 7.00012 8.26017 7.00012 8.52539C7.00012 8.79061 7.10547 9.04496 7.29301 9.2325C7.48055 9.42003 7.7349 9.52539 8.00012 9.52539H16.0001C16.2653 9.52539 16.5197 9.42003 16.7072 9.2325C16.8948 9.04496 17.0001 8.79061 17.0001 8.52539C17.0001 8.26017 16.8948 8.00582 16.7072 7.81828C16.5197 7.63075 16.2653 7.52539 16.0001 7.52539H8.00012ZM8.00012 11.5254C7.7349 11.5254 7.48055 11.6307 7.29301 11.8183C7.10547 12.0058 7.00012 12.2602 7.00012 12.5254C7.00012 12.7906 7.10547 13.045 7.29301 13.2325C7.48055 13.42 7.7349 13.5254 8.00012 13.5254H16.0001C16.2653 13.5254 16.5197 13.42 16.7072 13.2325C16.8948 13.045 17.0001 12.7906 17.0001 12.5254C17.0001 12.2602 16.8948 12.0058 16.7072 11.8183C16.5197 11.6307 16.2653 11.5254 16.0001 11.5254H8.00012ZM8.00012 15.5254C7.7349 15.5254 7.48055 15.6307 7.29301 15.8183C7.10547 16.0058 7.00012 16.2602 7.00012 16.5254C7.00012 16.7906 7.10547 17.045 7.29301 17.2325C7.48055 17.42 7.7349 17.5254 8.00012 17.5254H11.0001C11.2653 17.5254 11.5197 17.42 11.7072 17.2325C11.8948 17.045 12.0001 16.7906 12.0001 16.5254C12.0001 16.2602 11.8948 16.0058 11.7072 15.8183C11.5197 15.6307 11.2653 15.5254 11.0001 15.5254H8.00012Z" fill="#0055B8"/>
</svg>
