<svg width="24" height="24" viewBox="0 0 24 24" fill="none" xmlns="http://www.w3.org/2000/svg">
<g clip-path="url(#clip0_7162_13778)">
<path d="M15.6001 7.2001C15.6001 9.18832 13.9883 10.8001 12.0001 10.8001C10.0119 10.8001 8.4001 9.18832 8.4001 7.2001C8.4001 5.21187 10.0119 3.6001 12.0001 3.6001C13.9883 3.6001 15.6001 5.21187 15.6001 7.2001Z" fill="#0055B8"/>
<path d="M12.0001 13.2001C7.36091 13.2001 3.6001 16.9609 3.6001 21.6001H14.3433C14.3623 21.489 14.4037 21.3762 14.471 21.2656C14.7951 20.7339 14.5079 20.0406 13.9028 19.8937C12.966 19.6663 12.966 18.334 13.9028 18.1066C14.5079 17.9597 14.7951 17.2664 14.471 16.7346C13.9695 15.9114 14.9115 14.9694 15.7347 15.471C16.2597 15.7909 16.9422 15.515 17.1008 14.9255C15.6867 13.8432 13.9185 13.2001 12.0001 13.2001Z" fill="#0055B8"/>
<path d="M19.8002 19.0001C19.8002 19.9942 18.9943 20.8001 18.0002 20.8001C17.0061 20.8001 16.2002 19.9942 16.2002 19.0001C16.2002 18.006 17.0061 17.2001 18.0002 17.2001C18.9943 17.2001 19.8002 18.006 19.8002 19.0001Z" fill="#0055B8"/>
<path fill-rule="evenodd" clip-rule="evenodd" d="M18.8937 14.9027C18.6663 13.9659 17.3341 13.9659 17.1067 14.9027C16.9598 15.5078 16.2665 15.795 15.7347 15.471C14.9115 14.9694 13.9695 15.9114 14.471 16.7346C14.7951 17.2664 14.5079 17.9597 13.9028 18.1066C12.966 18.334 12.966 19.6663 13.9028 19.8937C14.5079 20.0406 14.7951 20.7339 14.471 21.2656C13.9695 22.0888 14.9115 23.0309 15.7347 22.5293C16.2665 22.2053 16.9598 22.4924 17.1067 23.0976C17.3341 24.0343 18.6663 24.0343 18.8937 23.0976C19.0406 22.4924 19.7339 22.2053 20.2657 22.5293C21.0889 23.0309 22.0309 22.0888 21.5293 21.2656C21.2053 20.7339 21.4925 20.0406 22.0976 19.8937C23.0344 19.6663 23.0344 18.334 22.0976 18.1066C21.4925 17.9597 21.2053 17.2664 21.5293 16.7346C22.0309 15.9114 21.0889 14.9694 20.2657 15.471C19.7339 15.795 19.0406 15.5078 18.8937 14.9027ZM18.0002 20.8001C18.9943 20.8001 19.8002 19.9942 19.8002 19.0001C19.8002 18.006 18.9943 17.2001 18.0002 17.2001C17.0061 17.2001 16.2002 18.006 16.2002 19.0001C16.2002 19.9942 17.0061 20.8001 18.0002 20.8001Z" fill="#0055B8"/>
<path d="M14.471 21.2656C14.4037 21.3762 14.3623 21.489 14.3433 21.6001H3.6001C3.6001 16.9609 7.36091 13.2001 12.0001 13.2001C13.9185 13.2001 15.6867 13.8432 17.1008 14.9255C16.9422 15.515 16.2597 15.7909 15.7347 15.471M14.471 21.2656C14.7951 20.7339 14.5079 20.0406 13.9028 19.8937C12.966 19.6663 12.966 18.334 13.9028 18.1066C14.5079 17.9597 14.7951 17.2664 14.471 16.7346C13.9695 15.9114 14.9115 14.9694 15.7347 15.471M14.471 21.2656C13.9695 22.0888 14.9115 23.0309 15.7347 22.5293C16.2665 22.2053 16.9598 22.4924 17.1067 23.0976C17.3341 24.0343 18.6663 24.0343 18.8937 23.0976C19.0406 22.4924 19.7339 22.2053 20.2657 22.5293C21.0889 23.0309 22.0309 22.0888 21.5293 21.2656C21.2053 20.7339 21.4925 20.0406 22.0976 19.8937C23.0344 19.6663 23.0344 18.334 22.0976 18.1066C21.4925 17.9597 21.2053 17.2664 21.5293 16.7346C22.0309 15.9114 21.0889 14.9694 20.2657 15.471C19.7339 15.795 19.0406 15.5078 18.8937 14.9027C18.6663 13.9659 17.3341 13.9659 17.1067 14.9027C16.9598 15.5078 16.2665 15.795 15.7347 15.471M12.0001 10.8001C13.9883 10.8001 15.6001 9.18832 15.6001 7.2001C15.6001 5.21187 13.9883 3.6001 12.0001 3.6001C10.0119 3.6001 8.4001 5.21187 8.4001 7.2001C8.4001 9.18832 10.0119 10.8001 12.0001 10.8001ZM18.0002 20.8001C18.9943 20.8001 19.8002 19.9942 19.8002 19.0001C19.8002 18.006 18.9943 17.2001 18.0002 17.2001C17.0061 17.2001 16.2002 18.006 16.2002 19.0001C16.2002 19.9942 17.0061 20.8001 18.0002 20.8001Z" stroke="white" stroke-width="0.5"/>
</g>
<defs>
<clipPath id="clip0_7162_13778">
<rect width="24" height="24" fill="white"/>
</clipPath>
</defs>
</svg>
