<svg width="24" height="24" viewBox="0 0 24 24" fill="none" xmlns="http://www.w3.org/2000/svg">
<path fill-rule="evenodd" clip-rule="evenodd" d="M16.4444 6.54545C16.4444 7.75098 15.9762 8.90714 15.1427 9.75958C14.3092 10.612 13.1787 11.0909 12 11.0909C10.8213 11.0909 9.6908 10.612 8.85731 9.75958C8.02381 8.90714 7.55556 7.75098 7.55556 6.54545C7.55556 5.33993 8.02381 4.18377 8.85731 3.33133C9.6908 2.47889 10.8213 2 12 2C13.1787 2 14.3092 2.47889 15.1427 3.33133C15.9762 4.18377 16.4444 5.33993 16.4444 6.54545ZM13.4679 21.932C13.0061 21.9766 12.5171 22 12 22C6.28622 22 4 19.1582 4 16.3182V16.1309C4 14.3491 5.41155 12.9091 7.152 12.9091H14.8232C13.1277 13.9693 12 15.853 12 18C12 19.5041 12.5535 20.879 13.4679 21.932Z" fill="currentColor"/>
<path fill-rule="evenodd" clip-rule="evenodd" d="M13 18C13 15.2385 15.2385 13 18 13C20.7615 13 23 15.2385 23 18C23 20.7615 20.7615 23 18 23C15.2385 23 13 20.7615 13 18ZM18.5 15.5C18.5 15.3674 18.4473 15.2402 18.3536 15.1464C18.2598 15.0527 18.1326 15 18 15C17.8674 15 17.7402 15.0527 17.6464 15.1464C17.5527 15.2402 17.5 15.3674 17.5 15.5V17.382C17.5 17.6605 17.5776 17.9335 17.724 18.1705C17.8704 18.4074 18.0799 18.5989 18.329 18.7235L19.7765 19.447C19.8354 19.4788 19.9002 19.4984 19.9668 19.5047C20.0335 19.511 20.1007 19.5038 20.1646 19.4836C20.2284 19.4634 20.2876 19.4306 20.3385 19.3872C20.3894 19.3437 20.4311 19.2904 20.461 19.2305C20.491 19.1706 20.5086 19.1053 20.5128 19.0385C20.5171 18.9717 20.5078 18.9047 20.4857 18.8415C20.4635 18.7783 20.4289 18.7202 20.3839 18.6706C20.3388 18.6211 20.2843 18.5811 20.2235 18.553L18.7765 17.829C18.6935 17.7875 18.6236 17.7237 18.5748 17.6448C18.5259 17.5658 18.5 17.4748 18.5 17.382V15.5Z" fill="currentColor"/>
</svg>
