<svg width="24" height="24" viewBox="0 0 24 24" fill="none" xmlns="http://www.w3.org/2000/svg">
<path d="M21.5984 3.6C21.5984 3.18411 21.3831 2.79787 21.0293 2.57922C20.6755 2.36057 20.2338 2.3407 19.8618 2.52669L10.5152 7.2H5.99844C4.01021 7.2 2.39844 8.81178 2.39844 10.8C2.39844 12.7882 4.01021 14.4 5.99844 14.4H6.33354L8.46003 20.7795C8.62336 21.2695 9.08193 21.6 9.59845 21.6H10.7984C11.4612 21.6 11.9984 21.0627 11.9984 20.4V15.1416L19.8618 19.0733C20.2338 19.2593 20.6755 19.2394 21.0293 19.0208C21.3831 18.8021 21.5984 18.4159 21.5984 18V3.6Z" fill="#0055B8"/>
</svg>
