<svg width="24" height="24" viewBox="0 0 24 24" fill="none" xmlns="http://www.w3.org/2000/svg">
<path fill-rule="evenodd" clip-rule="evenodd" d="M21.6004 9.59999C21.6004 13.5764 18.3768 16.8 14.4004 16.8C13.673 16.8 12.9708 16.6921 12.3089 16.4915L9.60039 19.2H7.20039V21.6H2.40039V16.8L7.50888 11.6915C7.30826 11.0296 7.20039 10.3274 7.20039 9.59999C7.20039 5.62354 10.4239 2.39999 14.4004 2.39999C18.3768 2.39999 21.6004 5.62354 21.6004 9.59999ZM14.4004 4.79999C13.7376 4.79999 13.2004 5.33725 13.2004 5.99999C13.2004 6.66274 13.7376 7.19999 14.4004 7.19999C15.7259 7.19999 16.8004 8.27451 16.8004 9.59999C16.8004 10.2627 17.3377 10.8 18.0004 10.8C18.6631 10.8 19.2004 10.2627 19.2004 9.59999C19.2004 6.94903 17.0514 4.79999 14.4004 4.79999Z" fill="#0055B8"/>
</svg>
