<svg width="24" height="24" viewBox="0 0 24 24" fill="none" xmlns="http://www.w3.org/2000/svg">
<path d="M13.1999 7.2001C13.1999 9.18832 11.5881 10.8001 9.5999 10.8001C7.61168 10.8001 5.9999 9.18832 5.9999 7.2001C5.9999 5.21187 7.61168 3.6001 9.5999 3.6001C11.5881 3.6001 13.1999 5.21187 13.1999 7.2001Z" fill="#0055B8"/>
<path d="M16.7999 20.4001C16.7999 16.4236 13.5764 13.2001 9.5999 13.2001C5.62345 13.2001 2.3999 16.4236 2.3999 20.4001H16.7999Z" fill="#0055B8"/>
<path d="M15.5999 9.6001C14.9372 9.6001 14.3999 10.1374 14.3999 10.8001C14.3999 11.4628 14.9372 12.0001 15.5999 12.0001H20.3999C21.0626 12.0001 21.5999 11.4628 21.5999 10.8001C21.5999 10.1374 21.0626 9.6001 20.3999 9.6001H15.5999Z" fill="#0055B8"/>
</svg>
