<svg width="24" height="24" viewBox="0 0 24 24" fill="none" xmlns="http://www.w3.org/2000/svg">
<path fill-rule="evenodd" clip-rule="evenodd" d="M11.2594 3.69138C11.7078 3.87712 12.0002 4.31468 12.0002 4.80003V19.2C12.0002 19.6854 11.7078 20.123 11.2594 20.3087C10.811 20.4944 10.2949 20.3918 9.95167 20.0486L5.50314 15.6H2.4002C1.73745 15.6 1.2002 15.0628 1.2002 14.4V9.60003C1.2002 8.93729 1.73745 8.40003 2.4002 8.40003H5.50314L9.95167 3.95151C10.2949 3.60831 10.811 3.50564 11.2594 3.69138Z" fill="white"/>
<path fill-rule="evenodd" clip-rule="evenodd" d="M14.7517 8.75147C15.2203 8.28284 15.9801 8.28284 16.4487 8.75147L18.0002 10.3029L19.5517 8.75147C20.0203 8.28284 20.7801 8.28284 21.2487 8.75147C21.7174 9.2201 21.7174 9.9799 21.2487 10.4485L19.6972 12L21.2487 13.5515C21.7173 14.0201 21.7173 14.7799 21.2487 15.2485C20.7801 15.7172 20.0203 15.7172 19.5517 15.2485L18.0002 13.6971L16.4487 15.2485C15.9801 15.7172 15.2203 15.7172 14.7517 15.2485C14.283 14.7799 14.283 14.0201 14.7517 13.5515L16.3031 12L14.7517 10.4485C14.283 9.9799 14.283 9.2201 14.7517 8.75147Z" fill="white"/>
</svg>
