<svg width="30" height="31" viewBox="0 0 30 31" fill="none" xmlns="http://www.w3.org/2000/svg">
<path d="M26.1775 10.9164C26.1649 9.97164 25.9878 9.03631 25.654 8.15221C25.3646 7.40647 24.9225 6.72921 24.3561 6.16369C23.7896 5.59818 23.1112 5.15684 22.3642 4.86789C21.49 4.54028 20.5665 4.36313 19.6329 4.344C18.431 4.29036 18.0499 4.27539 14.9988 4.27539C11.9476 4.27539 11.5565 4.27539 10.3633 4.344C9.43017 4.36327 8.50707 4.54042 7.63327 4.86789C6.88618 5.15664 6.20768 5.5979 5.6412 6.16345C5.07472 6.72899 4.63272 7.40635 4.34349 8.15221C4.01467 9.02428 3.83762 9.94606 3.81997 10.8777C3.76624 12.0789 3.75 12.4594 3.75 15.5054C3.75 18.5515 3.75 18.9407 3.81997 20.1332C3.83871 21.0662 4.01488 21.9868 4.34349 22.8612C4.6332 23.6068 5.07553 24.2839 5.6422 24.8492C6.20888 25.4145 6.88744 25.8556 7.63452 26.1442C8.50593 26.485 9.42919 26.6748 10.3646 26.7055C11.5678 26.7592 11.9489 26.7754 15 26.7754C18.0511 26.7754 18.4422 26.7754 19.6354 26.7055C20.569 26.6872 21.4926 26.5105 22.3667 26.1829C23.1135 25.8936 23.7917 25.4522 24.3581 24.8867C24.9246 24.3212 25.3667 23.6441 25.6565 22.8986C25.9851 22.0254 26.1613 21.1049 26.18 20.1706C26.2338 18.9706 26.25 18.5902 26.25 15.5429C26.2475 12.4968 26.2475 12.1101 26.1775 10.9164ZM14.9913 21.2658C11.8002 21.2658 9.21507 18.685 9.21507 15.4992C9.21507 12.3134 11.8002 9.73262 14.9913 9.73262C16.5232 9.73262 17.9924 10.3402 19.0756 11.4216C20.1589 12.5031 20.7674 13.9698 20.7674 15.4992C20.7674 17.0286 20.1589 18.4953 19.0756 19.5768C17.9924 20.6582 16.5232 21.2658 14.9913 21.2658ZM20.9973 10.864C20.8204 10.8641 20.6452 10.8295 20.4817 10.762C20.3182 10.6944 20.1697 10.5954 20.0446 10.4705C19.9195 10.3456 19.8203 10.1973 19.7526 10.0341C19.685 9.87088 19.6503 9.69595 19.6504 9.51932C19.6504 9.34282 19.6853 9.16805 19.7529 9.00498C19.8206 8.84191 19.9197 8.69375 20.0448 8.56894C20.1698 8.44414 20.3182 8.34514 20.4815 8.27759C20.6449 8.21005 20.8199 8.17528 20.9967 8.17528C21.1735 8.17528 21.3486 8.21005 21.5119 8.27759C21.6752 8.34514 21.8237 8.44414 21.9487 8.56894C22.0737 8.69375 22.1729 8.84191 22.2405 9.00498C22.3082 9.16805 22.343 9.34282 22.343 9.51932C22.343 10.2628 21.7408 10.864 20.9973 10.864Z" fill="url(#paint0_linear_1420_270390)"/>
<path d="M15 19.2754C17.0711 19.2754 18.75 17.5965 18.75 15.5254C18.75 13.4543 17.0711 11.7754 15 11.7754C12.9289 11.7754 11.25 13.4543 11.25 15.5254C11.25 17.5965 12.9289 19.2754 15 19.2754Z" fill="#D2389A"/>
<defs>
<linearGradient id="paint0_linear_1420_270390" x1="6.00278" y1="10.5356" x2="26.9773" y2="22.0408" gradientUnits="userSpaceOnUse">
<stop stop-color="#BF01DE"/>
<stop offset="1" stop-color="#FFB800"/>
</linearGradient>
</defs>
</svg>
