<svg width="20" height="20" viewBox="0 0 20 20" fill="none" xmlns="http://www.w3.org/2000/svg">
<path fill-rule="evenodd" clip-rule="evenodd" d="M16.2037 2.5H7.77778C6.99611 2.5 5.83333 3.04307 5.83333 4.53907V9.21158C6.34616 9.09884 6.8956 9.19875 7.34342 9.50658L10.0233 11.3483C10.5238 11.6938 10.8333 12.2551 10.8333 12.8747V14.7812H16.5C17.0523 14.7812 17.5 14.3335 17.5 13.7812V3.85938C17.5 3.49885 17.3634 3.15309 17.1203 2.89815C16.8772 2.64322 16.5475 2.5 16.2037 2.5ZM16.8203 17.5H10.7306C10.7965 17.3429 10.8333 17.1693 10.8333 16.9844V16.1406H16.8203C17.1957 16.1406 17.5 16.4449 17.5 16.8203C17.5 17.1957 17.1957 17.5 16.8203 17.5ZM9.73778 7.61536C9.73778 8.02772 9.26672 8.26282 8.93719 8.01492L8.57135 7.7397C8.4606 7.65638 8.30719 7.65977 8.20023 7.7479L7.96314 7.94325C7.63697 8.212 7.14519 7.97999 7.14519 7.55737V4.85938C7.14519 4.30709 7.5929 3.85938 8.14519 3.85938H8.73778C9.29006 3.85938 9.73778 4.30709 9.73778 4.85938V7.61536ZM6.87143 10.1934L9.55 12.0342C9.83393 12.2301 10 12.5395 10 12.8747V16.9844C10 17.268 9.75893 17.5 9.46429 17.5H7.32143V14.4062H5.17857V17.5H3.03571C2.74107 17.5 2.5 17.268 2.5 16.9844V12.8747C2.5 12.5395 2.66607 12.2301 2.95 12.0342L5.62857 10.1934C5.99821 9.93554 6.49643 9.93554 6.87143 10.1934Z" fill="#0055B8"/>
</svg>
