<svg width="24" height="24" viewBox="0 0 24 24" fill="none" xmlns="http://www.w3.org/2000/svg">
<path fill-rule="evenodd" clip-rule="evenodd" d="M11.2623 3.6914C11.7108 3.87714 12.0031 4.3147 12.0031 4.80006V19.2001C12.0031 19.6854 11.7108 20.123 11.2623 20.3087C10.8139 20.4944 10.2978 20.3918 9.9546 20.0486L5.50607 15.6001H2.40313C1.74038 15.6001 1.20312 15.0628 1.20312 14.4001V9.60006C1.20312 8.93732 1.74038 8.40006 2.40313 8.40006H5.50607L9.9546 3.95153C10.2978 3.60833 10.8139 3.50567 11.2623 3.6914Z" fill="white"/>
<path fill-rule="evenodd" clip-rule="evenodd" d="M17.5913 3.51468C18.06 3.04605 18.8198 3.04605 19.2884 3.51468C21.4587 5.68494 22.8031 8.68658 22.8031 12C22.8031 15.3133 21.4587 18.315 19.2884 20.4852C18.8198 20.9539 18.06 20.9539 17.5913 20.4852C17.1227 20.0166 17.1227 19.2568 17.5913 18.7882C19.3299 17.0496 20.4031 14.6513 20.4031 12C20.4031 9.34866 19.3299 6.95031 17.5913 5.21174C17.1227 4.74311 17.1227 3.98331 17.5913 3.51468ZM14.1972 6.90879C14.6659 6.44016 15.4257 6.44016 15.8943 6.90879C16.5253 7.53985 17.0403 8.28827 17.4035 9.11951C17.7896 10.0031 18.0031 10.9782 18.0031 12C18.0031 13.9879 17.1959 15.7895 15.8943 17.0911C15.4257 17.5598 14.6659 17.5598 14.1972 17.0911C13.7286 16.6225 13.7286 15.8627 14.1972 15.3941C15.0672 14.5241 15.6031 13.3258 15.6031 12C15.6031 11.3151 15.4604 10.6667 15.2042 10.0804C14.9627 9.52752 14.6193 9.02795 14.1972 8.60585C13.7286 8.13722 13.7286 7.37742 14.1972 6.90879Z" fill="white"/>
</svg>
