<svg width="16" height="16" viewBox="0 0 16 16" fill="none" xmlns="http://www.w3.org/2000/svg">
<path fill-rule="evenodd" clip-rule="evenodd" d="M5.04937 2.89067C5.232 2.61671 5.47943 2.39208 5.7697 2.2367C6.05998 2.08133 6.38413 2.00002 6.71337 2H9.28671C9.61595 2.00002 9.9401 2.08133 10.2304 2.2367C10.5207 2.39208 10.7681 2.61671 10.9507 2.89067L11.492 3.70333C11.5529 3.79461 11.6354 3.86945 11.7322 3.9212C11.8289 3.97295 11.937 4.00002 12.0467 4H12.6667C13.1971 4 13.7058 4.21071 14.0809 4.58579C14.456 4.96086 14.6667 5.46957 14.6667 6V12C14.6667 12.5304 14.456 13.0391 14.0809 13.4142C13.7058 13.7893 13.1971 14 12.6667 14H3.33337C2.80294 14 2.29423 13.7893 1.91916 13.4142C1.54409 13.0391 1.33337 12.5304 1.33337 12V6C1.33337 5.46957 1.54409 4.96086 1.91916 4.58579C2.29423 4.21071 2.80294 4 3.33337 4H3.95337C4.0631 4.00002 4.17114 3.97295 4.2679 3.9212C4.36465 3.86945 4.44714 3.79461 4.50804 3.70333L5.04937 2.89V2.89067ZM6.66671 8.66667C6.66671 8.31305 6.80718 7.97391 7.05723 7.72386C7.30728 7.47381 7.64642 7.33333 8.00004 7.33333C8.35366 7.33333 8.6928 7.47381 8.94285 7.72386C9.1929 7.97391 9.33337 8.31305 9.33337 8.66667C9.33337 9.02029 9.1929 9.35943 8.94285 9.60948C8.6928 9.85952 8.35366 10 8.00004 10C7.64642 10 7.30728 9.85952 7.05723 9.60948C6.80718 9.35943 6.66671 9.02029 6.66671 8.66667ZM8.00004 6C7.2928 6 6.61452 6.28095 6.11442 6.78105C5.61433 7.28115 5.33337 7.95942 5.33337 8.66667C5.33337 9.37391 5.61433 10.0522 6.11442 10.5523C6.61452 11.0524 7.2928 11.3333 8.00004 11.3333C8.70728 11.3333 9.38556 11.0524 9.88566 10.5523C10.3858 10.0522 10.6667 9.37391 10.6667 8.66667C10.6667 7.95942 10.3858 7.28115 9.88566 6.78105C9.38556 6.28095 8.70728 6 8.00004 6Z" fill="white"/>
</svg>
