<svg width="24" height="24" viewBox="0 0 24 24" fill="none" xmlns="http://www.w3.org/2000/svg">
<path d="M19.2499 12C19.25 10.6466 18.8711 9.32011 18.1563 8.17082C17.4415 7.02153 16.4192 6.09529 15.2052 5.49692C13.9912 4.89856 12.6339 4.65196 11.287 4.78506C9.94011 4.91815 8.65736 5.42561 7.58395 6.25001H8.24995C8.51516 6.25001 8.76952 6.35537 8.95705 6.5429C9.14459 6.73044 9.24995 6.98479 9.24995 7.25001C9.24995 7.51523 9.14459 7.76958 8.95705 7.95712C8.76952 8.14465 8.51516 8.25001 8.24995 8.25001H5.24995C4.98473 8.25001 4.73038 8.14465 4.54284 7.95712C4.3553 7.76958 4.24995 7.51523 4.24995 7.25001V7.00001H4.21595L4.24995 6.94801V4.25001C4.24995 3.98479 4.3553 3.73044 4.54284 3.5429C4.73038 3.35537 4.98473 3.25001 5.24995 3.25001C5.51516 3.25001 5.76952 3.35537 5.95705 3.5429C6.14459 3.73044 6.24995 3.98479 6.24995 4.25001V4.75401C7.88396 3.4534 9.9115 2.74676 11.9999 2.75001C13.8776 2.75027 15.7108 3.32197 17.2557 4.38912C18.8007 5.45628 19.9843 6.96834 20.6492 8.72436C21.3142 10.4804 21.429 12.3972 20.9783 14.22C20.5277 16.0428 19.533 17.6853 18.1264 18.9292C16.7198 20.1731 14.968 20.9594 13.1038 21.1838C11.2395 21.4081 9.35114 21.0597 7.68964 20.185C6.02813 19.3103 4.67217 17.9507 3.80197 16.2868C2.93178 14.6229 2.58856 12.7336 2.81795 10.87C2.88095 10.358 3.33395 10 3.84995 10C4.43995 10 4.86695 10.569 4.79895 11.156C4.68433 12.1368 4.77129 13.1307 5.05448 14.0767C5.33767 15.0227 5.81113 15.9008 6.44581 16.6573C7.0805 17.4138 7.86303 18.0327 8.74542 18.476C9.6278 18.9192 10.5914 19.1776 11.5772 19.2352C12.563 19.2927 13.5502 19.1483 14.4782 18.8108C15.4062 18.4732 16.2554 17.9497 16.9739 17.2722C17.6923 16.5948 18.2648 15.7777 18.6562 14.8711C19.0475 13.9645 19.2496 12.9875 19.2499 12ZM12.9999 8.00001C12.9999 7.73479 12.8946 7.48044 12.7071 7.2929C12.5195 7.10537 12.2652 7.00001 11.9999 7.00001C11.7347 7.00001 11.4804 7.10537 11.2928 7.2929C11.1053 7.48044 10.9999 7.73479 10.9999 8.00001V13C10.9999 13.2652 11.1053 13.5196 11.2928 13.7071C11.4804 13.8947 11.7347 14 11.9999 14H14.9999C15.2652 14 15.5195 13.8947 15.7071 13.7071C15.8946 13.5196 15.9999 13.2652 15.9999 13C15.9999 12.7348 15.8946 12.4804 15.7071 12.2929C15.5195 12.1054 15.2652 12 14.9999 12H12.9999V8.00001Z" fill="white"/>
</svg>
