<svg width="24" height="24" viewBox="0 0 24 24" fill="none" xmlns="http://www.w3.org/2000/svg">
<path d="M3.5999 3.6001C2.93716 3.6001 2.3999 4.13736 2.3999 4.8001V19.2001C2.3999 19.8628 2.93716 20.4001 3.5999 20.4001C4.26264 20.4001 4.7999 19.8628 4.7999 19.2001V4.8001C4.7999 4.13736 4.26264 3.6001 3.5999 3.6001Z" fill="#0055B8"/>
<path d="M15.9514 14.7516C15.4827 15.2202 15.4827 15.98 15.9514 16.4486C16.42 16.9173 17.1798 16.9173 17.6484 16.4486L21.2484 12.8486C21.4735 12.6236 21.5999 12.3184 21.5999 12.0001C21.5999 11.6818 21.4735 11.3766 21.2484 11.1516L17.6484 7.55157C17.1798 7.08294 16.42 7.08294 15.9514 7.55157C15.4827 8.0202 15.4827 8.78 15.9514 9.24863L17.5028 10.8001L8.3999 10.8001C7.73716 10.8001 7.1999 11.3374 7.1999 12.0001C7.1999 12.6628 7.73716 13.2001 8.3999 13.2001H17.5028L15.9514 14.7516Z" fill="#0055B8"/>
</svg>
