<svg width="24" height="24" viewBox="0 0 24 24" fill="none" xmlns="http://www.w3.org/2000/svg">
<path fill-rule="evenodd" clip-rule="evenodd" d="M11.9999 21.6C17.3018 21.6 21.5999 17.302 21.5999 12C21.5999 6.69809 17.3018 2.40002 11.9999 2.40002C6.69797 2.40002 2.3999 6.69809 2.3999 12C2.3999 17.302 6.69797 21.6 11.9999 21.6ZM11.4655 8.60157C11.0973 8.35608 10.6239 8.33319 10.2337 8.54202C9.84348 8.75084 9.5999 9.15747 9.5999 9.60003V14.4C9.5999 14.8426 9.84348 15.2492 10.2337 15.458C10.6239 15.6669 11.0973 15.644 11.4655 15.3985L15.0655 12.9985C15.3994 12.7759 15.5999 12.4012 15.5999 12C15.5999 11.5988 15.3994 11.2241 15.0655 11.0016L11.4655 8.60157Z" fill="#495057"/>
</svg>
