<svg width="30" height="31" viewBox="0 0 30 31" fill="none" xmlns="http://www.w3.org/2000/svg">
<path d="M27.1022 7.89776C26.1974 8.29865 25.2255 8.56953 24.2038 8.69197C25.258 8.06114 26.0468 7.06829 26.4228 5.89868C25.4323 6.48701 24.3483 6.90114 23.2178 7.12305C22.4576 6.31135 21.4506 5.77335 20.3533 5.59256C19.256 5.41177 18.1297 5.59832 17.1493 6.12324C16.1689 6.64816 15.3892 7.48208 14.9313 8.49553C14.4733 9.50898 14.3628 10.6453 14.6169 11.728C12.6099 11.6272 10.6465 11.1055 8.85415 10.1969C7.0618 9.28818 5.48055 8.01278 4.21301 6.45344C3.77961 7.20106 3.5304 8.06787 3.5304 8.99102C3.52992 9.82206 3.73457 10.6404 4.1262 11.3734C4.51783 12.1063 5.08433 12.7313 5.77544 13.1929C4.97394 13.1674 4.19012 12.9508 3.48923 12.5612V12.6262C3.48915 13.7918 3.89233 14.9215 4.63036 15.8236C5.3684 16.7258 6.39582 17.3448 7.53831 17.5757C6.79478 17.7769 6.01526 17.8065 5.2586 17.6623C5.58094 18.6653 6.20884 19.5423 7.05438 20.1706C7.89992 20.7989 8.92078 21.1471 9.97404 21.1664C8.18607 22.57 5.97793 23.3314 3.70485 23.328C3.3022 23.3281 2.89988 23.3046 2.49998 23.2576C4.80729 24.7411 7.49317 25.5284 10.2362 25.5254C19.5219 25.5254 24.5982 17.8346 24.5982 11.1645C24.5982 10.9478 24.5928 10.729 24.583 10.5123C25.5704 9.7982 26.4227 8.91398 27.1 7.90101L27.1022 7.89776Z" fill="#2BAFFC"/>
</svg>
