<svg width="24" height="24" viewBox="0 0 24 24" fill="none" xmlns="http://www.w3.org/2000/svg">
<g clip-path="url(#clip0_4667_8560)">
<path d="M1 10.6999V20.0499C1 20.3538 1.24612 20.5999 1.55 20.5999H4.3V9.59994H2.1C1.49259 9.59994 1 10.0925 1 10.6999ZM13.375 9.04994H12.55V7.67494C12.55 7.52301 12.4269 7.39994 12.275 7.39994H11.725C11.5731 7.39994 11.45 7.52301 11.45 7.67494V9.87494C11.45 10.0269 11.5731 10.1499 11.725 10.1499H13.375C13.5269 10.1499 13.65 10.0269 13.65 9.87494V9.32494C13.65 9.17301 13.5269 9.04994 13.375 9.04994ZM18.1102 6.85132L12.6102 3.18454C12.4294 3.06417 12.2171 2.99994 12 2.99994C11.7829 2.99994 11.5706 3.06417 11.3898 3.18454L5.88984 6.85132C5.7392 6.95175 5.61567 7.08782 5.53022 7.24745C5.44477 7.40707 5.40004 7.58532 5.4 7.76638V20.5999H9.8V15.6499C9.8 15.3461 10.0461 15.0999 10.35 15.0999H13.65C13.9539 15.0999 14.2 15.3461 14.2 15.6499V20.5999H18.6V7.76672C18.6 7.39891 18.4161 7.05516 18.1102 6.85132ZM12 11.7999C10.4813 11.7999 9.25 10.5686 9.25 9.04994C9.25 7.53126 10.4813 6.29994 12 6.29994C13.5187 6.29994 14.75 7.53126 14.75 9.04994C14.75 10.5686 13.5187 11.7999 12 11.7999ZM21.9 9.59994H19.7V20.5999H22.45C22.7539 20.5999 23 20.3538 23 20.0499V10.6999C23 10.0925 22.5074 9.59994 21.9 9.59994Z" fill="currentColor"/>
</g>
<defs>
<clipPath id="clip0_4667_8560">
<rect width="22" height="17.6" fill="white" transform="translate(1 3)"/>
</clipPath>
</defs>
</svg>
