<svg width="24" height="24" viewBox="0 0 24 24" fill="none" xmlns="http://www.w3.org/2000/svg">
<path fill-rule="evenodd" clip-rule="evenodd" d="M21.5999 12C21.5999 17.302 17.3018 21.6 11.9999 21.6C6.69797 21.6 2.3999 17.302 2.3999 12C2.3999 6.69809 6.69797 2.40002 11.9999 2.40002C17.3018 2.40002 21.5999 6.69809 21.5999 12ZM8.3999 9.60002C8.3999 8.93728 8.93716 8.40002 9.5999 8.40002C10.2626 8.40002 10.7999 8.93728 10.7999 9.60002V14.4C10.7999 15.0628 10.2626 15.6 9.5999 15.6C8.93716 15.6 8.3999 15.0628 8.3999 14.4V9.60002ZM14.3999 8.40002C13.7372 8.40002 13.1999 8.93728 13.1999 9.60002V14.4C13.1999 15.0628 13.7372 15.6 14.3999 15.6C15.0626 15.6 15.5999 15.0628 15.5999 14.4V9.60002C15.5999 8.93728 15.0626 8.40002 14.3999 8.40002Z" fill="#495057"/>
</svg>
