<svg width="24" height="24" viewBox="0 0 24 24" fill="none" xmlns="http://www.w3.org/2000/svg">
<path fill-rule="evenodd" clip-rule="evenodd" d="M7.19844 2.40039C6.5357 2.40039 5.99844 2.93765 5.99844 3.60039V4.80039H4.79844C3.47295 4.80039 2.39844 5.87491 2.39844 7.20039V19.2004C2.39844 20.5259 3.47295 21.6004 4.79844 21.6004H19.1984C20.5239 21.6004 21.5984 20.5259 21.5984 19.2004V7.20039C21.5984 5.87491 20.5239 4.80039 19.1984 4.80039H17.9984V3.60039C17.9984 2.93765 17.4612 2.40039 16.7984 2.40039C16.1357 2.40039 15.5984 2.93765 15.5984 3.60039V4.80039H8.39844V3.60039C8.39844 2.93765 7.86118 2.40039 7.19844 2.40039ZM7.19844 8.40039C6.5357 8.40039 5.99844 8.93765 5.99844 9.60039C5.99844 10.2631 6.5357 10.8004 7.19844 10.8004H16.7984C17.4612 10.8004 17.9984 10.2631 17.9984 9.60039C17.9984 8.93765 17.4612 8.40039 16.7984 8.40039H7.19844Z" fill="#0055B8"/>
</svg>
