<svg width="32" height="32" viewBox="0 0 32 32" fill="none" xmlns="http://www.w3.org/2000/svg">
<path fill-rule="evenodd" clip-rule="evenodd" d="M4 16C4 14.9391 4.42143 13.9217 5.17157 13.1716C5.92172 12.4214 6.93913 12 8 12H24C25.0609 12 26.0783 12.4214 26.8284 13.1716C27.5786 13.9217 28 14.9391 28 16V25.3333C28 26.3942 27.5786 27.4116 26.8284 28.1618C26.0783 28.9119 25.0609 29.3333 24 29.3333H8C6.93913 29.3333 5.92172 28.9119 5.17157 28.1618C4.42143 27.4116 4 26.3942 4 25.3333V16ZM17.3333 18.6667C17.3333 18.313 17.1929 17.9739 16.9428 17.7239C16.6928 17.4738 16.3536 17.3333 16 17.3333C15.6464 17.3333 15.3072 17.4738 15.0572 17.7239C14.8071 17.9739 14.6667 18.313 14.6667 18.6667V22.6667C14.6667 23.0203 14.8071 23.3594 15.0572 23.6095C15.3072 23.8595 15.6464 24 16 24C16.3536 24 16.6928 23.8595 16.9428 23.6095C17.1929 23.3594 17.3333 23.0203 17.3333 22.6667V18.6667Z" fill="#868E96"/>
<path d="M10.668 13.3333V9.33333C10.668 7.91885 11.2299 6.56229 12.2301 5.5621C13.2303 4.5619 14.5868 4 16.0013 4V4C17.4158 4 18.7723 4.5619 19.7725 5.5621C20.7727 6.56229 21.3346 7.91885 21.3346 9.33333V13.3333" stroke="#868E96" stroke-width="2" stroke-linecap="round" stroke-linejoin="round"/>
</svg>
