<svg width="32" height="32" viewBox="0 0 32 32" fill="none" xmlns="http://www.w3.org/2000/svg">
<path d="M1.33203 7.16013C1.33203 6.61193 1.72129 6.14095 2.25969 6.03772L2.97421 5.90073C6.91972 5.14426 10.9824 5.14426 14.928 5.90073L16.5701 6.21558V26.6667L14.928 26.3519C10.9824 25.5954 6.91972 25.5954 2.97421 26.3519L2.69009 26.4063C1.98544 26.5414 1.33203 26.0014 1.33203 25.2839V7.16013Z" fill="#CFE7FE"/>
<path d="M16.5703 6.21558L18.2125 5.90073C22.158 5.14426 26.2207 5.14426 30.1662 5.90073L30.8807 6.03772C31.4191 6.14095 31.8084 6.61193 31.8084 7.16013V25.2839C31.8084 26.0014 31.155 26.5414 30.4504 26.4063L30.1662 26.3519C26.2207 25.5954 22.158 25.5954 18.2125 26.3519L16.5703 26.6667V6.21558Z" fill="#9ECEFC"/>
<path d="M20.3789 12.1017C21.6487 11.5938 24.9503 10.8826 27.998 12.1017" stroke="#0055B8" stroke-width="1.14286" stroke-linecap="round"/>
<path d="M20.3789 15.8224C21.6487 15.3145 24.9503 14.6033 27.998 15.8224" stroke="#0055B8" stroke-width="1.14286" stroke-linecap="round"/>
<path d="M20.3789 19.5431C21.6487 19.0352 24.9503 18.324 27.998 19.5431" stroke="#0055B8" stroke-width="1.14286" stroke-linecap="round"/>
<path d="M11.5432 17.0306C11.7359 16.9849 11.9103 17.0101 12.0662 17.1063C12.2277 17.1933 12.3314 17.3331 12.3771 17.5259C12.421 17.7112 12.3912 17.8827 12.2876 18.0404C12.1897 18.1889 12.0444 18.286 11.8516 18.3317L8.23745 19.1883C8.0447 19.234 7.86666 19.2097 7.70334 19.1153C7.54568 19.0117 7.444 18.8635 7.39832 18.6708L5.87476 12.2432C5.82907 12.0504 5.85801 11.8752 5.96158 11.7175C6.0634 11.5525 6.2181 11.4453 6.42568 11.3961C6.60361 11.354 6.77511 11.3838 6.94018 11.4856C7.11092 11.5782 7.21913 11.7209 7.26482 11.9137L8.68557 17.9076L8.39611 17.7765L11.5432 17.0306Z" fill="#0055B8"/>
<path d="M12.0662 17.1063L11.9162 17.3495C11.921 17.3524 11.9258 17.3552 11.9307 17.3579L12.0662 17.1063ZM12.2876 18.0404L12.5261 18.1977L12.5264 18.1973L12.2876 18.0404ZM7.70334 19.1153L7.54647 19.3541C7.55102 19.3571 7.55565 19.3599 7.56036 19.3626L7.70334 19.1153ZM5.96158 11.7175L6.20048 11.8745L6.20476 11.8675L5.96158 11.7175ZM6.94018 11.4856L6.7902 11.7288C6.7947 11.7315 6.79927 11.7342 6.80392 11.7367L6.94018 11.4856ZM8.68557 17.9076L8.56773 18.1679C8.66699 18.2128 8.78317 18.1974 8.86726 18.1281C8.95135 18.0588 8.98871 17.9477 8.96358 17.8417L8.68557 17.9076ZM8.39611 17.7765L8.33021 17.4985C8.21128 17.5267 8.12346 17.6274 8.11172 17.7491C8.09998 17.8708 8.16692 17.9864 8.27826 18.0368L8.39611 17.7765ZM11.6091 17.3086C11.7347 17.2788 11.8304 17.2965 11.9162 17.3495L12.2162 16.8631C11.9902 16.7237 11.7372 16.691 11.4773 16.7526L11.6091 17.3086ZM11.9307 17.3579C12.0142 17.4028 12.0705 17.4713 12.099 17.5918L12.6551 17.46C12.5922 17.195 12.4412 16.9837 12.2016 16.8547L11.9307 17.3579ZM12.099 17.5918C12.1251 17.7015 12.1087 17.7923 12.0488 17.8835L12.5264 18.1973C12.6736 17.9732 12.7169 17.721 12.6551 17.46L12.099 17.5918ZM12.0491 17.8831C11.9959 17.9638 11.9164 18.0227 11.7857 18.0537L11.9175 18.6097C12.1723 18.5493 12.3835 18.414 12.5261 18.1977L12.0491 17.8831ZM11.7857 18.0537L8.17156 18.9103L8.30335 19.4664L11.9175 18.6097L11.7857 18.0537ZM8.17156 18.9103C8.04586 18.9401 7.94307 18.9238 7.84632 18.8679L7.56036 19.3626C7.79025 19.4955 8.04354 19.5279 8.30335 19.4664L8.17156 18.9103ZM7.86021 18.8765C7.76681 18.8151 7.70612 18.7306 7.67633 18.6049L7.1203 18.7367C7.18189 18.9965 7.32455 19.2083 7.54647 19.3541L7.86021 18.8765ZM7.67633 18.6049L6.15277 12.1773L5.59675 12.3091L7.1203 18.7367L7.67633 18.6049ZM6.15277 12.1773C6.12419 12.0567 6.14234 11.9628 6.20038 11.8744L5.72279 11.5607C5.57368 11.7877 5.53395 12.0441 5.59675 12.3091L6.15277 12.1773ZM6.20476 11.8675C6.26263 11.7737 6.34963 11.7078 6.49158 11.6741L6.35978 11.1181C6.08656 11.1829 5.86416 11.3312 5.7184 11.5676L6.20476 11.8675ZM6.49158 11.6741C6.59095 11.6506 6.68527 11.6641 6.7902 11.7288L7.09017 11.2424C6.86494 11.1035 6.61626 11.0573 6.35978 11.1181L6.49158 11.6741ZM6.80392 11.7367C6.9016 11.7897 6.95944 11.8641 6.9868 11.9796L7.54283 11.8478C7.47881 11.5777 7.32023 11.3667 7.07645 11.2345L6.80392 11.7367ZM6.9868 11.9796L8.40756 17.9735L8.96358 17.8417L7.54283 11.8478L6.9868 11.9796ZM8.80342 17.6473L8.51396 17.5163L8.27826 18.0368L8.56773 18.1679L8.80342 17.6473ZM8.46201 18.0546L11.6091 17.3086L11.4773 16.7526L8.33021 17.4985L8.46201 18.0546Z" fill="#0055B8"/>
</svg>
