<svg width="32" height="32" viewBox="0 0 32 32" fill="none" xmlns="http://www.w3.org/2000/svg">
<rect x="1.3335" y="1.3335" width="21.3333" height="29.3333" rx="2.66667" fill="#CFE7FE"/>
<rect x="4" y="20" width="12" height="2" rx="1" fill="#79BBFB"/>
<rect x="4" y="24" width="12" height="2" rx="1" fill="#79BBFB"/>
<path d="M12.4741 6.18352C12.9238 6.07692 13.3741 6.10722 13.8248 6.27444C14.2841 6.43961 14.6872 6.71405 15.0339 7.09776C15.3807 7.48146 15.6186 7.94577 15.7478 8.49067C15.8749 9.02692 15.8696 9.54431 15.732 10.0428C15.5944 10.5413 15.3584 10.9718 15.0241 11.3342C14.6964 11.686 14.3077 11.9151 13.8579 12.0218L11.4707 12.5876L11.5451 12.3233L12.1817 15.0089C12.235 15.2338 12.2109 15.4405 12.1094 15.629C12.0059 15.8088 11.8417 15.9254 11.6168 15.9787C11.4005 16.0299 11.2058 15.9984 11.0326 15.8842C10.8573 15.7613 10.743 15.5874 10.6897 15.3626L8.9122 7.86367C8.85889 7.63879 8.88833 7.43541 9.00052 7.25352C9.1193 7.06093 9.29113 6.93798 9.51601 6.88468L12.4741 6.18352ZM13.5073 10.5427C13.6717 10.5038 13.8153 10.3967 13.9382 10.2214C14.061 10.0461 14.1488 9.83802 14.2013 9.59719C14.2518 9.34771 14.2483 9.10188 14.1909 8.8597C14.1315 8.60887 14.0242 8.38764 13.8692 8.19601C13.7141 8.00438 13.5434 7.86215 13.3569 7.76932C13.1685 7.66783 12.992 7.63657 12.8277 7.67552L10.4146 8.24751L10.5149 7.97708L11.2991 11.2854L11.1072 11.1117L13.5073 10.5427Z" fill="#0055B8"/>
<path fill-rule="evenodd" clip-rule="evenodd" d="M12.1817 15.0085C12.235 15.2334 12.2109 15.4401 12.1094 15.6286C12.0059 15.8084 11.8417 15.925 11.6168 15.9783C11.4006 16.0295 11.2059 15.9981 11.0326 15.8838C10.8573 15.7609 10.743 15.5871 10.6897 15.3622L8.91225 7.86328C8.85894 7.63841 8.88838 7.43502 9.00057 7.25313C9.11935 7.06054 9.29118 6.9376 9.51606 6.88429L12.4741 6.18314C12.9239 6.07653 13.3741 6.10684 13.8248 6.27406C14.2842 6.43923 14.6872 6.71367 15.034 7.09737C15.3807 7.48108 15.6187 7.94538 15.7478 8.49029C15.8749 9.02654 15.8697 9.54392 15.7321 10.0424C15.5944 10.541 15.3585 10.9714 15.0242 11.3339C14.6964 11.6856 14.3077 11.9148 13.858 12.0214L11.6005 12.5565L12.1817 15.0085ZM12.059 12.8393L12.5524 14.9207C12.6254 15.2285 12.5943 15.5317 12.4449 15.8092L12.4397 15.8187C12.2775 16.1004 12.0189 16.2745 11.7047 16.349C11.3943 16.4225 11.0906 16.3783 10.8229 16.2019L10.8139 16.1959C10.5558 16.015 10.392 15.7579 10.319 15.45L8.54157 7.95115C8.46705 7.6368 8.50652 7.32847 8.67633 7.05315C8.84941 6.77253 9.10736 6.58966 9.4282 6.51361L12.3862 5.81246C12.9116 5.68793 13.4379 5.72454 13.9555 5.91622C14.4766 6.10392 14.9309 6.41512 15.3166 6.84196C15.7098 7.27711 15.9758 7.80046 16.1185 8.40242C16.2594 8.99682 16.2551 9.57946 16.0993 10.1438C15.9463 10.6979 15.6817 11.1829 15.3042 11.5922L15.3029 11.5936C14.9261 11.998 14.4718 12.2674 13.9458 12.3921L12.059 12.8393ZM13.5074 10.5424C13.6717 10.5034 13.8153 10.3963 13.9382 10.221C14.0611 10.0457 14.1488 9.83764 14.2013 9.5968C14.2518 9.34732 14.2484 9.10149 14.191 8.85931C14.1315 8.60849 14.0243 8.38726 13.8692 8.19563C13.7142 8.004 13.5434 7.86177 13.357 7.76893C13.1685 7.66745 12.9921 7.63618 12.8278 7.67513L10.5703 8.21022L11.2499 11.0774L13.5074 10.5424ZM11.5327 10.6189L13.4195 10.1717C13.4708 10.1595 13.5421 10.1223 13.6263 10.0023C13.7157 9.8748 13.7851 9.71601 13.8285 9.51845C13.8677 9.32273 13.8645 9.13359 13.8203 8.94718C13.7734 8.74927 13.6906 8.58047 13.5731 8.43524C13.4461 8.27838 13.3166 8.17437 13.1872 8.10995L13.1763 8.10453C13.0473 8.03505 12.9669 8.03367 12.9156 8.04581L11.0288 8.49304L11.5327 10.6189Z" fill="#0055B8"/>
<path d="M17.5212 24.5343C17.7646 23.7439 18.1626 22.255 18.3958 21.6881C18.5843 21.2307 18.7603 20.771 18.9766 20.5544C19.1929 20.3381 19.5608 20.355 19.7828 20.5762C19.7828 20.5762 20.7115 21.2063 21.0445 21.6231C21.4613 21.9548 22.0921 22.8859 22.0921 22.8859C22.314 23.1078 22.331 23.4753 22.1147 23.692C21.898 23.9083 21.4383 24.0844 20.9805 24.2728C20.414 24.5061 18.9247 24.9033 18.1344 25.1474C17.9993 25.1888 17.4798 24.6693 17.5212 24.5343Z" fill="#D99E82"/>
<path d="M25.6387 13.8922C25.5357 13.9952 25.4541 14.1173 25.3983 14.2518C25.3426 14.3863 25.314 14.5304 25.314 14.676C25.314 14.8216 25.3426 14.9657 25.3983 15.1002C25.4541 15.2347 25.5357 15.3568 25.6387 15.4598L27.2062 17.0276C27.4141 17.2354 27.696 17.3521 27.99 17.3521C28.2839 17.3521 28.5658 17.2354 28.7737 17.0276L30.3416 15.4598C30.5493 15.2518 30.666 14.9699 30.666 14.676C30.666 14.3821 30.5493 14.1002 30.3416 13.8922L28.7741 12.3247C28.6712 12.2218 28.549 12.1401 28.4145 12.0844C28.28 12.0287 28.1359 12 27.9903 12C27.8448 12 27.7006 12.0287 27.5661 12.0844C27.4317 12.1401 27.3095 12.2218 27.2066 12.3247L25.6387 13.8922Z" fill="#EA596E"/>
<path d="M18.9762 20.5544L20.5449 22.123L22.1109 23.6898L27.9897 17.8113L24.8543 14.6763L18.9762 20.5544Z" fill="#FFCC4D"/>
<path d="M18.7036 24.9722C18.7036 24.9722 17.6846 25.5324 17.4092 25.257C17.1338 24.9816 17.697 23.9648 17.697 23.9648C17.697 23.9648 18.6622 23.9829 18.7036 24.9722Z" fill="#292F33"/>
<path d="M29.9492 15.8517L26.8138 12.7163L24.8547 14.6758L27.9897 17.8112L29.9492 15.8517Z" fill="#CCD6DD"/>
<path d="M29.5576 16.2434L26.4226 13.1084L26.0306 13.5004L29.1656 16.6354L29.5576 16.2434ZM28.774 17.0281L25.6386 13.8927L25.2467 14.2847L28.3821 17.4197L28.774 17.0281Z" fill="#99AAB5"/>
</svg>
