<svg width="32" height="32" viewBox="0 0 32 32" fill="none" xmlns="http://www.w3.org/2000/svg">
<path d="M23.3831 3.31657C22.8121 2.84388 22.2221 2.63403 21.7655 2.50329C20.5521 2.15567 19.1721 2.33589 17.9705 3.04073C17.5915 3.26306 17.232 3.53691 16.9045 3.86534L5.98186 14.8355C5.44824 15.2744 4.92116 15.9087 4.20193 16.5299L3.06992 17.5926L1.81444 18.8325C-0.51898 21.1349 0.519832 24.9834 3.66917 25.7267L24.133 30.547C27.6953 31.3837 31.0741 28.1849 30.1747 24.8315L27.6206 15.4471C27.6185 15.4392 27.6219 15.4309 27.6289 15.4268C27.6361 15.4226 27.6394 15.4139 27.637 15.4059L26.9423 13.1443L25.5014 7.63764C25.5008 7.63505 25.5002 7.63286 25.4995 7.63026C25.4869 7.58112 25.3406 7.01847 25.088 6.30779C25.0871 6.30547 25.0844 6.30444 25.0823 6.30569C25.0802 6.30691 25.0775 6.30607 25.0766 6.30382C24.8397 5.69876 24.4182 4.65318 24.0194 4.02896C24.0181 4.02683 24.0188 4.02404 24.021 4.02276C24.0232 4.02146 24.0238 4.01858 24.0224 4.01644C23.828 3.72353 23.6073 3.47742 23.3831 3.31657Z" fill="#CFE7FE"/>
<path fill-rule="evenodd" clip-rule="evenodd" d="M8.3 8C7.42479 8 6.58542 8.36122 5.96655 9.00421C5.34768 9.64719 5 10.5193 5 11.4286V20.5714C5 21.4807 5.34768 22.3528 5.96655 22.9958C6.58542 23.6388 7.42479 24 8.3 24H19.3C20.1752 24 21.0146 23.6388 21.6335 22.9958C22.2523 22.3528 22.6 21.4807 22.6 20.5714V18.7589L25.1223 21.3794C25.2761 21.5392 25.4721 21.648 25.6855 21.6921C25.8988 21.7362 26.1199 21.7135 26.3209 21.6271C26.5219 21.5406 26.6937 21.3941 26.8145 21.2062C26.9354 21.0183 27 20.7974 27 20.5714V11.4286C27 11.2026 26.9354 10.9817 26.8145 10.7938C26.6937 10.6059 26.5219 10.4594 26.3209 10.3729C26.1199 10.2865 25.8988 10.2638 25.6855 10.3079C25.4721 10.352 25.2761 10.4608 25.1223 10.6206L22.6 13.2411V11.4286C22.6 10.5193 22.2523 9.64719 21.6335 9.00421C21.0146 8.36122 20.1752 8 19.3 8H8.3Z" fill="#0055B8"/>
</svg>
