<svg width="40" height="40" viewBox="0 0 40 40" fill="none" xmlns="http://www.w3.org/2000/svg">
<g clip-path="url(#clip0_1644_125431)">
<rect width="40" height="40" rx="20" fill="#EFF7FF"/>
<path fill-rule="evenodd" clip-rule="evenodd" d="M13.584 13.3333C12.8546 13.3333 12.1552 13.6344 11.6394 14.1702C11.1237 14.706 10.834 15.4327 10.834 16.1905V23.8095C10.834 24.5673 11.1237 25.294 11.6394 25.8298C12.1552 26.3657 12.8546 26.6667 13.584 26.6667H22.7507C23.48 26.6667 24.1795 26.3657 24.6952 25.8298C25.2109 25.294 25.5007 24.5673 25.5007 23.8095V22.2991L27.6026 24.4829C27.7308 24.616 27.8941 24.7067 28.0719 24.7434C28.2497 24.7802 28.4339 24.7613 28.6014 24.6892C28.7689 24.6172 28.912 24.4951 29.0128 24.3385C29.1135 24.182 29.1673 23.9979 29.1673 23.8095V16.1905C29.1673 16.0022 29.1135 15.8181 29.0128 15.6615C28.912 15.5049 28.7689 15.3829 28.6014 15.3108C28.4339 15.2387 28.2497 15.2199 28.0719 15.2566C27.8941 15.2933 27.7308 15.384 27.6026 15.5172L25.5007 17.701V16.1905C25.5007 15.4327 25.2109 14.706 24.6952 14.1702C24.1795 13.6344 23.48 13.3333 22.7507 13.3333H13.584Z" fill="#007BE0"/>
</g>
<defs>
<clipPath id="clip0_1644_125431">
<rect width="40" height="40" fill="white"/>
</clipPath>
</defs>
</svg>
