<svg width="40" height="40" viewBox="0 0 40 40" fill="none" xmlns="http://www.w3.org/2000/svg">
<g clip-path="url(#clip0_1644_124988)">
<rect width="40" height="40" rx="20" fill="#E3FCE5"/>
<path fill-rule="evenodd" clip-rule="evenodd" d="M14.9901 10.8333H14.4092C13.947 10.8333 13.5037 11.0144 13.1769 11.3367C12.8501 11.659 12.6665 12.0962 12.6665 12.552V26.3017C12.6665 26.7575 12.8501 27.1947 13.1769 27.517C13.5037 27.8393 13.947 28.0204 14.4092 28.0204H18.4789C18.4871 27.8897 18.508 27.7568 18.5417 27.6228L18.9773 25.9064C19.14 25.2623 19.4773 24.6741 19.9532 24.2048L25.5647 18.6706C25.864 18.3747 26.2182 18.1382 26.608 17.974V12.552C26.608 12.0962 26.4244 11.659 26.0975 11.3367C25.7707 11.0144 25.3275 10.8333 24.8653 10.8333H24.2844H20.2181H14.9901ZM21.3799 13.5833H15.571C15.4169 13.5833 15.2692 13.6437 15.1602 13.7511C15.0513 13.8586 14.9901 14.0043 14.9901 14.1562C14.9901 14.3082 15.0513 14.4539 15.1602 14.5613C15.2692 14.6688 15.4169 14.7291 15.571 14.7291H21.3799C21.534 14.7291 21.6817 14.6688 21.7907 14.5613C21.8996 14.4539 21.9608 14.3082 21.9608 14.1562C21.9608 14.0043 21.8996 13.8586 21.7907 13.7511C21.6817 13.6437 21.534 13.5833 21.3799 13.5833ZM21.7907 17.9987C21.8996 17.8913 21.9608 17.7456 21.9608 17.5936C21.9608 17.4417 21.8996 17.296 21.7907 17.1885C21.6817 17.0811 21.534 17.0207 21.3799 17.0207H15.571C15.4169 17.0207 15.2692 17.0811 15.1602 17.1885C15.0513 17.296 14.9901 17.4417 14.9901 17.5936C14.9901 17.7456 15.0513 17.8913 15.1602 17.9987C15.2692 18.1062 15.4169 18.1665 15.571 18.1665H21.3799C21.534 18.1665 21.6817 18.1062 21.7907 17.9987ZM17.8946 20.4581H15.571C15.4169 20.4581 15.2692 20.5185 15.1602 20.6259C15.0513 20.7334 14.9901 20.8791 14.9901 21.031C14.9901 21.183 15.0513 21.3287 15.1602 21.4361C15.2692 21.5436 15.4169 21.6039 15.571 21.6039H17.8946C18.0486 21.6039 18.1964 21.5436 18.3053 21.4361C18.4142 21.3287 18.4754 21.183 18.4754 21.031C18.4754 20.8791 18.4142 20.7334 18.3053 20.6259C18.1964 20.5185 18.0486 20.4581 17.8946 20.4581Z" fill="#09B95A"/>
<path fill-rule="evenodd" clip-rule="evenodd" d="M20.7758 25.0161L26.3872 19.4818H26.3861C26.7945 19.0851 27.3454 18.8636 27.9186 18.8657C28.4919 18.8678 29.0411 19.0932 29.4466 19.493C29.852 19.8927 30.0808 20.4342 30.0832 20.9996C30.0855 21.565 29.8611 22.1084 29.459 22.5113L23.8476 28.0456C23.5208 28.3683 23.1111 28.5972 22.6625 28.7079L20.9222 29.1364C20.7491 29.1789 20.5679 29.1766 20.396 29.1296C20.2241 29.0826 20.0675 28.9926 19.9413 28.8683C19.8152 28.744 19.7238 28.5896 19.676 28.4201C19.6282 28.2507 19.6256 28.0719 19.6686 27.9012L20.1043 26.1848C20.2166 25.7424 20.4487 25.3385 20.7758 25.0161Z" fill="#09B95A"/>
</g>
<defs>
<clipPath id="clip0_1644_124988">
<rect width="40" height="40" fill="white"/>
</clipPath>
</defs>
</svg>
