<svg width="40" height="40" viewBox="0 0 40 40" fill="none" xmlns="http://www.w3.org/2000/svg">
<circle cx="20" cy="20" r="20" fill="#868E96"/>
<rect width="24" height="24" transform="translate(8 8)" fill="#868E96"/>
<path d="M10.3999 15.1998C10.3999 13.8743 11.4744 12.7998 12.7999 12.7998H19.9999C21.3254 12.7998 22.3999 13.8743 22.3999 15.1998V24.7998C22.3999 26.1253 21.3254 27.1998 19.9999 27.1998H12.7999C11.4744 27.1998 10.3999 26.1253 10.3999 24.7998V15.1998Z" fill="white"/>
<path d="M25.4632 16.5265C25.0567 16.7298 24.7999 17.1453 24.7999 17.5998V22.3998C24.7999 22.8543 25.0567 23.2698 25.4632 23.4731L27.8632 24.6731C28.2352 24.8591 28.677 24.8392 29.0308 24.6206C29.3846 24.4019 29.5999 24.0157 29.5999 23.5998V16.3998C29.5999 15.9839 29.3846 15.5977 29.0308 15.379C28.677 15.1604 28.2352 15.1405 27.8632 15.3265L25.4632 16.5265Z" fill="white"/>
<line x1="28.1858" y1="12.5306" x2="13.5306" y2="28.8142" stroke="#868E96" stroke-width="5" stroke-linecap="round"/>
<line x1="28.0784" y1="12.412" x2="12.412" y2="29.9216" stroke="white" stroke-width="2" stroke-linecap="round"/>
</svg>
