<svg width="40" height="40" viewBox="0 0 40 40" fill="none" xmlns="http://www.w3.org/2000/svg">
<circle cx="20" cy="20" r="20" fill="#09B95A"/>
<rect width="24" height="24" transform="translate(8 8)" fill="#09B95A"/>
<path d="M10.4004 15.1998C10.4004 13.8743 11.4749 12.7998 12.8004 12.7998H20.0004C21.3259 12.7998 22.4004 13.8743 22.4004 15.1998V24.7998C22.4004 26.1253 21.3259 27.1998 20.0004 27.1998H12.8004C11.4749 27.1998 10.4004 26.1253 10.4004 24.7998V15.1998Z" fill="white"/>
<path d="M25.4637 16.5265C25.0572 16.7298 24.8004 17.1453 24.8004 17.5998V22.3998C24.8004 22.8543 25.0572 23.2698 25.4637 23.4731L27.8637 24.6731C28.2357 24.8591 28.6775 24.8392 29.0313 24.6206C29.385 24.4019 29.6004 24.0157 29.6004 23.5998V16.3998C29.6004 15.9839 29.385 15.5977 29.0313 15.379C28.6775 15.1604 28.2357 15.1405 27.8637 15.3265L25.4637 16.5265Z" fill="white"/>
</svg>
