<svg width="40" height="40" viewBox="0 0 40 40" fill="none" xmlns="http://www.w3.org/2000/svg">
<path fill-rule="evenodd" clip-rule="evenodd" d="M33.7796 25.438C34.561 24.6566 35 23.5967 35 22.4917C35 21.3866 34.561 20.3268 33.7796 19.5454C32.9982 18.764 31.9384 18.325 30.8333 18.325C29.7283 18.325 28.6684 18.764 27.887 19.5454C27.1056 20.3268 26.6667 21.3866 26.6667 22.4917C26.6667 23.5967 27.1056 24.6566 27.887 25.438C28.6684 26.2194 29.7283 26.6583 30.8333 26.6583C31.9384 26.6583 32.9982 26.2194 33.7796 25.438ZM30.8333 36.6583C36.19 36.6583 38.3333 34.0433 38.3333 31.45V31.2783C38.3333 29.6467 37.0116 28.325 35.3783 28.325H26.2883C24.6567 28.325 23.3333 29.645 23.3333 31.2783V31.45C23.3333 34.0533 25.4767 36.6583 30.8333 36.6583Z" fill="#FFCE00"/>
<path fill-rule="evenodd" clip-rule="evenodd" d="M28.3317 3.33331H29.5817C30.5763 3.33331 31.5301 3.7284 32.2333 4.43166C32.9366 5.13492 33.3317 6.08875 33.3317 7.08331V17.2183C32.0846 16.6256 30.6676 16.4944 29.3329 16.8482C27.9981 17.2021 26.8322 18.0179 26.0425 19.1506C25.2527 20.2833 24.8904 21.6594 25.02 23.0342C25.1495 24.4089 25.7626 25.6931 26.75 26.6583H26.2867C25.68 26.6583 25.0792 26.7778 24.5187 27.01C23.9582 27.2422 23.4489 27.5825 23.0199 28.0115C22.5909 28.4405 22.2505 28.9498 22.0184 29.5103C21.7862 30.0708 21.6667 30.6716 21.6667 31.2783V31.45C21.6667 32.685 22.025 33.9216 22.78 35H10.4167C9.42214 35 8.46832 34.6049 7.76505 33.9016C7.06179 33.1984 6.66671 32.2445 6.66671 31.25L6.66504 7.08498C6.66504 6.09042 7.06013 5.13659 7.76339 4.43333C8.46665 3.73007 9.42048 3.33498 10.415 3.33498L11.66 3.33331L20.8334 3.33331H28.3317ZM12.91 21.6666H18.745L18.915 21.6783C19.2142 21.7195 19.4884 21.8676 19.6868 22.0952C19.8853 22.3228 19.9946 22.6146 19.9946 22.9166C19.9946 23.2187 19.8853 23.5104 19.6868 23.7381C19.4884 23.9657 19.2142 24.1138 18.915 24.155L18.745 24.1666H12.91L12.74 24.155C12.4409 24.1138 12.1667 23.9657 11.9682 23.7381C11.7698 23.5104 11.6604 23.2187 11.6604 22.9166C11.6604 22.6146 11.7698 22.3228 11.9682 22.0952C12.1667 21.8676 12.4409 21.7195 12.74 21.6783L12.91 21.6666ZM12.91 8.33331H27.0784L27.2484 8.34498C27.5475 8.38614 27.8217 8.53424 28.0202 8.76188C28.2186 8.98951 28.328 9.28131 28.328 9.58331C28.328 9.88532 28.2186 10.1771 28.0202 10.4047C27.8217 10.6324 27.5475 10.7805 27.2484 10.8216L27.0784 10.8333H12.91L12.74 10.8216C12.4409 10.7805 12.1667 10.6324 11.9682 10.4047C11.7698 10.1771 11.6604 9.88532 11.6604 9.58331C11.6604 9.28131 11.7698 8.98951 11.9682 8.76188C12.1667 8.53424 12.4409 8.38614 12.74 8.34498L12.91 8.33331ZM12.91 17.5C12.22 17.5 11.66 16.94 11.66 16.25C11.66 15.9185 11.7917 15.6005 12.0262 15.3661C12.2606 15.1317 12.5785 15 12.91 15H22.0817C22.4132 15 22.7312 15.1317 22.9656 15.3661C23.2 15.6005 23.3317 15.9185 23.3317 16.25C23.3317 16.5815 23.2 16.8994 22.9656 17.1339C22.7312 17.3683 22.4132 17.5 22.0817 17.5H12.91Z" fill="#0055B8"/>
</svg>
