<svg width="40" height="40" viewBox="0 0 40 40" fill="none" xmlns="http://www.w3.org/2000/svg">
<path d="M19.1 24.0684L13.7429 20.3867C12.9929 19.8711 11.9964 19.8711 11.2571 20.3867L5.9 24.0684C5.33214 24.4603 5 25.0791 5 25.7494V33.9687C5 34.5359 5.48214 35 6.07143 35H10.3571V28.8123H14.6429V35H18.9286C19.5179 35 20 34.5359 20 33.9687V25.7494C20 25.0791 19.6679 24.4603 19.1 24.0684Z" fill="#FFCE00"/>
<path fill-rule="evenodd" clip-rule="evenodd" d="M15.5554 5H32.4072C33.0948 5 33.7543 5.28644 34.2405 5.79631C34.7267 6.30617 34.9998 6.9977 34.9998 7.71876V28.5625C34.9998 29.1148 34.5521 29.5625 33.9998 29.5625H21.6665V25.7494C21.6665 24.5102 21.0475 23.3875 20.0465 22.6967L14.6867 19.0132C13.791 18.3975 12.6922 18.1977 11.6665 18.4232V9.07814C11.6665 6.08614 13.9921 5 15.5554 5ZM21.4609 35H33.6405C34.3912 35 34.9998 34.3914 34.9998 33.6406C34.9998 32.8899 34.3912 32.2812 33.6405 32.2812H21.6665V33.9687C21.6665 34.3386 21.5928 34.6858 21.4609 35ZM18.6748 16.6321C19.0043 16.88 19.4754 16.6449 19.4754 16.2326V8.71876C19.4754 8.16647 19.0277 7.71876 18.4754 7.71876H15.2902C14.7379 7.71876 14.2902 8.16647 14.2902 8.71876V16.1746C14.2902 16.5972 14.782 16.8292 15.1082 16.5605L16.5826 15.3456C16.6896 15.2574 16.843 15.254 16.9537 15.3374L18.6748 16.6321Z" fill="#0055B8"/>
</svg>
