<svg width="40" height="40" viewBox="0 0 40 40" fill="none" xmlns="http://www.w3.org/2000/svg">
<g clip-path="url(#clip0_2710_282149)">
<rect width="40" height="40" rx="20" fill="#FFF7D7"/>
<path d="M18.625 11C18.0037 11 17.5 11.5037 17.5 12.125C17.5 12.7463 18.0037 13.25 18.625 13.25H20.875C21.4963 13.25 22 12.7463 22 12.125C22 11.5037 21.4963 11 20.875 11H18.625Z" fill="#0055B8"/>
<path fill-rule="evenodd" clip-rule="evenodd" d="M13 14.375C13 13.1324 14.0074 12.125 15.25 12.125C15.25 13.989 16.761 15.5 18.625 15.5H20.875C22.739 15.5 24.25 13.989 24.25 12.125C25.4926 12.125 26.5 13.1324 26.5 14.375V26.75C26.5 27.9926 25.4926 29 24.25 29H15.25C14.0074 29 13 27.9926 13 26.75V14.375ZM16.375 18.875C15.7537 18.875 15.25 19.3787 15.25 20C15.25 20.6213 15.7537 21.125 16.375 21.125H16.3863C17.0076 21.125 17.5113 20.6213 17.5113 20C17.5113 19.3787 17.0076 18.875 16.3863 18.875H16.375ZM19.75 18.875C19.1287 18.875 18.625 19.3787 18.625 20C18.625 20.6213 19.1287 21.125 19.75 21.125H23.125C23.7463 21.125 24.25 20.6213 24.25 20C24.25 19.3787 23.7463 18.875 23.125 18.875H19.75ZM16.375 23.375C15.7537 23.375 15.25 23.8787 15.25 24.5C15.25 25.1213 15.7537 25.625 16.375 25.625H16.3863C17.0076 25.625 17.5113 25.1213 17.5113 24.5C17.5113 23.8787 17.0076 23.375 16.3863 23.375H16.375ZM19.75 23.375C19.1287 23.375 18.625 23.8787 18.625 24.5C18.625 25.1213 19.1287 25.625 19.75 25.625H23.125C23.7463 25.625 24.25 25.1213 24.25 24.5C24.25 23.8787 23.7463 23.375 23.125 23.375H19.75Z" fill="#0055B8"/>
</g>
<defs>
<clipPath id="clip0_2710_282149">
<rect width="40" height="40" fill="white"/>
</clipPath>
</defs>
</svg>
