<svg width="49" height="48" viewBox="0 0 49 48" fill="none" xmlns="http://www.w3.org/2000/svg">
<rect x="0.5" width="48" height="48" rx="15" fill="#FFE784"/>
<path d="M13.6667 13C13.1943 12.9993 12.737 13.1658 12.3757 13.4699C12.0143 13.7741 11.7723 14.1964 11.6925 14.6619C11.6126 15.1274 11.7001 15.6062 11.9394 16.0134C12.1787 16.4206 12.5544 16.7299 13 16.8867H24V30.3333V33.6667H21C20.7348 33.6667 20.4805 33.772 20.2929 33.9596C20.1054 34.1471 20 34.4014 20 34.6667C20 34.9319 20.1054 35.1862 20.2929 35.3738C20.4805 35.5613 20.7348 35.6667 21 35.6667H29C29.2652 35.6667 29.5196 35.5613 29.7071 35.3738C29.8947 35.1862 30 34.9319 30 34.6667C30 34.4014 29.8947 34.1471 29.7071 33.9596C29.5196 33.772 29.2652 33.6667 29 33.6667H26V30.3333V16.8867H37C37.4456 16.7299 37.8213 16.4206 38.0606 16.0134C38.2999 15.6062 38.3874 15.1274 38.3075 14.6619C38.2277 14.1964 37.9856 13.7741 37.6243 13.4699C37.263 13.1658 36.8056 12.9993 36.3333 13H13.6667Z" fill="#0055B8"/>
<path fill-rule="evenodd" clip-rule="evenodd" d="M13.0392 15.6667H37L37 23.794C36.7489 23.3978 36.423 23.0602 36.0424 22.8024C35.6619 22.5446 35.2349 22.3721 34.7882 22.2957C34.3415 22.2192 33.8847 22.2404 33.4461 22.358C33.0075 22.4756 32.5967 22.687 32.2392 22.9791C31.8818 23.2712 31.5853 23.6376 31.3684 24.0556C31.1514 24.4736 31.0187 24.9342 30.9784 25.4086C30.938 25.8829 30.991 26.361 31.1341 26.8129C31.2771 27.2647 31.507 27.6807 31.8096 28.0349C31.2221 28.0911 30.6674 28.3451 30.2277 28.759C29.788 29.173 29.4868 29.7251 29.3687 30.3333H16.3333C15.4597 30.3333 14.6218 29.9681 14.004 29.318C13.3863 28.6678 13.0392 27.7861 13.0392 26.8667L13.0392 15.6667ZM17.0785 23.8444V19.4889C17.0785 19.1824 17.1941 18.8885 17.4001 18.6718C17.606 18.4551 17.8853 18.3333 18.1765 18.3333H22.5687C22.8599 18.3333 23.1392 18.4551 23.3451 18.6718C23.551 18.8885 23.6667 19.1824 23.6667 19.4889V23.8444C23.6667 24.1509 23.551 24.4448 23.3451 24.6615C23.1392 24.8783 22.8599 25 22.5687 25H18.1765C17.8853 25 17.606 24.8783 17.4001 24.6615C17.1941 24.4448 17.0785 24.1509 17.0785 23.8444Z" fill="#0055B8"/>
<path fill-rule="evenodd" clip-rule="evenodd" d="M35.8078 27.3453C36.2196 26.9119 36.451 26.3241 36.451 25.7111C36.451 25.0982 36.2196 24.5103 35.8078 24.0769C35.3959 23.6435 34.8374 23.4 34.2549 23.4C33.6725 23.4 33.1139 23.6435 32.7021 24.0769C32.2902 24.5103 32.0589 25.0982 32.0589 25.7111C32.0589 26.3241 32.2902 26.9119 32.7021 27.3453C33.1139 27.7787 33.6725 28.0222 34.2549 28.0222C34.8374 28.0222 35.3959 27.7787 35.8078 27.3453ZM34.2549 33.8C37 33.8 38.0981 32.3498 38.0981 30.9111C38.0981 30.4514 37.9245 30.0105 37.6157 29.6855C37.3068 29.3604 36.8878 29.1778 36.451 29.1778H32.0589C31.622 29.1778 31.2031 29.3604 30.8942 29.6855C30.5853 30.0105 30.4118 30.4514 30.4118 30.9111C30.4118 32.3556 31.5098 33.8 34.2549 33.8Z" fill="#0055B8"/>
</svg>
