<svg width="48" height="48" viewBox="0 0 48 48" fill="none" xmlns="http://www.w3.org/2000/svg">
<g clip-path="url(#clip0_18857_156860)">
<rect width="48" height="48" rx="15" fill="#FFE784"/>
<path fill-rule="evenodd" clip-rule="evenodd" d="M14 32.7905V15.2095C14 14.0931 14.4614 13.0224 15.2826 12.2329C16.1038 11.4435 17.2176 11 18.3789 11H29.8053C30.4099 11 30.9 11.4712 30.9 12.0524V29.6333C30.9 30.2145 30.4099 30.6857 29.8053 30.6857H18.3789C18.1836 30.6857 17.994 30.7105 17.8134 30.7571C17.4449 30.8519 17.1052 31.0384 16.8308 31.3022C16.5888 31.5348 16.4093 31.8163 16.3026 32.1225C16.2293 32.3324 16.1895 32.557 16.1895 32.7905C16.1895 33.3487 16.4201 33.884 16.8308 34.2788C17.2414 34.6735 17.7983 34.8952 18.3789 34.8952H32.6105V13.1048C32.6105 12.5235 33.1007 12.0524 33.7053 12.0524C34.3099 12.0524 34.8 12.5235 34.8 13.1048V35.9476C34.8 36.5288 34.3099 37 33.7053 37H18.3789C17.2176 37 16.1038 36.5565 15.2826 35.7671C14.4614 34.9776 14 33.9069 14 32.7905ZM19.8451 20.4199C20.1747 20.6678 20.6457 20.4327 20.6457 20.0204V14.6C20.6457 14.0477 20.198 13.6 19.6457 13.6H17.6013C17.049 13.6 16.6013 14.0477 16.6013 14.6V19.9624C16.6013 20.385 17.0931 20.617 17.4192 20.3482L18.3492 19.582C18.4562 19.4938 18.6096 19.4904 18.7204 19.5738L19.8451 20.4199Z" fill="#0055B8"/>
</g>
<defs>
<clipPath id="clip0_18857_156860">
<rect width="48" height="48" fill="white"/>
</clipPath>
</defs>
</svg>
