<svg width="49" height="48" viewBox="0 0 49 48" fill="none" xmlns="http://www.w3.org/2000/svg">
<g clip-path="url(#clip0_1202_48365)">
<rect x="0.333496" width="48" height="48" rx="15" fill="#D6EBFF"/>
<path d="M26.474 25.8866C25.5285 25.4616 24.5823 25.3 23.6366 25.3C20.6344 25.2997 17.6324 26.9281 14.6302 26.9281C13.8772 26.9281 13.1248 26.8257 12.3719 26.5698C12.2873 26.541 12.2025 26.5274 12.1196 26.5274C11.7001 26.5274 11.3335 26.8753 11.3335 27.3582V35.6438C11.3335 35.9736 11.5097 36.2862 11.7927 36.4132C12.7382 36.8383 13.6844 37 14.6302 37C17.6324 37 20.6346 35.3717 23.6368 35.3717C24.3898 35.3717 25.1422 35.474 25.8951 35.73C25.9797 35.7587 26.0645 35.7723 26.1474 35.7723C26.5669 35.7723 26.9335 35.4244 26.9335 34.9415V26.6562C26.9333 26.3261 26.757 26.0137 26.474 25.8866ZM19.1334 33.6571C18.0563 33.6571 17.1834 32.5344 17.1834 31.15C17.1834 29.7653 18.0565 28.6428 19.1334 28.6428C20.2102 28.6428 21.0833 29.7653 21.0833 31.15C21.0833 32.5349 20.21 33.6571 19.1334 33.6571Z" fill="#0055B8"/>
<path d="M26.474 25.8866C25.5285 25.4616 24.5823 25.3 23.6366 25.3C20.6344 25.2997 17.6324 26.9281 14.6302 26.9281C13.8772 26.9281 13.1248 26.8257 12.3719 26.5698C12.2873 26.541 12.2025 26.5274 12.1196 26.5274C11.7001 26.5274 11.3335 26.8753 11.3335 27.3582V35.6438C11.3335 35.9736 11.5097 36.2862 11.7927 36.4132C12.7382 36.8383 13.6844 37 14.6302 37C17.6324 37 20.6346 35.3717 23.6368 35.3717C24.3898 35.3717 25.1422 35.474 25.8951 35.73C25.9797 35.7587 26.0645 35.7723 26.1474 35.7723C26.5669 35.7723 26.9335 35.4244 26.9335 34.9415V26.6562C26.9333 26.3261 26.757 26.0137 26.474 25.8866ZM19.1334 33.6571C18.0563 33.6571 17.1834 32.5344 17.1834 31.15C17.1834 29.7653 18.0565 28.6428 19.1334 28.6428C20.2102 28.6428 21.0833 29.7653 21.0833 31.15C21.0833 32.5349 20.21 33.6571 19.1334 33.6571Z" fill="#0055B8"/>
<path fill-rule="evenodd" clip-rule="evenodd" d="M15.2339 14.3429C15.2339 13.4563 15.5861 12.606 16.213 11.9791C16.8399 11.3522 17.6902 11 18.5767 11H30.2767C31.1633 11 32.0136 11.3522 32.6405 11.9791C33.2674 12.606 33.6196 13.4563 33.6196 14.3429V26.0429H37.3339C38.0519 26.0429 38.6339 26.6249 38.6339 27.3429V29.3857C38.6339 30.7156 38.1056 31.991 37.1652 32.9314C36.2249 33.8717 34.9495 34.4 33.6196 34.4H28.8834L28.8834 26.6547C28.8826 25.6963 28.3743 24.6028 27.2733 24.1079C26.0393 23.5534 24.8137 23.35 23.6364 23.35C21.8731 23.3499 20.1574 23.8155 18.7274 24.2035L18.6229 24.2319C17.3302 24.5824 16.2499 24.8668 15.2339 24.9519V23.046V22.7V14.3429ZM26.9334 34.4H26.5879H18.2339C17.0844 34.4 16.086 33.7536 15.5822 32.8044C15.3599 32.3854 15.2339 31.9074 15.2339 31.4V26.9071C16.5336 26.8189 17.8332 26.4665 19.1329 26.114L19.1329 26.114C20.032 25.8702 20.9312 25.6264 21.8304 25.47C22.4324 25.3654 23.0344 25.2999 23.6364 25.3C24.5822 25.3 25.5284 25.4616 26.4739 25.8865C26.7569 26.0137 26.9331 26.3261 26.9334 26.6562V34.4ZM27.7696 21.4H26.9339H21.0839C20.8622 21.4 20.6497 21.312 20.4929 21.1552C20.3362 20.9985 20.2482 20.7859 20.2482 20.5643C20.2482 20.3426 20.3362 20.1301 20.4929 19.9733C20.6497 19.8166 20.8622 19.7286 21.0839 19.7286H27.7696C27.9912 19.7286 28.2038 19.8166 28.3605 19.9733C28.5173 20.1301 28.6053 20.3426 28.6053 20.5643C28.6053 20.7859 28.5173 20.9985 28.3605 21.1552C28.2038 21.312 27.9912 21.4 27.7696 21.4ZM33.6196 32.7286C34.5062 32.7286 35.3565 32.3764 35.9834 31.7495C36.6103 31.1226 36.9625 30.2723 36.9625 29.3857V27.7143H33.6196V32.7286ZM21.0839 16.0143C20.8622 16.0143 20.6497 16.1023 20.4929 16.2591C20.3362 16.4158 20.2482 16.6284 20.2482 16.85C20.2482 17.0716 20.3362 17.2842 20.4929 17.4409C20.6497 17.5977 20.8622 17.6857 21.0839 17.6857H27.7696C27.9912 17.6857 28.2038 17.5977 28.3605 17.4409C28.5173 17.2842 28.6053 17.0716 28.6053 16.85C28.6053 16.6284 28.5173 16.4158 28.3605 16.2591C28.2038 16.1023 27.9912 16.0143 27.7696 16.0143H21.0839ZM19.1332 33.6571C18.0561 33.6571 17.1833 32.5344 17.1833 31.15C17.1833 31.0708 17.1861 30.9924 17.1917 30.9151C17.2836 29.643 18.1148 28.6466 19.1274 28.6429C19.1294 28.6428 19.1313 28.6428 19.1332 28.6428C20.2101 28.6428 21.0832 29.7653 21.0832 31.15C21.0832 32.5349 20.2099 33.6571 19.1332 33.6571Z" fill="#0055B8"/>
</g>
<defs>
<clipPath id="clip0_1202_48365">
<rect width="48" height="48" fill="white" transform="translate(0.333496)"/>
</clipPath>
</defs>
</svg>
