<svg width="48" height="48" viewBox="0 0 48 48" fill="none" xmlns="http://www.w3.org/2000/svg">
<g clip-path="url(#clip0_12159_674663)">
<rect width="48" height="48" rx="15" fill="#FFE784"/>
<path d="M12.6667 13C12.1944 12.9993 11.737 13.1658 11.3757 13.47C11.0144 13.7741 10.7723 14.1964 10.6925 14.6619C10.6126 15.1274 10.7001 15.6062 10.9394 16.0134C11.1788 16.4206 11.5545 16.7299 12 16.8867H23V30.3333V33.6667H20C19.7348 33.6667 19.4805 33.772 19.2929 33.9596C19.1054 34.1471 19 34.4014 19 34.6667C19 34.9319 19.1054 35.1862 19.2929 35.3738C19.4805 35.5613 19.7348 35.6667 20 35.6667H28C28.2653 35.6667 28.5196 35.5613 28.7071 35.3738C28.8947 35.1862 29 34.9319 29 34.6667C29 34.4014 28.8947 34.1471 28.7071 33.9596C28.5196 33.772 28.2653 33.6667 28 33.6667H25V30.3333V16.8867H36C36.4456 16.7299 36.8213 16.4206 37.0606 16.0134C37.2999 15.6062 37.3874 15.1274 37.3075 14.6619C37.2277 14.1964 36.9857 13.7741 36.6243 13.47C36.263 13.1658 35.8057 12.9993 35.3333 13H12.6667Z" fill="#0055B8"/>
<path fill-rule="evenodd" clip-rule="evenodd" d="M12.0392 15.667H36L36 23.7944C35.749 23.3981 35.423 23.0606 35.0424 22.8028C34.6619 22.545 34.235 22.3725 33.7883 22.296C33.3416 22.2195 32.8847 22.2407 32.4461 22.3583C32.0076 22.4759 31.5967 22.6873 31.2393 22.9794C30.8818 23.2715 30.5853 23.638 30.3684 24.056C30.1514 24.474 30.0187 24.9345 29.9784 25.4089C29.9381 25.8833 29.9911 26.3613 30.1341 26.8132C30.2771 27.2651 30.507 27.6811 30.8096 28.0353C30.2221 28.0915 29.6674 28.3454 29.2277 28.7594C28.7881 29.1734 28.4868 29.7254 28.3687 30.3337H15.3333C14.4597 30.3337 13.6218 29.9684 13.004 29.3183C12.3863 28.6682 12.0392 27.7864 12.0392 26.867L12.0392 15.667ZM16.0785 23.8448V19.4892C16.0785 19.1827 16.1942 18.8888 16.4001 18.6721C16.606 18.4554 16.8853 18.3337 17.1765 18.3337H21.5687C21.8599 18.3337 22.1392 18.4554 22.3451 18.6721C22.551 18.8888 22.6667 19.1827 22.6667 19.4892V23.8448C22.6667 24.1512 22.551 24.4452 22.3451 24.6619C22.1392 24.8786 21.8599 25.0003 21.5687 25.0003H17.1765C16.8853 25.0003 16.606 24.8786 16.4001 24.6619C16.1942 24.4452 16.0785 24.1512 16.0785 23.8448Z" fill="#0055B8"/>
<path fill-rule="evenodd" clip-rule="evenodd" d="M34.8078 27.3456C35.2197 26.9122 35.451 26.3244 35.451 25.7114C35.451 25.0985 35.2197 24.5107 34.8078 24.0772C34.396 23.6438 33.8374 23.4003 33.2549 23.4003C32.6725 23.4003 32.1139 23.6438 31.7021 24.0772C31.2902 24.5107 31.0589 25.0985 31.0589 25.7114C31.0589 26.3244 31.2902 26.9122 31.7021 27.3456C32.1139 27.7791 32.6725 28.0225 33.2549 28.0225C33.8374 28.0225 34.396 27.7791 34.8078 27.3456ZM33.2549 33.8003C36 33.8003 37.0981 32.3501 37.0981 30.9114C37.0981 30.4517 36.9246 30.0108 36.6157 29.6858C36.3068 29.3607 35.8878 29.1781 35.451 29.1781H31.0589C30.622 29.1781 30.2031 29.3607 29.8942 29.6858C29.5853 30.0108 29.4118 30.4517 29.4118 30.9114C29.4118 32.3559 30.5098 33.8003 33.2549 33.8003Z" fill="#0055B8"/>
</g>
<defs>
<clipPath id="clip0_12159_674663">
<rect width="48" height="48" fill="white"/>
</clipPath>
</defs>
</svg>
