<svg width="48" height="48" viewBox="0 0 48 48" fill="none" xmlns="http://www.w3.org/2000/svg">
<rect width="48" height="48" rx="15" fill="#D6EBFF"/>
<path fill-rule="evenodd" clip-rule="evenodd" d="M27.4111 12.5843L24.6596 11.0564C24.1886 10.8005 23.663 10.6667 23.1291 10.6667C22.5952 10.6667 22.0696 10.8005 21.5985 11.0564L8.15839 18.5264C7.05831 19.1435 7.05831 20.7675 8.15839 21.3845L21.5985 28.8546C22.5551 29.3905 23.7031 29.3905 24.6596 28.8546L37.478 21.7256V31.3229C37.478 32.2161 38.1955 32.9468 39.0723 32.9468C39.9492 32.9468 40.6667 32.2161 40.6667 31.3229V20.9136C40.6667 20.3128 40.3478 19.7769 39.8376 19.4846L37.8377 18.374C36.9179 18.7766 35.9017 19 34.8333 19C31.0594 19 27.9365 16.2126 27.4111 12.5843ZM11.9688 30.0419V25.4787L21.5985 30.8377C22.5551 31.3736 23.7031 31.3736 24.6596 30.8377L34.2894 25.4787V30.0419C34.2894 31.2274 33.6516 32.3317 32.6313 32.9L24.6596 37.3333C23.7031 37.8692 22.5551 37.8692 21.5985 37.3333L13.6269 32.9C12.6066 32.3317 11.9688 31.2274 11.9688 30.0419Z" fill="#0055B8"/>
<path d="M39 11.5C39 12.0505 38.5537 12.4967 38.0033 12.4967H35.9118V14.6667C35.9118 15.2189 35.464 15.6667 34.9118 15.6667H34.7549C34.2026 15.6667 33.7549 15.2189 33.7549 14.6667V12.4967H31.6634C31.1129 12.4967 30.6667 12.0505 30.6667 11.5V11.5C30.6667 10.9495 31.1129 10.5033 31.6634 10.5033H33.7549V8.33333C33.7549 7.78104 34.2026 7.33333 34.7549 7.33333H34.9118C35.464 7.33333 35.9118 7.78104 35.9118 8.33333V10.5033H38.0033C38.5537 10.5033 39 10.9495 39 11.5V11.5Z" fill="#0055B8"/>
</svg>
