<svg width="49" height="48" viewBox="0 0 49 48" fill="none" xmlns="http://www.w3.org/2000/svg">
<g clip-path="url(#clip0_5001_264737)">
<rect x="0.5" width="48" height="48" rx="15" fill="#FFE784"/>
<rect x="10.5" y="9" width="26" height="30" rx="5" fill="#0055B8"/>
<path fill-rule="evenodd" clip-rule="evenodd" d="M38.1398 32.1758C38.9788 31.3298 39.4501 30.1824 39.4501 28.9859C39.4501 27.7894 38.9788 26.642 38.1398 25.7959C37.3008 24.9499 36.163 24.4746 34.9765 24.4746C33.79 24.4746 32.6521 24.9499 31.8131 25.7959C30.9741 26.642 30.5028 27.7894 30.5028 28.9859C30.5028 30.1824 30.9741 31.3298 31.8131 32.1758C32.6521 33.0219 33.79 33.4972 34.9765 33.4972C36.163 33.4972 37.3008 33.0219 38.1398 32.1758Z" fill="#FFE784"/>
<path fill-rule="evenodd" clip-rule="evenodd" d="M38.1379 32.1778C38.9769 31.3318 39.4482 30.1843 39.4482 28.9878C39.4482 27.7914 38.9769 26.6439 38.1379 25.7979C37.2989 24.9519 36.161 24.4766 34.9745 24.4766C33.788 24.4766 32.6501 24.9519 31.8111 25.7979C30.9722 26.6439 30.5008 27.7914 30.5008 28.9878C30.5008 30.1843 30.9722 31.3318 31.8111 32.1778C32.6501 33.0238 33.788 33.4991 34.9745 33.4991C36.161 33.4991 37.2989 33.0238 38.1379 32.1778Z" fill="#FFE784"/>
<path d="M34.9607 41.0392C40.0355 41.0392 42.066 38.6105 42.066 36.2019V36.0425C42.066 34.5271 40.8139 33.2995 39.2665 33.2995H30.6549C29.1092 33.2995 27.8555 34.5255 27.8555 36.0425V36.2019C27.8555 38.6198 29.886 41.0392 34.9607 41.0392Z" fill="#FFE784"/>
<path fill-rule="evenodd" clip-rule="evenodd" d="M37.5668 31.3197C38.231 30.6804 38.6042 29.8132 38.6042 28.9091C38.6042 28.0049 38.231 27.1378 37.5668 26.4985C36.9026 25.8592 36.0018 25.5 35.0625 25.5C34.1232 25.5 33.2224 25.8592 32.5582 26.4985C31.894 27.1378 31.5208 28.0049 31.5208 28.9091C31.5208 29.8132 31.894 30.6804 32.5582 31.3197C33.2224 31.959 34.1232 32.3182 35.0625 32.3182C36.0018 32.3182 36.9026 31.959 37.5668 31.3197ZM35.0625 40.5C39.6157 40.5 41.4375 38.3605 41.4375 36.2386V36.0982C41.4375 34.7632 40.3141 33.6818 38.9257 33.6818H31.1993C29.8123 33.6818 28.6875 34.7618 28.6875 36.0982V36.2386C28.6875 38.3686 30.5093 40.5 35.0625 40.5Z" fill="#0055B8"/>
<circle cx="20.5" cy="24" r="3.25" fill="#0055B8" stroke="#FFE784" stroke-width="0.5"/>
<path d="M19.7543 25.9903C19.7544 25.9849 19.793 25.7321 19.8402 25.4285L19.9261 24.8764L19.4785 24.259C19.2323 23.9193 19.0241 23.6291 19.0159 23.6139C18.9928 23.571 18.9948 23.5259 19.0223 23.472C19.034 23.449 19.1691 23.2441 19.3224 23.0165C19.5673 22.6531 19.6041 22.6012 19.6243 22.5902C19.6516 22.5755 19.6695 22.5745 19.7047 22.5858C19.7331 22.5952 20.6126 22.9993 20.6346 23.0132C20.654 23.0255 20.6581 23.0547 20.6462 23.0961C20.6302 23.1515 20.6036 23.1932 20.5536 23.2415C20.4759 23.3165 20.3887 23.3498 20.2703 23.3495C20.1766 23.3493 20.0814 23.3262 19.9829 23.2795C19.9612 23.2692 19.9425 23.2608 19.9414 23.2608C19.939 23.2608 19.8032 23.5126 19.8032 23.5174C19.8032 23.5208 19.8422 23.5398 19.8898 23.5627C20.0369 23.6332 20.1416 23.7031 20.2512 23.8042C20.4928 24.0271 20.644 24.3097 20.7499 24.736C20.753 24.7483 20.7719 24.6615 20.8217 24.4082C20.8592 24.2175 20.892 24.0642 20.8952 24.0648C20.8983 24.0648 20.9974 24.1138 21.1154 24.1723C21.2335 24.2308 21.3334 24.2774 21.3375 24.2759C21.3416 24.2726 21.4604 24.1581 21.6014 24.0176C21.7424 23.877 21.8601 23.7618 21.863 23.7614C21.8704 23.7614 21.8623 23.9598 21.8523 24.0185C21.8478 24.0451 21.8386 24.0828 21.8319 24.1022C21.8252 24.1216 21.7146 24.3419 21.5862 24.5916L21.3528 25.0455V25.5227V26H20.5535C19.7961 26 19.7542 25.9999 19.7543 25.9903ZM20.7266 25.5419C20.7575 25.3657 20.7844 25.2281 20.7885 25.2241C20.7926 25.2201 20.8491 25.1804 20.9142 25.1356C21.0073 25.0714 21.0282 25.0548 21.0123 25.0577C20.8723 25.083 20.7498 25.0864 20.6559 25.0674C20.5945 25.055 20.5254 25.0324 20.4409 24.9975L20.3919 24.9772L20.5138 25.0955L20.6357 25.2138L20.6482 25.4944C20.6607 25.7757 20.6667 25.8767 20.6701 25.8611C20.6711 25.8565 20.6965 25.7129 20.7266 25.5419ZM21.2922 24.0892C21.2061 24.0412 21.069 23.8828 21.0851 23.85C21.0922 23.8356 21.7038 23.1887 21.7138 23.185C21.7609 23.1676 21.9823 23.4226 21.997 23.5114C22.001 23.5354 22.0414 23.4977 21.6442 23.841C21.476 23.9863 21.3344 24.1052 21.3297 24.1052C21.3249 24.1053 21.308 24.0979 21.2922 24.0892ZM20.9601 23.7652C20.8348 23.6858 20.6556 23.5116 20.6678 23.481C20.6696 23.477 20.8063 23.2956 20.9719 23.0782C21.2282 22.7417 21.275 22.683 21.287 22.683C21.3618 22.683 21.6194 22.9036 21.6809 23.0203C21.7052 23.0664 21.724 23.0423 21.3604 23.4305C21.1034 23.705 21.0242 23.7863 21.0127 23.7875C21.0029 23.7875 20.9849 23.7809 20.9601 23.7652ZM20.6969 23.2997C20.7201 23.2149 20.7304 23.1432 20.7284 23.0803C20.726 23.0078 20.7187 22.9844 20.6891 22.9563C20.6804 22.9479 20.6062 22.9078 20.524 22.8669C20.4418 22.8259 20.3739 22.7919 20.373 22.7913C20.3724 22.7913 20.4451 22.6717 20.535 22.5269L20.6984 22.2636H20.7356C20.7656 22.2639 20.7832 22.2686 20.8265 22.2866C21.0052 22.3615 21.2266 22.5307 21.2127 22.5817C21.2107 22.5897 20.7074 23.2991 20.696 23.3101C20.6943 23.3101 20.695 23.3068 20.6971 23.2991L20.6969 23.2997ZM20.0398 22.6406C19.9097 22.5811 19.8013 22.5306 19.7989 22.5283C19.7936 22.5233 20.0846 22.0165 20.0989 22.0061C20.1252 21.9867 20.2368 22.0151 20.3573 22.0716C20.4955 22.1364 20.5968 22.2125 20.5968 22.2516C20.5968 22.2646 20.2909 22.7498 20.2831 22.7492C20.2795 22.7489 20.17 22.7 20.0398 22.6406Z" fill="#FFE784"/>
<circle cx="26.5" cy="14" r="3.25" fill="#0055B8" stroke="#FFE784" stroke-width="0.5"/>
<path d="M27.2169 13H26.68C26.63 13 26.5819 13.0188 26.545 13.0525L25.9306 13.615C25.93 13.6156 25.9294 13.6169 25.9288 13.6175C25.825 13.715 25.8269 13.8706 25.9156 13.9675C25.995 14.0544 26.1619 14.0775 26.2663 13.9844C26.2669 13.9837 26.2681 13.9837 26.2688 13.9831L26.7681 13.5256C26.8087 13.4887 26.8725 13.4912 26.9094 13.5319C26.9469 13.5725 26.9438 13.6356 26.9031 13.6731L26.74 13.8225L27.65 14.5612C27.6681 14.5762 27.6844 14.5925 27.6994 14.6094V13.4L27.3581 13.0587C27.3212 13.0213 27.27 13 27.2169 13ZM27.9 13.4012V14.8006C27.9 14.9112 27.9894 15.0006 28.1 15.0006H28.5V13.4012H27.9ZM28.2 14.8006C28.145 14.8006 28.1 14.7556 28.1 14.7006C28.1 14.6456 28.145 14.6006 28.2 14.6006C28.255 14.6006 28.3 14.6456 28.3 14.7006C28.3 14.7556 28.255 14.8006 28.2 14.8006ZM24.5 15H24.9C25.0106 15 25.1 14.9106 25.1 14.8V13.4012H24.5V15ZM24.8 14.6006C24.855 14.6006 24.9 14.6456 24.9 14.7006C24.9 14.7556 24.855 14.8006 24.8 14.8006C24.745 14.8006 24.7 14.7556 24.7 14.7006C24.7 14.645 24.745 14.6006 24.8 14.6006ZM27.5244 14.7169L26.5913 13.9594L26.4038 14.1312C26.2181 14.3006 25.9338 14.2844 25.7681 14.1037C25.6 13.92 25.6131 13.6356 25.7956 13.4681L26.3069 13H25.7831C25.73 13 25.6794 13.0213 25.6419 13.0587L25.3 13.4V14.7994H25.4144L25.98 15.3112C26.1513 15.4506 26.4031 15.4244 26.5425 15.2531L26.5438 15.2519L26.6556 15.3487C26.755 15.43 26.9019 15.4144 26.9825 15.315L27.1788 15.0737L27.2125 15.1012C27.2981 15.1706 27.4244 15.1581 27.4938 15.0719L27.5531 14.9987C27.6231 14.9125 27.61 14.7869 27.5244 14.7169Z" fill="#FFE784"/>
<circle cx="30.5" cy="19" r="3.25" fill="#0055B8" stroke="#FFE784" stroke-width="0.5"/>
<path d="M29.1 18.6871C29.3206 18.6871 29.5 18.4949 29.5 18.2585C29.5 18.0221 29.3206 17.8299 29.1 17.8299C28.8794 17.8299 28.7 18.0221 28.7 18.2585C28.7 18.4949 28.8794 18.6871 29.1 18.6871ZM31.9 18.6871C32.1206 18.6871 32.3 18.4949 32.3 18.2585C32.3 18.0221 32.1206 17.8299 31.9 17.8299C31.6794 17.8299 31.5 18.0221 31.5 18.2585C31.5 18.4949 31.6794 18.6871 31.9 18.6871ZM32.1 18.9014H31.7C31.59 18.9014 31.4906 18.9489 31.4181 19.0259C31.67 19.1739 31.8488 19.4411 31.8875 19.7585H32.3C32.4106 19.7585 32.5 19.6628 32.5 19.5442V19.3299C32.5 19.0936 32.3206 18.9014 32.1 18.9014ZM30.5 18.9014C30.8869 18.9014 31.2 18.5659 31.2 18.1514C31.2 17.7369 30.8869 17.4014 30.5 17.4014C30.1131 17.4014 29.8 17.7369 29.8 18.1514C29.8 18.5659 30.1131 18.9014 30.5 18.9014ZM30.98 19.1157H30.9281C30.7981 19.1826 30.6537 19.2228 30.5 19.2228C30.3463 19.2228 30.2025 19.1826 30.0719 19.1157H30.02C29.6225 19.1157 29.3 19.4612 29.3 19.8871V20.0799C29.3 20.2574 29.4344 20.4014 29.6 20.4014H31.4C31.5656 20.4014 31.7 20.2574 31.7 20.0799V19.8871C31.7 19.4612 31.3775 19.1157 30.98 19.1157ZM29.5819 19.0259C29.5094 18.9489 29.41 18.9014 29.3 18.9014H28.9C28.6794 18.9014 28.5 19.0936 28.5 19.3299V19.5442C28.5 19.6628 28.5894 19.7585 28.7 19.7585H29.1119C29.1513 19.4411 29.33 19.1739 29.5819 19.0259Z" fill="#FFE784"/>
<circle cx="26.5" cy="24" r="3.25" fill="#0055B8" stroke="#FFE784" stroke-width="0.5"/>
<path d="M27.6934 23.4373L27.4555 23.6752L26.9766 23.1962L27.2144 22.9584C27.2815 22.8913 27.3677 22.8594 27.4539 22.8594C27.5401 22.8594 27.6263 22.8913 27.6934 22.9584C27.8259 23.0909 27.8259 23.3048 27.6934 23.4373Z" fill="#FFE784"/>
<path d="M27.3354 23.7836L25.6096 25.5078C25.4771 25.6403 25.2631 25.6403 25.1306 25.5078C24.9981 25.3753 24.9981 25.1614 25.1306 25.0289L26.8564 23.3047L27.3354 23.7836Z" fill="#FFE784"/>
<path d="M26.1715 22.7994L26.237 22.5775C26.2434 22.5568 26.237 22.5344 26.2226 22.5184C26.2083 22.5025 26.1827 22.4961 26.162 22.5025L25.94 22.5679L25.7181 22.5025C25.6974 22.4961 25.675 22.5025 25.6591 22.5168C25.6431 22.5328 25.6383 22.5552 25.6447 22.5759L25.7086 22.7994L25.6431 23.0213C25.6367 23.0421 25.6431 23.0644 25.6575 23.0804C25.6734 23.0964 25.6958 23.1012 25.7165 23.0948L25.94 23.0309L26.162 23.0964C26.1683 23.098 26.1731 23.0996 26.1795 23.0996C26.1955 23.0996 26.2099 23.0932 26.2226 23.082C26.2386 23.066 26.2434 23.0437 26.237 23.0229L26.1715 22.7994Z" fill="#FFE784"/>
<path d="M25.5309 23.7604L25.5964 23.5384C25.6028 23.5177 25.5964 23.4953 25.582 23.4794C25.566 23.4634 25.5437 23.4586 25.5229 23.465L25.2994 23.5289L25.0775 23.4634C25.0568 23.457 25.0344 23.4634 25.0184 23.4778C25.0025 23.4937 24.9977 23.5161 25.0041 23.5369L25.0679 23.7604L25.0025 23.9823C24.9961 24.003 25.0025 24.0254 25.0168 24.0413C25.0328 24.0573 25.0552 24.0621 25.0759 24.0557L25.2978 23.9903L25.5197 24.0557C25.5245 24.0573 25.5309 24.0573 25.5373 24.0573C25.5533 24.0573 25.5676 24.0509 25.5804 24.0397C25.5964 24.0238 25.6012 24.0014 25.5948 23.9807L25.5309 23.7604Z" fill="#FFE784"/>
<path d="M27.9264 24.5559L27.9919 24.334C27.9983 24.3132 27.9919 24.2909 27.9775 24.2749C27.9615 24.259 27.9392 24.2542 27.9184 24.2605L27.6965 24.326L27.4746 24.2605C27.4539 24.2542 27.4315 24.2605 27.4155 24.2749C27.3996 24.2909 27.3948 24.3132 27.4012 24.334L27.4666 24.5559L27.4012 24.7778C27.3948 24.7986 27.4012 24.8209 27.4155 24.8369C27.4315 24.8528 27.4539 24.8576 27.4746 24.8512L27.6965 24.7858L27.9184 24.8512C27.9232 24.8528 27.9296 24.8528 27.936 24.8528C27.952 24.8528 27.9663 24.8465 27.9791 24.8353C27.9951 24.8193 27.9999 24.797 27.9935 24.7762L27.9264 24.5559Z" fill="#FFE784"/>
<circle cx="20.5" cy="14" r="3.25" fill="#0055B8" stroke="#FFE784" stroke-width="0.5"/>
<path d="M20.5 12.5393L21.6885 13.5679L22 13.2984L20.5 12L19 13.2984L19.3115 13.5679L20.5 12.5393Z" fill="#FFE784"/>
<path d="M19.8281 14.2334C20.1806 14.757 20.1806 14.757 20.1806 14.757C20.2306 14.8544 20.3863 14.8321 20.4679 14.757L20.7264 14.5223L21.1241 15.0983C20.8846 15.3203 20.7466 15.4435 20.5072 15.6648C20.3783 15.7846 20.4768 16.0003 20.6508 16.0003H21.8622V15.8038C21.157 15.6073 21.157 15.6073 21.157 15.6073C21.3188 15.4574 21.4809 15.3074 21.6433 15.1573C21.7297 15.0777 21.7111 14.9613 21.6433 14.8796C21.4257 14.6178 21.2081 14.3562 20.9904 14.0945C20.9201 14.0096 20.7764 14.0268 20.7032 14.0945C20.5769 14.211 20.4507 14.3277 20.3246 14.4448C20.3246 14.4448 20.3246 14.4448 19.9296 14.135L19.8281 14.2334Z" fill="#FFE784"/>
<path d="M20.7461 13.8472C20.7871 13.8127 20.7916 13.752 20.7559 13.7121L20.5179 13.4471C20.4821 13.4072 20.4193 13.4028 20.3783 13.4374L20.1041 13.6681C20.0631 13.7024 20.0588 13.7634 20.0945 13.8034L20.3326 14.0683C20.3682 14.1081 20.431 14.1126 20.4723 14.0776L20.7461 13.8472Z" fill="#FFE784"/>
<circle cx="16.5" cy="19" r="3.25" fill="#0055B8" stroke="#FFE784" stroke-width="0.5"/>
<path d="M17.697 18.5537V18.9911L17.5804 18.9237C17.4847 18.8683 17.3651 18.8848 17.2874 18.9597C17.2709 18.9746 17.2575 18.9926 17.2455 19.0121L17.2365 19.0286C17.2201 19.057 17.2066 19.0645 17.2051 19.066C17.2021 19.0645 17.1872 19.057 17.1707 19.0271L17.1618 19.0121C17.1289 18.9552 17.0765 18.9162 17.0137 18.8997C16.9494 18.8818 16.8836 18.8907 16.8283 18.9237L16.6923 19.0031C16.631 19.0375 16.5876 19.0945 16.5696 19.1619C16.5517 19.2308 16.5607 19.3012 16.5951 19.3626C16.6115 19.3896 16.6115 19.4061 16.6115 19.4091C16.61 19.4106 16.5951 19.4195 16.5622 19.4195C16.4171 19.4195 16.299 19.5379 16.299 19.6817V19.8225C16.299 19.9663 16.4171 20.0847 16.5622 20.0847C16.5951 20.0847 16.61 20.0951 16.61 20.0951C16.6115 20.0966 16.6115 20.1146 16.5951 20.1416C16.5846 20.1611 16.5756 20.1805 16.5711 20.2015H16.0523C15.6396 20.2015 15.3047 19.8659 15.3047 19.4525V18.5537C15.3047 18.1402 15.6396 17.8047 16.0523 17.8047H16.9494C17.3621 17.8047 17.697 18.1402 17.697 18.5537Z" fill="#0055B8"/>
<path d="M17.2995 18.676V18.9711C17.2831 18.9861 17.2696 19.004 17.2577 19.0235L17.2487 19.04C17.2323 19.0684 17.2188 19.0759 17.2173 19.0774C17.2143 19.0759 17.1994 19.0684 17.1829 19.0385L17.1739 19.0235C17.141 18.9666 17.0887 18.9276 17.0259 18.9112C16.9616 18.8932 16.8958 18.9022 16.8405 18.9351L16.7044 19.0145C16.6431 19.049 16.5998 19.1059 16.5818 19.1733C16.5639 19.2422 16.5729 19.3126 16.6072 19.374C16.6237 19.401 16.6237 19.4175 16.6237 19.4205C16.6222 19.422 16.6072 19.431 16.5744 19.431C16.4293 19.431 16.3112 19.5493 16.3112 19.6931V19.8025H16.1751C15.9284 19.8025 15.7266 19.6002 15.7266 19.3531V18.676C15.7266 18.4288 15.9284 18.2266 16.1751 18.2266H16.851C17.0977 18.2266 17.2995 18.4288 17.2995 18.676Z" fill="#FFE784"/>
<path d="M16.061 17.6125V17.8H16.052C15.977 17.8 15.9049 17.8105 15.8359 17.8315V17.6125C15.8359 17.551 15.8854 17.5 15.9485 17.5C16.01 17.5 16.061 17.551 16.061 17.6125Z" fill="#FFE784"/>
<path d="M16.6078 17.6125V17.8H16.3828V17.6125C16.3828 17.551 16.4338 17.5 16.4953 17.5C16.5568 17.5 16.6078 17.551 16.6078 17.6125Z" fill="#FFE784"/>
<path d="M17.1703 17.6125V17.8315C17.1013 17.8105 17.0278 17.8 16.9528 17.8H16.9453V17.6125C16.9453 17.551 16.9963 17.5 17.0578 17.5C17.1193 17.5 17.1703 17.551 17.1703 17.6125Z" fill="#FFE784"/>
<path d="M17.9956 18.4485C17.9956 18.5115 17.9461 18.561 17.8831 18.561H17.6956V18.5535C17.6956 18.4785 17.6851 18.4049 17.6641 18.3359H17.8831C17.9461 18.3359 17.9956 18.3869 17.9956 18.4485Z" fill="#FFE784"/>
<path d="M16.061 20.2034V20.3909C16.061 20.4524 16.01 20.5034 15.9485 20.5034C15.8854 20.5034 15.8359 20.4524 15.8359 20.3909V20.1719C15.9049 20.1929 15.977 20.2034 16.052 20.2034H16.061Z" fill="#FFE784"/>
<path d="M15.3315 18.3359C15.3105 18.4049 15.3 18.4785 15.3 18.5535V18.561H15.1125C15.051 18.561 15 18.5115 15 18.4485C15 18.3869 15.051 18.3359 15.1125 18.3359H15.3315Z" fill="#FFE784"/>
<path d="M15.3 18.8828V19.1078H15.1125C15.051 19.1078 15 19.0568 15 18.9953C15 18.9323 15.051 18.8828 15.1125 18.8828H15.3Z" fill="#FFE784"/>
<path d="M15.3315 19.6703H15.1125C15.051 19.6703 15 19.6193 15 19.5578C15 19.4948 15.051 19.4453 15.1125 19.4453H15.3V19.4528C15.3 19.5278 15.3105 19.6013 15.3315 19.6703Z" fill="#FFE784"/>
<path d="M17.8402 19.529C17.7385 19.529 17.6802 19.4781 17.6802 19.4032C17.6802 19.3732 17.6892 19.3388 17.7101 19.3028C17.752 19.2309 17.7265 19.138 17.6548 19.0976L17.5187 19.0182C17.4559 18.9807 17.3752 19.0032 17.3378 19.0661L17.3288 19.0811C17.257 19.2055 17.1404 19.2055 17.0686 19.0811L17.0597 19.0661C17.0238 19.0032 16.9415 18.9807 16.8802 19.0182L16.7427 19.0976C16.6948 19.1246 16.6664 19.1755 16.6664 19.2279C16.6664 19.2534 16.6739 19.2789 16.6874 19.3028C16.7083 19.3388 16.7188 19.3732 16.7188 19.4032C16.7188 19.4781 16.6589 19.529 16.5573 19.529C16.475 19.529 16.4062 19.5964 16.4062 19.6788V19.8196C16.4062 19.902 16.475 19.9694 16.5573 19.9694C16.6589 19.9694 16.7188 20.0204 16.7188 20.0953C16.7188 20.1252 16.7083 20.1597 16.6874 20.1956C16.6455 20.2675 16.6709 20.3604 16.7427 20.4009L16.8802 20.4803C16.9415 20.5177 17.0238 20.4952 17.0597 20.4323L17.0686 20.4173C17.1404 20.293 17.257 20.293 17.3288 20.4173L17.3378 20.4323C17.3752 20.4952 17.4559 20.5177 17.5187 20.4803L17.6548 20.4009C17.7026 20.3739 17.731 20.323 17.731 20.2705C17.731 20.2451 17.7235 20.2196 17.7101 20.1956C17.6892 20.1597 17.6802 20.1252 17.6802 20.0953C17.6802 20.0204 17.7385 19.9694 17.8402 19.9694C17.9239 19.9694 17.9912 19.902 17.9912 19.8196V19.6788C17.9912 19.5964 17.9239 19.529 17.8402 19.529ZM17.1987 20.0069C17.0567 20.0069 16.9415 19.8915 16.9415 19.7492C16.9415 19.6069 17.0567 19.4916 17.1987 19.4916C17.3408 19.4916 17.4559 19.6069 17.4559 19.7492C17.4559 19.8915 17.3408 20.0069 17.1987 20.0069Z" fill="#FFE784"/>
<path d="M17.4614 19.7502C17.4614 19.8927 17.3459 20.0082 17.2033 20.0082C17.0608 20.0082 16.9453 19.8927 16.9453 19.7502C16.9453 19.6077 17.0608 19.4922 17.2033 19.4922C17.3459 19.4922 17.4614 19.6077 17.4614 19.7502Z" fill="#0055B8"/>
</g>
<defs>
<clipPath id="clip0_5001_264737">
<rect width="48" height="48" fill="white" transform="translate(0.5)"/>
</clipPath>
</defs>
</svg>
