<svg width="48" height="48" viewBox="0 0 48 48" fill="none" xmlns="http://www.w3.org/2000/svg">
<g clip-path="url(#clip0_6238_24643)">
<rect width="48" height="48" rx="15" fill="#FFE784"/>
<path d="M24 11C23.1025 11 22.375 11.7275 22.375 12.625V14.25C22.375 15.1475 23.1025 15.875 24 15.875C24.8975 15.875 25.625 15.1475 25.625 14.25V12.625C25.625 11.7275 24.8975 11 24 11Z" fill="#0055B8"/>
<path fill-rule="evenodd" clip-rule="evenodd" d="M14.25 14.25H19.125C19.125 16.9424 21.3076 19.125 24 19.125C26.6924 19.125 28.875 16.9424 28.875 14.25H33.75C35.5449 14.25 37 15.7051 37 17.5V32.125C37 33.9199 35.5449 35.375 33.75 35.375H14.25C12.4551 35.375 11 33.9199 11 32.125V17.5C11 15.7051 12.4551 14.25 14.25 14.25ZM18.3125 25.625C19.6587 25.625 20.75 24.5337 20.75 23.1875C20.75 21.8413 19.6587 20.75 18.3125 20.75C16.9663 20.75 15.875 21.8413 15.875 23.1875C15.875 24.5337 16.9663 25.625 18.3125 25.625ZM22.2945 32.125C22.3478 31.8625 22.3758 31.5908 22.3758 31.3125C22.3758 29.0688 20.5569 27.25 18.3133 27.25C16.0696 27.25 14.2508 29.0688 14.2508 31.3125C14.2508 31.5908 14.2788 31.8625 14.3321 32.125H22.2945ZM27.25 22.375C26.3525 22.375 25.625 23.1025 25.625 24C25.625 24.8975 26.3525 25.625 27.25 25.625H32.125C33.0225 25.625 33.75 24.8975 33.75 24C33.75 23.1025 33.0225 22.375 32.125 22.375H27.25ZM25.625 28.875C25.625 27.9775 26.3525 27.25 27.25 27.25H30.5C31.3975 27.25 32.125 27.9775 32.125 28.875C32.125 29.7725 31.3975 30.5 30.5 30.5H27.25C26.3525 30.5 25.625 29.7725 25.625 28.875Z" fill="#0055B8"/>
</g>
<defs>
<clipPath id="clip0_6238_24643">
<rect width="48" height="48" fill="white"/>
</clipPath>
</defs>
</svg>
