<svg width="49" height="48" viewBox="0 0 49 48" fill="none" xmlns="http://www.w3.org/2000/svg">
<rect x="0.666992" width="48" height="48" rx="15" fill="#FFE784"/>
<path fill-rule="evenodd" clip-rule="evenodd" d="M32.3323 10.6667H31.3323H25.3337H17.995L16.999 10.668C16.2034 10.668 15.4403 10.9841 14.8777 11.5467C14.3151 12.1093 13.999 12.8724 13.999 13.668L13.9995 20.5605L17.4489 17.6491C17.7377 17.4053 18.1627 17.4145 18.4407 17.6705L22.7597 21.6472L28.0785 16.75H26.38C25.9658 16.75 25.63 16.4142 25.63 16C25.63 15.5858 25.9658 15.25 26.38 15.25H30.0003C30.4145 15.25 30.7503 15.5858 30.7503 16V19.3333C30.7503 19.7475 30.4145 20.0833 30.0003 20.0833C29.5861 20.0833 29.2503 19.7475 29.2503 19.3333V17.71L23.2677 23.2184C22.9806 23.4827 22.5388 23.4827 22.2517 23.2184L17.9111 19.2219L13.9996 22.5233L14.0004 33C14.0004 33.7956 14.3164 34.5587 14.879 35.1213C15.4416 35.6839 16.2047 36 17.0004 36H26.891C26.287 35.1373 26.0003 34.148 26.0003 33.16V33.0227C26.0003 32.5373 26.0959 32.0567 26.2817 31.6083C26.4674 31.1598 26.7397 30.7524 27.0829 30.4092C27.4261 30.066 27.8335 29.7938 28.2819 29.608C28.7304 29.4223 29.211 29.3267 29.6963 29.3267H30.067C29.2771 28.5545 28.7866 27.5271 28.683 26.4273C28.5793 25.3276 28.8692 24.2267 29.501 23.3205C30.1328 22.4143 31.0655 21.7617 32.1333 21.4786C33.2011 21.1956 34.3346 21.3005 35.3323 21.7747V13.6667C35.3323 12.871 35.0163 12.108 34.4537 11.5453C33.8911 10.9827 33.128 10.6667 32.3323 10.6667ZM36.667 25.9933C36.667 26.8774 36.3158 27.7252 35.6907 28.3504C35.0656 28.9755 34.2177 29.3267 33.3337 29.3267C32.4496 29.3267 31.6018 28.9755 30.9767 28.3504C30.3515 27.7252 30.0003 26.8774 30.0003 25.9933C30.0003 25.1093 30.3515 24.2614 30.9767 23.6363C31.6018 23.0112 32.4496 22.66 33.3337 22.66C34.2177 22.66 35.0656 23.0112 35.6907 23.6363C36.3158 24.2614 36.667 25.1093 36.667 25.9933ZM39.3337 33.16C39.3337 35.2347 37.619 37.3267 33.3337 37.3267C29.0483 37.3267 27.3337 35.2427 27.3337 33.16V33.0227C27.3337 31.716 28.3923 30.66 29.6977 30.66H36.9697C38.2763 30.66 39.3337 31.7173 39.3337 33.0227V33.16Z" fill="#0055B8"/>
</svg>
