<svg width="48" height="48" viewBox="0 0 48 48" fill="none" xmlns="http://www.w3.org/2000/svg">
<g clip-path="url(#clip0_6238_24648)">
<rect width="48" height="48" rx="15" fill="#D6EBFF"/>
<path d="M31.2081 11H14.7543C14.2756 11.015 13.8223 11.2191 13.4937 11.5675C13.165 11.9159 12.9878 12.3803 13.0007 12.8591V36.0017C12.9954 36.4756 13.1761 36.9326 13.5039 37.2748C13.8318 37.617 14.2807 37.8171 14.7543 37.8321H34.2459C34.4813 37.8271 34.7133 37.7758 34.9288 37.6811C35.1443 37.5864 35.3391 37.4502 35.5019 37.2802C35.6648 37.1103 35.7926 36.9099 35.878 36.6905C35.9633 36.4711 36.0047 36.2371 35.9996 36.0017V15.7339L31.2081 11ZM28.3333 32.0248C28.0703 32.0261 27.8096 31.9756 27.5661 31.8761C27.3226 31.7766 27.1011 31.6301 26.9143 31.445C26.7274 31.2599 26.5788 31.0398 26.477 30.7973C26.3752 30.5548 26.3221 30.2946 26.3209 30.0316V29.7441L20.9257 27.2334L20.849 27.3101C20.5624 27.5799 20.2022 27.7587 19.814 27.8241C19.4258 27.8894 19.0269 27.8384 18.6677 27.6774C18.3084 27.5163 18.0049 27.2525 17.7954 26.9192C17.586 26.5859 17.4799 26.198 17.4905 25.8045C17.5012 25.4109 17.6282 25.0294 17.8554 24.7079C18.0827 24.3865 18.4 24.1395 18.7674 23.9982C19.1349 23.8568 19.5359 23.8275 19.92 23.9138C20.3041 24.0001 20.6541 24.1982 20.9257 24.4831L26.3305 21.9341V21.7137C26.3421 21.179 26.5622 20.6701 26.9438 20.2954C27.2281 20.0223 27.5871 19.8396 27.9752 19.7705C28.3634 19.7014 28.7634 19.7489 29.1245 19.9072C29.4856 20.0654 29.7917 20.3272 30.0041 20.6594C30.2164 20.9916 30.3255 21.3793 30.3174 21.7735C30.3094 22.1677 30.1846 22.5507 29.9589 22.874C29.7332 23.1972 29.4166 23.4463 29.0493 23.5897C28.6821 23.733 28.2805 23.7642 27.8955 23.6793C27.5104 23.5945 27.1592 23.3973 26.8863 23.1128L21.4623 25.6522V26.0739L26.9438 28.6229C27.3096 28.2457 27.808 28.0257 28.3333 28.0096C28.8657 28.0096 29.3764 28.2211 29.7529 28.5976C30.1294 28.9741 30.3409 29.4848 30.3409 30.0172C30.3409 30.5497 30.1294 31.0603 29.7529 31.4368C29.3764 31.8133 28.8657 32.0248 28.3333 32.0248V32.0248ZM30.2499 16.6922V12.7058L34.2747 16.7497L30.2499 16.6922Z" fill="#0055B8"/>
</g>
<defs>
<clipPath id="clip0_6238_24648">
<rect width="48" height="48" fill="white"/>
</clipPath>
</defs>
</svg>
