<svg width="48" height="48" viewBox="0 0 48 48" fill="none" xmlns="http://www.w3.org/2000/svg">
<rect width="48" height="48" rx="15" fill="#D6EBFF"/>
<path fill-rule="evenodd" clip-rule="evenodd" d="M31.6654 10.667H30.6654H24.6667H17.328L16.332 10.6683C15.5364 10.6683 14.7733 10.9844 14.2107 11.547C13.6481 12.1096 13.332 12.8727 13.332 13.6683L13.3325 20.5609L16.7819 17.6494C17.0707 17.4057 17.4957 17.4148 17.7737 17.6708L22.0927 21.6475L27.4115 16.7503H25.713C25.2988 16.7503 24.963 16.4145 24.963 16.0003C24.963 15.5861 25.2988 15.2503 25.713 15.2503H29.3333C29.7475 15.2503 30.0833 15.5861 30.0833 16.0003V19.3337C30.0833 19.7479 29.7475 20.0837 29.3333 20.0837C28.9191 20.0837 28.5833 19.7479 28.5833 19.3337V17.7104L22.6007 23.2187C22.3136 23.4831 21.8718 23.4831 21.5847 23.2187L17.2441 19.2222L13.3326 22.5236L13.3334 33.0003C13.3334 33.796 13.6494 34.559 14.212 35.1216C14.7747 35.6843 15.5377 36.0003 16.3334 36.0003H26.224C25.62 35.1377 25.3334 34.1483 25.3334 33.1603V33.023C25.3334 32.5376 25.429 32.057 25.6147 31.6086C25.8004 31.1602 26.0727 30.7527 26.4159 30.4095C26.7591 30.0663 27.1665 29.7941 27.615 29.6083C28.0634 29.4226 28.544 29.327 29.0294 29.327H29.4C28.6101 28.5548 28.1196 27.5275 28.016 26.4277C27.9123 25.3279 28.2022 24.227 28.834 23.3208C29.4658 22.4147 30.3985 21.762 31.4663 21.4789C32.5341 21.1959 33.6677 21.3008 34.6654 21.775V13.667C34.6654 12.8713 34.3493 12.1083 33.7867 11.5457C33.2241 10.9831 32.461 10.667 31.6654 10.667ZM36 25.9937C36 26.8777 35.6488 27.7256 35.0237 28.3507C34.3986 28.9758 33.5507 29.327 32.6667 29.327C31.7826 29.327 30.9348 28.9758 30.3097 28.3507C29.6845 27.7256 29.3334 26.8777 29.3334 25.9937C29.3334 25.1096 29.6845 24.2618 30.3097 23.6366C30.9348 23.0115 31.7826 22.6603 32.6667 22.6603C33.5507 22.6603 34.3986 23.0115 35.0237 23.6366C35.6488 24.2618 36 25.1096 36 25.9937ZM38.6667 33.1603C38.6667 35.235 36.952 37.327 32.6667 37.327C28.3814 37.327 26.6667 35.243 26.6667 33.1603V33.023C26.6667 31.7163 27.7254 30.6603 29.0307 30.6603H36.3027C37.6093 30.6603 38.6667 31.7177 38.6667 33.023V33.1603Z" fill="#0055B8"/>
</svg>
