<svg width="48" height="48" viewBox="0 0 48 48" fill="none" xmlns="http://www.w3.org/2000/svg">
<g clip-path="url(#clip0_6_300)">
<rect width="48" height="48" rx="15" fill="#FFE784"/>
<path fill-rule="evenodd" clip-rule="evenodd" d="M34.7507 11H20.1458C18.7909 11 16.7754 11.9413 16.7754 14.5344V22.6331C17.6639 22.4382 18.6156 22.6114 19.3915 23.1447L24.0366 26.3371C24.9042 26.9358 25.4406 27.9088 25.4406 28.9828V32.2875H35.9976C36.5499 32.2875 36.9976 31.8398 36.9976 31.2875V13.3563C36.9976 12.7313 36.7609 12.132 36.3395 11.6901C35.9181 11.2482 35.3466 11 34.7507 11ZM35.8195 37H25.2625C25.3768 36.7277 25.4406 36.4267 25.4406 36.1062V34.6437H35.8195C36.4701 34.6437 36.9976 35.1712 36.9976 35.8219C36.9976 36.4725 36.4701 37 35.8195 37ZM23.5431 20.6013C23.5431 21.0137 23.072 21.2488 22.7425 21.0009L21.3828 19.978C21.2721 19.8947 21.1187 19.8981 21.0117 19.9862L19.8672 20.9292C19.5411 21.1979 19.0493 20.9659 19.0493 20.5433V14.3563C19.0493 13.804 19.497 13.3563 20.0493 13.3563H22.5431C23.0954 13.3563 23.5431 13.804 23.5431 14.3563V20.6013ZM18.5771 24.3352L23.22 27.526C23.7121 27.8656 24 28.4019 24 28.9828V36.1062C24 36.5978 23.5821 37 23.0714 37H19.3571V31.6373H15.6429V37H11.9286C11.4179 37 11 36.5978 11 36.1062V28.9828C11 28.4019 11.2879 27.8656 11.78 27.526L16.4229 24.3352C17.0636 23.8883 17.9271 23.8883 18.5771 24.3352Z" fill="#0055B8"/>
</g>
<defs>
<clipPath id="clip0_6_300">
<rect width="48" height="48" fill="white"/>
</clipPath>
</defs>
</svg>
