<svg width="49" height="48" viewBox="0 0 49 48" fill="none" xmlns="http://www.w3.org/2000/svg">
<g clip-path="url(#clip0_0_65)">
<rect x="0.5" width="48" height="48" rx="15" fill="#D6EBFF"/>
<path d="M28.7857 17.9444C28.7857 19.1232 28.3342 20.2536 27.5304 21.0871C26.7267 21.9206 25.6366 22.3889 24.5 22.3889C23.3633 22.3889 22.2732 21.9206 21.4695 21.0871C20.6658 20.2536 20.2143 19.1232 20.2143 17.9444C20.2143 16.7657 20.6658 15.6352 21.4695 14.8017C22.2732 13.9683 23.3633 13.5 24.5 13.5C25.6366 13.5 26.7267 13.9683 27.5304 14.8017C28.3342 15.6352 28.7857 16.7657 28.7857 17.9444ZM32 27.9444C32 30.7111 29.8571 33.5 24.5 33.5C19.1428 33.5 17 30.7222 17 27.9444C17 27.0604 17.3386 26.2125 17.9414 25.5874C18.5442 24.9623 19.3618 24.6111 20.2143 24.6111H28.7857C29.6382 24.6111 30.4557 24.9623 31.0585 25.5874C31.6613 26.2125 32 27.0604 32 27.9444Z" fill="#0055B8"/>
<path d="M28.7857 17.9444C28.7857 19.1232 28.3342 20.2536 27.5304 21.0871C26.7267 21.9206 25.6366 22.3889 24.5 22.3889C23.3633 22.3889 22.2732 21.9206 21.4695 21.0871C20.6658 20.2536 20.2143 19.1232 20.2143 17.9444C20.2143 16.7657 20.6658 15.6352 21.4695 14.8017C22.2732 13.9683 23.3633 13.5 24.5 13.5C25.6366 13.5 26.7267 13.9683 27.5304 14.8017C28.3342 15.6352 28.7857 16.7657 28.7857 17.9444ZM32 27.9444C32 30.7111 29.8571 33.5 24.5 33.5C19.1428 33.5 17 30.7222 17 27.9444C17 27.0604 17.3386 26.2125 17.9414 25.5874C18.5442 24.9623 19.3618 24.6111 20.2143 24.6111H28.7857C29.6382 24.6111 30.4557 24.9623 31.0585 25.5874C31.6613 26.2125 32 27.0604 32 27.9444Z" fill="#0055B8"/>
<path fill-rule="evenodd" clip-rule="evenodd" d="M33.3341 30.9583C33.6232 30.9857 33.9284 31 34.2502 31C38.0002 31 39.5002 29.0478 39.5002 27.1111C39.5002 26.4923 39.2631 25.8988 38.8412 25.4612C38.4192 25.0236 37.8469 24.7778 37.2502 24.7778H32.9824C33.6438 25.6947 34.0007 26.8051 34.0007 27.9444C34.0007 28.9643 33.7873 29.9965 33.3341 30.9583ZM31.332 30.473C29.6981 29.7638 29.0002 28.4375 29.0002 27.1111C29.0002 26.4923 29.2372 25.8988 29.6592 25.4612C29.8448 25.2687 30.0595 25.1134 30.2925 24.9997C30.5723 25.1536 30.8312 25.3509 31.0592 25.5874C31.662 26.2125 32.0007 27.0604 32.0007 27.9444C32.0007 28.8142 31.7889 29.6862 31.332 30.473ZM36.3715 22.311C36.9341 21.7276 37.2502 20.9362 37.2502 20.1111C37.2502 19.286 36.9341 18.4947 36.3715 17.9112C35.8089 17.3278 35.0458 17 34.2502 17C33.4545 17 32.6914 17.3278 32.1288 17.9112C31.5662 18.4947 31.2502 19.286 31.2502 20.1111C31.2502 20.9362 31.5662 21.7276 32.1288 22.311C32.6914 22.8945 33.4545 23.2222 34.2502 23.2222C35.0458 23.2222 35.8089 22.8945 36.3715 22.311Z" fill="#0055B8"/>
<path fill-rule="evenodd" clip-rule="evenodd" d="M16.0188 24.7778H11.75C11.1533 24.7778 10.581 25.0236 10.159 25.4612C9.73705 25.8988 9.5 26.4923 9.5 27.1111C9.5 29.0556 11 31 14.75 31C15.0713 31 15.3761 30.9857 15.6648 30.9583C15.213 29.997 15.0005 28.965 15.0005 27.9444C15.0005 26.8051 15.3574 25.6947 16.0188 24.7778ZM18.7082 25C18.941 25.1136 19.1555 25.2689 19.341 25.4612C19.7629 25.8988 20 26.4923 20 27.1111C20 28.4328 19.3014 29.7616 17.6659 30.4724C17.2113 29.6869 17.0005 28.8156 17.0005 27.9444C17.0005 27.0604 17.3392 26.2125 17.942 25.5874C18.1699 25.351 18.4285 25.1538 18.7082 25ZM16.8713 22.311C17.4339 21.7276 17.75 20.9362 17.75 20.1111C17.75 19.286 17.4339 18.4947 16.8713 17.9112C16.3087 17.3278 15.5456 17 14.75 17C13.9543 17 13.1913 17.3278 12.6287 17.9112C12.0661 18.4947 11.75 19.286 11.75 20.1111C11.75 20.9362 12.0661 21.7276 12.6287 22.311C13.1913 22.8945 13.9543 23.2222 14.75 23.2222C15.5456 23.2222 16.3087 22.8945 16.8713 22.311Z" fill="#0055B8"/>
</g>
<defs>
<clipPath id="clip0_0_65">
<rect width="48" height="48" fill="white" transform="translate(0.5)"/>
</clipPath>
</defs>
</svg>
