<svg width="48" height="48" viewBox="0 0 48 48" fill="none" xmlns="http://www.w3.org/2000/svg">
<g clip-path="url(#clip0_6_675)">
<rect width="48" height="48" rx="15" fill="#FFE784"/>
<path fill-rule="evenodd" clip-rule="evenodd" d="M30.9042 11H31.8795C32.6554 11 33.3996 11.3082 33.9483 11.8569C34.4969 12.4056 34.8052 13.1498 34.8052 13.9257V21.833C33.8322 21.3705 32.7267 21.2682 31.6853 21.5443C30.644 21.8203 29.7343 22.4568 29.1182 23.3406C28.502 24.2243 28.2194 25.2979 28.3204 26.3705C28.4215 27.4431 28.8998 28.445 29.6702 29.1981H29.3087C28.8354 29.1981 28.3667 29.2913 27.9293 29.4724C27.492 29.6536 27.0947 29.9191 26.7599 30.2538C26.4252 30.5885 26.1597 30.9858 25.9786 31.4232C25.7974 31.8605 25.7042 32.3292 25.7042 32.8026V32.9365C25.7042 33.9 25.9838 34.8649 26.5728 35.7062H16.927C16.1511 35.7062 15.4069 35.3979 14.8582 34.8493C14.3095 34.3006 14.0013 33.5564 14.0013 32.7804L14 13.927C14 13.1511 14.3082 12.4069 14.8569 11.8582C15.4056 11.3095 16.1498 11.0013 16.9257 11.0013L17.8971 11L25.0541 11H30.9042ZM18.8723 25.3036H23.4247L23.5574 25.3127C23.7908 25.3448 24.0047 25.4603 24.1595 25.6379C24.3144 25.8155 24.3997 26.0432 24.3997 26.2788C24.3997 26.5144 24.3144 26.7421 24.1595 26.9197C24.0047 27.0973 23.7908 27.2128 23.5574 27.245L23.4247 27.2541H18.8723L18.7397 27.245C18.5063 27.2128 18.2924 27.0973 18.1375 26.9197C17.9827 26.7421 17.8974 26.5144 17.8974 26.2788C17.8974 26.0432 17.9827 25.8155 18.1375 25.6379C18.2924 25.4603 18.5063 25.3448 18.7397 25.3127L18.8723 25.3036ZM18.8723 14.901H29.9264L30.059 14.9101C30.2924 14.9422 30.5063 15.0577 30.6612 15.2353C30.816 15.4129 30.9013 15.6406 30.9013 15.8762C30.9013 16.1118 30.816 16.3395 30.6612 16.5171C30.5063 16.6947 30.2924 16.8102 30.059 16.8424L29.9264 16.8515H18.8723L18.7397 16.8424C18.5063 16.8102 18.2924 16.6947 18.1375 16.5171C17.9827 16.3395 17.8974 16.1118 17.8974 15.8762C17.8974 15.6406 17.9827 15.4129 18.1375 15.2353C18.2924 15.0577 18.5063 14.9422 18.7397 14.9101L18.8723 14.901ZM18.8723 22.0528C18.334 22.0528 17.8971 21.6159 17.8971 21.0775C17.8971 20.8189 17.9998 20.5708 18.1827 20.3879C18.3656 20.205 18.6137 20.1023 18.8723 20.1023H26.028C26.2866 20.1023 26.5347 20.205 26.7176 20.3879C26.9005 20.5708 27.0032 20.8189 27.0032 21.0775C27.0032 21.3362 26.9005 21.5842 26.7176 21.7671C26.5347 21.95 26.2866 22.0528 26.028 22.0528H18.8723Z" fill="#0055B8"/>
<path fill-rule="evenodd" clip-rule="evenodd" d="M35.1547 28.2459C35.7643 27.6363 36.1068 26.8094 36.1068 25.9472C36.1068 25.0851 35.7643 24.2582 35.1547 23.6486C34.545 23.0389 33.7182 22.6964 32.856 22.6964C31.9938 22.6964 31.167 23.0389 30.5573 23.6486C29.9477 24.2582 29.6052 25.0851 29.6052 25.9472C29.6052 26.8094 29.9477 27.6363 30.5573 28.2459C31.167 28.8556 31.9938 29.1981 32.856 29.1981C33.7182 29.1981 34.545 28.8556 35.1547 28.2459ZM32.856 37C37.0352 37 38.7075 34.9598 38.7075 32.9365V32.8026C38.7075 31.5295 37.6763 30.4984 36.402 30.4984H29.31C28.037 30.4984 27.0045 31.5282 27.0045 32.8026V32.9365C27.0045 34.9676 28.6768 37 32.856 37Z" fill="#0055B8"/>
</g>
<defs>
<clipPath id="clip0_6_675">
<rect width="48" height="48" fill="white"/>
</clipPath>
</defs>
</svg>
