<svg width="49" height="48" viewBox="0 0 49 48" fill="none" xmlns="http://www.w3.org/2000/svg">
<rect x="0.5" width="48" height="48" rx="15" fill="#FFE784"/>
<path fill-rule="evenodd" clip-rule="evenodd" d="M20.3145 26.479C21.0432 25.7233 21.4526 24.6983 21.4526 23.6296C21.4526 22.5609 21.0432 21.5359 20.3145 20.7802C19.5858 20.0245 18.5975 19.6 17.5669 19.6C16.5364 19.6 15.548 20.0245 14.8193 20.7802C14.0906 21.5359 13.6812 22.5609 13.6812 23.6296C13.6812 24.6983 14.0906 25.7233 14.8193 26.479C15.548 27.2347 16.5364 27.6593 17.5669 27.6593C18.5975 27.6593 19.5858 27.2347 20.3145 26.479ZM17.5669 37.7333C22.4241 37.7333 24.3669 35.2047 24.3669 32.6963C24.3669 32.644 24.3656 32.5918 24.363 32.5398L28.7055 28.1972C29.1481 27.7546 29.1481 27.037 28.7055 26.5944C28.263 26.1518 27.5454 26.1518 27.1028 26.5944L23.3207 30.3766C22.7987 29.9245 22.1381 29.6741 21.4526 29.6741H13.6812C12.9083 29.6741 12.167 29.9925 11.6205 30.5593C11.074 31.126 10.7669 31.8947 10.7669 32.6963C10.7669 35.2148 12.7098 37.7333 17.5669 37.7333Z" fill="#0055B8"/>
<path fill-rule="evenodd" clip-rule="evenodd" d="M12.5 12.6667C12.5 11.5621 13.3954 10.6667 14.5 10.6667H35.8333C36.9379 10.6667 37.8333 11.5621 37.8333 12.6667V26C37.8333 27.1046 36.9379 28 35.8333 28H31.1132C31.3022 26.9413 30.9901 25.8099 30.1768 24.9917C28.857 23.6639 26.7172 23.6639 25.3974 24.9917L22.793 27.6119C22.6427 27.5677 22.4901 27.5304 22.3358 27.5003C23.1736 26.3936 23.6275 25.0303 23.6275 23.6296C23.6275 21.9858 23.0023 20.3935 21.865 19.2069C20.725 18.0175 19.161 17.3333 17.5121 17.3333C15.8632 17.3333 14.2992 18.0175 13.1592 19.2069C12.9156 19.461 12.6955 19.7338 12.5 20.0217V12.6667ZM28.5837 26.5945C28.963 26.976 29.0153 27.5621 28.7405 28H25.5935L26.9906 26.5944C27.4305 26.1519 28.1438 26.1519 28.5837 26.5945ZM16.1681 27.4074C15.652 27.2075 15.1778 26.893 14.781 26.479C14.0567 25.7233 13.6498 24.6984 13.6498 23.6296C13.6498 22.5609 14.0567 21.536 14.781 20.7803C15.5053 20.0246 16.4877 19.6 17.5121 19.6C18.5365 19.6 19.5189 20.0246 20.2432 20.7803C20.9675 21.536 21.3744 22.5609 21.3744 23.6296C21.3744 24.6984 20.9675 25.7233 20.2432 26.479L16.1681 27.4074ZM16.1681 27.4074H18.8561C18.43 27.5724 17.9754 27.6593 17.5121 27.6593C17.0488 27.6593 16.5942 27.5724 16.1681 27.4074ZM25.5 14C24.9477 14 24.5 14.4477 24.5 15C24.5 15.5523 24.9477 16 25.5 16H32.8333C33.3856 16 33.8333 15.5523 33.8333 15C33.8333 14.4477 33.3856 14 32.8333 14H25.5ZM25.5 18C24.9477 18 24.5 18.4477 24.5 19C24.5 19.5523 24.9477 20 25.5 20H32.8333C33.3856 20 33.8333 19.5523 33.8333 19C33.8333 18.4477 33.3856 18 32.8333 18H25.5Z" fill="#0055B8"/>
</svg>
