<svg width="49" height="48" viewBox="0 0 49 48" fill="none" xmlns="http://www.w3.org/2000/svg">
<g clip-path="url(#clip0_0_74)">
<rect x="0.5" width="48" height="48" rx="15" fill="#D6EBFF"/>
<path d="M36.5 32.25C36.5 34.1175 34.9762 36 31.1667 36C27.3571 36 25.8333 34.125 25.8333 32.25C25.8333 31.6533 26.0741 31.081 26.5028 30.659C26.9315 30.2371 27.5128 30 28.119 30H34.2143C34.8205 30 35.4019 30.2371 35.8305 30.659C36.2592 31.081 36.5 31.6533 36.5 32.25Z" fill="#0055B8"/>
<path d="M23.1667 32.25C23.1667 34.1175 21.6429 36 17.8333 36C14.0238 36 12.5 34.125 12.5 32.25C12.5 31.6533 12.7408 31.081 13.1695 30.659C13.5981 30.2371 14.1795 30 14.7857 30H20.881C21.4872 30 22.0685 30.2371 22.4972 30.659C22.9259 31.081 23.1667 31.6533 23.1667 32.25Z" fill="#0055B8"/>
<path d="M20.5 26C20.5 27.4733 19.3067 28.6667 17.8333 28.6667C16.36 28.6667 15.1667 27.4733 15.1667 26C15.1667 24.5267 16.36 23.3333 17.8333 23.3333C19.3067 23.3333 20.5 24.5267 20.5 26Z" fill="#0055B8"/>
<path d="M33.8333 26C33.8333 27.4733 32.64 28.6667 31.1667 28.6667C29.6933 28.6667 28.5 27.4733 28.5 26C28.5 24.5267 29.6933 23.3333 31.1667 23.3333C32.64 23.3333 33.8333 24.5267 33.8333 26Z" fill="#0055B8"/>
<path d="M27.1667 24C27.1667 25.4733 25.9733 26.6667 24.5 26.6667C23.0267 26.6667 21.8333 25.4733 21.8333 24C21.8333 22.5267 23.0267 21.3333 24.5 21.3333C25.9733 21.3333 27.1667 22.5267 27.1667 24Z" fill="#0055B8"/>
<path d="M23.8333 16.5553C23.8333 15.7008 23.4939 14.8813 22.8896 14.277C22.2854 13.6728 21.4659 13.3333 20.6113 13.3333H18.4987C17.6245 13.3319 16.7848 13.6741 16.1606 14.2861C15.5364 14.8981 15.1777 15.731 15.1618 16.605C15.146 17.479 15.4743 18.3243 16.0759 18.9585C16.6776 19.5927 17.5043 19.9651 18.378 19.9953L18.5 20V21.3333C18.5 21.3333 23.8333 20.5553 23.8333 16.5553ZM25.8333 15.4907C25.8333 14.5649 26.2011 13.677 26.8557 13.0224C27.5103 12.3678 28.3982 12 29.324 12H33.1667C34.0507 12 34.8986 12.3512 35.5237 12.9763C36.1488 13.6014 36.5 14.4493 36.5 15.3333C36.5 16.2174 36.1488 17.0652 35.5237 17.6904C34.8986 18.3155 34.0507 18.6667 33.1667 18.6667H31.8333V20.6667C31.8333 20.6667 25.8333 19.824 25.8333 15.4907Z" fill="#0055B8"/>
<path fill-rule="evenodd" clip-rule="evenodd" d="M24.5 31.03C24.5 29.912 23.2687 29.1013 21.83 28.6013C22.6649 28.2068 23.5766 28.0015 24.5 28C25.4234 28.0015 26.3351 28.2068 27.17 28.6013C25.732 29.1013 24.5 29.912 24.5 31.03Z" fill="#0055B8"/>
<path fill-rule="evenodd" clip-rule="evenodd" d="M24.5 31.03C24.5 30.4347 24.8493 29.926 25.3933 29.5053C25.4245 29.4815 25.4561 29.4582 25.488 29.4353C25.952 29.098 26.5413 28.8193 27.17 28.6013C26.5456 28.3069 25.8772 28.1173 25.1913 28.0387C24.7321 27.9871 24.2686 27.9871 23.8093 28.0387C23.1233 28.117 22.4547 28.3071 21.83 28.6013C22.4587 28.82 23.048 29.098 23.5127 29.4347C23.5447 29.458 23.5753 29.4813 23.606 29.5053C24.1507 29.9253 24.5 30.4347 24.5 31.03Z" fill="#0055B8"/>
</g>
<defs>
<clipPath id="clip0_0_74">
<rect width="48" height="48" fill="white" transform="translate(0.5)"/>
</clipPath>
</defs>
</svg>
