<svg width="48" height="48" viewBox="0 0 48 48" fill="none" xmlns="http://www.w3.org/2000/svg">
<g clip-path="url(#clip0_6_310)">
<rect width="48" height="48" rx="15" fill="#D6EBFF"/>
<path fill-rule="evenodd" clip-rule="evenodd" d="M17.2953 12H16.4714C15.816 12 15.1874 12.2568 14.7239 12.7139C14.2604 13.171 14 13.791 14 14.4374V33.9369C14 34.5834 14.2604 35.2034 14.7239 35.6605C15.1874 36.1176 15.816 36.3744 16.4714 36.3744H22.2431C22.2546 36.1891 22.2843 36.0006 22.332 35.8105L22.9499 33.3763C23.1805 32.463 23.659 31.6288 24.3339 30.9633L32.292 23.1147C32.7165 22.695 33.2188 22.3596 33.7715 22.1267V14.4374C33.7715 13.791 33.5111 13.171 33.0477 12.7139C32.5842 12.2568 31.9555 12 31.3001 12H30.4763H24.7096H17.2953ZM26.3572 15.9H18.1191C17.9006 15.9 17.691 15.9856 17.5365 16.138C17.382 16.2903 17.2953 16.497 17.2953 16.7125C17.2953 16.928 17.382 17.1346 17.5365 17.287C17.691 17.4394 17.9006 17.525 18.1191 17.525H26.3572C26.5757 17.525 26.7852 17.4394 26.9397 17.287C27.0942 17.1346 27.181 16.928 27.181 16.7125C27.181 16.497 27.0942 16.2903 26.9397 16.138C26.7852 15.9856 26.5757 15.9 26.3572 15.9ZM26.9397 22.1619C27.0942 22.0095 27.181 21.8028 27.181 21.5874C27.181 21.3719 27.0942 21.1652 26.9397 21.0128C26.7852 20.8605 26.5757 20.7749 26.3572 20.7749H18.1191C17.9006 20.7749 17.691 20.8605 17.5365 21.0128C17.382 21.1652 17.2953 21.3719 17.2953 21.5874C17.2953 21.8028 17.382 22.0095 17.5365 22.1619C17.691 22.3142 17.9006 22.3998 18.1191 22.3998H26.3572C26.5757 22.3998 26.7852 22.3142 26.9397 22.1619ZM21.4143 25.6497H18.1191C17.9006 25.6497 17.691 25.7353 17.5365 25.8877C17.382 26.0401 17.2953 26.2467 17.2953 26.4622C17.2953 26.6777 17.382 26.8844 17.5365 27.0367C17.691 27.1891 17.9006 27.2747 18.1191 27.2747H21.4143C21.6328 27.2747 21.8423 27.1891 21.9968 27.0367C22.1513 26.8844 22.2381 26.6777 22.2381 26.4622C22.2381 26.2467 22.1513 26.0401 21.9968 25.8877C21.8423 25.7353 21.6328 25.6497 21.4143 25.6497Z" fill="#0055B8"/>
<path fill-rule="evenodd" clip-rule="evenodd" d="M25.5004 32.1137L33.4585 24.2652H33.4568C34.036 23.7025 34.8173 23.3884 35.6303 23.3914C36.4433 23.3943 37.2222 23.7141 37.7972 24.2809C38.3722 24.8478 38.6967 25.6159 38.7 26.4177C38.7033 27.2195 38.3851 27.9901 37.8148 28.5616L29.8568 36.4101C29.3933 36.8677 28.8124 37.1924 28.1762 37.3493L25.708 37.9571C25.4626 38.0174 25.2056 38.0141 24.9618 37.9475C24.7181 37.8809 24.496 37.7532 24.317 37.5769C24.1381 37.4006 24.0085 37.1816 23.9407 36.9413C23.8729 36.701 23.8693 36.4475 23.9302 36.2054L24.5481 33.7712C24.7075 33.1438 25.0366 32.5709 25.5004 32.1137Z" fill="#0055B8"/>
</g>
<defs>
<clipPath id="clip0_6_310">
<rect width="48" height="48" fill="white"/>
</clipPath>
</defs>
</svg>
