<svg width="48" height="48" viewBox="0 0 48 48" fill="none" xmlns="http://www.w3.org/2000/svg">
<g clip-path="url(#clip0_6_648)">
<rect width="48" height="48" rx="15" fill="#D6EBFF"/>
<path d="M36 32.25C36 34.1175 34.4762 36 30.6667 36C26.8571 36 25.3333 34.125 25.3333 32.25C25.3333 31.6533 25.5741 31.081 26.0028 30.659C26.4315 30.2371 27.0128 30 27.619 30H33.7143C34.3205 30 34.9019 30.2371 35.3305 30.659C35.7592 31.081 36 31.6533 36 32.25Z" fill="#0055B8"/>
<path d="M22.6667 32.25C22.6667 34.1175 21.1429 36 17.3333 36C13.5238 36 12 34.125 12 32.25C12 31.6533 12.2408 31.081 12.6695 30.659C13.0981 30.2371 13.6795 30 14.2857 30H20.381C20.9872 30 21.5685 30.2371 21.9972 30.659C22.4259 31.081 22.6667 31.6533 22.6667 32.25Z" fill="#0055B8"/>
<path d="M20 26C20 27.4733 18.8067 28.6667 17.3333 28.6667C15.86 28.6667 14.6667 27.4733 14.6667 26C14.6667 24.5267 15.86 23.3333 17.3333 23.3333C18.8067 23.3333 20 24.5267 20 26Z" fill="#0055B8"/>
<path d="M33.3333 26C33.3333 27.4733 32.14 28.6667 30.6667 28.6667C29.1933 28.6667 28 27.4733 28 26C28 24.5267 29.1933 23.3333 30.6667 23.3333C32.14 23.3333 33.3333 24.5267 33.3333 26Z" fill="#0055B8"/>
<path d="M26.6667 24C26.6667 25.4733 25.4733 26.6667 24 26.6667C22.5267 26.6667 21.3333 25.4733 21.3333 24C21.3333 22.5267 22.5267 21.3333 24 21.3333C25.4733 21.3333 26.6667 22.5267 26.6667 24Z" fill="#0055B8"/>
<path d="M23.3333 16.5553C23.3333 15.7008 22.9939 14.8813 22.3896 14.277C21.7854 13.6728 20.9659 13.3333 20.1113 13.3333H17.9987C17.1245 13.3319 16.2848 13.6741 15.6606 14.2861C15.0364 14.8981 14.6777 15.731 14.6618 16.605C14.646 17.479 14.9743 18.3243 15.5759 18.9585C16.1776 19.5927 17.0043 19.9651 17.878 19.9953L18 20V21.3333C18 21.3333 23.3333 20.5553 23.3333 16.5553ZM25.3333 15.4907C25.3333 14.5649 25.7011 13.677 26.3557 13.0224C27.0103 12.3678 27.8982 12 28.824 12H32.6667C33.5507 12 34.3986 12.3512 35.0237 12.9763C35.6488 13.6014 36 14.4493 36 15.3333C36 16.2174 35.6488 17.0652 35.0237 17.6904C34.3986 18.3155 33.5507 18.6667 32.6667 18.6667H31.3333V20.6667C31.3333 20.6667 25.3333 19.824 25.3333 15.4907Z" fill="#0055B8"/>
<path fill-rule="evenodd" clip-rule="evenodd" d="M24 31.03C24 29.912 22.7687 29.1013 21.33 28.6013C22.1649 28.2068 23.0766 28.0015 24 28C24.9234 28.0015 25.8351 28.2068 26.67 28.6013C25.232 29.1013 24 29.912 24 31.03Z" fill="#0055B8"/>
<path fill-rule="evenodd" clip-rule="evenodd" d="M24 31.03C24 30.4347 24.3493 29.926 24.8933 29.5053C24.9245 29.4815 24.9561 29.4582 24.988 29.4353C25.452 29.098 26.0413 28.8193 26.67 28.6013C26.0456 28.3069 25.3772 28.1173 24.6913 28.0387C24.2321 27.9871 23.7686 27.9871 23.3093 28.0387C22.6233 28.117 21.9547 28.3071 21.33 28.6013C21.9587 28.82 22.548 29.098 23.0127 29.4347C23.0447 29.458 23.0753 29.4813 23.106 29.5053C23.6507 29.9253 24 30.4347 24 31.03Z" fill="#0055B8"/>
</g>
<defs>
<clipPath id="clip0_6_648">
<rect width="48" height="48" fill="white"/>
</clipPath>
</defs>
</svg>
