<svg width="48" height="48" viewBox="0 0 48 48" fill="none" xmlns="http://www.w3.org/2000/svg">
<g clip-path="url(#clip0_12159_674669)">
<rect width="48" height="48" rx="15" fill="#FFE784"/>
<path d="M22.1667 9C21.1541 9 20.3333 9.82081 20.3333 10.8333C20.3333 11.8459 21.1541 12.6667 22.1667 12.6667H25.8333C26.8459 12.6667 27.6667 11.8459 27.6667 10.8333C27.6667 9.82081 26.8459 9 25.8333 9H22.1667Z" fill="#0055B8"/>
<path fill-rule="evenodd" clip-rule="evenodd" d="M13 14.5C13 12.475 14.6416 10.8333 16.6667 10.8333C16.6667 13.8709 19.1291 16.3333 22.1667 16.3333H25.8333C28.8709 16.3333 31.3333 13.8709 31.3333 10.8333C33.3584 10.8333 35 12.475 35 14.5V34.6667C35 36.6917 33.3584 38.3333 31.3333 38.3333H16.6667C14.6416 38.3333 13 36.6917 13 34.6667V14.5ZM18.5 21.8333C17.4875 21.8333 16.6667 22.6541 16.6667 23.6667C16.6667 24.6792 17.4875 25.5 18.5 25.5H18.5183C19.5309 25.5 20.3517 24.6792 20.3517 23.6667C20.3517 22.6541 19.5309 21.8333 18.5183 21.8333H18.5ZM24 21.8333C22.9875 21.8333 22.1667 22.6541 22.1667 23.6667C22.1667 24.6792 22.9875 25.5 24 25.5H29.5C30.5125 25.5 31.3333 24.6792 31.3333 23.6667C31.3333 22.6541 30.5125 21.8333 29.5 21.8333H24ZM18.5 29.1667C17.4875 29.1667 16.6667 29.9875 16.6667 31C16.6667 32.0125 17.4875 32.8333 18.5 32.8333H18.5183C19.5309 32.8333 20.3517 32.0125 20.3517 31C20.3517 29.9875 19.5309 29.1667 18.5183 29.1667H18.5ZM24 29.1667C22.9875 29.1667 22.1667 29.9875 22.1667 31C22.1667 32.0125 22.9875 32.8333 24 32.8333H29.5C30.5125 32.8333 31.3333 32.0125 31.3333 31C31.3333 29.9875 30.5125 29.1667 29.5 29.1667H24Z" fill="#0055B8"/>
</g>
<defs>
<clipPath id="clip0_12159_674669">
<rect width="48" height="48" fill="white"/>
</clipPath>
</defs>
</svg>
