<svg width="49" height="48" viewBox="0 0 49 48" fill="none" xmlns="http://www.w3.org/2000/svg">
<g clip-path="url(#clip0_18857_156874)">
<rect x="0.666016" width="48" height="48" rx="15" fill="#FFE784"/>
<path d="M24.6629 27.4922C19.9186 27.4922 15.8662 28.2402 15.8662 31.2322C15.8662 34.2253 19.8933 34.9997 24.6629 34.9997C29.4072 34.9997 33.4596 34.2528 33.4596 31.2597C33.4596 28.2666 29.4336 27.4922 24.6629 27.4922Z" fill="#0055B8"/>
<path d="M24.663 24.6424C27.8948 24.6424 30.4842 22.0519 30.4842 18.8212C30.4842 15.5905 27.8948 13 24.663 13C21.4323 13 18.8418 15.5905 18.8418 18.8212C18.8418 22.0519 21.4323 24.6424 24.663 24.6424Z" fill="#0055B8"/>
</g>
<defs>
<clipPath id="clip0_18857_156874">
<rect width="48" height="48" fill="white" transform="translate(0.666016)"/>
</clipPath>
</defs>
</svg>
