<svg width="48" height="48" viewBox="0 0 48 48" fill="none" xmlns="http://www.w3.org/2000/svg">
<rect width="48" height="48" rx="15" fill="#FFE784"/>
<path d="M26 11.2V18.4C26 19.0365 26.2529 19.647 26.7029 20.0971C27.153 20.5471 27.7635 20.8 28.4 20.8H35.6V34.4C35.6 35.0365 35.3471 35.647 34.8971 36.0971C34.447 36.5471 33.8365 36.8 33.2 36.8H23.8112C24.2112 36.0432 24.4 35.2192 24.4 34.4C24.4001 33.4019 24.0271 32.4398 23.3542 31.7027C22.6813 30.9656 21.7572 30.5066 20.7632 30.416C21.4317 29.676 21.8532 28.7462 21.969 27.7556C22.0848 26.7651 21.8892 25.7631 21.4094 24.8889C20.9296 24.0146 20.1895 23.3115 19.2917 22.8772C18.394 22.443 17.3833 22.2991 16.4 22.4656V13.6C16.4 12.9635 16.6529 12.353 17.1029 11.9029C17.553 11.4529 18.1635 11.2 18.8 11.2H26ZM27.6 11.6V18.4C27.6 18.6122 27.6843 18.8157 27.8343 18.9657C27.9843 19.1157 28.1878 19.2 28.4 19.2H35.2L27.6 11.6ZM20.4 27.2C20.4 28.0487 20.0629 28.8626 19.4627 29.4627C18.8626 30.0629 18.0487 30.4 17.2 30.4C16.3513 30.4 15.5374 30.0629 14.9373 29.4627C14.3371 28.8626 14 28.0487 14 27.2C14 26.3513 14.3371 25.5374 14.9373 24.9373C15.5374 24.3371 16.3513 24 17.2 24C18.0487 24 18.8626 24.3371 19.4627 24.9373C20.0629 25.5374 20.4 26.3513 20.4 27.2ZM22.8 34.4C22.8 36.392 21.2 38.4 17.2 38.4C13.2 38.4 11.6 36.4 11.6 34.4C11.6 33.7635 11.8529 33.153 12.3029 32.7029C12.753 32.2529 13.3635 32 14 32H20.4C21.0365 32 21.647 32.2529 22.0971 32.7029C22.5471 33.153 22.8 33.7635 22.8 34.4Z" fill="#0055B8"/>
</svg>
