<svg width="48" height="48" viewBox="0 0 48 48" fill="none" xmlns="http://www.w3.org/2000/svg">
<g clip-path="url(#clip0_6238_24653)">
<rect width="48" height="48" rx="15" fill="#FFE784"/>
<path d="M36.4118 27.0588C36.4118 27.8701 36.0895 28.6481 35.5159 29.2217C34.9422 29.7954 34.1642 30.1176 33.3529 30.1176C32.5417 30.1176 31.7637 29.7954 31.19 29.2217C30.6164 28.6481 30.2941 27.8701 30.2941 27.0588C30.2941 26.2476 30.6164 25.4696 31.19 24.8959C31.7637 24.3223 32.5417 24 33.3529 24C34.1642 24 34.9422 24.3223 35.5159 24.8959C36.0895 25.4696 36.4118 26.2476 36.4118 27.0588ZM38.7059 33.9412C38.7059 35.8453 37.1765 37.7647 33.3529 37.7647C29.5294 37.7647 28 35.8529 28 33.9412C28 33.3327 28.2417 32.7492 28.6719 32.319C29.1022 31.8888 29.6857 31.6471 30.2941 31.6471H36.4118C37.0202 31.6471 37.6037 31.8888 38.0339 32.319C38.4642 32.7492 38.7059 33.3327 38.7059 33.9412Z" fill="#0055B8"/>
<path fill-rule="evenodd" clip-rule="evenodd" d="M14.6875 11.5625C14.6875 10.6996 15.3871 10 16.25 10C17.1129 10 17.8125 10.6996 17.8125 11.5625V13.125H27.1875V11.5625C27.1875 10.6996 27.8871 10 28.75 10C29.6129 10 30.3125 10.6996 30.3125 11.5625V13.125H31.875C33.6009 13.125 35 14.5241 35 16.25V22.2756C34.4749 22.0948 33.9188 22 33.3529 22C32.0113 22 30.7245 22.533 29.7758 23.4817C28.8271 24.4304 28.2941 25.7171 28.2941 27.0588C28.2941 28.0441 28.5815 28.9997 29.1099 29.8136C28.4161 30.0126 27.7772 30.3853 27.2577 30.9048C26.4524 31.7101 26 32.8023 26 33.9412C26 34.2949 26.0338 34.6496 26.1028 35H13.125C11.3991 35 10 33.6009 10 31.875V16.25C10 14.5241 11.3991 13.125 13.125 13.125H14.6875V11.5625ZM14.6875 19.375C14.6875 18.5121 15.3871 17.8125 16.25 17.8125H28.75C29.6129 17.8125 30.3125 18.5121 30.3125 19.375C30.3125 20.2379 29.6129 20.9375 28.75 20.9375H16.25C15.3871 20.9375 14.6875 20.2379 14.6875 19.375Z" fill="#0055B8"/>
</g>
<defs>
<clipPath id="clip0_6238_24653">
<rect width="48" height="48" fill="white"/>
</clipPath>
</defs>
</svg>
