<svg width="48" height="48" viewBox="0 0 48 48" fill="none" xmlns="http://www.w3.org/2000/svg">
<g clip-path="url(#clip0_6_316)">
<rect width="48" height="48" rx="15" fill="#D6EBFF"/>
<path d="M11.25 10.5C10.7186 10.4992 10.2041 10.6865 9.79765 11.0287C9.39114 11.3709 9.11886 11.8459 9.02903 12.3696C8.9392 12.8933 9.03762 13.4319 9.30685 13.89C9.57608 14.3481 9.99875 14.6962 10.5 14.8725H22.875V30V33.75H19.5C19.2017 33.75 18.9155 33.8685 18.7045 34.0795C18.4936 34.2905 18.375 34.5766 18.375 34.875C18.375 35.1734 18.4936 35.4595 18.7045 35.6705C18.9155 35.8815 19.2017 36 19.5 36H28.5C28.7984 36 29.0845 35.8815 29.2955 35.6705C29.5065 35.4595 29.625 35.1734 29.625 34.875C29.625 34.5766 29.5065 34.2905 29.2955 34.0795C29.0845 33.8685 28.7984 33.75 28.5 33.75H25.125V30V14.8725H37.5C38.0013 14.6962 38.4239 14.3481 38.6932 13.89C38.9624 13.4319 39.0608 12.8933 38.971 12.3696C38.8811 11.8459 38.6089 11.3709 38.2024 11.0287C37.7959 10.6865 37.2814 10.4992 36.75 10.5H11.25Z" fill="#0055B8"/>
<path fill-rule="evenodd" clip-rule="evenodd" d="M10.5441 13.5H37.5L37.5 22.6433C37.2176 22.1975 36.8508 21.8178 36.4227 21.5277C35.9946 21.2377 35.5143 21.0436 35.0118 20.9576C34.5092 20.8716 33.9953 20.8955 33.5019 21.0278C33.0085 21.16 32.5463 21.3979 32.1441 21.7265C31.742 22.0551 31.4085 22.4674 31.1644 22.9376C30.9204 23.4078 30.771 23.926 30.7257 24.4596C30.6803 24.9933 30.7399 25.5311 30.9008 26.0395C31.0617 26.5478 31.3204 27.0158 31.6608 27.4143C30.9998 27.4775 30.3758 27.7632 29.8812 28.2289C29.3866 28.6947 29.0477 29.3157 28.9147 30H14.25C13.2671 30 12.3245 29.5891 11.6295 28.8577C10.9345 28.1263 10.5441 27.1343 10.5441 26.1L10.5441 13.5ZM15.0883 22.7V17.8C15.0883 17.4552 15.2184 17.1246 15.4501 16.8808C15.6817 16.637 15.9959 16.5 16.3236 16.5H21.2647C21.5924 16.5 21.9066 16.637 22.1382 16.8808C22.3699 17.1246 22.5 17.4552 22.5 17.8V22.7C22.5 23.0448 22.3699 23.3754 22.1382 23.6192C21.9066 23.863 21.5924 24 21.2647 24H16.3236C15.9959 24 15.6817 23.863 15.4501 23.6192C15.2184 23.3754 15.0883 23.0448 15.0883 22.7Z" fill="#0055B8"/>
<path fill-rule="evenodd" clip-rule="evenodd" d="M36.1588 26.6385C36.6221 26.1509 36.8824 25.4896 36.8824 24.8C36.8824 24.1104 36.6221 23.4491 36.1588 22.9615C35.6954 22.4739 35.067 22.2 34.4118 22.2C33.7566 22.2 33.1282 22.4739 32.6648 22.9615C32.2015 23.4491 31.9412 24.1104 31.9412 24.8C31.9412 25.4896 32.2015 26.1509 32.6648 26.6385C33.1282 27.1261 33.7566 27.4 34.4118 27.4C35.067 27.4 35.6954 27.1261 36.1588 26.6385ZM34.4118 33.9C37.5 33.9 38.7353 32.2685 38.7353 30.65C38.7353 30.1328 38.5401 29.6368 38.1926 29.2711C37.8451 28.9054 37.3738 28.7 36.8824 28.7H31.9412C31.4498 28.7 30.9785 28.9054 30.631 29.2711C30.2835 29.6368 30.0883 30.1328 30.0883 30.65C30.0883 32.275 31.3236 33.9 34.4118 33.9Z" fill="#0055B8"/>
</g>
<defs>
<clipPath id="clip0_6_316">
<rect width="48" height="48" fill="white"/>
</clipPath>
</defs>
</svg>
