<svg width="56" height="56" viewBox="0 0 56 56" fill="none" xmlns="http://www.w3.org/2000/svg">
<path d="M30.7826 31.4376L29.3907 32.3383C27.5075 33.5664 25.2149 33.3208 24.1505 31.6014C23.0042 29.882 23.823 27.7531 25.7062 26.4431L27.4256 25.2968C29.0632 24.1505 29.882 23.168 29.882 21.7761C29.882 20.3023 28.7357 19.156 27.18 19.156C24.1505 19.156 23.4955 22.1036 20.6298 22.1036C18.3372 22.1036 17.1909 20.5479 17.1909 18.7466C17.1909 15.2258 21.9399 11.4595 27.5075 11.4595C34.3853 11.4595 37.9879 16.2084 37.9879 21.2029C37.9879 25.133 36.2684 27.9169 30.7826 31.4376ZM32.7477 40.4442C32.7477 43.228 30.4551 45.4387 27.6713 45.4387C24.8875 45.4387 22.6767 43.228 22.6767 40.4442C22.6767 37.6603 24.8875 35.3678 27.6713 35.3678C30.4551 35.3678 32.7477 37.6603 32.7477 40.4442Z" fill="#0055B8"/>
<path d="M48.0577 17.6818C46.7477 17.6818 45.4376 17.3543 44.3732 16.7812L42.8176 17.0268L39.5425 17.5181L41.2619 13.4242C40.6887 12.2779 40.4431 11.0497 40.4431 9.73968C40.4431 5.15453 43.8001 1.63379 48.2215 1.63379C52.6429 1.63379 55.9999 5.07265 55.9999 9.73968C55.8361 14.243 52.4791 17.6818 48.0577 17.6818Z" fill="#0055B8"/>
<path d="M53.9534 48.1401L51.1695 41.4261C53.1346 37.496 54.1172 33.0746 54.1172 28.5713C54.1172 25.46 53.7078 22.5124 52.8071 19.7285C51.4971 20.3017 50.0233 20.6292 48.5495 20.6292C48.4676 20.6292 48.4676 20.6292 48.3857 20.6292C49.2045 23.0855 49.6139 25.7875 49.6139 28.6532C49.6139 32.829 48.6313 36.841 46.6663 40.3617C46.3388 41.0167 46.3388 41.7536 46.5844 42.3268C46.6663 42.4087 46.6663 42.4905 46.6663 42.4905L49.6139 49.532L46.5026 49.1226C46.4207 49.1226 46.3388 49.1226 46.2569 49.1226L40.1161 48.3038C39.6248 48.222 39.1335 48.3038 38.6423 48.6314C35.2034 50.6783 31.437 51.6608 27.3432 51.6608C14.734 51.6608 5.23618 41.7536 5.23618 28.5713C5.23618 15.3071 14.734 5.23618 27.3432 5.23618C31.0277 5.23618 34.5484 6.13684 37.496 7.69251C37.6598 6.13684 38.2329 4.66304 38.9698 3.353C35.5309 1.63356 31.5189 0.73291 27.3432 0.73291C12.1958 0.73291 0.73291 12.6871 0.73291 28.4894C0.73291 44.21 12.1958 56.0004 27.3432 56.0004C31.9283 56.0004 36.3497 54.8541 40.198 52.7252L45.8475 53.4621C45.9294 53.4621 45.9294 53.4621 46.0113 53.4621L48.9589 53.8715C50.5964 54.1172 52.234 53.4621 53.2165 52.1521C54.2809 51.0877 54.5266 49.532 53.9534 48.1401Z" fill="#FFD600"/>
</svg>
