<svg width="45" height="47" viewBox="0 0 45 47" fill="none" xmlns="http://www.w3.org/2000/svg">
<path d="M30.5573 16.0442C32.1293 16.9689 32.1293 19.1882 30.5573 20.113L25.1476 23.257L19.738 26.4011C18.166 27.3258 16.2241 26.1699 16.2241 24.3667V18.0786V11.7905C16.2241 9.98725 18.166 8.87759 19.738 9.75607L25.1476 12.9001L30.5573 16.0442Z" fill="#0055B8"/>
<path d="M3.78656 5.36311C5.26754 5.36311 6.46814 4.16254 6.46814 2.68156C6.46814 1.20057 5.26754 0 3.78656 0C2.30558 0 1.10498 1.20057 1.10498 2.68156C1.10498 4.16254 2.30558 5.36311 3.78656 5.36311Z" fill="#A958FF"/>
<path d="M22.6973 43.6463C20.1081 43.6463 17.6576 43.3226 15.392 42.6291C13.9587 42.213 13.1727 40.7334 13.5888 39.3001C14.0049 37.8668 15.4845 37.0807 16.9178 37.4969C18.721 38.0055 20.6629 38.2829 22.7435 38.2829C32.7768 38.2829 39.1573 32.7346 39.1573 22.9788C39.1573 21.4992 40.3595 20.2971 41.8391 20.2971C43.3186 20.2971 44.5207 21.4992 44.5207 22.9788C44.4745 35.7861 35.7821 43.6463 22.6973 43.6463ZM7.76305 37.4969C7.02327 37.4969 6.28348 37.1732 5.72865 36.5721C2.44589 32.7808 0.688965 27.8335 0.688965 22.1927V10.4488C0.688965 8.96923 1.89107 7.76709 3.37062 7.76709C4.85018 7.76709 6.05234 8.96923 6.05234 10.4488V22.1927C6.05234 26.5389 7.34695 30.284 9.75122 33.0582C10.7222 34.1679 10.6297 35.8786 9.52004 36.8496C9.01144 37.3119 8.36412 37.4969 7.76305 37.4969Z" fill="#A958FF"/>
<path d="M6.51362 46.8361C5.95882 46.8361 5.40401 46.6512 4.89544 46.3276C4.10947 45.7265 3.69334 44.8018 3.83204 43.8309L5.08039 34.538C5.26532 33.0585 6.65233 32.0413 8.08558 32.2263C9.56506 32.4112 10.5822 33.752 10.3973 35.2315L9.7962 39.7161L14.6507 37.4969C15.9915 36.8959 17.5634 37.4969 18.2107 38.8377C18.8118 40.1785 18.2108 41.7504 16.87 42.3977L7.62324 46.605C7.25337 46.7899 6.88349 46.8361 6.51362 46.8361Z" fill="#A958FF"/>
<path d="M41.9306 5.36311C43.4116 5.36311 44.6122 4.16254 44.6122 2.68156C44.6122 1.20057 43.4116 0 41.9306 0C40.4496 0 39.249 1.20057 39.249 2.68156C39.249 4.16254 40.4496 5.36311 41.9306 5.36311Z" fill="#0055B8"/>
<path d="M41.9306 18.0313C40.4511 18.0313 39.249 16.8292 39.249 15.3497V10.5414C39.249 9.06194 40.4511 7.85986 41.9306 7.85986C43.4101 7.85986 44.6122 9.06194 44.6122 10.5414V15.396C44.5659 16.8754 43.4101 18.0313 41.9306 18.0313Z" fill="#0055B8"/>
</svg>
