<svg width="53" height="52" viewBox="0 0 53 52" fill="none" xmlns="http://www.w3.org/2000/svg">
<path d="M26.4317 52.0001C22.7175 52.0001 19.0033 51.1631 15.4983 49.5414C9.27311 46.6119 4.565 41.4853 2.26324 34.9985C0.69386 30.6565 0.327671 26.0007 1.21699 21.5018C1.53086 19.9324 3.04793 18.8862 4.61731 19.2001C6.1867 19.5139 7.2329 21.031 6.91902 22.6004C6.23896 26.1053 6.55289 29.7149 7.75608 33.0629C9.53471 38.0326 13.1966 42.0607 18.0094 44.3102C22.8221 46.5596 28.2103 46.8212 33.2323 45.0425C35.6387 44.2055 37.7836 42.8977 39.6668 41.2237C41.2362 39.8636 42.544 38.2419 43.5903 36.4633C44.8981 34.2138 45.7874 31.7551 46.1536 29.1918C46.6244 25.9484 46.3105 22.6527 45.212 19.5663C43.6949 15.3289 40.87 11.824 37.0512 9.4699C35.6911 8.6329 35.2725 6.85426 36.1095 5.49413C36.9466 4.134 38.7252 3.7155 40.0853 4.5525C45.0027 7.63895 48.6646 12.1378 50.6525 17.6307C52.065 21.6065 52.5357 25.8961 51.908 30.0811C51.4372 33.3768 50.2863 36.5156 48.6123 39.4451C47.2522 41.7468 45.5258 43.8394 43.5379 45.5657C41.0792 47.7105 38.3067 49.3845 35.2203 50.5354C32.2907 51.477 29.3612 52.0001 26.4317 52.0001Z" fill="#24C11B"/>
<path d="M26.4317 7.01093C28.1652 7.01093 29.5705 5.60565 29.5705 3.87216C29.5705 2.13867 28.1652 0.733398 26.4317 0.733398C24.6982 0.733398 23.293 2.13867 23.293 3.87216C23.293 5.60565 24.6982 7.01093 26.4317 7.01093Z" fill="#24C11B"/>
<path d="M14.7655 9.36546C15.9789 9.36546 16.9626 8.38177 16.9626 7.16833C16.9626 5.95488 15.9789 4.97119 14.7655 4.97119C13.552 4.97119 12.5684 5.95488 12.5684 7.16833C12.5684 8.38177 13.552 9.36546 14.7655 9.36546Z" fill="#24C11B"/>
<path d="M6.81541 15.3291C7.45102 15.3291 7.96626 14.8138 7.96626 14.1782C7.96626 13.5426 7.45102 13.0273 6.81541 13.0273C6.17979 13.0273 5.66455 13.5426 5.66455 14.1782C5.66455 14.8138 6.17979 15.3291 6.81541 15.3291Z" fill="#24C11B"/>
<path d="M24.1298 36.2539C23.6067 36.2016 23.1359 35.9924 22.7174 35.6262L13.9812 28.3024C12.8303 27.3085 12.6734 25.5298 13.6673 24.3789C14.6612 23.1757 16.4399 23.0711 17.5907 24.0651L24.2345 29.6625L35.0109 17.4737C36.0049 16.3228 37.7835 16.2182 38.9344 17.2121C40.0852 18.206 40.1899 19.9847 39.1959 21.1356L26.6409 35.3123C25.9608 36.0447 25.0192 36.3586 24.1298 36.2539Z" fill="#0055B8"/>
</svg>
