<svg width="56" height="56" viewBox="0 0 56 56" fill="none" xmlns="http://www.w3.org/2000/svg">
<path d="M21.3292 42.635C22.1372 43.2203 22.9475 43.4507 23.5719 43.5863C25.2312 43.9471 27.068 43.5837 28.6191 42.5306C29.1084 42.1985 29.567 41.7988 29.9778 41.3285L43.6784 25.622C44.3563 24.9852 45.0082 24.0861 45.9192 23.1879L47.3456 21.6599L48.9223 19.8828C51.8528 16.5828 50.1209 11.5004 45.8282 10.7775L17.9355 6.09403C13.0802 5.28185 8.82499 9.87873 10.3262 14.3079L14.5835 26.7171L14.5523 26.7383L15.6898 29.7357L18.1085 37.0171C18.1085 37.0171 18.3591 37.7895 18.781 38.7694L18.7914 38.7623C19.1627 39.5557 19.8238 40.9328 20.4162 41.7381L20.4058 41.7452C20.6935 42.1242 21.0127 42.4376 21.3292 42.635Z" fill="#E1F4FE"/>
<path d="M27.9785 46.2758V38.1945L26.8519 37.2916C24.5891 35.4782 21.5014 35.0845 18.8559 36.2719C16.5675 37.299 14.102 37.8736 11.5954 37.964L9.15284 38.0521C6.94929 38.1315 5.20396 39.9409 5.20396 42.1459V46.2758H27.9785Z" fill="#90D5FD"/>
<path d="M27.9793 46.2757V38.1944L29.106 37.2916C31.3688 35.4782 34.4564 35.0844 37.102 36.2718C39.3903 37.299 41.8558 37.8736 44.3625 37.964L46.805 38.052C49.0086 38.1315 50.7539 39.9409 50.7539 42.1459V46.2757H27.9793Z" fill="#90D5FD"/>
<path fill-rule="evenodd" clip-rule="evenodd" d="M5.75499 42.0515C4.23345 42.0515 3 43.2849 3 44.8065C3 46.328 4.23345 47.5615 5.75499 47.5615H23.5712C23.8111 48.1372 24.1615 48.6604 24.6025 49.1015C25.046 49.5449 25.5724 49.8967 26.1518 50.1367C26.7311 50.3766 27.3521 50.5002 27.9792 50.5002V45.7248H27.6651C26.9087 43.5848 24.8677 42.0515 22.4686 42.0515H5.75499Z" fill="#0055B8"/>
<path fill-rule="evenodd" clip-rule="evenodd" d="M50.2019 42.0515C51.7235 42.0515 52.9569 43.2849 52.9569 44.8065C52.9569 46.328 51.7235 47.5615 50.2019 47.5615H32.3861C32.1462 48.1372 31.7958 48.6604 31.3547 49.1015C30.9113 49.5449 30.3849 49.8967 29.8055 50.1367C29.2261 50.3766 28.6052 50.5002 27.9781 50.5002V45.7248H28.2919C29.0482 43.5848 31.0892 42.0515 33.4883 42.0515H50.2019Z" fill="#0055B8"/>
<path d="M7.87695 24.7868C9.19529 24.7868 10.2646 25.9384 10.2646 27.3581C10.2646 25.9384 11.3339 24.7868 12.6523 24.7868C11.3339 24.7868 10.2646 23.6352 10.2646 22.2155C10.2646 23.6352 9.19529 24.7868 7.87695 24.7868Z" fill="#E1F4FE"/>
<path d="M4.83728 32.1334C7.06661 32.1334 8.87793 33.9447 8.87793 36.174C8.87793 33.9447 10.6893 32.1334 12.9186 32.1334C10.6893 32.1334 8.87793 30.3221 8.87793 28.0927C8.87793 30.3221 7.06661 32.1334 4.83728 32.1334Z" fill="#E1F4FE"/>
<path d="M42.6714 33.2354C44.9007 33.2354 46.7121 35.0467 46.7121 37.276C46.7121 35.0467 48.5234 33.2354 50.7527 33.2354C48.5234 33.2354 46.7121 31.4241 46.7121 29.1947C46.7121 31.4241 44.9007 33.2354 42.6714 33.2354Z" fill="#E1F4FE"/>
<path d="M36.7352 29.2585L31.1111 21.525V14H31.8889C32.3185 14 32.6667 13.6518 32.6667 13.2222C32.6667 12.7927 32.3185 12.4445 31.8889 12.4445H24.1111C23.6816 12.4445 23.3334 12.7927 23.3334 13.2222C23.3334 13.6518 23.6816 14 24.1111 14H24.8889V21.525L19.2648 29.2585C18.9256 29.7247 18.7219 30.2757 18.6764 30.8505C18.6309 31.4253 18.7453 32.0015 19.007 32.5153C19.2686 33.0291 19.6673 33.4605 20.159 33.7617C20.6506 34.063 21.216 34.2224 21.7926 34.2222H34.2067C34.7833 34.2224 35.3487 34.063 35.8403 33.7617C36.3319 33.4605 36.7306 33.0291 36.9923 32.5153C37.254 32.0015 37.3684 31.4253 37.3229 30.8505C37.2773 30.2757 37.0737 29.7247 36.7345 29.2585H36.7352ZM26.4445 22.0306V14H29.5556V22.0306L31.6346 24.8889H24.3655L26.4445 22.0306ZM34.2075 32.6667H21.7934C21.5039 32.6664 21.2201 32.5861 20.9733 32.4347C20.7266 32.2833 20.5265 32.0666 20.3951 31.8087C20.2637 31.5507 20.2061 31.2614 20.2287 30.9728C20.2514 30.6842 20.3533 30.4075 20.5232 30.1731L23.2346 26.4445H32.7655L35.4776 30.1731C35.6476 30.4075 35.7495 30.6842 35.7721 30.9728C35.7947 31.2614 35.7371 31.5507 35.6057 31.8087C35.4743 32.0666 35.2742 32.2833 35.0275 32.4347C34.7807 32.5861 34.497 32.6664 34.2075 32.6667Z" fill="#2BAFFC"/>
<path d="M27.8622 10.1111C28.6454 10.1111 29.28 9.48532 29.28 8.71385C29.28 7.94307 28.6454 7.3173 27.8622 7.3173C27.0787 7.3173 26.4445 7.94307 26.4445 8.71385C26.4445 9.48532 27.0787 10.1111 27.8622 10.1111ZM32.4921 8.03202C33.8772 8.03202 35 6.93032 35 5.57157C35 4.21282 33.8775 3.11111 32.4921 3.11111C31.1074 3.11111 29.9842 4.21282 29.9842 5.57157C29.9842 6.93032 31.1074 8.03202 32.4921 8.03202ZM32.4811 4.50766C33.0731 4.50766 33.5545 4.98007 33.5545 5.56104C33.5545 6.14166 33.0731 6.61442 32.4811 6.61442C31.8891 6.61442 31.4077 6.14166 31.4077 5.56104C31.408 4.98007 31.8891 4.50766 32.4811 4.50766Z" fill="#2BAFFC"/>
</svg>
