<svg width="56" height="56" viewBox="0 0 56 56" fill="none" xmlns="http://www.w3.org/2000/svg">
<path d="M7.05371 20.4838C8.18731 20.4838 9.10679 21.474 9.10679 22.6948C9.10679 21.474 10.0263 20.4838 11.1599 20.4838C10.0263 20.4838 9.10679 19.4936 9.10679 18.2728C9.10679 19.4936 8.18731 20.4838 7.05371 20.4838Z" fill="#E6F5EE"/>
<path d="M4.57959 26.801C6.49652 26.801 8.05403 28.3585 8.05403 30.2754C8.05403 28.3585 9.61154 26.801 11.5285 26.801C9.61154 26.801 8.05403 25.2435 8.05403 23.3265C8.05403 25.2435 6.49652 26.801 4.57959 26.801Z" fill="#E6F5EE"/>
<path d="M45.5 32.7244C47.4169 32.7244 48.9744 34.282 48.9744 36.1989C48.9744 34.282 50.532 32.7244 52.4489 32.7244C50.532 32.7244 48.9744 31.1669 48.9744 29.25C48.9744 31.1669 47.4169 32.7244 45.5 32.7244Z" fill="#E6F5EE"/>
<path d="M37.1123 27.7486C39.0292 27.7486 40.5867 29.3061 40.5867 31.2231C40.5867 29.3061 42.1443 27.7486 44.0612 27.7486C42.1443 27.7486 40.5867 26.1911 40.5867 24.2742C40.5867 26.1911 39.0292 27.7486 37.1123 27.7486Z" fill="#BBF7DE"/>
<path d="M22.3286 42.635C23.1366 43.2203 23.9469 43.4506 24.5713 43.5863C26.2306 43.9471 28.0673 43.5836 29.6185 42.5306C30.1078 42.1985 30.5664 41.7987 30.9771 41.3285L44.6778 25.622C45.3557 24.9851 46.0076 24.0861 46.9186 23.1878L48.345 21.6599L49.9217 19.8828C52.8522 16.5828 51.1203 11.5003 46.8275 10.7775L18.9349 6.094C14.0796 5.28182 9.82438 9.8787 11.3256 14.3078L15.5829 26.7171L15.5517 26.7383L16.6892 29.7357L19.1079 37.0171C19.1079 37.0171 19.3584 37.7894 19.7804 38.7694L19.7908 38.7623C20.1621 39.5557 20.8232 40.9328 21.4156 41.7381L21.4052 41.7452C21.6929 42.1242 22.0121 42.4375 22.3286 42.635Z" fill="#E6F5EE"/>
<path d="M27.9786 46.2758V38.1945L26.8519 37.2917C24.5891 35.4783 21.5014 35.0845 18.8559 36.2719C16.5676 37.2991 14.1021 37.8737 11.5954 37.964L9.15286 38.0521C6.94931 38.1316 5.20398 39.941 5.20398 42.146V46.2758H27.9786Z" fill="#80CBAC"/>
<path d="M27.9793 46.2758V38.1945L29.106 37.2917C31.3688 35.4783 34.4564 35.0845 37.102 36.2719C39.3903 37.2991 41.8558 37.8737 44.3625 37.964L46.805 38.0521C49.0086 38.1316 50.7539 39.941 50.7539 42.146V46.2758H27.9793Z" fill="#80CBAC"/>
<path fill-rule="evenodd" clip-rule="evenodd" d="M5.75499 42.0515C4.23345 42.0515 3 43.2849 3 44.8064C3 46.328 4.23345 47.5614 5.75499 47.5614H23.5707C23.8106 48.1372 24.161 48.6604 24.6021 49.1015C25.0455 49.5449 25.5719 49.8967 26.1513 50.1367C26.7306 50.3766 27.3516 50.5002 27.9787 50.5002V45.7248H27.6651C26.9087 43.5847 24.8677 42.0515 22.4686 42.0515H5.75499Z" fill="#0055B8"/>
<path fill-rule="evenodd" clip-rule="evenodd" d="M50.2029 42.0515C51.7244 42.0515 52.9579 43.2849 52.9579 44.8064C52.9579 46.328 51.7244 47.5614 50.2029 47.5614H32.3874C32.1475 48.1372 31.7971 48.6605 31.356 49.1016C30.9125 49.545 30.3861 49.8968 29.8067 50.1368C29.2274 50.3768 28.6064 50.5003 27.9793 50.5003V45.725H28.2928C29.0491 43.5848 31.0901 42.0515 33.4893 42.0515H50.2029Z" fill="#0055B8"/>
<path fill-rule="evenodd" clip-rule="evenodd" d="M28.5849 23.7949C31.557 23.7949 33.9663 21.3855 33.9663 18.4135C33.9663 15.4414 31.557 13.0321 28.5849 13.0321C25.6128 13.0321 23.2035 15.4414 23.2035 18.4135C23.2035 21.3855 25.6128 23.7949 28.5849 23.7949ZM36.1703 18.4135C36.1703 22.6028 32.7742 25.9989 28.5849 25.9989C24.3956 25.9989 20.9995 22.6028 20.9995 18.4135C20.9995 14.2242 24.3956 10.8281 28.5849 10.8281C32.7742 10.8281 36.1703 14.2242 36.1703 18.4135Z" fill="#019859"/>
<path fill-rule="evenodd" clip-rule="evenodd" d="M28.5854 29.1947C29.194 29.1947 29.6874 29.6881 29.6874 30.2967V32.4456H31.8363C32.4449 32.4456 32.9383 32.939 32.9383 33.5476C32.9383 34.1562 32.4449 34.6496 31.8363 34.6496H25.3345C24.7259 34.6496 24.2325 34.1562 24.2325 33.5476C24.2325 32.939 24.7259 32.4456 25.3345 32.4456H27.4834V30.2967C27.4834 29.6881 27.9768 29.1947 28.5854 29.1947Z" fill="#019859"/>
<path fill-rule="evenodd" clip-rule="evenodd" d="M35.8575 10.2792C36.2879 9.8488 36.9856 9.8488 37.416 10.2792C39.6204 12.4836 40.8588 15.4734 40.8588 18.5909C40.8588 21.7084 39.6204 24.6983 37.416 26.9027C35.2115 29.1071 32.2217 30.3455 29.1042 30.3456C25.9867 30.3456 22.9968 29.1071 20.7924 26.9027C20.3621 26.4723 20.3621 25.7746 20.7924 25.3442C21.2228 24.9139 21.9205 24.9139 22.3509 25.3442C24.142 27.1353 26.5712 28.1416 29.1042 28.1416C31.6372 28.1416 34.0664 27.1353 35.8575 25.3442C37.6486 23.5532 38.6548 21.1239 38.6548 18.5909C38.6548 16.0579 37.6486 13.6287 35.8575 11.8376C35.4271 11.4073 35.4271 10.7095 35.8575 10.2792Z" fill="#019859"/>
</svg>
