<svg width="56" height="56" viewBox="0 0 56 56" fill="none" xmlns="http://www.w3.org/2000/svg">
<path d="M22.3287 42.635C23.1367 43.2203 23.947 43.4506 24.5714 43.5863C26.2307 43.9471 28.0675 43.5836 29.6186 42.5306C30.1079 42.1985 30.5665 41.7987 30.9773 41.3285L44.6779 25.622C45.3558 24.9851 46.0077 24.0861 46.9187 23.1878L48.3452 21.6599L49.9218 19.8828C52.8523 16.5828 51.1204 11.5003 46.8277 10.7775L18.935 6.094C14.0797 5.28182 9.8245 9.8787 11.3257 14.3078L15.583 26.7171L15.5518 26.7383L16.6894 29.7357L19.108 37.0171C19.108 37.0171 19.3586 37.7894 19.7805 38.7694L19.7909 38.7623C20.1622 39.5557 20.8234 40.9328 21.4157 41.7381L21.4053 41.7452C21.693 42.1242 22.0122 42.4375 22.3287 42.635Z" fill="#F0EEFC"/>
<path d="M27.9786 46.2757V38.1944L26.8519 37.2916C24.5891 35.4782 21.5014 35.0844 18.8559 36.2719C16.5676 37.299 14.1021 37.8736 11.5954 37.964L9.15286 38.0521C6.94931 38.1315 5.20398 39.9409 5.20398 42.1459V46.2757H27.9786Z" fill="#B4ACEF"/>
<path d="M27.9793 46.2757V38.1944L29.106 37.2916C31.3688 35.4782 34.4564 35.0844 37.102 36.2719C39.3903 37.299 41.8558 37.8736 44.3625 37.964L46.805 38.0521C49.0086 38.1315 50.7539 39.9409 50.7539 42.1459V46.2757H27.9793Z" fill="#B4ACEF"/>
<path fill-rule="evenodd" clip-rule="evenodd" d="M5.75499 42.0514C4.23345 42.0514 3 43.2848 3 44.8064C3 46.3279 4.23345 47.5614 5.75499 47.5614H23.5714C23.8112 48.1371 24.1616 48.6603 24.6027 49.1013C25.0461 49.5448 25.5725 49.8965 26.1519 50.1365C26.7313 50.3765 27.3522 50.5 27.9793 50.5V45.7247H27.665C26.9086 43.5846 24.8677 42.0514 22.4686 42.0514H5.75499Z" fill="#0055B8"/>
<path fill-rule="evenodd" clip-rule="evenodd" d="M50.2017 42.0514C51.7232 42.0514 52.9567 43.2848 52.9567 44.8064C52.9567 46.3279 51.7232 47.5614 50.2017 47.5614H32.3867C32.1468 48.1371 31.7964 48.6603 31.3553 49.1013C30.9119 49.5448 30.3855 49.8965 29.8061 50.1365C29.2268 50.3765 28.6058 50.5 27.9787 50.5V47.5614H27.9781C27.9781 47.5342 27.9783 47.5071 27.9787 47.4801V45.7247H28.2916C29.048 43.5846 31.089 42.0514 33.4881 42.0514H50.2017Z" fill="#0055B8"/>
<path d="M7.87695 24.7867C9.19529 24.7867 10.2646 25.9383 10.2646 27.3581C10.2646 25.9383 11.3339 24.7867 12.6523 24.7867C11.3339 24.7867 10.2646 23.6352 10.2646 22.2154C10.2646 23.6352 9.19529 24.7867 7.87695 24.7867Z" fill="#F0EEFC"/>
<path d="M4.83716 32.1335C7.06648 32.1335 8.87781 33.9448 8.87781 36.1741C8.87781 33.9448 10.6891 32.1335 12.9185 32.1335C10.6891 32.1335 8.87781 30.3221 8.87781 28.0928C8.87781 30.3221 7.06648 32.1335 4.83716 32.1335Z" fill="#F0EEFC"/>
<path d="M42.6716 33.2354C44.901 33.2354 46.7123 35.0468 46.7123 37.2761C46.7123 35.0468 48.5236 33.2354 50.7529 33.2354C48.5236 33.2354 46.7123 31.4241 46.7123 29.1948C46.7123 31.4241 44.901 33.2354 42.6716 33.2354Z" fill="#F0EEFC"/>
<path d="M21.383 21.3948C21.3833 21.3949 21.3829 21.3948 21.3821 21.3945L21.383 21.3948ZM21.383 21.3948C21.3852 21.3973 21.3878 21.4002 21.391 21.4034L21.386 21.4086L21.3208 21.4746M21.383 21.3948L21.4126 21.4897C21.382 21.4998 21.3514 21.4947 21.3208 21.4746M21.3208 21.4746C21.2902 21.4444 21.2749 21.4142 21.2749 21.384V18.4996C21.2749 18.4694 21.2902 18.4493 21.3208 18.4392C21.3514 18.4191 21.382 18.414 21.4126 18.4241C21.8922 18.6053 22.2238 18.8218 22.4075 19.0735L21.3208 21.4746ZM19.8522 13.8263L19.8522 13.8263L19.8555 13.8257C19.8708 13.8227 19.8816 13.8219 19.8887 13.8221C19.889 13.825 19.8892 13.8287 19.8892 13.8333V16.4077C19.4616 16.2411 19.149 16.0379 18.9434 15.8024C18.7374 15.5664 18.6352 15.2941 18.6352 14.981C18.6352 14.6563 18.7356 14.4058 18.9298 14.2186C19.1267 14.029 19.4299 13.8949 19.8522 13.8263ZM22.3267 19.1324L22.3266 19.1325L22.3295 19.1361C22.5053 19.3552 22.5983 19.6531 22.5983 20.04C22.5983 20.4083 22.497 20.6976 22.3021 20.9175C22.106 21.1386 21.8061 21.2994 21.3909 21.3921L21.3908 21.3916L21.3826 21.3943C21.3787 21.3896 21.3766 21.3862 21.3756 21.3841C21.3752 21.3834 21.375 21.3829 21.3749 21.3826V18.5233L21.3758 18.5228C21.3787 18.5208 21.3807 18.5199 21.3819 18.5194C21.8513 18.6973 22.1603 18.9043 22.3267 19.1324ZM17.5589 16.8159L17.5589 16.8159L17.5597 16.8167C18.0347 17.3166 18.791 17.7254 19.8159 18.0496C19.8849 18.0809 19.8892 18.1081 19.8892 18.1221V21.4293C19.8892 21.4378 19.8883 21.4428 19.8876 21.4452C19.8841 21.4467 19.8748 21.4497 19.8554 21.4501C19.1615 21.3901 18.514 21.2462 17.9124 21.0186L17.9118 21.0184C17.7196 20.9473 17.53 20.9658 17.3517 21.0714L17.3516 21.0714L17.349 21.073C17.1769 21.1822 17.0883 21.3452 17.0883 21.5501C17.0883 21.8021 17.1609 22.0334 17.3051 22.2413L17.3051 22.2414L17.3066 22.2434C17.4525 22.4427 17.6492 22.5808 17.893 22.6573L17.893 22.6573L17.8948 22.6578C18.4843 22.8313 19.1343 22.9431 19.8443 22.9939L19.8443 22.9941H19.8515C19.8735 22.9941 19.8822 22.998 19.8845 22.9993C19.8858 23.0016 19.8892 23.0098 19.8892 23.03V23.77C19.8892 23.9678 19.961 24.1429 20.0999 24.2914L20.0998 24.2914L20.1027 24.2942C20.2525 24.4421 20.4302 24.5194 20.6321 24.5194C20.8336 24.5194 21.0072 24.4422 21.1476 24.2928C21.2965 24.1453 21.3749 23.9698 21.3749 23.77V22.9998C21.3749 22.9827 21.3794 22.9768 21.3834 22.9729C21.3898 22.9665 21.4064 22.9554 21.4443 22.9475C22.3945 22.8247 23.1306 22.5221 23.6402 22.0298L23.641 22.029C24.1528 21.524 24.4054 20.8575 24.4054 20.04C24.4054 19.2361 24.1856 18.5811 23.737 18.0856C23.2909 17.5827 22.5218 17.174 21.4476 16.8503C21.3791 16.819 21.3749 16.792 21.3749 16.7781V13.8182C21.3749 13.8097 21.3759 13.8047 21.3765 13.8023C21.3801 13.8008 21.3894 13.7977 21.409 13.7974C22.0236 13.8474 22.6177 13.9518 23.1914 14.1107C23.3927 14.169 23.5823 14.1395 23.7508 14.0207L23.7508 14.0207L23.7518 14.02C23.9277 13.8927 24.0227 13.7231 24.0227 13.5161C24.0227 13.283 23.9494 13.0712 23.8048 12.8836C23.6678 12.6822 23.4772 12.5572 23.2382 12.512C22.7025 12.4002 22.0912 12.3193 21.4047 12.2687L21.4047 12.2684H21.3973C21.3876 12.2684 21.382 12.2673 21.3795 12.2665C21.378 12.2629 21.3749 12.2532 21.3749 12.2325V11.4624C21.3749 11.2629 21.2966 11.0914 21.1462 10.9532C21.006 10.8048 20.8329 10.7281 20.6321 10.7281C20.4302 10.7281 20.2525 10.8054 20.1027 10.9532C19.9613 11.0927 19.8892 11.2643 19.8892 11.4624V12.2325C19.8892 12.2497 19.8848 12.2555 19.8807 12.2595C19.8744 12.2658 19.858 12.2767 19.8209 12.2846C18.8617 12.387 18.1205 12.6687 17.6102 13.1407C17.1075 13.6051 16.8587 14.2221 16.8587 14.981C16.8587 15.6994 17.0918 16.3131 17.5589 16.8159Z" fill="#695ADF" stroke="#695ADF" stroke-width="0.2"/>
<path d="M30.346 19.2222L30.3458 19.2223L30.3497 19.2284C30.4323 19.3572 30.5567 19.4233 30.7106 19.4233C30.9003 19.4233 31.0704 19.382 31.217 19.2955C31.3637 19.209 31.4812 19.0806 31.5712 18.9153C31.5712 18.9153 31.5713 18.9152 31.5713 18.9152L34.7955 13.0351C34.8316 12.9722 34.8511 12.9046 34.8488 12.834C34.8466 12.7644 34.8235 12.6986 34.7849 12.6375C34.7493 12.5729 34.7014 12.52 34.64 12.4837C34.5776 12.4467 34.507 12.4302 34.4316 12.4302C34.2419 12.4302 34.0719 12.4715 33.9252 12.558C33.7786 12.6446 33.661 12.7729 33.5711 12.9382C33.571 12.9382 33.571 12.9383 33.571 12.9383L30.3467 18.8184C30.2717 18.9492 30.2733 19.0882 30.346 19.2222ZM36.4286 19.3871L36.4292 19.3864C36.7442 19.0458 36.8947 18.5685 36.8947 17.9692C36.8947 17.3702 36.7444 16.8956 36.4289 16.5609C36.1133 16.2198 35.6739 16.0546 35.125 16.0546C34.5761 16.0546 34.1368 16.2198 33.8211 16.5609C33.5057 16.8955 33.3553 17.3702 33.3553 17.9692C33.3553 18.5685 33.5058 19.0458 33.8208 19.3864L33.8208 19.3864L33.8215 19.3871C34.1373 19.7219 34.5765 19.8838 35.125 19.8838C35.6735 19.8838 36.1127 19.7219 36.4286 19.3871ZM31.3193 15.1628L31.32 15.1621C31.6349 14.8215 31.7855 14.3442 31.7855 13.7449C31.7855 13.1459 31.6351 12.6712 31.3196 12.3366C31.004 11.9955 30.5646 11.8302 30.0158 11.8302C29.4669 11.8302 29.0275 11.9955 28.7119 12.3366C28.3964 12.6712 28.2461 13.1459 28.2461 13.7449C28.2461 14.3442 28.3966 14.8215 28.7115 15.1621L28.7115 15.1621L28.7122 15.1628C29.028 15.4976 29.4673 15.6595 30.0158 15.6595C30.5642 15.6595 31.0035 15.4976 31.3193 15.1628ZM35.125 18.9393C34.9344 18.9393 34.8007 18.8659 34.7089 18.7188C34.6123 18.5639 34.5571 18.3187 34.5571 17.9692C34.5571 17.6196 34.6123 17.3744 34.7089 17.2195C34.8007 17.0724 34.9344 16.999 35.125 16.999C35.3156 16.999 35.4493 17.0724 35.5411 17.2195C35.6378 17.3744 35.6929 17.6196 35.6929 17.9692C35.6929 18.3187 35.6378 18.5639 35.5411 18.7188C35.4493 18.8659 35.3156 18.9393 35.125 18.9393ZM30.0158 12.7747C30.2063 12.7747 30.34 12.8481 30.4318 12.9952C30.5285 13.1501 30.5836 13.3953 30.5836 13.7449C30.5836 14.0944 30.5285 14.3396 30.4318 14.4945C30.34 14.6416 30.2063 14.715 30.0158 14.715C29.8252 14.715 29.6915 14.6416 29.5997 14.4945C29.503 14.3396 29.4479 14.0944 29.4479 13.7449C29.4479 13.3953 29.503 13.1501 29.5997 12.9952C29.6915 12.8481 29.8252 12.7747 30.0158 12.7747Z" fill="#695ADF" stroke="#695ADF" stroke-width="0.2"/>
<path d="M30.0157 24.0764L30.0157 24.0764L30.0178 24.0778C30.3448 24.294 30.5112 24.6202 30.5112 25.0738C30.5112 25.6154 30.3167 26.0093 29.9344 26.2725C29.5454 26.5405 28.9493 26.6819 28.1309 26.6819H27.5343C27.5324 26.6819 27.5307 26.6819 27.5292 26.6818C27.5291 26.6799 27.529 26.6777 27.529 26.6752V23.8165C27.529 23.8072 27.5303 23.8028 27.531 23.8013C27.5322 23.8004 27.5358 23.798 27.5443 23.7956C27.8019 23.7497 28.0754 23.7267 28.3649 23.7267C29.147 23.7267 29.6906 23.8493 30.0157 24.0764ZM30.3658 27.4198C30.8392 27.2414 31.2184 26.9532 31.4999 26.5551C31.8178 26.1088 31.9747 25.5738 31.9747 24.9552C31.9747 24.182 31.6764 23.5701 31.0799 23.131C30.4859 22.6937 29.6147 22.4829 28.4819 22.4829C27.9403 22.4829 27.3794 22.5147 26.7994 22.5782C26.5787 22.5964 26.3948 22.6919 26.2532 22.8619C26.1123 23.0232 26.0421 23.2166 26.0421 23.4369V30.7082C26.0421 30.9156 26.1144 31.0953 26.2581 31.241C26.4019 31.3868 26.5797 31.4606 26.7855 31.4606C26.9914 31.4606 27.1692 31.3868 27.313 31.241C27.4567 31.0953 27.529 30.9156 27.529 30.7082V27.9088C27.529 27.9062 27.5291 27.904 27.5292 27.9022C27.5307 27.9021 27.5324 27.902 27.5343 27.902H28.1309C28.4045 27.902 28.6306 27.9177 28.8104 27.9481C28.9916 27.9787 29.1186 28.0231 29.1996 28.0757L29.1996 28.0758L29.2036 28.0781C29.3753 28.1786 29.5483 28.4231 29.7105 28.8461L30.4472 30.7666C30.4472 30.7668 30.4473 30.767 30.4474 30.7671C30.5245 30.9752 30.6536 31.1454 30.8333 31.2755L30.8332 31.2755L30.8359 31.2773C31.0167 31.3995 31.2196 31.4606 31.4418 31.4606C31.6324 31.4606 31.7871 31.3757 31.8982 31.216C32.0109 31.0542 32.0308 30.8762 31.9558 30.6946L31.2074 28.774L31.2071 28.7732C30.956 28.1438 30.6776 27.687 30.3658 27.4198ZM35.2403 26.512L35.2404 26.5119C35.5261 26.252 35.8608 26.1228 36.2494 26.1228C36.7278 26.1228 37.0747 26.2977 37.3072 26.6421C37.5444 26.9936 37.6703 27.5334 37.6703 28.2765C37.6703 29.0103 37.5351 29.5473 37.2796 29.9025C37.0255 30.2559 36.6852 30.4302 36.2494 30.4302C35.8604 30.4302 35.5257 30.3047 35.2403 30.0529C34.9623 29.7929 34.8285 29.4985 34.8285 29.1661V27.3869C34.8285 27.0543 34.9625 26.764 35.2403 26.512ZM34.8285 33.3533V30.9218C35.311 31.3592 35.8835 31.5792 36.5419 31.5792C37.2833 31.5792 37.8965 31.2757 38.3747 30.6759C38.861 30.0759 39.0987 29.2725 39.0987 28.2765C39.0987 27.2507 38.8696 26.4388 38.3983 25.8536C37.934 25.2675 37.312 24.9738 36.5419 24.9738C36.156 24.9738 35.8135 25.0431 35.517 25.1848C35.2659 25.2981 35.0164 25.4839 34.7678 25.7378C34.7523 25.5671 34.6798 25.4196 34.5528 25.2989C34.4187 25.1635 34.2575 25.0924 34.0734 25.0924C33.8887 25.0924 33.7271 25.1639 33.5927 25.3001C33.4647 25.4299 33.4001 25.5897 33.4001 25.7737V33.3533C33.4001 33.5523 33.4681 33.7242 33.6044 33.8624C33.7408 34.0007 33.911 34.0701 34.1085 34.0701C34.3054 34.0701 34.4752 34.0011 34.6114 33.8636C34.7555 33.7261 34.8285 33.5538 34.8285 33.3533Z" fill="#695ADF" stroke="#695ADF" stroke-width="0.2"/>
</svg>
