<svg width="56" height="56" viewBox="0 0 56 56" fill="none" xmlns="http://www.w3.org/2000/svg">
<path d="M21.3287 42.635C22.1367 43.2203 22.947 43.4506 23.5714 43.5863C25.2307 43.9471 27.0675 43.5836 28.6186 42.5306C29.1079 42.1985 29.5665 41.7987 29.9773 41.3285L43.6779 25.622C44.3558 24.9851 45.0077 24.0861 45.9187 23.1878L47.3452 21.6599L48.9218 19.8828C51.8523 16.5828 50.1204 11.5003 45.8277 10.7775L17.935 6.094C13.0797 5.28182 8.8245 9.8787 10.3257 14.3078L14.583 26.7171L14.5518 26.7383L15.6894 29.7357L18.108 37.0171C18.108 37.0171 18.3586 37.7894 18.7805 38.7694L18.7909 38.7623C19.1622 39.5557 19.8234 40.9328 20.4157 41.7381L20.4053 41.7452C20.693 42.1242 21.0122 42.4375 21.3287 42.635Z" fill="#FFF2F7"/>
<path d="M24.4844 32.9492V28.0977L20.8633 30.7696C21.8828 31.7188 23.1133 32.4571 24.4844 32.9492ZM31.5156 32.9492C32.8867 32.4571 34.1172 31.7188 35.1367 30.7696L31.5156 28.0625V32.9492ZM18.0508 26.5157C18.1563 26.8672 18.2969 27.1836 18.4727 27.5352L19.8438 26.5157H18.0508ZM36.1562 26.5157L37.5273 27.5352C37.668 27.2188 37.8086 26.8672 37.9492 26.5157H36.1562Z" fill="#2A5F9E"/>
<path d="M25.0117 25.1094H17.6641C17.7695 25.6016 17.9102 26.0586 18.0508 26.5157H19.8438L18.4727 27.5352C18.7539 28.1328 19.0703 28.6602 19.457 29.1875L23.0781 26.5157H24.4844V27.2188L20.3711 30.2422L20.8633 30.7344L24.4844 28.0977V32.9492C24.9414 33.125 25.3984 33.2305 25.8906 33.336V25.1094H25.0117ZM38.3359 25.1094H30.1094V33.336C30.6016 33.2305 31.0586 33.0899 31.5156 32.9492V28.0977L35.1367 30.7344C35.6289 30.2774 36.0508 29.7852 36.4727 29.2578L32.7109 26.5157H35.1016L37.2461 28.0977C37.3516 27.9219 37.457 27.711 37.5273 27.5352L36.1562 26.5157H37.9492C38.0898 26.0586 38.2305 25.6016 38.3359 25.1094Z" fill="white"/>
<path d="M19.457 29.1875C19.7383 29.5742 20.0195 29.9258 20.3359 30.2774L24.4844 27.2539V26.5508H23.0781L19.457 29.1875ZM32.7461 26.5157L36.5078 29.2578C36.6484 29.0821 36.7539 28.9063 36.8945 28.7305C36.9297 28.6953 36.9297 28.6602 36.9648 28.6602C37.0703 28.4844 37.2109 28.2735 37.3164 28.0977L35.1016 26.5157H32.7461Z" fill="#ED4C5C"/>
<path d="M31.5156 13.0508V17.9024L35.1367 15.2305C34.1172 14.2813 32.8867 13.543 31.5156 13.0508ZM24.4844 13.0508C23.1133 13.543 21.8828 14.2813 20.8633 15.2305L24.4844 17.9375V13.0508ZM37.9492 19.4844C37.8438 19.1328 37.7031 18.8164 37.5273 18.4649L36.1562 19.4844H37.9492ZM19.8438 19.4844L18.4727 18.4649C18.332 18.8164 18.1914 19.1328 18.0508 19.4844H19.8438Z" fill="#2A5F9E"/>
<path d="M30.9883 20.8907H38.3008C38.1953 20.3985 38.0547 19.9414 37.9141 19.4844H36.1211L37.4922 18.4649C37.2109 17.8672 36.8945 17.3399 36.5078 16.8125L32.9219 19.4844H31.5156V18.7813L35.6289 15.7578L35.1367 15.2657L31.5156 17.9024V13.0508C31.0586 12.875 30.6016 12.7696 30.1094 12.6641V20.8907H30.9883ZM17.6641 20.8907H25.8906V12.6641C25.3984 12.7696 24.9414 12.9102 24.4844 13.0508V17.9024L20.8633 15.2657C20.3711 15.7227 19.9492 16.2149 19.5273 16.7422L23.2891 19.4844H20.8984L18.7539 17.9024C18.6484 18.0782 18.543 18.2891 18.4727 18.4649L19.8438 19.4844H18.0508C17.9102 19.9414 17.7695 20.3985 17.6641 20.8907Z" fill="white"/>
<path d="M36.543 16.8125C36.2617 16.4258 35.9805 16.0742 35.6641 15.7227L31.5156 18.7461V19.4492H32.9219L36.543 16.8125ZM23.2539 19.4844L19.5273 16.7422C19.3867 16.918 19.2813 17.0938 19.1406 17.2696C19.1055 17.3047 19.1055 17.3399 19.0703 17.3399C18.9648 17.5157 18.8242 17.7266 18.7188 17.9024L20.8633 19.4844H23.2539Z" fill="#ED4C5C"/>
<path d="M38.3359 20.8907H30.1094V12.6641C29.4414 12.5235 28.7383 12.4532 28 12.4532C27.2617 12.4532 26.5586 12.5235 25.8906 12.6641V20.8907H17.6641C17.5234 21.5586 17.4531 22.2617 17.4531 23C17.4531 23.7383 17.5234 24.4414 17.6641 25.1094H25.8906V33.336C26.5586 33.4766 27.2617 33.5469 28 33.5469C28.7383 33.5469 29.4414 33.4766 30.1094 33.336V25.1094H38.3359C38.4766 24.4414 38.5469 23.7383 38.5469 23C38.5469 22.2617 38.4766 21.5586 38.3359 20.8907Z" fill="#ED4C5C"/>
<path d="M27.9786 46.2758V38.1945L26.8519 37.2917C24.5891 35.4783 21.5014 35.0845 18.8559 36.2719C16.5676 37.2991 14.1021 37.8737 11.5954 37.964L9.15286 38.0521C6.94931 38.1316 5.20398 39.941 5.20398 42.146V46.2758H27.9786Z" fill="#FFBCD8"/>
<path d="M27.9793 46.2757V38.1944L29.106 37.2916C31.3688 35.4782 34.4564 35.0844 37.102 36.2719C39.3903 37.299 41.8558 37.8736 44.3625 37.964L46.805 38.0521C49.0086 38.1315 50.7539 39.9409 50.7539 42.1459V46.2757H27.9793Z" fill="#FFBCD8"/>
<path fill-rule="evenodd" clip-rule="evenodd" d="M5.75499 42.0515C4.23345 42.0515 3 43.2849 3 44.8064C3 46.328 4.23345 47.5614 5.75499 47.5614H23.5713C23.8112 48.1372 24.1616 48.6604 24.6027 49.1015C25.0461 49.5449 25.5725 49.8967 26.1519 50.1367C26.7313 50.3766 27.3522 50.5002 27.9793 50.5002V45.7248H27.6651C26.9087 43.5847 24.8677 42.0515 22.4686 42.0515H5.75499Z" fill="#0055B8"/>
<path fill-rule="evenodd" clip-rule="evenodd" d="M50.2017 42.0515C51.7232 42.0515 52.9567 43.2849 52.9567 44.8064C52.9567 46.328 51.7232 47.5614 50.2017 47.5614H32.3867C32.1468 48.1372 31.7964 48.6604 31.3553 49.1015C30.9119 49.5449 30.3855 49.8967 29.8061 50.1367C29.2268 50.3766 28.6058 50.5002 27.9787 50.5002V47.5614H27.9781C27.9781 47.5343 27.9783 47.5072 27.9787 47.4801V45.7248H28.2916C29.048 43.5847 31.089 42.0515 33.4881 42.0515H50.2017Z" fill="#0055B8"/>
<path d="M7.87695 24.7867C9.19529 24.7867 10.2646 25.9383 10.2646 27.3581C10.2646 25.9383 11.3339 24.7867 12.6523 24.7867C11.3339 24.7867 10.2646 23.6352 10.2646 22.2154C10.2646 23.6352 9.19529 24.7867 7.87695 24.7867Z" fill="#FFF2F7"/>
<path d="M4.83716 32.1334C7.06648 32.1334 8.87781 33.9447 8.87781 36.174C8.87781 33.9447 10.6891 32.1334 12.9185 32.1334C10.6891 32.1334 8.87781 30.322 8.87781 28.0927C8.87781 30.322 7.06648 32.1334 4.83716 32.1334Z" fill="#FFF2F7"/>
<path d="M42.6716 33.2354C44.901 33.2354 46.7123 35.0467 46.7123 37.276C46.7123 35.0467 48.5236 33.2354 50.7529 33.2354C48.5236 33.2354 46.7123 31.424 46.7123 29.1947C46.7123 31.424 44.901 33.2354 42.6716 33.2354Z" fill="#FFF2F7"/>
</svg>
