<svg width="56" height="56" viewBox="0 0 56 56" fill="none" xmlns="http://www.w3.org/2000/svg">
<path d="M21.3287 42.635C22.1367 43.2203 22.947 43.4506 23.5714 43.5863C25.2307 43.9471 27.0675 43.5836 28.6186 42.5306C29.1079 42.1985 29.5665 41.7987 29.9773 41.3285L43.6779 25.622C44.3558 24.9851 45.0077 24.0861 45.9187 23.1878L47.3452 21.6599L48.9218 19.8828C51.8523 16.5828 50.1204 11.5003 45.8277 10.7775L17.935 6.094C13.0797 5.28182 8.8245 9.8787 10.3257 14.3078L14.583 26.7171L14.5518 26.7383L15.6894 29.7357L18.108 37.0171C18.108 37.0171 18.3586 37.7894 18.7805 38.7694L18.7909 38.7623C19.1622 39.5557 19.8234 40.9328 20.4157 41.7381L20.4053 41.7452C20.693 42.1242 21.0122 42.4375 21.3287 42.635Z" fill="#FFF5E8"/>
<path d="M27.9786 46.2758V38.1945L26.8519 37.2917C24.5891 35.4783 21.5014 35.0845 18.8559 36.2719C16.5676 37.2991 14.1021 37.8737 11.5954 37.964L9.15286 38.0521C6.94931 38.1316 5.20398 39.941 5.20398 42.146V46.2758H27.9786Z" fill="#FFCE8A"/>
<path d="M27.9793 46.2757V38.1944L29.106 37.2916C31.3688 35.4782 34.4564 35.0844 37.102 36.2719C39.3903 37.299 41.8558 37.8736 44.3625 37.964L46.805 38.0521C49.0086 38.1315 50.7539 39.9409 50.7539 42.1459V46.2757H27.9793Z" fill="#FFCE8A"/>
<path fill-rule="evenodd" clip-rule="evenodd" d="M5.75499 42.0515C4.23345 42.0515 3 43.2849 3 44.8064C3 46.328 4.23345 47.5614 5.75499 47.5614H23.5713C23.8112 48.1372 24.1616 48.6604 24.6027 49.1015C25.0461 49.5449 25.5725 49.8967 26.1519 50.1367C26.7313 50.3766 27.3522 50.5002 27.9793 50.5002V45.7248H27.6651C26.9087 43.5847 24.8677 42.0515 22.4686 42.0515H5.75499Z" fill="#0055B8"/>
<path fill-rule="evenodd" clip-rule="evenodd" d="M50.2017 42.0515C51.7232 42.0515 52.9567 43.2849 52.9567 44.8064C52.9567 46.328 51.7232 47.5614 50.2017 47.5614H32.3867C32.1468 48.1372 31.7964 48.6604 31.3553 49.1015C30.9119 49.5449 30.3855 49.8967 29.8061 50.1367C29.2268 50.3766 28.6058 50.5002 27.9787 50.5002V47.5614H27.9781C27.9781 47.5343 27.9783 47.5072 27.9787 47.4801V45.7248H28.2916C29.048 43.5847 31.089 42.0515 33.4881 42.0515H50.2017Z" fill="#0055B8"/>
<path d="M7.87695 24.7867C9.19529 24.7867 10.2646 25.9383 10.2646 27.3581C10.2646 25.9383 11.3339 24.7867 12.6523 24.7867C11.3339 24.7867 10.2646 23.6352 10.2646 22.2154C10.2646 23.6352 9.19529 24.7867 7.87695 24.7867Z" fill="#FFF5E8"/>
<path d="M4.83716 32.1334C7.06648 32.1334 8.87781 33.9447 8.87781 36.174C8.87781 33.9447 10.6891 32.1334 12.9185 32.1334C10.6891 32.1334 8.87781 30.322 8.87781 28.0927C8.87781 30.322 7.06648 32.1334 4.83716 32.1334Z" fill="#FFF5E8"/>
<path d="M42.6716 33.2354C44.901 33.2354 46.7123 35.0467 46.7123 37.276C46.7123 35.0467 48.5236 33.2354 50.7529 33.2354C48.5236 33.2354 46.7123 31.424 46.7123 29.1947C46.7123 31.424 44.901 33.2354 42.6716 33.2354Z" fill="#FFF5E8"/>
<path fill-rule="evenodd" clip-rule="evenodd" d="M28.1004 14.991C28.1356 14.9892 28.1709 14.9892 28.2061 14.991C31.0688 15.1366 32.7981 16.3006 33.7934 17.9541C34.7053 19.469 34.9266 21.2948 35.0889 22.6348C35.0923 22.6624 35.0956 22.6898 35.0989 22.717C35.1833 23.4121 35.2502 23.9448 35.3587 24.3524C35.4483 24.6889 35.5281 24.7824 35.5362 24.7931C36.7314 25.5237 37.5144 26.1845 38.0958 26.9768C38.6582 27.7432 38.9869 28.579 39.3523 29.508L39.3632 29.5356C39.4893 29.8562 39.4487 30.2185 39.2547 30.5032C39.0607 30.7879 38.7385 30.9583 38.394 30.9583H17.9125C17.568 30.9583 17.2458 30.7879 17.0518 30.5032C16.8578 30.2185 16.8172 29.8562 16.9433 29.5356L16.9542 29.5081C17.3196 28.579 17.6483 27.7432 18.2107 26.9768C18.7921 26.1845 19.5751 25.5237 20.7703 24.7931C20.7784 24.7824 20.8582 24.6889 20.9478 24.3524C21.0563 23.9448 21.1232 23.4121 21.2076 22.717C21.2109 22.6898 21.2142 22.6624 21.2176 22.6348C21.3799 21.2948 21.6012 19.469 22.5131 17.9541C23.5084 16.3006 25.2377 15.1366 28.1004 14.991ZM24.2976 19.0283C23.6359 20.1275 23.4495 21.5333 23.2753 22.968C23.2733 22.9841 23.2714 23.0002 23.2694 23.0163C23.1926 23.6498 23.1107 24.3244 22.9605 24.8884C22.8141 25.4382 22.5375 26.1548 21.8685 26.563C20.7955 27.2177 20.2547 27.7121 19.89 28.209C19.7395 28.4141 19.6112 28.6291 19.4869 28.8754H36.8196C36.6953 28.6291 36.567 28.4141 36.4165 28.209C36.0518 27.7121 35.511 27.2177 34.438 26.563C33.769 26.1548 33.4924 25.4382 33.346 24.8884C33.1958 24.3244 33.1139 23.6497 33.0371 23.0163L33.0312 22.968C32.857 21.5333 32.6706 20.1275 32.0089 19.0283C31.4166 18.0444 30.3708 17.1991 28.1532 17.074C25.9357 17.1991 24.8899 18.0444 24.2976 19.0283Z" fill="#FF9E16"/>
<path fill-rule="evenodd" clip-rule="evenodd" d="M15.0057 32.8187C15.0057 32.1663 15.4023 31.6374 15.8917 31.6374H40.1084C40.5977 31.6374 40.9943 32.1663 40.9943 32.8187C40.9943 33.4711 40.5977 34 40.1084 34H15.8917C15.4023 34 15.0057 33.4711 15.0057 32.8187Z" fill="#FF9E16"/>
<path fill-rule="evenodd" clip-rule="evenodd" d="M27.9801 15.6841C27.405 15.6841 26.9387 15.2178 26.9387 14.6426L26.9387 10.1297C26.9387 9.55458 27.405 9.08831 27.9801 9.08831C28.5553 9.08831 29.0216 9.55458 29.0216 10.1297L29.0216 14.6426C29.0216 15.2178 28.5553 15.6841 27.9801 15.6841Z" fill="#FF9E16"/>
<path fill-rule="evenodd" clip-rule="evenodd" d="M25.2025 14.2955C25.2025 13.7203 25.6687 13.254 26.2439 13.254H29.7154C30.2905 13.254 30.7568 13.7203 30.7568 14.2955C30.7568 14.8706 30.2905 15.3369 29.7154 15.3369H26.2439C25.6687 15.3369 25.2025 14.8706 25.2025 14.2955Z" fill="#FF9E16"/>
<path fill-rule="evenodd" clip-rule="evenodd" d="M21.4786 30.0734C21.0087 29.7417 20.8967 29.0919 21.2284 28.622L29.5598 16.8191C29.8915 16.3492 30.5413 16.2371 31.0112 16.5688C31.4811 16.9005 31.5932 17.5503 31.2615 18.0202L22.93 29.8231C22.5983 30.293 21.9485 30.405 21.4786 30.0734Z" fill="#FF9E16"/>
<path fill-rule="evenodd" clip-rule="evenodd" d="M26.6769 30.0677C26.2102 29.7317 26.1042 29.0808 26.4403 28.6141L32.6889 19.9355C33.025 19.4687 33.6758 19.3628 34.1426 19.6988C34.6093 20.0349 34.7153 20.6857 34.3792 21.1525L28.1306 29.8311C27.7945 30.2979 27.1437 30.4038 26.6769 30.0677Z" fill="#FF9E16"/>
<path fill-rule="evenodd" clip-rule="evenodd" d="M35.1766 30.0734C35.6465 29.7417 35.7585 29.0919 35.4269 28.622L27.0954 16.8191C26.7637 16.3492 26.1139 16.2371 25.644 16.5688C25.1741 16.9005 25.0621 17.5503 25.3938 18.0202L33.7252 29.8231C34.0569 30.293 34.7067 30.405 35.1766 30.0734Z" fill="#FF9E16"/>
<path fill-rule="evenodd" clip-rule="evenodd" d="M29.5996 30.0892C29.1211 30.4082 28.4745 30.2789 28.1554 29.8003L21.9068 20.4275C21.5878 19.9489 21.7171 19.3023 22.1957 18.9833C22.6743 18.6642 23.3209 18.7935 23.6399 19.2721L29.8885 28.645C30.2075 29.1235 30.0782 29.7701 29.5996 30.0892Z" fill="#FF9E16"/>
</svg>
