<svg width="56" height="56" viewBox="0 0 56 56" fill="none" xmlns="http://www.w3.org/2000/svg">
<path fill-rule="evenodd" clip-rule="evenodd" d="M20.5304 17.2527V14.1314L27.1171 17.797C27.7714 18.1635 28.5566 18.1635 29.2109 17.797L35.7976 14.1314V17.2527C35.7976 18.0635 35.3614 18.8189 34.6635 19.2076L29.2109 22.24C28.5566 22.6065 27.7714 22.6065 27.1171 22.24L21.6645 19.2076C20.9666 18.8189 20.5304 18.0635 20.5304 17.2527ZM17.924 9.37608L27.1171 4.26658C27.4393 4.09155 27.7988 4 28.164 4C28.5292 4 28.8887 4.09155 29.2109 4.26658L39.5926 10.0314C39.9416 10.2314 40.1597 10.5979 40.1597 11.0089V18.1289C40.1597 18.7398 39.669 19.2396 39.0692 19.2396C38.4694 19.2396 37.9787 18.7398 37.9787 18.1289V11.5643L29.2109 16.4405C28.5566 16.8071 27.7714 16.8071 27.1171 16.4405L17.924 11.331C17.1716 10.9089 17.1716 9.79817 17.924 9.37608ZM28.8235 24.6832L37.3109 19.9599H44.15C45.724 19.9599 47 21.2359 47 22.8099C47 24.3839 45.724 25.6599 44.15 25.6599H43.9596V42.3799C43.9596 44.4786 42.2583 46.1799 40.1596 46.1799H31.1598L33.3396 48.4022C34.1124 49.19 34.1767 50.5246 33.4832 51.3831C32.7898 52.2416 31.6012 52.2989 30.8284 51.5111L28.7739 49.4165L26.2858 51.6001C25.4502 52.3334 24.2621 52.1854 23.632 51.2695C23.0019 50.3536 23.1685 49.0167 24.004 48.2834L26.4008 46.1799H15.4596C13.361 46.1799 11.6596 44.4786 11.6596 42.3799V25.6537C10.1744 25.5557 9 24.32 9 22.8099C9 21.2359 10.276 19.9599 11.85 19.9599H19.212L28.821 24.6786L28.8235 24.6832ZM16.0297 29.4599C15.2952 29.4599 14.6997 30.0554 14.6997 30.7899C14.6997 31.5244 15.2952 32.1199 16.0297 32.1199H38.0697C38.8043 32.1199 39.3997 31.5244 39.3997 30.7899C39.3997 30.0554 38.8043 29.4599 38.0697 29.4599H16.0297ZM14.6997 35.7299C14.6997 34.9954 15.2952 34.3999 16.0297 34.3999H32.3697C33.1043 34.3999 33.6997 34.9954 33.6997 35.7299C33.6997 36.4644 33.1043 37.0599 32.3697 37.0599H16.0297C15.2952 37.0599 14.6997 36.4644 14.6997 35.7299ZM16.0297 39.34C15.2952 39.34 14.6997 39.9355 14.6997 40.67C14.6997 41.4046 15.2952 42 16.0297 42H32.3697C33.1043 42 33.6997 41.4046 33.6997 40.67C33.6997 39.9355 33.1043 39.34 32.3697 39.34H16.0297Z" fill="#0055B8"/>
</svg>
