<svg width="56" height="56" viewBox="0 0 56 56" fill="none" xmlns="http://www.w3.org/2000/svg">
<path d="M7.87695 24.7867C9.19529 24.7867 10.2646 25.9383 10.2646 27.358C10.2646 25.9383 11.3339 24.7867 12.6523 24.7867C11.3339 24.7867 10.2646 23.6351 10.2646 22.2154C10.2646 23.6351 9.19529 24.7867 7.87695 24.7867Z" fill="#EBF2FD"/>
<path d="M4.83716 32.1334C7.06648 32.1334 8.87781 33.9448 8.87781 36.1741C8.87781 33.9448 10.6891 32.1334 12.9185 32.1334C10.6891 32.1334 8.87781 30.3221 8.87781 28.0928C8.87781 30.3221 7.06648 32.1334 4.83716 32.1334Z" fill="#EBF2FD"/>
<path d="M42.6716 33.2354C44.901 33.2354 46.7123 35.0467 46.7123 37.2761C46.7123 35.0467 48.5236 33.2354 50.7529 33.2354C48.5236 33.2354 46.7123 31.4241 46.7123 29.1948C46.7123 31.4241 44.901 33.2354 42.6716 33.2354Z" fill="#EBF2FD"/>
<path d="M22.3286 42.635C23.1366 43.2203 23.9469 43.4506 24.5713 43.5863C26.2306 43.9471 28.0673 43.5836 29.6185 42.5306C30.1078 42.1985 30.5664 41.7987 30.9771 41.3285L44.6778 25.622C45.3557 24.9851 46.0076 24.0861 46.9186 23.1878L48.345 21.6599L49.9217 19.8828C52.8522 16.5828 51.1203 11.5003 46.8275 10.7775L18.9349 6.094C14.0796 5.28182 9.82438 9.8787 11.3256 14.3078L15.5829 26.7171L15.5517 26.7383L16.6892 29.7357L19.1079 37.0171C19.1079 37.0171 19.3584 37.7894 19.7804 38.7694L19.7908 38.7623C20.1621 39.5557 20.8232 40.9328 21.4156 41.7381L21.4052 41.7452C21.6929 42.1242 22.0121 42.4375 22.3286 42.635Z" fill="#EBF2FD"/>
<path d="M27.9786 46.2757V38.1944L26.8519 37.2916C24.5891 35.4782 21.5014 35.0844 18.8559 36.2718C16.5676 37.299 14.1021 37.8736 11.5954 37.9639L9.15286 38.052C6.94931 38.1315 5.20398 39.9409 5.20398 42.1459V46.2757H27.9786Z" fill="#9BBFF5"/>
<path d="M27.9793 46.2757V38.1944L29.106 37.2916C31.3688 35.4782 34.4564 35.0844 37.102 36.2718C39.3903 37.299 41.8558 37.8736 44.3625 37.9639L46.805 38.052C49.0086 38.1315 50.7539 39.9409 50.7539 42.1459V46.2757H27.9793Z" fill="#9BBFF5"/>
<path fill-rule="evenodd" clip-rule="evenodd" d="M5.75499 42.0514C4.23345 42.0514 3 43.2848 3 44.8063C3 46.3279 4.23345 47.5613 5.75499 47.5613H23.5701C23.81 48.1371 24.1604 48.6602 24.6014 49.1013C25.0449 49.5447 25.5713 49.8965 26.1507 50.1365C26.73 50.3765 27.351 50.5 27.9781 50.5V47.5613H27.9786C27.9786 47.5372 27.9784 47.5131 27.9781 47.489V45.7247H27.665C26.9086 43.5846 24.8677 42.0514 22.4686 42.0514H5.75499Z" fill="#0055B8"/>
<path fill-rule="evenodd" clip-rule="evenodd" d="M50.2017 42.0514C51.7232 42.0514 52.9567 43.2848 52.9567 44.8063C52.9567 46.3279 51.7232 47.5613 50.2017 47.5613H32.3867C32.1468 48.1371 31.7964 48.6602 31.3553 49.1013C30.9119 49.5447 30.3855 49.8965 29.8061 50.1365C29.2268 50.3765 28.6058 50.5 27.9787 50.5V47.5613H27.9781C27.9781 47.5342 27.9783 47.5071 27.9787 47.48V45.7247H28.2916C29.048 43.5846 31.089 42.0514 33.4881 42.0514H50.2017Z" fill="#0055B8"/>
<path d="M36.8149 32.1679H31.2079C31.2812 31.9601 31.3331 31.7453 31.3626 31.5268C32.9637 30.8807 34.3371 29.7715 35.308 28.3403C36.2788 26.9091 36.8034 25.2207 36.8149 23.4897C36.818 21.3078 35.9959 19.2058 34.5143 17.608L35.2033 16.9159C35.322 16.7973 35.4112 16.6524 35.464 16.4929L36.2297 14.191C36.2935 13.9998 36.3028 13.7946 36.2568 13.5984C36.2108 13.4022 36.1111 13.2227 35.9691 13.0802L33.6739 10.7793C33.5319 10.6366 33.3531 10.5364 33.1574 10.49C32.9617 10.4436 32.7571 10.4529 32.5664 10.5168L30.2734 11.2838C30.114 11.337 29.9692 11.4269 29.8505 11.5463L22.9684 18.4487C22.7656 18.6522 22.6517 18.928 22.6517 19.2157C22.6517 19.5033 22.7656 19.7792 22.9684 19.9826L21.4368 21.5176C21.3363 21.6183 21.2565 21.738 21.2021 21.8697C21.1476 22.0013 21.1196 22.1425 21.1196 22.2851C21.1196 22.4276 21.1476 22.5688 21.2021 22.7005C21.2565 22.8322 21.3363 22.9518 21.4368 23.0525L23.732 25.3523C23.9348 25.5556 24.2098 25.6699 24.4966 25.6699C24.7834 25.6699 25.0585 25.5556 25.2613 25.3523L26.7907 23.8195L26.7929 23.8217C26.9957 24.025 27.2707 24.1393 27.5575 24.1393C27.8443 24.1393 28.1194 24.025 28.3222 23.8217L32.9839 19.1441C34.0591 20.3343 34.6537 21.8836 34.6517 23.4897C34.645 24.725 34.2907 25.9332 33.6296 26.9754C32.9685 28.0177 32.0275 28.8516 30.9148 29.3812C30.6243 28.9015 30.2141 28.5062 29.7248 28.2341C29.2354 27.9619 28.6838 27.8224 28.1243 27.8293C27.5648 27.8362 27.0168 27.9893 26.5343 28.2734C26.0518 28.5575 25.6514 28.9629 25.3727 29.4495C24.9515 29.2868 24.546 29.0856 24.1614 28.8485C24.3792 28.7815 24.5701 28.6464 24.7061 28.463C24.8421 28.2796 24.9161 28.0574 24.9174 27.8288C24.9174 27.5411 24.8034 27.2652 24.6006 27.0618C24.3978 26.8583 24.1227 26.7441 23.8358 26.7441H19.5094C19.2226 26.7441 18.9475 26.8583 18.7446 27.0618C18.5418 27.2652 18.4279 27.5411 18.4279 27.8288C18.4279 28.1165 18.5418 28.3925 18.7446 28.5959C18.9475 28.7993 19.2226 28.9136 19.5094 28.9136H20.949C22.0374 30.139 23.4219 31.0629 24.9693 31.5963C25.0007 31.791 25.0499 31.9823 25.1164 32.1679H19.5094C19.2226 32.1679 18.9475 32.2822 18.7446 32.4857C18.5418 32.6891 18.4279 32.965 18.4279 33.2527C18.4279 33.5404 18.5418 33.8164 18.7446 34.0198C18.9475 34.2232 19.2226 34.3375 19.5094 34.3375H36.8149C37.1017 34.3375 37.3768 34.2232 37.5797 34.0198C37.7825 33.8164 37.8964 33.5404 37.8964 33.2527C37.8964 32.965 37.7825 32.6891 37.5797 32.4857C37.3768 32.2822 37.1017 32.1679 36.8149 32.1679ZM24.4966 23.0525L23.7309 22.2856L24.4966 21.5176L25.2613 22.2856L24.4966 23.0525ZM33.4933 15.5632L27.5565 21.5208L25.2635 19.2157L31.2003 13.2613L32.6183 12.7873L33.967 14.14L33.4933 15.5632ZM28.1622 32.1679C27.9482 32.1679 27.7391 32.1043 27.5613 31.9851C27.3834 31.8659 27.2448 31.6965 27.1629 31.4983C27.081 31.3001 27.0596 31.082 27.1013 30.8715C27.1431 30.6611 27.2461 30.4678 27.3974 30.3161C27.5486 30.1644 27.7413 30.0611 27.9511 30.0192C28.161 29.9774 28.3784 29.9989 28.5761 30.081C28.7737 30.1631 28.9426 30.3021 29.0615 30.4805C29.1803 30.6589 29.2437 30.8686 29.2437 31.0832C29.2435 31.3708 29.1294 31.6465 28.9266 31.8499C28.7239 32.0533 28.4489 32.1677 28.1622 32.1679Z" fill="#2876E4"/>
</svg>
