<svg width="56" height="56" viewBox="0 0 56 56" fill="none" xmlns="http://www.w3.org/2000/svg">
<path d="M21.3292 42.635C22.1372 43.2203 22.9475 43.4507 23.5719 43.5863C25.2312 43.9471 27.068 43.5837 28.6191 42.5307C29.1084 42.1985 29.567 41.7988 29.9778 41.3285L43.6784 25.622C44.3563 24.9852 45.0082 24.0861 45.9192 23.1879L47.3456 21.6599L48.9223 19.8828C51.8528 16.5828 50.1209 11.5004 45.8282 10.7775L17.9355 6.09403C13.0802 5.28185 8.82499 9.87873 10.3262 14.3079L14.5835 26.7171L14.5523 26.7383L15.6898 29.7357L18.1085 37.0171C18.1085 37.0171 18.3591 37.7895 18.781 38.7694L18.7914 38.7623C19.1627 39.5557 19.8238 40.9328 20.4162 41.7381L20.4058 41.7452C20.6935 42.1242 21.0127 42.4376 21.3292 42.635Z" fill="#E6F5EE"/>
<path d="M27.9785 46.2758V38.1945L26.8519 37.2916C24.5891 35.4782 21.5014 35.0845 18.8559 36.2719C16.5675 37.299 14.102 37.8736 11.5954 37.964L9.15284 38.0521C6.94929 38.1315 5.20396 39.9409 5.20396 42.1459V46.2758H27.9785Z" fill="#019859"/>
<path d="M27.9793 46.2757V38.1944L29.106 37.2916C31.3688 35.4782 34.4564 35.0844 37.102 36.2718C39.3903 37.299 41.8558 37.8736 44.3625 37.964L46.805 38.052C49.0086 38.1315 50.7539 39.9409 50.7539 42.1459V46.2757H27.9793Z" fill="#019859"/>
<path fill-rule="evenodd" clip-rule="evenodd" d="M5.75499 42.0515C4.23345 42.0515 3 43.2849 3 44.8065C3 46.328 4.23345 47.5615 5.75499 47.5615H23.5712C23.8111 48.1372 24.1615 48.6604 24.6025 49.1015C25.046 49.5449 25.5724 49.8967 26.1518 50.1367C26.7311 50.3766 27.3521 50.5002 27.9792 50.5002V45.7248H27.6651C26.9087 43.5848 24.8677 42.0515 22.4686 42.0515H5.75499Z" fill="#0055B8"/>
<path fill-rule="evenodd" clip-rule="evenodd" d="M50.2019 42.0515C51.7235 42.0515 52.9569 43.2849 52.9569 44.8065C52.9569 46.328 51.7235 47.5615 50.2019 47.5615H32.3861C32.1462 48.1372 31.7958 48.6604 31.3547 49.1015C30.9113 49.5449 30.3849 49.8967 29.8055 50.1367C29.2261 50.3766 28.6052 50.5002 27.9781 50.5002V45.7248H28.2919C29.0482 43.5848 31.0892 42.0515 33.4883 42.0515H50.2019Z" fill="#0055B8"/>
<path d="M7.87695 24.7868C9.19529 24.7868 10.2646 25.9384 10.2646 27.3581C10.2646 25.9384 11.3339 24.7868 12.6523 24.7868C11.3339 24.7868 10.2646 23.6352 10.2646 22.2155C10.2646 23.6352 9.19529 24.7868 7.87695 24.7868Z" fill="#E6F5EE"/>
<path d="M4.83728 32.1334C7.06661 32.1334 8.87793 33.9447 8.87793 36.174C8.87793 33.9447 10.6893 32.1334 12.9186 32.1334C10.6893 32.1334 8.87793 30.3221 8.87793 28.0927C8.87793 30.3221 7.06661 32.1334 4.83728 32.1334Z" fill="#E6F5EE"/>
<path d="M42.6714 33.2354C44.9007 33.2354 46.7121 35.0467 46.7121 37.276C46.7121 35.0467 48.5234 33.2354 50.7527 33.2354C48.5234 33.2354 46.7121 31.4241 46.7121 29.1947C46.7121 31.4241 44.9007 33.2354 42.6714 33.2354Z" fill="#E6F5EE"/>
<path fill-rule="evenodd" clip-rule="evenodd" d="M20.9704 6C21.1863 6 21.3612 6.17919 21.3612 6.40024V12.1038C21.5858 12.2444 21.7356 12.4979 21.7356 12.7872L21.7356 15.9891H23.2989V12.7872C23.2989 12.5662 23.4738 12.387 23.6897 12.387C23.9055 12.387 24.0805 12.5662 24.0805 12.7872V15.9891L26.8161 15.9891L26.8161 12.7872C26.8161 12.4909 26.9733 12.2322 27.2069 12.0938V6.40024C27.2069 6.17919 27.3819 6 27.5977 6C27.8135 6 27.9885 6.17919 27.9885 6.40024V12.0938C28.2221 12.2322 28.3793 12.4909 28.3793 12.7872L28.3793 15.9891H28.5747C28.7905 15.9891 28.9655 16.1683 28.9655 16.3894C28.9655 16.6104 28.7905 16.7896 28.5747 16.7896H28.3793V19.9916H29.9425V18.3906C29.9425 18.1695 30.1175 17.9903 30.3333 17.9903C30.5492 17.9903 30.7241 18.1695 30.7241 18.3906V19.9916H33.2644V12.7872C33.2644 12.4909 33.4215 12.2322 33.6552 12.0938V6.40024C33.6552 6.17919 33.8301 6 34.046 6C34.2618 6 34.4368 6.17919 34.4368 6.40024V12.0938C34.6704 12.2322 34.8276 12.4909 34.8276 12.7872V19.9916H35.4138C35.6296 19.9916 35.8046 20.1707 35.8046 20.3918C35.8046 20.6128 35.6296 20.792 35.4138 20.792H34.8276V21.7926C34.8276 22.0889 34.6704 22.3476 34.4368 22.486V29.9626C34.4368 30.0404 34.4151 30.113 34.3776 30.1745C35.2988 30.3357 36 31.0093 36 31.9988C36 33.104 35.1252 34 34.046 34H20.954C19.8748 34 19 33.104 19 31.9988C19 31.004 19.7087 30.3269 20.6373 30.1719C20.6007 30.111 20.5796 30.0393 20.5796 29.9626V22.4955C20.337 22.3596 20.1724 22.0958 20.1724 21.7926L20.1724 16.7896H19.7816C19.5658 16.7896 19.3908 16.6104 19.3908 16.3894C19.3908 16.1683 19.5658 15.9891 19.7816 15.9891H20.1724L20.1724 12.7872C20.1724 12.484 20.337 12.2202 20.5796 12.0844V6.40024C20.5796 6.17919 20.7546 6 20.9704 6ZM33.6984 30.1458C33.6708 30.0909 33.6552 30.0286 33.6552 29.9626V22.486C33.4215 22.3476 33.2644 22.0889 33.2644 21.7926V20.792H30.7241V22.6199C31.7116 22.7203 32.4828 23.5735 32.4828 24.6112V27.861C32.4828 28.4133 32.035 28.861 31.4828 28.861H30.9425C30.3902 28.861 29.9425 28.4133 29.9425 27.861V20.792H28.3793V21.7926C28.3793 22.0889 28.2221 22.3476 27.9885 22.486V29.9626C27.9885 30.0286 27.9729 30.0909 27.9452 30.1458H29.7037H29.9948H32.4828H33.4815H33.6984ZM26.8161 21.7926C26.8161 22.0889 26.9733 22.3476 27.2069 22.486V29.9626C27.2069 30.0286 27.2225 30.0909 27.2502 30.1458H26.5556H26.3276H23.3511H22.7778H21.318C21.3456 30.0909 21.3612 30.0286 21.3612 29.9626V22.476C21.5858 22.3354 21.7356 22.0819 21.7356 21.7926V16.7896H23.2989L23.2989 27.861C23.2989 28.4133 23.7466 28.861 24.2989 28.861H25.3276C25.8799 28.861 26.3276 28.4133 26.3276 27.861L26.3276 23.2935C26.3276 21.8769 25.3693 20.6894 24.0805 20.3739L24.0805 16.7896H26.8161V19.9916H26.6207C26.4049 19.9916 26.2299 20.1707 26.2299 20.3918C26.2299 20.6128 26.4049 20.792 26.6207 20.792H26.8161V21.7926Z" fill="#019859"/>
</svg>
