<svg width="56" height="56" viewBox="0 0 56 56" fill="none" xmlns="http://www.w3.org/2000/svg">
<path d="M21.3292 42.635C22.1372 43.2203 22.9475 43.4507 23.5719 43.5863C25.2312 43.9471 27.068 43.5837 28.6191 42.5307C29.1084 42.1985 29.567 41.7988 29.9778 41.3285L43.6784 25.622C44.3563 24.9852 45.0082 24.0861 45.9192 23.1879L47.3456 21.6599L48.9223 19.8828C51.8528 16.5828 50.1209 11.5004 45.8282 10.7775L17.9355 6.09403C13.0802 5.28185 8.82499 9.87873 10.3262 14.3079L14.5835 26.7171L14.5523 26.7383L15.6898 29.7357L18.1085 37.0171C18.1085 37.0171 18.3591 37.7895 18.781 38.7694L18.7914 38.7623C19.1627 39.5557 19.8238 40.9328 20.4162 41.7381L20.4058 41.7452C20.6935 42.1242 21.0127 42.4376 21.3292 42.635Z" fill="#FFF7D7"/>
<path d="M27.9785 46.2758V38.1945L26.8519 37.2916C24.5891 35.4782 21.5014 35.0845 18.8559 36.2719C16.5675 37.299 14.102 37.8736 11.5954 37.964L9.15284 38.0521C6.94929 38.1315 5.20396 39.9409 5.20396 42.1459V46.2758H27.9785Z" fill="#FFCE00"/>
<path d="M27.9793 46.2757V38.1944L29.106 37.2916C31.3688 35.4782 34.4564 35.0844 37.102 36.2718C39.3903 37.299 41.8558 37.8736 44.3625 37.964L46.805 38.052C49.0086 38.1315 50.7539 39.9409 50.7539 42.1459V46.2757H27.9793Z" fill="#FFCE00"/>
<path fill-rule="evenodd" clip-rule="evenodd" d="M5.75499 42.0515C4.23345 42.0515 3 43.2849 3 44.8065C3 46.328 4.23345 47.5615 5.75499 47.5615H23.5712C23.8111 48.1372 24.1615 48.6604 24.6025 49.1015C25.046 49.5449 25.5724 49.8967 26.1518 50.1367C26.7311 50.3766 27.3521 50.5002 27.9792 50.5002V45.7248H27.6651C26.9087 43.5848 24.8677 42.0515 22.4686 42.0515H5.75499Z" fill="#0055B8"/>
<path fill-rule="evenodd" clip-rule="evenodd" d="M50.2019 42.0515C51.7235 42.0515 52.9569 43.2849 52.9569 44.8065C52.9569 46.328 51.7235 47.5615 50.2019 47.5615H32.3861C32.1462 48.1372 31.7958 48.6604 31.3547 49.1015C30.9113 49.5449 30.3849 49.8967 29.8055 50.1367C29.2261 50.3766 28.6052 50.5002 27.9781 50.5002V45.7248H28.2919C29.0483 43.5848 31.0892 42.0515 33.4883 42.0515H50.2019Z" fill="#0055B8"/>
<path d="M7.87695 24.7868C9.19529 24.7868 10.2646 25.9384 10.2646 27.3581C10.2646 25.9384 11.3339 24.7868 12.6523 24.7868C11.3339 24.7868 10.2646 23.6352 10.2646 22.2155C10.2646 23.6352 9.19529 24.7868 7.87695 24.7868Z" fill="#FFF7D7"/>
<path d="M4.83728 32.1334C7.06661 32.1334 8.87793 33.9447 8.87793 36.174C8.87793 33.9447 10.6893 32.1334 12.9186 32.1334C10.6893 32.1334 8.87793 30.3221 8.87793 28.0927C8.87793 30.3221 7.06661 32.1334 4.83728 32.1334Z" fill="#FFF7D7"/>
<path d="M42.6714 33.2354C44.9007 33.2354 46.7121 35.0467 46.7121 37.276C46.7121 35.0467 48.5234 33.2354 50.7527 33.2354C48.5234 33.2354 46.7121 31.4241 46.7121 29.1947C46.7121 31.4241 44.9007 33.2354 42.6714 33.2354Z" fill="#FFF7D7"/>
<path d="M36.1047 28.212C37.9703 27.8476 39.3773 27.141 39.6003 26.4532C39.6356 26.3574 39.644 26.2538 39.6247 26.1536C39.6053 26.0534 39.5588 25.9604 39.4904 25.8847C39.148 25.511 38.3409 25.6083 37.7222 25.7559C36.2241 26.114 34.437 26.3244 31.5884 25.5549C32.2286 25.2688 32.771 24.8015 33.1486 24.2107C33.5262 23.6198 33.7225 22.9313 33.7132 22.2302C33.704 21.5291 33.4896 20.846 33.0965 20.2653C32.7035 19.6846 32.149 19.2318 31.5015 18.9627C30.854 18.6935 30.1419 18.6199 29.453 18.7509C28.7642 18.8819 28.1288 19.2118 27.6253 19.6998C27.1218 20.1879 26.7722 20.8127 26.6198 21.4971C26.4673 22.1815 26.5187 22.8956 26.7675 23.5512C23.1588 21.6102 22.3705 20.5141 21.2242 18.9124L21.1111 18.7522C20.9258 18.4947 20.7562 18.2246 20.5929 17.9733C20.1343 17.2541 19.7732 16.6888 19.2832 16.5851C19.182 16.5639 19.0774 16.5642 18.9763 16.5858C18.8751 16.6074 18.7796 16.65 18.6959 16.7108C18.6287 16.7586 18.5723 16.8198 18.5301 16.8907C18.4879 16.9615 18.4609 17.0404 18.4509 17.1222C18.3002 17.9419 19.0131 19.9896 20.6714 22.32C21.0294 22.8257 21.4377 23.3313 21.8303 23.8213C23.6205 26.0449 25.3133 28.146 23.7524 31.0668C23.6247 31.3178 23.4843 31.562 23.3316 31.7986C26.0859 34.0662 29.7071 33.7553 31.3529 33.1146C30.9728 31.9399 30.8064 31.0982 30.976 30.4701C31.312 29.2327 31.9967 29.016 36.1047 28.212Z" fill="#FFCE00"/>
<path d="M22.8794 15.119C23.2144 15.1186 23.5462 15.1843 23.8558 15.3123C24.1654 15.4403 24.4467 15.6281 24.6836 15.865C24.9205 16.1019 25.1084 16.3832 25.2364 16.6928C25.3644 17.0024 25.4301 17.3342 25.4296 17.6692C25.4296 16.9929 25.6983 16.3442 26.1766 15.8659C26.6549 15.3877 27.3035 15.119 27.9799 15.119C27.3038 15.1182 26.6556 14.8492 26.1775 14.3711C25.6994 13.893 25.4305 13.2449 25.4296 12.5688C25.4296 13.2451 25.161 13.8938 24.6827 14.372C24.2044 14.8503 23.5558 15.119 22.8794 15.119Z" fill="#FFCE00"/>
<path d="M17 11.1331C17.5428 11.1331 18.0802 11.24 18.5817 11.4478C19.0831 11.6555 19.5388 11.9599 19.9226 12.3437C20.3064 12.7275 20.6108 13.1831 20.8185 13.6846C21.0262 14.186 21.1331 14.7235 21.1331 15.2663C21.1327 14.7237 21.2392 14.1863 21.4466 13.6848C21.654 13.1834 21.9581 12.7277 22.3417 12.3439C22.7252 11.9601 23.1806 11.6556 23.6819 11.4478C24.1832 11.2401 24.7205 11.1331 25.2631 11.1331C24.7205 11.1331 24.1832 11.0262 23.6819 10.8185C23.1806 10.6107 22.7252 10.3062 22.3417 9.92238C21.9581 9.53854 21.654 9.08288 21.4466 8.58145C21.2392 8.08001 21.1327 7.54262 21.1331 7C21.1323 8.09563 20.6965 9.14611 19.9215 9.92054C19.1464 10.695 18.0956 11.13 17 11.13" fill="#FFCE00"/>
</svg>
