<svg width="56" height="56" viewBox="0 0 56 56" fill="none" xmlns="http://www.w3.org/2000/svg">
<path d="M21.3292 42.635C22.1372 43.2203 22.9475 43.4507 23.5719 43.5863C25.2312 43.9471 27.068 43.5837 28.6191 42.5306C29.1084 42.1985 29.567 41.7988 29.9778 41.3285L43.6784 25.622C44.3563 24.9852 45.0082 24.0861 45.9192 23.1879L47.3456 21.6599L48.9223 19.8828C51.8528 16.5828 50.1209 11.5004 45.8282 10.7775L17.9355 6.09403C13.0802 5.28185 8.82499 9.87873 10.3262 14.3079L14.5835 26.7171L14.5523 26.7383L15.6898 29.7357L18.1085 37.0171C18.1085 37.0171 18.3591 37.7895 18.781 38.7694L18.7914 38.7623C19.1627 39.5557 19.8238 40.9328 20.4162 41.7381L20.4058 41.7452C20.6935 42.1242 21.0127 42.4376 21.3292 42.635Z" fill="#F6EEFF"/>
<path d="M27.9786 46.2758V38.1945L26.8519 37.2916C24.5891 35.4782 21.5014 35.0845 18.8559 36.2719C16.5676 37.299 14.1021 37.8736 11.5954 37.964L9.15286 38.0521C6.94931 38.1315 5.20398 39.9409 5.20398 42.1459V46.2758H27.9786Z" fill="#D4ABFF"/>
<path d="M27.9793 46.2757V38.1944L29.106 37.2916C31.3688 35.4782 34.4564 35.0844 37.102 36.2718C39.3903 37.299 41.8558 37.8736 44.3625 37.9639L46.805 38.052C49.0086 38.1315 50.7539 39.9409 50.7539 42.1459V46.2757H27.9793Z" fill="#D4ABFF"/>
<path fill-rule="evenodd" clip-rule="evenodd" d="M5.75499 42.0515C4.23345 42.0515 3 43.2849 3 44.8065C3 46.328 4.23345 47.5615 5.75499 47.5615H23.5712C23.8111 48.1372 24.1615 48.6604 24.6025 49.1015C25.046 49.5449 25.5724 49.8967 26.1518 50.1367C26.7311 50.3766 27.3521 50.5002 27.9792 50.5002V45.7248H27.6651C26.9087 43.5848 24.8677 42.0515 22.4686 42.0515H5.75499Z" fill="#0055B8"/>
<path fill-rule="evenodd" clip-rule="evenodd" d="M50.2019 42.0515C51.7235 42.0515 52.9569 43.2849 52.9569 44.8065C52.9569 46.328 51.7235 47.5615 50.2019 47.5615H32.3861C32.1462 48.1372 31.7958 48.6604 31.3547 49.1015C30.9113 49.5449 30.3849 49.8967 29.8055 50.1367C29.2261 50.3766 28.6052 50.5002 27.9781 50.5002V45.7248H28.2919C29.0482 43.5848 31.0892 42.0515 33.4883 42.0515H50.2019Z" fill="#0055B8"/>
<path d="M7.87695 24.7868C9.19529 24.7868 10.2646 25.9384 10.2646 27.3581C10.2646 25.9384 11.3339 24.7868 12.6523 24.7868C11.3339 24.7868 10.2646 23.6352 10.2646 22.2155C10.2646 23.6352 9.19529 24.7868 7.87695 24.7868Z" fill="#F6EEFF"/>
<path d="M4.83728 32.1334C7.06661 32.1334 8.87793 33.9447 8.87793 36.174C8.87793 33.9447 10.6893 32.1334 12.9186 32.1334C10.6893 32.1334 8.87793 30.3221 8.87793 28.0927C8.87793 30.3221 7.06661 32.1334 4.83728 32.1334Z" fill="#F6EEFF"/>
<path d="M42.6714 33.2354C44.9007 33.2354 46.7121 35.0467 46.7121 37.276C46.7121 35.0467 48.5234 33.2354 50.7527 33.2354C48.5234 33.2354 46.7121 31.4241 46.7121 29.1947C46.7121 31.4241 44.9007 33.2354 42.6714 33.2354Z" fill="#F6EEFF"/>
<path d="M27.9999 33.5469C33.8358 33.5469 38.5468 28.8359 38.5468 23H17.453C17.453 28.8359 22.164 33.5469 27.9999 33.5469Z" fill="white"/>
<path d="M27.9999 12.4531C22.164 12.4531 17.453 17.1641 17.453 23H38.5468C38.5468 17.1641 33.8358 12.4531 27.9999 12.4531Z" fill="#C94747"/>
</svg>
