<svg width="56" height="56" viewBox="0 0 56 56" fill="none" xmlns="http://www.w3.org/2000/svg">
<path d="M21.3292 42.635C22.1372 43.2203 22.9475 43.4507 23.5719 43.5863C25.2312 43.9471 27.068 43.5837 28.6191 42.5307C29.1084 42.1985 29.567 41.7988 29.9778 41.3285L43.6784 25.622C44.3563 24.9852 45.0082 24.0861 45.9192 23.1879L47.3456 21.6599L48.9223 19.8828C51.8528 16.5828 50.1209 11.5004 45.8282 10.7775L17.9355 6.09403C13.0802 5.28185 8.82499 9.87873 10.3262 14.3079L14.5835 26.7171L14.5523 26.7383L15.6898 29.7357L18.1085 37.0171C18.1085 37.0171 18.3591 37.7895 18.781 38.7694L18.7914 38.7623C19.1627 39.5557 19.8238 40.9328 20.4162 41.7381L20.4058 41.7452C20.6935 42.1242 21.0127 42.4376 21.3292 42.635Z" fill="#EFFFCF"/>
<path d="M27.9785 46.2758V38.1945L26.8519 37.2916C24.5891 35.4782 21.5014 35.0845 18.8559 36.2719C16.5675 37.299 14.102 37.8736 11.5954 37.964L9.15284 38.0521C6.94929 38.1315 5.20396 39.9409 5.20396 42.1459V46.2758H27.9785Z" fill="#C3EC6B"/>
<path d="M27.9793 46.2757V38.1944L29.106 37.2916C31.3688 35.4782 34.4564 35.0844 37.102 36.2718C39.3903 37.299 41.8558 37.8736 44.3625 37.964L46.805 38.052C49.0086 38.1315 50.7539 39.9409 50.7539 42.1459V46.2757H27.9793Z" fill="#C3EC6B"/>
<path fill-rule="evenodd" clip-rule="evenodd" d="M5.75499 42.0515C4.23345 42.0515 3 43.2849 3 44.8065C3 46.328 4.23345 47.5615 5.75499 47.5615H23.5712C23.8111 48.1372 24.1615 48.6604 24.6025 49.1015C25.046 49.5449 25.5724 49.8967 26.1518 50.1367C26.7311 50.3766 27.3521 50.5002 27.9792 50.5002V45.7248H27.6651C26.9087 43.5848 24.8677 42.0515 22.4686 42.0515H5.75499Z" fill="#0055B8"/>
<path fill-rule="evenodd" clip-rule="evenodd" d="M50.2019 42.0515C51.7235 42.0515 52.9569 43.2849 52.9569 44.8065C52.9569 46.328 51.7235 47.5615 50.2019 47.5615H32.3861C32.1462 48.1372 31.7958 48.6604 31.3547 49.1015C30.9113 49.5449 30.3849 49.8967 29.8055 50.1367C29.2261 50.3766 28.6052 50.5002 27.9781 50.5002V45.7248H28.2919C29.0483 43.5848 31.0892 42.0515 33.4883 42.0515H50.2019Z" fill="#0055B8"/>
<path d="M7.87695 24.7868C9.19529 24.7868 10.2646 25.9384 10.2646 27.3581C10.2646 25.9384 11.3339 24.7868 12.6523 24.7868C11.3339 24.7868 10.2646 23.6352 10.2646 22.2155C10.2646 23.6352 9.19529 24.7868 7.87695 24.7868Z" fill="#EFFFCF"/>
<path d="M4.83728 32.1334C7.06661 32.1334 8.87793 33.9447 8.87793 36.174C8.87793 33.9447 10.6893 32.1334 12.9186 32.1334C10.6893 32.1334 8.87793 30.3221 8.87793 28.0927C8.87793 30.3221 7.06661 32.1334 4.83728 32.1334Z" fill="#EFFFCF"/>
<path d="M42.6714 33.2354C44.9007 33.2354 46.7121 35.0467 46.7121 37.276C46.7121 35.0467 48.5234 33.2354 50.7527 33.2354C48.5234 33.2354 46.7121 31.4241 46.7121 29.1947C46.7121 31.4241 44.9007 33.2354 42.6714 33.2354Z" fill="#EFFFCF"/>
<path d="M27.8789 23.7046C29.3185 23.7046 30.4855 22.5376 30.4855 21.098C30.4855 19.6584 29.3185 18.4914 27.8789 18.4914C26.4393 18.4914 25.2722 19.6584 25.2722 21.098C25.2722 22.5376 26.4393 23.7046 27.8789 23.7046Z" fill="#9AD719"/>
<path d="M27.8788 35C26.0541 35 24.4771 32.2891 23.6604 27.7449C21.4056 15.2374 26.0932 2.31722 30.2204 8.86855C30.2815 8.96649 30.3011 9.08467 30.275 9.1971C30.249 9.30954 30.1793 9.40701 30.0814 9.46807C29.9834 9.52914 29.8652 9.5488 29.7528 9.52273C29.6404 9.49666 29.5429 9.42699 29.4818 9.32905C26.141 4.00719 22.5743 16.8144 24.5119 27.5885C25.22 31.5245 26.5755 34.1311 27.8788 34.1311C31.2153 34.1311 33.2528 19.9684 30.4854 11.6012C30.4545 11.4931 30.4668 11.3772 30.5196 11.278C30.5723 11.1787 30.6615 11.1038 30.7684 11.0689C30.8752 11.0341 30.9915 11.042 31.0926 11.091C31.1938 11.14 31.272 11.2263 31.3108 11.3318C34.0695 19.6861 32.3795 35 27.8788 35Z" fill="#9AD719"/>
<path d="M27.8788 35C26.0541 35 24.4771 32.2891 23.6604 27.7449C21.4056 15.2374 26.0932 2.31722 30.2204 8.86855C30.2815 8.96649 30.3011 9.08467 30.275 9.1971C30.249 9.30954 30.1793 9.40701 30.0814 9.46807C29.9834 9.52914 29.8652 9.5488 29.7528 9.52273C29.6404 9.49666 29.5429 9.42699 29.4818 9.32905C26.141 4.00719 22.5743 16.8144 24.5119 27.5885C25.22 31.5245 26.5755 34.1311 27.8788 34.1311C31.2153 34.1311 33.2528 19.9684 30.4854 11.6012C30.4545 11.4931 30.4668 11.3772 30.5196 11.278C30.5723 11.1787 30.6615 11.1038 30.7684 11.0689C30.8752 11.0341 30.9915 11.042 31.0926 11.091C31.1938 11.14 31.272 11.2263 31.3108 11.3318C34.0695 19.6861 32.3795 35 27.8788 35Z" fill="#9AD719"/>
<path d="M30.4855 11.5403C31.2053 11.5403 31.7888 10.9568 31.7888 10.237C31.7888 9.51723 31.2053 8.93372 30.4855 8.93372C29.7657 8.93372 29.1822 9.51723 29.1822 10.237C29.1822 10.9568 29.7657 11.5403 30.4855 11.5403Z" fill="#9AD719"/>
<path d="M27.8788 35C26.0541 35 24.4771 32.2891 23.6604 27.7449C21.4056 15.2374 26.0932 2.31722 30.2204 8.86855C30.2815 8.96649 30.3011 9.08467 30.275 9.1971C30.249 9.30954 30.1793 9.40701 30.0814 9.46807C29.9834 9.52914 29.8652 9.5488 29.7528 9.52273C29.6404 9.49666 29.5429 9.42699 29.4818 9.32905C26.141 4.00719 22.5743 16.8144 24.5119 27.5885C25.22 31.5245 26.5755 34.1311 27.8788 34.1311C31.2153 34.1311 33.2528 19.9684 30.4854 11.6012C30.4545 11.4931 30.4668 11.3772 30.5196 11.278C30.5723 11.1787 30.6615 11.1038 30.7684 11.0689C30.8752 11.0341 30.9915 11.042 31.0926 11.091C31.1938 11.14 31.272 11.2263 31.3108 11.3318C34.0695 19.6861 32.3795 35 27.8788 35Z" fill="#9AD719"/>
<path d="M27.8788 35C26.0541 35 24.4771 32.2891 23.6604 27.7449C21.4056 15.2374 26.0932 2.31722 30.2204 8.86855C30.2815 8.96649 30.3011 9.08467 30.275 9.1971C30.249 9.30954 30.1793 9.40701 30.0814 9.46807C29.9834 9.52914 29.8652 9.5488 29.7528 9.52273C29.6404 9.49666 29.5429 9.42699 29.4818 9.32905C26.141 4.00719 22.5743 16.8144 24.5119 27.5885C25.22 31.5245 26.5755 34.1311 27.8788 34.1311C31.2153 34.1311 33.2528 19.9684 30.4854 11.6012C30.4545 11.4931 30.4668 11.3772 30.5196 11.278C30.5723 11.1787 30.6615 11.1038 30.7684 11.0689C30.8752 11.0341 30.9915 11.042 31.0926 11.091C31.1938 11.14 31.272 11.2263 31.3108 11.3318C34.0695 19.6861 32.3795 35 27.8788 35Z" fill="#9AD719"/>
<path d="M30.4855 11.5403C31.2053 11.5403 31.7888 10.9568 31.7888 10.237C31.7888 9.51723 31.2053 8.93372 30.4855 8.93372C29.7657 8.93372 29.1822 9.51723 29.1822 10.237C29.1822 10.9568 29.7657 11.5403 30.4855 11.5403Z" fill="#9AD719"/>
<path d="M37.2844 29.2437C37.1692 29.2437 37.0587 29.1979 36.9772 29.1164C36.8958 29.035 36.85 28.9245 36.85 28.8092C36.85 28.694 36.8958 28.5835 36.9772 28.5021C37.0587 28.4206 37.1692 28.3748 37.2844 28.3748C41.4811 28.2097 38.4314 24.1564 35.2035 21.4238C28.4262 15.6936 18.0041 12.1225 16.5835 14.5814C14.8457 17.5921 26.506 26.4155 34.7908 28.1185C34.906 28.1415 35.0073 28.2094 35.0725 28.3072C35.1377 28.4049 35.1614 28.5246 35.1383 28.6398C35.1153 28.755 35.0474 28.8564 34.9496 28.9216C34.8519 28.9867 34.7322 29.0104 34.617 28.9874C29.8903 28.0142 23.856 24.7082 20.0068 21.4455C10.4492 13.3346 17.4002 9.55929 30.2683 16.9752C32.2046 18.0809 34.0393 19.3559 35.7509 20.7852C39.2698 23.7654 40.8295 26.485 39.9215 28.0664C39.4219 28.9179 38.2185 29.2437 37.2844 29.2437Z" fill="#9AD719"/>
<path d="M37.2844 29.2437C37.1692 29.2437 37.0587 29.1979 36.9772 29.1164C36.8958 29.035 36.85 28.9245 36.85 28.8092C36.85 28.694 36.8958 28.5835 36.9772 28.5021C37.0587 28.4206 37.1692 28.3748 37.2844 28.3748C41.4811 28.2097 38.4314 24.1564 35.2035 21.4238C28.4262 15.6936 18.0041 12.1225 16.5835 14.5814C14.8457 17.5921 26.506 26.4155 34.7908 28.1185C34.906 28.1415 35.0073 28.2094 35.0725 28.3072C35.1377 28.4049 35.1614 28.5246 35.1383 28.6398C35.1153 28.755 35.0474 28.8564 34.9496 28.9216C34.8519 28.9867 34.7322 29.0104 34.617 28.9874C29.8903 28.0142 23.856 24.7082 20.0068 21.4455C10.4492 13.3346 17.4002 9.55929 30.2683 16.9752C32.2046 18.0809 34.0393 19.3559 35.7509 20.7852C39.2698 23.7654 40.8295 26.485 39.9215 28.0664C39.4219 28.9179 38.2185 29.2437 37.2844 29.2437Z" fill="#9AD719"/>
<path d="M35.9813 30.0909C36.7011 30.0909 37.2846 29.5073 37.2846 28.7875C37.2846 28.0677 36.7011 27.4842 35.9813 27.4842C35.2615 27.4842 34.6779 28.0677 34.6779 28.7875C34.6779 29.5073 35.2615 30.0909 35.9813 30.0909Z" fill="#9AD719"/>
<path d="M37.2844 29.2437C37.1692 29.2437 37.0587 29.1979 36.9772 29.1164C36.8958 29.035 36.85 28.9245 36.85 28.8092C36.85 28.694 36.8958 28.5835 36.9772 28.5021C37.0587 28.4206 37.1692 28.3748 37.2844 28.3748C41.4811 28.2097 38.4314 24.1564 35.2035 21.4238C28.4262 15.6936 18.0041 12.1225 16.5835 14.5814C14.8457 17.5921 26.506 26.4155 34.7908 28.1185C34.906 28.1415 35.0073 28.2094 35.0725 28.3072C35.1377 28.4049 35.1614 28.5246 35.1383 28.6398C35.1153 28.755 35.0474 28.8564 34.9496 28.9216C34.8519 28.9867 34.7322 29.0104 34.617 28.9874C29.8903 28.0142 23.856 24.7082 20.0068 21.4455C10.4492 13.3346 17.4002 9.55929 30.2683 16.9752C32.2046 18.0809 34.0393 19.3559 35.7509 20.7852C39.2698 23.7654 40.8295 26.485 39.9215 28.0664C39.4219 28.9179 38.2185 29.2437 37.2844 29.2437Z" fill="#9AD719"/>
<path d="M37.2844 29.2437C37.1692 29.2437 37.0587 29.1979 36.9772 29.1164C36.8958 29.035 36.85 28.9245 36.85 28.8092C36.85 28.694 36.8958 28.5835 36.9772 28.5021C37.0587 28.4206 37.1692 28.3748 37.2844 28.3748C41.4811 28.2097 38.4314 24.1564 35.2035 21.4238C28.4262 15.6936 18.0041 12.1225 16.5835 14.5814C14.8457 17.5921 26.506 26.4155 34.7908 28.1185C34.906 28.1415 35.0073 28.2094 35.0725 28.3072C35.1377 28.4049 35.1614 28.5246 35.1383 28.6398C35.1153 28.755 35.0474 28.8564 34.9496 28.9216C34.8519 28.9867 34.7322 29.0104 34.617 28.9874C29.8903 28.0142 23.856 24.7082 20.0068 21.4455C10.4492 13.3346 17.4002 9.55929 30.2683 16.9752C32.2046 18.0809 34.0393 19.3559 35.7509 20.7852C39.2698 23.7654 40.8295 26.485 39.9215 28.0664C39.4219 28.9179 38.2185 29.2437 37.2844 29.2437Z" fill="#9AD719"/>
<path d="M35.9813 30.0909C36.7011 30.0909 37.2846 29.5073 37.2846 28.7875C37.2846 28.0677 36.7011 27.4842 35.9813 27.4842C35.2615 27.4842 34.6779 28.0677 34.6779 28.7875C34.6779 29.5073 35.2615 30.0909 35.9813 30.0909Z" fill="#9AD719"/>
<path d="M18.7556 29.2437C15.8275 29.2437 14.8457 27.5928 16.0925 25.186C16.1455 25.0835 16.2371 25.0062 16.3471 24.9712C16.457 24.9361 16.5764 24.9462 16.679 24.9992C16.7815 25.0522 16.8588 25.1438 16.8939 25.2538C16.9289 25.3638 16.9188 25.4832 16.8658 25.5857C13.9247 31.2334 26.9882 27.7058 35.1687 20.7678C38.2184 18.2003 39.8172 15.7153 39.1742 14.5814C38.5312 13.4475 35.5684 13.5909 31.8279 14.9376C27.2749 16.5624 21.5404 19.9988 18.3212 23.5743C18.244 23.6601 18.1358 23.7118 18.0206 23.7179C17.9053 23.724 17.7923 23.684 17.7064 23.6069C17.6206 23.5297 17.5689 23.4215 17.5628 23.3062C17.5567 23.1909 17.5967 23.078 17.6739 22.9921C19.7896 20.6635 22.7611 18.5348 25.4894 16.9578C38.5225 9.44634 45.2086 13.4214 35.7508 21.4281C31.6497 24.9036 23.7951 29.2437 18.7556 29.2437Z" fill="#9AD719"/>
<path d="M18.7556 29.2437C15.8275 29.2437 14.8457 27.5928 16.0925 25.186C16.1455 25.0835 16.2371 25.0062 16.3471 24.9712C16.457 24.9361 16.5764 24.9462 16.679 24.9992C16.7815 25.0522 16.8588 25.1438 16.8939 25.2538C16.9289 25.3638 16.9188 25.4832 16.8658 25.5857C13.9247 31.2334 26.9882 27.7058 35.1687 20.7678C38.2184 18.2003 39.8172 15.7153 39.1742 14.5814C38.5312 13.4475 35.5684 13.5909 31.8279 14.9376C27.2749 16.5624 21.5404 19.9988 18.3212 23.5743C18.244 23.6601 18.1358 23.7118 18.0206 23.7179C17.9053 23.724 17.7923 23.684 17.7064 23.6069C17.6206 23.5297 17.5689 23.4215 17.5628 23.3062C17.5567 23.1909 17.5967 23.078 17.6739 22.9921C19.7896 20.6635 22.7611 18.5348 25.4894 16.9578C38.5225 9.44634 45.2086 13.4214 35.7508 21.4281C31.6497 24.9036 23.7951 29.2437 18.7556 29.2437Z" fill="#9AD719"/>
<path d="M17.1698 25.5727C17.8896 25.5727 18.4731 24.9892 18.4731 24.2694C18.4731 23.5496 17.8896 22.9661 17.1698 22.9661C16.45 22.9661 15.8665 23.5496 15.8665 24.2694C15.8665 24.9892 16.45 25.5727 17.1698 25.5727Z" fill="#9AD719"/>
<path d="M18.7556 29.2437C15.8275 29.2437 14.8457 27.5928 16.0925 25.186C16.1455 25.0835 16.2371 25.0062 16.3471 24.9712C16.457 24.9361 16.5764 24.9462 16.679 24.9992C16.7815 25.0522 16.8588 25.1438 16.8939 25.2538C16.9289 25.3638 16.9188 25.4832 16.8658 25.5857C13.9247 31.2334 26.9882 27.7058 35.1687 20.7678C38.2184 18.2003 39.8172 15.7153 39.1742 14.5814C38.5312 13.4475 35.5684 13.5909 31.8279 14.9376C27.2749 16.5624 21.5404 19.9988 18.3212 23.5743C18.244 23.6601 18.1358 23.7118 18.0206 23.7179C17.9053 23.724 17.7923 23.684 17.7064 23.6069C17.6206 23.5297 17.5689 23.4215 17.5628 23.3062C17.5567 23.1909 17.5967 23.078 17.6739 22.9921C19.7896 20.6635 22.7611 18.5348 25.4894 16.9578C38.5225 9.44634 45.2086 13.4214 35.7508 21.4281C31.6497 24.9036 23.7951 29.2437 18.7556 29.2437Z" fill="#9AD719"/>
<path d="M18.7556 29.2437C15.8275 29.2437 14.8457 27.5928 16.0925 25.186C16.1455 25.0835 16.2371 25.0062 16.3471 24.9712C16.457 24.9361 16.5764 24.9462 16.679 24.9992C16.7815 25.0522 16.8588 25.1438 16.8939 25.2538C16.9289 25.3638 16.9188 25.4832 16.8658 25.5857C13.9247 31.2334 26.9882 27.7058 35.1687 20.7678C38.2184 18.2003 39.8172 15.7153 39.1742 14.5814C38.5312 13.4475 35.5684 13.5909 31.8279 14.9376C27.2749 16.5624 21.5404 19.9988 18.3212 23.5743C18.244 23.6601 18.1358 23.7118 18.0206 23.7179C17.9053 23.724 17.7923 23.684 17.7064 23.6069C17.6206 23.5297 17.5689 23.4215 17.5628 23.3062C17.5567 23.1909 17.5967 23.078 17.6739 22.9921C19.7896 20.6635 22.7611 18.5348 25.4894 16.9578C38.5225 9.44634 45.2086 13.4214 35.7508 21.4281C31.6497 24.9036 23.7951 29.2437 18.7556 29.2437Z" fill="#9AD719"/>
<path d="M17.1698 25.5727C17.8896 25.5727 18.4731 24.9892 18.4731 24.2694C18.4731 23.5496 17.8896 22.9661 17.1698 22.9661C16.45 22.9661 15.8665 23.5496 15.8665 24.2694C15.8665 24.9892 16.45 25.5727 17.1698 25.5727Z" fill="#9AD719"/>
<g style="mix-blend-mode:multiply" opacity="0.15">
<path d="M27.8788 23.7046C27.5 23.7042 27.1258 23.6213 26.7822 23.4615C26.4387 23.3017 26.1342 23.069 25.8898 22.7795C25.6454 22.4901 25.467 22.1508 25.3671 21.7854C25.2672 21.4199 25.2481 21.0371 25.3113 20.6635C25.7892 23.5482 29.9685 23.5439 30.4463 20.6635C30.5095 21.0371 30.4904 21.4199 30.3905 21.7854C30.2906 22.1508 30.1123 22.4901 29.8679 22.7795C29.6235 23.069 29.3189 23.3017 28.9754 23.4615C28.6319 23.6213 28.2577 23.7042 27.8788 23.7046Z" fill="#9AD719"/>
</g>
<g style="mix-blend-mode:multiply" opacity="0.15">
<path d="M30.4854 11.5404C30.2772 11.5398 30.0722 11.4893 29.8875 11.3932C29.7028 11.2971 29.5438 11.1582 29.4238 10.988C29.3039 10.8179 29.2264 10.6214 29.198 10.4152C29.1695 10.209 29.1909 9.9989 29.2603 9.80261C29.3516 10.0542 29.5182 10.2716 29.7374 10.4252C29.9565 10.5789 30.2177 10.6613 30.4854 10.6613C30.7531 10.6613 31.0142 10.5789 31.2334 10.4252C31.4526 10.2716 31.6192 10.0542 31.7105 9.80261C31.7799 9.9989 31.8013 10.209 31.7728 10.4152C31.7444 10.6214 31.6669 10.8179 31.5469 10.988C31.427 11.1582 31.268 11.2971 31.0833 11.3932C30.8986 11.4893 30.6936 11.5398 30.4854 11.5404Z" fill="#9AD719"/>
</g>
<g style="mix-blend-mode:multiply" opacity="0.15">
<path d="M37.1106 29.4392C36.947 29.7192 36.685 29.9282 36.3756 30.0253C36.0662 30.1225 35.7317 30.1008 35.4375 29.9645C35.1432 29.8283 34.9103 29.5872 34.7843 29.2884C34.6583 28.9896 34.6481 28.6546 34.7559 28.3488C34.8472 28.6004 35.0138 28.8177 35.233 28.9714C35.4522 29.125 35.7134 29.2074 35.981 29.2074C36.2487 29.2074 36.5099 29.125 36.729 28.9714C36.9482 28.8177 37.1148 28.6004 37.2061 28.3488C37.2702 28.5266 37.2949 28.7162 37.2784 28.9045C37.2619 29.0928 37.2046 29.2752 37.1106 29.4392Z" fill="#9AD719"/>
</g>
<g style="mix-blend-mode:multiply" opacity="0.15">
<path d="M17.8215 25.3989C17.5907 25.531 17.3251 25.5893 17.0602 25.5661C16.7953 25.5429 16.5439 25.4392 16.3397 25.269C16.1354 25.0988 15.9881 24.8702 15.9175 24.6139C15.8469 24.3575 15.8564 24.0857 15.9447 23.8349C16.036 24.0865 16.2026 24.3039 16.4218 24.4575C16.641 24.6112 16.9021 24.6936 17.1698 24.6936C17.4375 24.6936 17.6986 24.6112 17.9178 24.4575C18.137 24.3039 18.3036 24.0865 18.3949 23.8349C18.4969 24.1216 18.4954 24.4349 18.3907 24.7205C18.2859 25.0061 18.0846 25.2461 17.8215 25.3989Z" fill="#9AD719"/>
</g>
</svg>
