<svg width="56" height="56" viewBox="0 0 56 56" fill="none" xmlns="http://www.w3.org/2000/svg">
<path d="M21.3292 42.635C22.1372 43.2203 22.9475 43.4507 23.5719 43.5863C25.2312 43.9471 27.068 43.5837 28.6191 42.5306C29.1084 42.1985 29.567 41.7988 29.9778 41.3285L43.6784 25.622C44.3563 24.9852 45.0082 24.0861 45.9192 23.1879L47.3456 21.6599L48.9223 19.8828C51.8528 16.5828 50.1209 11.5004 45.8282 10.7775L17.9355 6.09403C13.0802 5.28185 8.82499 9.87873 10.3262 14.3079L14.5835 26.7171L14.5523 26.7383L15.6898 29.7357L18.1085 37.0171C18.1085 37.0171 18.3591 37.7895 18.781 38.7694L18.7914 38.7623C19.1627 39.5557 19.8238 40.9328 20.4162 41.7381L20.4058 41.7452C20.6935 42.1242 21.0127 42.4376 21.3292 42.635Z" fill="#FFDFAE"/>
<path d="M27.9785 46.2758V38.1945L26.8519 37.2916C24.5891 35.4782 21.5014 35.0845 18.8559 36.2719C16.5675 37.299 14.102 37.8736 11.5954 37.964L9.15285 38.0521C6.94929 38.1315 5.20397 39.9409 5.20397 42.1459V46.2758H27.9785Z" fill="#FFC978"/>
<path d="M27.9793 46.2757V38.1944L29.106 37.2916C31.3688 35.4782 34.4564 35.0844 37.102 36.2718C39.3903 37.299 41.8558 37.8736 44.3625 37.9639L46.805 38.052C49.0086 38.1315 50.7539 39.9409 50.7539 42.1459V46.2757H27.9793Z" fill="#FFC978"/>
<path fill-rule="evenodd" clip-rule="evenodd" d="M5.75499 42.0515C4.23345 42.0515 3 43.2849 3 44.8065C3 46.328 4.23345 47.5615 5.75499 47.5615H23.5712C23.8111 48.1372 24.1615 48.6604 24.6025 49.1015C25.046 49.5449 25.5724 49.8967 26.1518 50.1367C26.7311 50.3766 27.3521 50.5002 27.9792 50.5002V45.7248H27.6651C26.9087 43.5848 24.8677 42.0515 22.4686 42.0515H5.75499Z" fill="#0055B8"/>
<path fill-rule="evenodd" clip-rule="evenodd" d="M50.2019 42.0515C51.7235 42.0515 52.9569 43.2849 52.9569 44.8065C52.9569 46.328 51.7235 47.5615 50.2019 47.5615H32.3861C32.1462 48.1372 31.7958 48.6604 31.3547 49.1015C30.9113 49.5449 30.3849 49.8967 29.8055 50.1367C29.2261 50.3766 28.6052 50.5002 27.9781 50.5002V45.7248H28.2919C29.0482 43.5848 31.0892 42.0515 33.4883 42.0515H50.2019Z" fill="#0055B8"/>
<path d="M7.87695 24.7868C9.19529 24.7868 10.2646 25.9384 10.2646 27.3581C10.2646 25.9384 11.3339 24.7868 12.6523 24.7868C11.3339 24.7868 10.2646 23.6352 10.2646 22.2155C10.2646 23.6352 9.19529 24.7868 7.87695 24.7868Z" fill="#FFDFAE"/>
<path d="M4.83728 32.1334C7.0666 32.1334 8.87793 33.9447 8.87793 36.174C8.87793 33.9447 10.6893 32.1334 12.9186 32.1334C10.6893 32.1334 8.87793 30.3221 8.87793 28.0927C8.87793 30.3221 7.0666 32.1334 4.83728 32.1334Z" fill="#FFDFAE"/>
<path d="M42.6714 33.2354C44.9007 33.2354 46.7121 35.0467 46.7121 37.276C46.7121 35.0467 48.5234 33.2354 50.7527 33.2354C48.5234 33.2354 46.7121 31.4241 46.7121 29.1947C46.7121 31.4241 44.9007 33.2354 42.6714 33.2354Z" fill="#FFDFAE"/>
<g clip-path="url(#clip0_40_2252)">
<path d="M28 34C34.2132 34 39.25 28.9632 39.25 22.75C39.25 16.5368 34.2132 11.5 28 11.5C21.7868 11.5 16.75 16.5368 16.75 22.75C16.75 28.9632 21.7868 34 28 34Z" fill="white"/>
<path d="M31.913 22.75C31.913 23.7283 30.1611 26.1739 28 26.1739C25.8389 26.1739 24.087 23.7283 24.087 22.75C24.087 20.5889 25.8389 18.837 28 18.837C30.1611 18.837 31.913 20.5889 31.913 22.75Z" fill="#D80027"/>
<path d="M31.913 22.75C31.913 24.9111 30.1611 26.663 28 26.663C25.8389 26.663 24.087 24.9111 24.087 22.75" fill="#0052B4"/>
<path d="M32.1473 26.2088L33.1848 25.1714L33.8764 25.863L32.839 26.9005L32.1473 26.2088Z" fill="black"/>
<path d="M30.4178 27.938L31.4552 26.9006L32.1468 27.5922L31.1094 28.6296L30.4178 27.938Z" fill="black"/>
<path d="M34.2224 28.2836L35.2598 27.2462L35.9514 27.9378L34.914 28.9753L34.2224 28.2836Z" fill="black"/>
<path d="M32.4928 30.013L33.5303 28.9756L34.2219 29.6672L33.1845 30.7047L32.4928 30.013Z" fill="black"/>
<path d="M33.1848 27.2463L34.2222 26.2089L34.9139 26.9005L33.8764 27.938L33.1848 27.2463Z" fill="black"/>
<path d="M31.4557 28.9754L32.4931 27.938L33.1848 28.6296L32.1473 29.6671L31.4557 28.9754Z" fill="black"/>
<path d="M34.2269 19.2931L31.4604 16.5266L32.1521 15.8349L34.9186 18.6014L34.2269 19.2931Z" fill="black"/>
<path d="M31.4599 18.6017L30.4225 17.5643L31.1141 16.8727L32.1515 17.9101L31.4599 18.6017Z" fill="black"/>
<path d="M33.189 20.3312L32.1516 19.2938L32.8432 18.6022L33.8806 19.6396L33.189 20.3312Z" fill="black"/>
<path d="M33.5346 16.5265L32.4971 15.489L33.1888 14.7974L34.2262 15.8348L33.5346 16.5265Z" fill="black"/>
<path d="M35.2646 18.2562L34.2272 17.2187L34.9188 16.5271L35.9562 17.5645L35.2646 18.2562Z" fill="black"/>
<path d="M20.7382 27.2444L23.5047 30.0109L22.8131 30.7025L20.0466 27.936L20.7382 27.2444Z" fill="black"/>
<path d="M23.5046 27.9355L24.542 28.9729L23.8504 29.6645L22.813 28.6271L23.5046 27.9355Z" fill="black"/>
<path d="M21.7754 26.2067L22.8128 27.2442L22.1212 27.9358L21.0837 26.8984L21.7754 26.2067Z" fill="black"/>
<path d="M22.8129 25.169L25.5794 27.9355L24.8878 28.6271L22.1213 25.8606L22.8129 25.169Z" fill="black"/>
<path d="M23.5044 15.4869L20.7379 18.2534L20.0463 17.5617L22.8128 14.7952L23.5044 15.4869Z" fill="black"/>
<path d="M24.5419 16.5242L21.7754 19.2907L21.0838 18.5991L23.8503 15.8326L24.5419 16.5242Z" fill="black"/>
<path d="M25.5803 17.5623L22.8138 20.3288L22.1222 19.6372L24.8887 16.8707L25.5803 17.5623Z" fill="black"/>
</g>
<defs>
<clipPath id="clip0_40_2252">
<rect width="22.5" height="22.5" fill="white" transform="translate(16.75 11.5)"/>
</clipPath>
</defs>
</svg>
