<svg width="56" height="56" viewBox="0 0 56 56" fill="none" xmlns="http://www.w3.org/2000/svg">
<path d="M21.3287 42.635C22.1367 43.2203 22.947 43.4506 23.5714 43.5863C25.2307 43.9471 27.0675 43.5836 28.6186 42.5306C29.1079 42.1985 29.5665 41.7987 29.9773 41.3285L43.6779 25.622C44.3558 24.9851 45.0077 24.0861 45.9187 23.1878L47.3452 21.6599L48.9218 19.8828C51.8523 16.5828 50.1204 11.5003 45.8277 10.7775L17.935 6.094C13.0797 5.28182 8.8245 9.8787 10.3257 14.3078L14.583 26.7171L14.5518 26.7383L15.6894 29.7357L18.108 37.0171C18.108 37.0171 18.3586 37.7894 18.7805 38.7694L18.7909 38.7623C19.1622 39.5557 19.8234 40.9328 20.4157 41.7381L20.4053 41.7452C20.693 42.1242 21.0122 42.4375 21.3287 42.635Z" fill="#FEEFEF"/>
<path d="M27.9786 46.2758V38.1945L26.8519 37.2917C24.5891 35.4783 21.5014 35.0845 18.8559 36.2719C16.5676 37.2991 14.1021 37.8737 11.5954 37.964L9.15286 38.0521C6.94931 38.1316 5.20398 39.941 5.20398 42.146V46.2758H27.9786Z" fill="#F9B0B1"/>
<path d="M27.9784 46.2757V38.1944L29.105 37.2916C31.3678 35.4782 34.4555 35.0844 37.101 36.2718C39.3894 37.299 41.8549 37.8736 44.3615 37.9639L46.8041 38.052C49.0076 38.1315 50.7529 39.9409 50.7529 42.1459V46.2757H27.9784Z" fill="#F9B0B1"/>
<path d="M26.5574 14.1343C26.5574 13.5031 26.0457 12.9915 25.4146 12.9915H22.5576V10.1344C22.5576 9.50329 22.0459 8.99164 21.4147 8.99164C20.7836 8.99164 20.2719 9.50329 20.2719 10.1344V12.9915H17.4149C16.7837 12.9915 16.2721 13.5031 16.2721 14.1343C16.2721 14.7654 16.7837 15.2771 17.4149 15.2771H20.2719V18.1341C20.2719 18.7653 20.7836 19.2769 21.4147 19.2769C22.0459 19.2769 22.5576 18.7653 22.5576 18.1341V15.2771H25.4146C26.0457 15.2771 26.5574 14.7654 26.5574 14.1343Z" fill="#F46264"/>
<path d="M38.1023 25.9907C38.5442 25.5481 38.5439 24.8311 38.1016 24.3888C37.6593 23.9465 36.9423 23.9462 36.4996 24.3881L34.1269 26.7566L31.7541 24.3881C31.3115 23.9462 30.5945 23.9465 30.1522 24.3888C29.7099 24.8311 29.7096 25.5481 30.1515 25.9907L32.52 28.3635L30.1515 30.7362C29.7096 31.1789 29.7099 31.8959 30.1522 32.3382C30.5945 32.7805 31.3115 32.7808 31.7541 32.3389L34.1269 29.9704L36.4996 32.3389C36.9423 32.7808 37.6593 32.7805 38.1016 32.3382C38.5439 31.8959 38.5442 31.1789 38.1023 30.7362L35.7338 28.3635L38.1023 25.9907Z" fill="#F46264"/>
<path d="M30.5971 15.2362H38.6784C39.287 15.2362 39.7804 14.7428 39.7804 14.1342C39.7804 13.5256 39.287 13.0322 38.6784 13.0322H30.5971C29.9885 13.0322 29.4951 13.5256 29.4951 14.1342C29.4951 14.7428 29.9885 15.2362 30.5971 15.2362Z" fill="#F46264"/>
<path d="M17.3559 29.5438H25.2804C25.9056 29.5438 26.4125 29.037 26.4125 28.4117C26.4125 27.7865 25.9056 27.2797 25.2804 27.2797H17.3559C16.7306 27.2797 16.2238 27.7865 16.2238 28.4117C16.2238 29.037 16.7307 29.5438 17.3559 29.5438Z" fill="#F46264"/>
<path d="M21.3186 25.5816C21.9438 25.5816 22.4507 25.0747 22.4507 24.4495C22.4507 23.8243 21.9438 23.3174 21.3186 23.3174C20.6934 23.3174 20.1865 23.8243 20.1865 24.4495C20.1865 25.0747 20.6934 25.5816 21.3186 25.5816Z" fill="#F46264"/>
<path d="M21.3186 33.5061C21.9438 33.5061 22.4507 32.9993 22.4507 32.374C22.4507 31.7488 21.9438 31.242 21.3186 31.242C20.6934 31.242 20.1865 31.7488 20.1865 32.374C20.1865 32.9993 20.6934 33.5061 21.3186 33.5061Z" fill="#F46264"/>
<path fill-rule="evenodd" clip-rule="evenodd" d="M5.75499 42.0515C4.23345 42.0515 3 43.2849 3 44.8064C3 46.328 4.23345 47.5614 5.75499 47.5614H23.5707C23.8106 48.1372 24.161 48.6604 24.6021 49.1015C25.0455 49.5449 25.5719 49.8967 26.1513 50.1367C26.7306 50.3766 27.3516 50.5002 27.9787 50.5002V45.7248H27.6651C26.9087 43.5847 24.8677 42.0515 22.4686 42.0515H5.75499Z" fill="#0055B8"/>
<path fill-rule="evenodd" clip-rule="evenodd" d="M50.2017 42.0515C51.7232 42.0515 52.9567 43.2849 52.9567 44.8064C52.9567 46.328 51.7232 47.5614 50.2017 47.5614H32.3861C32.1462 48.1372 31.7958 48.6604 31.3547 49.1015C30.9113 49.5449 30.3849 49.8967 29.8055 50.1367C29.2261 50.3766 28.6052 50.5002 27.9781 50.5002V45.7248H28.2916C29.048 43.5847 31.089 42.0515 33.4881 42.0515H50.2017Z" fill="#0055B8"/>
<path d="M7.87695 24.7868C9.19529 24.7868 10.2646 25.9384 10.2646 27.3581C10.2646 25.9384 11.3339 24.7868 12.6523 24.7868C11.3339 24.7868 10.2646 23.6352 10.2646 22.2155C10.2646 23.6352 9.19529 24.7868 7.87695 24.7868Z" fill="#FEEFEF"/>
<path d="M4.83691 32.1335C7.06624 32.1335 8.87756 33.9448 8.87756 36.1741C8.87756 33.9448 10.6889 32.1335 12.9182 32.1335C10.6889 32.1335 8.87756 30.3221 8.87756 28.0928C8.87756 30.3221 7.06624 32.1335 4.83691 32.1335Z" fill="#FEEFEF"/>
<path d="M42.6719 33.2353C44.9012 33.2353 46.7125 35.0466 46.7125 37.2759C46.7125 35.0466 48.5239 33.2353 50.7532 33.2353C48.5239 33.2353 46.7125 31.4239 46.7125 29.1946C46.7125 31.4239 44.9012 33.2353 42.6719 33.2353Z" fill="#FEEFEF"/>
</svg>
