<svg width="56" height="56" viewBox="0 0 56 56" fill="none" xmlns="http://www.w3.org/2000/svg">
<path d="M13.066 7C10.8382 7 8.70162 7.885 7.12632 9.4603C5.55101 11.0356 4.66602 13.1722 4.66602 15.4V32.2C4.66602 34.4278 5.55101 36.5644 7.12632 38.1397C8.70162 39.715 10.8382 40.6 13.066 40.6H30.006C30.3076 39.126 31.0758 37.7882 32.1968 36.7847C33.3178 35.7812 34.7321 35.1652 36.2304 35.028C35.4589 34.1698 34.8725 33.1617 34.5078 32.0668C34.1431 30.9719 34.008 29.8136 34.1108 28.6641C34.2136 27.5146 34.5521 26.3987 35.1053 25.3859C35.6585 24.373 36.4144 23.4851 37.326 22.7773C38.2376 22.0696 39.2852 21.5573 40.4035 21.2724C41.5218 20.9875 42.6869 20.936 43.826 21.1213C44.965 21.3066 46.0537 21.7246 47.0241 22.3493C47.9945 22.9739 48.8257 23.7918 49.466 24.752V15.4C49.466 13.1722 48.581 11.0356 47.0057 9.4603C45.4304 7.885 43.2938 7 41.066 7H13.066ZM48.066 29.4C48.066 30.8852 47.476 32.3096 46.4258 33.3598C45.3756 34.41 43.9512 35 42.466 35C40.9808 35 39.5564 34.41 38.5062 33.3598C37.456 32.3096 36.866 30.8852 36.866 29.4C36.866 27.9148 37.456 26.4904 38.5062 25.4402C39.5564 24.39 40.9808 23.8 42.466 23.8C43.9512 23.8 45.3756 24.39 46.4258 25.4402C47.476 26.4904 48.066 27.9148 48.066 29.4ZM52.266 42C52.266 45.486 49.466 49 42.466 49C35.466 49 32.666 45.5 32.666 42C32.666 40.8861 33.1085 39.8178 33.8962 39.0302C34.6838 38.2425 35.7521 37.8 36.866 37.8H48.066C49.1799 37.8 50.2482 38.2425 51.0359 39.0302C51.8235 39.8178 52.266 40.8861 52.266 42Z" fill="#0055B8"/>
<rect x="9.33398" y="14" width="32.6667" height="3.26667" rx="1.63333" fill="white"/>
<rect x="9.33398" y="20.7666" width="18.6667" height="3.26667" rx="1.63333" fill="white"/>
<rect x="9.33398" y="27.5332" width="18.6667" height="3.26667" rx="1.63333" fill="white"/>
</svg>
