<svg width="64" height="64" viewBox="0 0 64 64" fill="none" xmlns="http://www.w3.org/2000/svg">
<g clip-path="url(#clip0_1794_437880)">
<rect width="64" height="64" rx="32" fill="#EFF7FF"/>
<path fill-rule="evenodd" clip-rule="evenodd" d="M36.7885 18H37.8148C38.6313 18 39.4144 18.3339 39.9918 18.9283C40.5692 19.5227 40.8936 20.3289 40.8936 21.1695V29.7358C39.8697 29.2348 38.7063 29.1239 37.6105 29.423C36.5147 29.722 35.5574 30.4116 34.9091 31.3689C34.2607 32.3263 33.9632 33.4894 34.0696 34.6514C34.176 35.8133 34.6793 36.8987 35.49 37.7146H35.1096C34.6115 37.7146 34.1182 37.8156 33.658 38.0118C33.1978 38.208 32.7797 38.4957 32.4275 38.8583C32.0753 39.2209 31.7959 39.6513 31.6052 40.1251C31.4146 40.5989 31.3165 41.1066 31.3165 41.6194V41.7645C31.3165 42.8084 31.6107 43.8536 32.2306 44.765H22.0802C21.2636 44.765 20.4805 44.4311 19.9031 43.8367C19.3257 43.2423 19.0014 42.4361 19.0014 41.5955L19 21.171C19 20.3303 19.3244 19.5242 19.9018 18.9297C20.4791 18.3353 21.2622 18.0014 22.0788 18.0014L23.1009 18L30.6323 18H36.7885ZM24.1272 33.4955H28.9178L29.0574 33.5054C29.303 33.5402 29.5281 33.6654 29.691 33.8578C29.854 34.0502 29.9437 34.2968 29.9437 34.5521C29.9437 34.8073 29.854 35.0539 29.691 35.2463C29.5281 35.4387 29.303 35.5639 29.0574 35.5987L28.9178 35.6086H24.1272L23.9876 35.5987C23.742 35.5639 23.5169 35.4387 23.354 35.2463C23.191 35.0539 23.1013 34.8073 23.1013 34.5521C23.1013 34.2968 23.191 34.0502 23.354 33.8578C23.5169 33.6654 23.742 33.5402 23.9876 33.5054L24.1272 33.4955ZM24.1272 22.2261H35.7595L35.8991 22.2359C36.1448 22.2707 36.3698 22.3959 36.5328 22.5883C36.6957 22.7807 36.7855 23.0273 36.7855 23.2826C36.7855 23.5378 36.6957 23.7845 36.5328 23.9769C36.3698 24.1693 36.1448 24.2944 35.8991 24.3292L35.7595 24.3391H24.1272L23.9876 24.3292C23.742 24.2944 23.5169 24.1693 23.354 23.9769C23.191 23.7845 23.1013 23.5378 23.1013 23.2826C23.1013 23.0273 23.191 22.7807 23.354 22.5883C23.5169 22.3959 23.742 22.2707 23.9876 22.2359L24.1272 22.2261ZM24.1272 29.9738C23.5607 29.9738 23.1009 29.5005 23.1009 28.9173C23.1009 28.6371 23.2091 28.3684 23.4015 28.1702C23.594 27.9721 23.855 27.8608 24.1272 27.8608H31.6572C31.9294 27.8608 32.1904 27.9721 32.3829 28.1702C32.5754 28.3684 32.6835 28.6371 32.6835 28.9173C32.6835 29.1975 32.5754 29.4662 32.3829 29.6644C32.1904 29.8625 31.9294 29.9738 31.6572 29.9738H24.1272Z" fill="#0055B8"/>
<path fill-rule="evenodd" clip-rule="evenodd" d="M41.2613 36.6831C41.9029 36.0226 42.2633 35.1269 42.2633 34.1928C42.2633 33.2588 41.9029 32.3631 41.2613 31.7026C40.6198 31.0422 39.7497 30.6711 38.8424 30.6711C37.9352 30.6711 37.0651 31.0422 36.4235 31.7026C35.782 32.3631 35.4216 33.2588 35.4216 34.1928C35.4216 35.1269 35.782 36.0226 36.4235 36.6831C37.0651 37.3435 37.9352 37.7146 38.8424 37.7146C39.7497 37.7146 40.6198 37.3435 41.2613 36.6831ZM38.8424 46.1667C43.2403 46.1667 45 43.9564 45 41.7645V41.6194C45 40.2403 43.9149 39.1232 42.5739 39.1232H35.1109C33.7713 39.1232 32.6849 40.2389 32.6849 41.6194V41.7645C32.6849 43.9649 34.4446 46.1667 38.8424 46.1667Z" fill="#0055B8"/>
</g>
<defs>
<clipPath id="clip0_1794_437880">
<rect width="64" height="64" fill="white"/>
</clipPath>
</defs>
</svg>
