<svg width="64" height="64" viewBox="0 0 64 64" fill="none" xmlns="http://www.w3.org/2000/svg">
<g clip-path="url(#clip0_1624_418792)">
<circle cx="32" cy="32" r="32" fill="#EFF7FF"/>
<path fill-rule="evenodd" clip-rule="evenodd" d="M42.7507 19H28.1458C26.7909 19 24.7754 19.9413 24.7754 22.5344V30.6331C25.6639 30.4382 26.6156 30.6114 27.3915 31.1447L32.0366 34.3371C32.9042 34.9358 33.4406 35.9088 33.4406 36.9828V40.2875H43.9976C44.5499 40.2875 44.9976 39.8398 44.9976 39.2875V21.3563C44.9976 20.7313 44.7609 20.132 44.3395 19.6901C43.9181 19.2482 43.3466 19 42.7507 19ZM43.8195 45H33.2625C33.3768 44.7277 33.4406 44.4267 33.4406 44.1062V42.6437H43.8195C44.4701 42.6437 44.9976 43.1712 44.9976 43.8219C44.9976 44.4725 44.4701 45 43.8195 45ZM31.5431 28.6013C31.5431 29.0137 31.072 29.2488 30.7425 29.0009L29.3828 27.978C29.2721 27.8947 29.1187 27.8981 29.0117 27.9862L27.8672 28.9292C27.5411 29.1979 27.0493 28.9659 27.0493 28.5433V22.3563C27.0493 21.804 27.497 21.3563 28.0493 21.3563H30.5431C31.0954 21.3563 31.5431 21.804 31.5431 22.3563V28.6013ZM26.5771 32.3352L31.22 35.526C31.7121 35.8656 32 36.4019 32 36.9828V44.1062C32 44.5978 31.5821 45 31.0714 45H27.3571V39.6373H23.6429V45H19.9286C19.4179 45 19 44.5978 19 44.1062V36.9828C19 36.4019 19.2879 35.8656 19.78 35.526L24.4229 32.3352C25.0636 31.8883 25.9271 31.8883 26.5771 32.3352Z" fill="#0055B8"/>
</g>
<defs>
<clipPath id="clip0_1624_418792">
<rect width="64" height="64" fill="white"/>
</clipPath>
</defs>
</svg>
