<svg width="28" height="28" viewBox="0 0 28 28" fill="none" xmlns="http://www.w3.org/2000/svg">
<rect x="1.16797" y="1.1665" width="18.6667" height="25.6667" rx="2.66667" fill="#CFE7FE"/>
<rect x="4.17188" y="7.74463" width="13.1064" height="1.78723" rx="0.893617" fill="#016AE4"/>
<rect x="4.17188" y="13.1064" width="10.5" height="1.75" rx="0.875" fill="#016AE4"/>
<rect x="4.17188" y="18.4683" width="7.74468" height="1.78723" rx="0.893617" fill="#016AE4"/>
<path d="M18.1116 25.375C18.0326 25.375 17.9522 25.3567 17.8768 25.319C17.7516 25.2545 17.6568 25.1435 17.6128 25.0098C17.5688 24.8761 17.5791 24.7304 17.6416 24.6043L20.7937 18.2129C20.8826 18.0323 21.0645 17.9185 21.2637 17.9185C21.4629 17.9185 21.6449 18.0323 21.7337 18.2129L24.8862 24.6043C24.9488 24.7304 24.9592 24.876 24.9153 25.0097C24.8714 25.1435 24.7766 25.2545 24.6514 25.319C24.5896 25.3501 24.5222 25.3686 24.4531 25.3734C24.3841 25.3783 24.3147 25.3693 24.2492 25.3472C24.1836 25.325 24.1231 25.29 24.0711 25.2443C24.0192 25.1985 23.9768 25.1429 23.9466 25.0806L21.2641 19.6419L18.5819 25.0806C18.5388 25.1687 18.4719 25.2429 18.3888 25.295C18.3057 25.347 18.2097 25.3747 18.1116 25.375Z" fill="#FF9E16"/>
<path d="M21.2653 19.8719C21.2192 19.8719 21.1736 19.8626 21.1311 19.8448C21.0886 19.8269 21.0501 19.8008 21.0178 19.7679L16.1143 14.7967C15.9775 14.6578 15.9775 14.4332 16.1143 14.2946C16.2511 14.1561 16.4729 14.1561 16.6094 14.2946L21.2653 19.0144L25.9205 14.2943C25.9529 14.2614 25.9914 14.2353 26.0339 14.2174C26.0765 14.1996 26.1221 14.1904 26.1682 14.1904C26.2143 14.1904 26.26 14.1996 26.3025 14.2174C26.345 14.2353 26.3836 14.2614 26.4159 14.2943C26.4816 14.3613 26.5185 14.4515 26.5185 14.5453C26.5185 14.6392 26.4816 14.7293 26.4159 14.7964L21.5132 19.7679C21.4808 19.8007 21.4422 19.8268 21.3996 19.8447C21.3571 19.8625 21.3114 19.8718 21.2653 19.8719Z" fill="#58595B"/>
<path d="M26.8679 19.5167C26.8679 22.6541 24.3592 25.1973 21.2639 25.1973C18.1692 25.1973 15.6602 22.6541 15.6602 19.5167C15.6602 16.3787 18.1692 13.8354 21.2639 13.8354C24.3589 13.8351 26.8679 16.3787 26.8679 19.5167Z" fill="#EA596E"/>
<path d="M25.4679 19.5169C25.4679 21.8701 23.5868 23.7776 21.265 23.7776C18.9439 23.7776 17.0625 21.8701 17.0625 19.5169C17.0625 17.1634 18.9439 15.2559 21.265 15.2559C23.5868 15.2555 25.4679 17.1634 25.4679 19.5169Z" fill="white"/>
<path d="M25.4668 13.125C25.1901 13.125 24.9161 13.1801 24.661 13.2873C24.4059 13.3945 24.1747 13.5514 23.981 13.7491L26.953 16.7616C27.3485 16.3602 27.5697 15.8189 27.5682 15.2553C27.5682 14.0791 26.6272 13.125 25.4668 13.125ZM16.9764 13.125C17.2532 13.125 17.5271 13.1802 17.7822 13.2873C18.0374 13.3945 18.2685 13.5515 18.4623 13.7491L15.4903 16.7616C15.0947 16.3602 14.8736 15.8189 14.875 15.2553C14.875 14.0791 15.8157 13.125 16.9764 13.125Z" fill="#FF9E16"/>
<path d="M22.9827 19.7335H21.2198C21.1263 19.7335 21.0366 19.6963 20.9705 19.6302C20.9043 19.5641 20.8672 19.4744 20.8672 19.3809V16.2076C20.8672 16.1141 20.9043 16.0244 20.9705 15.9583C21.0366 15.8921 21.1263 15.855 21.2198 15.855C21.3133 15.855 21.403 15.8921 21.4691 15.9583C21.5352 16.0244 21.5724 16.1141 21.5724 16.2076V19.0283H22.9827C23.0762 19.0283 23.1659 19.0654 23.232 19.1316C23.2982 19.1977 23.3353 19.2874 23.3353 19.3809C23.3353 19.4744 23.2982 19.5641 23.232 19.6302C23.1659 19.6963 23.0762 19.7335 22.9827 19.7335Z" fill="#0055B8"/>
</svg>
