<svg width="22" height="18" viewBox="0 0 22 18" fill="none" xmlns="http://www.w3.org/2000/svg">
<path d="M8.125 7.80961C10.3687 7.80961 12.1875 6.21062 12.1875 4.23818C12.1875 2.26573 10.3687 0.666748 8.125 0.666748C5.88134 0.666748 4.0625 2.26573 4.0625 4.23818C4.0625 6.21062 5.88134 7.80961 8.125 7.80961Z" fill="#F9FCFF"/>
<path d="M8.125 10.1906C12.6123 10.1906 16.25 13.3885 16.25 17.3334H0C0 13.3885 3.63769 10.1906 8.125 10.1906Z" fill="#F9FCFF"/>
<path d="M18.9583 5.42865C18.9583 4.77117 18.3521 4.23818 17.6042 4.23818C16.8563 4.23818 16.25 4.77117 16.25 5.42865V6.61913H14.8958C14.1479 6.61913 13.5417 7.15212 13.5417 7.80961C13.5417 8.46709 14.1479 9.00008 14.8958 9.00008H16.25V10.1906C16.25 10.848 16.8563 11.381 17.6042 11.381C18.3521 11.381 18.9583 10.848 18.9583 10.1906V9.00008H20.3125C21.0604 9.00008 21.6667 8.46709 21.6667 7.80961C21.6667 7.15212 21.0604 6.61913 20.3125 6.61913H18.9583V5.42865Z" fill="#F9FCFF"/>
</svg>
