<svg width="32" height="32" viewBox="0 0 32 32" fill="none" xmlns="http://www.w3.org/2000/svg">
<rect x="1.33203" y="1.3335" width="21.3333" height="29.3333" rx="2.66667" fill="#CFE7FE"/>
<path d="M17.5188 24.5343C17.7622 23.7439 18.1602 22.255 18.3934 21.6881C18.5818 21.2307 18.7579 20.771 18.9742 20.5544C19.1905 20.3381 19.5584 20.355 19.7803 20.5762C19.7803 20.5762 20.7091 21.2063 21.042 21.6231C21.4588 21.9548 22.0897 22.8859 22.0897 22.8859C22.3116 23.1078 22.3285 23.4753 22.1122 23.692C21.8956 23.9083 21.4359 24.0844 20.9781 24.2728C20.4116 24.5061 18.9223 24.9033 18.1319 25.1474C17.9969 25.1888 17.4774 24.6693 17.5188 24.5343Z" fill="#D99E82"/>
<path d="M25.6367 13.8922C25.5338 13.9952 25.4521 14.1173 25.3964 14.2518C25.3407 14.3863 25.312 14.5304 25.312 14.676C25.312 14.8216 25.3407 14.9657 25.3964 15.1002C25.4521 15.2347 25.5338 15.3568 25.6367 15.4598L27.2042 17.0276C27.4122 17.2354 27.6941 17.3521 27.988 17.3521C28.2819 17.3521 28.5638 17.2354 28.7718 17.0276L30.3397 15.4598C30.5474 15.2518 30.6641 14.9699 30.6641 14.676C30.6641 14.3821 30.5474 14.1002 30.3397 13.8922L28.7721 12.3247C28.6692 12.2218 28.547 12.1401 28.4126 12.0844C28.2781 12.0287 28.1339 12 27.9884 12C27.8428 12 27.6987 12.0287 27.5642 12.0844C27.4297 12.1401 27.3075 12.2218 27.2046 12.3247L25.6367 13.8922Z" fill="#EA596E"/>
<path d="M18.9748 20.5544L20.5434 22.123L22.1094 23.6898L27.9883 17.8113L24.8529 14.6763L18.9748 20.5544Z" fill="#FFCC4D"/>
<path d="M18.7031 24.9722C18.7031 24.9722 17.6841 25.5324 17.4087 25.257C17.1334 24.9816 17.6965 23.9648 17.6965 23.9648C17.6965 23.9648 18.6617 23.9829 18.7031 24.9722Z" fill="#292F33"/>
<path d="M29.9492 15.8517L26.8138 12.7163L24.8547 14.6758L27.9897 17.8112L29.9492 15.8517Z" fill="#CCD6DD"/>
<path d="M29.5547 16.2434L26.4197 13.1084L26.0277 13.5004L29.1627 16.6354L29.5547 16.2434ZM28.7711 17.0281L25.6357 13.8927L25.2437 14.2847L28.3791 17.4197L28.7711 17.0281Z" fill="#99AAB5"/>
<rect x="4.08594" y="8.85107" width="14.2979" height="2.04255" rx="1.02128" fill="#016AE4"/>
<rect x="4.08594" y="14.2979" width="9.53191" height="2.04255" rx="1.02128" fill="#016AE4"/>
<rect x="4.08594" y="19.7446" width="12.9362" height="2.04255" rx="1.02128" fill="#016AE4"/>
</svg>
