<svg width="20" height="20" viewBox="0 0 20 20" fill="none" xmlns="http://www.w3.org/2000/svg">
<path fill-rule="evenodd" clip-rule="evenodd" d="M4 0C1.79086 0 0 1.79086 0 4V16C0 18.2091 1.79086 20 4 20H16C18.2091 20 20 18.2091 20 16V4C20 1.79086 18.2091 0 16 0H4ZM2.85692 2.10715C3.27114 2.10714 3.60693 2.44292 3.60693 2.85714L3.60706 11.2108L6.74503 8.4817C7.03659 8.22813 7.47308 8.23757 7.7534 8.50352L11.2526 11.8233L15.3955 7.89285H14.2642C13.85 7.89285 13.5142 7.55707 13.5142 7.14285C13.5142 6.72864 13.85 6.39285 14.2642 6.39285H17.2758C17.69 6.39285 18.0258 6.72864 18.0258 7.14285V9.99999C18.0258 10.4142 17.69 10.75 17.2758 10.75C16.8615 10.75 16.5258 10.4142 16.5258 9.99999V8.88822L11.7688 13.4012C11.4794 13.6758 11.0258 13.6758 10.7364 13.4012L7.21528 10.0606L3.60709 13.1987L3.60711 15C3.60711 15.2651 3.71774 15.5278 3.92869 15.728C4.14097 15.9294 4.43694 16.0489 4.75328 16.0489H17.778C18.1922 16.0489 18.528 16.3847 18.528 16.7989C18.528 17.2132 18.1922 17.5489 17.778 17.5489H4.75328C4.06384 17.5489 3.39521 17.2895 2.89629 16.8161C2.39603 16.3415 2.10711 15.6891 2.10711 15L2.10708 12.8724C2.10688 12.8624 2.10688 12.8525 2.10708 12.8425L2.10693 2.85716C2.10693 2.44294 2.44271 2.10715 2.85692 2.10715Z" fill="#0055B8"/>
</svg>
