<svg width="20" height="17" viewBox="0 0 20 17" fill="none" xmlns="http://www.w3.org/2000/svg">
<path d="M2.7813 8.88723V11.6252C2.7813 12.3364 3.16394 12.999 3.77616 13.34L8.55913 16C9.13309 16.3215 9.82183 16.3215 10.3958 16L15.1788 13.34C15.791 12.999 16.1736 12.3364 16.1736 11.6252V8.88723L10.3958 12.1026C9.82183 12.4241 9.13309 12.4241 8.55913 12.1026L2.7813 8.88723ZM8.55913 0.233844L0.495038 4.71586C-0.165013 5.08612 -0.165013 6.06047 0.495038 6.43072L8.55913 10.9127C9.13309 11.2343 9.82183 11.2343 10.3958 10.9127L18.0868 6.63533V12.3938C18.0868 12.9296 18.5173 13.3681 19.0434 13.3681C19.5695 13.3681 20 12.9296 20 12.3938V6.14816C20 5.78765 19.8087 5.46611 19.5026 5.29073L10.3958 0.233844C10.1132 0.0803107 9.79777 0 9.47746 0C9.15715 0 8.84176 0.0803107 8.55913 0.233844Z" fill="#0055B8"/>
</svg>
