<svg width="56" height="56" viewBox="0 0 56 56" fill="none" xmlns="http://www.w3.org/2000/svg">
<g clip-path="url(#clip0_1965_464213)">
<rect width="56" height="56" rx="28" fill="white"/>
<path opacity="0.3" d="M36.0607 55.6852L37.37 55.9161C38.9491 56.1945 40.4549 55.1401 40.7333 53.5611L46.8301 18.9843C47.1085 17.4053 46.0542 15.8995 44.4751 15.621L19.6247 11.2392C18.0457 10.9608 16.5399 12.0152 16.2615 13.5942L15.7856 16.293L36.0607 55.6852Z" fill="#2BAFFC"/>
<path d="M39.8111 17.6647C41.3901 17.9432 42.4445 19.449 42.1661 21.028L36.0692 55.6048C35.7908 57.1838 34.285 58.2382 32.706 57.9598L7.85558 53.578C6.27654 53.2995 5.22218 51.7937 5.5006 50.2147L10.8765 19.7262L19.049 14.0038L39.8111 17.6647Z" fill="#2BAFFC"/>
<path d="M19.049 14.0038L18.076 19.5217C17.9368 20.3112 17.1839 20.8384 16.3944 20.6992L10.8765 19.7262L19.049 14.0038Z" fill="#007BE0"/>
<path d="M16.6216 27.8064L36.0744 31.2365C36.2586 31.269 36.4482 31.2269 36.6015 31.1196C36.7548 31.0123 36.8591 30.8485 36.8916 30.6642C36.9241 30.48 36.8821 30.2904 36.7748 30.1371C36.6674 29.9838 36.5036 29.8795 36.3194 29.847L16.8666 26.4169C16.6824 26.3844 16.4927 26.4265 16.3395 26.5338C16.1862 26.6411 16.0819 26.8049 16.0494 26.9892C16.0169 27.1734 16.0589 27.363 16.1662 27.5163C16.2736 27.6696 16.4374 27.7739 16.6216 27.8064Z" fill="white"/>
<path d="M35.5814 34.0154L30.7182 33.1579C30.5339 33.1254 30.3443 33.1674 30.191 33.2748C30.0378 33.3821 29.9334 33.5459 29.9009 33.7301C29.8684 33.9144 29.9105 34.104 30.0178 34.2573C30.1251 34.4105 30.2889 34.5149 30.4732 34.5474L35.3364 35.4049C35.5206 35.4374 35.7102 35.3954 35.8635 35.288C36.0168 35.1807 36.1211 35.0169 36.1536 34.8327C36.1861 34.6484 36.1441 34.4588 36.0367 34.3055C35.9294 34.1523 35.7656 34.0479 35.5814 34.0154Z" fill="white"/>
<path d="M13.106 31.4846L27.6956 34.0572C27.8798 34.0897 28.0694 34.0476 28.2227 33.9403C28.376 33.833 28.4803 33.6692 28.5128 33.4849C28.5453 33.3007 28.5033 33.1111 28.3959 32.9578C28.2886 32.8045 28.1248 32.7002 27.9406 32.6677L13.351 30.0952C13.1667 30.0627 12.9771 30.1047 12.8239 30.212C12.6706 30.3193 12.5662 30.4831 12.5337 30.6674C12.5013 30.8517 12.5433 31.0413 12.6506 31.1945C12.7579 31.3478 12.9217 31.4522 13.106 31.4846Z" fill="white"/>
<path d="M34.8462 38.184L19.5619 35.489C19.3777 35.4565 19.1881 35.4985 19.0348 35.6058C18.8815 35.7131 18.7772 35.8769 18.7447 36.0612C18.7122 36.2455 18.7542 36.4351 18.8615 36.5883C18.9689 36.7416 19.1327 36.846 19.3169 36.8784L34.6012 39.5735C34.7855 39.606 34.9751 39.5639 35.1284 39.4566C35.2816 39.3493 35.386 39.1855 35.4185 39.0012C35.451 38.817 35.4089 38.6274 35.3016 38.4741C35.1943 38.3208 35.0305 38.2165 34.8462 38.184Z" fill="white"/>
<path d="M12.3716 35.6531L16.5401 36.3881C16.7243 36.4206 16.9139 36.3786 17.0672 36.2712C17.2205 36.1639 17.3248 36.0001 17.3573 35.8159C17.3898 35.6316 17.3478 35.442 17.2404 35.2887C17.1331 35.1355 16.9693 35.0311 16.7851 34.9986L12.6166 34.2636C12.4324 34.2311 12.2427 34.2732 12.0895 34.3805C11.9362 34.4878 11.8319 34.6516 11.7994 34.8359C11.7669 35.0201 11.8089 35.2097 11.9162 35.363C12.0236 35.5163 12.1874 35.6206 12.3716 35.6531Z" fill="white"/>
<path d="M34.1143 42.3523L31.3354 41.8622C31.1511 41.8298 30.9615 41.8718 30.8082 41.9791C30.655 42.0864 30.5506 42.2502 30.5181 42.4345C30.4856 42.6187 30.5277 42.8084 30.635 42.9616C30.7423 43.1149 30.9061 43.2192 31.0904 43.2517L33.8693 43.7417C34.0536 43.7742 34.2432 43.7322 34.3965 43.6249C34.5497 43.5176 34.6541 43.3538 34.6866 43.1695C34.7191 42.9852 34.677 42.7956 34.5697 42.6424C34.4624 42.4891 34.2986 42.3847 34.1143 42.3523Z" fill="white"/>
<path d="M11.6372 39.8216L28.311 42.7616C28.4953 42.7941 28.6849 42.752 28.8382 42.6447C28.9914 42.5374 29.0958 42.3736 29.1283 42.1894C29.1608 42.0051 29.1187 41.8155 29.0114 41.6622C28.9041 41.509 28.7403 41.4046 28.556 41.3721L11.8822 38.4321C11.698 38.3996 11.5084 38.4416 11.3551 38.5489C11.2018 38.6563 11.0975 38.8201 11.065 39.0043C11.0325 39.1886 11.0745 39.3782 11.1819 39.5314C11.2892 39.6847 11.453 39.7891 11.6372 39.8216Z" fill="white"/>
<path d="M29.9061 45.9081L20.8744 44.3156C20.6902 44.2831 20.5006 44.3252 20.3473 44.4325C20.194 44.5398 20.0897 44.7036 20.0572 44.8879C20.0247 45.0721 20.0667 45.2617 20.174 45.415C20.2814 45.5683 20.4452 45.6726 20.6294 45.7051L29.6611 47.2976C29.8453 47.3301 30.0349 47.2881 30.1882 47.1808C30.3415 47.0734 30.4458 46.9096 30.4783 46.7254C30.5108 46.5411 30.4688 46.3515 30.3614 46.1982C30.2541 46.045 30.0903 45.9406 29.9061 45.9081Z" fill="white"/>
<path d="M18.0953 43.8255L11.1479 42.6005C10.9636 42.568 10.774 42.6101 10.6207 42.7174C10.4675 42.8247 10.3631 42.9885 10.3306 43.1728C10.2981 43.357 10.3402 43.5466 10.4475 43.6999C10.5548 43.8532 10.7186 43.9575 10.9029 43.99L17.8503 45.215C18.0345 45.2475 18.2242 45.2055 18.3774 45.0982C18.5307 44.9909 18.635 44.827 18.6675 44.6428C18.7 44.4585 18.658 44.2689 18.5507 44.1157C18.4433 43.9624 18.2795 43.858 18.0953 43.8255Z" fill="white"/>
</g>
<defs>
<clipPath id="clip0_1965_464213">
<rect width="56" height="56" rx="28" fill="white"/>
</clipPath>
</defs>
</svg>
