<svg width="16" height="16" viewBox="0 0 16 16" fill="none" xmlns="http://www.w3.org/2000/svg">
<path fill-rule="evenodd" clip-rule="evenodd" d="M2.66663 12.5079V3.49206C2.66663 2.91953 2.90322 2.37045 3.32435 1.96561C3.74549 1.56077 4.31667 1.33333 4.91224 1.33333H10.7719C11.0819 1.33333 11.3333 1.57495 11.3333 1.87301V10.8889C11.3333 11.1869 11.0819 11.4286 10.7719 11.4286H4.91224C4.81207 11.4286 4.71484 11.4413 4.62223 11.4652C4.43325 11.5138 4.25902 11.6094 4.1183 11.7447C3.99419 11.864 3.90214 12.0084 3.84747 12.1654C3.80984 12.273 3.78943 12.3882 3.78943 12.5079C3.78943 12.7942 3.90773 13.0687 4.1183 13.2712C4.32886 13.4736 4.61445 13.5873 4.91224 13.5873H12.2105V2.41269C12.2105 2.11463 12.4618 1.87301 12.7719 1.87301C13.0819 1.87301 13.3333 2.11463 13.3333 2.41269V14.127C13.3333 14.425 13.0819 14.6667 12.7719 14.6667H4.91224C4.31667 14.6667 3.74549 14.4392 3.32435 14.0344C2.90322 13.6295 2.66663 13.0805 2.66663 12.5079ZM5.27345 5.87064C5.60297 6.11854 6.07403 5.88344 6.07403 5.47108V3.66666C6.07403 3.11438 5.62632 2.66666 5.07403 2.66666H4.99996C4.44767 2.66666 3.99996 3.11438 3.99996 3.66666V5.42409C3.99996 5.84232 4.48664 6.07192 4.80942 5.80597C4.91527 5.71875 5.06709 5.71539 5.17669 5.79785L5.27345 5.87064Z" fill="#0055B8"/>
</svg>
