<svg width="41" height="40" viewBox="0 0 41 40" fill="none" xmlns="http://www.w3.org/2000/svg">
<circle cx="20.5" cy="20" r="20" fill="#FEE6E9"/>
<path fill-rule="evenodd" clip-rule="evenodd" d="M12.1138 13.1134C11.389 13.5264 10.9004 14.3061 10.9004 15.2V24.8C10.9004 26.1255 11.9749 27.2 13.3004 27.2H20.5004C21.8259 27.2 22.9004 26.1255 22.9004 24.8V23.9L12.1138 13.1134ZM22.9004 21.0716V15.2C22.9004 13.8745 21.8259 12.8 20.5004 12.8H14.6288L22.9004 21.0716ZM25.3004 17.6C25.3004 17.1455 25.5572 16.7299 25.9637 16.5267L28.3637 15.3267C28.7357 15.1407 29.1775 15.1606 29.5313 15.3792C29.885 15.5979 30.1004 15.9841 30.1004 16.4V23.6C30.1004 24.0159 29.885 24.4021 29.5313 24.6208C29.1775 24.8394 28.7357 24.8593 28.3637 24.6733L25.9637 23.4733C25.5572 23.27 25.3004 22.8545 25.3004 22.4V17.6Z" fill="#D92037"/>
<line x1="10.4142" y1="11" x2="26" y2="26.5858" stroke="#D92037" stroke-width="2" stroke-linecap="round"/>
</svg>
