<svg width="24" height="24" viewBox="0 0 24 24" fill="none" xmlns="http://www.w3.org/2000/svg">
<path fill-rule="evenodd" clip-rule="evenodd" d="M5.40498 4.30695C4.99572 3.89768 4.33218 3.89768 3.92292 4.30695C3.51366 4.71621 3.51366 5.37975 3.92292 5.78901L18.5946 20.4607C19.0039 20.8699 19.6674 20.8699 20.0767 20.4607C20.4859 20.0514 20.4859 19.3879 20.0767 18.9786L18.5328 17.4348C20.1441 16.1486 21.3677 14.3971 22 12.3838C20.6646 8.13205 16.6925 5.04798 12 5.04798C10.2985 5.04798 8.69179 5.45346 7.27109 6.17306L5.40498 4.30695ZM9.87043 8.7724L11.4569 10.3589C11.6302 10.3126 11.8122 10.2879 12.0001 10.2879C13.1576 10.2879 14.096 11.2263 14.096 12.3838C14.096 12.5716 14.0713 12.7537 14.025 12.9269L15.6115 14.5134C15.9803 13.8893 16.192 13.1613 16.192 12.3838C16.192 10.0687 14.3152 8.19191 12.0001 8.19191C11.2226 8.19191 10.4945 8.40356 9.87043 8.7724Z" fill="#495057"/>
<path d="M14.5716 19.4018L11.7374 16.5676C9.63149 16.4374 7.94642 14.7524 7.81624 12.6464L3.96696 8.79716C3.09264 9.83957 2.41747 11.0547 2 12.3839C3.33541 16.6356 7.30754 19.7197 12 19.7197C12.8873 19.7197 13.7488 19.6094 14.5716 19.4018Z" fill="#495057"/>
</svg>
