<svg width="20" height="20" viewBox="0 0 20 20" fill="none" xmlns="http://www.w3.org/2000/svg">
<path d="M1 0C0.447715 0 0 0.447715 0 1C0 1.55228 0.447715 2 1 2H2.15287L4.01361 13.1644C4.09397 13.6466 4.51116 14 5 14H16C16.4304 14 16.8126 13.7246 16.9487 13.3162L19.9487 4.31623C20.0503 4.01128 19.9992 3.67606 19.8112 3.41529C19.6233 3.15452 19.3214 3 19 3H4.34713L3.98639 0.835601C3.90603 0.353413 3.48884 0 3 0H1Z" fill="#A5B0BB"/>
<path fill-rule="evenodd" clip-rule="evenodd" d="M4 18C4 16.8954 4.89543 16 6 16C7.10457 16 8 16.8954 8 18C8 19.1046 7.10457 20 6 20C4.89543 20 4 19.1046 4 18Z" fill="#A5B0BB"/>
<path fill-rule="evenodd" clip-rule="evenodd" d="M13 18C13 16.8954 13.8954 16 15 16C16.1046 16 17 16.8954 17 18C17 19.1046 16.1046 20 15 20C13.8954 20 13 19.1046 13 18Z" fill="#A5B0BB"/>
</svg>
