<svg width="24" height="24" viewBox="0 0 24 24" fill="none" xmlns="http://www.w3.org/2000/svg">
<path fill-rule="evenodd" clip-rule="evenodd" d="M7.1999 2.40039C6.53716 2.40039 5.9999 2.93765 5.9999 3.60039V4.80039H4.7999C3.47442 4.80039 2.3999 5.87491 2.3999 7.20039V19.2004C2.3999 20.5259 3.47442 21.6004 4.7999 21.6004H19.1999C20.5254 21.6004 21.5999 20.5259 21.5999 19.2004V7.20039C21.5999 5.87491 20.5254 4.80039 19.1999 4.80039H17.9999V3.60039C17.9999 2.93765 17.4626 2.40039 16.7999 2.40039C16.1372 2.40039 15.5999 2.93765 15.5999 3.60039V4.80039H8.3999V3.60039C8.3999 2.93765 7.86264 2.40039 7.1999 2.40039ZM7.1999 8.40039C6.53716 8.40039 5.9999 8.93765 5.9999 9.60039C5.9999 10.2631 6.53716 10.8004 7.1999 10.8004H16.7999C17.4626 10.8004 17.9999 10.2631 17.9999 9.60039C17.9999 8.93765 17.4626 8.40039 16.7999 8.40039H7.1999Z" fill="#A5B0BB"/>
</svg>
