<svg width="16" height="16" viewBox="0 0 16 16" fill="none" xmlns="http://www.w3.org/2000/svg">
<path fill-rule="evenodd" clip-rule="evenodd" d="M5.04925 2.89067C5.23187 2.61671 5.4793 2.39208 5.76958 2.2367C6.05986 2.08133 6.38401 2.00002 6.71325 2H9.28659C9.61583 2.00002 9.93998 2.08133 10.2303 2.2367C10.5205 2.39208 10.768 2.61671 10.9506 2.89067L11.4919 3.70333C11.5528 3.79461 11.6353 3.86945 11.7321 3.9212C11.8288 3.97295 11.9369 4.00002 12.0466 4H12.6666C13.197 4 13.7057 4.21071 14.0808 4.58579C14.4559 4.96086 14.6666 5.46957 14.6666 6V12C14.6666 12.5304 14.4559 13.0391 14.0808 13.4142C13.7057 13.7893 13.197 14 12.6666 14H3.33325C2.80282 14 2.29411 13.7893 1.91904 13.4142C1.54397 13.0391 1.33325 12.5304 1.33325 12V6C1.33325 5.46957 1.54397 4.96086 1.91904 4.58579C2.29411 4.21071 2.80282 4 3.33325 4H3.95325C4.06298 4.00002 4.17102 3.97295 4.26777 3.9212C4.36453 3.86945 4.44702 3.79461 4.50792 3.70333L5.04925 2.89V2.89067ZM6.66659 8.66667C6.66659 8.31305 6.80706 7.97391 7.05711 7.72386C7.30716 7.47381 7.6463 7.33333 7.99992 7.33333C8.35354 7.33333 8.69268 7.47381 8.94273 7.72386C9.19278 7.97391 9.33325 8.31305 9.33325 8.66667C9.33325 9.02029 9.19278 9.35943 8.94273 9.60948C8.69268 9.85952 8.35354 10 7.99992 10C7.6463 10 7.30716 9.85952 7.05711 9.60948C6.80706 9.35943 6.66659 9.02029 6.66659 8.66667ZM7.99992 6C7.29268 6 6.6144 6.28095 6.1143 6.78105C5.6142 7.28115 5.33325 7.95942 5.33325 8.66667C5.33325 9.37391 5.6142 10.0522 6.1143 10.5523C6.6144 11.0524 7.29268 11.3333 7.99992 11.3333C8.70716 11.3333 9.38544 11.0524 9.88554 10.5523C10.3856 10.0522 10.6666 9.37391 10.6666 8.66667C10.6666 7.95942 10.3856 7.28115 9.88554 6.78105C9.38544 6.28095 8.70716 6 7.99992 6Z" fill="white"/>
</svg>
