<svg width="10" height="10" viewBox="0 0 10 10" fill="none" xmlns="http://www.w3.org/2000/svg">
<path d="M3.93742 4.74299L1.8752 2.10938L0.841309 4.74299H3.93742Z" fill="#FF9E16"/>
<path d="M4.98272 1.53711L3.15967 4.9785H6.8055L4.98272 1.53711Z" fill="#FF9E16"/>
<path d="M6.06299 4.74299L8.12521 2.10938L9.1591 4.74299H6.06299Z" fill="#FF9E16"/>
<path d="M7.96353 4.21963L6.63519 0.978793L5.00186 4.2199L4.99991 4.22074L4.99797 4.21963L3.36464 0.978516L2.0363 4.21963C1.16575 3.00935 0.355469 2.23407 0.355469 2.23407C0.355469 2.23407 0.833247 4.93073 0.833247 8.33351H9.16658C9.16658 4.93073 9.64436 2.23407 9.64436 2.23407C9.64436 2.23407 8.83408 3.00935 7.96353 4.21963Z" fill="#FFCE00"/>
<path d="M4.98782 7.1358C5.55361 7.1358 6.01227 6.67714 6.01227 6.11136C6.01227 5.54557 5.55361 5.08691 4.98782 5.08691C4.42204 5.08691 3.96338 5.54557 3.96338 6.11136C3.96338 6.67714 4.42204 7.1358 4.98782 7.1358Z" fill="#FF9E16"/>
<path d="M9.16678 8.47645H0.833442C0.759771 8.47645 0.689117 8.44719 0.637023 8.3951C0.58493 8.343 0.555664 8.27235 0.555664 8.19868C0.555664 8.125 0.58493 8.05435 0.637023 8.00226C0.689117 7.95016 0.759771 7.9209 0.833442 7.9209H9.16678C9.24045 7.9209 9.3111 7.95016 9.36319 8.00226C9.41529 8.05435 9.44455 8.125 9.44455 8.19868C9.44455 8.27235 9.41529 8.343 9.36319 8.3951C9.3111 8.44719 9.24045 8.47645 9.16678 8.47645Z" fill="#FF9E16"/>
<path d="M0.402064 2.62444C0.617915 2.62444 0.792897 2.44946 0.792897 2.23361C0.792897 2.01776 0.617915 1.84277 0.402064 1.84277C0.186213 1.84277 0.0112305 2.01776 0.0112305 2.23361C0.0112305 2.44946 0.186213 2.62444 0.402064 2.62444Z" fill="#FFCE00"/>
<path d="M1.87506 2.44054C2.05792 2.44054 2.20617 2.2923 2.20617 2.10943C2.20617 1.92656 2.05792 1.77832 1.87506 1.77832C1.69219 1.77832 1.54395 1.92656 1.54395 2.10943C1.54395 2.2923 1.69219 2.44054 1.87506 2.44054Z" fill="#FF9E16"/>
<path d="M3.3647 1.47451C3.63838 1.47451 3.86025 1.25264 3.86025 0.978954C3.86025 0.705266 3.63838 0.483398 3.3647 0.483398C3.09101 0.483398 2.86914 0.705266 2.86914 0.978954C2.86914 1.25264 3.09101 1.47451 3.3647 1.47451Z" fill="#FFCE00"/>
<path d="M9.59787 2.62444C9.81372 2.62444 9.9887 2.44946 9.9887 2.23361C9.9887 2.01776 9.81372 1.84277 9.59787 1.84277C9.38201 1.84277 9.20703 2.01776 9.20703 2.23361C9.20703 2.44946 9.38201 2.62444 9.59787 2.62444Z" fill="#FFCE00"/>
<path d="M8.12506 2.44054C8.30792 2.44054 8.45617 2.2923 8.45617 2.10943C8.45617 1.92656 8.30792 1.77832 8.12506 1.77832C7.94219 1.77832 7.79395 1.92656 7.79395 2.10943C7.79395 2.2923 7.94219 2.44054 8.12506 2.44054Z" fill="#FF9E16"/>
<path d="M6.6352 1.47451C6.90889 1.47451 7.13076 1.25264 7.13076 0.978954C7.13076 0.705266 6.90889 0.483398 6.6352 0.483398C6.36152 0.483398 6.13965 0.705266 6.13965 0.978954C6.13965 1.25264 6.36152 1.47451 6.6352 1.47451Z" fill="#FFCE00"/>
<path d="M4.98286 2.0331C5.25655 2.0331 5.47842 1.81124 5.47842 1.53755C5.47842 1.26386 5.25655 1.04199 4.98286 1.04199C4.70917 1.04199 4.4873 1.26386 4.4873 1.53755C4.4873 1.81124 4.70917 2.0331 4.98286 2.0331Z" fill="#FF9E16"/>
</svg>
