<svg width="41" height="40" viewBox="0 0 41 40" fill="none" xmlns="http://www.w3.org/2000/svg">
<circle cx="20.5" cy="20" r="20" fill="#D6EBFF"/>
<path d="M10.9004 15.2C10.9004 13.8745 11.9749 12.8 13.3004 12.8H20.5004C21.8259 12.8 22.9004 13.8745 22.9004 15.2V24.8C22.9004 26.1255 21.8259 27.2 20.5004 27.2H13.3004C11.9749 27.2 10.9004 26.1255 10.9004 24.8V15.2Z" fill="#0055B8"/>
<path d="M25.9637 16.5267C25.5572 16.7299 25.3004 17.1455 25.3004 17.6V22.4C25.3004 22.8545 25.5572 23.27 25.9637 23.4733L28.3637 24.6733C28.7357 24.8593 29.1775 24.8394 29.5313 24.6208C29.885 24.4021 30.1004 24.0159 30.1004 23.6V16.4C30.1004 15.9841 29.885 15.5979 29.5313 15.3792C29.1775 15.1606 28.7357 15.1407 28.3637 15.3267L25.9637 16.5267Z" fill="#0055B8"/>
</svg>
