<svg width="16" height="20" viewBox="0 0 16 20" fill="none" xmlns="http://www.w3.org/2000/svg">
<path fill-rule="evenodd" clip-rule="evenodd" d="M3.20005 0.400391C1.87456 0.400391 0.800049 1.47491 0.800049 2.80039V17.2004C0.800049 18.5259 1.87456 19.6004 3.20005 19.6004H12.8C14.1255 19.6004 15.2 18.5259 15.2 17.2004V6.89745C15.2 6.26093 14.9472 5.65048 14.4971 5.20039L10.4 1.10333C9.94996 0.653247 9.33951 0.400391 8.70299 0.400391H3.20005ZM9.20005 7.60039C9.20005 6.93765 8.66279 6.40039 8.00005 6.40039C7.33731 6.40039 6.80005 6.93765 6.80005 7.60039V10.0004H4.40005C3.73731 10.0004 3.20005 10.5377 3.20005 11.2004C3.20005 11.8631 3.73731 12.4004 4.40005 12.4004H6.80005V14.8004C6.80005 15.4631 7.33731 16.0004 8.00005 16.0004C8.66279 16.0004 9.20005 15.4631 9.20005 14.8004L9.20005 12.4004H11.6C12.2628 12.4004 12.8 11.8631 12.8 11.2004C12.8 10.5377 12.2628 10.0004 11.6 10.0004H9.20005V7.60039Z" fill="#0055B8"/>
</svg>
