<svg width="18" height="20" viewBox="0 0 18 20" fill="none" xmlns="http://www.w3.org/2000/svg">
<path fill-rule="evenodd" clip-rule="evenodd" d="M9 2.15723e-08H3C2.20435 2.15723e-08 1.44129 0.316071 0.87868 0.87868C0.316071 1.44129 0 2.20435 0 3V17C0 17.7956 0.316071 18.5587 0.87868 19.1213C1.44129 19.6839 2.20435 20 3 20H15C15.7956 20 16.5587 19.6839 17.1213 19.1213C17.6839 18.5587 18 17.7956 18 17V9H12C11.2044 9 10.4413 8.68393 9.87868 8.12132C9.31607 7.55871 9 6.79565 9 6V2.15723e-08ZM18 7V6.828C17.9996 6.03276 17.6834 5.27023 17.121 4.708L13.293 0.878C12.7304 0.315719 11.9674 -9.53012e-05 11.172 2.15723e-08H11V6C11 6.26522 11.1054 6.51957 11.2929 6.70711C11.4804 6.89464 11.7348 7 12 7H18Z" fill="#0055B8"/>
</svg>
