<svg width="80" height="80" viewBox="0 0 80 80" fill="none" xmlns="http://www.w3.org/2000/svg">
<mask id="mask0_2281_465308" style="mask-type:alpha" maskUnits="userSpaceOnUse" x="0" y="0" width="80" height="80">
<rect width="80" height="80" fill="#D9D9D9"/>
</mask>
<g mask="url(#mask0_2281_465308)">
<path opacity="0.5" d="M16.8541 20.5833C15.9866 20.5833 15.1547 20.2387 14.5413 19.6253C13.9279 19.0119 13.5833 18.18 13.5833 17.3125V10.7708C13.5833 9.90335 13.9279 9.0714 14.5413 8.458C15.1547 7.8446 15.9866 7.5 16.8541 7.5C17.7216 7.5 18.5535 7.8446 19.1669 8.458C19.7803 9.0714 20.1249 9.90335 20.1249 10.7708V17.3125C20.1249 18.1794 19.7808 19.0109 19.1681 19.6242C18.5554 20.2375 17.7243 20.5825 16.8574 20.5833H16.8541ZM49.5624 20.5833C48.6949 20.5833 47.863 20.2387 47.2496 19.6253C46.6362 19.0119 46.2916 18.18 46.2916 17.3125V10.7708C46.2916 9.90335 46.6362 9.0714 47.2496 8.458C47.863 7.8446 48.6949 7.5 49.5624 7.5C50.4299 7.5 51.2618 7.8446 51.8752 8.458C52.4886 9.0714 52.8333 9.90335 52.8333 10.7708V17.3125C52.8333 18.1794 52.4891 19.0109 51.8764 19.6242C51.2637 20.2375 50.4326 20.5825 49.5657 20.5833H49.5624Z" fill="#FFE784"/>
<path d="M56.1042 14.0416H52.8333V17.3125C52.8333 18.1799 52.4887 19.0119 51.8753 19.6253C51.2619 20.2387 50.43 20.5833 49.5625 20.5833C48.695 20.5833 47.8631 20.2387 47.2497 19.6253C46.6363 19.0119 46.2917 18.1799 46.2917 17.3125V14.0416H20.125V17.3125C20.125 18.1799 19.7804 19.0119 19.167 19.6253C18.5536 20.2387 17.7216 20.5833 16.8542 20.5833C15.9867 20.5833 15.1547 20.2387 14.5413 19.6253C13.9279 19.0119 13.5833 18.1799 13.5833 17.3125V14.0416H10.3125C7.71006 14.0416 5.21422 15.0754 3.37401 16.9156C1.53381 18.7558 0.5 21.2517 0.5 23.8541V30.3958H65.9167V23.8541C65.9167 21.2517 64.8829 18.7558 63.0427 16.9156C61.2024 15.0754 58.7066 14.0416 56.1042 14.0416Z" fill="#FFE784"/>
<path d="M16.8541 46.7499C18.6605 46.7499 20.1249 45.2855 20.1249 43.4791C20.1249 41.6727 18.6605 40.2083 16.8541 40.2083C15.0477 40.2083 13.5833 41.6727 13.5833 43.4791C13.5833 45.2855 15.0477 46.7499 16.8541 46.7499Z" fill="#FFE784"/>
<path d="M16.8541 59.8333C18.6605 59.8333 20.1249 58.3689 20.1249 56.5625C20.1249 54.756 18.6605 53.2916 16.8541 53.2916C15.0477 53.2916 13.5833 54.756 13.5833 56.5625C13.5833 58.3689 15.0477 59.8333 16.8541 59.8333Z" fill="#FFE784"/>
<path d="M33.2083 46.7499C35.0148 46.7499 36.4792 45.2855 36.4792 43.4791C36.4792 41.6727 35.0148 40.2083 33.2083 40.2083C31.4019 40.2083 29.9375 41.6727 29.9375 43.4791C29.9375 45.2855 31.4019 46.7499 33.2083 46.7499Z" fill="#FFE784"/>
<path d="M33.2083 59.8333C35.0148 59.8333 36.4792 58.3689 36.4792 56.5625C36.4792 54.756 35.0148 53.2916 33.2083 53.2916C31.4019 53.2916 29.9375 54.756 29.9375 56.5625C29.9375 58.3689 31.4019 59.8333 33.2083 59.8333Z" fill="#FFE784"/>
<path d="M49.5622 46.7499C51.3686 46.7499 52.833 45.2855 52.833 43.4791C52.833 41.6727 51.3686 40.2083 49.5622 40.2083C47.7558 40.2083 46.2914 41.6727 46.2914 43.4791C46.2914 45.2855 47.7558 46.7499 49.5622 46.7499Z" fill="#FFE784"/>
<path d="M49.5622 59.8333C51.3686 59.8333 52.833 58.3689 52.833 56.5625C52.833 54.756 51.3686 53.2916 49.5622 53.2916C47.7558 53.2916 46.2914 54.756 46.2914 56.5625C46.2914 58.3689 47.7558 59.8333 49.5622 59.8333Z" fill="#FFE784"/>
<path opacity="0.7" d="M0 30V62.7083C0 65.3108 1.03381 67.8066 2.87401 69.6468C4.71422 71.487 7.21006 72.5208 9.8125 72.5208H55.6042C58.2066 72.5208 60.7024 71.487 62.5427 69.6468C64.3829 67.8066 65.4167 65.3108 65.4167 62.7083V30H0ZM16.3542 59.4375C15.4867 59.4375 14.6547 59.0929 14.0413 58.4795C13.4279 57.8661 13.0833 57.0341 13.0833 56.1667C13.0833 55.2992 13.4279 54.4672 14.0413 53.8538C14.6547 53.2404 15.4867 52.8958 16.3542 52.8958C17.2216 52.8958 18.0536 53.2404 18.667 53.8538C19.2804 54.4672 19.625 55.2992 19.625 56.1667C19.625 57.0341 19.2804 57.8661 18.667 58.4795C18.0536 59.0929 17.2216 59.4375 16.3542 59.4375ZM16.3542 46.3542C15.4867 46.3542 14.6547 46.0096 14.0413 45.3962C13.4279 44.7828 13.0833 43.9508 13.0833 43.0833C13.0833 42.2159 13.4279 41.3839 14.0413 40.7705C14.6547 40.1571 15.4867 39.8125 16.3542 39.8125C17.2216 39.8125 18.0536 40.1571 18.667 40.7705C19.2804 41.3839 19.625 42.2159 19.625 43.0833C19.625 43.9508 19.2804 44.7828 18.667 45.3962C18.0536 46.0096 17.2216 46.3542 16.3542 46.3542ZM32.7083 59.4375C31.8409 59.4375 31.0089 59.0929 30.3955 58.4795C29.7821 57.8661 29.4375 57.0341 29.4375 56.1667C29.4375 55.2992 29.7821 54.4672 30.3955 53.8538C31.0089 53.2404 31.8409 52.8958 32.7083 52.8958C33.5758 52.8958 34.4078 53.2404 35.0212 53.8538C35.6346 54.4672 35.9792 55.2992 35.9792 56.1667C35.9792 57.0341 35.6346 57.8661 35.0212 58.4795C34.4078 59.0929 33.5758 59.4375 32.7083 59.4375ZM32.7083 46.3542C31.8409 46.3542 31.0089 46.0096 30.3955 45.3962C29.7821 44.7828 29.4375 43.9508 29.4375 43.0833C29.4375 42.2159 29.7821 41.3839 30.3955 40.7705C31.0089 40.1571 31.8409 39.8125 32.7083 39.8125C33.5758 39.8125 34.4078 40.1571 35.0212 40.7705C35.6346 41.3839 35.9792 42.2159 35.9792 43.0833C35.9792 43.9508 35.6346 44.7828 35.0212 45.3962C34.4078 46.0096 33.5758 46.3542 32.7083 46.3542ZM49.0625 59.4375C48.195 59.4375 47.3631 59.0929 46.7497 58.4795C46.1363 57.8661 45.7917 57.0341 45.7917 56.1667C45.7917 55.2992 46.1363 54.4672 46.7497 53.8538C47.3631 53.2404 48.195 52.8958 49.0625 52.8958C49.93 52.8958 50.7619 53.2404 51.3753 53.8538C51.9887 54.4672 52.3333 55.2992 52.3333 56.1667C52.3333 57.0341 51.9887 57.8661 51.3753 58.4795C50.7619 59.0929 49.93 59.4375 49.0625 59.4375ZM49.0625 46.3542C48.195 46.3542 47.3631 46.0096 46.7497 45.3962C46.1363 44.7828 45.7917 43.9508 45.7917 43.0833C45.7917 42.2159 46.1363 41.3839 46.7497 40.7705C47.3631 40.1571 48.195 39.8125 49.0625 39.8125C49.93 39.8125 50.7619 40.1571 51.3753 40.7705C51.9887 41.3839 52.3333 42.2159 52.3333 43.0833C52.3333 43.9508 51.9887 44.7828 51.3753 45.3962C50.7619 46.0096 49.93 46.3542 49.0625 46.3542Z" fill="#FFF7D7"/>
<mask id="mask1_2281_465308" style="mask-type:alpha" maskUnits="userSpaceOnUse" x="28" y="12" width="62" height="61">
<rect x="28.5" y="12" width="61" height="61" fill="#D9D9D9"/>
</mask>
<g mask="url(#mask1_2281_465308)">
<path d="M73.6413 51.967C75.4319 46.8149 71.5772 41.4484 66.125 41.5342L64.0127 41.5664C63.9966 41.5664 63.9859 41.5664 63.9698 41.5664L58.7052 41.6522L53.4406 41.5664C53.4245 41.5664 53.4138 41.5664 53.3977 41.5664L51.2854 41.5342C45.8331 41.4484 41.9785 46.8149 43.7691 51.967C44.3535 53.6503 44.9807 55.2158 45.6348 56.6687C45.9886 57.5211 46.4443 58.4593 46.9536 59.4296C49.1731 63.7829 51.5159 67.0639 53.3119 69.7498C53.3816 69.8516 53.4567 69.9535 53.5317 70.05C54.7219 71.7709 56.7055 72.5912 58.7105 72.5644C60.7102 72.5965 62.6992 71.7709 63.8894 70.05C63.9644 69.9535 64.0395 69.8516 64.1092 69.7498C65.9052 67.0639 68.248 63.7829 70.4675 59.4296C70.9768 58.4593 71.4325 57.5264 71.7863 56.6687C72.4296 55.2104 73.0569 53.6503 73.6413 51.967Z" fill="#F89E1C"/>
<path d="M64.4469 62.4159C65.9319 59.5424 62.9887 57.5695 59.7184 59.462C55.8209 61.7136 53.5156 60.7004 50.9154 56.3901C48.8032 52.8839 45.7151 53.7899 44.6322 54.251C44.97 55.1034 45.3131 55.929 45.6669 56.7171C46.0207 57.5695 46.4764 58.5077 46.9857 59.4781C49.2052 63.8313 51.548 67.1123 53.344 69.7982C53.4137 69.9001 53.4888 70.0019 53.5638 70.0984C54.754 71.8193 56.7376 72.6396 58.7427 72.6128C60.7424 72.645 62.7313 71.8193 63.9215 70.0984C63.9966 70.0019 64.0716 69.9001 64.1413 69.7982C64.7257 68.919 65.3744 67.9808 66.0499 66.9568C64.4951 66.7048 63.0101 65.193 64.4469 62.4159Z" fill="#032663"/>
<path d="M58.6086 72.704C56.491 72.704 54.5717 71.755 53.4619 70.1467C53.3869 70.0502 53.3118 69.9483 53.2421 69.8411C52.9848 69.4551 52.7114 69.053 52.4326 68.6402C50.8028 66.2331 48.7817 63.2416 46.8785 59.5102C46.337 58.4809 45.892 57.5481 45.5543 56.7439C45.1951 55.9451 44.8466 55.1141 44.5196 54.2778L44.4874 54.192L44.5732 54.1545C45.7902 53.6345 48.8514 52.8088 50.9744 56.3365C53.6335 60.7487 55.9012 61.5421 59.6487 59.3762C61.643 58.2236 63.3961 58.5292 64.2485 59.344C65.0312 60.0946 65.1331 61.258 64.5112 62.4589C63.8839 63.6758 63.7714 64.7534 64.1895 65.579C64.5273 66.2438 65.2189 66.7209 66.0391 66.855L66.1892 66.8764L66.1034 66.9997C65.7228 67.5734 65.3529 68.1202 64.9937 68.6456C64.7149 69.0584 64.4469 69.4551 64.1895 69.8358C64.1198 69.943 64.0448 70.0448 63.9697 70.1413C62.8439 71.7711 60.8871 72.7308 58.7158 72.6932C58.6783 72.704 58.6408 72.704 58.6086 72.704ZM58.7158 72.511C60.8227 72.5431 62.7206 71.621 63.8143 70.0395C63.8893 69.9376 63.9644 69.8411 64.0287 69.7393C64.286 69.3533 64.5541 68.9565 64.8329 68.5437C65.1653 68.0559 65.503 67.5466 65.8568 67.0212C65.0366 66.8496 64.3557 66.351 64.0126 65.6702C63.7017 65.0536 63.5033 63.9814 64.3396 62.3731L64.4254 62.416L64.3396 62.3731C64.9186 61.2526 64.8382 60.175 64.1145 59.4888C63.3103 58.7222 61.6484 58.4434 59.7452 59.5478C55.9281 61.7565 53.5048 60.9149 50.8082 56.4437C48.8085 53.1305 45.9564 53.806 44.734 54.3046C45.0503 55.1088 45.3881 55.9076 45.7312 56.6796C46.0636 57.4837 46.5086 58.4059 47.05 59.4352C48.9479 63.1558 50.969 66.1419 52.5934 68.5437C52.8722 68.9565 53.1456 69.3586 53.403 69.7446C53.4727 69.8465 53.5424 69.943 53.6174 70.0448C54.7111 71.621 56.6196 72.5485 58.7158 72.511Z" fill="#10319B"/>
<path d="M39.5821 45.8233C38.8154 47.9571 37.384 53.1306 38.6332 59.4996C38.7565 60.1214 39.5606 60.2984 39.9359 59.7891L40.2308 59.3923C43.2062 55.3608 43.3617 49.9032 40.6221 45.7054C40.3594 45.298 39.7483 45.3677 39.5821 45.8233Z" fill="#F5851F"/>
<path d="M58.8071 72.7039C58.7695 72.7039 58.7374 72.7039 58.6999 72.7039C56.5447 72.736 54.5718 71.7818 53.446 70.1466C53.3709 70.0501 53.2958 69.9482 53.2262 69.841C52.9688 69.455 52.6954 69.0529 52.4166 68.6401C50.7868 66.233 48.7657 63.2415 46.8625 59.5102C46.321 58.4808 45.8761 57.548 45.5383 56.7438C44.8521 55.2052 44.2248 53.6237 43.6726 52.0368C42.8041 49.5438 43.1955 46.8847 44.7395 44.751C46.2781 42.628 48.6585 41.4378 51.2854 41.4754L53.3923 41.5075H53.4352L58.6999 41.5933L63.9645 41.5075H63.9913L66.1196 41.4754C68.7466 41.4325 71.1269 42.628 72.6656 44.751C74.2096 46.8847 74.6009 49.5438 73.7324 52.0368C73.1802 53.6237 72.553 55.2105 71.8668 56.7492C71.5344 57.5534 71.0894 58.4862 70.5426 59.5155C68.6394 63.2415 66.6129 66.2384 64.9884 68.6455C64.7097 69.0583 64.4362 69.4604 64.1789 69.8464C64.1092 69.9536 64.0342 70.0555 63.9591 70.152C62.8494 71.7549 60.9301 72.7039 58.8071 72.7039ZM58.6999 72.5109C60.8068 72.543 62.7046 71.6209 63.7983 70.0394C63.8733 69.9375 63.9484 69.841 64.0127 69.7392C64.2701 69.3532 64.5435 68.9511 64.8222 68.5383C66.4467 66.1365 68.4678 63.145 70.3656 59.4297C70.9071 58.4058 71.3467 57.4783 71.6845 56.6795C72.3707 55.1462 72.9979 53.5647 73.5448 51.9831C74.3918 49.5492 74.0112 46.9544 72.5047 44.8743C71.0036 42.8049 68.6715 41.6416 66.1196 41.6791L64.0127 41.7112H63.9859L58.7052 41.797L53.4352 41.7112H53.3923L51.2801 41.6791C48.7282 41.6416 46.3961 42.8049 44.895 44.8743C43.3885 46.9598 43.0079 49.5492 43.8549 51.9831C44.4018 53.5647 45.029 55.1462 45.7152 56.6795C46.0476 57.4837 46.4926 58.4058 47.0341 59.4351C48.9319 63.1557 50.953 66.1419 52.5775 68.5436C52.8562 68.9564 53.1297 69.3585 53.387 69.7445C53.4567 69.8464 53.5264 69.9429 53.6014 70.0448C54.7005 71.6209 56.609 72.5484 58.6999 72.5109Z" fill="#10319B"/>
<path d="M71.1108 44.3865C69.7544 43.2125 68.0282 42.5048 66.0982 42.5423L63.9805 42.5798C63.9644 42.5798 63.9537 42.5798 63.9376 42.5798L58.6462 42.671L53.3548 42.5798C53.3387 42.5798 53.328 42.5798 53.3119 42.5798L51.1942 42.5423C48.2564 42.4941 46.6587 44.6063 45.2756 47.0242C44.9646 47.571 45.2702 48.2787 45.8653 48.3967C50.8779 49.3885 62.281 50.4982 71.1108 44.3865Z" fill="#E26907"/>
<path d="M57.3274 58.5292C56.8235 58.5292 56.3142 58.4059 55.8478 58.1539C54.856 57.6178 54.2448 56.626 54.2073 55.5002L54.0143 49.0454C53.9821 47.9196 54.5343 46.8902 55.4939 46.3005C56.4536 45.7054 57.6169 45.6732 58.6087 46.2094L64.3398 49.292C65.2994 49.8067 65.9052 50.7609 65.9642 51.8493C66.0232 52.9376 65.5192 53.9508 64.6239 54.562C64.5971 54.5834 64.5649 54.5995 64.5381 54.621L64.5006 54.6424L58.9679 58.0628C58.4586 58.3684 57.8904 58.5292 57.3274 58.5292ZM57.1291 46.2147C56.6359 46.2147 56.1373 46.3541 55.6923 46.6275C54.8506 47.1476 54.3681 48.0482 54.4003 49.0347L54.5933 55.4895C54.6254 56.4759 55.1616 57.3444 56.0301 57.8108C56.8986 58.2772 57.9225 58.2504 58.7589 57.7304L64.3291 54.2886C64.3559 54.2725 64.3827 54.2564 64.4041 54.2403C65.1868 53.7042 65.6265 52.8196 65.5728 51.8653C65.5246 50.9164 64.9938 50.0801 64.1521 49.6297L58.4211 46.5471C58.0137 46.3219 57.5687 46.2147 57.1291 46.2147Z" fill="#F89E1C"/>
<path d="M57.3006 58.5773C56.8021 58.5773 56.2981 58.454 55.8317 58.2021C54.8452 57.6713 54.2394 56.6902 54.2073 55.5698L54.0089 48.9541C53.9767 47.839 54.5236 46.8204 55.4725 46.2307C56.4214 45.641 57.5794 45.6088 58.5659 46.1396L64.4363 49.3026C65.3852 49.8119 65.9856 50.7608 66.0446 51.8384C66.1036 52.916 65.605 53.9239 64.7204 54.5297C64.6936 54.5511 64.6614 54.5672 64.6346 54.5887L64.5971 54.6101L58.9251 58.1163C58.4211 58.4219 57.8636 58.5773 57.3006 58.5773ZM57.0969 45.9626C56.5715 45.9626 56.0461 46.1074 55.5744 46.4022C54.6844 46.9544 54.1697 47.9087 54.2019 48.9541L54.4003 55.5698C54.4324 56.6152 55.0007 57.5373 55.9228 58.0359C56.8449 58.5345 57.9279 58.5023 58.8232 57.9501L64.5274 54.4225C64.5542 54.4064 64.581 54.3849 64.6078 54.3689C65.4388 53.8006 65.9052 52.8624 65.8516 51.8491C65.798 50.8413 65.2351 49.9513 64.3451 49.4742L58.4747 46.3111C58.0405 46.0806 57.5687 45.9626 57.0969 45.9626Z" fill="#10319B"/>
<path d="M40.6222 45.705C40.3595 45.3029 39.7484 45.3726 39.5822 45.8229C38.9067 47.6993 37.7165 51.9292 38.2955 57.2528C38.3867 52.5082 40.3488 47.9674 41.0726 46.4502C40.9278 46.1982 40.7831 45.9462 40.6222 45.705Z" fill="#F89E1C"/>
<path d="M38.5152 56.3849C38.2794 56.3849 38.1346 56.342 38.1132 56.3366L38.2257 55.9667L38.1668 56.149L38.2204 55.9613C38.2418 55.9667 40.5632 56.4706 42.4771 51.4526L42.579 52.2086C41.0189 56.1597 39.314 56.3849 38.5152 56.3849Z" fill="#F89E1C"/>
<path d="M38.3759 57.9773C38.3759 57.9773 40.4024 58.9744 41.9571 55.8704C41.9571 55.8704 40.6704 59.725 39.298 60.0359C39.298 60.0359 38.408 60.2343 38.3759 57.9773Z" fill="#032663"/>
<path d="M39.3569 60.1805C39.2926 60.1805 39.2336 60.1751 39.1693 60.1591C38.8476 60.084 38.6064 59.8428 38.542 59.5157C37.2714 53.0449 38.7833 47.7588 39.4909 45.7913C39.5767 45.55 39.7912 45.3785 40.0485 45.3463C40.3058 45.3141 40.5578 45.4321 40.6972 45.6519C43.4475 49.8604 43.2866 55.4038 40.3005 59.446L40.0056 59.8428C39.8555 60.0572 39.6143 60.1805 39.3569 60.1805ZM40.1343 45.5339C40.1128 45.5339 40.0968 45.5339 40.0753 45.5393C39.8877 45.5607 39.7376 45.6787 39.6732 45.8556C38.9709 47.8124 37.4698 53.0556 38.7297 59.4782C38.7779 59.7248 38.9602 59.9125 39.2122 59.9714C39.4588 60.025 39.7108 59.9339 39.8609 59.7302L40.1557 59.3334C43.0936 55.3555 43.2491 49.8979 40.5417 45.7591C40.4506 45.6144 40.3005 45.5339 40.1343 45.5339Z" fill="#10319B"/>
<path d="M39.105 58.1858C38.6493 58.1858 38.3491 58.0679 38.3438 58.0625L38.4188 57.8856C38.4992 57.9178 40.456 58.6898 41.9303 55.843L42.1019 55.9342C41.1154 57.832 39.8824 58.1858 39.105 58.1858Z" fill="#10319B"/>
<path d="M38.5957 56.4923C38.3652 56.4923 38.2258 56.4494 38.2043 56.4441L38.2633 56.2618C38.2848 56.2672 40.5257 56.9051 42.4986 52.1713L42.6755 52.2463C41.0993 56.0259 39.357 56.4923 38.5957 56.4923Z" fill="#10319B"/>
<path d="M78.0642 45.8233C78.8308 47.9571 80.2622 53.1306 79.0131 59.4996C78.8898 60.1214 78.0856 60.2984 77.7103 59.7891L77.4155 59.3923C74.44 55.3608 74.2846 49.9032 77.0241 45.7054C77.2868 45.298 77.898 45.3677 78.0642 45.8233Z" fill="#F89E1C"/>
<path d="M77.5494 46.456C77.5441 46.4667 77.5387 46.472 77.5334 46.4828C76.5952 48.0804 76.7828 50.1122 77.973 51.5276C78.3643 51.994 78.8415 52.4175 79.4044 52.6963C79.399 49.7959 78.6538 47.555 78.2196 46.5042C78.1016 46.2201 77.7049 46.1933 77.5494 46.456Z" fill="#F4B821"/>
<path d="M75.5659 48.9973C74.5955 52.5035 75.2228 56.3528 77.4154 59.3925L77.6996 59.7892C77.7318 59.8375 77.7746 59.875 77.8175 59.9126L78.7933 59.8589C78.8844 59.7624 78.9487 59.6445 78.9755 59.4997C79.0988 58.8564 79.1953 58.2292 79.2704 57.6126C76.2038 56.2992 75.6516 51.4045 75.5659 48.9973Z" fill="#F5851F"/>
<path d="M79.0881 56.3954C78.2786 56.3954 76.5416 55.8914 75.0244 52.0421L75.1531 51.3934C77.0884 56.7117 79.3937 55.9772 79.4152 55.9718L79.5438 56.3364C79.517 56.3417 79.3562 56.3954 79.0881 56.3954Z" fill="#F89E1C"/>
<path d="M79.2704 57.9773C79.2704 57.9773 77.2439 58.9744 75.6892 55.8704C75.6892 55.8704 76.9759 59.725 78.3483 60.0359C78.3483 60.0359 79.2383 60.2343 79.2704 57.9773Z" fill="#032663"/>
<path d="M78.2894 60.1805C78.0321 60.1805 77.7908 60.0626 77.63 59.8428L77.3352 59.446C74.349 55.4038 74.1935 49.8604 76.9384 45.6519C77.0832 45.4321 77.3298 45.3195 77.5871 45.3463C77.8445 45.3785 78.0589 45.5447 78.1447 45.7913C78.8523 47.7642 80.3695 53.0502 79.0936 59.5157C79.0293 59.8374 78.788 60.084 78.4663 60.1591C78.4127 60.1752 78.3538 60.1805 78.2894 60.1805ZM77.5121 45.5339C77.3459 45.5339 77.2011 45.6144 77.1046 45.7537C74.3973 49.8925 74.5527 55.3501 77.4906 59.3281L77.7855 59.7248C77.9356 59.9285 78.1876 60.0197 78.4342 59.9661C78.6808 59.9125 78.8631 59.7248 78.9167 59.4728C80.1819 53.0502 78.6754 47.8071 77.9731 45.8502C77.9088 45.6733 77.7587 45.5554 77.571 45.5339C77.5496 45.5339 77.5335 45.5339 77.5121 45.5339Z" fill="#10319B"/>
<path d="M78.5414 58.1862C77.7641 58.1862 76.531 57.8323 75.5446 55.9291L75.7161 55.838C77.1904 58.6901 79.1472 57.9181 79.2276 57.8806L79.3027 58.0575C79.2973 58.0682 78.9971 58.1862 78.5414 58.1862Z" fill="#10319B"/>
<path d="M79.0506 56.4923C78.2894 56.4923 76.547 56.0259 74.9708 52.2463L75.1477 52.1713C77.1314 56.9212 79.3616 56.2672 79.383 56.2618L79.442 56.4441C79.4205 56.4494 79.2812 56.4923 79.0506 56.4923Z" fill="#10319B"/>
<path d="M57.6866 57.0442C57.3006 57.0442 56.9146 56.9477 56.5554 56.7547C55.7941 56.3473 55.3277 55.5914 55.3009 54.7282L55.1561 49.8925C55.1293 49.0294 55.5528 48.2467 56.2873 47.7963C57.0218 47.3406 57.9117 47.3192 58.6676 47.7266L62.9565 50.0373C63.691 50.434 64.1521 51.1631 64.195 51.9941C64.2378 52.825 63.8572 53.6024 63.171 54.0688C63.1495 54.0849 63.1281 54.0956 63.1066 54.1117L63.0798 54.1278L58.9357 56.6904C58.5497 56.9209 58.1208 57.0442 57.6866 57.0442ZM57.5364 47.8231C57.1719 47.8231 56.8127 47.925 56.4857 48.1233C55.8745 48.504 55.5207 49.158 55.5421 49.8818L55.6869 54.7175C55.7083 55.4413 56.0997 56.0739 56.7376 56.417C57.3702 56.7601 58.1208 56.7387 58.732 56.358L62.8976 53.7793C62.919 53.7686 62.9351 53.7525 62.9512 53.7418C63.5248 53.3504 63.8411 52.7017 63.8036 52.0102C63.7661 51.3186 63.3801 50.7074 62.7689 50.375L58.48 48.0644C58.1851 47.9035 57.8635 47.8231 57.5364 47.8231Z" fill="#F89E1C"/>
<path d="M62.9619 53.9024C62.9834 53.8916 63.0048 53.8756 63.0209 53.8648C64.3236 52.9749 64.2325 51.0074 62.8279 50.2514L58.6355 47.9891C57.1826 47.2063 55.4349 48.2893 55.4832 49.9405L55.6225 54.6636C55.6708 56.3095 57.4882 57.2852 58.8875 56.4221L62.9405 53.9184C62.9458 53.9131 62.9566 53.9077 62.9619 53.9024Z" fill="#032663"/>
<path d="M61.2089 53.1735C61.2196 53.1682 61.2303 53.1574 61.241 53.1521C61.9755 52.6535 61.9219 51.5437 61.1284 51.1148L58.7642 49.8443C57.9439 49.4046 56.9575 50.0158 56.9897 50.9433L57.0701 53.6078C57.0969 54.5352 58.1209 55.0874 58.9089 54.5996L61.1928 53.1896C61.1981 53.1842 61.2035 53.1789 61.2089 53.1735Z" fill="#33FCFE"/>
<path d="M71.9203 46.2043C71.2663 46.9495 67.4545 48.842 67.4545 48.842C67.4545 48.842 68.7626 49.8231 68.7841 51.8979C68.8001 53.4472 67.3366 54.8357 67.3366 54.8357C68.6554 56.1814 68.1568 58.5564 67.1811 60.3577C66.2054 62.159 67.0685 62.6844 67.0685 62.6844C67.0685 62.6844 72.7727 54.1602 73.2713 49.3728C73.475 47.4267 71.9203 46.2043 71.9203 46.2043Z" fill="#F4B821"/>
<path d="M46.1494 55.2216C46.1494 55.2216 47.6291 54.975 48.4225 55.9776C49.216 56.9801 53.9338 65.8742 56.1318 69.0533C56.5285 69.627 57.5471 71.5945 58.6783 71.2031C58.6783 71.2031 57.1022 72.0984 54.7808 69.761C52.4648 67.4182 47.5111 58.0416 46.1494 55.2216Z" fill="#0E51A0"/>
<path d="M43.6691 18.061C44.744 17.3032 46.0285 16.6583 47.4474 16.1208L47.356 16.1423C47.356 16.1423 51.9137 13.6216 58.7124 13.6216C65.4897 13.6216 70.1011 16.0671 70.128 16.0832C71.5899 16.626 72.9012 17.2817 74.003 18.0556C79.3077 21.7909 78.8724 29.8151 76.5452 37.3771C74.8629 42.8806 66.8495 45.3852 58.8414 45.2616C50.8334 45.3852 42.8199 42.8806 41.1269 37.3771C38.7998 29.8205 38.3644 21.7963 43.6691 18.061Z" fill="#F89E1C"/>
<path d="M43.669 18.0874C44.2333 17.6897 44.8568 17.3242 45.5232 16.9856C40.326 20.7639 40.7668 28.7451 43.0778 36.2694C44.7708 41.7837 52.7789 44.2883 60.7923 44.17C65.3445 44.2399 69.8968 43.4552 73.2935 41.7569C69.8377 44.2721 64.3395 45.433 58.836 45.347C50.8279 45.4707 42.8145 42.9608 41.1215 37.4465C38.7997 29.8737 38.3643 21.8334 43.669 18.0874Z" fill="#F5851F"/>
<path d="M46.1466 24.8163C42.895 24.1392 42.6801 18.9581 42.6693 18.7324L43.0563 18.7216C43.0563 18.77 43.2713 23.8221 46.2219 24.4348L46.1466 24.8163Z" fill="#F89E1C"/>
<path d="M70.8319 25.0152L70.7244 24.6443C73.9598 23.7038 74.1479 18.4475 74.1479 18.3937L74.5349 18.4045C74.5295 18.6302 74.3361 23.9994 70.8319 25.0152Z" fill="#F4B821"/>
<path d="M58.9542 18.2274C57.1322 18.2274 55.4392 17.6308 54.4503 16.6257C54.418 16.5935 54.3858 16.5612 54.3536 16.5236L52.58 14.5243L53.0153 14.1373L54.7889 16.1313C54.8104 16.1582 54.8373 16.185 54.8641 16.2119C55.8262 17.1901 57.5568 17.7275 59.3895 17.6308C61.1685 17.534 62.7163 16.8568 63.5279 15.8303L64.7963 14.2179L65.2531 14.578L63.9847 16.1904C63.0764 17.3513 61.3673 18.1037 59.4217 18.2112C59.2605 18.222 59.11 18.2274 58.9542 18.2274Z" fill="#F4B821"/>
<path d="M58.9435 20.3288C56.5304 20.3288 54.3429 19.5173 52.9509 18.0984C52.9025 18.05 52.8488 17.9963 52.8004 17.9425L52.7467 17.8834L50.312 15.1478L50.7473 14.7608L53.2304 17.5556C53.2734 17.6039 53.3164 17.6523 53.3648 17.6953C54.6493 18.9959 56.6862 19.7484 58.9435 19.7484C59.1263 19.7484 59.3144 19.743 59.5025 19.7323C61.9103 19.5979 63.9795 18.652 65.1726 17.131L66.9838 14.8253L67.4407 15.1854L65.6295 17.4911C64.3342 19.1411 62.1091 20.1676 59.5347 20.3127C59.3412 20.3235 59.1424 20.3288 58.9435 20.3288Z" fill="#F4B821"/>
<path d="M73.7021 19.4745C72.6003 18.6952 71.2889 18.0288 69.8271 17.4859C69.7948 17.4698 65.1727 14.6536 58.3954 14.6536C53.9345 14.6482 50.038 15.3952 47.8774 15.9058C49.2479 15.2609 53.2574 13.6216 58.7179 13.6216C65.4952 13.6216 70.1065 16.0886 70.1334 16.1047C71.5953 16.6529 72.9067 17.314 74.0085 18.0933C78.7381 21.4524 78.9047 28.2511 77.2332 35.0876C78.5553 28.7349 78.1146 22.6079 73.7021 19.4745Z" fill="#F4B821"/>
<path d="M71.1492 24.752L71.1116 24.5639C74.1428 23.9351 74.4707 18.539 74.476 18.4853L74.6695 18.496C74.6534 18.7218 74.3256 24.0909 71.1492 24.752Z" fill="#10319B"/>
<path d="M65.3985 17.2923L67.2097 14.9866C66.5755 14.7823 65.8392 14.5727 65.0169 14.3793L63.7485 15.9916C62.8885 17.088 61.2601 17.7975 59.4005 17.905C57.4871 18.0124 55.6705 17.4374 54.6547 16.4001C54.6225 16.3678 54.5956 16.341 54.5688 16.3087L52.7952 14.3148C51.9513 14.5029 51.1935 14.7178 50.5325 14.9275L52.9671 17.6631L53.0209 17.7222C53.0693 17.7706 53.1123 17.8243 53.1606 17.8727C54.4989 19.2325 56.6272 20.0118 58.9436 20.0118C59.1317 20.0118 59.3252 20.0064 59.5187 19.9956C62.0071 19.8667 64.1516 18.8777 65.3985 17.2923Z" fill="#032663"/>
<path d="M46.4638 24.7522C43.2875 24.0911 42.9381 18.7757 42.922 18.5499L43.1155 18.5392C43.1209 18.5929 43.4702 23.9352 46.5014 24.564L46.4638 24.7522Z" fill="#10319B"/>
<path d="M58.7985 45.1912C54.8374 45.2503 50.8818 44.7021 47.6033 43.4982C46.8401 42.6813 46.2328 41.6279 45.8781 40.4025C44.9698 37.2584 43.9486 32.862 43.5563 27.9228C43.3628 25.4935 44.7333 23.2899 46.7004 22.817C49.3823 22.172 53.5207 21.425 58.433 21.3497V21.3444C58.5727 21.3444 58.7071 21.3497 58.8468 21.3497C58.9866 21.3497 59.1209 21.3444 59.2607 21.3444V21.3497C64.173 21.425 68.2147 22.0484 70.8966 22.6934C72.8636 23.1663 74.3309 25.4935 74.1374 27.9228C73.7451 32.862 72.7239 37.2584 71.8156 40.4025C71.4663 41.601 70.8804 42.6329 70.1388 43.4498C66.8227 44.686 62.8079 45.2503 58.7985 45.1912Z" fill="#032663"/>
<path d="M72.4767 42.2247L71.6974 42.6493C71.8425 42.2193 72.0844 41.4937 72.2456 40.9831C72.6756 39.6395 73.1646 38.1131 73.6 37.092C74.304 35.442 76.2604 34.1951 77.5449 33.5717L77.3245 34.4155C76.126 35.0013 74.7662 35.8343 74.1321 37.3231C73.7075 38.3227 73.2238 39.833 72.7938 41.1659C72.6379 41.6711 72.6218 41.7947 72.4767 42.2247Z" fill="#F4B821"/>
<path d="M45.4428 42.3486C45.3998 42.3486 45.3622 42.3217 45.3514 42.2841C45.2224 41.9025 45.0881 41.4833 44.9483 41.0587C44.5291 39.7634 44.0508 38.2908 43.6047 37.2427C42.9544 35.7217 41.557 34.8779 40.2725 34.2491C40.2241 34.2276 40.2026 34.1685 40.2295 34.1201C40.251 34.0718 40.3101 34.0503 40.3585 34.0771C41.6752 34.7167 43.1102 35.5874 43.7874 37.1675C44.2389 38.2263 44.7172 39.6989 45.1364 40.9995C45.2762 41.4241 45.4105 41.838 45.5342 42.2249C45.5503 42.2733 45.5234 42.3324 45.475 42.3486C45.4643 42.3486 45.4535 42.3486 45.4428 42.3486Z" fill="#F89E1C"/>
<path d="M77.389 34.3887C77.1579 35.3883 76.8892 36.3934 76.5829 37.3877C75.954 39.4407 74.4653 41.0746 72.4283 42.3215C72.955 40.7468 73.3958 38.9893 73.987 37.5973C74.691 35.958 76.255 34.9369 77.389 34.3887Z" fill="#032663"/>
<path d="M76.0077 37.5115C76.2227 36.931 76.4215 36.3506 76.6097 35.7648C76.0077 36.1517 75.3896 36.7107 75.0134 37.49C74.6103 38.3177 74.2556 39.3388 73.8901 40.3116C74.8468 39.5753 75.5831 38.6455 76.0077 37.5115Z" fill="#0E51A0"/>
<path d="M72.5519 42.3108L72.3691 42.2517C72.5519 41.7089 72.7239 41.1338 72.8905 40.5802C73.2076 39.5268 73.5408 38.4412 73.9278 37.5221C74.6264 35.8775 76.1904 34.8456 77.3728 34.2651L77.4588 34.4371C76.3033 35.0014 74.7877 36.0011 74.1051 37.592C73.7181 38.5003 73.3903 39.5806 73.0732 40.6286C72.9066 41.1929 72.7346 41.768 72.5519 42.3108Z" fill="#10319B"/>
<path d="M40.2725 34.3887C40.5036 35.3883 40.7723 36.3934 41.0786 37.3877C41.7075 39.4407 43.1962 41.0746 45.2332 42.3215C44.7065 40.7468 44.2657 38.9893 43.6745 37.5973C42.9759 35.958 41.4065 34.9369 40.2725 34.3887Z" fill="#032663"/>
<path d="M59.368 45.3477C59.1907 45.3477 59.0133 45.3477 58.8413 45.3423C51.7846 45.4498 42.8951 43.4343 41.0355 37.3987C39.3694 31.9919 37.4937 22.2855 43.6153 17.9751L43.669 18.0558L43.6153 17.9751C44.6848 17.2227 47.2807 16.0779 47.3936 16.0296C47.4312 16.0081 51.9727 13.525 58.7177 13.525C65.4843 13.525 70.1333 15.9704 70.1816 15.9973C71.6811 16.5509 72.9925 17.2173 74.0674 17.9751C80.189 22.2855 78.3133 31.9919 76.6472 37.3934C74.8306 43.2839 66.3281 45.3477 59.368 45.3477ZM58.836 45.1488C59.008 45.1488 59.1853 45.1542 59.3627 45.1542C66.2582 45.1542 74.6747 43.128 76.4591 37.3396C78.1091 31.9866 79.974 22.3769 73.9546 18.1364C72.8904 17.3893 71.5951 16.7283 70.101 16.1747C70.0419 16.1424 65.4305 13.7239 58.7177 13.7239C52.0264 13.7239 47.5226 16.18 47.4796 16.2069C47.4473 16.223 44.7869 17.3947 43.7281 18.1364C37.7033 22.3715 39.5736 31.9866 41.2182 37.3396C43.0456 43.2731 51.8544 45.2563 58.836 45.1488Z" fill="#10319B"/>
<path d="M58.8413 44.3423C55.4446 44.3907 52.0532 43.9661 49.1617 43.0363C48.7156 42.8912 48.3126 42.6225 48.0331 42.2462C47.5547 41.6121 47.1785 40.865 46.9259 40.0319C46.0875 37.2049 45.147 33.2439 44.7869 28.7991C44.6095 26.6117 45.8725 24.6285 47.6837 24.2039C50.156 23.6235 53.9719 22.9516 58.5027 22.8818V22.8764C58.6317 22.8764 58.7553 22.8764 58.8843 22.8818C59.0133 22.8818 59.1369 22.8764 59.2659 22.8764V22.8818C63.7966 22.9516 67.6072 23.6235 70.0848 24.2039C71.9014 24.6285 73.1591 26.6117 72.9817 28.7991C72.6162 33.2439 71.6811 37.2049 70.8426 40.0319C70.5954 40.8596 70.2246 41.5959 69.7516 42.2248C69.4829 42.5848 69.1067 42.8428 68.6821 42.9826C65.7476 43.9554 62.2971 44.3961 58.8413 44.3423Z" fill="#FCE8CA"/>
<path fill-rule="evenodd" clip-rule="evenodd" d="M50.6955 33.8199C50.8267 33.6552 51.0665 33.628 51.2312 33.7592C51.8541 34.2552 53.5681 35.3311 55.3588 35.6282C55.5444 35.659 55.6798 35.8206 55.6776 36.0087C55.6754 36.1969 55.5363 36.3553 55.3501 36.3818C54.9098 36.4444 54.1637 36.587 53.3757 36.8093C52.5825 37.0331 51.7756 37.3297 51.1951 37.6909C51.0164 37.8021 50.7813 37.7473 50.67 37.5686C50.5588 37.3898 50.6135 37.1547 50.7923 37.0434C51.4636 36.6258 52.3516 36.3059 53.1687 36.0754C53.3313 36.0296 53.4922 35.9869 53.6494 35.9475C52.3404 35.4594 51.248 34.7473 50.7562 34.3556C50.5915 34.2245 50.5643 33.9846 50.6955 33.8199Z" fill="#0E51A0"/>
<path d="M53.6664 31.8574C53.6937 31.8621 53.724 31.8766 53.7482 31.8995C54.1031 32.208 54.5694 32.3296 55.0311 32.2302C55.1329 32.2101 55.2298 32.2734 55.2507 32.3706C55.2708 32.4724 55.2075 32.5693 55.1103 32.5902C54.5369 32.7127 53.9539 32.5619 53.509 32.1771C53.4318 32.1078 53.4231 31.9939 53.4924 31.9168C53.5298 31.8623 53.599 31.8413 53.6664 31.8574Z" fill="#032663"/>
<path fill-rule="evenodd" clip-rule="evenodd" d="M66.8549 33.8199C66.7237 33.6552 66.4839 33.628 66.3192 33.7592C65.6963 34.2552 63.9823 35.3311 62.1916 35.6282C62.006 35.659 61.8706 35.8206 61.8728 36.0087C61.875 36.1969 62.0141 36.3553 62.2003 36.3818C62.6406 36.4444 63.3867 36.587 64.1747 36.8093C64.9679 37.0331 65.7749 37.3297 66.3553 37.6909C66.5341 37.8021 66.7692 37.7473 66.8804 37.5686C66.9916 37.3898 66.9369 37.1547 66.7581 37.0434C66.0868 36.6258 65.1988 36.3059 64.3817 36.0754C64.2192 36.0296 64.0582 35.9869 63.901 35.9475C65.21 35.4594 66.3024 34.7473 66.7942 34.3556C66.9589 34.2245 66.9861 33.9846 66.8549 33.8199Z" fill="#0E51A0"/>
<path d="M63.884 31.8574C63.8567 31.8621 63.8264 31.8766 63.8022 31.8995C63.4473 32.208 62.981 32.3296 62.5193 32.2302C62.4175 32.2101 62.3206 32.2734 62.2997 32.3706C62.2796 32.4724 62.3429 32.5693 62.4401 32.5902C63.0135 32.7127 63.5965 32.5619 64.0414 32.1771C64.1186 32.1078 64.1273 31.9939 64.058 31.9168C64.0206 31.8623 63.9515 31.8413 63.884 31.8574Z" fill="#032663"/>
<path d="M56.4858 42.5001C56.447 42.4983 56.4082 42.4965 56.3679 42.4864C56.0821 42.4206 55.9003 42.1346 55.962 41.8487C56.274 40.393 57.4474 39.4521 58.9508 39.4501C60.4154 39.4463 61.7114 40.4562 62.0358 41.843C62.1028 42.132 61.9256 42.4167 61.6384 42.48C61.3513 42.5434 61.0651 42.3616 60.998 42.0726C60.8182 41.2963 60.0605 40.5142 58.9624 40.5137C57.9544 40.5146 57.2 41.1156 56.9931 42.0844C56.9417 42.334 56.7293 42.5003 56.4858 42.5001Z" fill="#0E51A0"/>
<path d="M58.1966 45.2344C54.2785 45.2344 50.6131 44.6486 47.5657 43.5307L47.5442 43.5253L47.5281 43.5092C46.7327 42.6546 46.1307 41.569 45.7814 40.3704C44.9483 37.4789 43.8627 32.959 43.4542 27.8478C43.2553 25.3594 44.6366 23.1182 46.6735 22.6291C49.4092 21.9734 61.5556 20.0493 71.0095 22.6291C73.0357 23.1827 74.4169 25.4239 74.2234 27.8478C73.815 32.959 72.7347 37.4789 71.8963 40.3704C71.5577 41.5475 70.9665 42.617 70.1979 43.4608L70.1818 43.4769L70.1603 43.4877C66.9786 44.6808 62.9423 45.3043 58.7931 45.2398C58.5943 45.2344 58.3954 45.2344 58.1966 45.2344ZM58.7985 45.0355C62.9154 45.1 66.9141 44.482 70.0743 43.3049C70.816 42.4826 71.3857 41.4507 71.7135 40.3113C72.5466 37.4306 73.6269 32.9213 74.03 27.8263C74.2181 25.4937 72.8959 23.3385 70.9557 22.8118C61.5395 20.2428 49.4414 22.1615 46.7165 22.8118C44.7763 23.2794 43.4542 25.4346 43.6477 27.8263C44.0561 32.9213 45.131 37.4306 45.9641 40.3113C46.3027 41.4776 46.8831 42.531 47.6517 43.3587C50.7851 44.4981 54.7407 45.1 58.7985 45.0355Z" fill="#10319B"/>
<path d="M45.1469 42.2463C44.9696 41.7196 44.803 41.1714 44.6417 40.6393C44.3246 39.5967 43.9914 38.5218 43.5991 37.5973C42.9219 36.0065 41.4009 35.0014 40.2454 34.4425L40.3314 34.2705C41.5138 34.8456 43.0724 35.8775 43.7764 37.5275C44.1742 38.4573 44.5074 39.5429 44.8245 40.5856C44.9857 41.1177 45.1523 41.6659 45.3297 42.1872L45.1469 42.2463Z" fill="#10319B"/>
<path d="M74.5459 34.3455L77.0343 32.8944C77.0343 32.8944 77.7438 25.7462 75.4327 22.4946L74.7663 24.5423C74.7663 24.5423 75.8358 26.0956 74.5459 34.3455Z" fill="#F4B821"/>
</g>
</g>
</svg>
