<svg width="100" height="100" viewBox="0 0 100 100" fill="none" xmlns="http://www.w3.org/2000/svg">
<mask id="mask0_5332_4168" style="mask-type:alpha" maskUnits="userSpaceOnUse" x="0" y="0" width="100" height="100">
<rect width="100" height="100" fill="#D9D9D9"/>
</mask>
<g mask="url(#mask0_5332_4168)">
<path d="M0 12.875C0 10.5968 1.81884 8.75 4.0625 8.75H60.9375C63.1812 8.75 65 10.5968 65 12.875V87.125C65 89.4032 63.1812 91.25 60.9375 91.25H4.0625C1.81884 91.25 0 89.4032 0 87.125V12.875Z" fill="#FFF7D7"/>
<path d="M16.25 12.5V87.5" stroke="#FFE784" stroke-width="4.24762" stroke-linecap="square" stroke-linejoin="round"/>
<path d="M32.5 25H50" stroke="#FFE784" stroke-width="4.24762" stroke-linecap="round" stroke-linejoin="round"/>
<path d="M32.5 42.5H50" stroke="#FFE784" stroke-width="4.24762" stroke-linecap="round" stroke-linejoin="round"/>
<mask id="mask1_5332_4168" style="mask-type:alpha" maskUnits="userSpaceOnUse" x="35" y="14" width="77" height="78">
<rect x="35" y="14.418" width="76.25" height="76.8321" fill="#D9D9D9"/>
</mask>
<g mask="url(#mask1_5332_4168)">
<path d="M91.427 64.758C93.6653 58.2688 88.847 51.5094 82.0316 51.6175L79.3913 51.658C79.3712 51.658 79.3578 51.658 79.3377 51.658L72.7569 51.766L66.1761 51.658C66.156 51.658 66.1426 51.658 66.1225 51.658L63.4822 51.6175C56.6669 51.5094 51.8486 58.2688 54.0868 64.758C54.8173 66.8783 55.6013 68.85 56.4189 70.6799C56.8612 71.7536 57.4308 72.9353 58.0675 74.1575C60.8418 79.6406 63.7703 83.7731 66.0153 87.1562C66.1024 87.2845 66.1962 87.4128 66.2901 87.5343C67.7778 89.7019 70.2573 90.735 72.7636 90.7013C75.2632 90.7418 77.7495 89.7019 79.2372 87.5343C79.331 87.4128 79.4248 87.2845 79.5119 87.1562C81.7569 83.7731 84.6854 79.6406 87.4598 74.1575C88.0964 72.9353 88.666 71.7604 89.1083 70.6799C89.9125 68.8433 90.6966 66.8783 91.427 64.758Z" fill="#F89E1C"/>
<path d="M79.9344 77.919C81.7907 74.2997 78.1116 71.8147 74.0237 74.1984C69.1518 77.0345 66.2702 75.7582 63.0201 70.3292C60.3797 65.913 56.5197 67.0542 55.166 67.6349C55.5882 68.7086 56.0171 69.7485 56.4594 70.7411C56.9017 71.8147 57.4713 72.9964 58.1079 74.2186C60.8823 79.7017 63.8108 83.8343 66.0558 87.2173C66.1429 87.3456 66.2367 87.4739 66.3305 87.5954C67.8183 89.763 70.2978 90.7962 72.8041 90.7624C75.3037 90.8029 77.7899 89.763 79.2776 87.5954C79.3715 87.4739 79.4653 87.3456 79.5524 87.2173C80.2829 86.1099 81.0937 84.9282 81.9381 83.6385C79.9947 83.3211 78.1384 81.4169 79.9344 77.919Z" fill="#032663"/>
<path d="M72.6359 90.8772C69.9888 90.8772 67.5897 89.682 66.2025 87.6563C66.1087 87.5347 66.0149 87.4064 65.9278 87.2714C65.6061 86.7852 65.2643 86.2787 64.9158 85.7588C62.8786 82.7269 60.3522 78.959 57.9732 74.2592C57.2964 72.9627 56.7401 71.7877 56.318 70.7749C55.869 69.7687 55.4334 68.7221 55.0246 67.6687L54.9844 67.5607L55.0916 67.5134C56.6128 66.8584 60.4393 65.8185 63.0931 70.2617C66.417 75.819 69.2516 76.8184 73.9359 74.0904C76.4288 72.6386 78.6202 73.0235 79.6857 74.0499C80.6641 74.9952 80.7915 76.4605 80.0141 77.9731C79.23 79.5059 79.0893 80.8632 79.612 81.9031C80.0342 82.7404 80.8987 83.3414 81.924 83.5102L82.1116 83.5372L82.0044 83.6925C81.5286 84.415 81.0662 85.1038 80.6172 85.7655C80.2687 86.2855 79.9337 86.7852 79.612 87.2646C79.5249 87.3997 79.4311 87.5279 79.3372 87.6495C77.93 89.7023 75.4839 90.911 72.7699 90.8637C72.723 90.8772 72.6761 90.8772 72.6359 90.8772ZM72.7699 90.6341C75.4035 90.6746 77.7758 89.5132 79.1429 87.5212C79.2367 87.3929 79.3305 87.2713 79.411 87.1431C79.7326 86.6569 80.0677 86.1572 80.4162 85.6372C80.8317 85.0228 81.2538 84.3813 81.6961 83.7195C80.6708 83.5034 79.8197 82.8754 79.3909 82.0179C79.0022 81.2413 78.7542 79.8908 79.7996 77.865L79.9069 77.9191L79.7996 77.865C80.5234 76.4538 80.4229 75.0965 79.5182 74.2322C78.513 73.2666 76.4355 72.9154 74.0565 74.3065C69.2852 77.0885 66.2561 76.0284 62.8853 70.3967C60.3857 66.2236 56.8206 67.0745 55.2926 67.7025C55.688 68.7153 56.1102 69.7215 56.5391 70.6938C56.9546 71.7067 57.5108 72.8682 58.1876 74.1646C60.5599 78.8509 63.0864 82.6121 65.1169 85.6372C65.4654 86.1572 65.8071 86.6636 66.1288 87.1498C66.2159 87.2781 66.303 87.3997 66.3969 87.528C67.7639 89.5132 70.1496 90.6814 72.7699 90.6341Z" fill="#10319B"/>
<path d="M48.8533 57.02C47.895 59.7075 46.1057 66.2237 47.6671 74.2457C47.8213 75.029 48.8265 75.2519 49.2956 74.6104L49.6641 74.1107C53.3834 69.0328 53.5778 62.1587 50.1533 56.8714C49.825 56.3582 49.061 56.446 48.8533 57.02Z" fill="#F5851F"/>
<path d="M72.8844 90.877C72.8375 90.877 72.7972 90.877 72.7503 90.877C70.0564 90.9175 67.5903 89.7156 66.183 87.656C66.0891 87.5345 65.9953 87.4062 65.9082 87.2711C65.5865 86.785 65.2448 86.2785 64.8963 85.7586C62.8591 82.7267 60.3326 78.9588 57.9536 74.259C57.2768 72.9625 56.7206 71.7875 56.2984 70.7747C55.4406 68.8367 54.6566 66.8447 53.9663 64.8459C52.8807 61.706 53.3699 58.3567 55.2999 55.6692C57.2232 52.9952 60.1986 51.4961 63.4823 51.5434L66.116 51.5839H66.1696L72.7503 51.692L79.3311 51.5839H79.3646L82.0251 51.5434C85.3087 51.4894 88.2842 52.9952 90.2075 55.6692C92.1375 58.3567 92.6267 61.706 91.541 64.8459C90.8508 66.8447 90.0667 68.8434 89.209 70.7814C88.7935 71.7943 88.2373 72.9692 87.5537 74.2657C85.1747 78.9588 82.6416 82.7334 80.6111 85.7653C80.2626 86.2853 79.9208 86.7917 79.5992 87.2779C79.512 87.413 79.4182 87.5413 79.3244 87.6628C77.9372 89.6818 75.5381 90.877 72.8844 90.877ZM72.7503 90.6339C75.384 90.6744 77.7563 89.513 79.1234 87.521C79.2172 87.3927 79.311 87.2711 79.3914 87.1428C79.7131 86.6567 80.0549 86.1502 80.4033 85.6303C82.4339 82.6051 84.9603 78.8372 87.3326 74.1577C88.0094 72.868 88.5589 71.6998 88.9811 70.6936C89.8389 68.7624 90.623 66.7704 91.3065 64.7784C92.3653 61.7127 91.8895 58.4445 90.0064 55.8245C88.13 53.218 85.2149 51.7527 82.0251 51.8L79.3914 51.8405H79.3579L72.757 51.9486L66.1696 51.8405H66.116L63.4756 51.8C60.2857 51.7527 57.3706 53.218 55.4942 55.8245C53.6111 58.4513 53.1353 61.7127 54.1942 64.7784C54.8777 66.7704 55.6618 68.7624 56.5196 70.6936C56.935 71.7065 57.4913 72.868 58.1681 74.1644C60.5404 78.8507 63.0668 82.6119 65.0973 85.637C65.4458 86.157 65.7876 86.6634 66.1092 87.1496C66.1964 87.2779 66.2835 87.3995 66.3773 87.5277C67.7511 89.513 70.1368 90.6812 72.7503 90.6339Z" fill="#10319B"/>
<path d="M88.2638 55.2104C86.5683 53.7316 84.4105 52.8403 81.998 52.8875L79.3509 52.9348C79.3308 52.9348 79.3174 52.9348 79.2973 52.9348L72.6831 53.0496L66.0688 52.9348C66.0487 52.9348 66.0353 52.9348 66.0152 52.9348L63.3681 52.8875C59.6957 52.8268 57.6987 55.4873 55.9698 58.5327C55.5811 59.2214 55.9631 60.1128 56.7069 60.2613C62.9727 61.5105 77.2266 62.9083 88.2638 55.2104Z" fill="#E26907"/>
<path d="M71.0347 73.0237C70.4048 73.0237 69.7682 72.8684 69.1851 72.551C67.9454 71.8757 67.1814 70.6265 67.1345 69.2085L66.8933 61.0784C66.8531 59.6604 67.5433 58.3639 68.7429 57.6211C69.9424 56.8716 71.3966 56.8311 72.6364 57.5063L79.8002 61.389C80.9997 62.0373 81.757 63.2392 81.8307 64.61C81.9044 65.9808 81.2745 67.257 80.1553 68.0268C80.1218 68.0538 80.0816 68.0741 80.0481 68.1011L80.0012 68.1281L73.0854 72.4362C72.4487 72.8211 71.7384 73.0237 71.0347 73.0237ZM70.7868 57.5131C70.1702 57.5131 69.547 57.6886 68.9908 58.033C67.9387 58.688 67.3356 59.8224 67.3758 61.0649L67.617 69.195C67.6572 70.4375 68.3274 71.5314 69.413 72.1188C70.4986 72.7063 71.7786 72.6726 72.824 72.0176L79.7868 67.6824C79.8203 67.6622 79.8538 67.6419 79.8806 67.6216C80.859 66.9464 81.4085 65.8322 81.3415 64.6303C81.2812 63.4351 80.6177 62.3817 79.5656 61.8144L72.4018 57.9317C71.8925 57.6481 71.3363 57.5131 70.7868 57.5131Z" fill="#F89E1C"/>
<path d="M71.0011 73.0842C70.3779 73.0842 69.7479 72.9289 69.1649 72.6115C67.9319 71.943 67.1746 70.7073 67.1344 69.296L66.8864 60.9634C66.8462 59.5588 67.5298 58.2758 68.7159 57.5331C69.9021 56.7903 71.3496 56.7498 72.5826 57.4183L79.9207 61.4023C81.1068 62.0438 81.8574 63.239 81.9311 64.5962C82.0048 65.9535 81.3816 67.223 80.2758 67.986C80.2423 68.013 80.2021 68.0333 80.1686 68.0603L80.1217 68.0873L73.0316 72.5035C72.4017 72.8884 71.7047 73.0842 71.0011 73.0842ZM70.7464 57.1954C70.0897 57.1954 69.433 57.3777 68.8433 57.7491C67.7308 58.4446 67.0875 59.6466 67.1277 60.9634L67.3756 69.296C67.4159 70.6127 68.1262 71.7742 69.2788 72.4022C70.4315 73.0302 71.7852 72.9896 72.9043 72.2941L80.0346 67.851C80.0681 67.8307 80.1016 67.8037 80.1351 67.7834C81.1738 67.0677 81.7568 65.886 81.6898 64.6097C81.6228 63.3402 80.9192 62.2193 79.8067 61.6183L72.4687 57.6343C71.9259 57.344 71.3362 57.1954 70.7464 57.1954Z" fill="#10319B"/>
<path d="M50.1529 56.8708C49.8245 56.3644 49.0605 56.4521 48.8528 57.0194C48.0084 59.3827 46.5207 64.7105 47.2445 71.4158C47.3584 65.4398 49.8111 59.7204 50.7158 57.8094C50.5348 57.492 50.3539 57.1747 50.1529 56.8708Z" fill="#F89E1C"/>
<path d="M47.5192 70.3227C47.2243 70.3227 47.0434 70.2687 47.0166 70.2619L47.1573 69.796L47.0836 70.0256L47.1506 69.7893C47.1774 69.796 50.0791 70.4307 52.4715 64.1104L52.5989 65.0625C50.6488 70.0391 48.5177 70.3227 47.5192 70.3227Z" fill="#F89E1C"/>
<path d="M47.3457 72.3281C47.3457 72.3281 49.8788 73.584 51.8222 69.6743C51.8222 69.6743 50.2139 74.5294 48.4983 74.9211C48.4983 74.9211 47.3859 75.1709 47.3457 72.3281Z" fill="#032663"/>
<path d="M48.5716 75.1035C48.4912 75.1035 48.4175 75.0967 48.3371 75.0765C47.935 74.9819 47.6334 74.6781 47.553 74.2662C45.9648 66.1158 47.8546 59.4578 48.7391 56.9796C48.8464 56.6758 49.1144 56.4597 49.4361 56.4192C49.7578 56.3787 50.0727 56.5272 50.247 56.8041C53.6848 62.1048 53.4837 69.087 49.7511 74.1784L49.3825 74.6781C49.1948 74.9482 48.8933 75.1035 48.5716 75.1035ZM49.5433 56.6555C49.5165 56.6555 49.4964 56.6555 49.4696 56.6623C49.235 56.6893 49.0474 56.8378 48.967 57.0607C48.0891 59.5254 46.2127 66.1294 47.7875 74.2189C47.8479 74.5295 48.0757 74.7659 48.3907 74.8401C48.6989 74.9077 49.0139 74.7929 49.2015 74.5363L49.5701 74.0366C53.2425 69.0262 53.4368 62.1521 50.0526 56.9391C49.9387 56.7568 49.7511 56.6555 49.5433 56.6555Z" fill="#10319B"/>
<path d="M48.2563 72.591C47.6867 72.591 47.3114 72.4424 47.3047 72.4357L47.3985 72.2129C47.499 72.2534 49.945 73.2257 51.7879 69.6401L52.0024 69.7549C50.7693 72.1453 49.228 72.591 48.2563 72.591Z" fill="#10319B"/>
<path d="M47.6201 70.4582C47.3319 70.4582 47.1577 70.4042 47.1309 70.3974L47.2046 70.1678C47.2314 70.1746 50.0326 70.9781 52.4987 65.0156L52.7198 65.1102C50.7496 69.8707 48.5717 70.4582 47.6201 70.4582Z" fill="#10319B"/>
<path d="M96.9553 57.02C97.9136 59.7075 99.7029 66.2237 98.1415 74.2457C97.9873 75.029 96.9821 75.2519 96.513 74.6104L96.1445 74.1107C92.4252 69.0328 92.2308 62.1587 95.6553 56.8714C95.9836 56.3582 96.7476 56.446 96.9553 57.02Z" fill="#F89E1C"/>
<path d="M96.3125 57.8165C96.3058 57.83 96.2991 57.8368 96.2924 57.8503C95.1196 59.8625 95.3542 62.4218 96.8419 64.2044C97.3311 64.7919 97.9275 65.3254 98.6312 65.6765C98.6245 62.0234 97.693 59.2008 97.1501 57.8773C97.0027 57.5194 96.5068 57.4856 96.3125 57.8165Z" fill="#F4B821"/>
<path d="M93.833 61.0176C92.62 65.4337 93.4041 70.2821 96.145 74.1108L96.5001 74.6105C96.5403 74.6712 96.5939 74.7185 96.6476 74.7658L97.8672 74.6982C97.9811 74.5767 98.0616 74.4281 98.0951 74.2458C98.2492 73.4355 98.3698 72.6455 98.4636 71.8689C94.6304 70.2146 93.9402 64.0495 93.833 61.0176Z" fill="#F5851F"/>
<path d="M98.2359 70.3358C97.224 70.3358 95.0527 69.701 93.1562 64.8527L93.3171 64.0356C95.7363 70.7342 98.6179 69.8091 98.6447 69.8023L98.8055 70.2615C98.772 70.2682 98.571 70.3358 98.2359 70.3358Z" fill="#F89E1C"/>
<path d="M98.4638 72.3281C98.4638 72.3281 95.9307 73.584 93.9873 69.6743C93.9873 69.6743 95.5956 74.5294 97.3112 74.9211C97.3112 74.9211 98.4236 75.1709 98.4638 72.3281Z" fill="#032663"/>
<path d="M97.237 75.1033C96.9153 75.1033 96.6137 74.9547 96.4127 74.6779L96.0441 74.1782C92.3114 69.0868 92.1171 62.1046 95.5482 56.8039C95.7292 56.527 96.0374 56.3852 96.3591 56.419C96.6808 56.4595 96.9488 56.6688 97.056 56.9794C97.9406 59.4644 99.8371 66.1224 98.2422 74.266C98.1618 74.6711 97.8602 74.9817 97.4581 75.0763C97.3911 75.0965 97.3174 75.1033 97.237 75.1033ZM96.2653 56.6553C96.0575 56.6553 95.8766 56.7566 95.756 56.9322C92.3718 62.1451 92.5661 69.0192 96.2385 74.0296L96.607 74.5293C96.7947 74.7859 97.1096 74.9007 97.4179 74.8332C97.7262 74.7657 97.954 74.5293 98.021 74.212C99.6026 66.1224 97.7195 59.5184 96.8416 57.0537C96.7612 56.8309 96.5735 56.6823 96.339 56.6553C96.3122 56.6553 96.2921 56.6553 96.2653 56.6553Z" fill="#10319B"/>
<path d="M97.5517 72.5914C96.58 72.5914 95.0387 72.1457 93.8057 69.7486L94.0201 69.6338C95.863 73.2261 98.309 72.2538 98.4095 72.2065L98.5033 72.4293C98.4966 72.4428 98.1214 72.5914 97.5517 72.5914Z" fill="#10319B"/>
<path d="M98.1886 70.4582C97.237 70.4582 95.0591 69.8707 93.0889 65.1102L93.31 65.0156C95.7895 70.9984 98.5773 70.1746 98.6041 70.1678L98.6778 70.3974C98.651 70.4042 98.4768 70.4582 98.1886 70.4582Z" fill="#10319B"/>
<path d="M71.4839 71.1531C71.0014 71.1531 70.5189 71.0316 70.0699 70.7885C69.1183 70.2753 68.5353 69.3232 68.5018 68.236L68.3208 62.1452C68.2873 61.058 68.8167 60.0722 69.7348 59.505C70.6529 58.931 71.7654 58.904 72.7103 59.4172L78.0714 62.3275C78.9895 62.8272 79.5658 63.7456 79.6194 64.7922C79.673 65.8389 79.1972 66.818 78.3394 67.4054C78.3126 67.4257 78.2858 67.4392 78.259 67.4595L78.2255 67.4797L73.0453 70.7074C72.5628 70.9978 72.0267 71.1531 71.4839 71.1531ZM71.2963 59.5387C70.8406 59.5387 70.3916 59.667 69.9828 59.9169C69.2188 60.3963 68.7765 61.2201 68.8033 62.1317L68.9843 68.2225C69.0111 69.1341 69.5003 69.9309 70.2977 70.3631C71.0885 70.7952 72.0267 70.7682 72.7907 70.2888L77.9977 67.0408C78.0245 67.0273 78.0446 67.007 78.0647 66.9935C78.7817 66.5006 79.1771 65.6835 79.1302 64.8125C79.0833 63.9414 78.6008 63.1716 77.8368 62.7529L72.4757 59.8426C72.1071 59.64 71.705 59.5387 71.2963 59.5387Z" fill="#F89E1C"/>
<path d="M78.0782 67.1957C78.105 67.1822 78.1318 67.1619 78.1519 67.1484C79.7803 66.0275 79.6664 63.5493 77.9107 62.5972L72.6702 59.7476C70.8541 58.7618 68.6694 60.1258 68.7297 62.2056L68.904 68.1546C68.9643 70.2276 71.2361 71.4566 72.9851 70.3694L78.0514 67.216C78.0581 67.2092 78.0715 67.2025 78.0782 67.1957Z" fill="#032663"/>
<path d="M75.8863 66.2775C75.8997 66.2708 75.9131 66.2573 75.9265 66.2505C76.8446 65.6225 76.7776 64.2247 75.7858 63.6845L72.8304 62.0842C71.8051 61.5305 70.5721 62.3003 70.6123 63.4685L70.7128 66.8245C70.7463 67.9927 72.0263 68.6882 73.0114 68.0737L75.8662 66.2978C75.8729 66.291 75.8796 66.2843 75.8863 66.2775Z" fill="#33FCFE"/>
<path d="M89.2757 57.5C88.4581 58.4386 83.6934 60.8223 83.6934 60.8223C83.6934 60.8223 85.3285 62.058 85.3553 64.6712C85.3755 66.6227 83.546 68.3716 83.546 68.3716C85.1945 70.0665 84.5713 73.0579 83.3516 75.3267C82.132 77.5956 83.2109 78.2573 83.2109 78.2573C83.2109 78.2573 90.3412 67.5208 90.9644 61.4908C91.2191 59.0396 89.2757 57.5 89.2757 57.5Z" fill="#F4B821"/>
<path d="M57.0625 68.8575C57.0625 68.8575 58.9121 68.5469 59.9039 69.8096C60.8957 71.0723 66.7929 82.2748 69.5405 86.2791C70.0364 87.0016 71.3097 89.4798 72.7237 88.9869C72.7237 88.9869 70.7534 90.1145 67.8517 87.1704C64.9567 84.2196 58.7647 72.4093 57.0625 68.8575Z" fill="#0E51A0"/>
<path d="M53.9617 22.052C55.3053 21.0975 56.911 20.2852 58.6846 19.6082L58.5704 19.6353C58.5704 19.6353 64.2674 16.4604 72.7659 16.4604C81.2375 16.4604 87.0017 19.5406 87.0353 19.5609C88.8626 20.2446 90.5019 21.0705 91.8791 22.0453C98.5099 26.75 97.9657 36.8568 95.0568 46.3815C92.954 53.3134 82.9372 56.468 72.9271 56.3123C62.917 56.468 52.9002 53.3134 50.784 46.3815C47.875 36.8636 47.3308 26.7568 53.9617 22.052Z" fill="#F89E1C"/>
<path d="M53.962 22.0855C54.6674 21.5846 55.4467 21.1242 56.2797 20.6978C49.7833 25.4567 50.3342 35.5093 53.223 44.9866C55.3392 51.932 65.3493 55.0866 75.3661 54.9377C81.0564 55.0257 86.7467 54.0373 90.9926 51.8982C86.6728 55.0663 79.8001 56.5285 72.9207 56.4202C62.9106 56.5759 52.8938 53.4145 50.7776 46.4691C47.8753 36.9309 47.3311 26.8038 53.962 22.0855Z" fill="#F5851F"/>
<path d="M57.0586 30.5608C52.9941 29.7079 52.7254 23.1821 52.7119 22.8978L53.1956 22.8843C53.1956 22.9452 53.4643 29.3085 57.1526 30.0802L57.0586 30.5608Z" fill="#F89E1C"/>
<path d="M87.9156 30.8112L87.7812 30.3441C91.8256 29.1594 92.0607 22.5389 92.0607 22.4712L92.5444 22.4847C92.5377 22.769 92.2959 29.5317 87.9156 30.8112Z" fill="#F4B821"/>
<path d="M73.0683 22.2614C70.7909 22.2614 68.6747 21.51 67.4385 20.2441C67.3982 20.2035 67.3579 20.1629 67.3176 20.1155L65.1006 17.5973L65.6448 17.1099L67.8618 19.6213C67.8886 19.6552 67.9222 19.689 67.9558 19.7229C69.1584 20.9549 71.3216 21.6319 73.6125 21.51C75.8362 21.3882 77.7711 20.5352 78.7855 19.2422L80.371 17.2114L80.942 17.665L79.3566 19.6958C78.2212 21.158 76.0848 22.1057 73.6528 22.2411C73.4513 22.2547 73.2632 22.2614 73.0683 22.2614Z" fill="#F4B821"/>
<path d="M73.055 24.9087C70.0386 24.9087 67.3043 23.8865 65.5643 22.0993C65.5038 22.0384 65.4366 21.9707 65.3761 21.903L65.309 21.8286L62.2656 18.3829L62.8098 17.8955L65.9136 21.4156C65.9673 21.4766 66.0211 21.5375 66.0815 21.5916C67.6872 23.2298 70.2334 24.1776 73.055 24.1776C73.2834 24.1776 73.5186 24.1708 73.7537 24.1573C76.7635 23.988 79.35 22.7966 80.8414 20.8808L83.1054 17.9767L83.6765 18.4303L81.4124 21.3344C79.7934 23.4126 77.012 24.7056 73.794 24.8884C73.5522 24.9019 73.3036 24.9087 73.055 24.9087Z" fill="#F4B821"/>
<path d="M91.5035 23.8324C90.1263 22.8508 88.487 22.0114 86.6597 21.3277C86.6194 21.3074 80.8417 17.7602 72.3701 17.7602C66.794 17.7534 61.9234 18.6944 59.2227 19.3375C60.9358 18.5251 65.9476 16.4604 72.7732 16.4604C81.2448 16.4604 87.009 19.5676 87.0426 19.5879C88.87 20.2784 90.5092 21.1111 91.8864 22.0926C97.7984 26.3236 98.0067 34.8869 95.9173 43.4977C97.57 35.4962 97.0191 27.779 91.5035 23.8324Z" fill="#F4B821"/>
<path d="M88.3117 30.4796L88.2646 30.2427C92.0537 29.4507 92.4635 22.6541 92.4702 22.5864L92.7121 22.6C92.6919 22.8843 92.2821 29.647 88.3117 30.4796Z" fill="#10319B"/>
<path d="M81.1235 21.0838L83.3875 18.1797C82.5948 17.9224 81.6744 17.6584 80.6465 17.4147L79.061 19.4456C77.9861 20.8265 75.9505 21.7201 73.626 21.8555C71.2343 21.9909 68.9636 21.2666 67.6939 19.96C67.6535 19.9194 67.62 19.8856 67.5864 19.845L65.3694 17.3335C64.3146 17.5704 63.3674 17.8412 62.541 18.1052L65.5844 21.5509L65.6515 21.6253C65.712 21.6863 65.7657 21.754 65.8262 21.8149C67.499 23.5276 70.1594 24.5091 73.055 24.5091C73.2901 24.5091 73.532 24.5024 73.7738 24.4888C76.8843 24.3263 79.5649 23.0808 81.1235 21.0838Z" fill="#032663"/>
<path d="M57.4556 30.4798C53.4852 29.6471 53.0485 22.9522 53.0283 22.6678L53.2702 22.6543C53.2769 22.722 53.7136 29.4508 57.5026 30.2429L57.4556 30.4798Z" fill="#10319B"/>
<path d="M72.8733 56.2236C67.922 56.2981 62.9775 55.6076 58.8794 54.0912C57.9254 53.0623 57.1662 51.7354 56.7228 50.192C55.5875 46.2319 54.311 40.6945 53.8206 34.4733C53.5787 31.4135 55.2919 28.638 57.7507 28.0423C61.1031 27.23 66.2761 26.289 72.4165 26.1943V26.1875C72.5912 26.1875 72.7591 26.1943 72.9338 26.1943C73.1085 26.1943 73.2764 26.1875 73.4511 26.1875V26.1943C79.5915 26.289 84.6436 27.0743 87.9959 27.8866C90.4548 28.4823 92.2889 31.4135 92.047 34.4733C91.5566 40.6945 90.2801 46.2319 89.1448 50.192C88.7081 51.7016 87.9758 53.0013 87.0487 54.0303C82.9036 55.5873 77.8851 56.2981 72.8733 56.2236Z" fill="#032663"/>
<path d="M89.9712 52.4872L88.9971 53.022C89.1785 52.4804 89.4808 51.5666 89.6823 50.9235C90.2198 49.2311 90.8311 47.3086 91.3753 46.0224C92.2554 43.9442 94.7008 42.3736 96.3064 41.5884L96.031 42.6512C94.5328 43.3891 92.8331 44.4383 92.0404 46.3135C91.5097 47.5726 90.905 49.4748 90.3676 51.1536C90.1728 51.79 90.1526 51.9457 89.9712 52.4872Z" fill="#F4B821"/>
<path d="M56.1787 52.6434C56.125 52.6434 56.078 52.6095 56.0645 52.5622C55.9033 52.0815 55.7353 51.5535 55.5607 51.0187C55.0366 49.3873 54.4387 47.5325 53.8811 46.2124C53.0682 44.2966 51.3215 43.2338 49.7158 42.4418C49.6554 42.4147 49.6285 42.3403 49.6621 42.2793C49.689 42.2184 49.7629 42.1913 49.8233 42.2252C51.4693 43.0308 53.263 44.1274 54.1095 46.1176C54.6739 47.4512 55.2718 49.3061 55.7958 50.9443C55.9705 51.479 56.1384 52.0003 56.2929 52.4877C56.3131 52.5486 56.2795 52.6231 56.219 52.6434C56.2056 52.6434 56.1922 52.6434 56.1787 52.6434Z" fill="#F89E1C"/>
<path d="M96.112 42.6177C95.8231 43.8768 95.4872 45.1427 95.1043 46.395C94.3183 48.981 92.4573 51.0389 89.9111 52.6094C90.5695 50.6259 91.1204 48.4123 91.8594 46.659C92.7395 44.5944 94.6945 43.3082 96.112 42.6177Z" fill="#032663"/>
<path d="M94.3852 46.5507C94.654 45.8196 94.9025 45.0885 95.1377 44.3506C94.3852 44.838 93.6127 45.542 93.1424 46.5236C92.6385 47.5661 92.1951 48.8523 91.7383 50.0775C92.9341 49.1501 93.8545 47.979 94.3852 46.5507Z" fill="#0E51A0"/>
<path d="M90.0653 52.5958L89.8369 52.5213C90.0653 51.8376 90.2803 51.1133 90.4886 50.416C90.885 49.0892 91.3015 47.7218 91.7852 46.5642C92.6585 44.4928 94.6135 43.193 96.0915 42.4619L96.199 42.6785C94.7546 43.3893 92.8601 44.6484 92.0069 46.6522C91.5232 47.7962 91.1134 49.1569 90.717 50.477C90.5087 51.1877 90.2938 51.9121 90.0653 52.5958Z" fill="#10319B"/>
<path d="M49.7158 42.6177C50.0047 43.8768 50.3406 45.1427 50.7235 46.395C51.5096 48.981 53.3705 51.0389 55.9167 52.6094C55.2583 50.6259 54.7074 48.4123 53.9684 46.659C53.0951 44.5944 51.1334 43.3082 49.7158 42.6177Z" fill="#032663"/>
<path d="M73.5854 56.4208C73.3637 56.4208 73.142 56.4208 72.927 56.4141C64.1061 56.5495 52.9942 54.0109 50.6697 46.4088C48.5871 39.5987 46.2425 27.3731 53.8945 21.944L53.9616 22.0455L53.8945 21.944C55.2314 20.9963 58.4763 19.5544 58.6173 19.4934C58.6644 19.4664 64.3412 16.3389 72.7725 16.3389C81.2307 16.3389 87.0419 19.419 87.1024 19.4528C88.9768 20.1501 90.616 20.9895 91.9596 21.944C99.6116 27.3731 97.267 39.5987 95.1844 46.402C92.9136 53.8214 82.2855 56.4208 73.5854 56.4208ZM72.9203 56.1704C73.1353 56.1704 73.357 56.1771 73.5787 56.1771C82.1981 56.1771 92.7188 53.625 94.9492 46.3343C97.0117 39.592 99.3429 27.4882 91.8186 22.1471C90.4884 21.2061 88.8693 20.3735 87.0016 19.6762C86.9277 19.6356 81.1635 16.5893 72.7725 16.5893C64.4084 16.5893 58.7786 19.683 58.7248 19.7168C58.6845 19.7371 55.359 21.2129 54.0355 22.1471C46.5045 27.4814 48.8424 39.592 50.8981 46.3343C53.1823 53.8078 64.1934 56.3058 72.9203 56.1704Z" fill="#10319B"/>
<path d="M72.9267 55.1544C68.6808 55.2153 64.4416 54.6805 60.8272 53.5094C60.2696 53.3267 59.7658 52.9882 59.4164 52.5143C58.8185 51.7155 58.3482 50.7746 58.0325 49.7253C56.9844 46.1646 55.8088 41.1755 55.3586 35.5771C55.1369 32.822 56.7157 30.324 58.9797 29.7892C62.0701 29.0581 66.84 28.212 72.5034 28.124V28.1172C72.6647 28.1172 72.8192 28.1172 72.9804 28.124C73.1416 28.124 73.2962 28.1172 73.4574 28.1172V28.124C79.1208 28.212 83.884 29.0581 86.9811 29.7892C89.2518 30.324 90.8239 32.822 90.6022 35.5771C90.1453 41.1755 88.9764 46.1646 87.9283 49.7253C87.6193 50.7678 87.1558 51.6952 86.5646 52.4872C86.2287 52.9408 85.7584 53.2657 85.2276 53.4417C81.5595 54.667 77.2465 55.2221 72.9267 55.1544Z" fill="#FCE8CA"/>
<path fill-rule="evenodd" clip-rule="evenodd" d="M62.7445 41.9013C62.9084 41.6938 63.2082 41.6596 63.4141 41.8248C64.1928 42.4496 66.3352 43.8047 68.5736 44.1789C68.8056 44.2177 68.9748 44.4212 68.9721 44.6582C68.9694 44.8952 68.7955 45.0947 68.5627 45.1281C68.0123 45.2069 67.0797 45.3865 66.0947 45.6666C65.1032 45.9484 64.0945 46.3221 63.369 46.7769C63.1455 46.917 62.8517 46.848 62.7126 46.6229C62.5736 46.3977 62.642 46.1016 62.8655 45.9615C63.7046 45.4354 64.8146 45.0326 65.8359 44.7422C66.0392 44.6845 66.2403 44.6307 66.4368 44.5811C64.8006 43.9662 63.4351 43.0694 62.8204 42.5761C62.6145 42.4109 62.5805 42.1087 62.7445 41.9013Z" fill="#0E51A0"/>
<path d="M66.4586 39.4296C66.4928 39.4355 66.5306 39.4538 66.5609 39.4825C67.0044 39.8712 67.5873 40.0243 68.1645 39.8992C68.2917 39.8738 68.4128 39.9536 68.439 40.076C68.4641 40.2042 68.385 40.3263 68.2635 40.3526C67.5468 40.5068 66.8179 40.3169 66.2618 39.8323C66.1654 39.745 66.1545 39.6016 66.2411 39.5044C66.2879 39.4357 66.3743 39.4092 66.4586 39.4296Z" fill="#032663"/>
<path fill-rule="evenodd" clip-rule="evenodd" d="M82.944 41.9013C82.7801 41.6938 82.4802 41.6596 82.2743 41.8248C81.4957 42.4496 79.3533 43.8047 77.1149 44.1789C76.8829 44.2177 76.7136 44.4212 76.7164 44.6582C76.7191 44.8952 76.893 45.0947 77.1258 45.1281C77.6762 45.2069 78.6087 45.3865 79.5938 45.6666C80.5853 45.9484 81.5939 46.3221 82.3195 46.7769C82.5429 46.917 82.8368 46.848 82.9759 46.6229C83.1149 46.3977 83.0465 46.1016 82.823 45.9615C81.9839 45.4354 80.8738 45.0326 79.8526 44.7422C79.6493 44.6845 79.4482 44.6307 79.2516 44.5811C80.8878 43.9662 82.2534 43.0694 82.8681 42.5761C83.074 42.4109 83.108 42.1087 82.944 41.9013Z" fill="#0E51A0"/>
<path d="M79.2298 39.4296C79.1957 39.4355 79.1578 39.4538 79.1276 39.4825C78.684 39.8712 78.1012 40.0243 77.524 39.8992C77.3968 39.8738 77.2756 39.9536 77.2495 40.076C77.2243 40.2042 77.3035 40.3263 77.425 40.3526C78.1417 40.5068 78.8706 40.3169 79.4267 39.8323C79.5231 39.745 79.534 39.6016 79.4473 39.5044C79.4006 39.4357 79.3142 39.4092 79.2298 39.4296Z" fill="#032663"/>
<path d="M69.9823 52.8343C69.9338 52.832 69.8854 52.8298 69.8349 52.8171C69.4777 52.7342 69.2504 52.3739 69.3275 52.0139C69.7176 50.1804 71.1843 48.9952 73.0635 48.9927C74.8943 48.9879 76.5143 50.2599 76.9198 52.0067C77.0036 52.3707 76.782 52.7292 76.4231 52.809C76.0641 52.8888 75.7064 52.6599 75.6226 52.2958C75.3978 51.3181 74.4506 50.333 73.0781 50.3324C71.8181 50.3335 70.875 51.0904 70.6164 52.3107C70.5521 52.6252 70.2867 52.8345 69.9823 52.8343Z" fill="#0E51A0"/>
<path d="M72.1207 56.2783C67.2231 56.2783 62.6413 55.5404 58.8321 54.1323L58.8052 54.1256L58.7851 54.1053C57.7908 53.0289 57.0384 51.6615 56.6017 50.1519C55.5604 46.5099 54.2033 40.8168 53.6927 34.3791C53.4441 31.2448 55.1707 28.4219 57.7169 27.8059C61.1364 26.98 76.3195 24.5566 88.1368 27.8059C90.6695 28.5032 92.3961 31.326 92.1543 34.3791C91.6437 40.8168 90.2933 46.5099 89.2453 50.1519C88.822 51.6344 88.083 52.9815 87.1223 54.0443L87.1022 54.0647L87.0753 54.0782C83.0982 55.581 78.0528 56.3663 72.8664 56.285C72.6178 56.2783 72.3692 56.2783 72.1207 56.2783ZM72.8731 56.0278C78.0192 56.109 83.0175 55.3305 86.9678 53.848C87.8949 52.8123 88.6071 51.5126 89.0169 50.0774C90.0582 46.449 91.4085 40.7694 91.9124 34.352C92.1475 31.414 90.4949 28.6995 88.0696 28.0361C76.2994 24.8003 61.1768 27.217 57.7706 28.0361C55.3454 28.625 53.6927 31.3396 53.9346 34.352C54.4451 40.7694 55.7888 46.449 56.8301 50.0774C57.2533 51.5464 57.9789 52.8732 58.9396 53.9157C62.8563 55.3509 67.8009 56.109 72.8731 56.0278Z" fill="#10319B"/>
<path d="M55.8096 52.5146C55.5879 51.8512 55.3796 51.1607 55.1781 50.4906C54.7817 49.1773 54.3652 47.8234 53.8748 46.659C53.0283 44.6553 51.127 43.3894 49.6826 42.6854L49.7901 42.4688C51.2681 43.1931 53.2164 44.4928 54.0965 46.571C54.5936 47.7422 55.0101 49.1096 55.4065 50.4229C55.608 51.093 55.8163 51.7835 56.038 52.4402L55.8096 52.5146Z" fill="#10319B"/>
<path d="M92.5576 42.5629L95.6681 40.7351C95.6681 40.7351 96.5549 31.7318 93.6661 27.6362L92.8331 30.2154C92.8331 30.2154 94.17 32.1718 92.5576 42.5629Z" fill="#F4B821"/>
</g>
</g>
</svg>
