<svg width="20" height="20" viewBox="0 0 20 20" fill="none" xmlns="http://www.w3.org/2000/svg">
<path fill-rule="evenodd" clip-rule="evenodd" d="M5.44565 1.66667H4.91757C4.4974 1.66667 4.09444 1.83128 3.79733 2.1243C3.50023 2.41732 3.33331 2.81474 3.33331 3.22913V15.7288C3.33331 16.1432 3.50023 16.5406 3.79733 16.8336C4.09444 17.1266 4.4974 17.2913 4.91757 17.2913H8.61734C8.62473 17.1725 8.64374 17.0517 8.67437 16.9298L9.07043 15.3694C9.21828 14.7839 9.52497 14.2492 9.95762 13.8226L15.0589 8.79148C15.3311 8.52246 15.653 8.30746 16.0074 8.15817V3.22913C16.0074 2.81474 15.8405 2.41732 15.5433 2.1243C15.2462 1.83128 14.8433 1.66667 14.4231 1.66667H13.895H10.1984H5.44565ZM11.2546 4.16667H5.97374C5.83368 4.16667 5.69936 4.22154 5.60033 4.31921C5.50129 4.41689 5.44565 4.54936 5.44565 4.68749C5.44565 4.82562 5.50129 4.95809 5.60033 5.05576C5.69936 5.15344 5.83368 5.20831 5.97374 5.20831H11.2546C11.3947 5.20831 11.529 5.15344 11.628 5.05576C11.727 4.95809 11.7827 4.82562 11.7827 4.68749C11.7827 4.54936 11.727 4.41689 11.628 4.31921C11.529 4.22154 11.3947 4.16667 11.2546 4.16667ZM11.628 8.18068C11.727 8.08301 11.7827 7.95054 11.7827 7.81241C11.7827 7.67428 11.727 7.5418 11.628 7.44413C11.529 7.34646 11.3947 7.29159 11.2546 7.29159H5.97374C5.83368 7.29159 5.69936 7.34646 5.60033 7.44413C5.50129 7.5418 5.44565 7.67428 5.44565 7.81241C5.44565 7.95054 5.50129 8.08301 5.60033 8.18068C5.69936 8.27836 5.83368 8.33323 5.97374 8.33323H11.2546C11.3947 8.33323 11.529 8.27836 11.628 8.18068ZM8.08608 10.4165H5.97374C5.83368 10.4165 5.69936 10.4714 5.60033 10.5691C5.50129 10.6667 5.44565 10.7992 5.44565 10.9373C5.44565 11.0755 5.50129 11.2079 5.60033 11.3056C5.69936 11.4033 5.83368 11.4581 5.97374 11.4581H8.08608C8.22614 11.4581 8.36046 11.4033 8.4595 11.3056C8.55853 11.2079 8.61417 11.0755 8.61417 10.9373C8.61417 10.7992 8.55853 10.6667 8.4595 10.5691C8.36046 10.4714 8.22614 10.4165 8.08608 10.4165Z" fill="#0055B8"/>
<path fill-rule="evenodd" clip-rule="evenodd" d="M10.7054 14.5601L15.8067 9.52896H15.8056C16.1769 9.16827 16.6777 8.96694 17.1989 8.96883C17.72 8.97072 18.2193 9.17569 18.5879 9.53907C18.9565 9.90245 19.1645 10.3948 19.1666 10.9088C19.1687 11.4228 18.9648 11.9167 18.5992 12.2831L13.4979 17.3142C13.2008 17.6075 12.8284 17.8157 12.4206 17.9162L10.8385 18.3058C10.6811 18.3445 10.5164 18.3424 10.3601 18.2997C10.2039 18.257 10.0615 18.1751 9.94679 18.0621C9.8321 17.9491 9.74899 17.8087 9.70555 17.6547C9.6621 17.5006 9.6598 17.3381 9.69886 17.1829L10.0949 15.6226C10.1971 15.2204 10.4081 14.8532 10.7054 14.5601Z" fill="#0055B8"/>
</svg>
