<svg width="328" height="148" viewBox="0 0 328 148" fill="none" xmlns="http://www.w3.org/2000/svg">
<mask id="mask0_908_68772" style="mask-type:alpha" maskUnits="userSpaceOnUse" x="114" y="0" width="100" height="100">
<rect x="114" width="100" height="100" fill="#D9D9D9"/>
</mask>
<g mask="url(#mask0_908_68772)">
<path opacity="0.5" d="M135.068 25.7292C133.983 25.7292 132.943 25.2984 132.177 24.5317C131.41 23.7649 130.979 22.725 130.979 21.6406V13.4635C130.979 12.3792 131.41 11.3393 132.177 10.5725C132.943 9.80576 133.983 9.375 135.068 9.375C136.152 9.375 137.192 9.80576 137.959 10.5725C138.725 11.3393 139.156 12.3792 139.156 13.4635V21.6406C139.156 22.7243 138.726 23.7636 137.96 24.5302C137.194 25.2968 136.155 25.7281 135.072 25.7292H135.068ZM175.953 25.7292C174.869 25.7292 173.829 25.2984 173.062 24.5317C172.295 23.7649 171.864 22.725 171.864 21.6406V13.4635C171.864 12.3792 172.295 11.3393 173.062 10.5725C173.829 9.80576 174.869 9.375 175.953 9.375C177.037 9.375 178.077 9.80576 178.844 10.5725C179.611 11.3393 180.042 12.3792 180.042 13.4635V21.6406C180.042 22.7243 179.611 23.7636 178.845 24.5302C178.08 25.2968 177.041 25.7281 175.957 25.7292H175.953Z" fill="#FFE784"/>
<path d="M184.13 17.552H180.042V21.6405C180.042 22.7249 179.611 23.7648 178.844 24.5316C178.077 25.2983 177.037 25.7291 175.953 25.7291C174.869 25.7291 173.829 25.2983 173.062 24.5316C172.295 23.7648 171.865 22.7249 171.865 21.6405V17.552H139.156V21.6405C139.156 22.7249 138.725 23.7648 137.959 24.5316C137.192 25.2983 136.152 25.7291 135.068 25.7291C133.983 25.7291 132.943 25.2983 132.177 24.5316C131.41 23.7648 130.979 22.7249 130.979 21.6405V17.552H126.891C123.638 17.552 120.518 18.8443 118.218 21.1445C115.917 23.4448 114.625 26.5646 114.625 29.8176V37.9947H196.396V29.8176C196.396 26.5646 195.104 23.4448 192.803 21.1445C190.503 18.8443 187.383 17.552 184.13 17.552Z" fill="#FFE784"/>
<path d="M135.068 58.4373C137.326 58.4373 139.156 56.6068 139.156 54.3488C139.156 52.0908 137.326 50.2603 135.068 50.2603C132.81 50.2603 130.979 52.0908 130.979 54.3488C130.979 56.6068 132.81 58.4373 135.068 58.4373Z" fill="#FFE784"/>
<path d="M135.068 74.7916C137.326 74.7916 139.156 72.9611 139.156 70.703C139.156 68.445 137.326 66.6145 135.068 66.6145C132.81 66.6145 130.979 68.445 130.979 70.703C130.979 72.9611 132.81 74.7916 135.068 74.7916Z" fill="#FFE784"/>
<path d="M155.51 58.4373C157.768 58.4373 159.599 56.6068 159.599 54.3488C159.599 52.0908 157.768 50.2603 155.51 50.2603C153.252 50.2603 151.422 52.0908 151.422 54.3488C151.422 56.6068 153.252 58.4373 155.51 58.4373Z" fill="#FFE784"/>
<path d="M155.51 74.7916C157.768 74.7916 159.599 72.9611 159.599 70.703C159.599 68.445 157.768 66.6145 155.51 66.6145C153.252 66.6145 151.422 68.445 151.422 70.703C151.422 72.9611 153.252 74.7916 155.51 74.7916Z" fill="#FFE784"/>
<path d="M175.953 58.4373C178.211 58.4373 180.041 56.6068 180.041 54.3488C180.041 52.0908 178.211 50.2603 175.953 50.2603C173.695 50.2603 171.864 52.0908 171.864 54.3488C171.864 56.6068 173.695 58.4373 175.953 58.4373Z" fill="#FFE784"/>
<path d="M175.953 74.7916C178.211 74.7916 180.041 72.9611 180.041 70.703C180.041 68.445 178.211 66.6145 175.953 66.6145C173.695 66.6145 171.864 68.445 171.864 70.703C171.864 72.9611 173.695 74.7916 175.953 74.7916Z" fill="#FFE784"/>
<path opacity="0.7" d="M114 37.5V78.3854C114 81.6385 115.292 84.7583 117.593 87.0585C119.893 89.3588 123.013 90.651 126.266 90.651H183.505C186.758 90.651 189.878 89.3588 192.178 87.0585C194.479 84.7583 195.771 81.6385 195.771 78.3854V37.5H114ZM134.443 74.2969C133.358 74.2969 132.318 73.8661 131.552 73.0994C130.785 72.3326 130.354 71.2927 130.354 70.2083C130.354 69.124 130.785 68.084 131.552 67.3173C132.318 66.5505 133.358 66.1198 134.443 66.1198C135.527 66.1198 136.567 66.5505 137.334 67.3173C138.1 68.084 138.531 69.124 138.531 70.2083C138.531 71.2927 138.1 72.3326 137.334 73.0994C136.567 73.8661 135.527 74.2969 134.443 74.2969ZM134.443 57.9427C133.358 57.9427 132.318 57.512 131.552 56.7452C130.785 55.9785 130.354 54.9385 130.354 53.8542C130.354 52.7698 130.785 51.7299 131.552 50.9631C132.318 50.1964 133.358 49.7656 134.443 49.7656C135.527 49.7656 136.567 50.1964 137.334 50.9631C138.1 51.7299 138.531 52.7698 138.531 53.8542C138.531 54.9385 138.1 55.9785 137.334 56.7452C136.567 57.512 135.527 57.9427 134.443 57.9427ZM154.885 74.2969C153.801 74.2969 152.761 73.8661 151.994 73.0994C151.228 72.3326 150.797 71.2927 150.797 70.2083C150.797 69.124 151.228 68.084 151.994 67.3173C152.761 66.5505 153.801 66.1198 154.885 66.1198C155.97 66.1198 157.01 66.5505 157.776 67.3173C158.543 68.084 158.974 69.124 158.974 70.2083C158.974 71.2927 158.543 72.3326 157.776 73.0994C157.01 73.8661 155.97 74.2969 154.885 74.2969ZM154.885 57.9427C153.801 57.9427 152.761 57.512 151.994 56.7452C151.228 55.9785 150.797 54.9385 150.797 53.8542C150.797 52.7698 151.228 51.7299 151.994 50.9631C152.761 50.1964 153.801 49.7656 154.885 49.7656C155.97 49.7656 157.01 50.1964 157.776 50.9631C158.543 51.7299 158.974 52.7698 158.974 53.8542C158.974 54.9385 158.543 55.9785 157.776 56.7452C157.01 57.512 155.97 57.9427 154.885 57.9427ZM175.328 74.2969C174.244 74.2969 173.204 73.8661 172.437 73.0994C171.67 72.3326 171.24 71.2927 171.24 70.2083C171.24 69.124 171.67 68.084 172.437 67.3173C173.204 66.5505 174.244 66.1198 175.328 66.1198C176.412 66.1198 177.452 66.5505 178.219 67.3173C178.986 68.084 179.417 69.124 179.417 70.2083C179.417 71.2927 178.986 72.3326 178.219 73.0994C177.452 73.8661 176.412 74.2969 175.328 74.2969ZM175.328 57.9427C174.244 57.9427 173.204 57.512 172.437 56.7452C171.67 55.9785 171.24 54.9385 171.24 53.8542C171.24 52.7698 171.67 51.7299 172.437 50.9631C173.204 50.1964 174.244 49.7656 175.328 49.7656C176.412 49.7656 177.452 50.1964 178.219 50.9631C178.986 51.7299 179.417 52.7698 179.417 53.8542C179.417 54.9385 178.986 55.9785 178.219 56.7452C177.452 57.512 176.412 57.9427 175.328 57.9427Z" fill="#FFF7D7"/>
<mask id="mask1_908_68772" style="mask-type:alpha" maskUnits="userSpaceOnUse" x="149" y="15" width="77" height="77">
<rect x="149.625" y="15" width="76.25" height="76.25" fill="#D9D9D9"/>
</mask>
<g mask="url(#mask1_908_68772)">
<path d="M206.052 64.9586C208.29 58.5186 203.472 51.8105 196.656 51.9177L194.016 51.9579C193.996 51.9579 193.982 51.9579 193.962 51.9579L187.382 52.0651L180.801 51.9579C180.781 51.9579 180.767 51.9579 180.747 51.9579L178.107 51.9177C171.291 51.8105 166.473 58.5186 168.711 64.9586C169.442 67.0628 170.226 69.0196 171.044 70.8357C171.486 71.9012 172.055 73.074 172.692 74.2869C175.466 79.7285 178.395 83.8297 180.64 87.1871C180.727 87.3145 180.821 87.4418 180.915 87.5624C182.402 89.7136 184.882 90.7389 187.388 90.7054C189.888 90.7456 192.374 89.7136 193.862 87.5624C193.956 87.4418 194.049 87.3145 194.137 87.1871C196.382 83.8297 199.31 79.7285 202.084 74.2869C202.721 73.074 203.291 71.9079 203.733 70.8357C204.537 69.0129 205.321 67.0628 206.052 64.9586Z" fill="#F89E1C"/>
<path d="M194.559 78.0199C196.415 74.428 192.736 71.9618 188.648 74.3274C183.776 77.142 180.894 75.8755 177.644 70.4875C175.004 66.1048 171.144 67.2374 169.79 67.8137C170.212 68.8792 170.641 69.9112 171.084 70.8963C171.526 71.9618 172.096 73.1346 172.732 74.3475C175.507 79.7891 178.435 83.8903 180.68 87.2477C180.767 87.3751 180.861 87.5024 180.955 87.623C182.443 89.7742 184.922 90.7995 187.428 90.766C189.928 90.8062 192.414 89.7742 193.902 87.623C193.996 87.5024 194.09 87.3751 194.177 87.2477C194.907 86.1487 195.718 84.976 196.562 83.696C194.619 83.381 192.763 81.4912 194.559 78.0199Z" fill="#032663"/>
<path d="M187.261 90.8799C184.614 90.8799 182.215 89.6938 180.828 87.6834C180.734 87.5628 180.64 87.4354 180.553 87.3014C180.231 86.8189 179.889 86.3163 179.541 85.8003C177.504 82.7914 174.977 79.052 172.598 74.3878C171.921 73.1011 171.365 71.9351 170.943 70.9299C170.494 69.9314 170.058 68.8927 169.65 67.8472L169.609 67.74L169.717 67.6931C171.238 67.0431 175.064 66.0111 177.718 70.4206C181.042 75.9358 183.877 76.9276 188.561 74.2203C191.054 72.7795 193.245 73.1614 194.311 74.1801C195.289 75.1183 195.416 76.5725 194.639 78.0736C193.855 79.5948 193.714 80.9418 194.237 81.9738C194.659 82.8048 195.524 83.4012 196.549 83.5687L196.737 83.5955L196.629 83.7497C196.154 84.4667 195.691 85.1503 195.242 85.807C194.894 86.323 194.559 86.8189 194.237 87.2947C194.15 87.4287 194.056 87.556 193.962 87.6767C192.555 89.7139 190.109 90.9135 187.395 90.8665C187.348 90.8799 187.301 90.8799 187.261 90.8799ZM187.395 90.6387C190.029 90.6789 192.401 89.5263 193.768 87.5494C193.862 87.422 193.956 87.3014 194.036 87.1741C194.358 86.6916 194.693 86.1957 195.041 85.6797C195.457 85.0698 195.879 84.4332 196.321 83.7765C195.296 83.562 194.445 82.9388 194.016 82.0877C193.627 81.317 193.379 79.9768 194.425 77.9663L194.532 78.02L194.425 77.9663C195.148 76.5658 195.048 75.2188 194.143 74.361C193.138 73.4027 191.061 73.0542 188.682 74.4347C183.91 77.1957 180.881 76.1436 177.51 70.5546C175.011 66.4131 171.446 67.2575 169.918 67.8807C170.313 68.886 170.735 69.8845 171.164 70.8495C171.58 71.8547 172.136 73.0073 172.813 74.294C175.185 78.9448 177.711 82.6774 179.742 85.6797C180.09 86.1957 180.432 86.6983 180.754 87.1808C180.841 87.3081 180.928 87.4287 181.022 87.5561C182.389 89.5263 184.775 90.6856 187.395 90.6387Z" fill="#10319B"/>
<path d="M163.478 57.2792C162.519 59.9463 160.73 66.4132 162.292 74.3744C162.446 75.1518 163.451 75.3729 163.92 74.7363L164.289 74.2404C168.008 69.2009 168.202 62.3789 164.778 57.1317C164.449 56.6224 163.685 56.7095 163.478 57.2792Z" fill="#F5851F"/>
<path d="M187.509 90.8798C187.462 90.8798 187.422 90.8798 187.375 90.8798C184.681 90.92 182.215 89.7272 180.807 87.6833C180.714 87.5626 180.62 87.4353 180.533 87.3013C180.211 86.8188 179.869 86.3162 179.521 85.8002C177.484 82.7912 174.957 79.0519 172.578 74.3877C171.901 73.101 171.345 71.935 170.923 70.9298C170.065 69.0065 169.281 67.0296 168.591 65.0459C167.505 61.9298 167.994 58.6059 169.924 55.9387C171.848 53.285 174.823 51.7973 178.107 51.8442L180.74 51.8844H180.794L187.375 51.9916L193.956 51.8844H193.989L196.65 51.8442C199.933 51.7906 202.909 53.285 204.832 55.9387C206.762 58.6059 207.251 61.9298 206.166 65.0459C205.475 67.0296 204.691 69.0132 203.833 70.9365C203.418 71.9417 202.862 73.1077 202.178 74.3944C199.799 79.0519 197.266 82.7979 195.236 85.8069C194.887 86.3229 194.545 86.8255 194.224 87.308C194.137 87.442 194.043 87.5693 193.949 87.69C192.562 89.6937 190.163 90.8798 187.509 90.8798ZM187.375 90.6386C190.008 90.6788 192.381 89.5261 193.748 87.5492C193.842 87.4219 193.936 87.3013 194.016 87.174C194.338 86.6915 194.679 86.1889 195.028 85.6728C197.058 82.6706 199.585 78.9312 201.957 74.2872C202.634 73.0072 203.183 71.8479 203.606 70.8494C204.463 68.9328 205.247 66.9558 205.931 64.9789C206.99 61.9365 206.514 58.693 204.631 56.0929C202.755 53.5061 199.839 52.0519 196.65 52.0989L194.016 52.1391H193.982L187.382 52.2463L180.794 52.1391H180.74L178.1 52.0989C174.91 52.0519 171.995 53.5061 170.119 56.0929C168.236 58.6997 167.76 61.9365 168.819 64.9789C169.502 66.9558 170.286 68.9328 171.144 70.8494C171.56 71.8546 172.116 73.0072 172.793 74.2939C175.165 78.9446 177.691 82.6773 179.722 85.6795C180.07 86.1956 180.412 86.6982 180.734 87.1807C180.821 87.308 180.908 87.4286 181.002 87.5559C182.376 89.5261 184.761 90.6855 187.375 90.6386Z" fill="#10319B"/>
<path d="M202.889 55.4831C201.193 54.0155 199.035 53.1309 196.623 53.1778L193.976 53.2247C193.956 53.2247 193.942 53.2247 193.922 53.2247L187.308 53.3387L180.694 53.2247C180.673 53.2247 180.66 53.2247 180.64 53.2247L177.993 53.1778C174.321 53.1175 172.323 55.7579 170.595 58.7802C170.206 59.4637 170.588 60.3483 171.332 60.4958C177.597 61.7355 191.851 63.1227 202.889 55.4831Z" fill="#E26907"/>
<path d="M185.659 73.1614C185.029 73.1614 184.393 73.0073 183.81 72.6923C182.57 72.0222 181.806 70.7824 181.759 69.3751L181.518 61.3066C181.478 59.8994 182.168 58.6127 183.367 57.8755C184.567 57.1317 186.021 57.0915 187.261 57.7616L194.425 61.6149C195.624 62.2582 196.381 63.4511 196.455 64.8115C196.529 66.1719 195.899 67.4384 194.78 68.2024C194.746 68.2292 194.706 68.2493 194.673 68.2761L194.626 68.3029L187.71 72.5784C187.073 72.9604 186.363 73.1614 185.659 73.1614ZM185.411 57.7683C184.795 57.7683 184.172 57.9425 183.615 58.2843C182.563 58.9343 181.96 60.0602 182 61.2932L182.242 69.3617C182.282 70.5948 182.952 71.6804 184.038 72.2634C185.123 72.8465 186.403 72.8129 187.449 72.1629L194.411 67.8606C194.445 67.8405 194.478 67.8204 194.505 67.8003C195.483 67.1302 196.033 66.0244 195.966 64.8316C195.906 63.6454 195.242 62.6 194.19 62.0371L187.026 58.1838C186.517 57.9023 185.961 57.7683 185.411 57.7683Z" fill="#F89E1C"/>
<path d="M185.626 73.2217C185.003 73.2217 184.373 73.0675 183.79 72.7526C182.557 72.0891 181.799 70.8628 181.759 69.4622L181.511 61.1927C181.471 59.7988 182.154 58.5255 183.341 57.7884C184.527 57.0512 185.974 57.011 187.207 57.6744L194.545 61.6283C195.732 62.2649 196.482 63.451 196.556 64.798C196.629 66.145 196.006 67.4049 194.901 68.1621C194.867 68.1889 194.827 68.209 194.793 68.2358L194.746 68.2626L187.656 72.6454C187.026 73.0273 186.329 73.2217 185.626 73.2217ZM185.371 57.4533C184.714 57.4533 184.058 57.6342 183.468 58.0028C182.356 58.6931 181.712 59.8859 181.752 61.1927L182 69.4622C182.041 70.769 182.751 71.9216 183.904 72.5448C185.056 73.1681 186.41 73.1279 187.529 72.4376L194.659 68.0281C194.693 68.008 194.726 67.9812 194.76 67.9611C195.799 67.2507 196.382 66.078 196.315 64.8114C196.248 63.5516 195.544 62.4391 194.431 61.8427L187.093 57.8889C186.551 57.6007 185.961 57.4533 185.371 57.4533Z" fill="#10319B"/>
<path d="M164.778 57.1312C164.449 56.6286 163.685 56.7158 163.478 57.2787C162.633 59.6242 161.146 64.9116 161.869 71.5661C161.983 65.6353 164.436 59.9592 165.341 58.0627C165.16 57.7478 164.979 57.4328 164.778 57.1312Z" fill="#F89E1C"/>
<path d="M162.144 70.4811C161.849 70.4811 161.668 70.4275 161.641 70.4208L161.782 69.9584L161.708 70.1862L161.776 69.9517C161.802 69.9584 164.704 70.5883 167.096 64.3158L167.224 65.2607C165.274 70.1996 163.143 70.4811 162.144 70.4811Z" fill="#F89E1C"/>
<path d="M161.97 72.4715C161.97 72.4715 164.503 73.718 166.446 69.8379C166.446 69.8379 164.838 74.6562 163.122 75.0448C163.122 75.0448 162.01 75.2928 161.97 72.4715Z" fill="#032663"/>
<path d="M163.196 75.2255C163.116 75.2255 163.042 75.2188 162.962 75.1987C162.56 75.1049 162.258 74.8033 162.178 74.3946C160.589 66.306 162.479 59.6984 163.364 57.239C163.471 56.9374 163.739 56.723 164.061 56.6828C164.382 56.6426 164.697 56.79 164.872 57.0647C168.309 62.3253 168.108 69.2546 164.376 74.3074L164.007 74.8033C163.819 75.0714 163.518 75.2255 163.196 75.2255ZM164.168 56.9173C164.141 56.9173 164.121 56.9173 164.094 56.924C163.86 56.9508 163.672 57.0982 163.592 57.3194C162.714 59.7654 160.837 66.3194 162.412 74.3476C162.472 74.6559 162.7 74.8905 163.015 74.9642C163.324 75.0312 163.638 74.9173 163.826 74.6626L164.195 74.1667C167.867 69.1943 168.061 62.3722 164.677 57.1988C164.563 57.0178 164.376 56.9173 164.168 56.9173Z" fill="#10319B"/>
<path d="M162.881 72.7323C162.312 72.7323 161.936 72.5848 161.93 72.5781L162.023 72.357C162.124 72.3972 164.57 73.3622 166.413 69.8037L166.627 69.9177C165.394 72.29 163.853 72.7323 162.881 72.7323Z" fill="#10319B"/>
<path d="M162.245 70.6154C161.956 70.6154 161.782 70.5618 161.755 70.5551L161.829 70.3272C161.856 70.3339 164.657 71.1314 167.123 65.2141L167.344 65.3079C165.374 70.0324 163.196 70.6154 162.245 70.6154Z" fill="#10319B"/>
<path d="M211.58 57.2792C212.539 59.9463 214.328 66.4132 212.766 74.3744C212.612 75.1518 211.607 75.3729 211.138 74.7363L210.769 74.2404C207.05 69.2009 206.856 62.3789 210.28 57.1317C210.609 56.6224 211.373 56.7095 211.58 57.2792Z" fill="#F89E1C"/>
<path d="M210.937 58.0699C210.93 58.0833 210.924 58.09 210.917 58.1034C209.744 60.1004 209.979 62.6402 211.466 64.4094C211.956 64.9924 212.552 65.5218 213.256 65.8703C213.249 62.2448 212.317 59.4437 211.775 58.1302C211.627 57.775 211.131 57.7415 210.937 58.0699Z" fill="#F4B821"/>
<path d="M208.457 61.2466C207.244 65.6293 208.029 70.4409 210.769 74.2406L211.125 74.7365C211.165 74.7968 211.218 74.8437 211.272 74.8906L212.492 74.8236C212.606 74.703 212.686 74.5556 212.72 74.3746C212.874 73.5705 212.994 72.7864 213.088 72.0157C209.255 70.3739 208.565 64.2555 208.457 61.2466Z" fill="#F5851F"/>
<path d="M212.86 70.4941C211.848 70.4941 209.677 69.8642 207.781 65.0526L207.941 64.2417C210.361 70.8895 213.242 69.9714 213.269 69.9647L213.43 70.4204C213.396 70.4271 213.195 70.4941 212.86 70.4941Z" fill="#F89E1C"/>
<path d="M213.088 72.4715C213.088 72.4715 210.555 73.718 208.612 69.8379C208.612 69.8379 210.22 74.6562 211.935 75.0448C211.935 75.0448 213.048 75.2928 213.088 72.4715Z" fill="#032663"/>
<path d="M211.862 75.2257C211.54 75.2257 211.238 75.0782 211.037 74.8035L210.669 74.3076C206.936 69.2547 206.742 62.3255 210.173 57.0649C210.354 56.7901 210.662 56.6494 210.984 56.6829C211.306 56.7231 211.574 56.9308 211.681 57.2391C212.565 59.7052 214.462 66.3128 212.867 74.3947C212.787 74.7968 212.485 75.105 212.083 75.1989C212.016 75.219 211.942 75.2257 211.862 75.2257ZM210.89 56.9174C210.682 56.9174 210.501 57.018 210.381 57.1922C206.997 62.3657 207.191 69.1877 210.863 74.1601L211.232 74.656C211.419 74.9107 211.734 75.0246 212.043 74.9576C212.351 74.8906 212.579 74.656 212.646 74.3411C214.227 66.3128 212.344 59.7588 211.466 57.3128C211.386 57.0917 211.198 56.9442 210.964 56.9174C210.937 56.9174 210.917 56.9174 210.89 56.9174Z" fill="#10319B"/>
<path d="M212.177 72.7327C211.205 72.7327 209.664 72.2904 208.431 69.9114L208.645 69.7975C210.488 73.3626 212.934 72.3976 213.035 72.3507L213.128 72.5718C213.122 72.5852 212.746 72.7327 212.177 72.7327Z" fill="#10319B"/>
<path d="M212.813 70.6154C211.862 70.6154 209.684 70.0324 207.714 65.3079L207.935 65.2141C210.414 71.1515 213.202 70.3339 213.229 70.3272L213.303 70.5551C213.276 70.5618 213.101 70.6154 212.813 70.6154Z" fill="#10319B"/>
<path d="M186.108 71.3053C185.626 71.3053 185.143 71.1846 184.694 70.9434C183.743 70.4341 183.16 69.4892 183.126 68.4103L182.945 62.3656C182.912 61.2867 183.441 60.3083 184.359 59.7454C185.277 59.1757 186.39 59.1489 187.335 59.6582L192.696 62.5465C193.614 63.0424 194.19 63.9538 194.244 64.9925C194.297 66.0313 193.822 67.003 192.964 67.586C192.937 67.6061 192.91 67.6195 192.883 67.6396L192.85 67.6597L187.67 70.863C187.187 71.1511 186.651 71.3053 186.108 71.3053ZM185.921 59.7789C185.465 59.7789 185.016 59.9062 184.607 60.1541C183.843 60.6299 183.401 61.4475 183.428 62.3522L183.609 68.3969C183.635 69.3015 184.125 70.0923 184.922 70.5212C185.713 70.9501 186.651 70.9233 187.415 70.4475L192.622 67.2241C192.649 67.2107 192.669 67.1906 192.689 67.1772C193.406 66.688 193.801 65.8771 193.755 65.0126C193.708 64.1482 193.225 63.3842 192.461 62.9687L187.1 60.0804C186.731 59.8794 186.329 59.7789 185.921 59.7789Z" fill="#F89E1C"/>
<path d="M192.702 67.3779C192.729 67.3645 192.756 67.3444 192.776 67.331C194.405 66.2185 194.291 63.7591 192.535 62.8142L187.294 59.9862C185.478 59.0078 183.294 60.3615 183.354 62.4256L183.528 68.3295C183.589 70.3868 185.86 71.6065 187.609 70.5275L192.676 67.398C192.682 67.3913 192.696 67.3846 192.702 67.3779Z" fill="#032663"/>
<path d="M190.511 66.4668C190.524 66.4601 190.538 66.4467 190.551 66.44C191.469 65.8168 191.402 64.4296 190.411 63.8935L187.455 62.3052C186.43 61.7557 185.197 62.5197 185.237 63.679L185.338 67.0096C185.371 68.169 186.651 68.8592 187.636 68.2494L190.491 66.4869C190.498 66.4802 190.504 66.4735 190.511 66.4668Z" fill="#33FCFE"/>
<path d="M203.9 57.7554C203.083 58.6869 198.318 61.0525 198.318 61.0525C198.318 61.0525 199.953 62.2788 199.98 64.8723C200 66.809 198.171 68.5447 198.171 68.5447C199.819 70.2267 199.196 73.1954 197.976 75.4471C196.757 77.6988 197.836 78.3555 197.836 78.3555C197.836 78.3555 204.966 67.7003 205.589 61.7159C205.844 59.2833 203.9 57.7554 203.9 57.7554Z" fill="#F4B821"/>
<path d="M171.687 69.027C171.687 69.027 173.536 68.7187 174.528 69.9719C175.52 71.225 181.417 82.3426 184.165 86.3166C184.661 87.0336 185.934 89.493 187.348 89.0038C187.348 89.0038 185.378 90.123 182.476 87.2012C179.581 84.2726 173.389 72.5519 171.687 69.027Z" fill="#0E51A0"/>
<path d="M168.587 22.5762C169.93 21.629 171.536 20.8228 173.309 20.151L173.195 20.1778C173.195 20.1778 178.892 17.027 187.391 17.027C195.862 17.027 201.626 20.0838 201.66 20.1039C203.487 20.7825 205.127 21.6021 206.504 22.5695C213.135 27.2386 212.591 37.2689 209.682 46.7213C207.579 53.6008 197.562 56.7314 187.552 56.5769C177.542 56.7314 167.525 53.6008 165.409 46.7213C162.5 37.2756 161.956 27.2454 168.587 22.5762Z" fill="#F89E1C"/>
<path d="M168.586 22.6092C169.292 22.112 170.071 21.6552 170.904 21.232C164.408 25.9548 164.959 35.9313 167.847 45.3368C169.964 52.2296 179.974 55.3603 189.991 55.2125C195.681 55.2998 201.371 54.319 205.617 52.196C201.297 55.3401 194.425 56.7913 187.545 56.6838C177.535 56.8383 167.518 53.7009 165.402 46.8081C162.5 37.3422 161.956 27.2918 168.586 22.6092Z" fill="#F5851F"/>
<path d="M171.683 31.0204C167.619 30.1739 167.35 23.6976 167.337 23.4154L167.821 23.402C167.821 23.4625 168.089 29.7776 171.778 30.5434L171.683 31.0204Z" fill="#F89E1C"/>
<path d="M202.54 31.2689L202.406 30.8054C206.45 29.6297 206.685 23.0593 206.685 22.9921L207.169 23.0056C207.162 23.2877 206.92 29.9992 202.54 31.2689Z" fill="#F4B821"/>
<path d="M187.693 22.7842C185.415 22.7842 183.299 22.0385 182.063 20.7822C182.023 20.7419 181.982 20.7015 181.942 20.6545L179.725 18.1554L180.269 17.6716L182.486 20.1641C182.513 20.1977 182.547 20.2313 182.58 20.2649C183.783 21.4876 185.946 22.1594 188.237 22.0385C190.461 21.9175 192.396 21.071 193.41 19.7879L194.995 17.7724L195.566 18.2225L193.981 20.238C192.846 21.6891 190.709 22.6297 188.277 22.764C188.076 22.7775 187.888 22.7842 187.693 22.7842Z" fill="#F4B821"/>
<path d="M187.68 25.411C184.663 25.411 181.929 24.3965 180.189 22.6229C180.128 22.5625 180.061 22.4953 180.001 22.4281L179.933 22.3542L176.89 18.9347L177.434 18.451L180.538 21.9444C180.592 22.0049 180.646 22.0653 180.706 22.1191C182.312 23.7449 184.858 24.6854 187.68 24.6854C187.908 24.6854 188.143 24.6787 188.378 24.6653C191.388 24.4973 193.974 23.3149 195.466 21.4137L197.73 18.5316L198.301 18.9817L196.037 21.8638C194.418 23.9263 191.637 25.2094 188.419 25.3908C188.177 25.4043 187.928 25.411 187.68 25.411Z" fill="#F4B821"/>
<path d="M206.128 24.3431C204.751 23.369 203.111 22.5359 201.284 21.8574C201.244 21.8372 195.466 18.3169 186.994 18.3169C181.418 18.3102 176.548 19.244 173.847 19.8822C175.56 19.0761 180.572 17.027 187.397 17.027C195.869 17.027 201.633 20.1107 201.667 20.1308C203.494 20.8161 205.133 21.6424 206.511 22.6165C212.423 26.8154 212.631 35.3139 210.542 43.8594C212.194 35.9185 211.643 28.2598 206.128 24.3431Z" fill="#F4B821"/>
<path d="M202.936 30.94L202.889 30.7049C206.679 29.9188 207.088 23.1738 207.095 23.1066L207.337 23.12C207.317 23.4022 206.907 30.1137 202.936 30.94Z" fill="#10319B"/>
<path d="M195.748 21.6153L198.012 18.7332C197.219 18.4779 196.299 18.2159 195.271 17.974L193.686 19.9895C192.611 21.36 190.575 22.2468 188.251 22.3812C185.859 22.5155 183.588 21.7967 182.318 20.5001C182.278 20.4598 182.245 20.4262 182.211 20.3859L179.994 17.8934C178.939 18.1285 177.992 18.3973 177.166 18.6593L180.209 22.0788L180.276 22.1527C180.337 22.2132 180.39 22.2804 180.451 22.3408C182.124 24.0405 184.784 25.0147 187.68 25.0147C187.915 25.0147 188.157 25.008 188.398 24.9945C191.509 24.8333 194.19 23.5971 195.748 21.6153Z" fill="#032663"/>
<path d="M172.08 30.9402C168.109 30.1138 167.673 23.4695 167.653 23.1874L167.894 23.174C167.901 23.2411 168.338 29.919 172.127 30.705L172.08 30.9402Z" fill="#10319B"/>
<path d="M187.498 56.489C182.547 56.5629 177.602 55.8776 173.504 54.3727C172.55 53.3516 171.791 52.0348 171.348 50.5031C170.212 46.5729 168.936 41.0775 168.445 34.9035C168.204 31.8668 169.917 29.1124 172.376 28.5212C175.728 27.715 180.901 26.7812 187.041 26.6871V26.6804C187.216 26.6804 187.384 26.6871 187.559 26.6871C187.733 26.6871 187.901 26.6804 188.076 26.6804V26.6871C194.216 26.7812 199.268 27.5605 202.621 28.3667C205.08 28.9579 206.914 31.8668 206.672 34.9035C206.181 41.0775 204.905 46.5729 203.77 50.5031C203.333 52.0012 202.601 53.2911 201.674 54.3123C197.528 55.8574 192.51 56.5629 187.498 56.489Z" fill="#032663"/>
<path d="M204.596 52.7808L203.622 53.3115C203.803 52.774 204.105 51.8671 204.307 51.2289C204.844 49.5493 205.456 47.6414 206 46.3649C206.88 44.3024 209.325 42.7438 210.931 41.9645L210.656 43.0192C209.157 43.7515 207.458 44.7928 206.665 46.6538C206.134 47.9034 205.53 49.7912 204.992 51.4573C204.797 52.0888 204.777 52.2433 204.596 52.7808Z" fill="#F4B821"/>
<path d="M170.803 52.9356C170.75 52.9356 170.703 52.9021 170.689 52.855C170.528 52.378 170.36 51.854 170.185 51.3233C169.661 49.7042 169.063 47.8634 168.506 46.5534C167.693 44.6521 165.946 43.5974 164.341 42.8114C164.28 42.7845 164.253 42.7106 164.287 42.6501C164.314 42.5897 164.388 42.5628 164.448 42.5964C166.094 43.3958 167.888 44.4842 168.734 46.4593C169.299 47.7828 169.897 49.6236 170.421 51.2494C170.595 51.7801 170.763 52.2974 170.918 52.7811C170.938 52.8416 170.904 52.9155 170.844 52.9356C170.83 52.9356 170.817 52.9356 170.803 52.9356Z" fill="#F89E1C"/>
<path d="M210.736 42.9858C210.447 44.2353 210.112 45.4916 209.729 46.7345C208.943 49.3009 207.082 51.3432 204.535 52.9018C205.194 50.9334 205.745 48.7365 206.484 46.9965C207.364 44.9475 209.319 43.671 210.736 42.9858Z" fill="#032663"/>
<path d="M209.01 46.8894C209.278 46.1638 209.527 45.4383 209.762 44.706C209.01 45.1897 208.237 45.8884 207.767 46.8625C207.263 47.8971 206.82 49.1736 206.363 50.3896C207.559 49.4692 208.479 48.3069 209.01 46.8894Z" fill="#0E51A0"/>
<path d="M204.69 52.8885L204.461 52.8146C204.69 52.136 204.905 51.4172 205.113 50.7252C205.51 49.4084 205.926 48.0514 206.41 46.9026C207.283 44.8468 209.238 43.5569 210.716 42.8313L210.824 43.0463C209.379 43.7517 207.485 45.0013 206.631 46.9899C206.148 48.1253 205.738 49.4756 205.342 50.7857C205.133 51.4911 204.918 52.2099 204.69 52.8885Z" fill="#10319B"/>
<path d="M164.341 42.9858C164.629 44.2353 164.965 45.4916 165.348 46.7345C166.134 49.3009 167.995 51.3432 170.541 52.9018C169.883 50.9334 169.332 48.7365 168.593 46.9965C167.72 44.9475 165.758 43.671 164.341 42.9858Z" fill="#032663"/>
<path d="M188.21 56.6846C187.988 56.6846 187.767 56.6846 187.552 56.6779C178.731 56.8122 167.619 54.2929 165.294 46.7484C163.212 39.9899 160.867 27.8569 168.519 22.4689L168.586 22.5697L168.519 22.4689C169.856 21.5284 173.101 20.0974 173.242 20.0369C173.289 20.01 178.966 16.9062 187.397 16.9062C195.855 16.9062 201.667 19.963 201.727 19.9966C203.601 20.6886 205.241 21.5216 206.584 22.4689C214.236 27.8569 211.892 39.9899 209.809 46.7417C207.538 54.1048 196.91 56.6846 188.21 56.6846ZM187.545 56.436C187.76 56.436 187.982 56.4427 188.203 56.4427C196.823 56.4427 207.343 53.91 209.574 46.6745C211.636 39.9832 213.968 27.9711 206.443 22.6704C205.113 21.7366 203.494 20.9103 201.626 20.2183C201.552 20.178 195.788 17.1548 187.397 17.1548C179.033 17.1548 173.403 20.225 173.35 20.2586C173.309 20.2788 169.984 21.7433 168.66 22.6704C161.129 27.9644 163.467 39.9832 165.523 46.6745C167.807 54.0914 178.818 56.5704 187.545 56.436Z" fill="#10319B"/>
<path d="M187.552 55.4279C183.306 55.4883 179.067 54.9576 175.452 53.7953C174.895 53.6139 174.391 53.278 174.041 52.8078C173.444 52.015 172.973 51.0812 172.658 50.0399C171.609 46.5061 170.434 41.5548 169.984 35.9989C169.762 33.2646 171.341 30.7856 173.605 30.2548C176.695 29.5293 181.465 28.6895 187.128 28.6022V28.5955C187.29 28.5955 187.444 28.5955 187.605 28.6022C187.767 28.6022 187.921 28.5955 188.082 28.5955V28.6022C193.746 28.6895 198.509 29.5293 201.606 30.2548C203.877 30.7856 205.449 33.2646 205.227 35.9989C204.77 41.5548 203.601 46.5061 202.553 50.0399C202.244 51.0745 201.781 51.9949 201.19 52.7809C200.854 53.231 200.383 53.5535 199.853 53.7282C196.185 54.9441 191.872 55.495 187.552 55.4279Z" fill="#FCE8CA"/>
<path fill-rule="evenodd" clip-rule="evenodd" d="M177.37 42.2748C177.533 42.069 177.833 42.035 178.039 42.1989C178.818 42.819 180.96 44.1638 183.199 44.5352C183.431 44.5737 183.6 44.7757 183.597 45.0109C183.594 45.246 183.421 45.4441 183.188 45.4772C182.637 45.5554 181.705 45.7337 180.72 46.0116C179.728 46.2913 178.72 46.6621 177.994 47.1135C177.771 47.2526 177.477 47.1841 177.338 46.9606C177.199 46.7372 177.267 46.4433 177.491 46.3043C178.33 45.7822 179.44 45.3824 180.461 45.0943C180.664 45.0369 180.865 44.9836 181.062 44.9343C179.426 44.3242 178.06 43.4341 177.445 42.9445C177.24 42.7805 177.206 42.4807 177.37 42.2748Z" fill="#0E51A0"/>
<path d="M181.083 39.8217C181.117 39.8275 181.155 39.8456 181.185 39.8742C181.629 40.2599 182.212 40.4118 182.789 40.2877C182.916 40.2625 183.037 40.3417 183.064 40.4632C183.089 40.5904 183.01 40.7115 182.888 40.7377C182.171 40.8908 181.442 40.7023 180.886 40.2213C180.79 40.1347 180.779 39.9923 180.866 39.8959C180.912 39.8277 180.999 39.8015 181.083 39.8217Z" fill="#032663"/>
<path fill-rule="evenodd" clip-rule="evenodd" d="M197.569 42.2748C197.405 42.069 197.105 42.035 196.899 42.1989C196.121 42.819 193.978 44.1638 191.74 44.5352C191.508 44.5737 191.339 44.7757 191.341 45.0109C191.344 45.246 191.518 45.4441 191.751 45.4772C192.301 45.5554 193.234 45.7337 194.219 46.0116C195.21 46.2913 196.219 46.6621 196.944 47.1135C197.168 47.2526 197.462 47.1841 197.601 46.9606C197.74 46.7372 197.671 46.4433 197.448 46.3043C196.609 45.7822 195.499 45.3824 194.477 45.0943C194.274 45.0369 194.073 44.9836 193.877 44.9343C195.513 44.3242 196.878 43.4341 197.493 42.9445C197.699 42.7805 197.733 42.4807 197.569 42.2748Z" fill="#0E51A0"/>
<path d="M193.855 39.8217C193.821 39.8275 193.783 39.8457 193.753 39.8742C193.309 40.2599 192.726 40.4118 192.149 40.2877C192.022 40.2625 191.901 40.3417 191.875 40.4632C191.85 40.5904 191.929 40.7115 192.05 40.7377C192.767 40.8908 193.496 40.7023 194.052 40.2213C194.148 40.1347 194.159 39.9923 194.073 39.8959C194.026 39.8277 193.94 39.8015 193.855 39.8217Z" fill="#032663"/>
<path d="M184.607 53.125C184.559 53.1228 184.51 53.1205 184.46 53.1079C184.103 53.0257 183.875 52.6681 183.953 52.3108C184.343 50.4912 185.809 49.315 187.689 49.3125C189.519 49.3078 191.139 50.5701 191.545 52.3037C191.629 52.6649 191.407 53.0208 191.048 53.0999C190.689 53.1791 190.331 52.9519 190.248 52.5906C190.023 51.6203 189.076 50.6426 187.703 50.642C186.443 50.6432 185.5 51.3944 185.241 52.6054C185.177 52.9175 184.912 53.1252 184.607 53.125Z" fill="#0E51A0"/>
<path d="M186.746 56.543C181.848 56.543 177.266 55.8107 173.457 54.4133L173.43 54.4066L173.41 54.3864C172.416 53.3182 171.663 51.9612 171.227 50.463C170.185 46.8486 168.828 41.1986 168.318 34.8097C168.069 31.6991 169.796 28.8977 172.342 28.2863C175.762 27.4667 190.945 25.0616 202.762 28.2863C205.295 28.9783 207.021 31.7798 206.779 34.8097C206.269 41.1986 204.918 46.8486 203.87 50.463C203.447 51.9343 202.708 53.2712 201.747 54.326L201.727 54.3461L201.7 54.3596C197.723 55.851 192.678 56.6303 187.491 56.5497C187.243 56.543 186.994 56.543 186.746 56.543ZM187.498 56.2944C192.644 56.375 197.643 55.6024 201.593 54.1311C202.52 53.1033 203.232 51.8134 203.642 50.3891C204.683 46.7882 206.034 41.1516 206.537 34.7828C206.773 31.8671 205.12 29.1731 202.695 28.5147C190.924 25.3034 175.802 27.7018 172.396 28.5147C169.97 29.0992 168.318 31.7932 168.56 34.7828C169.07 41.1516 170.414 46.7882 171.455 50.3891C171.878 51.847 172.604 53.1637 173.565 54.1983C177.481 55.6226 182.426 56.375 187.498 56.2944Z" fill="#10319B"/>
<path d="M170.434 52.8078C170.212 52.1495 170.004 51.4642 169.802 50.7991C169.406 49.4958 168.989 48.1522 168.499 46.9966C167.652 45.008 165.751 43.7517 164.307 43.0531L164.414 42.8381C165.892 43.5569 167.841 44.8468 168.721 46.9093C169.218 48.0715 169.634 49.4286 170.031 50.7319C170.232 51.397 170.441 52.0823 170.662 52.7339L170.434 52.8078Z" fill="#10319B"/>
<path d="M207.182 42.9318L210.293 41.1179C210.293 41.1179 211.18 32.1828 208.291 28.1183L207.458 30.6779C207.458 30.6779 208.795 32.6194 207.182 42.9318Z" fill="#F4B821"/>
</g>
</g>
<path d="M103.132 120.974C103.487 121.03 103.809 121.175 104.098 121.408C104.397 121.641 104.63 121.931 104.798 122.276C104.975 122.621 105.064 122.99 105.064 123.382C105.064 123.877 104.938 124.325 104.686 124.726C104.434 125.118 104.065 125.431 103.58 125.664C103.104 125.888 102.539 126 101.886 126H98.246V116.242H101.746C102.409 116.242 102.973 116.354 103.44 116.578C103.907 116.793 104.257 117.087 104.49 117.46C104.723 117.833 104.84 118.253 104.84 118.72C104.84 119.299 104.681 119.779 104.364 120.162C104.056 120.535 103.645 120.806 103.132 120.974ZM99.52 120.456H101.662C102.259 120.456 102.721 120.316 103.048 120.036C103.375 119.756 103.538 119.369 103.538 118.874C103.538 118.379 103.375 117.992 103.048 117.712C102.721 117.432 102.25 117.292 101.634 117.292H99.52V120.456ZM101.774 124.95C102.409 124.95 102.903 124.801 103.258 124.502C103.613 124.203 103.79 123.788 103.79 123.256C103.79 122.715 103.603 122.29 103.23 121.982C102.857 121.665 102.357 121.506 101.732 121.506H99.52V124.95H101.774ZM114.082 121.87C114.082 122.113 114.068 122.369 114.04 122.64H107.908C107.955 123.396 108.211 123.989 108.678 124.418C109.154 124.838 109.728 125.048 110.4 125.048C110.951 125.048 111.408 124.922 111.772 124.67C112.145 124.409 112.407 124.063 112.556 123.634H113.928C113.723 124.371 113.312 124.973 112.696 125.44C112.08 125.897 111.315 126.126 110.4 126.126C109.672 126.126 109.019 125.963 108.44 125.636C107.871 125.309 107.423 124.847 107.096 124.25C106.769 123.643 106.606 122.943 106.606 122.15C106.606 121.357 106.765 120.661 107.082 120.064C107.399 119.467 107.843 119.009 108.412 118.692C108.991 118.365 109.653 118.202 110.4 118.202C111.128 118.202 111.772 118.361 112.332 118.678C112.892 118.995 113.321 119.434 113.62 119.994C113.928 120.545 114.082 121.17 114.082 121.87ZM112.766 121.604C112.766 121.119 112.659 120.703 112.444 120.358C112.229 120.003 111.935 119.737 111.562 119.56C111.198 119.373 110.792 119.28 110.344 119.28C109.7 119.28 109.149 119.485 108.692 119.896C108.244 120.307 107.987 120.876 107.922 121.604H112.766ZM117.288 115.64V126H116.014V115.64H117.288ZM126.513 118.328V126H125.239V124.866C124.996 125.258 124.656 125.566 124.217 125.79C123.788 126.005 123.312 126.112 122.789 126.112C122.192 126.112 121.655 125.991 121.179 125.748C120.703 125.496 120.325 125.123 120.045 124.628C119.774 124.133 119.639 123.531 119.639 122.822V118.328H120.899V122.654C120.899 123.41 121.09 123.993 121.473 124.404C121.856 124.805 122.378 125.006 123.041 125.006C123.722 125.006 124.259 124.796 124.651 124.376C125.043 123.956 125.239 123.345 125.239 122.542V118.328H126.513ZM138.14 118.188C138.737 118.188 139.269 118.314 139.736 118.566C140.203 118.809 140.571 119.177 140.842 119.672C141.113 120.167 141.248 120.769 141.248 121.478V126H139.988V121.66C139.988 120.895 139.797 120.311 139.414 119.91C139.041 119.499 138.532 119.294 137.888 119.294C137.225 119.294 136.698 119.509 136.306 119.938C135.914 120.358 135.718 120.969 135.718 121.772V126H134.458V121.66C134.458 120.895 134.267 120.311 133.884 119.91C133.511 119.499 133.002 119.294 132.358 119.294C131.695 119.294 131.168 119.509 130.776 119.938C130.384 120.358 130.188 120.969 130.188 121.772V126H128.914V118.328H130.188V119.434C130.44 119.033 130.776 118.725 131.196 118.51C131.625 118.295 132.097 118.188 132.61 118.188C133.254 118.188 133.823 118.333 134.318 118.622C134.813 118.911 135.181 119.336 135.424 119.896C135.639 119.355 135.993 118.935 136.488 118.636C136.983 118.337 137.533 118.188 138.14 118.188ZM147.094 122.136C147.094 121.352 147.253 120.666 147.57 120.078C147.888 119.481 148.322 119.019 148.872 118.692C149.432 118.365 150.053 118.202 150.734 118.202C151.406 118.202 151.99 118.347 152.484 118.636C152.979 118.925 153.348 119.289 153.59 119.728V118.328H154.878V126H153.59V124.572C153.338 125.02 152.96 125.393 152.456 125.692C151.962 125.981 151.383 126.126 150.72 126.126C150.039 126.126 149.423 125.958 148.872 125.622C148.322 125.286 147.888 124.815 147.57 124.208C147.253 123.601 147.094 122.911 147.094 122.136ZM153.59 122.15C153.59 121.571 153.474 121.067 153.24 120.638C153.007 120.209 152.69 119.882 152.288 119.658C151.896 119.425 151.462 119.308 150.986 119.308C150.51 119.308 150.076 119.42 149.684 119.644C149.292 119.868 148.98 120.195 148.746 120.624C148.513 121.053 148.396 121.557 148.396 122.136C148.396 122.724 148.513 123.237 148.746 123.676C148.98 124.105 149.292 124.437 149.684 124.67C150.076 124.894 150.51 125.006 150.986 125.006C151.462 125.006 151.896 124.894 152.288 124.67C152.69 124.437 153.007 124.105 153.24 123.676C153.474 123.237 153.59 122.729 153.59 122.15ZM156.805 122.136C156.805 121.352 156.964 120.666 157.281 120.078C157.598 119.481 158.032 119.019 158.583 118.692C159.143 118.365 159.768 118.202 160.459 118.202C161.056 118.202 161.612 118.342 162.125 118.622C162.638 118.893 163.03 119.252 163.301 119.7V115.64H164.589V126H163.301V124.558C163.049 125.015 162.676 125.393 162.181 125.692C161.686 125.981 161.108 126.126 160.445 126.126C159.764 126.126 159.143 125.958 158.583 125.622C158.032 125.286 157.598 124.815 157.281 124.208C156.964 123.601 156.805 122.911 156.805 122.136ZM163.301 122.15C163.301 121.571 163.184 121.067 162.951 120.638C162.718 120.209 162.4 119.882 161.999 119.658C161.607 119.425 161.173 119.308 160.697 119.308C160.221 119.308 159.787 119.42 159.395 119.644C159.003 119.868 158.69 120.195 158.457 120.624C158.224 121.053 158.107 121.557 158.107 122.136C158.107 122.724 158.224 123.237 158.457 123.676C158.69 124.105 159.003 124.437 159.395 124.67C159.787 124.894 160.221 125.006 160.697 125.006C161.173 125.006 161.607 124.894 161.999 124.67C162.4 124.437 162.718 124.105 162.951 123.676C163.184 123.237 163.301 122.729 163.301 122.15ZM166.516 122.136C166.516 121.352 166.675 120.666 166.992 120.078C167.309 119.481 167.743 119.019 168.294 118.692C168.854 118.365 169.475 118.202 170.156 118.202C170.828 118.202 171.411 118.347 171.906 118.636C172.401 118.925 172.769 119.289 173.012 119.728V118.328H174.3V126H173.012V124.572C172.76 125.02 172.382 125.393 171.878 125.692C171.383 125.981 170.805 126.126 170.142 126.126C169.461 126.126 168.845 125.958 168.294 125.622C167.743 125.286 167.309 124.815 166.992 124.208C166.675 123.601 166.516 122.911 166.516 122.136ZM173.012 122.15C173.012 121.571 172.895 121.067 172.662 120.638C172.429 120.209 172.111 119.882 171.71 119.658C171.318 119.425 170.884 119.308 170.408 119.308C169.932 119.308 169.498 119.42 169.106 119.644C168.714 119.868 168.401 120.195 168.168 120.624C167.935 121.053 167.818 121.557 167.818 122.136C167.818 122.724 167.935 123.237 168.168 123.676C168.401 124.105 168.714 124.437 169.106 124.67C169.498 124.894 169.932 125.006 170.408 125.006C170.884 125.006 171.318 124.894 171.71 124.67C172.111 124.437 172.429 124.105 172.662 123.676C172.895 123.237 173.012 122.729 173.012 122.15ZM181.371 117.082C181.129 117.082 180.923 116.998 180.755 116.83C180.597 116.662 180.517 116.457 180.517 116.214C180.517 115.971 180.597 115.766 180.755 115.598C180.923 115.43 181.129 115.346 181.371 115.346C181.614 115.346 181.815 115.43 181.973 115.598C182.141 115.766 182.225 115.971 182.225 116.214C182.225 116.457 182.141 116.662 181.973 116.83C181.815 116.998 181.614 117.082 181.371 117.082ZM182.001 127.666C182.001 128.347 181.829 128.847 181.483 129.164C181.138 129.481 180.634 129.64 179.971 129.64H179.229V128.562H179.761C180.116 128.562 180.363 128.492 180.503 128.352C180.653 128.212 180.727 127.974 180.727 127.638V118.328H182.001V127.666ZM183.932 122.136C183.932 121.352 184.091 120.666 184.408 120.078C184.725 119.481 185.159 119.019 185.71 118.692C186.27 118.365 186.891 118.202 187.572 118.202C188.244 118.202 188.827 118.347 189.322 118.636C189.817 118.925 190.185 119.289 190.428 119.728V118.328H191.716V126H190.428V124.572C190.176 125.02 189.798 125.393 189.294 125.692C188.799 125.981 188.221 126.126 187.558 126.126C186.877 126.126 186.261 125.958 185.71 125.622C185.159 125.286 184.725 124.815 184.408 124.208C184.091 123.601 183.932 122.911 183.932 122.136ZM190.428 122.15C190.428 121.571 190.311 121.067 190.078 120.638C189.845 120.209 189.527 119.882 189.126 119.658C188.734 119.425 188.3 119.308 187.824 119.308C187.348 119.308 186.914 119.42 186.522 119.644C186.13 119.868 185.817 120.195 185.584 120.624C185.351 121.053 185.234 121.557 185.234 122.136C185.234 122.724 185.351 123.237 185.584 123.676C185.817 124.105 186.13 124.437 186.522 124.67C186.914 124.894 187.348 125.006 187.824 125.006C188.3 125.006 188.734 124.894 189.126 124.67C189.527 124.437 189.845 124.105 190.078 123.676C190.311 123.237 190.428 122.729 190.428 122.15ZM193.643 122.136C193.643 121.352 193.802 120.666 194.119 120.078C194.436 119.481 194.87 119.019 195.421 118.692C195.981 118.365 196.606 118.202 197.297 118.202C197.894 118.202 198.45 118.342 198.963 118.622C199.476 118.893 199.868 119.252 200.139 119.7V115.64H201.427V126H200.139V124.558C199.887 125.015 199.514 125.393 199.019 125.692C198.524 125.981 197.946 126.126 197.283 126.126C196.602 126.126 195.981 125.958 195.421 125.622C194.87 125.286 194.436 124.815 194.119 124.208C193.802 123.601 193.643 122.911 193.643 122.136ZM200.139 122.15C200.139 121.571 200.022 121.067 199.789 120.638C199.556 120.209 199.238 119.882 198.837 119.658C198.445 119.425 198.011 119.308 197.535 119.308C197.059 119.308 196.625 119.42 196.233 119.644C195.841 119.868 195.528 120.195 195.295 120.624C195.062 121.053 194.945 121.557 194.945 122.136C194.945 122.724 195.062 123.237 195.295 123.676C195.528 124.105 195.841 124.437 196.233 124.67C196.625 124.894 197.059 125.006 197.535 125.006C198.011 125.006 198.445 124.894 198.837 124.67C199.238 124.437 199.556 124.105 199.789 123.676C200.022 123.237 200.139 122.729 200.139 122.15ZM214.05 118.328L211.656 126H210.34L208.492 119.91L206.644 126H205.328L202.92 118.328H204.222L205.986 124.768L207.89 118.328H209.192L211.054 124.782L212.79 118.328H214.05ZM215.088 122.136C215.088 121.352 215.247 120.666 215.564 120.078C215.882 119.481 216.316 119.019 216.866 118.692C217.426 118.365 218.047 118.202 218.728 118.202C219.4 118.202 219.984 118.347 220.478 118.636C220.973 118.925 221.342 119.289 221.584 119.728V118.328H222.872V126H221.584V124.572C221.332 125.02 220.954 125.393 220.45 125.692C219.956 125.981 219.377 126.126 218.714 126.126C218.033 126.126 217.417 125.958 216.866 125.622C216.316 125.286 215.882 124.815 215.564 124.208C215.247 123.601 215.088 122.911 215.088 122.136ZM221.584 122.15C221.584 121.571 221.468 121.067 221.234 120.638C221.001 120.209 220.684 119.882 220.282 119.658C219.89 119.425 219.456 119.308 218.98 119.308C218.504 119.308 218.07 119.42 217.678 119.644C217.286 119.868 216.974 120.195 216.74 120.624C216.507 121.053 216.39 121.557 216.39 122.136C216.39 122.724 216.507 123.237 216.74 123.676C216.974 124.105 217.286 124.437 217.678 124.67C218.07 124.894 218.504 125.006 218.98 125.006C219.456 125.006 219.89 124.894 220.282 124.67C220.684 124.437 221.001 124.105 221.234 123.676C221.468 123.237 221.584 122.729 221.584 122.15ZM226.549 115.64V126H225.275V115.64H226.549ZM229.377 126.084C229.134 126.084 228.929 126 228.761 125.832C228.593 125.664 228.509 125.459 228.509 125.216C228.509 124.973 228.593 124.768 228.761 124.6C228.929 124.432 229.134 124.348 229.377 124.348C229.61 124.348 229.806 124.432 229.965 124.6C230.133 124.768 230.217 124.973 230.217 125.216C230.217 125.459 230.133 125.664 229.965 125.832C229.806 126 229.61 126.084 229.377 126.084ZM45.9503 138.974C46.305 139.03 46.627 139.175 46.9163 139.408C47.215 139.641 47.4483 139.931 47.6163 140.276C47.7937 140.621 47.8823 140.99 47.8823 141.382C47.8823 141.877 47.7563 142.325 47.5043 142.726C47.2523 143.118 46.8837 143.431 46.3983 143.664C45.9223 143.888 45.3577 144 44.7043 144H41.0643V134.242H44.5643C45.227 134.242 45.7917 134.354 46.2583 134.578C46.725 134.793 47.075 135.087 47.3083 135.46C47.5417 135.833 47.6583 136.253 47.6583 136.72C47.6583 137.299 47.4997 137.779 47.1823 138.162C46.8743 138.535 46.4637 138.806 45.9503 138.974ZM42.3383 138.456H44.4803C45.0777 138.456 45.5397 138.316 45.8663 138.036C46.193 137.756 46.3563 137.369 46.3563 136.874C46.3563 136.379 46.193 135.992 45.8663 135.712C45.5397 135.432 45.0683 135.292 44.4523 135.292H42.3383V138.456ZM44.5923 142.95C45.227 142.95 45.7217 142.801 46.0763 142.502C46.431 142.203 46.6083 141.788 46.6083 141.256C46.6083 140.715 46.4217 140.29 46.0483 139.982C45.675 139.665 45.1757 139.506 44.5503 139.506H42.3383V142.95H44.5923ZM56.7043 136.328V144H55.4303V142.866C55.1876 143.258 54.8469 143.566 54.4083 143.79C53.9789 144.005 53.5029 144.112 52.9803 144.112C52.3829 144.112 51.8463 143.991 51.3703 143.748C50.8943 143.496 50.5163 143.123 50.2363 142.628C49.9656 142.133 49.8303 141.531 49.8303 140.822V136.328H51.0903V140.654C51.0903 141.41 51.2816 141.993 51.6643 142.404C52.0469 142.805 52.5696 143.006 53.2323 143.006C53.9136 143.006 54.4503 142.796 54.8423 142.376C55.2343 141.956 55.4303 141.345 55.4303 140.542V136.328H56.7043ZM58.6293 140.136C58.6293 139.352 58.788 138.666 59.1053 138.078C59.4227 137.481 59.8567 137.019 60.4073 136.692C60.9673 136.365 61.588 136.202 62.2693 136.202C62.9413 136.202 63.5247 136.347 64.0193 136.636C64.514 136.925 64.8827 137.289 65.1253 137.728V136.328H66.4133V144H65.1253V142.572C64.8733 143.02 64.4953 143.393 63.9913 143.692C63.4967 143.981 62.918 144.126 62.2553 144.126C61.574 144.126 60.958 143.958 60.4073 143.622C59.8567 143.286 59.4227 142.815 59.1053 142.208C58.788 141.601 58.6293 140.911 58.6293 140.136ZM65.1253 140.15C65.1253 139.571 65.0087 139.067 64.7753 138.638C64.542 138.209 64.2247 137.882 63.8233 137.658C63.4313 137.425 62.9973 137.308 62.5213 137.308C62.0453 137.308 61.6113 137.42 61.2193 137.644C60.8273 137.868 60.5147 138.195 60.2813 138.624C60.048 139.053 59.9313 139.557 59.9313 140.136C59.9313 140.724 60.048 141.237 60.2813 141.676C60.5147 142.105 60.8273 142.437 61.2193 142.67C61.6113 142.894 62.0453 143.006 62.5213 143.006C62.9973 143.006 63.4313 142.894 63.8233 142.67C64.2247 142.437 64.542 142.105 64.7753 141.676C65.0087 141.237 65.1253 140.729 65.1253 140.15ZM70.3703 137.378V141.9C70.3703 142.273 70.4496 142.539 70.6083 142.698C70.7669 142.847 71.0423 142.922 71.4343 142.922H72.3723V144H71.2243C70.5149 144 69.9829 143.837 69.6283 143.51C69.2736 143.183 69.0963 142.647 69.0963 141.9V137.378H68.1023V136.328H69.0963V134.396H70.3703V136.328H72.3723V137.378H70.3703ZM78.8343 135.082C78.5916 135.082 78.3863 134.998 78.2183 134.83C78.0596 134.662 77.9803 134.457 77.9803 134.214C77.9803 133.971 78.0596 133.766 78.2183 133.598C78.3863 133.43 78.5916 133.346 78.8343 133.346C79.077 133.346 79.2776 133.43 79.4363 133.598C79.6043 133.766 79.6883 133.971 79.6883 134.214C79.6883 134.457 79.6043 134.662 79.4363 134.83C79.2776 134.998 79.077 135.082 78.8343 135.082ZM79.4643 145.666C79.4643 146.347 79.2916 146.847 78.9463 147.164C78.601 147.481 78.097 147.64 77.4343 147.64H76.6923V146.562H77.2243C77.579 146.562 77.8263 146.492 77.9663 146.352C78.1156 146.212 78.1903 145.974 78.1903 145.638V136.328H79.4643V145.666ZM81.395 140.136C81.395 139.352 81.5536 138.666 81.871 138.078C82.1883 137.481 82.6223 137.019 83.173 136.692C83.733 136.365 84.3536 136.202 85.035 136.202C85.707 136.202 86.2903 136.347 86.785 136.636C87.2796 136.925 87.6483 137.289 87.891 137.728V136.328H89.179V144H87.891V142.572C87.639 143.02 87.261 143.393 86.757 143.692C86.2623 143.981 85.6836 144.126 85.021 144.126C84.3396 144.126 83.7236 143.958 83.173 143.622C82.6223 143.286 82.1883 142.815 81.871 142.208C81.5536 141.601 81.395 140.911 81.395 140.136ZM87.891 140.15C87.891 139.571 87.7743 139.067 87.541 138.638C87.3076 138.209 86.9903 137.882 86.589 137.658C86.197 137.425 85.763 137.308 85.287 137.308C84.811 137.308 84.377 137.42 83.985 137.644C83.593 137.868 83.2803 138.195 83.047 138.624C82.8136 139.053 82.697 139.557 82.697 140.136C82.697 140.724 82.8136 141.237 83.047 141.676C83.2803 142.105 83.593 142.437 83.985 142.67C84.377 142.894 84.811 143.006 85.287 143.006C85.763 143.006 86.197 142.894 86.589 142.67C86.9903 142.437 87.3076 142.105 87.541 141.676C87.7743 141.237 87.891 140.729 87.891 140.15ZM91.1059 140.136C91.1059 139.352 91.2646 138.666 91.5819 138.078C91.8992 137.481 92.3332 137.019 92.8839 136.692C93.4439 136.365 94.0692 136.202 94.7599 136.202C95.3572 136.202 95.9126 136.342 96.4259 136.622C96.9392 136.893 97.3312 137.252 97.6019 137.7V133.64H98.8899V144H97.6019V142.558C97.3499 143.015 96.9766 143.393 96.4819 143.692C95.9872 143.981 95.4086 144.126 94.7459 144.126C94.0646 144.126 93.4439 143.958 92.8839 143.622C92.3332 143.286 91.8992 142.815 91.5819 142.208C91.2646 141.601 91.1059 140.911 91.1059 140.136ZM97.6019 140.15C97.6019 139.571 97.4852 139.067 97.2519 138.638C97.0186 138.209 96.7012 137.882 96.2999 137.658C95.9079 137.425 95.4739 137.308 94.9979 137.308C94.5219 137.308 94.0879 137.42 93.6959 137.644C93.3039 137.868 92.9912 138.195 92.7579 138.624C92.5246 139.053 92.4079 139.557 92.4079 140.136C92.4079 140.724 92.5246 141.237 92.7579 141.676C92.9912 142.105 93.3039 142.437 93.6959 142.67C94.0879 142.894 94.5219 143.006 94.9979 143.006C95.4739 143.006 95.9079 142.894 96.2999 142.67C96.7012 142.437 97.0186 142.105 97.2519 141.676C97.4852 141.237 97.6019 140.729 97.6019 140.15ZM111.513 136.328L109.119 144H107.803L105.955 137.91L104.107 144H102.791L100.383 136.328H101.685L103.449 142.768L105.353 136.328H106.655L108.517 142.782L110.253 136.328H111.513ZM112.551 140.136C112.551 139.352 112.71 138.666 113.027 138.078C113.345 137.481 113.779 137.019 114.329 136.692C114.889 136.365 115.51 136.202 116.191 136.202C116.863 136.202 117.447 136.347 117.941 136.636C118.436 136.925 118.805 137.289 119.047 137.728V136.328H120.335V144H119.047V142.572C118.795 143.02 118.417 143.393 117.913 143.692C117.419 143.981 116.84 144.126 116.177 144.126C115.496 144.126 114.88 143.958 114.329 143.622C113.779 143.286 113.345 142.815 113.027 142.208C112.71 141.601 112.551 140.911 112.551 140.136ZM119.047 140.15C119.047 139.571 118.931 139.067 118.697 138.638C118.464 138.209 118.147 137.882 117.745 137.658C117.353 137.425 116.919 137.308 116.443 137.308C115.967 137.308 115.533 137.42 115.141 137.644C114.749 137.868 114.437 138.195 114.203 138.624C113.97 139.053 113.853 139.557 113.853 140.136C113.853 140.724 113.97 141.237 114.203 141.676C114.437 142.105 114.749 142.437 115.141 142.67C115.533 142.894 115.967 143.006 116.443 143.006C116.919 143.006 117.353 142.894 117.745 142.67C118.147 142.437 118.464 142.105 118.697 141.676C118.931 141.237 119.047 140.729 119.047 140.15ZM124.012 133.64V144H122.738V133.64H124.012ZM131.69 137.756C131.951 137.299 132.334 136.925 132.838 136.636C133.342 136.347 133.916 136.202 134.56 136.202C135.251 136.202 135.871 136.365 136.422 136.692C136.973 137.019 137.407 137.481 137.724 138.078C138.041 138.666 138.2 139.352 138.2 140.136C138.2 140.911 138.041 141.601 137.724 142.208C137.407 142.815 136.968 143.286 136.408 143.622C135.857 143.958 135.241 144.126 134.56 144.126C133.897 144.126 133.314 143.981 132.81 143.692C132.315 143.403 131.942 143.034 131.69 142.586V144H130.416V133.64H131.69V137.756ZM136.898 140.136C136.898 139.557 136.781 139.053 136.548 138.624C136.315 138.195 135.997 137.868 135.596 137.644C135.204 137.42 134.77 137.308 134.294 137.308C133.827 137.308 133.393 137.425 132.992 137.658C132.6 137.882 132.283 138.213 132.04 138.652C131.807 139.081 131.69 139.581 131.69 140.15C131.69 140.729 131.807 141.237 132.04 141.676C132.283 142.105 132.6 142.437 132.992 142.67C133.393 142.894 133.827 143.006 134.294 143.006C134.77 143.006 135.204 142.894 135.596 142.67C135.997 142.437 136.315 142.105 136.548 141.676C136.781 141.237 136.898 140.724 136.898 140.136ZM147.127 139.87C147.127 140.113 147.113 140.369 147.085 140.64H140.953C140.999 141.396 141.256 141.989 141.723 142.418C142.199 142.838 142.773 143.048 143.445 143.048C143.995 143.048 144.453 142.922 144.817 142.67C145.19 142.409 145.451 142.063 145.601 141.634H146.973C146.767 142.371 146.357 142.973 145.741 143.44C145.125 143.897 144.359 144.126 143.445 144.126C142.717 144.126 142.063 143.963 141.485 143.636C140.915 143.309 140.467 142.847 140.141 142.25C139.814 141.643 139.651 140.943 139.651 140.15C139.651 139.357 139.809 138.661 140.127 138.064C140.444 137.467 140.887 137.009 141.457 136.692C142.035 136.365 142.698 136.202 143.445 136.202C144.173 136.202 144.817 136.361 145.377 136.678C145.937 136.995 146.366 137.434 146.665 137.994C146.973 138.545 147.127 139.17 147.127 139.87ZM145.811 139.604C145.811 139.119 145.703 138.703 145.489 138.358C145.274 138.003 144.98 137.737 144.607 137.56C144.243 137.373 143.837 137.28 143.389 137.28C142.745 137.28 142.194 137.485 141.737 137.896C141.289 138.307 141.032 138.876 140.967 139.604H145.811ZM150.332 133.64V144H149.058V133.64H150.332ZM152.278 140.136C152.278 139.352 152.436 138.666 152.754 138.078C153.071 137.481 153.505 137.019 154.056 136.692C154.616 136.365 155.236 136.202 155.918 136.202C156.59 136.202 157.173 136.347 157.668 136.636C158.162 136.925 158.531 137.289 158.774 137.728V136.328H160.062V144H158.774V142.572C158.522 143.02 158.144 143.393 157.64 143.692C157.145 143.981 156.566 144.126 155.904 144.126C155.222 144.126 154.606 143.958 154.056 143.622C153.505 143.286 153.071 142.815 152.754 142.208C152.436 141.601 152.278 140.911 152.278 140.136ZM158.774 140.15C158.774 139.571 158.657 139.067 158.424 138.638C158.19 138.209 157.873 137.882 157.472 137.658C157.08 137.425 156.646 137.308 156.17 137.308C155.694 137.308 155.26 137.42 154.868 137.644C154.476 137.868 154.163 138.195 153.93 138.624C153.696 139.053 153.58 139.557 153.58 140.136C153.58 140.724 153.696 141.237 153.93 141.676C154.163 142.105 154.476 142.437 154.868 142.67C155.26 142.894 155.694 143.006 156.17 143.006C156.646 143.006 157.08 142.894 157.472 142.67C157.873 142.437 158.19 142.105 158.424 141.676C158.657 141.237 158.774 140.729 158.774 140.15ZM163.151 135.082C162.908 135.082 162.703 134.998 162.535 134.83C162.376 134.662 162.297 134.457 162.297 134.214C162.297 133.971 162.376 133.766 162.535 133.598C162.703 133.43 162.908 133.346 163.151 133.346C163.393 133.346 163.594 133.43 163.753 133.598C163.921 133.766 164.005 133.971 164.005 134.214C164.005 134.457 163.921 134.662 163.753 134.83C163.594 134.998 163.393 135.082 163.151 135.082ZM163.781 145.666C163.781 146.347 163.608 146.847 163.263 147.164C162.917 147.481 162.413 147.64 161.751 147.64H161.009V146.562H161.541C161.895 146.562 162.143 146.492 162.283 146.352C162.432 146.212 162.507 145.974 162.507 145.638V136.328H163.781V145.666ZM165.711 140.136C165.711 139.352 165.87 138.666 166.187 138.078C166.505 137.481 166.939 137.019 167.489 136.692C168.049 136.365 168.67 136.202 169.351 136.202C170.023 136.202 170.607 136.347 171.101 136.636C171.596 136.925 171.965 137.289 172.207 137.728V136.328H173.495V144H172.207V142.572C171.955 143.02 171.577 143.393 171.073 143.692C170.579 143.981 170 144.126 169.337 144.126C168.656 144.126 168.04 143.958 167.489 143.622C166.939 143.286 166.505 142.815 166.187 142.208C165.87 141.601 165.711 140.911 165.711 140.136ZM172.207 140.15C172.207 139.571 172.091 139.067 171.857 138.638C171.624 138.209 171.307 137.882 170.905 137.658C170.513 137.425 170.079 137.308 169.603 137.308C169.127 137.308 168.693 137.42 168.301 137.644C167.909 137.868 167.597 138.195 167.363 138.624C167.13 139.053 167.013 139.557 167.013 140.136C167.013 140.724 167.13 141.237 167.363 141.676C167.597 142.105 167.909 142.437 168.301 142.67C168.693 142.894 169.127 143.006 169.603 143.006C170.079 143.006 170.513 142.894 170.905 142.67C171.307 142.437 171.624 142.105 171.857 141.676C172.091 141.237 172.207 140.729 172.207 140.15ZM177.172 137.574C177.396 137.135 177.714 136.795 178.124 136.552C178.544 136.309 179.053 136.188 179.65 136.188V137.504H179.314C177.886 137.504 177.172 138.279 177.172 139.828V144H175.898V136.328H177.172V137.574ZM188.069 144.126C187.481 144.126 186.954 144.028 186.487 143.832C186.021 143.627 185.652 143.347 185.381 142.992C185.111 142.628 184.961 142.213 184.933 141.746H186.249C186.287 142.129 186.464 142.441 186.781 142.684C187.108 142.927 187.533 143.048 188.055 143.048C188.541 143.048 188.923 142.941 189.203 142.726C189.483 142.511 189.623 142.241 189.623 141.914C189.623 141.578 189.474 141.331 189.175 141.172C188.877 141.004 188.415 140.841 187.789 140.682C187.22 140.533 186.753 140.383 186.389 140.234C186.035 140.075 185.727 139.847 185.465 139.548C185.213 139.24 185.087 138.839 185.087 138.344C185.087 137.952 185.204 137.593 185.437 137.266C185.671 136.939 186.002 136.683 186.431 136.496C186.861 136.3 187.351 136.202 187.901 136.202C188.751 136.202 189.437 136.417 189.959 136.846C190.482 137.275 190.762 137.863 190.799 138.61H189.525C189.497 138.209 189.334 137.887 189.035 137.644C188.746 137.401 188.354 137.28 187.859 137.28C187.402 137.28 187.038 137.378 186.767 137.574C186.497 137.77 186.361 138.027 186.361 138.344C186.361 138.596 186.441 138.806 186.599 138.974C186.767 139.133 186.973 139.263 187.215 139.366C187.467 139.459 187.813 139.567 188.251 139.688C188.802 139.837 189.25 139.987 189.595 140.136C189.941 140.276 190.235 140.491 190.477 140.78C190.729 141.069 190.86 141.447 190.869 141.914C190.869 142.334 190.753 142.712 190.519 143.048C190.286 143.384 189.955 143.65 189.525 143.846C189.105 144.033 188.62 144.126 188.069 144.126ZM199.918 139.87C199.918 140.113 199.904 140.369 199.876 140.64H193.744C193.791 141.396 194.047 141.989 194.514 142.418C194.99 142.838 195.564 143.048 196.236 143.048C196.787 143.048 197.244 142.922 197.608 142.67C197.981 142.409 198.243 142.063 198.392 141.634H199.764C199.559 142.371 199.148 142.973 198.532 143.44C197.916 143.897 197.151 144.126 196.236 144.126C195.508 144.126 194.855 143.963 194.276 143.636C193.707 143.309 193.259 142.847 192.932 142.25C192.605 141.643 192.442 140.943 192.442 140.15C192.442 139.357 192.601 138.661 192.918 138.064C193.235 137.467 193.679 137.009 194.248 136.692C194.827 136.365 195.489 136.202 196.236 136.202C196.964 136.202 197.608 136.361 198.168 136.678C198.728 136.995 199.157 137.434 199.456 137.994C199.764 138.545 199.918 139.17 199.918 139.87ZM198.602 139.604C198.602 139.119 198.495 138.703 198.28 138.358C198.065 138.003 197.771 137.737 197.398 137.56C197.034 137.373 196.628 137.28 196.18 137.28C195.536 137.28 194.985 137.485 194.528 137.896C194.08 138.307 193.823 138.876 193.758 139.604H198.602ZM206.133 144L203.123 140.612V144H201.849V133.64H203.123V139.73L206.077 136.328H207.855L204.243 140.15L207.869 144H206.133ZM208.829 140.136C208.829 139.352 208.987 138.666 209.305 138.078C209.622 137.481 210.056 137.019 210.607 136.692C211.167 136.365 211.787 136.202 212.469 136.202C213.141 136.202 213.724 136.347 214.219 136.636C214.713 136.925 215.082 137.289 215.325 137.728V136.328H216.613V144H215.325V142.572C215.073 143.02 214.695 143.393 214.191 143.692C213.696 143.981 213.117 144.126 212.455 144.126C211.773 144.126 211.157 143.958 210.607 143.622C210.056 143.286 209.622 142.815 209.305 142.208C208.987 141.601 208.829 140.911 208.829 140.136ZM215.325 140.15C215.325 139.571 215.208 139.067 214.975 138.638C214.741 138.209 214.424 137.882 214.023 137.658C213.631 137.425 213.197 137.308 212.721 137.308C212.245 137.308 211.811 137.42 211.419 137.644C211.027 137.868 210.714 138.195 210.481 138.624C210.247 139.053 210.131 139.557 210.131 140.136C210.131 140.724 210.247 141.237 210.481 141.676C210.714 142.105 211.027 142.437 211.419 142.67C211.811 142.894 212.245 143.006 212.721 143.006C213.197 143.006 213.631 142.894 214.023 142.67C214.424 142.437 214.741 142.105 214.975 141.676C215.208 141.237 215.325 140.729 215.325 140.15ZM220.29 137.574C220.514 137.135 220.831 136.795 221.242 136.552C221.662 136.309 222.17 136.188 222.768 136.188V137.504H222.432C221.004 137.504 220.29 138.279 220.29 139.828V144H219.016V136.328H220.29V137.574ZM224.012 140.136C224.012 139.352 224.171 138.666 224.488 138.078C224.805 137.481 225.239 137.019 225.79 136.692C226.35 136.365 226.971 136.202 227.652 136.202C228.324 136.202 228.907 136.347 229.402 136.636C229.897 136.925 230.265 137.289 230.508 137.728V136.328H231.796V144H230.508V142.572C230.256 143.02 229.878 143.393 229.374 143.692C228.879 143.981 228.301 144.126 227.638 144.126C226.957 144.126 226.341 143.958 225.79 143.622C225.239 143.286 224.805 142.815 224.488 142.208C224.171 141.601 224.012 140.911 224.012 140.136ZM230.508 140.15C230.508 139.571 230.391 139.067 230.158 138.638C229.925 138.209 229.607 137.882 229.206 137.658C228.814 137.425 228.38 137.308 227.904 137.308C227.428 137.308 226.994 137.42 226.602 137.644C226.21 137.868 225.897 138.195 225.664 138.624C225.431 139.053 225.314 139.557 225.314 140.136C225.314 140.724 225.431 141.237 225.664 141.676C225.897 142.105 226.21 142.437 226.602 142.67C226.994 142.894 227.428 143.006 227.904 143.006C228.38 143.006 228.814 142.894 229.206 142.67C229.607 142.437 229.925 142.105 230.158 141.676C230.391 141.237 230.508 140.729 230.508 140.15ZM237.937 136.188C238.87 136.188 239.626 136.473 240.205 137.042C240.784 137.602 241.073 138.414 241.073 139.478V144H239.813V139.66C239.813 138.895 239.622 138.311 239.239 137.91C238.856 137.499 238.334 137.294 237.671 137.294C236.999 137.294 236.462 137.504 236.061 137.924C235.669 138.344 235.473 138.955 235.473 139.758V144H234.199V136.328H235.473V137.42C235.725 137.028 236.066 136.725 236.495 136.51C236.934 136.295 237.414 136.188 237.937 136.188ZM246.568 136.202C247.231 136.202 247.81 136.347 248.304 136.636C248.808 136.925 249.182 137.289 249.424 137.728V136.328H250.712V144.168C250.712 144.868 250.563 145.489 250.264 146.03C249.966 146.581 249.536 147.01 248.976 147.318C248.426 147.626 247.782 147.78 247.044 147.78C246.036 147.78 245.196 147.542 244.524 147.066C243.852 146.59 243.456 145.941 243.334 145.12H244.594C244.734 145.587 245.024 145.96 245.462 146.24C245.901 146.529 246.428 146.674 247.044 146.674C247.744 146.674 248.314 146.455 248.752 146.016C249.2 145.577 249.424 144.961 249.424 144.168V142.558C249.172 143.006 248.799 143.379 248.304 143.678C247.81 143.977 247.231 144.126 246.568 144.126C245.887 144.126 245.266 143.958 244.706 143.622C244.156 143.286 243.722 142.815 243.404 142.208C243.087 141.601 242.928 140.911 242.928 140.136C242.928 139.352 243.087 138.666 243.404 138.078C243.722 137.481 244.156 137.019 244.706 136.692C245.266 136.365 245.887 136.202 246.568 136.202ZM249.424 140.15C249.424 139.571 249.308 139.067 249.074 138.638C248.841 138.209 248.524 137.882 248.122 137.658C247.73 137.425 247.296 137.308 246.82 137.308C246.344 137.308 245.91 137.42 245.518 137.644C245.126 137.868 244.814 138.195 244.58 138.624C244.347 139.053 244.23 139.557 244.23 140.136C244.23 140.724 244.347 141.237 244.58 141.676C244.814 142.105 245.126 142.437 245.518 142.67C245.91 142.894 246.344 143.006 246.82 143.006C247.296 143.006 247.73 142.894 248.122 142.67C248.524 142.437 248.841 142.105 249.074 141.676C249.308 141.237 249.424 140.729 249.424 140.15ZM254.431 142.236L252.863 146.002H252.009L253.031 142.236H254.431ZM266.731 136.328L262.111 147.612H260.795L262.307 143.916L259.213 136.328H260.627L263.035 142.544L265.415 136.328H266.731ZM275.066 136.328V144H273.792V142.866C273.549 143.258 273.208 143.566 272.77 143.79C272.34 144.005 271.864 144.112 271.342 144.112C270.744 144.112 270.208 143.991 269.732 143.748C269.256 143.496 268.878 143.123 268.598 142.628C268.327 142.133 268.192 141.531 268.192 140.822V136.328H269.452V140.654C269.452 141.41 269.643 141.993 270.026 142.404C270.408 142.805 270.931 143.006 271.594 143.006C272.275 143.006 272.812 142.796 273.204 142.376C273.596 141.956 273.792 141.345 273.792 140.542V136.328H275.066ZM281.751 144L278.741 140.612V144H277.467V133.64H278.741V139.73L281.695 136.328H283.473L279.861 140.15L283.487 144H281.751ZM286.574 134.242L286.42 141.242H285.356L285.202 134.242H286.574ZM285.944 144.084C285.701 144.084 285.496 144 285.328 143.832C285.16 143.664 285.076 143.459 285.076 143.216C285.076 142.973 285.16 142.768 285.328 142.6C285.496 142.432 285.701 142.348 285.944 142.348C286.177 142.348 286.373 142.432 286.532 142.6C286.7 142.768 286.784 142.973 286.784 143.216C286.784 143.459 286.7 143.664 286.532 143.832C286.373 144 286.177 144.084 285.944 144.084Z" fill="#4D545C"/>
</svg>
