<svg width="17" height="16" viewBox="0 0 17 16" fill="none" xmlns="http://www.w3.org/2000/svg">
<path fill-rule="evenodd" clip-rule="evenodd" d="M10.8907 1.99976C11.1407 1.7498 11.4798 1.60938 11.8333 1.60938C12.1869 1.60938 12.526 1.7498 12.776 1.99976L14.5 3.72376C14.75 3.97379 14.8904 4.31287 14.8904 4.66642C14.8904 5.01998 14.75 5.35905 14.5 5.60909L13.4427 6.66642L9.83333 3.05709L10.8907 1.99976ZM8.89067 3.99976L2.89067 9.99976C2.6406 10.2497 2.50008 10.5888 2.5 10.9424V12.6664C2.5 13.02 2.64048 13.3592 2.89052 13.6092C3.14057 13.8593 3.47971 13.9998 3.83333 13.9998H5.55733C5.91093 13.9997 6.25001 13.8592 6.5 13.6091L12.5 7.60909L8.89067 3.99976Z" fill="#0055B8"/>
</svg>
