<svg width="24" height="24" viewBox="0 0 24 24" fill="none" xmlns="http://www.w3.org/2000/svg">
<path fill-rule="evenodd" clip-rule="evenodd" d="M2 5C2 4.20435 2.31607 3.44129 2.87868 2.87868C3.44129 2.31607 4.20435 2 5 2H19C19.7956 2 20.5587 2.31607 21.1213 2.87868C21.6839 3.44129 22 4.20435 22 5V11.5C21.9999 11.5843 21.9892 11.6684 21.968 11.75C21.9892 11.8316 21.9999 11.9157 22 12V19C22 19.7956 21.6839 20.5587 21.1213 21.1213C20.5587 21.6839 19.7956 22 19 22H5C4.20435 22 3.44129 21.6839 2.87868 21.1213C2.31607 20.5587 2 19.7956 2 19V16C2.00008 15.9157 2.01083 15.8316 2.032 15.75C2.01085 15.6683 2.0001 15.5843 2 15.5V5ZM4.994 14.83C4.646 14.836 4.314 14.852 4 14.876V5C4 4.73478 4.10536 4.48043 4.29289 4.29289C4.48043 4.10536 4.73478 4 5 4H19C19.2652 4 19.5196 4.10536 19.7071 4.29289C19.8946 4.48043 20 4.73478 20 5V11.016C15.703 11.155 12.6 12.19 10.42 13.639C11.246 13.932 12.17 14.349 13.076 14.895C14.475 15.735 15.897 16.915 16.854 18.478C16.9226 18.59 16.9684 18.7144 16.9888 18.8442C17.0093 18.9739 17.004 19.1064 16.9733 19.2341C16.9425 19.3617 16.887 19.4821 16.8097 19.5883C16.7324 19.6945 16.635 19.7845 16.523 19.853C16.411 19.9216 16.2866 19.9674 16.1568 19.9878C16.0271 20.0083 15.8946 20.003 15.7669 19.9723C15.6393 19.9415 15.5189 19.886 15.4127 19.8087C15.3065 19.7314 15.2165 19.634 15.148 19.522C14.412 18.319 13.27 17.344 12.046 16.609C10.824 15.875 9.581 15.417 8.719 15.217C7.50471 14.9397 6.26137 14.8101 5.016 14.831H4.994V14.83ZM6.978 6.488C7.42372 6.17397 7.95478 6.00369 8.5 6C8.91 6 9.503 6.115 10.022 6.488C10.592 6.898 11 7.574 11 8.5C11 9.426 10.592 10.101 10.022 10.511C9.5764 10.8254 9.04533 10.996 8.5 11C8.09 11 7.497 10.885 6.978 10.511C6.408 10.101 6 9.427 6 8.5C6 7.574 6.408 6.899 6.978 6.488Z" fill="#0055B8"/>
</svg>
