<svg width="16" height="16" viewBox="0 0 16 16" fill="none" xmlns="http://www.w3.org/2000/svg">
<path d="M10.4 4.8C10.4 6.12548 9.32548 7.2 8 7.2C6.67452 7.2 5.6 6.12548 5.6 4.8C5.6 3.47452 6.67452 2.4 8 2.4C9.32548 2.4 10.4 3.47452 10.4 4.8Z" fill="#0055B8"/>
<path d="M14.4 6.4C14.4 7.28366 13.6837 8 12.8 8C11.9163 8 11.2 7.28366 11.2 6.4C11.2 5.51635 11.9163 4.8 12.8 4.8C13.6837 4.8 14.4 5.51635 14.4 6.4Z" fill="#0055B8"/>
<path d="M11.2 12C11.2 10.2327 9.76731 8.8 8 8.8C6.23269 8.8 4.8 10.2327 4.8 12V14.4H11.2V12Z" fill="#0055B8"/>
<path d="M4.8 6.4C4.8 7.28366 4.08366 8 3.2 8C2.31634 8 1.6 7.28366 1.6 6.4C1.6 5.51635 2.31634 4.8 3.2 4.8C4.08366 4.8 4.8 5.51635 4.8 6.4Z" fill="#0055B8"/>
<path d="M12.8 14.4V12C12.8 11.1567 12.5825 10.3642 12.2006 9.67546C12.3922 9.6262 12.593 9.6 12.8 9.6C14.1255 9.6 15.2 10.6745 15.2 12V14.4H12.8Z" fill="#0055B8"/>
<path d="M3.79941 9.67546C3.41748 10.3642 3.2 11.1567 3.2 12V14.4H0.8V12C0.8 10.6745 1.87452 9.6 3.2 9.6C3.40697 9.6 3.60782 9.6262 3.79941 9.67546Z" fill="#0055B8"/>
</svg>
