<svg width="52" height="46" viewBox="0 0 52 46" fill="none" xmlns="http://www.w3.org/2000/svg">
<g clip-path="url(#clip0_1406_58313)">
<path d="M27.2768 38.0819C25.7904 38.0601 24.3573 37.5171 23.2206 36.5452L15.733 29.8504C15.1626 29.3175 14.4258 29.0051 13.6514 28.9678C12.8769 28.9304 12.1142 29.1706 11.4967 29.6463L0.800116 37.5876V42.7564C0.765411 43.42 0.991002 44.0705 1.42759 44.5659C1.86418 45.0612 2.47626 45.3611 3.13006 45.3999H41.0976C41.8407 45.4364 42.569 45.1809 43.1311 44.6866C43.6933 44.1923 44.046 43.4971 44.116 42.7456V29.2164L30.5811 37.1362C29.5881 37.7578 28.4436 38.0853 27.2768 38.0819Z" fill="#007BE0"/>
<path d="M26.726 24.5534C28.3988 24.5534 29.7549 23.1775 29.7549 21.4801C29.7549 19.7827 28.3988 18.4067 26.726 18.4067C25.0531 18.4067 23.697 19.7827 23.697 21.4801C23.697 23.1775 25.0531 24.5534 26.726 24.5534Z" fill="#007BE0"/>
<path opacity="0.3" d="M51.2647 6.07023C51.0531 5.76337 50.7772 5.50787 50.4568 5.32207C50.1363 5.13627 49.7793 5.02479 49.4113 4.99563L11.9521 0.600522C11.229 0.502781 10.4971 0.700239 9.91729 1.14954C9.33748 1.59884 8.95709 2.26325 8.85965 2.99688L8.21362 8.43434H41.0447C42.553 8.47172 43.9904 9.09202 45.0631 10.1685C46.1359 11.245 46.7631 12.6965 46.8166 14.2264V38.8455C46.8166 38.7058 47.4415 38.5661 47.7168 38.2867C47.9966 38.0604 48.2221 37.7726 48.3762 37.4449C48.5303 37.1173 48.609 36.7584 48.6065 36.3954L51.8896 8.12271C51.9276 7.7555 51.8919 7.38426 51.7845 7.03147C51.6771 6.67868 51.5003 6.35167 51.2647 6.07023Z" fill="#007BE0"/>
<path opacity="0.3" d="M17.5123 27.7555L25.074 34.4502C25.6289 34.9319 26.3185 35.2251 27.046 35.2887C27.7735 35.3523 28.5024 35.1831 29.1302 34.8048L44.116 25.9501V14.2263C44.0613 13.4292 43.7168 12.6812 43.1493 12.1272C42.5818 11.5732 41.8318 11.2528 41.0447 11.2281H3.35254C2.99153 11.2513 2.63864 11.3469 2.31434 11.5095C1.99004 11.6721 1.70079 11.8984 1.46335 12.1753C1.22592 12.4522 1.04504 12.7742 0.9312 13.1226C0.817359 13.471 0.772827 13.8388 0.800185 14.2048V34.1063L9.88698 27.4653C10.9973 26.6173 12.3616 26.1832 13.7504 26.236C15.1392 26.2888 16.4676 26.8254 17.5123 27.7555ZM26.7262 15.6447C27.8673 15.6511 28.9809 16.0006 29.9263 16.6489C30.8718 17.2973 31.6066 18.2154 32.038 19.2873C32.4693 20.3593 32.5779 21.5369 32.3499 22.6714C32.1219 23.8059 31.5675 24.8464 30.757 25.6614C29.9464 26.4763 28.9159 27.0292 27.7957 27.2502C26.6756 27.4711 25.516 27.3502 24.4636 26.9027C23.4111 26.4552 22.513 25.7012 21.8827 24.736C21.2525 23.7708 20.9183 22.6377 20.9225 21.4798C20.9252 20.7098 21.0776 19.9479 21.3709 19.2377C21.6642 18.5276 22.0927 17.883 22.6317 17.3411C23.1708 16.7991 23.8099 16.3703 24.5125 16.0792C25.215 15.7881 25.9673 15.6405 26.7262 15.6447Z" fill="#007BE0"/>
</g>
<defs>
<clipPath id="clip0_1406_58313">
<rect width="51.1" height="44.8" fill="white" transform="translate(0.800171 0.600342)"/>
</clipPath>
</defs>
</svg>
