<svg width="91" height="82" viewBox="0 0 91 82" fill="none" xmlns="http://www.w3.org/2000/svg">
<g filter="url(#filter0_d_32719_5344)">
<mask id="path-1-outside-1_32719_5344" maskUnits="userSpaceOnUse" x="15.8416" y="8.87769" width="65" height="60" fill="black">
<rect fill="white" x="15.8416" y="8.87769" width="65" height="60"/>
<path fill-rule="evenodd" clip-rule="evenodd" d="M27.3606 16.948C27.3606 14.1582 29.6622 11.8784 32.4611 11.8777C33.4314 11.877 34.331 12.1408 35.1654 12.6044C36.5443 13.3706 38.1923 13.7847 39.6099 13.0929C40.6 12.6097 41.7567 12.6057 42.7501 13.0821L45.5143 14.4078C45.6308 14.4637 45.77 14.4358 45.8578 14.341C47.2379 12.8497 48.843 11.8777 50.7058 11.8777C53.504 11.8777 55.8037 14.1578 55.8037 16.948C55.8037 17.17 55.7892 17.3888 55.761 17.6034C55.6477 18.4667 55.9505 19.413 56.7357 19.7896L57.8815 20.3391C58.5928 20.6802 58.6039 21.689 57.9002 22.0457C58.692 21.6533 59.6202 22.2297 59.6196 23.1134L59.6104 36.4828C59.6093 38.0066 60.8286 39.2251 62.0704 40.1081L65.7825 42.7488C66.3892 43.1804 67.2309 43.0385 67.6625 42.4318C68.0942 41.825 68.9359 41.6831 69.5426 42.1147L75.4634 46.3267C75.5722 46.404 75.6877 46.4713 75.8086 46.5278C76.5838 46.8895 77.0793 47.6675 77.0793 48.5229V59.7402C77.0793 63.2352 73.819 65.6932 70.5688 64.4081C69.7426 64.0814 68.8948 63.7322 68.0453 63.3668C67.1402 62.9775 66.0811 63.2609 65.51 64.0638L64.7285 65.1624C64.2969 65.7691 63.4551 65.9111 62.8484 65.4795L56.257 60.7904C55.6503 60.3588 55.5083 59.5171 55.9399 58.9103C56.3715 58.3036 56.2296 57.4618 55.6229 57.0302L54.8416 56.4744C54.343 56.1197 53.7239 55.9776 53.1206 56.0794L41.2257 58.0854C40.5272 58.2033 39.8124 58.1824 39.1219 58.024C38.4315 57.8656 37.7791 57.5727 37.2019 57.162L20.2586 45.1088C19.874 44.8353 19.5511 44.484 19.3108 44.0777C19.0706 43.6715 18.9184 43.2193 18.864 42.7504C18.8096 42.2816 18.8543 41.8065 18.9952 41.356C19.1361 40.9056 19.3701 40.4897 19.6819 40.1354C20.2712 39.5106 21.0695 39.124 21.9251 39.0488C22.508 38.9976 23.0664 38.5711 23.066 37.986L23.0542 23.364C23.0534 22.3531 24.1036 21.684 25.0195 22.1119C24.225 21.7328 24.22 20.6036 25.0111 20.2175L26.2784 19.599C27.1038 19.1962 27.4361 18.2127 27.3726 17.2965C27.3646 17.1813 27.3606 17.0651 27.3606 16.948ZM33.3371 46.1401C33.3712 46.1643 33.4185 46.1395 33.4191 46.0978C33.4193 46.0775 33.4078 46.0589 33.3894 46.0504L33.0771 45.9051C33.0635 45.8988 33.0479 45.9087 33.0479 45.9237C33.0479 45.9304 33.0511 45.9366 33.0565 45.9404L33.3371 46.1401ZM52.2199 17.5983C52.209 17.6031 52.2087 17.6185 52.2195 17.6236L53.2444 18.1152C53.3022 18.1429 53.3718 18.1182 53.3965 18.059C53.5435 17.707 53.6191 17.3294 53.6191 16.948C53.6191 15.3445 52.3296 14.0627 50.7038 14.0624C50.7035 14.0624 50.7032 14.0621 50.7032 14.0617C50.7032 14.0614 50.7029 14.0611 50.7026 14.0611C49.7869 14.0612 48.993 14.3985 48.1196 15.1761C47.9503 15.3268 47.996 15.5981 48.2003 15.6961L48.2178 15.7044C48.2952 15.7416 48.3852 15.7421 48.4631 15.7059C48.5364 15.6717 48.6208 15.6702 48.6954 15.7015L52.2925 17.2133C52.379 17.2497 52.3825 17.3709 52.2983 17.4123L52.1666 17.4769C52.1365 17.4917 52.1371 17.5348 52.1676 17.5488L52.2201 17.5728C52.2311 17.5778 52.231 17.5935 52.2199 17.5983ZM34.6422 14.8449C34.8965 15.0362 34.8402 15.4206 34.5542 15.5602L34.3651 15.6525C34.3643 15.6529 34.3634 15.6529 34.3626 15.6525C34.3622 15.6524 34.3618 15.6523 34.3614 15.6523C34.3609 15.6523 34.3604 15.6524 34.36 15.6526L34.2482 15.7095L30.6075 17.4863C30.131 17.7188 29.5452 17.4783 29.5452 16.948C29.5452 15.3458 30.836 14.0614 32.4617 14.0611C32.4621 14.0611 32.4624 14.0614 32.4624 14.0617C32.4624 14.0621 32.4627 14.0624 32.463 14.0624C33.2352 14.0625 33.9213 14.3024 34.6422 14.8449Z"/>
</mask>
<path fill-rule="evenodd" clip-rule="evenodd" d="M27.3606 16.948C27.3606 14.1582 29.6622 11.8784 32.4611 11.8777C33.4314 11.877 34.331 12.1408 35.1654 12.6044C36.5443 13.3706 38.1923 13.7847 39.6099 13.0929C40.6 12.6097 41.7567 12.6057 42.7501 13.0821L45.5143 14.4078C45.6308 14.4637 45.77 14.4358 45.8578 14.341C47.2379 12.8497 48.843 11.8777 50.7058 11.8777C53.504 11.8777 55.8037 14.1578 55.8037 16.948C55.8037 17.17 55.7892 17.3888 55.761 17.6034C55.6477 18.4667 55.9505 19.413 56.7357 19.7896L57.8815 20.3391C58.5928 20.6802 58.6039 21.689 57.9002 22.0457C58.692 21.6533 59.6202 22.2297 59.6196 23.1134L59.6104 36.4828C59.6093 38.0066 60.8286 39.2251 62.0704 40.1081L65.7825 42.7488C66.3892 43.1804 67.2309 43.0385 67.6625 42.4318C68.0942 41.825 68.9359 41.6831 69.5426 42.1147L75.4634 46.3267C75.5722 46.404 75.6877 46.4713 75.8086 46.5278C76.5838 46.8895 77.0793 47.6675 77.0793 48.5229V59.7402C77.0793 63.2352 73.819 65.6932 70.5688 64.4081C69.7426 64.0814 68.8948 63.7322 68.0453 63.3668C67.1402 62.9775 66.0811 63.2609 65.51 64.0638L64.7285 65.1624C64.2969 65.7691 63.4551 65.9111 62.8484 65.4795L56.257 60.7904C55.6503 60.3588 55.5083 59.5171 55.9399 58.9103C56.3715 58.3036 56.2296 57.4618 55.6229 57.0302L54.8416 56.4744C54.343 56.1197 53.7239 55.9776 53.1206 56.0794L41.2257 58.0854C40.5272 58.2033 39.8124 58.1824 39.1219 58.024C38.4315 57.8656 37.7791 57.5727 37.2019 57.162L20.2586 45.1088C19.874 44.8353 19.5511 44.484 19.3108 44.0777C19.0706 43.6715 18.9184 43.2193 18.864 42.7504C18.8096 42.2816 18.8543 41.8065 18.9952 41.356C19.1361 40.9056 19.3701 40.4897 19.6819 40.1354C20.2712 39.5106 21.0695 39.124 21.9251 39.0488C22.508 38.9976 23.0664 38.5711 23.066 37.986L23.0542 23.364C23.0534 22.3531 24.1036 21.684 25.0195 22.1119C24.225 21.7328 24.22 20.6036 25.0111 20.2175L26.2784 19.599C27.1038 19.1962 27.4361 18.2127 27.3726 17.2965C27.3646 17.1813 27.3606 17.0651 27.3606 16.948ZM33.3371 46.1401C33.3712 46.1643 33.4185 46.1395 33.4191 46.0978C33.4193 46.0775 33.4078 46.0589 33.3894 46.0504L33.0771 45.9051C33.0635 45.8988 33.0479 45.9087 33.0479 45.9237C33.0479 45.9304 33.0511 45.9366 33.0565 45.9404L33.3371 46.1401ZM52.2199 17.5983C52.209 17.6031 52.2087 17.6185 52.2195 17.6236L53.2444 18.1152C53.3022 18.1429 53.3718 18.1182 53.3965 18.059C53.5435 17.707 53.6191 17.3294 53.6191 16.948C53.6191 15.3445 52.3296 14.0627 50.7038 14.0624C50.7035 14.0624 50.7032 14.0621 50.7032 14.0617C50.7032 14.0614 50.7029 14.0611 50.7026 14.0611C49.7869 14.0612 48.993 14.3985 48.1196 15.1761C47.9503 15.3268 47.996 15.5981 48.2003 15.6961L48.2178 15.7044C48.2952 15.7416 48.3852 15.7421 48.4631 15.7059C48.5364 15.6717 48.6208 15.6702 48.6954 15.7015L52.2925 17.2133C52.379 17.2497 52.3825 17.3709 52.2983 17.4123L52.1666 17.4769C52.1365 17.4917 52.1371 17.5348 52.1676 17.5488L52.2201 17.5728C52.2311 17.5778 52.231 17.5935 52.2199 17.5983ZM34.6422 14.8449C34.8965 15.0362 34.8402 15.4206 34.5542 15.5602L34.3651 15.6525C34.3643 15.6529 34.3634 15.6529 34.3626 15.6525C34.3622 15.6524 34.3618 15.6523 34.3614 15.6523C34.3609 15.6523 34.3604 15.6524 34.36 15.6526L34.2482 15.7095L30.6075 17.4863C30.131 17.7188 29.5452 17.4783 29.5452 16.948C29.5452 15.3458 30.836 14.0614 32.4617 14.0611C32.4621 14.0611 32.4624 14.0614 32.4624 14.0617C32.4624 14.0621 32.4627 14.0624 32.463 14.0624C33.2352 14.0625 33.9213 14.3024 34.6422 14.8449Z" fill="white"/>
<path d="M32.4611 11.8777L32.4618 14.8777L32.4632 14.8777L32.4611 11.8777ZM69.5426 42.1147L67.8036 44.5592L69.5426 42.1147ZM64.7285 65.1624L67.173 66.9014L67.1731 66.9014L64.7285 65.1624ZM62.8484 65.4795L64.5874 63.0349V63.0349L62.8484 65.4795ZM56.257 60.7904L57.996 58.3459H57.996L56.257 60.7904ZM41.2257 58.0854L40.7268 55.1272L40.7264 55.1272L41.2257 58.0854ZM39.1219 58.024L38.451 60.948L39.1219 58.024ZM37.2019 57.162L38.941 54.7176L38.9409 54.7175L37.2019 57.162ZM20.2586 45.1088L21.9977 42.6643L21.9973 42.6641L20.2586 45.1088ZM18.864 42.7504L21.844 42.4048L18.864 42.7504ZM18.9952 41.356L16.132 40.4605L16.132 40.4605L18.9952 41.356ZM19.6819 40.1354L17.4996 38.0768L17.4641 38.1145L17.4299 38.1534L19.6819 40.1354ZM53.6191 16.948H50.6191V16.9483L53.6191 16.948ZM34.2482 15.7095L35.564 18.4056L35.5867 18.3945L35.6093 18.383L34.2482 15.7095ZM30.6075 17.4863L29.2917 14.7902L30.6075 17.4863ZM52.2201 17.5728L50.9722 20.301L52.2201 17.5728ZM48.6954 15.7015L49.8578 12.9358L48.6954 15.7015ZM48.2178 15.7044L49.5151 12.9994L48.2178 15.7044ZM48.1196 15.1761L46.1247 12.9355L48.1196 15.1761ZM48.2003 15.6961L49.4977 12.9911L48.2003 15.6961ZM52.2195 17.6236L53.5168 14.9186L52.2195 17.6236ZM53.2444 18.1152L51.9471 20.8202L53.2444 18.1152ZM33.0565 45.9404L34.7955 43.4959L33.0565 45.9404ZM33.0771 45.9051L31.8119 48.6253L33.0771 45.9051ZM33.3371 46.1401L35.0761 43.6955L33.3371 46.1401ZM68.0453 63.3668L66.8598 66.1227L68.0453 63.3668ZM32.4617 14.0611L32.4623 17.0611L32.4617 14.0611ZM75.4634 46.3267L73.7244 48.7712L75.4634 46.3267ZM34.5542 15.5602L33.2385 12.8641L34.5542 15.5602ZM34.6422 14.8449L32.8384 17.242L34.6422 14.8449ZM59.6104 36.4828L56.6104 36.4808L59.6104 36.4828ZM34.3651 15.6525L35.6808 18.3486L34.3651 15.6525ZM59.6196 23.1134L62.6196 23.1155V23.1155L59.6196 23.1134ZM52.1666 17.4769L53.4883 20.17L52.1666 17.4769ZM52.1676 17.5488L50.9197 20.2769L52.1676 17.5488ZM57.8815 20.3391L56.5842 23.0441L57.8815 20.3391ZM54.8416 56.4744L53.1025 58.919L54.8416 56.4744ZM53.1206 56.0794L52.6217 53.1212L53.1206 56.0794ZM50.7026 14.0611L50.7031 17.0611L50.7026 14.0611ZM33.3894 46.0504L32.1243 48.7705L33.3894 46.0504ZM32.463 14.0624L32.4635 11.0624L32.463 14.0624ZM52.2925 17.2133L53.4549 14.4477L52.2925 17.2133ZM52.2983 17.4123L50.9766 14.7191L52.2983 17.4123ZM55.761 17.6034L58.7355 17.9938L55.761 17.6034ZM34.36 15.6526L35.7211 18.3261L34.36 15.6526ZM50.7038 14.0624L50.7032 17.0624L50.7038 14.0624ZM42.7501 13.0821L41.4528 15.7871L42.7501 13.0821ZM32.4603 8.87769C28.0256 8.87881 24.3606 12.481 24.3606 16.948H30.3606C30.3606 15.8354 31.2989 14.878 32.4618 14.8777L32.4603 8.87769ZM36.6226 9.98209C35.3975 9.3013 33.9999 8.87661 32.459 8.87769L32.4632 14.8777C32.8628 14.8774 33.2646 14.9802 33.7083 15.2268L36.6226 9.98209ZM46.8116 11.7029L44.0474 10.3771L41.4528 15.7871L44.217 17.1128L46.8116 11.7029ZM50.7058 8.87769C47.7003 8.87769 45.3552 10.4673 43.656 12.3034L48.0596 16.3787C49.1206 15.2322 49.9857 14.8777 50.7058 14.8777V8.87769ZM58.8037 16.948C58.8037 12.4828 55.1427 8.87769 50.7058 8.87769V14.8777C51.8652 14.8777 52.8037 15.8327 52.8037 16.948H58.8037ZM58.7355 17.9938C58.7806 17.6503 58.8037 17.3011 58.8037 16.948H52.8037C52.8037 17.0389 52.7977 17.1273 52.7865 17.213L58.7355 17.9938ZM59.1788 17.6341L58.033 17.0846L55.4384 22.4946L56.5842 23.0441L59.1788 17.6341ZM62.6104 36.4849L62.6196 23.1155L56.6196 23.1113L56.6104 36.4808L62.6104 36.4849ZM67.5215 40.3043L63.8094 37.6635L60.3314 42.5526L64.0435 45.1934L67.5215 40.3043ZM71.2816 39.6701C69.3248 38.2781 66.61 38.7359 65.218 40.6927L70.1071 44.1708C69.5783 44.9141 68.547 45.0881 67.8036 44.5592L71.2816 39.6701ZM77.2025 43.8821L71.2816 39.6701L67.8036 44.5592L73.7244 48.7712L77.2025 43.8821ZM80.0793 59.7402V48.5229H74.0793V59.7402H80.0793ZM66.8598 66.1227C67.7373 66.5001 68.6127 66.8607 69.4657 67.198L71.6719 61.6183C70.8726 61.3022 70.0522 60.9643 69.2308 60.611L66.8598 66.1227ZM67.1731 66.9014L67.9546 65.8027L63.0654 62.3248L62.2839 63.4234L67.1731 66.9014ZM61.1094 67.924C63.0662 69.3161 65.781 68.8582 67.173 66.9014L62.284 63.4234C62.8128 62.68 63.8441 62.5061 64.5874 63.0349L61.1094 67.924ZM54.518 63.235L61.1094 67.924L64.5874 63.0349L57.996 58.3459L54.518 63.235ZM53.4954 57.1713C52.1033 59.1281 52.5611 61.8429 54.518 63.235L57.996 58.3459C58.7394 58.8747 58.9133 59.906 58.3845 60.6494L53.4954 57.1713ZM53.1025 58.919L53.8838 59.4748L57.3619 54.5857L56.5806 54.0299L53.1025 58.919ZM41.7246 61.0436L53.6195 59.0376L52.6217 53.1212L40.7268 55.1272L41.7246 61.0436ZM38.451 60.948C39.5255 61.1946 40.638 61.227 41.725 61.0436L40.7264 55.1272C40.4164 55.1796 40.0993 55.1703 39.7929 55.1L38.451 60.948ZM35.4628 59.6065C36.3611 60.2456 37.3765 60.7014 38.451 60.948L39.7929 55.1C39.4866 55.0297 39.1971 54.8998 38.941 54.7176L35.4628 59.6065ZM18.5196 47.5534L35.4629 59.6066L38.9409 54.7175L21.9977 42.6643L18.5196 47.5534ZM16.7286 45.6048C17.1826 46.3727 17.793 47.0366 18.52 47.5536L21.9973 42.6641C21.955 42.634 21.9195 42.5954 21.8931 42.5507L16.7286 45.6048ZM15.884 43.096C15.9867 43.9822 16.2745 44.8369 16.7286 45.6048L21.8931 42.5507C21.8667 42.5061 21.85 42.4564 21.844 42.4048L15.884 43.096ZM16.132 40.4605C15.8657 41.3119 15.7812 42.2098 15.884 43.096L21.844 42.4048C21.838 42.3533 21.843 42.3011 21.8584 42.2516L16.132 40.4605ZM17.4299 38.1534C16.8405 38.8231 16.3983 39.6091 16.132 40.4605L21.8584 42.2516C21.8739 42.202 21.8996 42.1563 21.9339 42.1174L17.4299 38.1534ZM21.6626 36.0603C20.0747 36.1998 18.5934 36.9173 17.4996 38.0768L21.8642 42.1939C21.9491 42.1039 22.0642 42.0481 22.1875 42.0373L21.6626 36.0603ZM20.0542 23.3664L20.066 37.9884L26.066 37.9836L26.0542 23.3616L20.0542 23.3664ZM24.9627 16.9029L23.6954 17.5214L26.3269 22.9136L27.5942 22.2951L24.9627 16.9029ZM24.3606 16.948C24.3606 17.1344 24.367 17.3198 24.3798 17.5038L30.3654 17.0892C30.3622 17.0429 30.3606 16.9959 30.3606 16.948H24.3606ZM31.8119 48.6253L32.1243 48.7705L34.6546 43.3302L34.3423 43.1849L31.8119 48.6253ZM35.0761 43.6955L34.7955 43.4959L31.3175 48.385L31.5981 48.5846L35.0761 43.6955ZM54.5417 15.4102L53.5168 14.9186L50.9222 20.3286L51.9471 20.8202L54.5417 15.4102ZM50.6191 16.9483C50.6191 16.9328 50.6221 16.9175 50.6281 16.9032L56.165 19.2148C56.4648 18.4966 56.6191 17.726 56.6191 16.9478L50.6191 16.9483ZM50.7032 17.0624C50.7124 17.0624 50.7069 17.0636 50.6938 17.0581C50.6824 17.0534 50.6703 17.0457 50.6593 17.0347C50.6482 17.0237 50.6374 17.0088 50.6294 16.9899C50.6207 16.9692 50.6191 16.9527 50.6191 16.948H56.6191C56.6191 13.6622 53.961 11.063 50.7045 11.0624L50.7032 17.0624ZM50.1145 17.4167C50.3783 17.1819 50.5272 17.1059 50.5805 17.083C50.6139 17.0686 50.6366 17.0611 50.7031 17.0611L50.702 11.0611C48.8799 11.0614 47.4045 11.7961 46.1247 12.9355L50.1145 17.4167ZM49.5151 12.9994L49.4977 12.9911L46.903 18.4011L46.9205 18.4094L49.5151 12.9994ZM53.4549 14.4477L49.8578 12.9358L47.533 18.4672L51.1301 19.979L53.4549 14.4477ZM53.4883 20.17L53.62 20.1054L50.9766 14.7191L50.845 14.7837L53.4883 20.17ZM53.4681 14.8447L53.4155 14.8207L50.9197 20.2769L50.9722 20.301L53.4681 14.8447ZM35.6808 18.3486L35.87 18.2562L33.2385 12.8641L33.0493 12.9564L35.6808 18.3486ZM35.6093 18.383L35.7211 18.3261L32.999 12.9791L32.8872 13.036L35.6093 18.383ZM31.9233 20.1824L35.564 18.4056L32.9325 13.0134L29.2917 14.7902L31.9233 20.1824ZM32.4611 11.0611C29.2037 11.0618 26.5452 13.6643 26.5452 16.948H32.5452C32.5452 16.9538 32.5434 16.9706 32.5348 16.9909C32.5269 17.0094 32.5165 17.0238 32.506 17.0343C32.4955 17.0447 32.484 17.0521 32.4727 17.0568C32.4598 17.0621 32.454 17.0611 32.4623 17.0611L32.4611 11.0611ZM36.446 12.4477C35.275 11.5665 33.9685 11.0626 32.4635 11.0624L32.4625 17.0624C32.5249 17.0624 32.5469 17.0698 32.5636 17.0757C32.5881 17.0845 32.6752 17.1192 32.8384 17.242L36.446 12.4477ZM29.2917 14.7902C29.8358 14.5247 30.5263 14.4822 31.1794 14.7908C31.9193 15.1404 32.5453 15.9429 32.5452 16.9482L26.5452 16.9479C26.5451 18.4834 27.4639 19.6713 28.6159 20.2156C29.6811 20.7189 30.9027 20.6804 31.9233 20.1824L29.2917 14.7902ZM35.5924 12.9162C35.2068 12.7429 34.7874 12.6523 34.3614 12.6523V18.6523C33.9362 18.6523 33.5176 18.5618 33.1327 18.3889L35.5924 12.9162ZM50.9722 20.301C48.6259 19.2277 48.6534 15.8845 51.0171 14.85L53.4228 20.3466C55.8086 19.3024 55.8363 15.928 53.4681 14.8447L50.9722 20.301ZM49.7286 18.4259C49.0353 18.7485 48.238 18.7635 47.533 18.4672L49.8578 12.9358C49.0036 12.5768 48.0376 12.595 47.1976 12.9859L49.7286 18.4259ZM46.9205 18.4094C47.807 18.8346 48.8372 18.8406 49.7286 18.4259L47.1976 12.9859C47.9332 12.6436 48.7835 12.6486 49.5151 12.9994L46.9205 18.4094ZM46.1247 12.9355C44.2571 14.5983 44.8868 17.4341 46.903 18.4011L49.4977 12.9911C51.1052 13.762 51.6435 16.0554 50.1145 17.4167L46.1247 12.9355ZM53.5168 14.9186C55.8201 16.0233 55.763 19.3223 53.4228 20.3466L51.0171 14.85C48.655 15.8838 48.5974 19.2137 50.9222 20.3286L53.5168 14.9186ZM51.9471 20.8202C53.4803 21.5555 55.4475 20.9333 56.165 19.2147L50.6281 16.9033C51.2961 15.303 53.1242 14.7304 54.5417 15.4102L51.9471 20.8202ZM30.0479 45.9237C30.0479 46.9012 30.5209 47.8183 31.3175 48.385L34.7955 43.4959C35.5812 44.0548 36.0479 44.9595 36.0479 45.9237H30.0479ZM34.3423 43.1849C32.34 42.2537 30.0479 43.7155 30.0479 45.9237H36.0479C36.0479 48.1019 33.7869 49.5439 31.8119 48.6253L34.3423 43.1849ZM26.0542 23.3616C26.0552 24.5471 24.8238 25.3317 23.7497 24.8299L26.2893 19.3939C23.3834 18.0363 20.0517 20.159 20.0542 23.3664L26.0542 23.3616ZM30.4193 46.0577C30.4501 43.7558 33.0778 42.2739 35.0761 43.6955L31.5981 48.5846C33.6645 50.0546 36.387 48.5233 36.4188 46.1378L30.4193 46.0577ZM69.2308 60.611C67.0596 59.677 64.4762 60.3416 63.0654 62.3248L67.9545 65.8028C67.686 66.1802 67.2207 66.2779 66.8598 66.1227L69.2308 60.611ZM27.5942 22.2951C29.9699 21.1356 30.4721 18.6293 30.3654 17.0892L24.3798 17.5038C24.3832 17.5539 24.3669 17.5378 24.4069 17.4457C24.4557 17.3334 24.6142 17.073 24.9627 16.9029L27.5942 22.2951ZM32.4623 17.0611C30.8299 17.0614 29.4624 15.7427 29.4624 14.0617H35.4624C35.4624 12.3801 34.0942 11.0607 32.4611 11.0611L32.4623 17.0611ZM74.54 49.2463C74.2589 49.1152 74.0793 48.8331 74.0793 48.5229H80.0793C80.0793 46.5019 78.9087 44.6639 77.0773 43.8092L74.54 49.2463ZM26.3114 19.4043C27.7832 20.1066 27.7924 22.1983 26.3269 22.9136L23.6954 17.5214C20.6475 19.0089 20.6667 23.359 23.7276 24.8195L26.3114 19.4043ZM73.7244 48.7712C73.9813 48.954 74.2543 49.113 74.54 49.2463L77.0773 43.8092C77.1211 43.8297 77.163 43.8541 77.2025 43.8821L73.7244 48.7712ZM35.87 18.2562C37.9271 17.2523 38.7018 14.1452 36.446 12.4477L32.8384 17.242C31.0912 15.9272 31.7533 13.5889 33.2385 12.8641L35.87 18.2562ZM56.6104 36.4808C56.6082 39.623 59.0386 41.6334 60.3319 42.553L63.8089 37.6632C63.3162 37.3128 62.9681 36.9908 62.7633 36.7211C62.5703 36.4671 62.6104 36.4042 62.6104 36.4849L56.6104 36.4808ZM33.0493 12.9564C33.8524 12.5645 34.7842 12.553 35.5924 12.9162L33.1327 18.3889C33.9425 18.7528 34.8762 18.7412 35.6808 18.3486L33.0493 12.9564ZM59.2324 24.7337C58.0293 25.33 56.6187 24.4541 56.6196 23.1113L62.6196 23.1155C62.6218 20.0054 59.3547 17.9767 56.5681 19.3577L59.2324 24.7337ZM50.845 14.7837C48.543 15.9134 48.5879 19.2103 50.9197 20.2769L53.4155 14.8207C55.6863 15.8594 55.73 19.0699 53.4883 20.17L50.845 14.7837ZM56.5842 23.0441C55.0528 22.3097 55.0289 20.1379 56.5437 19.3699L59.2568 24.7215C62.1788 23.2401 62.1327 19.0508 59.1788 17.6341L56.5842 23.0441ZM56.5806 54.0299C55.4337 53.214 54.0096 52.8871 52.6217 53.1212L53.6195 59.0376C53.4382 59.0682 53.2523 59.0255 53.1025 58.919L56.5806 54.0299ZM53.7032 14.0617C53.7032 12.3867 52.3418 11.0608 50.702 11.0611L50.7031 17.0611C49.0641 17.0614 47.7032 15.7361 47.7032 14.0617H53.7032ZM44.217 17.1128C45.5447 17.7496 47.0961 17.4189 48.0587 16.3797L43.657 12.3023C44.444 11.4527 45.717 11.1779 46.8116 11.7029L44.217 17.1128ZM36.4188 46.1378C36.4346 44.9519 35.7584 43.8436 34.6546 43.3302L32.1243 48.7705C31.0572 48.2742 30.404 47.2031 30.4193 46.0577L36.4188 46.1378ZM29.4624 14.0617C29.4624 15.7346 30.8214 17.0621 32.4625 17.0624L32.4635 11.0624C34.1039 11.0626 35.4624 12.3895 35.4624 14.0617H29.4624ZM74.0793 59.7402C74.0793 60.5312 73.7206 61.1179 73.2751 61.4428C72.8507 61.7524 72.302 61.8674 71.6719 61.6183L69.4657 67.198C74.9006 69.3469 80.0793 65.1152 80.0793 59.7402H74.0793ZM51.1301 19.979C48.8432 19.0178 48.7497 15.812 50.9766 14.7191L53.62 20.1054C56.0154 18.9299 55.9147 15.4815 53.4549 14.4477L51.1301 19.979ZM52.7865 17.213C52.5798 18.7875 53.0346 21.3418 55.4384 22.4946L58.033 17.0846C58.4304 17.2752 58.6216 17.5802 58.6893 17.7461C58.7481 17.8903 58.7386 17.9699 58.7355 17.9938L52.7865 17.213ZM22.1875 42.0373C23.6915 41.9052 26.0681 40.6847 26.066 37.9836L20.066 37.9884C20.0654 37.2577 20.4281 36.7322 20.737 36.4614C21.0244 36.2096 21.3469 36.088 21.6626 36.0603L22.1875 42.0373ZM34.3614 12.6523C33.8878 12.6523 33.421 12.7643 32.999 12.9791L35.7211 18.3261C35.2999 18.5405 34.834 18.6523 34.3614 18.6523V12.6523ZM64.0435 45.1934C66.0003 46.5854 68.715 46.1276 70.1071 44.1708L65.218 40.6927C65.7468 39.9494 66.7781 39.7754 67.5215 40.3043L64.0435 45.1934ZM58.3845 60.6494C59.7765 58.6925 59.3187 55.9777 57.3619 54.5857L53.8838 59.4748C53.1405 58.946 52.9666 57.9147 53.4954 57.1713L58.3845 60.6494ZM50.7045 11.0624C52.3355 11.0627 53.7032 12.3804 53.7032 14.0617H47.7032C47.7032 15.7438 49.0715 17.062 50.7032 17.0624L50.7045 11.0624ZM40.9256 15.7889C41.0918 15.7078 41.286 15.7072 41.4528 15.7871L44.0474 10.3771C42.2274 9.50426 40.1081 9.5115 38.2941 10.3968L40.9256 15.7889ZM33.7083 15.2268C35.4151 16.1752 38.1963 17.1209 40.9256 15.7889L38.2941 10.3968C38.2379 10.4243 38.1065 10.4713 37.8127 10.4278C37.4987 10.3813 37.0875 10.2404 36.6226 9.98209L33.7083 15.2268Z" fill="white" mask="url(#path-1-outside-1_32719_5344)"/>
</g>
<path d="M77.0793 47.1208L69.5793 43.6208L59.0793 58.6208C61.1163 60.1023 64.2678 61.7123 67.4622 63.1136C72.2283 65.2044 77.0793 61.5792 77.0793 56.3746V47.1208Z" fill="#007BE0"/>
<path fill-rule="evenodd" clip-rule="evenodd" d="M59.6212 21.1734L41.1776 12.3279L23.0527 21.1734L41.891 30.1619L59.6212 21.1734Z" fill="#FFE785"/>
<path fill-rule="evenodd" clip-rule="evenodd" d="M41.891 29.9939V50.0044L23.0688 41.2499L23.0527 21.1929L41.891 29.9939Z" fill="#FFD839"/>
<path fill-rule="evenodd" clip-rule="evenodd" d="M59.621 21.1929L41.8909 29.9796V50.0044L59.6071 41.25L59.621 21.1929Z" fill="#EFC100"/>
<path d="M34.3607 15.9153L30.8233 17.701L37.3938 20.8567L28.5933 24.9513L28.6145 24.9684V44.7065C30.5804 45.5388 31.4007 45.9819 33.048 46.6788V26.8645L41.3348 22.8002L49.6243 26.8632V46.6801L54.0578 44.7078V24.9684L54.0804 24.9513L45.2798 20.8567L52.5141 17.3065L48.5784 15.6523L41.3348 19.0224L34.3621 15.9153H34.3607Z" fill="#F46264"/>
<g filter="url(#filter1_d_32719_5344)">
<path d="M32.4624 11.8777C29.6629 11.8777 27.3606 14.1578 27.3606 16.948C27.3606 19.7383 29.6629 22.0159 32.4624 22.0159H40.4683C40.6598 22.0155 40.8478 21.9649 41.0136 21.8689C41.1793 21.773 41.317 21.6352 41.4127 21.4692C41.5083 21.3033 41.5587 21.1153 41.5587 20.9238C41.5587 20.7322 41.5084 20.544 41.4128 20.3781C39.9568 17.8743 38.6879 15.8323 37.3065 14.341C35.9264 12.8497 34.3239 11.8764 32.4611 11.8777H32.4624ZM32.4624 14.0624C33.6005 14.0624 34.5515 14.583 35.7027 15.8258C36.519 16.7075 37.4713 18.3113 38.4132 19.8313H32.4611C32.0797 19.8357 31.7013 19.7642 31.3477 19.6212C30.9941 19.4782 30.6724 19.2666 30.4012 18.9984C30.13 18.7303 29.9147 18.4109 29.7678 18.059C29.6208 17.707 29.5452 17.3294 29.5452 16.948C29.5452 15.3456 30.8364 14.0611 32.4624 14.0611V14.0624Z" fill="#F46264"/>
</g>
<g filter="url(#filter2_d_32719_5344)">
<path d="M50.7058 11.8777C48.843 11.8777 47.2379 12.8497 45.8578 14.341C44.4764 15.8323 43.2101 17.8743 41.7541 20.3781C41.6582 20.5438 41.6075 20.7318 41.6072 20.9233C41.6069 21.1147 41.657 21.3028 41.7524 21.4688C41.8479 21.6347 41.9853 21.7727 42.1509 21.8688C42.3165 21.9648 42.5045 22.0155 42.696 22.0159H50.7058C53.5052 22.0159 55.8036 19.7396 55.8036 16.948C55.8036 14.1578 53.5039 11.8777 50.7058 11.8777ZM50.7032 14.0624C52.3292 14.0624 53.619 15.3443 53.619 16.948C53.619 17.3294 53.5434 17.707 53.3965 18.059C53.2495 18.4109 53.0342 18.7303 52.763 18.9984C52.4918 19.2666 52.1701 19.4782 51.8165 19.6212C51.463 19.7641 51.0845 19.8357 50.7032 19.8313H44.755C45.6969 18.31 46.6453 16.7075 47.4629 15.8258C48.6127 14.583 49.5638 14.0611 50.7032 14.0611V14.0624Z" fill="#F46264"/>
</g>
<path d="M19.682 40.1354C20.2714 39.5106 21.0696 39.1239 21.9252 39.0488C22.7808 38.9736 23.6342 39.2152 24.3234 39.7277L34.2995 46.8246C34.1912 46.3772 34.1763 45.9123 34.2557 45.4589C34.3351 45.0055 34.5072 44.5733 34.7612 44.1895C35.0152 43.8056 35.3457 43.4782 35.7319 43.2278C36.1181 42.9774 36.5519 42.8093 37.006 42.7341L58.0478 39.1855C59.458 38.9474 60.905 39.2793 62.0705 40.1081L75.6697 49.7823L65.5101 64.0638L54.063 55.9205L41.2258 58.0854C40.5274 58.2033 39.8125 58.1824 39.1221 58.024C38.4317 57.8655 37.7792 57.5727 37.202 57.162L20.2588 45.1088C19.8741 44.8353 19.5512 44.484 19.311 44.0777C19.0707 43.6714 18.9185 43.2192 18.8641 42.7504C18.8098 42.2815 18.8545 41.8065 18.9954 41.356C19.1363 40.9055 19.3702 40.4897 19.682 40.1354Z" fill="#FFD5C5"/>
<path d="M76.1341 46.8038L69.5427 42.1148C68.9359 41.6831 68.0942 41.8251 67.6626 42.4318L55.94 58.9104C55.5084 59.5171 55.6503 60.3589 56.257 60.7905L62.8485 65.4795C63.4552 65.9111 64.2969 65.7692 64.7285 65.1625L76.4512 48.6839C76.8828 48.0772 76.7408 47.2354 76.1341 46.8038Z" fill="#0055B8"/>
<path d="M37.4139 47.783C37.2067 47.8285 36.9923 47.8301 36.7844 47.7877C36.5766 47.7453 36.3799 47.6599 36.207 47.537C36.0342 47.414 35.889 47.2562 35.7808 47.0738C35.6726 46.8913 35.6038 46.6882 35.5788 46.4776C35.5334 46.2703 35.5318 46.0558 35.5742 45.8478C35.6166 45.6399 35.7021 45.4432 35.8251 45.2703C35.9481 45.0973 36.106 44.9521 36.2885 44.8438C36.471 44.7355 36.6741 44.6667 36.8849 44.6416C37.0241 44.6173 37.157 44.5655 37.276 44.4893C37.3949 44.413 37.4975 44.3137 37.5776 44.1973C37.6577 44.081 37.7138 43.9497 37.7427 43.8114C37.7715 43.6731 37.7724 43.5304 37.7454 43.3917C37.7184 43.253 37.6641 43.121 37.5855 43.0036C37.5069 42.8862 37.4057 42.7856 37.2877 42.7077C37.1698 42.6299 37.0375 42.5763 36.8987 42.5502C36.7598 42.5241 36.6171 42.5259 36.479 42.5556C35.9981 42.6328 35.5377 42.8058 35.125 43.0644C34.7123 43.3229 34.3557 43.6617 34.0764 44.0606C33.7971 44.4596 33.6008 44.9105 33.4991 45.3868C33.3974 45.863 33.3923 46.3548 33.4843 46.8331C33.5554 47.3168 33.7233 47.7813 33.9778 48.1988C34.2323 48.6163 34.5682 48.9783 34.9656 49.2632C35.363 49.548 35.8137 49.75 36.2908 49.857C36.7679 49.964 37.2616 49.9738 37.7426 49.8859L43.8858 48.8498C44.1597 48.7987 44.4026 48.6421 44.5622 48.4136C44.7217 48.1851 44.7852 47.9031 44.7388 47.6284C44.6925 47.3536 44.5401 47.108 44.3144 46.9445C44.0888 46.781 43.8079 46.7126 43.5324 46.7542L37.4139 47.783Z" fill="#F4A490"/>
<mask id="path-13-outside-2_32719_5344" maskUnits="userSpaceOnUse" x="-0.98584" y="0.458008" width="85" height="23" fill="black">
<rect fill="white" x="-0.98584" y="0.458008" width="85" height="23"/>
<path fill-rule="evenodd" clip-rule="evenodd" d="M46.4893 8.44288C46.9668 8.18244 47.3574 7.83519 47.6613 7.40113C47.9651 6.96706 48.1387 6.40278 48.1387 5.7951C48.1387 5.18741 48.0519 4.66654 47.8349 4.18907C47.6179 3.7116 47.2706 3.36435 46.7931 3.06051C46.3591 2.80007 45.7948 2.62644 45.1437 2.58304L42.8125 2.45815C42.7575 2.4552 42.7105 2.49735 42.7074 2.55239L42.3714 8.51638C42.3682 8.57163 42.4106 8.61891 42.4658 8.62187L44.7965 8.74672C45.4041 8.79013 46.0118 8.70331 46.4893 8.44288ZM46.4459 5.75169C46.4025 6.27257 46.2289 6.61982 45.925 6.88025C45.6212 7.14069 45.2305 7.2275 44.7531 7.2275L44.2864 7.1916C44.2321 7.18743 44.1912 7.14067 44.1942 7.08635L44.3567 4.16084C44.3598 4.10487 44.4084 4.06238 44.4642 4.06668L44.9267 4.10225C45.4476 4.14566 45.8382 4.27588 46.0986 4.57972C46.3591 4.88357 46.4893 5.27422 46.4459 5.75169ZM39.8307 7.68452C39.8152 7.64482 39.7762 7.61933 39.7336 7.62104L37.7063 7.70213C37.6634 7.70384 37.6263 7.7328 37.6143 7.77405L37.3511 8.67656C37.3389 8.71836 37.301 8.74747 37.2575 8.74853L35.6926 8.7867C35.6235 8.78839 35.5736 8.72116 35.5952 8.65551L37.5689 2.65025C37.5822 2.60999 37.6193 2.58244 37.6617 2.5815L39.4752 2.5412C39.5168 2.54027 39.5546 2.56521 39.5701 2.6038L41.9211 8.4393C41.9472 8.50406 41.9006 8.57494 41.8308 8.57664L40.2654 8.61482C40.2234 8.61585 40.1852 8.59046 40.1699 8.55129L39.8307 7.68452ZM39.1877 6.32066C39.2562 6.31837 39.3021 6.24946 39.2779 6.18537L38.6966 4.64661C38.6625 4.55639 38.5331 4.56194 38.5068 4.65476L38.0623 6.22771C38.0439 6.29287 38.0942 6.35711 38.1619 6.35485L39.1877 6.32066ZM35.061 8.8028C35.1158 8.79578 35.1545 8.74566 35.1475 8.69086L34.3917 2.81236C34.3847 2.7576 34.3346 2.7189 34.2798 2.72593L32.7857 2.91748C32.7307 2.92452 32.692 2.97486 32.6992 3.02976L32.9768 5.13094C32.984 5.18597 32.9451 5.23638 32.89 5.24326L31.005 5.47889C30.9505 5.48571 30.9006 5.44724 30.8934 5.39276L30.6156 3.28945C30.6084 3.23484 30.5584 3.19635 30.5038 3.20335L29.0089 3.395C28.9541 3.40202 28.9154 3.45209 28.9224 3.50686L29.6784 9.42874C29.6854 9.48355 29.7355 9.52229 29.7903 9.51527L31.2853 9.32361C31.3398 9.31661 31.3785 9.26684 31.3718 9.21223L31.092 6.93384C31.0854 6.8799 31.123 6.83054 31.1768 6.8227L33.0624 6.54772C33.1179 6.53962 33.1692 6.57879 33.176 6.63449L33.4552 8.90733C33.4619 8.96235 33.5121 9.00138 33.5671 8.99433L35.061 8.8028ZM25.4576 9.04068C25.4704 9.09418 25.5239 9.12734 25.5775 9.11488L27.2506 8.7258C27.304 8.71337 27.3575 8.74637 27.3704 8.79974L27.6276 9.86542C27.6406 9.91891 27.6078 9.97277 27.5544 9.98597L24.233 10.8061C24.1791 10.8194 24.1246 10.7861 24.1118 10.7321L22.7258 4.89413C22.713 4.84037 22.7463 4.78645 22.8 4.77372L24.255 4.42913C24.3086 4.41642 24.3625 4.44958 24.3753 4.50324L25.4576 9.04068ZM23.2132 11.0754C23.2667 11.0599 23.2972 11.0038 23.2812 10.9505L21.5593 5.23872C21.5434 5.18625 21.4883 5.15629 21.4357 5.17152L19.9784 5.59338C19.9249 5.60885 19.8944 5.66501 19.9105 5.7183L21.6324 11.43C21.6482 11.4825 21.7033 11.5125 21.7559 11.4972L23.2132 11.0754ZM19.8379 9.31106C20.1417 9.48468 20.3588 9.74512 20.489 10.0924C20.6626 10.5698 20.6626 11.0473 20.4456 11.438C20.2285 11.8286 19.7945 12.1759 19.1868 12.3929L16.4149 13.4429C16.3635 13.4623 16.306 13.4367 16.2862 13.3854L14.1447 7.84265C14.1246 7.79077 14.1508 7.7325 14.2028 7.71297L16.8863 6.70669C17.4505 6.48966 17.9714 6.44625 18.4055 6.57647C18.8395 6.70669 19.1434 7.01053 19.317 7.488C19.4472 7.83525 19.4472 8.13909 19.3604 8.44294C19.3139 8.60587 19.2424 8.74384 19.1459 8.87023C19.0814 8.95471 19.167 9.13333 19.2731 9.14032C19.4703 9.15331 19.6614 9.21022 19.8379 9.31106ZM16.5449 9.30774C16.5658 9.35787 16.6228 9.38216 16.6734 9.36248L17.3637 9.09403C17.7544 8.9204 17.8846 8.70337 17.7544 8.35612C17.6242 8.00887 17.3637 7.92206 16.9297 8.05228L16.2438 8.319C16.1915 8.33936 16.1662 8.39882 16.1878 8.45066L16.5449 9.30774ZM18.7527 10.483C18.6225 10.1358 18.3187 10.049 17.928 10.1792L17.1094 10.491C17.058 10.5106 17.0321 10.5681 17.0514 10.6196L17.3718 11.4741C17.3913 11.526 17.4493 11.5521 17.5011 11.5324L18.3187 11.2209C18.7093 11.0907 18.883 10.8303 18.7527 10.483ZM15.5409 13.7868C15.5888 13.76 15.6062 13.6996 15.5798 13.6514L12.7234 8.44279C12.6971 8.39472 12.6369 8.37684 12.5886 8.40269L10.8712 9.32129C10.8341 9.34114 10.8134 9.3821 10.8194 9.42376L11.3788 13.2996C11.392 13.3912 11.2844 13.45 11.2144 13.3895L8.25755 10.8322C8.22597 10.8049 8.18074 10.8001 8.14411 10.8201L6.46972 11.7371C6.42126 11.7636 6.40351 11.8244 6.43008 11.8728L9.28571 17.0802C9.31218 17.1285 9.37271 17.1462 9.4211 17.12L10.7649 16.3905C10.8135 16.3641 10.8314 16.3034 10.8051 16.2549L9.50547 13.8608C9.45111 13.7607 9.5797 13.6621 9.66226 13.7407L11.7989 15.7722C11.8301 15.8019 11.8768 15.8082 11.9148 15.7879L13.089 15.1617C13.1273 15.1412 13.1481 15.0984 13.1404 15.0557L12.613 12.1373C12.5927 12.0255 12.745 11.9719 12.7992 12.0718L14.1034 14.4741C14.13 14.5231 14.1914 14.5409 14.24 14.5137L15.5409 13.7868ZM5.05996 19.2321C5.04585 19.1916 5.05921 19.1465 5.09315 19.1202L6.71573 17.8627C6.74971 17.8364 6.7967 17.8347 6.83246 17.8586L7.62376 18.3861C7.65977 18.4101 7.70713 18.4082 7.74112 18.3814L9.00418 17.3863C9.05875 17.3433 9.05393 17.2591 8.99482 17.2227L3.61964 13.9052C3.5841 13.8832 3.53868 13.8857 3.50572 13.9113L2.05277 15.0414C2.01979 15.0671 2.00624 15.1105 2.01878 15.1504L3.90771 21.153C3.92872 21.2197 4.01002 21.2448 4.06499 21.2015L5.32763 20.2067C5.36113 20.1803 5.3742 20.1356 5.36019 20.0953L5.05996 19.2321ZM4.00654 16.1927C3.97495 16.1019 4.07724 16.0232 4.15694 16.077L5.53076 17.0043C5.58684 17.0421 5.58993 17.1236 5.53689 17.1656L4.71259 17.8181C4.65864 17.8609 4.57868 17.8376 4.55607 17.7726L4.00654 16.1927ZM51.0345 3.17806C51.0893 3.18508 51.128 3.2352 51.121 3.29L50.3652 9.1685C50.3581 9.22326 50.308 9.26196 50.2533 9.25493L48.7588 9.06334C48.704 9.05631 48.6653 9.00619 48.6723 8.9514L49.4281 3.07289C49.4352 3.01813 49.4853 2.97944 49.54 2.98646L51.0345 3.17806ZM53.0082 8.72482C53.0293 8.68627 53.073 8.66595 53.116 8.67473L55.1027 9.08018C55.1435 9.0885 55.1749 9.12124 55.1814 9.16236L55.3331 10.1102C55.3397 10.1516 55.3715 10.1845 55.4127 10.1925L56.9839 10.4991C57.052 10.5124 57.1126 10.4541 57.1019 10.3856L56.1362 4.17131C56.1297 4.12986 56.0981 4.09683 56.057 4.08861L54.2404 3.72528C54.1994 3.71708 54.1576 3.73525 54.1356 3.77082L50.819 9.14465C50.7823 9.20412 50.8163 9.28194 50.8849 9.29532L52.4509 9.60087C52.4937 9.60922 52.5369 9.58888 52.5578 9.5506L53.0082 8.72482ZM54.5876 5.9688C54.6353 5.88537 54.7617 5.91066 54.7737 6.00601L54.9797 7.65416C54.9881 7.72189 54.9278 7.77801 54.8608 7.76462L53.8307 7.5586C53.7638 7.54522 53.7297 7.47019 53.7635 7.41093L54.5876 5.9688ZM64.4082 6.41553C64.4606 6.43251 64.4894 6.48858 64.4727 6.541L62.6669 12.2103C62.6501 12.2631 62.5935 12.2921 62.5408 12.275L61.1242 11.8156C61.0722 11.7987 61.0433 11.7432 61.0595 11.691L61.7386 9.4938C61.755 9.44087 61.7252 9.38473 61.6722 9.3686L59.8668 8.81915C59.8142 8.80312 59.7584 8.83268 59.7422 8.88528L59.0634 11.0814C59.047 11.1344 58.9906 11.1639 58.9377 11.1472L57.4798 10.6868C57.4271 10.6702 57.3979 10.6138 57.4147 10.5611L59.2204 4.89183C59.2372 4.8393 59.2933 4.81022 59.3458 4.82682L60.805 5.2876C60.8576 5.30421 60.8868 5.36027 60.8703 5.41289L60.2358 7.43514C60.2192 7.48816 60.249 7.54456 60.3021 7.56074L62.1075 8.11019C62.16 8.12618 62.2156 8.09684 62.232 8.04446L62.8666 6.02168C62.8833 5.96863 62.94 5.93934 62.9929 5.95649L64.4082 6.41553ZM69.7518 15.5203C69.8016 15.5431 69.8606 15.5215 69.8839 15.4718L72.4041 10.0954C72.4274 10.0457 72.4062 9.98639 72.3566 9.96272L70.6001 9.12442C70.5619 9.10617 70.5163 9.11399 70.4863 9.14395L67.7309 11.8994C67.6654 11.9649 67.5538 11.9139 67.5604 11.8216L67.8402 7.90457C67.8432 7.86286 67.8199 7.82371 67.7818 7.8064L66.0253 7.00796C65.9754 6.9853 65.9166 7.00696 65.8933 7.05655L63.3732 12.4328C63.3498 12.4827 63.3712 12.5421 63.4211 12.5656L64.8026 13.218C64.8527 13.2417 64.9126 13.2201 64.936 13.1698L66.1055 10.6587C66.1535 10.5557 66.3089 10.5999 66.2955 10.7128L65.9439 13.6656C65.9388 13.709 65.9623 13.7506 66.0021 13.7686L67.2162 14.3169C67.2549 14.3344 67.3005 14.3255 67.3298 14.2947L69.3772 12.1413C69.4553 12.0592 69.5882 12.1497 69.5403 12.2524L68.3651 14.7757C68.3417 14.826 68.3637 14.8858 68.4142 14.9089L69.7518 15.5203ZM75.1861 11.6857C75.2313 11.7168 75.243 11.7784 75.2125 11.8239L73.3143 14.65C73.1429 14.95 73.0561 15.2077 73.0539 15.423C73.0539 15.4286 73.0543 15.4341 73.0553 15.4395C73.1001 15.6954 73.2303 15.8672 73.488 16.039C73.7448 16.2102 74.0017 16.2548 74.2169 16.2143C74.2229 16.2132 74.2287 16.2115 74.2343 16.2092C74.4486 16.1213 74.6628 15.9488 74.877 15.6917L76.7747 12.8662C76.8054 12.8205 76.8673 12.8082 76.9132 12.8388L78.1792 13.6828C78.2252 13.7135 78.2376 13.7758 78.2067 13.8217L76.3094 16.6467C76.0055 17.1241 75.6149 17.4714 75.1808 17.6884C74.7467 17.9054 74.3127 17.9923 73.8786 17.9054C73.4446 17.8186 73.0105 17.6884 72.5764 17.3846C72.1424 17.1241 71.8385 16.7769 71.6215 16.3862C71.4045 15.9956 71.3176 15.5615 71.3611 15.1274C71.4045 14.65 71.5781 14.2159 71.9253 13.695L73.8223 10.8707C73.8533 10.8245 73.9161 10.8126 73.9619 10.8441L75.1861 11.6857ZM77.0149 20.7046C77.0567 20.7409 77.12 20.7363 77.1561 20.6944L78.1107 19.5871C78.1467 19.5453 78.1421 19.4823 78.1004 19.4462L76.9494 18.4486C76.9076 18.4124 76.8443 18.417 76.8081 18.4589L75.8536 19.5662C75.8176 19.6079 75.8222 19.6709 75.8638 19.7071L77.0149 20.7046ZM78.4507 18.8426C78.4913 18.8769 78.5516 18.8735 78.5881 18.8349L81.3156 15.9421C81.3549 15.9004 81.3512 15.8343 81.3075 15.7972L80.0351 14.7176C79.9917 14.6808 79.9263 14.6875 79.8914 14.7325L77.4533 17.8732C77.4204 17.9155 77.4268 17.9762 77.4677 18.0108L78.4507 18.8426Z"/>
</mask>
<path fill-rule="evenodd" clip-rule="evenodd" d="M46.4893 8.44288C46.9668 8.18244 47.3574 7.83519 47.6613 7.40113C47.9651 6.96706 48.1387 6.40278 48.1387 5.7951C48.1387 5.18741 48.0519 4.66654 47.8349 4.18907C47.6179 3.7116 47.2706 3.36435 46.7931 3.06051C46.3591 2.80007 45.7948 2.62644 45.1437 2.58304L42.8125 2.45815C42.7575 2.4552 42.7105 2.49735 42.7074 2.55239L42.3714 8.51638C42.3682 8.57163 42.4106 8.61891 42.4658 8.62187L44.7965 8.74672C45.4041 8.79013 46.0118 8.70331 46.4893 8.44288ZM46.4459 5.75169C46.4025 6.27257 46.2289 6.61982 45.925 6.88025C45.6212 7.14069 45.2305 7.2275 44.7531 7.2275L44.2864 7.1916C44.2321 7.18743 44.1912 7.14067 44.1942 7.08635L44.3567 4.16084C44.3598 4.10487 44.4084 4.06238 44.4642 4.06668L44.9267 4.10225C45.4476 4.14566 45.8382 4.27588 46.0986 4.57972C46.3591 4.88357 46.4893 5.27422 46.4459 5.75169ZM39.8307 7.68452C39.8152 7.64482 39.7762 7.61933 39.7336 7.62104L37.7063 7.70213C37.6634 7.70384 37.6263 7.7328 37.6143 7.77405L37.3511 8.67656C37.3389 8.71836 37.301 8.74747 37.2575 8.74853L35.6926 8.7867C35.6235 8.78839 35.5736 8.72116 35.5952 8.65551L37.5689 2.65025C37.5822 2.60999 37.6193 2.58244 37.6617 2.5815L39.4752 2.5412C39.5168 2.54027 39.5546 2.56521 39.5701 2.6038L41.9211 8.4393C41.9472 8.50406 41.9006 8.57494 41.8308 8.57664L40.2654 8.61482C40.2234 8.61585 40.1852 8.59046 40.1699 8.55129L39.8307 7.68452ZM39.1877 6.32066C39.2562 6.31837 39.3021 6.24946 39.2779 6.18537L38.6966 4.64661C38.6625 4.55639 38.5331 4.56194 38.5068 4.65476L38.0623 6.22771C38.0439 6.29287 38.0942 6.35711 38.1619 6.35485L39.1877 6.32066ZM35.061 8.8028C35.1158 8.79578 35.1545 8.74566 35.1475 8.69086L34.3917 2.81236C34.3847 2.7576 34.3346 2.7189 34.2798 2.72593L32.7857 2.91748C32.7307 2.92452 32.692 2.97486 32.6992 3.02976L32.9768 5.13094C32.984 5.18597 32.9451 5.23638 32.89 5.24326L31.005 5.47889C30.9505 5.48571 30.9006 5.44724 30.8934 5.39276L30.6156 3.28945C30.6084 3.23484 30.5584 3.19635 30.5038 3.20335L29.0089 3.395C28.9541 3.40202 28.9154 3.45209 28.9224 3.50686L29.6784 9.42874C29.6854 9.48355 29.7355 9.52229 29.7903 9.51527L31.2853 9.32361C31.3398 9.31661 31.3785 9.26684 31.3718 9.21223L31.092 6.93384C31.0854 6.8799 31.123 6.83054 31.1768 6.8227L33.0624 6.54772C33.1179 6.53962 33.1692 6.57879 33.176 6.63449L33.4552 8.90733C33.4619 8.96235 33.5121 9.00138 33.5671 8.99433L35.061 8.8028ZM25.4576 9.04068C25.4704 9.09418 25.5239 9.12734 25.5775 9.11488L27.2506 8.7258C27.304 8.71337 27.3575 8.74637 27.3704 8.79974L27.6276 9.86542C27.6406 9.91891 27.6078 9.97277 27.5544 9.98597L24.233 10.8061C24.1791 10.8194 24.1246 10.7861 24.1118 10.7321L22.7258 4.89413C22.713 4.84037 22.7463 4.78645 22.8 4.77372L24.255 4.42913C24.3086 4.41642 24.3625 4.44958 24.3753 4.50324L25.4576 9.04068ZM23.2132 11.0754C23.2667 11.0599 23.2972 11.0038 23.2812 10.9505L21.5593 5.23872C21.5434 5.18625 21.4883 5.15629 21.4357 5.17152L19.9784 5.59338C19.9249 5.60885 19.8944 5.66501 19.9105 5.7183L21.6324 11.43C21.6482 11.4825 21.7033 11.5125 21.7559 11.4972L23.2132 11.0754ZM19.8379 9.31106C20.1417 9.48468 20.3588 9.74512 20.489 10.0924C20.6626 10.5698 20.6626 11.0473 20.4456 11.438C20.2285 11.8286 19.7945 12.1759 19.1868 12.3929L16.4149 13.4429C16.3635 13.4623 16.306 13.4367 16.2862 13.3854L14.1447 7.84265C14.1246 7.79077 14.1508 7.7325 14.2028 7.71297L16.8863 6.70669C17.4505 6.48966 17.9714 6.44625 18.4055 6.57647C18.8395 6.70669 19.1434 7.01053 19.317 7.488C19.4472 7.83525 19.4472 8.13909 19.3604 8.44294C19.3139 8.60587 19.2424 8.74384 19.1459 8.87023C19.0814 8.95471 19.167 9.13333 19.2731 9.14032C19.4703 9.15331 19.6614 9.21022 19.8379 9.31106ZM16.5449 9.30774C16.5658 9.35787 16.6228 9.38216 16.6734 9.36248L17.3637 9.09403C17.7544 8.9204 17.8846 8.70337 17.7544 8.35612C17.6242 8.00887 17.3637 7.92206 16.9297 8.05228L16.2438 8.319C16.1915 8.33936 16.1662 8.39882 16.1878 8.45066L16.5449 9.30774ZM18.7527 10.483C18.6225 10.1358 18.3187 10.049 17.928 10.1792L17.1094 10.491C17.058 10.5106 17.0321 10.5681 17.0514 10.6196L17.3718 11.4741C17.3913 11.526 17.4493 11.5521 17.5011 11.5324L18.3187 11.2209C18.7093 11.0907 18.883 10.8303 18.7527 10.483ZM15.5409 13.7868C15.5888 13.76 15.6062 13.6996 15.5798 13.6514L12.7234 8.44279C12.6971 8.39472 12.6369 8.37684 12.5886 8.40269L10.8712 9.32129C10.8341 9.34114 10.8134 9.3821 10.8194 9.42376L11.3788 13.2996C11.392 13.3912 11.2844 13.45 11.2144 13.3895L8.25755 10.8322C8.22597 10.8049 8.18074 10.8001 8.14411 10.8201L6.46972 11.7371C6.42126 11.7636 6.40351 11.8244 6.43008 11.8728L9.28571 17.0802C9.31218 17.1285 9.37271 17.1462 9.4211 17.12L10.7649 16.3905C10.8135 16.3641 10.8314 16.3034 10.8051 16.2549L9.50547 13.8608C9.45111 13.7607 9.5797 13.6621 9.66226 13.7407L11.7989 15.7722C11.8301 15.8019 11.8768 15.8082 11.9148 15.7879L13.089 15.1617C13.1273 15.1412 13.1481 15.0984 13.1404 15.0557L12.613 12.1373C12.5927 12.0255 12.745 11.9719 12.7992 12.0718L14.1034 14.4741C14.13 14.5231 14.1914 14.5409 14.24 14.5137L15.5409 13.7868ZM5.05996 19.2321C5.04585 19.1916 5.05921 19.1465 5.09315 19.1202L6.71573 17.8627C6.74971 17.8364 6.7967 17.8347 6.83246 17.8586L7.62376 18.3861C7.65977 18.4101 7.70713 18.4082 7.74112 18.3814L9.00418 17.3863C9.05875 17.3433 9.05393 17.2591 8.99482 17.2227L3.61964 13.9052C3.5841 13.8832 3.53868 13.8857 3.50572 13.9113L2.05277 15.0414C2.01979 15.0671 2.00624 15.1105 2.01878 15.1504L3.90771 21.153C3.92872 21.2197 4.01002 21.2448 4.06499 21.2015L5.32763 20.2067C5.36113 20.1803 5.3742 20.1356 5.36019 20.0953L5.05996 19.2321ZM4.00654 16.1927C3.97495 16.1019 4.07724 16.0232 4.15694 16.077L5.53076 17.0043C5.58684 17.0421 5.58993 17.1236 5.53689 17.1656L4.71259 17.8181C4.65864 17.8609 4.57868 17.8376 4.55607 17.7726L4.00654 16.1927ZM51.0345 3.17806C51.0893 3.18508 51.128 3.2352 51.121 3.29L50.3652 9.1685C50.3581 9.22326 50.308 9.26196 50.2533 9.25493L48.7588 9.06334C48.704 9.05631 48.6653 9.00619 48.6723 8.9514L49.4281 3.07289C49.4352 3.01813 49.4853 2.97944 49.54 2.98646L51.0345 3.17806ZM53.0082 8.72482C53.0293 8.68627 53.073 8.66595 53.116 8.67473L55.1027 9.08018C55.1435 9.0885 55.1749 9.12124 55.1814 9.16236L55.3331 10.1102C55.3397 10.1516 55.3715 10.1845 55.4127 10.1925L56.9839 10.4991C57.052 10.5124 57.1126 10.4541 57.1019 10.3856L56.1362 4.17131C56.1297 4.12986 56.0981 4.09683 56.057 4.08861L54.2404 3.72528C54.1994 3.71708 54.1576 3.73525 54.1356 3.77082L50.819 9.14465C50.7823 9.20412 50.8163 9.28194 50.8849 9.29532L52.4509 9.60087C52.4937 9.60922 52.5369 9.58888 52.5578 9.5506L53.0082 8.72482ZM54.5876 5.9688C54.6353 5.88537 54.7617 5.91066 54.7737 6.00601L54.9797 7.65416C54.9881 7.72189 54.9278 7.77801 54.8608 7.76462L53.8307 7.5586C53.7638 7.54522 53.7297 7.47019 53.7635 7.41093L54.5876 5.9688ZM64.4082 6.41553C64.4606 6.43251 64.4894 6.48858 64.4727 6.541L62.6669 12.2103C62.6501 12.2631 62.5935 12.2921 62.5408 12.275L61.1242 11.8156C61.0722 11.7987 61.0433 11.7432 61.0595 11.691L61.7386 9.4938C61.755 9.44087 61.7252 9.38473 61.6722 9.3686L59.8668 8.81915C59.8142 8.80312 59.7584 8.83268 59.7422 8.88528L59.0634 11.0814C59.047 11.1344 58.9906 11.1639 58.9377 11.1472L57.4798 10.6868C57.4271 10.6702 57.3979 10.6138 57.4147 10.5611L59.2204 4.89183C59.2372 4.8393 59.2933 4.81022 59.3458 4.82682L60.805 5.2876C60.8576 5.30421 60.8868 5.36027 60.8703 5.41289L60.2358 7.43514C60.2192 7.48816 60.249 7.54456 60.3021 7.56074L62.1075 8.11019C62.16 8.12618 62.2156 8.09684 62.232 8.04446L62.8666 6.02168C62.8833 5.96863 62.94 5.93934 62.9929 5.95649L64.4082 6.41553ZM69.7518 15.5203C69.8016 15.5431 69.8606 15.5215 69.8839 15.4718L72.4041 10.0954C72.4274 10.0457 72.4062 9.98639 72.3566 9.96272L70.6001 9.12442C70.5619 9.10617 70.5163 9.11399 70.4863 9.14395L67.7309 11.8994C67.6654 11.9649 67.5538 11.9139 67.5604 11.8216L67.8402 7.90457C67.8432 7.86286 67.8199 7.82371 67.7818 7.8064L66.0253 7.00796C65.9754 6.9853 65.9166 7.00696 65.8933 7.05655L63.3732 12.4328C63.3498 12.4827 63.3712 12.5421 63.4211 12.5656L64.8026 13.218C64.8527 13.2417 64.9126 13.2201 64.936 13.1698L66.1055 10.6587C66.1535 10.5557 66.3089 10.5999 66.2955 10.7128L65.9439 13.6656C65.9388 13.709 65.9623 13.7506 66.0021 13.7686L67.2162 14.3169C67.2549 14.3344 67.3005 14.3255 67.3298 14.2947L69.3772 12.1413C69.4553 12.0592 69.5882 12.1497 69.5403 12.2524L68.3651 14.7757C68.3417 14.826 68.3637 14.8858 68.4142 14.9089L69.7518 15.5203ZM75.1861 11.6857C75.2313 11.7168 75.243 11.7784 75.2125 11.8239L73.3143 14.65C73.1429 14.95 73.0561 15.2077 73.0539 15.423C73.0539 15.4286 73.0543 15.4341 73.0553 15.4395C73.1001 15.6954 73.2303 15.8672 73.488 16.039C73.7448 16.2102 74.0017 16.2548 74.2169 16.2143C74.2229 16.2132 74.2287 16.2115 74.2343 16.2092C74.4486 16.1213 74.6628 15.9488 74.877 15.6917L76.7747 12.8662C76.8054 12.8205 76.8673 12.8082 76.9132 12.8388L78.1792 13.6828C78.2252 13.7135 78.2376 13.7758 78.2067 13.8217L76.3094 16.6467C76.0055 17.1241 75.6149 17.4714 75.1808 17.6884C74.7467 17.9054 74.3127 17.9923 73.8786 17.9054C73.4446 17.8186 73.0105 17.6884 72.5764 17.3846C72.1424 17.1241 71.8385 16.7769 71.6215 16.3862C71.4045 15.9956 71.3176 15.5615 71.3611 15.1274C71.4045 14.65 71.5781 14.2159 71.9253 13.695L73.8223 10.8707C73.8533 10.8245 73.9161 10.8126 73.9619 10.8441L75.1861 11.6857ZM77.0149 20.7046C77.0567 20.7409 77.12 20.7363 77.1561 20.6944L78.1107 19.5871C78.1467 19.5453 78.1421 19.4823 78.1004 19.4462L76.9494 18.4486C76.9076 18.4124 76.8443 18.417 76.8081 18.4589L75.8536 19.5662C75.8176 19.6079 75.8222 19.6709 75.8638 19.7071L77.0149 20.7046ZM78.4507 18.8426C78.4913 18.8769 78.5516 18.8735 78.5881 18.8349L81.3156 15.9421C81.3549 15.9004 81.3512 15.8343 81.3075 15.7972L80.0351 14.7176C79.9917 14.6808 79.9263 14.6875 79.8914 14.7325L77.4533 17.8732C77.4204 17.9155 77.4268 17.9762 77.4677 18.0108L78.4507 18.8426Z" fill="#0055B8"/>
<path d="M47.6613 7.40113L46.0228 6.2542L46.0228 6.25421L47.6613 7.40113ZM46.4893 8.44288L45.5316 6.68708L45.5316 6.68709L46.4893 8.44288ZM47.8349 4.18907L46.0142 5.01667L46.0142 5.01668L47.8349 4.18907ZM46.7931 3.06051L47.8669 1.37318L47.8447 1.35906L47.8221 1.34552L46.7931 3.06051ZM45.1437 2.58304L45.2768 0.587467L45.2637 0.586599L45.2507 0.585901L45.1437 2.58304ZM44.7965 8.74672L44.939 6.7518L44.9212 6.75054L44.9035 6.74958L44.7965 8.74672ZM45.925 6.88025L44.6234 5.36174L44.6234 5.36175L45.925 6.88025ZM46.4459 5.75169L44.4541 5.57061L44.4534 5.5781L44.4528 5.5856L46.4459 5.75169ZM44.7531 7.2275L44.5997 9.22161L44.6762 9.2275H44.7531V7.2275ZM44.9267 4.10225L45.0928 2.10912L45.0801 2.10815L44.9267 4.10225ZM46.0986 4.57972L44.5801 5.8813V5.88131L46.0986 4.57972ZM20.489 10.0924L22.3686 9.40888L22.3652 9.39949L22.3616 9.39013L20.489 10.0924ZM19.8379 9.31106L20.8302 7.57458L20.8302 7.57457L19.8379 9.31106ZM20.4456 11.438L18.6973 10.4667V10.4667L20.4456 11.438ZM19.1868 12.3929L18.5141 10.5094L18.4962 10.5158L18.4783 10.5226L19.1868 12.3929ZM16.8863 6.70669L17.5885 8.57935L17.5964 8.5764L17.6042 8.57338L16.8863 6.70669ZM18.4055 6.57647L17.8308 8.49212L17.8308 8.49212L18.4055 6.57647ZM19.317 7.488L17.4374 8.17148L17.4408 8.18088L17.4444 8.19025L19.317 7.488ZM17.3637 9.09403L18.0886 10.958L18.1328 10.9409L18.176 10.9217L17.3637 9.09403ZM16.9297 8.05228L16.355 6.13663L16.2789 6.15946L16.2048 6.18827L16.9297 8.05228ZM17.928 10.1792L17.2956 8.28182L17.2555 8.29517L17.216 8.31021L17.928 10.1792ZM18.7527 10.483L20.6254 9.78078L20.6254 9.78078L18.7527 10.483ZM18.3187 11.2209L17.6862 9.32357L17.6461 9.33692L17.6067 9.35196L18.3187 11.2209ZM73.3143 14.65L71.6541 13.5349L71.6137 13.5949L71.5779 13.6577L73.3143 14.65ZM73.488 16.039L72.3786 17.7031L72.3786 17.7031L73.488 16.039ZM74.877 15.6917L76.4134 16.9721L76.4796 16.8927L76.5372 16.8068L74.877 15.6917ZM76.3094 16.6467L74.6491 15.5316L74.6353 15.5521L74.622 15.5729L76.3094 16.6467ZM75.1808 17.6884L74.2864 15.8996L74.2864 15.8996L75.1808 17.6884ZM73.8786 17.9054L73.4864 19.8666L73.4864 19.8666L73.8786 17.9054ZM72.5764 17.3846L73.7234 15.7461L73.6657 15.7058L73.6054 15.6696L72.5764 17.3846ZM71.6215 16.3862L69.8732 17.3575L69.8732 17.3575L71.6215 16.3862ZM71.3611 15.1274L73.3511 15.3264L73.352 15.3175L73.3528 15.3085L71.3611 15.1274ZM71.9253 13.695L70.2651 12.5799L70.2612 12.5856L71.9253 13.695ZM77.4533 17.8732L79.0331 19.0996L77.4533 17.8732ZM77.4677 18.0108L76.1758 19.5376L77.4677 18.0108ZM80.0351 14.7176L81.3291 13.1926L80.0351 14.7176ZM79.8914 14.7325L81.4712 15.959L79.8914 14.7325ZM78.5881 18.8349L80.0433 20.2069L78.5881 18.8349ZM78.4507 18.8426L77.1588 20.3694L78.4507 18.8426ZM81.3156 15.9421L79.8604 14.57L81.3156 15.9421ZM81.3075 15.7972L80.0135 17.3222L81.3075 15.7972ZM75.8536 19.5662L74.3388 18.2603L75.8536 19.5662ZM75.8638 19.7071L74.554 21.2184L75.8638 19.7071ZM76.9494 18.4486L75.6395 19.96L76.9494 18.4486ZM76.8081 18.4589L75.2933 17.153L76.8081 18.4589ZM77.1561 20.6944L78.6709 22.0002L77.1561 20.6944ZM77.0149 20.7046L75.705 22.216L77.0149 20.7046ZM78.1107 19.5871L79.6255 20.8929L78.1107 19.5871ZM78.1004 19.4462L79.4103 17.9348L78.1004 19.4462ZM73.8223 10.8707L72.162 9.75564L73.8223 10.8707ZM73.9619 10.8441L75.095 9.19601L73.9619 10.8441ZM78.1792 13.6828L79.2886 12.0187L78.1792 13.6828ZM78.2067 13.8217L79.867 14.9369L78.2067 13.8217ZM76.7747 12.8662L78.435 13.9814L76.7747 12.8662ZM76.9132 12.8388L75.8038 14.5029L76.9132 12.8388ZM74.2169 16.2143L73.8475 14.2488L74.2169 16.2143ZM74.2343 16.2092L74.9937 18.0594L74.2343 16.2092ZM73.0539 15.423L71.054 15.4029L73.0539 15.423ZM73.0553 15.4395L71.0852 15.7842L73.0553 15.4395ZM75.2125 11.8239L76.8727 12.939L75.2125 11.8239ZM75.1861 11.6857L74.053 13.3338L75.1861 11.6857ZM68.3651 14.7757L70.1781 15.6201L68.3651 14.7757ZM68.4142 14.9089L69.2457 13.0899L68.4142 14.9089ZM69.3772 12.1413L70.8266 13.5194L69.3772 12.1413ZM69.5403 12.2524L71.3533 13.0969L69.5403 12.2524ZM67.2162 14.3169L68.0393 12.4942L67.2162 14.3169ZM67.3298 14.2947L65.8804 12.9165L67.3298 14.2947ZM65.9439 13.6656L67.9299 13.9021L65.9439 13.6656ZM66.0021 13.7686L66.8253 11.9459L66.0021 13.7686ZM66.1055 10.6587L64.2925 9.81432L66.1055 10.6587ZM66.2955 10.7128L64.3095 10.4763L66.2955 10.7128ZM64.8026 13.218L63.9486 15.0265L64.8026 13.218ZM64.936 13.1698L63.123 12.3254L64.936 13.1698ZM63.3732 12.4328L65.1841 13.2816L63.3732 12.4328ZM63.4211 12.5656L64.2751 10.7571L63.4211 12.5656ZM66.0253 7.00796L66.8529 5.18723L66.0253 7.00796ZM65.8933 7.05655L67.7042 7.90542L65.8933 7.05655ZM67.8402 7.90457L69.8351 8.04706L67.8402 7.90457ZM67.7818 7.8064L68.6094 5.98567L67.7818 7.8064ZM67.7309 11.8994L69.1451 13.3137L67.7309 11.8994ZM67.5604 11.8216L69.5553 11.9641L67.5604 11.8216ZM70.6001 9.12442L71.4616 7.31945L70.6001 9.12442ZM70.4863 9.14395L69.0721 7.72974L70.4863 9.14395ZM61.7386 9.4938L63.6494 10.0844L61.7386 9.4938ZM61.6722 9.3686L62.2545 7.45525L61.6722 9.3686ZM61.1242 11.8156L60.5072 13.7181L61.1242 11.8156ZM61.0595 11.691L59.1487 11.1003L61.0595 11.691ZM53.8307 7.5586L54.223 5.59744L53.8307 7.5586ZM53.7635 7.41093L52.0271 6.41865L53.7635 7.41093ZM54.7737 6.00601L56.7582 5.75795L54.7737 6.00601ZM54.5876 5.9688L56.3241 6.96108L54.5876 5.9688ZM54.9797 7.65416L56.9642 7.40609L54.9797 7.65416ZM54.8608 7.76462L55.2531 5.80346L54.8608 7.76462ZM52.4509 9.60087L52.0678 11.5638L52.4509 9.60087ZM52.5578 9.5506L54.3136 10.5083L52.5578 9.5506ZM56.1362 4.17131L54.1599 4.47843L56.1362 4.17131ZM56.057 4.08861L55.6647 6.04977L56.057 4.08861ZM56.9839 10.4991L56.6009 12.4621L56.9839 10.4991ZM57.1019 10.3856L55.1256 10.6928L57.1019 10.3856ZM55.3331 10.1102L57.308 9.79422L55.3331 10.1102ZM55.4127 10.1925L55.7957 8.22957L55.4127 10.1925ZM53.116 8.67473L52.7161 10.6343L53.116 8.67473ZM53.0082 8.72482L54.764 9.68252L53.0082 8.72482ZM55.1027 9.08018L54.7028 11.0398L55.1027 9.08018ZM55.1814 9.16236L57.1563 8.84637L55.1814 9.16236ZM49.4281 3.07289L47.4445 2.81785L49.4281 3.07289ZM49.54 2.98646L49.2857 4.97022L49.54 2.98646ZM48.7588 9.06334L49.0131 7.07957L48.7588 9.06334ZM48.6723 8.9514L50.656 9.20644L48.6723 8.9514ZM51.121 3.29L53.1046 3.54504L51.121 3.29ZM51.0345 3.17806L50.7802 5.16182L51.0345 3.17806ZM50.3652 9.1685L48.3815 8.91346L50.3652 9.1685ZM4.71259 17.8181L5.954 19.3862L4.71259 17.8181ZM4.55607 17.7726L6.44507 17.1156L4.55607 17.7726ZM4.15694 16.077L3.03799 17.7347L4.15694 16.077ZM4.00654 16.1927L2.11755 16.8497L4.00654 16.1927ZM5.53076 17.0043L6.64971 15.3466L5.53076 17.0043ZM5.53689 17.1656L6.77829 18.7337L5.53689 17.1656ZM5.32763 20.2067L4.08989 18.6357L5.32763 20.2067ZM5.36019 20.0953L7.24919 19.4383L5.36019 20.0953ZM3.90771 21.153L1.99994 21.7533L3.90771 21.153ZM4.06499 21.2015L2.82724 19.6305L4.06499 21.2015ZM2.05277 15.0414L3.28065 16.6201L2.05277 15.0414ZM2.01878 15.1504L3.92655 14.55L2.01878 15.1504ZM3.61964 13.9052L4.67006 12.2032L3.61964 13.9052ZM3.50572 13.9113L4.7336 15.49L3.50572 13.9113ZM9.00418 17.3863L10.2419 18.9573L9.00418 17.3863ZM8.99482 17.2227L10.0452 15.5207L8.99482 17.2227ZM7.62376 18.3861L8.73316 16.722L7.62376 18.3861ZM7.74112 18.3814L6.50338 16.8105L7.74112 18.3814ZM5.09315 19.1202L6.3183 20.7011L5.09315 19.1202ZM5.05996 19.2321L3.17097 19.8892L5.05996 19.2321ZM6.71573 17.8627L7.94088 19.4436L6.71573 17.8627ZM6.83246 17.8586L7.94186 16.1945L6.83246 17.8586ZM14.1034 14.4741L12.3457 15.4283L14.1034 14.4741ZM14.24 14.5137L15.2157 16.2596L14.24 14.5137ZM12.613 12.1373L14.5811 11.7816L12.613 12.1373ZM12.7992 12.0718L11.0415 13.026L12.7992 12.0718ZM13.089 15.1617L12.1478 13.397L13.089 15.1617ZM13.1404 15.0557L11.1723 15.4114L13.1404 15.0557ZM11.9148 15.7879L12.856 17.5526L11.9148 15.7879ZM9.50547 13.8608L7.74776 14.815L9.50547 13.8608ZM10.7649 16.3905L11.7191 18.1482L10.7649 16.3905ZM10.8051 16.2549L9.04739 17.2091L10.8051 16.2549ZM9.28571 17.0802L7.53208 18.0418L9.28571 17.0802ZM9.4211 17.12L10.3753 18.8777L9.4211 17.12ZM6.46972 11.7371L5.5091 9.98286L6.46972 11.7371ZM6.43008 11.8728L4.67645 12.8345L6.43008 11.8728ZM8.25755 10.8322L9.56586 9.31947L8.25755 10.8322ZM8.14411 10.8201L7.18348 9.06593L8.14411 10.8201ZM11.3788 13.2996L13.3583 13.0139L11.3788 13.2996ZM11.2144 13.3895L9.90611 14.9022L11.2144 13.3895ZM16.5449 9.30774L14.6987 10.077L16.5449 9.30774ZM21.6324 11.43L19.7175 12.0073L21.6324 11.43ZM21.7559 11.4972L21.1998 9.57611L21.7559 11.4972ZM19.9784 5.59338L19.4223 3.67225L19.9784 5.59338ZM19.9105 5.7183L17.9956 6.29558L19.9105 5.7183ZM23.2812 10.9505L25.1961 10.3732L23.2812 10.9505ZM23.2132 11.0754L22.6571 9.15425L23.2132 11.0754ZM21.5593 5.23872L23.4741 4.66144L21.5593 5.23872ZM21.4357 5.17152L21.9918 7.09265L21.4357 5.17152ZM24.255 4.42913L23.794 2.48297L24.255 4.42913ZM24.3753 4.50324L26.3207 4.03919L24.3753 4.50324ZM22.7258 4.89413L24.6717 4.43215L22.7258 4.89413ZM22.8 4.77372L23.261 6.71988L22.8 4.77372ZM24.233 10.8061L23.7536 8.86437V8.86437L24.233 10.8061ZM24.1118 10.7321L26.0577 10.2701L24.1118 10.7321ZM27.6276 9.86542L25.6835 10.3347L27.6276 9.86542ZM27.5544 9.98597L27.075 8.04428L27.5544 9.98597ZM25.5775 9.11488L25.1245 7.16686L25.5775 9.11488ZM25.4576 9.04068L23.5122 9.50472L25.4576 9.04068ZM27.2506 8.7258L26.7975 6.77779L27.2506 8.7258ZM27.3704 8.79974L25.4262 9.26902L27.3704 8.79974ZM33.4552 8.90733L31.4701 9.15111L33.4552 8.90733ZM33.5671 8.99433L33.8215 10.9781L33.5671 8.99433ZM33.0624 6.54772L32.7737 4.56866L33.0624 6.54772ZM33.176 6.63449L31.191 6.87827L33.176 6.63449ZM31.092 6.93384L33.0771 6.69006L31.092 6.93384ZM31.1768 6.8227L31.4654 8.80176L31.1768 6.8227ZM31.2853 9.32361L31.5396 11.3074L31.2853 9.32361ZM31.3718 9.21223L33.3569 8.96845L31.3718 9.21223ZM29.6784 9.42874L31.6623 9.17548L29.6784 9.42874ZM29.7903 9.51527L30.0446 11.499L29.7903 9.51527ZM29.0089 3.395L28.7546 1.41124L29.0089 3.395ZM28.9224 3.50686L26.9385 3.76012L28.9224 3.50686ZM30.6156 3.28945L32.5984 3.02757L30.6156 3.28945ZM30.5038 3.20335L30.7581 5.18711L30.5038 3.20335ZM30.8934 5.39276L32.8762 5.13088L30.8934 5.39276ZM35.1475 8.69086L33.1638 8.94591L35.1475 8.69086ZM34.3917 2.81236L36.3754 2.55732L34.3917 2.81236ZM34.2798 2.72593L34.0255 0.742163L34.2798 2.72593ZM38.0623 6.22771L36.1377 5.68379L38.0623 6.22771ZM10.8712 9.32129L9.92792 7.55772L10.8712 9.32129ZM10.8194 9.42376L12.7989 9.13806L10.8194 9.42376ZM69.8839 15.4718L71.6948 16.3207L69.8839 15.4718ZM69.7518 15.5203L70.5833 13.7014L69.7518 15.5203ZM39.2779 6.18537L37.407 6.89217L39.2779 6.18537ZM15.5798 13.6514L13.8262 14.6131L15.5798 13.6514ZM15.5409 13.7868L14.5652 12.0409L15.5409 13.7868ZM72.4041 10.0954L74.215 10.9443L72.4041 10.0954ZM72.3566 9.96272L71.4951 11.7677L72.3566 9.96272ZM38.6966 4.64661L40.5676 3.93981L38.6966 4.64661ZM38.5068 4.65476L36.5822 4.11084L38.5068 4.65476ZM12.7234 8.44279L10.9698 9.40445L12.7234 8.44279ZM12.5886 8.40269L13.5319 10.1663L12.5886 8.40269ZM62.8666 6.02168L64.7749 6.62037L62.8666 6.02168ZM62.9929 5.95649L62.3759 7.85894L62.9929 5.95649ZM40.2654 8.61482L40.3142 10.6142L40.2654 8.61482ZM40.1699 8.55129L42.0323 7.8225L40.1699 8.55129ZM62.1075 8.11019L61.5252 10.0235L62.1075 8.11019ZM62.232 8.04446L64.1403 8.64315L62.232 8.04446ZM41.9211 8.4393L40.066 9.18669L41.9211 8.4393ZM41.8308 8.57664L41.782 6.57724L41.8308 8.57664ZM17.3718 11.4741L15.4992 12.1763L17.3718 11.4741ZM17.5011 11.5324L16.7891 9.66342L17.5011 11.5324ZM60.2358 7.43514L58.3276 6.83646L60.2358 7.43514ZM60.3021 7.56074L60.8845 5.64739L60.3021 7.56074ZM39.5701 2.6038L37.715 3.35119L39.5701 2.6038ZM17.0514 10.6196L18.9241 9.91733L17.0514 10.6196ZM60.805 5.2876L60.2027 7.19477L60.805 5.2876ZM60.8703 5.41289L62.7786 6.01157L60.8703 5.41289ZM37.5689 2.65025L39.4689 3.27473L37.5689 2.65025ZM37.6617 2.5815L37.6173 0.581991L37.6617 2.5815ZM59.2204 4.89183L57.3148 4.28484L59.2204 4.89183ZM59.3458 4.82682L59.9481 2.91966L59.3458 4.82682ZM35.6926 8.7867L35.6439 6.7873L35.6926 8.7867ZM35.5952 8.65551L33.6952 8.03103L35.5952 8.65551ZM64.4727 6.541L66.3783 7.14799L64.4727 6.541ZM64.4082 6.41553L65.0253 4.51309L64.4082 6.41553ZM44.3567 4.16084L42.3598 4.0499L44.3567 4.16084ZM44.4642 4.06668L44.6176 2.07257L44.4642 4.06668ZM19.1459 8.87023L20.7357 10.0837L19.1459 8.87023ZM19.2731 9.14032L19.1416 11.136L19.2731 9.14032ZM62.6669 12.2103L60.7612 11.6033L62.6669 12.2103ZM62.5408 12.275L61.9238 14.1775L62.5408 12.275ZM44.2864 7.1916L44.133 9.18571L44.2864 7.1916ZM44.1942 7.08635L46.1911 7.19729L44.1942 7.08635ZM57.4798 10.6868L58.0821 8.77965L57.4798 10.6868ZM57.4147 10.5611L55.509 9.95411L57.4147 10.5611ZM37.3511 8.67656L35.4311 8.11657L37.3511 8.67656ZM37.2575 8.74853L37.2087 6.74913L37.2575 8.74853ZM32.9768 5.13094L30.994 5.39282L32.9768 5.13094ZM32.89 5.24326L33.1381 7.22782L32.89 5.24326ZM14.1447 7.84265L16.0103 7.12185L14.1447 7.84265ZM14.2028 7.71297L13.5006 5.84032L14.2028 7.71297ZM50.819 9.14465L49.117 8.09423L50.819 9.14465ZM50.8849 9.29532L51.268 7.33234L50.8849 9.29532ZM42.3714 8.51638L40.3745 8.40388L42.3714 8.51638ZM42.4658 8.62187L42.3589 10.619L42.4658 8.62187ZM59.8668 8.81915L59.2845 10.7325L59.8668 8.81915ZM59.7422 8.88528L61.653 9.4759L59.7422 8.88528ZM37.7063 7.70213L37.7862 9.70053L37.7063 7.70213ZM37.6143 7.77405L35.6943 7.21405L37.6143 7.77405ZM16.2438 8.319L15.5189 6.45499L16.2438 8.319ZM16.1878 8.45066L14.3416 9.21989L16.1878 8.45066ZM59.0634 11.0814L60.9742 11.672L59.0634 11.0814ZM58.9377 11.1472L59.54 9.24004L58.9377 11.1472ZM39.7336 7.62104L39.6536 5.62263L39.7336 7.62104ZM39.8307 7.68452L41.6932 6.95572L39.8307 7.68452ZM32.7857 2.91748L33.04 4.90124L32.7857 2.91748ZM32.6992 3.02976L30.7165 3.29164L32.6992 3.02976ZM16.4149 13.4429L17.1233 15.3132L16.4149 13.4429ZM16.2862 13.3854L18.1518 12.6646L16.2862 13.3854ZM54.2404 3.72528L54.6326 1.76412L54.2404 3.72528ZM54.1356 3.77082L52.4337 2.7204L54.1356 3.77082ZM42.8125 2.45815L42.7056 4.45529L42.8125 2.45815ZM42.7074 2.55239L44.7042 2.66488L42.7074 2.55239ZM46.0228 6.25421C45.9007 6.42869 45.7456 6.57033 45.5316 6.68708L47.447 10.1987C48.1879 9.79455 48.8142 9.24169 49.2997 8.54804L46.0228 6.25421ZM46.1387 5.7951C46.1387 6.03217 46.0695 6.18745 46.0228 6.2542L49.2997 8.54805C49.8607 7.74668 50.1387 6.7734 50.1387 5.7951H46.1387ZM46.0142 5.01668C46.0799 5.16135 46.1387 5.38022 46.1387 5.7951H50.1387C50.1387 4.9946 50.0239 4.17173 49.6556 3.36145L46.0142 5.01668ZM45.7194 4.74783C45.8536 4.83325 45.9213 4.89432 45.9553 4.93041C45.9843 4.96123 45.9999 4.98532 46.0142 5.01667L49.6556 3.36147C49.2355 2.43716 48.5719 1.82181 47.8669 1.37318L45.7194 4.74783ZM45.0107 4.57861C45.3946 4.6042 45.6418 4.70208 45.7642 4.77549L47.8221 1.34552C47.0764 0.898062 46.1951 0.648688 45.2768 0.587467L45.0107 4.57861ZM42.7056 4.45529L45.0367 4.58017L45.2507 0.585901L42.9195 0.461017L42.7056 4.45529ZM44.3682 8.62888L44.7042 2.66488L40.7105 2.43989L40.3745 8.40388L44.3682 8.62888ZM44.9035 6.74958L42.5728 6.62473L42.3589 10.619L44.6895 10.7439L44.9035 6.74958ZM45.5316 6.68709C45.4934 6.70792 45.3014 6.77769 44.939 6.7518L44.654 10.7416C45.5069 10.8026 46.5303 10.6987 47.447 10.1987L45.5316 6.68709ZM47.2266 8.39877C47.9988 7.73692 48.3601 6.86485 48.439 5.91779L44.4528 5.5856C44.4463 5.66368 44.4376 5.63835 44.4735 5.56204C44.4913 5.52427 44.5154 5.48396 44.5453 5.44518C44.5749 5.4068 44.6031 5.37913 44.6234 5.36174L47.2266 8.39877ZM44.7531 9.2275C45.4445 9.2275 46.4008 9.10662 47.2266 8.39876L44.6234 5.36175C44.6683 5.3233 44.7167 5.29133 44.7643 5.26678C44.811 5.2427 44.8482 5.23026 44.8689 5.22451C44.8885 5.21904 44.8914 5.22014 44.8713 5.22241C44.8508 5.22471 44.813 5.2275 44.7531 5.2275V9.2275ZM44.133 9.18571L44.5997 9.22161L44.9064 5.23339L44.4398 5.1975L44.133 9.18571ZM42.3598 4.0499L42.1973 6.97541L46.1911 7.19729L46.3537 4.27178L42.3598 4.0499ZM45.0801 2.10815L44.6176 2.07257L44.3109 6.06079L44.7733 6.09636L45.0801 2.10815ZM47.6172 3.27814C46.8475 2.38016 45.8098 2.16892 45.0928 2.10916L44.7606 6.09535C44.8305 6.10118 44.8736 6.10814 44.8962 6.1127C44.9185 6.11721 44.9119 6.11763 44.8854 6.10733C44.8576 6.09652 44.8091 6.07432 44.7505 6.03433C44.6906 5.99341 44.6319 5.94174 44.5801 5.8813L47.6172 3.27814ZM48.4377 5.93277C48.5267 4.95382 48.2521 4.01896 47.6172 3.27814L44.5801 5.88131C44.5378 5.83194 44.4974 5.76331 44.4735 5.68504C44.4502 5.60872 44.4548 5.56353 44.4541 5.57061L48.4377 5.93277ZM37.7862 9.70053L39.8135 9.61944L39.6536 5.62263L37.6264 5.70373L37.7862 9.70053ZM39.2711 9.23656L39.5343 8.33404L35.6943 7.21405L35.4311 8.11657L39.2711 9.23656ZM35.7414 10.7861L37.3063 10.7479L37.2087 6.74913L35.6439 6.7873L35.7414 10.7861ZM35.6689 2.02577L33.6952 8.03103L37.4952 9.27998L39.4689 3.27473L35.6689 2.02577ZM39.4307 0.541692L37.6173 0.581991L37.7062 4.581L39.5196 4.54071L39.4307 0.541692ZM43.7762 7.69192L41.4252 1.85642L37.715 3.35119L40.066 9.18669L43.7762 7.69192ZM40.3142 10.6142L41.8796 10.576L41.782 6.57724L40.2167 6.61542L40.3142 10.6142ZM37.9682 8.41331L38.3074 9.28009L42.0323 7.8225L41.6932 6.95572L37.9682 8.41331ZM36.8257 5.35341L37.407 6.89217L41.1489 5.47857L40.5676 3.93981L36.8257 5.35341ZM39.9869 6.77162L40.4314 5.19867L36.5822 4.11084L36.1377 5.68379L39.9869 6.77162ZM39.1211 4.32177L38.0952 4.35596L38.2285 8.35374L39.2543 8.31954L39.1211 4.32177ZM32.408 3.06741L33.1638 8.94591L37.1312 8.43582L36.3754 2.55732L32.408 3.06741ZM33.04 4.90124L34.5341 4.70969L34.0255 0.742163L32.5313 0.933717L33.04 4.90124ZM34.9595 4.86906L34.682 2.76788L30.7165 3.29164L30.994 5.39282L34.9595 4.86906ZM31.2531 7.46345L33.1381 7.22782L32.642 3.25871L30.7569 3.49434L31.2531 7.46345ZM28.6329 3.55132L28.9107 5.65464L32.8762 5.13088L32.5984 3.02757L28.6329 3.55132ZM29.2632 5.37877L30.7581 5.18711L30.2495 1.21959L28.7546 1.41124L29.2632 5.37877ZM31.6623 9.17548L30.9063 3.25359L26.9385 3.76012L27.6945 9.682L31.6623 9.17548ZM31.0309 7.33984L29.536 7.5315L30.0446 11.499L31.5396 11.3074L31.0309 7.33984ZM29.1069 7.17762L29.3867 9.45601L33.3569 8.96845L33.0771 6.69006L29.1069 7.17762ZM32.7737 4.56866L30.8882 4.84363L31.4654 8.80176L33.351 8.52679L32.7737 4.56866ZM35.4402 8.66355L35.1611 6.39071L31.191 6.87827L31.4701 9.15111L35.4402 8.66355ZM34.8067 6.81904L33.3128 7.01057L33.8215 10.9781L35.3154 10.7866L34.8067 6.81904ZM26.7975 6.77779L25.1245 7.16686L26.0306 11.0629L27.7036 10.6738L26.7975 6.77779ZM29.5718 9.39614L29.3146 8.33046L25.4262 9.26902L25.6835 10.3347L29.5718 9.39614ZM24.7125 12.7477L28.0338 11.9277L27.075 8.04428L23.7536 8.86437L24.7125 12.7477ZM20.7799 5.35611L22.1659 11.194L26.0577 10.2701L24.6717 4.43215L20.7799 5.35611ZM23.794 2.48297L22.3391 2.82756L23.261 6.71988L24.7159 6.37529L23.794 2.48297ZM27.403 8.57663L26.3207 4.03919L22.4299 4.96728L23.5122 9.50472L27.403 8.57663ZM19.6444 5.816L21.3663 11.5277L25.1961 10.3732L23.4741 4.66144L19.6444 5.816ZM20.5345 7.51451L21.9918 7.09265L20.8796 3.2504L19.4223 3.67225L20.5345 7.51451ZM23.5473 10.8528L21.8253 5.14102L17.9956 6.29558L19.7175 12.0073L23.5473 10.8528ZM22.6571 9.15425L21.1998 9.57611L22.312 13.4184L23.7694 12.9965L22.6571 9.15425ZM22.3616 9.39013C22.0782 8.63419 21.5645 7.99421 20.8302 7.57458L18.8456 11.0475C18.7972 11.0199 18.7412 10.9759 18.6921 10.917C18.644 10.8593 18.6227 10.8115 18.6163 10.7946L22.3616 9.39013ZM22.1939 12.4093C22.7663 11.3789 22.6814 10.2693 22.3686 9.40888L18.6094 10.7759C18.6244 10.817 18.613 10.8074 18.6143 10.7501C18.6159 10.6868 18.6335 10.5815 18.6973 10.4667L22.1939 12.4093ZM19.8595 14.2764C20.7886 13.9445 21.6792 13.3357 22.1939 12.4093L18.6973 10.4667C18.7405 10.3888 18.7723 10.373 18.7433 10.3953C18.7156 10.4165 18.6444 10.4629 18.5141 10.5094L19.8595 14.2764ZM17.1233 15.3132L19.8953 14.2632L18.4783 10.5226L15.7064 11.5725L17.1233 15.3132ZM12.2791 8.56345L14.4206 14.1062L18.1518 12.6646L16.0103 7.12185L12.2791 8.56345ZM16.184 4.83403L13.5006 5.84032L14.9051 9.58563L17.5885 8.57935L16.184 4.83403ZM18.9802 4.66082C18.0035 4.36781 17.014 4.51475 16.1683 4.84L17.6042 8.57338C17.7382 8.52185 17.8246 8.50753 17.8643 8.50416C17.9024 8.50092 17.8853 8.50846 17.8308 8.49212L18.9802 4.66082ZM21.1966 6.80452C20.8371 5.81591 20.099 4.99645 18.9802 4.66082L17.8308 8.49212C17.7487 8.46749 17.6397 8.41121 17.5447 8.31623C17.4557 8.2272 17.4325 8.15784 17.4374 8.17148L21.1966 6.80452ZM21.2835 8.99238C21.4835 8.29238 21.4759 7.5491 21.1897 6.78575L17.4444 8.19025C17.4403 8.17941 17.424 8.12869 17.4213 8.05067C17.4186 7.97293 17.4311 7.91553 17.4374 7.89349L21.2835 8.99238ZM20.7357 10.0837C20.9782 9.76605 21.1658 9.40421 21.2835 8.99238L17.4374 7.89349C17.448 7.85647 17.4642 7.81299 17.4874 7.76721C17.5105 7.72158 17.535 7.68432 17.5561 7.65672L20.7357 10.0837ZM20.8302 7.57457C20.3903 7.32322 19.9048 7.17759 19.4045 7.14464L19.1416 11.136C19.0358 11.129 18.9325 11.0972 18.8456 11.0475L20.8302 7.57457ZM16.6388 7.23002L15.9485 7.49847L17.3983 11.2265L18.0886 10.958L16.6388 7.23002ZM15.8817 9.05837C15.8207 8.89563 15.6944 8.3901 15.9986 7.83248C16.1273 7.59655 16.2846 7.44917 16.3869 7.3703C16.4381 7.33084 16.4801 7.30485 16.5065 7.28978C16.533 7.27465 16.5494 7.26734 16.5515 7.26641L18.176 10.9217C18.5169 10.7701 19.1314 10.4422 19.5102 9.74789C19.9446 8.95154 19.8183 8.16387 19.6271 7.65388L15.8817 9.05837ZM17.5044 9.96793C17.5038 9.96811 17.4891 9.97251 17.4622 9.97769C17.4354 9.98285 17.391 9.98983 17.3317 9.99305C17.214 9.99944 17.0146 9.99192 16.7785 9.90693C16.2106 9.70247 15.9585 9.26319 15.8817 9.05837L19.6271 7.65388C19.42 7.10181 18.9726 6.4455 18.1334 6.14338C17.4068 5.88179 16.737 6.02201 16.355 6.13663L17.5044 9.96793ZM16.9687 10.183L17.6546 9.91629L16.2048 6.18827L15.5189 6.45499L16.9687 10.183ZM18.391 8.53851L18.0339 7.68143L14.3416 9.21989L14.6987 10.077L18.391 8.53851ZM18.5605 12.0766C18.5161 12.0913 18.2073 12.1886 17.7838 12.042C17.2771 11.8666 16.9902 11.479 16.8801 11.1853L20.6254 9.78078C20.385 9.13979 19.8811 8.53515 19.0923 8.26208C18.3866 8.01782 17.7306 8.1368 17.2956 8.28182L18.5605 12.0766ZM17.8214 12.36L18.64 12.0482L17.216 8.31021L16.3975 8.62204L17.8214 12.36ZM19.2445 10.7718L18.9241 9.91733L15.1788 11.3218L15.4992 12.1763L19.2445 10.7718ZM17.6067 9.35196L16.7891 9.66342L18.2131 13.4014L19.0307 13.0899L17.6067 9.35196ZM16.8801 11.1853C16.7729 10.8994 16.7201 10.3905 17.0226 9.89347C17.2798 9.47103 17.6226 9.34476 17.6862 9.32357L18.9511 13.1183C19.4054 12.9669 20.0304 12.6453 20.4394 11.9733C20.8939 11.2266 20.8628 10.4139 20.6254 9.78078L16.8801 11.1853ZM10.9698 9.40445L13.8262 14.6131L17.3334 12.6897L14.4771 7.48112L10.9698 9.40445ZM11.8145 11.0849L13.5319 10.1663L11.6453 6.63912L9.92792 7.55772L11.8145 11.0849ZM13.3583 13.0139L12.7989 9.13806L8.83992 9.70946L9.39932 13.5853L13.3583 13.0139ZM6.94925 12.3449L9.90611 14.9022L12.5227 11.8768L9.56586 9.31947L6.94925 12.3449ZM7.43035 13.4912L9.10474 12.5743L7.18348 9.06593L5.5091 9.98286L7.43035 13.4912ZM11.0393 16.1185L8.1837 10.9112L4.67645 12.8345L7.53208 18.0418L11.0393 16.1185ZM9.81073 14.6328L8.46691 15.3623L10.3753 18.8777L11.7191 18.1482L9.81073 14.6328ZM7.74776 14.815L9.04739 17.2091L12.5628 15.3007L11.2632 12.9066L7.74776 14.815ZM13.177 14.3228L11.0404 12.2912L8.28414 15.1901L10.4207 17.2216L13.177 14.3228ZM12.1478 13.397L10.9736 14.0232L12.856 17.5526L14.0302 16.9264L12.1478 13.397ZM10.6448 12.493L11.1723 15.4114L15.1085 14.7L14.5811 11.7816L10.6448 12.493ZM15.8611 13.52L14.5569 11.1176L11.0415 13.026L12.3457 15.4283L15.8611 13.52ZM14.5652 12.0409L13.2644 12.7678L15.2157 16.2596L16.5165 15.5327L14.5652 12.0409ZM5.49059 16.2819L3.86801 17.5394L6.3183 20.7011L7.94088 19.4436L5.49059 16.2819ZM8.73316 16.722L7.94186 16.1945L5.72306 19.5227L6.51436 20.0502L8.73316 16.722ZM7.76644 15.8153L6.50338 16.8105L8.97886 19.9524L10.2419 18.9573L7.76644 15.8153ZM2.56922 15.6071L7.9444 18.9246L10.0452 15.5207L4.67006 12.2032L2.56922 15.6071ZM3.28065 16.6201L4.7336 15.49L2.27784 12.3326L0.82489 13.4627L3.28065 16.6201ZM5.81548 20.5526L3.92655 14.55L0.111008 15.7507L1.99994 21.7533L5.81548 20.5526ZM4.08989 18.6357L2.82724 19.6305L5.30273 22.7725L6.56537 21.7777L4.08989 18.6357ZM3.17097 19.8892L3.4712 20.7523L7.24919 19.4383L6.94895 18.5751L3.17097 19.8892ZM6.64971 15.3466L5.27589 14.4193L3.03799 17.7347L4.41182 18.662L6.64971 15.3466ZM5.954 19.3862L6.77829 18.7337L4.29548 15.5975L3.47119 16.2501L5.954 19.3862ZM2.11755 16.8497L2.66708 18.4296L6.44507 17.1156L5.89554 15.5357L2.11755 16.8497ZM52.3488 9.42354L53.1046 3.54504L49.1373 3.03495L48.3815 8.91346L52.3488 9.42354ZM48.5045 11.0471L49.9989 11.2387L50.5076 7.27117L49.0131 7.07957L48.5045 11.0471ZM47.4445 2.81785L46.6887 8.69635L50.656 9.20644L51.4118 3.32794L47.4445 2.81785ZM51.2888 1.19429L49.7944 1.00269L49.2857 4.97022L50.7802 5.16182L51.2888 1.19429ZM55.5026 7.12057L53.5159 6.71512L52.7161 10.6343L54.7028 11.0398L55.5026 7.12057ZM57.308 9.79422L57.1563 8.84637L53.2066 9.47834L53.3582 10.4262L57.308 9.79422ZM57.367 8.53615L55.7957 8.22957L55.0297 12.1555L56.6009 12.4621L57.367 8.53615ZM54.1599 4.47843L55.1256 10.6928L59.0782 10.0785L58.1124 3.86418L54.1599 4.47843ZM53.8481 5.68644L55.6647 6.04977L56.4492 2.12744L54.6326 1.76412L53.8481 5.68644ZM52.5209 10.1951L55.8376 4.82124L52.4337 2.7204L49.117 8.09423L52.5209 10.1951ZM52.8339 7.63789L51.268 7.33234L50.5019 11.2583L52.0678 11.5638L52.8339 7.63789ZM51.2524 7.76713L50.802 8.5929L54.3136 10.5083L54.764 9.68252L51.2524 7.76713ZM56.9642 7.40609L56.7582 5.75795L52.7891 6.25408L52.9951 7.90223L56.9642 7.40609ZM53.4385 9.51976L54.4686 9.72578L55.2531 5.80346L54.223 5.59744L53.4385 9.51976ZM52.8511 4.97653L52.0271 6.41865L55.5 8.40321L56.3241 6.96108L52.8511 4.97653ZM64.5726 12.8173L66.3783 7.14799L62.567 5.93401L60.7612 11.6033L64.5726 12.8173ZM60.5072 13.7181L61.9238 14.1775L63.1578 10.3726L61.7412 9.91317L60.5072 13.7181ZM59.8278 8.90319L59.1487 11.1003L62.9703 12.2816L63.6494 10.0844L59.8278 8.90319ZM59.2845 10.7325L61.0899 11.2819L62.2545 7.45525L60.4492 6.9058L59.2845 10.7325ZM60.9742 11.672L61.653 9.4759L57.8314 8.29467L57.1526 10.4908L60.9742 11.672ZM56.8776 12.594L58.3355 13.0544L59.54 9.24004L58.0821 8.77965L56.8776 12.594ZM57.3148 4.28484L55.509 9.95411L59.3203 11.1681L61.1261 5.49882L57.3148 4.28484ZM61.4072 3.38044L59.9481 2.91966L58.7436 6.73399L60.2027 7.19477L61.4072 3.38044ZM62.1441 8.03382L62.7786 6.01157L58.962 4.81422L58.3276 6.83646L62.1441 8.03382ZM62.6898 6.19685L60.8845 5.64739L59.7198 9.47409L61.5252 10.0235L62.6898 6.19685ZM60.9583 5.423L60.3237 7.44578L64.1403 8.64315L64.7749 6.62037L60.9583 5.423ZM65.0253 4.51309L63.6099 4.05405L62.3759 7.85894L63.7912 8.31798L65.0253 4.51309ZM70.5931 9.24655L68.073 14.6229L71.6948 16.3207L74.215 10.9443L70.5931 9.24655ZM69.7387 10.9294L71.4951 11.7677L73.218 8.15776L71.4616 7.31945L69.7387 10.9294ZM69.1451 13.3137L71.9006 10.5582L69.0721 7.72974L66.3167 10.4852L69.1451 13.3137ZM65.8453 7.76207L65.5655 11.6791L69.5553 11.9641L69.8351 8.04706L65.8453 7.76207ZM65.1976 8.82869L66.9542 9.62714L68.6094 5.98567L66.8529 5.18723L65.1976 8.82869ZM65.1841 13.2816L67.7042 7.90542L64.0824 6.20769L61.5623 11.5839L65.1841 13.2816ZM65.6566 11.4095L64.2751 10.7571L62.5671 14.3741L63.9486 15.0265L65.6566 11.4095ZM64.2925 9.81432L63.123 12.3254L66.749 14.0142L67.9185 11.5031L64.2925 9.81432ZM67.9299 13.9021L68.2814 10.9492L64.3095 10.4763L63.958 13.4292L67.9299 13.9021ZM68.0393 12.4942L66.8253 11.9459L65.1789 15.5913L66.393 16.1396L68.0393 12.4942ZM67.9278 10.7632L65.8804 12.9165L68.7792 15.6728L70.8266 13.5194L67.9278 10.7632ZM70.1781 15.6201L71.3533 13.0969L67.7273 11.408L66.5521 13.9313L70.1781 15.6201ZM70.5833 13.7014L69.2457 13.0899L67.5827 16.7278L68.9202 17.3393L70.5833 13.7014ZM74.9746 15.7651L76.8727 12.939L73.5522 10.7088L71.6541 13.5349L74.9746 15.7651ZM75.0538 15.4432C75.0523 15.5926 75.023 15.6861 75.016 15.7067C75.0087 15.7284 75.013 15.7084 75.0508 15.6423L71.5779 13.6577C71.3291 14.0931 71.0611 14.6995 71.054 15.4029L75.0538 15.4432ZM74.5974 14.3749C74.5886 14.369 74.6937 14.436 74.8073 14.5918C74.9357 14.7677 75.0006 14.9533 75.0254 15.0948L71.0852 15.7842C71.2489 16.7197 71.7998 17.3173 72.3786 17.7031L74.5974 14.3749ZM73.8475 14.2488C74.1966 14.1832 74.4647 14.2864 74.5974 14.3749L72.3786 17.7031C73.025 18.134 73.8067 18.3264 74.5862 18.1799L73.8475 14.2488ZM73.3405 14.4114C73.3006 14.4593 73.2862 14.4683 73.3013 14.4561C73.317 14.4435 73.3741 14.4003 73.475 14.3589L74.9937 18.0594C75.6138 17.8049 76.0771 17.3756 76.4134 16.9721L73.3405 14.4114ZM75.1144 11.7511L73.2167 14.5766L76.5372 16.8068L78.435 13.9814L75.1144 11.7511ZM79.2886 12.0187L78.0226 11.1747L75.8038 14.5029L77.0697 15.3469L79.2886 12.0187ZM77.9696 17.7618L79.867 14.9369L76.5464 12.7066L74.6491 15.5316L77.9696 17.7618ZM76.0752 19.4773C76.8501 19.0898 77.5084 18.4876 77.9967 17.7204L74.622 15.5729C74.5026 15.7606 74.3796 15.8529 74.2864 15.8996L76.0752 19.4773ZM73.4864 19.8666C74.461 20.0615 75.3504 19.8397 76.0752 19.4773L74.2864 15.8996C74.211 15.9372 74.1788 15.9419 74.185 15.9408C74.1884 15.9402 74.1995 15.9386 74.2167 15.9387C74.234 15.9388 74.2527 15.9407 74.2708 15.9443L73.4864 19.8666ZM71.4295 19.023C72.1803 19.5486 72.9152 19.7524 73.4864 19.8666L74.2709 15.9443C73.9739 15.8849 73.8407 15.8283 73.7234 15.7461L71.4295 19.023ZM69.8732 17.3575C70.2376 18.0134 70.7743 18.6357 71.5474 19.0996L73.6054 15.6696C73.5509 15.6369 73.511 15.6031 73.4781 15.5679C73.4442 15.5316 73.4077 15.4831 73.3698 15.4149L69.8732 17.3575ZM69.371 14.9285C69.2874 15.7642 69.4563 16.6071 69.8732 17.3575L73.3698 15.4149C73.3596 15.3966 73.3551 15.3823 73.3528 15.3712C73.3505 15.36 73.3492 15.3456 73.3511 15.3264L69.371 14.9285ZM70.2612 12.5856C69.79 13.2926 69.4514 14.0427 69.3693 14.9464L73.3528 15.3085C73.3575 15.2573 73.3662 15.1393 73.5894 14.8044L70.2612 12.5856ZM72.162 9.75564L70.2651 12.5799L73.5856 14.8102L75.4825 11.9859L72.162 9.75564ZM76.3192 10.0376L75.095 9.19601L72.8289 12.4922L74.053 13.3338L76.3192 10.0376ZM76.5959 18.2812L75.6413 19.3885L78.6709 22.0002L79.6255 20.8929L76.5959 18.2812ZM75.6395 19.96L76.7906 20.9576L79.4103 17.9348L78.2592 16.9372L75.6395 19.96ZM77.3684 20.8721L78.323 19.7648L75.2933 17.153L74.3388 18.2603L77.3684 20.8721ZM78.3247 19.1933L77.1737 18.1957L74.554 21.2184L75.705 22.216L78.3247 19.1933ZM79.8604 14.57L77.1329 17.4629L80.0433 20.2069L82.7707 17.3141L79.8604 14.57ZM78.7411 16.2426L80.0135 17.3222L82.6015 14.2722L81.3291 13.1926L78.7411 16.2426ZM79.0331 19.0996L81.4712 15.959L78.3116 13.5061L75.8735 16.6467L79.0331 19.0996ZM79.7426 17.3158L78.7596 16.484L76.1758 19.5376L77.1588 20.3694L79.7426 17.3158ZM75.8735 16.6467C75.1833 17.5357 75.3167 18.8106 76.1758 19.5376L78.7596 16.484C79.5369 17.1418 79.6575 18.2953 79.0331 19.0996L75.8735 16.6467ZM81.3291 13.1926C80.4174 12.419 79.0448 12.5616 78.3116 13.5061L81.4712 15.959C80.8079 16.8134 79.566 16.9425 78.7411 16.2426L81.3291 13.1926ZM77.1329 17.4629C77.8255 16.7282 78.9718 16.6636 79.7426 17.3158L77.1588 20.3694C78.0108 21.0902 79.2777 21.0189 80.0433 20.2069L77.1329 17.4629ZM82.7707 17.3141C83.596 16.4388 83.5188 15.0505 82.6015 14.2722L80.0135 17.3222C79.1836 16.618 79.1137 15.362 79.8604 14.57L82.7707 17.3141ZM74.3388 18.2603C73.5829 19.1371 73.6792 20.4603 74.554 21.2184L77.1737 18.1957C77.9652 18.8816 78.0523 20.0788 77.3684 20.8721L74.3388 18.2603ZM78.2592 16.9372C77.3812 16.1762 76.052 16.2729 75.2933 17.153L78.323 19.7648C77.6365 20.561 76.434 20.6485 75.6395 19.96L78.2592 16.9372ZM75.6413 19.3885C76.3277 18.5922 77.5303 18.5047 78.3247 19.1933L75.705 22.216C76.5831 22.977 77.9122 22.8803 78.6709 22.0002L75.6413 19.3885ZM79.6255 20.8929C80.3814 20.0161 80.2851 18.693 79.4103 17.9348L76.7906 20.9576C75.9991 20.2716 75.912 19.0745 76.5959 18.2812L79.6255 20.8929ZM75.4825 11.9859C74.893 12.8636 73.7002 13.0912 72.8289 12.4922L75.095 9.19601C74.1319 8.53391 72.8136 8.78545 72.162 9.75564L75.4825 11.9859ZM77.0697 15.3469C76.1945 14.7634 75.9599 13.5799 76.5464 12.7066L79.867 14.9369C80.5152 13.9717 80.2559 12.6636 79.2886 12.0187L77.0697 15.3469ZM78.435 13.9814C77.8513 14.8503 76.6747 15.0835 75.8038 14.5029L78.0226 11.1747C77.0599 10.5329 75.7595 10.7907 75.1144 11.7511L78.435 13.9814ZM74.5862 18.1799C74.7284 18.1532 74.8648 18.1123 74.9937 18.0594L73.475 14.3589C73.5926 14.3106 73.7174 14.2732 73.8475 14.2488L74.5862 18.1799ZM71.054 15.4029C71.0527 15.5343 71.0638 15.6619 71.0852 15.7842L75.0254 15.0948C75.0449 15.2063 75.055 15.3228 75.0538 15.4432L71.054 15.4029ZM76.8727 12.939C77.5144 11.9836 77.2676 10.6897 76.3192 10.0376L74.053 13.3338C73.195 12.7439 72.9716 11.5732 73.5522 10.7088L76.8727 12.939ZM66.5521 13.9313C66.06 14.9879 66.5226 16.2432 67.5827 16.7278L69.2457 13.0899C70.2049 13.5284 70.6234 14.6641 70.1781 15.6201L66.5521 13.9313ZM70.8266 13.5194C69.3434 15.0794 66.8185 13.3594 67.7273 11.408L71.3533 13.0969C72.3579 10.9401 69.5672 9.03906 67.9278 10.7632L70.8266 13.5194ZM66.393 16.1396C67.2067 16.5071 68.1639 16.3199 68.7792 15.6728L65.8804 12.9165C66.437 12.3311 67.3031 12.1616 68.0393 12.4942L66.393 16.1396ZM63.958 13.4292C63.8496 14.3391 64.3438 15.2142 65.1789 15.5913L66.8253 11.9459C67.5808 12.2871 68.0279 13.0788 67.9299 13.9021L63.958 13.4292ZM67.9185 11.5031C67.0065 13.4613 64.0541 12.6213 64.3095 10.4763L68.2814 10.9492C68.5637 8.57844 65.3006 7.65002 64.2925 9.81432L67.9185 11.5031ZM63.9486 15.0265C65.0013 15.5236 66.2575 15.0695 66.749 14.0142L63.123 12.3254C63.5677 11.3706 64.7042 10.9598 65.6566 11.4095L63.9486 15.0265ZM61.5623 11.5839C61.071 12.6319 61.5204 13.8799 62.5671 14.3741L64.2751 10.7571C65.222 11.2043 65.6286 12.3334 65.1841 13.2816L61.5623 11.5839ZM66.8529 5.18723C65.8058 4.71127 64.5706 5.16622 64.0824 6.20769L67.7042 7.90542C67.2626 8.8477 66.145 9.25932 65.1976 8.82869L66.8529 5.18723ZM69.8351 8.04706C69.8977 7.17127 69.4088 6.349 68.6094 5.98567L66.9542 9.62714C66.231 9.29841 65.7887 8.55445 65.8453 7.76207L69.8351 8.04706ZM66.3167 10.4852C67.5603 9.24154 69.6806 10.2097 69.5553 11.9641L65.5655 11.6791C65.427 13.6182 67.7705 14.6883 69.1451 13.3137L66.3167 10.4852ZM71.4616 7.31945C70.6586 6.93622 69.7013 7.10059 69.0721 7.72974L71.9006 10.5582C71.3313 11.1274 70.4652 11.2761 69.7387 10.9294L71.4616 7.31945ZM63.6494 10.0844C63.993 8.97294 63.3675 7.79398 62.2545 7.45525L61.0899 11.2819C60.0829 10.9755 59.517 9.90881 59.8278 8.90319L63.6494 10.0844ZM61.7412 9.91317C62.7296 10.2337 63.2771 11.2888 62.9703 12.2816L59.1487 11.1003C58.8095 12.1976 59.4147 13.3638 60.5072 13.7181L61.7412 9.91317ZM54.223 5.59744C55.4947 5.85178 56.1434 7.27722 55.5 8.40321L52.0271 6.41865C51.3159 7.66316 52.033 9.23866 53.4385 9.51976L54.223 5.59744ZM56.7582 5.75795C56.5079 3.75541 53.8524 3.2243 52.8511 4.97653L56.3241 6.96108C55.4182 8.54643 53.0156 8.0659 52.7891 6.25408L56.7582 5.75795ZM52.9951 7.90223C52.8343 6.61538 53.9814 5.54912 55.2531 5.80346L54.4686 9.72578C55.8741 10.0069 57.142 8.82839 56.9642 7.40609L52.9951 7.90223ZM52.0678 11.5638C52.9665 11.7392 53.8752 11.3121 54.3136 10.5083L50.802 8.5929C51.1987 7.86566 52.0208 7.47924 52.8339 7.63789L52.0678 11.5638ZM58.1124 3.86418C57.9772 2.99372 57.313 2.3002 56.4492 2.12744L55.6647 6.04977C54.8832 5.89346 54.2823 5.266 54.1599 4.47843L58.1124 3.86418ZM56.6009 12.4621C58.0296 12.7409 59.3017 11.5169 59.0782 10.0785L55.1256 10.6928C54.9234 9.39137 56.0743 8.28393 57.367 8.53615L56.6009 12.4621ZM53.3582 10.4262C53.4974 11.2962 54.1649 11.9868 55.0297 12.1555L55.7957 8.22957C56.5781 8.38223 57.182 9.00707 57.308 9.79422L53.3582 10.4262ZM53.5159 6.71512C52.6123 6.5307 51.6941 6.95746 51.2524 7.76713L54.764 9.68252C54.3644 10.4151 53.5337 10.8012 52.7161 10.6343L53.5159 6.71512ZM54.7028 11.0398C53.9276 10.8816 53.3316 10.2596 53.2066 9.47834L57.1563 8.84637C57.0182 7.98291 56.3594 7.29542 55.5026 7.12057L54.7028 11.0398ZM51.4118 3.32794C51.278 4.36845 50.3263 5.10363 49.2857 4.97022L49.7944 1.00269C48.6443 0.855246 47.5923 1.66781 47.4445 2.81785L51.4118 3.32794ZM49.0131 7.07957C50.0542 7.21305 50.7899 8.1654 50.656 9.20644L46.6887 8.69635C46.5407 9.84697 47.3538 10.8996 48.5045 11.0471L49.0131 7.07957ZM53.1046 3.54504C53.2526 2.39442 52.4395 1.34182 51.2888 1.19429L50.7802 5.16182C49.7391 5.02834 49.0035 4.07599 49.1373 3.03495L53.1046 3.54504ZM48.3815 8.91346C48.5153 7.87294 49.467 7.13777 50.5076 7.27117L49.9989 11.2387C51.149 11.3861 52.201 10.5736 52.3488 9.42354L48.3815 8.91346ZM3.47119 16.2501C4.49624 15.4386 6.01556 15.8807 6.44507 17.1156L2.66708 18.4296C3.1418 19.7944 4.82105 20.2832 5.954 19.3862L3.47119 16.2501ZM5.27589 14.4193C3.60211 13.2895 1.45414 14.9424 2.11755 16.8497L5.89554 15.5357C6.49576 17.2613 4.55237 18.7569 3.03799 17.7347L5.27589 14.4193ZM4.41182 18.662C3.3464 17.9428 3.28766 16.3954 4.29548 15.5975L6.77829 18.7337C7.8922 17.8518 7.82728 16.1415 6.64971 15.3466L4.41182 18.662ZM6.56537 21.7777C7.26882 21.2234 7.54339 20.2841 7.24919 19.4383L3.4712 20.7523C3.20501 19.987 3.45344 19.1372 4.08989 18.6357L6.56537 21.7777ZM1.99994 21.7533C2.44105 23.1551 4.14845 23.6819 5.30273 22.7725L2.82724 19.6305C3.87159 18.8077 5.41639 19.2844 5.81548 20.5526L1.99994 21.7533ZM0.82489 13.4627C0.132334 14.0014 -0.152356 14.9138 0.111008 15.7507L3.92655 14.55C4.16483 15.3072 3.90725 16.1328 3.28065 16.6201L0.82489 13.4627ZM4.67006 12.2032C3.92384 11.7427 2.97002 11.7943 2.27784 12.3326L4.7336 15.49C4.10735 15.9771 3.24436 16.0238 2.56922 15.6071L4.67006 12.2032ZM10.2419 18.9573C11.3879 18.0544 11.2867 16.2869 10.0452 15.5207L7.9444 18.9246C6.82116 18.2314 6.72963 16.6322 7.76644 15.8153L10.2419 18.9573ZM6.51436 20.0502C7.27049 20.5543 8.26505 20.5148 8.97886 19.9524L6.50338 16.8105C7.14921 16.3016 8.04905 16.2659 8.73316 16.722L6.51436 20.0502ZM3.86801 17.5394C3.15527 18.0918 2.87473 19.0375 3.17097 19.8892L6.94895 18.5751C7.21697 19.3456 6.96315 20.2013 6.3183 20.7011L3.86801 17.5394ZM7.94088 19.4436C7.29542 19.9438 6.40252 19.9756 5.72306 19.5227L7.94186 16.1945C7.19088 15.6938 6.20399 15.729 5.49059 16.2819L7.94088 19.4436ZM12.3457 15.4283C12.9038 16.4565 14.1945 16.8303 15.2157 16.2596L13.2644 12.7678C14.1884 12.2515 15.3561 12.5897 15.8611 13.52L12.3457 15.4283ZM14.5811 11.7816C14.965 13.9061 12.0715 14.9232 11.0415 13.026L14.5569 11.1176C13.4186 9.0206 10.2205 10.1448 10.6448 12.493L14.5811 11.7816ZM14.0302 16.9264C14.835 16.4972 15.2707 15.5975 15.1085 14.7L11.1723 15.4114C11.0255 14.5993 11.4197 13.7853 12.1478 13.397L14.0302 16.9264ZM10.4207 17.2216C11.0764 17.845 12.0577 17.9784 12.856 17.5526L10.9736 14.0232C11.6959 13.638 12.5837 13.7587 13.177 14.3228L10.4207 17.2216ZM11.2632 12.9066C12.2959 14.809 9.85291 16.6817 8.28414 15.1901L11.0404 12.2912C9.30648 10.6426 6.60634 12.7124 7.74776 14.815L11.2632 12.9066ZM11.7191 18.1482C12.7384 17.5948 13.1161 16.32 12.5628 15.3007L9.04739 17.2091C8.54675 16.2868 8.88852 15.1334 9.81073 14.6328L11.7191 18.1482ZM7.53208 18.0418C8.08807 19.0557 9.35906 19.4293 10.3753 18.8777L8.46691 15.3623C9.38635 14.8631 10.5363 15.2012 11.0393 16.1185L7.53208 18.0418ZM5.5091 9.98286C4.49142 10.5402 4.11855 11.8172 4.67645 12.8345L8.1837 10.9112C8.68847 11.8316 8.35111 12.987 7.43035 13.4912L5.5091 9.98286ZM9.56586 9.31947C8.90257 8.74582 7.95265 8.64472 7.18348 9.06593L9.10474 12.5743C8.40882 12.9554 7.54937 12.8639 6.94925 12.3449L9.56586 9.31947ZM9.39932 13.5853C9.14811 11.8447 11.1926 10.7264 12.5227 11.8768L9.90611 14.9022C11.3762 16.1737 13.6359 14.9376 13.3583 13.0139L9.39932 13.5853ZM15.9485 7.49847C16.91 7.12456 17.9942 7.58622 18.391 8.53851L14.6987 10.077C15.1373 11.1295 16.3356 11.6398 17.3983 11.2265L15.9485 7.49847ZM19.7175 12.0073C20.0497 13.1091 21.2067 13.7383 22.312 13.4184L21.1998 9.57611C22.1999 9.2866 23.2467 9.85592 23.5473 10.8528L19.7175 12.0073ZM19.4223 3.67225C18.2995 3.99726 17.6582 5.17647 17.9956 6.29558L21.8253 5.14102C22.1306 6.15354 21.5503 7.22045 20.5345 7.51451L19.4223 3.67225ZM21.3663 11.5277C21.0611 10.5152 21.6413 9.44831 22.6571 9.15425L23.7694 12.9965C24.8921 12.6715 25.5334 11.4923 25.1961 10.3732L21.3663 11.5277ZM23.4741 4.66144C23.142 3.55965 21.985 2.93042 20.8796 3.2504L21.9918 7.09265C20.9917 7.38216 19.9449 6.81285 19.6444 5.816L23.4741 4.66144ZM24.7159 6.37529C23.696 6.61686 22.6731 5.98684 22.4299 4.96728L26.3207 4.03919C26.0519 2.91232 24.9213 2.21598 23.794 2.48297L24.7159 6.37529ZM24.6717 4.43215C24.9142 5.4535 24.2824 6.47795 23.261 6.71988L22.3391 2.82756C21.2101 3.09496 20.5119 4.22724 20.7799 5.35611L24.6717 4.43215ZM23.7536 8.86437C24.7788 8.61123 25.8138 9.24263 26.0577 10.2701L22.1659 11.194C22.4355 12.3297 23.5793 13.0275 24.7125 12.7477L23.7536 8.86437ZM25.6835 10.3347C25.4382 9.31842 26.06 8.29489 27.075 8.04428L28.0338 11.9277C29.1557 11.6507 29.8429 10.5194 29.5718 9.39614L25.6835 10.3347ZM25.1245 7.16686C26.1425 6.93012 27.1605 7.56001 27.403 8.57663L23.5122 9.50472C23.7802 10.6284 24.9054 11.3246 26.0306 11.0629L25.1245 7.16686ZM27.7036 10.6738C26.6875 10.9101 25.671 10.283 25.4262 9.26902L29.3146 8.33046C29.044 7.20969 27.9205 6.51663 26.7975 6.77779L27.7036 10.6738ZM31.4701 9.15111C31.612 10.3066 32.6667 11.1261 33.8215 10.9781L33.3128 7.01057C34.3575 6.87663 35.3119 7.61812 35.4402 8.66355L31.4701 9.15111ZM33.351 8.52679C32.296 8.68064 31.3209 7.93648 31.191 6.87827L35.1611 6.39071C35.0175 5.2211 33.9398 4.39861 32.7737 4.56866L33.351 8.52679ZM33.0771 6.69006C33.2029 7.71496 32.4872 8.65275 31.4654 8.80176L30.8882 4.84363C29.7589 5.00833 28.9678 6.04483 29.1069 7.17762L33.0771 6.69006ZM31.5396 11.3074C32.6856 11.1604 33.4977 10.1153 33.3569 8.96845L29.3867 9.45601C29.2593 8.4184 29.994 7.47278 31.0309 7.33984L31.5396 11.3074ZM27.6945 9.682C27.8414 10.8329 28.8938 11.6466 30.0446 11.499L29.536 7.5315C30.5772 7.39801 31.5294 8.13419 31.6623 9.17548L27.6945 9.682ZM28.7546 1.41124C27.6046 1.55867 26.7917 2.6101 26.9385 3.76012L30.9063 3.25359C31.0391 4.29409 30.3037 5.24538 29.2632 5.37877L28.7546 1.41124ZM32.5984 3.02757C32.447 1.88085 31.3968 1.0725 30.2495 1.21959L30.7581 5.18711C29.7201 5.32019 28.7699 4.58883 28.6329 3.55132L32.5984 3.02757ZM30.7569 3.49434C31.793 3.36482 32.7395 4.09569 32.8762 5.13088L28.9107 5.65464C29.0618 6.7988 30.1079 7.6066 31.2531 7.46345L30.7569 3.49434ZM33.1638 8.94591C33.03 7.90487 33.7656 6.95251 34.8067 6.81904L35.3154 10.7866C36.466 10.639 37.2791 9.58644 37.1312 8.43582L33.1638 8.94591ZM36.3754 2.55732C36.2275 1.40728 35.1755 0.594716 34.0255 0.742163L34.5341 4.70969C33.4936 4.84309 32.5418 4.10792 32.408 3.06741L36.3754 2.55732ZM36.1377 5.68379C35.751 7.0521 36.8074 8.40111 38.2285 8.35374L38.0952 4.35596C39.381 4.3131 40.3368 5.53364 39.9869 6.77162L36.1377 5.68379ZM9.92792 7.55772C9.14861 7.97456 8.71367 8.83472 8.83992 9.70946L12.7989 9.13806C12.9131 9.92948 12.5196 10.7077 11.8145 11.0849L9.92792 7.55772ZM68.073 14.6229C68.5153 13.6792 69.6354 13.268 70.5833 13.7014L68.9202 17.3393C69.9679 17.8182 71.2059 17.3637 71.6948 16.3207L68.073 14.6229ZM37.407 6.89217C36.9469 5.67441 37.82 4.36513 39.1211 4.32177L39.2543 8.31954C40.6923 8.27161 41.6573 6.82451 41.1489 5.47857L37.407 6.89217ZM13.8262 14.6131C13.3245 13.6982 13.6544 12.5499 14.5652 12.0409L16.5165 15.5327C17.5233 14.9701 17.8879 13.7009 17.3334 12.6897L13.8262 14.6131ZM74.215 10.9443C74.7048 9.8993 74.2596 8.65486 73.218 8.15776L71.4951 11.7677C70.5528 11.3179 70.15 10.192 70.5931 9.24655L74.215 10.9443ZM40.5676 3.93981C39.8518 2.04507 37.133 2.16174 36.5822 4.11084L40.4314 5.19867C39.9331 6.96214 37.4733 7.06771 36.8257 5.35341L40.5676 3.93981ZM14.4771 7.48112C13.9235 6.4717 12.6604 6.09614 11.6453 6.63912L13.5319 10.1663C12.6134 10.6575 11.4707 10.3177 10.9698 9.40445L14.4771 7.48112ZM64.7749 6.62037C64.4587 7.62841 63.3808 8.18487 62.3759 7.85894L63.6099 4.05405C62.4992 3.69381 61.3079 4.30885 60.9583 5.423L64.7749 6.62037ZM40.2167 6.61542C41.0155 6.59593 41.7412 7.07836 42.0323 7.8225L38.3074 9.28009C38.6292 10.1026 39.4313 10.6358 40.3142 10.6142L40.2167 6.61542ZM61.5252 10.0235C62.628 10.3592 63.7952 9.74307 64.1403 8.64315L60.3237 7.44578C60.6359 6.45061 61.692 5.89317 62.6898 6.19685L61.5252 10.0235ZM40.066 9.18669C39.5703 7.95633 40.456 6.60958 41.782 6.57724L41.8796 10.576C43.3452 10.5403 44.3241 9.05179 43.7762 7.69192L40.066 9.18669ZM15.4992 12.1763C15.9079 13.2663 17.1253 13.8158 18.2131 13.4014L16.7891 9.66342C17.7733 9.28849 18.8747 9.78566 19.2445 10.7718L15.4992 12.1763ZM58.3276 6.83646C57.9783 7.94979 58.6036 9.13436 59.7198 9.47409L60.8845 5.64739C61.8944 5.95477 62.4602 7.02653 62.1441 8.03382L58.3276 6.83646ZM39.5196 4.54071C38.7292 4.55827 38.0105 4.08453 37.715 3.35119L41.4252 1.85642C41.0987 1.04588 40.3043 0.522279 39.4307 0.541692L39.5196 4.54071ZM16.3975 8.62204C15.3176 9.03341 14.773 10.2399 15.1788 11.3218L18.9241 9.91733C19.2912 10.8962 18.7984 11.9878 17.8214 12.36L16.3975 8.62204ZM60.2027 7.19477C59.2034 6.8792 58.6483 5.81411 58.962 4.81422L62.7786 6.01157C63.1253 4.90643 62.5117 3.72923 61.4072 3.38044L60.2027 7.19477ZM39.4689 3.27473C39.2175 4.03971 38.5112 4.56311 37.7062 4.581L37.6173 0.581991C36.7275 0.601764 35.9468 1.18027 35.6689 2.02577L39.4689 3.27473ZM61.1261 5.49882C60.8082 6.49692 59.7425 7.04942 58.7436 6.73399L59.9481 2.91966C58.8441 2.57102 57.6661 3.18168 57.3148 4.28484L61.1261 5.49882ZM35.6439 6.7873C36.9565 6.75528 37.9052 8.0326 37.4952 9.27998L33.6952 8.03103C33.242 9.40972 34.2906 10.8215 35.7414 10.7861L35.6439 6.7873ZM66.3783 7.14799C66.729 6.04702 66.1244 4.86956 65.0253 4.51309L63.7912 8.31798C62.7968 7.99545 62.2497 6.93014 62.567 5.93401L66.3783 7.14799ZM46.3537 4.27178C46.2946 5.3353 45.3729 6.14249 44.3109 6.06079L44.6176 2.07257C43.4438 1.98228 42.4251 2.87443 42.3598 4.0499L46.3537 4.27178ZM17.5561 7.65672C16.8561 8.57379 17.1766 9.55022 17.3385 9.89144C17.5037 10.2398 18.0375 11.0633 19.1416 11.136L19.4045 7.14464C19.926 7.17899 20.2994 7.41343 20.5108 7.597C20.7252 7.78324 20.8644 7.99139 20.9526 8.17723C21.0403 8.36232 21.1168 8.60825 21.1232 8.90415C21.1295 9.19926 21.0639 9.6537 20.7357 10.0837L17.5561 7.65672ZM60.7612 11.6033C61.0809 10.5997 62.1559 10.0477 63.1578 10.3726L61.9238 14.1775C63.0311 14.5366 64.2193 13.9265 64.5726 12.8173L60.7612 11.6033ZM44.4398 5.1975C45.4703 5.27677 46.2485 6.16529 46.1911 7.19729L42.1973 6.97541C42.1339 8.11604 42.994 9.0981 44.133 9.18571L44.4398 5.1975ZM58.0821 8.77965C59.0845 9.09619 59.6394 10.1665 59.3203 11.1681L55.509 9.95411C55.1564 11.0611 55.7697 12.2441 56.8776 12.594L58.0821 8.77965ZM35.4311 8.11657C35.6627 7.32234 36.3816 6.7693 37.2087 6.74913L37.3063 10.7479C38.2204 10.7256 39.015 10.1144 39.2711 9.23656L35.4311 8.11657ZM30.994 5.39282C30.8559 4.34739 31.5956 3.38951 32.642 3.25871L33.1381 7.22782C34.2946 7.08326 35.1122 6.02454 34.9595 4.86906L30.994 5.39282ZM16.0103 7.12185C16.3911 8.10754 15.8945 9.21459 14.9051 9.58563L13.5006 5.84032C12.407 6.25041 11.8581 7.47399 12.2791 8.56345L16.0103 7.12185ZM49.117 8.09423C48.3463 9.34309 49.0615 10.9772 50.5019 11.2583L51.268 7.33234C52.5712 7.58662 53.2183 9.06515 52.5209 10.1951L49.117 8.09423ZM40.3745 8.40388C40.3092 9.5641 41.1985 10.5568 42.3589 10.619L42.5728 6.62473C43.6227 6.68097 44.4273 7.57916 44.3682 8.62888L40.3745 8.40388ZM60.4492 6.9058C59.343 6.56915 58.1728 7.18999 57.8314 8.29467L61.653 9.4759C61.3441 10.4754 60.2853 11.0371 59.2845 10.7325L60.4492 6.9058ZM37.6264 5.70373C36.7247 5.73979 35.9469 6.3478 35.6943 7.21405L39.5343 8.33404C39.3057 9.11779 38.602 9.6679 37.7862 9.70053L37.6264 5.70373ZM15.5189 6.45499C14.4197 6.88248 13.888 8.13117 14.3416 9.21989L18.0339 7.68143C18.4443 8.66647 17.9633 9.79624 16.9687 10.183L15.5189 6.45499ZM57.1526 10.4908C57.4638 9.48388 58.5351 8.92268 59.54 9.24004L58.3355 13.0544C59.4462 13.4051 60.6302 12.7848 60.9742 11.672L57.1526 10.4908ZM39.8135 9.61944C39.0042 9.65181 38.2633 9.16758 37.9682 8.41331L41.6932 6.95572C41.367 6.12206 40.5481 5.58685 39.6536 5.62263L39.8135 9.61944ZM32.5313 0.933717C31.3779 1.0816 30.5642 2.13873 30.7165 3.29164L34.682 2.76788C34.8198 3.811 34.0836 4.76745 33.04 4.90124L32.5313 0.933717ZM15.7064 11.5725C16.6832 11.2026 17.7754 11.6903 18.1518 12.6646L14.4206 14.1062C14.8366 15.183 16.0438 15.7221 17.1233 15.3132L15.7064 11.5725ZM54.6326 1.76412C53.7718 1.59196 52.8947 1.97338 52.4337 2.7204L55.8376 4.82124C55.4205 5.49711 54.6269 5.84221 53.8481 5.68644L54.6326 1.76412ZM42.9195 0.461017C41.7637 0.399096 40.7756 1.28417 40.7105 2.43989L44.7042 2.66488C44.6453 3.71053 43.7513 4.51131 42.7056 4.45529L42.9195 0.461017Z" fill="white" mask="url(#path-13-outside-2_32719_5344)"/>
<defs>
<filter id="filter0_d_32719_5344" x="5.84155" y="1.87769" width="84.2378" height="79.8518" filterUnits="userSpaceOnUse" color-interpolation-filters="sRGB">
<feFlood flood-opacity="0" result="BackgroundImageFix"/>
<feColorMatrix in="SourceAlpha" type="matrix" values="0 0 0 0 0 0 0 0 0 0 0 0 0 0 0 0 0 0 127 0" result="hardAlpha"/>
<feOffset dy="3"/>
<feGaussianBlur stdDeviation="5"/>
<feComposite in2="hardAlpha" operator="out"/>
<feColorMatrix type="matrix" values="0 0 0 0 0 0 0 0 0 0 0 0 0 0 0 0 0 0 0.1 0"/>
<feBlend mode="normal" in2="BackgroundImageFix" result="effect1_dropShadow_32719_5344"/>
<feBlend mode="normal" in="SourceGraphic" in2="effect1_dropShadow_32719_5344" result="shape"/>
</filter>
<filter id="filter1_d_32719_5344" x="27.3606" y="11.8777" width="14.198" height="11.1382" filterUnits="userSpaceOnUse" color-interpolation-filters="sRGB">
<feFlood flood-opacity="0" result="BackgroundImageFix"/>
<feColorMatrix in="SourceAlpha" type="matrix" values="0 0 0 0 0 0 0 0 0 0 0 0 0 0 0 0 0 0 127 0" result="hardAlpha"/>
<feOffset dy="1"/>
<feComposite in2="hardAlpha" operator="out"/>
<feColorMatrix type="matrix" values="0 0 0 0 0.572549 0 0 0 0 0.231373 0 0 0 0 0.235294 0 0 0 1 0"/>
<feBlend mode="normal" in2="BackgroundImageFix" result="effect1_dropShadow_32719_5344"/>
<feBlend mode="normal" in="SourceGraphic" in2="effect1_dropShadow_32719_5344" result="shape"/>
</filter>
<filter id="filter2_d_32719_5344" x="41.6072" y="11.8777" width="14.1965" height="11.1382" filterUnits="userSpaceOnUse" color-interpolation-filters="sRGB">
<feFlood flood-opacity="0" result="BackgroundImageFix"/>
<feColorMatrix in="SourceAlpha" type="matrix" values="0 0 0 0 0 0 0 0 0 0 0 0 0 0 0 0 0 0 127 0" result="hardAlpha"/>
<feOffset dy="1"/>
<feComposite in2="hardAlpha" operator="out"/>
<feColorMatrix type="matrix" values="0 0 0 0 0.572549 0 0 0 0 0.231373 0 0 0 0 0.235294 0 0 0 1 0"/>
<feBlend mode="normal" in2="BackgroundImageFix" result="effect1_dropShadow_32719_5344"/>
<feBlend mode="normal" in="SourceGraphic" in2="effect1_dropShadow_32719_5344" result="shape"/>
</filter>
</defs>
</svg>
