<svg width="20" height="20" viewBox="0 0 20 20" fill="none" xmlns="http://www.w3.org/2000/svg">
<path d="M3.98474 10.7393V13.0209C3.98474 13.6137 4.30361 14.1658 4.81379 14.45L8.7996 16.6666C9.2779 16.9346 9.85185 16.9346 10.3302 16.6666L14.316 14.45C14.8261 14.1658 15.145 13.6137 15.145 13.0209V10.7393L10.3302 13.4188C9.85185 13.6868 9.2779 13.6868 8.7996 13.4188L3.98474 10.7393ZM8.7996 3.52818L2.07952 7.2632C1.52948 7.57174 1.52948 8.3837 2.07952 8.69225L8.7996 12.4273C9.2779 12.6952 9.85185 12.6952 10.3302 12.4273L16.7393 8.86276V13.6614C16.7393 14.108 17.0981 14.4734 17.5365 14.4734C17.9749 14.4734 18.3337 14.108 18.3337 13.6614V8.45678C18.3337 8.15635 18.1742 7.88841 17.9191 7.74225L10.3302 3.52818C10.0946 3.40024 9.8318 3.33331 9.56488 3.33331C9.29795 3.33331 9.03512 3.40024 8.7996 3.52818Z" fill="#868E96"/>
</svg>
