<svg width="16" height="16" viewBox="0 0 16 16" fill="none" xmlns="http://www.w3.org/2000/svg">
<path d="M12.8334 8.00066C12.8334 7.09835 12.5808 6.21406 12.1043 5.44787C11.6277 4.68167 10.9462 4.06418 10.1369 3.66527C9.32753 3.26635 8.42269 3.10196 7.52476 3.19069C6.62682 3.27942 5.77166 3.61773 5.05605 4.16733H5.50005C5.67686 4.16733 5.84643 4.23756 5.97145 4.36259C6.09647 4.48761 6.16671 4.65718 6.16671 4.83399C6.16671 5.0108 6.09647 5.18037 5.97145 5.3054C5.84643 5.43042 5.67686 5.50066 5.50005 5.50066H3.50005C3.32323 5.50066 3.15367 5.43042 3.02864 5.3054C2.90362 5.18037 2.83338 5.0108 2.83338 4.83399V4.66732H2.81071L2.83338 4.63266V2.83399C2.83338 2.65718 2.90362 2.48761 3.02864 2.36259C3.15367 2.23756 3.32323 2.16733 3.50005 2.16733C3.67686 2.16733 3.84643 2.23756 3.97145 2.36259C4.09647 2.48761 4.16671 2.65718 4.16671 2.83399V3.16999C5.25606 2.30292 6.60775 1.83182 8.00005 1.83399C9.25184 1.83417 10.4739 2.2153 11.5039 2.92673C12.5339 3.63817 13.323 4.64621 13.7662 5.81689C14.2095 6.98756 14.2861 8.26542 13.9856 9.48063C13.6852 10.6958 13.0221 11.7908 12.0843 12.6201C11.1466 13.4494 9.97875 13.9736 8.73592 14.1232C7.49309 14.2727 6.23418 14.0405 5.12651 13.4573C4.01883 12.8742 3.11486 11.9678 2.53473 10.8585C1.9546 9.74928 1.72579 8.48974 1.87871 7.24732C1.92071 6.90599 2.22271 6.66732 2.56671 6.66732C2.96005 6.66732 3.24471 7.04666 3.19938 7.43799C3.12297 8.09186 3.18094 8.75444 3.36974 9.3851C3.55853 10.0158 3.87417 10.6012 4.29729 11.1055C4.72041 11.6099 5.2421 12.0224 5.83036 12.318C6.41862 12.6135 7.06104 12.7857 7.71824 12.8241C8.37543 12.8625 9.03354 12.7662 9.6522 12.5412C10.2709 12.3161 10.837 11.9671 11.316 11.5155C11.7949 11.0638 12.1766 10.5191 12.4375 9.9147C12.6984 9.3103 12.8332 8.65897 12.8334 8.00066ZM8.66671 5.33399C8.66671 5.15718 8.59647 4.98761 8.47145 4.86259C8.34643 4.73756 8.17686 4.66732 8.00005 4.66732C7.82324 4.66732 7.65367 4.73756 7.52864 4.86259C7.40362 4.98761 7.33338 5.15718 7.33338 5.33399V8.66733C7.33338 8.84414 7.40362 9.01371 7.52864 9.13873C7.65367 9.26375 7.82324 9.33399 8.00005 9.33399H10C10.1769 9.33399 10.3464 9.26375 10.4715 9.13873C10.5965 9.01371 10.6667 8.84414 10.6667 8.66733C10.6667 8.49051 10.5965 8.32094 10.4715 8.19592C10.3464 8.0709 10.1769 8.00066 10 8.00066H8.66671V5.33399Z" fill="#868E96"/>
</svg>
