<svg width="24" height="24" viewBox="0 0 24 24" fill="#A5B0BB" xmlns="http://www.w3.org/2000/svg">
<path d="M22 20.4375V9.8125C22 9.61844 21.9548 9.42705 21.868 9.25348C21.7812 9.07991 21.6552 8.92893 21.5 8.8125L12.75 2.25C12.5336 2.08772 12.2705 2 12 2C11.7295 2 11.4664 2.08772 11.25 2.25L2.5 8.8125C2.34476 8.92893 2.21875 9.07991 2.13197 9.25348C2.04518 9.42705 2 9.61844 2 9.8125V20.4375C2 20.769 2.1317 21.087 2.36612 21.3214C2.60054 21.5558 2.91848 21.6875 3.25 21.6875H8.25C8.58152 21.6875 8.89946 21.5558 9.13388 21.3214C9.3683 21.087 9.5 20.769 9.5 20.4375V16.6875C9.5 16.356 9.6317 16.038 9.86612 15.8036C10.1005 15.5692 10.4185 15.4375 10.75 15.4375H13.25C13.5815 15.4375 13.8995 15.5692 14.1339 15.8036C14.3683 16.038 14.5 16.356 14.5 16.6875V20.4375C14.5 20.769 14.6317 21.087 14.8661 21.3214C15.1005 21.5558 15.4185 21.6875 15.75 21.6875H20.75C21.0815 21.6875 21.3995 21.5558 21.6339 21.3214C21.8683 21.087 22 20.769 22 20.4375Z" fill="#0055B8"/>
</svg>
