<svg width="24" height="24" viewBox="0 0 24 24" fill="none" xmlns="http://www.w3.org/2000/svg">
<path d="M15.2402 9.57488C15.8844 9.95383 15.8844 10.8633 15.2402 11.2423L13.0233 12.5307L10.8064 13.8192C10.1622 14.1981 9.36639 13.7244 9.36639 12.9855V10.4086V7.83169C9.36639 7.09273 10.1622 6.63798 10.8064 6.99799L13.0233 8.28643L15.2402 9.57488Z" fill="#0055B8"/>
<path d="M4.26951 5.19782C4.87643 5.19782 5.36843 4.70582 5.36843 4.09891C5.36843 3.492 4.87643 3 4.26951 3C3.6626 3 3.17059 3.492 3.17059 4.09891C3.17059 4.70582 3.6626 5.19782 4.26951 5.19782Z" fill="#A958FF"/>
<path d="M12.0191 20.8864C10.958 20.8864 9.95379 20.7538 9.02536 20.4696C8.43798 20.2991 8.11586 19.6927 8.28639 19.1053C8.45692 18.518 9.06326 18.1959 9.65064 18.3664C10.3896 18.5748 11.1854 18.6885 12.038 18.6885C16.1497 18.6885 18.7645 16.4148 18.7645 12.4168C18.7645 11.8105 19.2571 11.3178 19.8635 11.3178C20.4698 11.3178 20.9624 11.8105 20.9624 12.4168C20.9435 17.6653 17.3813 20.8864 12.0191 20.8864ZM5.89898 18.3664C5.59582 18.3664 5.29265 18.2338 5.06528 17.9874C3.71999 16.4337 3 14.4063 3 12.0947V7.28198C3 6.67565 3.49263 6.18301 4.09895 6.18301C4.70528 6.18301 5.19793 6.67565 5.19793 7.28198V12.0947C5.19793 13.8758 5.72846 15.4105 6.71375 16.5474C7.11165 17.0022 7.07375 17.7032 6.61901 18.1011C6.41058 18.2906 6.14531 18.3664 5.89898 18.3664Z" fill="#A958FF"/>
<path d="M5.38701 22.1936C5.15965 22.1936 4.93229 22.1178 4.72388 21.9852C4.40178 21.7389 4.23125 21.3599 4.28809 20.9621L4.79967 17.1538C4.87546 16.5475 5.44386 16.1306 6.03121 16.2064C6.6375 16.2822 7.05433 16.8317 6.97854 17.438L6.73223 19.2758L8.72164 18.3664C9.27109 18.12 9.91527 18.3664 10.1805 18.9158C10.4268 19.4653 10.1805 20.1095 9.63109 20.3747L5.84174 22.0989C5.69017 22.1747 5.53859 22.1936 5.38701 22.1936Z" fill="#A958FF"/>
<path d="M19.9012 5.19782C20.5081 5.19782 21.0001 4.70582 21.0001 4.09891C21.0001 3.492 20.5081 3 19.9012 3C19.2943 3 18.8022 3.492 18.8022 4.09891C18.8022 4.70582 19.2943 5.19782 19.9012 5.19782Z" fill="#0055B8"/>
<path d="M19.9012 10.3893C19.2949 10.3893 18.8022 9.89669 18.8022 9.2904V7.31993C18.8022 6.71364 19.2949 6.22102 19.9012 6.22102C20.5075 6.22102 21.0001 6.71364 21.0001 7.31993V9.30934C20.9811 9.91564 20.5075 10.3893 19.9012 10.3893Z" fill="#0055B8"/>
</svg>
