<svg width="24" height="24" viewBox="0 0 24 24" fill="none" xmlns="http://www.w3.org/2000/svg">
<path d="M11.9885 21.9398C10.5439 21.9398 9.09923 21.6143 7.73601 20.9835C5.31475 19.8441 3.48356 17.8501 2.58831 15.3272C1.97791 13.6384 1.83548 11.8275 2.18137 10.0777C2.30345 9.46731 2.89351 9.06038 3.50391 9.18246C4.11431 9.30454 4.52122 9.89459 4.39914 10.505C4.13464 11.8682 4.25674 13.2721 4.72471 14.5743C5.4165 16.5073 6.84076 18.074 8.71266 18.9489C10.5846 19.8238 12.6803 19.9255 14.6335 19.2337C15.5695 18.9082 16.4037 18.3995 17.1362 17.7484C17.7466 17.2194 18.2553 16.5887 18.6622 15.8969C19.1709 15.022 19.5167 14.0657 19.6592 13.0687C19.8423 11.8072 19.7202 10.5253 19.2929 9.32488C18.7029 7.6768 17.6042 6.31357 16.1189 5.39797C15.5898 5.07243 15.4271 4.38064 15.7526 3.85162C16.0782 3.32261 16.7699 3.15984 17.299 3.48538C19.2115 4.68584 20.6358 6.43565 21.409 8.57206C21.9584 10.1184 22.1415 11.7868 21.8973 13.4146C21.7142 14.6964 21.2666 15.9172 20.6155 17.0566C20.0865 17.9519 19.415 18.7657 18.6418 19.4372C17.6855 20.2714 16.6072 20.9225 15.4067 21.3701C14.2673 21.7364 13.1279 21.9398 11.9885 21.9398Z" fill="#24C11B"/>
<path d="M11.9886 4.44162C12.6629 4.44162 13.2094 3.89505 13.2094 3.22082C13.2094 2.54659 12.6629 2.00002 11.9886 2.00002C11.3144 2.00002 10.7678 2.54659 10.7678 3.22082C10.7678 3.89505 11.3144 4.44162 11.9886 4.44162Z" fill="#24C11B"/>
<path d="M7.4508 5.35739C7.92276 5.35739 8.30538 4.97479 8.30538 4.50283C8.30538 4.03087 7.92276 3.64827 7.4508 3.64827C6.97884 3.64827 6.59625 4.03087 6.59625 4.50283C6.59625 4.97479 6.97884 5.35739 7.4508 5.35739Z" fill="#24C11B"/>
<path d="M4.35875 7.67683C4.60597 7.67683 4.80637 7.47642 4.80637 7.2292C4.80637 6.98198 4.60597 6.78157 4.35875 6.78157C4.11153 6.78157 3.91113 6.98198 3.91113 7.2292C3.91113 7.47642 4.11153 7.67683 4.35875 7.67683Z" fill="#24C11B"/>
<path d="M11.0931 15.8154C10.8896 15.795 10.7065 15.7136 10.5437 15.5712L7.14581 12.7227C6.69819 12.3361 6.63715 11.6443 7.02374 11.1967C7.41033 10.7287 8.10211 10.688 8.54974 11.0746L11.1338 13.2517L15.3252 8.51092C15.7118 8.06329 16.4036 8.0226 16.8512 8.40918C17.2988 8.79577 17.3395 9.48756 16.9529 9.93519L12.0697 15.4491C11.8052 15.734 11.439 15.8561 11.0931 15.8154Z" fill="#0055B8"/>
</svg>
