<svg width="55" height="20" viewBox="0 0 55 20" fill="none" xmlns="http://www.w3.org/2000/svg">
<path d="M13.5357 2.45587V12.463C13.5357 17.9534 9.42839 19.0685 6.66198 19.0685C3.4439 19.0685 0.282287 17.9111 0.282287 15.6387C0.282287 14.5801 1.04447 13.8462 2.17362 13.8462C3.5286 13.8462 4.30487 15.0882 6.3938 15.0882C8.01695 15.0882 9.17434 14.2555 9.17434 12.6464V11.7149C8.35571 12.4488 7.25478 12.8723 5.87157 12.8723C2.70996 12.8723 0 10.3317 0 6.37967C0 2.59701 2.70996 -3.05176e-05 5.87157 -3.05176e-05C7.43827 -3.05176e-05 8.63799 0.465744 9.47074 1.27026C9.8236 0.649231 10.5011 0.268143 11.3338 0.268143C12.6323 0.268143 13.5357 1.15735 13.5357 2.45587ZM9.17434 6.37967C9.17434 5.02469 8.14399 3.96611 6.76079 3.96611C5.37758 3.96611 4.34722 5.02469 4.34722 6.37967C4.34722 7.76287 5.37758 8.79322 6.76079 8.79322C8.14399 8.79322 9.17434 7.73464 9.17434 6.37967Z" fill="#0055B8"/>
<path d="M40.8325 2.27238C40.8325 3.59913 39.9433 4.36131 38.7013 4.36131C38.1085 4.36131 37.431 4.22017 36.697 4.22017C35.8361 4.22017 35.2574 4.72828 35.2574 5.54692V11.3056C35.2574 12.6041 34.3682 13.4933 33.0979 13.4933C31.7994 13.4933 30.9102 12.6041 30.9102 11.3056V2.45587C30.9102 1.15735 31.7994 0.268143 33.0696 0.268143C34.1 0.268143 34.8763 0.832717 35.1586 1.73604C35.8925 0.790374 36.9934 -3.05176e-05 38.4049 -3.05176e-05C39.7034 -3.05176e-05 40.8325 0.748031 40.8325 2.27238Z" fill="#0055B8"/>
<path d="M48.4403 9.41425C49.6541 9.41425 50.4727 8.44036 50.4727 6.95835V2.1877C50.4727 0.889175 51.362 -3.05176e-05 52.6323 -3.05176e-05C53.9308 -3.05176e-05 54.82 0.889175 54.82 2.1877V7.26887C54.82 11.0092 52.2794 13.4933 48.4403 13.4933C44.573 13.4933 42.0323 11.0092 42.0323 7.26887V2.1877C42.0323 0.889175 42.9216 -3.05176e-05 44.1919 -3.05176e-05C45.4904 -3.05176e-05 46.3796 0.889175 46.3796 2.1877V6.94424C46.3796 8.44036 47.1982 9.41425 48.4403 9.41425Z" fill="#0055B8"/>
<path d="M24.6294 4.98232C25.1092 5.26461 25.1092 5.9421 24.6294 6.22438L22.978 7.18416L21.3266 8.14394C20.8467 8.42623 20.2539 8.07337 20.2539 7.52291V5.60335V3.6838C20.2539 3.13334 20.8467 2.79459 21.3266 3.06277L22.978 4.02254L24.6294 4.98232Z" fill="#0055B8"/>
<path d="M16.4573 1.72181C16.9094 1.72181 17.2759 1.35531 17.2759 0.903217C17.2759 0.451121 16.9094 0.0846252 16.4573 0.0846252C16.0052 0.0846252 15.6387 0.451121 15.6387 0.903217C15.6387 1.35531 16.0052 1.72181 16.4573 1.72181Z" fill="#A958FF"/>
<path d="M22.231 13.4083C21.4406 13.4083 20.6925 13.3095 20.0009 13.0978C19.5634 12.9707 19.3234 12.5191 19.4505 12.0815C19.5775 11.644 20.0292 11.4041 20.4667 11.5311C21.0172 11.6863 21.61 11.771 22.2451 11.771C25.3079 11.771 27.2557 10.0773 27.2557 7.09917C27.2557 6.64751 27.6227 6.28054 28.0744 6.28054C28.526 6.28054 28.893 6.64751 28.893 7.09917C28.8789 11.0089 26.2254 13.4083 22.231 13.4083ZM17.6721 11.5311C17.4462 11.5311 17.2204 11.4323 17.051 11.2488C16.0489 10.0914 15.5126 8.58118 15.5126 6.85923V3.27418C15.5126 2.82252 15.8795 2.45554 16.3312 2.45554C16.7829 2.45554 17.1498 2.82252 17.1498 3.27418V6.85923C17.1498 8.18598 17.545 9.32924 18.279 10.1761C18.5754 10.5148 18.5472 11.0371 18.2084 11.3335C18.0532 11.4746 17.8555 11.5311 17.6721 11.5311Z" fill="#A958FF"/>
<path d="M17.2914 14.3821C17.122 14.3821 16.9526 14.3256 16.7974 14.2269C16.5575 14.0434 16.4304 13.7611 16.4728 13.4647L16.8539 10.6279C16.9103 10.1762 17.3337 9.86573 17.7712 9.92219C18.2229 9.97864 18.5334 10.3879 18.4769 10.8396L18.2934 12.2086L19.7754 11.5311C20.1847 11.3477 20.6645 11.5311 20.8621 11.9404C21.0456 12.3497 20.8621 12.8296 20.4528 13.0272L17.6301 14.3115C17.5172 14.368 17.4043 14.3821 17.2914 14.3821Z" fill="#A958FF"/>
<path d="M28.1008 1.72181C28.5529 1.72181 28.9194 1.35531 28.9194 0.903217C28.9194 0.451121 28.5529 0.0846252 28.1008 0.0846252C27.6487 0.0846252 27.2822 0.451121 27.2822 0.903217C27.2822 1.35531 27.6487 1.72181 28.1008 1.72181Z" fill="#0055B8"/>
<path d="M28.1038 5.5891C27.6521 5.5891 27.2852 5.22214 27.2852 4.7705V3.30268C27.2852 2.85105 27.6521 2.48409 28.1038 2.48409C28.5554 2.48409 28.9224 2.85105 28.9224 3.30268V4.78462C28.9082 5.23626 28.5554 5.5891 28.1038 5.5891Z" fill="#0055B8"/>
<path d="M36.2889 15.7235C36.2889 15.9211 36.4442 16.0763 36.6418 16.0763C36.8394 16.0763 36.9946 15.9211 36.9946 15.7235C36.9946 15.5259 36.8394 15.3706 36.6418 15.3706C36.4442 15.3847 36.2889 15.54 36.2889 15.7235Z" fill="#FFD600"/>
<path d="M23.6126 18.9413C23.528 18.9413 23.4856 18.9131 23.4292 18.8284L22.6247 17.7416H22.1025V18.786C22.1025 18.8707 22.0319 18.9413 21.9472 18.9413C21.8626 18.9413 21.792 18.8848 21.792 18.786V15.4411C21.792 15.3564 21.8484 15.2859 21.9472 15.2859C22.0319 15.2859 22.1025 15.3423 22.1025 15.4411V17.4594H22.6247L23.4009 16.4855C23.4433 16.415 23.4997 16.3867 23.5703 16.3867C23.6973 16.3867 23.7538 16.5137 23.6832 16.6125L22.8928 17.5864L23.7114 18.7014C23.8102 18.8143 23.7255 18.9413 23.6126 18.9413Z" fill="#002E6D"/>
<path d="M26.4211 17.53C26.4211 17.6571 26.3506 17.7417 26.2094 17.7417H24.29C24.3323 18.2781 24.7275 18.7015 25.2779 18.7015C25.8001 18.7015 25.9554 18.4333 26.0824 18.4333C26.153 18.4333 26.2094 18.4756 26.2094 18.5462C26.2094 18.7156 25.8143 18.9696 25.2779 18.9696C24.5158 18.9696 23.9795 18.3768 23.9795 17.6429C23.9795 16.909 24.4876 16.3163 25.2215 16.3163C25.9695 16.3304 26.4211 16.9514 26.4211 17.53ZM24.29 17.5159H26.0965C26.0401 16.9514 25.6731 16.6126 25.1933 16.6126C24.7134 16.6126 24.3464 17.0078 24.29 17.5159Z" fill="#002E6D"/>
<path d="M27.084 15.2859C27.1687 15.2859 27.2392 15.3565 27.2392 15.4412V18.772C27.2392 18.8567 27.1687 18.9272 27.084 18.9272C26.9993 18.9272 26.9287 18.8708 26.9287 18.772V15.427C26.9287 15.3424 26.9993 15.2859 27.084 15.2859Z" fill="#002E6D"/>
<path d="M30.3451 16.5422V18.7721C30.3451 18.8568 30.2887 18.9274 30.1899 18.9274C30.0911 18.9274 30.0346 18.8709 30.0346 18.7721V18.4193C29.8229 18.758 29.4842 18.9838 29.0467 18.9838C28.341 18.9838 27.8047 18.4052 27.8047 17.6572C27.8047 16.9232 28.3269 16.3305 29.0467 16.3305C29.4842 16.3305 29.8229 16.5422 30.0346 16.8809V16.5281C30.0346 16.4434 30.0911 16.3728 30.1899 16.3728C30.2887 16.3869 30.3451 16.4575 30.3451 16.5422ZM30.0346 17.6572C30.0346 17.0926 29.6395 16.6269 29.089 16.6269C28.5386 16.6269 28.1293 17.0785 28.1293 17.6572C28.1293 18.2217 28.5386 18.7016 29.089 18.7016C29.6395 18.6875 30.0346 18.2217 30.0346 17.6572Z" fill="#002E6D"/>
<path d="M31.8561 18.9839C31.2916 18.9839 30.8682 18.6734 30.8682 18.504C30.8682 18.4193 30.9246 18.377 30.9952 18.377C31.1363 18.377 31.3057 18.7157 31.8844 18.7157C32.2654 18.7157 32.4771 18.5323 32.4771 18.2782C32.4771 17.5866 30.9528 17.9254 30.9528 17.0221C30.9528 16.641 31.2916 16.3446 31.842 16.3446C32.3078 16.3446 32.6747 16.5563 32.6747 16.7257C32.6747 16.7963 32.6183 16.8386 32.5477 16.8386C32.4066 16.8386 32.2372 16.6128 31.8138 16.6128C31.4751 16.6128 31.2492 16.7822 31.2492 17.008C31.2492 17.6431 32.7735 17.3326 32.7735 18.2641C32.7735 18.6875 32.4348 18.9839 31.8561 18.9839Z" fill="#002E6D"/>
<path d="M35.9488 17.6572C35.9488 18.4334 35.3984 18.9838 34.735 18.9838C34.4104 18.9838 34.1423 18.8568 33.9588 18.631V19.6754C33.9588 19.8589 33.8318 20 33.6342 20C33.4366 20 33.3096 19.8589 33.3096 19.6754V16.6974C33.3096 16.514 33.4366 16.3728 33.6342 16.3728C33.8035 16.3728 33.9306 16.4857 33.9588 16.6551C34.1423 16.4434 34.3963 16.3305 34.735 16.3305C35.4266 16.3305 35.9488 16.895 35.9488 17.6572ZM35.2996 17.6572C35.2996 17.2479 35.0173 16.9232 34.6363 16.9232C34.2552 16.9232 33.9729 17.2479 33.9729 17.6572C33.9729 18.0523 34.2552 18.377 34.6363 18.377C35.0173 18.377 35.2996 18.0523 35.2996 17.6572Z" fill="#002E6D"/>
<path d="M36.6401 18.9273C36.4566 18.9273 36.3154 18.8003 36.3154 18.6027V16.6974C36.3154 16.5139 36.4425 16.3728 36.6259 16.3728C36.8235 16.3728 36.9505 16.4998 36.9505 16.6974V18.6027C36.9505 18.8003 36.8235 18.9273 36.6401 18.9273Z" fill="#002E6D"/>
<path d="M39.76 17.3889V18.6027C39.76 18.7861 39.6329 18.9273 39.4354 18.9273C39.2519 18.9273 39.1107 18.8003 39.1107 18.6027V17.4736C39.1107 17.1348 38.9131 16.9231 38.6026 16.9231C38.2921 16.9231 38.0946 17.1348 38.0946 17.4736V18.6027C38.0946 18.7861 37.9675 18.9273 37.7699 18.9273C37.5865 18.9273 37.4453 18.8003 37.4453 18.6027V16.6973C37.4453 16.5138 37.5723 16.3727 37.7558 16.3727C37.9393 16.3727 38.0522 16.4715 38.0804 16.6409C38.2357 16.4292 38.4897 16.3163 38.7861 16.3163C39.3789 16.3304 39.76 16.7255 39.76 17.3889Z" fill="#002E6D"/>
<path d="M41.6656 18.3063C41.8349 18.3063 41.9337 18.4192 41.9337 18.5463C41.9337 18.7862 41.6656 18.9838 41.2563 18.9838C40.7341 18.9838 40.4095 18.6733 40.4095 18.0523V16.9655H40.1836C40.0143 16.9655 39.9014 16.8526 39.9014 16.6833C39.9014 16.5139 40.0143 16.401 40.1836 16.401H40.4236V16.0623C40.4236 15.8647 40.5506 15.7376 40.7341 15.7376C40.9317 15.7376 41.0587 15.8647 41.0587 16.0623V16.401H41.5244C41.6938 16.401 41.8067 16.5139 41.8067 16.6833C41.8067 16.8526 41.6938 16.9655 41.5244 16.9655H41.0587V18.1228C41.0587 18.3063 41.1434 18.3769 41.2845 18.3769C41.4256 18.3769 41.5386 18.3063 41.6656 18.3063Z" fill="#002E6D"/>
<path d="M44.5871 16.6974V18.6028C44.5871 18.7863 44.46 18.9274 44.2624 18.9274C44.079 18.9274 43.9519 18.8004 43.9378 18.631C43.7543 18.8427 43.5003 18.9838 43.1757 18.9838C42.5124 18.9838 41.9619 18.4475 41.9619 17.6572C41.9619 16.895 42.47 16.3305 43.1757 16.3305C43.5003 16.3305 43.7685 16.4575 43.9378 16.6551C43.9519 16.4857 44.079 16.3728 44.2624 16.3728C44.4459 16.3728 44.5871 16.514 44.5871 16.6974ZM43.9378 17.643C43.9378 17.2337 43.6556 16.9232 43.2745 16.9232C42.8793 16.9232 42.597 17.2479 42.597 17.643C42.597 18.0523 42.8793 18.377 43.2745 18.377C43.6556 18.377 43.9378 18.0523 43.9378 17.643Z" fill="#002E6D"/>
<path d="M46.7875 16.6691C46.7875 16.8526 46.6605 16.9796 46.477 16.9796C46.3782 16.9796 46.2653 16.9514 46.1242 16.9514C45.8984 16.9514 45.7431 17.1207 45.7431 17.3889V18.6027C45.7431 18.7861 45.6161 18.9273 45.4185 18.9273C45.235 18.9273 45.0939 18.8003 45.0939 18.6027V16.6973C45.0939 16.5138 45.2209 16.3727 45.4044 16.3727C45.5879 16.3727 45.7149 16.4856 45.729 16.655C45.8701 16.4574 46.0818 16.3163 46.35 16.3163C46.5617 16.3304 46.7875 16.4433 46.7875 16.6691Z" fill="#002E6D"/>
<path d="M16.853 17.1492V18.8005C16.853 18.871 16.7965 18.9275 16.7259 18.9275C16.6554 18.9275 16.5989 18.871 16.5989 18.8005V18.7158C16.5001 18.8569 16.3449 18.9557 16.1332 18.9557C15.7803 18.9557 15.498 18.6593 15.498 18.2642C15.498 17.869 15.7662 17.5726 16.1332 17.5726C16.3308 17.5726 16.5001 17.6573 16.5989 17.7984V17.1351C16.5989 17.0645 16.6413 17.008 16.7259 17.008C16.8106 17.0363 16.853 17.0786 16.853 17.1492ZM16.613 18.2642C16.613 18.0101 16.4437 17.7984 16.1896 17.7984C15.9356 17.7984 15.7662 17.996 15.7662 18.2642C15.7662 18.5182 15.9497 18.7299 16.1896 18.7299C16.4296 18.7299 16.613 18.5182 16.613 18.2642Z" fill="#0055B8"/>
<path d="M18.5756 17.7277V18.8144C18.5756 18.885 18.5192 18.9414 18.4486 18.9414C18.378 18.9414 18.3216 18.885 18.3216 18.8144V18.7297C18.2228 18.8709 18.0675 18.9697 17.8558 18.9697C17.503 18.9697 17.2207 18.6733 17.2207 18.2781C17.2207 17.8829 17.4889 17.5865 17.8558 17.5865C18.0534 17.5865 18.2228 17.6712 18.3216 17.8124V17.7277C18.3216 17.6571 18.378 17.6006 18.4486 17.6006C18.5333 17.6006 18.5756 17.6571 18.5756 17.7277ZM18.3357 18.264C18.3357 18.0099 18.1663 17.7982 17.9123 17.7982C17.6582 17.7982 17.4889 17.9958 17.4889 18.264C17.4889 18.518 17.6723 18.7297 17.9123 18.7297C18.1522 18.7297 18.3357 18.518 18.3357 18.264Z" fill="#0055B8"/>
<path d="M19.8324 17.7136C19.8324 17.7842 19.79 17.8265 19.7194 17.8265C19.6771 17.8265 19.6206 17.8124 19.5501 17.8124C19.3948 17.8124 19.296 17.9394 19.296 18.137V18.8145C19.296 18.8851 19.2396 18.9415 19.169 18.9415C19.0984 18.9415 19.042 18.8992 19.042 18.8145V17.7277C19.042 17.6572 19.0984 17.6007 19.169 17.6007C19.2396 17.6007 19.296 17.6431 19.296 17.7277V17.7701C19.3666 17.6572 19.4795 17.5725 19.6348 17.5725C19.7194 17.5725 19.8324 17.6148 19.8324 17.7136Z" fill="#0055B8"/>
<path d="M20.3955 17.2337C20.3955 17.3183 20.3249 17.3889 20.2402 17.3889C20.1555 17.3889 20.085 17.3183 20.085 17.2337C20.085 17.149 20.1555 17.0784 20.2402 17.0784C20.3249 17.0784 20.3955 17.149 20.3955 17.2337ZM20.2402 18.9273C20.1697 18.9273 20.1132 18.885 20.1132 18.8003V17.7135C20.1132 17.643 20.1555 17.5865 20.2402 17.5865C20.3108 17.5865 20.3672 17.6288 20.3672 17.7135V18.8003C20.3672 18.885 20.3108 18.9273 20.2402 18.9273Z" fill="#0055B8"/>
</svg>
