<svg width="91" height="98" viewBox="0 0 91 98" fill="none" xmlns="http://www.w3.org/2000/svg">
<path d="M63.9404 67.7436C68.3041 59.866 63.5421 50.0499 54.6466 48.6514L51.2034 48.1115C51.1769 48.1115 51.1591 48.1026 51.1326 48.0938L42.5469 46.7484L34.0054 45.1286C33.9788 45.1197 33.9611 45.1197 33.9346 45.1197L30.5091 44.4736C21.6578 42.8007 13.8776 50.4482 15.338 59.3349C15.816 62.2381 16.4002 64.9555 17.0463 67.5135C17.3827 69.0005 17.8607 70.6557 18.4183 72.3728C20.8081 80.0735 23.6936 86.0746 25.8622 90.9517C25.9418 91.1376 26.0392 91.3234 26.1277 91.5093C27.5793 94.6427 30.5799 96.5368 33.8372 97.0591C37.0856 97.6698 40.5465 96.8909 42.9629 94.4302C43.1134 94.2886 43.2638 94.147 43.4054 93.9965C47.0787 90.1374 51.8142 85.4462 56.6558 78.9936C57.7534 77.5597 58.7624 76.1612 59.5768 74.8777C61.0549 72.6826 62.5154 70.3193 63.9404 67.7436Z" fill="#F89E1C"/>
<path d="M46.0435 82.162C49.2742 77.9045 45.0344 73.8683 39.1837 76.028C32.2089 78.5949 28.7393 76.3024 25.721 68.5487C23.2692 62.2554 17.9938 62.8485 16.0996 63.2999C16.4094 64.7869 16.7369 66.2208 17.091 67.6016C17.4273 69.0886 17.9053 70.7438 18.4629 72.461C20.8528 80.1616 23.7382 86.1628 25.9068 91.0398C25.9865 91.2257 26.0838 91.4116 26.1724 91.5974C27.624 94.7308 30.6246 96.625 33.8818 97.1472C37.1302 97.7579 40.5911 96.979 43.0075 94.5184C43.158 94.3767 43.3084 94.2351 43.4501 94.0847C44.6538 92.8278 45.9639 91.4735 47.3624 90.0042C44.9194 89.1545 42.9278 86.2778 46.0435 82.162Z" fill="#032663"/>
<path d="M33.6518 97.2544C30.2086 96.6613 27.3497 94.5724 25.9954 91.6515C25.9069 91.4745 25.8095 91.2886 25.7299 91.0939C25.4201 90.3946 25.0926 89.66 24.7474 88.9076C22.7736 84.5351 20.3218 79.0916 18.2771 72.4885C17.6841 70.6651 17.2238 69.0188 16.9052 67.6203C16.5511 66.2218 16.2148 64.7702 15.9138 63.3186L15.8784 63.1681L16.0289 63.1327C18.1532 62.6282 23.3666 62.1502 25.8361 68.4789C28.9164 76.4008 32.386 78.3392 39.0953 75.8608C42.6624 74.542 45.424 75.5333 46.5924 77.1C47.6545 78.5428 47.4863 80.4635 46.1409 82.2426C44.7778 84.0483 44.291 85.7654 44.7336 87.2347C45.0965 88.412 46.0878 89.3856 47.3801 89.8281L47.6191 89.9078L47.451 90.0848C46.672 90.908 45.9108 91.6958 45.185 92.4481C44.6185 93.0412 44.0698 93.6076 43.5387 94.1653C43.3971 94.3157 43.2466 94.4662 43.0961 94.599C40.8036 96.9357 37.3516 97.9448 33.8288 97.2721C33.7668 97.2809 33.7137 97.2721 33.6518 97.2544ZM33.8819 96.9711C37.2985 97.6173 40.6532 96.6436 42.8748 94.3866C43.0253 94.2449 43.1758 94.1033 43.3085 93.9617C43.8396 93.4041 44.3884 92.8376 44.9549 92.2446C45.6276 91.5453 46.3268 90.8106 47.0527 90.0583C45.7692 89.5449 44.8044 88.5447 44.4327 87.3409C44.0963 86.2522 44.0786 84.4466 45.8931 82.0656L46.017 82.1629L45.8931 82.0656C47.15 80.4015 47.3182 78.6224 46.3445 77.3036C45.2558 75.8343 42.627 74.9137 39.2193 76.1706C32.3861 78.6932 28.6862 76.6397 25.5529 68.6028C23.2338 62.6459 18.401 62.9468 16.2679 63.4159C16.56 64.8144 16.8786 66.2041 17.2238 67.5583C17.5425 68.9568 18.0027 70.5855 18.5869 72.4088C20.6316 78.9942 23.0745 84.4289 25.0395 88.7926C25.3758 89.5449 25.7034 90.2707 26.022 90.9788C26.1017 91.1647 26.1902 91.3417 26.2875 91.5276C27.6152 94.3954 30.4565 96.4401 33.8819 96.9711Z" fill="#10319B"/>
<path d="M33.979 97.3164C33.917 97.3076 33.8639 97.2987 33.8019 97.281C30.2791 96.7322 27.3494 94.6168 25.9774 91.6427C25.8889 91.4657 25.7915 91.2798 25.7119 91.0851C25.4021 90.3858 25.0746 89.6512 24.7294 88.8988C22.7555 84.5263 20.3037 79.0828 18.2591 72.4797C17.6661 70.6563 17.2058 69.01 16.8871 67.6115C16.2056 64.9207 15.6303 62.168 15.1789 59.4241C14.4708 55.1223 15.8515 50.9091 18.9672 47.8731C22.0651 44.846 26.2695 43.5891 30.5358 44.3857L33.9613 45.0319L34.0321 45.0407L42.5736 46.6605L51.1593 48.0059L51.2036 48.0148L54.6732 48.5547C58.9573 49.2274 62.4978 51.8385 64.4008 55.7242C66.3127 59.6365 66.1976 64.0621 64.091 67.877C62.7456 70.3023 61.2763 72.7098 59.7273 75.02C58.9573 76.2327 57.9748 77.6223 56.7976 79.1447C52.6552 84.6768 48.5128 88.9785 45.1936 92.4305C44.6182 93.0235 44.0694 93.5989 43.5384 94.1565C43.3967 94.307 43.2463 94.4574 43.0958 94.5902C40.821 96.9092 37.431 97.9094 33.979 97.3164ZM33.8639 96.9712C37.2805 97.6173 40.6351 96.6437 42.8568 94.3866C43.0073 94.245 43.1578 94.1034 43.2905 93.9618C43.8216 93.4041 44.3704 92.8288 44.9457 92.2358C48.2649 88.7838 52.3985 84.4909 56.532 78.9765C57.7004 77.4541 58.6829 76.0733 59.4441 74.8696C60.9931 72.5682 62.4535 70.1695 63.7989 67.7531C65.8613 64.0267 65.9675 59.7073 64.1087 55.8924C62.25 52.1041 58.7803 49.5549 54.6202 48.8999L51.177 48.36L51.1327 48.3511L42.5116 46.9969L33.9613 45.3771L33.8905 45.3682L30.465 44.7221C26.3226 43.9432 22.1979 45.1735 19.1796 48.121C16.1436 51.0862 14.7983 55.1932 15.4887 59.3975C15.9401 62.1237 16.5154 64.8765 17.1969 67.5584C17.5156 68.9569 17.9758 70.5855 18.56 72.4089C20.6047 78.9943 23.0477 84.4289 25.0126 88.7926C25.349 89.545 25.6765 90.2708 25.9951 90.9789C26.0748 91.1648 26.1633 91.3418 26.2606 91.5277C27.5972 94.3866 30.4385 96.4313 33.8639 96.9712Z" fill="#10319B"/>
<path d="M61.9574 54.7045C60.0809 52.4121 57.4698 50.7834 54.3187 50.2877L50.8579 49.7478C50.8313 49.7478 50.8136 49.739 50.7871 49.7301L42.1571 48.3936L33.5713 46.7561C33.5448 46.7472 33.5271 46.7472 33.5005 46.7472L30.0574 46.0922C25.2865 45.1805 22.1001 48.1723 19.1614 51.7216C18.4976 52.5183 18.7985 53.7574 19.7368 54.1203C27.6321 57.1475 45.8835 62.1573 61.9574 54.7045Z" fill="#E26907"/>
<path d="M24.5523 4.24331C26.5084 3.31393 28.7743 2.62353 31.2262 2.16326L31.0757 2.17211C31.0757 2.17211 39.1835 -0.633744 50.2122 1.26928C61.2054 3.17231 68.0032 8.42997 68.0475 8.46537C70.2692 9.75766 72.2165 11.1916 73.7831 12.7582C81.3421 20.3084 78.3858 33.2136 72.4909 44.8264C68.198 53.2794 54.4962 55.0939 41.5379 52.6421C28.5088 50.5886 16.2055 44.2777 15.0018 34.8776C13.3466 21.9547 14.8867 8.81942 24.5523 4.24331Z" fill="#F89E1C"/>
<path d="M35.5548 73.8315C34.7317 73.6898 33.9439 73.3446 33.2535 72.8047C31.793 71.654 31.0672 69.8749 31.3328 68.025L32.8375 57.4654C33.103 55.6244 34.2891 54.1108 36.0151 53.4115C37.7411 52.7211 39.6441 52.9867 41.1135 54.1374L49.5664 60.767C50.9826 61.8734 51.6996 63.5994 51.4871 65.3873C51.2747 67.1753 50.1772 68.68 48.5485 69.4235C48.4954 69.4501 48.4423 69.4678 48.3892 69.4943L48.3184 69.5209L38.3518 73.5305C37.4402 73.8934 36.4754 73.9908 35.5548 73.8315ZM38.697 53.739C37.8916 53.5974 37.0507 53.6859 36.2452 54.0046C34.7317 54.6153 33.6961 55.943 33.466 57.5539L31.9612 68.1135C31.7311 69.7245 32.3595 71.2911 33.643 72.3002C34.9264 73.3092 36.5904 73.5394 38.104 72.9375L48.1325 68.9013C48.1768 68.8836 48.221 68.8659 48.2741 68.8393C49.6992 68.1932 50.6551 66.8744 50.841 65.3077C51.0269 63.7498 50.3984 62.2363 49.1593 61.2715L40.7063 54.6419C40.1133 54.1639 39.4228 53.863 38.697 53.739Z" fill="#F89E1C"/>
<path d="M35.5014 73.9045C34.6871 73.7629 33.9081 73.4177 33.2177 72.8867C31.7661 71.7448 31.0492 69.9746 31.3147 68.1512L32.8548 57.3349C33.1115 55.5116 34.2887 54.0069 36.0059 53.3165C37.723 52.6261 39.6084 52.9005 41.06 54.0334L49.7254 60.8224C51.1239 61.9199 51.8408 63.6371 51.6284 65.3985C51.416 67.1687 50.3273 68.6646 48.7163 69.3992C48.6632 69.4258 48.6101 69.4435 48.557 69.4701L48.4951 69.4966L38.2807 73.6036C37.369 73.9665 36.4131 74.0639 35.5014 73.9045ZM38.7232 53.3253C37.8647 53.1748 36.9707 53.2634 36.121 53.6086C34.5189 54.2547 33.4125 55.6621 33.1646 57.3792L31.6245 68.1955C31.3767 69.9126 32.0494 71.5678 33.4125 72.6388C34.7756 73.7098 36.5458 73.9577 38.1479 73.3115L48.4243 69.178C48.4774 69.1603 48.5216 69.1337 48.5747 69.116C50.0883 68.4256 51.1062 67.0271 51.3009 65.3631C51.4957 63.7079 50.8318 62.1058 49.5218 61.0702L40.8564 54.2813C40.2191 53.7767 39.4845 53.4581 38.7232 53.3253Z" fill="#10319B"/>
<path d="M24.5439 4.28771C25.5707 3.80089 26.6859 3.37602 27.8632 3.02197C18.3657 7.6866 16.8433 20.7688 18.4897 33.6297C19.6934 43.0475 31.9879 49.3673 45.017 51.4208C52.3901 52.8104 59.9933 52.8193 65.9768 51.0136C59.6658 54.1293 50.4162 54.4656 41.5119 52.7839C28.4828 50.7304 16.1883 44.4106 14.9846 34.9928C13.3294 22.0434 14.8783 8.88152 24.5439 4.28771Z" fill="#F5851F"/>
<path d="M26.6677 15.9087C21.5782 13.8995 22.6846 5.41997 22.7377 5.06592L23.3662 5.15443C23.3573 5.23409 22.2775 13.4923 26.8978 15.3157L26.6677 15.9087Z" fill="#F89E1C"/>
<path d="M66.6753 23.1505L66.6045 22.5133C72.1188 21.9025 73.898 13.4141 73.9157 13.3345L74.5441 13.4584C74.4644 13.8301 72.6499 22.4867 66.6753 23.1505Z" fill="#F4B821"/>
<path d="M49.3008 8.80146C46.3444 8.28809 43.7598 6.84533 42.441 4.93345C42.3968 4.87149 42.3525 4.80954 42.3171 4.74758L39.998 1.01234L40.8124 0.507812L43.1314 4.24305C43.1668 4.29616 43.1934 4.34042 43.2376 4.39353C44.5211 6.24344 47.1764 7.61539 50.1859 7.96059C53.1068 8.29694 55.8065 7.64195 57.4085 6.19919L59.9223 3.93326L60.5596 4.64136L58.0281 6.91614C56.2225 8.53592 53.2484 9.28828 50.0531 8.91653C49.8053 8.88112 49.5486 8.84572 49.3008 8.80146Z" fill="#F4B821"/>
<path d="M48.699 12.2076C44.7779 11.5261 41.4586 9.5965 39.5999 6.90571C39.5291 6.80835 39.4671 6.71099 39.4051 6.61362L39.3343 6.49856L36.1567 1.37366L36.971 0.869141L40.2195 6.10025C40.2726 6.18876 40.3345 6.27727 40.3965 6.36579C42.1136 8.84414 45.2027 10.6321 48.876 11.2694C49.1769 11.3225 49.4779 11.3668 49.7877 11.4022C53.7354 11.8624 57.3555 10.9065 59.7188 8.77333L63.3125 5.54262L63.9498 6.25072L60.3561 9.48144C57.7893 11.7916 53.8947 12.8361 49.6726 12.3493C49.3363 12.305 49.0176 12.2607 48.699 12.2076Z" fill="#F4B821"/>
<path d="M72.8804 14.9621C71.3137 13.3866 69.3664 11.935 67.1448 10.6427C67.1005 10.6073 60.3824 4.73888 49.3891 2.83585C42.1576 1.58782 35.6253 1.69403 31.9697 1.92417C34.3684 1.26032 41.3432 -0.27095 50.2034 1.26032C61.1967 3.16335 67.9944 8.45641 68.0387 8.49182C70.2604 9.78411 72.2077 11.2357 73.7744 12.8112C80.5102 19.5913 78.8638 30.6731 74.2346 41.2947C78.1557 31.3547 79.1648 21.2908 72.8804 14.9621Z" fill="#F4B821"/>
<path d="M67.2598 22.812L67.251 22.4934C72.3493 22.3252 74.394 13.6598 74.4117 13.5713L74.7214 13.6421C74.6418 14.005 72.5972 22.635 67.2598 22.812Z" fill="#10319B"/>
<path d="M60.019 9.0934L63.6125 5.86269C62.6389 5.34931 61.5059 4.80053 60.2225 4.26945L57.7088 6.53538C56.0093 8.06665 53.168 8.77476 50.1143 8.42071C46.981 8.0578 44.1928 6.61504 42.8297 4.65006C42.7855 4.59695 42.7501 4.53499 42.7147 4.47303L40.3956 0.737793C38.9706 0.808603 37.6783 0.941372 36.5542 1.1007L39.7318 6.22559L39.8026 6.34065C39.8646 6.43802 39.9265 6.52653 39.9885 6.6239C41.7764 9.20847 45.016 11.0761 48.7778 11.7222C49.0876 11.7753 49.3974 11.8196 49.716 11.855C53.7965 12.3153 57.5583 11.3151 60.019 9.0934Z" fill="#032663"/>
<path d="M27.1991 15.8825C22.2335 13.9175 23.1541 5.19011 23.1984 4.81836L23.517 4.85376C23.5081 4.94228 22.5787 13.7139 27.323 15.5815L27.1991 15.8825Z" fill="#10319B"/>
<path d="M41.4761 52.508C35.0323 51.4901 28.7656 49.4897 23.7823 46.6219C22.7733 45.0818 22.0829 43.1965 21.8528 41.1164C21.2597 35.7614 20.8437 28.344 21.5872 20.2186C21.9501 16.2178 24.7914 13.0313 28.1194 12.8189C32.6513 12.5268 39.573 12.4825 47.5746 13.7306V13.7217C47.7959 13.7571 48.0171 13.8014 48.2384 13.8456C48.4597 13.881 48.681 13.9165 48.9111 13.9519V13.9607C56.8596 15.4654 63.2413 17.6074 67.4191 19.4042C70.4817 20.7231 72.2077 24.9097 71.2075 28.7955C69.1806 36.6997 66.295 43.5505 63.9406 48.3922C63.0378 50.2421 61.7986 51.7557 60.3647 52.8621C54.6468 53.9419 47.9729 53.7384 41.4761 52.508Z" fill="#032663"/>
<path d="M64.5161 51.5326L63.1353 52.0017C63.4893 51.3467 64.0824 50.2314 64.4895 49.4525C65.5694 47.3902 66.782 45.0534 67.7822 43.5133C69.3843 41.0261 72.9071 39.5656 75.173 38.9106L74.5711 40.2206C72.4645 40.8314 70.0216 41.805 68.5788 44.0355C67.6052 45.5403 66.4014 47.8504 65.3304 49.8951C64.9321 50.6828 64.8701 50.8776 64.5161 51.5326Z" fill="#F4B821"/>
<path d="M20.6044 44.1543C20.5424 44.1455 20.4805 44.0924 20.4716 44.0216C20.3743 43.3666 20.268 42.6496 20.1618 41.9238C19.8432 39.7021 19.4803 37.1795 19.0554 35.3473C18.427 32.6919 16.3912 30.9305 14.4882 29.5586C14.4173 29.5055 14.3996 29.4081 14.4528 29.3373C14.5059 29.2665 14.6032 29.2488 14.674 29.3019C16.6302 30.7092 18.7191 32.5237 19.3652 35.2765C19.7989 37.1176 20.1618 39.649 20.4805 41.8795C20.5867 42.6142 20.6841 43.3223 20.7903 43.9773C20.7991 44.0658 20.746 44.1455 20.6575 44.1632C20.6398 44.1632 20.6221 44.1632 20.6044 44.1543Z" fill="#F89E1C"/>
<path d="M74.6865 40.1992C74.0315 41.757 73.3146 43.306 72.5357 44.8373C70.9424 47.9883 68.0657 50.2277 64.4102 51.6705C65.7024 49.2629 66.9151 46.5367 68.2693 44.439C69.8626 41.996 72.6861 40.7834 74.6865 40.1992Z" fill="#032663"/>
<path d="M71.5615 44.8806C72.0749 44.0043 72.5617 43.1104 73.0308 42.2075C71.9421 42.6678 70.7914 43.4024 69.9506 44.562C69.0654 45.7923 68.2068 47.3501 67.3306 48.8283C69.1008 47.9077 70.5613 46.6066 71.5615 44.8806Z" fill="#0E51A0"/>
<path d="M64.6133 51.7048L64.3301 51.5543C64.7726 50.7223 65.224 49.8372 65.6489 48.9875C66.4632 47.3677 67.3041 45.6948 68.1981 44.314C69.8002 41.8445 72.6149 40.6053 74.7038 40.0034L74.7923 40.3132C72.7565 40.8974 70.0126 42.1012 68.4636 44.491C67.5785 45.8541 66.7465 47.5182 65.9322 49.1291C65.4985 49.9877 65.0559 50.8728 64.6133 51.7048Z" fill="#10319B"/>
<path d="M14.4531 29.7803C14.5505 31.4709 14.701 33.1703 14.9134 34.8698C15.356 38.3749 17.3121 41.4463 20.2684 44.0397C19.8613 41.3401 19.6311 38.366 19.0647 35.9319C18.392 33.0907 16.1349 31.0018 14.4531 29.7803Z" fill="#032663"/>
<path d="M42.3615 52.9254C42.0694 52.8723 41.7862 52.8281 41.5029 52.775C30.0228 50.9693 16.1617 45.1983 14.8429 34.8865C13.6568 25.6547 13.3382 9.37715 24.4819 4.10179L24.5527 4.24341L24.4819 4.10179C26.4292 3.18126 30.9611 2.04829 31.1558 2.00403C31.2178 1.97748 39.2901 -0.775268 50.2392 1.11891C61.2148 3.02193 68.0833 8.28844 68.1453 8.34155C70.4201 9.66039 72.3585 11.112 73.8986 12.6433C82.626 21.3529 76.855 36.5771 72.6329 44.8796C68.0391 53.9168 53.6558 54.8816 42.3615 52.9254ZM41.5561 52.4563C41.8393 52.5094 42.1225 52.5625 42.4146 52.6068C53.6115 54.5452 67.8355 53.6159 72.3496 44.7292C76.5275 36.5063 82.2542 21.4326 73.6685 12.8646C72.1549 11.351 70.2342 9.91708 67.9683 8.59824C67.8798 8.53628 61.082 3.30517 50.1861 1.41985C39.3255 -0.456622 31.3328 2.26957 31.2532 2.29613C31.1912 2.31383 26.5443 3.4645 24.6235 4.37618C13.6656 9.56303 13.9931 25.6901 15.1615 34.8334C16.4627 44.977 30.191 50.6684 41.5561 52.4563Z" fill="#10319B"/>
<path d="M41.7861 51.155C36.2629 50.2876 30.8724 48.6413 26.4468 46.3222C25.7564 45.9593 25.1899 45.4106 24.8359 44.7202C24.2428 43.5606 23.8356 42.2418 23.6675 40.8167C23.101 35.9928 22.685 29.3012 23.3488 21.9901C23.6763 18.3876 26.2786 15.5198 29.3411 15.3428C33.519 15.0949 39.8919 15.0772 47.265 16.2367V16.2279C47.4686 16.2633 47.6721 16.2987 47.8757 16.3429C48.0793 16.3784 48.2829 16.4049 48.4953 16.4403V16.4492C55.8242 17.83 61.8254 19.9985 65.6757 21.6272C68.4992 22.8221 69.9951 26.398 69.0923 29.9031C67.2512 37.0195 64.6223 43.18 62.4626 47.5349C61.8342 48.8095 61.0199 49.8982 60.0816 50.7921C59.5417 51.2967 58.8601 51.6153 58.1255 51.7215C53.1068 52.4562 47.3801 52.2083 41.7861 51.155Z" fill="#FCE8CA"/>
<path d="M31.2105 34.8858C31.1442 34.8703 31.078 34.8549 31.0117 34.8245C30.5404 34.6191 30.3189 34.0648 30.5171 33.5885C31.5224 31.1624 33.8466 29.9041 36.4379 30.3802C38.9629 30.8409 40.8718 33.0065 40.9853 35.5163C41.008 36.0391 40.6111 36.469 40.0959 36.4873C39.5808 36.5056 39.1534 36.099 39.1307 35.5762C39.0701 34.1719 38.0156 32.5731 36.1237 32.222C34.3864 31.902 32.8933 32.704 32.2255 34.3189C32.0494 34.7357 31.6227 34.9563 31.2105 34.8858Z" fill="#0E51A0"/>
<path d="M49.8668 38.1731C49.8005 38.1576 49.7343 38.1422 49.668 38.1118C49.1967 37.9064 48.9752 37.3521 49.1733 36.8758C50.1787 34.4497 52.5028 33.1914 55.0941 33.6676C57.6191 34.1282 59.528 36.2939 59.6415 38.8036C59.6642 39.3265 59.2673 39.7638 58.7522 39.7821C58.237 39.8004 57.8022 39.3937 57.7795 38.8709C57.7189 37.4667 56.6645 35.8678 54.7726 35.5167C53.0352 35.1968 51.5422 35.9987 50.8744 37.6137C50.7056 38.0305 50.2864 38.2511 49.8668 38.1731Z" fill="#0E51A0"/>
<path d="M46.6048 40.192C46.9812 40.2708 47.1698 40.9862 46.9737 41.6877C46.3168 43.9157 44.9696 45.3672 43.6634 45.1422C42.3572 44.9172 41.494 43.0317 41.5151 40.6933C41.5209 39.9687 41.8988 39.3553 42.2967 39.4037L46.6048 40.192Z" fill="#032663"/>
<path d="M34.2685 26.4158C34.3128 26.4161 34.3644 26.4015 34.4087 26.3719C35.0512 25.9804 35.8188 25.9178 36.5196 26.2054C36.6745 26.2659 36.8443 26.1924 36.9035 26.0435C36.9627 25.8873 36.8891 25.7153 36.7415 25.6548C35.871 25.2991 34.9115 25.3755 34.1066 25.863C33.9663 25.9516 33.9219 26.1304 34.0103 26.2726C34.0545 26.3698 34.1578 26.4226 34.2685 26.4158Z" fill="#032663"/>
<path d="M57.6507 30.5533C57.6065 30.5382 57.5696 30.5082 57.5328 30.4633C57.0613 29.8728 56.361 29.5412 55.6089 29.5663C55.4467 29.5727 55.3067 29.4454 55.2994 29.2742C55.2922 29.1106 55.4176 28.97 55.5872 28.9636C56.5236 28.9322 57.4007 29.3394 57.9901 30.0794C58.0933 30.2065 58.0711 30.3923 57.9457 30.4957C57.8645 30.577 57.7465 30.5911 57.6507 30.5533Z" fill="#032663"/>
<path d="M40.4937 52.4113C34.1384 51.3137 28.3585 49.331 23.7205 46.6579L23.6851 46.6402L23.6674 46.6048C22.6141 44.9939 21.9414 43.0643 21.7201 41.0197C21.1713 36.0895 20.6845 28.4597 21.4634 20.0421C21.8352 15.9528 24.7118 12.6956 28.1461 12.4743C32.7665 12.1733 53.0182 12.4654 67.6405 19.3075C70.7739 20.7768 72.3848 24.8041 71.3935 28.6721C69.2957 36.8507 66.2686 43.8875 64.1089 48.3397C63.2237 50.1542 61.9757 51.7209 60.4887 52.8804L60.4622 52.9069L60.4267 52.9158C54.9301 53.9602 48.2031 53.8363 41.4938 52.5706C41.1398 52.5263 40.8123 52.4732 40.4937 52.4113ZM41.5204 52.2608C48.1854 53.5177 54.8504 53.6416 60.3028 52.6148C61.7367 51.4907 62.9493 49.9683 63.8079 48.2158C65.9676 43.7724 68.9859 36.7622 71.0748 28.6102C72.0308 24.8838 70.4907 21.0069 67.4989 19.6084C52.9386 12.8018 32.7665 12.5097 28.1638 12.8018C24.88 13.0142 22.1361 16.1387 21.7732 20.0775C21.0031 28.4597 21.4899 36.0806 22.0299 40.9843C22.2512 42.9669 22.8973 44.8434 23.9064 46.4012C28.6772 49.1451 34.9262 51.2252 41.5204 52.2608Z" fill="#10319B"/>
<path d="M20.1621 43.9061C20.0205 43.0033 19.9054 42.0651 19.7904 41.1534C19.5602 39.3743 19.3301 37.5332 18.9495 35.9311C18.2945 33.1607 16.1171 31.1072 14.3999 29.868L14.5858 29.6113C16.3472 30.8771 18.5866 32.9925 19.2593 35.8603C19.6399 37.4801 19.8789 39.33 20.1002 41.118C20.2152 42.0208 20.3303 42.9591 20.4719 43.8619L20.1621 43.9061Z" fill="#10319B"/>
<path d="M15.7898 48.0398C14.4532 44.5347 10.6826 36.5243 2.25617 29.9035C1.433 29.2574 0.238089 29.9035 0.317751 30.9479L0.379684 31.7623C0.990422 40.0117 6.67294 47.013 14.6214 49.3144C15.3826 49.5268 16.073 48.7833 15.7898 48.0398Z" fill="#F5851F"/>
<path d="M14.6216 49.3053C15.3828 49.5265 16.0732 48.783 15.79 48.0395C14.6127 44.9593 11.5502 38.3916 5.10645 32.3462C10.0986 38.3828 12.5327 46.1807 13.2585 48.8538C13.701 49.022 14.1525 49.1725 14.6216 49.3053Z" fill="#F89E1C"/>
<path d="M5.75273 33.6652C6.04482 33.4085 6.27494 33.3112 6.31034 33.2935L6.56702 33.8776L6.44311 33.5855L6.57588 33.8776C6.54048 33.8953 3.09733 35.763 6.09792 44.1097L5.15968 43.2777C2.86719 36.6481 4.75253 34.5326 5.75273 33.6652Z" fill="#F89E1C"/>
<path d="M4.21214 31.532C4.21214 31.532 0.600818 32.4702 1.99932 38.02C1.99932 38.02 -0.541006 31.8064 0.839794 29.9387C0.848645 29.9387 1.74263 28.735 4.21214 31.532Z" fill="#032663"/>
<path d="M0.61856 29.8233C0.698221 29.7525 0.777874 29.6994 0.875238 29.6463C1.36206 29.3896 1.91971 29.4427 2.35342 29.7791C10.9126 36.5061 14.701 44.7555 15.9401 47.9862C16.0906 48.3845 16.0109 48.827 15.7189 49.1457C15.4268 49.4643 14.993 49.5883 14.577 49.4643C6.602 47.1542 0.839842 40.0466 0.220252 31.7706L0.158276 30.9563C0.122871 30.5137 0.299914 30.0977 0.61856 29.8233ZM15.4091 48.9952C15.4356 48.9775 15.4621 48.951 15.4799 48.9244C15.6923 48.6943 15.7542 48.3845 15.6392 48.0924C14.4177 44.8882 10.6559 36.7008 2.15867 30.0181C1.83118 29.7614 1.39748 29.726 1.02573 29.9207C0.653973 30.1154 0.441525 30.5049 0.47693 30.9209L0.538907 31.7352C1.14079 39.8784 6.82328 46.8798 14.6655 49.1457C14.9311 49.2342 15.2055 49.1722 15.4091 48.9952Z" fill="#10319B"/>
<path d="M3.07882 32.0447C3.6453 31.5579 4.14985 31.3809 4.16756 31.3809L4.26488 31.6818C4.12326 31.7261 0.848308 32.8679 2.06978 38.0193L1.75999 38.0901C0.945672 34.647 2.10518 32.8856 3.07882 32.0447Z" fill="#10319B"/>
<path d="M5.53993 33.6212C5.82317 33.3734 6.04441 33.276 6.07982 33.2583L6.20377 33.5504C6.16837 33.5681 2.68094 35.179 5.30092 43.2248L4.99999 43.3222C2.91109 36.8962 4.58399 34.4444 5.53993 33.6212Z" fill="#10319B"/>
<path d="M67.9591 55.4223C71.0482 53.298 78.7046 48.8546 89.4058 48.1908C90.4503 48.1288 91.0698 49.3414 90.4148 50.1469L89.9014 50.7842C84.7057 57.2279 76.0581 59.7594 68.207 57.1306C67.4458 56.8827 67.3041 55.8737 67.9591 55.4223Z" fill="#F89E1C"/>
<path d="M69.1899 55.9779C69.2076 55.9779 69.2165 55.9867 69.2342 55.9867C72.1728 56.8099 75.3415 55.6681 77.1118 53.1809C77.696 52.3577 78.1651 51.4283 78.3776 50.4104C73.7483 51.6319 70.4822 53.765 68.9775 54.898C68.5792 55.1989 68.6942 55.8362 69.1899 55.9779Z" fill="#F4B821"/>
<path d="M74.0752 58.0867C80.0852 58.1664 85.9625 55.5641 89.9013 50.7844L90.4147 50.156C90.4766 50.0763 90.5209 49.9966 90.5651 49.917L90.0783 48.3857C89.8924 48.2795 89.6711 48.2264 89.4233 48.2441C88.3435 48.3149 87.3079 48.4211 86.29 48.5627C85.4668 54.0063 77.8812 56.9449 74.0752 58.0867Z" fill="#F5851F"/>
<path d="M84.4225 49.3679C84.7589 50.6602 84.6792 53.6431 79.1649 57.6793L78.0762 57.7501C85.7591 52.4393 83.6259 49.0582 83.5994 49.0316L84.1304 48.6687C84.157 48.6953 84.3074 48.9431 84.4225 49.3679Z" fill="#F89E1C"/>
<path d="M86.8657 48.4135C86.8657 48.4135 89.3086 51.237 84.998 55.0077C84.998 55.0077 90.6186 51.3432 90.539 49.0153C90.539 49.0242 90.4859 47.5283 86.8657 48.4135Z" fill="#032663"/>
<path d="M90.7959 49.0582C90.9021 49.4742 90.8136 49.9079 90.5392 50.2531L90.0259 50.8904C84.8125 57.3519 76.0231 59.9187 68.1543 57.2899C67.7472 57.1571 67.4551 56.8031 67.3931 56.3782C67.3312 55.9534 67.517 55.5374 67.8711 55.2984C70.7212 53.3422 78.528 48.713 89.3974 48.0403C89.9373 48.0049 90.433 48.2882 90.6897 48.775C90.734 48.8635 90.7693 48.9609 90.7959 49.0582ZM67.7295 56.4313C67.8003 56.6969 67.9862 56.9005 68.2517 56.989C75.9966 59.5735 84.6443 57.0509 89.7691 50.6869L90.2825 50.0496C90.5481 49.7221 90.5923 49.2884 90.3976 48.9078C90.2029 48.536 89.8311 48.3236 89.4151 48.3501C78.6254 49.0228 70.8805 53.6166 68.0481 55.5551C67.7914 55.7321 67.6675 56.0153 67.7118 56.3251C67.7118 56.3605 67.7206 56.3959 67.7295 56.4313Z" fill="#10319B"/>
<path d="M87.5117 49.4821C87.8392 50.7301 87.7861 52.8367 85.1573 55.2089L84.9448 54.9699C88.8836 51.4205 86.8302 48.6235 86.7417 48.5085L86.9983 48.3137C86.9983 48.3314 87.317 48.7563 87.5117 49.4821Z" fill="#10319B"/>
<path d="M84.5908 49.3834C84.9094 50.6049 84.8917 53.5789 79.5101 57.6771L79.3154 57.4204C86.069 52.269 84.0951 48.9763 84.0774 48.9409L84.3429 48.7727C84.3695 48.8081 84.4934 49.0205 84.5908 49.3834Z" fill="#10319B"/>
<path d="M36.5638 71.5123C35.9354 71.4061 35.3334 71.1405 34.8024 70.7245C33.6871 69.8482 33.1384 68.4851 33.3331 67.0778L34.4572 59.1736C34.6608 57.7662 35.5636 56.6067 36.8824 56.0756C38.2013 55.5446 39.6617 55.7481 40.777 56.6333L47.1057 61.5988C48.1855 62.4486 48.7343 63.7674 48.575 65.1305C48.4157 66.4936 47.5748 67.6443 46.3268 68.2196C46.2914 68.2373 46.2471 68.255 46.2028 68.2727L46.1497 68.2904L38.6881 71.291C37.9977 71.5565 37.2631 71.6362 36.5638 71.5123ZM38.9094 56.474C38.3164 56.3677 37.7056 56.4385 37.1214 56.6687C36.015 57.1112 35.2538 58.0849 35.0856 59.2621L33.9615 67.1663C33.7933 68.3435 34.2536 69.4853 35.1919 70.22C36.1301 70.9547 37.3516 71.1317 38.458 70.6803L45.9638 67.662C45.9993 67.6443 46.0347 67.6354 46.0612 67.6177C47.1057 67.1397 47.8049 66.1838 47.9377 65.042C48.0705 63.9002 47.619 62.8026 46.7073 62.0945L40.3787 57.1289C39.945 56.7837 39.4405 56.5625 38.9094 56.474Z" fill="#F89E1C"/>
<path d="M46.0257 67.8845C46.0611 67.8668 46.0965 67.8491 46.1319 67.8403C48.4952 66.7604 48.9112 63.5297 46.8312 61.9011L40.6441 57.0506C38.5021 55.3688 35.351 56.6434 34.9616 59.3342L33.864 67.0614C33.4834 69.7522 36.1565 71.8499 38.6791 70.8409L45.9726 67.9111C45.9991 67.9022 46.0168 67.8934 46.0257 67.8845Z" fill="#032663"/>
<path d="M43.3794 66.2129C43.3971 66.2041 43.4236 66.1952 43.4413 66.1864C44.7779 65.5756 45.008 63.7611 43.8396 62.8406L40.3522 60.1144C39.1485 59.1673 37.3693 59.8843 37.148 61.3978L36.5285 65.7527C36.316 67.2662 37.8208 68.4523 39.2458 67.877L43.3528 66.2218C43.3617 66.2218 43.3705 66.2218 43.3794 66.2129Z" fill="#33FCFE"/>
<path d="M70.0835 39.3311L74.5269 37.676C74.5269 37.676 77.6867 26.2755 74.8543 20.354L73.1992 23.4962C73.1903 23.4962 74.4914 26.3109 70.0835 39.3311Z" fill="#F4B821"/>
<path d="M62.7721 57.8926C61.4975 58.9193 54.7617 60.9197 54.7617 60.9197C54.7617 60.9197 56.6116 62.8847 56.0628 66.2659C55.6557 68.7974 52.8852 70.6384 52.8852 70.6384C54.6466 73.2053 53.1773 76.9228 51.0796 79.5782C48.9818 82.2336 50.2387 83.3312 50.2387 83.3312C50.2387 83.3312 61.9224 71.0721 64.0821 63.4246C64.9584 60.3178 62.7721 57.8926 62.7721 57.8926Z" fill="#F4B821"/>
<path d="M18.312 65.3101C18.312 65.3101 20.7904 65.3189 21.7994 67.1777C22.8085 69.0276 27.9865 84.8271 30.6684 90.6159C31.1552 91.6603 32.2528 95.1477 34.2089 94.8291C34.2089 94.8291 31.3942 95.8381 28.2697 91.3859C25.1541 86.9249 19.7282 70.2756 18.312 65.3101Z" fill="#0E51A0"/>
<path d="M78.1825 14.7852C78.1293 14.7319 78.1293 14.652 78.1825 14.5988C78.2358 14.5455 78.3157 14.5455 78.369 14.5988C78.4222 14.652 78.4222 14.7319 78.369 14.7852C78.3157 14.8385 78.2358 14.8385 78.1825 14.7852Z" fill="white"/>
</svg>
