<svg width="55" height="80" viewBox="0 0 55 80" fill="none" xmlns="http://www.w3.org/2000/svg">
<path d="M46.7235 52.3199C49.0742 45.5563 44.0139 38.5113 36.8562 38.6239L34.0833 38.6661C34.0622 38.6661 34.0481 38.6661 34.027 38.6661L27.1156 38.7787L20.2043 38.6661C20.1832 38.6661 20.1691 38.6661 20.148 38.6661L17.375 38.6239C10.2174 38.5113 5.15705 45.5563 7.50775 52.3199C8.27489 54.5298 9.09834 56.5849 9.95697 58.4922C10.4215 59.6112 11.0197 60.8429 11.6883 62.1168C14.6021 67.8316 17.6777 72.1389 20.0354 75.6649C20.1269 75.7987 20.2254 75.9324 20.324 76.0591C21.8864 78.3183 24.4905 79.3951 27.1227 79.3599C29.7479 79.4021 32.359 78.3183 33.9214 76.0591C34.0199 75.9324 34.1185 75.7987 34.21 75.6649C36.5677 72.1389 39.6433 67.8316 42.557 62.1168C43.2256 60.8429 43.8239 59.6183 44.2884 58.4922C45.1329 56.5779 45.9564 54.5298 46.7235 52.3199Z" fill="#F89E1C"/>
<path d="M34.6531 66.0363C36.6026 62.2639 32.7388 59.674 28.4456 62.1584C23.329 65.1143 20.3026 63.7842 16.8892 58.1256C14.1162 53.5227 10.0623 54.7122 8.64062 55.3174C9.08402 56.4365 9.53445 57.5203 9.99896 58.5549C10.4635 59.674 11.0617 60.9056 11.7303 62.1795C14.644 67.8944 17.7197 72.2016 20.0774 75.7277C20.1689 75.8614 20.2674 75.9951 20.3659 76.1218C21.9284 78.381 24.5325 79.4578 27.1647 79.4226C29.7898 79.4648 32.4009 78.381 33.9634 76.1218C34.0619 75.9951 34.1604 75.8614 34.2519 75.7277C35.0191 74.5734 35.8707 73.3418 36.7575 71.9975C34.7164 71.6667 32.7669 69.682 34.6531 66.0363Z" fill="#032663"/>
<path d="M26.9888 79.5414C24.2088 79.5414 21.6892 78.2957 20.2323 76.1843C20.1338 76.0576 20.0352 75.9239 19.9438 75.7831C19.6059 75.2764 19.247 74.7485 18.881 74.2066C16.7415 71.0466 14.0881 67.1194 11.5896 62.2209C10.8788 60.8696 10.2946 59.645 9.85125 58.5893C9.3797 57.5406 8.92223 56.4497 8.49291 55.3518L8.45068 55.2392L8.56329 55.1899C10.1609 54.5072 14.1796 53.4234 16.9667 58.0544C20.4575 63.8467 23.4346 64.8883 28.3542 62.0449C30.9723 60.5318 33.2737 60.9329 34.3928 62.0027C35.4203 62.988 35.5541 64.5153 34.7376 66.0918C33.9142 67.6894 33.7664 69.1041 34.3154 70.1879C34.7588 71.0606 35.6667 71.687 36.7435 71.863L36.9405 71.8911L36.8279 72.053C36.3282 72.8061 35.8426 73.5239 35.3711 74.2137C35.0051 74.7556 34.6532 75.2764 34.3154 75.7761C34.2239 75.9169 34.1253 76.0506 34.0268 76.1773C32.5488 78.3168 29.98 79.5766 27.1296 79.5274C27.0803 79.5414 27.031 79.5414 26.9888 79.5414ZM27.1296 79.2881C29.8955 79.3303 32.387 78.1198 33.8227 76.0435C33.9212 75.9098 34.0198 75.7831 34.1042 75.6494C34.4421 75.1427 34.794 74.6219 35.1599 74.0799C35.5963 73.4395 36.0397 72.7709 36.5042 72.0811C35.4274 71.8559 34.5335 71.2014 34.0831 70.3076C33.6749 69.4982 33.4145 68.0906 34.5124 65.9792L34.625 66.0355L34.5124 65.9792C35.2725 64.5082 35.167 63.0936 34.2168 62.1927C33.1611 61.1863 30.9794 60.8203 28.4809 62.2702C23.4698 65.1698 20.2886 64.0649 16.7485 58.1952C14.1233 53.8457 10.3791 54.7325 8.77443 55.387C9.18967 56.4427 9.63307 57.4913 10.0835 58.5048C10.5199 59.5605 11.104 60.7711 11.8149 62.1224C14.3063 67.0067 16.9596 70.9269 19.0922 74.0799C19.4581 74.6219 19.8171 75.1497 20.1549 75.6565C20.2464 75.7902 20.3379 75.9169 20.4364 76.0506C21.8722 78.1198 24.3777 79.3373 27.1296 79.2881Z" fill="#10319B"/>
<path d="M2.01017 44.2554C1.00373 47.0565 -0.875416 53.8482 0.76444 62.2093C0.926314 63.0258 1.98202 63.258 2.47468 62.5894L2.86177 62.0686C6.76786 56.776 6.97196 49.6113 3.37554 44.1006C3.03068 43.5657 2.22835 43.6572 2.01017 44.2554Z" fill="#F5851F"/>
<path d="M27.2493 79.543C27.2001 79.543 27.1578 79.543 27.1086 79.543C24.2793 79.5853 21.6893 78.3325 20.2113 76.1859C20.1128 76.0592 20.0143 75.9255 19.9228 75.7847C19.5849 75.278 19.226 74.7501 18.86 74.2082C16.7205 71.0482 14.0671 67.1209 11.5686 62.2225C10.8578 60.8712 10.2736 59.6466 9.83025 58.5909C8.92939 56.571 8.10594 54.4948 7.38102 52.4115C6.24087 49.1388 6.75464 45.648 8.78159 42.8469C10.8015 40.0598 13.9264 38.4974 17.375 38.5466L20.1409 38.5889H20.1972L27.1086 38.7015L34.0199 38.5889H34.0551L36.8492 38.5466C40.2978 38.4903 43.4227 40.0598 45.4426 42.8469C47.4695 45.648 47.9833 49.1388 46.8431 52.4115C46.1182 54.4948 45.2948 56.578 44.3939 58.5979C43.9576 59.6536 43.3734 60.8782 42.6555 62.2295C40.157 67.1209 37.4967 71.0552 35.3641 74.2153C34.9982 74.7572 34.6392 75.285 34.3014 75.7918C34.2099 75.9325 34.1114 76.0663 34.0129 76.1929C32.556 78.2973 30.0364 79.543 27.2493 79.543ZM27.1086 79.2897C29.8745 79.3319 32.366 78.1214 33.8017 76.0451C33.9002 75.9114 33.9988 75.7847 34.0832 75.651C34.4211 75.1443 34.78 74.6164 35.146 74.0745C37.2785 70.9215 39.9318 66.9943 42.4233 62.1169C43.1341 60.7727 43.7112 59.5551 44.1546 58.5064C45.0555 56.4936 45.8789 54.4173 46.5968 52.3411C47.7088 49.1459 47.2091 45.7395 45.2314 43.0087C43.2608 40.2921 40.1993 38.7648 36.8492 38.8141L34.0832 38.8563H34.048L27.1156 38.9689L20.1972 38.8563H20.1409L17.368 38.8141C14.0179 38.7648 10.9563 40.2921 8.98569 43.0087C7.00801 45.7465 6.50831 49.1459 7.62032 52.3411C8.33819 54.4173 9.16164 56.4936 10.0625 58.5064C10.4989 59.5621 11.083 60.7727 11.7939 62.124C14.2853 67.0083 16.9386 70.9285 19.0712 74.0815C19.4371 74.6235 19.7961 75.1513 20.1339 75.6581C20.2254 75.7918 20.3169 75.9185 20.4154 76.0522C21.8582 78.1214 24.3637 79.3389 27.1086 79.2897Z" fill="#10319B"/>
<path d="M43.401 42.3678C41.6204 40.8264 39.3542 39.8974 36.8205 39.9467L34.0405 39.996C34.0194 39.996 34.0053 39.996 33.9842 39.996L27.0376 40.1156L20.0911 39.996C20.07 39.996 20.0559 39.996 20.0348 39.996L17.2548 39.9467C13.398 39.8833 11.3007 42.6563 9.48485 45.8305C9.07664 46.5483 9.47781 47.4774 10.259 47.6322C16.8396 48.9342 31.8094 50.3911 43.401 42.3678Z" fill="#E26907"/>
<path d="M25.3063 60.9343C24.6447 60.9343 23.9761 60.7724 23.3638 60.4416C22.0618 59.7378 21.2595 58.4358 21.2102 56.9578L20.9568 48.484C20.9146 47.006 21.6395 45.6547 22.8993 44.8806C24.1591 44.0993 25.6864 44.0571 26.9884 44.7609L34.512 48.8078C35.7718 49.4834 36.5671 50.7362 36.6446 52.1649C36.722 53.5936 36.0604 54.9238 34.885 55.7261C34.8499 55.7543 34.8076 55.7754 34.7724 55.8036L34.7232 55.8317L27.4599 60.322C26.7913 60.7231 26.0453 60.9343 25.3063 60.9343ZM25.0459 44.768C24.3984 44.768 23.7439 44.9509 23.1597 45.3099C22.0548 45.9926 21.4213 47.175 21.4636 48.47L21.7169 56.9437C21.7592 58.2387 22.463 59.3789 23.6031 59.9912C24.7433 60.6035 26.0875 60.5683 27.1855 59.8856L34.498 55.3672C34.5331 55.3461 34.5683 55.325 34.5965 55.3039C35.624 54.6001 36.2012 53.4388 36.1308 52.186C36.0674 50.9403 35.3707 49.8424 34.2657 49.2512L26.7421 45.2043C26.2072 44.9087 25.623 44.768 25.0459 44.768Z" fill="#F89E1C"/>
<path d="M25.2713 60.9984C24.6168 60.9984 23.9552 60.8365 23.3429 60.5057C22.0479 59.809 21.2526 58.521 21.2104 57.0501L20.95 48.3652C20.9078 46.9013 21.6257 45.564 22.8714 44.7899C24.1171 44.0157 25.6373 43.9734 26.9323 44.6702L34.6389 48.8226C35.8847 49.4912 36.6729 50.737 36.7503 52.1516C36.8278 53.5663 36.1732 54.8894 35.0119 55.6847C34.9768 55.7128 34.9345 55.734 34.8993 55.7621L34.8501 55.7903L27.4039 60.3931C26.7423 60.7943 26.0103 60.9984 25.2713 60.9984ZM25.0039 44.438C24.3142 44.438 23.6244 44.628 23.0051 45.0151C21.8368 45.74 21.1611 46.9928 21.2034 48.3652L21.4638 57.0501C21.506 58.4225 22.252 59.633 23.4626 60.2876C24.6731 60.9421 26.0948 60.8999 27.2701 60.1749L34.7586 55.5439C34.7938 55.5228 34.829 55.4947 34.8641 55.4736C35.955 54.7275 36.5673 53.4959 36.497 52.1657C36.4266 50.8425 35.6876 49.6742 34.5193 49.0479L26.8127 44.8954C26.2426 44.5928 25.6232 44.438 25.0039 44.438Z" fill="#10319B"/>
<path d="M3.37602 44.0995C3.03115 43.5716 2.22882 43.6631 2.01064 44.2543C1.12385 46.7176 -0.438585 52.2706 0.32152 59.2594C0.441166 53.0307 3.01708 47.0695 3.96721 45.0778C3.77718 44.747 3.58716 44.4162 3.37602 44.0995Z" fill="#F89E1C"/>
<path d="M0.61037 58.1193C0.300698 58.1193 0.110672 58.063 0.0825195 58.0559L0.230318 57.5703L0.1529 57.8096L0.22328 57.5633C0.251432 57.5703 3.29889 58.2319 5.81146 51.6443L5.94518 52.6366C3.89712 57.8237 1.65903 58.1193 0.61037 58.1193Z" fill="#F89E1C"/>
<path d="M0.427246 60.2095C0.427246 60.2095 3.08761 61.5186 5.12864 57.4436C5.12864 57.4436 3.43951 62.5039 1.63778 62.9121C1.63778 62.9121 0.469474 63.1725 0.427246 60.2095Z" fill="#032663"/>
<path d="M1.71516 63.1016C1.63071 63.1016 1.55329 63.0946 1.46883 63.0735C1.04655 62.975 0.729844 62.6582 0.645387 62.2289C-1.02262 53.7341 0.962098 46.7946 1.89111 44.2116C2.00372 43.8949 2.28524 43.6697 2.62307 43.6275C2.96089 43.5852 3.29168 43.7401 3.47467 44.0286C7.08517 49.5535 6.87402 56.8308 2.95385 62.1374L2.56676 62.6582C2.3697 62.9398 2.05299 63.1016 1.71516 63.1016ZM2.73568 43.8738C2.70752 43.8738 2.68641 43.8738 2.65826 43.8808C2.41193 43.909 2.21486 44.0638 2.13041 44.2961C1.20843 46.865 -0.762214 53.7481 0.891718 62.1797C0.95506 62.5034 1.19435 62.7497 1.52514 62.8272C1.84889 62.8975 2.17967 62.7779 2.37674 62.5105L2.76383 61.9896C6.62066 56.7674 6.82476 49.6027 3.27056 44.1694C3.15092 43.9794 2.95385 43.8738 2.73568 43.8738Z" fill="#10319B"/>
<path d="M1.38416 60.4841C0.785932 60.4841 0.391804 60.3292 0.384766 60.3222L0.483298 60.0899C0.588868 60.1322 3.15774 61.1456 5.09319 57.4084L5.31841 57.5281C4.02342 60.0195 2.40467 60.4841 1.38416 60.4841Z" fill="#10319B"/>
<path d="M0.715435 58.26C0.4128 58.26 0.229812 58.2037 0.20166 58.1967L0.279078 57.9574C0.30723 57.9644 3.24912 58.802 5.8391 52.5874L6.07136 52.6859C4.00218 57.6477 1.71483 58.26 0.715435 58.26Z" fill="#10319B"/>
<path d="M25.7776 58.9842C25.2709 58.9842 24.7641 58.8576 24.2926 58.6042C23.2932 58.0693 22.6809 57.0769 22.6457 55.9438L22.4557 49.5955C22.4205 48.4624 22.9765 47.4349 23.9407 46.8437C24.9049 46.2454 26.0732 46.2173 27.0656 46.7522L32.696 49.7856C33.6602 50.3064 34.2655 51.2635 34.3218 52.3544C34.3781 53.4453 33.8784 54.4658 32.9775 55.0782C32.9493 55.0993 32.9212 55.1133 32.893 55.1345L32.8579 55.1556L27.4175 58.5197C26.9107 58.8224 26.3477 58.9842 25.7776 58.9842ZM25.5806 46.8789C25.102 46.8789 24.6304 47.0126 24.2011 47.273C23.3988 47.7727 22.9343 48.6313 22.9624 49.5815L23.1524 55.9297C23.1806 56.8799 23.6944 57.7104 24.5319 58.1608C25.3624 58.6112 26.3477 58.5831 27.15 58.0834L32.6186 54.6981C32.6467 54.684 32.6678 54.6629 32.6889 54.6488C33.442 54.1351 33.8573 53.2835 33.808 52.3756C33.7587 51.4676 33.252 50.6653 32.4496 50.229L26.8192 47.1956C26.4322 46.9844 26.0099 46.8789 25.5806 46.8789Z" fill="#F89E1C"/>
<path d="M32.7036 54.8616C32.7317 54.8475 32.7599 54.8264 32.781 54.8123C34.4912 53.644 34.3716 51.061 32.5276 50.0687L27.0239 47.0986C25.1166 46.0711 22.8222 47.4928 22.8856 49.6605L23.0685 55.861C23.1319 58.0216 25.5178 59.3025 27.3547 58.1694L32.6754 54.8827C32.6825 54.8756 32.6965 54.8686 32.7036 54.8616Z" fill="#032663"/>
<path d="M30.4017 53.9022C30.4158 53.8952 30.4299 53.8811 30.444 53.8741C31.4082 53.2195 31.3378 51.7627 30.2962 51.1996L27.1924 49.5316C26.1156 48.9545 24.8206 49.7568 24.8628 50.9744L24.9684 54.4723C25.0036 55.6899 26.3478 56.4148 27.3824 55.7743L30.3806 53.9233C30.3877 53.9163 30.3947 53.9093 30.4017 53.9022Z" fill="#33FCFE"/>
<path d="M44.4642 44.7544C43.6056 45.7327 38.6016 48.2171 38.6016 48.2171C38.6016 48.2171 40.3188 49.5051 40.347 52.2288C40.3681 54.2627 38.4467 56.0856 38.4467 56.0856C40.1781 57.8521 39.5236 60.97 38.2426 63.3347C36.9617 65.6995 38.0948 66.3892 38.0948 66.3892C38.0948 66.3892 45.5833 55.1988 46.2378 48.9139C46.5053 46.3591 44.4642 44.7544 44.4642 44.7544Z" fill="#F4B821"/>
<path d="M10.6323 56.5928C10.6323 56.5928 12.5748 56.2691 13.6164 57.5852C14.6581 58.9013 20.8515 70.5773 23.7371 74.7509C24.2579 75.504 25.5951 78.0869 27.0801 77.5731C27.0801 77.5731 25.011 78.7485 21.9635 75.6799C18.9231 72.6043 12.42 60.2948 10.6323 56.5928Z" fill="#0E51A0"/>
<path d="M6.01522 7.06423C7.45967 6.04589 9.18579 5.17921 11.0925 4.45699L10.9697 4.48588C10.9697 4.48588 17.0942 1.09863 26.2303 1.09863C35.3376 1.09863 41.5343 4.38476 41.5704 4.40643C43.5349 5.13588 45.2971 6.017 46.7777 7.057C53.9061 12.0765 53.3211 22.8593 50.1938 33.0211C47.9333 40.4167 37.1649 43.7822 26.4037 43.6161C15.6425 43.7822 4.8741 40.4167 2.59909 33.0211C-0.528154 22.8665 -1.11316 12.0837 6.01522 7.06423Z" fill="#F89E1C"/>
<path d="M6.01559 7.10068C6.77393 6.56623 7.61171 6.07512 8.50727 5.62012C1.52334 10.6974 2.11557 21.4224 5.22114 31.5336C7.49616 38.9437 18.2573 42.3092 29.0257 42.1503C35.143 42.2442 41.2603 41.1898 45.8247 38.9075C41.1808 42.2876 33.7924 43.8476 26.3968 43.732C15.6357 43.8981 4.86725 40.5253 2.59224 33.1153C-0.527782 22.9391 -1.11278 12.1346 6.01559 7.10068Z" fill="#F5851F"/>
<path d="M9.34468 16.1432C4.97521 15.2332 4.68632 8.2709 4.67188 7.96757L5.19188 7.95312C5.19188 8.01813 5.48077 14.8071 9.44579 15.6304L9.34468 16.1432Z" fill="#F89E1C"/>
<path d="M42.5165 16.4098L42.3721 15.9115C46.7199 14.6476 46.9727 7.58419 46.9727 7.51196L47.4927 7.52641C47.4854 7.82974 47.2254 15.0448 42.5165 16.4098Z" fill="#F4B821"/>
<path d="M26.5554 7.28814C24.107 7.28814 21.832 6.48647 20.5031 5.1359C20.4598 5.09257 20.4164 5.04924 20.3731 4.99868L17.9897 2.312L18.5748 1.79199L20.9581 4.47145C20.987 4.50757 21.0231 4.54368 21.0592 4.57979C22.352 5.89424 24.6776 6.61647 27.1404 6.48647C29.5309 6.35647 31.6109 5.44646 32.7015 4.06701L34.406 1.90033L35.0199 2.38422L33.3154 4.5509C32.0948 6.11091 29.7982 7.12203 27.1837 7.26647C26.967 7.28092 26.7648 7.28814 26.5554 7.28814Z" fill="#F4B821"/>
<path d="M26.5409 10.1122C23.2981 10.1122 20.3586 9.02159 18.488 7.11491C18.423 7.04991 18.3508 6.97769 18.2858 6.90547L18.2136 6.82602L14.9419 3.14989L15.5269 2.62988L18.8636 6.38546C18.9214 6.45046 18.9791 6.51546 19.0441 6.57324C20.7703 8.32103 23.5075 9.33215 26.5409 9.33215C26.7864 9.33215 27.0392 9.32493 27.292 9.31048C30.5276 9.12992 33.3081 7.85881 34.9115 5.8149L37.3454 2.71655L37.9593 3.20044L35.5254 6.29879C33.7848 8.51603 30.7948 9.89548 27.3353 10.0905C27.0753 10.1049 26.8081 10.1122 26.5409 10.1122Z" fill="#F4B821"/>
<path d="M46.3734 8.96368C44.8928 7.91645 43.1306 7.02089 41.1662 6.29144C41.1228 6.26978 34.9117 2.48531 25.8044 2.48531C19.8099 2.47809 14.5738 3.48198 11.6704 4.1681C13.5121 3.30142 18.8999 1.09863 26.2377 1.09863C35.345 1.09863 41.5417 4.41365 41.5778 4.43532C43.5423 5.17199 45.3045 6.06033 46.7851 7.10756C53.1407 11.6215 53.3646 20.7576 51.1184 29.9444C52.8951 21.4076 52.3029 13.1743 46.3734 8.96368Z" fill="#F4B821"/>
<path d="M42.9426 16.0559L42.8921 15.8032C46.9654 14.9581 47.406 7.70699 47.4132 7.63477L47.6732 7.64921C47.6516 7.95255 47.211 15.1676 42.9426 16.0559Z" fill="#10319B"/>
<path d="M35.2151 6.03214L37.649 2.93379C36.7967 2.65934 35.8073 2.37767 34.7023 2.11767L32.9978 4.28435C31.8423 5.7577 29.6539 6.71104 27.155 6.85548C24.5839 6.99993 22.1428 6.22714 20.7778 4.83325C20.7344 4.78991 20.6983 4.7538 20.6622 4.71047L18.2789 2.03101C17.145 2.28379 16.1266 2.57268 15.2383 2.85434L18.51 6.53048L18.5822 6.60992C18.6472 6.67492 18.705 6.74715 18.77 6.81215C20.5683 8.63938 23.4283 9.68661 26.5411 9.68661C26.7939 9.68661 27.0539 9.67939 27.3139 9.66494C30.6578 9.49161 33.5395 8.16271 35.2151 6.03214Z" fill="#032663"/>
<path d="M9.7707 16.0567C5.50234 15.1684 5.0329 8.02554 5.01123 7.72221L5.27123 7.70776C5.27845 7.77999 5.7479 14.9589 9.82126 15.8039L9.7707 16.0567Z" fill="#10319B"/>
<path d="M26.3461 43.5223C21.0233 43.6017 15.7077 42.865 11.3022 41.2472C10.2766 40.1495 9.46049 38.7339 8.98382 37.0872C7.76325 32.8622 6.39102 26.9544 5.8638 20.3171C5.60379 17.0526 7.44547 14.0915 10.0888 13.456C13.6927 12.5893 19.2539 11.5854 25.855 11.4843V11.4771C26.0428 11.4771 26.2234 11.4843 26.4111 11.4843C26.5989 11.4843 26.7795 11.4771 26.9673 11.4771V11.4843C33.5684 11.5854 38.9996 12.4232 42.6035 13.2898C45.2468 13.9254 47.2185 17.0526 46.9585 20.3171C46.4313 26.9544 45.059 32.8622 43.8385 37.0872C43.369 38.6978 42.5818 40.0844 41.5851 41.1822C37.129 42.8434 31.734 43.6017 26.3461 43.5223Z" fill="#032663"/>
<path d="M44.7264 39.5353L43.6792 40.1059C43.8742 39.5281 44.1992 38.5531 44.4159 37.867C44.9937 36.0614 45.6509 34.0103 46.2359 32.6381C47.182 30.4208 49.8109 28.7453 51.537 27.9075L51.2409 29.0414C49.6303 29.8286 47.8031 30.948 46.9509 32.9486C46.3803 34.292 45.7303 36.3214 45.1525 38.1125C44.9431 38.7914 44.9214 38.9575 44.7264 39.5353Z" fill="#F4B821"/>
<path d="M8.39877 39.7014C8.34099 39.7014 8.29044 39.6652 8.27599 39.6147C8.10266 39.1019 7.9221 38.5386 7.73432 37.968C7.17099 36.2274 6.5282 34.2485 5.92876 32.8402C5.05486 30.7963 3.17707 29.6624 1.45095 28.8174C1.38595 28.7885 1.35706 28.7091 1.39317 28.6441C1.42206 28.5791 1.50151 28.5502 1.56651 28.5863C3.33596 29.4457 5.26431 30.6157 6.17431 32.7391C6.78098 34.1619 7.42377 36.1408 7.9871 37.8886C8.17488 38.4591 8.35544 39.0152 8.52155 39.5352C8.54322 39.6002 8.50711 39.6797 8.44211 39.7014C8.42766 39.7014 8.41322 39.7014 8.39877 39.7014Z" fill="#F89E1C"/>
<path d="M51.3278 29.0054C51.0172 30.3487 50.6561 31.6993 50.2444 33.0354C49.3994 35.7943 47.3989 37.9899 44.6616 39.6654C45.3694 37.5493 45.9616 35.1876 46.7561 33.3171C47.7022 31.1143 49.8039 29.742 51.3278 29.0054Z" fill="#032663"/>
<path d="M49.4716 33.2017C49.7604 32.4217 50.0277 31.6417 50.2804 30.8545C49.4716 31.3745 48.641 32.1256 48.1354 33.1728C47.5938 34.2851 47.1171 35.6573 46.626 36.9645C47.9115 35.9751 48.901 34.7256 49.4716 33.2017Z" fill="#0E51A0"/>
<path d="M44.8276 39.6516L44.582 39.5721C44.8276 38.8427 45.0587 38.0699 45.2826 37.326C45.7087 35.9104 46.1565 34.4515 46.6765 33.2165C47.6154 31.0065 49.7171 29.6198 51.306 28.8398L51.4215 29.071C49.8687 29.8293 47.8321 31.1726 46.9148 33.3104C46.3948 34.531 45.9543 35.9827 45.5281 37.391C45.3043 38.1493 45.0731 38.9221 44.8276 39.6516Z" fill="#10319B"/>
<path d="M1.45068 29.0054C1.76124 30.3487 2.12235 31.6993 2.53402 33.0354C3.37903 35.7943 5.3796 37.9899 8.11684 39.6654C7.40905 37.5493 6.81683 35.1876 6.02238 33.3171C5.08348 31.1143 2.97458 29.742 1.45068 29.0054Z" fill="#032663"/>
<path d="M27.1112 43.7318C26.8729 43.7318 26.6345 43.7318 26.4034 43.7246C16.9206 43.869 4.97497 41.1607 2.47606 33.0501C0.237159 25.7845 -2.28341 12.741 5.94275 6.94879L6.01497 7.05712L5.94275 6.94879C7.37998 5.93767 10.8683 4.39933 11.02 4.33433C11.0706 4.30544 17.1734 0.96875 26.2373 0.96875C35.3302 0.96875 41.5774 4.25488 41.6424 4.29099C43.6574 5.03489 45.4197 5.93045 46.8641 6.94879C55.0903 12.741 52.5697 25.7845 50.3308 33.0428C47.8897 40.9584 36.4641 43.7318 27.1112 43.7318ZM26.3962 43.4646C26.6273 43.4646 26.8657 43.4718 27.104 43.4718C36.3702 43.4718 47.6802 40.749 50.078 32.9706C52.2953 25.7772 54.8014 12.8638 46.7124 7.16546C45.2824 6.16156 43.5419 5.27322 41.5341 4.52933C41.4546 4.48599 35.2579 1.23597 26.2373 1.23597C17.2456 1.23597 11.1933 4.53655 11.1356 4.57266C11.0922 4.59433 7.5172 6.16878 6.09442 7.16546C-2.00174 12.8566 0.511605 25.7772 2.72162 32.9706C5.17719 40.944 17.0145 43.609 26.3962 43.4646Z" fill="#10319B"/>
<path d="M26.4036 42.3816C21.8392 42.4466 17.2819 41.8761 13.3963 40.6266C12.7969 40.4316 12.2552 40.0705 11.8797 39.5649C11.2369 38.7127 10.7313 37.7088 10.3919 36.5894C9.2652 32.7905 8.00131 27.4676 7.51742 21.4948C7.27908 18.5554 8.97631 15.8903 11.4102 15.3198C14.7325 14.5398 19.8603 13.637 25.9486 13.5431V13.5359C26.122 13.5359 26.2881 13.5359 26.4614 13.5431C26.6348 13.5431 26.8009 13.5359 26.9742 13.5359V13.5431C33.0626 13.637 38.1832 14.5398 41.5126 15.3198C43.9538 15.8903 45.6438 18.5554 45.4054 21.4948C44.9143 27.4676 43.6576 32.7905 42.531 36.5894C42.1987 37.7016 41.7004 38.691 41.0648 39.5361C40.7037 40.0199 40.1982 40.3666 39.6276 40.5544C35.6843 41.8616 31.0476 42.4538 26.4036 42.3816Z" fill="#FCE8CA"/>
<path d="M25.5374 43.58C20.2724 43.58 15.3468 42.7927 11.2517 41.2905L11.2229 41.2833L11.2012 41.2616C10.1323 40.1133 9.3234 38.6544 8.85396 37.0438C7.7345 33.1582 6.27561 27.0843 5.72671 20.2159C5.45949 16.872 7.31561 13.8603 10.0529 13.2031C13.729 12.322 30.0513 9.73643 42.7553 13.2031C45.4781 13.947 47.3342 16.9587 47.0742 20.2159C46.5253 27.0843 45.0736 33.1582 43.947 37.0438C43.492 38.6255 42.6975 40.0627 41.6647 41.1966L41.6431 41.2183L41.6142 41.2327C37.3386 42.8361 31.9147 43.6739 26.3391 43.5872C26.0718 43.58 25.8046 43.58 25.5374 43.58ZM26.3463 43.3127C31.8785 43.3994 37.2519 42.5689 41.4986 40.9872C42.4953 39.8822 43.2608 38.4955 43.7014 36.9644C44.8208 33.0932 46.2725 27.0338 46.8142 20.187C47.067 17.0526 45.2903 14.1565 42.6831 13.4487C30.0296 9.99643 13.7723 12.5748 10.1106 13.4487C7.50339 14.077 5.72671 16.9731 5.98671 20.187C6.53561 27.0338 7.98006 33.0932 9.09951 36.9644C9.55451 38.5316 10.3345 39.9472 11.3673 41.0594C15.5779 42.5905 20.8935 43.3994 26.3463 43.3127Z" fill="#10319B"/>
<path d="M8.00126 39.5648C7.76292 38.857 7.53903 38.1203 7.32237 37.4053C6.89625 36.0042 6.44847 34.5597 5.92125 33.3175C5.01124 31.1797 2.96734 29.8292 1.41455 29.078L1.53011 28.8469C3.11901 29.6197 5.21346 31.0064 6.15958 33.2236C6.69403 34.4731 7.14181 35.932 7.56792 37.3331C7.78459 38.0481 8.00848 38.7848 8.24682 39.4853L8.00126 39.5648Z" fill="#10319B"/>
<path d="M47.5073 28.9485L50.8512 26.9985C50.8512 26.9985 51.8046 17.3929 48.699 13.0234L47.8034 15.7751C47.8034 15.7751 49.2407 17.8624 47.5073 28.9485Z" fill="#F4B821"/>
<ellipse cx="26.5989" cy="35.8825" rx="1.77904" ry="2.44618" fill="#032663"/>
<path d="M15.139 23.0657C15.1814 23.0587 15.2239 23.0374 15.2592 23.0021C15.8036 22.5284 16.5178 22.3375 17.2248 22.4859C17.3804 22.5213 17.5289 22.4223 17.5572 22.2667C17.5925 22.1112 17.4935 21.9627 17.338 21.9344C16.4541 21.7506 15.5632 21.9839 14.8845 22.5778C14.7643 22.6839 14.7572 22.8607 14.8562 22.9809C14.934 23.0587 15.04 23.0869 15.139 23.0657Z" fill="#032663"/>
<path d="M37.8501 23.0657C37.8077 23.0587 37.7653 23.0374 37.7299 23.0021C37.1855 22.5284 36.4713 22.3375 35.7643 22.4859C35.6087 22.5213 35.4603 22.4223 35.432 22.2667C35.3966 22.1112 35.4956 21.9627 35.6512 21.9344C36.535 21.7506 37.4259 21.9839 38.1047 22.5778C38.2249 22.6839 38.2319 22.8607 38.1329 22.9809C38.0622 23.0587 37.9491 23.0869 37.8501 23.0657Z" fill="#032663"/>
<path d="M22.2532 30.3398C22.1966 30.4954 22.1259 30.6509 22.0411 30.7924L17.0634 31.2166C16.9573 31.0893 16.8654 30.9479 16.7876 30.7994L22.2532 30.3398Z" fill="#0052A3"/>
<path d="M22.4155 29.7251C22.3942 29.8807 22.3589 30.0291 22.3165 30.1705L16.7024 30.6513C16.6388 30.517 16.5822 30.3756 16.5327 30.2271L22.4155 29.7251Z" fill="#0052A3"/>
<path d="M22.4157 28.5095L22.444 28.9479L16.3845 29.4641L16.3491 29.0327L22.4157 28.5095Z" fill="#0052A3"/>
<path d="M22.4509 29.1165C22.4579 29.2649 22.4509 29.4134 22.4367 29.5548L16.4762 30.0639C16.4409 29.9225 16.4126 29.7811 16.3984 29.6326L22.4509 29.1165Z" fill="#0052A3"/>
<path d="M21.3618 31.6274C21.1143 31.8396 20.8386 32.0093 20.5345 32.1365L18.7739 32.285C18.4558 32.2143 18.1517 32.087 17.876 31.9244L21.3618 31.6274Z" fill="#0052A3"/>
<path d="M21.475 24.7898L16.6953 25.1998C16.8014 25.0302 16.9286 24.8746 17.063 24.7332L21.0437 24.3938C21.1993 24.5069 21.3478 24.6413 21.475 24.7898Z" fill="#0052A3"/>
<path d="M21.9346 30.9771C21.8214 31.1467 21.6942 31.3023 21.5598 31.4437L17.6427 31.776C17.4801 31.6558 17.3316 31.5215 17.1973 31.373L21.9346 30.9771Z" fill="#0052A3"/>
<path d="M19.9756 23.8779C20.2796 23.9557 20.5625 24.0759 20.8241 24.2456L17.2534 24.5496C17.4867 24.3446 17.7484 24.1749 18.0383 24.0476L19.9756 23.8779Z" fill="#0052A3"/>
<path d="M21.9625 25.5254C22.0262 25.6597 22.0827 25.8011 22.1251 25.9496L16.2212 26.4516C16.2424 26.2961 16.2778 26.1476 16.3202 26.0062L21.9625 25.5254Z" fill="#0052A3"/>
<path d="M22.1751 26.113C22.2105 26.2544 22.2387 26.3959 22.2529 26.5443L16.2004 27.0605C16.1934 26.912 16.1934 26.7635 16.2075 26.6221L22.1751 26.113Z" fill="#0052A3"/>
<path d="M21.6165 24.9458C21.7155 25.0731 21.8074 25.2145 21.8852 25.363L16.3843 25.8296C16.4408 25.6741 16.5045 25.5185 16.5893 25.3771L21.6165 24.9458Z" fill="#0052A3"/>
<path d="M22.3163 27.3076L22.3517 27.746L16.2922 28.2621L16.2568 27.8238L22.3163 27.3076Z" fill="#0052A3"/>
<path d="M22.2741 26.7065L22.3024 27.1449L16.2429 27.6611L16.2075 27.2227L22.2741 26.7065Z" fill="#0052A3"/>
<path d="M22.3661 27.9084L22.4015 28.3468L16.3349 28.863L16.3066 28.4246L22.3661 27.9084Z" fill="#0052A3"/>
<path d="M36.4668 30.6655C36.389 30.814 36.3041 30.9625 36.2052 31.0969L31.2062 30.9413C31.1214 30.7999 31.0436 30.6514 30.98 30.4958L36.4668 30.6655Z" fill="#0052A3"/>
<path d="M36.7001 30.0715C36.6577 30.22 36.6082 30.3614 36.5445 30.5028L30.9093 30.3332C30.8598 30.1917 30.8173 30.0433 30.7891 29.8948L36.7001 30.0715Z" fill="#0052A3"/>
<path d="M36.8343 28.8628L36.8131 29.3012L30.7324 29.1173L30.7536 28.679L36.8343 28.8628Z" fill="#0052A3"/>
<path d="M36.8058 29.4709C36.7917 29.6194 36.7775 29.7608 36.7422 29.9022L30.7675 29.7184C30.7463 29.577 30.7393 29.4285 30.7393 29.28L36.8058 29.4709Z" fill="#0052A3"/>
<path d="M35.4272 31.8397C35.1585 32.0235 34.8615 32.1579 34.5434 32.2498L32.7757 32.1932C32.4646 32.0872 32.1818 31.9245 31.9272 31.7336L35.4272 31.8397Z" fill="#0052A3"/>
<path d="M36.3324 25.0588L31.5386 24.9174C31.6658 24.7618 31.8073 24.6204 31.9557 24.4932L35.9436 24.6134C36.092 24.7477 36.2193 24.8962 36.3324 25.0588Z" fill="#0052A3"/>
<path d="M36.0776 31.2596C35.9503 31.4151 35.8019 31.5565 35.6463 31.6838L31.7221 31.5636C31.5736 31.4293 31.4464 31.2808 31.3262 31.1182L36.0776 31.2596Z" fill="#0052A3"/>
<path d="M34.9462 23.9772C35.2361 24.0903 35.5119 24.2459 35.7523 24.4368L32.1675 24.3237C32.422 24.1469 32.7048 24.0055 33.0018 23.9136L34.9462 23.9772Z" fill="#0052A3"/>
<path d="M36.7356 25.8433C36.7851 25.9847 36.8205 26.1332 36.8488 26.2816L30.9307 26.0978C30.9731 25.9493 31.0226 25.8079 31.0791 25.6665L36.7356 25.8433Z" fill="#0052A3"/>
<path d="M36.8769 26.4512C36.8981 26.5926 36.9052 26.7411 36.9052 26.8896L30.8315 26.7057C30.8386 26.5572 30.8598 26.4158 30.8881 26.2744L36.8769 26.4512Z" fill="#0052A3"/>
<path d="M36.4521 25.2285C36.537 25.37 36.6077 25.5184 36.6713 25.674L31.1562 25.5043C31.234 25.3558 31.3118 25.2073 31.4108 25.073L36.4521 25.2285Z" fill="#0052A3"/>
<path d="M36.8766 27.6606L36.8625 28.0919L30.7817 27.9081L30.7959 27.4768L36.8766 27.6606Z" fill="#0052A3"/>
<path d="M36.9051 27.0593L36.8839 27.4906L30.8032 27.3068L30.8244 26.8684L36.9051 27.0593Z" fill="#0052A3"/>
<path d="M36.8556 28.2612L36.8415 28.6996L30.7607 28.5087L30.7749 28.0774L36.8556 28.2612Z" fill="#0052A3"/>
<path d="M51.585 51.5093C49.0223 48.3935 42.4193 41.4919 31.5468 37.5981C30.4839 37.2199 29.4808 38.2878 29.9173 39.3254L30.255 40.1376C33.7058 48.3585 41.9056 53.5688 50.8176 53.2064C51.6797 53.1761 52.13 52.1785 51.585 51.5093Z" fill="#F5851F"/>
<path d="M50.8167 53.2068C51.6706 53.1716 52.1209 52.174 51.5841 51.5097C49.3317 48.7676 43.951 43.0945 35.2869 39.1289C42.4555 43.5912 47.608 50.7275 49.2674 53.2161C49.7844 53.2244 50.3014 53.2328 50.8167 53.2068Z" fill="#F89E1C"/>
<path d="M36.4145 40.2554C36.6295 39.8948 36.8269 39.7127 36.8546 39.6848L37.3174 40.1939L37.0926 39.9377L37.3305 40.1906C37.3028 40.2185 34.4175 43.3073 40.3432 50.8046L39.095 50.2716C34.4775 44.2871 35.6867 41.4763 36.4145 40.2554Z" fill="#F89E1C"/>
<path d="M34.1084 38.5928C34.1084 38.5928 30.7379 40.7815 34.0656 45.986C34.0656 45.986 29.3465 40.5073 30.1217 38.1264C30.1217 38.1264 30.6294 36.5855 34.1084 38.5928Z" fill="#032663"/>
<path d="M29.8472 38.084C29.9058 37.9857 29.9677 37.9004 30.0509 37.8167C30.4587 37.3935 31.0473 37.2446 31.6057 37.4442C42.6535 41.3981 49.3552 48.5251 51.7176 51.3994C52.0082 51.7503 52.075 52.2344 51.8897 52.657C51.7044 53.0797 51.2946 53.3573 50.8316 53.3701C41.8935 53.7391 33.5675 48.4424 30.1101 40.1953L29.7724 39.3832C29.5814 38.9584 29.6127 38.4773 29.8472 38.084ZM51.5248 52.6172C51.5443 52.5844 51.559 52.5598 51.5703 52.5222C51.7085 52.2158 51.665 51.8789 51.4532 51.6194C49.1023 48.7631 42.4564 41.6915 31.4921 37.7652C31.0712 37.6142 30.6184 37.7219 30.2986 38.0533C29.992 38.3813 29.9017 38.8495 30.0763 39.2645L30.414 40.0767C33.8171 48.1914 42.0169 53.4017 50.8094 53.0348C51.1137 53.0273 51.3734 52.8712 51.5248 52.6172Z" fill="#10319B"/>
<path d="M33.1236 39.5155C33.5388 38.819 33.9926 38.4676 34.0057 38.4643L34.2077 38.7402C34.0852 38.8338 31.1224 41.1212 34.1301 45.9683L33.8345 46.1475C31.8326 42.9106 32.4153 40.7036 33.1236 39.5155Z" fill="#10319B"/>
<path d="M36.1778 40.2802C36.3878 39.9279 36.5804 39.7539 36.6081 39.726L36.833 39.9822C36.8052 40.0101 33.7883 42.8539 39.226 50.1825L38.9501 50.3845C34.6095 44.5318 35.4841 41.4438 36.1778 40.2802Z" fill="#10319B"/>
</svg>
