<svg width="69" height="98" viewBox="0 0 69 98" fill="none" xmlns="http://www.w3.org/2000/svg">
<path d="M59.0023 63.5195C61.9377 55.0735 55.6186 46.276 46.6805 46.4166L43.2177 46.4694C43.1914 46.4694 43.1738 46.4694 43.1474 46.4694L34.5169 46.61L25.8864 46.4694C25.86 46.4694 25.8424 46.4694 25.8161 46.4694L22.3533 46.4166C13.4152 46.276 7.09611 55.0735 10.0315 63.5195C10.9895 66.2791 12.0178 68.8454 13.09 71.2272C13.6701 72.6246 14.4171 74.1626 15.252 75.7534C18.8906 82.8898 22.7312 88.2685 25.6755 92.6717C25.7897 92.8386 25.9127 93.0056 26.0358 93.1638C27.9869 95.985 31.2387 97.3297 34.5257 97.2857C37.8039 97.3385 41.0645 95.985 43.0156 93.1638C43.1386 93.0056 43.2617 92.8386 43.3759 92.6717C46.3201 88.2685 50.1608 82.8898 53.7993 75.7534C54.6343 74.1626 55.3813 72.6334 55.9614 71.2272C57.016 68.8367 58.0443 66.2791 59.0023 63.5195Z" fill="#F89E1C"/>
<path d="M43.9294 80.649C46.3639 75.9383 41.5389 72.7041 36.1777 75.8065C29.7883 79.4977 26.0092 77.8367 21.7467 70.7705C18.2839 65.0227 13.2216 66.508 11.4463 67.2638C12 68.6612 12.5625 70.0147 13.1425 71.3066C13.7226 72.7041 14.4696 74.2421 15.3045 75.8328C18.9431 82.9693 22.7837 88.348 25.728 92.7511C25.8422 92.9181 25.9652 93.0851 26.0883 93.2433C28.0394 96.0645 31.2912 97.4091 34.5782 97.3652C37.8564 97.4179 41.117 96.0645 43.0681 93.2433C43.1911 93.0851 43.3142 92.9181 43.4284 92.7511C44.3864 91.3098 45.4498 89.7717 46.5572 88.0931C44.0085 87.68 41.574 85.2016 43.9294 80.649Z" fill="#032663"/>
<path d="M34.3585 97.5147C30.8869 97.5147 27.7406 95.9591 25.9213 93.3225C25.7983 93.1643 25.6752 92.9973 25.561 92.8215C25.1391 92.1887 24.6909 91.5296 24.2339 90.8528C21.5621 86.9067 18.2487 82.0026 15.1288 75.8856C14.2411 74.1982 13.5116 72.669 12.9579 71.3507C12.3691 70.0411 11.7978 68.6789 11.2617 67.3078L11.209 67.1672L11.3496 67.1057C13.3446 66.2532 18.363 64.8997 21.8433 70.6827C26.2025 77.9158 29.9202 79.2166 36.0635 75.6659C39.3329 73.7763 42.2068 74.2773 43.6042 75.6132C44.8873 76.8436 45.0543 78.7508 44.0348 80.7194C43.0066 82.7145 42.822 84.481 43.5075 85.8345C44.0612 86.9243 45.1949 87.7065 46.5396 87.9262L46.7857 87.9613L46.6451 88.1635C46.0211 89.1039 45.4147 90.0003 44.8258 90.8616C44.3688 91.5383 43.9294 92.1887 43.5075 92.8127C43.3933 92.9885 43.2702 93.1555 43.1472 93.3137C41.3015 95.9854 38.0937 97.5586 34.5342 97.4971C34.4727 97.5147 34.4112 97.5147 34.3585 97.5147ZM34.5342 97.1983C37.9882 97.251 41.0994 95.7394 42.8923 93.1467C43.0153 92.9797 43.1384 92.8215 43.2439 92.6545C43.6657 92.0217 44.1051 91.3714 44.5622 90.6946C45.1071 89.8949 45.6607 89.0599 46.2408 88.1986C44.8961 87.9174 43.78 87.1 43.2175 85.9839C42.7077 84.9732 42.3826 83.2154 43.7536 80.5788L43.8942 80.6491L43.7536 80.5788C44.7028 78.742 44.5709 76.9754 43.3845 75.8505C42.0662 74.5937 39.3417 74.1367 36.2217 75.9472C29.9641 79.5681 25.9916 78.1883 21.5709 70.8585C18.2927 65.4271 13.6171 66.5344 11.6133 67.3518C12.1318 68.6701 12.6855 69.9796 13.248 71.2452C13.7929 72.5635 14.5223 74.0752 15.41 75.7626C18.5212 81.862 21.8345 86.7573 24.4975 90.6946C24.9545 91.3714 25.4028 92.0305 25.8246 92.6633C25.9389 92.8303 26.0531 92.9885 26.1762 93.1555C27.9691 95.7394 31.0978 97.2598 34.5342 97.1983Z" fill="#10319B"/>
<path d="M3.16733 53.4481C1.91054 56.946 -0.436046 65.4271 1.61173 75.8681C1.81387 76.8876 3.13217 77.1776 3.74738 76.3427L4.23076 75.6923C9.1085 69.0832 9.36337 60.1363 4.87234 53.2547C4.44169 52.5868 3.43978 52.701 3.16733 53.4481Z" fill="#F5851F"/>
<path d="M34.6837 97.5145C34.6221 97.5145 34.5694 97.5145 34.5079 97.5145C30.9748 97.5673 27.7406 96.0029 25.895 93.3223C25.7719 93.1641 25.6489 92.9971 25.5346 92.8213C25.1128 92.1886 24.6645 91.5294 24.2075 90.8527C21.5357 86.9065 18.2224 82.0024 15.1024 75.8855C14.2147 74.1981 13.4853 72.6688 12.9316 71.3505C11.8066 68.8282 10.7784 66.2355 9.87312 63.634C8.44935 59.5473 9.09092 55.1881 11.6221 51.6902C14.1444 48.2098 18.0466 46.2587 22.3531 46.3202L25.8071 46.373H25.8774L34.5079 46.5136L43.1384 46.373H43.1824L46.6715 46.3202C50.9779 46.2499 54.8801 48.2098 57.4025 51.6902C59.9336 55.1881 60.5752 59.5473 59.1515 63.634C58.2462 66.2355 57.2179 68.8369 56.093 71.3593C55.5481 72.6776 54.8186 74.2068 53.9222 75.8943C50.8022 82.0024 47.48 86.9153 44.8171 90.8615C44.36 91.5382 43.9118 92.1973 43.49 92.8301C43.3757 93.0059 43.2527 93.1729 43.1296 93.3311C41.3104 95.9589 38.164 97.5145 34.6837 97.5145ZM34.5079 97.1981C37.9619 97.2509 41.0731 95.7392 42.866 93.1465C42.989 92.9796 43.112 92.8213 43.2175 92.6544C43.6394 92.0216 44.0876 91.3624 44.5446 90.6857C47.2076 86.7484 50.5209 81.8442 53.6321 75.7537C54.5198 74.075 55.2405 72.5546 55.7942 71.245C56.9191 68.7315 57.9474 66.1388 58.8438 63.5461C60.2325 59.5561 59.6085 55.3023 57.1388 51.8923C54.678 48.4999 50.8549 46.5927 46.6715 46.6542L43.2175 46.707H43.1736L34.5167 46.8476L25.8774 46.707H25.8071L22.3443 46.6542C18.1609 46.5927 14.3378 48.4999 11.8769 51.8923C9.40732 55.3111 8.78332 59.5561 10.1719 63.5461C11.0684 66.1388 12.0967 68.7315 13.2216 71.245C13.7665 72.5634 14.496 74.075 15.3836 75.7625C18.4949 81.8618 21.8082 86.7571 24.4712 90.6945C24.9282 91.3712 25.3764 92.0304 25.7983 92.6632C25.9125 92.8301 26.0268 92.9883 26.1498 93.1553C27.9515 95.7392 31.0803 97.2597 34.5079 97.1981Z" fill="#10319B"/>
<path d="M54.8538 51.0926C52.6303 49.1679 49.8003 48.0078 46.6364 48.0693L43.1648 48.1308C43.1385 48.1308 43.1209 48.1308 43.0945 48.1308L34.4201 48.2802L25.7456 48.1308C25.7192 48.1308 25.7017 48.1308 25.6753 48.1308L22.2037 48.0693C17.3875 47.9902 14.7685 51.4529 12.501 55.4166C11.9913 56.3131 12.4922 57.4732 13.4678 57.6666C21.6852 59.2925 40.3788 61.1117 54.8538 51.0926Z" fill="#E26907"/>
<path d="M32.2581 74.2772C31.4319 74.2772 30.597 74.0751 29.8324 73.662C28.2065 72.7832 27.2046 71.1573 27.143 69.3116L26.8266 58.73C26.7739 56.8844 27.6792 55.1969 29.2523 54.2302C30.8255 53.2546 32.7327 53.2019 34.3586 54.0808L43.7537 59.1343C45.3269 59.978 46.32 61.5424 46.4167 63.3265C46.5134 65.1106 45.6872 66.7717 44.2195 67.7736C44.1756 67.8088 44.1228 67.8351 44.0789 67.8703L44.0174 67.9054L34.9474 73.5126C34.1125 74.0136 33.1809 74.2772 32.2581 74.2772ZM31.9329 54.0896C31.1243 54.0896 30.307 54.3181 29.5775 54.7663C28.1977 55.6188 27.4067 57.0953 27.4594 58.7124L27.7758 69.294C27.8286 70.9112 28.7074 72.3349 30.1312 73.0996C31.555 73.8642 33.2336 73.8202 34.6047 72.9677L43.7361 67.3254C43.7801 67.299 43.824 67.2726 43.8592 67.2463C45.1423 66.3674 45.863 64.9173 45.7751 63.3529C45.696 61.7973 44.8259 60.4262 43.4461 59.688L34.051 54.6345C33.383 54.2653 32.6536 54.0896 31.9329 54.0896Z" fill="#F89E1C"/>
<path d="M32.2141 74.3563C31.3968 74.3563 30.5707 74.1542 29.806 73.7411C28.1889 72.871 27.1958 71.2627 27.1431 69.4258L26.8179 58.5806C26.7651 56.7525 27.6616 55.0826 29.2172 54.1159C30.7728 53.1491 32.6712 53.0964 34.2883 53.9665L43.9119 59.1518C45.4675 59.9867 46.4519 61.5423 46.5485 63.3089C46.6452 65.0754 45.8279 66.7277 44.3777 67.7208C44.3338 67.756 44.2811 67.7823 44.2371 67.8175L44.1756 67.8526L34.8771 73.6005C34.051 74.1014 33.137 74.3563 32.2141 74.3563ZM31.8802 53.6765C31.0189 53.6765 30.1576 53.9137 29.3842 54.3971C27.9253 55.3024 27.0815 56.8668 27.1343 58.5806L27.4595 69.4258C27.5122 71.1396 28.4438 72.6513 29.9554 73.4686C31.4671 74.286 33.2424 74.2333 34.7101 73.328L44.0613 67.545C44.1053 67.5187 44.1492 67.4835 44.1932 67.4572C45.5554 66.5256 46.32 64.9875 46.2321 63.3265C46.1443 61.6742 45.2214 60.2153 43.7625 59.4331L34.1389 54.2477C33.427 53.8698 32.6536 53.6765 31.8802 53.6765Z" fill="#10319B"/>
<path d="M4.87244 53.2541C4.4418 52.595 3.43988 52.7092 3.16743 53.4475C2.06005 56.5235 0.10896 63.4578 1.05814 72.185C1.20755 64.407 4.42422 56.9629 5.6107 54.4757C5.3734 54.0627 5.13611 53.6496 4.87244 53.2541Z" fill="#F89E1C"/>
<path d="M1.41843 70.7621C1.03173 70.7621 0.794432 70.6918 0.759277 70.683L0.94384 70.0766L0.847164 70.3754L0.935052 70.0678C0.970207 70.0766 4.77572 70.9027 7.91329 62.6765L8.08028 63.9157C5.52276 70.3929 2.72795 70.7621 1.41843 70.7621Z" fill="#F89E1C"/>
<path d="M1.18994 73.3725C1.18994 73.3725 4.51208 75.0072 7.0608 69.9185C7.0608 69.9185 4.95151 76.2376 2.7016 76.7474C2.7016 76.7474 1.24267 77.0725 1.18994 73.3725Z" fill="#032663"/>
<path d="M2.79831 76.9843C2.69284 76.9843 2.59617 76.9755 2.4907 76.9491C1.96338 76.8261 1.56789 76.4306 1.46242 75.8945C-0.620504 65.2865 1.85791 56.6208 3.01802 53.3954C3.15864 52.9999 3.51019 52.7187 3.93205 52.6659C4.35391 52.6132 4.76698 52.8065 4.99549 53.1669C9.5041 60.066 9.24044 69.1536 4.34512 75.7802L3.86174 76.4306C3.61566 76.7822 3.22017 76.9843 2.79831 76.9843ZM4.07267 52.9735C4.03752 52.9735 4.01115 52.9735 3.97599 52.9823C3.66839 53.0175 3.42231 53.2108 3.31684 53.5009C2.16552 56.7087 -0.295321 65.3041 1.77003 75.833C1.84913 76.2373 2.14794 76.5449 2.56101 76.6415C2.96529 76.7294 3.37836 76.58 3.62445 76.246L4.10783 75.5957C8.92404 69.0745 9.17892 60.1275 4.74061 53.3427C4.59121 53.1054 4.34512 52.9735 4.07267 52.9735Z" fill="#10319B"/>
<path d="M2.3852 73.7144C1.63816 73.7144 1.146 73.5211 1.13721 73.5123L1.26025 73.2223C1.39208 73.275 4.59996 74.5406 7.01686 69.8738L7.2981 70.0232C5.68097 73.1344 3.65957 73.7144 2.3852 73.7144Z" fill="#10319B"/>
<path d="M1.55027 70.9382C1.17235 70.9382 0.943846 70.8679 0.908691 70.8591L1.00537 70.5603C1.04052 70.5691 4.71421 71.6149 7.94845 63.8545L8.23848 63.9775C5.6546 70.1736 2.79827 70.9382 1.55027 70.9382Z" fill="#10319B"/>
<path d="M66.2527 53.4481C67.5095 56.946 69.8561 65.4271 67.8083 75.8681C67.6062 76.8876 66.2879 77.1776 65.6727 76.3427L65.1893 75.6923C60.3115 69.0832 60.0567 60.1363 64.5477 53.2547C64.9784 52.5868 65.9803 52.701 66.2527 53.4481Z" fill="#F89E1C"/>
<path d="M65.409 54.4851C65.4002 54.5027 65.3915 54.5115 65.3827 54.529C63.8446 57.1481 64.1522 60.479 66.1033 62.7992C66.7449 63.5638 67.5271 64.2581 68.4499 64.7152C68.4411 59.9605 67.2195 56.2868 66.5076 54.5642C66.3143 54.0984 65.6639 54.0544 65.409 54.4851Z" fill="#F4B821"/>
<path d="M62.1573 58.6512C60.5665 64.3991 61.5948 70.7094 65.1894 75.6926L65.6552 76.3429C65.7079 76.422 65.7782 76.4836 65.8485 76.5451L67.4481 76.4572C67.5975 76.299 67.703 76.1056 67.7469 75.8683C67.9491 74.8137 68.1073 73.7854 68.2303 72.7747C63.2031 70.6215 62.2979 62.5974 62.1573 58.6512Z" fill="#F5851F"/>
<path d="M67.9316 70.7792C66.6045 70.7792 63.757 69.9531 61.2698 63.6428L61.4807 62.5793C64.6534 71.2977 68.4326 70.0937 68.4677 70.0849L68.6787 70.6825C68.6347 70.6913 68.3711 70.7792 67.9316 70.7792Z" fill="#F89E1C"/>
<path d="M68.2305 73.3725C68.2305 73.3725 64.9083 75.0072 62.3596 69.9185C62.3596 69.9185 64.4689 76.2376 66.7188 76.7474C66.7188 76.7474 68.1778 77.0725 68.2305 73.3725Z" fill="#032663"/>
<path d="M66.6221 76.9844C66.2002 76.9844 65.8047 76.7911 65.5411 76.4307L65.0577 75.7804C60.1624 69.1537 59.9075 60.0662 64.4073 53.167C64.6446 52.8067 65.0489 52.6221 65.4708 52.6661C65.8926 52.7188 66.2442 52.9912 66.3848 53.3955C67.5449 56.6298 70.0321 65.2954 67.9404 75.8946C67.8349 76.422 67.4394 76.8262 66.9121 76.9493C66.8242 76.9756 66.7276 76.9844 66.6221 76.9844ZM65.3477 52.9737C65.0753 52.9737 64.838 53.1055 64.6798 53.334C60.2415 60.1189 60.4964 69.0658 65.3126 75.587L65.796 76.2374C66.042 76.5714 66.4551 76.7208 66.8594 76.6329C67.2637 76.545 67.5625 76.2374 67.6504 75.8243C69.7245 65.2954 67.2549 56.7001 66.1036 53.4922C65.9981 53.2022 65.752 53.0088 65.4444 52.9737C65.4093 52.9737 65.3829 52.9737 65.3477 52.9737Z" fill="#10319B"/>
<path d="M67.0352 73.715C65.7608 73.715 63.7394 73.1349 62.1223 70.0149L62.4035 69.8655C64.8204 74.5411 68.0283 73.2756 68.1602 73.214L68.2832 73.5041C68.2744 73.5216 67.7822 73.715 67.0352 73.715Z" fill="#10319B"/>
<path d="M67.8699 70.9382C66.6219 70.9382 63.7655 70.1736 61.1816 63.9775L61.4717 63.8545C64.7235 71.6413 68.3796 70.5691 68.4148 70.5603L68.5114 70.8591C68.4763 70.8679 68.2478 70.9382 67.8699 70.9382Z" fill="#10319B"/>
<path d="M32.8468 71.843C32.214 71.843 31.5812 71.6848 30.9924 71.3684C29.7444 70.7004 28.9797 69.4612 28.9358 68.0462L28.6985 60.1188C28.6546 58.7038 29.3489 57.4207 30.5529 56.6824C31.757 55.9354 33.2159 55.9002 34.4551 56.5682L41.4861 60.3561C42.6901 61.0065 43.446 62.2017 43.5163 63.564C43.5866 64.9262 42.9626 66.2006 41.8376 66.9652C41.8025 66.9916 41.7673 67.0092 41.7322 67.0355L41.6882 67.0619L34.8945 71.2629C34.2618 71.6408 33.5587 71.843 32.8468 71.843ZM32.6007 56.7264C32.0031 56.7264 31.4142 56.8934 30.8781 57.2185C29.8762 57.8425 29.2961 58.9148 29.3313 60.1012L29.5686 68.0287C29.6037 69.2151 30.2453 70.2522 31.2912 70.8147C32.3282 71.3772 33.5587 71.342 34.5606 70.718L41.3894 66.4906C41.4246 66.4731 41.4509 66.4467 41.4773 66.4291C42.4177 65.7875 42.9362 64.7241 42.8747 63.5904C42.8132 62.4566 42.1804 61.4547 41.1785 60.9098L34.1475 57.1219C33.6641 56.8582 33.1368 56.7264 32.6007 56.7264Z" fill="#F89E1C"/>
<path d="M41.495 66.6923C41.5302 66.6747 41.5653 66.6484 41.5917 66.6308C43.7274 65.1719 43.5779 61.9464 41.2753 60.7072L34.4025 56.9984C32.0208 55.7152 29.1557 57.4905 29.2348 60.1975L29.4633 67.9403C29.5424 70.6384 32.5217 72.238 34.8156 70.823L41.4599 66.7187C41.4687 66.7099 41.4862 66.7011 41.495 66.6923Z" fill="#032663"/>
<path d="M38.6211 65.4975C38.6387 65.4887 38.6563 65.4711 38.6738 65.4623C39.8779 64.6449 39.79 62.8257 38.4893 62.1226L34.6134 60.0397C33.2688 59.319 31.6516 60.3209 31.7044 61.8413L31.8362 66.2093C31.8802 67.7298 33.5588 68.635 34.8507 67.8353L38.5947 65.5238C38.6035 65.515 38.6123 65.5062 38.6211 65.4975Z" fill="#33FCFE"/>
<path d="M56.181 54.0726C55.1088 55.2943 48.86 58.3967 48.86 58.3967C48.86 58.3967 51.0045 60.005 51.0396 63.4062C51.066 65.9462 48.6667 68.2225 48.6667 68.2225C50.8287 70.4284 50.0113 74.3218 48.4118 77.2748C46.8122 80.2278 48.2272 81.0891 48.2272 81.0891C48.2272 81.0891 57.5784 67.1151 58.3958 59.2668C58.7297 56.0765 56.181 54.0726 56.181 54.0726Z" fill="#F4B821"/>
<path d="M13.9336 68.8551C13.9336 68.8551 16.3593 68.4508 17.66 70.0943C18.9607 71.7378 26.6948 86.3182 30.2982 91.5299C30.9485 92.4703 32.6184 95.6958 34.4728 95.0542C34.4728 95.0542 31.8889 96.5219 28.0834 92.6901C24.2867 88.8494 16.1659 73.4779 13.9336 68.8551Z" fill="#0E51A0"/>
<path d="M9.86751 7.93604C11.6297 6.69373 13.7354 5.63644 16.0614 4.75537L15.9117 4.79062C15.9117 4.79062 23.3832 0.658386 34.5287 0.658386C45.639 0.658386 53.1986 4.66727 53.2427 4.6937C55.6392 5.58358 57.789 6.65849 59.5952 7.92723C68.2914 14.0507 67.5778 27.2051 63.7627 39.6018C61.0049 48.624 47.8682 52.7298 34.7402 52.5271C21.6122 52.7298 8.47542 48.624 5.70004 39.6018C1.88499 27.2139 1.17133 14.0595 9.86751 7.93604Z" fill="#F89E1C"/>
<path d="M9.86745 7.97923C10.7926 7.32724 11.8146 6.72811 12.9071 6.17303C4.38718 12.367 5.10966 25.4509 8.89827 37.7859C11.6736 46.8257 24.8016 50.9315 37.9384 50.7377C45.4011 50.8522 52.8638 49.5658 58.4322 46.7817C52.7669 50.9051 43.7535 52.8082 34.7313 52.6672C21.6033 52.8699 8.46654 48.7553 5.69116 39.7155C1.88493 27.3011 1.17126 14.1203 9.86745 7.97923Z" fill="#F5851F"/>
<path d="M13.9291 19.0104C8.59857 17.9003 8.24614 9.40671 8.22852 9.03666L8.86289 9.01904C8.86289 9.09834 9.21532 17.3804 14.0524 18.3848L13.9291 19.0104Z" fill="#F89E1C"/>
<path d="M54.3967 19.3363L54.2205 18.7284C59.5245 17.1865 59.8329 8.56961 59.8329 8.48151L60.4673 8.49913C60.4584 8.86918 60.1413 17.6711 54.3967 19.3363Z" fill="#F4B821"/>
<path d="M34.9251 8.20874C31.9383 8.20874 29.1629 7.23075 27.5417 5.58315C27.4889 5.53028 27.436 5.47742 27.3831 5.41575L24.4756 2.13816L25.1893 1.50378L28.0968 4.77256C28.132 4.81662 28.1761 4.86067 28.2201 4.90472C29.7973 6.50827 32.6343 7.38935 35.6388 7.23075C38.5551 7.07216 41.0926 5.96201 42.423 4.27916L44.5024 1.63595L45.2513 2.22626L43.1719 4.86948C41.6829 6.7726 38.8811 8.0061 35.6916 8.18231C35.4273 8.19993 35.1806 8.20874 34.9251 8.20874Z" fill="#F4B821"/>
<path d="M34.9076 11.6537C30.9516 11.6537 27.3656 10.3233 25.0836 7.99728C25.0043 7.91798 24.9162 7.82987 24.8369 7.74177L24.7488 7.64485L20.7576 3.16019L21.4712 2.52582L25.5418 7.10739C25.6123 7.18669 25.6828 7.26599 25.7621 7.33647C27.8678 9.46867 31.2071 10.7022 34.9076 10.7022C35.2072 10.7022 35.5155 10.6934 35.8239 10.6757C39.7711 10.4555 43.1632 8.90478 45.1192 6.41135L48.0884 2.63155L48.8373 3.22186L45.8681 7.00166C43.7447 9.70656 40.0971 11.3894 35.8768 11.6273C35.5596 11.6449 35.2336 11.6537 34.9076 11.6537Z" fill="#F4B821"/>
<path d="M59.1019 10.2533C57.2957 8.97571 55.1459 7.88318 52.7494 6.9933C52.6965 6.96686 45.1193 2.35005 34.0089 2.35005C26.696 2.34123 20.3083 3.56593 16.7664 4.40294C19.0131 3.34566 25.5859 0.658386 34.5376 0.658386C45.6479 0.658386 53.2075 4.70251 53.2516 4.72894C55.6481 5.62763 57.7979 6.71135 59.6041 7.98891C67.3575 13.4956 67.6307 24.6412 64.8905 35.8484C67.058 25.4341 66.3355 15.3899 59.1019 10.2533Z" fill="#F4B821"/>
<path d="M54.9167 18.905L54.855 18.5966C59.8242 17.5657 60.3617 8.71976 60.3705 8.63165L60.6877 8.64927C60.6613 9.01932 60.1238 17.8212 54.9167 18.905Z" fill="#10319B"/>
<path d="M45.4894 6.67576L48.4586 2.89596C47.4189 2.56115 46.2118 2.21753 44.8638 1.90035L42.7845 4.54356C41.3747 6.34095 38.7051 7.50397 35.6566 7.68018C32.52 7.85639 29.5419 6.91365 27.8767 5.21318C27.8239 5.16031 27.7798 5.11626 27.7357 5.0634L24.8282 1.79462C23.4449 2.10299 22.2026 2.45542 21.1189 2.79904L25.1102 7.2837L25.1983 7.38062C25.2776 7.45991 25.348 7.54802 25.4273 7.62732C27.6212 9.85643 31.1103 11.134 34.9077 11.134C35.2161 11.134 35.5332 11.1252 35.8504 11.1076C39.9298 10.8961 43.4453 9.27492 45.4894 6.67576Z" fill="#032663"/>
<path d="M14.4491 18.9051C9.24195 17.8214 8.66925 9.10758 8.64282 8.73753L8.96001 8.71991C8.96882 8.80802 9.54152 17.5659 14.5108 18.5967L14.4491 18.9051Z" fill="#10319B"/>
<path d="M34.6699 52.4117C28.1764 52.5086 21.6917 51.6099 16.3171 49.6363C15.066 48.2971 14.0704 46.5702 13.4889 44.5614C11.9999 39.4071 10.3258 32.1999 9.68265 24.1029C9.36546 20.1204 11.6122 16.508 14.8369 15.7327C19.2335 14.6754 26.0177 13.4507 34.0707 13.3274V13.3185C34.2998 13.3185 34.5201 13.3274 34.7492 13.3274C34.9782 13.3274 35.1985 13.3185 35.4276 13.3185V13.3274C43.4806 13.4507 50.1062 14.4727 54.5028 15.53C57.7275 16.3054 60.1328 20.1204 59.8157 24.1029C59.1725 32.1999 57.4984 39.4071 56.0094 44.5614C55.4367 46.5262 54.4764 48.2178 53.2605 49.557C47.8243 51.5835 41.2427 52.5086 34.6699 52.4117Z" fill="#032663"/>
<path d="M57.093 47.5485L55.8154 48.2446C56.0533 47.5397 56.4498 46.3503 56.7141 45.5133C57.419 43.3106 58.2208 40.8083 58.9344 39.1343C60.0886 36.4294 63.2957 34.3853 65.4015 33.3633L65.0403 34.7466C63.0755 35.7069 60.8463 37.0726 59.8067 39.5132C59.1106 41.152 58.3177 43.6278 57.6128 45.8128C57.3573 46.641 57.3309 46.8437 57.093 47.5485Z" fill="#F4B821"/>
<path d="M12.7751 47.7517C12.7046 47.7517 12.6429 47.7076 12.6253 47.646C12.4138 47.0204 12.1936 46.3332 11.9645 45.6371C11.2772 43.5137 10.4931 41.0996 9.7618 39.3815C8.6957 36.8881 6.40491 35.5048 4.29915 34.4739C4.21985 34.4387 4.18461 34.3418 4.22866 34.2625C4.26391 34.1832 4.36082 34.1479 4.44012 34.192C6.59875 35.2405 8.95121 36.6678 10.0614 39.2581C10.8015 40.9939 11.5856 43.408 12.2729 45.5402C12.5019 46.2362 12.7222 46.9147 12.9248 47.549C12.9513 47.6283 12.9072 47.7253 12.8279 47.7517C12.8103 47.7517 12.7927 47.7517 12.7751 47.7517Z" fill="#F89E1C"/>
<path d="M65.146 34.7026C64.7671 36.3414 64.3266 37.989 63.8244 39.619C62.7935 42.9847 60.3529 45.6632 57.0137 47.7073C57.8771 45.1257 58.5996 42.2446 59.5688 39.9626C60.723 37.2754 63.2869 35.6013 65.146 34.7026Z" fill="#032663"/>
<path d="M62.8816 39.8222C63.234 38.8706 63.56 37.919 63.8684 36.9587C62.8816 37.5931 61.8684 38.5094 61.2516 39.7869C60.5908 41.1438 60.0093 42.8178 59.4102 44.4125C60.9785 43.2055 62.1855 41.6812 62.8816 39.8222Z" fill="#0E51A0"/>
<path d="M57.2163 47.6898L56.9167 47.5929C57.2163 46.703 57.4983 45.7602 57.7714 44.8527C58.2912 43.1258 58.8375 41.3461 59.4719 39.8394C60.6172 37.1433 63.1812 35.4517 65.1195 34.5001L65.2605 34.7821C63.3662 35.7072 60.8816 37.346 59.7626 39.954C59.1282 41.443 58.5908 43.2139 58.0709 44.932C57.7978 45.8571 57.5159 46.7999 57.2163 47.6898Z" fill="#10319B"/>
<path d="M4.29907 34.7026C4.67793 36.3414 5.11847 37.989 5.62068 39.619C6.65154 42.9847 9.09211 45.6632 12.4314 47.7073C11.5679 45.1257 10.8454 42.2446 9.87626 39.9626C8.73087 37.2754 6.15813 35.6013 4.29907 34.7026Z" fill="#032663"/>
<path d="M35.6035 52.6683C35.3127 52.6683 35.0219 52.6683 34.74 52.6595C23.1715 52.8357 8.59859 49.5317 5.55008 39.6372C2.81876 30.7736 -0.256181 14.8615 9.77923 7.79528L9.86734 7.92744L9.77923 7.79528C11.5326 6.56178 15.7881 4.68509 15.9732 4.6058C16.0348 4.57055 23.4799 0.5 34.5374 0.5C45.6301 0.5 53.2513 4.50888 53.3306 4.55293C55.7888 5.46044 57.9386 6.55297 59.7008 7.79528C69.7362 14.8615 66.6612 30.7736 63.9299 39.6284C60.9519 49.285 47.0133 52.6683 35.6035 52.6683ZM34.7312 52.3423C35.0131 52.3423 35.3039 52.3511 35.5946 52.3511C46.8988 52.3511 60.6964 49.0295 63.6215 39.5403C66.3264 30.7648 69.3838 15.0113 59.5158 8.0596C57.7712 6.83491 55.6478 5.75119 53.1985 4.84369C53.1015 4.79082 45.5419 0.825997 34.5374 0.825997C23.568 0.825997 16.1846 4.8525 16.1141 4.89655C16.0613 4.92298 11.7 6.84372 9.96426 8.0596C0.0874369 15.0024 3.15357 30.7648 5.84965 39.5403C8.84529 49.2673 23.2861 52.5185 34.7312 52.3423Z" fill="#10319B"/>
<path d="M34.7401 51.0201C29.1717 51.0994 23.6122 50.4034 18.872 48.8791C18.1407 48.6412 17.4799 48.2007 17.0217 47.5839C16.2376 46.5443 15.6208 45.3196 15.2067 43.9539C13.8322 39.3195 12.2904 32.826 11.7001 25.5395C11.4093 21.9535 13.4798 18.7024 16.449 18.0063C20.502 17.0548 26.7576 15.9534 34.185 15.8389V15.8301C34.3965 15.8301 34.5991 15.8301 34.8106 15.8389C35.022 15.8389 35.2247 15.8301 35.4361 15.8301V15.8389C42.8636 15.9534 49.1104 17.0548 53.1721 18.0063C56.1502 18.7024 58.2119 21.9535 57.9211 25.5395C57.322 32.826 55.7889 39.3195 54.4144 43.9539C54.0091 45.3108 53.4012 46.5178 52.6259 47.5487C52.1853 48.139 51.5686 48.5619 50.8725 48.791C46.0619 50.3857 40.4054 51.1082 34.7401 51.0201Z" fill="#FCE8CA"/>
<path fill-rule="evenodd" clip-rule="evenodd" d="M21.3862 33.7703C21.6012 33.5003 21.9944 33.4557 22.2644 33.6707C23.2856 34.484 26.0953 36.2477 29.0309 36.7347C29.3352 36.7852 29.5572 37.0501 29.5536 37.3585C29.55 37.6669 29.322 37.9266 29.0166 37.9701C28.2948 38.0727 27.0718 38.3065 25.78 38.6709C24.4796 39.0378 23.1568 39.5241 22.2053 40.1161C21.9122 40.2985 21.5268 40.2087 21.3444 39.9156C21.1621 39.6225 21.2518 39.2371 21.5449 39.0548C22.6453 38.3701 24.1012 37.8457 25.4406 37.4679C25.7071 37.3927 25.9709 37.3228 26.2286 37.2582C24.0828 36.4579 22.2919 35.2906 21.4857 34.6485C21.2157 34.4335 21.1711 34.0403 21.3862 33.7703Z" fill="#0E51A0"/>
<path d="M26.2567 30.553C26.3015 30.5606 26.3512 30.5845 26.3908 30.6219C26.9726 31.1278 27.737 31.327 28.4939 31.1642C28.6608 31.1312 28.8196 31.235 28.8539 31.3943C28.8869 31.5612 28.7831 31.72 28.6238 31.7543C27.6838 31.9551 26.7279 31.7079 25.9986 31.0771C25.8721 30.9635 25.8578 30.7768 25.9715 30.6503C26.0328 30.561 26.1461 30.5265 26.2567 30.553Z" fill="#032663"/>
<path fill-rule="evenodd" clip-rule="evenodd" d="M47.877 33.7703C47.662 33.5003 47.2688 33.4557 46.9987 33.6707C45.9776 34.484 43.1679 36.2477 40.2323 36.7347C39.928 36.7852 39.706 37.0501 39.7096 37.3585C39.7132 37.6669 39.9412 37.9266 40.2466 37.9701C40.9684 38.0727 42.1914 38.3065 43.4832 38.6709C44.7836 39.0378 46.1064 39.5241 47.0579 40.1161C47.351 40.2985 47.7364 40.2087 47.9188 39.9156C48.1011 39.6225 48.0114 39.2371 47.7183 39.0548C46.6178 38.3701 45.162 37.8457 43.8226 37.4679C43.5561 37.3927 43.2923 37.3228 43.0346 37.2582C45.1804 36.4579 46.9713 35.2906 47.7775 34.6485C48.0475 34.4335 48.092 34.0403 47.877 33.7703Z" fill="#0E51A0"/>
<path d="M43.0067 30.553C42.9619 30.5606 42.9123 30.5845 42.8726 30.6219C42.2909 31.1278 41.5265 31.327 40.7695 31.1642C40.6027 31.1312 40.4438 31.235 40.4095 31.3943C40.3765 31.5612 40.4803 31.72 40.6397 31.7543C41.5796 31.9551 42.5355 31.7079 43.2648 31.0771C43.3913 30.9635 43.4056 30.7768 43.2919 30.6503C43.2307 30.561 43.1173 30.5265 43.0067 30.553Z" fill="#032663"/>
<path d="M30.8784 48C30.8149 47.9971 30.7513 47.9942 30.6852 47.9776C30.2167 47.8697 29.9186 47.4008 30.0197 46.9322C30.5313 44.5458 32.4548 43.0033 34.9194 43C37.3204 42.9938 39.445 44.6493 39.9768 46.9228C40.0867 47.3966 39.7961 47.8633 39.3254 47.9671C38.8546 48.071 38.3855 47.773 38.2755 47.2992C37.9807 46.0267 36.7385 44.7444 34.9385 44.7437C33.286 44.7452 32.0492 45.7303 31.71 47.3185C31.6257 47.7278 31.2777 48.0003 30.8784 48Z" fill="#0E51A0"/>
<path d="M33.6829 52.4826C27.2598 52.4826 21.2509 51.5222 16.2552 49.6896L16.22 49.6808L16.1936 49.6543C14.8896 48.2534 13.9028 46.4737 13.3301 44.5089C11.9644 39.7687 10.1847 32.3589 9.51505 23.9799C9.18905 19.9005 11.4534 16.2265 14.7927 15.4247C19.2773 14.3498 39.1896 11.1955 54.6876 15.4247C58.0093 16.3322 60.2736 20.0063 59.9564 23.9799C59.2868 32.3589 57.5159 39.7687 56.1414 44.5089C55.5863 46.4384 54.6171 48.1918 53.3572 49.575L53.3308 49.6015L53.2955 49.6191C48.0796 51.5751 41.4627 52.5971 34.6608 52.4914C34.3349 52.4826 34.0089 52.4826 33.6829 52.4826ZM34.6697 52.1566C41.4187 52.2623 47.9739 51.2491 53.1546 49.3195C54.3704 47.9715 55.3044 46.2798 55.8418 44.412C57.2075 39.6894 58.9785 32.2972 59.6393 23.9447C59.9476 20.1208 57.7802 16.5877 54.5995 15.7243C39.1631 11.5127 19.3302 14.6582 14.8632 15.7243C11.6825 16.4908 9.51505 20.0239 9.83223 23.9447C10.5018 32.2972 12.264 39.6894 13.6297 44.412C14.1847 46.3239 15.1363 48.0508 16.3962 49.4076C21.5329 51.2755 28.0176 52.2623 34.6697 52.1566Z" fill="#10319B"/>
<path d="M12.2903 47.5841C11.9995 46.7206 11.7264 45.8219 11.4621 44.9497C10.9422 43.2404 10.396 41.4783 9.75277 39.9628C8.64262 37.3548 6.14919 35.7072 4.25488 34.7909L4.39585 34.509C6.33421 35.4517 8.88932 37.1434 10.0435 39.8483C10.6955 41.3725 11.2418 43.1523 11.7616 44.8616C12.0259 45.7338 12.2991 46.6325 12.5898 47.4872L12.2903 47.5841Z" fill="#10319B"/>
<path d="M60.4851 34.6319L64.5645 32.253C64.5645 32.253 65.7275 20.5348 61.9389 15.2043L60.8463 18.5612C60.8463 18.5612 62.5997 21.1075 60.4851 34.6319Z" fill="#F4B821"/>
</svg>
