<svg width="100" height="100" viewBox="0 0 100 100" fill="none" xmlns="http://www.w3.org/2000/svg">
<path d="M75.6125 59.6382C76.3944 50.5928 67.9799 43.5104 59.2175 45.8789L55.8224 46.7947C55.7965 46.8013 55.7792 46.8057 55.7532 46.8123L47.2937 49.104L38.764 51.1189C38.738 51.1255 38.7207 51.1299 38.6947 51.1364L35.2734 51.9485C26.4387 54.0315 22.4162 64.2758 27.4127 71.8564C29.0441 74.3335 30.6965 76.6029 32.3461 78.6796C33.2657 79.9103 34.3847 81.2377 35.6034 82.5951C40.9652 88.7114 46.0873 93.0472 50.0838 96.6464C50.2379 96.7823 50.4007 96.9159 50.5613 97.0409C53.1855 99.3309 56.7216 99.8431 59.9459 98.9797C63.1857 98.2137 66.0572 96.068 67.2737 92.8045C67.3554 92.6181 67.4348 92.423 67.5056 92.2302C69.3049 87.1618 71.7431 80.9095 73.5438 72.9776C73.9687 71.2036 74.3224 69.512 74.5425 67.9832C74.9841 65.3672 75.3581 62.5934 75.6125 59.6382Z" fill="#F89E1C"/>
<path d="M65.0504 80.2599C66.2712 75.0159 60.7152 73.0364 56.2126 77.4276C50.8447 82.6549 46.7106 81.9628 40.7522 76.0715C35.9099 71.2781 31.2979 74.003 29.7391 75.1899C30.6327 76.4272 31.524 77.619 32.4173 78.7459C33.3369 79.9766 34.4559 81.304 35.6745 82.6614C41.0363 88.7777 46.1585 93.1134 50.155 96.7127C50.3091 96.8485 50.4719 96.9822 50.6324 97.1072C53.2567 99.3972 56.7928 99.9093 60.0171 99.046C63.2568 98.28 66.1284 96.1343 67.3449 92.8707C67.4266 92.6843 67.506 92.4893 67.5768 92.2964C68.1601 90.6387 68.823 88.8596 69.4941 86.9311C66.8847 87.1691 63.868 85.3284 65.0504 80.2599Z" fill="#032663"/>
<path d="M59.8408 99.2561C56.4239 100.122 52.939 99.3761 50.4905 97.2349C50.3299 97.1099 50.1672 96.9763 50.0109 96.8318C49.4378 96.3142 48.8321 95.7772 48.2135 95.2252C44.5992 92.0078 40.1144 88.0076 35.5174 82.7653C34.2227 81.3259 33.1232 80.0028 32.2493 78.8434C31.343 77.7014 30.4408 76.5031 29.5711 75.2874L29.4841 75.1622L29.6071 75.0665C31.3581 73.7297 35.9597 71.1455 40.8281 75.9691C46.9234 82.0007 50.907 82.3534 56.0677 77.3259C58.8142 74.6503 61.7679 74.4264 63.4766 75.3926C65.0465 76.2835 65.6867 78.1189 65.1744 80.311C64.6601 82.5312 64.9192 84.3159 65.9316 85.4771C66.7485 86.4115 68.0595 86.8986 69.4379 86.7793L69.6888 86.7525L69.6009 86.9866C69.2213 88.0679 68.8481 89.1015 68.4834 90.0961C68.2025 90.8762 67.9322 91.626 67.6727 92.3454C67.6041 92.5469 67.5246 92.742 67.443 92.9284C66.293 96.0186 63.5282 98.3674 60.0094 99.1949C59.9533 99.2276 59.8927 99.2429 59.8408 99.2561ZM59.9327 98.8921C63.3454 98.0823 66.0305 95.8182 67.1483 92.819C67.2277 92.6239 67.3094 92.4375 67.3715 92.2469C67.6288 91.5188 67.8991 90.769 68.1801 89.9889C68.5168 89.0658 68.8535 88.1058 69.2095 87.1134C67.8159 87.1721 66.5133 86.6461 65.6812 85.6878C64.9273 84.8202 64.1687 83.1713 64.8603 80.2341L65.0163 80.2682L64.8603 80.2341C65.3363 78.1894 64.7658 76.4835 63.3173 75.6723C61.7062 74.7642 58.9106 74.9942 56.2914 77.5546C51.0358 82.6798 46.7815 82.3128 40.6016 76.2014C36.0199 71.6734 31.6942 73.9299 29.9259 75.2343C30.7652 76.4025 31.6368 77.5533 32.5062 78.6586C33.3715 79.8202 34.4666 81.126 35.7613 82.5654C40.3453 87.7925 44.8279 91.7841 48.4313 94.995C49.05 95.5471 49.6556 96.084 50.2287 96.6016C50.3828 96.7375 50.5347 96.8647 50.6975 96.9983C53.1069 99.0942 56.5657 99.8101 59.9327 98.8921Z" fill="#10319B"/>
<path d="M18.1437 63.6593C17.7795 67.4158 17.5859 76.3488 22.2151 86.1123C22.6684 87.0653 24.0383 87.0219 24.4355 86.0466L24.749 85.2859C27.901 77.5638 25.9196 68.6942 19.7823 63.0414C19.1853 62.5023 18.2277 62.8647 18.1437 63.6593Z" fill="#F5851F"/>
<path d="M60.1605 99.1753C60.0999 99.1906 60.048 99.2038 59.9875 99.2191C56.5232 100.153 52.9496 99.4197 50.4642 97.2418C50.3036 97.1168 50.1408 96.9832 49.9845 96.8387C49.4114 96.3211 48.8058 95.7842 48.1871 95.2321C44.5729 92.0147 40.0881 88.0145 35.4911 82.7723C34.1964 81.3329 33.0968 80.0097 32.223 78.8503C30.4864 76.6483 28.8274 74.353 27.2874 72.0184C24.8664 68.3512 24.4102 63.9006 26.0288 59.8262C27.6431 55.7713 30.9971 52.8774 35.2511 51.8634L38.6638 51.0536L38.733 51.036L47.2628 49.0211L55.7223 46.7294L55.7656 46.7184L59.1866 45.796C63.4077 44.6523 67.7375 45.6078 71.0885 48.404C74.4525 51.2153 76.1716 55.3458 75.7899 59.7235C75.548 62.5098 75.1849 65.3269 74.707 68.0902C74.4996 69.5237 74.1632 71.2109 73.7019 73.0954C72.155 79.8858 70.1109 85.5503 68.4744 90.0987C68.1934 90.8788 67.9167 91.6394 67.6594 92.3675C67.5908 92.569 67.5113 92.764 67.4297 92.9504C66.2925 95.9822 63.586 98.3069 60.1605 99.1753ZM59.9064 98.8991C63.3191 98.0892 66.0042 95.8251 67.122 92.8259C67.2014 92.6309 67.283 92.4445 67.3452 92.2538C67.6025 91.5257 67.8792 90.7651 68.1602 89.985C69.7989 85.4452 71.8365 79.7917 73.3791 73.0207C73.834 71.147 74.164 69.4707 74.3822 68.0437C74.8623 65.289 75.2275 62.4806 75.463 59.7051C75.8342 55.4313 74.1588 51.4002 70.8772 48.6601C67.6087 45.935 63.37 45.0118 59.2677 46.1161L55.8813 47.0297L55.8381 47.0407L47.3525 49.339L38.8142 51.3561L38.745 51.3736L35.3236 52.1857C31.1907 53.1689 27.9036 55.9999 26.3279 59.9529C24.7501 63.9341 25.1951 68.2679 27.5574 71.8487C29.0866 74.1769 30.7455 76.4722 32.4799 78.6655C33.3451 79.8271 34.4403 81.133 35.735 82.5724C40.319 87.7995 44.8016 91.791 48.405 95.002C49.0236 95.554 49.6293 96.091 50.2024 96.6085C50.3565 96.7444 50.5084 96.8716 50.6712 97.0052C53.0892 99.0989 56.5481 99.8148 59.9064 98.8991Z" fill="#10319B"/>
<path d="M68.4292 48.4442C65.7605 47.1046 62.6856 46.6688 59.5868 47.5188L56.1853 48.4455C56.1594 48.452 56.1421 48.4564 56.1161 48.463L47.6155 50.7743L39.0403 52.7916C39.0144 52.7981 38.9971 52.8025 38.9711 52.8091L35.5389 53.6147C30.7787 54.7385 29.0649 58.8002 27.822 63.2672C27.544 64.2767 28.3265 65.2936 29.3349 65.2405C37.8309 64.7992 56.6819 61.9172 68.4292 48.4442Z" fill="#E26907"/>
<path d="M13.3671 16.5145C14.7327 14.9208 16.4669 13.4194 18.451 12.0316L18.3181 12.1007C18.3181 12.1007 24.3799 6.41431 34.897 3.74832C45.3809 1.09076 53.4732 3.06536 53.5211 3.07976C55.9953 3.34623 58.281 3.8463 60.2889 4.61147C69.9594 8.30955 72.4325 20.893 71.7978 33.5032C71.3536 42.6763 59.9397 49.6929 47.5034 52.6419C35.1641 55.9733 21.786 55.2413 17.009 47.3917C10.4459 36.6148 6.62597 24.3728 13.3671 16.5145Z" fill="#F89E1C"/>
<path d="M13.3792 16.5648C14.0962 15.7283 14.9174 14.9185 15.8155 14.1334C9.25751 22.016 13.0689 34.1894 19.5944 44.9227C24.3756 52.7889 37.7454 53.523 50.0952 50.1978C57.1645 48.5209 63.8987 45.522 68.4871 41.5628C64.1276 46.8089 56.0776 50.7607 47.5304 52.7857C35.1911 56.1171 21.8109 55.3768 17.0297 47.5106C10.4665 36.6984 6.64021 24.4314 13.3792 16.5648Z" fill="#F5851F"/>
<path d="M19.8511 26.0022C14.5556 26.2297 12.1914 18.2993 12.0862 17.9544L12.6806 17.786C12.6996 17.8608 15.0132 25.5916 19.8178 25.3824L19.8511 26.0022Z" fill="#F89E1C"/>
<path d="M58.1133 16.6222L57.8016 16.0907C62.4378 13.3671 60.6676 5.16229 60.6466 5.07915L61.2494 4.94404C61.3296 5.29533 63.1357 13.6768 58.1133 16.6222Z" fill="#F4B821"/>
<path d="M37.0774 10.7788C34.259 11.4933 31.4062 11.2343 29.4823 10.0674C29.4198 10.0301 29.3572 9.99288 29.2926 9.94733L25.765 7.55002L26.2867 6.78071L29.8122 9.1697C29.856 9.20284 29.9081 9.23387 29.9602 9.26491C31.832 10.4008 34.7198 10.5536 37.5169 9.68527C40.2309 8.83803 42.3598 7.18352 43.2126 5.27732L44.5425 2.28577L45.3904 2.66367L44.0605 5.65522C43.1024 7.8093 40.7557 9.65175 37.7882 10.5809C37.5513 10.6587 37.3185 10.7177 37.0774 10.7788Z" fill="#F4B821"/>
<path d="M37.8847 14.0355C34.1517 14.9817 30.4497 14.5841 27.74 12.9351C27.6462 12.8792 27.542 12.8171 27.4461 12.753L27.3398 12.6826L22.5009 9.40549L23.0225 8.63618L27.9595 11.9858C28.045 12.0437 28.1304 12.1017 28.2221 12.1492C30.7213 13.6658 34.1569 14.0248 37.6571 13.1376C37.9397 13.0659 38.2286 12.9838 38.5154 12.8934C42.1873 11.7414 45.0173 9.46679 46.2666 6.64608L48.1726 2.36707L49.0204 2.74496L47.1228 7.02187C45.7661 10.0822 42.7267 12.5426 38.8012 13.7766C38.4978 13.8712 38.1923 13.9575 37.8847 14.0355Z" fill="#F4B821"/>
<path d="M60.3796 6.92511C58.3697 6.15163 56.0797 5.63493 53.6055 5.36847C53.5493 5.35617 45.295 2.81212 34.8111 5.46968C27.9188 7.2168 22.1738 9.89417 19.0339 11.5395C20.901 10.0044 26.4604 5.89649 34.9074 3.75527C45.3913 1.09771 53.492 3.10557 53.5399 3.11997C56.0162 3.39475 58.304 3.90314 60.314 4.67662C68.9474 8.01823 71.8712 18.47 71.9663 29.7008C71.5183 19.347 68.434 10.0419 60.3796 6.92511Z" fill="#F4B821"/>
<path d="M58.4999 16.0887L58.368 15.8125C62.8104 13.6511 61.2017 5.17537 61.1889 5.09013L61.4924 5.03088C61.556 5.38639 63.1563 13.8289 58.4999 16.0887Z" fill="#10319B"/>
<path d="M46.681 6.81319L48.5787 2.53628C47.5175 2.46904 46.2963 2.43352 44.9484 2.45667L43.6186 5.44822C42.7183 7.48146 40.4774 9.21747 37.6429 10.1129C34.7253 11.0295 31.6897 10.8522 29.7116 9.64597C29.6491 9.60873 29.597 9.5777 29.5427 9.53836L26.0173 7.14936C24.7857 7.77123 23.6978 8.40094 22.7573 8.98441L27.5963 12.2615L27.7026 12.3319C27.7964 12.3877 27.884 12.454 27.9778 12.5099C30.5811 14.0885 34.179 14.4595 37.7624 13.5512C38.0533 13.4774 38.3505 13.3932 38.6456 13.3007C42.4423 12.1171 45.3718 9.74643 46.681 6.81319Z" fill="#032663"/>
<path d="M20.3141 25.7704C15.1413 25.9933 12.5166 17.9078 12.4031 17.565L12.6982 17.4725C12.7276 17.5535 15.3629 25.6806 20.2985 25.4647L20.3141 25.7704Z" fill="#10319B"/>
<path d="M47.4101 52.5512C41.3059 54.1959 34.9719 54.899 29.4283 54.3222C27.9274 53.3578 26.5748 51.9664 25.5456 50.2099C22.9077 45.7024 19.6041 39.302 17.0604 31.8154C15.8085 28.1333 17.0644 24.1872 19.9219 22.6842C23.8176 20.6349 29.9264 17.8565 37.4959 15.8139L37.4938 15.8055C37.7099 15.7507 37.9199 15.7064 38.136 15.6516C38.3522 15.5968 38.5579 15.5358 38.7741 15.481L38.7762 15.4893C46.4046 13.6794 52.9012 13.059 57.3028 13.005C60.5311 12.9653 63.7134 15.9899 64.3667 19.8237C65.6965 27.618 65.8408 34.8193 65.6687 40.0391C65.5982 42.0301 65.0966 43.8561 64.2697 45.4106C59.6247 48.6232 53.6355 51.0704 47.4101 52.5512Z" fill="#032663"/>
<path d="M67.4048 42.5972L66.3657 43.5596C66.4216 42.8376 66.5112 41.6203 66.5604 40.7673C66.6987 38.5202 66.8567 35.9673 67.1297 34.2169C67.5718 31.3884 70.1092 28.6925 71.8517 27.2244L71.8417 28.6161C70.2174 29.9923 68.4407 31.8141 68.0434 34.3658C67.7786 36.0786 67.6226 38.6045 67.4801 40.835C67.4371 41.6776 67.4606 41.8752 67.4048 42.5972Z" fill="#F4B821"/>
<path d="M25.6354 53.397C25.5688 53.4138 25.5001 53.387 25.4687 53.333C25.1196 52.7933 24.7473 52.1975 24.3647 51.5955C23.2083 49.7562 21.8909 47.6658 20.7899 46.2195C19.1874 44.1216 16.6949 43.3643 14.4613 42.8953C14.3781 42.881 14.3216 42.798 14.3442 42.7126C14.3585 42.6293 14.4416 42.5729 14.5269 42.5955C16.8146 43.0685 19.3759 43.8527 21.043 46.0314C22.1566 47.4922 23.474 49.5827 24.6325 51.4303C25.0151 52.0323 25.3853 52.6198 25.7282 53.1699C25.7721 53.2384 25.7537 53.3404 25.6852 53.3843C25.6665 53.3802 25.652 53.3927 25.6354 53.397Z" fill="#F89E1C"/>
<path d="M71.9311 28.5499C71.9656 30.1869 71.944 31.847 71.86 33.5052C71.6923 36.9277 70.03 40.0389 67.368 42.7665C67.5653 40.124 67.5579 37.2325 67.9265 34.8474C68.3729 32.0355 70.3939 29.8509 71.9311 28.5499Z" fill="#032663"/>
<path d="M71.0197 33.9232C71.1247 32.941 71.2047 31.9651 71.2659 30.9851C70.4865 31.8198 69.7496 32.9268 69.4732 34.2798C69.1742 35.7182 69.0259 37.437 68.842 39.0851C70.0332 37.571 70.8097 35.8522 71.0197 33.9232Z" fill="#0E51A0"/>
<path d="M67.5553 42.7022L67.2494 42.6824C67.3192 41.771 67.3598 40.814 67.4004 39.8923C67.4779 38.1385 67.5676 36.3284 67.8059 34.7549C68.2418 31.9369 70.2565 29.7274 71.8579 28.3658L72.0584 28.5981C70.4922 29.9242 68.5397 32.0649 68.1076 34.7935C67.8652 36.3503 67.7816 38.1499 67.7021 39.8955C67.6656 40.8338 67.6251 41.7908 67.5553 42.7022Z" fill="#10319B"/>
<path d="M14.5151 43.105C15.2646 44.5607 16.0744 46.0101 16.9382 47.428C18.716 50.3574 21.6597 52.301 25.2996 53.4311C23.8673 51.2017 22.4964 48.6558 21.036 46.7344C19.3124 44.4726 16.4865 43.5166 14.5151 43.105Z" fill="#032663"/>
<path d="M48.3517 52.5695C48.0774 52.639 47.803 52.7086 47.5349 52.7677C36.6525 55.7032 22.1193 56.0692 16.8759 47.4618C12.1805 39.7597 5.47283 25.4802 13.2522 16.412L13.3669 16.5156L13.2522 16.412C14.6116 14.8286 18.1783 12.0399 18.334 11.9208C18.3837 11.8728 24.4353 6.25089 34.8693 3.60597C45.3366 0.952623 53.487 2.91247 53.5724 2.93508C56.1091 3.20342 58.399 3.72011 60.3589 4.47088C71.5187 8.73821 72.4233 24.4887 71.964 33.4975C71.4616 43.3136 59.1183 49.8402 48.3517 52.5695ZM47.4507 52.4705C47.7167 52.403 47.9932 52.3418 48.2676 52.2723C58.9343 49.5683 71.1594 43.1336 71.6499 33.4798C72.1032 24.5522 71.2199 8.95553 60.2455 4.75624C58.3064 4.01789 56.0435 3.50318 53.5151 3.23273C53.411 3.20603 45.3293 1.273 34.9452 3.90527C24.5944 6.52911 18.5904 12.0947 18.5344 12.1531C18.4909 12.1907 14.8349 15.0463 13.4879 16.6088C5.8308 25.531 12.4923 39.6629 17.1354 47.2987C22.2888 55.7608 36.693 55.3744 47.4507 52.4705Z" fill="#10319B"/>
<path d="M47.1449 51.2302C41.9095 52.637 36.4969 53.31 31.6594 53.0056C30.9124 52.956 30.1835 52.6984 29.6037 52.226C28.615 51.4325 27.7401 50.4244 27.0227 49.2348C24.6172 45.1904 21.609 39.4319 19.3091 32.6974C18.177 29.3832 19.3531 25.8201 21.9884 24.4531C25.5852 22.5857 31.2246 20.0502 38.2059 18.1655L38.2038 18.1571C38.4033 18.1066 38.5945 18.0581 38.7962 18.0158C38.9957 17.9652 39.1848 17.9085 39.3843 17.8579L39.3865 17.8662C46.4225 16.1976 52.5805 15.7427 56.6409 15.669C59.6175 15.6135 62.3406 18.1882 62.924 21.6415C64.1015 28.6604 64.2081 35.1545 64.0197 39.8564C63.9618 41.2337 63.6769 42.5181 63.1918 43.6763C62.9174 44.3387 62.4365 44.8853 61.8345 45.268C57.6745 47.9152 52.5097 49.9499 47.1449 51.2302Z" fill="#FCE8CA"/>
<path d="M46.4947 52.8525C40.4339 54.3888 34.5341 54.9199 29.3817 54.3856L29.3463 54.3857L29.3151 54.3671C27.7495 53.3571 26.3926 51.9137 25.3823 50.1967C22.9598 46.0504 19.5079 39.4841 16.8718 31.7378C15.5885 27.9664 16.8463 23.9578 19.8055 22.4025C23.7802 20.3155 41.8152 12.5762 57.451 12.8598C60.8024 12.9216 63.8179 15.8468 64.4691 19.6723C65.8415 27.739 65.9428 35.1547 65.7797 39.9563C65.7174 41.9098 65.2223 43.7961 64.3643 45.4028L64.3457 45.4341L64.3166 45.4591C59.8626 48.5525 53.8633 51.0996 47.4197 52.6268C47.11 52.6965 46.8024 52.7745 46.4947 52.8525ZM47.3479 52.3088C53.7417 50.7942 59.6849 48.2701 64.112 45.2102C64.9368 43.6473 65.4135 41.8276 65.4738 39.9365C65.6329 35.1536 65.5358 27.7546 64.1614 19.7149C63.5377 16.0329 60.6474 13.2175 57.4395 13.1635C41.8661 12.8818 23.9038 20.5939 19.9437 22.6683C17.1257 24.1525 15.9256 28.0048 17.1627 31.6286C19.7925 39.3501 23.2235 45.904 25.6418 50.0336C26.6229 51.7049 27.9338 53.1068 29.4473 54.0858C34.7432 54.628 41.0962 53.9997 47.3479 52.3088Z" fill="#10319B"/>
<path d="M25.1371 53.3463C24.6562 52.601 24.1835 51.8184 23.7254 51.0585C22.8261 49.5699 21.8891 48.0378 20.9197 46.7617C19.2483 44.5663 16.5014 43.608 14.4947 43.1965L14.5603 42.8967C16.6148 43.3226 19.4305 44.3077 21.1666 46.584C22.1465 47.8664 23.0877 49.4151 23.987 50.9037C24.4451 51.6636 24.9178 52.4462 25.3966 53.1831L25.1371 53.3463Z" fill="#10319B"/>
<path d="M67.5172 29.5988L70.7975 26.3783C70.7975 26.3783 69.0919 15.0426 64.2419 10.9189L64.0139 14.3478C64.0161 14.3561 66.2775 16.3311 67.5172 29.5988Z" fill="#F4B821"/>
<path d="M27.698 32.9738C27.7452 32.9537 27.7884 32.9173 27.8195 32.8664C28.3176 32.1652 29.0915 31.7441 29.9522 31.7182C30.1423 31.7156 30.2866 31.5594 30.2758 31.3713C30.2732 31.1811 30.117 31.0368 29.9289 31.0476C28.8535 31.082 27.8867 31.6018 27.2666 32.4798C27.157 32.6364 27.1983 32.8431 27.3466 32.9547C27.4585 33.023 27.5893 33.0261 27.698 32.9738Z" fill="#032663"/>
<path d="M54.0089 26.6169C53.9577 26.6206 53.9027 26.6079 53.8518 26.5768C53.0884 26.1804 52.2077 26.1591 51.4301 26.5291C51.2598 26.6136 51.0601 26.5405 50.9837 26.3682C50.8992 26.1978 50.9724 25.9981 51.1447 25.9218C52.1171 25.4614 53.2146 25.4824 54.1672 25.9804C54.3361 26.0696 54.3938 26.2725 54.3128 26.4394C54.2526 26.5493 54.1295 26.6137 54.0089 26.6169Z" fill="#032663"/>
<path d="M37.976 39.4105C37.954 39.6065 37.9157 39.8065 37.8569 39.9941L32.2089 41.879C32.0504 41.7612 31.9044 41.6231 31.7727 41.4729L37.976 39.4105Z" fill="#0052A3"/>
<path d="M37.9925 38.6535C38.0115 38.8397 38.0121 39.0216 38.0025 39.1973L31.6331 41.3259C31.5218 41.188 31.4167 41.04 31.3178 40.8819L37.9925 38.6535Z" fill="#0052A3"/>
<path d="M37.6523 37.2447L37.8077 37.7446L30.9322 40.0388L30.7705 39.549L37.6523 37.2447Z" fill="#0052A3"/>
<path d="M37.8634 37.9376C37.9132 38.1076 37.9466 38.2816 37.9698 38.4494L31.2069 40.7077C31.1263 40.5538 31.054 40.3979 30.996 40.2298L37.8634 37.9376Z" fill="#0052A3"/>
<path d="M37.3045 41.1512C37.0772 41.4662 36.8052 41.74 36.4886 41.9725L34.4905 42.6374C34.1021 42.6445 33.7142 42.5822 33.3492 42.471L37.3045 41.1512Z" fill="#0052A3"/>
<path d="M35.5213 33.1989L30.0987 35.0119C30.1741 34.7857 30.278 34.5698 30.394 34.3684L34.9108 32.8609C35.1227 32.9484 35.3323 33.0625 35.5213 33.1989Z" fill="#0052A3"/>
<path d="M37.7856 40.2374C37.7021 40.4656 37.5982 40.6815 37.4821 40.8829L33.0371 42.3644C32.815 42.2707 32.6054 42.1566 32.4082 42.0222L37.7856 40.2374Z" fill="#0052A3"/>
<path d="M33.5292 32.5612C33.9032 32.5662 34.2645 32.6263 34.6151 32.7497L30.5635 34.1014C30.7764 33.7986 31.032 33.5287 31.3322 33.3001L33.5292 32.5612Z" fill="#0052A3"/>
<path d="M36.2925 33.9143C36.4039 34.0521 36.509 34.2001 36.5997 34.3603L29.9004 36.5946C29.8814 36.4084 29.8808 36.2265 29.8904 36.0508L36.2925 33.9143Z" fill="#0052A3"/>
<path d="M36.7025 34.5345C36.7831 34.6884 36.8554 34.8443 36.9134 35.0124L30.046 37.3046C29.9962 37.1346 29.9547 36.9625 29.9315 36.7948L36.7025 34.5345Z" fill="#0052A3"/>
<path d="M35.7291 33.3391C35.8794 33.4588 36.0255 33.5969 36.1572 33.7471L29.9149 35.8276C29.9369 35.6316 29.9671 35.4336 30.0258 35.246L35.7291 33.3391Z" fill="#0052A3"/>
<path d="M37.2007 35.8792L37.3644 36.3772L30.4888 38.6714L30.3252 38.1734L37.2007 35.8792Z" fill="#0052A3"/>
<path d="M36.9838 35.1953L37.1393 35.6953L30.2637 37.9895L30.1001 37.4915L36.9838 35.1953Z" fill="#0052A3"/>
<path d="M37.4268 36.5628L37.5905 37.0608L30.7067 39.357L30.5512 38.857L37.4268 36.5628Z" fill="#0052A3"/>
<path d="M54.5339 35.8081C54.4854 36.0019 54.4287 36.1977 54.3516 36.3811L48.5167 37.6002C48.3788 37.4601 48.2471 37.3099 48.1299 37.1475L54.5339 35.8081Z" fill="#0052A3"/>
<path d="M54.6373 35.055C54.6297 35.2389 54.6119 35.4166 54.5778 35.5982L48.0017 36.9791C47.9048 36.8291 47.8141 36.669 47.7397 36.5049L54.6373 35.055Z" fill="#0052A3"/>
<path d="M54.4546 33.6169L54.5528 34.1307L47.4567 35.6199L47.3586 35.1061L54.4546 33.6169Z" fill="#0052A3"/>
<path d="M54.5924 34.3296C54.6176 34.5056 54.6408 34.6734 54.6394 34.8471L47.6662 36.3066C47.6021 36.1487 47.5523 35.9787 47.5107 35.8066L54.5924 34.3296Z" fill="#0052A3"/>
<path d="M53.6582 37.4583C53.3984 37.7465 53.0919 37.9853 52.749 38.1808L50.6854 38.6101C50.2952 38.5743 49.9221 38.4651 49.5737 38.3152L53.6582 37.4583Z" fill="#0052A3"/>
<path d="M52.8088 29.35L47.2154 30.5281C47.3193 30.3123 47.4436 30.1089 47.58 29.9198L52.2336 28.9428C52.4432 29.0569 52.6322 29.1933 52.8088 29.35Z" fill="#0052A3"/>
<path d="M54.2493 36.6052C54.1454 36.8211 54.013 37.0265 53.8684 37.2175L49.2885 38.1767C49.0789 38.0626 48.8899 37.9262 48.7051 37.7715L54.2493 36.6052Z" fill="#0052A3"/>
<path d="M50.8996 28.4848C51.2672 28.5348 51.6302 28.6378 51.9621 28.7916L47.7774 29.6641C48.0228 29.388 48.3109 29.145 48.6292 28.9554L50.8996 28.4848Z" fill="#0052A3"/>
<path d="M53.4953 30.1469C53.5923 30.2969 53.6748 30.459 53.7491 30.6231L46.8414 32.0668C46.849 31.8829 46.8668 31.7052 46.8927 31.5256L53.4953 30.1469Z" fill="#0052A3"/>
<path d="M53.829 30.8104C53.8932 30.9683 53.9429 31.1383 53.9845 31.3103L46.8966 32.7975C46.8632 32.6235 46.8482 32.4538 46.8414 32.282L53.829 30.8104Z" fill="#0052A3"/>
<path d="M52.9953 29.5129C53.1332 29.653 53.2567 29.8052 53.374 29.9676L46.9371 31.3149C46.9857 31.1211 47.0342 30.9273 47.1113 30.7439L52.9953 29.5129Z" fill="#0052A3"/>
<path d="M54.1676 32.2124L54.272 32.7161L47.1759 34.2052L47.0716 33.7016L54.1676 32.2124Z" fill="#0052A3"/>
<path d="M54.0323 31.5087L54.1285 32.0143L47.0324 33.5035L46.9342 32.9897L54.0323 31.5087Z" fill="#0052A3"/>
<path d="M54.3112 32.9151L54.4175 33.4269L47.3195 34.9079L47.2151 34.4042L54.3112 32.9151Z" fill="#0052A3"/>
<path d="M42.6488 42.8352C42.2831 42.954 42.1725 43.6855 42.4428 44.3618C43.3353 46.5063 44.8307 47.8047 46.1052 47.4406C47.3797 47.0766 48.0352 45.1092 47.763 42.7867C47.6793 42.0668 47.2377 41.4976 46.8473 41.5885L42.6488 42.8352Z" fill="#032663"/>
<path d="M51.9736 76.9017C51.1605 77.1078 50.2883 77.1171 49.4326 76.9013C47.613 76.442 46.2212 75.0916 45.7002 73.2904L42.7487 62.9543C42.2363 61.1509 42.7062 59.2642 44.0135 57.9201C45.3185 56.5674 47.1824 56.0397 49.002 56.4991L59.5101 59.1289C61.269 59.5669 62.6368 60.8588 63.1771 62.5907C63.7174 64.3226 63.3187 66.1637 62.1241 67.516C62.0896 67.5616 62.0443 67.6007 62.0098 67.6463L61.958 67.6962L54.4299 75.4781C53.7353 76.1881 52.8819 76.6714 51.9736 76.9017ZM46.6167 57.1129C45.8209 57.3147 45.0734 57.7435 44.4673 58.3667C43.3219 59.55 42.9117 61.2006 43.3671 62.7791L46.3186 73.1152C46.774 74.6937 47.9943 75.8758 49.5864 76.2732C51.1785 76.6705 52.8198 76.2084 53.9565 75.0273L61.5365 67.1955C61.5732 67.1585 61.6098 67.1216 61.6379 67.0869C62.6815 65.9017 63.0291 64.2946 62.5522 62.7768C62.0863 61.2654 60.8878 60.133 59.3455 59.7507L48.8374 57.1208C48.0879 56.9241 47.3261 56.9331 46.6167 57.1129Z" fill="#F89E1C"/>
<path d="M51.95 76.9917C51.1455 77.1957 50.2819 77.2028 49.4263 76.987C47.6175 76.5341 46.2388 75.1989 45.7286 73.4041L42.7026 62.8107C42.1946 61.0246 42.6603 59.1574 43.9502 57.8177C45.2401 56.478 47.0955 55.9525 48.9042 56.4054L59.6679 59.0994C61.4073 59.533 62.7643 60.8186 63.3002 62.5332C63.8361 64.2478 63.4439 66.078 62.2643 67.4173C62.2299 67.4628 62.1845 67.5019 62.1501 67.5475L62.0983 67.5974L54.3803 75.5747C53.6943 76.2826 52.8583 76.7615 51.95 76.9917ZM46.4617 56.7208C45.6139 56.9357 44.8254 57.3841 44.1848 58.0529C42.9747 59.3078 42.5345 61.0581 43.014 62.7318L46.04 73.3252C46.5195 74.9988 47.8136 76.2543 49.5054 76.6816C51.1972 77.1089 52.9314 76.6141 54.1501 75.3569L61.9113 67.3318C61.9479 67.2949 61.9824 67.2494 62.0191 67.2124C63.1275 65.9556 63.4963 64.251 62.9954 62.638C62.4966 61.0337 61.2243 59.828 59.5932 59.4221L48.8295 56.7282C48.0324 56.5252 47.2229 56.5278 46.4617 56.7208Z" fill="#10319B"/>
<path d="M19.7738 63.043C19.1855 62.5017 18.2278 62.8641 18.1439 63.6587C17.8214 66.9626 17.6311 74.2745 20.7428 82.6275C18.9492 74.9347 20.258 66.8053 20.8052 64.0612C20.4686 63.7138 20.132 63.3665 19.7738 63.043Z" fill="#F89E1C"/>
<path d="M20.7418 81.1347C20.3612 81.2312 20.1101 81.2212 20.0733 81.2213L20.1037 80.5784L20.0831 80.8966L20.0928 80.5719C20.1296 80.5718 24.0813 80.4355 25.1171 71.5559L25.5906 72.7339C24.6894 79.7473 22.0307 80.808 20.7418 81.1347Z" fill="#F89E1C"/>
<path d="M21.1689 83.7619C21.1689 83.7619 24.8466 84.542 26.0856 78.8975C26.0856 78.8975 25.5861 85.6434 23.4988 86.7065C23.4988 86.7065 22.1461 87.3992 21.1689 83.7619Z" fill="#032663"/>
<path d="M23.6528 86.9152C23.549 86.9415 23.4516 86.957 23.3412 86.9573C22.7915 86.9678 22.3036 86.6772 22.066 86.1759C17.3692 76.2546 17.6465 67.107 17.9836 63.6428C18.0233 63.2185 18.2992 62.854 18.7012 62.6968C19.1033 62.5396 19.5581 62.6269 19.8729 62.9245C26.0319 68.5902 28.0397 77.6004 24.8748 85.3442L24.5613 86.1049C24.409 86.521 24.068 86.8099 23.6528 86.9152ZM18.9164 62.9645C18.8818 62.9733 18.8558 62.9798 18.8234 62.9973C18.5294 63.1086 18.3355 63.3603 18.304 63.6721C17.9712 67.1167 17.685 76.1929 22.3534 86.0386C22.5321 86.4167 22.903 86.6449 23.3337 86.637C23.7535 86.6227 24.1228 86.3726 24.2817 85.9824L24.5952 85.2217C27.7086 77.6015 25.7272 68.7319 19.6659 63.1611C19.4596 62.9649 19.1845 62.8965 18.9164 62.9645Z" fill="#10319B"/>
<path d="M22.4327 83.8104C21.6974 83.9968 21.1647 83.9293 21.1539 83.9228L21.2026 83.6066C21.3456 83.6256 24.8187 84.0709 26.0332 78.8746L26.3473 78.9515C25.5318 82.4172 23.687 83.4924 22.4327 83.8104Z" fill="#10319B"/>
<path d="M20.9159 81.2748C20.544 81.3691 20.3015 81.3569 20.2647 81.357L20.2853 81.0388C20.3221 81.0386 24.1989 81.1514 25.446 72.7062L25.7622 72.755C24.7649 79.4982 22.1443 80.9634 20.9159 81.2748Z" fill="#10319B"/>
<path d="M74.0846 48.4343C75.2482 44.8405 78.6389 36.5808 86.7841 29.4789C87.5739 28.784 88.8162 29.376 88.7887 30.4254L88.7703 31.2455C88.5755 39.5828 83.2185 46.9253 75.3274 49.6479C74.5768 49.9087 73.8404 49.2 74.0846 48.4343Z" fill="#F89E1C"/>
<path d="M75.4074 48.1222C75.4184 48.1161 75.438 48.1123 75.449 48.1062C78.3054 46.9565 80.1332 44.0974 80.0187 41.0234C79.9825 40.0024 79.7821 38.9721 79.3258 38.0272C76.3731 41.8482 75.0761 45.5527 74.568 47.3843C74.4383 47.8763 74.936 48.3136 75.4074 48.1222Z" fill="#F4B821"/>
<path d="M80.613 46.8026C85.4674 43.1758 88.5616 37.4752 88.7748 31.239L88.8018 30.4213C88.8028 30.3195 88.7902 30.2325 88.7802 30.1369L87.4462 29.213C87.233 29.2455 87.0224 29.3343 86.8354 29.5041C86.0211 30.2199 85.2498 30.9478 84.53 31.6904C87.2105 36.5464 82.9507 43.5498 80.613 46.8026Z" fill="#F5851F"/>
<path d="M83.5249 33.4723C84.5913 34.2928 86.36 36.7306 84.4269 43.3434L83.6016 44.0654C86.479 35.095 82.697 33.7113 82.6626 33.7016L82.8631 33.0905C82.895 33.1088 83.1735 33.2061 83.5249 33.4723Z" fill="#F89E1C"/>
<path d="M84.893 31.2161C84.893 31.2161 88.5751 31.9689 87.4568 37.6342C87.4568 37.6342 89.697 31.2472 88.2035 29.4436C88.2035 29.4436 87.2366 28.2709 84.893 31.2161Z" fill="#032663"/>
<path d="M88.4277 29.311C88.7705 29.5747 88.9617 29.9811 88.9569 30.4249L88.9385 31.245C88.7451 39.6104 83.3001 47.0672 75.387 49.8021C74.9756 49.9455 74.5327 49.839 74.2193 49.5371C73.9144 49.2377 73.8003 48.7882 73.9339 48.3808C75.0114 45.0594 78.4025 36.568 86.6835 29.3468C87.1017 28.9827 87.6604 28.9087 88.16 29.1426C88.2582 29.1889 88.343 29.2499 88.4277 29.311ZM74.5166 49.3708C74.728 49.5418 75.0125 49.585 75.2795 49.4935C83.059 46.8044 88.4137 39.4705 88.6161 31.2374L88.6345 30.4172C88.643 29.9931 88.4139 29.6224 88.0297 29.4396C87.6455 29.2569 87.2105 29.3195 86.9012 29.5937C78.6912 36.7608 75.317 45.1921 74.2492 48.4792C74.1557 48.7773 74.2265 49.0848 74.4515 49.306C74.4638 49.328 74.4933 49.3549 74.5166 49.3708Z" fill="#10319B"/>
<path d="M86.0618 31.6768C87.0901 32.4681 88.3455 34.1952 87.6977 37.7029L87.3812 37.6414C88.3463 32.3872 84.9872 31.4103 84.8498 31.3715L84.9371 31.0624C84.9457 31.0648 85.461 31.2104 86.0618 31.6768Z" fill="#10319B"/>
<path d="M83.6688 33.3821C84.6738 34.1575 86.4914 36.5535 84.7065 43.134L84.3973 43.0467C86.632 34.7757 83.035 33.3607 82.992 33.3486L83.1051 33.0467C83.1371 33.065 83.3641 33.1477 83.6688 33.3821Z" fill="#10319B"/>
<path d="M51.9456 74.3574C51.3228 74.5153 50.6605 74.5175 50.002 74.353C48.607 74.0069 47.5452 72.978 47.1489 71.5963L44.9375 63.8529C44.5412 62.4711 44.9044 61.0349 45.9053 60.0079C46.904 58.9722 48.3312 58.5736 49.7176 58.9218L57.5829 60.8959C58.9303 61.2356 59.9725 62.2235 60.3815 63.5468C60.7906 64.87 60.4944 66.28 59.5779 67.3133C59.5499 67.348 59.5197 67.3741 59.4917 67.4088L59.455 67.4457L53.8164 73.2756C53.2879 73.8054 52.6463 74.1798 51.9456 74.3574ZM47.9318 59.5402C47.3436 59.6893 46.8057 60.0006 46.3591 60.4544C45.5287 61.3186 45.2253 62.5187 45.5559 63.6777L47.7674 71.4211C48.098 72.5801 48.9882 73.4408 50.1579 73.7335C51.319 74.0283 52.5213 73.6868 53.3518 72.8226L59.0184 66.958C59.0486 66.9319 59.0679 66.8994 59.0895 66.8755C59.855 66.0094 60.1001 64.8333 59.7566 63.7328C59.4132 62.6322 58.5404 61.804 57.4183 61.5176L49.553 59.5436C49.0114 59.4047 48.4595 59.4065 47.9318 59.5402Z" fill="#F89E1C"/>
<path d="M59.1723 67.1302C59.2026 67.1042 59.2306 67.0694 59.2521 67.0456C60.9902 65.0767 60.0384 61.9393 57.4628 61.2941L49.7729 59.3585C47.1085 58.6897 44.7314 61.152 45.4846 63.7965L47.6414 71.3605C48.3924 73.9964 51.724 74.8274 53.6287 72.8624L59.1443 67.1649C59.1508 67.1541 59.1659 67.1411 59.1723 67.1302Z" fill="#032663"/>
<path d="M56.0472 66.6795C56.0623 66.6664 56.0752 66.6448 56.0903 66.6317C57.0715 65.5268 56.5311 63.7581 55.0754 63.3906L50.7409 62.3075C49.2376 61.9337 47.8959 63.3233 48.3272 64.8067L49.5467 69.073C49.9693 70.5585 51.8474 71.0307 52.9195 69.9212L56.0278 66.712C56.0321 66.6925 56.0386 66.6817 56.0472 66.6795Z" fill="#33FCFE"/>
<path d="M70.4781 51.0448C69.7276 52.5147 64.3512 57.1273 64.3512 57.1273C64.3512 57.1273 66.8632 58.1753 67.7464 61.5142C68.406 64.0076 66.6124 66.8467 66.6124 66.8467C69.2908 68.4785 69.4577 72.5145 68.6201 75.8201C67.7825 79.1257 69.3901 79.6204 69.3901 79.6204C69.3901 79.6204 75.1076 63.5332 73.9539 55.6046C73.4867 52.3811 70.4781 51.0448 70.4781 51.0448Z" fill="#F4B821"/>
<path d="M32.5842 76.1351C32.5842 76.1351 34.8708 75.1319 36.5611 76.425C38.2514 77.7181 49.5016 90.1394 54.3485 94.37C55.2233 95.1333 57.6716 97.8914 59.3368 96.7972C59.3368 96.7972 57.1598 98.8865 52.4581 96.0644C47.7629 93.2315 35.9348 80.1282 32.5842 76.1351Z" fill="#0E51A0"/>
<path d="M67.6383 16.0596C67.4064 16.1184 67.1607 16.0827 66.9553 15.9603C66.7498 15.8379 66.6013 15.6389 66.5425 15.4071C62.8421 0.808983 53.1226 0.817763 41.9074 3.6607L28.5584 7.04455C17.3433 9.88749 8.79328 14.5098 12.4938 29.1079C12.5525 29.3398 12.5168 29.5854 12.3944 29.7909C12.272 29.9964 12.073 30.1449 11.8412 30.2036C11.6094 30.2624 11.3637 30.2267 11.1582 30.1043C10.9527 29.9819 10.8043 29.7829 10.7455 29.5511C6.80126 13.9915 15.9298 8.38517 28.1153 5.29627L41.4643 1.91243C53.6497 -1.17647 64.3466 -0.595734 68.2908 14.9639C68.3496 15.1957 68.3138 15.4414 68.1915 15.6469C68.0691 15.8524 67.8701 16.0009 67.6383 16.0596Z" fill="#007BE0"/>
<path d="M40.6622 49.6173L31.2304 52.0082C30.1732 52.2762 29.5334 53.3505 29.8014 54.4078C30.0694 55.465 31.1437 56.1048 32.201 55.8368L41.6328 53.446C42.69 53.1779 43.3298 52.1036 43.0618 51.0463C42.7938 49.9891 41.7195 49.3493 40.6622 49.6173Z" fill="#007BE0"/>
<path d="M24.4832 56.6582C20.2787 57.724 19.6729 57.645 18.9211 57.1379C16.9657 55.7729 11.6184 48.6255 11.3355 47.7298C11.3014 47.6156 11.3129 47.4926 11.3676 47.3868C11.4223 47.281 11.516 47.2005 11.6289 47.1623C11.6861 47.1427 11.7466 47.1351 11.8069 47.1398C11.8671 47.1446 11.9258 47.1617 11.9792 47.19C12.0326 47.2183 12.0796 47.2573 12.1173 47.3045C12.155 47.3517 12.1827 47.4061 12.1985 47.4645C12.9346 49.8176 18.0034 55.4262 19.4304 56.3948C20.596 57.0296 30.5031 54.2764 42.1546 50.4762C42.2687 50.4444 42.3907 50.4569 42.496 50.5114C42.6013 50.5658 42.682 50.6581 42.722 50.7696C42.7401 50.8262 42.7469 50.8857 42.7419 50.9448C42.737 51.004 42.7204 51.0616 42.6931 51.1143C42.6659 51.167 42.6285 51.2138 42.5831 51.252C42.5377 51.2903 42.4852 51.3192 42.4286 51.3371C39.927 52.148 31.2402 54.9454 24.4832 56.6582Z" fill="#007BE0"/>
<path d="M41.7434 53.8828L32.3116 56.2736C31.688 56.4317 31.0271 56.3356 30.4743 56.0064C29.9216 55.6772 29.5223 55.1419 29.3642 54.5183C29.2061 53.8947 29.3022 53.2338 29.6314 52.681C29.9606 52.1283 30.4959 51.7289 31.1195 51.5708L40.5513 49.18C41.1749 49.0219 41.8358 49.118 42.3886 49.4472C42.9413 49.7764 43.3407 50.3117 43.4988 50.9353C43.6568 51.5589 43.5607 52.2198 43.2315 52.7726C42.9023 53.3253 42.3671 53.7247 41.7434 53.8828ZM31.3411 52.445C30.9493 52.5443 30.613 52.7952 30.4062 53.1424C30.1994 53.4897 30.139 53.9049 30.2383 54.2967C30.3376 54.6885 30.5885 55.0248 30.9358 55.2316C31.283 55.4384 31.6983 55.4988 32.09 55.3995L41.5218 53.0086C41.9136 52.9093 42.2499 52.6584 42.4567 52.3112C42.6636 51.9639 42.724 51.5487 42.6246 51.1569C42.5253 50.7651 42.2744 50.4288 41.9272 50.222C41.5799 50.0152 41.1647 49.9548 40.7729 50.0541L31.3411 52.445Z" fill="#007BE0"/>
<path d="M7.39447 23.905L11.564 22.848L18.6547 50.82L14.4939 51.8747C12.3795 52.4107 10.1389 52.0848 8.26489 50.9687C6.39087 49.8527 5.03696 48.0379 4.501 45.9235L1.45867 33.9218C1.18947 32.8743 1.12953 31.784 1.28227 30.7133C1.43501 29.6426 1.79743 28.6126 2.34879 27.6821C2.90015 26.7517 3.62962 25.9391 4.49543 25.291C5.36124 24.6429 6.34639 24.1719 7.39447 23.905Z" fill="#002E6D"/>
<path d="M75.0876 35.7349L70.9267 36.7897L63.8361 8.81769L67.9969 7.76296C69.0438 7.49758 70.1327 7.441 71.2015 7.59646C72.2703 7.75191 73.2979 8.11635 74.2259 8.66897C75.1538 9.22159 75.9638 9.95156 76.6096 10.8172C77.2554 11.6829 77.7244 12.6672 77.9898 13.7141L81.0365 25.7334C81.3032 26.7807 81.3609 27.8703 81.2062 28.94C81.0515 30.0096 80.6875 31.0383 80.135 31.9672C79.5825 32.8961 78.8524 33.7069 77.9863 34.3534C77.1202 34.9999 76.1352 35.4694 75.0876 35.7349V35.7349Z" fill="#002E6D"/>
<path d="M82.8642 27.3057C74.0837 27.4464 66.878 22.0849 66.7698 15.3307C66.6616 8.57641 73.692 2.98701 82.4725 2.8464C91.2531 2.70579 98.4588 8.06721 98.5669 14.8215C98.6751 21.5757 91.6448 27.1651 82.8642 27.3057Z" fill="#FFF7D7"/>
<path d="M80.2502 16.963C80.3501 15.5649 81.0382 14.7398 82.7578 13.8757C84.3048 13.1141 84.7805 12.6675 84.8369 11.8871C84.9035 10.9512 84.1331 10.3147 82.8553 10.2202C81.8752 10.1485 81.1005 10.4817 80.5956 11.1687C80.0178 11.955 79.1991 12.6978 78.2338 12.5553C77.3033 12.4179 76.617 11.5539 76.9483 10.6736C77.8539 8.26705 80.142 6.90435 83.1025 7.12267C86.2837 7.35696 88.4687 9.4292 88.2828 12.0195C88.1706 13.6011 87.3081 14.6666 85.3632 15.6519C83.7869 16.481 83.4119 16.8443 83.354 17.6472C83.322 18.0906 82.9366 18.4242 82.4932 18.3923L81.4209 18.3152C80.7242 18.265 80.2001 17.6597 80.2502 16.963ZM79.6917 21.564C79.7646 20.5836 80.6179 19.8475 81.5984 19.9194L81.7505 19.9305C82.7307 20.0023 83.4676 20.8544 83.3973 21.8347C83.3268 22.818 82.4711 23.5571 81.4881 23.4839L81.336 23.4725C80.3549 23.3995 79.6188 22.5451 79.6917 21.564Z" fill="#002E6D"/>
<path d="M65.089 14.3638C65.1991 14.347 65.305 14.3069 65.4029 14.2451C65.6184 14.1317 65.7917 13.9181 65.8944 13.6395C65.997 13.3609 66.0229 13.034 65.9676 12.7127C65.8982 12.3537 65.7472 12.0235 65.5368 11.771C65.3264 11.5184 65.0678 11.3568 64.7991 11.31C64.6997 11.2909 64.6001 11.2891 64.5028 11.3048C64.3495 11.3237 64.2042 11.3876 64.0768 11.4923C63.9494 11.597 63.8429 11.7399 63.7644 11.9114C63.686 12.0829 63.6375 12.279 63.6223 12.4861C63.6071 12.6933 63.6255 12.9068 63.6762 13.112C63.7327 13.3442 63.826 13.5612 63.9492 13.7468C64.0724 13.9324 64.2223 14.082 64.3878 14.1845C64.6103 14.3333 64.8538 14.3956 65.089 14.3638Z" fill="#FFF7D7"/>
<path d="M61.9114 15.8856C61.9712 15.8763 62.03 15.861 62.0866 15.8398C62.2563 15.7863 62.4008 15.6737 62.4935 15.523C62.5862 15.3723 62.6207 15.1937 62.5907 15.0201C62.5615 14.8349 62.4671 14.666 62.3242 14.5433C62.1813 14.4206 61.999 14.3519 61.8096 14.3494C61.6666 14.3352 61.5225 14.365 61.3968 14.4346C61.2712 14.5043 61.1701 14.6104 61.1072 14.7387C61.0398 14.8949 61.0197 15.0671 61.0496 15.2341C61.0794 15.4011 61.1578 15.5558 61.2752 15.679C61.3553 15.7634 61.4554 15.8265 61.5665 15.8625C61.6776 15.8986 61.7962 15.9066 61.9114 15.8856Z" fill="#FFF7D7"/>
</svg>
