<svg width="100" height="100" viewBox="0 0 100 100" fill="none" xmlns="http://www.w3.org/2000/svg">
<mask id="mask0_2017_44242" style="mask-type:alpha" maskUnits="userSpaceOnUse" x="0" y="0" width="100" height="100">
<rect width="100" height="100" fill="#D9D9D9"/>
</mask>
<g mask="url(#mask0_2017_44242)">
<path d="M74.6542 65.3999C77.5925 56.9455 71.2671 48.1392 62.3201 48.28L58.8538 48.3328C58.8274 48.3328 58.8098 48.3328 58.7835 48.3328L50.1443 48.4735L41.5051 48.3328C41.4788 48.3328 41.4612 48.3328 41.4348 48.3328L37.9685 48.28C29.0215 48.1392 22.6961 56.9455 25.6344 65.3999C26.5934 68.1624 27.6227 70.7312 28.696 73.1154C29.2766 74.5142 30.0244 76.0537 30.8602 77.6461C34.5023 84.7897 38.3468 90.1737 41.294 94.5813C41.4084 94.7484 41.5315 94.9156 41.6547 95.074C43.6078 97.898 46.8628 99.244 50.1531 99.2C53.4346 99.2528 56.6984 97.898 58.6515 95.074C58.7747 94.9156 58.8978 94.7484 59.0122 94.5813C61.9594 90.1737 65.8039 84.7897 69.446 77.6461C70.2818 76.0537 71.0296 74.523 71.6102 73.1154C72.6659 70.7224 73.6952 68.1624 74.6542 65.3999Z" fill="#F89E1C"/>
<path d="M59.5665 82.5454C62.0034 77.8299 57.1736 74.5924 51.8071 77.698C45.4113 81.3929 41.6284 79.7302 37.3616 72.657C33.8954 66.9034 28.828 68.3902 27.0509 69.1468C27.6051 70.5456 28.1682 71.9004 28.7488 73.1936C29.3295 74.5924 30.0772 76.132 30.913 77.7244C34.5552 84.8679 38.3997 90.252 41.3469 94.6596C41.4612 94.8267 41.5844 94.9939 41.7076 95.1522C43.6606 97.9762 46.9157 99.3223 50.206 99.2783C53.4874 99.3311 56.7513 97.9762 58.7043 95.1522C58.8275 94.9939 58.9507 94.8267 59.065 94.6596C60.024 93.2168 61.0885 91.6772 62.197 89.9969C59.6457 89.5834 57.2088 87.1025 59.5665 82.5454Z" fill="#032663"/>
<path d="M49.9861 99.4267C46.5111 99.4267 43.3616 97.8696 41.5405 95.2303C41.4173 95.072 41.2942 94.9048 41.1798 94.7289C40.7575 94.0954 40.3089 93.4356 39.8514 92.7582C37.1769 88.8081 33.8603 83.8991 30.7372 77.7761C29.8486 76.0869 29.1184 74.5562 28.5642 73.2365C27.9747 71.9257 27.4029 70.5621 26.8663 69.1897L26.8135 69.0489L26.9542 68.9873C28.9513 68.134 33.9747 66.7792 37.4585 72.5679C41.822 79.8083 45.5434 81.1103 51.6928 77.5561C54.9655 75.6647 57.8423 76.1661 59.2411 77.5033C60.5255 78.735 60.6927 80.644 59.6722 82.6147C58.6429 84.6117 58.4581 86.38 59.1443 87.7348C59.6986 88.8257 60.8335 89.6087 62.1795 89.8286L62.4258 89.8638L62.285 90.0662C61.6604 91.0075 61.0534 91.9049 60.464 92.767C60.0065 93.4444 59.5666 94.0954 59.1443 94.7201C59.03 94.896 58.9068 95.0632 58.7836 95.2215C56.9362 97.896 53.7251 99.4707 50.1621 99.4091C50.1005 99.4267 50.0389 99.4267 49.9861 99.4267ZM50.1621 99.11C53.6195 99.1628 56.7338 97.6496 58.5285 95.0544C58.6517 94.8872 58.7748 94.7289 58.8804 94.5617C59.3027 93.9283 59.7426 93.2773 60.2 92.5999C60.7455 91.7993 61.2997 90.9635 61.8804 90.1014C60.5343 89.8198 59.4171 89.0017 58.854 87.8844C58.3438 86.8727 58.0182 85.1132 59.3907 82.4739L59.5314 82.5443L59.3907 82.4739C60.3408 80.6352 60.2088 78.8669 59.0212 77.7409C57.7015 76.4828 54.9743 76.0253 51.8512 77.8376C45.5874 81.4622 41.6109 80.081 37.1857 72.7439C33.9043 67.307 29.224 68.4155 27.2182 69.2337C27.7372 70.5533 28.2915 71.8641 28.8545 73.131C29.3999 74.4506 30.1301 75.9638 31.0187 77.6529C34.133 83.7584 37.4497 88.6586 40.1153 92.5999C40.5728 93.2773 41.0215 93.9371 41.4437 94.5705C41.5581 94.7377 41.6725 94.896 41.7956 95.0632C43.5903 97.6496 46.7222 99.1716 50.1621 99.11Z" fill="#10319B"/>
<path d="M18.763 55.3194C17.5049 58.8208 15.156 67.3104 17.2058 77.7618C17.4081 78.7823 18.7278 79.0726 19.3436 78.2369L19.8275 77.5859C24.7101 70.9701 24.9652 62.0143 20.4697 55.1258C20.0386 54.4572 19.0357 54.5716 18.763 55.3194Z" fill="#F5851F"/>
<path d="M50.3114 99.4288C50.2498 99.4288 50.197 99.4288 50.1355 99.4288C46.5989 99.4816 43.3614 97.9157 41.5139 95.2324C41.3907 95.0741 41.2676 94.9069 41.1532 94.731C40.7309 94.0976 40.2822 93.4377 39.8248 92.7603C37.1503 88.8102 33.8337 83.9012 30.7106 77.7782C29.822 76.0891 29.0918 74.5583 28.5376 73.2387C27.4115 70.7138 26.3822 68.1185 25.476 65.5144C24.0508 61.4236 24.6931 57.06 27.2267 53.5586C29.7516 50.0748 33.6577 48.1218 37.9685 48.1833L41.4259 48.2361H41.4963L50.1355 48.3769L58.7746 48.2361H58.8186L62.3112 48.1833C66.622 48.113 70.5281 50.0748 73.053 53.5586C75.5867 57.06 76.2289 61.4236 74.8037 65.5144C73.8975 68.1185 72.8682 70.7226 71.7421 73.2475C71.1967 74.5671 70.4665 76.0979 69.5692 77.787C66.446 83.9012 63.1206 88.8191 60.4549 92.7691C59.9975 93.4465 59.5488 94.1063 59.1265 94.7398C59.0121 94.9157 58.889 95.0829 58.7658 95.2412C56.9447 97.8717 53.7952 99.4288 50.3114 99.4288ZM50.1355 99.1121C53.5929 99.1649 56.7072 97.6518 58.5019 95.0565C58.6251 94.8893 58.7482 94.731 58.8538 94.5638C59.2761 93.9304 59.7248 93.2706 60.1822 92.5932C62.8479 88.6519 66.1645 83.7429 69.2788 77.6462C70.1674 75.9659 70.8888 74.4439 71.443 73.1331C72.5691 70.617 73.5984 68.0217 74.4958 65.4265C75.8858 61.4324 75.2612 57.1744 72.7891 53.761C70.3258 50.3651 66.4988 48.4561 62.3112 48.5177L58.8538 48.5704H58.8098L50.1443 48.7112L41.4963 48.5704H41.4259L37.9597 48.5177C33.7721 48.4561 29.9452 50.3651 27.4819 53.761C25.0098 57.1832 24.3851 61.4324 25.7752 65.4265C26.6725 68.0217 27.7018 70.617 28.8279 73.1331C29.3733 74.4527 30.1035 75.9659 30.9921 77.655C34.1064 83.7605 37.4231 88.6607 40.0887 92.602C40.5462 93.2794 40.9948 93.9392 41.4171 94.5726C41.5315 94.7398 41.6459 94.8981 41.769 95.0653C43.5725 97.6518 46.7044 99.1737 50.1355 99.1121Z" fill="#10319B"/>
<path d="M70.5015 52.9598C68.2757 51.0332 65.4429 49.8719 62.2758 49.9335L58.8008 49.9951C58.7744 49.9951 58.7568 49.9951 58.7304 49.9951L50.0473 50.1446L41.3642 49.9951C41.3378 49.9951 41.3202 49.9951 41.2938 49.9951L37.8188 49.9335C32.9977 49.8543 30.3761 53.3205 28.1063 57.2882C27.596 58.1855 28.0975 59.3468 29.074 59.5404C37.2997 61.1679 56.012 62.989 70.5015 52.9598Z" fill="#E26907"/>
<path d="M47.8828 76.1678C47.0558 76.1678 46.22 75.9655 45.4547 75.552C43.8271 74.6722 42.8242 73.0447 42.7626 71.1972L42.4459 60.605C42.3931 58.7576 43.2993 57.0684 44.874 56.1007C46.4488 55.1242 48.3578 55.0714 49.9854 55.9511L59.3899 61.0097C60.9647 61.8543 61.9588 63.4202 62.0556 65.2061C62.1523 66.992 61.3254 68.6548 59.8562 69.6577C59.8122 69.6929 59.7594 69.7193 59.7154 69.7544L59.6538 69.7896L50.5748 75.4024C49.7391 75.9039 48.8065 76.1678 47.8828 76.1678ZM47.5573 55.96C46.7479 55.96 45.9297 56.1887 45.1995 56.6374C43.8183 57.4907 43.0265 58.9687 43.0793 60.5874L43.396 71.1796C43.4488 72.7984 44.3286 74.2236 45.7538 74.989C47.179 75.7543 48.8593 75.7104 50.2317 74.857L59.3723 69.209C59.4163 69.1826 59.4603 69.1562 59.4955 69.1298C60.7799 68.2501 61.5013 66.7985 61.4134 65.2325C61.3342 63.6754 60.4632 62.3029 59.082 61.564L49.6775 56.5054C49.0089 56.1359 48.2787 55.96 47.5573 55.96Z" fill="#F89E1C"/>
<path d="M47.8392 76.248C47.021 76.248 46.194 76.0457 45.4287 75.6322C43.8099 74.7613 42.8158 73.1513 42.763 71.3126L42.4375 60.4565C42.3847 58.6266 43.2821 56.9551 44.8392 55.9874C46.3964 55.0197 48.2966 54.9669 49.9154 55.8378L59.5487 61.0284C61.1058 61.8641 62.0911 63.4213 62.1879 65.1896C62.2847 66.9579 61.4665 68.6118 60.0149 69.6059C59.9709 69.6411 59.9182 69.6675 59.8742 69.7027L59.8126 69.7379L50.5048 75.4915C49.6779 75.9929 48.7629 76.248 47.8392 76.248ZM47.5049 55.5475C46.6427 55.5475 45.7806 55.785 45.0064 56.2689C43.546 57.175 42.7014 58.741 42.7542 60.4565L43.0797 71.3126C43.1325 73.0282 44.065 74.5413 45.5782 75.3595C47.0914 76.1777 48.8685 76.1249 50.3377 75.2187L59.6982 69.43C59.7422 69.4036 59.7862 69.3684 59.8302 69.342C61.1938 68.4095 61.9592 66.8699 61.8712 65.2072C61.7832 63.5532 60.8595 62.0929 59.3991 61.3099L49.7658 56.1193C49.0532 55.741 48.2791 55.5475 47.5049 55.5475Z" fill="#10319B"/>
<path d="M20.4703 55.1242C20.0392 54.4644 19.0363 54.5788 18.7635 55.3178C17.6551 58.3969 15.702 65.3381 16.6521 74.0741C16.8017 66.2883 20.0216 58.8368 21.2093 56.3471C20.9717 55.9336 20.7342 55.5201 20.4703 55.1242Z" fill="#F89E1C"/>
<path d="M17.0127 72.6489C16.6256 72.6489 16.3881 72.5786 16.3529 72.5698L16.5377 71.9627L16.4409 72.2619L16.5289 71.9539C16.564 71.9627 20.3734 72.7897 23.5141 64.5552L23.6812 65.7957C21.1212 72.2795 18.3235 72.6489 17.0127 72.6489Z" fill="#F89E1C"/>
<path d="M16.7843 75.262C16.7843 75.262 20.1098 76.8984 22.661 71.8046C22.661 71.8046 20.5496 78.13 18.2975 78.6403C18.2975 78.6403 16.8371 78.9658 16.7843 75.262Z" fill="#032663"/>
<path d="M18.394 78.8769C18.2884 78.8769 18.1916 78.8681 18.086 78.8417C17.5582 78.7186 17.1623 78.3227 17.0567 77.786C14.9717 67.1674 17.4526 58.4931 18.6139 55.2644C18.7547 54.8685 19.1066 54.587 19.5288 54.5342C19.9511 54.4814 20.3646 54.675 20.5933 55.0357C25.1065 61.9417 24.8425 71.0384 19.9423 77.6717L19.4585 78.3227C19.2121 78.6746 18.8162 78.8769 18.394 78.8769ZM19.6696 54.8421C19.6344 54.8421 19.608 54.8421 19.5728 54.8509C19.2649 54.8861 19.0186 55.0797 18.913 55.37C17.7605 58.5811 15.2972 67.185 17.3646 77.7245C17.4438 78.1291 17.7429 78.4371 18.1564 78.5338C18.5611 78.6218 18.9746 78.4722 19.2209 78.1379L19.7048 77.4869C24.5258 70.9592 24.7809 62.0033 20.3382 55.2116C20.1886 54.9741 19.9423 54.8421 19.6696 54.8421Z" fill="#10319B"/>
<path d="M17.9801 75.605C17.2323 75.605 16.7396 75.4115 16.7308 75.4027L16.854 75.1123C16.986 75.1651 20.1971 76.432 22.6164 71.7605L22.8979 71.9101C21.2791 75.0244 19.2557 75.605 17.9801 75.605Z" fill="#10319B"/>
<path d="M17.1442 72.8251C16.7659 72.8251 16.5371 72.7547 16.502 72.7459L16.5987 72.4468C16.6339 72.4556 20.3113 73.5025 23.5488 65.7343L23.8391 65.8575C21.2526 72.0597 18.3934 72.8251 17.1442 72.8251Z" fill="#10319B"/>
<path d="M48.4723 73.7302C47.8388 73.7302 47.2054 73.5718 46.616 73.2551C45.3667 72.5865 44.6014 71.3461 44.5574 69.9297L44.3198 61.9943C44.2759 60.5779 44.9709 59.2935 46.1761 58.5545C47.3814 57.8067 48.8418 57.7715 50.0822 58.4401L57.1202 62.2318C58.3255 62.8829 59.0821 64.0793 59.1524 65.4429C59.2228 66.8065 58.5982 68.0822 57.4721 68.8476C57.4369 68.874 57.4017 68.8916 57.3665 68.9179L57.3226 68.9443L50.5221 73.1495C49.8887 73.5278 49.1849 73.7302 48.4723 73.7302ZM48.2259 58.5985C47.6277 58.5985 47.0383 58.7656 46.5016 59.0911C45.4987 59.7157 44.9181 60.789 44.9533 61.9767L45.1908 69.9121C45.226 71.0997 45.8682 72.1378 46.9151 72.7009C47.9532 73.2639 49.1849 73.2287 50.1878 72.6041L57.0234 68.3725C57.0586 68.3549 57.085 68.3285 57.1114 68.3109C58.0528 67.6687 58.5718 66.6042 58.5102 65.4693C58.4486 64.3344 57.8152 63.3315 56.8123 62.7861L49.7743 58.9944C49.2904 58.7304 48.7626 58.5985 48.2259 58.5985Z" fill="#F89E1C"/>
<path d="M57.1296 68.5771C57.1648 68.5595 57.2 68.5331 57.2264 68.5155C59.3642 67.0551 59.2146 63.8264 56.9097 62.586L50.03 58.8734C47.6459 57.589 44.7779 59.3661 44.8571 62.0757L45.0858 69.8263C45.165 72.5272 48.1473 74.1283 50.4435 72.7119L57.0944 68.6035C57.1032 68.5947 57.1208 68.5859 57.1296 68.5771Z" fill="#032663"/>
<path d="M54.2523 67.3777C54.2699 67.3689 54.2875 67.3513 54.3051 67.3425C55.5103 66.5244 55.4224 64.7033 54.1203 63.9995L50.2406 61.9145C48.8946 61.1931 47.2759 62.196 47.3287 63.718L47.4606 68.0903C47.5046 69.6123 49.1849 70.5184 50.4782 69.7179L54.2259 67.4041C54.2347 67.3953 54.2435 67.3865 54.2523 67.3777Z" fill="#33FCFE"/>
<path d="M71.8303 55.9431C70.757 57.1659 64.502 60.2714 64.502 60.2714C64.502 60.2714 66.6486 61.8814 66.6838 65.286C66.7101 67.8285 64.3084 70.107 64.3084 70.107C66.4726 72.3152 65.6544 76.2125 64.0533 79.1685C62.4522 82.1244 63.8685 82.9866 63.8685 82.9866C63.8685 82.9866 73.2291 68.9986 74.0473 61.1424C74.3816 57.9489 71.8303 55.9431 71.8303 55.9431Z" fill="#F4B821"/>
<path d="M29.5403 70.741C29.5403 70.741 31.9684 70.3363 33.2704 71.9814C34.5725 73.6265 42.3143 88.2216 45.9212 93.4386C46.5723 94.3799 48.2438 97.6086 50.1001 96.9664C50.1001 96.9664 47.5136 98.4355 43.7043 94.5998C39.9037 90.7553 31.7749 75.3685 29.5403 70.741Z" fill="#0E51A0"/>
<path d="M23.769 8.83022C25.5746 7.5573 27.7322 6.47396 30.1156 5.57117L29.9621 5.60728C29.9621 5.60728 37.6177 1.37323 49.0379 1.37323C60.422 1.37323 68.1679 5.4809 68.213 5.50798C70.6686 6.41979 72.8714 7.52119 74.7221 8.82119C83.6326 15.0955 82.9013 28.5741 78.9923 41.2763C76.1666 50.5208 62.7061 54.7277 49.2546 54.5201C35.8031 54.7277 22.3426 50.5208 19.4989 41.2763C15.5898 28.5831 14.8586 15.1046 23.769 8.83022Z" fill="#F89E1C"/>
<path d="M23.769 8.87579C24.7169 8.20773 25.7642 7.59384 26.8836 7.02509C18.1537 13.3717 18.894 26.778 22.7759 39.417C25.6197 48.6795 39.0712 52.8865 52.5317 52.6879C60.1783 52.8052 67.8248 51.4872 73.5304 48.6344C67.7255 52.8594 58.4901 54.8094 49.2456 54.665C35.7941 54.8726 22.3336 50.6566 19.4898 41.3941C15.5898 28.6738 14.8585 15.1682 23.769 8.87579Z" fill="#F5851F"/>
<path d="M27.9307 20.1789C22.4689 19.0414 22.1078 10.3386 22.0897 9.9594L22.7397 9.94135C22.7397 10.0226 23.1008 18.5088 28.0571 19.5379L27.9307 20.1789Z" fill="#F89E1C"/>
<path d="M69.3954 20.5123L69.2148 19.8894C74.6496 18.3095 74.9656 9.48029 74.9656 9.39001L75.6156 9.40807C75.6065 9.78724 75.2815 18.806 69.3954 20.5123Z" fill="#F4B821"/>
<path d="M49.444 9.11017C46.3835 9.11017 43.5397 8.10808 41.8786 6.41988C41.8245 6.36571 41.7703 6.31154 41.7161 6.24835L38.7369 2.88999L39.4682 2.23999L42.4474 5.58932C42.4835 5.63446 42.5286 5.6796 42.5738 5.72473C44.1898 7.3678 47.0967 8.27058 50.1752 8.10808C53.1634 7.94558 55.7634 6.80807 57.1266 5.08376L59.2572 2.37541L60.0246 2.98027L57.894 5.68862C56.3683 7.63864 53.4975 8.90253 50.2294 9.08309C49.9585 9.10115 49.7058 9.11017 49.444 9.11017Z" fill="#F4B821"/>
<path d="M49.4261 12.6403C45.3726 12.6403 41.6982 11.277 39.36 8.8937C39.2788 8.81245 39.1885 8.72217 39.1073 8.63189L39.017 8.53259L34.9274 3.93742L35.6586 3.28741L39.8295 7.98189C39.9017 8.06314 39.9739 8.14439 40.0552 8.21661C42.2128 10.4013 45.6344 11.6652 49.4261 11.6652C49.733 11.6652 50.049 11.6562 50.365 11.6382C54.4094 11.4125 57.8852 9.82357 59.8893 7.26869L62.9317 3.39575L63.6991 4.00061L60.6567 7.87355C58.481 10.6451 54.7435 12.3694 50.4191 12.6132C50.0941 12.6312 49.7601 12.6403 49.4261 12.6403Z" fill="#F4B821"/>
<path d="M74.2164 11.2045C72.3657 9.8955 70.1629 8.77605 67.7073 7.86424C67.6532 7.83716 59.8892 3.10657 48.5051 3.10657C41.012 3.09755 34.4668 4.35242 30.8376 5.21006C33.1397 4.12672 39.8745 1.37323 49.0468 1.37323C60.4309 1.37323 68.1768 5.51701 68.2219 5.54409C70.6775 6.46493 72.8803 7.57535 74.731 8.88439C82.6755 14.5268 82.9553 25.947 80.1477 37.4304C82.3685 26.7595 81.6282 16.4678 74.2164 11.2045Z" fill="#F4B821"/>
<path d="M69.9279 20.0698L69.8647 19.7538C74.9564 18.6976 75.5071 9.63361 75.5162 9.54333L75.8412 9.56139C75.8141 9.94056 75.2634 18.9594 69.9279 20.0698Z" fill="#10319B"/>
<path d="M60.2686 7.54006L63.311 3.66711C62.2457 3.32406 61.0089 2.97197 59.6276 2.64697L57.4971 5.35532C56.0526 7.197 53.3172 8.38867 50.1935 8.56923C46.9796 8.74979 43.9282 7.78381 42.222 6.04143C42.1678 5.98727 42.1226 5.94213 42.0775 5.88796L39.0983 2.53864C37.681 2.85461 36.408 3.21572 35.2976 3.56781L39.3872 8.16298L39.4775 8.26228C39.5587 8.34353 39.631 8.43381 39.7122 8.51506C41.9602 10.7991 45.5352 12.1081 49.4262 12.1081C49.7421 12.1081 50.0671 12.0991 50.3921 12.0811C54.572 11.8644 58.1741 10.2033 60.2686 7.54006Z" fill="#032663"/>
<path d="M28.4631 20.0708C23.1277 18.9604 22.5409 10.0319 22.5138 9.6527L22.8388 9.63464C22.8478 9.72492 23.4346 18.6986 28.5263 19.7548L28.4631 20.0708Z" fill="#10319B"/>
<path d="M49.1822 54.4029C42.5287 54.5022 35.8842 53.5814 30.3772 51.5592C29.0953 50.1869 28.0751 48.4175 27.4793 46.3591C25.9536 41.0779 24.2383 33.6931 23.5793 25.3965C23.2543 21.3159 25.5564 17.6145 28.8605 16.8201C33.3654 15.7367 40.3169 14.4819 48.5683 14.3555V14.3464C48.803 14.3464 49.0287 14.3555 49.2634 14.3555C49.4982 14.3555 49.7239 14.3464 49.9586 14.3464V14.3555C58.21 14.4819 64.999 15.5291 69.5038 16.6124C72.808 17.4069 75.2726 21.3159 74.9476 25.3965C74.2886 33.6931 72.5733 41.0779 71.0476 46.3591C70.4608 48.3723 69.4768 50.1057 68.2309 51.4779C62.6608 53.5543 55.917 54.5022 49.1822 54.4029Z" fill="#032663"/>
<path d="M72.1579 49.4193L70.8489 50.1325C71.0926 49.4102 71.4989 48.1915 71.7697 47.3338C72.4919 45.0769 73.3135 42.513 74.0447 40.7977C75.2274 38.0261 78.5135 35.9317 80.6712 34.8845L80.301 36.3018C78.2878 37.2859 76.0038 38.6852 74.9385 41.1859C74.2253 42.8651 73.4128 45.4019 72.6906 47.6408C72.4288 48.4894 72.4017 48.697 72.1579 49.4193Z" fill="#F4B821"/>
<path d="M26.748 49.6268C26.6758 49.6268 26.6126 49.5817 26.5945 49.5185C26.3778 48.8775 26.1521 48.1733 25.9174 47.4601C25.2132 45.2844 24.4098 42.8108 23.6605 41.0504C22.5681 38.4955 20.2209 37.0781 18.0632 36.0219C17.9819 35.9858 17.9458 35.8865 17.991 35.8052C18.0271 35.724 18.1264 35.6878 18.2076 35.733C20.4195 36.8073 22.8299 38.2698 23.9674 40.924C24.7257 42.7025 25.5292 45.1761 26.2334 47.3608C26.4681 48.074 26.6938 48.7692 26.9014 49.4192C26.9285 49.5004 26.8834 49.5997 26.8021 49.6268C26.7841 49.6268 26.766 49.6268 26.748 49.6268Z" fill="#F89E1C"/>
<path d="M80.4096 36.2566C80.0214 37.9358 79.57 39.624 79.0554 41.2941C77.9992 44.7428 75.4985 47.4872 72.0769 49.5817C72.9616 46.9365 73.7019 43.9844 74.695 41.6462C75.8776 38.8927 78.5047 37.1774 80.4096 36.2566Z" fill="#032663"/>
<path d="M78.0892 41.5022C78.4503 40.5272 78.7843 39.5521 79.1003 38.5681C78.0892 39.2181 77.051 40.157 76.419 41.4661C75.742 42.8563 75.1461 44.5716 74.5322 46.2057C76.1392 44.9688 77.376 43.407 78.0892 41.5022Z" fill="#0E51A0"/>
<path d="M72.2844 49.5645L71.9774 49.4652C72.2844 48.5534 72.5733 47.5874 72.8531 46.6575C73.3858 44.8881 73.9455 43.0644 74.5955 41.5207C75.7691 38.7582 78.3962 37.0248 80.3823 36.0498L80.5268 36.3387C78.5858 37.2866 76.0399 38.9658 74.8934 41.638C74.2434 43.1637 73.6927 44.9783 73.1601 46.7388C72.8802 47.6867 72.5913 48.6527 72.2844 49.5645Z" fill="#10319B"/>
<path d="M18.0634 36.2566C18.4516 37.9358 18.9029 39.624 19.4175 41.2941C20.4738 44.7428 22.9745 47.4872 26.396 49.5817C25.5113 46.9365 24.771 43.9844 23.778 41.6462C22.6044 38.8927 19.9682 37.1774 18.0634 36.2566Z" fill="#032663"/>
<path d="M50.1388 54.6647C49.8409 54.6647 49.5429 54.6647 49.254 54.6557C37.4005 54.8363 22.4685 51.4508 19.3448 41.3126C16.5462 32.2306 13.3955 15.9263 23.6782 8.68599L23.7685 8.8214L23.6782 8.68599C25.4747 7.42209 29.8352 5.49916 30.0248 5.41791C30.088 5.3818 37.7165 1.21094 49.0464 1.21094C60.4124 1.21094 68.2215 5.3186 68.3028 5.36374C70.8215 6.29361 73.0243 7.41306 74.8299 8.68599C85.1126 15.9263 81.9619 32.2306 79.1633 41.3036C76.1119 51.1981 61.8298 54.6647 50.1388 54.6647ZM49.245 54.3307C49.5339 54.3307 49.8318 54.3397 50.1297 54.3397C61.7125 54.3397 75.85 50.9362 78.8473 41.2133C81.6188 32.2215 84.7515 16.0798 74.6403 8.95682C72.8528 7.70195 70.6771 6.59153 68.1674 5.66166C68.0681 5.60749 60.3222 1.54497 49.0464 1.54497C37.8068 1.54497 30.2414 5.67069 30.1692 5.71583C30.115 5.74291 25.6463 7.71098 23.8678 8.95682C13.7476 16.0708 16.8893 32.2215 19.6518 41.2133C22.7212 51.18 37.5179 54.5113 49.245 54.3307Z" fill="#10319B"/>
<path d="M49.2541 52.9771C43.5485 53.0584 37.8519 52.3452 32.9949 50.7834C32.2456 50.5396 31.5685 50.0882 31.0991 49.4563C30.2956 48.391 29.6637 47.1361 29.2394 45.7368C27.831 40.9882 26.2511 34.3347 25.6463 26.8687C25.3484 23.1943 27.4699 19.8631 30.5123 19.1499C34.6651 18.1749 41.0748 17.0464 48.6853 16.929V16.92C48.902 16.92 49.1096 16.92 49.3263 16.929C49.543 16.929 49.7506 16.92 49.9673 16.92V16.929C57.5777 17.0464 63.9785 18.1749 68.1403 19.1499C71.1917 19.8631 73.3042 23.1943 73.0063 26.8687C72.3924 34.3347 70.8216 40.9882 69.4132 45.7368C68.9979 47.1271 68.375 48.3639 67.5806 49.4202C67.1292 50.0251 66.4972 50.4584 65.784 50.6931C60.8548 52.3271 55.059 53.0674 49.2541 52.9771Z" fill="#FCE8CA"/>
<path d="M48.1713 54.4751C41.59 54.4751 35.433 53.4911 30.3142 51.6133L30.2781 51.6042L30.251 51.5771C28.9149 50.1417 27.9038 48.3181 27.317 46.3049C25.9176 41.4479 24.094 33.8555 23.4079 25.27C23.0739 21.0902 25.394 17.3256 28.8156 16.504C33.4107 15.4026 53.8137 12.1707 69.6936 16.504C73.0971 17.4339 75.4173 21.1985 75.0923 25.27C74.4061 33.8555 72.5915 41.4479 71.1832 46.3049C70.6145 48.282 69.6214 50.0785 68.3304 51.4959L68.3033 51.523L68.2672 51.541C62.9227 53.5452 56.1428 54.5924 49.1733 54.4841C48.8393 54.4751 48.5053 54.4751 48.1713 54.4751ZM49.1824 54.1411C56.0977 54.2494 62.8144 53.2112 68.1228 51.2341C69.3686 49.8528 70.3256 48.1195 70.8763 46.2056C72.2756 41.3667 74.0902 33.7923 74.7673 25.2339C75.0832 21.3159 72.8624 17.6957 69.6033 16.811C53.7866 12.4957 33.4649 15.7186 28.8878 16.811C25.6288 17.5964 23.4079 21.2165 23.7329 25.2339C24.419 33.7923 26.2246 41.3667 27.6239 46.2056C28.1927 48.1646 29.1677 49.9341 30.4586 51.3244C35.7219 53.2383 42.3664 54.2494 49.1824 54.1411Z" fill="#10319B"/>
<path d="M26.2516 49.4558C25.9537 48.5711 25.6738 47.6503 25.403 46.7565C24.8703 45.0051 24.3106 43.1996 23.6516 41.6468C22.5141 38.9745 19.9592 37.2863 18.0182 36.3474L18.1626 36.0585C20.1488 37.0245 22.7668 38.7579 23.9495 41.5294C24.6175 43.0912 25.1773 44.9148 25.7099 46.6662C25.9807 47.56 26.2606 48.4808 26.5585 49.3565L26.2516 49.4558Z" fill="#10319B"/>
<path d="M75.6338 36.1856L79.8137 33.7481C79.8137 33.7481 81.0054 21.7411 77.1234 16.2792L76.0039 19.7188C76.0039 19.7188 77.8005 22.3279 75.6338 36.1856Z" fill="#F4B821"/>
<ellipse cx="49.4978" cy="44.8533" rx="2.2238" ry="3.05773" fill="#032663"/>
<path d="M35.1733 28.8323C35.2263 28.8234 35.2793 28.7969 35.3235 28.7527C36.0041 28.1606 36.8967 27.9219 37.7806 28.1075C37.975 28.1517 38.1606 28.028 38.196 27.8336C38.2401 27.6391 38.1164 27.4535 37.922 27.4182C36.8172 27.1884 35.7036 27.48 34.8551 28.2224C34.7048 28.355 34.696 28.576 34.8197 28.7262C34.917 28.8234 35.0495 28.8588 35.1733 28.8323Z" fill="#032663"/>
<path d="M63.562 28.8324C63.509 28.8236 63.456 28.797 63.4118 28.7529C62.7312 28.1607 61.8386 27.9221 60.9547 28.1077C60.7603 28.1519 60.5747 28.0281 60.5394 27.8337C60.4952 27.6392 60.6189 27.4536 60.8133 27.4183C61.9181 27.1885 63.0317 27.4801 63.8802 28.2226C64.0305 28.3551 64.0393 28.5761 63.9156 28.7263C63.8272 28.8236 63.6858 28.8589 63.562 28.8324Z" fill="#032663"/>
<path d="M44.0661 37.9249C43.9954 38.1193 43.907 38.3137 43.8009 38.4905L37.5788 39.0208C37.4462 38.8617 37.3314 38.685 37.2341 38.4994L44.0661 37.9249Z" fill="#0052A3"/>
<path d="M44.2691 37.1562C44.2426 37.3507 44.1984 37.5363 44.1453 37.7131L37.1278 38.3141C37.0482 38.1461 36.9775 37.9694 36.9156 37.7838L44.2691 37.1562Z" fill="#0052A3"/>
<path d="M44.2691 35.637L44.3045 36.1849L36.7301 36.8301L36.6859 36.291L44.2691 35.637Z" fill="#0052A3"/>
<path d="M44.3133 36.3956C44.3222 36.5812 44.3133 36.7668 44.2957 36.9436L36.845 37.58C36.8008 37.4032 36.7655 37.2264 36.7478 37.0408L44.3133 36.3956Z" fill="#0052A3"/>
<path d="M42.9519 39.5342C42.6425 39.7993 42.2978 40.0114 41.9178 40.1705L39.7171 40.3561C39.3193 40.2678 38.9393 40.1087 38.5946 39.9054L42.9519 39.5342Z" fill="#0052A3"/>
<path d="M43.0933 30.9873L37.1187 31.4999C37.2512 31.2878 37.4103 31.0934 37.5782 30.9166L42.5542 30.4924C42.7486 30.6338 42.9342 30.8017 43.0933 30.9873Z" fill="#0052A3"/>
<path d="M43.6681 38.7214C43.5267 38.9336 43.3676 39.128 43.1997 39.3048L38.3033 39.7202C38.1 39.5699 37.9144 39.402 37.7465 39.2164L43.6681 38.7214Z" fill="#0052A3"/>
<path d="M41.2194 29.8473C41.5994 29.9445 41.9529 30.0948 42.28 30.3069L37.8167 30.6869C38.1083 30.4306 38.4353 30.2185 38.7977 30.0594L41.2194 29.8473Z" fill="#0052A3"/>
<path d="M43.7031 31.9067C43.7827 32.0747 43.8534 32.2514 43.9064 32.437L36.5265 33.0645C36.553 32.8701 36.5972 32.6845 36.6502 32.5077L43.7031 31.9067Z" fill="#0052A3"/>
<path d="M43.9686 32.6412C44.0128 32.818 44.0482 32.9948 44.0659 33.1804L36.5003 33.8256C36.4915 33.64 36.4915 33.4544 36.5092 33.2776L43.9686 32.6412Z" fill="#0052A3"/>
<path d="M43.2704 31.1821C43.3941 31.3412 43.509 31.518 43.6063 31.7036L36.7301 32.2869C36.8008 32.0925 36.8804 31.898 36.9864 31.7213L43.2704 31.1821Z" fill="#0052A3"/>
<path d="M44.1453 34.1344L44.1895 34.6824L36.6151 35.3276L36.5709 34.7796L44.1453 34.1344Z" fill="#0052A3"/>
<path d="M44.0922 33.3832L44.1276 33.9312L36.5532 34.5763L36.509 34.0284L44.0922 33.3832Z" fill="#0052A3"/>
<path d="M44.2072 34.8857L44.2514 35.4337L36.6682 36.0788L36.6328 35.5309L44.2072 34.8857Z" fill="#0052A3"/>
<path d="M61.8331 38.3321C61.7359 38.5177 61.6298 38.7033 61.5061 38.8712L55.2574 38.6767C55.1514 38.5 55.0542 38.3144 54.9746 38.1199L61.8331 38.3321Z" fill="#0052A3"/>
<path d="M62.1247 37.5897C62.0717 37.7753 62.0098 37.952 61.9303 38.1288L54.8862 37.9167C54.8243 37.7399 54.7713 37.5543 54.736 37.3687L62.1247 37.5897Z" fill="#0052A3"/>
<path d="M62.2926 36.0785L62.2661 36.6265L54.6652 36.3967L54.6917 35.8488L62.2926 36.0785Z" fill="#0052A3"/>
<path d="M62.2569 36.8387C62.2392 37.0243 62.2216 37.201 62.1774 37.3778L54.7091 37.148C54.6825 36.9712 54.6737 36.7856 54.6737 36.6L62.2569 36.8387Z" fill="#0052A3"/>
<path d="M60.5334 39.7997C60.1975 40.0295 59.8263 40.1975 59.4286 40.3124L57.219 40.2417C56.8302 40.1091 56.4766 39.9058 56.1584 39.6672L60.5334 39.7997Z" fill="#0052A3"/>
<path d="M61.6649 31.3237L55.6726 31.1469C55.8317 30.9525 56.0085 30.7757 56.1941 30.6166L61.1788 30.7669C61.3644 30.9348 61.5235 31.1204 61.6649 31.3237Z" fill="#0052A3"/>
<path d="M61.3467 39.0747C61.1876 39.2691 61.002 39.4459 60.8075 39.6049L55.9023 39.4547C55.7167 39.2868 55.5576 39.1012 55.4073 38.8979L61.3467 39.0747Z" fill="#0052A3"/>
<path d="M59.9325 29.9716C60.2949 30.113 60.6396 30.3075 60.9401 30.5461L56.4591 30.4047C56.7773 30.1838 57.1308 30.007 57.502 29.8921L59.9325 29.9716Z" fill="#0052A3"/>
<path d="M62.169 32.3041C62.2309 32.4809 62.2751 32.6665 62.3105 32.8521L54.9128 32.6223C54.9659 32.4367 55.0277 32.26 55.0984 32.0832L62.169 32.3041Z" fill="#0052A3"/>
<path d="M62.3455 33.0641C62.372 33.2409 62.3809 33.4265 62.3809 33.6121L54.7888 33.3823C54.7977 33.1967 54.8242 33.0199 54.8595 32.8431L62.3455 33.0641Z" fill="#0052A3"/>
<path d="M61.8149 31.5357C61.921 31.7125 62.0094 31.8981 62.0889 32.0925L55.1951 31.8804C55.2923 31.6948 55.3895 31.5092 55.5132 31.3412L61.8149 31.5357Z" fill="#0052A3"/>
<path d="M62.3451 34.576L62.3275 35.1152L54.7266 34.8854L54.7442 34.3463L62.3451 34.576Z" fill="#0052A3"/>
<path d="M62.3811 33.8243L62.3546 34.3635L54.7537 34.1337L54.7802 33.5857L62.3811 33.8243Z" fill="#0052A3"/>
<path d="M62.3188 35.3267L62.3011 35.8747L54.7002 35.6361L54.7179 35.0969L62.3188 35.3267Z" fill="#0052A3"/>
<path d="M80.7316 64.3867C77.5282 60.4918 69.2745 51.8649 55.6838 46.9976C54.3553 46.5249 53.1014 47.8597 53.647 49.1568L54.0691 50.1719C58.3827 60.4481 68.6324 66.961 79.7724 66.508C80.85 66.4702 81.4129 65.2232 80.7316 64.3867Z" fill="#F5851F"/>
<path d="M79.771 66.5088C80.8384 66.4648 81.4013 65.2178 80.7302 64.3874C77.9147 60.9598 71.1889 53.8684 60.3587 48.9114C69.3195 54.4893 75.7601 63.4097 77.8344 66.5204C78.4806 66.5308 79.1269 66.5413 79.771 66.5088Z" fill="#F89E1C"/>
<path d="M61.7682 50.3194C62.0368 49.8687 62.2836 49.641 62.3183 49.6062L62.8968 50.2426L62.6157 49.9223L62.9132 50.2384C62.8785 50.2733 59.2718 54.1343 66.679 63.506L65.1188 62.8397C59.3469 55.3591 60.8584 51.8455 61.7682 50.3194Z" fill="#F89E1C"/>
<path d="M58.8856 48.2409C58.8856 48.2409 54.6725 50.9769 58.8321 57.4825C58.8321 57.4825 52.9332 50.6342 53.9023 47.658C53.9023 47.658 54.5369 45.7318 58.8856 48.2409Z" fill="#032663"/>
<path d="M53.5591 47.6052C53.6324 47.4823 53.7098 47.3757 53.8138 47.2711C54.3235 46.742 55.0592 46.5559 55.7573 46.8054C69.567 51.7478 77.9442 60.6566 80.8972 64.2495C81.2604 64.6881 81.3439 65.2932 81.1123 65.8215C80.8807 66.3497 80.3683 66.6968 79.7896 66.7128C68.617 67.174 58.2095 60.5532 53.8877 50.2443L53.4656 49.2292C53.2268 48.6981 53.266 48.0968 53.5591 47.6052ZM80.6561 65.7716C80.6805 65.7307 80.6988 65.7 80.713 65.6529C80.8858 65.27 80.8314 64.8488 80.5667 64.5244C77.628 60.954 69.3206 52.1146 55.6153 47.2067C55.0892 47.018 54.5231 47.1525 54.1234 47.5667C53.7401 47.9768 53.6273 48.562 53.8455 49.0808L54.2676 50.096C58.5215 60.2395 68.7712 66.7523 79.7619 66.2936C80.1422 66.2844 80.4668 66.0892 80.6561 65.7716Z" fill="#10319B"/>
<path d="M57.6543 49.3944C58.1733 48.5238 58.7406 48.0846 58.7569 48.0804L59.0095 48.4253C58.8564 48.5423 55.1529 51.4016 58.9125 57.4605L58.543 57.6844C56.0406 53.6383 56.769 50.8796 57.6543 49.3944Z" fill="#10319B"/>
<path d="M61.4726 50.3505C61.7351 49.9101 61.9758 49.6926 62.0105 49.6578L62.2916 49.978C62.2569 50.0129 58.4858 53.5676 65.2829 62.7284L64.938 62.9809C59.5122 55.6649 60.6055 51.8049 61.4726 50.3505Z" fill="#10319B"/>
</g>
</svg>
