<svg width="17" height="18" viewBox="0 0 17 18" fill="none" xmlns="http://www.w3.org/2000/svg">
<path fill-rule="evenodd" clip-rule="evenodd" d="M0.0996094 1.80001C0.0996094 1.13726 0.636868 0.600006 1.29961 0.600006H15.6996C16.3624 0.600006 16.8996 1.13726 16.8996 1.80001C16.8996 2.46275 16.3624 3.00001 15.6996 3.00001H1.29961C0.636868 3.00001 0.0996094 2.46275 0.0996094 1.80001ZM0.0996094 6.60001C0.0996094 5.93726 0.636868 5.40001 1.29961 5.40001H15.6996C16.3624 5.40001 16.8996 5.93726 16.8996 6.60001C16.8996 7.26275 16.3624 7.80001 15.6996 7.80001H1.29961C0.636868 7.80001 0.0996094 7.26275 0.0996094 6.60001ZM0.0996094 11.4C0.0996094 10.7373 0.636868 10.2 1.29961 10.2H15.6996C16.3624 10.2 16.8996 10.7373 16.8996 11.4C16.8996 12.0627 16.3624 12.6 15.6996 12.6H1.29961C0.636868 12.6 0.0996094 12.0627 0.0996094 11.4ZM0.0996094 16.2C0.0996094 15.5373 0.636868 15 1.29961 15H15.6996C16.3624 15 16.8996 15.5373 16.8996 16.2C16.8996 16.8627 16.3624 17.4 15.6996 17.4H1.29961C0.636868 17.4 0.0996094 16.8627 0.0996094 16.2Z" fill="white"/>
</svg>
