<svg width="100" height="100" viewBox="0 0 100 100" fill="none" xmlns="http://www.w3.org/2000/svg">
<mask id="mask0_908_6470" style="mask-type:alpha" maskUnits="userSpaceOnUse" x="0" y="0" width="100" height="100">
<rect width="100" height="100" fill="#D9D9D9"/>
</mask>
<g mask="url(#mask0_908_6470)">
<path d="M68.9404 69.7436C73.3041 61.866 68.5421 52.0499 59.6466 50.6514L56.2034 50.1115C56.1769 50.1115 56.1591 50.1026 56.1326 50.0938L47.5469 48.7484L39.0054 47.1286C38.9788 47.1197 38.9611 47.1197 38.9346 47.1197L35.5091 46.4736C26.6578 44.8007 18.8776 52.4482 20.338 61.3349C20.816 64.2381 21.4002 66.9555 22.0463 69.5135C22.3827 71.0005 22.8607 72.6557 23.4183 74.3728C25.8081 82.0735 28.6936 88.0746 30.8622 92.9517C30.9418 93.1376 31.0392 93.3234 31.1277 93.5093C32.5793 96.6427 35.5799 98.5368 38.8372 99.0591C42.0856 99.6698 45.5465 98.8909 47.9629 96.4302C48.1134 96.2886 48.2638 96.147 48.4054 95.9965C52.0787 92.1374 56.8142 87.4462 61.6558 80.9936C62.7534 79.5597 63.7624 78.1612 64.5768 76.8777C66.0549 74.6826 67.5154 72.3193 68.9404 69.7436Z" fill="#F89E1C"/>
<path d="M51.0435 84.162C54.2742 79.9045 50.0344 75.8683 44.1837 78.028C37.2089 80.5949 33.7393 78.3024 30.721 70.5487C28.2692 64.2554 22.9938 64.8485 21.0996 65.2999C21.4094 66.7869 21.7369 68.2208 22.091 69.6016C22.4273 71.0886 22.9053 72.7438 23.4629 74.461C25.8528 82.1616 28.7382 88.1628 30.9068 93.0398C30.9865 93.2257 31.0838 93.4116 31.1724 93.5974C32.624 96.7308 35.6246 98.625 38.8818 99.1472C42.1302 99.7579 45.5911 98.979 48.0075 96.5184C48.158 96.3767 48.3084 96.2351 48.4501 96.0847C49.6538 94.8278 50.9639 93.4735 52.3624 92.0042C49.9194 91.1545 47.9278 88.2778 51.0435 84.162Z" fill="#032663"/>
<path d="M38.6518 99.2544C35.2086 98.6613 32.3497 96.5724 30.9954 93.6515C30.9069 93.4745 30.8095 93.2886 30.7299 93.0939C30.4201 92.3946 30.0926 91.66 29.7474 90.9076C27.7736 86.5351 25.3218 81.0916 23.2771 74.4885C22.6841 72.6651 22.2238 71.0188 21.9052 69.6203C21.5511 68.2218 21.2148 66.7702 20.9138 65.3186L20.8784 65.1681L21.0289 65.1327C23.1532 64.6282 28.3666 64.1502 30.8361 70.4789C33.9164 78.4008 37.386 80.3392 44.0953 77.8608C47.6624 76.542 50.424 77.5333 51.5924 79.1C52.6545 80.5428 52.4863 82.4635 51.1409 84.2426C49.7778 86.0483 49.291 87.7654 49.7336 89.2347C50.0965 90.412 51.0878 91.3856 52.3801 91.8281L52.6191 91.9078L52.451 92.0848C51.672 92.908 50.9108 93.6958 50.185 94.4481C49.6185 95.0412 49.0698 95.6076 48.5387 96.1653C48.3971 96.3157 48.2466 96.4662 48.0961 96.599C45.8036 98.9357 42.3516 99.9448 38.8288 99.2721C38.7668 99.2809 38.7137 99.2721 38.6518 99.2544ZM38.8819 98.9711C42.2985 99.6173 45.6532 98.6436 47.8748 96.3866C48.0253 96.2449 48.1758 96.1033 48.3085 95.9617C48.8396 95.4041 49.3884 94.8376 49.9549 94.2446C50.6276 93.5453 51.3268 92.8106 52.0527 92.0583C50.7692 91.5449 49.8044 90.5447 49.4327 89.3409C49.0963 88.2522 49.0786 86.4466 50.8931 84.0656L51.017 84.1629L50.8931 84.0656C52.15 82.4015 52.3182 80.6224 51.3445 79.3036C50.2558 77.8343 47.627 76.9137 44.2193 78.1706C37.3861 80.6932 33.6862 78.6397 30.5529 70.6028C28.2338 64.6459 23.401 64.9468 21.2679 65.4159C21.56 66.8144 21.8786 68.2041 22.2238 69.5583C22.5425 70.9568 23.0027 72.5855 23.5869 74.4088C25.6316 80.9942 28.0745 86.4289 30.0395 90.7926C30.3758 91.5449 30.7034 92.2707 31.022 92.9788C31.1017 93.1647 31.1902 93.3417 31.2875 93.5276C32.6152 96.3954 35.4565 98.4401 38.8819 98.9711Z" fill="#10319B"/>
<path d="M38.979 99.3164C38.917 99.3076 38.8639 99.2987 38.8019 99.281C35.2791 98.7322 32.3494 96.6168 30.9774 93.6427C30.8889 93.4657 30.7915 93.2798 30.7119 93.0851C30.4021 92.3858 30.0746 91.6512 29.7294 90.8988C27.7555 86.5263 25.3037 81.0828 23.2591 74.4797C22.6661 72.6563 22.2058 71.01 21.8871 69.6115C21.2056 66.9207 20.6303 64.168 20.1789 61.4241C19.4708 57.1223 20.8515 52.9091 23.9672 49.8731C27.0651 46.846 31.2695 45.5891 35.5358 46.3857L38.9613 47.0319L39.0321 47.0407L47.5736 48.6605L56.1593 50.0059L56.2036 50.0148L59.6732 50.5547C63.9573 51.2274 67.4978 53.8385 69.4008 57.7242C71.3127 61.6365 71.1976 66.0621 69.091 69.877C67.7456 72.3023 66.2763 74.7098 64.7273 77.02C63.9573 78.2327 62.9748 79.6223 61.7976 81.1447C57.6552 86.6768 53.5128 90.9785 50.1936 94.4305C49.6182 95.0235 49.0694 95.5989 48.5384 96.1565C48.3967 96.307 48.2463 96.4574 48.0958 96.5902C45.821 98.9092 42.431 99.9094 38.979 99.3164ZM38.8639 98.9712C42.2805 99.6173 45.6351 98.6437 47.8568 96.3866C48.0073 96.245 48.1578 96.1034 48.2905 95.9618C48.8216 95.4041 49.3704 94.8288 49.9457 94.2358C53.2649 90.7838 57.3985 86.4909 61.532 80.9765C62.7004 79.4541 63.6829 78.0733 64.4441 76.8696C65.9931 74.5682 67.4535 72.1695 68.7989 69.7531C70.8613 66.0267 70.9675 61.7073 69.1087 57.8924C67.25 54.1041 63.7803 51.5549 59.6202 50.8999L56.177 50.36L56.1327 50.3511L47.5116 48.9969L38.9613 47.3771L38.8905 47.3682L35.465 46.7221C31.3226 45.9432 27.1979 47.1735 24.1796 50.121C21.1436 53.0862 19.7983 57.1932 20.4887 61.3975C20.9401 64.1237 21.5154 66.8765 22.1969 69.5584C22.5156 70.9569 22.9758 72.5855 23.56 74.4089C25.6047 80.9943 28.0477 86.4289 30.0126 90.7926C30.349 91.545 30.6765 92.2708 30.9951 92.9789C31.0748 93.1648 31.1633 93.3418 31.2606 93.5277C32.5972 96.3866 35.4385 98.4313 38.8639 98.9712Z" fill="#10319B"/>
<path d="M66.9574 56.7045C65.0809 54.4121 62.4698 52.7834 59.3187 52.2877L55.8579 51.7478C55.8313 51.7478 55.8136 51.739 55.7871 51.7301L47.1571 50.3936L38.5713 48.7561C38.5448 48.7472 38.5271 48.7472 38.5005 48.7472L35.0574 48.0922C30.2865 47.1805 27.1001 50.1723 24.1614 53.7216C23.4976 54.5183 23.7985 55.7574 24.7368 56.1203C32.6321 59.1475 50.8835 64.1573 66.9574 56.7045Z" fill="#E26907"/>
<path d="M29.5523 6.24331C31.5084 5.31393 33.7743 4.62353 36.2262 4.16326L36.0757 4.17211C36.0757 4.17211 44.1835 1.36626 55.2122 3.26928C66.2054 5.17231 73.0032 10.43 73.0475 10.4654C75.2692 11.7577 77.2165 13.1916 78.7831 14.7582C86.3421 22.3084 83.3858 35.2136 77.4909 46.8264C73.198 55.2794 59.4962 57.0939 46.5379 54.6421C33.5088 52.5886 21.2055 46.2777 20.0018 36.8776C18.3466 23.9547 19.8867 10.8194 29.5523 6.24331Z" fill="#F89E1C"/>
<path d="M40.5548 75.8315C39.7317 75.6898 38.9439 75.3446 38.2535 74.8047C36.793 73.654 36.0672 71.8749 36.3328 70.025L37.8375 59.4654C38.103 57.6244 39.2891 56.1108 41.0151 55.4115C42.7411 54.7211 44.6441 54.9867 46.1135 56.1374L54.5664 62.767C55.9826 63.8734 56.6996 65.5994 56.4871 67.3873C56.2747 69.1753 55.1772 70.68 53.5485 71.4235C53.4954 71.4501 53.4423 71.4678 53.3892 71.4943L53.3184 71.5209L43.3518 75.5305C42.4402 75.8934 41.4754 75.9908 40.5548 75.8315ZM43.697 55.739C42.8916 55.5974 42.0507 55.6859 41.2452 56.0046C39.7317 56.6153 38.6961 57.943 38.466 59.5539L36.9612 70.1135C36.7311 71.7245 37.3595 73.2911 38.643 74.3002C39.9264 75.3092 41.5904 75.5394 43.104 74.9375L53.1325 70.9013C53.1768 70.8836 53.221 70.8659 53.2741 70.8393C54.6992 70.1932 55.6551 68.8744 55.841 67.3077C56.0269 65.7498 55.3984 64.2363 54.1593 63.2715L45.7063 56.6419C45.1133 56.1639 44.4228 55.863 43.697 55.739Z" fill="#F89E1C"/>
<path d="M40.5014 75.9045C39.6871 75.7629 38.9081 75.4177 38.2177 74.8867C36.7661 73.7448 36.0492 71.9746 36.3147 70.1512L37.8548 59.3349C38.1115 57.5116 39.2887 56.0069 41.0059 55.3165C42.723 54.6261 44.6084 54.9005 46.06 56.0334L54.7254 62.8224C56.1239 63.9199 56.8408 65.6371 56.6284 67.3985C56.416 69.1687 55.3273 70.6646 53.7163 71.3992C53.6632 71.4258 53.6101 71.4435 53.557 71.4701L53.4951 71.4966L43.2807 75.6036C42.369 75.9665 41.4131 76.0639 40.5014 75.9045ZM43.7232 55.3253C42.8647 55.1748 41.9707 55.2634 41.121 55.6086C39.5189 56.2547 38.4125 57.6621 38.1646 59.3792L36.6245 70.1955C36.3767 71.9126 37.0494 73.5678 38.4125 74.6388C39.7756 75.7098 41.5458 75.9577 43.1479 75.3115L53.4243 71.178C53.4774 71.1603 53.5216 71.1337 53.5747 71.116C55.0883 70.4256 56.1062 69.0271 56.3009 67.3631C56.4957 65.7079 55.8318 64.1058 54.5218 63.0702L45.8564 56.2813C45.2191 55.7767 44.4845 55.4581 43.7232 55.3253Z" fill="#10319B"/>
<path d="M29.5439 6.28771C30.5707 5.80089 31.6859 5.37602 32.8632 5.02197C23.3657 9.6866 21.8433 22.7688 23.4897 35.6297C24.6934 45.0475 36.9879 51.3673 50.017 53.4208C57.3901 54.8104 64.9933 54.8193 70.9768 53.0136C64.6658 56.1293 55.4162 56.4656 46.5119 54.7839C33.4828 52.7304 21.1883 46.4106 19.9846 36.9928C18.3294 24.0434 19.8783 10.8815 29.5439 6.28771Z" fill="#F5851F"/>
<path d="M31.6677 17.9087C26.5782 15.8995 27.6846 7.41997 27.7377 7.06592L28.3662 7.15443C28.3573 7.23409 27.2775 15.4923 31.8978 17.3157L31.6677 17.9087Z" fill="#F89E1C"/>
<path d="M71.6753 25.1505L71.6045 24.5133C77.1188 23.9025 78.898 15.4141 78.9157 15.3345L79.5441 15.4584C79.4644 15.8301 77.6499 24.4867 71.6753 25.1505Z" fill="#F4B821"/>
<path d="M54.3008 10.8015C51.3444 10.2881 48.7598 8.84533 47.441 6.93345C47.3968 6.87149 47.3525 6.80954 47.3171 6.74758L44.998 3.01234L45.8124 2.50781L48.1314 6.24305C48.1668 6.29616 48.1934 6.34042 48.2376 6.39353C49.5211 8.24344 52.1764 9.61539 55.1859 9.96059C58.1068 10.2969 60.8065 9.64195 62.4085 8.19919L64.9223 5.93326L65.5596 6.64136L63.0281 8.91614C61.2225 10.5359 58.2484 11.2883 55.0531 10.9165C54.8053 10.8811 54.5486 10.8457 54.3008 10.8015Z" fill="#F4B821"/>
<path d="M53.699 14.2076C49.7779 13.5261 46.4586 11.5965 44.5999 8.90571C44.5291 8.80835 44.4671 8.71099 44.4051 8.61362L44.3343 8.49856L41.1567 3.37366L41.971 2.86914L45.2195 8.10025C45.2726 8.18876 45.3345 8.27727 45.3965 8.36579C47.1136 10.8441 50.2027 12.6321 53.876 13.2694C54.1769 13.3225 54.4779 13.3668 54.7877 13.4022C58.7354 13.8624 62.3555 12.9065 64.7188 10.7733L68.3125 7.54262L68.9498 8.25072L65.3561 11.4814C62.7893 13.7916 58.8947 14.8361 54.6726 14.3493C54.3363 14.305 54.0176 14.2607 53.699 14.2076Z" fill="#F4B821"/>
<path d="M77.8804 16.9621C76.3137 15.3866 74.3664 13.935 72.1448 12.6427C72.1005 12.6073 65.3824 6.73888 54.3891 4.83585C47.1576 3.58782 40.6253 3.69403 36.9697 3.92417C39.3684 3.26032 46.3432 1.72905 55.2034 3.26032C66.1967 5.16335 72.9944 10.4564 73.0387 10.4918C75.2604 11.7841 77.2077 13.2357 78.7744 14.8112C85.5102 21.5913 83.8638 32.6731 79.2346 43.2947C83.1557 33.3547 84.1648 23.2908 77.8804 16.9621Z" fill="#F4B821"/>
<path d="M72.2598 24.812L72.251 24.4934C77.3493 24.3252 79.394 15.6598 79.4117 15.5713L79.7214 15.6421C79.6418 16.005 77.5972 24.635 72.2598 24.812Z" fill="#10319B"/>
<path d="M65.019 11.0934L68.6125 7.86269C67.6389 7.34931 66.5059 6.80053 65.2225 6.26945L62.7088 8.53538C61.0093 10.0667 58.168 10.7748 55.1143 10.4207C51.981 10.0578 49.1928 8.61504 47.8297 6.65006C47.7855 6.59695 47.7501 6.53499 47.7147 6.47303L45.3956 2.73779C43.9706 2.8086 42.6783 2.94137 41.5542 3.1007L44.7318 8.22559L44.8026 8.34065C44.8646 8.43802 44.9265 8.52653 44.9885 8.6239C46.7764 11.2085 50.016 13.0761 53.7778 13.7222C54.0876 13.7753 54.3974 13.8196 54.716 13.855C58.7965 14.3153 62.5583 13.3151 65.019 11.0934Z" fill="#032663"/>
<path d="M32.1991 17.8825C27.2335 15.9175 28.1541 7.19011 28.1984 6.81836L28.517 6.85376C28.5081 6.94228 27.5787 15.7139 32.323 17.5815L32.1991 17.8825Z" fill="#10319B"/>
<path d="M46.4761 54.508C40.0323 53.4901 33.7656 51.4897 28.7823 48.6219C27.7733 47.0818 27.0829 45.1965 26.8528 43.1164C26.2597 37.7614 25.8437 30.344 26.5872 22.2186C26.9501 18.2178 29.7914 15.0313 33.1194 14.8189C37.6513 14.5268 44.573 14.4825 52.5746 15.7306V15.7217C52.7959 15.7571 53.0171 15.8014 53.2384 15.8456C53.4597 15.881 53.681 15.9165 53.9111 15.9519V15.9607C61.8596 17.4654 68.2413 19.6074 72.4191 21.4042C75.4817 22.7231 77.2077 26.9097 76.2075 30.7955C74.1806 38.6997 71.295 45.5505 68.9406 50.3922C68.0378 52.2421 66.7986 53.7557 65.3647 54.8621C59.6468 55.9419 52.9729 55.7384 46.4761 54.508Z" fill="#032663"/>
<path d="M69.5161 53.5326L68.1353 54.0017C68.4893 53.3467 69.0824 52.2314 69.4895 51.4525C70.5694 49.3902 71.782 47.0534 72.7822 45.5133C74.3843 43.0261 77.9071 41.5656 80.173 40.9106L79.5711 42.2206C77.4645 42.8314 75.0216 43.805 73.5788 46.0355C72.6052 47.5403 71.4014 49.8504 70.3304 51.8951C69.9321 52.6828 69.8701 52.8776 69.5161 53.5326Z" fill="#F4B821"/>
<path d="M25.6044 46.1543C25.5424 46.1455 25.4805 46.0924 25.4716 46.0216C25.3743 45.3666 25.268 44.6496 25.1618 43.9238C24.8432 41.7021 24.4803 39.1795 24.0554 37.3473C23.427 34.6919 21.3912 32.9305 19.4882 31.5586C19.4173 31.5055 19.3996 31.4081 19.4528 31.3373C19.5059 31.2665 19.6032 31.2488 19.674 31.3019C21.6302 32.7092 23.7191 34.5237 24.3652 37.2765C24.7989 39.1176 25.1618 41.649 25.4805 43.8795C25.5867 44.6142 25.6841 45.3223 25.7903 45.9773C25.7991 46.0658 25.746 46.1455 25.6575 46.1632C25.6398 46.1632 25.6221 46.1632 25.6044 46.1543Z" fill="#F89E1C"/>
<path d="M79.6865 42.1992C79.0315 43.757 78.3146 45.306 77.5357 46.8373C75.9424 49.9883 73.0657 52.2277 69.4102 53.6705C70.7024 51.2629 71.9151 48.5367 73.2693 46.439C74.8626 43.996 77.6861 42.7834 79.6865 42.1992Z" fill="#032663"/>
<path d="M76.5615 46.8806C77.0749 46.0043 77.5617 45.1104 78.0308 44.2075C76.9421 44.6678 75.7914 45.4024 74.9506 46.562C74.0654 47.7923 73.2068 49.3501 72.3306 50.8283C74.1008 49.9077 75.5613 48.6066 76.5615 46.8806Z" fill="#0E51A0"/>
<path d="M69.6133 53.7048L69.3301 53.5543C69.7726 52.7223 70.224 51.8372 70.6489 50.9875C71.4632 49.3677 72.3041 47.6948 73.1981 46.314C74.8002 43.8445 77.6149 42.6053 79.7038 42.0034L79.7923 42.3132C77.7565 42.8974 75.0126 44.1012 73.4636 46.491C72.5785 47.8541 71.7465 49.5182 70.9322 51.1291C70.4985 51.9877 70.0559 52.8728 69.6133 53.7048Z" fill="#10319B"/>
<path d="M19.4531 31.7803C19.5505 33.4709 19.701 35.1703 19.9134 36.8698C20.356 40.3749 22.3121 43.4463 25.2684 46.0397C24.8613 43.3401 24.6311 40.366 24.0647 37.9319C23.392 35.0907 21.1349 33.0018 19.4531 31.7803Z" fill="#032663"/>
<path d="M47.3615 54.9254C47.0694 54.8723 46.7862 54.8281 46.5029 54.775C35.0228 52.9693 21.1617 47.1983 19.8429 36.8865C18.6568 27.6547 18.3382 11.3772 29.4819 6.10179L29.5527 6.24341L29.4819 6.10179C31.4292 5.18126 35.9611 4.04829 36.1558 4.00403C36.2178 3.97748 44.2901 1.22473 55.2392 3.11891C66.2148 5.02193 73.0833 10.2884 73.1453 10.3416C75.4201 11.6604 77.3585 13.112 78.8986 14.6433C87.626 23.3529 81.855 38.5771 77.6329 46.8796C73.0391 55.9168 58.6558 56.8816 47.3615 54.9254ZM46.5561 54.4563C46.8393 54.5094 47.1225 54.5625 47.4146 54.6068C58.6115 56.5452 72.8355 55.6159 77.3496 46.7292C81.5275 38.5063 87.2542 23.4326 78.6685 14.8646C77.1549 13.351 75.2342 11.9171 72.9683 10.5982C72.8798 10.5363 66.082 5.30517 55.1861 3.41985C44.3255 1.54338 36.3328 4.26957 36.2532 4.29613C36.1912 4.31383 31.5443 5.4645 29.6235 6.37618C18.6656 11.563 18.9931 27.6901 20.1615 36.8334C21.4627 46.977 35.191 52.6684 46.5561 54.4563Z" fill="#10319B"/>
<path d="M46.7861 53.155C41.2629 52.2876 35.8724 50.6413 31.4468 48.3222C30.7564 47.9593 30.1899 47.4106 29.8359 46.7202C29.2428 45.5606 28.8356 44.2418 28.6675 42.8167C28.101 37.9928 27.685 31.3012 28.3488 23.9901C28.6763 20.3876 31.2786 17.5198 34.3411 17.3428C38.519 17.0949 44.8919 17.0772 52.265 18.2367V18.2279C52.4686 18.2633 52.6721 18.2987 52.8757 18.3429C53.0793 18.3784 53.2829 18.4049 53.4953 18.4403V18.4492C60.8242 19.83 66.8254 21.9985 70.6757 23.6272C73.4992 24.8221 74.9951 28.398 74.0923 31.9031C72.2512 39.0195 69.6223 45.18 67.4626 49.5349C66.8342 50.8095 66.0199 51.8982 65.0816 52.7921C64.5417 53.2967 63.8601 53.6153 63.1255 53.7215C58.1068 54.4562 52.3801 54.2083 46.7861 53.155Z" fill="#FCE8CA"/>
<path d="M36.2105 36.8858C36.1442 36.8703 36.078 36.8549 36.0117 36.8245C35.5404 36.6191 35.3189 36.0648 35.5171 35.5885C36.5224 33.1624 38.8466 31.9041 41.4379 32.3802C43.9629 32.8409 45.8718 35.0065 45.9853 37.5163C46.008 38.0391 45.6111 38.469 45.0959 38.4873C44.5808 38.5056 44.1534 38.099 44.1307 37.5762C44.0701 36.1719 43.0156 34.5731 41.1237 34.222C39.3864 33.902 37.8933 34.704 37.2255 36.3189C37.0494 36.7357 36.6227 36.9563 36.2105 36.8858Z" fill="#0E51A0"/>
<path d="M54.8668 40.1731C54.8005 40.1576 54.7343 40.1422 54.668 40.1118C54.1967 39.9064 53.9752 39.3521 54.1733 38.8758C55.1787 36.4497 57.5028 35.1914 60.0941 35.6676C62.6191 36.1282 64.528 38.2939 64.6415 40.8036C64.6642 41.3265 64.2673 41.7638 63.7522 41.7821C63.237 41.8004 62.8022 41.3937 62.7795 40.8709C62.7189 39.4667 61.6645 37.8678 59.7726 37.5167C58.0352 37.1968 56.5422 37.9987 55.8744 39.6137C55.7056 40.0305 55.2864 40.2511 54.8668 40.1731Z" fill="#0E51A0"/>
<path d="M51.6048 42.192C51.9812 42.2708 52.1698 42.9862 51.9737 43.6877C51.3168 45.9157 49.9696 47.3672 48.6634 47.1422C47.3572 46.9172 46.494 45.0317 46.5151 42.6933C46.5209 41.9687 46.8988 41.3553 47.2967 41.4037L51.6048 42.192Z" fill="#032663"/>
<path d="M39.2685 28.4158C39.3128 28.4161 39.3644 28.4015 39.4087 28.3719C40.0512 27.9804 40.8188 27.9178 41.5196 28.2054C41.6745 28.2659 41.8443 28.1924 41.9035 28.0435C41.9627 27.8873 41.8891 27.7153 41.7415 27.6548C40.871 27.2991 39.9115 27.3755 39.1066 27.863C38.9663 27.9516 38.9219 28.1304 39.0103 28.2726C39.0545 28.3698 39.1578 28.4226 39.2685 28.4158Z" fill="#032663"/>
<path d="M62.6507 32.5533C62.6065 32.5382 62.5696 32.5082 62.5328 32.4633C62.0613 31.8728 61.361 31.5412 60.6089 31.5663C60.4467 31.5727 60.3067 31.4454 60.2994 31.2742C60.2922 31.1106 60.4176 30.97 60.5872 30.9636C61.5236 30.9322 62.4007 31.3394 62.9901 32.0794C63.0933 32.2065 63.0711 32.3923 62.9457 32.4957C62.8645 32.577 62.7465 32.5911 62.6507 32.5533Z" fill="#032663"/>
<path d="M45.4937 54.4113C39.1384 53.3137 33.3585 51.331 28.7205 48.6579L28.6851 48.6402L28.6674 48.6048C27.6141 46.9939 26.9414 45.0643 26.7201 43.0197C26.1713 38.0895 25.6845 30.4597 26.4634 22.0421C26.8352 17.9528 29.7118 14.6956 33.1461 14.4743C37.7665 14.1733 58.0182 14.4654 72.6405 21.3075C75.7739 22.7768 77.3848 26.8041 76.3935 30.6721C74.2957 38.8507 71.2686 45.8875 69.1089 50.3397C68.2237 52.1542 66.9757 53.7209 65.4887 54.8804L65.4622 54.9069L65.4267 54.9158C59.9301 55.9602 53.2031 55.8363 46.4938 54.5706C46.1398 54.5263 45.8123 54.4732 45.4937 54.4113ZM46.5204 54.2608C53.1854 55.5177 59.8504 55.6416 65.3028 54.6148C66.7367 53.4907 67.9493 51.9683 68.8079 50.2158C70.9676 45.7724 73.9859 38.7622 76.0748 30.6102C77.0308 26.8838 75.4907 23.0069 72.4989 21.6084C57.9386 14.8018 37.7665 14.5097 33.1638 14.8018C29.88 15.0142 27.1361 18.1387 26.7732 22.0775C26.0031 30.4597 26.4899 38.0806 27.0299 42.9843C27.2512 44.9669 27.8973 46.8434 28.9064 48.4012C33.6772 51.1451 39.9262 53.2252 46.5204 54.2608Z" fill="#10319B"/>
<path d="M25.1621 45.9061C25.0205 45.0033 24.9054 44.0651 24.7904 43.1534C24.5602 41.3743 24.3301 39.5332 23.9495 37.9311C23.2945 35.1607 21.1171 33.1072 19.3999 31.868L19.5858 31.6113C21.3472 32.8771 23.5866 34.9925 24.2593 37.8603C24.6399 39.4801 24.8789 41.33 25.1002 43.118C25.2152 44.0208 25.3303 44.9591 25.4719 45.8619L25.1621 45.9061Z" fill="#10319B"/>
<path d="M20.7898 50.0398C19.4532 46.5347 15.6826 38.5243 7.25617 31.9035C6.433 31.2574 5.23809 31.9035 5.31775 32.9479L5.37968 33.7623C5.99042 42.0117 11.6729 49.013 19.6214 51.3144C20.3826 51.5268 21.073 50.7833 20.7898 50.0398Z" fill="#F5851F"/>
<path d="M19.6216 51.3053C20.3828 51.5265 21.0732 50.783 20.79 50.0395C19.6127 46.9593 16.5502 40.3916 10.1064 34.3462C15.0986 40.3828 17.5327 48.1807 18.2585 50.8538C18.701 51.022 19.1525 51.1725 19.6216 51.3053Z" fill="#F89E1C"/>
<path d="M10.7527 35.6652C11.0448 35.4085 11.2749 35.3112 11.3103 35.2935L11.567 35.8776L11.4431 35.5855L11.5759 35.8776C11.5405 35.8953 8.09733 37.763 11.0979 46.1097L10.1597 45.2777C7.86719 38.6481 9.75253 36.5326 10.7527 35.6652Z" fill="#F89E1C"/>
<path d="M9.21214 33.532C9.21214 33.532 5.60082 34.4702 6.99932 40.02C6.99932 40.02 4.45899 33.8064 5.83979 31.9387C5.84865 31.9387 6.74263 30.735 9.21214 33.532Z" fill="#032663"/>
<path d="M5.61856 31.8233C5.69822 31.7525 5.77787 31.6994 5.87524 31.6463C6.36206 31.3896 6.91971 31.4427 7.35342 31.7791C15.9126 38.5061 19.701 46.7555 20.9401 49.9862C21.0906 50.3845 21.0109 50.827 20.7189 51.1457C20.4268 51.4643 19.993 51.5883 19.577 51.4643C11.602 49.1542 5.83984 42.0466 5.22025 33.7706L5.15828 32.9563C5.12287 32.5137 5.29991 32.0977 5.61856 31.8233ZM20.4091 50.9952C20.4356 50.9775 20.4621 50.951 20.4799 50.9244C20.6923 50.6943 20.7542 50.3845 20.6392 50.0924C19.4177 46.8882 15.6559 38.7008 7.15867 32.0181C6.83118 31.7614 6.39748 31.726 6.02573 31.9207C5.65397 32.1154 5.44153 32.5049 5.47693 32.9209L5.53891 33.7352C6.14079 41.8784 11.8233 48.8798 19.6655 51.1457C19.9311 51.2342 20.2055 51.1722 20.4091 50.9952Z" fill="#10319B"/>
<path d="M8.07882 34.0447C8.6453 33.5579 9.14985 33.3809 9.16756 33.3809L9.26488 33.6818C9.12326 33.7261 5.84831 34.8679 7.06978 40.0193L6.75999 40.0901C5.94567 36.647 7.10518 34.8856 8.07882 34.0447Z" fill="#10319B"/>
<path d="M10.5399 35.6212C10.8232 35.3734 11.0444 35.276 11.0798 35.2583L11.2038 35.5504C11.1684 35.5681 7.68094 37.179 10.3009 45.2248L9.99999 45.3222C7.91109 38.8962 9.58399 36.4444 10.5399 35.6212Z" fill="#10319B"/>
<path d="M72.9591 57.4223C76.0482 55.298 83.7046 50.8546 94.4058 50.1908C95.4503 50.1288 96.0698 51.3414 95.4148 52.1469L94.9014 52.7842C89.7057 59.2279 81.0581 61.7594 73.207 59.1306C72.4458 58.8827 72.3041 57.8737 72.9591 57.4223Z" fill="#F89E1C"/>
<path d="M74.1899 57.9779C74.2076 57.9779 74.2165 57.9867 74.2342 57.9867C77.1728 58.8099 80.3415 57.6681 82.1118 55.1809C82.696 54.3577 83.1651 53.4283 83.3776 52.4104C78.7483 53.6319 75.4822 55.765 73.9775 56.898C73.5792 57.1989 73.6942 57.8362 74.1899 57.9779Z" fill="#F4B821"/>
<path d="M79.0752 60.0867C85.0852 60.1664 90.9625 57.5641 94.9013 52.7844L95.4147 52.156C95.4766 52.0763 95.5209 51.9966 95.5651 51.917L95.0783 50.3857C94.8924 50.2795 94.6711 50.2264 94.4233 50.2441C93.3435 50.3149 92.3079 50.4211 91.29 50.5627C90.4668 56.0063 82.8812 58.9449 79.0752 60.0867Z" fill="#F5851F"/>
<path d="M89.4225 51.3679C89.7589 52.6602 89.6792 55.6431 84.1649 59.6793L83.0762 59.7501C90.7591 54.4393 88.6259 51.0582 88.5994 51.0316L89.1304 50.6687C89.157 50.6953 89.3074 50.9431 89.4225 51.3679Z" fill="#F89E1C"/>
<path d="M91.8657 50.4135C91.8657 50.4135 94.3086 53.237 89.998 57.0077C89.998 57.0077 95.6186 53.3432 95.539 51.0153C95.539 51.0242 95.4859 49.5283 91.8657 50.4135Z" fill="#032663"/>
<path d="M95.7959 51.0582C95.9021 51.4742 95.8136 51.9079 95.5392 52.2531L95.0259 52.8904C89.8125 59.3519 81.0231 61.9187 73.1543 59.2899C72.7472 59.1571 72.4551 58.8031 72.3931 58.3782C72.3312 57.9534 72.517 57.5374 72.8711 57.2984C75.7212 55.3422 83.528 50.713 94.3974 50.0403C94.9373 50.0049 95.433 50.2882 95.6897 50.775C95.734 50.8635 95.7693 50.9609 95.7959 51.0582ZM72.7295 58.4313C72.8003 58.6969 72.9862 58.9005 73.2517 58.989C80.9966 61.5735 89.6443 59.0509 94.7691 52.6869L95.2825 52.0496C95.5481 51.7221 95.5923 51.2884 95.3976 50.9078C95.2029 50.536 94.8311 50.3236 94.4151 50.3501C83.6254 51.0228 75.8805 55.6166 73.0481 57.5551C72.7914 57.7321 72.6675 58.0153 72.7118 58.3251C72.7118 58.3605 72.7206 58.3959 72.7295 58.4313Z" fill="#10319B"/>
<path d="M92.5117 51.4821C92.8392 52.7301 92.7861 54.8367 90.1573 57.2089L89.9448 56.9699C93.8836 53.4205 91.8302 50.6235 91.7417 50.5085L91.9983 50.3137C91.9983 50.3314 92.317 50.7563 92.5117 51.4821Z" fill="#10319B"/>
<path d="M89.5908 51.3834C89.9094 52.6049 89.8917 55.5789 84.5101 59.6771L84.3154 59.4204C91.069 54.269 89.0951 50.9763 89.0774 50.9409L89.3429 50.7727C89.3695 50.8081 89.4934 51.0205 89.5908 51.3834Z" fill="#10319B"/>
<path d="M41.5638 73.5123C40.9354 73.4061 40.3334 73.1405 39.8024 72.7245C38.6871 71.8482 38.1384 70.4851 38.3331 69.0778L39.4572 61.1736C39.6608 59.7662 40.5636 58.6067 41.8824 58.0756C43.2013 57.5446 44.6617 57.7481 45.777 58.6333L52.1057 63.5988C53.1855 64.4486 53.7343 65.7674 53.575 67.1305C53.4157 68.4936 52.5748 69.6443 51.3268 70.2196C51.2914 70.2373 51.2471 70.255 51.2028 70.2727L51.1497 70.2904L43.6881 73.291C42.9977 73.5565 42.2631 73.6362 41.5638 73.5123ZM43.9094 58.474C43.3164 58.3677 42.7056 58.4385 42.1214 58.6687C41.015 59.1112 40.2538 60.0849 40.0856 61.2621L38.9615 69.1663C38.7933 70.3435 39.2536 71.4853 40.1919 72.22C41.1301 72.9547 42.3516 73.1317 43.458 72.6803L50.9638 69.662C50.9993 69.6443 51.0347 69.6354 51.0612 69.6177C52.1057 69.1397 52.8049 68.1838 52.9377 67.042C53.0705 65.9002 52.619 64.8026 51.7073 64.0945L45.3787 59.1289C44.945 58.7837 44.4405 58.5625 43.9094 58.474Z" fill="#F89E1C"/>
<path d="M51.0257 69.8845C51.0611 69.8668 51.0965 69.8491 51.1319 69.8403C53.4952 68.7604 53.9112 65.5297 51.8312 63.9011L45.6441 59.0506C43.5021 57.3688 40.351 58.6434 39.9616 61.3342L38.864 69.0614C38.4834 71.7522 41.1565 73.8499 43.6791 72.8409L50.9726 69.9111C50.9991 69.9022 51.0168 69.8934 51.0257 69.8845Z" fill="#032663"/>
<path d="M48.3794 68.2129C48.3971 68.2041 48.4236 68.1952 48.4413 68.1864C49.7779 67.5756 50.008 65.7611 48.8396 64.8406L45.3522 62.1144C44.1485 61.1673 42.3693 61.8843 42.148 63.3978L41.5285 67.7527C41.316 69.2662 42.8208 70.4523 44.2458 69.877L48.3528 68.2218C48.3617 68.2218 48.3705 68.2218 48.3794 68.2129Z" fill="#33FCFE"/>
<path d="M75.0835 41.3311L79.5269 39.676C79.5269 39.676 82.6867 28.2755 79.8543 22.354L78.1992 25.4962C78.1903 25.4962 79.4914 28.3109 75.0835 41.3311Z" fill="#F4B821"/>
<path d="M67.7721 59.8926C66.4975 60.9193 59.7617 62.9197 59.7617 62.9197C59.7617 62.9197 61.6116 64.8847 61.0628 68.2659C60.6557 70.7974 57.8852 72.6384 57.8852 72.6384C59.6466 75.2053 58.1773 78.9228 56.0796 81.5782C53.9818 84.2336 55.2387 85.3312 55.2387 85.3312C55.2387 85.3312 66.9224 73.0721 69.0821 65.4246C69.9584 62.3178 67.7721 59.8926 67.7721 59.8926Z" fill="#F4B821"/>
<path d="M23.312 67.3101C23.312 67.3101 25.7904 67.3189 26.7994 69.1777C27.8085 71.0276 32.9865 86.8271 35.6684 92.6159C36.1552 93.6603 37.2528 97.1477 39.2089 96.8291C39.2089 96.8291 36.3942 97.8381 33.2697 93.3859C30.1541 88.9249 24.7282 72.2756 23.312 67.3101Z" fill="#0E51A0"/>
<path d="M83.1825 16.7852C83.1293 16.7319 83.1293 16.652 83.1825 16.5988C83.2358 16.5455 83.3157 16.5455 83.369 16.5988C83.4222 16.652 83.4222 16.7319 83.369 16.7852C83.3157 16.8385 83.2358 16.8385 83.1825 16.7852Z" fill="white"/>
<path d="M3.31942 52.8983C5.46786 52.2537 8.42108 52.4328 10.2196 53.9153C11.6192 55.0612 12.403 57.5463 10.3526 58.3986C9.54779 58.728 6.89549 58.728 6.58057 57.6108C6.35663 56.8301 7.17542 56.3646 7.83325 56.2643C9.75775 55.9564 11.5633 58.0333 11.5143 59.8882C11.4513 62.6741 8.28114 63.598 6.04172 63.6195C5.89476 63.6195 5.92975 63.906 6.04172 63.9131C9.85573 64.2927 14.1106 60.676 10.7165 57.0521C9.80673 56.0781 8.37911 55.3834 7.06345 55.9206C6.32164 56.2285 5.7338 56.9161 6.1047 57.7397C6.69955 59.0646 9.09292 59.2938 10.2546 58.9572C10.5626 58.8733 10.8505 58.7257 11.1005 58.5235C11.3505 58.3212 11.5574 58.0687 11.7082 57.7814C11.8591 57.4941 11.9508 57.1782 11.9776 56.8532C12.0044 56.5282 11.9658 56.201 11.8642 55.8919C10.9264 52.3683 6.10469 51.5948 3.24944 52.6906C3.16546 52.6906 3.20046 52.9269 3.29843 52.8983H3.31942Z" fill="#FF9E16"/>
<path d="M74.6899 5.76904C74.6899 5.76904 74.3574 11.9574 78.9479 15.3968L83.7558 13.9264C83.7558 13.9264 80.5463 12.3921 78.9479 5.76904H74.6899Z" fill="#0055B8"/>
<path d="M9.05774 83.559C9.05774 83.559 7.22702 86.9482 3.4987 87.364L1.25 85.1045C1.25 85.1045 4.00027 85.5046 7.10163 82.4841L9.05774 83.559Z" fill="#007BE0"/>
<path d="M98.72 28.7676C96.4024 28.0636 93.2166 28.2592 91.2689 29.8784C89.759 31.13 88.9211 33.8443 91.133 34.7752C92.0012 35.135 94.8623 35.135 95.202 33.9147C95.4436 33.0621 94.5604 32.5537 93.8507 32.4441C91.7747 32.1078 89.827 34.3763 89.8723 36.4023C89.9478 39.4451 93.3676 40.4542 95.7833 40.4777C95.9419 40.4777 95.9041 40.7906 95.7833 40.7984C91.669 41.213 87.079 37.2627 90.7329 33.3046C91.7218 32.2408 93.2619 31.482 94.6811 32.0687C95.4814 32.405 96.1155 33.156 95.7154 34.0555C95.0737 35.5027 92.4919 35.753 91.2387 35.3853C90.9064 35.2938 90.5959 35.1325 90.3262 34.9116C90.0564 34.6908 89.8333 34.4149 89.6706 34.1011C89.5078 33.7873 89.409 33.4423 89.38 33.0873C89.3511 32.7323 89.3927 32.375 89.5023 32.0374C90.514 28.1888 95.7078 27.344 98.7955 28.5408C98.8861 28.5408 98.8483 28.7989 98.7427 28.7676H98.72Z" fill="#002E6D"/>
<path d="M62.7925 94.7073C62.7925 94.7073 64.6252 98.5932 68.3575 99.0699L70.6002 96.4793C70.6002 96.4793 68.2738 96.6772 65.2026 93.2141L62.7925 94.7073Z" fill="#998122"/>
<path d="M10.0337 13.8603C10.0337 13.8603 16.1842 14.6275 19.9307 10.2803L18.8055 5.3833C18.8055 5.3833 17.0409 8.47748 10.3278 9.6282L10.0337 13.8603Z" fill="#FF9E16"/>
<path d="M85.1831 70.3256C85.1831 70.3256 87.4715 75.0704 92.1319 75.6526L94.9428 72.4893C94.9428 72.4893 91.505 73.0495 87.6282 68.8208L85.1831 70.3256Z" fill="#FFE784"/>
</g>
</svg>
