<svg width="80" height="80" viewBox="0 0 80 80" fill="none" xmlns="http://www.w3.org/2000/svg">
<mask id="mask0_908_5052" style="mask-type:alpha" maskUnits="userSpaceOnUse" x="0" y="0" width="80" height="80">
<rect width="80" height="80" fill="#D9D9D9"/>
</mask>
<g mask="url(#mask0_908_5052)">
<path d="M61.5093 51.7308C63.1831 49.3685 66.6893 43.5116 67.2954 35.2785C67.3531 34.4747 66.4224 33.9925 65.7875 34.4887L65.2897 34.8801C60.254 38.8289 58.2195 45.4686 60.189 51.5351C60.3766 52.1082 61.1558 52.234 61.5093 51.7308Z" fill="#F5851F"/>
<path d="M60.1897 51.5273C60.3773 52.1074 61.1565 52.2262 61.51 51.7299C62.9818 49.6542 65.8748 44.8667 66.957 38.1501C65.2471 43.9371 61.2863 48.8504 59.8867 50.4649C59.9733 50.8214 60.0743 51.1778 60.1897 51.5273Z" fill="#F89E1C"/>
<path d="M59.8359 43.5954L59.9081 42.9734C64.1214 37.3891 66.7691 39.2482 66.8845 39.3251L66.6176 39.7444L66.7547 39.5348L66.632 39.5837C66.6032 39.5697 63.9987 37.9622 59.8359 43.5954Z" fill="#F89E1C"/>
<path d="M67.1007 37.2282C67.1007 37.2282 64.9292 35.3272 61.9712 38.6121C61.9712 38.6121 64.7993 34.2369 66.6029 34.3208C66.6029 34.3208 67.8222 34.4466 67.1007 37.2282Z" fill="#032663"/>
<path d="M60.9037 52.171C60.8604 52.171 60.8171 52.171 60.7738 52.164C60.442 52.1151 60.175 51.8845 60.074 51.57C58.0972 45.4895 60.1606 38.745 65.218 34.7822L65.7158 34.3908C66.0477 34.1322 66.495 34.0903 66.8701 34.2859C67.2453 34.4816 67.4617 34.866 67.4256 35.2854C66.8124 43.6443 63.1619 49.62 61.6179 51.8006C61.452 52.0312 61.1851 52.171 60.9037 52.171ZM66.3651 34.4118C66.1847 34.4118 66.0116 34.4677 65.8673 34.5865L65.3695 34.9779C60.3987 38.8708 58.3642 45.5104 60.3121 51.4931C60.3843 51.7237 60.5718 51.8775 60.8171 51.9124C61.0552 51.9474 61.2789 51.8495 61.4159 51.6608C62.9454 49.4942 66.5743 43.5675 67.1804 35.2714C67.202 34.9499 67.0433 34.6634 66.7547 34.5096C66.6248 34.4397 66.495 34.4118 66.3651 34.4118Z" fill="#10319B"/>
<path d="M62.0001 38.6612L61.8125 38.4934C64.756 35.3204 67.1513 37.1166 67.1729 37.1376L67.0214 37.3333C66.9348 37.2564 64.7849 35.6559 62.0001 38.6612Z" fill="#10319B"/>
<path d="M60.0517 42.9662L59.8569 42.8125C64.0486 37.4728 66.6891 39.0873 66.7973 39.1642L66.6603 39.3738C66.6386 39.3599 64.0919 37.8292 60.0517 42.9662Z" fill="#10319B"/>
<path d="M20.7979 56.937C17.3204 50.9263 20.8916 43.3082 27.7743 42.1271L30.4365 41.6728C30.4581 41.6728 30.4726 41.6658 30.4942 41.6588L37.1388 40.5196L43.7473 39.1707C43.769 39.1637 43.7834 39.1637 43.805 39.1637L46.4528 38.6255C53.2922 37.2277 59.4173 43.0217 58.3928 49.885C58.061 52.1285 57.6425 54.2252 57.1664 56.2031C56.9211 57.3563 56.5748 58.6283 56.1636 59.9632C54.4032 65.9249 52.2388 70.5797 50.6156 74.3538C50.5506 74.5005 50.4857 74.6403 50.4136 74.7801C49.3314 77.2053 47.0227 78.708 44.4976 79.1413C41.987 79.6515 39.2887 79.0924 37.3841 77.2263C37.2687 77.1214 37.1532 77.0166 37.0378 76.8978C34.1375 73.9694 30.4076 70.4189 26.5767 65.5056C25.7037 64.4153 24.9101 63.3529 24.2608 62.3675C23.0993 60.7041 21.9378 58.9009 20.7979 56.937Z" fill="#F89E1C"/>
<path d="M34.8588 67.8205C32.3048 64.5776 35.537 61.4255 40.1038 63.012C45.5435 64.9061 48.2057 63.0959 50.4494 57.0922C52.2747 52.2139 56.3726 52.6122 57.8443 52.9337C57.6279 54.0799 57.3826 55.1842 57.1301 56.2605C56.8848 57.4137 56.5385 58.6858 56.1273 60.0207C54.3669 65.9824 52.2026 70.6371 50.5793 74.4112C50.5144 74.558 50.4494 74.6978 50.3773 74.8375C49.2951 77.2628 46.9864 78.7654 44.4614 79.1987C41.9507 79.7089 39.2524 79.1498 37.3478 77.2837C37.2324 77.1789 37.1169 77.0741 37.0015 76.9552C36.0564 75.9977 35.0175 74.9773 33.9209 73.8591C35.8111 73.1881 37.3262 70.9516 34.8588 67.8205Z" fill="#032663"/>
<path d="M42.7302 79.4984C40.6524 79.4984 38.6973 78.7506 37.2832 77.3668C37.1678 77.2619 37.0524 77.1571 36.9369 77.0383C36.5257 76.6189 36.0928 76.1856 35.6455 75.7383C35.0756 75.1652 34.4768 74.5711 33.8563 73.9421L33.7192 73.8023L33.8996 73.7394C34.9024 73.383 35.66 72.6212 35.9197 71.7126C36.2443 70.5803 35.8475 69.2594 34.7726 67.8895C33.7048 66.5337 33.5533 65.059 34.3613 63.9337C35.2415 62.7176 37.377 61.9209 40.1618 62.8853C45.3924 64.7095 48.0545 63.1789 50.3488 57.0425C52.1813 52.1361 56.2358 52.4436 57.888 52.8071L58.0034 52.835L57.9817 52.9539C57.7653 54.0721 57.5272 55.1904 57.2675 56.2807C57.0366 57.364 56.6976 58.629 56.2647 60.0478C54.7569 65.1568 52.9244 69.3712 51.4454 72.7679C51.1929 73.348 50.9476 73.9141 50.7167 74.4593C50.6518 74.6061 50.5868 74.7528 50.5147 74.8926C49.483 77.192 47.2393 78.8484 44.5122 79.3237C43.9134 79.4425 43.3218 79.4984 42.7302 79.4984ZM34.1737 73.9072C34.7437 74.4872 35.292 75.0394 35.8259 75.5706C36.2732 76.0179 36.7061 76.4512 37.1245 76.8705C37.2327 76.9823 37.3482 77.0872 37.4636 77.192C39.2167 78.9113 41.8284 79.6172 44.4689 79.0791C47.1239 78.6248 49.2954 77.0173 50.291 74.7878C50.3632 74.641 50.4281 74.5012 50.4931 74.3614C50.7239 73.8163 50.9692 73.2572 51.2217 72.6701C52.6935 69.2874 54.526 65.0729 56.0338 59.9779C56.4667 58.5661 56.8058 57.3081 57.0366 56.2317C57.2892 55.1834 57.52 54.107 57.7292 53.0307C56.0699 52.6953 52.3183 52.5275 50.5941 57.1333C48.2638 63.3606 45.414 64.9821 40.0897 63.123C37.4275 62.2004 35.4074 62.9343 34.5778 64.0805C33.8347 65.1079 33.9862 66.4708 34.9818 67.7358C36.4103 69.5529 36.4175 70.9368 36.1722 71.7825C35.898 72.712 35.1621 73.4948 34.1737 73.9072Z" fill="#10319B"/>
<path d="M42.7518 79.4986C40.674 79.4986 38.7189 78.7508 37.312 77.367C37.1966 77.2621 37.0812 77.1573 36.9657 77.0385C36.5473 76.6191 36.1144 76.1788 35.6599 75.7315C33.041 73.1106 29.7801 69.8467 26.4974 65.6393C25.5668 64.4791 24.7876 63.4237 24.1743 62.4942C22.9479 60.7399 21.7791 58.9088 20.7042 57.0497C19.0232 54.1352 18.8789 50.7245 20.3146 47.6983C21.743 44.679 24.4629 42.6242 27.7672 42.0581L37.1317 40.4506L46.4312 38.5565C49.7211 37.8856 53.0037 38.8151 55.4494 41.1006C57.9023 43.4 59.0206 46.6289 58.5228 49.9487C58.2054 52.0664 57.7941 54.1911 57.2963 56.2739C57.0655 57.3572 56.7264 58.6222 56.2935 60.041C54.7857 65.15 52.9532 69.3644 51.4742 72.7542C51.2217 73.3342 50.9764 73.9004 50.7455 74.4455C50.6806 74.5923 50.6157 74.739 50.5435 74.8788C49.5118 77.1782 47.2681 78.8347 44.541 79.3099C43.9278 79.4357 43.3362 79.4986 42.7518 79.4986ZM48.5234 38.5915C47.8453 38.5915 47.1599 38.6614 46.4817 38.8011L37.175 40.7022L27.8105 42.3097C24.5856 42.8618 21.9306 44.8677 20.5382 47.8101C19.1386 50.7665 19.2757 54.0933 20.9206 56.9378C21.9883 58.783 23.1499 60.6141 24.3764 62.3614C24.9896 63.2839 25.7615 64.3393 26.685 65.4925C29.9604 69.6929 33.2142 72.9498 35.833 75.5638C36.2804 76.0111 36.7204 76.4514 37.1389 76.8707C37.2471 76.9825 37.3625 77.0874 37.478 77.1922C39.2311 78.9115 41.85 79.6174 44.4833 79.0793C47.1382 78.625 49.3098 77.0175 50.3054 74.788C50.3776 74.6412 50.4425 74.5014 50.5074 74.3616C50.7383 73.8165 50.9836 73.2504 51.2433 72.6703C52.7151 69.2876 54.5476 65.0731 56.0482 59.9851C56.4811 58.5733 56.8202 57.3152 57.051 56.2389C57.5488 54.1632 57.9601 52.0385 58.2775 49.9348C58.7609 46.6918 57.6643 43.5467 55.2762 41.3032C53.4005 39.528 51.0197 38.5915 48.5234 38.5915Z" fill="#10319B"/>
<path d="M22.1758 46.8737C23.597 45.0914 25.6099 43.7985 28.0412 43.3861L30.7178 42.9318C30.7394 42.9318 30.7539 42.9248 30.7755 42.9178L37.4562 41.7786L44.0936 40.4157C44.1152 40.4088 44.1296 40.4088 44.1513 40.4088L46.8135 39.8636C50.5001 39.1088 53.0107 41.3732 55.3338 44.064C55.8605 44.6721 55.6368 45.6296 54.9154 45.9162C48.8263 48.3414 34.7363 52.416 22.1758 46.8737Z" fill="#E26907"/>
<path d="M42.016 60.5016C41.7779 60.5016 41.5399 60.4806 41.2946 60.4387C39.8733 60.1871 38.7334 59.2296 38.2356 57.8877L35.4003 50.1088C34.9241 48.8088 35.1622 47.39 36.0352 46.3067C36.9081 45.2304 38.25 44.6853 39.628 44.867C39.6713 44.874 39.7146 44.881 39.7579 44.8879L39.7146 45.1326L39.7723 44.8879L39.8084 44.8949L48.0113 46.3417C49.4326 46.5933 50.5725 47.5508 51.0703 48.8927C51.5609 50.2416 51.3011 51.7023 50.3705 52.7996L45.0461 59.0828C44.2814 60.0054 43.1848 60.5016 42.016 60.5016ZM39.1086 45.3353C38.0697 45.3353 37.0957 45.7965 36.4248 46.6212C35.66 47.5648 35.458 48.8018 35.8692 49.9411L38.7045 57.7199C39.1374 58.9011 40.133 59.7328 41.3811 59.9564C42.6293 60.1801 43.8557 59.7328 44.671 58.7753L49.9953 52.4921C50.8106 51.5346 51.0342 50.2556 50.6085 49.0744C50.1757 47.8933 49.1801 47.0616 47.932 46.8379L39.6929 45.3842L39.7146 45.1396L39.6713 45.3842C39.6352 45.3772 39.5919 45.3702 39.5559 45.3702C39.4188 45.3422 39.2601 45.3353 39.1086 45.3353Z" fill="#F89E1C"/>
<path d="M41.973 60.5726C41.7349 60.5726 41.4968 60.5516 41.2588 60.5097C39.8519 60.258 38.7192 59.3145 38.2287 57.9796L35.3212 50.012C34.8522 48.7191 35.0831 47.3142 35.9489 46.2449C36.8146 45.1756 38.1493 44.6444 39.5128 44.8191C39.5561 44.8261 39.5994 44.8331 39.6427 44.8401L39.6211 44.9659L39.6499 44.8471L39.6932 44.8541L48.0981 46.3358C49.505 46.5874 50.6377 47.5309 51.1283 48.8658C51.6188 50.2007 51.3591 51.6475 50.4357 52.7378L44.9815 59.1747C44.2239 60.0763 43.1273 60.5726 41.973 60.5726ZM39.0006 45.0358C37.8968 45.0358 36.8579 45.525 36.1509 46.3987C35.3428 47.3981 35.1192 48.7191 35.5593 49.9282L38.4667 57.8957C38.9212 59.1468 39.9818 60.0344 41.3093 60.265C42.6295 60.4957 43.9354 60.0274 44.8011 59.007L50.2553 52.57C51.121 51.5496 51.3591 50.1938 50.9046 48.9427C50.4501 47.6917 49.3895 46.804 48.0621 46.5734L39.6138 45.0847L39.6283 44.9589L39.6066 45.0847C39.5633 45.0777 39.5273 45.0707 39.484 45.0638C39.3181 45.0428 39.1593 45.0358 39.0006 45.0358Z" fill="#10319B"/>
<path d="M42.37 58.3985C42.1896 58.3985 42.0021 58.3845 41.8217 58.3496C40.7323 58.1609 39.8593 57.427 39.4842 56.3996L37.3559 50.5777C36.9952 49.5853 37.1755 48.495 37.8393 47.6703C38.5102 46.8455 39.5347 46.4332 40.588 46.573L40.7323 46.5939L46.8791 47.6772C47.9685 47.866 48.8414 48.5998 49.2166 49.6272C49.5918 50.6546 49.3898 51.7729 48.6827 52.6115L44.6931 57.3152C44.1015 58.0141 43.2574 58.3985 42.37 58.3985ZM40.1912 47.0412C39.4337 47.0412 38.7194 47.3767 38.2289 47.9778C37.6733 48.6627 37.5218 49.5713 37.8248 50.403L39.9531 56.2249C40.2706 57.0846 40.9992 57.6996 41.9083 57.8604C42.8173 58.0211 43.7119 57.6996 44.3107 56.9937L48.3004 52.29C48.892 51.5911 49.0651 50.6546 48.7477 49.7949C48.4302 48.9353 47.7016 48.3202 46.7925 48.1595L40.5303 47.0552C40.4149 47.0482 40.3066 47.0412 40.1912 47.0412Z" fill="#F89E1C"/>
<path d="M40.6601 46.9018C40.6312 46.8948 40.6024 46.8948 40.5663 46.8878C38.5679 46.6292 36.9662 48.5652 37.666 50.4802L39.7438 56.1763C40.4653 58.1473 43.0625 58.6015 44.4189 57.001L48.3147 52.4022C49.671 50.8017 48.7764 48.3416 46.6987 47.9711L40.6961 46.9088C40.6817 46.9088 40.6673 46.9018 40.6601 46.9018Z" fill="#032663"/>
<path d="M41.713 49.0742C41.6986 49.0742 41.6769 49.0672 41.6625 49.0672C40.5371 48.9204 39.6352 50.0177 40.0248 51.0941L41.1936 54.302C41.5976 55.4133 43.0621 55.6719 43.8269 54.7703L46.0273 52.1774C46.7921 51.2758 46.287 49.8849 45.1183 49.6823L41.7347 49.0812C41.7275 49.0742 41.7202 49.0742 41.713 49.0742Z" fill="#F2D822"/>
<path d="M21.5912 49.3328C22.594 50.1086 27.839 51.5693 27.839 51.5693C27.839 51.5693 26.425 53.0999 26.8939 55.6998C27.2402 57.6428 29.4118 59.0266 29.4118 59.0266C28.0771 61.0185 29.2603 63.8701 30.9196 65.8899C32.579 67.9098 31.6122 68.7694 31.6122 68.7694C31.6122 68.7694 22.4064 59.4739 20.6389 53.6101C19.9246 51.2268 21.5912 49.3328 21.5912 49.3328Z" fill="#F4B821"/>
<path d="M56.1636 54.5125C56.1636 54.5125 54.2374 54.5544 53.4798 55.9941C52.7223 57.4339 48.8986 69.6578 46.8857 74.1448C46.525 74.9485 45.7098 77.6533 44.1875 77.4297C44.1875 77.4297 46.3807 78.1775 48.7471 74.7039C51.1135 71.2373 55.1175 58.3495 56.1636 54.5125Z" fill="#0E51A0"/>
<path d="M17.4788 57.9095C19.0227 55.4634 23.0989 49.9769 30.5011 46.2238C31.2225 45.8604 32.0377 46.5243 31.8213 47.3001L31.6554 47.9082C29.9455 54.0516 24.5707 58.4896 18.1786 59.0418C17.5654 59.0907 17.1469 58.4267 17.4788 57.9095Z" fill="#F89E1C"/>
<path d="M18.5252 57.9236C18.5396 57.9236 18.5468 57.9236 18.5612 57.9166C20.906 57.6021 22.8106 55.8199 23.3012 53.5205C23.4599 52.7586 23.5104 51.9549 23.3445 51.1721C20.4226 53.4506 18.7632 55.9596 18.0418 57.2177C17.847 57.5601 18.1284 57.9725 18.5252 57.9236Z" fill="#F4B821"/>
<path d="M22.6445 57.909C26.9444 56.1268 30.3208 52.4785 31.6483 47.9006L31.8214 47.2995C31.8431 47.2297 31.8503 47.1528 31.8575 47.0899L31.035 46.1533C30.8691 46.1394 30.696 46.1673 30.5228 46.2512C29.7797 46.6286 29.0727 47.027 28.3945 47.4393C29.4983 51.5419 25.0037 55.9381 22.6445 57.909Z" fill="#F5851F"/>
<path d="M27.3192 48.5788C27.9613 49.3895 28.8199 51.5212 26.1433 56.0641L25.3857 56.4485C29.2167 50.34 26.6483 48.6068 26.6266 48.5928L26.8936 48.1804C26.9224 48.1944 27.11 48.3132 27.3192 48.5788Z" fill="#F89E1C"/>
<path d="M28.7622 47.1603C28.7622 47.1603 31.3667 48.4044 29.4692 52.3882C29.4692 52.3882 32.3334 48.0759 31.5615 46.4614C31.5687 46.4614 31.0636 45.42 28.7622 47.1603Z" fill="#032663"/>
<path d="M18.1143 59.1674C17.8112 59.1674 17.5299 59.0136 17.3712 58.755C17.198 58.4754 17.198 58.126 17.3784 57.8464C18.7996 55.5889 22.9264 49.9278 30.4511 46.1187C30.8263 45.93 31.2664 45.972 31.5982 46.2445C31.9301 46.5101 32.0672 46.9295 31.9518 47.3418L31.7858 47.9499C30.076 54.1073 24.6146 58.6222 18.2008 59.1743C18.1648 59.1674 18.1359 59.1674 18.1143 59.1674ZM17.5804 57.9722C17.4505 58.1749 17.4505 58.4195 17.5804 58.6222C17.7102 58.8249 17.9267 58.9367 18.1648 58.9158C24.4703 58.3706 29.8451 53.9325 31.5333 47.873L31.6992 47.2649C31.7858 46.9504 31.6848 46.6359 31.4323 46.4262C31.1798 46.2236 30.8479 46.1886 30.5593 46.3354C23.0923 50.1165 18.9944 55.7357 17.5804 57.9722Z" fill="#10319B"/>
<path d="M29.6502 52.4863L29.4193 52.3815C31.1292 48.6633 28.7267 47.2795 28.7051 47.2655L28.8277 47.0488C28.8494 47.0698 31.4538 48.5585 29.6502 52.4863Z" fill="#10319B"/>
<path d="M26.3961 55.9592L26.1797 55.8404C29.3829 50.1513 26.9733 48.411 26.9516 48.397L27.0887 48.1943C27.1969 48.2642 29.722 50.0534 26.3961 55.9592Z" fill="#10319B"/>
<path d="M15.4596 10.4979C16.7206 9.32194 18.2739 8.25514 20.021 7.304L19.9061 7.34821C19.9061 7.34821 25.3762 3.26135 34.2068 2.0487C43.0095 0.839891 49.4351 3.19363 49.4729 3.20978C51.4685 3.65409 53.2887 4.27183 54.8578 5.08054C62.414 8.98599 63.2798 19.4859 61.6059 29.7228C60.4026 37.1711 50.441 41.8534 40.0177 43.1212C29.6385 44.7101 18.7835 42.8864 15.603 36.0401C11.2325 26.6403 9.23586 16.2957 15.4596 10.4979Z" fill="#F89E1C"/>
<path d="M15.4642 10.5321C16.1263 9.91489 16.8709 9.329 17.6761 8.77035C11.5996 14.6048 13.5956 24.8925 17.9393 34.2534C21.1218 41.1136 31.9698 42.9383 42.357 41.3554C48.2821 40.6342 54.0548 38.8031 58.1637 35.9913C54.1237 39.8747 47.1895 42.3632 40.0259 43.2331C29.6467 44.822 18.7908 42.9913 15.6083 36.1311C11.2419 26.7093 9.24242 16.3438 15.4642 10.5321Z" fill="#F5851F"/>
<path d="M19.8824 18.8313C15.5383 18.5317 14.3349 11.8406 14.2807 11.5494L14.7814 11.4664C14.79 11.5292 15.9704 18.0527 19.9121 18.3223L19.8824 18.8313Z" fill="#F89E1C"/>
<path d="M51.9803 14.6858L51.7745 14.2233C55.8092 12.4246 55.116 5.56391 55.1064 5.4941L55.6109 5.43904C55.6442 5.73319 56.3505 12.7414 51.9803 14.6858Z" fill="#F4B821"/>
<path d="M35.3421 7.98791C32.9757 8.31288 30.6703 7.83999 29.2066 6.71098C29.159 6.67484 29.1114 6.63871 29.0628 6.5956L26.4025 4.31511L26.8989 3.73485L29.5582 6.00836C29.5909 6.03943 29.6306 6.06954 29.6703 6.09965C31.0943 7.19855 33.438 7.58795 35.8012 7.1354C38.0945 6.69245 39.9842 5.5368 40.8552 4.05873L42.2151 1.73828L42.8726 2.12451L41.5128 4.44496C40.5401 6.1148 38.4544 7.39694 35.9466 7.88357C35.7391 7.92629 35.5446 7.96011 35.3421 7.98791Z" fill="#F4B821"/>
<path d="M35.7032 10.7191C32.5688 11.1495 29.5829 10.4856 27.5219 8.89096C27.4504 8.83676 27.371 8.77654 27.2986 8.71536L27.2182 8.64816L23.568 5.52922L24.0645 4.94896L27.788 8.13606C27.8525 8.19122 27.917 8.24638 27.9875 8.29359C29.8879 9.75382 32.6678 10.3678 35.5997 9.96519C35.837 9.9326 36.0804 9.89206 36.3228 9.84455C39.4262 9.24057 41.945 7.6429 43.2235 5.45454L45.1647 2.13676L45.8223 2.52298L43.8811 5.84077C42.493 8.21488 39.7861 9.94506 36.4682 10.5927C36.2188 10.6412 35.9615 10.6836 35.7032 10.7191Z" fill="#F4B821"/>
<path d="M54.7201 6.97682C53.15 6.16113 51.3279 5.52942 49.3323 5.08511C49.2875 5.06992 42.7818 2.23643 33.9791 3.44525C28.1842 4.23392 23.2564 5.89923 20.5412 6.94776C22.2063 5.86563 27.1215 3.02138 34.2139 2.04743C43.0166 0.838618 49.4461 3.22028 49.4838 3.23643C51.4804 3.68772 53.3016 4.31244 54.8716 5.12813C61.6138 8.6475 63.0429 17.4484 62.0912 26.626C62.6754 18.139 61.0101 10.2596 54.7201 6.97682Z" fill="#F4B821"/>
<path d="M52.3453 14.2869L52.2629 14.0492C56.0879 12.6918 55.5513 5.62473 55.5486 5.55396L55.8019 5.53341C55.8212 5.82948 56.353 12.8617 52.3453 14.2869Z" fill="#10319B"/>
<path d="M43.5453 5.62351L45.4866 2.30572C44.6264 2.15357 43.6327 2.01265 42.5301 1.90802L41.1703 4.22847C40.2489 5.80591 38.2603 7.01783 35.8641 7.48912C33.3981 7.97 30.9361 7.54708 29.4317 6.38098C29.3841 6.34485 29.3444 6.31473 29.3037 6.27764L26.6445 4.00414C25.582 4.39897 24.6361 4.81336 23.8148 5.20352L27.4651 8.32245L27.5454 8.38965C27.6169 8.44385 27.6823 8.50599 27.7537 8.56019C29.7345 10.0876 32.6378 10.7202 35.6465 10.307C35.8909 10.2735 36.1412 10.232 36.3906 10.1835C39.5997 9.57216 42.2086 7.90522 43.5453 5.62351Z" fill="#032663"/>
<path d="M20.2827 18.6902C16.0392 18.3981 14.6373 11.5565 14.5761 11.2662L14.8255 11.2177C14.8421 11.2865 16.2487 18.1631 20.298 18.4391L20.2827 18.6902Z" fill="#10319B"/>
<path d="M39.9493 43.0377C34.8151 43.821 29.5795 43.8145 25.1065 42.8356C23.9695 41.9106 22.9928 40.6507 22.3135 39.1224C20.573 35.2007 18.4625 29.6726 17.072 23.3273C16.3874 20.2065 17.7744 17.1 20.245 16.1348C23.6134 14.8188 28.8553 13.1103 35.2222 12.1364L35.2213 12.1294C35.4028 12.1045 35.5782 12.0875 35.7597 12.0626C35.9412 12.0377 36.1148 12.0067 36.2963 11.9818L36.2973 11.9888C42.6911 11.2104 48.0518 11.2992 51.6502 11.6586C54.2895 11.922 56.6103 14.683 56.7923 17.8728C57.1637 24.358 56.6215 30.2504 56.0025 34.4961C55.7625 36.1151 55.1857 37.5599 54.3681 38.7533C50.2814 40.9503 45.1675 42.3994 39.9493 43.0377Z" fill="#032663"/>
<path d="M57.1859 36.744L56.2495 37.4345C56.3613 36.8501 56.546 35.8646 56.6643 35.1727C56.9831 33.3508 57.3461 31.2811 57.7294 29.8771C58.3496 27.6084 60.6682 25.6399 62.2254 24.6011L62.0897 25.7363C60.6375 26.711 59.0199 28.0356 58.4618 30.0823C58.0886 31.4565 57.7297 33.5043 57.409 35.3122C57.2966 35.9962 57.2977 36.1597 57.1859 36.744Z" fill="#F4B821"/>
<path d="M22.095 41.7272C22.0391 41.7349 21.9855 41.7067 21.9648 41.6598C21.7292 41.1871 21.4799 40.6666 21.2227 40.14C20.4471 38.5325 19.5632 36.7051 18.7969 35.4234C17.6809 33.5638 15.7154 32.7171 13.9349 32.1295C13.8682 32.1102 13.8297 32.0372 13.856 31.9696C13.8753 31.9029 13.9483 31.8645 14.0159 31.8907C15.8402 32.4866 17.8594 33.3615 19.0208 35.2931C19.796 36.5877 20.68 38.4151 21.4564 40.0297C21.7137 40.5563 21.962 41.0698 22.1916 41.5504C22.2211 41.6103 22.1968 41.6919 22.1368 41.7215C22.1229 41.7234 22.1089 41.7253 22.095 41.7272Z" fill="#F89E1C"/>
<path d="M62.1688 25.6906C62.0469 27.0303 61.8772 28.3836 61.6566 29.7297C61.206 32.5085 59.5638 34.8961 57.1405 36.879C57.5437 34.7397 57.8027 32.3784 58.3223 30.4649C58.9444 28.2102 60.7936 26.6049 62.1688 25.6906Z" fill="#032663"/>
<path d="M60.9316 29.9928C61.1073 29.2006 61.262 28.4112 61.4019 27.6167C60.6891 28.2267 59.986 29.063 59.6363 30.1423C59.2604 31.2892 58.9818 32.6788 58.6806 34.0075C59.7919 32.8805 60.5824 31.5415 60.9316 29.9928Z" fill="#0E51A0"/>
<path d="M57.2989 36.8428L57.051 36.7986C57.1915 36.061 57.3123 35.2834 57.43 34.5347C57.6539 33.1099 57.8931 31.6403 58.2318 30.3776C58.846 28.1169 60.6933 26.4976 62.1255 25.5328L62.2679 25.7409C60.8677 26.6799 59.0774 28.2487 58.4746 30.4367C58.134 31.6855 57.9009 33.1471 57.6759 34.5649C57.5602 35.3276 57.4394 36.1052 57.2989 36.8428Z" fill="#10319B"/>
<path d="M13.96 32.3108C14.4384 33.568 14.9667 34.8255 15.542 36.0622C16.7249 38.6167 18.95 40.4733 21.8181 41.7295C20.8531 39.7781 19.9672 37.574 18.9511 35.8715C17.7512 33.867 15.5307 32.8206 13.96 32.3108Z" fill="#032663"/>
<path d="M40.7169 43.1388C40.4865 43.1704 40.2561 43.2021 40.0318 43.2258C30.8853 44.624 18.9797 43.5918 15.4878 36.0841C12.3594 29.3587 8.19191 17.0861 15.3741 10.3957L15.4583 10.4908L15.3741 10.3957C16.6291 9.22761 19.7966 7.27771 19.9346 7.19475C19.9796 7.16012 25.4354 3.12499 34.1962 1.92193C42.985 0.715036 49.4595 3.06206 49.5271 3.08834C51.5734 3.5399 53.3956 4.17161 54.9269 4.96417C63.6468 9.47085 62.9417 22.4126 61.7411 29.7254C60.4323 37.7003 49.7569 41.8974 40.7169 43.1388ZM39.9903 42.9754C40.2137 42.9447 40.445 42.9201 40.6754 42.8885C49.6316 41.6585 60.202 37.5256 61.4872 29.6891C62.6755 22.442 63.3838 9.62786 54.8091 5.19372C53.2936 4.41321 51.4934 3.7856 49.454 3.33308C49.3715 3.30174 42.9506 0.982909 34.2317 2.18022C25.5407 3.37369 20.1289 7.3672 20.0779 7.40978C20.0389 7.43647 16.7924 9.43278 15.5495 10.585C8.47949 17.1604 12.6237 29.3153 15.7146 35.9748C19.1464 43.3556 30.9415 44.3603 39.9903 42.9754Z" fill="#10319B"/>
<path d="M39.8534 41.9272C35.4502 42.5958 30.9696 42.6493 27.0482 41.9573C26.4429 41.8484 25.8714 41.5713 25.4413 41.1325C24.7069 40.3941 24.085 39.4908 23.6083 38.4539C22.0151 34.9316 20.087 29.9545 18.8265 24.2457C18.206 21.4362 19.4927 18.635 21.7695 17.7605C24.8771 16.5656 29.7136 15.0124 35.5858 14.1135L35.5849 14.1066C35.7524 14.0836 35.913 14.0615 36.0815 14.0455C36.249 14.0225 36.4086 13.9934 36.5762 13.9704L36.5771 13.9774C42.4743 13.2601 47.5435 13.453 50.8651 13.765C53.3003 13.9925 55.2876 16.344 55.4473 19.2168C55.7654 25.0551 55.2573 30.3666 54.6725 34.188C54.499 35.3072 54.1487 36.3297 53.6465 37.2308C53.3617 37.7464 52.9191 38.1486 52.3926 38.4058C48.7546 40.1927 44.3516 41.3806 39.8534 41.9272Z" fill="#FCE8CA"/>
<path d="M39.1751 43.2011C34.0862 43.8999 29.2208 43.7928 25.0634 42.8843L25.0345 42.8812L25.0107 42.8631C23.8251 41.895 22.8496 40.5923 22.1821 39.0979C20.5843 35.4909 18.368 29.8137 16.9259 23.2479C16.2237 20.0513 17.618 16.894 20.1765 15.8954C23.6127 14.5558 39.046 9.89026 51.7852 11.5548C54.5157 11.9124 56.7095 14.577 56.8905 17.7598C57.2716 24.4714 56.6747 30.5348 56.1014 34.44C55.8716 36.0292 55.2944 37.5238 54.4467 38.7568L54.4286 38.7807L54.4026 38.7984C50.4829 40.9157 45.3515 42.4453 39.9509 43.1016C39.6917 43.1301 39.4334 43.1656 39.1751 43.2011ZM39.9215 42.8354C45.2802 42.1849 50.3636 40.6689 54.2584 38.5764C55.075 37.3761 55.6309 35.9342 55.8535 34.3958C56.4217 30.5055 57.0206 24.456 56.6354 17.7664C56.4636 14.7032 54.362 12.1398 51.748 11.8017C39.0596 10.1444 23.6882 14.7944 20.2649 16.1251C17.8283 17.0785 16.4954 20.1136 17.1733 23.1855C18.6126 29.7303 20.8131 35.3954 22.4089 38.9885C23.0567 40.4429 23.9985 41.7076 25.1444 42.6456C29.4174 43.5666 34.6625 43.6429 39.9215 42.8354Z" fill="#10319B"/>
<path d="M21.6928 41.647C21.3685 40.9945 21.0543 40.3122 20.75 39.6499C20.1522 38.3522 19.5276 37.0155 18.8532 35.8848C17.6898 33.9392 15.535 32.9051 13.9345 32.3852L14.0155 32.1465C15.6538 32.6826 17.8623 33.7449 19.0711 35.7624C19.7535 36.8991 20.3799 38.2498 20.9778 39.5475C21.2821 40.2098 21.5963 40.8921 21.9196 41.5376L21.6928 41.647Z" fill="#10319B"/>
<path d="M58.4682 26.1415L61.4415 23.8129C61.4415 23.8129 61.088 14.402 57.5063 10.5909L57.0059 13.3694C57.0059 13.3694 58.6721 15.196 58.4682 26.1415Z" fill="#F4B821"/>
<path fill-rule="evenodd" clip-rule="evenodd" d="M30.4043 30.2704C29.3847 30.6513 28.5558 31.4969 28.0995 32.3094C27.8981 32.668 27.4398 32.7934 27.0759 32.5894C26.712 32.3855 26.5803 31.9294 26.7817 31.5709C27.3688 30.5255 28.4416 29.4011 29.8592 28.8716C31.3271 28.3233 33.0848 28.4458 34.8784 29.7862C35.1235 29.9694 35.2347 30.28 35.1598 30.5726C35.0849 30.8652 34.8388 31.082 34.5366 31.1215C34.0867 31.1803 33.3615 31.2969 32.7012 31.537C32.0011 31.7916 31.5828 32.1097 31.4494 32.4385C31.2949 32.8197 30.8566 33.0009 30.4705 32.8431C30.0844 32.6854 29.8966 32.2485 30.0512 31.8673C30.4337 30.9238 31.3901 30.4166 32.1684 30.1337C32.1763 30.1308 32.1842 30.1279 32.1921 30.1251C31.5309 29.9917 30.9312 30.0736 30.4043 30.2704Z" fill="#0E51A0"/>
<path d="M47.9479 30.3351L47.9545 30.7679L42.0248 30.9742L42.0182 30.5414L47.9479 30.3351Z" fill="#0052A3"/>
<path d="M47.9588 30.9285C47.9543 31.0755 47.9494 31.2156 47.9238 31.357L42.0973 31.5566C42.0678 31.4188 42.0517 31.2731 42.0425 31.127L47.9588 30.9285Z" fill="#0052A3"/>
<path d="M47.2213 26.6669L42.5469 26.8334C42.6611 26.6723 42.7899 26.5243 42.9265 26.3897L46.8151 26.2537C46.968 26.3763 47.1011 26.5142 47.2213 26.6669Z" fill="#0052A3"/>
<path d="M45.8048 25.698C46.0939 25.7907 46.3719 25.926 46.6177 26.0983L43.1221 26.2158C43.3589 26.0259 43.6253 25.8688 43.9086 25.7595L45.8048 25.698Z" fill="#0052A3"/>
<path d="M47.6628 27.4022C47.7198 27.5382 47.7634 27.682 47.8002 27.8264L42.0288 28.0223C42.0608 27.8735 42.1002 27.7312 42.1465 27.5884L47.6628 27.4022Z" fill="#0052A3"/>
<path d="M47.8382 27.9848C47.8677 28.1227 47.8838 28.2684 47.893 28.4145L41.9702 28.6203C41.9678 28.4737 41.9797 28.3332 41.9984 28.1922L47.8382 27.9848Z" fill="#0052A3"/>
<path d="M47.349 26.821C47.4404 26.9547 47.5185 27.0963 47.5901 27.2453L42.2119 27.4297C42.2783 27.2787 42.3448 27.1276 42.4328 26.9892L47.349 26.821Z" fill="#0052A3"/>
<path d="M47.9142 29.1625L47.9273 29.5879L41.9976 29.7941L41.9845 29.3687L47.9142 29.1625Z" fill="#0052A3"/>
<path d="M47.9044 28.5755L47.9106 29.0013L41.9809 29.2076L41.9743 28.7748L47.9044 28.5755Z" fill="#0052A3"/>
<path d="M47.9313 29.7491L47.9448 30.1815L42.0146 30.3808L42.0016 29.9554L47.9313 29.7491Z" fill="#0052A3"/>
<path d="M40.2909 34.1963C40.425 34.18 40.5366 34.2918 40.5217 34.424C40.4688 34.8551 40.1316 35.2089 39.6831 35.2723C39.2328 35.3298 38.8149 35.0711 38.6435 34.6718C38.5914 34.5477 38.6753 34.4132 38.8018 34.3929L40.2909 34.1963Z" fill="#032663"/>
<path d="M27.8531 25.4305C27.8877 25.4197 27.9244 25.3955 27.9516 25.3614C28.3553 24.8964 28.9384 24.6567 29.5565 24.7068C29.6924 24.7155 29.8066 24.6159 29.8157 24.4852C29.823 24.3486 29.7229 24.2328 29.5927 24.2222C28.8254 24.1612 28.096 24.4593 27.5895 25.0395C27.5021 25.1436 27.5118 25.294 27.6162 25.383C27.6748 25.4478 27.7685 25.4633 27.8531 25.4305Z" fill="#032663"/>
<path d="M47.1183 22.8449C47.08 22.8441 47.0438 22.8298 47.0039 22.804C46.4894 22.4606 45.8608 22.3761 45.2805 22.5826C45.1556 22.6279 45.0147 22.5634 44.9665 22.4318C44.9202 22.3059 44.9831 22.1651 45.1137 22.118C45.8363 21.8607 46.6216 21.9602 47.2652 22.3909C47.3772 22.4644 47.4061 22.6148 47.334 22.7266C47.2909 22.8102 47.2024 22.8505 47.1183 22.8449Z" fill="#032663"/>
</g>
</svg>
