<svg width="328" height="68" viewBox="0 0 328 68" fill="none" xmlns="http://www.w3.org/2000/svg">
<rect width="328" height="68" fill="#FFF7D7"/>
<path d="M17.104 18.832V30H23.024V28.224H19.344V18.832H17.104ZM24.6077 30H26.8477V21.136H24.6077V30ZM25.7437 20.08C26.5278 20.08 27.1198 19.504 27.1198 18.768C27.1198 18.032 26.5278 17.456 25.7437 17.456C24.9437 17.456 24.3677 18.032 24.3677 18.768C24.3677 19.504 24.9437 20.08 25.7437 20.08ZM29.5729 27.248C29.5729 29.28 30.7089 30 32.4049 30H33.8129V28.112H32.7729C32.0689 28.112 31.8289 27.856 31.8289 27.264V22.976H33.8129V21.136H31.8289V18.944H29.5729V21.136H28.5169V22.976H29.5729V27.248ZM39.392 22.832C40.544 22.832 41.472 23.568 41.504 24.736H37.296C37.472 23.52 38.32 22.832 39.392 22.832ZM43.6 27.216H41.184C40.896 27.808 40.368 28.288 39.408 28.288C38.288 28.288 37.392 27.552 37.28 26.24H43.76C43.808 25.952 43.824 25.664 43.824 25.376C43.824 22.736 42.016 20.992 39.456 20.992C36.832 20.992 35.008 22.768 35.008 25.568C35.008 28.352 36.88 30.144 39.456 30.144C41.648 30.144 43.12 28.848 43.6 27.216ZM47.859 25.584C47.859 23.872 48.659 23.36 49.987 23.36H50.579V21.008C49.347 21.008 48.419 21.6 47.859 22.512V21.136H45.619V30H47.859V25.584ZM51.6717 25.536C51.6717 28.304 53.4637 30.144 55.7037 30.144C57.1117 30.144 58.1197 29.472 58.6477 28.704V30H60.9037V21.136H58.6477V22.4C58.1197 21.664 57.1437 20.992 55.7197 20.992C53.4637 20.992 51.6717 22.768 51.6717 25.536ZM58.6477 25.568C58.6477 27.248 57.5277 28.176 56.2957 28.176C55.0957 28.176 53.9597 27.216 53.9597 25.536C53.9597 23.856 55.0957 22.96 56.2957 22.96C57.5277 22.96 58.6477 23.888 58.6477 25.568ZM70.1315 27.472C70.0675 24.224 65.1555 25.232 65.1555 23.616C65.1555 23.104 65.5875 22.768 66.4195 22.768C67.2995 22.768 67.8435 23.232 67.9075 23.92H70.0515C69.9235 22.16 68.6275 20.992 66.4835 20.992C64.2915 20.992 62.9795 22.176 62.9795 23.648C62.9795 26.896 67.9875 25.888 67.9875 27.472C67.9875 27.984 67.5075 28.384 66.6275 28.384C65.7315 28.384 65.1075 27.872 65.0275 27.2H62.7715C62.8675 28.848 64.4195 30.144 66.6435 30.144C68.8035 30.144 70.1315 28.992 70.1315 27.472ZM72.1302 30H74.3702V21.136H72.1302V30ZM73.2662 20.08C74.0502 20.08 74.6422 19.504 74.6422 18.768C74.6422 18.032 74.0502 17.456 73.2662 17.456C72.4662 17.456 71.8902 18.032 71.8902 18.768C71.8902 19.504 72.4662 20.08 73.2662 20.08Z" fill="#1D252D"/>
<path d="M22.072 43.636V44.524H19.792V52H18.7V44.524H16.408V43.636H22.072ZM29.6662 48.46C29.6662 48.668 29.6542 48.888 29.6302 49.12H24.3742C24.4142 49.768 24.6342 50.276 25.0342 50.644C25.4422 51.004 25.9342 51.184 26.5102 51.184C26.9822 51.184 27.3742 51.076 27.6862 50.86C28.0062 50.636 28.2302 50.34 28.3582 49.972H29.5342C29.3582 50.604 29.0062 51.12 28.4782 51.52C27.9502 51.912 27.2942 52.108 26.5102 52.108C25.8862 52.108 25.3262 51.968 24.8302 51.688C24.3422 51.408 23.9582 51.012 23.6782 50.5C23.3982 49.98 23.2582 49.38 23.2582 48.7C23.2582 48.02 23.3942 47.424 23.6662 46.912C23.9382 46.4 24.3182 46.008 24.8062 45.736C25.3022 45.456 25.8702 45.316 26.5102 45.316C27.1342 45.316 27.6862 45.452 28.1662 45.724C28.6462 45.996 29.0142 46.372 29.2702 46.852C29.5342 47.324 29.6662 47.86 29.6662 48.46ZM28.5382 48.232C28.5382 47.816 28.4462 47.46 28.2622 47.164C28.0782 46.86 27.8262 46.632 27.5062 46.48C27.1942 46.32 26.8462 46.24 26.4622 46.24C25.9102 46.24 25.4382 46.416 25.0462 46.768C24.6622 47.12 24.4422 47.608 24.3862 48.232H28.5382ZM35.0296 52L32.4496 49.096V52H31.3576V43.12H32.4496V48.34L34.9816 45.424H36.5056L33.4096 48.7L36.5176 52H35.0296ZM40.1114 52.108C39.6074 52.108 39.1554 52.024 38.7554 51.856C38.3554 51.68 38.0394 51.44 37.8074 51.136C37.5754 50.824 37.4474 50.468 37.4234 50.068H38.5514C38.5834 50.396 38.7354 50.664 39.0074 50.872C39.2874 51.08 39.6514 51.184 40.0994 51.184C40.5154 51.184 40.8434 51.092 41.0834 50.908C41.3234 50.724 41.4434 50.492 41.4434 50.212C41.4434 49.924 41.3154 49.712 41.0594 49.576C40.8034 49.432 40.4074 49.292 39.8714 49.156C39.3834 49.028 38.9834 48.9 38.6714 48.772C38.3674 48.636 38.1034 48.44 37.8794 48.184C37.6634 47.92 37.5554 47.576 37.5554 47.152C37.5554 46.816 37.6554 46.508 37.8554 46.228C38.0554 45.948 38.3394 45.728 38.7074 45.568C39.0754 45.4 39.4954 45.316 39.9674 45.316C40.6954 45.316 41.2834 45.5 41.7314 45.868C42.1794 46.236 42.4194 46.74 42.4514 47.38H41.3594C41.3354 47.036 41.1954 46.76 40.9394 46.552C40.6914 46.344 40.3554 46.24 39.9314 46.24C39.5394 46.24 39.2274 46.324 38.9954 46.492C38.7634 46.66 38.6474 46.88 38.6474 47.152C38.6474 47.368 38.7154 47.548 38.8514 47.692C38.9954 47.828 39.1714 47.94 39.3794 48.028C39.5954 48.108 39.8914 48.2 40.2674 48.304C40.7394 48.432 41.1234 48.56 41.4194 48.688C41.7154 48.808 41.9674 48.992 42.1754 49.24C42.3914 49.488 42.5034 49.812 42.5114 50.212C42.5114 50.572 42.4114 50.896 42.2114 51.184C42.0114 51.472 41.7274 51.7 41.3594 51.868C40.9994 52.028 40.5834 52.108 40.1114 52.108ZM48.8441 43.636V52H47.7521V43.636H48.8441ZM54.1593 45.304C54.9593 45.304 55.6073 45.548 56.1033 46.036C56.5993 46.516 56.8473 47.212 56.8473 48.124V52H55.7673V48.28C55.7673 47.624 55.6033 47.124 55.2753 46.78C54.9473 46.428 54.4993 46.252 53.9313 46.252C53.3553 46.252 52.8953 46.432 52.5513 46.792C52.2153 47.152 52.0473 47.676 52.0473 48.364V52H50.9553V45.424H52.0473V46.36C52.2633 46.024 52.5553 45.764 52.9233 45.58C53.2993 45.396 53.7113 45.304 54.1593 45.304ZM61.557 46.324H60.177V52H59.085V46.324H58.233V45.424H59.085V44.956C59.085 44.22 59.273 43.684 59.649 43.348C60.033 43.004 60.645 42.832 61.485 42.832V43.744C61.005 43.744 60.665 43.84 60.465 44.032C60.273 44.216 60.177 44.524 60.177 44.956V45.424H61.557V46.324ZM65.9483 52.108C65.3323 52.108 64.7723 51.968 64.2683 51.688C63.7723 51.408 63.3803 51.012 63.0923 50.5C62.8123 49.98 62.6723 49.38 62.6723 48.7C62.6723 48.028 62.8163 47.436 63.1043 46.924C63.4003 46.404 63.8003 46.008 64.3043 45.736C64.8083 45.456 65.3723 45.316 65.9963 45.316C66.6203 45.316 67.1843 45.456 67.6883 45.736C68.1923 46.008 68.5883 46.4 68.8763 46.912C69.1723 47.424 69.3203 48.02 69.3203 48.7C69.3203 49.38 69.1683 49.98 68.8643 50.5C68.5683 51.012 68.1643 51.408 67.6523 51.688C67.1403 51.968 66.5723 52.108 65.9483 52.108ZM65.9483 51.148C66.3403 51.148 66.7083 51.056 67.0523 50.872C67.3963 50.688 67.6723 50.412 67.8803 50.044C68.0963 49.676 68.2043 49.228 68.2043 48.7C68.2043 48.172 68.1003 47.724 67.8923 47.356C67.6843 46.988 67.4123 46.716 67.0763 46.54C66.7403 46.356 66.3763 46.264 65.9843 46.264C65.5843 46.264 65.2163 46.356 64.8803 46.54C64.5523 46.716 64.2883 46.988 64.0883 47.356C63.8883 47.724 63.7883 48.172 63.7883 48.7C63.7883 49.236 63.8843 49.688 64.0763 50.056C64.2763 50.424 64.5403 50.7 64.8683 50.884C65.1963 51.06 65.5563 51.148 65.9483 51.148ZM72.098 46.492C72.29 46.116 72.562 45.824 72.914 45.616C73.274 45.408 73.71 45.304 74.222 45.304V46.432H73.934C72.71 46.432 72.098 47.096 72.098 48.424V52H71.006V45.424H72.098V46.492ZM83.6406 45.304C84.1526 45.304 84.6086 45.412 85.0086 45.628C85.4086 45.836 85.7246 46.152 85.9566 46.576C86.1886 47 86.3046 47.516 86.3046 48.124V52H85.2246V48.28C85.2246 47.624 85.0606 47.124 84.7326 46.78C84.4126 46.428 83.9766 46.252 83.4246 46.252C82.8566 46.252 82.4046 46.436 82.0686 46.804C81.7326 47.164 81.5646 47.688 81.5646 48.376V52H80.4846V48.28C80.4846 47.624 80.3206 47.124 79.9926 46.78C79.6726 46.428 79.2366 46.252 78.6846 46.252C78.1166 46.252 77.6646 46.436 77.3286 46.804C76.9926 47.164 76.8246 47.688 76.8246 48.376V52H75.7326V45.424H76.8246V46.372C77.0406 46.028 77.3286 45.764 77.6886 45.58C78.0566 45.396 78.4606 45.304 78.9006 45.304C79.4526 45.304 79.9406 45.428 80.3646 45.676C80.7886 45.924 81.1046 46.288 81.3126 46.768C81.4966 46.304 81.8006 45.944 82.2246 45.688C82.6486 45.432 83.1206 45.304 83.6406 45.304ZM87.9379 48.688C87.9379 48.016 88.0739 47.428 88.3459 46.924C88.6179 46.412 88.9899 46.016 89.4619 45.736C89.9419 45.456 90.4739 45.316 91.0579 45.316C91.6339 45.316 92.1339 45.44 92.5579 45.688C92.9819 45.936 93.2979 46.248 93.5059 46.624V45.424H94.6099V52H93.5059V50.776C93.2899 51.16 92.9659 51.48 92.5339 51.736C92.1099 51.984 91.6139 52.108 91.0459 52.108C90.4619 52.108 89.9339 51.964 89.4619 51.676C88.9899 51.388 88.6179 50.984 88.3459 50.464C88.0739 49.944 87.9379 49.352 87.9379 48.688ZM93.5059 48.7C93.5059 48.204 93.4059 47.772 93.2059 47.404C93.0059 47.036 92.7339 46.756 92.3899 46.564C92.0539 46.364 91.6819 46.264 91.2739 46.264C90.8659 46.264 90.4939 46.36 90.1579 46.552C89.8219 46.744 89.5539 47.024 89.3539 47.392C89.1539 47.76 89.0539 48.192 89.0539 48.688C89.0539 49.192 89.1539 49.632 89.3539 50.008C89.5539 50.376 89.8219 50.66 90.1579 50.86C90.4939 51.052 90.8659 51.148 91.2739 51.148C91.6819 51.148 92.0539 51.052 92.3899 50.86C92.7339 50.66 93.0059 50.376 93.2059 50.008C93.4059 49.632 93.5059 49.196 93.5059 48.7ZM99.0333 52.108C98.5293 52.108 98.0773 52.024 97.6773 51.856C97.2773 51.68 96.9613 51.44 96.7293 51.136C96.4973 50.824 96.3693 50.468 96.3453 50.068H97.4733C97.5053 50.396 97.6573 50.664 97.9293 50.872C98.2093 51.08 98.5733 51.184 99.0213 51.184C99.4373 51.184 99.7653 51.092 100.005 50.908C100.245 50.724 100.365 50.492 100.365 50.212C100.365 49.924 100.237 49.712 99.9813 49.576C99.7253 49.432 99.3293 49.292 98.7933 49.156C98.3053 49.028 97.9053 48.9 97.5933 48.772C97.2893 48.636 97.0253 48.44 96.8013 48.184C96.5853 47.92 96.4773 47.576 96.4773 47.152C96.4773 46.816 96.5773 46.508 96.7773 46.228C96.9773 45.948 97.2613 45.728 97.6293 45.568C97.9973 45.4 98.4173 45.316 98.8893 45.316C99.6173 45.316 100.205 45.5 100.653 45.868C101.101 46.236 101.341 46.74 101.373 47.38H100.281C100.257 47.036 100.117 46.76 99.8613 46.552C99.6133 46.344 99.2773 46.24 98.8533 46.24C98.4613 46.24 98.1493 46.324 97.9173 46.492C97.6853 46.66 97.5693 46.88 97.5693 47.152C97.5693 47.368 97.6373 47.548 97.7733 47.692C97.9173 47.828 98.0933 47.94 98.3013 48.028C98.5173 48.108 98.8133 48.2 99.1893 48.304C99.6613 48.432 100.045 48.56 100.341 48.688C100.637 48.808 100.889 48.992 101.097 49.24C101.313 49.488 101.425 49.812 101.433 50.212C101.433 50.572 101.333 50.896 101.133 51.184C100.933 51.472 100.649 51.7 100.281 51.868C99.9213 52.028 99.5053 52.108 99.0333 52.108ZM103.789 44.356C103.581 44.356 103.405 44.284 103.261 44.14C103.117 43.996 103.045 43.82 103.045 43.612C103.045 43.404 103.117 43.228 103.261 43.084C103.405 42.94 103.581 42.868 103.789 42.868C103.989 42.868 104.157 42.94 104.293 43.084C104.437 43.228 104.509 43.404 104.509 43.612C104.509 43.82 104.437 43.996 104.293 44.14C104.157 44.284 103.989 44.356 103.789 44.356ZM104.317 45.424V52H103.225V45.424H104.317ZM109.469 48.688C109.469 48.016 109.605 47.428 109.877 46.924C110.149 46.412 110.521 46.016 110.993 45.736C111.473 45.456 112.009 45.316 112.601 45.316C113.113 45.316 113.589 45.436 114.029 45.676C114.469 45.908 114.805 46.216 115.037 46.6V43.12H116.141V52H115.037V50.764C114.821 51.156 114.501 51.48 114.077 51.736C113.653 51.984 113.157 52.108 112.589 52.108C112.005 52.108 111.473 51.964 110.993 51.676C110.521 51.388 110.149 50.984 109.877 50.464C109.605 49.944 109.469 49.352 109.469 48.688ZM115.037 48.7C115.037 48.204 114.937 47.772 114.737 47.404C114.537 47.036 114.265 46.756 113.921 46.564C113.585 46.364 113.213 46.264 112.805 46.264C112.397 46.264 112.025 46.36 111.689 46.552C111.353 46.744 111.085 47.024 110.885 47.392C110.685 47.76 110.585 48.192 110.585 48.688C110.585 49.192 110.685 49.632 110.885 50.008C111.085 50.376 111.353 50.66 111.689 50.86C112.025 51.052 112.397 51.148 112.805 51.148C113.213 51.148 113.585 51.052 113.921 50.86C114.265 50.66 114.537 50.376 114.737 50.008C114.937 49.632 115.037 49.196 115.037 48.7ZM117.829 48.688C117.829 48.016 117.965 47.428 118.237 46.924C118.509 46.412 118.881 46.016 119.353 45.736C119.833 45.456 120.365 45.316 120.949 45.316C121.525 45.316 122.025 45.44 122.449 45.688C122.873 45.936 123.189 46.248 123.397 46.624V45.424H124.501V52H123.397V50.776C123.181 51.16 122.857 51.48 122.425 51.736C122.001 51.984 121.505 52.108 120.937 52.108C120.353 52.108 119.825 51.964 119.353 51.676C118.881 51.388 118.509 50.984 118.237 50.464C117.965 49.944 117.829 49.352 117.829 48.688ZM123.397 48.7C123.397 48.204 123.297 47.772 123.097 47.404C122.897 47.036 122.625 46.756 122.281 46.564C121.945 46.364 121.573 46.264 121.165 46.264C120.757 46.264 120.385 46.36 120.049 46.552C119.713 46.744 119.445 47.024 119.245 47.392C119.045 47.76 118.945 48.192 118.945 48.688C118.945 49.192 119.045 49.632 119.245 50.008C119.445 50.376 119.713 50.66 120.049 50.86C120.385 51.052 120.757 51.148 121.165 51.148C121.573 51.148 121.945 51.052 122.281 50.86C122.625 50.66 122.897 50.376 123.097 50.008C123.297 49.632 123.397 49.196 123.397 48.7ZM129.8 45.304C130.6 45.304 131.248 45.548 131.744 46.036C132.24 46.516 132.488 47.212 132.488 48.124V52H131.408V48.28C131.408 47.624 131.244 47.124 130.916 46.78C130.588 46.428 130.14 46.252 129.572 46.252C128.996 46.252 128.536 46.432 128.192 46.792C127.856 47.152 127.688 47.676 127.688 48.364V52H126.596V45.424H127.688V46.36C127.904 46.024 128.196 45.764 128.564 45.58C128.94 45.396 129.352 45.304 129.8 45.304ZM142.699 43.636V44.524H139.063V47.344H142.015V48.232H139.063V52H137.971V43.636H142.699ZM144.832 44.356C144.624 44.356 144.448 44.284 144.304 44.14C144.16 43.996 144.088 43.82 144.088 43.612C144.088 43.404 144.16 43.228 144.304 43.084C144.448 42.94 144.624 42.868 144.832 42.868C145.032 42.868 145.2 42.94 145.336 43.084C145.48 43.228 145.552 43.404 145.552 43.612C145.552 43.82 145.48 43.996 145.336 44.14C145.2 44.284 145.032 44.356 144.832 44.356ZM145.36 45.424V52H144.268V45.424H145.36ZM151.143 52L148.563 49.096V52H147.471V43.12H148.563V48.34L151.095 45.424H152.619L149.523 48.7L152.631 52H151.143ZM156.225 52.108C155.721 52.108 155.269 52.024 154.869 51.856C154.469 51.68 154.153 51.44 153.921 51.136C153.689 50.824 153.561 50.468 153.537 50.068H154.665C154.697 50.396 154.849 50.664 155.121 50.872C155.401 51.08 155.765 51.184 156.213 51.184C156.629 51.184 156.957 51.092 157.197 50.908C157.437 50.724 157.557 50.492 157.557 50.212C157.557 49.924 157.429 49.712 157.173 49.576C156.917 49.432 156.521 49.292 155.985 49.156C155.497 49.028 155.097 48.9 154.785 48.772C154.481 48.636 154.217 48.44 153.993 48.184C153.777 47.92 153.669 47.576 153.669 47.152C153.669 46.816 153.769 46.508 153.969 46.228C154.169 45.948 154.453 45.728 154.821 45.568C155.189 45.4 155.609 45.316 156.081 45.316C156.809 45.316 157.397 45.5 157.845 45.868C158.293 46.236 158.533 46.74 158.565 47.38H157.473C157.449 47.036 157.309 46.76 157.053 46.552C156.805 46.344 156.469 46.24 156.045 46.24C155.653 46.24 155.341 46.324 155.109 46.492C154.877 46.66 154.761 46.88 154.761 47.152C154.761 47.368 154.829 47.548 154.965 47.692C155.109 47.828 155.285 47.94 155.493 48.028C155.709 48.108 156.005 48.2 156.381 48.304C156.853 48.432 157.237 48.56 157.533 48.688C157.829 48.808 158.081 48.992 158.289 49.24C158.505 49.488 158.617 49.812 158.625 50.212C158.625 50.572 158.525 50.896 158.325 51.184C158.125 51.472 157.841 51.7 157.473 51.868C157.113 52.028 156.697 52.108 156.225 52.108ZM160.98 44.356C160.772 44.356 160.596 44.284 160.452 44.14C160.308 43.996 160.236 43.82 160.236 43.612C160.236 43.404 160.308 43.228 160.452 43.084C160.596 42.94 160.772 42.868 160.98 42.868C161.18 42.868 161.348 42.94 161.484 43.084C161.628 43.228 161.7 43.404 161.7 43.612C161.7 43.82 161.628 43.996 161.484 44.14C161.348 44.284 161.18 44.356 160.98 44.356ZM161.508 45.424V52H160.416V45.424H161.508Z" fill="#4D545C"/>
<g clip-path="url(#clip0_1965_464195)">
<path opacity="0.4" d="M316.531 11.8211C316.049 11.4449 315.552 11.2769 315.168 11.1719C314.146 10.8927 312.985 11.0309 311.977 11.5851C311.658 11.7599 311.357 11.9756 311.083 12.2346L301.929 20.8855C301.482 21.2313 301.04 21.7318 300.437 22.2214L299.488 23.0591L298.436 24.0369C296.48 25.8523 297.367 28.903 300.019 29.5018L317.25 33.3849C320.25 34.0591 323.082 31.5372 322.314 28.879L320.132 21.4294L320.153 21.4182L319.557 19.6144L318.326 15.2464C318.326 15.2464 318.199 14.7833 317.974 14.1915L317.967 14.1953C317.765 13.7149 317.405 12.8805 317.067 12.3842L317.073 12.3804C316.908 12.1465 316.721 11.9497 316.531 11.8211Z" fill="#FFE784"/>
<path opacity="0.4" d="M245.163 61.2114C244.683 60.1395 243.992 59.4278 243.435 58.9219C241.955 57.5774 239.868 56.866 237.666 57.025C236.972 57.0752 236.269 57.2122 235.574 57.4493L212.365 65.3775C211.299 65.627 210.106 66.1587 208.648 66.5371L206.295 67.2532L203.642 68.1347C198.713 69.7699 197.491 75.9658 201.444 79.2297L227.138 100.424C231.613 104.11 238.656 101.934 239.729 96.5395L242.683 81.3947L242.728 81.3915L243.33 77.6691L245.144 68.8292C245.144 68.8292 245.343 67.8952 245.489 66.6487L245.474 66.6498C245.562 65.6231 245.697 63.8314 245.567 62.6624L245.581 62.6613C245.511 62.106 245.37 61.5988 245.163 61.2114Z" fill="#FFE784"/>
<path opacity="0.4" d="M243.531 -12.1789C243.049 -12.5551 242.552 -12.7231 242.168 -12.8281C241.146 -13.1073 239.985 -12.9691 238.977 -12.4149C238.658 -12.2401 238.357 -12.0244 238.083 -11.7654L228.929 -3.11453C228.482 -2.76874 228.04 -2.26816 227.437 -1.77862L226.488 -0.940874L225.436 0.0368694C223.48 1.85233 224.367 4.90299 227.019 5.50182L244.25 9.38493C247.25 10.0591 250.082 7.53718 249.314 4.87899L247.132 -2.57061L247.153 -2.58177L246.557 -4.38562L245.326 -8.75364C245.326 -8.75364 245.199 -9.2167 244.974 -9.80847L244.967 -9.80475C244.765 -10.2851 244.405 -11.1195 244.067 -11.6158L244.073 -11.6196C243.908 -11.8535 243.721 -12.0503 243.531 -12.1789Z" fill="#FFE784"/>
<path opacity="0.8" d="M225.003 32.2131L215.651 34.2407L215.04 39.399L210.116 40.4666L213.592 15.0092L218.912 13.8556L232.587 35.5945L227.663 36.662L225.003 32.2131ZM222.963 28.8684L217.342 19.5403L216.09 30.3587L222.963 28.8684Z" fill="#FFCE00"/>
<path opacity="0.7" d="M254.717 26.1797C255.219 26.3888 255.588 26.7219 255.822 27.1791C256.066 27.6296 256.136 28.1194 256.034 28.6486C255.891 29.3845 255.532 29.9197 254.958 30.2544C254.393 30.5825 253.649 30.6568 252.724 30.4774L249.005 29.756L250.703 21L254.349 21.7072C255.224 21.877 255.858 22.2015 256.249 22.6805C256.648 23.1612 256.779 23.7529 256.643 24.4557C256.537 25.0014 256.307 25.4201 255.954 25.7118C255.608 26.0051 255.196 26.1611 254.717 26.1797ZM251.722 25.0068L253.281 25.3092C253.714 25.3933 254.06 25.3617 254.318 25.2144C254.586 25.0604 254.755 24.8015 254.825 24.4377C254.896 24.0739 254.84 23.7714 254.657 23.5301C254.475 23.2888 254.155 23.1237 253.696 23.0348L252.162 22.7372L251.722 25.0068ZM252.657 28.9845C253.115 29.0734 253.486 29.0424 253.77 28.8916C254.056 28.7325 254.236 28.4587 254.312 28.0701C254.387 27.6815 254.318 27.3592 254.104 27.1033C253.901 26.8407 253.57 26.665 253.111 26.5761L251.479 26.2594L251.012 28.6655L252.657 28.9845Z" fill="#FFCE00"/>
<path d="M258.662 58.0977C258.343 56.7485 258.349 55.4741 258.683 54.2744C259.026 53.0586 259.637 52.0354 260.514 51.2049C261.401 50.3582 262.481 49.7842 263.753 49.4829C265.24 49.1303 266.637 49.2144 267.942 49.7352C269.248 50.256 270.287 51.1579 271.061 52.4409L267.99 53.1687C267.53 52.586 266.981 52.1973 266.344 52.0024C265.72 51.8045 265.045 51.7914 264.32 51.9632C263.544 52.147 262.896 52.5012 262.376 53.0257C261.865 53.5341 261.519 54.1696 261.337 54.9321C261.168 55.6916 261.192 56.5299 261.409 57.4468C261.623 58.3507 261.978 59.1106 262.473 59.7265C262.978 60.3263 263.574 60.7453 264.262 60.9836C264.959 61.2057 265.696 61.2249 266.471 61.0411C267.196 60.8693 267.793 60.5549 268.262 60.0978C268.741 59.6246 269.056 59.0244 269.206 58.2971L272.277 57.5694C272.164 59.0765 271.641 60.3556 270.708 61.4068C269.785 62.4418 268.573 63.1371 267.072 63.4927C265.801 63.794 264.58 63.772 263.41 63.4266C262.25 63.0651 261.246 62.4247 260.396 61.5053C259.56 60.5828 258.982 59.447 258.662 58.0977Z" fill="#FFCE00"/>
<path opacity="0.8" d="M293.788 40.3992C294.041 41.0457 294.131 41.6668 294.06 42.2625C293.988 42.8582 293.754 43.393 293.359 43.8669C292.966 44.3323 292.425 44.6997 291.735 44.9692L289.476 45.8516L286.93 39.3313L289.189 38.449C289.879 38.1795 290.525 38.0829 291.129 38.1593C291.737 38.2272 292.269 38.4559 292.725 38.8453C293.179 39.2286 293.533 39.7466 293.788 40.3992ZM291.173 43.8478C291.857 43.5806 292.313 43.1897 292.54 42.6749C292.774 42.1579 292.761 41.5669 292.501 40.9019C292.239 40.2308 291.847 39.7844 291.325 39.5626C290.808 39.3385 290.208 39.36 289.524 39.6271L288.642 39.9716L290.291 44.1922L291.173 43.8478Z" fill="#FFCE00"/>
<path opacity="0.4" d="M290 65C301.034 65 310 73.9655 310 85C310 73.9655 318.966 65 330 65C318.966 65 310 56.0345 310 45C310 56.0345 301.034 65 290 65Z" fill="#FFE784"/>
<path opacity="0.8" d="M266 11.5C269.586 11.5 272.5 14.4138 272.5 18C272.5 14.4138 275.414 11.5 279 11.5C275.414 11.5 272.5 8.58621 272.5 5C272.5 8.58621 269.586 11.5 266 11.5Z" fill="#FFE784"/>
<path d="M314.916 17.3269L314.626 20.8L319.899 21.1568L319.728 23.2065L314.455 22.8498L314.153 26.4558L320.059 26.8554L319.88 29L311 28.3992L312.12 15L321 15.6008L320.822 17.7264L314.916 17.3269Z" fill="#FFCE00"/>
</g>
<defs>
<clipPath id="clip0_1965_464195">
<rect width="136" height="68" fill="white" transform="translate(192)"/>
</clipPath>
</defs>
</svg>
