<svg width="100" height="100" viewBox="0 0 100 100" fill="none" xmlns="http://www.w3.org/2000/svg">
<mask id="mask0_14167_43666" style="mask-type:alpha" maskUnits="userSpaceOnUse" x="0" y="0" width="100" height="100">
<rect width="100" height="100" fill="#D9D9D9"/>
</mask>
<g mask="url(#mask0_14167_43666)">
<path d="M74.0023 65.5195C76.9377 57.0735 70.6186 48.276 61.6805 48.4166L58.2177 48.4694C58.1914 48.4694 58.1738 48.4694 58.1474 48.4694L49.5169 48.61L40.8864 48.4694C40.86 48.4694 40.8424 48.4694 40.8161 48.4694L37.3533 48.4166C28.4152 48.276 22.0961 57.0735 25.0315 65.5195C25.9895 68.2791 27.0178 70.8454 28.09 73.2272C28.6701 74.6246 29.4171 76.1626 30.252 77.7534C33.8906 84.8898 37.7312 90.2685 40.6755 94.6717C40.7897 94.8386 40.9127 95.0056 41.0358 95.1638C42.9869 97.985 46.2387 99.3297 49.5257 99.2857C52.8039 99.3385 56.0645 97.985 58.0156 95.1638C58.1386 95.0056 58.2617 94.8386 58.3759 94.6717C61.3201 90.2685 65.1608 84.8898 68.7993 77.7534C69.6343 76.1626 70.3813 74.6334 70.9614 73.2272C72.016 70.8367 73.0443 68.2791 74.0023 65.5195Z" fill="#F89E1C"/>
<path d="M58.9294 82.649C61.3639 77.9383 56.5389 74.7041 51.1777 77.8065C44.7883 81.4977 41.0092 79.8367 36.7467 72.7705C33.2839 67.0227 28.2216 68.508 26.4463 69.2638C27 70.6612 27.5625 72.0147 28.1425 73.3066C28.7226 74.7041 29.4696 76.2421 30.3045 77.8328C33.9431 84.9693 37.7837 90.348 40.728 94.7511C40.8422 94.9181 40.9652 95.0851 41.0883 95.2433C43.0394 98.0645 46.2912 99.4091 49.5782 99.3652C52.8564 99.4179 56.117 98.0645 58.0681 95.2433C58.1911 95.0851 58.3142 94.9181 58.4284 94.7511C59.3864 93.3098 60.4498 91.7717 61.5572 90.0931C59.0085 89.68 56.574 87.2016 58.9294 82.649Z" fill="#032663"/>
<path d="M49.3585 99.5147C45.8869 99.5147 42.7406 97.9591 40.9213 95.3225C40.7983 95.1643 40.6752 94.9973 40.561 94.8215C40.1391 94.1887 39.6909 93.5296 39.2339 92.8528C36.5621 88.9067 33.2487 84.0026 30.1288 77.8856C29.2411 76.1982 28.5116 74.669 27.9579 73.3507C27.3691 72.0411 26.7978 70.6789 26.2617 69.3078L26.209 69.1672L26.3496 69.1057C28.3446 68.2532 33.363 66.8997 36.8433 72.6827C41.2025 79.9158 44.9202 81.2166 51.0635 77.6659C54.3329 75.7763 57.2068 76.2773 58.6042 77.6132C59.8873 78.8436 60.0543 80.7508 59.0348 82.7194C58.0066 84.7145 57.822 86.481 58.5075 87.8345C59.0612 88.9243 60.1949 89.7065 61.5396 89.9262L61.7857 89.9613L61.6451 90.1635C61.0211 91.1039 60.4147 92.0003 59.8258 92.8616C59.3688 93.5383 58.9294 94.1887 58.5075 94.8127C58.3933 94.9885 58.2702 95.1555 58.1472 95.3137C56.3015 97.9854 53.0937 99.5586 49.5342 99.4971C49.4727 99.5147 49.4112 99.5147 49.3585 99.5147ZM49.5342 99.1983C52.9882 99.251 56.0994 97.7394 57.8923 95.1467C58.0153 94.9797 58.1384 94.8215 58.2439 94.6545C58.6657 94.0217 59.1051 93.3714 59.5622 92.6946C60.1071 91.8949 60.6607 91.0599 61.2408 90.1986C59.8961 89.9174 58.78 89.1 58.2175 87.9839C57.7077 86.9732 57.3826 85.2154 58.7536 82.5788L58.8942 82.6491L58.7536 82.5788C59.7028 80.742 59.5709 78.9754 58.3845 77.8505C57.0662 76.5937 54.3417 76.1367 51.2217 77.9472C44.9641 81.5681 40.9916 80.1883 36.5709 72.8585C33.2927 67.4271 28.6171 68.5344 26.6133 69.3518C27.1318 70.6701 27.6855 71.9796 28.248 73.2452C28.7929 74.5635 29.5223 76.0752 30.41 77.7626C33.5212 83.862 36.8345 88.7573 39.4975 92.6946C39.9545 93.3714 40.4028 94.0305 40.8246 94.6633C40.9389 94.8303 41.0531 94.9885 41.1762 95.1555C42.9691 97.7394 46.0978 99.2598 49.5342 99.1983Z" fill="#10319B"/>
<path d="M18.1673 55.4481C16.9105 58.946 14.564 67.4271 16.6117 77.8681C16.8139 78.8876 18.1322 79.1776 18.7474 78.3427L19.2308 77.6923C24.1085 71.0832 24.3634 62.1363 19.8723 55.2547C19.4417 54.5868 18.4398 54.701 18.1673 55.4481Z" fill="#F5851F"/>
<path d="M49.6837 99.5145C49.6221 99.5145 49.5694 99.5145 49.5079 99.5145C45.9748 99.5673 42.7406 98.0029 40.895 95.3223C40.7719 95.1641 40.6489 94.9971 40.5346 94.8213C40.1128 94.1886 39.6645 93.5294 39.2075 92.8527C36.5357 88.9065 33.2224 84.0024 30.1024 77.8855C29.2147 76.1981 28.4853 74.6688 27.9316 73.3505C26.8066 70.8282 25.7784 68.2355 24.8731 65.634C23.4493 61.5473 24.0909 57.1881 26.6221 53.6902C29.1444 50.2098 33.0466 48.2587 37.3531 48.3202L40.8071 48.373H40.8774L49.5079 48.5136L58.1384 48.373H58.1824L61.6715 48.3202C65.9779 48.2499 69.8801 50.2098 72.4025 53.6902C74.9336 57.1881 75.5752 61.5473 74.1515 65.634C73.2462 68.2355 72.2179 70.8369 71.093 73.3593C70.5481 74.6776 69.8186 76.2068 68.9222 77.8943C65.8022 84.0024 62.48 88.9153 59.8171 92.8615C59.36 93.5382 58.9118 94.1973 58.49 94.8301C58.3757 95.0059 58.2527 95.1729 58.1296 95.3311C56.3104 97.9589 53.164 99.5145 49.6837 99.5145ZM49.5079 99.1981C52.9619 99.2509 56.0731 97.7392 57.866 95.1465C57.989 94.9796 58.112 94.8213 58.2175 94.6544C58.6394 94.0216 59.0876 93.3624 59.5446 92.6857C62.2076 88.7484 65.5209 83.8442 68.6321 77.7537C69.5198 76.075 70.2405 74.5546 70.7942 73.245C71.9191 70.7315 72.9474 68.1388 73.8438 65.5461C75.2325 61.5561 74.6085 57.3023 72.1388 53.8923C69.678 50.4999 65.8549 48.5927 61.6715 48.6542L58.2175 48.707H58.1736L49.5167 48.8476L40.8774 48.707H40.8071L37.3443 48.6542C33.1609 48.5927 29.3378 50.4999 26.8769 53.8923C24.4073 57.3111 23.7833 61.5561 25.1719 65.5461C26.0684 68.1388 27.0967 70.7315 28.2216 73.245C28.7665 74.5634 29.496 76.075 30.3836 77.7625C33.4949 83.8618 36.8082 88.7571 39.4712 92.6945C39.9282 93.3712 40.3764 94.0304 40.7983 94.6632C40.9125 94.8301 41.0268 94.9883 41.1498 95.1553C42.9515 97.7392 46.0803 99.2597 49.5079 99.1981Z" fill="#10319B"/>
<path d="M69.8538 53.0926C67.6303 51.1679 64.8003 50.0078 61.6364 50.0693L58.1648 50.1308C58.1385 50.1308 58.1209 50.1308 58.0945 50.1308L49.4201 50.2802L40.7456 50.1308C40.7192 50.1308 40.7017 50.1308 40.6753 50.1308L37.2037 50.0693C32.3875 49.9902 29.7685 53.4529 27.501 57.4166C26.9913 58.3131 27.4922 59.4732 28.4678 59.6666C36.6852 61.2925 55.3788 63.1117 69.8538 53.0926Z" fill="#E26907"/>
<path d="M47.2581 76.2772C46.4319 76.2772 45.597 76.0751 44.8324 75.662C43.2065 74.7832 42.2046 73.1573 42.143 71.3116L41.8266 60.73C41.7739 58.8844 42.6792 57.1969 44.2523 56.2302C45.8255 55.2546 47.7327 55.2019 49.3586 56.0808L58.7537 61.1343C60.3269 61.978 61.32 63.5424 61.4167 65.3265C61.5134 67.1106 60.6872 68.7717 59.2195 69.7736C59.1756 69.8088 59.1228 69.8351 59.0789 69.8703L59.0174 69.9054L49.9474 75.5126C49.1125 76.0136 48.1809 76.2772 47.2581 76.2772ZM46.9329 56.0896C46.1243 56.0896 45.307 56.3181 44.5775 56.7663C43.1977 57.6188 42.4067 59.0953 42.4594 60.7124L42.7758 71.294C42.8286 72.9112 43.7074 74.3349 45.1312 75.0996C46.555 75.8642 48.2336 75.8202 49.6047 74.9677L58.7361 69.3254C58.7801 69.299 58.824 69.2726 58.8592 69.2463C60.1423 68.3674 60.863 66.9173 60.7751 65.3529C60.696 63.7973 59.8259 62.4262 58.4461 61.688L49.051 56.6345C48.383 56.2653 47.6536 56.0896 46.9329 56.0896Z" fill="#F89E1C"/>
<path d="M47.2141 76.3563C46.3968 76.3563 45.5707 76.1542 44.806 75.7411C43.1889 74.871 42.1958 73.2627 42.1431 71.4258L41.8179 60.5806C41.7651 58.7525 42.6616 57.0826 44.2172 56.1159C45.7728 55.1491 47.6712 55.0964 49.2883 55.9665L58.9119 61.1518C60.4675 61.9867 61.4519 63.5423 61.5485 65.3089C61.6452 67.0754 60.8279 68.7277 59.3777 69.7208C59.3338 69.756 59.2811 69.7823 59.2371 69.8175L59.1756 69.8526L49.8771 75.6005C49.051 76.1014 48.137 76.3563 47.2141 76.3563ZM46.8802 55.6765C46.0189 55.6765 45.1576 55.9137 44.3842 56.3971C42.9253 57.3024 42.0815 58.8668 42.1343 60.5806L42.4595 71.4258C42.5122 73.1396 43.4438 74.6513 44.9554 75.4686C46.4671 76.286 48.2424 76.2333 49.7101 75.328L59.0613 69.545C59.1053 69.5187 59.1492 69.4835 59.1932 69.4572C60.5554 68.5256 61.32 66.9875 61.2321 65.3265C61.1443 63.6742 60.2214 62.2153 58.7625 61.4331L49.1389 56.2477C48.427 55.8698 47.6536 55.6765 46.8802 55.6765Z" fill="#10319B"/>
<path d="M19.8724 55.2541C19.4418 54.595 18.4399 54.7092 18.1674 55.4475C17.0601 58.5235 15.109 65.4578 16.0581 74.185C16.2075 66.407 19.4242 58.9629 20.6107 56.4757C20.3734 56.0627 20.1361 55.6496 19.8724 55.2541Z" fill="#F89E1C"/>
<path d="M16.4184 72.7621C16.0317 72.7621 15.7944 72.6918 15.7593 72.683L15.9438 72.0766L15.8472 72.3754L15.9351 72.0678C15.9702 72.0766 19.7757 72.9027 22.9133 64.6765L23.0803 65.9157C20.5228 72.3929 17.7279 72.7621 16.4184 72.7621Z" fill="#F89E1C"/>
<path d="M16.1899 75.3725C16.1899 75.3725 19.5121 77.0072 22.0608 71.9185C22.0608 71.9185 19.9515 78.2376 17.7016 78.7474C17.7016 78.7474 16.2427 79.0725 16.1899 75.3725Z" fill="#032663"/>
<path d="M17.7983 78.9843C17.6928 78.9843 17.5962 78.9755 17.4907 78.9491C16.9634 78.8261 16.5679 78.4306 16.4624 77.8945C14.3795 67.2865 16.8579 58.6208 18.018 55.3954C18.1586 54.9999 18.5102 54.7187 18.9321 54.6659C19.3539 54.6132 19.767 54.8065 19.9955 55.1669C24.5041 62.066 24.2404 71.1536 19.3451 77.7802L18.8617 78.4306C18.6157 78.7822 18.2202 78.9843 17.7983 78.9843ZM19.0727 54.9735C19.0375 54.9735 19.0111 54.9735 18.976 54.9823C18.6684 55.0175 18.4223 55.2108 18.3168 55.5009C17.1655 58.7087 14.7047 67.3041 16.77 77.833C16.8491 78.2373 17.1479 78.5449 17.561 78.6415C17.9653 78.7294 18.3784 78.58 18.6244 78.246L19.1078 77.5957C23.924 71.0745 24.1789 62.1275 19.7406 55.3427C19.5912 55.1054 19.3451 54.9735 19.0727 54.9735Z" fill="#10319B"/>
<path d="M17.3852 75.7144C16.6382 75.7144 16.146 75.5211 16.1372 75.5123L16.2602 75.2223C16.3921 75.275 19.6 76.5406 22.0169 71.8738L22.2981 72.0232C20.681 75.1344 18.6596 75.7144 17.3852 75.7144Z" fill="#10319B"/>
<path d="M16.5503 72.9382C16.1724 72.9382 15.9438 72.8679 15.9087 72.8591L16.0054 72.5603C16.0405 72.5691 19.7142 73.6149 22.9485 65.8545L23.2385 65.9775C20.6546 72.1736 17.7983 72.9382 16.5503 72.9382Z" fill="#10319B"/>
<path d="M81.2527 55.4481C82.5095 58.946 84.8561 67.4271 82.8083 77.8681C82.6062 78.8876 81.2879 79.1776 80.6727 78.3427L80.1893 77.6923C75.3115 71.0832 75.0567 62.1363 79.5477 55.2547C79.9784 54.5868 80.9803 54.701 81.2527 55.4481Z" fill="#F89E1C"/>
<path d="M80.409 56.4851C80.4002 56.5027 80.3915 56.5115 80.3827 56.529C78.8446 59.1481 79.1522 62.479 81.1033 64.7992C81.7449 65.5638 82.5271 66.2581 83.4499 66.7152C83.4411 61.9605 82.2195 58.2868 81.5076 56.5642C81.3143 56.0984 80.6639 56.0544 80.409 56.4851Z" fill="#F4B821"/>
<path d="M77.1573 60.6512C75.5665 66.3991 76.5948 72.7094 80.1894 77.6926L80.6552 78.3429C80.7079 78.422 80.7782 78.4836 80.8485 78.5451L82.4481 78.4572C82.5975 78.299 82.703 78.1056 82.7469 77.8683C82.9491 76.8137 83.1073 75.7854 83.2303 74.7747C78.2031 72.6215 77.2979 64.5974 77.1573 60.6512Z" fill="#F5851F"/>
<path d="M82.9316 72.7792C81.6045 72.7792 78.757 71.9531 76.2698 65.6428L76.4807 64.5793C79.6534 73.2977 83.4326 72.0937 83.4677 72.0849L83.6787 72.6825C83.6347 72.6913 83.3711 72.7792 82.9316 72.7792Z" fill="#F89E1C"/>
<path d="M83.2305 75.3725C83.2305 75.3725 79.9083 77.0072 77.3596 71.9185C77.3596 71.9185 79.4689 78.2376 81.7188 78.7474C81.7188 78.7474 83.1778 79.0725 83.2305 75.3725Z" fill="#032663"/>
<path d="M81.6221 78.9844C81.2002 78.9844 80.8047 78.7911 80.5411 78.4307L80.0577 77.7804C75.1624 71.1537 74.9075 62.0662 79.4073 55.167C79.6446 54.8067 80.0489 54.6221 80.4708 54.6661C80.8926 54.7188 81.2442 54.9912 81.3848 55.3955C82.5449 58.6298 85.0321 67.2954 82.9404 77.8946C82.8349 78.422 82.4394 78.8262 81.9121 78.9493C81.8242 78.9756 81.7276 78.9844 81.6221 78.9844ZM80.3477 54.9737C80.0753 54.9737 79.838 55.1055 79.6798 55.334C75.2415 62.1189 75.4964 71.0658 80.3126 77.587L80.796 78.2374C81.042 78.5714 81.4551 78.7208 81.8594 78.6329C82.2637 78.545 82.5625 78.2374 82.6504 77.8243C84.7245 67.2954 82.2549 58.7001 81.1036 55.4922C80.9981 55.2022 80.752 55.0088 80.4444 54.9737C80.4093 54.9737 80.3829 54.9737 80.3477 54.9737Z" fill="#10319B"/>
<path d="M82.0352 75.715C80.7608 75.715 78.7394 75.1349 77.1223 72.0149L77.4035 71.8655C79.8204 76.5411 83.0283 75.2756 83.1602 75.214L83.2832 75.5041C83.2744 75.5216 82.7822 75.715 82.0352 75.715Z" fill="#10319B"/>
<path d="M82.8699 72.9382C81.6219 72.9382 78.7655 72.1736 76.1816 65.9775L76.4717 65.8545C79.7235 73.6413 83.3796 72.5691 83.4148 72.5603L83.5114 72.8591C83.4763 72.8679 83.2478 72.9382 82.8699 72.9382Z" fill="#10319B"/>
<path d="M47.8468 73.843C47.214 73.843 46.5812 73.6848 45.9924 73.3684C44.7444 72.7004 43.9797 71.4612 43.9358 70.0462L43.6985 62.1188C43.6546 60.7038 44.3489 59.4207 45.5529 58.6824C46.757 57.9354 48.2159 57.9002 49.4551 58.5682L56.4861 62.3561C57.6901 63.0065 58.446 64.2017 58.5163 65.564C58.5866 66.9262 57.9626 68.2006 56.8376 68.9652C56.8025 68.9916 56.7673 69.0092 56.7322 69.0355L56.6882 69.0619L49.8945 73.2629C49.2618 73.6408 48.5587 73.843 47.8468 73.843ZM47.6007 58.7264C47.0031 58.7264 46.4142 58.8934 45.8781 59.2185C44.8762 59.8425 44.2961 60.9148 44.3313 62.1012L44.5686 70.0287C44.6037 71.2151 45.2453 72.2522 46.2912 72.8147C47.3282 73.3772 48.5587 73.342 49.5606 72.718L56.3894 68.4906C56.4246 68.4731 56.4509 68.4467 56.4773 68.4291C57.4177 67.7875 57.9362 66.7241 57.8747 65.5904C57.8132 64.4566 57.1804 63.4547 56.1785 62.9098L49.1475 59.1219C48.6641 58.8582 48.1368 58.7264 47.6007 58.7264Z" fill="#F89E1C"/>
<path d="M56.495 68.6923C56.5302 68.6747 56.5653 68.6484 56.5917 68.6308C58.7274 67.1719 58.5779 63.9464 56.2753 62.7072L49.4025 58.9984C47.0208 57.7152 44.1557 59.4905 44.2348 62.1975L44.4633 69.9403C44.5424 72.6384 47.5217 74.238 49.8156 72.823L56.4599 68.7187C56.4687 68.7099 56.4862 68.7011 56.495 68.6923Z" fill="#032663"/>
<path d="M53.6211 67.4975C53.6387 67.4887 53.6563 67.4711 53.6738 67.4623C54.8779 66.6449 54.79 64.8257 53.4893 64.1226L49.6134 62.0397C48.2688 61.319 46.6516 62.3209 46.7044 63.8413L46.8362 68.2093C46.8802 69.7298 48.5588 70.635 49.8507 69.8353L53.5947 67.5238C53.6035 67.515 53.6123 67.5062 53.6211 67.4975Z" fill="#33FCFE"/>
<path d="M71.181 56.0726C70.1088 57.2943 63.86 60.3967 63.86 60.3967C63.86 60.3967 66.0045 62.005 66.0396 65.4062C66.066 67.9462 63.6667 70.2225 63.6667 70.2225C65.8287 72.4284 65.0113 76.3218 63.4118 79.2748C61.8122 82.2278 63.2272 83.0891 63.2272 83.0891C63.2272 83.0891 72.5784 69.1151 73.3958 61.2668C73.7297 58.0765 71.181 56.0726 71.181 56.0726Z" fill="#F4B821"/>
<path d="M28.9336 70.8551C28.9336 70.8551 31.3593 70.4508 32.66 72.0943C33.9607 73.7378 41.6948 88.3182 45.2982 93.5299C45.9485 94.4703 47.6184 97.6958 49.4728 97.0542C49.4728 97.0542 46.8889 98.5219 43.0834 94.6901C39.2867 90.8494 31.1659 75.4779 28.9336 70.8551Z" fill="#0E51A0"/>
<path d="M24.8675 9.93604C26.6297 8.69373 28.7354 7.63644 31.0614 6.75537L30.9117 6.79062C30.9117 6.79062 38.3832 2.65839 49.5287 2.65839C60.639 2.65839 68.1986 6.66727 68.2427 6.6937C70.6392 7.58358 72.789 8.65849 74.5952 9.92723C83.2914 16.0507 82.5778 29.2051 78.7627 41.6018C76.0049 50.624 62.8682 54.7298 49.7402 54.5271C36.6122 54.7298 23.4754 50.624 20.7 41.6018C16.885 29.2139 16.1713 16.0595 24.8675 9.93604Z" fill="#F89E1C"/>
<path d="M24.8674 9.97923C25.7926 9.32724 26.8146 8.72811 27.9071 8.17303C19.3872 14.367 20.1097 27.4509 23.8983 39.7859C26.6736 48.8257 39.8016 52.9315 52.9384 52.7377C60.4011 52.8522 67.8638 51.5658 73.4322 48.7817C67.7669 52.9051 58.7535 54.8082 49.7313 54.6672C36.6033 54.8699 23.4665 50.7553 20.6912 41.7155C16.8849 29.3011 16.1713 16.1203 24.8674 9.97923Z" fill="#F5851F"/>
<path d="M28.9291 21.0104C23.5986 19.9003 23.2461 11.4067 23.2285 11.0367L23.8629 11.019C23.8629 11.0983 24.2153 19.3804 29.0524 20.3848L28.9291 21.0104Z" fill="#F89E1C"/>
<path d="M69.3967 21.3363L69.2205 20.7284C74.5245 19.1865 74.8329 10.5696 74.8329 10.4815L75.4673 10.4991C75.4584 10.8692 75.1413 19.6711 69.3967 21.3363Z" fill="#F4B821"/>
<path d="M49.9251 10.2087C46.9383 10.2087 44.1629 9.23075 42.5417 7.58315C42.4889 7.53028 42.436 7.47742 42.3831 7.41575L39.4756 4.13816L40.1893 3.50378L43.0968 6.77256C43.132 6.81662 43.1761 6.86067 43.2201 6.90472C44.7973 8.50827 47.6343 9.38935 50.6388 9.23075C53.5551 9.07216 56.0926 7.96201 57.423 6.27916L59.5024 3.63595L60.2513 4.22626L58.1719 6.86948C56.6829 8.7726 53.8811 10.0061 50.6916 10.1823C50.4273 10.1999 50.1806 10.2087 49.9251 10.2087Z" fill="#F4B821"/>
<path d="M49.9076 13.6537C45.9516 13.6537 42.3656 12.3233 40.0836 9.99728C40.0043 9.91798 39.9162 9.82987 39.8369 9.74177L39.7488 9.64485L35.7576 5.16019L36.4712 4.52582L40.5418 9.10739C40.6123 9.18669 40.6828 9.26599 40.7621 9.33647C42.8678 11.4687 46.2071 12.7022 49.9076 12.7022C50.2072 12.7022 50.5155 12.6934 50.8239 12.6757C54.7711 12.4555 58.1632 10.9048 60.1192 8.41135L63.0884 4.63155L63.8373 5.22186L60.8681 9.00166C58.7447 11.7066 55.0971 13.3894 50.8768 13.6273C50.5596 13.6449 50.2336 13.6537 49.9076 13.6537Z" fill="#F4B821"/>
<path d="M74.1019 12.2533C72.2957 10.9757 70.1459 9.88318 67.7494 8.9933C67.6965 8.96686 60.1193 4.35005 49.0089 4.35005C41.696 4.34123 35.3083 5.56593 31.7664 6.40294C34.0131 5.34566 40.5859 2.65839 49.5376 2.65839C60.6479 2.65839 68.2075 6.70251 68.2516 6.72894C70.6481 7.62763 72.7979 8.71135 74.6041 9.98891C82.3575 15.4956 82.6307 26.6412 79.8905 37.8484C82.058 27.4341 81.3355 17.3899 74.1019 12.2533Z" fill="#F4B821"/>
<path d="M69.9167 20.905L69.855 20.5966C74.8242 19.5657 75.3617 10.7198 75.3705 10.6317L75.6877 10.6493C75.6613 11.0193 75.1238 19.8212 69.9167 20.905Z" fill="#10319B"/>
<path d="M60.4894 8.67576L63.4586 4.89596C62.4189 4.56115 61.2118 4.21753 59.8638 3.90035L57.7845 6.54356C56.3747 8.34095 53.7051 9.50397 50.6566 9.68018C47.52 9.85639 44.5419 8.91365 42.8767 7.21318C42.8239 7.16031 42.7798 7.11626 42.7357 7.0634L39.8282 3.79462C38.4449 4.10299 37.2026 4.45542 36.1189 4.79904L40.1102 9.2837L40.1983 9.38062C40.2776 9.45991 40.348 9.54802 40.4273 9.62732C42.6212 11.8564 46.1103 13.134 49.9077 13.134C50.2161 13.134 50.5332 13.1252 50.8504 13.1076C54.9298 12.8961 58.4453 11.2749 60.4894 8.67576Z" fill="#032663"/>
<path d="M29.4491 20.9051C24.242 19.8214 23.6693 11.1076 23.6428 10.7375L23.96 10.7199C23.9688 10.808 24.5415 19.5659 29.5108 20.5967L29.4491 20.9051Z" fill="#10319B"/>
<path d="M49.6699 54.4117C43.1764 54.5086 36.6917 53.6099 31.3171 51.6363C30.066 50.2971 29.0704 48.5702 28.4889 46.5614C26.9999 41.4071 25.3258 34.1999 24.6826 26.1029C24.3655 22.1204 26.6122 18.508 29.8369 17.7327C34.2335 16.6754 41.0177 15.4507 49.0707 15.3274V15.3185C49.2998 15.3185 49.5201 15.3274 49.7492 15.3274C49.9782 15.3274 50.1985 15.3185 50.4276 15.3185V15.3274C58.4806 15.4507 65.1062 16.4727 69.5028 17.53C72.7275 18.3054 75.1328 22.1204 74.8157 26.1029C74.1725 34.1999 72.4984 41.4071 71.0094 46.5614C70.4367 48.5262 69.4764 50.2178 68.2605 51.557C62.8243 53.5835 56.2427 54.5086 49.6699 54.4117Z" fill="#032663"/>
<path d="M72.093 49.5485L70.8154 50.2446C71.0533 49.5397 71.4498 48.3503 71.7141 47.5133C72.419 45.3106 73.2208 42.8083 73.9344 41.1343C75.0886 38.4294 78.2957 36.3853 80.4015 35.3633L80.0403 36.7466C78.0755 37.7069 75.8463 39.0726 74.8067 41.5132C74.1106 43.152 73.3177 45.6278 72.6128 47.8128C72.3573 48.641 72.3309 48.8437 72.093 49.5485Z" fill="#F4B821"/>
<path d="M27.7751 49.7517C27.7046 49.7517 27.6429 49.7076 27.6253 49.646C27.4138 49.0204 27.1936 48.3332 26.9645 47.6371C26.2772 45.5137 25.4931 43.0996 24.7618 41.3815C23.6957 38.8881 21.4049 37.5048 19.2991 36.4739C19.2199 36.4387 19.1846 36.3418 19.2287 36.2625C19.2639 36.1832 19.3608 36.1479 19.4401 36.192C21.5987 37.2405 23.9512 38.6678 25.0614 41.2581C25.8015 42.9939 26.5856 45.408 27.2729 47.5402C27.5019 48.2362 27.7222 48.9147 27.9248 49.549C27.9513 49.6283 27.9072 49.7253 27.8279 49.7517C27.8103 49.7517 27.7927 49.7517 27.7751 49.7517Z" fill="#F89E1C"/>
<path d="M80.146 36.7026C79.7671 38.3414 79.3266 39.989 78.8244 41.619C77.7935 44.9847 75.3529 47.6632 72.0137 49.7073C72.8771 47.1257 73.5996 44.2446 74.5688 41.9626C75.723 39.2754 78.2869 37.6013 80.146 36.7026Z" fill="#032663"/>
<path d="M77.8816 41.8222C78.234 40.8706 78.56 39.919 78.8684 38.9587C77.8816 39.5931 76.8684 40.5094 76.2516 41.7869C75.5908 43.1438 75.0093 44.8178 74.4102 46.4125C75.9785 45.2055 77.1855 43.6812 77.8816 41.8222Z" fill="#0E51A0"/>
<path d="M72.2163 49.6898L71.9167 49.5929C72.2163 48.703 72.4983 47.7602 72.7714 46.8527C73.2912 45.1258 73.8375 43.3461 74.4719 41.8394C75.6172 39.1433 78.1812 37.4517 80.1195 36.5001L80.2605 36.7821C78.3662 37.7072 75.8816 39.346 74.7626 41.954C74.1282 43.443 73.5908 45.2139 73.0709 46.932C72.7978 47.8571 72.5159 48.7999 72.2163 49.6898Z" fill="#10319B"/>
<path d="M19.2991 36.7026C19.6779 38.3414 20.1185 39.989 20.6207 41.619C21.6515 44.9847 24.0921 47.6632 27.4314 49.7073C26.5679 47.1257 25.8454 44.2446 24.8763 41.9626C23.7309 39.2754 21.1581 37.6013 19.2991 36.7026Z" fill="#032663"/>
<path d="M50.6035 54.6683C50.3127 54.6683 50.0219 54.6683 49.74 54.6595C38.1715 54.8357 23.5986 51.5317 20.5501 41.6372C17.8188 32.7736 14.7438 16.8615 24.7792 9.79528L24.8673 9.92744L24.7792 9.79528C26.5326 8.56178 30.7881 6.68509 30.9732 6.6058C31.0348 6.57055 38.4799 2.5 49.5374 2.5C60.6301 2.5 68.2513 6.50888 68.3306 6.55293C70.7888 7.46044 72.9386 8.55297 74.7008 9.79528C84.7362 16.8615 81.6612 32.7736 78.9299 41.6284C75.9519 51.285 62.0133 54.6683 50.6035 54.6683ZM49.7312 54.3423C50.0131 54.3423 50.3039 54.3511 50.5946 54.3511C61.8988 54.3511 75.6964 51.0295 78.6215 41.5403C81.3264 32.7648 84.3838 17.0113 74.5158 10.0596C72.7712 8.83491 70.6478 7.75119 68.1985 6.84369C68.1015 6.79082 60.5419 2.826 49.5374 2.826C38.568 2.826 31.1846 6.8525 31.1141 6.89655C31.0613 6.92298 26.7 8.84372 24.9643 10.0596C15.0874 17.0024 18.1536 32.7648 20.8496 41.5403C23.8453 51.2673 38.2861 54.5185 49.7312 54.3423Z" fill="#10319B"/>
<path d="M49.7401 53.0201C44.1717 53.0994 38.6122 52.4034 33.872 50.8791C33.1407 50.6412 32.4799 50.2007 32.0217 49.5839C31.2376 48.5443 30.6208 47.3196 30.2067 45.9539C28.8322 41.3195 27.2904 34.826 26.7001 27.5395C26.4093 23.9535 28.4798 20.7024 31.449 20.0063C35.502 19.0548 41.7576 17.9534 49.185 17.8389V17.8301C49.3965 17.8301 49.5991 17.8301 49.8106 17.8389C50.022 17.8389 50.2247 17.8301 50.4361 17.8301V17.8389C57.8636 17.9534 64.1104 19.0548 68.1721 20.0063C71.1502 20.7024 73.2119 23.9535 72.9211 27.5395C72.322 34.826 70.7889 41.3195 69.4144 45.9539C69.0091 47.3108 68.4012 48.5178 67.6259 49.5487C67.1853 50.139 66.5686 50.5619 65.8725 50.791C61.0619 52.3857 55.4054 53.1082 49.7401 53.0201Z" fill="#FCE8CA"/>
<path d="M48.6829 54.4826C42.2598 54.4826 36.2509 53.5222 31.2552 51.6896L31.22 51.6808L31.1936 51.6543C29.8896 50.2534 28.9028 48.4737 28.3301 46.5089C26.9644 41.7687 25.1847 34.3589 24.515 25.9799C24.189 21.9005 26.4534 18.2265 29.7927 17.4247C34.2773 16.3498 54.1896 13.1955 69.6876 17.4247C73.0093 18.3322 75.2736 22.0063 74.9564 25.9799C74.2868 34.3589 72.5159 41.7687 71.1414 46.5089C70.5863 48.4384 69.6171 50.1918 68.3572 51.575L68.3308 51.6015L68.2955 51.6191C63.0796 53.5751 56.4627 54.5971 49.6608 54.4914C49.3349 54.4826 49.0089 54.4826 48.6829 54.4826ZM49.6697 54.1566C56.4187 54.2623 62.9739 53.2491 68.1546 51.3195C69.3704 49.9715 70.3044 48.2798 70.8418 46.412C72.2075 41.6894 73.9785 34.2972 74.6393 25.9447C74.9476 22.1208 72.7802 18.5877 69.5995 17.7243C54.1631 13.5127 34.3302 16.6582 29.8632 17.7243C26.6825 18.4908 24.515 22.0239 24.8322 25.9447C25.5018 34.2972 27.264 41.6894 28.6297 46.412C29.1847 48.3239 30.1363 50.0508 31.3962 51.4076C36.5329 53.2755 43.0176 54.2623 49.6697 54.1566Z" fill="#10319B"/>
<path d="M27.2903 49.5841C26.9995 48.7206 26.7264 47.8219 26.4621 46.9497C25.9422 45.2404 25.396 43.4783 24.7528 41.9628C23.6426 39.3548 21.1492 37.7072 19.2549 36.7909L19.3959 36.509C21.3342 37.4517 23.8893 39.1434 25.0435 41.8483C25.6955 43.3725 26.2418 45.1523 26.7616 46.8616C27.0259 47.7338 27.2991 48.6325 27.5898 49.4872L27.2903 49.5841Z" fill="#10319B"/>
<path d="M75.4851 36.6319L79.5645 34.253C79.5645 34.253 80.7275 22.5348 76.9389 17.2043L75.8463 20.5612C75.8463 20.5612 77.5997 23.1075 75.4851 36.6319Z" fill="#F4B821"/>
<path fill-rule="evenodd" clip-rule="evenodd" d="M53.1759 42.9649V45.7574C53.1759 46.3008 53.0608 46.8117 52.8388 47.2706C52.288 48.4913 51.0713 49.3274 49.6656 49.3274H49.5916C48.1529 49.3274 46.9116 48.442 46.3772 47.1787C46.1882 46.7448 46.0813 46.2674 46.0813 45.7574V42.9649C46.0813 40.9927 47.6597 39.395 49.5916 39.395H49.6656C51.6057 39.395 53.1759 40.9927 53.1759 42.9649Z" fill="#002252"/>
<path fill-rule="evenodd" clip-rule="evenodd" d="M52.7028 47.3281C52.1787 48.5146 51.021 49.3273 49.6833 49.3273H49.6129C48.2439 49.3273 47.0627 48.4658 46.5542 47.2387C47.4382 47.0599 48.3925 46.9624 49.3938 46.9624C50.5751 46.9624 51.6937 47.0924 52.7028 47.3281Z" fill="#D92037"/>
<path d="M38.4854 37.3226L43.9112 35.6948V52.817C43.9112 52.817 42.2834 52.6886 41.1983 52.5148C40.1131 52.341 38.4854 52.1245 38.4854 52.1245V37.3226Z" fill="#47C4E9"/>
<path fill-rule="evenodd" clip-rule="evenodd" d="M36.3686 31.9526C36.5836 31.6826 36.9768 31.638 37.2469 31.853C38.268 32.6663 41.0778 34.43 44.0133 34.917C44.3176 34.9675 44.5396 35.2324 44.536 35.5408C44.5324 35.8492 44.3044 36.1089 43.999 36.1524C43.2772 36.255 42.0542 36.4888 40.7624 36.8532C39.462 37.2201 38.1392 37.7064 37.1877 38.2984C36.8946 38.4808 36.5092 38.391 36.3268 38.0979C36.1445 37.8048 36.2343 37.4194 36.5273 37.2371C37.6278 36.5524 39.0836 36.0281 40.423 35.6502C40.6895 35.575 40.9533 35.5051 41.211 35.4405C39.0652 34.6402 37.2744 33.4729 36.4682 32.8308C36.1981 32.6158 36.1536 32.2226 36.3686 31.9526Z" fill="#0E51A0"/>
<path d="M41.2392 28.7351C41.2839 28.7427 41.3336 28.7665 41.3733 28.804C41.955 29.3099 42.7194 29.5091 43.4764 29.3463C43.6432 29.3132 43.802 29.4171 43.8363 29.5764C43.8693 29.7432 43.7655 29.9021 43.6062 29.9364C42.6662 30.1372 41.7104 29.89 40.981 29.2592C40.8545 29.1455 40.8403 28.9589 40.9539 28.8324C41.0152 28.743 41.1285 28.7086 41.2392 28.7351Z" fill="#032663"/>
<path d="M60.7429 37.3226L55.3171 35.6948V52.817C55.3171 52.817 56.9449 52.6886 58.03 52.5148C59.1152 52.341 60.7429 52.1245 60.7429 52.1245V37.3226Z" fill="#47C4E9"/>
<path fill-rule="evenodd" clip-rule="evenodd" d="M62.8594 31.9526C62.6444 31.6826 62.2512 31.638 61.9812 31.853C60.96 32.6663 58.1503 34.43 55.2147 34.917C54.9104 34.9675 54.6885 35.2324 54.692 35.5408C54.6956 35.8492 54.9236 36.1089 55.229 36.1524C55.9508 36.255 57.1738 36.4888 58.4656 36.8532C59.766 37.2201 61.0888 37.7064 62.0404 38.2984C62.3334 38.4808 62.7188 38.391 62.9012 38.0979C63.0835 37.8048 62.9938 37.4194 62.7007 37.2371C61.6003 36.5524 60.1445 36.0281 58.805 35.6502C58.5385 35.575 58.2747 35.5051 58.017 35.4405C60.1628 34.6402 61.9537 33.4729 62.7599 32.8308C63.0299 32.6158 63.0745 32.2226 62.8594 31.9526Z" fill="#0E51A0"/>
<path d="M57.9889 28.7351C57.9441 28.7427 57.8944 28.7665 57.8548 28.804C57.273 29.3099 56.5086 29.5091 55.7517 29.3463C55.5848 29.3132 55.426 29.4171 55.3917 29.5764C55.3587 29.7432 55.4625 29.9021 55.6218 29.9364C56.5618 30.1372 57.5177 29.89 58.247 29.2592C58.3735 29.1455 58.3878 28.9589 58.2741 28.8324C58.2128 28.743 58.0995 28.7086 57.9889 28.7351Z" fill="#032663"/>
</g>
</svg>
