<svg width="41" height="40" viewBox="0 0 41 40" fill="none" xmlns="http://www.w3.org/2000/svg">
<circle cx="20.5" cy="20" r="20" fill="#D6EBFF"/>
<path d="M16.8996 12.8C16.8996 10.8118 18.5114 9.20001 20.4996 9.20001C22.4878 9.20001 24.0996 10.8118 24.0996 12.8V17.6C24.0996 19.5882 22.4878 21.2 20.4996 21.2C18.5114 21.2 16.8996 19.5882 16.8996 17.6V12.8Z" fill="#0055B8"/>
<path d="M21.6996 25.9149C25.7704 25.3327 28.8996 21.8318 28.8996 17.6C28.8996 16.9373 28.3624 16.4 27.6996 16.4C27.0369 16.4 26.4996 16.9373 26.4996 17.6C26.4996 20.9137 23.8133 23.6 20.4996 23.6C17.1859 23.6 14.4996 20.9137 14.4996 17.6C14.4996 16.9373 13.9624 16.4 13.2996 16.4C12.6369 16.4 12.0996 16.9373 12.0996 17.6C12.0996 21.8318 15.2289 25.3327 19.2996 25.9149V28.4H15.6996C15.0369 28.4 14.4996 28.9373 14.4996 29.6C14.4996 30.2628 15.0369 30.8 15.6996 30.8H25.2996C25.9624 30.8 26.4996 30.2628 26.4996 29.6C26.4996 28.9373 25.9624 28.4 25.2996 28.4H21.6996V25.9149Z" fill="#0055B8"/>
</svg>
