<svg width="32" height="24" viewBox="0 0 32 24" fill="none" xmlns="http://www.w3.org/2000/svg">
<path d="M0 3.04465C0 2.31312 0.519841 1.68481 1.23843 1.5478L1.72429 1.45517C5.8671 0.665333 10.133 0.665333 14.2758 1.45517L16.0001 1.78391V23.1372L14.2758 22.8084C10.133 22.0186 5.86711 22.0186 1.72429 22.8084C0.829272 22.9791 0 22.293 0 21.3818V3.04465Z" fill="#CFE7FE"/>
<path d="M16 1.78391L17.7243 1.45517C21.8671 0.665333 26.133 0.665333 30.2758 1.45517L30.7617 1.5478C31.4802 1.68481 32.0001 2.31312 32.0001 3.04465V21.3818C32.0001 22.293 31.1708 22.9791 30.2758 22.8084C26.133 22.0186 21.8671 22.0186 17.7243 22.8084L16 23.1372V1.78391Z" fill="#9ECEFC"/>
<path d="M20 7.92984C21.3333 7.3995 24.8 6.65702 28 7.92984" stroke="#016AE4" stroke-width="2" stroke-linecap="round"/>
<path d="M20 11.8146C21.3333 11.2843 24.8 10.5418 28 11.8146" stroke="#016AE4" stroke-width="2" stroke-linecap="round"/>
<path d="M20 15.6994C21.3333 15.169 24.8 14.4266 28 15.6994" stroke="#016AE4" stroke-width="2" stroke-linecap="round"/>
<path d="M4.28906 7.96353C5.6224 7.43319 9.08909 6.69071 12.2891 7.96353" stroke="#016AE4" stroke-width="2" stroke-linecap="round"/>
<path d="M4.28906 11.8478C5.6224 11.3175 9.08909 10.575 12.2891 11.8478" stroke="#016AE4" stroke-width="2" stroke-linecap="round"/>
<path d="M4.28906 15.7321C5.6224 15.2017 9.08909 14.4593 12.2891 15.7321" stroke="#016AE4" stroke-width="2" stroke-linecap="round"/>
</svg>
