<svg width="41" height="40" viewBox="0 0 41 40" fill="none" xmlns="http://www.w3.org/2000/svg">
<circle cx="20.5" cy="20" r="20" fill="#FEE6E9"/>
<line x1="14.8634" y1="12.5" x2="27.6159" y2="25.2525" stroke="#D92037" stroke-width="2" stroke-linecap="round"/>
<path fill-rule="evenodd" clip-rule="evenodd" d="M18.0095 13.3985L23.7326 19.1216C23.8723 18.7751 23.9492 18.3965 23.9492 18V14C23.9492 12.3431 22.6061 11 20.9492 11C19.4984 11 18.2881 12.0299 18.0095 13.3985ZM22.4059 20.6233L17.9492 16.1666V18C17.9492 19.6569 19.2924 21 20.9492 21C21.4778 21 21.9745 20.8633 22.4059 20.6233ZM23.8533 22.0707L25.2814 23.4988C24.337 24.2438 23.1961 24.7508 21.9492 24.9291V27H24.9492C25.5015 27 25.9492 27.4477 25.9492 28C25.9492 28.5523 25.5015 29 24.9492 29H16.9492C16.3969 29 15.9492 28.5523 15.9492 28C15.9492 27.4477 16.3969 27 16.9492 27H19.9492V24.9291C16.5569 24.4439 13.9492 21.5265 13.9492 18C13.9492 17.4477 14.3969 17 14.9492 17C15.5015 17 15.9492 17.4477 15.9492 18C15.9492 20.7614 18.1878 23 20.9492 23C22.0321 23 23.0346 22.6557 23.8533 22.0707ZM26.66 22.049L25.2172 20.6062C25.6816 19.8472 25.9492 18.9549 25.9492 18C25.9492 17.4477 26.3969 17 26.9492 17C27.5015 17 27.9492 17.4477 27.9492 18C27.9492 19.5088 27.4719 20.906 26.66 22.049Z" fill="#D92037"/>
</svg>
