<svg width="16" height="16" viewBox="0 0 16 16" fill="none" xmlns="http://www.w3.org/2000/svg">
<path d="M3.0875 1C2.94375 1 2.80625 1.02776 2.675 1.08328C2.46875 1.16347 2.30469 1.28993 2.18281 1.46266C2.06094 1.63538 2 1.82661 2 2.03635V13.9636C2 14.1734 2.06094 14.3646 2.18281 14.5373C2.30469 14.7101 2.46875 14.8365 2.675 14.9167C2.79375 14.9661 2.93125 14.9907 3.0875 14.9907C3.3875 14.9907 3.64687 14.892 3.86562 14.6946L8 10.7713L12.1344 14.6946C12.3594 14.8982 12.6187 15 12.9125 15C13.0562 15 13.1937 14.9722 13.325 14.9167C13.5312 14.8365 13.6953 14.7101 13.8172 14.5373C13.9391 14.3646 14 14.1734 14 13.9636V2.03635C14 1.82661 13.9391 1.63538 13.8172 1.46266C13.6953 1.28993 13.5312 1.16347 13.325 1.08328C13.1937 1.02776 13.0562 1 12.9125 1H3.0875Z" fill="#868E96"/>
</svg>
