<svg width="18" height="18" viewBox="0 0 18 18" fill="none" xmlns="http://www.w3.org/2000/svg">
<path fill-rule="evenodd" clip-rule="evenodd" d="M0.666805 9.00033C0.666805 4.39783 4.39764 0.666992 9.00014 0.666992C13.6026 0.666992 17.3335 4.39783 17.3335 9.00033C17.3335 13.6028 13.6026 17.3337 9.00014 17.3337C7.55848 17.3358 6.14112 16.9625 4.88764 16.2503L1.76347 17.2912C1.61664 17.3401 1.45908 17.3472 1.30843 17.3117C1.15779 17.2761 1.02003 17.1993 0.910582 17.0899C0.801136 16.9804 0.724334 16.8427 0.688783 16.692C0.653232 16.5414 0.660339 16.3838 0.709305 16.237L1.75097 13.1128C1.0385 11.8594 0.664846 10.4421 0.666805 9.00033ZM5.6668 4.83366C5.44579 4.83366 5.23383 4.92146 5.07755 5.07774C4.92127 5.23402 4.83347 5.44598 4.83347 5.66699C4.83347 5.88801 4.92127 6.09997 5.07755 6.25625C5.23383 6.41253 5.44579 6.50033 5.6668 6.50033H12.3335C12.5545 6.50033 12.7664 6.41253 12.9227 6.25625C13.079 6.09997 13.1668 5.88801 13.1668 5.66699C13.1668 5.44598 13.079 5.23402 12.9227 5.07774C12.7664 4.92146 12.5545 4.83366 12.3335 4.83366H5.6668ZM5.6668 8.16699C5.44579 8.16699 5.23383 8.25479 5.07755 8.41107C4.92127 8.56735 4.83347 8.77931 4.83347 9.00033C4.83347 9.22134 4.92127 9.4333 5.07755 9.58958C5.23383 9.74586 5.44579 9.83366 5.6668 9.83366H12.3335C12.5545 9.83366 12.7664 9.74586 12.9227 9.58958C13.079 9.4333 13.1668 9.22134 13.1668 9.00033C13.1668 8.77931 13.079 8.56735 12.9227 8.41107C12.7664 8.25479 12.5545 8.16699 12.3335 8.16699H5.6668ZM5.6668 11.5003C5.44579 11.5003 5.23383 11.5881 5.07755 11.7444C4.92127 11.9007 4.83347 12.1126 4.83347 12.3337C4.83347 12.5547 4.92127 12.7666 5.07755 12.9229C5.23383 13.0792 5.44579 13.167 5.6668 13.167H8.1668C8.38782 13.167 8.59978 13.0792 8.75606 12.9229C8.91234 12.7666 9.00014 12.5547 9.00014 12.3337C9.00014 12.1126 8.91234 11.9007 8.75606 11.7444C8.59978 11.5881 8.38782 11.5003 8.1668 11.5003H5.6668Z" fill="#0055B8"/>
</svg>
