<svg width="24" height="24" viewBox="0 0 24 24" fill="none" xmlns="http://www.w3.org/2000/svg">
<path fill-rule="evenodd" clip-rule="evenodd" d="M13 3C13 2.44772 12.5523 2 12 2C11.4477 2 11 2.44772 11 3V4.07488C9.96715 4.22372 8.74471 4.61155 7.66566 5.38847C6.15817 6.47386 4.99997 8.27408 4.99997 11V14.5858L3.29286 16.2929C3.00686 16.5789 2.92131 17.009 3.07609 17.3827C3.23087 17.7564 3.59551 18 3.99997 18H7.99997C7.99997 18.66 8.18975 19.6278 8.78843 20.4593C9.42383 21.3418 10.474 22 12 22C13.5259 22 14.5761 21.3418 15.2115 20.4593C15.8102 19.6278 16 18.66 16 18H20C20.4044 18 20.7691 17.7564 20.9238 17.3827C21.0786 17.009 20.9931 16.5789 20.7071 16.2929L19 14.5858V11C19 9.83998 18.6602 8.1222 17.6115 6.6657C16.6648 5.35082 15.1743 4.30168 13 4.05504V3ZM10.4115 19.2907C10.1102 18.8722 9.99997 18.34 9.99997 18H14C14 18.34 13.8897 18.8722 13.5884 19.2907C13.3238 19.6582 12.874 20 12 20C11.1259 20 10.6761 19.6582 10.4115 19.2907Z" fill="#A5B0BB"/>
</svg>
