<svg width="20" height="20" viewBox="0 0 20 20" fill="none" xmlns="http://www.w3.org/2000/svg">
<path d="M10.8746 11.1114L10.3709 11.4373C9.68943 11.8817 8.85978 11.7928 8.47459 11.1706C8.05978 10.5484 8.35608 9.77801 9.03757 9.30394L9.65979 8.88912C10.2524 8.4743 10.5487 8.11874 10.5487 7.61503C10.5487 7.0817 10.1339 6.66688 9.5709 6.66688C8.4746 6.66688 8.23756 7.73355 7.20051 7.73355C6.37088 7.73355 5.95605 7.17058 5.95605 6.51873C5.95605 5.24464 7.6746 3.88167 9.68943 3.88167C12.1783 3.88167 13.4821 5.6002 13.4821 7.40762C13.4821 8.82986 12.8598 9.83727 10.8746 11.1114ZM11.5857 14.3706C11.5857 15.3781 10.7561 16.1781 9.74869 16.1781C8.74128 16.1781 7.94126 15.3781 7.94126 14.3706C7.94126 13.3632 8.74128 12.5336 9.74869 12.5336C10.7561 12.5336 11.5857 13.3632 11.5857 14.3706Z" fill="#0055B8"/>
<path d="M17.1254 6.13343C16.6514 6.13343 16.1773 6.01491 15.7921 5.8075L15.2291 5.89639L14.0439 6.07417L14.6662 4.59268C14.4588 4.17786 14.3699 3.73341 14.3699 3.25933C14.3699 1.60006 15.5847 0.325974 17.1847 0.325974C18.7847 0.325974 19.9995 1.57043 19.9995 3.25933C19.9403 4.88897 18.7255 6.13343 17.1254 6.13343Z" fill="#0055B8"/>
<path d="M19.2594 17.1557L18.252 14.7261C18.9631 13.3038 19.3187 11.7038 19.3187 10.0742C19.3187 8.94822 19.1705 7.88155 18.8446 6.87413C18.3705 7.08154 17.8372 7.20006 17.3039 7.20006C17.2742 7.20006 17.2742 7.20006 17.2446 7.20006C17.5409 8.08896 17.689 9.06674 17.689 10.1038C17.689 11.6149 17.3335 13.0668 16.6224 14.3409C16.5038 14.5779 16.5038 14.8446 16.5927 15.052C16.6224 15.0816 16.6224 15.1112 16.6224 15.1112L17.689 17.6594L16.5631 17.5113C16.5335 17.5113 16.5038 17.5113 16.4742 17.5113L14.252 17.215C14.0742 17.1853 13.8964 17.215 13.7186 17.3335C12.4742 18.0742 11.1112 18.4298 9.62971 18.4298C5.06671 18.4298 1.62964 14.8446 1.62964 10.0742C1.62964 5.27412 5.06671 1.62964 9.62971 1.62964C10.9631 1.62964 12.2371 1.95557 13.3038 2.51854C13.3631 1.95557 13.5705 1.42223 13.8372 0.948156C12.5927 0.325928 11.1408 0 9.62971 0C4.14818 0 0 4.32596 0 10.0445C0 15.7335 4.14818 20.0002 9.62971 20.0002C11.289 20.0002 12.889 19.5854 14.2816 18.815L16.3261 19.0816C16.3557 19.0816 16.3557 19.0816 16.3853 19.0816L17.452 19.2298C18.0446 19.3187 18.6372 19.0816 18.9927 18.6076C19.3779 18.2224 19.4668 17.6594 19.2594 17.1557Z" fill="white"/>
</svg>
