<svg width="328" height="68" viewBox="0 0 328 68" fill="none" xmlns="http://www.w3.org/2000/svg">
<rect width="328" height="68" fill="#EFF7FF"/>
<path d="M26.656 30H24.416L19.344 22.336V30H17.104V18.816H19.344L24.416 26.496V18.816H26.656V30ZM37.3976 21.136V30H35.1416V28.88C34.8536 29.264 34.475 29.568 34.0056 29.792C33.547 30.0053 33.0456 30.112 32.5016 30.112C31.8083 30.112 31.195 29.968 30.6616 29.68C30.1283 29.3813 29.707 28.9493 29.3976 28.384C29.099 27.808 28.9496 27.1253 28.9496 26.336V21.136H31.1896V26.016C31.1896 26.72 31.3656 27.264 31.7176 27.648C32.0696 28.0213 32.5496 28.208 33.1576 28.208C33.7763 28.208 34.2616 28.0213 34.6136 27.648C34.9656 27.264 35.1416 26.72 35.1416 26.016V21.136H37.3976ZM50.7758 21.008C51.8638 21.008 52.7384 21.344 53.3998 22.016C54.0718 22.6773 54.4078 23.6053 54.4078 24.8V30H52.1678V25.104C52.1678 24.4107 51.9918 23.8827 51.6398 23.52C51.2878 23.1467 50.8078 22.96 50.1997 22.96C49.5918 22.96 49.1064 23.1467 48.7438 23.52C48.3918 23.8827 48.2157 24.4107 48.2157 25.104V30H45.9757V25.104C45.9757 24.4107 45.7998 23.8827 45.4478 23.52C45.0958 23.1467 44.6158 22.96 44.0078 22.96C43.3891 22.96 42.8984 23.1467 42.5357 23.52C42.1837 23.8827 42.0077 24.4107 42.0077 25.104V30H39.7677V21.136H42.0077V22.208C42.2957 21.8347 42.6638 21.5413 43.1118 21.328C43.5704 21.1147 44.0717 21.008 44.6157 21.008C45.3091 21.008 45.9277 21.1573 46.4718 21.456C47.0158 21.744 47.4371 22.16 47.7358 22.704C48.0238 22.192 48.4398 21.7813 48.9838 21.472C49.5384 21.1627 50.1358 21.008 50.7758 21.008ZM64.9334 25.376C64.9334 25.696 64.912 25.984 64.8694 26.24H58.3894C58.4427 26.88 58.6667 27.3813 59.0614 27.744C59.456 28.1067 59.9414 28.288 60.5174 28.288C61.3494 28.288 61.9414 27.9307 62.2934 27.216H64.7094C64.4534 28.0693 63.9627 28.7733 63.2374 29.328C62.512 29.872 61.6214 30.144 60.5654 30.144C59.712 30.144 58.944 29.9573 58.2614 29.584C57.5894 29.2 57.0614 28.6613 56.6774 27.968C56.304 27.2747 56.1174 26.4747 56.1174 25.568C56.1174 24.6507 56.304 23.8453 56.6774 23.152C57.0507 22.4587 57.5734 21.9253 58.2454 21.552C58.9174 21.1787 59.6907 20.992 60.5654 20.992C61.408 20.992 62.16 21.1733 62.8214 21.536C63.4934 21.8987 64.0107 22.416 64.3734 23.088C64.7467 23.7493 64.9334 24.512 64.9334 25.376ZM62.6134 24.736C62.6027 24.16 62.3947 23.7013 61.9894 23.36C61.584 23.008 61.088 22.832 60.5014 22.832C59.9467 22.832 59.4774 23.0027 59.0934 23.344C58.72 23.6747 58.4907 24.1387 58.4054 24.736H62.6134ZM68.9684 22.512C69.2564 22.0427 69.6297 21.6747 70.0884 21.408C70.5577 21.1413 71.091 21.008 71.6884 21.008V23.36H71.0964C70.3924 23.36 69.859 23.5253 69.4964 23.856C69.1444 24.1867 68.9684 24.7627 68.9684 25.584V30H66.7284V21.136H68.9684V22.512ZM72.7811 25.536C72.7811 24.64 72.9571 23.8453 73.3091 23.152C73.6718 22.4587 74.1571 21.9253 74.7651 21.552C75.3838 21.1787 76.0718 20.992 76.8291 20.992C77.4905 20.992 78.0665 21.1253 78.5571 21.392C79.0585 21.6587 79.4585 21.9947 79.7571 22.4V21.136H82.0131V30H79.7571V28.704C79.4691 29.12 79.0691 29.4667 78.5571 29.744C78.0558 30.0107 77.4745 30.144 76.8131 30.144C76.0665 30.144 75.3838 29.952 74.7651 29.568C74.1571 29.184 73.6718 28.6453 73.3091 27.952C72.9571 27.248 72.7811 26.4427 72.7811 25.536ZM79.7571 25.568C79.7571 25.024 79.6505 24.56 79.4371 24.176C79.2238 23.7813 78.9358 23.4827 78.5731 23.28C78.2105 23.0667 77.8211 22.96 77.4051 22.96C76.9891 22.96 76.6051 23.0613 76.2531 23.264C75.9011 23.4667 75.6131 23.7653 75.3891 24.16C75.1758 24.544 75.0691 25.0027 75.0691 25.536C75.0691 26.0693 75.1758 26.5387 75.3891 26.944C75.6131 27.3387 75.9011 27.6427 76.2531 27.856C76.6158 28.0693 76.9998 28.176 77.4051 28.176C77.8211 28.176 78.2105 28.0747 78.5731 27.872C78.9358 27.6587 79.2238 27.36 79.4371 26.976C79.6505 26.5813 79.7571 26.112 79.7571 25.568ZM87.7529 30.144C87.0275 30.144 86.3769 30.016 85.8009 29.76C85.2249 29.4933 84.7662 29.136 84.4249 28.688C84.0942 28.24 83.9129 27.744 83.8809 27.2H86.1369C86.1795 27.5413 86.3449 27.824 86.6329 28.048C86.9315 28.272 87.2995 28.384 87.7369 28.384C88.1635 28.384 88.4942 28.2987 88.7289 28.128C88.9742 27.9573 89.0969 27.7387 89.0969 27.472C89.0969 27.184 88.9475 26.9707 88.6489 26.832C88.3609 26.6827 87.8969 26.5227 87.2569 26.352C86.5955 26.192 86.0515 26.0267 85.6249 25.856C85.2089 25.6853 84.8462 25.424 84.5369 25.072C84.2382 24.72 84.0889 24.2453 84.0889 23.648C84.0889 23.1573 84.2275 22.7093 84.5049 22.304C84.7929 21.8987 85.1982 21.5787 85.7209 21.344C86.2542 21.1093 86.8782 20.992 87.5929 20.992C88.6489 20.992 89.4915 21.2587 90.1209 21.792C90.7502 22.3147 91.0969 23.024 91.1609 23.92H89.0169C88.9849 23.568 88.8355 23.2907 88.5689 23.088C88.3129 22.8747 87.9662 22.768 87.5289 22.768C87.1235 22.768 86.8089 22.8427 86.5849 22.992C86.3715 23.1413 86.2649 23.3493 86.2649 23.616C86.2649 23.9147 86.4142 24.144 86.7129 24.304C87.0115 24.4533 87.4755 24.608 88.1049 24.768C88.7449 24.928 89.2729 25.0933 89.6889 25.264C90.1049 25.4347 90.4622 25.7013 90.7609 26.064C91.0702 26.416 91.2302 26.8853 91.2409 27.472C91.2409 27.984 91.0969 28.4427 90.8089 28.848C90.5315 29.2533 90.1262 29.5733 89.5929 29.808C89.0702 30.032 88.4569 30.144 87.7529 30.144ZM94.3756 20.08C93.981 20.08 93.6503 19.9573 93.3836 19.712C93.1276 19.456 92.9996 19.1413 92.9996 18.768C92.9996 18.3947 93.1276 18.0853 93.3836 17.84C93.6503 17.584 93.981 17.456 94.3756 17.456C94.7703 17.456 95.0956 17.584 95.3516 17.84C95.6183 18.0853 95.7516 18.3947 95.7516 18.768C95.7516 19.1413 95.6183 19.456 95.3516 19.712C95.0956 19.9573 94.7703 20.08 94.3756 20.08ZM95.4796 21.136V30H93.2396V21.136H95.4796Z" fill="#1D252D"/>
<path d="M21.112 47.692C21.416 47.74 21.692 47.864 21.94 48.064C22.196 48.264 22.396 48.512 22.54 48.808C22.692 49.104 22.768 49.42 22.768 49.756C22.768 50.18 22.66 50.564 22.444 50.908C22.228 51.244 21.912 51.512 21.496 51.712C21.088 51.904 20.604 52 20.044 52H16.924V43.636H19.924C20.492 43.636 20.976 43.732 21.376 43.924C21.776 44.108 22.076 44.36 22.276 44.68C22.476 45 22.576 45.36 22.576 45.76C22.576 46.256 22.44 46.668 22.168 46.996C21.904 47.316 21.552 47.548 21.112 47.692ZM18.016 47.248H19.852C20.364 47.248 20.76 47.128 21.04 46.888C21.32 46.648 21.46 46.316 21.46 45.892C21.46 45.468 21.32 45.136 21.04 44.896C20.76 44.656 20.356 44.536 19.828 44.536H18.016V47.248ZM19.948 51.1C20.492 51.1 20.916 50.972 21.22 50.716C21.524 50.46 21.676 50.104 21.676 49.648C21.676 49.184 21.516 48.82 21.196 48.556C20.876 48.284 20.448 48.148 19.912 48.148H18.016V51.1H19.948ZM25.0974 44.356C24.8894 44.356 24.7134 44.284 24.5694 44.14C24.4254 43.996 24.3534 43.82 24.3534 43.612C24.3534 43.404 24.4254 43.228 24.5694 43.084C24.7134 42.94 24.8894 42.868 25.0974 42.868C25.2974 42.868 25.4654 42.94 25.6014 43.084C25.7454 43.228 25.8174 43.404 25.8174 43.612C25.8174 43.82 25.7454 43.996 25.6014 44.14C25.4654 44.284 25.2974 44.356 25.0974 44.356ZM25.6254 45.424V52H24.5334V45.424H25.6254ZM28.8285 43.12V52H27.7365V43.12H28.8285ZM30.5316 48.688C30.5316 48.016 30.6676 47.428 30.9396 46.924C31.2116 46.412 31.5836 46.016 32.0556 45.736C32.5356 45.456 33.0676 45.316 33.6516 45.316C34.2276 45.316 34.7276 45.44 35.1516 45.688C35.5756 45.936 35.8916 46.248 36.0996 46.624V45.424H37.2036V52H36.0996V50.776C35.8836 51.16 35.5596 51.48 35.1276 51.736C34.7036 51.984 34.2076 52.108 33.6396 52.108C33.0556 52.108 32.5276 51.964 32.0556 51.676C31.5836 51.388 31.2116 50.984 30.9396 50.464C30.6676 49.944 30.5316 49.352 30.5316 48.688ZM36.0996 48.7C36.0996 48.204 35.9996 47.772 35.7996 47.404C35.5996 47.036 35.3276 46.756 34.9836 46.564C34.6476 46.364 34.2756 46.264 33.8676 46.264C33.4596 46.264 33.0876 46.36 32.7516 46.552C32.4156 46.744 32.1476 47.024 31.9476 47.392C31.7476 47.76 31.6476 48.192 31.6476 48.688C31.6476 49.192 31.7476 49.632 31.9476 50.008C32.1476 50.376 32.4156 50.66 32.7516 50.86C33.0876 51.052 33.4596 51.148 33.8676 51.148C34.2756 51.148 34.6476 51.052 34.9836 50.86C35.3276 50.66 35.5996 50.376 35.7996 50.008C35.9996 49.632 36.0996 49.196 36.0996 48.7ZM42.503 45.304C43.303 45.304 43.951 45.548 44.447 46.036C44.943 46.516 45.191 47.212 45.191 48.124V52H44.111V48.28C44.111 47.624 43.947 47.124 43.619 46.78C43.291 46.428 42.843 46.252 42.275 46.252C41.699 46.252 41.239 46.432 40.895 46.792C40.559 47.152 40.391 47.676 40.391 48.364V52H39.299V45.424H40.391V46.36C40.607 46.024 40.899 45.764 41.267 45.58C41.643 45.396 42.055 45.304 42.503 45.304ZM49.9368 45.316C50.5048 45.316 51.0008 45.44 51.4248 45.688C51.8568 45.936 52.1768 46.248 52.3848 46.624V45.424H53.4888V52.144C53.4888 52.744 53.3608 53.276 53.1048 53.74C52.8488 54.212 52.4808 54.58 52.0008 54.844C51.5288 55.108 50.9768 55.24 50.3448 55.24C49.4808 55.24 48.7608 55.036 48.1848 54.628C47.6088 54.22 47.2688 53.664 47.1648 52.96H48.2448C48.3648 53.36 48.6128 53.68 48.9888 53.92C49.3648 54.168 49.8168 54.292 50.3448 54.292C50.9448 54.292 51.4328 54.104 51.8088 53.728C52.1928 53.352 52.3848 52.824 52.3848 52.144V50.764C52.1688 51.148 51.8488 51.468 51.4248 51.724C51.0008 51.98 50.5048 52.108 49.9368 52.108C49.3528 52.108 48.8208 51.964 48.3408 51.676C47.8688 51.388 47.4968 50.984 47.2248 50.464C46.9528 49.944 46.8168 49.352 46.8168 48.688C46.8168 48.016 46.9528 47.428 47.2248 46.924C47.4968 46.412 47.8688 46.016 48.3408 45.736C48.8208 45.456 49.3528 45.316 49.9368 45.316ZM52.3848 48.7C52.3848 48.204 52.2848 47.772 52.0848 47.404C51.8848 47.036 51.6128 46.756 51.2688 46.564C50.9328 46.364 50.5608 46.264 50.1528 46.264C49.7448 46.264 49.3728 46.36 49.0368 46.552C48.7008 46.744 48.4328 47.024 48.2328 47.392C48.0328 47.76 47.9328 48.192 47.9328 48.688C47.9328 49.192 48.0328 49.632 48.2328 50.008C48.4328 50.376 48.7008 50.66 49.0368 50.86C49.3728 51.052 49.7448 51.148 50.1528 51.148C50.5608 51.148 50.9328 51.052 51.2688 50.86C51.6128 50.66 51.8848 50.376 52.0848 50.008C52.2848 49.632 52.3848 49.196 52.3848 48.7ZM55.1762 48.688C55.1762 48.016 55.3122 47.428 55.5842 46.924C55.8562 46.412 56.2282 46.016 56.7002 45.736C57.1802 45.456 57.7122 45.316 58.2962 45.316C58.8722 45.316 59.3722 45.44 59.7962 45.688C60.2202 45.936 60.5362 46.248 60.7442 46.624V45.424H61.8482V52H60.7442V50.776C60.5282 51.16 60.2042 51.48 59.7722 51.736C59.3482 51.984 58.8522 52.108 58.2842 52.108C57.7002 52.108 57.1722 51.964 56.7002 51.676C56.2282 51.388 55.8562 50.984 55.5842 50.464C55.3122 49.944 55.1762 49.352 55.1762 48.688ZM60.7442 48.7C60.7442 48.204 60.6442 47.772 60.4442 47.404C60.2442 47.036 59.9722 46.756 59.6282 46.564C59.2922 46.364 58.9202 46.264 58.5122 46.264C58.1042 46.264 57.7322 46.36 57.3962 46.552C57.0602 46.744 56.7922 47.024 56.5922 47.392C56.3922 47.76 56.2922 48.192 56.2922 48.688C56.2922 49.192 56.3922 49.632 56.5922 50.008C56.7922 50.376 57.0602 50.66 57.3962 50.86C57.7322 51.052 58.1042 51.148 58.5122 51.148C58.9202 51.148 59.2922 51.052 59.6282 50.86C59.9722 50.66 60.2442 50.376 60.4442 50.008C60.6442 49.632 60.7442 49.196 60.7442 48.7ZM67.1475 45.304C67.9475 45.304 68.5955 45.548 69.0915 46.036C69.5875 46.516 69.8355 47.212 69.8355 48.124V52H68.7555V48.28C68.7555 47.624 68.5915 47.124 68.2635 46.78C67.9355 46.428 67.4875 46.252 66.9195 46.252C66.3435 46.252 65.8835 46.432 65.5395 46.792C65.2035 47.152 65.0355 47.676 65.0355 48.364V52H63.9435V45.424H65.0355V46.36C65.2515 46.024 65.5435 45.764 65.9115 45.58C66.2875 45.396 66.6995 45.304 67.1475 45.304ZM74.9105 48.688C74.9105 48.016 75.0465 47.428 75.3185 46.924C75.5905 46.412 75.9625 46.016 76.4345 45.736C76.9145 45.456 77.4505 45.316 78.0425 45.316C78.5545 45.316 79.0305 45.436 79.4705 45.676C79.9105 45.908 80.2465 46.216 80.4785 46.6V43.12H81.5825V52H80.4785V50.764C80.2625 51.156 79.9425 51.48 79.5185 51.736C79.0945 51.984 78.5985 52.108 78.0305 52.108C77.4465 52.108 76.9145 51.964 76.4345 51.676C75.9625 51.388 75.5905 50.984 75.3185 50.464C75.0465 49.944 74.9105 49.352 74.9105 48.688ZM80.4785 48.7C80.4785 48.204 80.3785 47.772 80.1785 47.404C79.9785 47.036 79.7065 46.756 79.3625 46.564C79.0265 46.364 78.6545 46.264 78.2465 46.264C77.8385 46.264 77.4665 46.36 77.1305 46.552C76.7945 46.744 76.5265 47.024 76.3265 47.392C76.1265 47.76 76.0265 48.192 76.0265 48.688C76.0265 49.192 76.1265 49.632 76.3265 50.008C76.5265 50.376 76.7945 50.66 77.1305 50.86C77.4665 51.052 77.8385 51.148 78.2465 51.148C78.6545 51.148 79.0265 51.052 79.3625 50.86C79.7065 50.66 79.9785 50.376 80.1785 50.008C80.3785 49.632 80.4785 49.196 80.4785 48.7ZM83.2699 48.688C83.2699 48.016 83.4059 47.428 83.6779 46.924C83.9499 46.412 84.3219 46.016 84.7939 45.736C85.2739 45.456 85.8059 45.316 86.3899 45.316C86.9659 45.316 87.4659 45.44 87.8899 45.688C88.3139 45.936 88.6299 46.248 88.8379 46.624V45.424H89.9419V52H88.8379V50.776C88.6219 51.16 88.2979 51.48 87.8659 51.736C87.4419 51.984 86.9459 52.108 86.3779 52.108C85.7939 52.108 85.2659 51.964 84.7939 51.676C84.3219 51.388 83.9499 50.984 83.6779 50.464C83.4059 49.944 83.2699 49.352 83.2699 48.688ZM88.8379 48.7C88.8379 48.204 88.7379 47.772 88.5379 47.404C88.3379 47.036 88.0659 46.756 87.7219 46.564C87.3859 46.364 87.0139 46.264 86.6059 46.264C86.1979 46.264 85.8259 46.36 85.4899 46.552C85.1539 46.744 84.8859 47.024 84.6859 47.392C84.4859 47.76 84.3859 48.192 84.3859 48.688C84.3859 49.192 84.4859 49.632 84.6859 50.008C84.8859 50.376 85.1539 50.66 85.4899 50.86C85.8259 51.052 86.1979 51.148 86.6059 51.148C87.0139 51.148 87.3859 51.052 87.7219 50.86C88.0659 50.66 88.3379 50.376 88.5379 50.008C88.7379 49.632 88.8379 49.196 88.8379 48.7ZM95.2413 45.304C96.0413 45.304 96.6893 45.548 97.1853 46.036C97.6813 46.516 97.9293 47.212 97.9293 48.124V52H96.8493V48.28C96.8493 47.624 96.6853 47.124 96.3573 46.78C96.0293 46.428 95.5813 46.252 95.0133 46.252C94.4373 46.252 93.9773 46.432 93.6333 46.792C93.2973 47.152 93.1293 47.676 93.1293 48.364V52H92.0373V45.424H93.1293V46.36C93.3453 46.024 93.6373 45.764 94.0053 45.58C94.3813 45.396 94.7933 45.304 95.2413 45.304ZM109.004 46.084C109.004 46.78 108.764 47.36 108.284 47.824C107.812 48.28 107.088 48.508 106.112 48.508H104.504V52H103.412V43.636H106.112C107.056 43.636 107.772 43.864 108.26 44.32C108.756 44.776 109.004 45.364 109.004 46.084ZM106.112 47.608C106.72 47.608 107.168 47.476 107.456 47.212C107.744 46.948 107.888 46.572 107.888 46.084C107.888 45.052 107.296 44.536 106.112 44.536H104.504V47.608H106.112ZM116.612 48.46C116.612 48.668 116.6 48.888 116.576 49.12H111.32C111.36 49.768 111.58 50.276 111.98 50.644C112.388 51.004 112.88 51.184 113.456 51.184C113.928 51.184 114.32 51.076 114.632 50.86C114.952 50.636 115.176 50.34 115.304 49.972H116.48C116.304 50.604 115.952 51.12 115.424 51.52C114.896 51.912 114.24 52.108 113.456 52.108C112.832 52.108 112.272 51.968 111.776 51.688C111.288 51.408 110.904 51.012 110.624 50.5C110.344 49.98 110.204 49.38 110.204 48.7C110.204 48.02 110.34 47.424 110.612 46.912C110.884 46.4 111.264 46.008 111.752 45.736C112.248 45.456 112.816 45.316 113.456 45.316C114.08 45.316 114.632 45.452 115.112 45.724C115.592 45.996 115.96 46.372 116.216 46.852C116.48 47.324 116.612 47.86 116.612 48.46ZM115.484 48.232C115.484 47.816 115.392 47.46 115.208 47.164C115.024 46.86 114.772 46.632 114.452 46.48C114.14 46.32 113.792 46.24 113.408 46.24C112.856 46.24 112.384 46.416 111.992 46.768C111.608 47.12 111.388 47.608 111.332 48.232H115.484ZM121.507 45.304C122.307 45.304 122.955 45.548 123.451 46.036C123.947 46.516 124.195 47.212 124.195 48.124V52H123.115V48.28C123.115 47.624 122.951 47.124 122.623 46.78C122.295 46.428 121.847 46.252 121.279 46.252C120.703 46.252 120.243 46.432 119.899 46.792C119.563 47.152 119.395 47.676 119.395 48.364V52H118.303V45.424H119.395V46.36C119.611 46.024 119.903 45.764 120.271 45.58C120.647 45.396 121.059 45.304 121.507 45.304ZM128.941 45.316C129.509 45.316 130.005 45.44 130.429 45.688C130.861 45.936 131.181 46.248 131.389 46.624V45.424H132.493V52.144C132.493 52.744 132.365 53.276 132.109 53.74C131.853 54.212 131.485 54.58 131.005 54.844C130.533 55.108 129.981 55.24 129.349 55.24C128.485 55.24 127.765 55.036 127.189 54.628C126.613 54.22 126.273 53.664 126.169 52.96H127.249C127.369 53.36 127.617 53.68 127.993 53.92C128.369 54.168 128.821 54.292 129.349 54.292C129.949 54.292 130.437 54.104 130.813 53.728C131.197 53.352 131.389 52.824 131.389 52.144V50.764C131.173 51.148 130.853 51.468 130.429 51.724C130.005 51.98 129.509 52.108 128.941 52.108C128.357 52.108 127.825 51.964 127.345 51.676C126.873 51.388 126.501 50.984 126.229 50.464C125.957 49.944 125.821 49.352 125.821 48.688C125.821 48.016 125.957 47.428 126.229 46.924C126.501 46.412 126.873 46.016 127.345 45.736C127.825 45.456 128.357 45.316 128.941 45.316ZM131.389 48.7C131.389 48.204 131.289 47.772 131.089 47.404C130.889 47.036 130.617 46.756 130.273 46.564C129.937 46.364 129.565 46.264 129.157 46.264C128.749 46.264 128.377 46.36 128.041 46.552C127.705 46.744 127.437 47.024 127.237 47.392C127.037 47.76 126.937 48.192 126.937 48.688C126.937 49.192 127.037 49.632 127.237 50.008C127.437 50.376 127.705 50.66 128.041 50.86C128.377 51.052 128.749 51.148 129.157 51.148C129.565 51.148 129.937 51.052 130.273 50.86C130.617 50.66 130.889 50.376 131.089 50.008C131.289 49.632 131.389 49.196 131.389 48.7ZM140.42 45.424V52H139.328V51.028C139.12 51.364 138.828 51.628 138.452 51.82C138.084 52.004 137.676 52.096 137.228 52.096C136.716 52.096 136.256 51.992 135.848 51.784C135.44 51.568 135.116 51.248 134.876 50.824C134.644 50.4 134.528 49.884 134.528 49.276V45.424H135.608V49.132C135.608 49.78 135.772 50.28 136.1 50.632C136.428 50.976 136.876 51.148 137.444 51.148C138.028 51.148 138.488 50.968 138.824 50.608C139.16 50.248 139.328 49.724 139.328 49.036V45.424H140.42ZM146.186 52L143.606 49.096V52H142.514V43.12H143.606V48.34L146.138 45.424H147.662L144.566 48.7L147.674 52H146.186ZM154.772 45.424V52H153.68V51.028C153.472 51.364 153.18 51.628 152.804 51.82C152.436 52.004 152.028 52.096 151.58 52.096C151.068 52.096 150.608 51.992 150.2 51.784C149.792 51.568 149.468 51.248 149.228 50.824C148.996 50.4 148.88 49.884 148.88 49.276V45.424H149.96V49.132C149.96 49.78 150.124 50.28 150.452 50.632C150.78 50.976 151.228 51.148 151.796 51.148C152.38 51.148 152.84 50.968 153.176 50.608C153.512 50.248 153.68 49.724 153.68 49.036V45.424H154.772ZM157.957 46.492C158.149 46.116 158.421 45.824 158.773 45.616C159.133 45.408 159.569 45.304 160.081 45.304V46.432H159.793C158.569 46.432 157.957 47.096 157.957 48.424V52H156.865V45.424H157.957V46.492ZM161.184 48.688C161.184 48.016 161.32 47.428 161.592 46.924C161.864 46.412 162.236 46.016 162.708 45.736C163.188 45.456 163.72 45.316 164.304 45.316C164.88 45.316 165.38 45.44 165.804 45.688C166.228 45.936 166.544 46.248 166.752 46.624V45.424H167.856V52H166.752V50.776C166.536 51.16 166.212 51.48 165.78 51.736C165.356 51.984 164.86 52.108 164.292 52.108C163.708 52.108 163.18 51.964 162.708 51.676C162.236 51.388 161.864 50.984 161.592 50.464C161.32 49.944 161.184 49.352 161.184 48.688ZM166.752 48.7C166.752 48.204 166.652 47.772 166.452 47.404C166.252 47.036 165.98 46.756 165.636 46.564C165.3 46.364 164.928 46.264 164.52 46.264C164.112 46.264 163.74 46.36 163.404 46.552C163.068 46.744 162.8 47.024 162.6 47.392C162.4 47.76 162.3 48.192 162.3 48.688C162.3 49.192 162.4 49.632 162.6 50.008C162.8 50.376 163.068 50.66 163.404 50.86C163.74 51.052 164.112 51.148 164.52 51.148C164.928 51.148 165.3 51.052 165.636 50.86C165.98 50.66 166.252 50.376 166.452 50.008C166.652 49.632 166.752 49.196 166.752 48.7ZM173.155 45.304C173.955 45.304 174.603 45.548 175.099 46.036C175.595 46.516 175.843 47.212 175.843 48.124V52H174.763V48.28C174.763 47.624 174.599 47.124 174.271 46.78C173.943 46.428 173.495 46.252 172.927 46.252C172.351 46.252 171.891 46.432 171.547 46.792C171.211 47.152 171.043 47.676 171.043 48.364V52H169.951V45.424H171.043V46.36C171.259 46.024 171.551 45.764 171.919 45.58C172.295 45.396 172.707 45.304 173.155 45.304Z" fill="#4D545C"/>
<g clip-path="url(#clip0_1965_464204)">
<path d="M245.163 61.2114C244.683 60.1395 243.992 59.4278 243.435 58.9219C241.955 57.5774 239.868 56.866 237.666 57.025C236.972 57.0752 236.269 57.2122 235.574 57.4493L212.365 65.3775C211.299 65.627 210.106 66.1587 208.648 66.5371L206.295 67.2532L203.642 68.1347C198.713 69.7699 197.491 75.9658 201.444 79.2297L227.138 100.424C231.613 104.11 238.656 101.934 239.729 96.5395L242.683 81.3947L242.728 81.3915L243.33 77.6691L245.144 68.8292C245.144 68.8292 245.343 67.8952 245.489 66.6487L245.474 66.6498C245.562 65.6231 245.697 63.8314 245.567 62.6624L245.581 62.6613C245.511 62.106 245.37 61.5988 245.163 61.2114Z" fill="#D6EBFF"/>
<path d="M243.531 -12.1789C243.049 -12.5551 242.552 -12.7231 242.168 -12.8281C241.146 -13.1073 239.985 -12.9691 238.977 -12.4149C238.658 -12.2401 238.357 -12.0244 238.083 -11.7654L228.929 -3.11453C228.482 -2.76874 228.04 -2.26816 227.437 -1.77862L226.488 -0.940874L225.436 0.0368694C223.48 1.85233 224.367 4.90299 227.019 5.50182L244.25 9.38493C247.25 10.0591 250.082 7.53718 249.314 4.87899L247.132 -2.57061L247.153 -2.58177L246.557 -4.38562L245.326 -8.75364C245.326 -8.75364 245.199 -9.2167 244.974 -9.80847L244.967 -9.80475C244.765 -10.2851 244.405 -11.1195 244.067 -11.6158L244.073 -11.6196C243.908 -11.8535 243.721 -12.0503 243.531 -12.1789Z" fill="#D6EBFF"/>
<path d="M316.531 9.82108C316.049 9.44495 315.552 9.27686 315.168 9.17186C314.146 8.89268 312.985 9.0309 311.977 9.58511C311.658 9.75992 311.357 9.97559 311.083 10.2346L301.929 18.8855C301.482 19.2313 301.04 19.7318 300.437 20.2214L299.488 21.0591L298.436 22.0369C296.48 23.8523 297.367 26.903 300.019 27.5018L317.25 31.3849C320.25 32.0591 323.082 29.5372 322.314 26.879L320.132 19.4294L320.153 19.4182L319.557 17.6144L318.326 13.2464C318.326 13.2464 318.199 12.7833 317.974 12.1915L317.967 12.1953C317.765 11.7149 317.405 10.8805 317.067 10.3842L317.073 10.3804C316.908 10.1465 316.721 9.94974 316.531 9.82108Z" fill="#D6EBFF"/>
<path d="M290 65C301.034 65 310 73.9655 310 85C310 73.9655 318.966 65 330 65C318.966 65 310 56.0345 310 45C310 56.0345 301.034 65 290 65Z" fill="#D6EBFF"/>
<path d="M266 11.5C269.586 11.5 272.5 14.4138 272.5 18C272.5 14.4138 275.414 11.5 279 11.5C275.414 11.5 272.5 8.58621 272.5 5C272.5 8.58621 269.586 11.5 266 11.5Z" fill="#D6EBFF"/>
<path opacity="0.8" d="M211.01 19.0107L210 14.9746L217.895 12.9998L223.6 35.8086L218.883 36.9886L214.187 18.2159L211.01 19.0107Z" fill="#007BE0"/>
<path opacity="0.7" d="M245.618 31.6346C246.552 31.2751 247.303 30.9677 247.872 30.7126C248.443 30.4498 248.947 30.1475 249.384 29.8055C249.822 29.4636 250.112 29.0803 250.256 28.6558C250.388 28.2691 250.4 27.935 250.292 27.6533C250.185 27.3717 249.942 27.1666 249.563 27.0379C249.184 26.9092 248.848 26.9391 248.556 27.1274C248.266 27.3081 248.043 27.617 247.886 28.0542L246.339 27.5293C246.679 26.6298 247.182 26.0312 247.849 25.7335C248.524 25.4384 249.256 25.4247 250.045 25.6923C250.909 25.9857 251.494 26.442 251.799 27.0615C252.108 27.6733 252.134 28.3546 251.879 29.1051C251.679 29.6965 251.328 30.2073 250.827 30.6375C250.326 31.0677 249.802 31.4143 249.256 31.6772C248.713 31.9325 248.017 32.2287 247.167 32.5659L250.521 33.7045L250.074 35.0237L244.456 33.117L244.857 31.9342L245.618 31.6346Z" fill="#007BE0"/>
<path opacity="0.8" d="M260.688 51.2845C260.565 50.0936 260.842 49.1192 261.519 48.3614C262.206 47.59 263.188 47.1058 264.464 46.9088C265.335 46.7744 266.104 46.813 266.772 47.0245C267.438 47.2242 267.966 47.5601 268.356 48.0322C268.757 48.4906 269.007 49.0448 269.108 49.6948C269.222 50.4392 269.123 51.1018 268.81 51.6825C268.506 52.2496 268.1 52.6631 267.591 52.9232L267.602 52.9941C268.326 53.1001 268.921 53.3954 269.387 53.8801C269.865 54.3629 270.169 55.0297 270.3 55.8806C270.41 56.5896 270.34 57.2476 270.092 57.8545C269.856 58.4596 269.44 58.9714 268.845 59.3899C268.26 59.7947 267.521 60.0661 266.626 60.2042C265.278 60.4122 264.129 60.2448 263.178 59.7019C262.227 59.1591 261.627 58.2355 261.376 56.9311L263.81 56.5556C263.923 57.1309 264.192 57.5673 264.616 57.8648C265.051 58.1486 265.596 58.2398 266.252 58.1386C266.861 58.0447 267.3 57.8075 267.571 57.4269C267.852 57.0327 267.952 56.5696 267.87 56.0379C267.76 55.3289 267.455 54.8557 266.955 54.6184C266.454 54.3811 265.727 54.3361 264.772 54.4834L264.253 54.5634L263.939 52.525L264.458 52.4449C266.152 52.1835 266.912 51.4915 266.739 50.3689C266.66 49.8607 266.444 49.4888 266.09 49.2531C265.748 49.0155 265.291 48.9408 264.718 49.0292C264.158 49.1157 263.746 49.3365 263.483 49.6917C263.231 50.0331 263.116 50.4379 263.139 50.9062L260.688 51.2845Z" fill="#007BE0"/>
<path opacity="0.5" d="M288.968 44.0173L288.573 42.8738L290.29 36.8329L291.985 36.247L293.624 40.9876L294.539 40.6713L294.977 41.9396L294.062 42.2559L294.573 43.7321L293.117 44.2354L292.607 42.7592L288.968 44.0173ZM291.162 38.2773L290.131 42.1954L292.262 41.4585L291.162 38.2773Z" fill="#007BE0"/>
<path opacity="0.8" d="M322.073 16.7876L315.952 15.1332L315.097 18.2947C315.449 18.0458 315.896 17.8891 316.441 17.8246C316.989 17.7478 317.54 17.7843 318.094 17.9341C319.101 18.2065 319.868 18.6451 320.394 19.2501C320.919 19.8551 321.236 20.5357 321.342 21.2919C321.452 22.0358 321.403 22.7899 321.197 23.554C320.814 24.9715 320.09 25.9993 319.025 26.6374C317.974 27.2789 316.686 27.3937 315.162 26.9818C313.726 26.5937 312.675 25.9327 312.008 24.9986C311.342 24.0646 311.105 23.0153 311.298 21.8507L313.868 22.5451C313.848 23.0688 313.993 23.5313 314.303 23.9326C314.626 24.3374 315.097 24.6232 315.714 24.79C316.457 24.9908 317.079 24.9143 317.58 24.5604C318.081 24.2064 318.433 23.6535 318.636 22.9017C318.843 22.1375 318.804 21.5054 318.521 21.0055C318.253 20.4966 317.747 20.1418 317.004 19.9409C316.475 19.7979 315.999 19.8082 315.577 19.9717C315.154 20.1352 314.809 20.4123 314.541 20.8028L312.01 20.1186L314.149 12.2056L322.688 14.5136L322.073 16.7876Z" fill="#007BE0"/>
</g>
<defs>
<clipPath id="clip0_1965_464204">
<rect width="136" height="68" fill="white" transform="translate(192)"/>
</clipPath>
</defs>
</svg>
