<svg width="24" height="24" viewBox="0 0 24 24" fill="none" xmlns="http://www.w3.org/2000/svg">
<path d="M12.0001 14.4318C13.1576 14.4318 14.096 13.4934 14.096 12.3358C14.096 11.1783 13.1576 10.2399 12.0001 10.2399C10.8425 10.2399 9.9041 11.1783 9.9041 12.3358C9.9041 13.4934 10.8425 14.4318 12.0001 14.4318Z" fill="#495057"/>
<path fill-rule="evenodd" clip-rule="evenodd" d="M2 12.3359C3.33539 8.0841 7.30753 5 12 5C16.6925 5 20.6646 8.08407 22 12.3358C20.6646 16.5876 16.6925 19.6717 12 19.6717C7.30754 19.6717 3.33541 16.5876 2 12.3359ZM16.192 12.3358C16.192 14.651 14.3152 16.5277 12.0001 16.5277C9.68492 16.5277 7.80814 14.651 7.80814 12.3358C7.80814 10.0207 9.68492 8.14393 12.0001 8.14393C14.3152 8.14393 16.192 10.0207 16.192 12.3358Z" fill="#495057"/>
</svg>
