<svg width="20" height="20" viewBox="0 0 20 20" fill="none" xmlns="http://www.w3.org/2000/svg">
<path fill-rule="evenodd" clip-rule="evenodd" d="M5.44584 1.66699H4.91775C4.49758 1.66699 4.09462 1.83161 3.79751 2.12463C3.50041 2.41764 3.3335 2.81506 3.3335 3.22945V15.7291C3.3335 16.1435 3.50041 16.5409 3.79751 16.834C4.09462 17.127 4.49758 17.2916 4.91775 17.2916H8.61752C8.62491 17.1728 8.64392 17.052 8.67455 16.9301L9.07062 15.3698C9.21846 14.7843 9.52516 14.2495 9.9578 13.8229L15.0591 8.79181C15.3312 8.52278 15.6532 8.30778 16.0075 8.15849V3.22945C16.0075 2.81506 15.8406 2.41764 15.5435 2.12463C15.2464 1.83161 14.8435 1.66699 14.4233 1.66699H13.8952H10.1986H5.44584ZM11.2548 4.16699H5.97392C5.83387 4.16699 5.69955 4.22186 5.60051 4.31954C5.50148 4.41721 5.44584 4.54968 5.44584 4.68781C5.44584 4.82594 5.50148 4.95841 5.60051 5.05609C5.69955 5.15376 5.83387 5.20863 5.97392 5.20863H11.2548C11.3948 5.20863 11.5292 5.15376 11.6282 5.05609C11.7272 4.95841 11.7829 4.82594 11.7829 4.68781C11.7829 4.54968 11.7272 4.41721 11.6282 4.31954C11.5292 4.22186 11.3948 4.16699 11.2548 4.16699ZM11.6282 8.18101C11.7272 8.08333 11.7829 7.95086 11.7829 7.81273C11.7829 7.6746 11.7272 7.54213 11.6282 7.44446C11.5292 7.34678 11.3948 7.29191 11.2548 7.29191H5.97392C5.83387 7.29191 5.69955 7.34678 5.60051 7.44446C5.50148 7.54213 5.44584 7.6746 5.44584 7.81273C5.44584 7.95086 5.50148 8.08333 5.60051 8.18101C5.69955 8.27868 5.83387 8.33355 5.97392 8.33355H11.2548C11.3948 8.33355 11.5292 8.27868 11.6282 8.18101ZM8.08627 10.4168H5.97392C5.83387 10.4168 5.69955 10.4717 5.60051 10.5694C5.50148 10.667 5.44584 10.7995 5.44584 10.9377C5.44584 11.0758 5.50148 11.2083 5.60051 11.3059C5.69955 11.4036 5.83387 11.4585 5.97392 11.4585H8.08627C8.22632 11.4585 8.36064 11.4036 8.45968 11.3059C8.55871 11.2083 8.61435 11.0758 8.61435 10.9377C8.61435 10.7995 8.55871 10.667 8.45968 10.5694C8.36064 10.4717 8.22632 10.4168 8.08627 10.4168Z" fill="#0055B8"/>
<path fill-rule="evenodd" clip-rule="evenodd" d="M10.7056 14.5604L15.8069 9.52929H15.8058C16.1771 9.1686 16.6779 8.96726 17.1991 8.96915C17.7202 8.97105 18.2195 9.17602 18.5881 9.5394C18.9567 9.90277 19.1647 10.3951 19.1668 10.9091C19.1689 11.4231 18.965 11.9171 18.5994 12.2834L13.4981 17.3145C13.201 17.6079 12.8286 17.816 12.4208 17.9166L10.8386 18.3061C10.6813 18.3448 10.5165 18.3427 10.3603 18.3C10.2041 18.2573 10.0617 18.1754 9.94698 18.0624C9.83228 17.9494 9.74917 17.8091 9.70573 17.655C9.66228 17.501 9.65998 17.3384 9.69904 17.1833L10.0951 15.6229C10.1973 15.2207 10.4083 14.8535 10.7056 14.5604Z" fill="#0055B8"/>
</svg>
