<svg width="24" height="24" viewBox="0 0 24 24" fill="none" xmlns="http://www.w3.org/2000/svg">
<path fill-rule="evenodd" clip-rule="evenodd" d="M15.1427 9.75958C15.9762 8.90714 16.4444 7.75098 16.4444 6.54545C16.4444 5.33993 15.9762 4.18377 15.1427 3.33133C14.3092 2.47889 13.1787 2 12 2C10.8213 2 9.6908 2.47889 8.85731 3.33133C8.02381 4.18377 7.55556 5.33993 7.55556 6.54545C7.55556 7.75098 8.02381 8.90714 8.85731 9.75958C9.6908 10.612 10.8213 11.0909 12 11.0909C13.1787 11.0909 14.3092 10.612 15.1427 9.75958ZM12 22C17.7138 22 20 19.1473 20 16.3182V16.1309C20 14.3509 18.5902 12.9091 16.848 12.9091H7.152C5.41155 12.9091 4 14.3491 4 16.1309V16.3182C4 19.1582 6.28622 22 12 22Z" fill="#A5B0BB"/>
</svg>
