<svg width="120" height="120" viewBox="0 0 120 120" fill="none" xmlns="http://www.w3.org/2000/svg">
<mask id="mask0_19060_266353" style="mask-type:alpha" maskUnits="userSpaceOnUse" x="0" y="0" width="120" height="120">
<rect width="120" height="120" fill="#D9D9D9"/>
</mask>
<g mask="url(#mask0_19060_266353)">
<path d="M92.2657 77.5964C94.7763 74.053 100.036 65.2677 100.945 52.918C101.031 51.7123 99.6353 50.989 98.683 51.7333L97.9363 52.3204C90.3827 58.2436 87.3309 68.2031 90.2853 77.3029C90.5666 78.1626 91.7354 78.3513 92.2657 77.5964Z" fill="#F5851F"/>
<path d="M90.2866 77.2903C90.5679 78.1604 91.7367 78.3387 92.2669 77.5943C94.4746 74.4807 98.8141 67.2994 100.437 57.2246C97.8726 65.9051 91.9315 73.2751 89.832 75.6968C89.9619 76.2314 90.1134 76.7661 90.2866 77.2903Z" fill="#F89E1C"/>
<path d="M89.7539 65.393L89.8621 64.46C96.1821 56.0835 100.154 58.8722 100.327 58.9875L99.9264 59.6165L100.132 59.302L99.9481 59.3754C99.9048 59.3544 95.9981 56.9432 89.7539 65.393Z" fill="#F89E1C"/>
<path d="M100.651 55.8415C100.651 55.8415 97.394 52.9899 92.957 57.9173C92.957 57.9173 97.1992 51.3545 99.9046 51.4803C99.9046 51.4803 101.734 51.669 100.651 55.8415Z" fill="#032663"/>
<path d="M91.3568 78.2563C91.2918 78.2563 91.2269 78.2563 91.162 78.2458C90.6642 78.1724 90.2638 77.8265 90.1123 77.3547C87.1471 68.2339 90.2421 58.1172 97.8282 52.173L98.5749 51.5859C99.0727 51.198 99.7437 51.1351 100.306 51.4287C100.869 51.7222 101.194 52.2988 101.14 52.9278C100.22 65.4663 94.744 74.4298 92.4281 77.7007C92.1792 78.0466 91.7788 78.2563 91.3568 78.2563ZM99.5489 51.6174C99.2783 51.6174 99.0186 51.7013 98.8022 51.8795L98.0555 52.4666C90.5992 58.3059 87.5475 68.2654 90.4694 77.2394C90.5776 77.5853 90.859 77.816 91.2269 77.8684C91.584 77.9208 91.9195 77.7741 92.1251 77.491C94.4193 74.2411 99.8627 65.3509 100.772 52.9069C100.804 52.4246 100.566 51.9948 100.133 51.7642C99.9385 51.6593 99.7437 51.6174 99.5489 51.6174Z" fill="#10319B"/>
<path d="M93.0001 57.9913L92.7188 57.7397C97.1341 52.9801 100.727 55.6744 100.759 55.7059L100.532 55.9994C100.402 55.8841 97.1773 53.4833 93.0001 57.9913Z" fill="#10319B"/>
<path d="M90.0774 64.4495L89.7852 64.2188C96.0726 56.2093 100.033 58.631 100.196 58.7464L99.9901 59.0609C99.9577 59.0399 96.1376 56.744 90.0774 64.4495Z" fill="#10319B"/>
<path d="M31.1956 85.4048C25.9794 76.3889 31.3362 64.9617 41.6603 63.19L45.6535 62.5086C45.686 62.5086 45.7076 62.4981 45.7401 62.4876L55.707 60.7788L65.6198 58.7554C65.6522 58.7449 65.6739 58.7449 65.7063 58.7449L69.6779 57.9377C79.937 55.841 89.1248 64.5319 87.5881 74.8268C87.0903 78.1921 86.4626 81.3372 85.7483 84.304C85.3804 86.0338 84.861 87.9419 84.2441 89.9442C81.6036 98.8868 78.357 105.869 75.9221 111.53C75.8247 111.75 75.7273 111.96 75.6191 112.17C73.9959 115.807 70.5329 118.061 66.7452 118.711C62.9792 119.477 58.9319 118.638 56.0749 115.839C55.9018 115.682 55.7286 115.524 55.5555 115.346C51.2051 110.953 45.6102 105.628 39.8638 98.2578C38.5544 96.6223 37.364 95.0288 36.39 93.5506C34.6477 91.0555 32.9054 88.3507 31.1956 85.4048Z" fill="#F89E1C"/>
<path d="M52.2896 101.73C48.4587 96.8657 53.3069 92.1376 60.1571 94.5174C68.3168 97.3585 72.31 94.6432 75.6756 85.6378C78.4135 78.3202 84.5603 78.9178 86.768 79.4C86.4433 81.1193 86.0754 82.7757 85.6966 84.3902C85.3287 86.12 84.8092 88.028 84.1924 90.0304C81.5519 98.9729 78.3053 105.955 75.8704 111.616C75.773 111.836 75.6756 112.046 75.5674 112.256C73.9441 115.894 70.4811 118.148 66.6935 118.798C62.9275 119.563 58.8801 118.724 56.0232 115.925C55.85 115.768 55.6769 115.61 55.5037 115.432C54.0861 113.996 52.5277 112.465 50.8828 110.788C53.7181 109.782 55.9907 106.427 52.2896 101.73Z" fill="#032663"/>
<path d="M64.0946 119.247C60.9779 119.247 58.0452 118.125 55.9241 116.049C55.751 115.892 55.5778 115.735 55.4047 115.557C54.7878 114.928 54.1385 114.278 53.4675 113.607C52.6126 112.747 51.7144 111.856 50.7837 110.912L50.5781 110.703L50.8487 110.608C52.3529 110.074 53.4892 108.931 53.8788 107.568C54.3658 105.87 53.7706 103.888 52.1581 101.834C50.5565 99.7998 50.3292 97.5877 51.5413 95.8998C52.8615 94.0757 56.0648 92.8805 60.242 94.3273C68.0878 97.0635 72.0811 94.7676 75.5224 85.563C78.2712 78.2035 84.353 78.6647 86.8312 79.2099L87.0044 79.2518L86.9719 79.43C86.6472 81.1074 86.2901 82.7848 85.9005 84.4203C85.5542 86.0452 85.0456 87.9428 84.3963 90.0709C82.1345 97.7345 79.3858 104.056 77.1673 109.151C76.7886 110.021 76.4206 110.87 76.0743 111.688C75.9769 111.908 75.8795 112.129 75.7713 112.338C74.2238 115.787 70.8582 118.272 66.7676 118.985C65.8694 119.163 64.982 119.247 64.0946 119.247ZM51.2599 110.86C52.1148 111.73 52.9373 112.558 53.7381 113.355C54.409 114.026 55.0584 114.676 55.686 115.305C55.8483 115.473 56.0215 115.63 56.1947 115.787C58.8244 118.366 62.7418 119.425 66.7026 118.618C70.6851 117.936 73.9424 115.525 75.4358 112.181C75.5441 111.961 75.6415 111.751 75.7389 111.541C76.0851 110.724 76.4531 109.885 76.8319 109.004C79.0395 103.93 81.7882 97.6087 84.05 89.9661C84.6993 87.8484 85.2079 85.9614 85.5542 84.3469C85.933 82.7743 86.2793 81.1598 86.5931 79.5454C84.1041 79.0421 78.4768 78.7905 75.8904 85.6993C72.3949 95.0402 68.1203 97.4724 60.1338 94.6837C56.1405 93.2999 53.1104 94.4007 51.8659 96.12C50.7513 97.6611 50.9785 99.7054 52.4719 101.603C54.6147 104.329 54.6255 106.404 54.2575 107.673C53.8463 109.067 52.7425 110.241 51.2599 110.86Z" fill="#10319B"/>
<path d="M64.1257 119.248C61.0091 119.248 58.0763 118.126 55.9661 116.05C55.7929 115.893 55.6198 115.736 55.4467 115.557C54.819 114.928 54.1697 114.268 53.4879 113.597C49.5596 109.666 44.6681 104.77 39.7442 98.4586C38.3482 96.7183 37.1794 95.1353 36.2596 93.741C34.4199 91.1096 32.6667 88.3629 31.0543 85.5742C28.5328 81.2026 28.3164 76.0866 30.4699 71.5471C32.6126 67.0182 36.6924 63.936 41.6488 63.0868L55.6955 60.6756L69.6449 57.8345C74.5796 56.8281 79.5035 58.2224 83.1721 61.6506C86.8516 65.0997 88.5289 69.9431 87.7822 74.9229C87.3061 78.0994 86.6892 81.2864 85.9425 84.4106C85.5962 86.0355 85.0876 87.9331 84.4383 90.0612C82.1765 97.7248 79.4278 104.046 77.2093 109.131C76.8306 110.001 76.4626 110.85 76.1163 111.668C76.0189 111.888 75.9215 112.108 75.8133 112.318C74.2658 115.767 70.9002 118.252 66.8096 118.965C65.8897 119.153 65.0023 119.248 64.1257 119.248ZM72.7832 57.887C71.7659 57.887 70.7379 57.9918 69.7206 58.2015L55.7605 61.053L41.7138 63.4643C36.8764 64.2925 32.894 67.3013 30.8054 71.7149C28.7059 76.1495 28.9116 81.1397 31.3789 85.4065C32.9806 88.1742 34.7229 90.9209 36.5626 93.5418C37.4824 94.9256 38.6404 96.5087 40.0256 98.2385C44.9387 104.539 49.8193 109.425 53.7476 113.345C54.4186 114.016 55.0787 114.677 55.7064 115.306C55.8687 115.474 56.0419 115.631 56.215 115.788C58.8447 118.367 62.773 119.426 66.723 118.619C70.7054 117.937 73.9628 115.526 75.4562 112.182C75.5644 111.962 75.6618 111.752 75.7592 111.542C76.1055 110.724 76.4734 109.875 76.863 109.005C79.0707 103.931 81.8194 97.6095 84.0704 89.9774C84.7197 87.8597 85.2283 85.9726 85.5746 84.3581C86.3213 81.2445 86.9381 78.0575 87.4143 74.9019C88.1394 70.0375 86.4944 65.3199 82.9124 61.9546C80.0987 59.2918 76.5275 57.887 72.7832 57.887Z" fill="#10319B"/>
<path d="M33.2617 70.3099C35.3936 67.6366 38.4129 65.6971 42.0598 65.0785L46.0748 64.3971C46.1072 64.3971 46.1289 64.3866 46.1613 64.3761L56.1823 62.6673L66.1384 60.623C66.1709 60.6125 66.1925 60.6125 66.225 60.6125L70.2182 59.7948C75.7482 58.6626 79.5142 62.0593 82.9988 66.0955C83.7888 67.0075 83.4533 68.4438 82.3711 68.8736C73.2375 72.5114 52.1025 78.6234 33.2617 70.3099Z" fill="#E26907"/>
<path d="M63.0236 90.7526C62.6664 90.7526 62.3093 90.7212 61.9414 90.6583C59.8095 90.2808 58.0996 88.8446 57.3529 86.8317L53.0999 75.1634C52.3857 73.2135 52.7428 71.0853 54.0523 69.4604C55.3617 67.8459 57.3746 67.0281 59.4415 67.3007C59.5065 67.3112 59.5714 67.3217 59.6363 67.3322L59.5714 67.6991L59.658 67.3322L59.7121 67.3427L72.0165 69.5128C74.1484 69.8902 75.8582 71.3264 76.6049 73.3393C77.3408 75.3626 76.9512 77.5537 75.5552 79.1996L67.5687 88.6244C66.4216 90.0083 64.7767 90.7526 63.0236 90.7526ZM58.6624 68.0031C57.104 68.0031 55.6431 68.695 54.6366 69.9321C53.4895 71.3474 53.1865 73.203 53.8034 74.9118L58.0563 86.5801C58.7056 88.3519 60.1991 89.5994 62.0712 89.9349C63.9434 90.2704 65.7831 89.5994 67.006 88.1631L74.9925 78.7384C76.2153 77.3021 76.5508 75.3836 75.9123 73.6119C75.263 71.8401 73.7696 70.5926 71.8974 70.2571L59.5389 68.0765L59.5714 67.7096L59.5065 68.0765C59.4524 68.066 59.3874 68.0555 59.3333 68.0555C59.1277 68.0136 58.8896 68.0031 58.6624 68.0031Z" fill="#F89E1C"/>
<path d="M62.96 90.8589C62.6029 90.8589 62.2458 90.8275 61.8886 90.7646C59.7784 90.3872 58.0794 88.9719 57.3435 86.9695L52.9823 75.0182C52.2789 73.0787 52.6252 70.9715 53.9238 69.3675C55.2224 67.7635 57.2244 66.9667 59.2697 67.2288C59.3347 67.2393 59.3996 67.2498 59.4645 67.2603L59.4321 67.449L59.4754 67.2708L59.5403 67.2812L72.1477 69.5038C74.258 69.8812 75.957 71.2965 76.6929 73.2989C77.4288 75.3012 77.0392 77.4713 75.654 79.1068L67.4727 88.7622C66.3364 90.1146 64.6915 90.8589 62.96 90.8589ZM58.5014 67.5538C56.8457 67.5538 55.2873 68.2877 54.2268 69.5981C53.0147 71.0973 52.6793 73.0787 53.3394 74.8924L57.7006 86.8437C58.3824 88.7203 59.9732 90.0517 61.9644 90.3977C63.9448 90.7436 65.9035 90.0412 67.2021 88.5106L75.3834 78.8552C76.6821 77.3246 77.0392 75.2907 76.3574 73.4142C75.6756 71.5376 74.0848 70.2062 72.0936 69.8602L59.4213 67.6272L59.4429 67.4385L59.4104 67.6272C59.3455 67.6167 59.2914 67.6062 59.2265 67.5958C58.9776 67.5643 58.7395 67.5538 58.5014 67.5538Z" fill="#10319B"/>
<path d="M63.5567 87.5979C63.2862 87.5979 63.0048 87.5769 62.7343 87.5245C61.1002 87.2414 59.7907 86.1407 59.228 84.5996L56.0356 75.8667C55.4945 74.378 55.765 72.7426 56.7606 71.5055C57.767 70.2684 59.3037 69.6499 60.8837 69.8596L61.1002 69.891L70.3204 71.516C71.9545 71.7991 73.2639 72.8998 73.8266 74.4409C74.3894 75.982 74.0864 77.6594 73.0258 78.9174L67.0413 85.9729C66.154 87.0213 64.8878 87.5979 63.5567 87.5979ZM60.2885 70.562C59.1522 70.562 58.0809 71.0652 57.345 71.9668C56.5117 72.9942 56.2845 74.3571 56.739 75.6046L59.9314 84.3375C60.4076 85.627 61.5006 86.5495 62.8641 86.7907C64.2277 87.0318 65.5696 86.5495 66.4678 85.4907L72.4523 78.4352C73.3396 77.3868 73.5994 75.982 73.1232 74.6925C72.647 73.403 71.554 72.4805 70.1905 72.2394L60.7972 70.5829C60.624 70.5725 60.4617 70.562 60.2885 70.562Z" fill="#F89E1C"/>
<path d="M60.9916 70.3528C60.9483 70.3424 60.905 70.3424 60.8509 70.3319C57.8533 69.944 55.4508 72.8479 56.5005 75.7205L59.6172 84.2646C60.6994 87.221 64.5952 87.9024 66.6297 85.5017L72.4735 78.6035C74.508 76.2027 73.1661 72.5125 70.0494 71.9568L61.0457 70.3633C61.024 70.3633 61.0024 70.3528 60.9916 70.3528Z" fill="#032663"/>
<path d="M62.569 73.6114C62.5474 73.6114 62.5149 73.6009 62.4933 73.6009C60.8051 73.3808 59.4524 75.0267 60.0367 76.6412L61.7899 81.4532C62.3959 83.1201 64.5927 83.508 65.7398 82.1556L69.0405 78.2662C70.1876 76.9138 69.4301 74.8275 67.6769 74.5235L62.6015 73.6219C62.5907 73.6114 62.5799 73.6114 62.569 73.6114Z" fill="#F2D822"/>
<path d="M32.3868 73.999C33.891 75.1627 41.7585 77.3538 41.7585 77.3538C41.7585 77.3538 39.6374 79.6497 40.3408 83.5496C40.8603 86.4641 44.1176 88.5398 44.1176 88.5398C42.1156 91.5277 43.8904 95.805 46.3794 98.8348C48.8684 101.865 47.4183 103.154 47.4183 103.154C47.4183 103.154 33.6097 89.2108 30.9583 80.415C29.887 76.8401 32.3868 73.999 32.3868 73.999Z" fill="#F4B821"/>
<path d="M84.2455 81.7686C84.2455 81.7686 81.356 81.8315 80.2198 83.9911C79.0835 86.1507 73.3479 104.487 70.3286 111.217C69.7875 112.423 68.5647 116.48 66.2812 116.144C66.2812 116.144 69.5711 117.266 73.1206 112.056C76.6702 106.856 82.6763 87.5241 84.2455 81.7686Z" fill="#0E51A0"/>
<path d="M26.2185 86.8636C28.5343 83.1943 34.6486 74.9647 45.7518 69.3349C46.834 68.7898 48.0569 69.7857 47.7322 70.9494L47.4833 71.8615C44.9185 81.0766 36.8563 87.7337 27.2682 88.5619C26.3483 88.6353 25.7206 87.6394 26.2185 86.8636Z" fill="#F89E1C"/>
<path d="M27.7887 86.885C27.8104 86.885 27.8212 86.885 27.8428 86.8745C31.3599 86.4028 34.2169 83.7294 34.9528 80.2803C35.1909 79.1376 35.2666 77.932 35.0177 76.7578C30.6349 80.1755 28.1459 83.9391 27.0637 85.8262C26.7715 86.3399 27.1935 86.9584 27.7887 86.885Z" fill="#F4B821"/>
<path d="M33.9688 86.8632C40.4186 84.1899 45.4832 78.7174 47.4744 71.8507L47.7341 70.9491C47.7666 70.8442 47.7774 70.7289 47.7882 70.6346L46.5545 69.2298C46.3056 69.2088 46.0459 69.2507 45.7862 69.3765C44.6715 69.9426 43.611 70.5402 42.5937 71.1587C44.2495 77.3126 37.5075 83.9068 33.9688 86.8632Z" fill="#F5851F"/>
<path d="M40.9784 72.8681C41.9415 74.0842 43.2293 77.2817 39.2144 84.096L38.0781 84.6726C43.8245 75.5099 39.9719 72.91 39.9395 72.889L40.3399 72.2705C40.3832 72.2915 40.6645 72.4697 40.9784 72.8681Z" fill="#F89E1C"/>
<path d="M43.1445 70.7405C43.1445 70.7405 47.0512 72.6066 44.2051 78.5823C44.2051 78.5823 48.5013 72.1138 47.3434 69.6921C47.3542 69.6921 46.5967 68.1301 43.1445 70.7405Z" fill="#032663"/>
<path d="M27.1714 88.7506C26.7169 88.7506 26.2948 88.5199 26.0567 88.132C25.797 87.7127 25.797 87.1885 26.0676 86.7691C28.1995 83.3829 34.3895 74.8912 45.6767 69.1776C46.2394 68.8945 46.8996 68.9574 47.3974 69.3663C47.8952 69.7647 48.1008 70.3937 47.9276 71.0122L47.6787 71.9243C45.114 81.1604 36.9218 87.9328 27.3013 88.761C27.2471 88.7505 27.2038 88.7506 27.1714 88.7506ZM26.3706 86.9578C26.1758 87.2619 26.1758 87.6288 26.3706 87.9328C26.5654 88.2368 26.89 88.4046 27.2471 88.3731C36.7054 87.5554 44.7677 80.8983 47.3 71.809L47.5489 70.8969C47.6787 70.4252 47.5272 69.9534 47.1485 69.6389C46.7697 69.3349 46.2719 69.2824 45.839 69.5026C34.6384 75.1742 28.4916 83.6031 26.3706 86.9578Z" fill="#10319B"/>
<path d="M44.4762 78.7295L44.13 78.5723C46.6947 72.995 43.0911 70.9192 43.0586 70.8982L43.2426 70.5732C43.275 70.6047 47.1817 72.8377 44.4762 78.7295Z" fill="#10319B"/>
<path d="M39.5942 83.9383L39.2695 83.7601C44.0744 75.2264 40.4599 72.616 40.4275 72.595L40.6331 72.291C40.7954 72.3959 44.583 75.0797 39.5942 83.9383Z" fill="#10319B"/>
<path d="M23.1887 15.7472C25.0801 13.9832 27.4102 12.383 30.0307 10.9562L29.8585 11.0226C29.8585 11.0226 38.0636 4.89227 51.3095 3.0733C64.5135 1.26008 74.152 4.79069 74.2087 4.81491C77.202 5.48137 79.9324 6.40799 82.286 7.62105C93.6203 13.4792 94.919 29.229 92.4082 44.5845C90.6032 55.7569 75.6608 62.7804 60.0259 64.6821C44.457 67.0654 28.1746 64.3298 23.4037 54.0604C16.848 39.9606 13.8531 24.4438 23.1887 15.7472Z" fill="#F89E1C"/>
<path d="M23.1961 15.799C24.1892 14.8732 25.306 13.9944 26.5139 13.1564C17.3992 21.908 20.3931 37.3397 26.9088 51.3809C31.6825 61.6713 47.9545 64.4083 63.5352 62.034C72.4229 60.9522 81.082 58.2055 87.2453 53.9879C81.1854 59.8129 70.784 63.5457 60.0386 64.8506C44.4698 67.2339 28.1859 64.4878 23.4122 54.1975C16.8627 40.0649 13.8634 24.5166 23.1961 15.799Z" fill="#F5851F"/>
<path d="M29.8234 28.2466C23.3072 27.7972 21.5022 17.7606 21.4208 17.3237L22.1719 17.1992C22.1848 17.2934 23.9553 27.0787 29.8679 27.483L29.8234 28.2466Z" fill="#F89E1C"/>
<path d="M77.9692 22.0288L77.6606 21.3351C83.7125 18.637 82.6727 8.34598 82.6584 8.24127L83.4152 8.15868C83.4651 8.59991 84.5246 19.1123 77.9692 22.0288Z" fill="#F4B821"/>
<path d="M53.013 11.9819C49.4633 12.4693 46.0053 11.76 43.8097 10.0665C43.7382 10.0123 43.6668 9.95807 43.5939 9.8934L39.6035 6.47267L40.3482 5.60228L44.3371 9.01254C44.3862 9.05914 44.4457 9.10431 44.5052 9.14947C46.6413 10.7978 50.1568 11.3819 53.7015 10.7031C57.1416 10.0387 59.9761 8.3052 61.2825 6.08809L63.3223 2.60742L64.3087 3.18676L62.2689 6.66743C60.8099 9.1722 57.6814 11.0954 53.9196 11.8254C53.6084 11.8894 53.3166 11.9402 53.013 11.9819Z" fill="#F4B821"/>
<path d="M53.5562 16.0788C48.8547 16.7244 44.3759 15.7285 41.2843 13.3366C41.1771 13.2553 41.058 13.1649 40.9494 13.0732L40.8288 12.9724L35.3535 8.29396L36.0982 7.42357L41.6835 12.2042C41.7802 12.2869 41.8769 12.3697 41.9827 12.4405C44.8332 14.6309 49.0031 15.5518 53.401 14.9479C53.757 14.899 54.122 14.8382 54.4856 14.7669C59.1407 13.861 62.919 11.4645 64.8367 8.18193L67.7486 3.20526L68.7349 3.7846L65.8231 8.76127C63.741 12.3224 59.6806 14.9177 54.7038 15.8892C54.3297 15.9619 53.9437 16.0256 53.5562 16.0788Z" fill="#F4B821"/>
<path d="M82.0787 10.4655C79.7236 9.24194 76.9904 8.29438 73.997 7.62792C73.9299 7.60513 64.1712 3.3549 50.9672 5.16811C42.2748 6.35112 34.8831 8.84909 30.8103 10.4219C33.3079 8.79869 40.6808 4.53232 51.3194 3.07139C64.5234 1.25817 74.1676 4.83066 74.2243 4.85489C77.2191 5.53182 79.9509 6.46891 82.306 7.69245C92.4192 12.9715 94.5628 26.1728 93.1353 39.9393C94.0116 27.2087 91.5137 15.3896 82.0787 10.4655Z" fill="#F4B821"/>
<path d="M78.5194 21.4307L78.3958 21.0742C84.1333 19.0381 83.3283 8.43745 83.3244 8.33131L83.7043 8.30048C83.7332 8.74458 84.531 19.2929 78.5194 21.4307Z" fill="#10319B"/>
<path d="M65.3182 8.43502L68.2301 3.45834C66.9399 3.23012 65.4493 3.01874 63.7954 2.86178L61.7556 6.34246C60.3736 8.70862 57.3907 10.5265 53.7964 11.2334C50.0975 11.9548 46.4044 11.3204 44.1478 9.57122C44.0764 9.51702 44.0168 9.47186 43.9558 9.41622L39.9669 6.00596C38.3733 6.5982 36.9544 7.21979 35.7225 7.80503L41.1978 12.4834L41.3183 12.5842C41.4255 12.6655 41.5237 12.7587 41.6309 12.84C44.602 15.1312 48.957 16.0801 53.47 15.4603C53.8365 15.41 54.212 15.3478 54.5861 15.2751C59.3997 14.358 63.3131 11.8576 65.3182 8.43502Z" fill="#032663"/>
<path d="M30.426 28.0359C24.0607 27.5978 21.958 17.3353 21.8662 16.8998L22.2402 16.8271C22.2651 16.9304 24.375 27.2452 30.4489 27.6593L30.426 28.0359Z" fill="#10319B"/>
<path d="M59.924 64.5571C52.2226 65.732 44.3692 65.7223 37.6598 64.2539C35.9543 62.8665 34.4893 60.9766 33.4703 58.6841C30.8595 52.8015 27.6938 44.5094 25.608 34.9914C24.5811 30.3103 26.6616 25.6504 30.3675 24.2027C35.42 22.2287 43.2829 19.666 52.8333 18.2051L52.8319 18.1947C53.1041 18.1573 53.3674 18.1318 53.6396 18.0944C53.9119 18.057 54.1722 18.0106 54.4444 17.9732L54.4459 17.9837C64.0366 16.816 72.0776 16.9493 77.4753 17.4884C81.4342 17.8835 84.9154 22.025 85.1884 26.8097C85.7455 36.5375 84.9322 45.3761 84.0038 51.7447C83.6438 54.1732 82.7785 56.3404 81.5521 58.1304C75.4222 61.426 67.7512 63.5996 59.924 64.5571Z" fill="#032663"/>
<path d="M85.7787 55.1167L84.374 56.1525C84.5416 55.2759 84.8187 53.7976 84.9963 52.7597C85.4745 50.0269 86.019 46.9223 86.5939 44.8163C87.5242 41.4133 91.0021 38.4606 93.3379 36.9023L93.1343 38.6053C90.956 40.0673 88.5297 42.0541 87.6924 45.1242C87.1326 47.1855 86.5943 50.2572 86.1132 52.9691C85.9447 53.9951 85.9464 54.2402 85.7787 55.1167Z" fill="#F4B821"/>
<path d="M33.1419 62.5905C33.0582 62.602 32.9777 62.5597 32.9467 62.4893C32.5933 61.7803 32.2193 60.9995 31.8335 60.2097C30.6702 57.7983 29.3443 55.0572 28.1948 53.1347C26.5209 50.3454 23.5726 49.0753 20.9018 48.1938C20.8018 48.1649 20.7441 48.0555 20.7835 47.954C20.8125 47.854 20.9219 47.7963 21.0233 47.8358C23.7599 48.7295 26.7886 50.0419 28.5307 52.9392C29.6935 54.8812 31.0195 57.6224 32.1842 60.0442C32.57 60.834 32.9425 61.6044 33.2869 62.3252C33.3312 62.4151 33.2947 62.5375 33.2048 62.5818C33.1838 62.5847 33.1629 62.5876 33.1419 62.5905Z" fill="#F89E1C"/>
<path d="M93.2547 38.5361C93.0719 40.5455 92.8172 42.5755 92.4864 44.5946C91.8105 48.7628 89.3472 52.3443 85.7122 55.3186C86.3171 52.1097 86.7055 48.5677 87.4849 45.6975C88.418 42.3155 91.1919 39.9075 93.2547 38.5361Z" fill="#032663"/>
<path d="M91.3976 44.9899C91.6612 43.8015 91.8933 42.6174 92.1031 41.4257C91.0338 42.3407 89.9792 43.5951 89.4547 45.214C88.8908 46.9344 88.4729 49.0188 88.0212 51.0119C89.688 49.3214 90.8738 47.3129 91.3976 44.9899Z" fill="#0E51A0"/>
<path d="M85.95 55.265L85.5782 55.1987C85.7889 54.0922 85.9702 52.9258 86.1467 51.8027C86.4826 49.6655 86.8414 47.4612 87.3494 45.5672C88.2706 42.1761 91.0416 39.7472 93.19 38.3L93.4035 38.612C91.3032 40.0206 88.6178 42.3738 87.7136 45.6558C87.2027 47.529 86.853 49.7214 86.5156 51.8481C86.342 52.9921 86.1608 54.1585 85.95 55.265Z" fill="#10319B"/>
<path d="M20.9414 48.4668C21.6591 50.3526 22.4516 52.2388 23.3144 54.094C25.0888 57.9257 28.4265 60.7106 32.7286 62.5949C31.2811 59.6678 29.9523 56.3617 28.428 53.8078C26.6282 50.8011 23.2975 49.2314 20.9414 48.4668Z" fill="#032663"/>
<path d="M61.0755 64.7084C60.73 64.7559 60.3844 64.8033 60.0479 64.8389C46.3282 66.9363 28.4698 65.388 23.232 54.1265C18.5394 44.0383 12.2881 25.6294 23.0615 15.5938L23.1877 15.7364L23.0615 15.5938C24.9439 13.8417 29.6951 10.9168 29.9021 10.7924C29.9696 10.7404 38.1534 4.68773 51.2946 2.88314C64.4777 1.0728 74.1894 4.59334 74.2909 4.63275C77.3604 5.31009 80.0936 6.25766 82.3906 7.4465C95.4704 14.2065 94.4129 33.6191 92.6119 44.5883C90.6487 56.5506 74.6356 62.8463 61.0755 64.7084ZM59.9857 64.4634C60.3208 64.4173 60.6678 64.3804 61.0133 64.3329C74.4477 62.4881 90.3033 56.2887 92.2311 44.5339C94.0135 33.6633 95.076 14.442 82.2139 7.79082C79.9407 6.62005 77.2403 5.67865 74.1812 4.99987C74.0574 4.95286 64.4262 1.47461 51.3478 3.27057C38.3113 5.06079 30.1937 11.051 30.1171 11.1149C30.0586 11.1549 25.1889 14.1494 23.3245 15.8777C12.7195 25.7408 18.9359 43.9732 23.5722 53.9624C28.7198 65.0336 46.4125 66.5406 59.9857 64.4634Z" fill="#10319B"/>
<path d="M59.7784 62.8909C53.1736 63.8939 46.4527 63.974 40.5705 62.9361C39.6626 62.7727 38.8054 62.357 38.1602 61.6988C37.0586 60.5912 36.1258 59.2364 35.4108 57.681C33.0209 52.3975 30.1287 44.9319 28.238 36.3687C27.3072 32.1544 29.2373 27.9527 32.6525 26.6409C37.3139 24.8485 44.5686 22.5187 53.3771 21.1704L53.3756 21.16C53.6269 21.1255 53.8678 21.0924 54.1205 21.0683C54.3718 21.0338 54.6112 20.9903 54.8625 20.9558L54.864 20.9663C63.7098 19.8902 71.3135 20.1796 76.296 20.6476C79.9488 20.9888 82.9296 24.5162 83.1693 28.8253C83.6464 37.5827 82.8842 45.5501 82.0071 51.2822C81.7468 52.9609 81.2213 54.4946 80.4681 55.8463C80.0409 56.6198 79.377 57.223 78.5871 57.6089C73.1302 60.2892 66.5256 62.071 59.7784 62.8909Z" fill="#FCE8CA"/>
<path d="M58.7622 64.8018C51.1287 65.8501 43.8307 65.6894 37.5945 64.3267L37.5512 64.322L37.5155 64.2949C35.7371 62.8428 34.2739 60.8887 33.2726 58.6471C30.876 53.2365 27.5516 44.7208 25.3883 34.8721C24.3351 30.0772 26.4266 25.3412 30.2643 23.8434C35.4186 21.834 58.5685 14.8356 77.6773 17.3324C81.773 17.8689 85.0637 21.8658 85.3353 26.64C85.9069 36.7073 85.0115 45.8025 84.1516 51.6602C83.8069 54.044 82.9412 56.2859 81.6696 58.1355L81.6425 58.1712L81.6035 58.1979C75.7238 61.3737 68.0268 63.6683 59.9259 64.6527C59.537 64.6954 59.1496 64.7486 58.7622 64.8018ZM59.8817 64.2533C67.9198 63.2776 75.545 61.0036 81.387 57.8649C82.6121 56.0644 83.4459 53.9015 83.7798 51.5939C84.6321 45.7586 85.5304 36.6843 84.9525 26.6499C84.695 22.0551 81.5425 18.2099 77.6215 17.7028C58.5888 15.2169 35.5318 22.1918 30.3969 24.1879C26.742 25.6179 24.7427 30.1706 25.7595 34.7784C27.9185 44.5957 31.2191 53.0934 33.6128 58.483C34.5845 60.6647 35.9973 62.5617 37.7161 63.9686C44.1255 65.3502 51.9933 65.4646 59.8817 64.2533Z" fill="#10319B"/>
<path d="M32.539 62.4709C32.0525 61.4922 31.5812 60.4687 31.1248 59.4752C30.228 57.5286 29.2912 55.5236 28.2795 53.8275C26.5345 50.9092 23.3023 49.3581 20.9015 48.5782L21.023 48.2202C23.4805 49.0242 26.7932 50.6177 28.6064 53.6439C29.63 55.349 30.5696 57.375 31.4664 59.3216C31.9229 60.3151 32.3941 61.3386 32.8792 62.3068L32.539 62.4709Z" fill="#10319B"/>
<path d="M87.7019 39.2128L92.1617 35.7198C92.1617 35.7198 91.6315 21.6035 86.259 15.8868L85.5084 20.0546C85.5084 20.0546 88.0077 22.7945 87.7019 39.2128Z" fill="#F4B821"/>
<path fill-rule="evenodd" clip-rule="evenodd" d="M45.6054 45.4059C44.0761 45.9772 42.8328 47.2456 42.1482 48.4644C41.8461 49.0023 41.1587 49.1903 40.6129 48.8844C40.0671 48.5785 39.8695 47.8944 40.1716 47.3565C41.0523 45.7886 42.6614 44.1019 44.7878 43.3076C46.9896 42.4852 49.6262 42.669 52.3166 44.6795C52.6843 44.9543 52.851 45.4202 52.7387 45.8591C52.6263 46.298 52.2572 46.6232 51.804 46.6825C51.1291 46.7707 50.0413 46.9456 49.0508 47.3058C48.0007 47.6876 47.3732 48.1647 47.1732 48.658C46.9414 49.2298 46.2839 49.5015 45.7047 49.265C45.1255 49.0284 44.8439 48.373 45.0758 47.8012C45.6496 46.3859 47.0842 45.6252 48.2516 45.2007C48.2634 45.1964 48.2753 45.1921 48.2871 45.1879C47.2953 44.9878 46.3959 45.1107 45.6054 45.4059Z" fill="#0E51A0"/>
<path d="M71.9216 45.503L71.9316 46.1522L63.037 46.4616L63.0271 45.8124L71.9216 45.503Z" fill="#0052A3"/>
<path d="M71.9371 46.3928C71.9303 46.6133 71.9228 46.8234 71.8844 47.0356L63.1447 47.3349C63.1006 47.1281 63.0764 46.9096 63.0625 46.6904L71.9371 46.3928Z" fill="#0052A3"/>
<path d="M70.8324 40.001L63.8208 40.2507C63.9921 40.0091 64.1854 39.787 64.3903 39.5851L70.2231 39.3812C70.4524 39.5651 70.6521 39.772 70.8324 40.001Z" fill="#0052A3"/>
<path d="M68.7066 38.5476C69.1403 38.6866 69.5573 38.8896 69.926 39.1481L64.6827 39.3244C65.0378 39.0394 65.4375 38.8038 65.8624 38.6399L68.7066 38.5476Z" fill="#0052A3"/>
<path d="M71.4952 41.1039C71.5806 41.3079 71.6461 41.5237 71.7013 41.7401L63.0442 42.0341C63.0922 41.8109 63.1513 41.5974 63.2207 41.3833L71.4952 41.1039Z" fill="#0052A3"/>
<path d="M71.7564 41.9775C71.8005 42.1843 71.8247 42.4028 71.8386 42.622L62.9543 42.9307C62.9508 42.7108 62.9686 42.5 62.9966 42.2885L71.7564 41.9775Z" fill="#0052A3"/>
<path d="M71.0233 40.2323C71.1604 40.4329 71.2774 40.6452 71.3849 40.8687L63.3176 41.1453C63.4173 40.9187 63.517 40.6922 63.6489 40.4845L71.0233 40.2323Z" fill="#0052A3"/>
<path d="M71.8723 43.744L71.8919 44.3821L62.9973 44.6915L62.9777 44.0533L71.8723 43.744Z" fill="#0052A3"/>
<path d="M71.8559 42.8631L71.8652 43.5018L62.9706 43.8112L62.9607 43.162L71.8559 42.8631Z" fill="#0052A3"/>
<path d="M71.8957 44.6238L71.916 45.2723L63.0207 45.5713L63.0011 44.9332L71.8957 44.6238Z" fill="#0052A3"/>
<path d="M60.4361 51.2941C60.6373 51.2696 60.8047 51.4374 60.7823 51.6357C60.7029 52.2822 60.1972 52.813 59.5245 52.908C58.849 52.9944 58.2221 52.6063 57.9651 52.0073C57.8869 51.8213 58.0127 51.6194 58.2025 51.5889L60.4361 51.2941Z" fill="#032663"/>
<path d="M41.7792 38.1461C41.8311 38.1299 41.8861 38.0936 41.9269 38.0424C42.5325 37.3449 43.4072 36.9855 44.3343 37.0606C44.5381 37.0737 44.7093 36.9243 44.7231 36.7281C44.7341 36.5232 44.5838 36.3495 44.3886 36.3337C43.2376 36.2422 42.1436 36.6893 41.3837 37.5597C41.2526 37.7157 41.2673 37.9414 41.4238 38.0748C41.5117 38.1721 41.6522 38.1954 41.7792 38.1461Z" fill="#032663"/>
<path d="M70.6772 34.2672C70.6198 34.266 70.5655 34.2446 70.5057 34.2059C69.7339 33.6908 68.791 33.564 67.9205 33.8737C67.7331 33.9417 67.5218 33.845 67.4495 33.6475C67.38 33.4587 67.4744 33.2475 67.6704 33.1768C68.7542 32.791 69.9321 32.9402 70.8976 33.5862C71.0656 33.6964 71.1089 33.9221 71.0007 34.0898C70.9361 34.2151 70.8034 34.2757 70.6772 34.2672Z" fill="#032663"/>
</g>
</svg>
