<svg width="100" height="100" viewBox="0 0 100 100" fill="none" xmlns="http://www.w3.org/2000/svg">
<mask id="mask0_6253_19373" style="mask-type:alpha" maskUnits="userSpaceOnUse" x="0" y="0" width="100" height="100">
<rect width="100" height="100" fill="#D9D9D9"/>
</mask>
<g mask="url(#mask0_6253_19373)">
<path d="M74.654 65.3999C77.5924 56.9455 71.267 48.1392 62.3199 48.28L58.8537 48.3328C58.8273 48.3328 58.8097 48.3328 58.7833 48.3328L50.1442 48.4735L41.505 48.3328C41.4786 48.3328 41.461 48.3328 41.4346 48.3328L37.9684 48.28C29.0214 48.1392 22.6959 56.9455 25.6343 65.3999C26.5932 68.1624 27.6226 70.7312 28.6958 73.1154C29.2765 74.5142 30.0243 76.0537 30.86 77.6461C34.5022 84.7897 38.3467 90.1737 41.2939 94.5813C41.4083 94.7484 41.5314 94.9156 41.6546 95.074C43.6076 97.898 46.8627 99.244 50.153 99.2C53.4344 99.2528 56.6983 97.898 58.6514 95.074C58.7745 94.9156 58.8977 94.7484 59.0121 94.5813C61.9592 90.1737 65.8037 84.7897 69.4459 77.6461C70.2817 76.0537 71.0295 74.523 71.6101 73.1154C72.6658 70.7224 73.6951 68.1624 74.654 65.3999Z" fill="#F89E1C"/>
<path d="M59.5664 82.5456C62.0033 77.8302 57.1735 74.5927 51.807 77.6982C45.4112 81.3932 41.6283 79.7304 37.3615 72.6572C33.8952 66.9037 28.8279 68.3904 27.0508 69.147C27.605 70.5458 28.1681 71.9007 28.7487 73.1939C29.3293 74.5927 30.0771 76.1323 30.9129 77.7246C34.5551 84.8682 38.3996 90.2523 41.3467 94.6598C41.4611 94.827 41.5843 94.9941 41.7074 95.1525C43.6605 97.9765 46.9156 99.3225 50.2058 99.2785C53.4873 99.3313 56.7512 97.9765 58.7042 95.1525C58.8274 94.9941 58.9506 94.827 59.0649 94.6598C60.0239 93.217 61.0884 91.6775 62.1968 89.9971C59.6456 89.5837 57.2086 87.1028 59.5664 82.5456Z" fill="#032663"/>
<path d="M49.9851 99.4265C46.5101 99.4265 43.3606 97.8694 41.5395 95.2301C41.4164 95.0718 41.2932 94.9046 41.1788 94.7287C40.7566 94.0953 40.3079 93.4354 39.8504 92.758C37.176 88.8079 33.8593 83.8989 30.7362 77.7759C29.8476 76.0868 29.1174 74.556 28.5632 73.2364C27.9738 71.9255 27.4019 70.5619 26.8653 69.1895L26.8125 69.0487L26.9533 68.9872C28.9503 68.1338 33.9737 66.779 37.4575 72.5677C41.8211 79.8081 45.5424 81.1101 51.6919 77.5559C54.9645 75.6645 57.8413 76.1659 59.2401 77.5031C60.5246 78.7348 60.6917 80.6439 59.6712 82.6145C58.6419 84.6115 58.4571 86.3798 59.1434 87.7346C59.6976 88.8255 60.8325 89.6085 62.1785 89.8285L62.4248 89.8636L62.2841 90.066C61.6594 91.0073 61.0524 91.9047 60.463 92.7668C60.0055 93.4442 59.5656 94.0953 59.1434 94.7199C59.029 94.8958 58.9058 95.063 58.7827 95.2213C56.9352 97.8958 53.7241 99.4705 50.1611 99.409C50.0995 99.4265 50.0379 99.4265 49.9851 99.4265ZM50.1611 99.1098C53.6185 99.1626 56.7328 97.6495 58.5275 95.0542C58.6507 94.887 58.7739 94.7287 58.8794 94.5615C59.3017 93.9281 59.7416 93.2771 60.1991 92.5997C60.7445 91.7991 61.2987 90.9633 61.8794 90.1012C60.5334 89.8197 59.4161 89.0015 58.853 87.8842C58.3428 86.8725 58.0173 85.113 59.3897 82.4737L59.5304 82.5441L59.3897 82.4737C60.3398 80.6351 60.2079 78.8668 59.0202 77.7407C57.7006 76.4826 54.9733 76.0252 51.8502 77.8375C45.5864 81.462 41.6099 80.0808 37.1848 72.7437C33.9033 67.3068 29.223 68.4153 27.2172 69.2335C27.7362 70.5531 28.2905 71.8639 28.8535 73.1308C29.399 74.4504 30.1292 75.9636 31.0177 77.6527C34.132 83.7582 37.4487 88.6584 40.1143 92.5997C40.5718 93.2771 41.0205 93.9369 41.4428 94.5703C41.5571 94.7375 41.6715 94.8958 41.7947 95.063C43.5894 97.6495 46.7213 99.1714 50.1611 99.1098Z" fill="#10319B"/>
<path d="M18.7634 55.3192C17.5054 58.8206 15.1565 67.3102 17.2063 77.7617C17.4086 78.7822 18.7283 79.0725 19.3441 78.2368L19.8279 77.5857C24.7106 70.97 24.9657 62.0141 20.4702 55.1257C20.0391 54.4571 19.0362 54.5714 18.7634 55.3192Z" fill="#F5851F"/>
<path d="M50.3101 99.429C50.2485 99.429 50.1957 99.429 50.1341 99.429C46.5975 99.4818 43.36 97.9158 41.5126 95.2326C41.3894 95.0742 41.2662 94.907 41.1519 94.7311C40.7296 94.0977 40.2809 93.4379 39.8234 92.7605C37.149 88.8104 33.8323 83.9014 30.7092 77.7783C29.8207 76.0892 29.0905 74.5584 28.5362 73.2388C27.4101 70.7139 26.3808 68.1186 25.4747 65.5146C24.0495 61.4237 24.6917 57.0602 27.2254 53.5587C29.7503 50.0749 33.6564 48.1219 37.9672 48.1835L41.4246 48.2363H41.495L50.1341 48.377L58.7733 48.2363H58.8173L62.3099 48.1835C66.6207 48.1131 70.5268 50.0749 73.0516 53.5587C75.5853 57.0602 76.2275 61.4237 74.8023 65.5146C73.8962 68.1186 72.8669 70.7227 71.7408 73.2476C71.1954 74.5672 70.4652 76.098 69.5678 77.7871C66.4447 83.9014 63.1192 88.8192 60.4536 92.7693C59.9961 93.4467 59.5475 94.1065 59.1252 94.7399C59.0108 94.9158 58.8876 95.083 58.7645 95.2414C56.9434 97.8718 53.7939 99.429 50.3101 99.429ZM50.1341 99.1123C53.5915 99.165 56.7059 97.6519 58.5006 95.0566C58.6237 94.8895 58.7469 94.7311 58.8525 94.5639C59.2747 93.9305 59.7234 93.2707 60.1809 92.5933C62.8465 88.652 66.1632 83.743 69.2775 77.6463C70.1661 75.966 70.8875 74.444 71.4417 73.1332C72.5678 70.6171 73.5971 68.0219 74.4944 65.4266C75.8844 61.4325 75.2598 57.1745 72.7877 53.7611C70.3244 50.3653 66.4975 48.4562 62.3099 48.5178L58.8525 48.5706H58.8085L50.1429 48.7113L41.495 48.5706H41.4246L37.9584 48.5178C33.7707 48.4562 29.9438 50.3653 27.4805 53.7611C25.0084 57.1833 24.3838 61.4325 25.7738 65.4266C26.6712 68.0219 27.7005 70.6171 28.8265 73.1332C29.372 74.4528 30.1022 75.966 30.9907 77.6551C34.1051 83.7606 37.4217 88.6608 40.0874 92.6021C40.5448 93.2795 40.9935 93.9393 41.4158 94.5728C41.5302 94.7399 41.6445 94.8983 41.7677 95.0654C43.5712 97.6519 46.7031 99.1738 50.1341 99.1123Z" fill="#10319B"/>
<path d="M70.5002 52.9598C68.2744 51.0332 65.4416 49.8719 62.2745 49.9335L58.7995 49.9951C58.7731 49.9951 58.7555 49.9951 58.7291 49.9951L50.046 50.1446L41.3628 49.9951C41.3364 49.9951 41.3188 49.9951 41.2924 49.9951L37.8174 49.9335C32.9964 49.8543 30.3747 53.3205 28.105 57.2882C27.5947 58.1855 28.0962 59.3468 29.0727 59.5404C37.2984 61.1679 56.0107 62.989 70.5002 52.9598Z" fill="#E26907"/>
<path d="M47.8844 76.1677C47.0574 76.1677 46.2216 75.9654 45.4562 75.5519C43.8287 74.6721 42.8258 73.0446 42.7642 71.1971L42.4475 60.6049C42.3947 58.7574 43.3009 57.0683 44.8756 56.1006C46.4504 55.1241 48.3594 55.0713 49.987 55.951L59.3915 61.0096C60.9663 61.8542 61.9604 63.4201 62.0572 65.206C62.1539 66.9919 61.327 68.6546 59.8578 69.6575C59.8138 69.6927 59.761 69.7191 59.717 69.7543L59.6554 69.7895L50.5764 75.4023C49.7406 75.9038 48.8081 76.1677 47.8844 76.1677ZM47.5589 55.9598C46.7495 55.9598 45.9313 56.1886 45.2011 56.6372C43.8199 57.4906 43.0281 58.9686 43.0809 60.5873L43.3976 71.1795C43.4504 72.7983 44.3302 74.2235 45.7554 74.9888C47.1806 75.7542 48.8609 75.7102 50.2333 74.8569L59.3739 69.2089C59.4179 69.1825 59.4619 69.1561 59.4971 69.1297C60.7815 68.2499 61.5029 66.7984 61.4149 65.2324C61.3358 63.6752 60.4648 62.3028 59.0836 61.5638L49.6791 56.5053C49.0104 56.1358 48.2802 55.9598 47.5589 55.9598Z" fill="#F89E1C"/>
<path d="M47.8375 76.2482C47.0193 76.2482 46.1923 76.0459 45.427 75.6324C43.8082 74.7615 42.8141 73.1515 42.7613 71.3128L42.4358 60.4567C42.383 58.6268 43.2804 56.9553 44.8375 55.9876C46.3947 55.0198 48.2949 54.9671 49.9137 55.838L59.547 61.0285C61.1041 61.8643 62.0894 63.4215 62.1862 65.1898C62.283 66.9581 61.4648 68.612 60.0132 69.6061C59.9692 69.6413 59.9165 69.6677 59.8725 69.7029L59.8109 69.7381L50.5031 75.4916C49.6761 75.9931 48.7612 76.2482 47.8375 76.2482ZM47.5032 55.5477C46.641 55.5477 45.7789 55.7852 45.0047 56.2691C43.5443 57.1752 42.6997 58.7412 42.7525 60.4567L43.078 71.3128C43.1308 73.0283 44.0633 74.5415 45.5765 75.3597C47.0897 76.1779 48.8668 76.1251 50.336 75.2189L59.6965 69.4302C59.7405 69.4038 59.7845 69.3686 59.8285 69.3422C61.1921 68.4096 61.9575 66.8701 61.8695 65.2074C61.7815 63.5534 60.8578 62.093 59.3974 61.3101L49.7641 56.1195C49.0515 55.7412 48.2773 55.5477 47.5032 55.5477Z" fill="#10319B"/>
<path d="M20.4695 55.1241C20.0385 54.4642 19.0355 54.5786 18.7628 55.3176C17.6543 58.3967 15.7013 65.338 16.6514 74.0739C16.801 66.2881 20.0209 58.8366 21.2085 56.3469C20.971 55.9334 20.7335 55.5199 20.4695 55.1241Z" fill="#F89E1C"/>
<path d="M17.0114 72.6489C16.6243 72.6489 16.3868 72.5785 16.3516 72.5697L16.5363 71.9627L16.4395 72.2618L16.5275 71.9539C16.5627 71.9627 20.372 72.7896 23.5127 64.5552L23.6799 65.7956C21.1198 72.2794 18.3222 72.6489 17.0114 72.6489Z" fill="#F89E1C"/>
<path d="M16.7852 75.2621C16.7852 75.2621 20.1106 76.8984 22.6619 71.8047C22.6619 71.8047 20.5505 78.1301 18.2983 78.6404C18.2983 78.6404 16.8379 78.9659 16.7852 75.2621Z" fill="#032663"/>
<path d="M18.394 78.8767C18.2884 78.8767 18.1916 78.8679 18.086 78.8415C17.5582 78.7183 17.1623 78.3224 17.0567 77.7858C14.9717 67.1672 17.4526 58.4929 18.6139 55.2642C18.7547 54.8683 19.1066 54.5868 19.5288 54.534C19.9511 54.4812 20.3646 54.6747 20.5933 55.0354C25.1065 61.9415 24.8425 71.0381 19.9423 77.6714L19.4585 78.3224C19.2121 78.6743 18.8162 78.8767 18.394 78.8767ZM19.6696 54.8419C19.6344 54.8419 19.608 54.8419 19.5728 54.8507C19.2649 54.8859 19.0186 55.0794 18.913 55.3697C17.7605 58.5808 15.2972 67.1848 17.3646 77.7242C17.4438 78.1289 17.7429 78.4368 18.1564 78.5336C18.5611 78.6216 18.9746 78.472 19.2209 78.1377L19.7048 77.4867C24.5258 70.9589 24.7809 62.0031 20.3382 55.2114C20.1886 54.9739 19.9423 54.8419 19.6696 54.8419Z" fill="#10319B"/>
<path d="M17.9797 75.6053C17.2319 75.6053 16.7393 75.4117 16.7305 75.4029L16.8536 75.1126C16.9856 75.1654 20.1967 76.4322 22.616 71.7607L22.8975 71.9103C21.2788 75.0246 19.2554 75.6053 17.9797 75.6053Z" fill="#10319B"/>
<path d="M17.1422 72.8252C16.7639 72.8252 16.5352 72.7548 16.5 72.746L16.5968 72.4469C16.632 72.4557 20.3093 73.5026 23.5468 65.7344L23.8371 65.8575C21.2507 72.0598 18.3915 72.8252 17.1422 72.8252Z" fill="#10319B"/>
<path d="M48.4708 73.7304C47.8374 73.7304 47.204 73.572 46.6145 73.2553C45.3653 72.5867 44.5999 71.3462 44.5559 69.9298L44.3184 61.9945C44.2744 60.5781 44.9694 59.2937 46.1747 58.5547C47.3799 57.8069 48.8403 57.7717 50.0807 58.4403L57.1188 62.232C58.324 62.883 59.0806 64.0795 59.151 65.4431C59.2214 66.8067 58.5967 68.0824 57.4707 68.8477C57.4355 68.8741 57.4003 68.8917 57.3651 68.9181L57.3211 68.9445L50.5206 73.1497C49.8872 73.528 49.1834 73.7304 48.4708 73.7304ZM48.2245 58.5986C47.6262 58.5986 47.0368 58.7658 46.5002 59.0913C45.4972 59.7159 44.9166 60.7892 44.9518 61.9769L45.1893 69.9122C45.2245 71.0999 45.8667 72.138 46.9136 72.7011C47.9517 73.2641 49.1834 73.2289 50.1863 72.6043L57.022 68.3727C57.0572 68.3551 57.0836 68.3287 57.11 68.3111C58.0513 67.6689 58.5703 66.6044 58.5088 65.4695C58.4472 64.3346 57.8138 63.3317 56.8108 62.7863L49.7728 58.9945C49.289 58.7306 48.7611 58.5986 48.2245 58.5986Z" fill="#F89E1C"/>
<path d="M57.1296 68.5773C57.1648 68.5597 57.2 68.5333 57.2264 68.5157C59.3642 67.0553 59.2146 63.8266 56.9097 62.5862L50.03 58.8736C47.6459 57.5892 44.7779 59.3663 44.8571 62.0759L45.0858 69.8265C45.165 72.5273 48.1473 74.1285 50.4435 72.7121L57.0944 68.6036C57.1032 68.5948 57.1208 68.5861 57.1296 68.5773Z" fill="#032663"/>
<path d="M54.253 67.3779C54.2706 67.3691 54.2882 67.3515 54.3058 67.3427C55.5111 66.5245 55.4231 64.7034 54.1211 63.9996L50.2414 61.9146C48.8953 61.1932 47.2766 62.1961 47.3294 63.7181L47.4613 68.0904C47.5053 69.6124 49.1857 70.5186 50.4789 69.718L54.2266 67.4042C54.2354 67.3954 54.2442 67.3867 54.253 67.3779Z" fill="#33FCFE"/>
<path d="M71.829 55.9429C70.7557 57.1657 64.5006 60.2712 64.5006 60.2712C64.5006 60.2712 66.6472 61.8812 66.6824 65.2858C66.7088 67.8283 64.3071 70.1069 64.3071 70.1069C66.4713 72.315 65.6531 76.2123 64.052 79.1683C62.4508 82.1243 63.8672 82.9864 63.8672 82.9864C63.8672 82.9864 73.2278 68.9984 74.0459 61.1422C74.3802 57.9487 71.829 55.9429 71.829 55.9429Z" fill="#F4B821"/>
<path d="M29.5391 70.7408C29.5391 70.7408 31.9672 70.3361 33.2692 71.9812C34.5712 73.6264 42.313 88.2214 45.92 93.4384C46.571 94.3797 48.2426 97.6084 50.0988 96.9662C50.0988 96.9662 47.5124 98.4354 43.7031 94.5996C39.9025 90.7551 31.7736 75.3683 29.5391 70.7408Z" fill="#0E51A0"/>
<path d="M23.7706 8.83004C25.5762 7.55711 27.7338 6.47377 30.1172 5.57099L29.9637 5.6071C29.9637 5.6071 37.6193 1.37305 49.0395 1.37305C60.4236 1.37305 68.1695 5.48071 68.2146 5.5078C70.6702 6.41961 72.873 7.521 74.7237 8.82101C83.6342 15.0954 82.9029 28.5739 78.9939 41.2761C76.1682 50.5206 62.7077 54.7276 49.2562 54.5199C35.8047 54.7276 22.3442 50.5206 19.5004 41.2761C15.5914 28.5829 14.8601 15.1044 23.7706 8.83004Z" fill="#F89E1C"/>
<path d="M23.7723 8.87561C24.7202 8.20755 25.7675 7.59366 26.8869 7.0249C18.157 13.3715 18.8973 26.7778 22.7792 39.4168C25.623 48.6793 39.0745 52.8863 52.535 52.6877C60.1816 52.8051 67.8281 51.487 73.5337 48.6342C67.7288 52.8592 58.4934 54.8092 49.2488 54.6648C35.7974 54.8724 22.3369 50.6564 19.4931 41.3939C15.5931 28.6736 14.8618 15.168 23.7723 8.87561Z" fill="#F5851F"/>
<path d="M27.9309 20.179C22.469 19.0415 22.1079 10.3386 22.0898 9.95946L22.7398 9.94141C22.7398 10.0227 23.101 18.5088 28.0572 19.538L27.9309 20.179Z" fill="#F89E1C"/>
<path d="M69.3954 20.5124L69.2148 19.8895C74.6496 18.3096 74.9656 9.48042 74.9656 9.39014L75.6156 9.40819C75.6065 9.78736 75.2815 18.8062 69.3954 20.5124Z" fill="#F4B821"/>
<path d="M49.4453 9.11042C46.3849 9.11042 43.5411 8.10833 41.88 6.42012C41.8258 6.36596 41.7716 6.31179 41.7175 6.24859L38.7383 2.89024L39.4695 2.24023L42.4487 5.58956C42.4848 5.6347 42.53 5.67984 42.5751 5.72498C44.1911 7.36804 47.0981 8.27083 50.1765 8.10833C53.1648 7.94583 55.7648 6.80832 57.128 5.084L59.2586 2.37565L60.0259 2.98052L57.8953 5.68887C56.3696 7.63888 53.4988 8.90278 50.2307 9.08333C49.9599 9.10139 49.7071 9.11042 49.4453 9.11042Z" fill="#F4B821"/>
<path d="M49.4284 12.6404C45.3749 12.6404 41.7006 11.2772 39.3624 8.89388C39.2811 8.81263 39.1908 8.72235 39.1096 8.63208L39.0193 8.53277L34.9297 3.9376L35.6609 3.2876L39.8318 7.98207C39.904 8.06332 39.9762 8.14457 40.0575 8.2168C42.2152 10.4015 45.6367 11.6654 49.4284 11.6654C49.7353 11.6654 50.0513 11.6564 50.3673 11.6383C54.4118 11.4126 57.8875 9.82375 59.8917 7.26887L62.934 3.39593L63.7014 4.0008L60.659 7.87374C58.4833 10.6453 54.7458 12.3696 50.4215 12.6134C50.0965 12.6314 49.7624 12.6404 49.4284 12.6404Z" fill="#F4B821"/>
<path d="M74.2186 11.2044C72.3679 9.89532 70.1651 8.77587 67.7095 7.86406C67.6553 7.83698 59.8914 3.10639 48.5073 3.10639C41.0142 3.09736 34.469 4.35223 30.8398 5.20988C33.1419 4.12654 39.8767 1.37305 49.049 1.37305C60.4331 1.37305 68.179 5.51682 68.2241 5.54391C70.6797 6.46474 72.8825 7.57517 74.7332 8.8842C82.6777 14.5266 82.9575 25.9468 80.1499 37.4302C82.3707 26.7593 81.6304 16.4676 74.2186 11.2044Z" fill="#F4B821"/>
<path d="M69.9304 20.0699L69.8672 19.7539C74.9589 18.6977 75.5096 9.63374 75.5186 9.54346L75.8436 9.56151C75.8165 9.94068 75.2658 18.9595 69.9304 20.0699Z" fill="#10319B"/>
<path d="M60.2718 7.53999L63.3142 3.66705C62.2489 3.324 61.0121 2.97191 59.6308 2.64691L57.5002 5.35526C56.0558 7.19694 53.3203 8.38861 50.1967 8.56917C46.9828 8.74972 43.9314 7.78375 42.2251 6.04137C42.171 5.98721 42.1258 5.94207 42.0807 5.8879L39.1015 2.53857C37.6841 2.85455 36.4112 3.21566 35.3008 3.56775L39.3904 8.16292L39.4807 8.26222C39.5619 8.34347 39.6341 8.43375 39.7154 8.515C41.9633 10.799 45.5383 12.1081 49.4293 12.1081C49.7453 12.1081 50.0703 12.0991 50.3953 12.081C54.5752 11.8643 58.1773 10.2032 60.2718 7.53999Z" fill="#032663"/>
<path d="M28.465 20.0709C23.1295 18.9605 22.5427 10.032 22.5156 9.65282L22.8406 9.63477C22.8497 9.72504 23.4365 18.6987 28.5282 19.755L28.465 20.0709Z" fill="#10319B"/>
<path d="M49.1843 54.4032C42.5308 54.5025 35.8863 53.5816 30.3793 51.5594C29.0973 50.1872 28.0772 48.4177 27.4814 46.3594C25.9557 41.0781 24.2404 33.6933 23.5813 25.3967C23.2563 21.3162 25.5584 17.6148 28.8626 16.8203C33.3675 15.737 40.3189 14.4821 48.5704 14.3557V14.3467C48.8051 14.3467 49.0308 14.3557 49.2655 14.3557C49.5002 14.3557 49.7259 14.3467 49.9607 14.3467V14.3557C58.2121 14.4821 65.001 15.5293 69.5059 16.6127C72.8101 17.4071 75.2747 21.3162 74.9497 25.3967C74.2907 33.6933 72.5754 41.0781 71.0497 46.3594C70.4629 48.3726 69.4788 50.1059 68.233 51.4782C62.6628 53.5546 55.919 54.5025 49.1843 54.4032Z" fill="#032663"/>
<path d="M72.1606 49.4191L70.8516 50.1323C71.0953 49.4101 71.5016 48.1913 71.7724 47.3337C72.4946 45.0767 73.3162 42.5128 74.0474 40.7975C75.2301 38.026 78.5162 35.9315 80.6739 34.8843L80.3037 36.3016C78.2905 37.2857 76.0065 38.685 74.9412 41.1857C74.228 42.8649 73.4155 45.4017 72.6932 47.6406C72.4314 48.4892 72.4044 48.6969 72.1606 49.4191Z" fill="#F4B821"/>
<path d="M26.7493 49.6269C26.6771 49.6269 26.6139 49.5817 26.5958 49.5185C26.3792 48.8776 26.1535 48.1734 25.9188 47.4602C25.2146 45.2845 24.4111 42.8109 23.6618 41.0504C22.5694 38.4956 20.2222 37.0782 18.0645 36.0219C17.9833 35.9858 17.9472 35.8865 17.9923 35.8053C18.0284 35.724 18.1277 35.6879 18.209 35.733C20.4208 36.8074 22.8312 38.2699 23.9687 40.924C24.7271 42.7025 25.5306 45.1762 26.2347 47.3609C26.4695 48.0741 26.6952 48.7692 26.9028 49.4192C26.9299 49.5005 26.8847 49.5998 26.8035 49.6269C26.7854 49.6269 26.7674 49.6269 26.7493 49.6269Z" fill="#F89E1C"/>
<path d="M80.4108 36.2563C80.0226 37.9355 79.5712 39.6237 79.0566 41.2939C78.0004 44.7425 75.4997 47.487 72.0781 49.5814C72.9629 46.9363 73.7031 43.9842 74.6962 41.646C75.8788 38.8925 78.5059 37.1772 80.4108 36.2563Z" fill="#032663"/>
<path d="M78.0921 41.5019C78.4532 40.5269 78.7873 39.5519 79.1032 38.5679C78.0921 39.2179 77.0539 40.1568 76.422 41.4658C75.7449 42.8561 75.149 44.5714 74.5352 46.2054C76.1421 44.9686 77.3789 43.4068 78.0921 41.5019Z" fill="#0E51A0"/>
<path d="M72.2874 49.5645L71.9805 49.4652C72.2874 48.5534 72.5763 47.5874 72.8562 46.6575C73.3888 44.8881 73.9485 43.0644 74.5985 41.5207C75.7722 38.7582 78.3993 37.0248 80.3854 36.0498L80.5298 36.3387C78.5888 37.2866 76.043 38.9658 74.8965 41.638C74.2465 43.1637 73.6958 44.9783 73.1631 46.7388C72.8833 47.6867 72.5944 48.6527 72.2874 49.5645Z" fill="#10319B"/>
<path d="M18.0664 36.2563C18.4546 37.9355 18.906 39.6237 19.4206 41.2939C20.4768 44.7425 22.9775 47.487 26.3991 49.5814C25.5144 46.9363 24.7741 43.9842 23.781 41.646C22.6074 38.8925 19.9713 37.1772 18.0664 36.2563Z" fill="#032663"/>
<path d="M50.1406 54.6647C49.8427 54.6647 49.5448 54.6647 49.2559 54.6557C37.4023 54.8363 22.4703 51.4508 19.3467 41.3126C16.548 32.2306 13.3973 15.9263 23.68 8.68599L23.7703 8.8214L23.68 8.68599C25.4766 7.42209 29.837 5.49916 30.0266 5.41791C30.0898 5.3818 37.7183 1.21094 49.0482 1.21094C60.4143 1.21094 68.2234 5.3186 68.3046 5.36374C70.8234 6.29361 73.0262 7.41306 74.8317 8.68599C85.1144 15.9263 81.9637 32.2306 79.1651 41.3036C76.1137 51.1981 61.8316 54.6647 50.1406 54.6647ZM49.2468 54.3307C49.5357 54.3307 49.8337 54.3397 50.1316 54.3397C61.7143 54.3397 75.8519 50.9362 78.8491 41.2133C81.6207 32.2215 84.7533 16.0798 74.6421 8.95682C72.8546 7.70195 70.6789 6.59153 68.1692 5.66166C68.0699 5.60749 60.324 1.54497 49.0482 1.54497C37.8086 1.54497 30.2433 5.67069 30.171 5.71583C30.1169 5.74291 25.6481 7.71098 23.8696 8.95682C13.7494 16.0708 16.8911 32.2215 19.6536 41.2133C22.7231 51.18 37.5197 54.5113 49.2468 54.3307Z" fill="#10319B"/>
<path d="M49.2568 52.9771C43.5512 53.0583 37.8546 52.3451 32.9976 50.7833C32.2483 50.5396 31.5712 50.0882 31.1018 49.4562C30.2983 48.3909 29.6664 47.1361 29.242 45.7368C27.8337 40.9881 26.2538 34.3346 25.649 26.8686C25.351 23.1943 27.4726 19.863 30.515 19.1498C34.6678 18.1748 41.0775 17.0463 48.688 16.929V16.9199C48.9047 16.9199 49.1123 16.9199 49.329 16.929C49.5456 16.929 49.7533 16.9199 49.97 16.9199V16.929C57.5804 17.0463 63.9811 18.1748 68.143 19.1498C71.1944 19.863 73.3069 23.1943 73.009 26.8686C72.3951 34.3346 70.8242 40.9881 69.4159 45.7368C69.0006 47.1271 68.3777 48.3639 67.5833 49.4201C67.1319 50.025 66.4999 50.4583 65.7867 50.693C60.8575 52.3271 55.0616 53.0674 49.2568 52.9771Z" fill="#FCE8CA"/>
<path d="M48.1742 54.475C41.5929 54.475 35.4359 53.4909 30.3171 51.6131L30.281 51.6041L30.2539 51.577C28.9178 50.1416 27.9067 48.318 27.3199 46.3048C25.9206 41.4478 24.0969 33.8554 23.4108 25.2699C23.0768 21.09 25.397 17.3254 28.8185 16.5039C33.4137 15.4025 53.8166 12.1705 69.6965 16.5039C73.1 17.4338 75.4202 21.1984 75.0952 25.2699C74.4091 33.8554 72.5945 41.4478 71.1861 46.3048C70.6174 48.2819 69.6243 50.0784 68.3333 51.4958L68.3063 51.5229L68.2701 51.5409C62.9257 53.5451 56.1458 54.5923 49.1763 54.484C48.8422 54.475 48.5082 54.475 48.1742 54.475ZM49.1853 54.1409C56.1006 54.2493 62.8173 53.2111 68.1257 51.234C69.3715 49.8527 70.3285 48.1194 70.8792 46.2055C72.2785 41.3665 74.0931 33.7922 74.7702 25.2338C75.0862 21.3157 72.8653 17.6956 69.6063 16.8108C53.7895 12.4955 33.4678 15.7185 28.8907 16.8108C25.6317 17.5963 23.4108 21.2164 23.7358 25.2338C24.4219 33.7922 26.2275 41.3665 27.6268 46.2055C28.1956 48.1645 29.1706 49.934 30.4616 51.3242C35.7248 53.2382 42.3693 54.2493 49.1853 54.1409Z" fill="#10319B"/>
<path d="M26.2529 49.4559C25.955 48.5712 25.6751 47.6503 25.4043 46.7566C24.8717 45.0052 24.3119 43.1996 23.6529 41.6468C22.5154 38.9746 19.9605 37.2864 18.0195 36.3475L18.164 36.0586C20.1501 37.0246 22.7682 38.7579 23.9508 41.5295C24.6189 43.0913 25.1786 44.9149 25.7112 46.6663C25.9821 47.5601 26.2619 48.4809 26.5599 49.3566L26.2529 49.4559Z" fill="#10319B"/>
<path d="M75.6367 36.1857L79.8166 33.7482C79.8166 33.7482 81.0083 21.7411 77.1263 16.2793L76.0069 19.7189C76.0069 19.7189 77.8034 22.3279 75.6367 36.1857Z" fill="#F4B821"/>
<ellipse cx="49.4972" cy="44.8531" rx="2.2238" ry="3.05773" fill="#032663"/>
<path d="M35.1736 28.8322C35.2267 28.8233 35.2797 28.7968 35.3239 28.7526C36.0044 28.1604 36.8971 27.9218 37.7809 28.1074C37.9754 28.1516 38.161 28.0279 38.1963 27.8334C38.2405 27.639 38.1168 27.4534 37.9223 27.418C36.8176 27.1882 35.7039 27.4799 34.8555 28.2223C34.7052 28.3549 34.6964 28.5758 34.8201 28.7261C34.9173 28.8233 35.0499 28.8587 35.1736 28.8322Z" fill="#032663"/>
<path d="M63.5629 28.8322C63.5099 28.8233 63.4568 28.7968 63.4126 28.7526C62.7321 28.1604 61.8394 27.9218 60.9556 28.1074C60.7612 28.1516 60.5756 28.0279 60.5402 27.8334C60.496 27.639 60.6198 27.4534 60.8142 27.418C61.919 27.1882 63.0326 27.4799 63.8811 28.2223C64.0313 28.3549 64.0402 28.5758 63.9164 28.7261C63.828 28.8233 63.6866 28.8587 63.5629 28.8322Z" fill="#032663"/>
<path d="M44.0663 37.9248C43.9956 38.1192 43.9073 38.3137 43.8012 38.4905L37.5791 39.0207C37.4465 38.8617 37.3316 38.6849 37.2344 38.4993L44.0663 37.9248Z" fill="#0052A3"/>
<path d="M44.2714 37.1558C44.2449 37.3502 44.2007 37.5358 44.1477 37.7126L37.1301 38.3136C37.0505 38.1456 36.9798 37.9689 36.918 37.7833L44.2714 37.1558Z" fill="#0052A3"/>
<path d="M44.2707 35.6367L44.3061 36.1847L36.7317 36.8299L36.6875 36.2907L44.2707 35.6367Z" fill="#0052A3"/>
<path d="M44.3155 36.3955C44.3244 36.5811 44.3155 36.7667 44.2979 36.9435L36.8472 37.5798C36.803 37.4031 36.7677 37.2263 36.75 37.0407L44.3155 36.3955Z" fill="#0052A3"/>
<path d="M42.9549 39.5342C42.6456 39.7993 42.3009 40.0114 41.9208 40.1705L39.7201 40.3561C39.3224 40.2678 38.9423 40.1087 38.5977 39.9054L42.9549 39.5342Z" fill="#0052A3"/>
<path d="M43.0957 30.9871L37.1211 31.4997C37.2537 31.2876 37.4128 31.0932 37.5807 30.9164L42.5566 30.4922C42.7511 30.6336 42.9367 30.8015 43.0957 30.9871Z" fill="#0052A3"/>
<path d="M43.6716 38.7212C43.5302 38.9333 43.3711 39.1277 43.2032 39.3045L38.3068 39.7199C38.1035 39.5697 37.9179 39.4017 37.75 39.2161L43.6716 38.7212Z" fill="#0052A3"/>
<path d="M41.2191 29.8472C41.5992 29.9444 41.9527 30.0946 42.2797 30.3068L37.8164 30.6868C38.1081 30.4305 38.4351 30.2184 38.7975 30.0593L41.2191 29.8472Z" fill="#0052A3"/>
<path d="M43.704 31.9062C43.7835 32.0742 43.8543 32.2509 43.9073 32.4365L36.5273 33.0641C36.5539 32.8696 36.598 32.684 36.6511 32.5072L43.704 31.9062Z" fill="#0052A3"/>
<path d="M43.9702 32.6411C44.0144 32.8179 44.0498 32.9946 44.0674 33.1802L36.5019 33.8254C36.4931 33.6398 36.4931 33.4542 36.5107 33.2775L43.9702 32.6411Z" fill="#0052A3"/>
<path d="M43.2708 31.1821C43.3945 31.3412 43.5094 31.518 43.6066 31.7036L36.7305 32.2869C36.8012 32.0925 36.8807 31.898 36.9868 31.7213L43.2708 31.1821Z" fill="#0052A3"/>
<path d="M44.1486 34.1343L44.1928 34.6822L36.6184 35.3274L36.5742 34.7795L44.1486 34.1343Z" fill="#0052A3"/>
<path d="M44.0949 33.3828L44.1303 33.9308L36.5559 34.576L36.5117 34.028L44.0949 33.3828Z" fill="#0052A3"/>
<path d="M44.2072 34.8853L44.2514 35.4332L36.6682 36.0784L36.6328 35.5304L44.2072 34.8853Z" fill="#0052A3"/>
<path d="M61.8311 38.3322C61.7339 38.5178 61.6279 38.7034 61.5041 38.8714L55.2555 38.6769C55.1494 38.5002 55.0522 38.3146 54.9727 38.1201L61.8311 38.3322Z" fill="#0052A3"/>
<path d="M62.1231 37.5896C62.0701 37.7752 62.0083 37.952 61.9287 38.1287L54.8846 37.9166C54.8228 37.7399 54.7697 37.5543 54.7344 37.3687L62.1231 37.5896Z" fill="#0052A3"/>
<path d="M62.2915 36.0784L62.265 36.6264L54.6641 36.3966L54.6906 35.8486L62.2915 36.0784Z" fill="#0052A3"/>
<path d="M62.2551 36.8387C62.2374 37.0243 62.2197 37.2011 62.1755 37.3779L54.7072 37.1481C54.6807 36.9713 54.6719 36.7857 54.6719 36.6001L62.2551 36.8387Z" fill="#0052A3"/>
<path d="M60.5312 39.7996C60.1953 40.0294 59.8241 40.1973 59.4264 40.3122L57.2168 40.2415C56.828 40.1089 56.4744 39.9056 56.1562 39.667L60.5312 39.7996Z" fill="#0052A3"/>
<path d="M61.6642 31.3238L55.6719 31.147C55.831 30.9526 56.0077 30.7758 56.1933 30.6167L61.1781 30.767C61.3637 30.9349 61.5228 31.1205 61.6642 31.3238Z" fill="#0052A3"/>
<path d="M61.3456 39.0747C61.1865 39.2692 61.0009 39.4459 60.8064 39.605L55.9012 39.4548C55.7156 39.2868 55.5565 39.1012 55.4062 38.8979L61.3456 39.0747Z" fill="#0052A3"/>
<path d="M59.9305 29.9716C60.2928 30.113 60.6375 30.3075 60.938 30.5461L56.457 30.4047C56.7752 30.1838 57.1287 30.007 57.4999 29.8921L59.9305 29.9716Z" fill="#0052A3"/>
<path d="M62.1664 32.304C62.2282 32.4807 62.2724 32.6663 62.3078 32.8519L54.9102 32.6221C54.9632 32.4365 55.0251 32.2598 55.0958 32.083L62.1664 32.304Z" fill="#0052A3"/>
<path d="M62.3458 33.0642C62.3723 33.241 62.3811 33.4266 62.3811 33.6122L54.7891 33.3824C54.7979 33.1968 54.8244 33.02 54.8598 32.8433L62.3458 33.0642Z" fill="#0052A3"/>
<path d="M61.8152 31.5357C61.9212 31.7125 62.0096 31.8981 62.0891 32.0926L55.1953 31.8804C55.2925 31.6948 55.3898 31.5092 55.5135 31.3413L61.8152 31.5357Z" fill="#0052A3"/>
<path d="M62.3451 34.576L62.3275 35.1151L54.7266 34.8853L54.7442 34.3462L62.3451 34.576Z" fill="#0052A3"/>
<path d="M62.3813 33.8241L62.3548 34.3632L54.7539 34.1334L54.7804 33.5854L62.3813 33.8241Z" fill="#0052A3"/>
<path d="M62.3178 35.3265L62.3001 35.8744L54.6992 35.6358L54.7169 35.0967L62.3178 35.3265Z" fill="#0052A3"/>
<path d="M80.7335 64.387C77.5302 60.4922 69.2765 51.8653 55.6858 46.9979C54.3572 46.5252 53.1034 47.8601 53.649 49.1571L54.0711 50.1723C58.3846 60.4485 68.6344 66.9613 79.7743 66.5084C80.8519 66.4706 81.4148 65.2235 80.7335 64.387Z" fill="#F5851F"/>
<path d="M79.7706 66.5088C80.838 66.4648 81.4009 65.2178 80.7298 64.3874C77.9143 60.9598 71.1885 53.8684 60.3584 48.9114C69.3191 54.4893 75.7597 63.4097 77.834 66.5204C78.4803 66.5308 79.1265 66.5413 79.7706 66.5088Z" fill="#F89E1C"/>
<path d="M61.7675 50.3197C62.0361 49.869 62.2829 49.6413 62.3176 49.6065L62.8961 50.2429L62.615 49.9226L62.9124 50.2387C62.8778 50.2736 59.2711 54.1346 66.6782 63.5063L65.118 62.84C59.3462 55.3594 60.8577 51.8458 61.7675 50.3197Z" fill="#F89E1C"/>
<path d="M58.8849 48.241C58.8849 48.241 54.6717 50.9769 58.8314 57.4826C58.8314 57.4826 52.9325 50.6342 53.9016 47.658C53.9016 47.658 54.5362 45.7319 58.8849 48.241Z" fill="#032663"/>
<path d="M53.5596 47.6053C53.6329 47.4824 53.7103 47.3759 53.8143 47.2713C54.324 46.7422 55.0597 46.5561 55.7578 46.8056C69.5675 51.748 77.9447 60.6568 80.8977 64.2497C81.2609 64.6883 81.3444 65.2934 81.1128 65.8217C80.8811 66.3499 80.3688 66.697 79.7901 66.713C68.6175 67.1742 58.21 60.5534 53.8882 50.2445L53.4661 49.2294C53.2273 48.6983 53.2665 48.097 53.5596 47.6053ZM80.6566 65.7718C80.681 65.7309 80.6993 65.7001 80.7135 65.6531C80.8863 65.2701 80.8319 64.849 80.5672 64.5246C77.6285 60.9542 69.3211 52.1148 55.6158 47.2069C55.0896 47.0182 54.5236 47.1527 54.1239 47.5669C53.7406 47.977 53.6278 48.5622 53.846 49.081L54.2681 50.0962C58.522 60.2396 68.7717 66.7525 79.7624 66.2938C80.1427 66.2845 80.4673 66.0893 80.6566 65.7718Z" fill="#10319B"/>
<path d="M57.657 49.3945C58.176 48.5239 58.7433 48.0847 58.7596 48.0806L59.0122 48.4254C58.8591 48.5424 55.1555 51.4017 58.9151 57.4606L58.5456 57.6845C56.0433 53.6384 56.7717 50.8797 57.657 49.3945Z" fill="#10319B"/>
<path d="M61.4746 50.3508C61.7372 49.9103 61.9779 49.6929 62.0126 49.658L62.2936 49.9783C62.259 50.0131 58.4879 53.5679 65.285 62.7286L64.9401 62.9811C59.5143 55.6652 60.6076 51.8052 61.4746 50.3508Z" fill="#10319B"/>
</g>
</svg>
