<svg width="24" height="24" viewBox="0 0 24 24" fill="none" xmlns="http://www.w3.org/2000/svg">
<path d="M19.9999 19.9999L15.9499 15.9499M15.9499 15.9499C16.5999 15.2998 17.1156 14.5281 17.4674 13.6788C17.8192 12.8295 18.0002 11.9192 18.0002 10.9999C18.0002 10.0806 17.8192 9.17027 17.4674 8.32095C17.1156 7.47163 16.5999 6.69991 15.9499 6.04987C15.2998 5.39983 14.5281 4.88418 13.6788 4.53238C12.8295 4.18058 11.9192 3.99951 10.9999 3.99951C10.0806 3.99951 9.17027 4.18058 8.32095 4.53238C7.47163 4.88418 6.69991 5.39983 6.04987 6.04987C4.73705 7.36269 3.99951 9.14326 3.99951 10.9999C3.99951 12.8565 4.73705 14.637 6.04987 15.9499C7.36269 17.2627 9.14326 18.0002 10.9999 18.0002C12.8565 18.0002 14.637 17.2627 15.9499 15.9499V15.9499Z" stroke="#0055B8" stroke-width="2" stroke-linecap="round" stroke-linejoin="round"/>
</svg>
