<svg width="64" height="64" viewBox="0 0 64 64" fill="none" xmlns="http://www.w3.org/2000/svg">
<mask id="mask0_908_9981" style="mask-type:alpha" maskUnits="userSpaceOnUse" x="0" y="0" width="64" height="64">
<rect width="64" height="64" fill="#D9D9D9"/>
</mask>
<g mask="url(#mask0_908_9981)">
<path d="M35.9591 12.7355C35.8942 13.506 35.529 14.2201 34.9425 14.7239C34.3559 15.2277 33.5948 15.4808 32.8234 15.4286H31.1755C30.7859 15.4897 30.3876 15.4657 30.0082 15.3582C29.6287 15.2507 29.2771 15.0623 28.9774 14.8059C28.6777 14.5496 28.4371 14.2313 28.2721 13.8731C28.1071 13.5149 28.0217 13.1252 28.0217 12.7308C28.0217 12.3364 28.1071 11.9467 28.2721 11.5885C28.4371 11.2303 28.6777 10.912 28.9774 10.6557C29.2771 10.3993 29.6287 10.2109 30.0082 10.1034C30.3876 9.9959 30.7859 9.97187 31.1755 10.033H32.8234C33.5958 9.9834 34.3568 10.2387 34.9431 10.744C35.5293 11.2492 35.8941 11.9643 35.9591 12.7355Z" fill="#868E96"/>
<path d="M60 45.3921C60 43.3581 47.4666 35.9756 32.0047 35.9756C16.5428 35.9756 4 43.3675 4 45.3921C4 47.4166 16.5334 49.074 32.0047 49.074C47.476 49.074 60 47.4261 60 45.3921Z" fill="#4D545C"/>
<path d="M56.1867 40.966L32.005 35.9658L7.82345 40.966L5.89307 43.3672C5.89307 43.3672 8.85927 53.5465 14.3679 54.1585C19.8766 54.7706 23.9257 50.9381 31.9674 50.9381C40.0091 50.9381 44.0205 54.7706 49.5574 54.1585C55.0943 53.5465 58.0323 43.3672 58.0323 43.3672L56.1867 40.966Z" fill="#4D545C"/>
<path d="M48.3988 52.6613C46.339 52.5434 44.311 52.0984 42.3911 51.343C35.7121 48.7192 28.2878 48.7192 21.6089 51.343C19.6921 52.0982 17.6673 52.5432 15.6105 52.6613C15.2645 52.6615 14.9187 52.6427 14.5747 52.6048C11.2413 52.2376 7.98316 45.3541 7.0415 42.5197L11.552 39.3652L32.0141 35.9658L54.7079 39.9773L56.9867 42.5197C55.9885 45.4389 52.7963 52.2281 49.4535 52.6048C49.1126 52.6423 48.77 52.6612 48.4271 52.6613H48.3988Z" fill="#868E96"/>
<path d="M32.0047 38.075C42.8525 38.075 52.721 40.7399 59.9906 45.0715C59.9906 44.7984 59.9906 44.5253 59.9906 44.2616C59.9906 26.6057 47.4572 12.302 31.9953 12.302C16.5334 12.302 4 26.6151 4 44.2616C4 44.5253 4 44.7984 4 45.0715C11.3072 40.7399 21.1569 38.075 32.0047 38.075Z" fill="#868E96"/>
<path d="M31.7784 11.916C18.4997 11.916 7.76636 25.0543 7.76636 41.2551C7.76636 41.837 7.76636 42.4086 7.76636 42.9905C23.396 38.8052 40.1609 38.8052 55.7905 42.9905C55.7905 42.4086 55.7905 41.837 55.7905 41.2551C55.8145 25.0543 45.0571 11.916 31.7784 11.916Z" fill="#EFF7FF"/>
<path fill-rule="evenodd" clip-rule="evenodd" d="M29.6266 27.5049L34.6328 27.2285L35.8551 20.0562C35.9487 19.2441 36.6885 19.1679 37.3668 19.0596C36.8304 18.1659 36.007 17.9549 34.896 18.426C34.53 17.0191 33.9794 17.9468 33.152 16.9878C33.152 17.1457 33.152 17.3033 33.152 17.4612C32.4527 17.2933 32.3381 16.9653 32.0537 16.6693C31.7693 16.9653 31.6548 17.2933 30.9555 17.4612C30.9555 17.3033 30.9555 17.1457 30.9555 16.9878C30.1278 17.9468 29.5772 17.0191 29.2114 18.426C28.1005 17.9549 27.2768 18.1659 26.7405 19.0596C27.4189 19.1679 28.1587 19.2441 28.2521 20.0562L29.6266 27.5049Z" fill="#FFCE00" stroke="#1D252D" stroke-width="0.3"/>
<path fill-rule="evenodd" clip-rule="evenodd" d="M29.4674 29.7195C29.344 27.5663 29.7939 25.7491 32.2143 25.3344C34.6348 25.7491 35.0847 27.5663 34.961 29.7195C30.732 29.5814 29.4674 29.7195 29.4674 29.7195Z" fill="#FFCE00" stroke="#1D252D" stroke-width="0.3"/>
<path fill-rule="evenodd" clip-rule="evenodd" d="M31.0172 23.28C31.0299 24.0703 31.0806 24.9393 31.0933 25.7294C31.1404 27.5481 29.7128 29.3311 28.9265 29.0876C27.8367 28.4685 28.8 27.652 28.6604 26.8753C28.5868 25.7265 28.0662 25.5564 26.9879 25.6109C25.9775 25.8973 24.9066 26.2462 23.7945 26.6382C22.559 27.0005 21.7354 26.1706 22.0841 25.1764C22.2866 24.5573 22.5372 23.9244 22.9426 23.3056C23.1116 22.9827 23.0943 22.4768 22.8063 22.174C22.7927 22.7176 22.634 23.2 22.1648 23.6463C21.0323 24.6731 20.7581 25.4167 20.7556 26.0919C20.7527 26.9589 21.1546 27.523 22.046 27.9024C21.7672 27.889 21.4672 27.7872 21.1886 27.7741C21.2037 28.795 21.5713 29.2797 22.312 29.5617C22.046 29.5352 21.7799 29.4645 21.5137 29.4383C21.6229 30.1552 21.9099 30.7425 22.8657 31.0233C22.6629 31.0364 22.4387 31.0275 22.2359 31.0407C22.1966 31.9713 22.7541 32.4585 23.9086 32.5023C23.6807 32.5419 23.4525 32.6037 23.2244 32.643C23.6509 33.891 24.4376 34.2163 26.4556 33.9815C27.712 33.8354 28.7836 33.6366 29.6488 32.9986C31.1569 34.5994 33.1482 34.5994 34.6565 32.9986C35.5215 33.6366 36.5929 33.8354 37.8493 33.9815C39.8675 34.2163 40.6542 33.891 41.0805 32.643C40.8526 32.6037 40.6244 32.5419 40.3965 32.5023C41.5515 32.4585 42.1089 31.9713 42.0689 31.0407C41.8661 31.0275 41.6422 31.0364 41.4394 31.0233C42.3949 30.7425 42.682 30.1552 42.7912 29.4383C42.525 29.4645 42.259 29.5352 41.9929 29.5617C42.7338 29.2797 43.1011 28.795 43.1169 27.7741C42.8379 27.7872 42.5377 27.889 42.259 27.9024C43.1505 27.523 43.5523 26.9589 43.5492 26.0919C43.547 25.4167 43.2728 24.6731 42.1403 23.6463C41.6709 23.2 41.5123 22.7176 41.4988 22.174C41.2108 22.4768 41.1935 22.9827 41.3622 23.3056C41.7676 23.9244 42.0182 24.5573 42.221 25.1764C42.5697 26.1706 41.746 27.0005 40.5103 26.6382C39.3983 26.2462 38.3276 25.8973 37.3171 25.6109C36.2389 25.5564 35.7185 25.7265 35.6445 26.8753C35.5051 27.652 36.4681 28.4685 35.3785 29.0876C34.5922 29.3311 33.1644 27.5481 33.2118 25.7294C33.2245 24.9393 33.2749 24.0703 33.2878 23.28C33.3003 22.4899 31.0172 23.28 31.0172 23.28Z" fill="#FFCE00" stroke="#1D252D" stroke-width="0.3"/>
<path fill-rule="evenodd" clip-rule="evenodd" d="M32.1246 37.1049C29.0279 34.7034 27.7175 38.1863 25.0789 37.5859C25.655 36.9419 25.661 35.9431 25.667 35.181C28.4351 35.181 29.1655 33.1143 32.1246 34.6511C35.0834 33.1143 35.8139 35.181 38.5819 35.181C38.5881 35.9431 38.5941 36.9419 39.1701 37.5859C36.5315 38.1863 35.2211 34.7034 32.1246 37.1049Z" fill="#FFCE00" stroke="#1D252D" stroke-width="0.3"/>
<path fill-rule="evenodd" clip-rule="evenodd" d="M32.2424 26.1007C32.5778 27.2292 33.1299 28.3577 33.8304 29.4864C34.127 30.4017 34.0814 31.1982 33.2829 31.7341C32.4888 31.1695 31.695 31.2834 30.9011 31.7057C30.2302 30.9138 30.212 30.2783 30.4904 29.7139C30.8279 29.0786 31.1657 28.4431 31.5033 27.8078C31.7114 28.9714 31.9009 30.2029 32.4068 30.283C31.4437 28.2087 31.6705 26.9612 32.2424 26.1007Z" fill="#D22121" stroke="#1D252D" stroke-width="0.3"/>
<path fill-rule="evenodd" clip-rule="evenodd" d="M42.2996 27.913L40.7922 28.2646L42.2996 27.913Z" fill="#FFCE00"/>
<path d="M42.2996 27.913L40.7922 28.2646" stroke="#1D252D" stroke-width="0.3"/>
<path fill-rule="evenodd" clip-rule="evenodd" d="M42.0544 29.5439L40.6699 29.7998L42.0544 29.5439Z" fill="#FFCE00"/>
<path d="M42.0544 29.5439L40.6699 29.7998" stroke="#1D252D" stroke-width="0.3"/>
<path fill-rule="evenodd" clip-rule="evenodd" d="M41.499 30.9828L40.2988 31.1106L41.499 30.9828Z" fill="#FFCE00"/>
<path d="M41.499 30.9828L40.2988 31.1106" stroke="#1D252D" stroke-width="0.3"/>
<path fill-rule="evenodd" clip-rule="evenodd" d="M40.4542 32.5186L39.439 32.6785L40.4542 32.5186Z" fill="#FFCE00"/>
<path d="M40.4542 32.5186L39.439 32.6785" stroke="#1D252D" stroke-width="0.3"/>
<path fill-rule="evenodd" clip-rule="evenodd" d="M21.925 27.9127L23.4326 28.2644L21.925 27.9127Z" fill="#FFCE00"/>
<path d="M21.925 27.9127L23.4326 28.2644" stroke="#1D252D" stroke-width="0.3"/>
<path fill-rule="evenodd" clip-rule="evenodd" d="M22.1726 29.5439L23.5573 29.7998L22.1726 29.5439Z" fill="#FFCE00"/>
<path d="M22.1726 29.5439L23.5573 29.7998" stroke="#1D252D" stroke-width="0.3"/>
<path fill-rule="evenodd" clip-rule="evenodd" d="M22.7273 30.9835L23.927 31.1113L22.7273 30.9835Z" fill="#FFCE00"/>
<path d="M22.7273 30.9835L23.927 31.1113" stroke="#1D252D" stroke-width="0.3"/>
<path fill-rule="evenodd" clip-rule="evenodd" d="M23.7725 32.5184L24.7879 32.6782L23.7725 32.5184Z" fill="#FFCE00"/>
<path d="M23.7725 32.5184L24.7879 32.6782" stroke="#1D252D" stroke-width="0.3"/>
<path fill-rule="evenodd" clip-rule="evenodd" d="M25.5811 36.359C28.4645 36.4628 28.664 33.8849 32.1245 35.7419C35.5847 33.8849 35.7844 36.4628 38.6681 36.359" fill="#FFCE00"/>
<path d="M25.5811 36.359C28.4645 36.4628 28.664 33.8849 32.1245 35.7419C35.5847 33.8849 35.7844 36.4628 38.6681 36.359" stroke="#1D252D" stroke-width="0.3"/>
<path d="M32.1096 34.588V37.0676" stroke="#1D252D" stroke-width="0.3"/>
<path fill-rule="evenodd" clip-rule="evenodd" d="M29.1794 18.3815L29.9593 22.4946L29.1794 18.3815Z" fill="#FFCE00"/>
<path d="M29.1794 18.3815L29.9593 22.4946" stroke="#1D252D" stroke-width="0.3"/>
<path fill-rule="evenodd" clip-rule="evenodd" d="M30.9683 17.4507L31.1415 21.864L30.9683 17.4507Z" fill="#FFCE00"/>
<path d="M30.9683 17.4507L31.1415 21.864" stroke="#1D252D" stroke-width="0.3"/>
<path fill-rule="evenodd" clip-rule="evenodd" d="M33.1361 17.3906L33.0205 21.804L33.1361 17.3906Z" fill="#FFCE00"/>
<path d="M33.1361 17.3906L33.0205 21.804" stroke="#1D252D" stroke-width="0.3"/>
<path fill-rule="evenodd" clip-rule="evenodd" d="M34.9279 18.3517L34.2634 22.4648L34.9279 18.3517Z" fill="#FFCE00"/>
<path d="M34.9279 18.3517L34.2634 22.4648" stroke="#1D252D" stroke-width="0.3"/>
<path fill-rule="evenodd" clip-rule="evenodd" d="M32.1699 25.1191C32.4793 24.3882 33.3231 24.346 33.2976 23.3233C33.2671 22.1016 32.6916 21.7082 32.1699 21.7167C31.6485 21.7082 31.0728 22.1016 31.0423 23.3233C31.0167 24.346 31.8609 24.3882 32.1699 25.1191Z" fill="#FFCE00" stroke="#1D252D" stroke-width="0.3"/>
<path fill-rule="evenodd" clip-rule="evenodd" d="M37.4019 25.5927C35.9819 26.8195 36.8805 27.827 37.5805 29.0047C38.5442 31.4278 36.6888 32.6515 34.6899 33.0469" fill="#FFCE00"/>
<path d="M37.4019 25.5927C35.9819 26.8195 36.8805 27.827 37.5805 29.0047C38.5442 31.4278 36.6888 32.6515 34.6899 33.0469" stroke="#1D252D" stroke-width="0.3"/>
<path fill-rule="evenodd" clip-rule="evenodd" d="M27.0658 25.5929C28.4861 26.8197 27.5877 27.8273 26.8875 29.0049C25.9235 31.4281 27.7794 32.6517 29.778 33.0471" fill="#FFCE00"/>
<path d="M27.0658 25.5929C28.4861 26.8197 27.5877 27.8273 26.8875 29.0049C25.9235 31.4281 27.7794 32.6517 29.778 33.0471" stroke="#1D252D" stroke-width="0.3"/>
<path fill-rule="evenodd" clip-rule="evenodd" d="M32.1036 33.9429C32.6811 33.9591 33.0419 33.9429 33.2146 33.6006C33.2851 33.0337 33.0735 32.7812 32.7676 32.6714C32.6307 32.5749 32.7358 32.2275 32.6971 31.9821C32.6474 31.7629 32.4188 31.7433 32.1036 31.742C31.7889 31.7433 31.5601 31.7629 31.5106 31.9821C31.4717 32.2275 31.577 32.5749 31.4399 32.6714C31.134 32.7812 30.9224 33.0337 30.9928 33.6006C31.1656 33.9429 31.5263 33.9591 32.1036 33.9429Z" fill="#FFCE00" stroke="#1D252D" stroke-width="0.3"/>
</g>
</svg>
