<svg width="18" height="18" viewBox="0 0 18 18" fill="none" xmlns="http://www.w3.org/2000/svg">
<path d="M17.0004 16.9999L12.9504 12.9499M12.9504 12.9499C13.6004 12.2998 14.116 11.5281 14.4678 10.6788C14.8196 9.82947 15.0007 8.91917 15.0007 7.99987C15.0007 7.08057 14.8196 6.17027 14.4678 5.32095C14.116 4.47163 13.6004 3.69991 12.9504 3.04987C12.3003 2.39983 11.5286 1.88418 10.6793 1.53238C9.82995 1.18058 8.91966 0.999512 8.00036 0.999512C7.08106 0.999512 6.17076 1.18058 5.32144 1.53238C4.47211 1.88418 3.7004 2.39983 3.05036 3.04987C1.73754 4.36269 1 6.14326 1 7.99987C1 9.85648 1.73754 11.637 3.05036 12.9499C4.36318 14.2627 6.14375 15.0002 8.00036 15.0002C9.85697 15.0002 11.6375 14.2627 12.9504 12.9499V12.9499Z" stroke="#0055B8" stroke-width="2" stroke-linecap="round" stroke-linejoin="round"/>
</svg>
