<svg width="56" height="57" viewBox="0 0 56 57" fill="none" xmlns="http://www.w3.org/2000/svg">
<g clip-path="url(#clip0_2158_645406)">
<path d="M11.2766 62.8681C4.96318 59.5347 -1.44098 54.7644 -4.27584 48.2028C-7.0713 41.5952 -6.30395 33.1373 -3.45846 25.926C-0.61297 18.7148 -0.925088 8.39447 4.94736 5.2777C10.8198 2.16092 23.1713 3.26359 28.3229 6.24054C34.7101 9.93146 35.2953 18.2901 41.3664 21.2822C47.4374 24.2284 58.347 25.296 61.6682 30.5125C64.9894 35.729 64.2166 39.9745 60.3821 45.3747C56.5936 50.729 49.941 53.4587 44.4354 57.1397C38.8904 60.8602 34.4466 65.4861 29.133 66.8182C23.8194 68.1502 17.5901 66.2014 11.2766 62.8681Z" fill="#9AD719"/>
<path opacity="0.8" d="M35.6322 25.0104C39.0839 28.2104 42.3482 32.341 43.0339 37.0033C43.6866 41.6881 41.7547 46.9433 38.7122 51.05C35.6697 55.1567 34.1074 61.7821 29.8359 62.7649C25.5644 63.7477 17.887 60.9379 15.1143 58.1631C11.6766 54.7228 12.7302 49.3 9.37462 46.3586C6.01117 43.4465 -0.75401 40.9051 -1.97891 37.0164C-3.20382 33.1278 -1.98723 30.556 1.37608 27.7714C4.70229 25.0081 9.40457 24.405 13.5387 23.0003C17.7047 21.5772 21.324 19.3896 24.935 19.448C28.5461 19.5065 32.1805 21.8104 35.6322 25.0104Z" fill="#C3EC6B"/>
<path opacity="0.8" d="M27.7336 45.5201C26.6882 50.1094 24.7432 55.0017 21.0483 57.9266C17.3175 60.8343 11.8004 61.7888 6.72265 61.2073C1.64488 60.6257 -4.87402 62.5855 -7.86088 59.3776C-10.8477 56.1698 -12.2531 48.116 -11.2364 44.3274C-9.97583 39.6302 -4.75277 37.8312 -3.88328 33.4545C-3.04305 29.0856 -4.2247 21.9561 -1.46947 18.951C1.28577 15.9458 4.12125 15.7135 8.21449 17.2339C12.2706 18.7329 15.1441 22.5036 18.4277 25.3816C21.7431 28.2779 25.4473 30.3184 27.2022 33.4749C28.9571 36.6314 28.779 40.9308 27.7336 45.5201Z" fill="#EFFFCF"/>
<path d="M6.84895 54.8339C6.84895 54.8339 5.30146 65.9404 6.38028 72.3602C7.45909 78.78 7.63595 83.7496 7.57405 86.3671C7.52099 88.8607 7.87471 101.683 8.64403 104.972C8.70593 105.229 8.92698 105.406 9.18342 105.432C10.1296 105.503 12.4995 105.574 14.3741 104.857C14.6659 104.742 14.8605 104.459 14.8516 104.15C14.7809 101.426 14.4625 88.4098 14.6659 87.4459C14.8958 86.3759 14.719 85.8984 14.719 85.0672C14.719 84.236 14.9489 67.1872 15.1169 67.1872C15.2849 67.1872 15.6828 67.1872 15.7447 67.5409C15.8066 67.8946 15.9127 84.8904 15.9127 85.3679C15.9127 85.8454 16.1427 87.5697 16.1427 88.339C16.1427 89.0111 16.01 100.613 15.9835 103.619C15.9747 104.044 16.2665 104.406 16.6732 104.504C17.7963 104.769 20.1396 105.582 21.6428 105.237C22.0231 105.149 22.2972 104.822 22.3061 104.433C22.3768 102.815 22.6156 97.898 23.1284 93.7419C23.7563 88.6927 23.0577 85.8984 23.1726 85.3679C23.2876 84.8373 23.3849 83.449 23.2169 83.3252C23.0488 83.2102 25.3391 73.554 25.7017 70.7862C27.2933 58.6363 23.7032 54.5244 23.7032 54.5244C23.7032 54.5244 23.5175 54.9047 15.6298 55.0815C7.74207 55.2318 6.84895 54.8339 6.84895 54.8339Z" fill="#558AF0"/>
<path d="M7.82196 52.623L7.52132 52.6938C6.86696 54.4712 4.88618 63.1636 6.30102 72.4042C7.42404 79.7614 7.55667 83.8467 7.50362 86.4642C7.45056 88.9667 7.98997 101.585 8.66202 104.91C8.80351 105.635 9.82043 105.494 9.82043 105.494C9.82043 105.494 8.44095 91.9378 8.66202 87.879C8.88309 83.8202 8.6797 78.0901 7.63626 71.2105C6.7962 65.6661 8.23758 56.4431 9.02458 53.1625C7.98998 52.906 8.03419 52.8353 7.82196 52.623Z" fill="#EBF4FF"/>
<path d="M21.2986 53.6933C22.0148 55.2585 24.0575 60.0513 24.2344 64.4019C24.4554 69.6899 21.1925 81.2208 21.7672 83.6083C22.3509 85.9959 21.5462 99.7728 21.0421 102.744C20.5469 105.644 21.2721 105.238 21.334 105.282C21.334 105.282 22.3862 105.132 22.3509 104.336C22.2801 102.717 22.6515 98.0308 23.1733 93.857C23.8011 88.7813 23.1025 85.9782 23.2175 85.4476C23.3324 84.9082 23.4297 83.5199 23.2617 83.3961C23.0937 83.2811 25.3928 73.5807 25.7553 70.804C27.1613 59.9628 23.4827 53.7818 23.3236 53.5342C23.3059 53.5519 23.076 53.6138 21.2986 53.6933Z" fill="#EBF4FF"/>
<path d="M23.3145 53.5254C23.3145 53.5254 23.3145 53.5254 23.3233 53.5342C23.3321 53.5254 23.3145 53.5254 23.3145 53.5254Z" fill="#EBF4FF"/>
<path d="M6.84898 54.418C6.84898 54.418 5.40761 66.4176 6.29188 72.2715C7.26458 78.709 7.63598 83.5725 7.57408 86.1899C7.52102 88.657 7.83053 100.851 8.59984 104.839C8.67059 105.202 8.98008 105.476 9.35148 105.494C10.4214 105.547 12.6763 105.547 14.4626 104.83C14.7013 104.733 14.8516 104.494 14.8428 104.238C14.7809 101.7 14.4626 88.4094 14.6659 87.4456C14.8959 86.3756 14.719 85.8981 14.719 85.0669C14.719 84.2357 14.9489 67.1869 15.1169 67.1869C15.2849 67.1869 15.6829 67.1869 15.7448 67.5406C15.8067 67.8943 15.9128 84.89 15.9128 85.3675C15.9128 85.845 16.1427 87.5694 16.1427 88.3387C16.1427 89.0107 16.0101 100.727 15.9835 103.663C15.9747 104.061 16.24 104.424 16.6202 104.547C17.7344 104.91 20.06 105.555 21.5898 105.29C22.0231 105.211 22.3503 104.83 22.3591 104.388C22.4122 102.682 22.6067 97.9242 23.1019 93.8566C23.7298 88.8074 23.0842 85.8804 23.1992 85.3499C23.3141 84.8193 23.4379 83.3426 23.2699 83.2188C23.1019 83.095 25.3833 73.3149 25.7636 70.556C27.2226 60.0066 24.0039 54.922 24.0039 54.922C24.0039 54.922 23.5352 54.8778 15.6386 55.0635C7.74209 55.2315 6.84898 54.418 6.84898 54.418Z" stroke="#1148B7" stroke-width="0.205417" stroke-miterlimit="10" stroke-linecap="round"/>
<path d="M16.1782 13.8033C16.1782 13.8033 12.65 13.5115 10.4835 16.8717C8.30821 20.2319 9.84683 23.4595 8.96255 25.511C8.10481 27.5007 7.24707 28.3761 7.24707 28.3761C7.24707 28.3761 12.1902 30.5426 15.1702 30.127C18.1413 29.7113 17.4604 30.1977 17.4604 30.1977C17.4604 30.1977 22.7661 29.3576 25.6311 27.8897C25.6311 27.8897 23.6238 24.6268 23.5 21.9386C23.3762 19.2415 22.2797 16.0228 20.4316 15.0589" fill="#002E6D"/>
<path d="M14.1443 28.1641L13.8348 30.2509L12.1281 30.5781C12.1281 30.5781 11.6506 34.3717 15.0816 34.7519C18.5126 35.1321 20.6437 30.6577 20.6437 30.6577L18.4507 30.4101L18.5479 28.7477" fill="#FBC6B6"/>
<path d="M15.0822 13.7063C15.0822 13.7063 15.5774 13.1492 15.1175 12.1854C14.6577 11.2215 13.349 10.5672 12.0137 11.4868C10.422 12.5921 9.59082 12.3534 9.59082 12.3534C9.59082 12.3534 10.1037 14.9443 12.845 14.7409" fill="#002E6D"/>
<path d="M12.9152 14.9617C12.9152 14.9617 12.6765 14.2012 12.8887 13.8475C13.1098 13.4938 15.3204 12.3 16.2578 13.989" fill="#F89E1C"/>
<path d="M16.2135 29.0571H16.1693C13.322 28.8714 11.1467 26.3865 11.3412 23.5392L11.6595 18.7553C11.8452 15.9079 14.33 13.7326 17.1774 13.9271H17.2216C20.069 14.1128 22.2443 16.5976 22.0497 19.445L21.7314 24.2289C21.5457 27.0763 19.0609 29.2428 16.2135 29.0571Z" fill="#FAC8BB"/>
<path d="M17.0008 22.195C17.4518 22.6813 18.0089 23.5037 17.3634 24.1758C17.2573 24.2819 17.0804 24.2288 17.0451 24.0785L16.6825 22.363C16.6471 22.1773 16.8682 22.0624 17.0008 22.195Z" fill="#FF8D76"/>
<path d="M12.8582 23.07C12.9193 21.7968 12.2372 20.7295 11.3347 20.6863C10.4322 20.643 9.65108 21.6401 9.59003 22.9133C9.52898 24.1866 10.2111 25.2538 11.1136 25.2971C12.0161 25.3404 12.7972 24.3433 12.8582 23.07Z" fill="#FAC8BB"/>
<path d="M10.9699 24.1935C10.9699 24.1935 10.1652 24.1227 10.1829 22.7256" stroke="#FF7F66" stroke-width="0.248003" stroke-miterlimit="10" stroke-linecap="round" stroke-linejoin="round"/>
<path d="M23.4291 23.1997C23.5494 21.9308 22.9178 20.833 22.0184 20.7477C21.119 20.6625 20.2923 21.622 20.172 22.8909C20.0516 24.1598 20.6832 25.2576 21.5826 25.3429C22.4821 25.4282 23.3087 24.4687 23.4291 23.1997Z" fill="#FAC8BB"/>
<path d="M21.8818 24.2464C21.8818 24.2464 22.6865 24.2907 22.8722 22.9023" stroke="#FF7F66" stroke-width="0.248003" stroke-miterlimit="10" stroke-linecap="round" stroke-linejoin="round"/>
<path d="M13.8525 21.4707L14.4096 21.7006" stroke="#002E6D" stroke-width="0.422143" stroke-miterlimit="10" stroke-linecap="round"/>
<path d="M14.5392 23.1301C14.9337 23.1011 15.2254 22.6946 15.1907 22.2222C15.156 21.7498 14.8081 21.3903 14.4136 21.4192C14.019 21.4482 13.7273 21.8547 13.762 22.3271C13.7967 22.7995 14.1447 23.1591 14.5392 23.1301Z" fill="white"/>
<path d="M14.5457 22.9629C14.8672 22.9393 15.1048 22.6083 15.0766 22.2235C15.0483 21.8387 14.7648 21.546 14.4434 21.5696C14.1219 21.5932 13.8842 21.9242 13.9125 22.309C13.9407 22.6938 14.2242 22.9865 14.5457 22.9629Z" fill="#002E6D"/>
<path d="M19.7152 21.3555L19.1758 21.6208" stroke="#002E6D" stroke-width="0.422143" stroke-miterlimit="10" stroke-linecap="round"/>
<path d="M19.1499 23.071C19.5454 23.071 19.8661 22.6869 19.8661 22.2132C19.8661 21.7395 19.5454 21.3555 19.1499 21.3555C18.7543 21.3555 18.4336 21.7395 18.4336 22.2132C18.4336 22.6869 18.7543 23.071 19.1499 23.071Z" fill="white"/>
<path d="M19.1227 22.903C19.445 22.903 19.7063 22.5902 19.7063 22.2044C19.7063 21.8186 19.445 21.5059 19.1227 21.5059C18.8004 21.5059 18.5391 21.8186 18.5391 22.2044C18.5391 22.5902 18.8004 22.903 19.1227 22.903Z" fill="#002E6D"/>
<path d="M13.5169 20.1085C14.0033 19.8698 14.808 19.5956 15.312 20.0731C15.3739 20.135 15.3209 20.2235 15.2148 20.2146C14.9318 20.1793 14.4101 20.1616 13.5965 20.2677C13.4816 20.2854 13.4197 20.1616 13.5169 20.1085Z" fill="#002E6D"/>
<path d="M20.1839 20.4181C19.7329 20.1175 18.9724 19.7373 18.4065 20.144C18.3357 20.1971 18.3799 20.2943 18.4861 20.2943C18.769 20.2943 19.2907 20.3474 20.0777 20.5596C20.2015 20.595 20.2811 20.48 20.1839 20.4181Z" fill="#002E6D"/>
<path d="M10.6603 18.8525C10.1386 20.4 11.633 22.6549 11.633 22.6549L13.2778 19.9048L10.6603 18.8525Z" fill="#002E6D"/>
<path d="M21.7759 22.0889C21.7759 22.0889 24.0131 14.9971 18.0177 13.9006C13.3045 13.034 11.5625 15.2446 11.1381 16.1908C10.0593 18.5695 10.2361 20.232 10.3069 20.8421C10.3069 20.8775 12.5087 21.1074 12.5087 21.1074L14.5514 17.7648L21.7759 22.0889Z" fill="#002E6D"/>
<path d="M14.8253 17.9511L13.5166 17.1553L14.4805 18.8619" fill="#FAC8BB"/>
<path d="M17.0624 29.0044C17.0624 29.0044 15.1877 29.5438 13.2158 27.9521" stroke="#FF7F66" stroke-width="0.248003" stroke-miterlimit="10" stroke-linecap="round" stroke-linejoin="round"/>
<path d="M17.7525 25.1757L14.914 25.0254C14.8344 25.0254 14.7637 25.0873 14.7637 25.1669C14.7814 25.6444 14.9936 27.0769 17.0451 27.1123C17.1158 27.1123 17.1689 27.0681 17.1866 26.9973L17.4607 25.5383C17.4695 25.4941 17.5049 25.4498 17.5491 25.4322L17.7791 25.3437C17.8763 25.3172 17.8498 25.1846 17.7525 25.1757Z" fill="#E86752"/>
<path d="M12.2076 32.082C12.2076 32.082 14.0292 34.7614 21.0857 32.2058C21.0857 32.2058 28.1422 48.8744 28.266 53.9855C28.3898 59.0966 6.48633 57.3899 6.48633 57.3899L12.2076 32.082Z" fill="#EBF4FF"/>
<path d="M11.9697 34.2656C11.9697 34.2656 14.8878 35.8485 20.2465 34.2656" stroke="#191708" stroke-width="0.205417" stroke-miterlimit="10" stroke-linecap="round"/>
<path d="M12.2173 32.082C12.2173 32.082 14.039 34.7614 21.0955 32.2058C21.0955 32.2058 28.152 48.8744 28.2758 53.9855C28.3995 59.0966 6.49609 57.3899 6.49609 57.3899L12.2173 32.082Z" stroke="#191708" stroke-width="0.205417" stroke-miterlimit="10" stroke-linecap="round"/>
<path d="M4.77128 32.6029C2.39259 35.0877 -0.472449 48.9354 -1.71927 54.9308C-2.9661 60.9261 -3.55858 60.767 -2.99264 62.4648C-2.57703 63.7204 -0.543195 64.419 1.26072 64.5163C2.24227 64.5693 3.12654 63.9238 3.3653 62.9688L3.40951 62.8185C3.40951 62.8185 4.08155 70.0961 5.21342 70.7681C5.21342 70.7681 11.1204 70.0961 13.6052 68.3983C16.09 66.7004 14.3833 33.8143 13.1365 30.0827C13.1365 30.0738 7.14114 30.1181 4.77128 32.6029Z" fill="#F89E1C"/>
<path d="M26.8782 32.5237C29.2569 35.0085 32.122 48.8563 33.3688 54.8516C34.6156 60.847 35.2081 60.6878 34.6422 62.3856C34.2266 63.6413 32.1927 64.3399 30.3888 64.4371C29.4073 64.4902 28.523 63.8447 28.2842 62.8897L28.24 62.7393C28.24 62.7393 28.072 69.1857 26.9401 69.8666C26.9401 69.8666 20.7944 69.6809 18.3008 67.9831C15.816 66.2853 17.7879 34.0535 19.0347 30.3219C19.0259 30.3042 24.4995 30.0301 26.8782 32.5237Z" fill="#F89E1C"/>
<path d="M3.36523 62.9695L6.35406 49.0068" stroke="#D57E02" stroke-width="0.218592" stroke-miterlimit="10" stroke-linecap="round"/>
<path d="M28.2314 62.7302L26.4717 54.2412" stroke="#D57E02" stroke-width="0.218592" stroke-miterlimit="10" stroke-linecap="round"/>
<path d="M21.6078 31.5068C21.6078 31.5068 21.7227 41.4638 21.7227 42.9316C21.7227 44.3995 18.3271 49.6079 18.3271 55.9393" stroke="#D57E02" stroke-width="0.218592" stroke-miterlimit="10" stroke-linecap="round"/>
<path d="M25.4725 41.3135C25.4725 41.3135 23.8896 43.6922 24.5705 45.726" stroke="#D57E02" stroke-width="0.218592" stroke-miterlimit="10" stroke-linecap="round"/>
<path d="M25.7016 43.9219C25.7016 43.9219 24.1188 45.1687 25.2507 48.6704" stroke="#D57E02" stroke-width="0.218592" stroke-miterlimit="10" stroke-linecap="round"/>
<path d="M6.12402 41.0918C6.12402 41.0918 7.59191 42.5597 7.4858 44.1425" stroke="#D57E02" stroke-width="0.218592" stroke-miterlimit="10" stroke-linecap="round"/>
<path d="M33.3603 54.9313C32.1135 48.9359 29.2042 34.9467 26.8255 32.453C25.6052 31.1708 23.4564 30.6933 21.626 30.375L21.6967 32.4088C22.6429 32.6476 24.3761 33.0543 25.1631 33.5053C26.3568 34.1862 27.9927 40.5176 27.9927 40.5176L32.7855 62.6952L33.1127 63.8801C33.8555 63.5353 34.4302 63.0666 34.6336 62.4564C35.1996 60.7586 34.6071 60.9266 33.3603 54.9313Z" fill="#EBF4FF"/>
<path d="M4.77128 32.6033C2.39259 35.0881 -0.472449 48.9358 -1.71927 54.9312C-2.9661 60.9265 -3.55858 60.7674 -2.99264 62.4652C-2.78926 63.0665 -2.21448 63.544 -1.47169 63.8888L-1.41863 63.1637C-1.41863 63.1637 2.04771 46 3.48024 40.3495C3.91353 38.6252 5.25764 34.1242 6.46025 33.4522C7.59212 32.8155 10.6429 32.6209 10.6429 32.6209L11.1204 30.2334C9.16613 30.4456 6.25686 31.0469 4.77128 32.6033Z" fill="#EBF4FF"/>
<path d="M10.7666 32.0371C10.7666 32.0371 9.8646 38.4835 10.0857 40.9771C10.3156 43.4619 12.6854 46.6365 12.6854 52.1809" stroke="#D57E02" stroke-width="0.218592" stroke-miterlimit="10" stroke-linecap="round"/>
<g style="mix-blend-mode:overlay">
<path d="M23.2275 13.432C23.8424 13.432 24.3412 13.9307 24.3412 14.5456C24.3412 13.9307 24.8399 13.432 25.4548 13.432C24.8399 13.432 24.3412 12.9333 24.3412 12.3184C24.3412 12.9333 23.8424 13.432 23.2275 13.432Z" fill="#002E6D"/>
</g>
<g style="mix-blend-mode:overlay">
<path d="M22.2725 31.5687C22.8874 31.5687 23.3861 32.0675 23.3861 32.6824C23.3861 32.0675 23.8848 31.5687 24.4997 31.5687C23.8848 31.5687 23.3861 31.07 23.3861 30.4551C23.3861 31.07 22.8874 31.5687 22.2725 31.5687Z" fill="#002E6D"/>
</g>
<g style="mix-blend-mode:overlay">
<path d="M18.4541 9.61417C20.4729 9.61417 22.1132 11.2545 22.1132 13.2733C22.1132 11.2545 23.7535 9.61417 25.7723 9.61417C23.7535 9.61417 22.1132 7.97389 22.1132 5.95508C22.1132 7.97389 20.4729 9.61417 18.4541 9.61417Z" fill="#002E6D"/>
</g>
<g style="mix-blend-mode:overlay">
<path d="M45.1816 41.1137C46.6738 41.1137 47.8862 42.3261 47.8862 43.8183C47.8862 42.3261 49.0986 41.1137 50.5907 41.1137C49.0986 41.1137 47.8862 39.9013 47.8862 38.4092C47.8862 39.9013 46.6738 41.1137 45.1816 41.1137Z" fill="#002E6D"/>
</g>
<g style="mix-blend-mode:overlay">
<path d="M44.2275 45.0913C44.7542 45.0913 45.1821 45.5192 45.1821 46.0458C45.1821 45.5192 45.61 45.0913 46.1366 45.0913C45.61 45.0913 45.1821 44.6634 45.1821 44.1367C45.1821 44.6634 44.7542 45.0913 44.2275 45.0913Z" fill="#002E6D"/>
</g>
<rect x="37.2061" y="10.207" width="15.1782" height="18.5855" rx="1.27273" transform="rotate(6.78021 37.2061 10.207)" fill="#E7EBEE"/>
<rect x="36.5859" y="9.58789" width="15.1782" height="18.5855" rx="1.27273" transform="rotate(6.78021 36.5859 9.58789)" fill="white"/>
<rect x="31.9873" y="9.76367" width="15.1782" height="18.5855" rx="1.27273" transform="rotate(-2.53912 31.9873 9.76367)" fill="#E7EBEE"/>
<rect x="31.3408" y="9.17188" width="15.1782" height="18.5855" rx="1.27273" transform="rotate(-2.53912 31.3408 9.17188)" fill="white"/>
<rect x="38.1611" y="12.6318" width="7.12446" height="0.619518" rx="0.309759" transform="rotate(-2.53912 38.1611 12.6318)" fill="#007BE0"/>
<rect x="38.3613" y="17.1592" width="7.12446" height="0.619518" rx="0.309759" transform="rotate(-2.53912 38.3613 17.1592)" fill="#007BE0"/>
<rect x="38.5605" y="21.6465" width="7.12446" height="0.619518" rx="0.309759" transform="rotate(-2.53912 38.5605 21.6465)" fill="#007BE0"/>
<rect x="38.2295" y="14.1787" width="3.71711" height="0.619518" rx="0.309759" transform="rotate(-2.53912 38.2295 14.1787)" fill="#007BE0"/>
<rect x="38.4297" y="18.707" width="3.71711" height="0.619518" rx="0.309759" transform="rotate(-2.53912 38.4297 18.707)" fill="#007BE0"/>
<rect x="38.6289" y="23.1943" width="3.71711" height="0.619518" rx="0.309759" transform="rotate(-2.53912 38.6289 23.1943)" fill="#007BE0"/>
<rect x="34.042" y="14.7783" width="3.05183" height="0.510534" rx="0.255267" transform="rotate(-47.5391 34.042 14.7783)" fill="#69EA62"/>
<rect x="33.4463" y="13.5391" width="1.73323" height="0.510534" rx="0.255267" transform="rotate(42.5075 33.4463 13.5391)" fill="#69EA62"/>
<rect x="34.2422" y="19.3066" width="3.05183" height="0.510534" rx="0.255267" transform="rotate(-47.5391 34.2422 19.3066)" fill="#69EA62"/>
<rect x="33.6465" y="18.0664" width="1.73323" height="0.510534" rx="0.255267" transform="rotate(42.5075 33.6465 18.0664)" fill="#69EA62"/>
<rect x="34.4414" y="23.7939" width="3.05183" height="0.510534" rx="0.255267" transform="rotate(-47.5391 34.4414 23.7939)" fill="#69EA62"/>
<rect x="33.8457" y="22.5537" width="1.73323" height="0.510534" rx="0.255267" transform="rotate(42.5075 33.8457 22.5537)" fill="#69EA62"/>
</g>
<defs>
<clipPath id="clip0_2158_645406">
<rect y="0.227539" width="56" height="56" rx="28" fill="white"/>
</clipPath>
</defs>
</svg>
