<svg width="56" height="57" viewBox="0 0 56 57" fill="none" xmlns="http://www.w3.org/2000/svg">
<g clip-path="url(#clip0_2158_645386)">
<path d="M11.2766 62.8681C4.96318 59.5347 -1.44098 54.7644 -4.27584 48.2028C-7.0713 41.5952 -6.30395 33.1373 -3.45846 25.926C-0.61297 18.7148 -0.925088 8.39447 4.94736 5.2777C10.8198 2.16092 23.1713 3.26359 28.3229 6.24054C34.7101 9.93146 35.2953 18.2901 41.3664 21.2822C47.4374 24.2284 58.347 25.296 61.6682 30.5125C64.9894 35.729 64.2166 39.9745 60.3821 45.3747C56.5936 50.729 49.941 53.4587 44.4354 57.1397C38.8904 60.8602 34.4466 65.4861 29.133 66.8182C23.8194 68.1502 17.5901 66.2014 11.2766 62.8681Z" fill="#9AD719"/>
<path opacity="0.8" d="M35.6322 25.0104C39.0839 28.2104 42.3482 32.341 43.0339 37.0033C43.6866 41.6881 41.7547 46.9433 38.7122 51.05C35.6697 55.1567 34.1074 61.7821 29.8359 62.7649C25.5644 63.7477 17.887 60.9379 15.1143 58.1631C11.6766 54.7228 12.7302 49.3 9.37462 46.3586C6.01117 43.4465 -0.75401 40.9051 -1.97891 37.0164C-3.20382 33.1278 -1.98723 30.556 1.37608 27.7714C4.70229 25.0081 9.40457 24.405 13.5387 23.0003C17.7047 21.5772 21.324 19.3896 24.935 19.448C28.5461 19.5065 32.1805 21.8104 35.6322 25.0104Z" fill="#C3EC6B"/>
<path opacity="0.8" d="M27.7336 45.5201C26.6882 50.1094 24.7432 55.0017 21.0483 57.9266C17.3175 60.8343 11.8004 61.7888 6.72265 61.2073C1.64488 60.6257 -4.87402 62.5855 -7.86088 59.3776C-10.8477 56.1698 -12.2531 48.116 -11.2364 44.3274C-9.97583 39.6302 -4.75277 37.8312 -3.88328 33.4545C-3.04305 29.0856 -4.2247 21.9561 -1.46947 18.951C1.28577 15.9458 4.12125 15.7135 8.21449 17.2339C12.2706 18.7329 15.1441 22.5036 18.4277 25.3816C21.7431 28.2779 25.4473 30.3184 27.2022 33.4749C28.9571 36.6314 28.779 40.9308 27.7336 45.5201Z" fill="#EFFFCF"/>
<path d="M20.7599 24.5117H13.0225V28.8093H20.7599V24.5117Z" fill="#CADCEF"/>
<path d="M12.5273 26.5373L12.996 27.5542L19.9641 27.6427L20.4151 26.5727L19.0533 23.9287L13.4912 24.3266" fill="#CADCEF"/>
<path d="M13.5707 24.8301L13.4292 27.1822L11.2627 28.1019L13.1285 31.3825L21.3965 30.1711L19.5041 29.2161L19.0355 27.2353L18.5403 24.5117" fill="#FBC6B6"/>
<path d="M12.1919 27.872C12.1919 27.872 14.2523 31.303 16.9228 31.1969C18.2315 31.1438 19.5137 28.4202 21.1054 27.5625L27.1096 57.1503L27.145 62.9246C27.145 62.9246 14.9155 66.6209 6.31152 62.6593L6.43532 51.1461L12.1919 27.872Z" fill="#EBF4FF"/>
<path d="M12.1919 27.872C12.1919 27.872 14.2523 31.303 16.9228 31.1969C18.2315 31.1438 19.5137 28.4202 21.1054 27.5625L27.1096 57.1503L27.145 62.9246C27.145 62.9246 14.9155 66.6209 6.31152 62.6593L6.43532 51.1461L12.1919 27.872Z" stroke="#191708" stroke-width="0.191215" stroke-miterlimit="10" stroke-linecap="round" stroke-linejoin="round"/>
<path d="M19.3361 24.5563C19.3361 24.5563 19.2389 26.4398 20.2292 26.9703C20.2292 26.9703 18.779 29.9415 18.7437 30.3748C18.7083 30.8081 18.8321 31.1441 18.8321 32.108C18.8321 33.063 19.5395 37.7673 19.4157 37.9884C19.2919 38.2094 18.9824 46.5924 19.6368 51.2613C20.2911 55.9303 20.4415 62.0937 20.8129 62.0937C21.1843 62.0937 21.8298 61.0768 23.5983 60.9795C25.358 60.8822 26.5076 60.8557 27.4007 59.9891C28.2938 59.1225 29.3196 58.3532 29.408 58.0083C29.4964 57.6723 29.4964 55.8419 29.4964 55.8419C29.4964 55.8419 31.1677 54.4182 31.9724 52.4993C32.7771 50.5804 32.2465 42.4097 31.5037 38.855C30.7609 35.3002 30.699 31.091 29.8324 30.5958C28.9659 30.1007 24.0758 28.8361 22.8113 27.3771C21.538 25.9269 21.3257 24.9984 20.6448 24.7154C19.9905 24.4325 19.3361 24.5563 19.3361 24.5563Z" fill="#2DBFE8"/>
<path d="M19.4338 24.5563C19.4338 24.5563 19.3454 26.4398 20.3269 26.9703C20.3269 26.9703 18.8767 29.9415 18.8413 30.3748C18.8059 30.8081 18.9297 31.1441 18.9297 32.108C18.9297 33.063 19.6372 37.7673 19.5134 37.9884C19.3896 38.2094 19.0801 46.5923 19.7344 51.2613C20.38 55.9303 20.5391 62.0937 20.9105 62.0937C21.2819 62.0937 21.9274 61.0768 23.696 60.9795C25.4557 60.8822 26.6052 60.8557 27.4984 59.9891C28.3915 59.1225 29.4172 58.3532 29.5057 58.0083C29.6029 57.6723 29.6029 55.8419 29.6029 55.8419C29.6029 55.8419 31.2742 54.4182 32.0789 52.4993C32.8836 50.5804 32.353 42.4097 31.6191 38.855C30.8763 35.3002 30.8144 31.091 29.9478 30.5958C29.0812 30.1007 24.1912 28.8361 22.9267 27.3771C21.6621 25.9269 21.4411 24.9984 20.7602 24.7154C20.0881 24.4325 19.4338 24.5563 19.4338 24.5563Z" stroke="#0D94C9" stroke-width="0.213349" stroke-miterlimit="10" stroke-linecap="round"/>
<path d="M13.182 24.6182C13.182 24.6182 11.7937 25.0515 11.5107 25.6351C11.2366 26.2275 10.1224 28.2614 10.1224 28.2614C10.1224 28.2614 3.87059 31.5509 3.56109 32.3556C3.2516 33.1602 0.56341 49.6873 0.811006 50.6423C1.0586 51.5973 4.21546 55.7446 4.21546 55.7446L3.87943 57.9995C3.87943 57.9995 5.20584 60.9972 7.49611 61.74C9.78638 62.4827 10.5292 62.1379 10.5292 62.1379L11.0509 56.9737C11.0509 56.9737 12.4127 56.6023 12.9079 54.0645C13.4031 51.5266 14.7914 45.8938 14.8267 44.3198C14.8533 42.7369 15.0743 37.6081 14.5172 35.6893C13.9602 33.7704 13.3412 30.3659 13.5269 29.4994C13.7126 28.6328 12.5365 26.7493 12.5365 26.7493C12.5365 26.7493 13.0582 26.2275 13.182 24.6182Z" fill="#2DBFE8"/>
<path d="M13.182 24.6182C13.182 24.6182 11.7937 25.0515 11.5107 25.6351C11.2366 26.2275 10.1224 28.2614 10.1224 28.2614C10.1224 28.2614 3.87059 31.5509 3.56109 32.3556C3.2516 33.1602 0.56341 49.6873 0.811006 50.6423C1.0586 51.5973 4.21546 55.7446 4.21546 55.7446L3.87943 57.9995C3.87943 57.9995 5.20584 60.9972 7.49611 61.74C9.78638 62.4827 10.5292 62.1379 10.5292 62.1379L11.0509 56.9737C11.0509 56.9737 12.4127 56.6023 12.9079 54.0645C13.4031 51.5266 14.7914 45.8938 14.8267 44.3198C14.8533 42.7369 15.0743 37.6081 14.5172 35.6893C13.9602 33.7704 13.3412 30.3659 13.5269 29.4994C13.7126 28.6328 12.5365 26.7493 12.5365 26.7493C12.5365 26.7493 13.0582 26.2275 13.182 24.6182Z" stroke="#0D94C9" stroke-width="0.213349" stroke-miterlimit="10" stroke-linecap="round"/>
<path d="M3.56152 32.3555C3.56152 32.3555 5.88716 33.7173 6.47963 36.3878" stroke="#0D94C9" stroke-width="0.213349" stroke-miterlimit="10" stroke-linecap="round"/>
<path d="M11.502 25.6437C11.502 25.6437 12.1386 26.2627 12.4923 26.864C12.4923 26.864 13.0936 25.7144 13.0936 24.6533C13.0936 24.6533 11.838 25.1839 11.502 25.6437Z" fill="#1148B7"/>
<path d="M20.3982 27.0501C20.3982 27.0501 20.9376 25.7768 21.4416 25.3612C21.4416 25.3612 21.0083 24.3973 19.5316 24.6272C19.5316 24.6272 19.3636 26.2897 20.3982 27.0501Z" fill="#1148B7"/>
<path d="M29.9562 30.5957C29.9562 30.5957 28.0462 31.9929 28.0462 37.104C28.0462 42.2151 27.8428 48.4315 27.8428 48.4315" stroke="#0D94C9" stroke-width="0.213349" stroke-miterlimit="10" stroke-linecap="round"/>
<path d="M26.667 49.1123C26.667 49.1123 29.3287 51.6679 29.6205 55.8416" stroke="#0D94C9" stroke-width="0.213349" stroke-miterlimit="10" stroke-linecap="round"/>
<path d="M12.8815 24.7069C12.8815 24.7069 11.6877 24.3974 10.7416 25.5469C9.79539 26.6965 9.93687 26.838 9.1764 27.4835C8.41592 28.129 8.57509 29.1194 9.26483 29.8091C9.95456 30.4988 11.8911 31.3301 13.2706 31.5158C14.6501 31.7015 16.1268 31.8606 16.2417 32.5061L17.4355 32.5769C17.4355 32.5769 17.0199 30.0832 15.6935 29.3228C14.3671 28.5623 12.9699 27.5984 13.2264 25.2463" fill="#EBF4FF"/>
<path d="M18.461 25.0163C18.461 25.0163 19.7344 25.9183 19.9466 26.9529C20.15 27.9875 18.8943 28.6949 18.4256 28.8364C17.957 28.9779 17.0992 29.5615 16.8516 30.4104C16.604 31.2593 17.6121 32.4442 17.6121 32.4442C17.6121 32.4442 17.8155 31.1355 19.9731 30.8083C22.1308 30.4811 23.4925 28.7037 23.5986 27.9609C23.7048 27.2182 23.3068 26.5107 22.3518 25.821C21.3968 25.1313 21.5029 24.4769 20.8132 24.2116C20.1235 23.9552 18.6202 23.9375 18.6202 23.9375" fill="#EBF4FF"/>
<path d="M12.6956 24.733C12.6956 24.733 11.4488 24.344 10.485 25.8649C9.5211 27.3859 9.93671 26.6431 9.00823 27.66C8.08858 28.6769 9.19392 30.1448 11.2189 30.976C12.4038 31.4624 13.5888 31.4535 14.4907 31.5685" stroke="#191708" stroke-width="0.191215" stroke-miterlimit="10" stroke-linecap="round" stroke-linejoin="round"/>
<path d="M13.3945 26.926C13.3945 26.926 13.7659 28.447 15.1896 28.9952C16.6133 29.5435 16.7548 30.7019 16.7548 30.7019C16.7548 30.7019 17.0731 29.2251 18.3641 28.8626C19.6552 28.4912 20.0708 27.3858 19.8851 26.7934C19.6994 26.1921 19.0539 25.5996 19.0539 25.5996" stroke="#191708" stroke-width="0.191215" stroke-miterlimit="10" stroke-linecap="round" stroke-linejoin="round"/>
<path d="M17.6738 32.3117C17.6738 32.3117 18.0894 31.0648 19.3805 30.888C20.6715 30.7023 23.1121 29.7826 23.5277 28.1291C23.9433 26.4755 22.1925 26.0599 21.7326 25.1402C21.2728 24.2206 20.026 23.7784 19.2036 24.2383" stroke="#191708" stroke-width="0.191215" stroke-miterlimit="10" stroke-linecap="round" stroke-linejoin="round"/>
<path d="M10.7676 27.1299C10.7676 27.1299 10.8118 28.4651 14.6761 29.7562" stroke="#191708" stroke-width="0.191215" stroke-miterlimit="10" stroke-linecap="round" stroke-linejoin="round"/>
<path d="M28.0726 39.8809C28.0726 39.8809 24.6947 40.8536 19.2741 41.11C19.2475 42.5248 19.2387 44.2757 19.2829 46.0266C22.1037 45.8939 25.1633 45.5048 28.1079 44.6559L28.0726 39.8809Z" fill="#0D94C9"/>
<path d="M14.8887 41.1453C12.8018 41.0746 9.53001 40.5794 7.11595 40.208C7.11595 40.208 6.68265 42.9316 6.35547 44.9123C6.35547 44.9123 10.4231 45.8674 14.5969 46.0354C14.7295 45.3014 14.8091 44.709 14.818 44.3287C14.8357 43.7009 14.8799 42.4894 14.8887 41.1453Z" fill="#0D94C9"/>
<path d="M7.24822 39.1289L5.77148 48.3872" stroke="#0D94C9" stroke-width="0.213349" stroke-miterlimit="10" stroke-linecap="round"/>
<path d="M7.31083 48.7236C7.31083 48.7236 4.88792 52.0131 4.20703 55.7536" stroke="#0D94C9" stroke-width="0.213349" stroke-miterlimit="10" stroke-linecap="round"/>
<path d="M4.87012 46.9727L6.62098 49.7316" stroke="#0D94C9" stroke-width="0.213349" stroke-miterlimit="10" stroke-linecap="round"/>
<path d="M9.83082 15.6163C9.83082 15.6163 9.59206 14.1926 11.7232 12.3976C13.8631 10.5936 17.2764 10.8324 19.832 11.7344L19.434 13.2111L20.1149 12.6275C20.1149 12.6275 21.2468 13.9185 21.0169 15.6517C20.787 17.3849 20.4244 18.95 20.4244 18.95C20.4244 18.95 19.1599 13.9273 15.8439 14.7055C12.519 15.4837 10.7239 16.7836 10.7239 16.7836L10.9008 21.5675C10.9008 21.5675 8.96423 18.9942 8.67242 18.0569C8.25681 16.7217 9.83082 15.6163 9.83082 15.6163Z" fill="#002E6D"/>
<path d="M10.5561 20.0997C10.5561 20.0997 8.99094 18.4903 8.25699 20.0554C7.46115 21.7532 11.0778 23.4068 11.0778 23.4068" fill="#FAC8BB"/>
<path d="M19.5576 19.3218C19.5576 19.3218 20.663 17.3676 21.7683 18.694C22.9709 20.1353 19.8848 22.6467 19.8848 22.6467" fill="#F38F6F"/>
<path d="M9.8311 20.1349C9.8311 20.1349 9.17674 19.6132 8.7965 20.1879C8.41627 20.7627 9.07063 21.2402 9.07063 21.2402" stroke="#FF7F66" stroke-width="0.278688" stroke-miterlimit="10" stroke-linecap="round"/>
<path d="M16.8524 26.8468L16.0919 26.9264C13.218 27.2182 10.5917 24.7069 10.2557 21.3555L9.98157 18.6319C9.68976 15.7669 11.4671 13.2202 13.9166 12.9726L15.4287 12.8222C17.887 12.5746 20.133 14.7146 20.416 17.5796L20.7785 21.1875C21.0792 24.0525 19.3107 26.5992 16.8524 26.8468Z" fill="#FAC8BB"/>
<path d="M11.3164 24.4238C11.3164 24.4238 13.138 27.3773 16.569 26.8202" stroke="#FF7F66" stroke-width="0.278688" stroke-miterlimit="10" stroke-linecap="round"/>
<path d="M20.5576 19.3125C20.5576 19.3125 20.363 16.7747 19.1339 16.0938C19.1339 16.0938 17.666 16.9515 15.0132 17.1991C12.5195 17.4379 12.1923 17.3583 11.5203 17.0223C11.3081 16.9162 10.9809 16.7305 10.9809 16.7305L11.423 17.6766C11.423 17.6766 10.2204 20.1968 10.4149 22.0361L8.82324 18.331L11.1666 13.9008L15.1458 11.584L17.3653 12.4683L21.0085 15.4306" fill="#002E6D"/>
<path d="M14.215 21.6543C14.5826 21.5748 14.8061 21.1659 14.7142 20.7411C14.6223 20.3163 14.2498 20.0363 13.8823 20.1158C13.5147 20.1953 13.2913 20.6042 13.3832 21.029C13.4751 21.4538 13.8475 21.7338 14.215 21.6543Z" fill="white"/>
<path d="M14.2017 21.4538C14.4833 21.3929 14.6547 21.0804 14.5845 20.7558C14.5143 20.4312 14.2291 20.2175 13.9474 20.2784C13.6658 20.3393 13.4944 20.6518 13.5646 20.9764C13.6348 21.301 13.92 21.5147 14.2017 21.4538Z" fill="#213469"/>
<path d="M12.7671 18.455C13.112 18.2516 14.1024 17.7741 14.3854 18.3312C14.6153 18.7734 13.4215 19.0033 12.9705 19.0386C12.5196 19.074 12.3515 18.7026 12.7671 18.455Z" fill="#002E6D"/>
<path d="M18.4223 20.8171C18.7698 20.6734 18.9167 20.2312 18.7506 19.8296C18.5844 19.428 18.168 19.219 17.8206 19.3627C17.4731 19.5065 17.3261 19.9486 17.4923 20.3502C17.6584 20.7519 18.0748 20.9609 18.4223 20.8171Z" fill="white"/>
<path d="M18.2992 20.6969C18.5655 20.5868 18.6784 20.2487 18.5514 19.9419C18.4245 19.635 18.1057 19.4755 17.8395 19.5857C17.5732 19.6959 17.4603 20.0339 17.5873 20.3408C17.7143 20.6476 18.033 20.8071 18.2992 20.6969Z" fill="#213469"/>
<path d="M18.462 17.4729C18.0641 17.4021 16.9764 17.2872 16.8969 17.915C16.835 18.4102 18.0287 18.2157 18.4709 18.1007C18.913 17.9681 18.9395 17.5613 18.462 17.4729Z" fill="#002E6D"/>
<path d="M16.2156 21.002C16.7462 21.506 17.4183 22.3814 16.7462 23.1596C16.6401 23.2834 16.4367 23.2392 16.3925 23.08L15.8796 21.2053C15.8266 21.0108 16.0653 20.8605 16.2156 21.002Z" fill="#FF8D76"/>
<path d="M14.8184 23.8838C14.8184 23.8838 15.4373 24.83 16.7461 24.3436" stroke="#FF7F66" stroke-width="0.278688" stroke-miterlimit="10" stroke-linecap="round"/>
<path d="M10.0958 15.6609C10.0958 15.6609 8.85782 15.4133 8.30957 16.0588" stroke="#002E6D" stroke-width="0.300167" stroke-miterlimit="10" stroke-linecap="round"/>
<g style="mix-blend-mode:overlay">
<path d="M23.2275 13.432C23.8424 13.432 24.3412 13.9307 24.3412 14.5456C24.3412 13.9307 24.8399 13.432 25.4548 13.432C24.8399 13.432 24.3412 12.9333 24.3412 12.3184C24.3412 12.9333 23.8424 13.432 23.2275 13.432Z" fill="#002E6D"/>
</g>
<g style="mix-blend-mode:overlay">
<path d="M22.2725 31.5687C22.8874 31.5687 23.3861 32.0675 23.3861 32.6824C23.3861 32.0675 23.8848 31.5687 24.4997 31.5687C23.8848 31.5687 23.3861 31.07 23.3861 30.4551C23.3861 31.07 22.8874 31.5687 22.2725 31.5687Z" fill="#002E6D"/>
</g>
<g style="mix-blend-mode:overlay">
<path d="M18.4541 9.61417C20.4729 9.61417 22.1132 11.2545 22.1132 13.2733C22.1132 11.2545 23.7535 9.61417 25.7723 9.61417C23.7535 9.61417 22.1132 7.97389 22.1132 5.95508C22.1132 7.97389 20.4729 9.61417 18.4541 9.61417Z" fill="#002E6D"/>
</g>
<g style="mix-blend-mode:overlay">
<path d="M45.1816 41.1137C46.6738 41.1137 47.8862 42.3261 47.8862 43.8183C47.8862 42.3261 49.0986 41.1137 50.5907 41.1137C49.0986 41.1137 47.8862 39.9013 47.8862 38.4092C47.8862 39.9013 46.6738 41.1137 45.1816 41.1137Z" fill="#002E6D"/>
</g>
<g style="mix-blend-mode:overlay">
<path d="M44.2275 45.0913C44.7542 45.0913 45.1821 45.5192 45.1821 46.0458C45.1821 45.5192 45.61 45.0913 46.1366 45.0913C45.61 45.0913 45.1821 44.6634 45.1821 44.1367C45.1821 44.6634 44.7542 45.0913 44.2275 45.0913Z" fill="#002E6D"/>
</g>
<rect x="29.6006" y="9.44531" width="15.1782" height="18.5855" rx="1.27273" transform="rotate(-2.53912 29.6006 9.44531)" fill="#E7EBEE"/>
<rect x="28.9541" y="8.85352" width="15.1782" height="18.5855" rx="1.27273" transform="rotate(-2.53912 28.9541 8.85352)" fill="white"/>
<g clip-path="url(#clip1_2158_645386)">
<path d="M31.7916 18.362C31.5584 17.4911 31.6134 16.5682 31.9482 15.7311C32.283 14.894 32.8798 14.1878 33.6492 13.7179C34.4187 13.248 35.3195 13.0398 36.2171 13.1243C37.1147 13.2088 37.9609 13.5816 38.6291 14.1868C39.2973 14.792 39.7517 15.5972 39.9244 16.4821C40.0971 17.367 39.9789 18.284 39.5872 19.096C39.1956 19.9081 38.5517 20.5717 37.7518 20.9875C36.9519 21.4033 36.0388 21.5491 35.1492 21.4031C34.5144 21.7403 33.8216 22.0701 33.5027 22.2201C33.4211 22.2583 33.3315 22.2762 33.2416 22.272C33.1516 22.2678 33.064 22.2418 32.9863 22.1962C32.9087 22.1506 32.8433 22.0868 32.7958 22.0103C32.7484 21.9338 32.7202 21.8468 32.7139 21.757C32.6895 21.4119 32.6419 20.6706 32.6272 19.9684C32.2342 19.5008 31.9488 18.9523 31.7916 18.362ZM34.4918 15.2214C34.2881 15.412 34.1538 15.6596 34.0825 15.9594C34.0613 16.0654 34.082 16.1755 34.1403 16.2665C34.1985 16.3576 34.2898 16.4225 34.3949 16.4476C34.5 16.4727 34.6108 16.4561 34.7039 16.4013C34.7971 16.3464 34.8653 16.2576 34.8943 16.1535C34.9345 15.9871 34.9964 15.8933 35.0629 15.8316C35.1319 15.7664 35.2345 15.7107 35.3932 15.6682C35.5137 15.6359 35.6665 15.6405 35.7932 15.6982C35.9054 15.7488 36.0178 15.8478 36.075 16.0614C36.1031 16.1663 36.0758 16.2255 35.8579 16.5161C35.6669 16.7714 35.3667 17.1827 35.5301 17.7926C35.5588 17.8996 35.6288 17.9908 35.7247 18.0462C35.8206 18.1016 35.9346 18.1166 36.0416 18.0879C36.1486 18.0593 36.2398 17.9893 36.2952 17.8934C36.3505 17.7974 36.3655 17.6835 36.3369 17.5765C36.2835 17.3775 36.346 17.2576 36.5259 17.0168L36.5622 16.9696C36.7274 16.7536 37.0223 16.3696 36.8818 15.8452C36.7596 15.3891 36.4771 15.0901 36.1379 14.9366C35.8355 14.8031 35.4966 14.7766 35.177 14.8614C34.9323 14.927 34.6918 15.0341 34.4918 15.2214ZM36.8677 19.0195C36.8294 18.8769 36.7361 18.7553 36.6082 18.6814C36.4803 18.6076 36.3283 18.5876 36.1857 18.6258C36.043 18.664 35.9214 18.7573 35.8476 18.8852C35.7737 19.0131 35.7537 19.1651 35.792 19.3078C35.8302 19.4504 35.9235 19.572 36.0514 19.6459C36.1793 19.7197 36.3313 19.7397 36.4739 19.7015C36.6166 19.6633 36.7382 19.5699 36.812 19.442C36.8859 19.3142 36.9059 19.1622 36.8677 19.0195ZM36.9966 21.8673C37.9275 22.3604 39.0107 22.4821 40.0278 22.208C40.601 22.0552 41.1348 21.7817 41.5935 21.4057C42.313 21.3801 43.0811 21.3184 43.4341 21.2872C43.524 21.2793 43.6106 21.2497 43.6863 21.2009C43.7621 21.152 43.8249 21.0854 43.8691 21.0068C43.9134 20.9282 43.9378 20.8401 43.9403 20.7499C43.9427 20.6598 43.9232 20.5704 43.8833 20.4895C43.6204 19.9546 43.346 19.4254 43.0603 18.9022C43.1622 18.3261 43.142 17.735 43.001 17.1672C42.8599 16.5994 42.6012 16.0675 42.2416 15.606C41.8819 15.1446 41.4293 14.7638 40.9131 14.4884C40.3969 14.2129 39.8286 14.049 39.2451 14.0072C39.8172 14.6044 40.2228 15.3411 40.4215 16.144C40.6202 16.9468 40.605 17.7876 40.3776 18.5828C40.1501 19.3779 39.7183 20.0996 39.1251 20.6759C38.5318 21.2521 37.798 21.6629 36.9966 21.8673Z" fill="#007BE0"/>
</g>
</g>
<defs>
<clipPath id="clip0_2158_645386">
<rect y="0.227539" width="56" height="56" rx="28" fill="white"/>
</clipPath>
<clipPath id="clip1_2158_645386">
<rect width="13.3636" height="13.3636" fill="white" transform="translate(29.2031 13.0029) rotate(-15)"/>
</clipPath>
</defs>
</svg>
