<svg width="70" height="70" viewBox="0 0 70 70" fill="none" xmlns="http://www.w3.org/2000/svg">
<g filter="url(#filter0_d_1893_418494)">
<rect x="15" y="10" width="40" height="40" rx="20" fill="white"/>
<path d="M29 21V24M29 27V24M29 24H32M29 24H26" stroke="#0055B8" stroke-width="2" stroke-linecap="round" stroke-linejoin="round"/>
<path fill-rule="evenodd" clip-rule="evenodd" d="M35 24H40C40.2652 24 40.5196 24.1054 40.7071 24.2929C40.8946 24.4804 41 24.7348 41 25C41 25.2652 40.8946 25.5196 40.7071 25.7071C40.5196 25.8946 40.2652 26 40 26H34.659C34.3976 26.7377 33.9944 27.4172 33.472 28H40C40.2652 28 40.5196 28.1054 40.7071 28.2929C40.8946 28.4804 41 28.7348 41 29C41 29.2652 40.8946 29.5196 40.7071 29.7071C40.5196 29.8946 40.2652 30 40 30H30C29.9028 30.0001 29.8061 29.9859 29.713 29.958C28.8669 30.0606 28.0086 29.9811 27.1958 29.7248C26.3829 29.4685 25.6342 29.0414 25 28.472V37C25 37.7956 25.3161 38.5587 25.8787 39.1213C26.4413 39.6839 27.2044 40 28 40H37V35C37 34.2044 37.3161 33.4413 37.8787 32.8787C38.4413 32.3161 39.2044 32 40 32H45V23C45 22.2044 44.6839 21.4413 44.1213 20.8787C43.5587 20.3161 42.7956 20 42 20H33.472C34.4578 21.0989 35.002 22.5237 35 24ZM39 39.883C39.4886 39.7427 39.9335 39.4804 40.293 39.121L44.121 35.293C44.4804 34.9335 44.7427 34.4886 44.883 34H40C39.7348 34 39.4804 34.1054 39.2929 34.2929C39.1054 34.4804 39 34.7348 39 35V39.883ZM29 33C29 32.7348 29.1054 32.4804 29.2929 32.2929C29.4804 32.1054 29.7348 32 30 32H34C34.2652 32 34.5196 32.1054 34.7071 32.2929C34.8946 32.4804 35 32.7348 35 33C35 33.2652 34.8946 33.5196 34.7071 33.7071C34.5196 33.8946 34.2652 34 34 34H30C29.7348 34 29.4804 33.8946 29.2929 33.7071C29.1054 33.5196 29 33.2652 29 33Z" fill="#0055B8"/>
</g>
<defs>
<filter id="filter0_d_1893_418494" x="0" y="0" width="70" height="70" filterUnits="userSpaceOnUse" color-interpolation-filters="sRGB">
<feFlood flood-opacity="0" result="BackgroundImageFix"/>
<feColorMatrix in="SourceAlpha" type="matrix" values="0 0 0 0 0 0 0 0 0 0 0 0 0 0 0 0 0 0 127 0" result="hardAlpha"/>
<feOffset dy="5"/>
<feGaussianBlur stdDeviation="7.5"/>
<feComposite in2="hardAlpha" operator="out"/>
<feColorMatrix type="matrix" values="0 0 0 0 0 0 0 0 0 0 0 0 0 0 0 0 0 0 0.15 0"/>
<feBlend mode="normal" in2="BackgroundImageFix" result="effect1_dropShadow_1893_418494"/>
<feBlend mode="normal" in="SourceGraphic" in2="effect1_dropShadow_1893_418494" result="shape"/>
</filter>
</defs>
</svg>
