<svg width="20" height="20" viewBox="0 0 20 20" fill="none" xmlns="http://www.w3.org/2000/svg">
<path d="M19.8756 1.78686C20.0152 1.368 19.9062 0.906198 19.594 0.593995C19.2818 0.281793 18.82 0.172778 18.4011 0.312398L1.09192 6.08214C0.653375 6.22832 0.342649 6.61983 0.29987 7.08011C0.257091 7.54039 0.490344 7.98246 0.894435 8.20696L6.19316 11.1507C6.64811 11.4034 7.2155 11.324 7.58351 10.956L11.3515 7.18797C11.8067 6.73275 12.5448 6.73275 13 7.18797C13.4552 7.64319 13.4552 8.38125 13 8.83647L9.23201 12.6045C8.864 12.9725 8.78453 13.5399 9.03728 13.9948L11.981 19.2936C12.2055 19.6976 12.6476 19.9309 13.1079 19.8881C13.5682 19.8453 13.9597 19.5346 14.1059 19.0961L19.8756 1.78686Z" fill="#0055B8"/>
</svg>
