<svg width="24" height="24" viewBox="0 0 24 24" fill="none" xmlns="http://www.w3.org/2000/svg">
<path d="M2 11V19.5C2 19.7763 2.22375 20 2.5 20H5V10H3C2.44781 10 2 10.4478 2 11ZM13.25 9.5H12.5V8.25C12.5 8.11188 12.3881 8 12.25 8H11.75C11.6119 8 11.5 8.11188 11.5 8.25V10.25C11.5 10.3881 11.6119 10.5 11.75 10.5H13.25C13.3881 10.5 13.5 10.3881 13.5 10.25V9.75C13.5 9.61188 13.3881 9.5 13.25 9.5ZM17.5547 7.50125L12.5547 4.16782C12.3904 4.05839 12.1974 4 12 4C11.8026 4 11.6096 4.05839 11.4453 4.16782L6.44531 7.50125C6.30836 7.59256 6.19606 7.71625 6.11838 7.86137C6.0407 8.00648 6.00004 8.16853 6 8.33313V20H10V15.5C10 15.2238 10.2238 15 10.5 15H13.5C13.7762 15 14 15.2238 14 15.5V20H18V8.33344C18 7.99906 17.8328 7.68656 17.5547 7.50125ZM12 12C10.6194 12 9.5 10.8806 9.5 9.5C9.5 8.11938 10.6194 7 12 7C13.3806 7 14.5 8.11938 14.5 9.5C14.5 10.8806 13.3806 12 12 12ZM21 10H19V20H21.5C21.7763 20 22 19.7763 22 19.5V11C22 10.4478 21.5522 10 21 10Z" fill="#0055B8"/>
</svg>
