<svg width="32" height="32" viewBox="0 0 32 32" fill="none" xmlns="http://www.w3.org/2000/svg">
<rect width="32" height="32" rx="16" fill="#D6EBFF"/>
<rect width="32.0004" height="32.0004" rx="16.0002" fill="#D6EBFF"/>
<path d="M24.0004 24.0004L19.9504 19.9504M19.9504 19.9504C20.6004 19.3003 21.116 18.5286 21.4678 17.6793C21.8196 16.83 22.0007 15.9197 22.0007 15.0004C22.0007 14.0811 21.8196 13.1708 21.4678 12.3214C21.116 11.4721 20.6004 10.7004 19.9504 10.0504C19.3003 9.40031 18.5286 8.88467 17.6793 8.53287C16.83 8.18107 15.9197 8 15.0004 8C14.0811 8 13.1708 8.18107 12.3214 8.53287C11.4721 8.88467 10.7004 9.40031 10.0504 10.0504C8.73754 11.3632 8 13.1437 8 15.0004C8 16.857 8.73754 18.6375 10.0504 19.9504C11.3632 21.2632 13.1437 22.0007 15.0004 22.0007C16.857 22.0007 18.6375 21.2632 19.9504 19.9504V19.9504Z" stroke="#0055B8" stroke-width="2" stroke-linecap="round" stroke-linejoin="round"/>
</svg>
