<svg width="56" height="57" viewBox="0 0 56 57" fill="none" xmlns="http://www.w3.org/2000/svg">
<g clip-path="url(#clip0_2158_645442)">
<path d="M11.2766 62.8681C4.96318 59.5347 -1.44098 54.7644 -4.27584 48.2028C-7.0713 41.5952 -6.30395 33.1373 -3.45846 25.926C-0.61297 18.7148 -0.925088 8.39447 4.94736 5.2777C10.8198 2.16092 23.1713 3.26359 28.3229 6.24054C34.7101 9.93146 35.2953 18.2901 41.3664 21.2822C47.4374 24.2284 58.347 25.296 61.6682 30.5125C64.9894 35.729 64.2166 39.9745 60.3821 45.3747C56.5936 50.729 49.941 53.4587 44.4354 57.1397C38.8904 60.8602 34.4466 65.4861 29.133 66.8182C23.8194 68.1502 17.5901 66.2014 11.2766 62.8681Z" fill="#9AD719"/>
<path opacity="0.8" d="M35.6322 25.0104C39.0839 28.2104 42.3482 32.341 43.0339 37.0033C43.6866 41.6881 41.7547 46.9433 38.7122 51.05C35.6697 55.1567 34.1074 61.7821 29.8359 62.7649C25.5644 63.7477 17.887 60.9379 15.1143 58.1631C11.6766 54.7228 12.7302 49.3 9.37462 46.3586C6.01117 43.4465 -0.75401 40.9051 -1.97891 37.0164C-3.20382 33.1278 -1.98723 30.556 1.37608 27.7714C4.70229 25.0081 9.40457 24.405 13.5387 23.0003C17.7047 21.5772 21.324 19.3896 24.935 19.448C28.5461 19.5065 32.1805 21.8104 35.6322 25.0104Z" fill="#C3EC6B"/>
<path opacity="0.8" d="M27.7336 45.5201C26.6882 50.1094 24.7432 55.0017 21.0483 57.9266C17.3175 60.8343 11.8004 61.7888 6.72265 61.2073C1.64488 60.6257 -4.87402 62.5855 -7.86088 59.3776C-10.8477 56.1698 -12.2531 48.116 -11.2364 44.3274C-9.97583 39.6302 -4.75277 37.8312 -3.88328 33.4545C-3.04305 29.0856 -4.2247 21.9561 -1.46947 18.951C1.28577 15.9458 4.12125 15.7135 8.21449 17.2339C12.2706 18.7329 15.1441 22.5036 18.4277 25.3816C21.7431 28.2779 25.4473 30.3184 27.2022 33.4749C28.9571 36.6314 28.779 40.9308 27.7336 45.5201Z" fill="#EFFFCF"/>
<path d="M40.6826 35.1219C39.9133 35.0069 39.8249 34.2553 39.9398 33.8309C40.0283 33.5125 40.2405 32.7167 40.0283 32.6106C39.4181 32.3099 38.861 33.7071 38.861 33.7071C37.8352 36.1565 38.2067 37.368 38.2067 37.368L36.5 39.1011L40.8418 41.4356L43.5653 39.0127C43.9721 38.6502 44.3258 38.2257 44.6176 37.7482L45.8998 35.6436C46.1474 35.2634 46.2624 34.8036 46.2182 34.3526L46.0148 32.4249C45.9706 31.965 45.5726 31.629 45.1217 31.6379L44.0694 31.6732C43.8041 31.6821 43.5477 31.8059 43.3797 32.0093L40.6826 35.1219Z" fill="url(#paint0_linear_2158_645442)"/>
<path d="M45.8821 32.4072L42.46 36.749" stroke="#FF7F66" stroke-width="0.263938" stroke-miterlimit="10" stroke-linecap="round"/>
<path d="M46.0414 33.9727L43.5654 37.439" stroke="#FF7F66" stroke-width="0.263938" stroke-miterlimit="10" stroke-linecap="round"/>
<path d="M44.5563 31.7617L41.5586 35.6437" stroke="#FF7F66" stroke-width="0.263938" stroke-miterlimit="10" stroke-linecap="round"/>
<path d="M15.7461 27.6591C15.7461 27.6591 17.0814 27.4822 18.2575 28.9413C19.4335 30.4003 20.6538 30.2588 20.6892 31.8152L14.9856 32.16L13.8096 29.6664" fill="#EBF4FF"/>
<path d="M12.1909 27.1553C12.1909 27.1553 8.19398 26.9431 7.34507 28.4021C6.49617 29.8612 4.66572 29.1272 5.06364 31.5236L16.3028 33.5486" fill="#EBF4FF"/>
<path d="M24.633 33.9639L31.716 43.6555L37.3577 37.8458C37.3577 37.8458 38.7283 38.4825 39.4092 38.9865C41.2308 40.3395 41.6729 41.6128 41.6729 41.6128C41.6729 41.6128 36.5265 47.732 34.6253 49.925C33.3696 51.3664 30.9644 51.8616 29.5407 50.5617L24.1201 45.5567" fill="#2DBFE8"/>
<path d="M20.3 60.8016C20.3707 60.8105 20.6006 75.9404 20.7068 82.7847C20.7421 84.9335 20.185 87.0557 19.1062 88.9127L4.04704 112.655L-2.57617 108.517L9.54721 84.5974L4.48917 60.1119L14.508 51.4902L20.3 60.8016Z" fill="#002E6D"/>
<path d="M7.16794 39.6856C7.16794 39.9421 5.64699 52.5253 5.64699 52.5253L12.111 65.2588C11.4743 66.4614 10.2806 67.5491 8.94533 68.6102C8.94533 68.6102 7.29173 67.2307 7.19446 64.3126C7.19446 64.3126 -0.145004 56.4514 -0.905479 54.3911C-1.65711 52.3219 0.420931 38.2266 0.420931 38.2266L7.16794 39.6856Z" fill="#FBC6B6"/>
<path d="M12.5448 32.92L16.6479 32.584L16.3295 27.2783L12.2354 27.6232L12.5448 32.92Z" fill="#FAC8BB"/>
<path d="M9.52075 29.879C9.52075 29.879 4.35659 29.8171 0.527684 34.1588C0.527684 34.1588 -1.44424 46.353 -1.57688 52.4721C-1.60341 53.6659 -1.20548 54.8331 -0.436165 55.8058L6.58496 64.6574C6.58496 64.6574 9.65339 63.8262 10.6615 61.5448" fill="#2DBFE8"/>
<path d="M12.368 60.1208C12.368 60.1208 19.3626 61.4472 24.3852 59.5725C24.3852 59.5725 24.2526 36.2896 17.2049 29.2066C17.2049 29.2066 15.6044 29.012 15.5071 30.7717C15.4894 31.0635 15.3745 31.4173 15.2949 31.7091C15.2418 31.8948 14.9412 31.9301 14.8262 31.7621C14.5079 31.2669 13.942 30.5595 13.208 30.3208C12.0231 29.9405 10.396 29.6841 9.49406 29.8875C8.59211 30.082 7.5752 35.0428 7.5752 35.0428L12.368 60.1208Z" fill="#EBF4FF"/>
<path d="M14.7996 44.0096C13.65 37.4218 11.7223 32.0984 10.8469 29.8789C5.59427 29.9408 3.63119 32.6025 3.63119 32.6025L3.57812 52.1449L4.81611 63.7731C4.81611 63.7731 3.88762 65.1349 3.88762 66.1341C3.88762 67.2129 4.54199 67.7523 4.54199 67.7523C5.58543 65.1703 8.6008 64.6574 10.5904 64.0561C12.1114 63.5963 13.5262 65.0022 15.339 66.196C15.8253 66.5144 16.5062 66.1872 16.4885 65.6389C16.2851 59.6878 15.8076 49.8193 14.7996 44.0096Z" fill="#2DBFE8"/>
<path d="M26.5158 48.581C26.5158 48.581 25.8084 35.8298 24.6765 33.9375C23.5447 32.0451 19.477 30.9221 19.477 30.9221L17.9561 30.7275C18.3186 31.8948 18.7784 33.3892 19.362 35.2727C21.387 41.8429 22.8991 55.6906 23.7304 63.5076C23.7657 63.8524 24.146 64.0646 24.4997 63.9408C26.0295 63.4191 27.1436 62.9416 27.1436 62.9416C27.1436 62.9416 27.4974 62.3049 27.4974 61.288C27.4974 60.28 26.5158 48.581 26.5158 48.581Z" fill="#2DBFE8"/>
<path d="M11.7577 60.9168L4.37402 51.2871" stroke="#0D94C9" stroke-width="0.233996" stroke-miterlimit="10" stroke-linecap="round"/>
<path d="M6.65578 37.8457L5.28516 52.5777" stroke="#0D94C9" stroke-width="0.233996" stroke-miterlimit="10" stroke-linecap="round"/>
<path d="M8.02643 39.2783L6.4082 41.0999" stroke="#0D94C9" stroke-width="0.233996" stroke-miterlimit="10" stroke-linecap="round"/>
<path d="M24.5352 35.8916C25.5609 39.4022 26.5867 50.3848 26.5867 50.3848" stroke="#0D94C9" stroke-width="0.233996" stroke-miterlimit="10" stroke-linecap="round"/>
<path d="M5.00195 30.8956C5.00195 30.8956 7.85815 29.8522 10.5906 31.6207C13.3318 33.3893 13.9596 34.8395 13.9596 34.8395L14.8439 33.3539C14.8439 33.3539 12.2088 28.8972 9.84776 28.3047" fill="#EBF4FF"/>
<path d="M17.4082 29.9229L18.1156 33.5926C18.4163 31.5411 19.893 30.8867 19.893 30.8867" fill="#EBF4FF"/>
<path d="M14.2431 41.1621C12.0501 41.3832 9.45028 41.507 6.35533 41.4451L5.89551 46.8038C5.89551 46.8038 10.2992 47.5554 15.2511 47.1752C15.1096 46.0345 14.9593 44.9645 14.7913 44.0095C14.6321 43.0279 14.4376 42.0818 14.2431 41.1621Z" fill="#0D94C9"/>
<path d="M25.0048 37.457C25.0048 37.457 23.9967 38.9426 20.5127 39.9949C20.8841 41.8165 21.229 43.8326 21.5561 45.9372C23.2539 45.3271 24.6423 44.7346 25.8891 43.532L25.0048 37.457Z" fill="#0D94C9"/>
<path d="M1.46484 33.7603C1.46484 33.7603 3.63131 33.1855 4.83392 35.069" stroke="#0D94C9" stroke-width="0.233996" stroke-miterlimit="10" stroke-linecap="round"/>
<path d="M13.0488 36.5547C13.0488 36.5547 15.9581 45.8572 16.073 56.8664" stroke="#0D94C9" stroke-width="0.233996" stroke-miterlimit="10" stroke-linecap="round"/>
<path d="M13.1905 33.725C13.1905 33.725 9.09633 29.1887 4.9933 31.0191C4.9933 31.0191 4.88719 29.958 5.76262 29.5601C6.63805 29.1621 6.753 28.9057 7.59306 28.0214C8.43312 27.146 10.8826 27.0664 10.8826 27.0664" stroke="#191708" stroke-width="0.211332" stroke-miterlimit="10" stroke-linecap="round" stroke-linejoin="round"/>
<path d="M16.374 27.7744C16.374 27.7744 17.2848 27.7921 18.0895 28.7825C18.8942 29.7729 20.4328 30.2858 20.6097 31.3822L19.6547 31.002C19.6547 31.002 18.5936 31.6033 18.1337 32.9739" stroke="#191708" stroke-width="0.211332" stroke-miterlimit="10" stroke-linecap="round" stroke-linejoin="round"/>
<path d="M10.8555 29.2949C10.8555 29.2949 10.9085 29.7901 11.8459 29.8962C12.7743 30.0023 14.4103 30.2499 14.9939 32.16" stroke="#191708" stroke-width="0.211332" stroke-miterlimit="10" stroke-linecap="round" stroke-linejoin="round"/>
<path d="M17.4702 20.2043C17.4702 20.2043 19.2918 18.3032 19.8489 20.2043C20.406 22.1055 16.9131 23.6972 16.9131 23.6972" fill="#FF8D76"/>
<path d="M17.6826 15.9244L19.6634 15.5088C19.6634 15.5088 19.8933 17.7902 18.6023 20.3369" fill="#002E6D"/>
<path d="M15.003 27.7739L14.2425 27.8535C11.351 28.1453 8.71582 25.7578 8.38864 22.539L8.12336 19.9215C7.84923 17.1715 9.64431 14.7132 12.1203 14.4656L13.6501 14.3153C16.126 14.0677 18.3809 16.1103 18.6551 18.8604L19.0088 22.3179C19.274 25.068 17.4701 27.5263 15.003 27.7739Z" fill="#FAC8BB"/>
<path d="M15.4367 20.6111C16.0557 21.0797 16.8604 21.9198 16.2325 22.8218C16.1353 22.9632 15.9142 22.9367 15.8523 22.7775L15.1007 20.8675C15.0299 20.6641 15.2687 20.4784 15.4367 20.6111Z" fill="#FF8D76"/>
<path d="M17.0272 21.168C17.4256 21.1277 17.7112 20.7249 17.665 20.2681C17.6189 19.8114 17.2585 19.4738 16.8601 19.514C16.4617 19.5543 16.1761 19.9572 16.2222 20.4139C16.2683 20.8706 16.6287 21.2082 17.0272 21.168Z" fill="white"/>
<path d="M16.8922 21.1337C17.1983 21.1028 17.4178 20.7941 17.3824 20.4443C17.3471 20.0945 17.0703 19.8359 16.7642 19.8669C16.4581 19.8978 16.2386 20.2064 16.2739 20.5563C16.3093 20.9061 16.5861 21.1646 16.8922 21.1337Z" fill="#213469"/>
<path d="M13.1902 21.6367C13.5887 21.5965 13.8742 21.1936 13.8281 20.7369C13.782 20.2802 13.4216 19.9425 13.0232 19.9828C12.6247 20.023 12.3392 20.4259 12.3853 20.8826C12.4314 21.3394 12.7918 21.677 13.1902 21.6367Z" fill="white"/>
<path d="M13.0562 21.6025C13.3623 21.5716 13.5818 21.2629 13.5465 20.9131C13.5112 20.5632 13.2344 20.3047 12.9283 20.3356C12.6222 20.3665 12.4027 20.6752 12.438 21.025C12.4733 21.3749 12.7501 21.6334 13.0562 21.6025Z" fill="#213469"/>
<path d="M11.8464 18.295C12.2355 18.1182 13.3231 17.7379 13.5619 18.3569C13.7476 18.8521 12.4742 18.9494 11.9967 18.9317C11.5104 18.9229 11.3777 18.5073 11.8464 18.295Z" fill="#002E6D"/>
<path d="M17.9561 18.0819C17.5758 17.8874 16.5147 17.4452 16.2406 18.0465C16.0284 18.5329 17.2929 18.6921 17.7792 18.7097C18.2567 18.7274 18.4071 18.3207 17.9561 18.0819Z" fill="#002E6D"/>
<path d="M10.6524 16.924C10.6524 16.924 15.2064 17.7641 18.5755 16.3846C18.5755 16.3846 19.84 15.014 20.1583 13.2366C20.1583 13.2366 11.6428 9.29271 8.88382 15.4915C8.88382 15.4915 6.93842 15.4915 6.69083 16.9417C6.44323 18.3919 7.33634 20.6468 8.55664 23.0608L10.0953 17.4988L9.36133 16.7737L10.6524 16.924Z" fill="#002E6D"/>
<path d="M8.69791 20.6292C8.69791 20.6292 7.04432 18.9314 6.275 20.585C5.43494 22.38 9.25501 24.1221 9.25501 24.1221" fill="#FAC8BB"/>
<path d="M9.28191 15.7391C9.28191 15.7391 8.55681 14.678 7.08008 15.3589" stroke="#002E6D" stroke-width="0.331744" stroke-miterlimit="10" stroke-linecap="round"/>
<path d="M9.29102 25.2188C9.29102 25.2188 11.2187 28.3402 14.8442 27.7566" stroke="#FF7F66" stroke-width="0.294419" stroke-miterlimit="10" stroke-linecap="round"/>
<path d="M7.92914 20.673C7.92914 20.673 7.23057 20.1248 6.83264 20.7261C6.43472 21.3274 7.12446 21.8403 7.12446 21.8403" stroke="#FF7F66" stroke-width="0.294419" stroke-miterlimit="10" stroke-linecap="round"/>
<path d="M13.5967 23.4414C13.5967 23.4414 14.1449 24.5025 15.5686 24.14" stroke="#FF7F66" stroke-width="0.294419" stroke-miterlimit="10" stroke-linecap="round"/>
<rect x="34.8184" y="9.88867" width="15.1782" height="18.5855" rx="1.27273" transform="rotate(6.78021 34.8184 9.88867)" fill="#E7EBEE"/>
<rect x="34.1992" y="9.26953" width="15.1782" height="18.5855" rx="1.27273" transform="rotate(6.78021 34.1992 9.26953)" fill="white"/>
<rect x="29.6006" y="9.44531" width="15.1782" height="18.5855" rx="1.27273" transform="rotate(-2.53912 29.6006 9.44531)" fill="#E7EBEE"/>
<rect x="28.9541" y="8.85352" width="15.1782" height="18.5855" rx="1.27273" transform="rotate(-2.53912 28.9541 8.85352)" fill="white"/>
<rect x="32.4512" y="25.2188" width="9.02434" height="1.27273" rx="0.636364" transform="rotate(-92.5391 32.4512 25.2188)" fill="#007BE0"/>
<rect x="35.3154" y="24.959" width="12.2785" height="1.27273" rx="0.636364" transform="rotate(-92.5391 35.3154 24.959)" fill="#007BE0"/>
<rect x="38.0889" y="24.7559" width="5.17741" height="1.27273" rx="0.636364" transform="rotate(-92.5391 38.0889 24.7559)" fill="#007BE0"/>
<rect x="40.9795" y="24.4443" width="9.60768" height="1.27273" rx="0.636364" transform="rotate(-92.5391 40.9795 24.4443)" fill="#007BE0"/>
<g style="mix-blend-mode:overlay">
<path d="M23.2275 13.432C23.8424 13.432 24.3412 13.9307 24.3412 14.5456C24.3412 13.9307 24.8399 13.432 25.4548 13.432C24.8399 13.432 24.3412 12.9333 24.3412 12.3184C24.3412 12.9333 23.8424 13.432 23.2275 13.432Z" fill="#002E6D"/>
</g>
<g style="mix-blend-mode:overlay">
<path d="M22.2725 31.5687C22.8874 31.5687 23.3861 32.0675 23.3861 32.6824C23.3861 32.0675 23.8848 31.5687 24.4997 31.5687C23.8848 31.5687 23.3861 31.07 23.3861 30.4551C23.3861 31.07 22.8874 31.5687 22.2725 31.5687Z" fill="#002E6D"/>
</g>
<g style="mix-blend-mode:overlay">
<path d="M18.4541 9.61417C20.4729 9.61417 22.1132 11.2545 22.1132 13.2733C22.1132 11.2545 23.7535 9.61417 25.7723 9.61417C23.7535 9.61417 22.1132 7.97389 22.1132 5.95508C22.1132 7.97389 20.4729 9.61417 18.4541 9.61417Z" fill="#002E6D"/>
</g>
<g style="mix-blend-mode:overlay">
<path d="M45.1816 41.1137C46.6738 41.1137 47.8862 42.3261 47.8862 43.8183C47.8862 42.3261 49.0986 41.1137 50.5907 41.1137C49.0986 41.1137 47.8862 39.9013 47.8862 38.4092C47.8862 39.9013 46.6738 41.1137 45.1816 41.1137Z" fill="#002E6D"/>
</g>
<g style="mix-blend-mode:overlay">
<path d="M44.2275 45.0913C44.7542 45.0913 45.1821 45.5192 45.1821 46.0458C45.1821 45.5192 45.61 45.0913 46.1366 45.0913C45.61 45.0913 45.1821 44.6634 45.1821 44.1367C45.1821 44.6634 44.7542 45.0913 44.2275 45.0913Z" fill="#002E6D"/>
</g>
</g>
<defs>
<linearGradient id="paint0_linear_2158_645442" x1="44.3852" y1="38.0888" x2="38.7594" y2="33.5929" gradientUnits="userSpaceOnUse">
<stop offset="0.8704" stop-color="#FAC8BB"/>
<stop offset="0.9615" stop-color="#FAC8BB"/>
</linearGradient>
<clipPath id="clip0_2158_645442">
<rect y="0.227539" width="56" height="56" rx="28" fill="white"/>
</clipPath>
</defs>
</svg>
