<svg width="56" height="57" viewBox="0 0 56 57" fill="none" xmlns="http://www.w3.org/2000/svg">
<g clip-path="url(#clip0_2158_645360)">
<path d="M11.2766 62.8681C4.96318 59.5347 -1.44098 54.7644 -4.27584 48.2028C-7.0713 41.5952 -6.30395 33.1373 -3.45846 25.926C-0.61297 18.7148 -0.925088 8.39447 4.94736 5.2777C10.8198 2.16092 23.1713 3.26359 28.3229 6.24054C34.7101 9.93146 35.2953 18.2901 41.3664 21.2822C47.4374 24.2284 58.347 25.296 61.6682 30.5125C64.9894 35.729 64.2166 39.9745 60.3821 45.3747C56.5936 50.729 49.941 53.4587 44.4354 57.1397C38.8904 60.8602 34.4466 65.4861 29.133 66.8182C23.8194 68.1502 17.5901 66.2014 11.2766 62.8681Z" fill="#9AD719"/>
<path opacity="0.8" d="M35.6322 25.0104C39.0839 28.2104 42.3482 32.341 43.0339 37.0033C43.6866 41.6881 41.7547 46.9433 38.7122 51.05C35.6697 55.1567 34.1074 61.7821 29.8359 62.7649C25.5644 63.7477 17.887 60.9379 15.1143 58.1631C11.6766 54.7228 12.7302 49.3 9.37462 46.3586C6.01117 43.4465 -0.75401 40.9051 -1.97891 37.0164C-3.20382 33.1278 -1.98723 30.556 1.37608 27.7714C4.70229 25.0081 9.40457 24.405 13.5387 23.0003C17.7047 21.5772 21.324 19.3896 24.935 19.448C28.5461 19.5065 32.1805 21.8104 35.6322 25.0104Z" fill="#C3EC6B"/>
<path opacity="0.8" d="M27.7336 45.5201C26.6882 50.1094 24.7432 55.0017 21.0483 57.9266C17.3175 60.8343 11.8004 61.7888 6.72265 61.2073C1.64488 60.6257 -4.87402 62.5855 -7.86088 59.3776C-10.8477 56.1698 -12.2531 48.116 -11.2364 44.3274C-9.97583 39.6302 -4.75277 37.8312 -3.88328 33.4545C-3.04305 29.0856 -4.2247 21.9561 -1.46947 18.951C1.28577 15.9458 4.12125 15.7135 8.21449 17.2339C12.2706 18.7329 15.1441 22.5036 18.4277 25.3816C21.7431 28.2779 25.4473 30.3184 27.2022 33.4749C28.9571 36.6314 28.779 40.9308 27.7336 45.5201Z" fill="#EFFFCF"/>
<path d="M17.0024 15.1773C17.0024 15.1773 13.5626 14.3637 10.9098 17.3526C8.25696 20.3414 9.29156 23.7724 8.11547 25.6647C6.97476 27.504 5.98438 28.2468 5.98438 28.2468C5.98438 28.2468 10.5561 31.1295 13.5538 31.1561C16.5603 31.1914 15.8087 31.5628 15.8087 31.5628C15.8087 31.5628 21.1762 31.5275 24.2358 30.5017C24.2358 30.5017 22.7414 26.9823 23.0243 24.2941C23.2985 21.6148 22.6971 18.2634 21.0259 17.0342" fill="#002E6D"/>
<path d="M4.69269 56.3046C4.69269 56.3046 3.14522 67.4111 4.22403 73.8309C5.30284 80.2507 5.4797 85.2204 5.4178 87.8378C5.36474 90.3315 5.71845 103.153 6.48777 106.443C6.54967 106.699 6.77074 106.876 7.02718 106.903C7.97335 106.973 10.3432 107.044 12.2179 106.328C12.5097 106.213 12.7042 105.93 12.6954 105.621C12.6246 102.897 12.3063 89.8805 12.5097 88.9166C12.7396 87.8467 12.5627 87.3691 12.5627 86.5379C12.5627 85.7067 12.7926 68.6579 12.9606 68.6579C13.1287 68.6579 13.5266 68.6579 13.5885 69.0116C13.6415 69.3653 13.7565 86.3611 13.7565 86.8386C13.7565 87.3161 13.9864 89.0404 13.9864 89.8097C13.9864 90.4818 13.8538 102.083 13.8272 105.09C13.8184 105.514 14.1102 105.877 14.517 105.974C15.64 106.24 17.9833 107.053 19.4866 106.708C19.8668 106.62 20.141 106.293 20.1498 105.904C20.2205 104.285 20.4593 99.3687 20.9722 95.2126C21.6 90.1634 20.9014 87.3691 21.0164 86.8386C21.1313 86.308 21.2286 84.9197 21.0606 84.7959C20.8926 84.6809 23.1829 75.0247 23.5454 72.2569C25.1371 60.107 21.5469 55.9951 21.5469 55.9951C21.5469 55.9951 21.3612 56.3754 13.4735 56.5522C5.58581 56.7114 4.69269 56.3046 4.69269 56.3046Z" fill="#558AF0"/>
<path d="M26.2247 57.5513L27.7015 57.0738C27.9402 57.0031 28.0729 56.7643 28.0021 56.5432C27.9402 56.3399 27.7192 56.2161 27.4892 56.2691L26.2336 56.5609C26.0833 56.5963 25.9506 56.7024 25.8976 56.8439L25.7207 57.3214" fill="#F38F6F"/>
<path d="M5.66572 54.0938L5.36506 54.1645C4.7107 55.9419 2.72993 64.6343 4.14477 73.8749C5.26779 81.2321 5.40044 85.3174 5.34738 87.9349C5.29432 90.4374 5.83373 103.056 6.50578 106.381C6.64726 107.106 7.66418 106.964 7.66418 106.964C7.66418 106.964 6.28471 93.4085 6.50578 89.3497C6.72685 85.2909 6.52346 79.5608 5.48002 72.6812C4.63996 67.1368 6.08133 57.9138 6.86833 54.6332C5.83373 54.3856 5.87794 54.306 5.66572 54.0938Z" fill="#EBF4FF"/>
<path d="M19.1335 55.1641C19.8498 56.7292 21.8925 61.522 22.0693 65.8726C22.2904 71.1606 19.0274 82.6915 19.6022 85.079C20.1858 87.4666 19.3811 101.244 18.8771 104.215C18.3819 107.115 19.107 106.708 19.1689 106.753C19.1689 106.753 20.2212 106.602 20.1858 105.806C20.1151 104.188 20.4865 99.5015 21.0082 95.3278C21.636 90.252 20.9375 87.4489 21.0524 86.9183C21.1674 86.3877 21.2646 84.9906 21.0966 84.8668C20.9286 84.7518 23.2277 75.0514 23.5903 72.2747C24.9963 61.4335 21.3177 55.2525 21.1585 55.0049C21.1497 55.0226 20.9198 55.0845 19.1335 55.1641Z" fill="#EBF4FF"/>
<path d="M21.1582 54.9961C21.1582 54.9961 21.1582 54.9961 21.167 55.0049C21.167 54.9961 21.1582 54.9961 21.1582 54.9961Z" fill="#EBF4FF"/>
<path d="M4.69273 55.8896C4.69273 55.8896 3.25136 67.8892 4.13563 73.7431C5.10833 80.1806 5.47973 85.0441 5.41783 87.6616C5.36477 90.1287 5.67427 102.323 6.44359 106.311C6.51433 106.673 6.82382 106.948 7.19522 106.965C8.26519 107.018 10.5201 107.018 12.3063 106.302C12.5451 106.205 12.6954 105.966 12.6866 105.71C12.6247 103.172 12.3063 89.8811 12.5097 88.9173C12.7396 87.8473 12.5628 87.3698 12.5628 86.5386C12.5628 85.7073 12.7927 68.6586 12.9607 68.6586C13.1287 68.6586 13.5266 68.6586 13.5885 69.0123C13.6416 69.366 13.7565 86.3617 13.7565 86.8392C13.7565 87.3167 13.9864 89.0411 13.9864 89.8104C13.9864 90.4824 13.8538 102.199 13.8273 105.135C13.8184 105.533 14.0837 105.895 14.4639 106.019C15.5781 106.382 17.9038 107.027 19.4336 106.762C19.8669 106.682 20.194 106.302 20.2029 105.86C20.2559 104.153 20.4505 99.3959 20.9457 95.3282C21.5735 90.279 20.928 87.3521 21.0429 86.8215C21.1579 86.291 21.2817 84.8142 21.1137 84.6904C20.9457 84.5666 23.2271 74.7866 23.6073 72.0276C25.0664 61.4871 21.8476 56.4025 21.8476 56.4025C21.8476 56.4025 21.379 56.3583 13.4824 56.544C5.58584 56.712 4.69273 55.8896 4.69273 55.8896Z" stroke="#1148B7" stroke-width="0.205417" stroke-miterlimit="10" stroke-linecap="round"/>
<path d="M12.988 28.9102L12.4751 32.1731L11.6351 31.784C11.6351 31.784 10.4944 35.1178 13.9253 35.498C17.3563 35.8782 18.3644 32.7214 18.3644 32.7214L17.3563 32.7037L17.4005 29.4938" fill="#FBC6B6"/>
<path d="M-0.418379 54.9427L-0.45375 54.0584C-0.462593 53.855 -0.303423 53.6782 -0.0911978 53.6693C0.103342 53.6605 0.271354 53.802 0.297882 53.9965L0.439366 55.0665C0.457052 55.1991 0.403995 55.3318 0.297882 55.4114L-0.0558273 55.6855" fill="#F38F6F"/>
<path d="M4.51587 51.1582L4.98454 52.5554L1.77463 56.2428C1.5624 56.4904 1.23522 56.5965 0.916882 56.5257L-0.0204477 56.3224C-0.268044 56.2693 -0.48027 56.1101 -0.595226 55.8891L-1.4176 54.3504C-1.5414 54.1205 -1.42644 53.8376 -1.17885 53.758C-0.96662 53.6872 -0.727866 53.7845 -0.621753 53.979L0.059137 55.1816L2.32288 52.5642L4.51587 51.1582Z" fill="#FBC6B6"/>
<path d="M22.2635 51.6006L21.3262 53.3957L24.147 57.3926C24.3327 57.6579 24.651 57.7993 24.9694 57.764L25.9244 57.6579C26.172 57.6313 26.4019 57.4898 26.5434 57.2865L27.5161 55.8451C27.6576 55.6329 27.578 55.3411 27.3392 55.235C27.1358 55.1465 26.8883 55.2084 26.7645 55.3941L25.9686 56.526L23.979 53.6963L22.2635 51.6006Z" fill="#FBC6B6"/>
<path d="M12.059 31.8719C12.059 31.8719 8.37157 29.9442 6.61187 30.7843C4.85216 31.6243 -4.12321 39.4236 -5.21087 41.1037C-6.30737 42.775 1.91638 52.838 1.91638 52.838L4.68415 51.1579L0.99673 43.1906L5.52421 40.0868C5.52421 40.0868 6.86831 47.2141 5.27661 50.9015C4.60457 52.449 4.23317 53.4659 4.02979 54.1291C3.82641 54.7746 3.86178 55.4732 4.1359 56.0833C4.33928 56.5343 4.72836 56.8792 5.20587 57.0207C6.44385 57.392 9.0613 58.011 12.2358 57.7723C16.6837 57.4363 20.2827 57.7723 20.2827 57.7723L22.0336 56.4193C22.3254 56.1983 22.4669 55.8357 22.405 55.4732C22.0336 53.2536 20.9283 45.2687 23.5103 42.4655L29.5941 46.1176C29.5941 46.1176 24.0232 49.9818 22.2547 51.6531L24.3681 54.2617C24.3681 54.2617 32.5299 50.8926 33.874 48.9649C34.2896 48.3725 34.6433 47.8596 34.944 47.4263C35.5453 46.5597 35.4745 45.3836 34.7671 44.5966C33.1843 42.8369 30.3192 39.7066 27.9229 37.3102C24.4034 33.7908 23.0594 32.5263 20.7956 32.4467C18.5319 32.3671 18.0278 32.6943 18.0278 32.6943C18.0278 32.6943 16.9137 34.9315 14.4819 34.5955C12.0413 34.286 12.059 31.8719 12.059 31.8719Z" fill="#EBF4FF"/>
<path d="M12.0595 31.9432C12.0595 31.9432 8.37207 30.0155 6.61237 30.8555C4.85266 31.6956 -4.12271 39.4949 -5.21037 41.1662C-6.29802 42.8463 1.91688 52.9093 1.91688 52.9093L4.68465 51.2292L0.997231 43.2619L5.52471 40.1581C5.52471 40.1581 6.86881 47.2853 5.27711 50.9728C4.45474 52.8828 4.0745 53.9793 3.90649 54.5983C3.79154 55.0139 3.82691 55.4649 4.00376 55.8628L4.29557 56.5083C4.39284 56.7294 4.57854 56.8974 4.79961 56.9681C5.78115 57.2953 8.65504 58.1177 12.2363 57.8436C15.7292 57.5783 18.7004 57.7286 19.8146 57.8082C20.1241 57.8259 20.4247 57.7375 20.6635 57.5518L21.6981 56.7559C22.1933 56.3757 22.432 55.7567 22.3436 55.1465C21.928 52.4937 21.0702 45.1985 23.5197 42.5456L29.6035 46.1977C29.6035 46.1977 23.7938 50.1416 22.0341 51.8217L24.3067 54.3684C24.3067 54.3684 32.5393 50.9816 33.8745 49.0539C34.2901 48.4614 34.6438 47.9486 34.9445 47.5153C35.5458 46.6487 35.4751 45.4726 34.7676 44.6856C33.1848 42.9259 30.3197 39.7956 27.9234 37.3992C24.404 33.8798 23.0599 32.6153 20.7961 32.5357C18.5324 32.4561 18.0283 32.7833 18.0283 32.7833C18.0283 32.7833 16.8523 35.0028 14.4205 34.6668C11.9711 34.3307 12.0595 31.9432 12.0595 31.9432Z" stroke="#191708" stroke-width="0.205417" stroke-miterlimit="10" stroke-linecap="round"/>
<path d="M1.47415 44.2439L0.262695 41.7148" stroke="#191708" stroke-width="0.205417" stroke-miterlimit="10" stroke-linecap="round"/>
<path d="M4.55176 36.2764C4.55176 36.2764 5.3476 39.0265 5.61289 40.7773" stroke="#191708" stroke-width="0.205417" stroke-miterlimit="10" stroke-linecap="round"/>
<path d="M24.1471 41.8467C24.1471 41.8467 23.4485 42.5099 22.918 43.3765" stroke="#191708" stroke-width="0.205417" stroke-miterlimit="10" stroke-linecap="round"/>
<path d="M11.2278 31.625C11.2278 31.625 10.8388 35.2859 14.031 35.728C17.798 36.2497 19.1509 32.6154 19.1509 32.6154" stroke="#191708" stroke-width="0.205417" stroke-miterlimit="10"/>
<path d="M18.6736 56.1108L16.4541 54.1123" stroke="#191708" stroke-width="0.205417" stroke-miterlimit="10" stroke-linecap="round"/>
<path d="M19.6466 55.2703L19.4697 54.0234" stroke="#191708" stroke-width="0.205417" stroke-miterlimit="10" stroke-linecap="round"/>
<path d="M6.12598 55.6236L6.97488 54.2441" stroke="#191708" stroke-width="0.205417" stroke-miterlimit="10" stroke-linecap="round"/>
<path d="M30.7349 45.4727L28.8779 46.6753" stroke="#191708" stroke-width="0.205417" stroke-miterlimit="10" stroke-linecap="round"/>
<path d="M22.8828 51.167L25.2527 53.9171" stroke="#191708" stroke-width="0.205417" stroke-miterlimit="10" stroke-linecap="round"/>
<path d="M4.22425 50.2832L1.22656 51.9633" stroke="#191708" stroke-width="0.205417" stroke-miterlimit="10" stroke-linecap="round"/>
<path d="M10.2556 30.4668C10.2556 30.4668 9.38899 32.8632 12.1833 40.4414C14.9776 48.0196 13.2444 67.0669 12.652 68.464C12.652 68.464 5.45397 71.78 2.80999 70.2237C2.80999 70.2237 0.431297 60.2845 1.2802 57.4902C1.53664 56.6413 3.91533 52.3172 3.91533 52.3172L1.72234 53.0246C1.72234 53.0246 -4.63559 47.4802 -6.16538 44.624C-7.69518 41.7678 -6.36877 40.1673 -6.36877 40.1673C-6.36877 40.1673 -1.7617 35.7813 -0.116952 33.9862C1.5278 32.1911 4.69349 30.9531 5.73694 30.2634C6.78038 29.5737 10.2556 30.4668 10.2556 30.4668Z" fill="#F89E1C"/>
<path d="M28.3383 37.1777C28.3383 37.1777 23.0238 44.4907 19.1596 46.2858C15.8524 47.8244 16.1177 59.7444 16.2591 63.1135C16.2768 63.6087 15.9408 68.5694 16.436 68.5518C18.3637 68.5075 23.5013 70.3203 25.208 69.551C25.208 69.551 25.0842 59.4084 25.0223 57.9493C24.9515 56.4903 23.8108 55.1196 23.8108 55.1196C23.8108 55.1196 26.2691 55.323 29.1961 54.0585C32.123 52.794 35.5805 51.1316 36.173 46.4096C36.4294 44.4995 30.9381 39.0436 28.3383 37.1777Z" fill="#F89E1C"/>
<path d="M1.28015 36.7451C2.6773 34.614 7.6646 33.4821 7.6646 33.4821C7.62038 31.855 7.28436 30.6436 7.06329 29.998C6.51504 29.998 6.02869 30.0688 5.73688 30.2633C4.69344 30.9531 1.52774 32.191 -0.117007 33.9861C-1.75291 35.7812 -6.35998 40.1672 -6.35998 40.1672C-6.35998 40.1672 -7.68639 41.7589 -6.15659 44.6239C-4.6268 47.4801 1.73112 53.0245 1.73112 53.0245L3.00448 52.6089C2.70383 51.9103 1.89029 50.3363 0.4224 49.3725C-0.983594 48.4528 -3.37113 45.1368 -4.5649 43.4036C-4.91861 42.8908 -4.63564 42.1922 -4.02549 42.0595C-4.03434 42.0595 -0.117006 38.8673 1.28015 36.7451Z" fill="#EBF4FF"/>
<path d="M28.2676 41.9533C28.2676 41.9533 31.5217 45.2075 32.5917 46.7373C33.6616 48.2671 33.4583 51.4593 33.4583 51.4593C33.4583 51.4593 35.3241 49.9295 35.6513 48.2671C35.6513 48.2671 34.0596 42.5281 28.8335 39.5039" fill="#EBF4FF"/>
<path d="M10.1579 30.4659C10.1579 30.4659 9.29133 32.8622 12.0856 40.4405C14.8799 48.0187 13.1468 67.0659 12.5543 68.4631C12.5543 68.4631 5.35631 71.7791 2.71234 70.2228C2.71234 70.2228 0.598922 59.9475 1.18254 57.4893C1.38593 56.6315 3.81768 52.3163 3.81768 52.3163L1.62468 53.0237C1.62468 53.0237 -4.73325 47.4793 -6.26304 44.6231C-7.79283 41.7669 -6.46642 40.1663 -6.46642 40.1663C-6.46642 40.1663 -1.85936 35.7804 -0.214609 33.9853C1.43014 32.1902 4.59584 30.9522 5.63928 30.2625C6.67388 29.5816 10.1579 30.4659 10.1579 30.4659Z" stroke="#D57E02" stroke-width="0.205417" stroke-miterlimit="10" stroke-linecap="round"/>
<path d="M28.2416 37.1777C28.2416 37.1777 22.9272 44.4907 19.0629 46.2858C15.7557 47.8244 16.021 59.7444 16.1625 63.1135C16.1801 63.6087 15.8441 68.5694 16.3393 68.5518C18.267 68.5075 23.4047 70.3203 25.1113 69.551C25.1113 69.551 25.0229 59.2492 24.961 57.7813C24.8991 56.3134 23.7142 55.1196 23.7142 55.1196C23.7142 55.1196 26.1724 55.323 29.0994 54.0585C32.0263 52.794 35.4838 51.1316 36.0763 46.4096C36.3239 44.4995 30.8326 39.0436 28.2416 37.1777Z" stroke="#D57E02" stroke-width="0.205417" stroke-miterlimit="10" stroke-linecap="round"/>
<path d="M7.38965 30.8818C7.38965 30.8818 8.40656 40.5469 7.83179 43.3766C7.83179 43.3766 11.5104 46.5688 12.5715 49.8937" stroke="#D57E02" stroke-width="0.205417" stroke-miterlimit="10" stroke-linecap="round"/>
<path d="M23.7227 55.1289L23.7934 48.7002" stroke="#D57E02" stroke-width="0.205417" stroke-miterlimit="10" stroke-linecap="round"/>
<path d="M23.3423 43.209C23.3423 43.209 23.3423 45.5612 23.1655 45.9149C22.9886 46.2686 23.6518 48.0902 26.225 48.2228" stroke="#D57E02" stroke-width="0.205417" stroke-miterlimit="10" stroke-linecap="round"/>
<path d="M27.1894 46.9226C27.1894 46.9226 26.0487 46.4893 25.7127 46.843C25.3767 47.1967 25.3148 48.4347 24.961 48.6823C24.6073 48.9299 24.1387 49.1068 24.1387 49.1068" stroke="#D57E02" stroke-width="0.205417" stroke-miterlimit="10" stroke-linecap="round"/>
<path d="M16.3564 53.6702C16.3564 53.6702 20.7424 45.8886 27.7901 42.8644C27.7901 42.8644 28.922 40.6714 28.922 39.1416" stroke="#D57E02" stroke-width="0.205417" stroke-miterlimit="10" stroke-linecap="round"/>
<path d="M21.7949 49.8145C21.7949 49.8145 22.1486 51.9898 24.3239 52.7414" stroke="#D57E02" stroke-width="0.205417" stroke-miterlimit="10" stroke-linecap="round"/>
<path d="M19.7788 53.2191C20.0087 53.9353 20.8753 56.2344 23.0771 57.6935C23.1656 57.7465 23.2717 57.7465 23.3601 57.6935L23.6784 57.4901C23.8465 57.384 23.8376 57.1452 23.6696 57.048C22.8914 56.6058 21.1671 55.3767 20.5835 52.9449C20.5481 52.7858 20.3801 52.7062 20.2298 52.7681L19.9291 52.9007C19.7965 52.9626 19.7346 53.0953 19.7788 53.2191Z" fill="#D57E02"/>
<path d="M7.08089 53.2191C6.85098 53.9353 5.98439 56.2344 3.78255 57.6935C3.69412 57.7465 3.58801 57.7465 3.49958 57.6935L3.18125 57.4901C3.01323 57.384 3.02208 57.1452 3.19009 57.048C3.96825 56.6058 5.69258 55.3767 6.2762 52.9449C6.31157 52.7858 6.47959 52.7062 6.62991 52.7681L6.93056 52.9007C7.06321 52.9626 7.1251 53.0953 7.08089 53.2191Z" fill="#D57E02"/>
<path d="M3.96822 41.2188C3.96822 41.2188 2.96899 43.0138 1.64258 42.9431" stroke="#D57E02" stroke-width="0.205417" stroke-miterlimit="10" stroke-linecap="round"/>
<path d="M-4.48535 42.183C-4.48535 42.183 -1.42577 41.4314 0.652276 42.9347C2.73916 44.4379 3.13709 46.7459 4.72878 47.6302C6.32047 48.5144 3.81798 52.3168 3.81798 52.3168" stroke="#D57E02" stroke-width="0.205417" stroke-miterlimit="10" stroke-linecap="round"/>
<path d="M3.8883 47.5059C3.8883 47.5059 2.56189 47.948 1.53613 48.8765" stroke="#D57E02" stroke-width="0.205417" stroke-miterlimit="10" stroke-linecap="round"/>
<path d="M6.01914 46.1357C6.01914 46.1357 5.53279 48.8858 4.95801 50.0354" stroke="#D57E02" stroke-width="0.205417" stroke-miterlimit="10" stroke-linecap="round"/>
<path d="M21.9102 39.6367L24.1208 41.8562" stroke="#191708" stroke-width="0.205417" stroke-miterlimit="10" stroke-linecap="round"/>
<path d="M20.8398 40.4053C20.8398 40.4053 21.9717 41.0685 22.5023 41.1657" stroke="#191708" stroke-width="0.205417" stroke-miterlimit="10" stroke-linecap="round"/>
<path d="M12.8018 51.0703C12.8018 51.0703 13.1997 54.1299 12.9344 57.384" stroke="#D57E02" stroke-width="0.205417" stroke-miterlimit="10" stroke-linecap="round"/>
<path d="M2.47363 37.5674C2.47363 37.5674 4.23334 38.6639 4.26871 40.4943" stroke="#D57E02" stroke-width="0.205417" stroke-miterlimit="10" stroke-linecap="round"/>
<path d="M4.99414 40.3876C4.99414 40.3876 5.78999 40.1224 5.99337 39.5918" stroke="#D57E02" stroke-width="0.205417" stroke-miterlimit="10" stroke-linecap="round"/>
<path d="M15.9408 14.9213C15.9408 14.9213 16.5156 14.4526 16.2061 13.418C15.8966 12.3834 14.7029 11.5522 13.2438 12.2685C11.5018 13.1174 10.7236 12.7637 10.7236 12.7637C10.7236 12.7637 10.8474 15.3988 13.5798 15.611" fill="#002E6D"/>
<path d="M13.606 15.8323C13.606 15.8323 13.4822 15.0453 13.7475 14.727C14.0128 14.4175 16.3826 13.5597 17.0547 15.3725" fill="#F89E1C"/>
<path d="M14.7644 30.2637L14.7202 30.2548C11.9347 29.6447 10.1573 26.8592 10.7675 24.0737L11.7932 19.3959C12.4034 16.6105 15.1888 14.8331 17.9743 15.4432L18.0185 15.4521C20.804 16.0622 22.5813 18.8477 21.9712 21.6332L20.9454 26.311C20.3265 29.0964 17.5498 30.8738 14.7644 30.2637Z" fill="#FAC8BB"/>
<path d="M17.1166 23.7643C17.4968 24.3125 17.9213 25.2057 17.1785 25.7716C17.0635 25.86 16.8867 25.7804 16.8778 25.6301L16.7717 23.8792C16.7629 23.6935 17.0105 23.6051 17.1166 23.7643Z" fill="#FF8D76"/>
<path d="M12.3373 23.8595C12.5878 22.6097 12.0727 21.4526 11.1868 21.2751C10.3009 21.0975 9.37976 21.9668 9.12929 23.2165C8.87883 24.4663 9.39392 25.6234 10.2798 25.8009C11.1657 25.9785 12.0868 25.1092 12.3373 23.8595Z" fill="#FAC8BB"/>
<path d="M10.5732 21.8984C10.5732 21.8984 11.3691 21.9957 11.3072 23.4017" stroke="#FF7F66" stroke-width="0.248003" stroke-miterlimit="10" stroke-linecap="round" stroke-linejoin="round"/>
<path d="M14.1104 22.5791L14.6232 22.8798" stroke="#002E6D" stroke-width="0.422143" stroke-miterlimit="10" stroke-linecap="round"/>
<path d="M15.3241 23.5249C15.3604 23.0525 15.07 22.6451 14.6756 22.6148C14.2811 22.5845 13.932 22.9429 13.8957 23.4153C13.8595 23.8876 14.1498 24.2951 14.5443 24.3253C14.9387 24.3556 15.2878 23.9972 15.3241 23.5249Z" fill="white"/>
<path d="M15.2163 23.508C15.2459 23.1233 15.0093 22.7915 14.6879 22.7668C14.3665 22.7421 14.082 23.034 14.0525 23.4187C14.023 23.8034 14.2596 24.1352 14.581 24.1599C14.9023 24.1846 15.1868 23.8927 15.2163 23.508Z" fill="#002E6D"/>
<path d="M19.9205 23.3398L19.3457 23.5255" stroke="#002E6D" stroke-width="0.422143" stroke-miterlimit="10" stroke-linecap="round"/>
<path d="M19.9463 24.2024C20.0167 23.7339 19.7566 23.3066 19.3654 23.2478C18.9742 23.1891 18.6001 23.5212 18.5297 23.9897C18.4594 24.4581 18.7195 24.8855 19.1107 24.9443C19.5018 25.003 19.876 24.6709 19.9463 24.2024Z" fill="white"/>
<path d="M19.7844 24.172C19.8417 23.7904 19.6297 23.4423 19.311 23.3945C18.9922 23.3466 18.6874 23.6171 18.6301 23.9986C18.5728 24.3802 18.7848 24.7283 19.1035 24.7761C19.4223 24.824 19.7271 24.5535 19.7844 24.172Z" fill="#002E6D"/>
<path d="M13.9865 21.1821C14.4993 21.0229 15.3394 20.8726 15.7727 21.412C15.8258 21.4827 15.755 21.5623 15.6577 21.5358C15.3836 21.465 14.8707 21.3589 14.0484 21.3501C13.9246 21.3501 13.8715 21.2174 13.9865 21.1821Z" fill="#002E6D"/>
<path d="M20.5298 22.4817C20.1319 22.1191 19.4333 21.6328 18.8143 21.9423C18.7348 21.9865 18.7701 22.0838 18.8674 22.1014C19.1415 22.1457 19.6544 22.2695 20.406 22.6055C20.5122 22.6585 20.6094 22.5613 20.5298 22.4817Z" fill="#002E6D"/>
<path d="M11.484 19.3428C10.7413 20.793 11.8731 23.2424 11.8731 23.2424L13.907 20.7665L11.484 19.3428Z" fill="#002E6D"/>
<path d="M22.7314 24.2153C22.7314 24.2153 24.7917 17.5567 19.0351 15.576C14.4988 14.0108 12.9159 15.912 12.35 16.7786C10.9263 18.9716 10.8556 20.6429 10.8379 21.2619C10.8379 21.2972 12.9778 21.8543 12.9778 21.8543L15.498 18.8478L22.7314 24.2153Z" fill="#002E6D"/>
<path d="M15.4984 18.8477L14.3135 17.875L15.0121 19.6966" fill="#FAC8BB"/>
<path d="M15.6042 30.3428C15.6042 30.3428 13.6765 30.5993 11.9521 28.7246" stroke="#FF7F66" stroke-width="0.248003" stroke-miterlimit="10" stroke-linecap="round" stroke-linejoin="round"/>
<path d="M14.0225 25.957C14.0225 25.957 14.9244 27.9024 17.2235 27.3453" stroke="#FF7F66" stroke-width="0.248003" stroke-miterlimit="10" stroke-linecap="round" stroke-linejoin="round"/>
<rect x="38.375" y="11.0898" width="15.1782" height="18.5855" rx="1.27273" transform="rotate(12.7337 38.375 11.0898)" fill="#E7EBEE"/>
<rect x="37.8232" y="10.4092" width="15.1782" height="18.5855" rx="1.27273" transform="rotate(12.7337 37.8232 10.4092)" fill="white"/>
<rect x="34.8184" y="9.88867" width="15.1782" height="18.5855" rx="1.27273" transform="rotate(6.78021 34.8184 9.88867)" fill="#E7EBEE"/>
<rect x="34.1992" y="9.26953" width="15.1782" height="18.5855" rx="1.27273" transform="rotate(6.78021 34.1992 9.26953)" fill="white"/>
<rect x="29.6006" y="9.44531" width="15.1782" height="18.5855" rx="1.27273" transform="rotate(-2.53912 29.6006 9.44531)" fill="#E7EBEE"/>
<rect x="28.9541" y="8.85352" width="15.1782" height="18.5855" rx="1.27273" transform="rotate(-2.53912 28.9541 8.85352)" fill="white"/>
<g style="mix-blend-mode:overlay">
<path d="M23.2275 13.432C23.8424 13.432 24.3412 13.9307 24.3412 14.5456C24.3412 13.9307 24.8399 13.432 25.4548 13.432C24.8399 13.432 24.3412 12.9333 24.3412 12.3184C24.3412 12.9333 23.8424 13.432 23.2275 13.432Z" fill="#002E6D"/>
</g>
<g style="mix-blend-mode:overlay">
<path d="M22.2725 31.5687C22.8874 31.5687 23.3861 32.0675 23.3861 32.6824C23.3861 32.0675 23.8848 31.5687 24.4997 31.5687C23.8848 31.5687 23.3861 31.07 23.3861 30.4551C23.3861 31.07 22.8874 31.5687 22.2725 31.5687Z" fill="#002E6D"/>
</g>
<g style="mix-blend-mode:overlay">
<path d="M18.4541 9.61417C20.4729 9.61417 22.1132 11.2545 22.1132 13.2733C22.1132 11.2545 23.7535 9.61417 25.7723 9.61417C23.7535 9.61417 22.1132 7.97389 22.1132 5.95508C22.1132 7.97389 20.4729 9.61417 18.4541 9.61417Z" fill="#002E6D"/>
</g>
<g style="mix-blend-mode:overlay">
<path d="M45.1816 41.1137C46.6738 41.1137 47.8862 42.3261 47.8862 43.8183C47.8862 42.3261 49.0986 41.1137 50.5907 41.1137C49.0986 41.1137 47.8862 39.9013 47.8862 38.4092C47.8862 39.9013 46.6738 41.1137 45.1816 41.1137Z" fill="#002E6D"/>
</g>
<g style="mix-blend-mode:overlay">
<path d="M44.2275 45.0913C44.7542 45.0913 45.1821 45.5192 45.1821 46.0458C45.1821 45.5192 45.61 45.0913 46.1366 45.0913C45.61 45.0913 45.1821 44.6634 45.1821 44.1367C45.1821 44.6634 44.7542 45.0913 44.2275 45.0913Z" fill="#002E6D"/>
</g>
<path d="M31.6613 13.0313H32.5395V13.4551H31.1267V10.79H31.6613V13.0313ZM34.9251 12.3516C34.9251 12.428 34.92 12.4967 34.9099 12.5578H33.3635C33.3762 12.7105 33.4297 12.8302 33.5239 12.9167C33.618 13.0033 33.7339 13.0465 33.8713 13.0465C34.0699 13.0465 34.2111 12.9613 34.2951 12.7907H34.8717C34.8106 12.9944 34.6935 13.1624 34.5204 13.2947C34.3473 13.4245 34.1348 13.4894 33.8828 13.4894C33.6791 13.4894 33.4959 13.4449 33.3329 13.3558C33.1726 13.2642 33.0466 13.1356 32.9549 12.9702C32.8659 12.8047 32.8213 12.6138 32.8213 12.3974C32.8213 12.1785 32.8659 11.9864 32.9549 11.8209C33.044 11.6554 33.1688 11.5282 33.3291 11.4391C33.4895 11.35 33.674 11.3054 33.8828 11.3054C34.0839 11.3054 34.2633 11.3487 34.4211 11.4353C34.5815 11.5218 34.7049 11.6453 34.7915 11.8056C34.8806 11.9634 34.9251 12.1454 34.9251 12.3516ZM34.3715 12.1989C34.3689 12.0614 34.3193 11.952 34.2226 11.8705C34.1259 11.7865 34.0075 11.7445 33.8675 11.7445C33.7351 11.7445 33.6231 11.7853 33.5315 11.8667C33.4424 11.9456 33.3877 12.0564 33.3673 12.1989H34.3715ZM35.2574 12.3898C35.2574 12.176 35.2994 11.9864 35.3834 11.8209C35.4699 11.6554 35.5858 11.5282 35.7308 11.4391C35.8785 11.35 36.0427 11.3054 36.2234 11.3054C36.3812 11.3054 36.5187 11.3373 36.6358 11.4009C36.7554 11.4645 36.8508 11.5447 36.9221 11.6414V11.3398H37.4605V13.4551H36.9221V13.1458C36.8534 13.2451 36.7579 13.3278 36.6358 13.394C36.5161 13.4576 36.3774 13.4894 36.2196 13.4894C36.0414 13.4894 35.8785 13.4436 35.7308 13.352C35.5858 13.2604 35.4699 13.1318 35.3834 12.9664C35.2994 12.7984 35.2574 12.6062 35.2574 12.3898ZM36.9221 12.3974C36.9221 12.2676 36.8967 12.1569 36.8458 12.0653C36.7948 11.9711 36.7261 11.8998 36.6396 11.8514C36.553 11.8005 36.4601 11.7751 36.3608 11.7751C36.2616 11.7751 36.1699 11.7993 36.0859 11.8476C36.0019 11.896 35.9332 11.9673 35.8798 12.0614C35.8288 12.1531 35.8034 12.2625 35.8034 12.3898C35.8034 12.5171 35.8288 12.6291 35.8798 12.7258C35.9332 12.82 36.0019 12.8925 36.0859 12.9434C36.1725 12.9944 36.2641 13.0198 36.3608 13.0198C36.4601 13.0198 36.553 12.9956 36.6396 12.9473C36.7261 12.8964 36.7948 12.8251 36.8458 12.7334C36.8967 12.6393 36.9221 12.5273 36.9221 12.3974ZM38.5967 11.6682C38.6654 11.5562 38.7545 11.4684 38.8639 11.4047C38.9759 11.3411 39.1032 11.3093 39.2457 11.3093V11.8705H39.1045C38.9365 11.8705 38.8092 11.91 38.7227 11.9889C38.6387 12.0678 38.5967 12.2053 38.5967 12.4013V13.4551H38.0621V11.3398H38.5967V11.6682ZM40.8575 11.3093C41.1095 11.3093 41.3131 11.3894 41.4684 11.5498C41.6237 11.7076 41.7013 11.9291 41.7013 12.2142V13.4551H41.1668V12.2867C41.1668 12.1187 41.1248 11.9902 41.0408 11.9011C40.9568 11.8094 40.8422 11.7636 40.6971 11.7636C40.5495 11.7636 40.4324 11.8094 40.3459 11.9011C40.2619 11.9902 40.2199 12.1187 40.2199 12.2867V13.4551H39.6853V11.3398H40.2199V11.6033C40.2911 11.5116 40.3815 11.4404 40.491 11.3894C40.603 11.336 40.7251 11.3093 40.8575 11.3093Z" fill="#0055B8"/>
<path d="M33.0702 17.3413C33.0702 17.4838 33.0358 17.6175 32.9671 17.7422C32.9009 17.8669 32.7953 17.9675 32.6502 18.0438C32.5076 18.1202 32.3269 18.1584 32.108 18.1584H31.6613V19.1816H31.1267V16.5165H32.108C32.3142 16.5165 32.4898 16.5522 32.6349 16.6235C32.78 16.6947 32.8882 16.7927 32.9595 16.9175C33.0333 17.0422 33.0702 17.1835 33.0702 17.3413ZM32.0851 17.7269C32.2327 17.7269 32.3422 17.6938 32.4135 17.6276C32.4847 17.5589 32.5204 17.4635 32.5204 17.3413C32.5204 17.0816 32.3753 16.9518 32.0851 16.9518H31.6613V17.7269H32.0851ZM34.0638 17.3947C34.1325 17.2827 34.2216 17.1949 34.3311 17.1313C34.4431 17.0676 34.5703 17.0358 34.7129 17.0358V17.5971H34.5716C34.4036 17.5971 34.2763 17.6365 34.1898 17.7155C34.1058 17.7944 34.0638 17.9318 34.0638 18.1278V19.1816H33.5293V17.0664H34.0638V17.3947ZM35.015 18.1164C35.015 17.9025 35.057 17.7129 35.141 17.5475C35.2276 17.382 35.3434 17.2547 35.4885 17.1656C35.6361 17.0765 35.8003 17.032 35.981 17.032C36.1388 17.032 36.2763 17.0638 36.3934 17.1275C36.513 17.1911 36.6085 17.2713 36.6798 17.368V17.0664H37.2181V19.1816H36.6798V18.8724C36.611 18.9716 36.5156 19.0544 36.3934 19.1205C36.2738 19.1842 36.135 19.216 35.9772 19.216C35.799 19.216 35.6361 19.1702 35.4885 19.0785C35.3434 18.9869 35.2276 18.8584 35.141 18.6929C35.057 18.5249 35.015 18.3327 35.015 18.1164ZM36.6798 18.124C36.6798 17.9942 36.6543 17.8835 36.6034 17.7918C36.5525 17.6976 36.4838 17.6264 36.3972 17.578C36.3107 17.5271 36.2178 17.5016 36.1185 17.5016C36.0192 17.5016 35.9276 17.5258 35.8436 17.5742C35.7596 17.6225 35.6908 17.6938 35.6374 17.788C35.5865 17.8796 35.561 17.9891 35.561 18.1164C35.561 18.2436 35.5865 18.3556 35.6374 18.4524C35.6908 18.5465 35.7596 18.6191 35.8436 18.67C35.9301 18.7209 36.0218 18.7464 36.1185 18.7464C36.2178 18.7464 36.3107 18.7222 36.3972 18.6738C36.4838 18.6229 36.5525 18.5516 36.6034 18.46C36.6543 18.3658 36.6798 18.2538 36.6798 18.124ZM37.6823 18.124C37.6823 17.9051 37.7268 17.7142 37.8159 17.5513C37.905 17.3858 38.0285 17.2585 38.1863 17.1695C38.3441 17.0778 38.5248 17.032 38.7285 17.032C38.9906 17.032 39.207 17.0982 39.3776 17.2305C39.5506 17.3604 39.6665 17.5436 39.725 17.7804H39.1485C39.1179 17.6887 39.0657 17.6175 38.9919 17.5665C38.9206 17.5131 38.8316 17.4864 38.7246 17.4864C38.5719 17.4864 38.451 17.5424 38.3619 17.6544C38.2728 17.7638 38.2283 17.9204 38.2283 18.124C38.2283 18.3251 38.2728 18.4816 38.3619 18.5936C38.451 18.7031 38.5719 18.7578 38.7246 18.7578C38.941 18.7578 39.0823 18.6611 39.1485 18.4676H39.725C39.6665 18.6967 39.5506 18.8787 39.3776 19.0136C39.2045 19.1485 38.9881 19.216 38.7285 19.216C38.5248 19.216 38.3441 19.1715 38.1863 19.0824C38.0285 18.9907 37.905 18.8635 37.8159 18.7005C37.7268 18.5351 37.6823 18.3429 37.6823 18.124ZM40.8185 17.5055V18.5287C40.8185 18.6 40.8351 18.6522 40.8682 18.6853C40.9038 18.7158 40.9623 18.7311 41.0438 18.7311H41.292V19.1816H40.956C40.5054 19.1816 40.2802 18.9627 40.2802 18.5249V17.5055H40.0282V17.0664H40.2802V16.5433H40.8185V17.0664H41.292V17.5055H40.8185ZM42.0271 16.8144C41.9329 16.8144 41.854 16.7851 41.7904 16.7265C41.7293 16.6655 41.6987 16.5904 41.6987 16.5013C41.6987 16.4122 41.7293 16.3384 41.7904 16.2798C41.854 16.2187 41.9329 16.1882 42.0271 16.1882C42.1213 16.1882 42.1989 16.2187 42.26 16.2798C42.3236 16.3384 42.3555 16.4122 42.3555 16.5013C42.3555 16.5904 42.3236 16.6655 42.26 16.7265C42.1989 16.7851 42.1213 16.8144 42.0271 16.8144ZM42.2905 17.0664V19.1816H41.756V17.0664H42.2905ZM42.7608 18.124C42.7608 17.9051 42.8053 17.7142 42.8944 17.5513C42.9835 17.3858 43.1069 17.2585 43.2648 17.1695C43.4226 17.0778 43.6033 17.032 43.8069 17.032C44.0691 17.032 44.2855 17.0982 44.456 17.2305C44.6291 17.3604 44.7449 17.5436 44.8035 17.7804H44.2269C44.1964 17.6887 44.1442 17.6175 44.0704 17.5665C43.9991 17.5131 43.91 17.4864 43.8031 17.4864C43.6504 17.4864 43.5295 17.5424 43.4404 17.6544C43.3513 17.7638 43.3068 17.9204 43.3068 18.124C43.3068 18.3251 43.3513 18.4816 43.4404 18.5936C43.5295 18.7031 43.6504 18.7578 43.8031 18.7578C44.0195 18.7578 44.1608 18.6611 44.2269 18.4676H44.8035C44.7449 18.6967 44.6291 18.8787 44.456 19.0136C44.2829 19.1485 44.0666 19.216 43.8069 19.216C43.6033 19.216 43.4226 19.1715 43.2648 19.0824C43.1069 18.9907 42.9835 18.8635 42.8944 18.7005C42.8053 18.5351 42.7608 18.3429 42.7608 18.124ZM47.241 18.0782C47.241 18.1545 47.2359 18.2233 47.2257 18.2844H45.6794C45.6921 18.4371 45.7455 18.5567 45.8397 18.6433C45.9339 18.7298 46.0497 18.7731 46.1872 18.7731C46.3857 18.7731 46.527 18.6878 46.611 18.5173H47.1875C47.1265 18.7209 47.0094 18.8889 46.8363 19.0213C46.6632 19.1511 46.4506 19.216 46.1986 19.216C45.995 19.216 45.8117 19.1715 45.6488 19.0824C45.4885 18.9907 45.3625 18.8622 45.2708 18.6967C45.1817 18.5313 45.1372 18.3404 45.1372 18.124C45.1372 17.9051 45.1817 17.7129 45.2708 17.5475C45.3599 17.382 45.4846 17.2547 45.645 17.1656C45.8054 17.0765 45.9899 17.032 46.1986 17.032C46.3997 17.032 46.5792 17.0753 46.737 17.1618C46.8974 17.2484 47.0208 17.3718 47.1074 17.5322C47.1965 17.69 47.241 17.872 47.241 18.0782ZM46.6874 17.9255C46.6848 17.788 46.6352 17.6785 46.5385 17.5971C46.4417 17.5131 46.3234 17.4711 46.1834 17.4711C46.051 17.4711 45.939 17.5118 45.8474 17.5933C45.7583 17.6722 45.7035 17.7829 45.6832 17.9255H46.6874Z" fill="#019859"/>
<path d="M32.9404 22.2441V22.6755H32.2302V24.9092H31.6956V22.6755H30.9855V22.2441H32.9404ZM35.3763 23.8057C35.3763 23.8821 35.3712 23.9508 35.361 24.0119H33.8147C33.8274 24.1646 33.8808 24.2843 33.975 24.3708C34.0692 24.4574 34.185 24.5006 34.3225 24.5006C34.521 24.5006 34.6623 24.4154 34.7463 24.2448H35.3228C35.2618 24.4485 35.1447 24.6165 34.9716 24.7488C34.7985 24.8786 34.5859 24.9435 34.3339 24.9435C34.1303 24.9435 33.947 24.899 33.7841 24.8099C33.6238 24.7183 33.4978 24.5897 33.4061 24.4243C33.317 24.2588 33.2725 24.0679 33.2725 23.8515C33.2725 23.6326 33.317 23.4405 33.4061 23.275C33.4952 23.1095 33.6199 22.9823 33.7803 22.8932C33.9407 22.8041 34.1252 22.7595 34.3339 22.7595C34.535 22.7595 34.7145 22.8028 34.8723 22.8894C35.0327 22.9759 35.1561 23.0994 35.2427 23.2597C35.3318 23.4175 35.3763 23.5995 35.3763 23.8057ZM34.8227 23.653C34.8201 23.5155 34.7705 23.4061 34.6738 23.3246C34.577 23.2406 34.4587 23.1986 34.3187 23.1986C34.1863 23.1986 34.0743 23.2394 33.9827 23.3208C33.8936 23.3997 33.8388 23.5105 33.8185 23.653H34.8227ZM36.6555 24.9435C36.4824 24.9435 36.3271 24.913 36.1897 24.8519C36.0522 24.7883 35.9427 24.703 35.8613 24.5961C35.7824 24.4892 35.7391 24.3708 35.7315 24.241H36.2698C36.28 24.3225 36.3195 24.3899 36.3882 24.4434C36.4595 24.4968 36.5473 24.5235 36.6517 24.5235C36.7535 24.5235 36.8324 24.5032 36.8884 24.4625C36.9469 24.4217 36.9762 24.3695 36.9762 24.3059C36.9762 24.2372 36.9406 24.1863 36.8693 24.1532C36.8006 24.1175 36.6898 24.0794 36.5371 24.0386C36.3793 24.0005 36.2495 23.961 36.1477 23.9203C36.0484 23.8795 35.9618 23.8172 35.888 23.7332C35.8167 23.6492 35.7811 23.5359 35.7811 23.3934C35.7811 23.2763 35.8142 23.1694 35.8804 23.0726C35.9491 22.9759 36.0458 22.8995 36.1706 22.8435C36.2978 22.7875 36.4467 22.7595 36.6173 22.7595C36.8693 22.7595 37.0704 22.8232 37.2206 22.9505C37.3707 23.0752 37.4535 23.2445 37.4687 23.4583H36.9571C36.9495 23.3743 36.9138 23.3081 36.8502 23.2597C36.7891 23.2088 36.7064 23.1834 36.602 23.1834C36.5053 23.1834 36.4302 23.2012 36.3767 23.2368C36.3258 23.2725 36.3004 23.3221 36.3004 23.3857C36.3004 23.457 36.336 23.5117 36.4073 23.5499C36.4786 23.5855 36.5893 23.6225 36.7395 23.6606C36.8922 23.6988 37.0182 23.7383 37.1175 23.779C37.2167 23.8197 37.302 23.8834 37.3733 23.9699C37.4471 24.0539 37.4853 24.1659 37.4878 24.3059C37.4878 24.4281 37.4535 24.5375 37.3847 24.6343C37.3186 24.731 37.2218 24.8074 37.0946 24.8634C36.9698 24.9168 36.8235 24.9435 36.6555 24.9435ZM38.6285 23.233V24.2563C38.6285 24.3275 38.6451 24.3797 38.6782 24.4128C38.7138 24.4434 38.7724 24.4586 38.8538 24.4586H39.102V24.9092H38.766C38.3154 24.9092 38.0902 24.6903 38.0902 24.2525V23.233H37.8382V22.7939H38.0902V22.2708H38.6285V22.7939H39.102V23.233H38.6285Z" fill="#FF9E16"/>
</g>
<defs>
<clipPath id="clip0_2158_645360">
<rect y="0.227539" width="56" height="56" rx="28" fill="white"/>
</clipPath>
</defs>
</svg>
