<svg width="32" height="32" viewBox="0 0 32 32" fill="none" xmlns="http://www.w3.org/2000/svg">
<path d="M18.7908 2.465L20.0753 3.70155C20.5336 4.14251 21.1419 4.39337 21.7778 4.40358L23.5605 4.43183C24.6098 4.44904 25.6114 4.87267 26.3546 5.61355C27.0978 6.35442 27.5245 7.35475 27.545 8.40394L27.579 10.1852C27.5913 10.8209 27.844 11.4284 28.2863 11.8852L29.5259 13.1648C30.256 13.919 30.665 14.9272 30.6666 15.9769C30.6682 17.0267 30.2622 18.0361 29.5343 18.7925L28.2978 20.077C27.8574 20.5349 27.6068 21.1427 27.5964 21.7779L27.5681 23.5607C27.5509 24.6099 27.1273 25.6115 26.3864 26.3547C25.6455 27.0979 24.6452 27.5247 23.596 27.5451L21.8148 27.5791C21.179 27.5912 20.5715 27.844 20.1148 28.2865L18.8352 29.526C18.0809 30.2562 17.0728 30.6651 16.023 30.6667C14.9732 30.6683 13.9638 30.2624 13.2074 29.5344L11.923 28.2979C11.465 27.8575 10.8573 27.6069 10.222 27.5965L8.4393 27.5683C7.39005 27.551 6.3884 27.1274 5.64522 26.3865C4.90203 25.6457 4.47529 24.6453 4.45482 23.5961L4.42081 21.8149C4.40856 21.1792 4.15581 20.5717 3.7135 20.1149L2.47397 18.8353C1.74378 18.0811 1.33483 17.0729 1.33326 16.0231C1.33168 14.9734 1.7376 13.964 2.46552 13.2076L3.70207 11.9231C4.14243 11.4651 4.39303 10.8574 4.40346 10.2222L4.4317 8.43942C4.44891 7.39017 4.87255 6.38853 5.61343 5.64534C6.3543 4.90216 7.35463 4.47541 8.40382 4.45494L10.185 4.42094C10.8208 4.40868 11.4282 4.15593 11.885 3.71362L13.1647 2.47409C13.9189 1.74391 14.9271 1.33495 15.9768 1.33338C17.0266 1.3318 18.036 1.73773 18.7924 2.46564L18.7908 2.465Z" fill="#695ADF"/>
<path d="M15.0056 8.64447C15.0971 8.45102 15.2386 8.28814 15.4142 8.17425C15.5897 8.06036 15.7922 8 15.9989 8C16.2056 8 16.4081 8.06036 16.5837 8.17425C16.7592 8.28814 16.9007 8.45102 16.9922 8.64447L18.8643 12.6046L23.0504 13.2407C23.255 13.2715 23.4473 13.3615 23.6055 13.5004C23.7637 13.6394 23.8815 13.8219 23.9455 14.0271C24.0096 14.2323 24.0173 14.4522 23.9679 14.6618C23.9184 14.8713 23.8138 15.0623 23.6658 15.213L20.6355 18.2956L21.3506 22.6476C21.3856 22.8604 21.3629 23.0791 21.2851 23.279C21.2072 23.479 21.0773 23.6522 20.91 23.7791C20.7428 23.906 20.5448 23.9815 20.3386 23.997C20.1324 24.0125 19.9261 23.9675 19.7431 23.867L15.9989 21.8111L12.2547 23.867C12.0717 23.9675 11.8654 24.0125 11.6592 23.997C11.453 23.9815 11.2551 23.906 11.0878 23.7791C10.9205 23.6522 10.7906 23.479 10.7128 23.279C10.6349 23.0791 10.6122 22.8604 10.6472 22.6476L11.3611 18.2956L8.33326 15.2117C8.18565 15.0611 8.08131 14.8703 8.03203 14.661C7.98274 14.4517 7.99047 14.2322 8.05433 14.0272C8.1182 13.8222 8.23567 13.64 8.39348 13.501C8.55129 13.362 8.74316 13.2719 8.94745 13.2407L13.1323 12.6046L15.0056 8.64447Z" fill="#FFCE00"/>
</svg>
