<svg width="24" height="24" viewBox="0 0 24 24" fill="none" xmlns="http://www.w3.org/2000/svg">
<path d="M9 7H18V18C18 18.5304 17.7893 19.0391 17.4142 19.4142C17.0391 19.7893 16.5304 20 16 20H8C7.46957 20 6.96086 19.7893 6.58579 19.4142C6.21071 19.0391 6 18.5304 6 18V7H9Z" fill="#D92037"/>
<path d="M20 7H18M4 7H6M6 7H18M6 7V18C6 18.5304 6.21071 19.0391 6.58579 19.4142C6.96086 19.7893 7.46957 20 8 20H16C16.5304 20 17.0391 19.7893 17.4142 19.4142C17.7893 19.0391 18 18.5304 18 18V7M9 6.5C9 5.83696 9.26339 5.20107 9.73223 4.73223C10.2011 4.26339 10.837 4 11.5 4H12.5C13.163 4 13.7989 4.26339 14.2678 4.73223C14.7366 5.20107 15 5.83696 15 6.5" stroke="#D92037" stroke-width="2" stroke-linecap="round" stroke-linejoin="round"/>
</svg>
