<svg width="32" height="32" viewBox="0 0 32 32" fill="none" xmlns="http://www.w3.org/2000/svg">
<path d="M18.791 2.465L20.0754 3.70155C20.5337 4.14251 21.142 4.39337 21.7779 4.40358L23.5607 4.43183C24.6099 4.44904 25.6115 4.87267 26.3547 5.61355C27.0979 6.35442 27.5247 7.35475 27.5451 8.40394L27.5791 10.1852C27.5914 10.8209 27.8441 11.4284 28.2865 11.8852L29.526 13.1648C30.2562 13.919 30.6651 14.9272 30.6667 15.9769C30.6683 17.0267 30.2624 18.0361 29.5344 18.7925L28.2979 20.077C27.8575 20.5349 27.6069 21.1427 27.5965 21.7779L27.5683 23.5607C27.551 24.6099 27.1274 25.6115 26.3865 26.3547C25.6457 27.0979 24.6453 27.5247 23.5961 27.5451L21.8149 27.5791C21.1791 27.5912 20.5716 27.844 20.1149 28.2865L18.8353 29.526C18.0811 30.2562 17.0729 30.6651 16.0231 30.6667C14.9734 30.6683 13.964 30.2624 13.2076 29.5344L11.9231 28.2979C11.4651 27.8575 10.8574 27.6069 10.2222 27.5965L8.43942 27.5683C7.39017 27.551 6.38853 27.1274 5.64534 26.3865C4.90216 25.6457 4.47541 24.6453 4.45494 23.5961L4.42094 21.8149C4.40868 21.1792 4.15594 20.5717 3.71362 20.1149L2.47409 18.8353C1.74391 18.0811 1.33495 17.0729 1.33338 16.0231C1.3318 14.9734 1.73773 13.964 2.46564 13.2076L3.70219 11.9231C4.14255 11.4651 4.39316 10.8574 4.40358 10.2222L4.43183 8.43942C4.44904 7.39017 4.87267 6.38853 5.61355 5.64534C6.35443 4.90216 7.35475 4.47541 8.40394 4.45494L10.1852 4.42094C10.8209 4.40868 11.4284 4.15593 11.8852 3.71362L13.1648 2.47409C13.919 1.74391 14.9272 1.33495 15.9769 1.33338C17.0267 1.3318 18.0361 1.73773 18.7925 2.46564L18.791 2.465Z" fill="#998122"/>
<path d="M15.0056 8.64447C15.0971 8.45102 15.2386 8.28814 15.4142 8.17425C15.5897 8.06036 15.7922 8 15.9989 8C16.2056 8 16.4081 8.06036 16.5837 8.17425C16.7592 8.28814 16.9007 8.45102 16.9922 8.64447L18.8643 12.6046L23.0504 13.2407C23.255 13.2715 23.4473 13.3615 23.6055 13.5004C23.7637 13.6394 23.8815 13.8219 23.9455 14.0271C24.0096 14.2323 24.0173 14.4522 23.9679 14.6618C23.9184 14.8713 23.8138 15.0623 23.6658 15.213L20.6355 18.2956L21.3506 22.6476C21.3856 22.8604 21.3629 23.0791 21.2851 23.279C21.2072 23.479 21.0773 23.6522 20.91 23.7791C20.7428 23.906 20.5448 23.9815 20.3386 23.997C20.1324 24.0125 19.9261 23.9675 19.7431 23.867L15.9989 21.8111L12.2547 23.867C12.0717 23.9675 11.8654 24.0125 11.6592 23.997C11.453 23.9815 11.2551 23.906 11.0878 23.7791C10.9205 23.6522 10.7906 23.479 10.7128 23.279C10.6349 23.0791 10.6122 22.8604 10.6472 22.6476L11.3611 18.2956L8.33326 15.2117C8.18565 15.0611 8.08131 14.8703 8.03203 14.661C7.98274 14.4517 7.99047 14.2322 8.05433 14.0272C8.1182 13.8222 8.23567 13.64 8.39348 13.501C8.55129 13.362 8.74316 13.2719 8.94745 13.2407L13.1323 12.6046L15.0056 8.64447Z" fill="#FFCE00"/>
</svg>
