<svg width="38" height="49" viewBox="0 0 38 49" fill="none" xmlns="http://www.w3.org/2000/svg">
<path fill-rule="evenodd" clip-rule="evenodd" d="M11.5304 13.2527V10.1314L18.1171 13.797C18.7714 14.1635 19.5566 14.1635 20.2109 13.797L26.7976 10.1314V13.2527C26.7976 14.0635 26.3614 14.8189 25.6635 15.2076L20.2109 18.24C19.5566 18.6065 18.7714 18.6065 18.1171 18.24L12.6645 15.2076C11.9666 14.8189 11.5304 14.0635 11.5304 13.2527ZM8.92404 5.37608L18.1171 0.266583C18.4393 0.0915542 18.7988 0 19.164 0C19.5292 0 19.8887 0.0915542 20.2109 0.266583L30.5926 6.03143C30.9416 6.23137 31.1597 6.59792 31.1597 7.0089V14.1289C31.1597 14.7398 30.669 15.2396 30.0692 15.2396C29.4694 15.2396 28.9787 14.7398 28.9787 14.1289V7.56428L20.2109 12.4405C19.5566 12.8071 18.7714 12.8071 18.1171 12.4405L8.92404 7.33102C8.17158 6.90893 8.17158 5.79817 8.92404 5.37608ZM19.8235 20.6832L28.3109 15.9599H35.15C36.724 15.9599 38 17.2359 38 18.8099C38 20.3839 36.724 21.6599 35.15 21.6599H34.9596V38.3799C34.9596 40.4786 33.2583 42.1799 31.1596 42.1799H22.1598L24.3396 44.4022C25.1124 45.19 25.1767 46.5246 24.4832 47.3831C23.7898 48.2416 22.6012 48.2989 21.8284 47.5111L19.7739 45.4165L17.2858 47.6001C16.4502 48.3334 15.2621 48.1854 14.632 47.2695C14.0019 46.3536 14.1685 45.0167 15.004 44.2834L17.4008 42.1799H6.45964C4.36096 42.1799 2.65964 40.4786 2.65964 38.3799V21.6537C1.17438 21.5557 0 20.32 0 18.8099C0 17.2359 1.27599 15.9599 2.85 15.9599H10.212L19.821 20.6786L19.8235 20.6832ZM7.02973 25.4599C6.29519 25.4599 5.69973 26.0554 5.69973 26.7899C5.69973 27.5244 6.29519 28.1199 7.02973 28.1199H29.0697C29.8043 28.1199 30.3997 27.5244 30.3997 26.7899C30.3997 26.0554 29.8043 25.4599 29.0697 25.4599H7.02973ZM5.69973 31.7299C5.69973 30.9954 6.29519 30.3999 7.02973 30.3999H23.3697C24.1043 30.3999 24.6997 30.9954 24.6997 31.7299C24.6997 32.4644 24.1043 33.0599 23.3697 33.0599H7.02973C6.29519 33.0599 5.69973 32.4644 5.69973 31.7299ZM7.02973 35.34C6.29519 35.34 5.69973 35.9355 5.69973 36.67C5.69973 37.4046 6.29519 38 7.02973 38H23.3697C24.1043 38 24.6997 37.4046 24.6997 36.67C24.6997 35.9355 24.1043 35.34 23.3697 35.34H7.02973Z" fill="#0055B8"/>
</svg>
