<svg width="24" height="25" viewBox="0 0 24 25" fill="none" xmlns="http://www.w3.org/2000/svg">
<path d="M10 14.2855C10.3259 14.6181 10.7148 14.8824 11.1441 15.0627C11.5734 15.2431 12.0344 15.336 12.5 15.336C12.9656 15.336 13.4266 15.2431 13.8559 15.0627C14.2852 14.8824 14.6741 14.6181 15 14.2855L19 10.2855C19.663 9.62249 20.0355 8.72322 20.0355 7.78553C20.0355 6.84785 19.663 5.94858 19 5.28553C18.337 4.62249 17.4377 4.25 16.5 4.25C15.5623 4.25 14.663 4.62249 14 5.28553L13.5 5.78553" stroke="#0055B8" stroke-width="2" stroke-linecap="round" stroke-linejoin="round"/>
<path d="M14 10.2852C13.6741 9.95256 13.2852 9.68833 12.8559 9.50794C12.4266 9.32756 11.9656 9.23465 11.5 9.23465C11.0344 9.23465 10.5734 9.32756 10.1441 9.50794C9.71485 9.68833 9.32588 9.95256 9 10.2852L5 14.2852C4.33696 14.9482 3.96447 15.8475 3.96447 16.7852C3.96447 17.7228 4.33696 18.6221 5 19.2852C5.66304 19.9482 6.56232 20.3207 7.5 20.3207C8.43768 20.3207 9.33696 19.9482 10 19.2852L10.5 18.7852M16 21.2852V19.2852M19 16.2852H21M3 8.28516H5M8 3.28516V5.28516" stroke="#0055B8" stroke-width="2" stroke-linecap="round" stroke-linejoin="round"/>
</svg>
