<svg width="17" height="16" viewBox="0 0 17 16" fill="none" xmlns="http://www.w3.org/2000/svg">
<mask id="mask0_908_52449" style="mask-type:alpha" maskUnits="userSpaceOnUse" x="0" y="0" width="17" height="16">
<rect x="0.5" width="16" height="16" fill="#D9D9D9"/>
</mask>
<g mask="url(#mask0_908_52449)">
<path d="M8.00481 1.17273C8.62361 0.815469 9.38601 0.815469 10.0048 1.17273L14.5 3.76803C15.1188 4.1253 15.5 4.78555 15.5 5.50008L15.4953 11.0954C15.4953 11.81 15.1141 12.4702 14.4953 12.8275L10.0001 15.4228C9 16.0001 8 16.0001 7 15.5001L3.50488 13.5001C2.88608 13.1428 2.50488 12.4825 2.50488 11.768L2.50488 5.90483C2.50488 5.1903 2.88608 4.53004 3.50488 4.17278L8.00481 1.17273Z" fill="#FFCE00"/>
<path d="M7 0.57735C7.6188 0.220085 8.3812 0.220085 9 0.57735L13.4952 3.17265C14.114 3.52992 14.4952 4.19017 14.4952 4.9047V10.0953C14.4952 10.8098 14.114 11.4701 13.4952 11.8274L9 14.4226C8.3812 14.7799 7.6188 14.7799 7 14.4226L2.50481 11.8274C1.88601 11.4701 1.50481 10.8098 1.50481 10.0953V4.9047C1.50481 4.19017 1.88601 3.52992 2.50481 3.17265L7 0.57735Z" fill="#0055B8"/>
<path d="M6.77062 10L5.6707 8.31662L4.67276 10H3.52185L5.12438 7.47851L3.5 5H4.67276L5.77268 6.67622L6.76333 5H7.91424L6.31899 7.51433L7.94338 10H6.77062Z" fill="#FFCE00"/>
<path d="M12.5 6.54728C12.5 6.81471 12.4344 7.06542 12.3033 7.29943C12.1771 7.53343 11.9755 7.72206 11.6987 7.86533C11.4268 8.0086 11.082 8.08023 10.6644 8.08023H9.81212V10H8.79233V5H10.6644C11.0577 5 11.3928 5.06686 11.6696 5.20057C11.9464 5.33429 12.1528 5.51815 12.2888 5.75215C12.4296 5.98615 12.5 6.25119 12.5 6.54728ZM10.6207 7.27077C10.9023 7.27077 11.1111 7.20869 11.2471 7.08453C11.3831 6.95559 11.4511 6.7765 11.4511 6.54728C11.4511 6.06017 11.1743 5.81662 10.6207 5.81662H9.81212V7.27077H10.6207Z" fill="#FFCE00"/>
</g>
</svg>
