<svg width="56" height="56" viewBox="0 0 56 56" fill="none" xmlns="http://www.w3.org/2000/svg">
<g clip-path="url(#clip0_917_62758)">
<path d="M11.2766 62.6405C4.96318 59.3072 -1.44098 54.5369 -4.27584 47.9753C-7.0713 41.3677 -6.30395 32.9097 -3.45846 25.6985C-0.61297 18.4873 -0.925088 8.16694 4.94736 5.05016C10.8198 1.93338 23.1713 3.03605 28.3229 6.013C34.7101 9.70392 35.2953 18.0626 41.3664 21.0547C47.4374 24.0008 58.347 25.0685 61.6682 30.285C64.9894 35.5015 64.2166 39.747 60.3821 45.1472C56.5936 50.5015 49.941 53.2311 44.4354 56.9122C38.8904 60.6327 34.4466 65.2586 29.133 66.5906C23.8194 67.9226 17.5901 65.9738 11.2766 62.6405Z" fill="#FFCE00"/>
<path opacity="0.8" d="M35.6322 24.7829C39.0839 27.9829 42.3482 32.1135 43.0339 36.7757C43.6866 41.4605 41.7547 46.7158 38.7122 50.8225C35.6697 54.9292 34.1074 61.5546 29.8359 62.5374C25.5644 63.5201 17.887 60.7103 15.1143 57.9355C11.6766 54.4952 12.7302 49.0724 9.37462 46.1311C6.01117 43.219 -0.75401 40.6776 -1.97891 36.7889C-3.20382 32.9002 -1.98723 30.3285 1.37608 27.5438C4.70229 24.7806 9.40457 24.1775 13.5387 22.7727C17.7047 21.3497 21.324 19.1621 24.935 19.2205C28.5461 19.2789 32.1805 21.5829 35.6322 24.7829Z" fill="#FFE784"/>
<path opacity="0.8" d="M27.7336 45.2926C26.6882 49.8819 24.7432 54.7741 21.0483 57.6991C17.3175 60.6067 11.8004 61.5613 6.72265 60.9797C1.64488 60.3982 -4.87402 62.3579 -7.86088 59.1501C-10.8477 55.9422 -12.2531 47.8885 -11.2364 44.0999C-9.97583 39.4026 -4.75277 37.6037 -3.88328 33.227C-3.04305 28.8581 -4.2247 21.7285 -1.46947 18.7234C1.28577 15.7183 4.12125 15.486 8.21449 17.0064C12.2706 18.5053 15.1441 22.2761 18.4277 25.154C21.7431 28.0503 25.4473 30.0909 27.2022 33.2474C28.9571 36.4039 28.779 40.7033 27.7336 45.2926Z" fill="#FFF7D7"/>
<path d="M17.0024 14.9507C17.0024 14.9507 13.5626 14.1372 10.9098 17.126C8.25696 20.1148 9.29156 23.5458 8.11547 25.4382C6.97476 27.2775 5.98438 28.0203 5.98438 28.0203C5.98438 28.0203 10.5561 30.903 13.5538 30.9295C16.5603 30.9649 15.8087 31.3363 15.8087 31.3363C15.8087 31.3363 21.1762 31.3009 24.2358 30.2751C24.2358 30.2751 22.7414 26.7557 23.0243 24.0675C23.2985 21.3882 22.6971 18.0368 21.0259 16.8077" fill="#002E6D"/>
<path d="M4.69269 56.079C4.69269 56.079 3.14522 67.1855 4.22403 73.6053C5.30284 80.0252 5.4797 84.9948 5.4178 87.6122C5.36474 90.1059 5.71845 102.928 6.48777 106.217C6.54967 106.474 6.77074 106.651 7.02718 106.677C7.97335 106.748 10.3432 106.819 12.2179 106.102C12.5097 105.987 12.7042 105.704 12.6954 105.395C12.6246 102.671 12.3063 89.6549 12.5097 88.691C12.7396 87.6211 12.5627 87.1436 12.5627 86.3123C12.5627 85.4811 12.7926 68.4323 12.9606 68.4323C13.1287 68.4323 13.5266 68.4323 13.5885 68.786C13.6415 69.1397 13.7565 86.1355 13.7565 86.613C13.7565 87.0905 13.9864 88.8148 13.9864 89.5841C13.9864 90.2562 13.8538 101.858 13.8272 104.864C13.8184 105.289 14.1102 105.651 14.517 105.749C15.64 106.014 17.9833 106.827 19.4866 106.483C19.8668 106.394 20.141 106.067 20.1498 105.678C20.2205 104.06 20.4593 99.1431 20.9722 94.9871C21.6 89.9379 20.9014 87.1436 21.0164 86.613C21.1313 86.0824 21.2286 84.6941 21.0606 84.5703C20.8926 84.4554 23.1829 74.7991 23.5454 72.0313C25.1371 59.8814 21.5469 55.7695 21.5469 55.7695C21.5469 55.7695 21.3612 56.1498 13.4735 56.3266C5.58581 56.4858 4.69269 56.079 4.69269 56.079Z" fill="#558AF0"/>
<path d="M26.2247 57.3257L27.7015 56.8482C27.9402 56.7775 28.0729 56.5387 28.0021 56.3177C27.9402 56.1143 27.7192 55.9905 27.4892 56.0435L26.2336 56.3353C26.0833 56.3707 25.9506 56.4768 25.8976 56.6183L25.7207 57.0958" fill="#F38F6F"/>
<path d="M5.66572 53.8682L5.36506 53.9389C4.7107 55.7163 2.72993 64.4087 4.14477 73.6494C5.26779 81.0065 5.40044 85.0919 5.34738 87.7093C5.29432 90.2118 5.83373 102.83 6.50578 106.155C6.64726 106.88 7.66418 106.739 7.66418 106.739C7.66418 106.739 6.28471 93.183 6.50578 89.1241C6.72685 85.0653 6.52346 79.3352 5.48002 72.4556C4.63996 66.9112 6.08133 57.6882 6.86833 54.4076C5.83373 54.16 5.87794 54.0804 5.66572 53.8682Z" fill="#EBF4FF"/>
<path d="M19.1326 54.9385C19.8488 56.5036 21.8915 61.2964 22.0684 65.647C22.2894 70.935 19.0265 82.4659 19.6012 84.8534C20.1849 87.241 19.3802 101.018 18.8761 103.989C18.3809 106.89 19.106 106.483 19.1679 106.527C19.1679 106.527 20.2202 106.377 20.1849 105.581C20.1141 103.963 20.4855 99.2759 21.0072 95.1022C21.6351 90.0264 20.9365 87.2233 21.0514 86.6927C21.1664 86.1622 21.2637 84.765 21.0957 84.6412C20.9276 84.5263 23.2268 74.8258 23.5893 72.0492C24.9953 61.208 21.3167 55.0269 21.1576 54.7793C21.1487 54.797 20.9188 54.8589 19.1326 54.9385Z" fill="#EBF4FF"/>
<path d="M21.1572 54.7705C21.1572 54.7705 21.1572 54.7705 21.1661 54.7794C21.1661 54.7705 21.1572 54.7705 21.1572 54.7705Z" fill="#EBF4FF"/>
<path d="M4.69273 55.6631C4.69273 55.6631 3.25136 67.6627 4.13563 73.5166C5.10833 79.9541 5.47973 84.8176 5.41783 87.435C5.36477 89.9022 5.67427 102.096 6.44359 106.084C6.51433 106.447 6.82382 106.721 7.19522 106.739C8.26519 106.792 10.5201 106.792 12.3063 106.076C12.5451 105.978 12.6954 105.739 12.6866 105.483C12.6247 102.945 12.3063 89.6546 12.5097 88.6907C12.7396 87.6207 12.5628 87.1432 12.5628 86.312C12.5628 85.4808 12.7927 68.432 12.9607 68.432C13.1287 68.432 13.5266 68.432 13.5885 68.7857C13.6416 69.1394 13.7565 86.1351 13.7565 86.6127C13.7565 87.0902 13.9864 88.8145 13.9864 89.5838C13.9864 90.2559 13.8538 101.972 13.8273 104.908C13.8184 105.306 14.0837 105.669 14.4639 105.793C15.5781 106.155 17.9038 106.801 19.4336 106.535C19.8669 106.456 20.194 106.076 20.2029 105.633C20.2559 103.927 20.4505 99.1693 20.9457 95.1017C21.5735 90.0525 20.928 87.1255 21.0429 86.595C21.1579 86.0644 21.2817 84.5877 21.1137 84.4639C20.9457 84.3401 23.2271 74.56 23.6073 71.8011C25.0664 61.2605 21.8476 56.176 21.8476 56.176C21.8476 56.176 21.379 56.1317 13.4824 56.3174C5.58584 56.4855 4.69273 55.6631 4.69273 55.6631Z" stroke="#1148B7" stroke-width="0.205417" stroke-miterlimit="10" stroke-linecap="round"/>
<path d="M12.988 28.6846L12.4751 31.9475L11.6351 31.5585C11.6351 31.5585 10.4944 34.8922 13.9253 35.2724C17.3563 35.6526 18.3644 32.4958 18.3644 32.4958L17.3563 32.4781L17.4005 29.2682" fill="#FBC6B6"/>
<path d="M-0.418379 54.7171L-0.45375 53.8328C-0.462593 53.6295 -0.303423 53.4526 -0.0911978 53.4438C0.103342 53.4349 0.271354 53.5764 0.297882 53.7709L0.439366 54.8409C0.457052 54.9735 0.403995 55.1062 0.297882 55.1858L-0.0558273 55.4599" fill="#F38F6F"/>
<path d="M4.51587 50.9326L4.98454 52.3298L1.77463 56.0172C1.5624 56.2648 1.23522 56.3709 0.916882 56.3002L-0.0204477 56.0968C-0.268044 56.0437 -0.48027 55.8846 -0.595226 55.6635L-1.4176 54.1248C-1.5414 53.8949 -1.42644 53.612 -1.17885 53.5324C-0.96662 53.4616 -0.727866 53.5589 -0.621753 53.7534L0.059137 54.9561L2.32288 52.3386L4.51587 50.9326Z" fill="#FBC6B6"/>
<path d="M22.2635 51.375L21.3262 53.1701L24.147 57.167C24.3327 57.4323 24.651 57.5738 24.9694 57.5384L25.9244 57.4323C26.172 57.4057 26.4019 57.2643 26.5434 57.0609L27.5161 55.6195C27.6576 55.4073 27.578 55.1155 27.3392 55.0094C27.1358 54.9209 26.8883 54.9828 26.7645 55.1685L25.9686 56.3004L23.979 53.4707L22.2635 51.375Z" fill="#FBC6B6"/>
<path d="M12.059 31.6473C12.059 31.6473 8.37157 29.7196 6.61187 30.5597C4.85216 31.3997 -4.12321 39.199 -5.21087 40.8791C-6.30737 42.5504 1.91638 52.6134 1.91638 52.6134L4.68415 50.9333L0.99673 42.966L5.52421 39.8622C5.52421 39.8622 6.86831 46.9895 5.27661 50.6769C4.60457 52.2243 4.23317 53.2413 4.02979 53.9045C3.82641 54.55 3.86178 55.2486 4.1359 55.8587C4.33928 56.3097 4.72836 56.6546 5.20587 56.796C6.44385 57.1674 9.0613 57.7864 12.2358 57.5477C16.6837 57.2117 20.2827 57.5477 20.2827 57.5477L22.0336 56.1947C22.3254 55.9737 22.4669 55.6111 22.405 55.2486C22.0336 53.029 20.9283 45.0441 23.5103 42.2409L29.5941 45.893C29.5941 45.893 24.0232 49.7572 22.2547 51.4285L24.3681 54.0371C24.3681 54.0371 32.5299 50.668 33.874 48.7403C34.2896 48.1479 34.6433 47.635 34.944 47.2017C35.5453 46.3351 35.4745 45.159 34.7671 44.372C33.1843 42.6123 30.3192 39.482 27.9229 37.0856C24.4034 33.5662 23.0594 32.3017 20.7956 32.2221C18.5319 32.1425 18.0278 32.4697 18.0278 32.4697C18.0278 32.4697 16.9137 34.7069 14.4819 34.3709C12.0413 34.0614 12.059 31.6473 12.059 31.6473Z" fill="#EBF4FF"/>
<path d="M12.0595 31.7176C12.0595 31.7176 8.37207 29.7899 6.61237 30.63C4.85266 31.47 -4.12271 39.2693 -5.21037 40.9406C-6.29802 42.6207 1.91688 52.6837 1.91688 52.6837L4.68465 51.0036L0.997231 43.0363L5.52471 39.9325C5.52471 39.9325 6.86881 47.0598 5.27711 50.7472C4.45474 52.6572 4.0745 53.7537 3.90649 54.3727C3.79154 54.7883 3.82691 55.2393 4.00376 55.6372L4.29557 56.2827C4.39284 56.5038 4.57854 56.6718 4.79961 56.7426C5.78115 57.0697 8.65504 57.8921 12.2363 57.618C15.7292 57.3527 18.7004 57.503 19.8146 57.5826C20.1241 57.6003 20.4247 57.5119 20.6635 57.3262L21.6981 56.5303C22.1933 56.1501 22.432 55.5311 22.3436 54.921C21.928 52.2681 21.0702 44.9729 23.5197 42.3201L29.6035 45.9721C29.6035 45.9721 23.7938 49.916 22.0341 51.5961L24.3067 54.1428C24.3067 54.1428 32.5393 50.756 33.8745 48.8283C34.2901 48.2358 34.6438 47.723 34.9445 47.2897C35.5458 46.4231 35.4751 45.247 34.7676 44.46C33.1848 42.7003 30.3197 39.57 27.9234 37.1736C24.404 33.6542 23.0599 32.3897 20.7961 32.3101C18.5324 32.2305 18.0283 32.5577 18.0283 32.5577C18.0283 32.5577 16.8523 34.7772 14.4205 34.4412C11.9711 34.1052 12.0595 31.7176 12.0595 31.7176Z" stroke="#191708" stroke-width="0.205417" stroke-miterlimit="10" stroke-linecap="round"/>
<path d="M1.47415 44.0183L0.262695 41.4893" stroke="#191708" stroke-width="0.205417" stroke-miterlimit="10" stroke-linecap="round"/>
<path d="M4.55176 36.0508C4.55176 36.0508 5.3476 38.8009 5.61289 40.5517" stroke="#191708" stroke-width="0.205417" stroke-miterlimit="10" stroke-linecap="round"/>
<path d="M24.1471 41.6211C24.1471 41.6211 23.4485 42.2843 22.918 43.1509" stroke="#191708" stroke-width="0.205417" stroke-miterlimit="10" stroke-linecap="round"/>
<path d="M11.2278 31.3994C11.2278 31.3994 10.8388 35.0603 14.031 35.5024C17.798 36.0242 19.1509 32.3898 19.1509 32.3898" stroke="#191708" stroke-width="0.205417" stroke-miterlimit="10"/>
<path d="M18.6736 55.8852L16.4541 53.8867" stroke="#191708" stroke-width="0.205417" stroke-miterlimit="10" stroke-linecap="round"/>
<path d="M19.6456 55.0447L19.4688 53.7979" stroke="#191708" stroke-width="0.205417" stroke-miterlimit="10" stroke-linecap="round"/>
<path d="M6.12598 55.398L6.97488 54.0186" stroke="#191708" stroke-width="0.205417" stroke-miterlimit="10" stroke-linecap="round"/>
<path d="M30.7349 45.2471L28.8779 46.4497" stroke="#191708" stroke-width="0.205417" stroke-miterlimit="10" stroke-linecap="round"/>
<path d="M22.8828 50.9414L25.2527 53.6915" stroke="#191708" stroke-width="0.205417" stroke-miterlimit="10" stroke-linecap="round"/>
<path d="M4.22425 50.0576L1.22656 51.7377" stroke="#191708" stroke-width="0.205417" stroke-miterlimit="10" stroke-linecap="round"/>
<path d="M10.2556 30.2402C10.2556 30.2402 9.38899 32.6366 12.1833 40.2148C14.9776 47.793 13.2444 66.8403 12.652 68.2374C12.652 68.2374 5.45397 71.5535 2.80999 69.9972C2.80999 69.9972 0.431297 60.0579 1.2802 57.2636C1.53664 56.4147 3.91533 52.0906 3.91533 52.0906L1.72234 52.798C1.72234 52.798 -4.63559 47.2536 -6.16538 44.3974C-7.69518 41.5412 -6.36877 39.9407 -6.36877 39.9407C-6.36877 39.9407 -1.7617 35.5547 -0.116952 33.7596C1.5278 31.9646 4.69349 30.7266 5.73694 30.0368C6.78038 29.3471 10.2556 30.2402 10.2556 30.2402Z" fill="#F89E1C"/>
<path d="M28.3383 36.9521C28.3383 36.9521 23.0238 44.2651 19.1596 46.0602C15.8524 47.5988 16.1177 59.5188 16.2591 62.8879C16.2768 63.3831 15.9408 68.3439 16.436 68.3262C18.3637 68.282 23.5013 70.0947 25.208 69.3254C25.208 69.3254 25.0842 59.1828 25.0223 57.7237C24.9515 56.2647 23.8108 54.8941 23.8108 54.8941C23.8108 54.8941 26.2691 55.0974 29.1961 53.8329C32.123 52.5684 35.5805 50.906 36.173 46.184C36.4294 44.2739 30.9381 38.818 28.3383 36.9521Z" fill="#F89E1C"/>
<path d="M1.27917 36.5185C2.67632 34.3874 7.66362 33.2555 7.66362 33.2555C7.61941 31.6285 7.28338 30.417 7.06231 29.7715C6.51407 29.7715 6.02772 29.8422 5.73591 30.0368C4.69246 30.7265 1.52676 31.9645 -0.117983 33.7596C-1.75389 35.5546 -6.36095 39.9406 -6.36095 39.9406C-6.36095 39.9406 -7.68736 41.5323 -6.15757 44.3974C-4.62778 47.2536 1.73015 52.798 1.73015 52.798L3.0035 52.3824C2.70285 51.6838 1.88932 50.1098 0.421423 49.1459C-0.984571 48.2263 -3.37211 44.9102 -4.56588 43.1771C-4.91959 42.6642 -4.63662 41.9656 -4.02647 41.833C-4.03531 41.833 -0.117983 38.6407 1.27917 36.5185Z" fill="#EBF4FF"/>
<path d="M28.2676 41.7268C28.2676 41.7268 31.5217 44.9809 32.5917 46.5107C33.6616 48.0405 33.4583 51.2327 33.4583 51.2327C33.4583 51.2327 35.3241 49.7029 35.6513 48.0405C35.6513 48.0405 34.0596 42.3016 28.8335 39.2773" fill="#EBF4FF"/>
<path d="M10.1579 30.2403C10.1579 30.2403 9.29133 32.6367 12.0856 40.2149C14.8799 47.7931 13.1468 66.8404 12.5543 68.2375C12.5543 68.2375 5.35631 71.5535 2.71234 69.9972C2.71234 69.9972 0.598922 59.722 1.18254 57.2637C1.38593 56.4059 3.81768 52.0907 3.81768 52.0907L1.62468 52.7981C1.62468 52.7981 -4.73325 47.2537 -6.26304 44.3975C-7.79283 41.5413 -6.46642 39.9408 -6.46642 39.9408C-6.46642 39.9408 -1.85936 35.5548 -0.214609 33.7597C1.43014 31.9646 4.59584 30.7266 5.63928 30.0369C6.67388 29.356 10.1579 30.2403 10.1579 30.2403Z" stroke="#D57E02" stroke-width="0.205417" stroke-miterlimit="10" stroke-linecap="round"/>
<path d="M28.2416 36.9521C28.2416 36.9521 22.9272 44.2651 19.0629 46.0602C15.7557 47.5988 16.021 59.5188 16.1625 62.8879C16.1801 63.3831 15.8441 68.3439 16.3393 68.3262C18.267 68.282 23.4047 70.0947 25.1113 69.3254C25.1113 69.3254 25.0229 59.0236 24.961 57.5557C24.8991 56.0878 23.7142 54.8941 23.7142 54.8941C23.7142 54.8941 26.1724 55.0974 29.0994 53.8329C32.0263 52.5684 35.4838 50.906 36.0763 46.184C36.3239 44.2739 30.8326 38.818 28.2416 36.9521Z" stroke="#D57E02" stroke-width="0.205417" stroke-miterlimit="10" stroke-linecap="round"/>
<path d="M7.39062 30.6553C7.39062 30.6553 8.40754 40.3204 7.83276 43.1501C7.83276 43.1501 11.5113 46.3423 12.5725 49.6672" stroke="#D57E02" stroke-width="0.205417" stroke-miterlimit="10" stroke-linecap="round"/>
<path d="M23.7227 54.9023L23.7934 48.4736" stroke="#D57E02" stroke-width="0.205417" stroke-miterlimit="10" stroke-linecap="round"/>
<path d="M23.3423 42.9824C23.3423 42.9824 23.3423 45.3346 23.1655 45.6883C22.9886 46.042 23.6518 47.8636 26.225 47.9963" stroke="#D57E02" stroke-width="0.205417" stroke-miterlimit="10" stroke-linecap="round"/>
<path d="M27.1894 46.697C27.1894 46.697 26.0487 46.2637 25.7127 46.6174C25.3767 46.9712 25.3148 48.2091 24.961 48.4567C24.6073 48.7043 24.1387 48.8812 24.1387 48.8812" stroke="#D57E02" stroke-width="0.205417" stroke-miterlimit="10" stroke-linecap="round"/>
<path d="M16.3564 53.4437C16.3564 53.4437 20.7424 45.662 27.7901 42.6378C27.7901 42.6378 28.922 40.4448 28.922 38.915" stroke="#D57E02" stroke-width="0.205417" stroke-miterlimit="10" stroke-linecap="round"/>
<path d="M21.7949 49.5879C21.7949 49.5879 22.1486 51.7632 24.3239 52.5148" stroke="#D57E02" stroke-width="0.205417" stroke-miterlimit="10" stroke-linecap="round"/>
<path d="M19.7788 52.9925C20.0087 53.7088 20.8753 56.0079 23.0771 57.4669C23.1656 57.52 23.2717 57.52 23.3601 57.4669L23.6784 57.2635C23.8465 57.1574 23.8376 56.9187 23.6696 56.8214C22.8914 56.3793 21.1671 55.1501 20.5835 52.7184C20.5481 52.5592 20.3801 52.4796 20.2298 52.5415L19.9291 52.6742C19.7965 52.7361 19.7346 52.8687 19.7788 52.9925Z" fill="#D57E02"/>
<path d="M7.08089 52.9925C6.85098 53.7088 5.98439 56.0079 3.78255 57.4669C3.69412 57.52 3.58801 57.52 3.49958 57.4669L3.18125 57.2635C3.01323 57.1574 3.02208 56.9187 3.19009 56.8214C3.96825 56.3793 5.69258 55.1501 6.2762 52.7184C6.31157 52.5592 6.47959 52.4796 6.62991 52.5415L6.93056 52.6742C7.06321 52.7361 7.1251 52.8687 7.08089 52.9925Z" fill="#D57E02"/>
<path d="M3.96822 40.9932C3.96822 40.9932 2.96899 42.7882 1.64258 42.7175" stroke="#D57E02" stroke-width="0.205417" stroke-miterlimit="10" stroke-linecap="round"/>
<path d="M-4.48535 41.9565C-4.48535 41.9565 -1.42577 41.2048 0.652276 42.7081C2.73916 44.2114 3.13709 46.5193 4.72878 47.4036C6.32047 48.2879 3.81798 52.0902 3.81798 52.0902" stroke="#D57E02" stroke-width="0.205417" stroke-miterlimit="10" stroke-linecap="round"/>
<path d="M3.8883 47.2803C3.8883 47.2803 2.56189 47.7224 1.53613 48.6509" stroke="#D57E02" stroke-width="0.205417" stroke-miterlimit="10" stroke-linecap="round"/>
<path d="M6.02011 45.9092C6.02011 45.9092 5.53376 48.6593 4.95898 49.8088" stroke="#D57E02" stroke-width="0.205417" stroke-miterlimit="10" stroke-linecap="round"/>
<path d="M21.9102 39.4102L24.1208 41.6297" stroke="#191708" stroke-width="0.205417" stroke-miterlimit="10" stroke-linecap="round"/>
<path d="M20.8398 40.1797C20.8398 40.1797 21.9717 40.8429 22.5023 40.9402" stroke="#191708" stroke-width="0.205417" stroke-miterlimit="10" stroke-linecap="round"/>
<path d="M12.8018 50.8438C12.8018 50.8438 13.1997 53.9033 12.9344 57.1575" stroke="#D57E02" stroke-width="0.205417" stroke-miterlimit="10" stroke-linecap="round"/>
<path d="M2.47363 37.3408C2.47363 37.3408 4.23334 38.4373 4.26871 40.2678" stroke="#D57E02" stroke-width="0.205417" stroke-miterlimit="10" stroke-linecap="round"/>
<path d="M4.99414 40.1621C4.99414 40.1621 5.78999 39.8968 5.99337 39.3662" stroke="#D57E02" stroke-width="0.205417" stroke-miterlimit="10" stroke-linecap="round"/>
<path d="M15.9418 14.6938C15.9418 14.6938 16.5166 14.2251 16.2071 13.1905C15.8976 12.1559 14.7038 11.3247 13.2448 12.0409C11.5028 12.8898 10.7246 12.5361 10.7246 12.5361C10.7246 12.5361 10.8484 15.1713 13.5808 15.3835" fill="#002E6D"/>
<path d="M13.607 15.6048C13.607 15.6048 13.4832 14.8178 13.7485 14.4994C14.0137 14.1899 16.3836 13.3322 17.0556 15.145" fill="#F89E1C"/>
<path d="M14.7653 30.0361L14.7211 30.0273C11.9357 29.4171 10.1583 26.6317 10.7684 23.8462L11.7942 19.1684C12.4043 16.3829 15.1898 14.6055 17.9753 15.2157L18.0195 15.2245C20.8049 15.8347 22.5823 18.6202 21.9722 21.4056L20.9464 26.0834C20.3274 28.8689 17.5508 30.6463 14.7653 30.0361Z" fill="#FAC8BB"/>
<path d="M17.1176 23.5368C17.4978 24.085 17.9222 24.9781 17.1795 25.5441C17.0645 25.6325 16.8876 25.5529 16.8788 25.4026L16.7727 23.6517C16.7638 23.466 17.0114 23.3776 17.1176 23.5368Z" fill="#FF8D76"/>
<path d="M12.3383 23.6319C12.5888 22.3821 12.0737 21.225 11.1878 21.0475C10.3019 20.87 9.38074 21.7392 9.13027 22.989C8.8798 24.2388 9.3949 25.3959 10.2808 25.5734C11.1666 25.7509 12.0878 24.8817 12.3383 23.6319Z" fill="#FAC8BB"/>
<path d="M10.5742 21.6709C10.5742 21.6709 11.3701 21.7682 11.3082 23.1742" stroke="#FF7F66" stroke-width="0.248003" stroke-miterlimit="10" stroke-linecap="round" stroke-linejoin="round"/>
<path d="M14.1104 22.3516L14.6232 22.6522" stroke="#002E6D" stroke-width="0.422143" stroke-miterlimit="10" stroke-linecap="round"/>
<path d="M15.3241 23.2974C15.3604 22.825 15.07 22.4176 14.6756 22.3873C14.2811 22.357 13.932 22.7154 13.8957 23.1877C13.8595 23.6601 14.1498 24.0675 14.5443 24.0978C14.9387 24.1281 15.2878 23.7697 15.3241 23.2974Z" fill="white"/>
<path d="M15.2154 23.2805C15.2449 22.8958 15.0083 22.5639 14.6869 22.5393C14.3655 22.5146 14.081 22.8065 14.0515 23.1911C14.022 23.5758 14.2586 23.9077 14.58 23.9324C14.9014 23.957 15.1858 23.6652 15.2154 23.2805Z" fill="#002E6D"/>
<path d="M19.9215 23.1113L19.3467 23.297" stroke="#002E6D" stroke-width="0.422143" stroke-miterlimit="10" stroke-linecap="round"/>
<path d="M19.9473 23.9739C20.0177 23.5054 19.7576 23.078 19.3664 23.0193C18.9752 22.9605 18.601 23.2927 18.5307 23.7612C18.4603 24.2296 18.7204 24.657 19.1116 24.7157C19.5028 24.7745 19.877 24.4423 19.9473 23.9739Z" fill="white"/>
<path d="M19.7854 23.9435C19.8427 23.5619 19.6307 23.2138 19.312 23.166C18.9932 23.1181 18.6884 23.3886 18.6311 23.7701C18.5738 24.1516 18.7857 24.4997 19.1045 24.5476C19.4232 24.5955 19.7281 24.325 19.7854 23.9435Z" fill="#002E6D"/>
<path d="M13.9874 20.9545C14.5003 20.7953 15.3404 20.645 15.7737 21.1844C15.8267 21.2552 15.756 21.3348 15.6587 21.3082C15.3846 21.2375 14.8717 21.1314 14.0493 21.1225C13.9255 21.1225 13.8725 20.9899 13.9874 20.9545Z" fill="#002E6D"/>
<path d="M20.5308 22.2541C20.1329 21.8916 19.4343 21.4052 18.8153 21.7147C18.7357 21.7589 18.7711 21.8562 18.8684 21.8739C19.1425 21.9181 19.6554 22.0419 20.407 22.3779C20.5131 22.431 20.6104 22.3337 20.5308 22.2541Z" fill="#002E6D"/>
<path d="M11.485 19.1152C10.7422 20.5654 11.8741 23.0149 11.8741 23.0149L13.9079 20.5389L11.485 19.1152Z" fill="#002E6D"/>
<path d="M22.7333 23.9878C22.7333 23.9878 24.7937 17.3292 19.0371 15.3484C14.5007 13.7833 12.9179 15.6845 12.352 16.551C10.9283 18.744 10.8575 20.4153 10.8398 21.0343C10.8398 21.0697 12.9798 21.6268 12.9798 21.6268L15.5 18.6202L22.7333 23.9878Z" fill="#002E6D"/>
<path d="M15.4994 18.6202L14.3145 17.6475L15.013 19.4691" fill="#FAC8BB"/>
<path d="M15.6061 30.1153C15.6061 30.1153 13.6784 30.3717 11.9541 28.4971" stroke="#FF7F66" stroke-width="0.248003" stroke-miterlimit="10" stroke-linecap="round" stroke-linejoin="round"/>
<path d="M14.0225 25.7295C14.0225 25.7295 14.9244 27.6749 17.2235 27.1178" stroke="#FF7F66" stroke-width="0.248003" stroke-miterlimit="10" stroke-linecap="round" stroke-linejoin="round"/>
<g style="mix-blend-mode:overlay">
<path d="M23.2275 13.2045C23.8424 13.2045 24.3412 13.7032 24.3412 14.3181C24.3412 13.7032 24.8399 13.2045 25.4548 13.2045C24.8399 13.2045 24.3412 12.7057 24.3412 12.0908C24.3412 12.7057 23.8424 13.2045 23.2275 13.2045Z" fill="#002E6D"/>
</g>
<g style="mix-blend-mode:overlay">
<path d="M22.2725 31.3412C22.8874 31.3412 23.3861 31.8399 23.3861 32.4548C23.3861 31.8399 23.8848 31.3412 24.4997 31.3412C23.8848 31.3412 23.3861 30.8424 23.3861 30.2275C23.3861 30.8424 22.8874 31.3412 22.2725 31.3412Z" fill="#002E6D"/>
</g>
<g style="mix-blend-mode:overlay">
<path d="M18.4541 9.38663C20.4729 9.38663 22.1132 11.0269 22.1132 13.0457C22.1132 11.0269 23.7535 9.38663 25.7723 9.38663C23.7535 9.38663 22.1132 7.74635 22.1132 5.72754C22.1132 7.74635 20.4729 9.38663 18.4541 9.38663Z" fill="#002E6D"/>
</g>
<g style="mix-blend-mode:overlay">
<path d="M45.1816 40.8862C46.6738 40.8862 47.8862 42.0986 47.8862 43.5907C47.8862 42.0986 49.0986 40.8862 50.5907 40.8862C49.0986 40.8862 47.8862 39.6738 47.8862 38.1816C47.8862 39.6738 46.6738 40.8862 45.1816 40.8862Z" fill="#002E6D"/>
</g>
<g style="mix-blend-mode:overlay">
<path d="M44.2275 44.8637C44.7542 44.8637 45.1821 45.2916 45.1821 45.8183C45.1821 45.2916 45.61 44.8637 46.1366 44.8637C45.61 44.8637 45.1821 44.4358 45.1821 43.9092C45.1821 44.4358 44.7542 44.8637 44.2275 44.8637Z" fill="#002E6D"/>
</g>
<rect x="29.6016" y="9.21875" width="15.1782" height="18.5855" rx="1.27273" transform="rotate(-2.53912 29.6016 9.21875)" fill="#E7EBEE"/>
<rect x="28.9551" y="8.62695" width="15.1782" height="18.5855" rx="1.27273" transform="rotate(-2.53912 28.9551 8.62695)" fill="white"/>
<g clip-path="url(#clip1_917_62758)">
<path d="M31.7916 18.1345C31.5584 17.2636 31.6134 16.3406 31.9482 15.5036C32.283 14.6665 32.8798 13.9602 33.6492 13.4904C34.4187 13.0205 35.3195 12.8123 36.2171 12.8968C37.1147 12.9813 37.9609 13.354 38.6291 13.9592C39.2973 14.5645 39.7517 15.3697 39.9244 16.2546C40.0971 17.1394 39.9789 18.0564 39.5872 18.8685C39.1956 19.6806 38.5517 20.3441 37.7518 20.7599C36.9519 21.1758 36.0388 21.3216 35.1492 21.1755C34.5144 21.5128 33.8216 21.8425 33.5027 21.9926C33.4211 22.0308 33.3315 22.0486 33.2416 22.0445C33.1516 22.0403 33.064 22.0143 32.9863 21.9687C32.9087 21.9231 32.8433 21.8593 32.7958 21.7827C32.7484 21.7062 32.7202 21.6193 32.7139 21.5294C32.6895 21.1843 32.6419 20.4431 32.6272 19.7408C32.2342 19.2732 31.9488 18.7248 31.7916 18.1345ZM34.4918 14.9939C34.2881 15.1845 34.1538 15.432 34.0825 15.7319C34.0613 15.8379 34.082 15.9479 34.1403 16.039C34.1985 16.13 34.2898 16.1949 34.3949 16.2201C34.5 16.2452 34.6108 16.2286 34.7039 16.1737C34.7971 16.1189 34.8653 16.0301 34.8943 15.926C34.9345 15.7596 34.9964 15.6657 35.0629 15.6041C35.1319 15.5389 35.2345 15.4832 35.3932 15.4406C35.5137 15.4084 35.6665 15.4129 35.7932 15.4707C35.9054 15.5213 36.0178 15.6203 36.075 15.8338C36.1031 15.9387 36.0758 15.9979 35.8579 16.2886C35.6669 16.5439 35.3667 16.9552 35.5301 17.5651C35.5588 17.6721 35.6288 17.7633 35.7247 17.8187C35.8206 17.8741 35.9346 17.8891 36.0416 17.8604C36.1486 17.8317 36.2398 17.7617 36.2952 17.6658C36.3505 17.5699 36.3655 17.4559 36.3369 17.3489C36.2835 17.1499 36.346 17.03 36.5259 16.7893L36.5622 16.7421C36.7274 16.526 37.0223 16.1421 36.8818 15.6177C36.7596 15.1616 36.4771 14.8626 36.1379 14.709C35.8355 14.5756 35.4966 14.5491 35.177 14.6339C34.9323 14.6994 34.6918 14.8065 34.4918 14.9939ZM36.8677 18.792C36.8294 18.6493 36.7361 18.5277 36.6082 18.4539C36.4803 18.38 36.3283 18.36 36.1857 18.3983C36.043 18.4365 35.9214 18.5298 35.8476 18.6577C35.7737 18.7856 35.7537 18.9376 35.792 19.0802C35.8302 19.2229 35.9235 19.3445 36.0514 19.4183C36.1793 19.4922 36.3313 19.5122 36.4739 19.4739C36.6166 19.4357 36.7382 19.3424 36.812 19.2145C36.8859 19.0866 36.9059 18.9346 36.8677 18.792ZM36.9966 21.6397C37.9275 22.1329 39.0107 22.2546 40.0278 21.9804C40.601 21.8277 41.1348 21.5541 41.5935 21.1781C42.313 21.1525 43.0811 21.0908 43.4341 21.0596C43.524 21.0518 43.6106 21.0222 43.6863 20.9733C43.7621 20.9245 43.8249 20.8579 43.8691 20.7793C43.9134 20.7007 43.9378 20.6125 43.9403 20.5224C43.9427 20.4322 43.9232 20.3428 43.8833 20.2619C43.6204 19.727 43.346 19.1978 43.0603 18.6747C43.1622 18.0986 43.142 17.5075 43.001 16.9396C42.8599 16.3718 42.6012 15.84 42.2416 15.3785C41.8819 14.917 41.4293 14.5362 40.9131 14.2608C40.3969 13.9854 39.8286 13.8214 39.2451 13.7796C39.8172 14.3769 40.2228 15.1136 40.4215 15.9164C40.6202 16.7192 40.605 17.5601 40.3776 18.3552C40.1501 19.1504 39.7183 19.872 39.1251 20.4483C38.5318 21.0246 37.798 21.4354 36.9966 21.6397Z" fill="#007BE0"/>
</g>
</g>
<defs>
<clipPath id="clip0_917_62758">
<rect width="56" height="56" rx="28" fill="white"/>
</clipPath>
<clipPath id="clip1_917_62758">
<rect width="13.3636" height="13.3636" fill="white" transform="translate(29.2031 12.7754) rotate(-15)"/>
</clipPath>
</defs>
</svg>
