<svg width="40" height="40" viewBox="0 0 40 40" fill="none" xmlns="http://www.w3.org/2000/svg">
<path d="M31.6641 22.5C31.6641 24.9723 30.931 27.389 29.5574 29.4446C28.1839 31.5002 26.2317 33.1024 23.9476 34.0485C21.6635 34.9946 19.1502 35.2421 16.7254 34.7598C14.3007 34.2775 12.0734 33.087 10.3252 31.3388C8.57708 29.5907 7.38657 27.3634 6.90425 24.9386C6.42194 22.5139 6.66948 20.0005 7.61557 17.7165C8.56167 15.4324 10.1638 13.4801 12.2194 12.1066C14.2751 10.7331 16.6918 10 19.1641 10H33.3307M33.3307 10L28.3307 5M33.3307 10L28.3307 15" stroke="white" stroke-width="2" stroke-linecap="round" stroke-linejoin="round"/>
<path d="M17.001 17.959V22.667H18.475C18.64 22.172 19.047 21.82 19.685 21.82C20.554 21.82 21.005 22.315 21.005 23.217C21.005 24.064 20.598 24.702 19.696 24.702C18.948 24.702 18.497 24.295 18.365 23.734H16.869C17.001 25.043 17.991 26 19.718 26C21.544 26 22.49 24.834 22.49 23.195C22.49 21.952 21.852 20.544 19.982 20.544C19.311 20.544 18.706 20.83 18.409 21.193V19.312H21.973V17.959H17.001Z" fill="white"/>
</svg>
