<svg width="22" height="30" viewBox="0 0 22 30" fill="none" xmlns="http://www.w3.org/2000/svg">
<path d="M9.16667 0C8.15415 0 7.33333 0.820811 7.33333 1.83333C7.33333 2.84586 8.15415 3.66667 9.16667 3.66667H12.8333C13.8459 3.66667 14.6667 2.84586 14.6667 1.83333C14.6667 0.820811 13.8459 0 12.8333 0H9.16667Z" fill="#0055B8"/>
<path fill-rule="evenodd" clip-rule="evenodd" d="M0 5.5C0 3.47496 1.64162 1.83333 3.66667 1.83333C3.66667 4.8709 6.1291 7.33333 9.16667 7.33333H12.8333C15.8709 7.33333 18.3333 4.8709 18.3333 1.83333C20.3584 1.83333 22 3.47496 22 5.5V25.6667C22 27.6917 20.3584 29.3333 18.3333 29.3333H3.66667C1.64162 29.3333 0 27.6917 0 25.6667V5.5ZM5.5 12.8333C4.48748 12.8333 3.66667 13.6541 3.66667 14.6667C3.66667 15.6792 4.48748 16.5 5.5 16.5H5.51833C6.53086 16.5 7.35167 15.6792 7.35167 14.6667C7.35167 13.6541 6.53086 12.8333 5.51833 12.8333H5.5ZM11 12.8333C9.98748 12.8333 9.16667 13.6541 9.16667 14.6667C9.16667 15.6792 9.98748 16.5 11 16.5H16.5C17.5125 16.5 18.3333 15.6792 18.3333 14.6667C18.3333 13.6541 17.5125 12.8333 16.5 12.8333H11ZM5.5 20.1667C4.48748 20.1667 3.66667 20.9875 3.66667 22C3.66667 23.0125 4.48748 23.8333 5.5 23.8333H5.51833C6.53086 23.8333 7.35167 23.0125 7.35167 22C7.35167 20.9875 6.53086 20.1667 5.51833 20.1667H5.5ZM11 20.1667C9.98748 20.1667 9.16667 20.9875 9.16667 22C9.16667 23.0125 9.98748 23.8333 11 23.8333H16.5C17.5125 23.8333 18.3333 23.0125 18.3333 22C18.3333 20.9875 17.5125 20.1667 16.5 20.1667H11Z" fill="#0055B8"/>
</svg>
