<svg width="40" height="40" viewBox="0 0 40 40" fill="none" xmlns="http://www.w3.org/2000/svg">
<path d="M8.33593 22.5C8.33593 24.9723 9.06904 27.389 10.4426 29.4446C11.8161 31.5002 13.7683 33.1024 16.0524 34.0485C18.3365 34.9946 20.8498 35.2421 23.2746 34.7598C25.6993 34.2775 27.9266 33.087 29.6748 31.3388C31.4229 29.5907 32.6134 27.3634 33.0957 24.9386C33.5781 22.5139 33.3305 20.0005 32.3844 17.7165C31.4383 15.4324 29.8362 13.4801 27.7806 12.1066C25.7249 10.7331 23.3082 10 20.8359 10H6.66926M6.66926 10L11.6693 5M6.66926 10L11.6693 15" stroke="white" stroke-width="2" stroke-linecap="round" stroke-linejoin="round"/>
<path d="M18.001 17.959V22.667H19.475C19.64 22.172 20.047 21.82 20.685 21.82C21.554 21.82 22.005 22.315 22.005 23.217C22.005 24.064 21.598 24.702 20.696 24.702C19.948 24.702 19.497 24.295 19.365 23.734H17.869C18.001 25.043 18.991 26 20.718 26C22.544 26 23.49 24.834 23.49 23.195C23.49 21.952 22.852 20.544 20.982 20.544C20.311 20.544 19.706 20.83 19.409 21.193V19.312H22.973V17.959H18.001Z" fill="white"/>
</svg>
