<svg width="56" height="56" viewBox="0 0 56 56" fill="none" xmlns="http://www.w3.org/2000/svg">
<g clip-path="url(#clip0_917_62794)">
<path d="M11.2766 62.6405C4.96318 59.3072 -1.44098 54.5369 -4.27584 47.9753C-7.0713 41.3677 -6.30395 32.9097 -3.45846 25.6985C-0.61297 18.4873 -0.925088 8.16694 4.94736 5.05016C10.8198 1.93338 23.1713 3.03605 28.3229 6.013C34.7101 9.70392 35.2953 18.0626 41.3664 21.0547C47.4374 24.0008 58.347 25.0685 61.6682 30.285C64.9894 35.5015 64.2166 39.747 60.3821 45.1472C56.5936 50.5015 49.941 53.2311 44.4354 56.9122C38.8904 60.6327 34.4466 65.2586 29.133 66.5906C23.8194 67.9226 17.5901 65.9738 11.2766 62.6405Z" fill="#FFCE00"/>
<path opacity="0.8" d="M35.6322 24.7829C39.0839 27.9829 42.3482 32.1135 43.0339 36.7757C43.6866 41.4605 41.7547 46.7158 38.7122 50.8225C35.6697 54.9292 34.1074 61.5546 29.8359 62.5374C25.5644 63.5201 17.887 60.7103 15.1143 57.9355C11.6766 54.4952 12.7302 49.0724 9.37462 46.1311C6.01117 43.219 -0.75401 40.6776 -1.97891 36.7889C-3.20382 32.9002 -1.98723 30.3285 1.37608 27.5438C4.70229 24.7806 9.40457 24.1775 13.5387 22.7727C17.7047 21.3497 21.324 19.1621 24.935 19.2205C28.5461 19.2789 32.1805 21.5829 35.6322 24.7829Z" fill="#FFE784"/>
<path opacity="0.8" d="M27.7336 45.2926C26.6882 49.8819 24.7432 54.7741 21.0483 57.6991C17.3175 60.6067 11.8004 61.5613 6.72265 60.9797C1.64488 60.3982 -4.87402 62.3579 -7.86088 59.1501C-10.8477 55.9422 -12.2531 47.8885 -11.2364 44.0999C-9.97583 39.4026 -4.75277 37.6037 -3.88328 33.227C-3.04305 28.8581 -4.2247 21.7285 -1.46947 18.7234C1.28577 15.7183 4.12125 15.486 8.21449 17.0064C12.2706 18.5053 15.1441 22.2761 18.4277 25.154C21.7431 28.0503 25.4473 30.0909 27.2022 33.2474C28.9571 36.4039 28.779 40.7033 27.7336 45.2926Z" fill="#FFF7D7"/>
<g style="mix-blend-mode:overlay">
<path d="M23.2275 13.2045C23.8424 13.2045 24.3412 13.7032 24.3412 14.3181C24.3412 13.7032 24.8399 13.2045 25.4548 13.2045C24.8399 13.2045 24.3412 12.7057 24.3412 12.0908C24.3412 12.7057 23.8424 13.2045 23.2275 13.2045Z" fill="#002E6D"/>
</g>
<g style="mix-blend-mode:overlay">
<path d="M22.2725 31.3412C22.8874 31.3412 23.3861 31.8399 23.3861 32.4548C23.3861 31.8399 23.8848 31.3412 24.4997 31.3412C23.8848 31.3412 23.3861 30.8424 23.3861 30.2275C23.3861 30.8424 22.8874 31.3412 22.2725 31.3412Z" fill="#002E6D"/>
</g>
<g style="mix-blend-mode:overlay">
<path d="M18.4541 9.38663C20.4729 9.38663 22.1132 11.0269 22.1132 13.0457C22.1132 11.0269 23.7535 9.38663 25.7723 9.38663C23.7535 9.38663 22.1132 7.74635 22.1132 5.72754C22.1132 7.74635 20.4729 9.38663 18.4541 9.38663Z" fill="#002E6D"/>
</g>
<g style="mix-blend-mode:overlay">
<path d="M45.1816 40.8862C46.6738 40.8862 47.8862 42.0986 47.8862 43.5907C47.8862 42.0986 49.0986 40.8862 50.5907 40.8862C49.0986 40.8862 47.8862 39.6738 47.8862 38.1816C47.8862 39.6738 46.6738 40.8862 45.1816 40.8862Z" fill="#002E6D"/>
</g>
<g style="mix-blend-mode:overlay">
<path d="M44.2275 44.8637C44.7542 44.8637 45.1821 45.2916 45.1821 45.8183C45.1821 45.2916 45.61 44.8637 46.1366 44.8637C45.61 44.8637 45.1821 44.4358 45.1821 43.9092C45.1821 44.4358 44.7542 44.8637 44.2275 44.8637Z" fill="#002E6D"/>
</g>
<rect x="29.6016" y="9.21875" width="15.1782" height="18.5855" rx="1.27273" transform="rotate(-2.53912 29.6016 9.21875)" fill="#E7EBEE"/>
<rect x="28.9551" y="8.62695" width="15.1782" height="18.5855" rx="1.27273" transform="rotate(-2.53912 28.9551 8.62695)" fill="white"/>
<g clip-path="url(#clip1_917_62794)">
<path fill-rule="evenodd" clip-rule="evenodd" d="M38.7702 22.6638C41.6218 21.8997 43.3141 18.9686 42.55 16.117C41.7859 13.2654 38.8548 11.5731 36.0032 12.3372C33.1515 13.1013 31.4593 16.0324 32.2233 18.884C32.9874 21.7356 35.9185 23.4279 38.7702 22.6638ZM39.5557 16.025C39.7402 15.7054 39.6307 15.2967 39.3111 15.1122C38.9915 14.9277 38.5829 15.0372 38.3984 15.3568L36.8426 18.0515L35.7845 17.4407C35.4649 17.2561 35.0563 17.3656 34.8718 17.6852C34.6872 18.0048 34.7967 18.4135 35.1163 18.598L36.753 19.5429C37.0726 19.7275 37.4813 19.618 37.6658 19.2984L39.5557 16.025Z" fill="#0055B8"/>
</g>
<path d="M6.84992 54.6073C6.84992 54.6073 5.30244 65.7138 6.38125 72.1336C7.46007 78.5535 7.63692 83.5231 7.57502 86.1405C7.52197 88.6342 7.87568 101.456 8.645 104.746C8.7069 105.002 8.92796 105.179 9.1844 105.205C10.1306 105.276 12.5004 105.347 14.3751 104.631C14.6669 104.516 14.8614 104.233 14.8526 103.923C14.7819 101.2 14.4635 88.1832 14.6669 87.2193C14.8968 86.1494 14.72 85.6719 14.72 84.8407C14.72 84.0094 14.9499 66.9606 15.1179 66.9606C15.2859 66.9606 15.6838 66.9606 15.7457 67.3144C15.8076 67.6681 15.9137 84.6638 15.9137 85.1413C15.9137 85.6188 16.1436 87.3432 16.1436 88.1125C16.1436 88.7845 16.011 100.386 15.9845 103.393C15.9756 103.817 16.2674 104.18 16.6742 104.277C17.7972 104.542 20.1406 105.356 21.6438 105.011C22.0241 104.923 22.2982 104.595 22.307 104.206C22.3778 102.588 22.6165 97.6715 23.1294 93.5154C23.7572 88.4662 23.0587 85.6719 23.1736 85.1413C23.2886 84.6107 23.3858 83.2224 23.2178 83.0986C23.0498 82.9837 25.3401 73.3274 25.7026 70.5596C27.2943 58.4097 23.7042 54.2979 23.7042 54.2979C23.7042 54.2979 23.5185 54.6781 15.6308 54.8549C7.74304 55.0053 6.84992 54.6073 6.84992 54.6073Z" fill="#558AF0"/>
<path d="M7.82196 52.3965L7.52132 52.4672C6.86696 54.2446 4.88618 62.937 6.30102 72.1777C7.42404 79.5348 7.55667 83.6202 7.50362 86.2376C7.45056 88.7401 7.98997 101.359 8.66202 104.684C8.80351 105.409 9.82043 105.267 9.82043 105.267C9.82043 105.267 8.44095 91.7113 8.66202 87.6525C8.88309 83.5937 8.6797 77.8636 7.63626 70.9839C6.7962 65.4395 8.23758 56.2165 9.02458 52.9359C7.98998 52.6794 8.03419 52.6087 7.82196 52.3965Z" fill="#EBF4FF"/>
<path d="M21.2986 53.4668C22.0148 55.0319 24.0575 59.8247 24.2344 64.1753C24.4554 69.4633 21.1925 80.9942 21.7672 83.3818C22.3509 85.7693 21.5462 99.5463 21.0421 102.517C20.5469 105.418 21.2721 105.011 21.334 105.055C21.334 105.055 22.3862 104.905 22.3509 104.109C22.2801 102.491 22.6515 97.8043 23.1733 93.6305C23.8011 88.5548 23.1025 85.7516 23.2175 85.221C23.3324 84.6816 23.4297 83.2933 23.2617 83.1695C23.0937 83.0546 25.3928 73.3541 25.7553 70.5775C27.1613 59.7363 23.4827 53.5552 23.3236 53.3076C23.3059 53.3253 23.076 53.3872 21.2986 53.4668Z" fill="#EBF4FF"/>
<path d="M23.3145 53.2988C23.3145 53.2988 23.3145 53.2988 23.3233 53.3077C23.3321 53.2988 23.3145 53.2988 23.3145 53.2988Z" fill="#EBF4FF"/>
<path d="M6.84996 54.1914C6.84996 54.1914 5.40859 66.191 6.29286 72.0449C7.26556 78.4824 7.63695 83.3459 7.57506 85.9633C7.522 88.4305 7.8315 100.625 8.60082 104.613C8.67156 104.975 8.98106 105.249 9.35245 105.267C10.4224 105.32 12.6773 105.32 14.4636 104.604C14.7023 104.507 14.8526 104.268 14.8438 104.011C14.7819 101.474 14.4635 88.1829 14.6669 87.219C14.8968 86.149 14.72 85.6715 14.72 84.8403C14.72 84.0091 14.9499 66.9603 15.1179 66.9603C15.2859 66.9603 15.6839 66.9603 15.7458 67.314C15.8077 67.6677 15.9138 84.6635 15.9138 85.141C15.9138 85.6185 16.1437 87.3428 16.1437 88.1121C16.1437 88.7842 16.011 100.501 15.9845 103.437C15.9757 103.835 16.2409 104.197 16.6212 104.321C17.7354 104.683 20.061 105.329 21.5908 105.064C22.0241 104.984 22.3513 104.604 22.3601 104.162C22.4132 102.455 22.6077 97.6977 23.1029 93.63C23.7307 88.5808 23.0852 85.6539 23.2002 85.1233C23.3151 84.5927 23.4389 83.116 23.2709 82.9922C23.1029 82.8684 25.3843 73.0883 25.7646 70.3294C27.2236 59.78 24.0049 54.6954 24.0049 54.6954C24.0049 54.6954 23.5362 54.6512 15.6396 54.8369C7.74306 55.0049 6.84996 54.1914 6.84996 54.1914Z" stroke="#1148B7" stroke-width="0.205417" stroke-miterlimit="10" stroke-linecap="round"/>
<path d="M16.1782 13.5767C16.1782 13.5767 12.65 13.2849 10.4835 16.6451C8.30821 20.0054 9.84683 23.233 8.96255 25.2845C8.10481 27.2741 7.24707 28.1495 7.24707 28.1495C7.24707 28.1495 12.1902 30.316 15.1702 29.9004C18.1413 29.4848 17.4604 29.9711 17.4604 29.9711C17.4604 29.9711 22.7661 29.1311 25.6311 27.6632C25.6311 27.6632 23.6238 24.4002 23.5 21.712C23.3762 19.015 22.2797 15.7962 20.4316 14.8324" fill="#002E6D"/>
<path d="M14.1443 27.9375L13.8348 30.0244L12.1281 30.3516C12.1281 30.3516 11.6506 34.1451 15.0816 34.5253C18.5126 34.9056 20.6437 30.4312 20.6437 30.4312L18.4507 30.1836L18.5479 28.5211" fill="#FBC6B6"/>
<path d="M15.0822 13.4798C15.0822 13.4798 15.5774 12.9227 15.1175 11.9588C14.6577 10.995 13.349 10.3406 12.0137 11.2602C10.422 12.3656 9.59082 12.1268 9.59082 12.1268C9.59082 12.1268 10.1037 14.7178 12.845 14.5144" fill="#002E6D"/>
<path d="M12.9152 14.7351C12.9152 14.7351 12.6765 13.9746 12.8887 13.6209C13.1098 13.2672 15.3204 12.0734 16.2578 13.7624" fill="#F89E1C"/>
<path d="M16.2135 28.8305H16.1693C13.322 28.6448 11.1467 26.16 11.3412 23.3126L11.6595 18.5287C11.8452 15.6813 14.33 13.506 17.1774 13.7006H17.2216C20.069 13.8863 22.2443 16.3711 22.0497 19.2184L21.7314 24.0024C21.5457 26.8497 19.0609 29.0162 16.2135 28.8305Z" fill="#FAC8BB"/>
<path d="M17.0008 21.9684C17.4518 22.4548 18.0089 23.2772 17.3634 23.9492C17.2573 24.0553 17.0804 24.0023 17.0451 23.8519L16.6825 22.1364C16.6471 21.9507 16.8682 21.8358 17.0008 21.9684Z" fill="#FF8D76"/>
<path d="M12.8582 22.8435C12.9193 21.5702 12.2372 20.503 11.3347 20.4597C10.4322 20.4164 9.65108 21.4135 9.59003 22.6868C9.52898 23.96 10.2111 25.0273 11.1136 25.0705C12.0161 25.1138 12.7972 24.1167 12.8582 22.8435Z" fill="#FAC8BB"/>
<path d="M10.9699 23.9669C10.9699 23.9669 10.1652 23.8962 10.1829 22.499" stroke="#FF7F66" stroke-width="0.248003" stroke-miterlimit="10" stroke-linecap="round" stroke-linejoin="round"/>
<path d="M23.4291 22.9732C23.5494 21.7043 22.9178 20.6065 22.0184 20.5212C21.119 20.4359 20.2923 21.3954 20.172 22.6643C20.0516 23.9332 20.6832 25.0311 21.5826 25.1163C22.4821 25.2016 23.3087 24.2421 23.4291 22.9732Z" fill="#FAC8BB"/>
<path d="M21.8818 24.0199C21.8818 24.0199 22.6865 24.0641 22.8722 22.6758" stroke="#FF7F66" stroke-width="0.248003" stroke-miterlimit="10" stroke-linecap="round" stroke-linejoin="round"/>
<path d="M13.8525 21.2441L14.4096 21.4741" stroke="#002E6D" stroke-width="0.422143" stroke-miterlimit="10" stroke-linecap="round"/>
<path d="M14.5392 22.9035C14.9337 22.8745 15.2254 22.4681 15.1907 21.9956C15.156 21.5232 14.8081 21.1637 14.4136 21.1927C14.019 21.2216 13.7273 21.6281 13.762 22.1005C13.7967 22.573 14.1447 22.9325 14.5392 22.9035Z" fill="white"/>
<path d="M14.5447 22.7364C14.8662 22.7128 15.1039 22.3817 15.0756 21.9969C15.0474 21.6122 14.7639 21.3194 14.4424 21.343C14.121 21.3666 13.8833 21.6977 13.9115 22.0824C13.9398 22.4672 14.2233 22.76 14.5447 22.7364Z" fill="#002E6D"/>
<path d="M19.7152 21.1289L19.1758 21.3942" stroke="#002E6D" stroke-width="0.422143" stroke-miterlimit="10" stroke-linecap="round"/>
<path d="M19.1499 22.8444C19.5454 22.8444 19.8661 22.4604 19.8661 21.9867C19.8661 21.5129 19.5454 21.1289 19.1499 21.1289C18.7543 21.1289 18.4336 21.5129 18.4336 21.9867C18.4336 22.4604 18.7543 22.8444 19.1499 22.8444Z" fill="white"/>
<path d="M19.1227 22.6764C19.445 22.6764 19.7063 22.3637 19.7063 21.9779C19.7063 21.5921 19.445 21.2793 19.1227 21.2793C18.8004 21.2793 18.5391 21.5921 18.5391 21.9779C18.5391 22.3637 18.8004 22.6764 19.1227 22.6764Z" fill="#002E6D"/>
<path d="M13.5169 19.882C14.0033 19.6432 14.808 19.3691 15.312 19.8466C15.3739 19.9085 15.3209 19.9969 15.2148 19.9881C14.9318 19.9527 14.4101 19.935 13.5965 20.0411C13.4816 20.0588 13.4197 19.935 13.5169 19.882Z" fill="#002E6D"/>
<path d="M20.1839 20.1916C19.7329 19.8909 18.9724 19.5107 18.4065 19.9175C18.3357 19.9705 18.3799 20.0678 18.4861 20.0678C18.769 20.0678 19.2907 20.1208 20.0777 20.3331C20.2015 20.3684 20.2811 20.2535 20.1839 20.1916Z" fill="#002E6D"/>
<path d="M10.6603 18.626C10.1386 20.1735 11.633 22.4284 11.633 22.4284L13.2778 19.6783L10.6603 18.626Z" fill="#002E6D"/>
<path d="M21.7759 21.8624C21.7759 21.8624 24.0131 14.7705 18.0177 13.674C13.3045 12.8074 11.5625 15.0181 11.1381 15.9643C10.0593 18.343 10.2361 20.0054 10.3069 20.6155C10.3069 20.6509 12.5087 20.8808 12.5087 20.8808L14.5514 17.5383L21.7759 21.8624Z" fill="#002E6D"/>
<path d="M14.8253 17.7246L13.5166 16.9287L14.4805 18.6354" fill="#FAC8BB"/>
<path d="M17.0624 28.7779C17.0624 28.7779 15.1877 29.3173 13.2158 27.7256" stroke="#FF7F66" stroke-width="0.248003" stroke-miterlimit="10" stroke-linecap="round" stroke-linejoin="round"/>
<path d="M17.7525 24.9492L14.914 24.7988C14.8344 24.7988 14.7637 24.8607 14.7637 24.9403C14.7814 25.4178 14.9936 26.8503 17.0451 26.8857C17.1158 26.8857 17.1689 26.8415 17.1866 26.7708L17.4607 25.3117C17.4695 25.2675 17.5049 25.2233 17.5491 25.2056L17.7791 25.1172C17.8763 25.0906 17.8498 24.958 17.7525 24.9492Z" fill="#E86752"/>
<path d="M12.2076 31.8555C12.2076 31.8555 14.0292 34.5348 21.0857 31.9793C21.0857 31.9793 28.1422 48.6478 28.266 53.7589C28.3898 58.87 6.48633 57.1634 6.48633 57.1634L12.2076 31.8555Z" fill="#EBF4FF"/>
<path d="M11.9688 34.0391C11.9688 34.0391 14.8869 35.6219 20.2456 34.0391" stroke="#191708" stroke-width="0.205417" stroke-miterlimit="10" stroke-linecap="round"/>
<path d="M12.2173 31.8555C12.2173 31.8555 14.039 34.5348 21.0955 31.9793C21.0955 31.9793 28.152 48.6478 28.2758 53.7589C28.3995 58.87 6.49609 57.1634 6.49609 57.1634L12.2173 31.8555Z" stroke="#191708" stroke-width="0.205417" stroke-miterlimit="10" stroke-linecap="round"/>
<path d="M4.77128 32.3763C2.39259 34.8611 -0.472449 48.7088 -1.71927 54.7042C-2.9661 60.6996 -3.55858 60.5404 -2.99264 62.2382C-2.57703 63.4939 -0.543195 64.1925 1.26072 64.2897C2.24227 64.3428 3.12654 63.6973 3.3653 62.7422L3.40951 62.5919C3.40951 62.5919 4.08155 69.8695 5.21342 70.5415C5.21342 70.5415 11.1204 69.8695 13.6052 68.1717C16.09 66.4739 14.3833 33.5878 13.1365 29.8561C13.1365 29.8473 7.14114 29.8915 4.77128 32.3763Z" fill="#F89E1C"/>
<path d="M26.8782 32.2972C29.2569 34.782 32.122 48.6297 33.3688 54.6251C34.6156 60.6204 35.2081 60.4613 34.6422 62.1591C34.2266 63.4147 32.1927 64.1133 30.3888 64.2106C29.4073 64.2636 28.523 63.6181 28.2842 62.6631L28.24 62.5128C28.24 62.5128 28.072 68.9591 26.9401 69.64C26.9401 69.64 20.7944 69.4543 18.3008 67.7565C15.816 66.0587 17.7879 33.827 19.0347 30.0953C19.0259 30.0776 24.4995 29.8035 26.8782 32.2972Z" fill="#F89E1C"/>
<path d="M3.36523 62.7429L6.35406 48.7803" stroke="#D57E02" stroke-width="0.218592" stroke-miterlimit="10" stroke-linecap="round"/>
<path d="M28.2314 62.5037L26.4717 54.0146" stroke="#D57E02" stroke-width="0.218592" stroke-miterlimit="10" stroke-linecap="round"/>
<path d="M21.6078 31.2803C21.6078 31.2803 21.7227 41.2372 21.7227 42.7051C21.7227 44.173 18.3271 49.3813 18.3271 55.7127" stroke="#D57E02" stroke-width="0.218592" stroke-miterlimit="10" stroke-linecap="round"/>
<path d="M25.4725 41.0869C25.4725 41.0869 23.8896 43.4656 24.5705 45.4994" stroke="#D57E02" stroke-width="0.218592" stroke-miterlimit="10" stroke-linecap="round"/>
<path d="M25.7016 43.6953C25.7016 43.6953 24.1188 44.9421 25.2507 48.4439" stroke="#D57E02" stroke-width="0.218592" stroke-miterlimit="10" stroke-linecap="round"/>
<path d="M6.12402 40.8652C6.12402 40.8652 7.59191 42.3331 7.4858 43.916" stroke="#D57E02" stroke-width="0.218592" stroke-miterlimit="10" stroke-linecap="round"/>
<path d="M33.3603 54.7047C32.1135 48.7093 29.2042 34.7201 26.8255 32.2265C25.6052 30.9443 23.4564 30.4668 21.626 30.1484L21.6967 32.1823C22.6429 32.421 24.3761 32.8278 25.1631 33.2788C26.3568 33.9597 27.9927 40.2911 27.9927 40.2911L32.7855 62.4686L33.1127 63.6536C33.8555 63.3087 34.4302 62.84 34.6336 62.2299C35.1996 60.5321 34.6071 60.7001 33.3603 54.7047Z" fill="#EBF4FF"/>
<path d="M4.77128 32.3767C2.39259 34.8615 -0.472449 48.7092 -1.71927 54.7046C-2.9661 60.7 -3.55858 60.5408 -2.99264 62.2386C-2.78926 62.8399 -2.21448 63.3174 -1.47169 63.6623L-1.41863 62.9372C-1.41863 62.9372 2.04771 45.7734 3.48024 40.1229C3.91353 38.3986 5.25764 33.8976 6.46025 33.2256C7.59212 32.5889 10.6429 32.3944 10.6429 32.3944L11.1204 30.0068C9.16613 30.2191 6.25686 30.8204 4.77128 32.3767Z" fill="#EBF4FF"/>
<path d="M10.7666 31.8105C10.7666 31.8105 9.8646 38.2569 10.0857 40.7505C10.3156 43.2354 12.6854 46.4099 12.6854 51.9543" stroke="#D57E02" stroke-width="0.218592" stroke-miterlimit="10" stroke-linecap="round"/>
</g>
<defs>
<clipPath id="clip0_917_62794">
<rect width="56" height="56" rx="28" fill="white"/>
</clipPath>
<clipPath id="clip1_917_62794">
<rect width="13.3636" height="13.3636" fill="white" transform="translate(29.2031 12.7754) rotate(-15)"/>
</clipPath>
</defs>
</svg>
