<svg width="56" height="56" viewBox="0 0 56 56" fill="none" xmlns="http://www.w3.org/2000/svg">
<g clip-path="url(#clip0_917_62776)">
<path d="M11.2766 62.6405C4.96318 59.3072 -1.44098 54.5369 -4.27584 47.9753C-7.0713 41.3677 -6.30395 32.9097 -3.45846 25.6985C-0.61297 18.4873 -0.925088 8.16694 4.94736 5.05016C10.8198 1.93338 23.1713 3.03605 28.3229 6.013C34.7101 9.70392 35.2953 18.0626 41.3664 21.0547C47.4374 24.0008 58.347 25.0685 61.6682 30.285C64.9894 35.5015 64.2166 39.747 60.3821 45.1472C56.5936 50.5015 49.941 53.2311 44.4354 56.9122C38.8904 60.6327 34.4466 65.2586 29.133 66.5906C23.8194 67.9226 17.5901 65.9738 11.2766 62.6405Z" fill="#FFCE00"/>
<path opacity="0.8" d="M35.6322 24.7829C39.0839 27.9829 42.3482 32.1135 43.0339 36.7757C43.6866 41.4605 41.7547 46.7158 38.7122 50.8225C35.6697 54.9292 34.1074 61.5546 29.8359 62.5374C25.5644 63.5201 17.887 60.7103 15.1143 57.9355C11.6766 54.4952 12.7302 49.0724 9.37462 46.1311C6.01117 43.219 -0.75401 40.6776 -1.97891 36.7889C-3.20382 32.9002 -1.98723 30.3285 1.37608 27.5438C4.70229 24.7806 9.40457 24.1775 13.5387 22.7727C17.7047 21.3497 21.324 19.1621 24.935 19.2205C28.5461 19.2789 32.1805 21.5829 35.6322 24.7829Z" fill="#FFE784"/>
<path opacity="0.8" d="M27.7336 45.2926C26.6882 49.8819 24.7432 54.7741 21.0483 57.6991C17.3175 60.6067 11.8004 61.5613 6.72265 60.9797C1.64488 60.3982 -4.87402 62.3579 -7.86088 59.1501C-10.8477 55.9422 -12.2531 47.8885 -11.2364 44.0999C-9.97583 39.4026 -4.75277 37.6037 -3.88328 33.227C-3.04305 28.8581 -4.2247 21.7285 -1.46947 18.7234C1.28577 15.7183 4.12125 15.486 8.21449 17.0064C12.2706 18.5053 15.1441 22.2761 18.4277 25.154C21.7431 28.0503 25.4473 30.0909 27.2022 33.2474C28.9571 36.4039 28.779 40.7033 27.7336 45.2926Z" fill="#FFF7D7"/>
<g style="mix-blend-mode:overlay">
<path d="M23.2275 13.2045C23.8424 13.2045 24.3412 13.7032 24.3412 14.3181C24.3412 13.7032 24.8399 13.2045 25.4548 13.2045C24.8399 13.2045 24.3412 12.7057 24.3412 12.0908C24.3412 12.7057 23.8424 13.2045 23.2275 13.2045Z" fill="#002E6D"/>
</g>
<g style="mix-blend-mode:overlay">
<path d="M22.2725 31.3412C22.8874 31.3412 23.3861 31.8399 23.3861 32.4548C23.3861 31.8399 23.8848 31.3412 24.4997 31.3412C23.8848 31.3412 23.3861 30.8424 23.3861 30.2275C23.3861 30.8424 22.8874 31.3412 22.2725 31.3412Z" fill="#002E6D"/>
</g>
<g style="mix-blend-mode:overlay">
<path d="M18.4541 9.38663C20.4729 9.38663 22.1132 11.0269 22.1132 13.0457C22.1132 11.0269 23.7535 9.38663 25.7723 9.38663C23.7535 9.38663 22.1132 7.74635 22.1132 5.72754C22.1132 7.74635 20.4729 9.38663 18.4541 9.38663Z" fill="#002E6D"/>
</g>
<g style="mix-blend-mode:overlay">
<path d="M45.1816 40.8862C46.6738 40.8862 47.8862 42.0986 47.8862 43.5907C47.8862 42.0986 49.0986 40.8862 50.5907 40.8862C49.0986 40.8862 47.8862 39.6738 47.8862 38.1816C47.8862 39.6738 46.6738 40.8862 45.1816 40.8862Z" fill="#002E6D"/>
</g>
<g style="mix-blend-mode:overlay">
<path d="M44.2275 44.8637C44.7542 44.8637 45.1821 45.2916 45.1821 45.8183C45.1821 45.2916 45.61 44.8637 46.1366 44.8637C45.61 44.8637 45.1821 44.4358 45.1821 43.9092C45.1821 44.4358 44.7542 44.8637 44.2275 44.8637Z" fill="#002E6D"/>
</g>
<rect x="29.6016" y="9.21875" width="15.1782" height="18.5855" rx="1.27273" transform="rotate(-2.53912 29.6016 9.21875)" fill="#E7EBEE"/>
<rect x="28.9551" y="8.62695" width="15.1782" height="18.5855" rx="1.27273" transform="rotate(-2.53912 28.9551 8.62695)" fill="white"/>
<g clip-path="url(#clip1_917_62776)">
<path fill-rule="evenodd" clip-rule="evenodd" d="M33.9014 14.0158C33.9895 13.7554 34.1406 13.5206 34.3412 13.3325C34.5418 13.1444 34.7857 13.0088 35.0513 12.9376L37.1274 12.3813C37.3931 12.3101 37.6721 12.3057 37.9399 12.3683C38.2077 12.4309 38.4559 12.5586 38.6624 12.7401L39.2748 13.2788C39.3437 13.3392 39.4264 13.3818 39.5157 13.4026C39.6049 13.4234 39.6979 13.4219 39.7865 13.3982L40.2866 13.2642C40.7146 13.1495 41.1705 13.2095 41.5542 13.431C41.9379 13.6526 42.2179 14.0174 42.3325 14.4454L43.6296 19.286C43.7442 19.7139 43.6842 20.1699 43.4627 20.5535C43.2412 20.9372 42.8763 21.2172 42.4484 21.3318L34.9185 23.3495C34.4906 23.4641 34.0346 23.4041 33.651 23.1826C33.2673 22.9611 32.9873 22.5962 32.8727 22.1683L31.5756 17.3277C31.461 16.8997 31.521 16.4438 31.7425 16.0601C31.964 15.6764 32.3289 15.3964 32.7568 15.2818L33.257 15.1477C33.3455 15.124 33.4269 15.0788 33.4937 15.0162C33.5606 14.9535 33.611 14.8753 33.6404 14.7885L33.9013 14.0153L33.9014 14.0158ZM36.4548 18.3261C36.3784 18.0408 36.4184 17.7369 36.5661 17.4811C36.7138 17.2253 36.957 17.0386 37.2423 16.9622C37.5276 16.8858 37.8316 16.9258 38.0874 17.0734C38.3431 17.2211 38.5298 17.4644 38.6062 17.7497C38.6827 18.0349 38.6427 18.3389 38.495 18.5947C38.3473 18.8505 38.1041 19.0371 37.8188 19.1136C37.5335 19.19 37.2295 19.15 36.9737 19.0023C36.7179 18.8546 36.5313 18.6114 36.4548 18.3261ZM36.9541 15.8865C36.3835 16.0394 35.897 16.4127 35.6017 16.9242C35.3063 17.4358 35.2263 18.0438 35.3792 18.6143C35.532 19.1849 35.9053 19.6714 36.4169 19.9668C36.9285 20.2621 37.5364 20.3422 38.107 20.1893C38.6776 20.0364 39.1641 19.6631 39.4594 19.1515C39.7548 18.64 39.8348 18.032 39.6819 17.4614C39.529 16.8908 39.1557 16.4044 38.6442 16.109C38.1326 15.8137 37.5247 15.7336 36.9541 15.8865Z" fill="#007BE0"/>
</g>
<path d="M19.9649 24.4668H12.2275V28.7644H19.9649V24.4668Z" fill="#CADCEF"/>
<path d="M11.7324 26.4924L12.2011 27.5093L19.1692 27.5977L19.6201 26.5278L18.2584 23.8838L12.6963 24.2817" fill="#CADCEF"/>
<path d="M12.7767 24.7851L12.6352 27.1373L10.4688 28.0569L12.3346 31.3376L20.6025 30.1261L18.7102 29.1711L18.2415 27.1904L17.7463 24.4668" fill="#FBC6B6"/>
<path d="M11.397 27.8271C11.397 27.8271 13.4574 31.2581 16.1279 31.1519C17.4366 31.0989 18.7188 28.3753 20.3105 27.5176L26.3147 57.1054L26.3501 62.8797C26.3501 62.8797 14.1206 66.5759 5.5166 62.6144L5.6404 51.1011L11.397 27.8271Z" fill="#EBF4FF"/>
<path d="M11.397 27.8271C11.397 27.8271 13.4574 31.2581 16.1279 31.1519C17.4366 31.0989 18.7188 28.3753 20.3105 27.5176L26.3147 57.1054L26.3501 62.8797C26.3501 62.8797 14.1206 66.5759 5.5166 62.6144L5.6404 51.1011L11.397 27.8271Z" stroke="#191708" stroke-width="0.191215" stroke-miterlimit="10" stroke-linecap="round" stroke-linejoin="round"/>
<path d="M18.5412 24.5113C18.5412 24.5113 18.4439 26.3948 19.4343 26.9254C19.4343 26.9254 17.9841 29.8966 17.9487 30.3299C17.9134 30.7631 18.0372 31.0992 18.0372 32.063C18.0372 33.018 18.7446 37.7224 18.6208 37.9434C18.497 38.1645 18.1875 46.5474 18.8419 51.2164C19.4962 55.8854 19.6465 62.0487 20.0179 62.0487C20.3893 62.0487 21.0348 61.0318 22.8034 60.9346C24.5631 60.8373 25.7127 60.8108 26.6058 59.9442C27.4989 59.0776 28.5246 58.3083 28.6131 57.9634C28.7015 57.6274 28.7015 55.7969 28.7015 55.7969C28.7015 55.7969 30.3728 54.3732 31.1775 52.4544C31.9822 50.5355 31.4516 42.3648 30.7088 38.81C29.966 35.2553 29.9041 31.0461 29.0375 30.5509C28.1709 30.0557 23.2809 28.7912 22.0164 27.3322C20.743 25.882 20.5308 24.9535 19.8499 24.6705C19.1956 24.3875 18.5412 24.5113 18.5412 24.5113Z" fill="#2DBFE8"/>
<path d="M18.6389 24.5113C18.6389 24.5113 18.5504 26.3948 19.532 26.9254C19.532 26.9254 18.0818 29.8966 18.0464 30.3299C18.011 30.7631 18.1348 31.0992 18.1348 32.063C18.1348 33.018 18.8422 37.7224 18.7184 37.9434C18.5946 38.1645 18.2852 46.5474 18.9395 51.2164C19.585 55.8854 19.7442 62.0487 20.1156 62.0487C20.487 62.0487 21.1325 61.0318 22.9011 60.9346C24.6608 60.8373 25.8103 60.8108 26.7034 59.9442C27.5965 59.0776 28.6223 58.3083 28.7107 57.9634C28.808 57.6274 28.808 55.7969 28.808 55.7969C28.808 55.7969 30.4793 54.3732 31.284 52.4544C32.0887 50.5355 31.5581 42.3648 30.8241 38.81C30.0814 35.2553 30.0195 31.0461 29.1529 30.5509C28.2863 30.0557 23.3962 28.7912 22.1317 27.3322C20.8672 25.882 20.6462 24.9535 19.9653 24.6705C19.2932 24.3875 18.6389 24.5113 18.6389 24.5113Z" stroke="#0D94C9" stroke-width="0.213349" stroke-miterlimit="10" stroke-linecap="round"/>
<path d="M12.3871 24.5732C12.3871 24.5732 10.9988 25.0065 10.7158 25.5902C10.4417 26.1826 9.32748 28.2164 9.32748 28.2164C9.32748 28.2164 3.07567 31.5059 2.76617 32.3106C2.45668 33.1153 -0.231512 49.6424 0.0160845 50.5974C0.263681 51.5524 3.42054 55.6997 3.42054 55.6997L3.08451 57.9546C3.08451 57.9546 4.41092 60.9522 6.70119 61.695C8.99146 62.4378 9.73425 62.093 9.73425 62.093L10.256 56.9288C10.256 56.9288 11.6178 56.5574 12.1129 54.0195C12.6081 51.4817 13.9964 45.8489 14.0318 44.2749C14.0583 42.692 14.2794 37.5632 13.7223 35.6443C13.1652 33.7255 12.5462 30.321 12.7319 29.4544C12.9176 28.5878 11.7415 26.7043 11.7415 26.7043C11.7415 26.7043 12.2633 26.1826 12.3871 24.5732Z" fill="#2DBFE8"/>
<path d="M12.3871 24.5732C12.3871 24.5732 10.9988 25.0065 10.7158 25.5902C10.4417 26.1826 9.32748 28.2164 9.32748 28.2164C9.32748 28.2164 3.07567 31.5059 2.76617 32.3106C2.45668 33.1153 -0.231512 49.6424 0.0160845 50.5974C0.263681 51.5524 3.42054 55.6997 3.42054 55.6997L3.08451 57.9546C3.08451 57.9546 4.41092 60.9522 6.70119 61.695C8.99146 62.4378 9.73425 62.093 9.73425 62.093L10.256 56.9288C10.256 56.9288 11.6178 56.5574 12.1129 54.0195C12.6081 51.4817 13.9964 45.8489 14.0318 44.2749C14.0583 42.692 14.2794 37.5632 13.7223 35.6443C13.1652 33.7255 12.5462 30.321 12.7319 29.4544C12.9176 28.5878 11.7415 26.7043 11.7415 26.7043C11.7415 26.7043 12.2633 26.1826 12.3871 24.5732Z" stroke="#0D94C9" stroke-width="0.213349" stroke-miterlimit="10" stroke-linecap="round"/>
<path d="M2.76562 32.3105C2.76562 32.3105 5.09126 33.6723 5.68373 36.3428" stroke="#0D94C9" stroke-width="0.213349" stroke-miterlimit="10" stroke-linecap="round"/>
<path d="M10.707 25.5988C10.707 25.5988 11.3437 26.2178 11.6974 26.8191C11.6974 26.8191 12.2987 25.6695 12.2987 24.6084C12.2987 24.6084 11.0431 25.139 10.707 25.5988Z" fill="#1148B7"/>
<path d="M19.6033 27.0052C19.6033 27.0052 20.1427 25.7319 20.6467 25.3163C20.6467 25.3163 20.2134 24.3524 18.7367 24.5823C18.7367 24.5823 18.5687 26.2448 19.6033 27.0052Z" fill="#1148B7"/>
<path d="M29.1613 30.5508C29.1613 30.5508 27.2512 31.9479 27.2512 37.059C27.2512 42.1701 27.0479 48.3866 27.0479 48.3866" stroke="#0D94C9" stroke-width="0.213349" stroke-miterlimit="10" stroke-linecap="round"/>
<path d="M25.8721 49.0674C25.8721 49.0674 28.5337 51.6229 28.8255 55.7967" stroke="#0D94C9" stroke-width="0.213349" stroke-miterlimit="10" stroke-linecap="round"/>
<path d="M12.0866 24.6619C12.0866 24.6619 10.8928 24.3524 9.94664 25.502C9.00047 26.6516 9.14195 26.793 8.38148 27.4386C7.621 28.0841 7.78017 29.0745 8.4699 29.7642C9.15964 30.4539 11.0962 31.2851 12.4757 31.4708C13.8551 31.6565 15.3319 31.8157 15.4468 32.4612L16.6406 32.532C16.6406 32.532 16.225 30.0383 14.8986 29.2778C13.5722 28.5174 12.175 27.5535 12.4314 25.2013" fill="#EBF4FF"/>
<path d="M17.6661 24.9714C17.6661 24.9714 18.9394 25.8733 19.1517 26.9079C19.3551 27.9425 18.0994 28.65 17.6307 28.7915C17.1621 28.9329 16.3043 29.5166 16.0567 30.3655C15.8091 31.2144 16.8172 32.3993 16.8172 32.3993C16.8172 32.3993 17.0206 31.0906 19.1782 30.7634C21.3358 30.4362 22.6976 28.6588 22.8037 27.916C22.9098 27.1732 22.5119 26.4658 21.5569 25.7761C20.6019 25.0863 20.708 24.432 20.0183 24.1667C19.3285 23.9103 17.8253 23.8926 17.8253 23.8926" fill="#EBF4FF"/>
<path d="M11.9007 24.6881C11.9007 24.6881 10.6539 24.299 9.69004 25.82C8.72618 27.3409 9.14179 26.5982 8.2133 27.6151C7.29366 28.632 8.399 30.0999 10.424 30.9311C11.6089 31.4174 12.7938 31.4086 13.6958 31.5236" stroke="#191708" stroke-width="0.191215" stroke-miterlimit="10" stroke-linecap="round" stroke-linejoin="round"/>
<path d="M12.5996 26.8811C12.5996 26.8811 12.971 28.402 14.3947 28.9503C15.8184 29.4985 15.9598 30.6569 15.9598 30.6569C15.9598 30.6569 16.2782 29.1802 17.5692 28.8177C18.8603 28.4463 19.2759 27.3409 19.0902 26.7485C18.9045 26.1472 18.259 25.5547 18.259 25.5547" stroke="#191708" stroke-width="0.191215" stroke-miterlimit="10" stroke-linecap="round" stroke-linejoin="round"/>
<path d="M16.8789 32.2667C16.8789 32.2667 17.2945 31.0199 18.5856 30.8431C19.8766 30.6574 22.3172 29.7377 22.7328 28.0841C23.1484 26.4305 21.3975 26.0149 20.9377 25.0953C20.4779 24.1756 19.2311 23.7335 18.4087 24.1933" stroke="#191708" stroke-width="0.191215" stroke-miterlimit="10" stroke-linecap="round" stroke-linejoin="round"/>
<path d="M9.97266 27.085C9.97266 27.085 10.0169 28.4202 13.8811 29.7113" stroke="#191708" stroke-width="0.191215" stroke-miterlimit="10" stroke-linecap="round" stroke-linejoin="round"/>
<path d="M27.2786 39.8359C27.2786 39.8359 23.9007 40.8086 18.4801 41.0651C18.4536 42.4799 18.4447 44.2308 18.489 45.9816C21.3098 45.849 24.3694 45.4599 27.314 44.611L27.2786 39.8359Z" fill="#0D94C9"/>
<path d="M14.0938 41.1004C12.0069 41.0297 8.73509 40.5345 6.32103 40.1631C6.32103 40.1631 5.88773 42.8866 5.56055 44.8674C5.56055 44.8674 9.62821 45.8224 13.802 45.9904C13.9346 45.2565 14.0142 44.664 14.023 44.2838C14.0407 43.656 14.0849 42.4445 14.0938 41.1004Z" fill="#0D94C9"/>
<path d="M6.4533 39.084L4.97656 48.3423" stroke="#0D94C9" stroke-width="0.213349" stroke-miterlimit="10" stroke-linecap="round"/>
<path d="M6.51591 48.6787C6.51591 48.6787 4.093 51.9682 3.41211 55.7087" stroke="#0D94C9" stroke-width="0.213349" stroke-miterlimit="10" stroke-linecap="round"/>
<path d="M4.0752 46.9277L5.82606 49.6867" stroke="#0D94C9" stroke-width="0.213349" stroke-miterlimit="10" stroke-linecap="round"/>
<path d="M9.03492 15.5714C9.03492 15.5714 8.79616 14.1477 10.9273 12.3526C13.0672 10.5487 16.4805 10.7875 19.0361 11.6894L18.6381 13.1662L19.319 12.5825C19.319 12.5825 20.4509 13.8736 20.221 15.6068C19.9911 17.3399 19.6285 18.9051 19.6285 18.9051C19.6285 18.9051 18.364 13.8824 15.048 14.6606C11.7231 15.4387 9.92804 16.7386 9.92804 16.7386L10.1049 21.5225C10.1049 21.5225 8.16833 18.9493 7.87652 18.012C7.46091 16.6767 9.03492 15.5714 9.03492 15.5714Z" fill="#002E6D"/>
<path d="M9.76021 20.0547C9.76021 20.0547 8.19504 18.4454 7.4611 20.0105C6.66525 21.7083 10.2819 23.3619 10.2819 23.3619" fill="#FAC8BB"/>
<path d="M18.7617 19.2769C18.7617 19.2769 19.8671 17.3226 20.9724 18.649C22.175 20.0904 19.0889 22.6017 19.0889 22.6017" fill="#F38F6F"/>
<path d="M9.03521 20.09C9.03521 20.09 8.38084 19.5682 8.00061 20.143C7.62037 20.7178 8.27473 21.1953 8.27473 21.1953" stroke="#FF7F66" stroke-width="0.278688" stroke-miterlimit="10" stroke-linecap="round"/>
<path d="M16.0565 26.8019L15.296 26.8815C12.4221 27.1733 9.79582 24.6619 9.4598 21.3105L9.18567 18.587C8.89386 15.7219 10.6712 13.1752 13.1207 12.9276L14.6328 12.7773C17.0911 12.5297 19.3371 14.6697 19.6201 17.5347L19.9826 21.1425C20.2833 24.0076 18.5148 26.5543 16.0565 26.8019Z" fill="#FAC8BB"/>
<path d="M10.5205 24.3789C10.5205 24.3789 12.3421 27.3324 15.7731 26.7753" stroke="#FF7F66" stroke-width="0.278688" stroke-miterlimit="10" stroke-linecap="round"/>
<path d="M19.7617 19.2676C19.7617 19.2676 19.5671 16.7297 18.338 16.0489C18.338 16.0489 16.8701 16.9066 14.2173 17.1542C11.7236 17.393 11.3964 17.3134 10.7244 16.9773C10.5122 16.8712 10.185 16.6855 10.185 16.6855L10.6271 17.6317C10.6271 17.6317 9.4245 20.1519 9.61904 21.9912L8.02734 18.2861L10.3707 13.8559L14.3499 11.5391L16.5694 12.4233L20.2126 15.3857" fill="#002E6D"/>
<path d="M13.4191 21.6093C13.7867 21.5298 14.0102 21.121 13.9183 20.6962C13.8264 20.2714 13.4539 19.9914 13.0864 20.0709C12.7188 20.1504 12.4954 20.5592 12.5873 20.9841C12.6792 21.4089 13.0516 21.6888 13.4191 21.6093Z" fill="white"/>
<path d="M13.4058 21.4099C13.6874 21.349 13.8588 21.0364 13.7886 20.7119C13.7184 20.3873 13.4332 20.1735 13.1515 20.2344C12.8699 20.2953 12.6985 20.6079 12.7687 20.9324C12.8389 21.257 13.1241 21.4708 13.4058 21.4099Z" fill="#213469"/>
<path d="M11.9712 18.4101C12.3161 18.2067 13.3065 17.7292 13.5895 18.2863C13.8194 18.7284 12.6256 18.9583 12.1746 18.9937C11.7237 19.0291 11.5556 18.6577 11.9712 18.4101Z" fill="#002E6D"/>
<path d="M17.6254 20.7712C17.9729 20.6275 18.1199 20.1853 17.9537 19.7837C17.7875 19.3821 17.3711 19.1731 17.0237 19.3168C16.6762 19.4606 16.5292 19.9027 16.6954 20.3043C16.8616 20.706 17.278 20.915 17.6254 20.7712Z" fill="white"/>
<path d="M17.5024 20.652C17.7686 20.5418 17.8815 20.2038 17.7546 19.8969C17.6276 19.5901 17.3089 19.4306 17.0426 19.5408C16.7764 19.6509 16.6635 19.989 16.7904 20.2958C16.9174 20.6027 17.2361 20.7622 17.5024 20.652Z" fill="#213469"/>
<path d="M17.6661 17.428C17.2682 17.3572 16.1805 17.2423 16.101 17.8701C16.0391 18.3653 17.2328 18.1708 17.675 18.0558C18.1171 17.9232 18.1436 17.5164 17.6661 17.428Z" fill="#002E6D"/>
<path d="M15.4197 20.957C15.9503 21.4611 16.6224 22.3365 15.9503 23.1147C15.8442 23.2385 15.6408 23.1942 15.5966 23.0351L15.0837 21.1604C15.0307 20.9659 15.2694 20.8156 15.4197 20.957Z" fill="#FF8D76"/>
<path d="M14.0225 23.8398C14.0225 23.8398 14.6415 24.786 15.9502 24.2997" stroke="#FF7F66" stroke-width="0.278688" stroke-miterlimit="10" stroke-linecap="round"/>
<path d="M9.30088 15.616C9.30088 15.616 8.0629 15.3684 7.51465 16.0139" stroke="#002E6D" stroke-width="0.300167" stroke-miterlimit="10" stroke-linecap="round"/>
</g>
<defs>
<clipPath id="clip0_917_62776">
<rect width="56" height="56" rx="28" fill="white"/>
</clipPath>
<clipPath id="clip1_917_62776">
<rect width="13.3636" height="13.3636" fill="white" transform="translate(29.2031 12.7754) rotate(-15)"/>
</clipPath>
</defs>
</svg>
