<svg width="21" height="20" viewBox="0 0 21 20" fill="none" xmlns="http://www.w3.org/2000/svg">
<path d="M16.5004 7.60039C18.4886 7.60039 20.1004 5.98862 20.1004 4.00039C20.1004 2.01217 18.4886 0.400391 16.5004 0.400391C14.5122 0.400391 12.9004 2.01217 12.9004 4.00039C12.9004 4.15097 12.9096 4.29939 12.9276 4.44512L6.9995 7.40916C6.35203 6.78457 5.47107 6.40039 4.50039 6.40039C2.51217 6.40039 0.900391 8.01217 0.900391 10.0004C0.900391 11.9886 2.51217 13.6004 4.50039 13.6004C5.4711 13.6004 6.35207 13.2162 6.99954 12.5916L12.9276 15.5556C12.9096 15.7013 12.9004 15.8498 12.9004 16.0004C12.9004 17.9886 14.5122 19.6004 16.5004 19.6004C18.4886 19.6004 20.1004 17.9886 20.1004 16.0004C20.1004 14.0122 18.4886 12.4004 16.5004 12.4004C15.5297 12.4004 14.6487 12.7846 14.0013 13.4092L8.07319 10.4451C8.09114 10.2994 8.10039 10.151 8.10039 10.0004C8.10039 9.84979 8.09114 9.70135 8.07318 9.5556L14.0012 6.59158C14.6487 7.2162 15.5297 7.60039 16.5004 7.60039Z" fill="#0055B8"/>
</svg>
