<svg width="24" height="24" viewBox="0 0 24 24" fill="none" xmlns="http://www.w3.org/2000/svg">
<path d="M4.7813 12.8872V15.6252C4.7813 16.3364 5.16394 16.999 5.77616 17.34L10.5591 20C11.1331 20.3215 11.8218 20.3215 12.3958 20L17.1788 17.34C17.791 16.999 18.1736 16.3364 18.1736 15.6252V12.8872L12.3958 16.1026C11.8218 16.4241 11.1331 16.4241 10.5591 16.1026L4.7813 12.8872ZM10.5591 4.23384L2.49504 8.71586C1.83499 9.08612 1.83499 10.0605 2.49504 10.4307L10.5591 14.9127C11.1331 15.2343 11.8218 15.2343 12.3958 14.9127L20.0868 10.6353V16.3938C20.0868 16.9296 20.5173 17.3681 21.0434 17.3681C21.5695 17.3681 22 16.9296 22 16.3938V10.1482C22 9.78765 21.8087 9.46611 21.5026 9.29073L12.3958 4.23384C12.1132 4.08031 11.7978 4 11.4775 4C11.1571 4 10.8418 4.08031 10.5591 4.23384Z" fill="#0055B8"/>
</svg>
