<svg width="24" height="24" viewBox="0 0 24 24" fill="none" xmlns="http://www.w3.org/2000/svg">
<path d="M19.2498 12C19.2498 10.6466 18.871 9.32011 18.1562 8.17082C17.4413 7.02153 16.4191 6.09529 15.2051 5.49692C13.9911 4.89856 12.6338 4.65196 11.2869 4.78506C9.93999 4.91815 8.65724 5.42561 7.58382 6.25001H8.24982C8.51504 6.25001 8.76939 6.35537 8.95693 6.5429C9.14447 6.73044 9.24982 6.98479 9.24982 7.25001C9.24982 7.51523 9.14447 7.76958 8.95693 7.95712C8.76939 8.14465 8.51504 8.25001 8.24982 8.25001H5.24982C4.98461 8.25001 4.73025 8.14465 4.54272 7.95712C4.35518 7.76958 4.24982 7.51523 4.24982 7.25001V7.00001H4.21582L4.24982 6.94801V4.25001C4.24982 3.98479 4.35518 3.73044 4.54272 3.5429C4.73025 3.35537 4.98461 3.25001 5.24982 3.25001C5.51504 3.25001 5.76939 3.35537 5.95693 3.5429C6.14447 3.73044 6.24982 3.98479 6.24982 4.25001V4.75401C7.88384 3.4534 9.91138 2.74676 11.9998 2.75001C13.8775 2.75027 15.7107 3.32197 17.2556 4.38912C18.8006 5.45628 19.9842 6.96834 20.6491 8.72436C21.3141 10.4804 21.4288 12.3972 20.9782 14.22C20.5276 16.0428 19.5329 17.6853 18.1263 18.9292C16.7197 20.1731 14.9679 20.9594 13.1036 21.1838C11.2394 21.4081 9.35102 21.0597 7.68951 20.185C6.02801 19.3103 4.67204 17.9507 3.80185 16.2868C2.93166 14.6229 2.58844 12.7336 2.81782 10.87C2.88082 10.358 3.33382 10 3.84982 10C4.43982 10 4.86682 10.569 4.79882 11.156C4.68421 12.1368 4.77117 13.1307 5.05436 14.0767C5.33755 15.0227 5.81101 15.9008 6.44569 16.6573C7.08038 17.4138 7.86291 18.0327 8.74529 18.476C9.62768 18.9192 10.5913 19.1776 11.5771 19.2352C12.5629 19.2927 13.5501 19.1483 14.4781 18.8108C15.406 18.4732 16.2553 17.9497 16.9737 17.2722C17.6922 16.5948 18.2646 15.7777 18.656 14.8711C19.0474 13.9645 19.2495 12.9875 19.2498 12ZM12.9998 8.00001C12.9998 7.73479 12.8945 7.48044 12.7069 7.2929C12.5194 7.10537 12.265 7.00001 11.9998 7.00001C11.7346 7.00001 11.4803 7.10537 11.2927 7.2929C11.1052 7.48044 10.9998 7.73479 10.9998 8.00001V13C10.9998 13.2652 11.1052 13.5196 11.2927 13.7071C11.4803 13.8947 11.7346 14 11.9998 14H14.9998C15.265 14 15.5194 13.8947 15.7069 13.7071C15.8945 13.5196 15.9998 13.2652 15.9998 13C15.9998 12.7348 15.8945 12.4804 15.7069 12.2929C15.5194 12.1054 15.265 12 14.9998 12H12.9998V8.00001Z" fill="#0055B8"/>
</svg>
