<svg width="32" height="32" viewBox="0 0 32 32" fill="none" xmlns="http://www.w3.org/2000/svg">
<g clip-path="url(#clip0_12268_668073)">
<path d="M30.9981 7.99919C30.9979 7.80289 30.94 7.61099 30.8315 7.44739C30.7231 7.28379 30.5688 7.15574 30.3881 7.07919L16.3881 1.07919C16.2647 1.02693 16.1321 1 15.9981 1C15.8641 1 15.7315 1.02693 15.6081 1.07919L1.60808 7.07919C1.42769 7.15603 1.27387 7.28421 1.16576 7.44779C1.05764 7.61136 1 7.80311 1 7.99919C1 8.19526 1.05764 8.38701 1.16576 8.55058C1.27387 8.71416 1.42769 8.84234 1.60808 8.91919L4.99808 10.3692V14.8192C4.99742 15.0235 5.05936 15.2231 5.17557 15.3912C5.29178 15.5592 5.45668 15.6877 5.64808 15.7592L15.6481 19.5492C15.759 19.5954 15.8779 19.6192 15.9981 19.6192C16.1182 19.6192 16.2372 19.5954 16.3481 19.5492L26.3481 15.7592C26.5395 15.6877 26.7044 15.5592 26.8206 15.3912C26.9368 15.2231 26.9987 15.0235 26.9981 14.8192V10.3692L28.9981 9.51919V13.9992C28.9981 14.2644 29.1034 14.5188 29.291 14.7063C29.4785 14.8938 29.7329 14.9992 29.9981 14.9992C30.2633 14.9992 30.5177 14.8938 30.7052 14.7063C30.8927 14.5188 30.9981 14.2644 30.9981 13.9992V7.99919ZM24.9981 14.1292L15.9981 17.5492L6.99808 14.1292V11.2292L15.6081 14.9192C15.7315 14.9714 15.8641 14.9984 15.9981 14.9984C16.1321 14.9984 16.2647 14.9714 16.3881 14.9192L24.9981 11.2292V14.1292ZM15.9981 12.9092L4.53808 7.99919L15.9981 3.08918L27.4581 7.99919L15.9981 12.9092Z" fill="#FFCE00"/>
<path d="M16 21.6186C15.6341 21.6177 15.2715 21.55 14.93 21.4186L12 20.3086C12 21.3086 12.06 22.1486 12.14 22.9886C14.7039 23.1586 17.2761 23.1586 19.84 22.9886C19.92 22.1486 19.97 21.2586 19.98 20.3086L17.05 21.4186C16.7152 21.5491 16.3593 21.6169 16 21.6186Z" fill="#1D4793"/>
<path d="M12.4297 25C12.9697 27.95 13.9397 30 14.9097 30.92C15.6342 31 16.3652 31 17.0897 30.92C18.0897 30 19.0297 27.92 19.5697 25C18.3797 25.07 17.1897 25.12 15.9997 25.12C14.8097 25.12 13.6197 25.09 12.4297 25Z" fill="#1D4793"/>
<path d="M10 20.0022C10 19.8522 10 19.7022 10 19.5522L5.24004 17.7422C5.0785 18.4846 4.99803 19.2424 5.00004 20.0022C4.99907 20.7141 5.06942 21.4243 5.21004 22.1222C6.85004 22.4222 8.49004 22.6722 10.14 22.8422C10.05 21.9022 10 20.9422 10 20.0022Z" fill="#1D4793"/>
<path d="M20 30.2422C21.3705 29.6998 22.6193 28.89 23.6735 27.8598C24.7277 26.8297 25.5662 25.5999 26.14 24.2422C24.63 24.4922 23.14 24.6922 21.61 24.8322C21.3407 26.7045 20.7982 28.5272 20 30.2422Z" fill="#1D4793"/>
<path d="M5.85938 24.2695C6.43319 25.6272 7.27165 26.857 8.32584 27.8871C9.38003 28.9173 10.6288 29.7272 11.9994 30.2695C11.2039 28.564 10.6616 26.7516 10.3894 24.8895C8.87938 24.7195 7.36937 24.5195 5.85938 24.2695Z" fill="#1D4793"/>
<path d="M26.7594 17.7422L21.9994 19.5522C21.9994 19.7022 21.9994 19.8522 21.9994 20.0022C21.9994 20.9522 21.9494 21.9022 21.8594 22.8422C23.5094 22.6722 25.1494 22.4222 26.7894 22.1222C27.0891 20.6776 27.0891 19.1868 26.7894 17.7422H26.7594Z" fill="#1D4793"/>
<path d="M28.2285 30.8886L26.4285 29.0886L28.2285 30.8886ZM26.4285 29.0886C26.7174 28.7997 26.9465 28.4567 27.1029 28.0792C27.2593 27.7018 27.3397 27.2972 27.3397 26.8886C27.3397 26.48 27.2593 26.0755 27.1029 25.698C26.9465 25.3205 26.7174 24.9775 26.4285 24.6886C26.1395 24.3997 25.7966 24.1705 25.4191 24.0142C25.0416 23.8578 24.637 23.7773 24.2285 23.7773C23.8199 23.7773 23.4153 23.8578 23.0378 24.0142C22.6603 24.1705 22.3174 24.3997 22.0285 24.6886C21.445 25.2721 21.1172 26.0635 21.1172 26.8886C21.1172 27.7138 21.445 28.5051 22.0285 29.0886C22.6119 29.6721 23.4033 29.9999 24.2285 29.9999C25.0536 29.9999 25.845 29.6721 26.4285 29.0886Z" fill="white"/>
<path d="M28.2285 30.8886L26.4285 29.0886M26.4285 29.0886C26.7174 28.7997 26.9465 28.4567 27.1029 28.0792C27.2593 27.7018 27.3397 27.2972 27.3397 26.8886C27.3397 26.48 27.2593 26.0755 27.1029 25.698C26.9465 25.3205 26.7174 24.9775 26.4285 24.6886C26.1395 24.3997 25.7966 24.1705 25.4191 24.0142C25.0416 23.8578 24.637 23.7773 24.2285 23.7773C23.8199 23.7773 23.4153 23.8578 23.0378 24.0142C22.6603 24.1705 22.3174 24.3997 22.0285 24.6886C21.445 25.2721 21.1172 26.0635 21.1172 26.8886C21.1172 27.7138 21.445 28.5051 22.0285 29.0886C22.6119 29.6721 23.4033 29.9999 24.2285 29.9999C25.0536 29.9999 25.845 29.6721 26.4285 29.0886V29.0886Z" stroke="#1D4793" stroke-width="2" stroke-linecap="round" stroke-linejoin="round"/>
</g>
<defs>
<clipPath id="clip0_12268_668073">
<rect width="32" height="32" fill="white"/>
</clipPath>
</defs>
</svg>
