<svg width="24" height="24" viewBox="0 0 24 24" fill="none" xmlns="http://www.w3.org/2000/svg">
<path fill-rule="evenodd" clip-rule="evenodd" d="M16.998 2H17.748C18.3448 2 18.9171 2.23705 19.339 2.65901C19.761 3.08097 19.998 3.65326 19.998 4.25V10.331C19.2498 9.97535 18.3996 9.89667 17.5987 10.109C16.7979 10.3212 16.0983 10.8107 15.6245 11.4904C15.1507 12.17 14.9333 12.9957 15.011 13.8205C15.0887 14.6454 15.4566 15.4159 16.049 15.995H15.771C15.407 15.995 15.0466 16.0667 14.7102 16.206C14.3739 16.3453 14.0683 16.5495 13.8109 16.8069C13.5535 17.0643 13.3494 17.3699 13.21 17.7062C13.0707 18.0425 12.999 18.403 12.999 18.767V18.87C12.999 19.611 13.214 20.353 13.667 21H6.24905C5.65231 21 5.08001 20.7629 4.65806 20.341C4.2361 19.919 3.99905 19.3467 3.99905 18.75L3.99805 4.251C3.99805 3.65426 4.2351 3.08197 4.65706 2.66001C5.07901 2.23805 5.65131 2.001 6.24805 2.001L6.99505 2L12.499 2H16.998ZM7.74505 13H11.246L11.348 13.007C11.5276 13.0317 11.6921 13.1206 11.8111 13.2571C11.9302 13.3937 11.9958 13.5688 11.9958 13.75C11.9958 13.9312 11.9302 14.1063 11.8111 14.2429C11.6921 14.3794 11.5276 14.4683 11.348 14.493L11.246 14.5H7.74505L7.64305 14.493C7.46353 14.4683 7.29903 14.3794 7.17996 14.2429C7.06088 14.1063 6.99528 13.9312 6.99528 13.75C6.99528 13.5688 7.06088 13.3937 7.17996 13.2571C7.29903 13.1206 7.46353 13.0317 7.64305 13.007L7.74505 13ZM7.74505 5H16.246L16.348 5.007C16.5276 5.0317 16.6921 5.12055 16.8111 5.25714C16.9302 5.39372 16.9958 5.5688 16.9958 5.75C16.9958 5.9312 16.9302 6.10628 16.8111 6.24286C16.6921 6.37945 16.5276 6.4683 16.348 6.493L16.246 6.5H7.74505L7.64305 6.493C7.46353 6.4683 7.29903 6.37945 7.17996 6.24286C7.06088 6.10628 6.99528 5.9312 6.99528 5.75C6.99528 5.5688 7.06088 5.39372 7.17996 5.25714C7.29903 5.12055 7.46353 5.0317 7.64305 5.007L7.74505 5ZM7.74505 10.5C7.33105 10.5 6.99505 10.164 6.99505 9.75C6.99505 9.55109 7.07406 9.36032 7.21472 9.21967C7.35537 9.07902 7.54613 9 7.74505 9H13.248C13.447 9 13.6377 9.07902 13.7784 9.21967C13.919 9.36032 13.998 9.55109 13.998 9.75C13.998 9.94891 13.919 10.1397 13.7784 10.2803C13.6377 10.421 13.447 10.5 13.248 10.5H7.74505Z" fill="#0055B8"/>
<path fill-rule="evenodd" clip-rule="evenodd" d="M20.2668 15.2628C20.7356 14.7939 20.999 14.158 20.999 13.495C20.999 12.832 20.7356 12.1961 20.2668 11.7272C19.798 11.2584 19.1621 10.995 18.499 10.995C17.836 10.995 17.2001 11.2584 16.7313 11.7272C16.2624 12.1961 15.999 12.832 15.999 13.495C15.999 14.158 16.2624 14.7939 16.7313 15.2628C17.2001 15.7316 17.836 15.995 18.499 15.995C19.1621 15.995 19.798 15.7316 20.2668 15.2628ZM18.499 21.995C21.713 21.995 22.999 20.426 22.999 18.87V18.767C22.999 17.788 22.206 16.995 21.226 16.995H15.772C14.793 16.995 13.999 17.787 13.999 18.767V18.87C13.999 20.432 15.285 21.995 18.499 21.995Z" fill="#0055B8"/>
</svg>
