<svg width="23" height="27" viewBox="0 0 23 27" fill="none" xmlns="http://www.w3.org/2000/svg">
<path d="M18.2081 0H1.75433C1.2756 0.0150311 0.822325 0.219074 0.493672 0.567482C0.165019 0.915891 -0.0122483 1.3803 0.000658495 1.85908V25.0017C-0.00459412 25.4756 0.176083 25.9326 0.50393 26.2748C0.831777 26.617 1.28068 26.8171 1.75433 26.8321H21.2459C21.4813 26.8271 21.7133 26.7758 21.9288 26.6811C22.1443 26.5864 22.3391 26.4502 22.5019 26.2802C22.6648 26.1103 22.7926 25.9099 22.878 25.6905C22.9633 25.4711 23.0047 25.2371 22.9996 25.0017V4.73395L18.2081 0ZM15.3333 21.0249C15.0703 21.0261 14.8096 20.9756 14.5661 20.8761C14.3226 20.7766 14.1011 20.6301 13.9143 20.445C13.7274 20.2599 13.5788 20.0398 13.477 19.7973C13.3752 19.5548 13.3221 19.2946 13.3209 19.0316V18.7441L7.9257 16.2334L7.84904 16.3101C7.56235 16.5799 7.20219 16.7587 6.81398 16.8241C6.42577 16.8894 6.02689 16.8384 5.66766 16.6774C5.30843 16.5163 5.00493 16.2525 4.79544 15.9192C4.58595 15.5859 4.47985 15.198 4.49052 14.8045C4.5012 14.4109 4.62816 14.0294 4.85541 13.7079C5.08266 13.3865 5.40001 13.1395 5.76744 12.9982C6.13487 12.8568 6.53592 12.8275 6.92002 12.9138C7.30412 13.0001 7.65406 13.1982 7.9257 13.4831L13.3305 10.9341V10.7137C13.3421 10.179 13.5622 9.67011 13.9438 9.2954C14.2281 9.02225 14.5871 8.83957 14.9752 8.77047C15.3634 8.70136 15.7634 8.74893 16.1245 8.90715C16.4856 9.06538 16.7917 9.32716 17.0041 9.65938C17.2164 9.99159 17.3255 10.3793 17.3174 10.7735C17.3094 11.1677 17.1846 11.5507 16.9589 11.874C16.7332 12.1972 16.4166 12.4463 16.0493 12.5897C15.6821 12.733 15.2805 12.7642 14.8955 12.6793C14.5104 12.5945 14.1592 12.3973 13.8863 12.1128L8.46235 14.6522V15.0739L13.9438 17.6229C14.3096 17.2457 14.808 17.0257 15.3333 17.0096C15.8657 17.0096 16.3764 17.2211 16.7529 17.5976C17.1294 17.9741 17.3409 18.4848 17.3409 19.0172C17.3409 19.5497 17.1294 20.0603 16.7529 20.4368C16.3764 20.8133 15.8657 21.0249 15.3333 21.0249ZM17.2499 5.69223V1.70575L21.2747 5.74973L17.2499 5.69223Z" fill="#0055B8"/>
</svg>
