<svg width="26" height="25" viewBox="0 0 26 25" fill="none" xmlns="http://www.w3.org/2000/svg">
<path d="M13 0C12.1025 0 11.375 0.727537 11.375 1.625V3.25C11.375 4.14746 12.1025 4.875 13 4.875C13.8975 4.875 14.625 4.14746 14.625 3.25V1.625C14.625 0.727537 13.8975 0 13 0Z" fill="#0055B8"/>
<path fill-rule="evenodd" clip-rule="evenodd" d="M3.25 3.25H8.125C8.125 5.94239 10.3076 8.125 13 8.125C15.6924 8.125 17.875 5.94239 17.875 3.25H22.75C24.5449 3.25 26 4.70507 26 6.5V21.125C26 22.9199 24.5449 24.375 22.75 24.375H3.25C1.45507 24.375 0 22.9199 0 21.125V6.5C0 4.70507 1.45507 3.25 3.25 3.25ZM7.3125 14.625C8.65869 14.625 9.75 13.5337 9.75 12.1875C9.75 10.8413 8.65869 9.75 7.3125 9.75C5.96631 9.75 4.875 10.8413 4.875 12.1875C4.875 13.5337 5.96631 14.625 7.3125 14.625ZM11.2945 21.125C11.3478 20.8625 11.3758 20.5908 11.3758 20.3125C11.3758 18.0688 9.55695 16.25 7.31329 16.25C5.06964 16.25 3.25079 18.0688 3.25079 20.3125C3.25079 20.5908 3.27877 20.8625 3.33206 21.125H11.2945ZM16.25 11.375C15.3525 11.375 14.625 12.1025 14.625 13C14.625 13.8975 15.3525 14.625 16.25 14.625H21.125C22.0225 14.625 22.75 13.8975 22.75 13C22.75 12.1025 22.0225 11.375 21.125 11.375H16.25ZM14.625 17.875C14.625 16.9775 15.3525 16.25 16.25 16.25H19.5C20.3975 16.25 21.125 16.9775 21.125 17.875C21.125 18.7725 20.3975 19.5 19.5 19.5H16.25C15.3525 19.5 14.625 18.7725 14.625 17.875Z" fill="#0055B8"/>
</svg>
