<svg width="136" height="72" viewBox="0 0 136 72" fill="none" xmlns="http://www.w3.org/2000/svg">
<path d="M47.4415 8.95007V24.4965C47.4415 24.8137 47.3169 25.1179 47.0951 25.3421C46.8732 25.5664 46.5723 25.6924 46.2586 25.6924C45.9449 25.6924 45.644 25.5664 45.4222 25.3421C45.2003 25.1179 45.0757 24.8137 45.0757 24.4965V8.95007H47.4415Z" fill="#002E6D"/>
<path d="M58.0875 69.416V47.8901H79.3801V71.8077H61.6363L58.0875 69.416Z" fill="#EFF7FF"/>
<path d="M79.3801 68.2198H58.0875V71.8075H79.3801V68.2198Z" fill="#FFCE00"/>
<path d="M34.4294 69.416V47.8901H13.1368V71.8077H30.8806" fill="#EFF7FF"/>
<path d="M34.4294 68.2198H13.1368V71.8075H34.4294V68.2198Z" fill="#FFCE00"/>
<path d="M82.9296 47.8899H9.5885C12.2737 43.1064 10.3811 46.4788 19.0519 31.1476H73.4662C82.2316 46.694 80.2916 43.2021 82.9296 47.8899Z" fill="#0055B8"/>
<path d="M82.9296 47.8899H9.5885L11.6113 44.3022H80.9068L82.9296 47.8899Z" fill="#002E6D"/>
<path d="M58.0852 35.2925V71.993H34.4268V35.2925L46.256 25.1682L58.0852 35.2925Z" fill="white"/>
<path d="M58.0852 34.7353V39.5188C57.2098 39.5188 58.7239 40.6429 46.256 29.5451C33.7998 40.6309 35.3021 39.5188 34.4268 39.5188V34.7353L46.256 25.1682L58.0852 34.7353Z" fill="#DFE3EA"/>
<path d="M65.1876 37.1272H58.3621L46.2608 26.3643L34.1596 37.1272H27.3341L46.2608 20.3849L65.1876 37.1272Z" fill="#0055B8"/>
<path d="M52.1712 59.8489H40.342V72.0001H52.1712V59.8489Z" fill="#FFCE00"/>
<path d="M47.4415 59.8489H45.0757V72.0001H47.4415V59.8489Z" fill="#FFCE00"/>
<path d="M74.6505 55.0652H62.8213V61.0446H74.6505V55.0652Z" fill="#86BEFF"/>
<path d="M69.9208 55.0652H67.5549V61.0446H69.9208V55.0652Z" fill="#BDDCFF"/>
<path d="M29.6958 55.0652H17.8666V61.0446H29.6958V55.0652Z" fill="#86BEFF"/>
<path d="M24.9623 55.0652H22.5964V61.0446H24.9623V55.0652Z" fill="#BDDCFF"/>
<path d="M46.259 47.89C48.8723 47.89 50.9907 45.7484 50.9907 43.1065C50.9907 40.4647 48.8723 38.323 46.259 38.323C43.6458 38.323 41.5273 40.4647 41.5273 43.1065C41.5273 45.7484 43.6458 47.89 46.259 47.89Z" fill="#FFCE00"/>
<path d="M46.2555 47.8902C45.5337 47.8896 44.8215 47.7221 44.1736 47.4005C43.5256 47.0789 42.959 46.6116 42.5172 46.0345C42.0754 45.4574 41.77 44.7858 41.6245 44.0711C41.479 43.3563 41.4971 42.6173 41.6776 41.9108C41.9422 42.9344 42.5351 43.8405 43.3635 44.4872C44.1918 45.1339 45.2089 45.4847 46.2555 45.4847C47.3021 45.4847 48.3191 45.1339 49.1475 44.4872C49.9759 43.8405 50.5687 42.9344 50.8334 41.9108C51.0139 42.6173 51.032 43.3563 50.8865 44.0711C50.741 44.7858 50.4356 45.4574 49.9938 46.0345C49.552 46.6116 48.9854 47.0789 48.3374 47.4005C47.6895 47.7221 46.9773 47.8896 46.2555 47.8902Z" fill="#FFCE00"/>
<path d="M55.722 8.95007H45.0757V16.1254H55.722V8.95007Z" fill="#FFCE00"/>
<path d="M0.5 24.9099C4.52189 24.9099 7.78967 28.0433 7.78967 31.8997C7.78967 28.0433 11.0575 24.9099 15.0793 24.9099C11.0575 24.9099 7.78967 21.7766 7.78967 17.9202C7.78967 21.7766 4.52189 24.9099 0.5 24.9099Z" fill="#FFE784"/>
<path d="M88.9626 60.8252C92.9845 60.8252 96.2523 63.9586 96.2523 67.815C96.2523 63.9586 99.5201 60.8252 103.542 60.8252C99.5201 60.8252 96.2523 57.6919 96.2523 53.8354C96.2523 57.6919 92.9845 60.8252 88.9626 60.8252Z" fill="#FFE784"/>
<path d="M112.538 11.0089C118.872 11.0089 124.019 15.9439 124.019 22.0177C124.019 15.9439 129.166 11.0089 135.5 11.0089C129.166 11.0089 124.019 6.07386 124.019 0C124.019 6.07386 118.872 11.0089 112.538 11.0089Z" fill="#FFE784"/>
<path d="M75.6418 37.919H81.1958V40.45H72.3376V23.9052H75.6418V37.919ZM101.529 24.0927V40.45H98.2477V29.0374L94.0529 40.45H91.1939L86.9992 29.0842V40.45H83.6949V24.0927H87.7022L92.6703 36.3958L97.5447 24.0927H101.529ZM116.419 35.9271C116.419 36.7707 116.208 37.5519 115.786 38.2705C115.364 38.9736 114.739 39.5438 113.911 39.9813C113.083 40.4031 112.076 40.614 110.888 40.614C109.717 40.614 108.67 40.4187 107.748 40.0281C106.826 39.6219 106.084 39.0439 105.522 38.294C104.975 37.5441 104.663 36.6692 104.584 35.6693H108.1C108.178 36.3411 108.443 36.9035 108.896 37.3566C109.365 37.794 109.982 38.0128 110.748 38.0128C111.435 38.0128 111.958 37.8331 112.318 37.4738C112.693 37.0988 112.88 36.6223 112.88 36.0443C112.88 35.5287 112.732 35.1069 112.435 34.7788C112.138 34.4351 111.763 34.1617 111.31 33.9586C110.857 33.7555 110.232 33.5212 109.435 33.2556C108.404 32.9119 107.561 32.576 106.904 32.2479C106.248 31.9042 105.686 31.412 105.217 30.7715C104.764 30.131 104.538 29.2951 104.538 28.264C104.538 26.8423 105.045 25.7253 106.061 24.9129C107.092 24.0849 108.451 23.6709 110.138 23.6709C111.888 23.6709 113.279 24.0927 114.31 24.9363C115.356 25.78 115.95 26.9048 116.091 28.3109H112.529C112.435 27.7172 112.185 27.2329 111.779 26.8579C111.373 26.4674 110.818 26.2721 110.115 26.2721C109.506 26.2721 109.014 26.4361 108.639 26.7642C108.264 27.0767 108.076 27.5375 108.076 28.1468C108.076 28.6312 108.217 29.0374 108.498 29.3654C108.795 29.6779 109.162 29.9357 109.599 30.1388C110.052 30.3419 110.662 30.5684 111.427 30.8184C112.49 31.1933 113.349 31.5448 114.005 31.8729C114.677 32.201 115.247 32.6931 115.716 33.3493C116.184 34.0055 116.419 34.8647 116.419 35.9271Z" fill="#D6EBFF"/>
<path d="M78.071 35.4725H83.625V38.0034H74.7668V21.4587H78.071V35.4725ZM103.958 21.6461V38.0034H100.677V26.5908L96.4821 38.0034H93.6231L89.4284 26.6377V38.0034H86.1241V21.6461H90.1314L95.0995 33.9493L99.9739 21.6461H103.958ZM118.848 33.4806C118.848 34.3242 118.637 35.1054 118.215 35.824C117.793 36.527 117.169 37.0973 116.341 37.5347C115.512 37.9565 114.505 38.1675 113.317 38.1675C112.146 38.1675 111.099 37.9722 110.177 37.5816C109.255 37.1754 108.513 36.5973 107.951 35.8474C107.404 35.0975 107.092 34.2227 107.014 33.2228H110.529C110.607 33.8946 110.872 34.457 111.326 34.9101C111.794 35.3475 112.411 35.5662 113.177 35.5662C113.864 35.5662 114.388 35.3866 114.747 35.0272C115.122 34.6523 115.309 34.1758 115.309 33.5977C115.309 33.0822 115.161 32.6604 114.864 32.3323C114.567 31.9886 114.192 31.7152 113.739 31.5121C113.286 31.309 112.661 31.0746 111.865 30.809C110.833 30.4653 109.99 30.1294 109.334 29.8013C108.677 29.4576 108.115 28.9655 107.646 28.325C107.193 27.6844 106.967 26.8486 106.967 25.8175C106.967 24.3958 107.474 23.2787 108.49 22.4663C109.521 21.6383 110.88 21.2243 112.568 21.2243C114.317 21.2243 115.708 21.6461 116.739 22.4898C117.786 23.3334 118.379 24.4583 118.52 25.8644H114.958C114.864 25.2707 114.614 24.7864 114.208 24.4114C113.802 24.0208 113.247 23.8255 112.544 23.8255C111.935 23.8255 111.443 23.9896 111.068 24.3177C110.693 24.6301 110.505 25.091 110.505 25.7003C110.505 26.1846 110.646 26.5908 110.927 26.9189C111.224 27.2314 111.591 27.4891 112.029 27.6922C112.482 27.8953 113.091 28.1219 113.856 28.3718C114.919 28.7468 115.778 29.0983 116.434 29.4264C117.106 29.7545 117.676 30.2466 118.145 30.9028C118.614 31.5589 118.848 32.4182 118.848 33.4806Z" fill="#0055B8"/>
</svg>
