<svg width="33" height="32" viewBox="0 0 33 32" fill="none" xmlns="http://www.w3.org/2000/svg">
<rect x="0.665405" width="32" height="32" rx="16" fill="#E3FCE5"/>
<path d="M14.6654 15C16.3223 15 17.6654 13.6569 17.6654 12C17.6654 10.3431 16.3223 9 14.6654 9C13.0086 9 11.6654 10.3431 11.6654 12C11.6654 13.6569 13.0086 15 14.6654 15Z" fill="#019859"/>
<path d="M14.6654 17C17.9791 17 20.6654 19.6863 20.6654 23H8.66541C8.66541 19.6863 11.3517 17 14.6654 17Z" fill="#019859"/>
<path d="M22.6654 13C22.6654 12.4477 22.2177 12 21.6654 12C21.1131 12 20.6654 12.4477 20.6654 13V14H19.6654C19.1131 14 18.6654 14.4477 18.6654 15C18.6654 15.5523 19.1131 16 19.6654 16H20.6654V17C20.6654 17.5523 21.1131 18 21.6654 18C22.2177 18 22.6654 17.5523 22.6654 17V16H23.6654C24.2177 16 24.6654 15.5523 24.6654 15C24.6654 14.4477 24.2177 14 23.6654 14H22.6654V13Z" fill="#019859"/>
</svg>
