<svg width="18" height="14" viewBox="0 0 18 14" fill="none" xmlns="http://www.w3.org/2000/svg">
<path d="M2.98474 7.73952V10.0211C2.98474 10.6139 3.30361 11.166 3.81379 11.4502L7.7996 13.6668C8.2779 13.9348 8.85185 13.9348 9.33015 13.6668L13.316 11.4502C13.8261 11.166 14.145 10.6139 14.145 10.0211V7.73952L9.33015 10.419C8.85185 10.6869 8.2779 10.6869 7.7996 10.419L2.98474 7.73952ZM7.7996 0.528366L1.07952 4.26338C0.529482 4.57193 0.529482 5.38389 1.07952 5.69243L7.7996 9.42744C8.2779 9.69539 8.85185 9.69539 9.33015 9.42744L15.7393 5.86294V10.6616C15.7393 11.1082 16.0981 11.4736 16.5365 11.4736C16.9749 11.4736 17.3337 11.1082 17.3337 10.6616V5.45696C17.3337 5.15654 17.1742 4.88859 16.9191 4.74244L9.33015 0.528366C9.09463 0.400422 8.8318 0.333496 8.56488 0.333496C8.29795 0.333496 8.03512 0.400422 7.7996 0.528366Z" fill="#0055B8"/>
</svg>
