<svg width="93" height="28" viewBox="0 0 93 28" fill="none" xmlns="http://www.w3.org/2000/svg">
<path d="M91.7971 19.7783H58.9176C58.5381 19.7783 58.2305 20.086 58.2305 20.4655V27.3129C58.2305 27.6924 58.5381 28.0001 58.9176 28.0001H91.7971C92.1766 28.0001 92.4843 27.6924 92.4843 27.3129V20.4655C92.4843 20.086 92.1766 19.7783 91.7971 19.7783Z" fill="url(#paint0_linear_696_174392)"/>
<path d="M6.6557 17.4352C6.36358 17.4352 6.20162 17.3186 5.99426 17.0265L3.05792 13.0276H1.1493V16.857C1.15043 16.9331 1.13593 17.0087 1.10672 17.079C1.0775 17.1493 1.03417 17.2129 0.97942 17.2658C0.924667 17.3187 0.85965 17.3598 0.788382 17.3866C0.717113 17.4134 0.641108 17.4253 0.565061 17.4216C0.490064 17.4248 0.415218 17.4124 0.345267 17.3851C0.275316 17.3579 0.211787 17.3164 0.158707 17.2634C0.105628 17.2103 0.0641555 17.1467 0.0369207 17.0768C0.00968587 17.0068 -0.00271709 16.932 0.000496959 16.857V4.56372C-0.00250171 4.48885 0.0100607 4.41417 0.0373918 4.34439C0.0647229 4.27462 0.106228 4.21128 0.159285 4.15837C0.212341 4.10545 0.275795 4.06412 0.345639 4.03697C0.415482 4.00983 0.490197 3.99747 0.565061 4.00067C0.640979 3.99695 0.716855 4.0088 0.78802 4.0355C0.859185 4.0622 0.924132 4.10319 0.978862 4.15593C1.03359 4.20868 1.07695 4.27207 1.10626 4.3422C1.13557 4.41233 1.15022 4.48772 1.1493 4.56372V11.9908H3.05338L5.92918 8.43243C6.10476 8.17966 6.27882 8.04495 6.55126 8.04495C7.03712 8.04495 7.23237 8.48994 6.95993 8.86077L4.04326 12.457L7.07042 16.5603C7.38222 17.0144 7.09161 17.4352 6.64359 17.4352" fill="#183760"/>
<path d="M16.993 12.2828C16.993 12.749 16.7206 13.0396 16.2363 13.0396H9.17088C9.30861 15.0224 10.7662 16.5783 12.8262 16.5783C14.7333 16.5783 15.3342 15.6066 15.7822 15.6066C15.8404 15.6016 15.899 15.6091 15.9541 15.6285C16.0092 15.6479 16.0596 15.6788 16.1018 15.7192C16.1441 15.7596 16.1772 15.8085 16.1991 15.8627C16.221 15.9168 16.2311 15.975 16.2287 16.0334C16.2287 16.6752 14.7711 17.6091 12.7883 17.6091C9.98821 17.6091 8.00391 15.4113 8.00391 12.7278C8.00391 10.0442 9.89134 7.86768 12.5537 7.86768C15.3538 7.86768 16.9885 10.1229 16.9885 12.2813L16.993 12.2828ZM9.17088 12.2041H15.8397C15.646 10.1244 14.2853 8.8742 12.5356 8.8742C10.7072 8.8742 9.3858 10.3121 9.17088 12.2041Z" fill="#183760"/>
<path d="M19.4542 4.0006C19.53 3.99709 19.6058 4.0091 19.6767 4.0359C19.7477 4.06269 19.8125 4.10371 19.8671 4.15643C19.9216 4.20916 19.9648 4.27247 19.9941 4.3425C20.0233 4.41252 20.0379 4.48778 20.037 4.56365V16.8524C20.0379 16.9283 20.0233 17.0035 19.9941 17.0735C19.9648 17.1436 19.9216 17.2069 19.8671 17.2596C19.8125 17.3123 19.7477 17.3533 19.6767 17.3801C19.6058 17.4069 19.53 17.4189 19.4542 17.4154C19.3794 17.4189 19.3046 17.4067 19.2348 17.3796C19.1649 17.3525 19.1014 17.3112 19.0484 17.2582C18.9955 17.2052 18.9541 17.1417 18.927 17.0719C18.9 17.002 18.8877 16.9272 18.8912 16.8524V4.56365C18.8877 4.48879 18.9 4.41404 18.927 4.34417C18.9541 4.27429 18.9955 4.21083 19.0484 4.15785C19.1014 4.10486 19.1649 4.06351 19.2348 4.03643C19.3046 4.00935 19.3794 3.99715 19.4542 4.0006Z" fill="#183760"/>
<path d="M31.4415 8.62755V16.8508C31.4339 16.9977 31.3703 17.136 31.2637 17.2373C31.157 17.3385 31.0156 17.395 30.8686 17.395C30.7215 17.395 30.5801 17.3385 30.4735 17.2373C30.3669 17.136 30.3032 16.9977 30.2957 16.8508V15.5295C29.5389 16.7736 28.2735 17.6091 26.6631 17.6091C24.0764 17.6091 22.1133 15.4719 22.1133 12.7293C22.1133 9.98674 24.0386 7.86773 26.6631 7.86773C27.3953 7.85586 28.1176 8.03881 28.7559 8.39785C29.3942 8.75689 29.9256 9.27912 30.2957 9.91106V8.62755C30.3032 8.4807 30.3669 8.34236 30.4735 8.24109C30.5801 8.13982 30.7215 8.08336 30.8686 8.08336C31.0156 8.08336 31.157 8.13982 31.2637 8.24109C31.3703 8.34236 31.4339 8.4807 31.4415 8.62755ZM30.2957 12.7142C30.2957 10.6149 28.8381 8.94389 26.7963 8.94389C24.7545 8.94389 23.2575 10.6088 23.2575 12.7142C23.2575 14.8196 24.7545 16.5451 26.7963 16.5451C28.8381 16.5451 30.2957 14.8151 30.2957 12.7142Z" fill="#183760"/>
<path d="M36.9834 17.6092C34.9038 17.6092 33.3281 16.4816 33.3281 15.8217C33.3281 15.5099 33.5415 15.3676 33.814 15.3676C34.3195 15.3676 34.9613 16.6118 37.0803 16.6118C38.4607 16.6118 39.2568 15.9503 39.2568 14.9786C39.2568 12.4525 33.6566 13.6769 33.6566 10.3516C33.6566 8.93338 34.8826 7.86328 36.9229 7.86328C38.6151 7.86328 39.9954 8.65942 39.9954 9.24366C39.9978 9.30211 39.9877 9.36038 39.9658 9.41462C39.944 9.46887 39.9108 9.51786 39.8686 9.55835C39.8264 9.59884 39.7761 9.62991 39.721 9.6495C39.6659 9.6691 39.6072 9.67677 39.5489 9.67201C39.0237 9.67201 38.4016 8.85467 36.8457 8.85467C35.5818 8.85467 34.7857 9.47675 34.7857 10.3122C34.7857 12.6462 40.3859 11.5231 40.3859 14.9211C40.3859 16.4952 39.1221 17.6032 36.9834 17.6032" fill="#183760"/>
<path d="M51.973 12.7251C51.973 15.6009 49.9645 17.5913 47.5307 17.5913C46.9923 17.6054 46.4577 17.4982 45.9664 17.2776C45.4752 17.057 45.0398 16.7286 44.6927 16.3169V20.1795C44.6927 20.4946 44.5675 20.7968 44.3447 21.0197C44.1219 21.2425 43.8197 21.3677 43.5046 21.3677C43.1894 21.3677 42.8872 21.2425 42.6644 21.0197C42.4416 20.7968 42.3164 20.4946 42.3164 20.1795V9.20456C42.3164 8.50982 42.7992 8.02699 43.5152 8.02699C43.8055 8.01368 44.0899 8.11271 44.3091 8.30352C44.5284 8.49433 44.6658 8.76226 44.6927 9.05168C45.3481 8.27824 46.2956 7.84082 47.5307 7.84082C50.0795 7.84082 51.973 9.94621 51.973 12.7267V12.7251ZM49.5967 12.7463C49.5967 11.2403 48.5735 10.0431 47.1447 10.0431C45.7159 10.0431 44.6927 11.2403 44.6927 12.7463C44.6927 14.2145 45.7341 15.3921 47.1447 15.3921C48.5554 15.3921 49.5967 14.2145 49.5967 12.7463Z" fill="#183760"/>
<path d="M54.5111 17.3926C54.3545 17.4002 54.198 17.3749 54.0517 17.3184C53.9054 17.2619 53.7725 17.1754 53.6616 17.0645C53.5507 16.9536 53.4642 16.8208 53.4078 16.6745C53.3513 16.5282 53.326 16.3717 53.3335 16.215V9.20413C53.3255 9.04904 53.3497 8.89396 53.4048 8.74875C53.4599 8.60354 53.5446 8.47137 53.6534 8.36063C53.7623 8.2499 53.8931 8.16301 54.0373 8.1055C54.1816 8.04799 54.3362 8.02111 54.4914 8.02657C55.2058 8.02657 55.6887 8.5094 55.6887 9.20413V16.215C55.6962 16.3717 55.671 16.5282 55.6145 16.6745C55.558 16.8208 55.4715 16.9536 55.3606 17.0645C55.2497 17.1754 55.1168 17.2619 54.9705 17.3184C54.8243 17.3749 54.6678 17.4002 54.5111 17.3926Z" fill="#183760"/>
<path d="M66.0123 11.7335V16.2152C66.0198 16.3718 65.9946 16.5283 65.9381 16.6746C65.8816 16.8209 65.7951 16.9538 65.6842 17.0647C65.5733 17.1756 65.4404 17.2621 65.2941 17.3186C65.1479 17.3751 64.9914 17.4003 64.8347 17.3928C64.6771 17.4006 64.5196 17.3757 64.3721 17.3195C64.2246 17.2634 64.0903 17.1772 63.9778 17.0666C63.8653 16.9559 63.777 16.8231 63.7184 16.6766C63.6598 16.53 63.6322 16.3729 63.6375 16.2152V12.0816C63.6375 10.8269 62.9034 10.0353 61.7637 10.0353C60.6239 10.0353 59.8914 10.8269 59.8914 12.0816V16.2152C59.8804 16.5204 59.7515 16.8095 59.5317 17.0215C59.3119 17.2335 59.0184 17.352 58.713 17.352C58.4076 17.352 58.1142 17.2335 57.8944 17.0215C57.6746 16.8095 57.5457 16.5204 57.5347 16.2152V9.20431C57.5266 9.04909 57.5509 8.89388 57.6061 8.74856C57.6613 8.60324 57.7461 8.47099 57.8551 8.36023C57.9642 8.24947 58.0951 8.16262 58.2395 8.10521C58.384 8.0478 58.5388 8.02108 58.6941 8.02675C59.3495 8.02675 59.7945 8.41271 59.8717 9.01209C60.4499 8.2553 61.358 7.83301 62.4781 7.83301C64.6213 7.83301 66.0123 9.32086 66.0123 11.7335Z" fill="#183760"/>
<path d="M73.0098 15.095C73.6485 15.095 73.9754 15.5188 73.9754 15.982C73.9754 16.8704 73.0098 17.5848 71.4856 17.5848C69.574 17.5848 68.357 16.427 68.357 14.1672V10.1698H67.5064C66.8889 10.1698 66.4636 9.74603 66.4636 9.11032C66.4585 8.97285 66.4822 8.83584 66.533 8.70802C66.5839 8.58021 66.6609 8.4644 66.759 8.36798C66.8571 8.27157 66.9743 8.19666 67.1029 8.14805C67.2316 8.09943 67.369 8.07818 67.5064 8.08563H68.3752V6.83087C68.3752 6.11647 68.8595 5.63363 69.5346 5.63363C69.6942 5.62464 69.8539 5.64945 70.0032 5.70644C70.1525 5.76343 70.2881 5.85131 70.4011 5.96432C70.5142 6.07734 70.602 6.21296 70.659 6.36229C70.716 6.51161 70.7408 6.67129 70.7318 6.83087V8.08563H72.4694C72.746 8.08563 73.0113 8.1955 73.2068 8.39107C73.4024 8.58665 73.5123 8.8519 73.5123 9.12849C73.5123 9.40507 73.4024 9.67032 73.2068 9.8659C73.0113 10.0615 72.746 10.1713 72.4694 10.1713H70.7727V14.4396C70.7727 15.1344 71.0754 15.3856 71.6021 15.3856C72.1289 15.3856 72.5678 15.0965 73.0113 15.0965" fill="#183760"/>
<path d="M83.7507 9.20431V16.2152C83.758 16.3719 83.7325 16.5285 83.6759 16.6748C83.6192 16.8211 83.5326 16.9539 83.4216 17.0648C83.3106 17.1756 83.1776 17.2621 83.0312 17.3186C82.8849 17.375 82.7283 17.4003 82.5716 17.3928C81.8965 17.3928 81.4137 16.9493 81.3759 16.3106C80.719 17.1037 79.773 17.585 78.5561 17.585C76.1026 17.585 74.1152 15.5962 74.1152 12.7007C74.1152 9.91872 75.9875 7.83301 78.5561 7.83301C79.7669 7.83301 80.719 8.278 81.3759 9.04387C81.4531 8.42633 81.9162 8.02069 82.5716 8.02069C82.7283 8.01314 82.8849 8.03842 83.0312 8.0949C83.1776 8.15139 83.3106 8.23784 83.4216 8.3487C83.5326 8.45957 83.6192 8.59241 83.6759 8.73871C83.7325 8.88501 83.758 9.04154 83.7507 9.19826V9.20431ZM81.3698 12.7007C81.3698 11.2128 80.3451 10.0353 78.936 10.0353C77.5268 10.0353 76.4643 11.2128 76.4643 12.7007C76.4643 14.1885 77.5072 15.3843 78.936 15.3843C80.3648 15.3843 81.3698 14.187 81.3698 12.7007Z" fill="#183760"/>
<path d="M91.8679 9.10891C91.8679 9.80364 91.385 10.2274 90.71 10.2274C90.3422 10.2274 89.9366 10.1124 89.3962 10.1124C88.5471 10.1124 87.9871 10.7496 87.9871 11.735V16.2136C87.9927 16.3719 87.9665 16.5297 87.9098 16.6777C87.8531 16.8256 87.7673 16.9606 87.6573 17.0745C87.5473 17.1885 87.4155 17.2792 87.2697 17.3411C87.1239 17.403 86.9671 17.435 86.8087 17.435C86.6504 17.435 86.4936 17.403 86.3478 17.3411C86.202 17.2792 86.0702 17.1885 85.9602 17.0745C85.8502 16.9606 85.7644 16.8256 85.7077 16.6777C85.651 16.5297 85.6247 16.3719 85.6304 16.2136V9.20426C85.6223 9.04904 85.6467 8.89383 85.7018 8.74851C85.757 8.60319 85.8418 8.47094 85.9508 8.36018C86.0599 8.24942 86.1908 8.16257 86.3352 8.10516C86.4797 8.04775 86.6345 8.02103 86.7898 8.0267C87.4649 8.0267 87.9295 8.45201 87.9871 9.06955C88.238 8.68969 88.5792 8.37801 88.9802 8.16246C89.3812 7.9469 89.8294 7.83421 90.2847 7.83447C91.0581 7.83447 91.8679 8.24011 91.8679 9.10891Z" fill="#183760"/>
<path d="M63.1354 22.3788H63.8362C64.3024 22.3788 64.5112 22.6119 64.5112 22.9842C64.5112 23.3565 64.3024 23.6063 63.8362 23.6063H63.1354V22.3788ZM62.2969 21.6855V25.8585H63.1339V24.2284H63.5289L64.4492 25.8555H65.4179L64.4159 24.1663C64.6886 24.1063 64.9322 23.9539 65.1054 23.7349C65.2786 23.5159 65.3708 23.2437 65.3664 22.9645C65.3664 22.2652 64.8654 21.6855 63.8604 21.6855H62.2969Z" fill="white"/>
<path d="M66.1875 21.6792V25.8582H68.6077V25.1756H67.0245V24.0707H68.4276V23.4077H67.0245V22.3603H68.6077V21.6792H66.1875Z" fill="white"/>
<path d="M69.2237 23.765C69.2149 24.0472 69.264 24.3283 69.3681 24.5908C69.4722 24.8533 69.629 25.0916 69.8289 25.2911C70.0288 25.4905 70.2675 25.6469 70.5302 25.7504C70.7929 25.854 71.0741 25.9025 71.3563 25.893C71.8329 25.9026 72.2977 25.7452 72.6704 25.448C73.043 25.1508 73.2999 24.7327 73.3966 24.2659V23.5364H71.1353V24.1766H72.5702C72.5284 24.4558 72.3839 24.7092 72.1649 24.8873C71.946 25.0653 71.6684 25.1552 71.3866 25.1393C70.6101 25.1393 70.0834 24.6141 70.0834 23.7634C70.0834 22.9128 70.6041 22.4012 71.3518 22.4012C71.5491 22.3894 71.7457 22.4336 71.9189 22.5287C72.0922 22.6237 72.235 22.7658 72.3311 22.9385H73.2937C73.0243 22.1015 72.2842 21.6293 71.3518 21.6293C71.0696 21.6211 70.7887 21.6707 70.5264 21.7752C70.2641 21.8796 70.0259 22.0366 69.8266 22.2365C69.6272 22.4364 69.4709 22.675 69.3672 22.9376C69.2635 23.2002 69.2147 23.4813 69.2237 23.7634" fill="white"/>
<path d="M76.596 21.6855V24.2677C76.596 24.8414 76.2857 25.141 75.7469 25.141C75.2081 25.141 74.9054 24.8383 74.9054 24.2677V21.6855H74.0684V24.2586C74.0684 25.359 74.8251 25.8978 75.7333 25.8978C76.6414 25.8978 77.4346 25.362 77.4346 24.2617V21.6886L76.596 21.6855Z" fill="white"/>
<path d="M78.3047 21.6855V25.8585H80.5175V25.1955H79.1417V21.6855H78.3047Z" fill="white"/>
<path d="M82.8335 22.6479L83.4389 24.3946H82.228L82.8335 22.6479ZM82.3491 21.6792L80.8477 25.8582H81.727L82.0025 25.062H83.6675L83.9414 25.8582H84.8268L83.3269 21.6792H82.3491Z" fill="white"/>
<path d="M86.2843 22.3788H86.9836C87.4497 22.3788 87.6586 22.6119 87.6586 22.9842C87.6586 23.3565 87.4497 23.6063 86.9836 23.6063H86.2843V22.3788ZM85.4473 21.6855V25.8585H86.2843V24.2284H86.6778L87.5996 25.8555H88.5667L87.5754 24.1663C87.8481 24.1063 88.0917 23.9539 88.2649 23.7349C88.4381 23.5159 88.5303 23.2437 88.5259 22.9645C88.5259 22.2652 88.0234 21.6855 87.0123 21.6855H85.4473Z" fill="white"/>
<path d="M53.2266 5.6354C53.2245 5.89098 53.2985 6.14141 53.4392 6.35481C53.5798 6.56821 53.7808 6.73495 54.0165 6.83379C54.2522 6.93264 54.512 6.95913 54.7628 6.90989C55.0136 6.86066 55.244 6.73792 55.4249 6.5573C55.6057 6.37667 55.7287 6.14634 55.7783 5.8956C55.8278 5.64485 55.8016 5.38505 55.703 5.14923C55.6045 4.91341 55.438 4.71225 55.2247 4.57134C55.0115 4.43043 54.7612 4.35615 54.5056 4.35794C54.1674 4.36032 53.8437 4.49562 53.6044 4.73463C53.3651 4.97365 53.2294 5.2972 53.2266 5.6354Z" fill="#FFCD00"/>
<path d="M53.2266 5.6354C53.2245 5.89098 53.2985 6.14141 53.4392 6.35481C53.5798 6.56821 53.7808 6.73495 54.0165 6.83379C54.2522 6.93264 54.512 6.95913 54.7628 6.90989C55.0136 6.86066 55.244 6.73792 55.4249 6.5573C55.6057 6.37667 55.7287 6.14634 55.7783 5.8956C55.8278 5.64485 55.8016 5.38505 55.703 5.14923C55.6045 4.91341 55.438 4.71225 55.2247 4.57134C55.0115 4.43043 54.7612 4.35615 54.5056 4.35794C54.1674 4.36032 53.8437 4.49562 53.6044 4.73463C53.3651 4.97365 53.2294 5.2972 53.2266 5.6354Z" fill="url(#paint1_linear_696_174392)"/>
<defs>
<linearGradient id="paint0_linear_696_174392" x1="58.2305" y1="23.8892" x2="92.4858" y2="23.8892" gradientUnits="userSpaceOnUse">
<stop stop-color="#2BAAE2"/>
<stop offset="0.26" stop-color="#26A1DB"/>
<stop offset="0.67" stop-color="#1789C9"/>
<stop offset="1" stop-color="#0971B7"/>
</linearGradient>
<linearGradient id="paint1_linear_696_174392" x1="55.4243" y1="6.55414" x2="53.602" y2="4.73331" gradientUnits="userSpaceOnUse">
<stop stop-color="#ED9423"/>
<stop offset="0.1" stop-color="#ED9622" stop-opacity="0.97"/>
<stop offset="0.23" stop-color="#EF9A1F" stop-opacity="0.9"/>
<stop offset="0.38" stop-color="#F1A11B" stop-opacity="0.78"/>
<stop offset="0.55" stop-color="#F4AA15" stop-opacity="0.61"/>
<stop offset="0.73" stop-color="#F8B70E" stop-opacity="0.39"/>
<stop offset="0.92" stop-color="#FDC604" stop-opacity="0.13"/>
<stop offset="1" stop-color="#FFCD00" stop-opacity="0"/>
</linearGradient>
</defs>
</svg>
