<svg width="200" height="200" viewBox="0 0 200 200" fill="none" xmlns="http://www.w3.org/2000/svg">
<g clip-path="url(#clip0_5942_81374)">
    <path d="M82.0377 58.1743C84.5201 57.9749 86.7077 58.5224 89.0789 59.2076C89.7547 59.3994 90.4326 59.5798 91.1124 59.7566C91.2312 59.7875 91.35 59.8184 91.4724 59.8503C91.7148 59.9133 91.9571 59.9764 92.1995 60.0394C94.3149 60.5915 96.4187 61.1773 98.5187 61.7857C99.7741 62.1475 101.033 62.4784 102.303 62.7872C103.263 63.0225 104.214 63.2843 105.163 63.5602C106.615 63.9816 108.073 64.3799 109.534 64.7685C109.642 64.7972 109.75 64.8258 109.861 64.8554C111.126 65.1919 112.393 65.5236 113.661 65.8513C114.987 66.194 116.304 66.5508 117.615 66.9478C119.097 67.3892 120.599 67.7605 122.098 68.1406C123.156 68.4097 124.208 68.6878 125.256 68.9917C126.126 69.2432 126.993 69.4618 127.88 69.6438C128.766 69.8258 129.63 70.0458 130.499 70.3012C131.672 70.6414 132.855 70.9077 134.05 71.1581C135.991 71.5661 137.915 72.0022 139.816 72.5717C140.173 72.6761 140.532 72.772 140.892 72.8669C144.073 73.7211 146.669 75.33 148.437 78.1691C149.863 80.8976 150.441 84.0265 149.63 87.0437C148.584 90.1572 146.597 92.1675 144.317 94.4296C143.913 94.8306 143.51 95.233 143.107 95.6357C142.849 95.8935 142.59 96.1513 142.331 96.4089C142.212 96.528 142.092 96.6471 141.97 96.7698C141.479 97.2553 140.991 97.7313 140.457 98.1687C139.988 98.5565 139.571 98.9672 139.143 99.4002C135.837 102.706 132.531 106.013 129.225 109.319C129.082 109.464 128.939 109.608 128.791 109.757C128.405 110.139 128.008 110.501 127.6 110.861C126.688 111.677 125.821 112.533 124.957 113.402C124.798 113.562 124.638 113.722 124.478 113.881C124.064 114.296 123.65 114.712 123.236 115.128C122.812 115.554 122.387 115.98 121.961 116.406C121.132 117.237 120.303 118.069 119.474 118.902C118.091 117.568 117.279 115.637 116.616 113.858C116.543 113.671 116.47 113.484 116.395 113.291C116.042 111.428 116.24 109.817 117.127 108.15C118.946 105.544 124.051 104.775 126.881 104.002C130.988 102.897 130.988 102.897 134.286 100.354C134.489 100.027 134.489 100.027 134.436 99.4002C133.213 98.7886 131.636 99.4097 130.433 99.7995C128.148 100.531 126.003 100.81 123.603 100.798C123.487 100.797 123.37 100.797 123.25 100.797C120.561 100.788 117.838 100.602 115.271 99.7364C115.648 99.5457 116.027 99.3613 116.409 99.1822C118.226 98.3144 119.215 97.498 120.146 95.7017C120.216 95.5758 120.286 95.4498 120.358 95.3201C121.11 93.7723 121.087 91.77 120.546 90.1539C119.709 88.2225 118.461 86.8444 116.545 85.951C114.706 85.2378 112.913 85.3079 111.068 85.951C109.062 86.8793 107.873 88.1208 107.033 90.1539C106.397 91.9734 106.542 93.7866 107.295 95.5447C107.614 96.1936 107.969 96.7864 108.378 97.3828C107.011 96.9672 105.73 96.3903 104.438 95.7857C104.327 95.7336 104.215 95.6815 104.1 95.6278C99.6194 93.5257 95.9892 90.8512 92.9118 86.9597C92.5382 86.4964 92.1628 86.0346 91.7875 85.5727C91.6976 85.4615 91.6076 85.3503 91.515 85.2357C91.0763 84.6942 90.6348 84.155 90.1871 83.621C90.1089 83.5275 90.0307 83.4339 89.9502 83.3375C89.6947 83.051 89.6947 83.051 89.2132 82.7568C88.685 82.8098 88.685 82.8098 88.2045 82.9249C87.75 86.4269 90.7556 90.1253 92.7334 92.7143C93.732 94.0014 94.8168 95.1936 95.9378 96.3741C101.58 102.325 101.58 102.325 102.662 105.789C102.723 105.973 102.784 106.157 102.847 106.347C104.197 111.851 100.123 117.462 97.4542 121.925C97.1586 122.42 96.8633 122.914 96.5683 123.409C96.5103 123.506 96.4522 123.603 96.3925 123.704C94.3374 126.821 94.3374 126.821 93.5842 130.333C93.7323 130.729 93.7323 130.729 93.9204 131.006C95.1152 131.162 95.8399 130.711 96.7784 129.997C98.2417 128.757 99.5752 127.384 100.872 125.974C101.775 124.995 102.703 124.041 103.64 123.094C103.786 122.944 103.933 122.794 104.084 122.639C105.521 121.194 107.022 119.935 109.124 119.795C111.286 119.848 113.038 121.052 114.51 122.55C114.767 122.936 114.767 122.936 114.749 123.242C114.534 123.767 114.198 124.075 113.799 124.476C113.716 124.561 113.633 124.645 113.547 124.732C113.271 125.011 112.994 125.288 112.716 125.564C112.522 125.759 112.328 125.954 112.134 126.149C111.726 126.558 111.318 126.966 110.908 127.374C110.39 127.891 109.874 128.41 109.358 128.93C108.957 129.334 108.555 129.737 108.152 130.139C107.962 130.329 107.772 130.52 107.582 130.712C104.586 133.736 101.132 135.84 96.7574 135.955C92.8441 135.819 89.5712 134.315 86.8596 131.51C83.7589 127.82 83.1213 121.953 81.9853 117.39C81.58 115.765 81.1532 114.147 80.6965 112.535C80.2201 110.852 79.7498 109.173 79.3651 107.467C79.0911 106.269 78.7353 105.098 78.3813 103.922C78.2439 103.463 78.1109 103.003 77.9811 102.542C77.9418 102.404 77.9026 102.266 77.8622 102.124C77.7814 101.754 77.7814 101.754 77.7814 101.081C77.5984 101.085 77.5984 101.085 77.4116 101.089C76.8554 101.1 76.2993 101.106 75.743 101.113C75.551 101.117 75.359 101.121 75.1612 101.126C73.3911 101.141 73.3911 101.141 72.5699 100.577C72.4017 100.409 72.4017 100.409 72.3282 99.8205C72.3613 98.2592 73.8721 96.9761 74.8414 95.856C74.9794 95.6941 75.1175 95.5322 75.2597 95.3654C75.4121 95.2084 75.4121 95.2084 75.5677 95.0482C76.0222 94.2259 75.7815 93.3326 75.5421 92.476C75.4425 92.1497 75.3413 91.824 75.2387 91.4988C74.8148 90.1055 74.4253 88.7115 74.0829 87.2959C73.7008 85.7228 73.2687 84.1699 72.7984 82.6209C72.4945 81.6094 72.2526 80.6021 72.0655 79.5626C71.9416 79.5342 71.8177 79.5059 71.6901 79.4766C70.5877 79.2206 69.5141 78.8987 68.4405 78.5434C68.3085 78.5002 68.1764 78.4569 68.0404 78.4123C67.9156 78.3704 67.7909 78.3285 67.6623 78.2853C67.4954 78.2294 67.4954 78.2294 67.3251 78.1723C67.0221 78.0496 67.0221 78.0496 66.5177 77.7134C66.5359 77.53 66.5359 77.53 66.5545 77.343C66.8139 74.5329 66.7697 72.4687 65.0047 70.1482C63.5772 68.5918 61.5827 68.1693 59.625 67.6265C59.625 67.571 59.625 67.5155 59.625 67.4583C59.7856 67.4215 59.9462 67.3847 60.1116 67.3467C62.4847 66.7761 64.3963 65.8761 65.8032 63.7913C66.4724 62.6429 66.9044 61.3847 67.0221 60.0613C67.325 60.6114 67.4865 61.1591 67.6525 61.7634C68.2291 63.6447 69.1434 64.9217 70.7206 66.1134C70.9702 66.1966 70.9702 66.1966 71.2249 66.2815C71.2455 66.1574 71.2661 66.0332 71.2873 65.9052C71.8109 63.606 74.0508 61.4615 75.9466 60.19C77.8869 59.0144 79.7795 58.3927 82.0377 58.1743Z" fill="#F4AE2A">
    </path>
<path d="M66.1817 80.2329C66.0707 80.7786 65.8717 81.2063 65.6032 81.6928C62.8967 86.6801 60.922 92.3195 60.8021 98.0531C60.7956 98.2967 60.7956 98.2967 60.7889 98.5453C60.6547 104.226 61.4752 109.762 63.66 115.033C63.7242 115.188 63.7884 115.343 63.8545 115.502C64.7827 117.707 65.8657 119.766 67.1904 121.757C67.2957 121.916 67.2957 121.916 67.4031 122.077C69.9113 125.806 73.1034 129.088 76.773 131.676C76.8771 131.75 76.9811 131.825 77.0884 131.902C82.8307 135.979 90.0275 138.724 97.1149 138.905C97.2624 138.909 97.4099 138.914 97.5619 138.918C104.132 139.088 110.544 137.804 116.448 134.87C116.573 134.809 116.697 134.749 116.825 134.686C119.227 133.503 121.44 132.031 123.509 130.331C123.676 130.195 123.843 130.059 124.015 129.919C125.954 128.321 127.677 126.599 129.225 124.615C129.359 124.448 129.494 124.281 129.633 124.108C132.251 120.825 134.155 117.108 135.613 113.183C135.693 112.977 135.772 112.771 135.854 112.559C136.454 110.902 136.779 109.198 137.107 107.47C137.14 107.302 137.172 107.134 137.206 106.96C137.264 106.629 137.314 106.296 137.354 105.962C137.51 104.772 137.851 104.18 138.744 103.391C138.904 103.241 138.904 103.241 139.066 103.088C139.368 102.806 139.675 102.53 139.984 102.256C140.124 102.13 140.265 102.004 140.409 101.874C140.616 101.692 140.824 101.512 141.036 101.336C141.432 100.989 141.798 100.612 142.17 100.239C142.381 100.027 142.592 99.8149 142.803 99.603C142.92 99.4853 143.037 99.3676 143.158 99.2462C143.684 98.7176 144.211 98.1894 144.738 97.6613C145.016 97.3818 145.295 97.1021 145.573 96.8223C145.975 96.4185 146.377 96.0153 146.78 95.6122C146.905 95.4861 147.03 95.36 147.159 95.2301C147.274 95.115 147.389 94.9999 147.508 94.8814C147.609 94.7794 147.711 94.6774 147.816 94.5723C148.054 94.3546 148.054 94.3546 148.222 94.3546C148.488 96.4159 148.626 98.4439 148.621 100.522C148.621 100.733 148.621 100.733 148.621 100.949C148.586 112.758 143.958 124.623 135.957 133.319C135.642 133.662 135.338 134.012 135.035 134.366C133.924 135.639 132.708 136.814 131.41 137.896C131.315 137.976 131.22 138.056 131.123 138.138C129.702 139.324 128.271 140.438 126.703 141.427C126.511 141.553 126.32 141.679 126.129 141.805C123.099 143.78 119.851 145.415 116.448 146.638C116.309 146.689 116.169 146.74 116.026 146.792C112.984 147.884 109.877 148.692 106.687 149.213C106.523 149.239 106.36 149.266 106.191 149.294C103.943 149.637 101.686 149.695 99.416 149.685C99.2944 149.685 99.1728 149.685 99.0476 149.684C85.2552 149.635 72.9932 143.91 63.3165 134.222C62.4724 133.364 61.7099 132.458 60.9702 131.508C60.8225 131.325 60.6745 131.142 60.5263 130.959C55.15 124.292 51.8216 116.165 50.505 107.73C50.4776 107.555 50.4502 107.38 50.4219 107.2C50.0671 104.808 50.0029 102.421 50.0007 100.007C50.0005 99.8597 50.0002 99.7119 50 99.5596C50.0008 97.173 50.147 94.8612 50.5471 92.5053C50.5862 92.2462 50.625 91.987 50.6633 91.7278C50.9057 90.1568 51.3101 88.66 51.7837 87.1444C51.8902 86.7952 51.9892 86.4447 52.0857 86.0926C52.611 84.1933 53.3175 82.3862 54.0775 80.5691C54.6198 80.8006 54.734 80.8764 55.0336 81.4202C55.2186 81.8944 55.2893 82.3219 55.3278 82.8282C55.4089 83.7772 55.7299 84.587 56.4206 85.2553C57.4982 85.8432 58.3955 85.9413 59.5727 85.6021C60.2584 85.201 60.6569 84.8346 60.9702 84.0996C61.0332 83.6421 61.0551 83.19 61.0798 82.729C61.1962 81.7758 61.5868 80.9411 62.2862 80.2776C63.5963 79.3594 64.7926 79.6927 66.1817 80.2329Z" fill="#4680D8"/>
<path d="M82.0394 58.1743C84.5218 57.9749 86.7093 58.5224 89.0806 59.2076C89.7563 59.3994 90.4342 59.5798 91.114 59.7566C91.2328 59.7875 91.3516 59.8184 91.474 59.8503C91.7164 59.9133 91.9587 59.9764 92.2011 60.0394C94.3165 60.5915 96.4203 61.1773 98.5203 61.7857C99.7757 62.1475 101.035 62.4784 102.305 62.7872C103.265 63.0225 104.215 63.2843 105.165 63.5602C106.617 63.9816 108.074 64.3799 109.536 64.7685C109.643 64.7972 109.751 64.8258 109.862 64.8554C111.128 65.1919 112.395 65.5236 113.663 65.8513C114.988 66.1939 116.305 66.5499 117.615 66.9475C119.121 67.3967 120.65 67.7713 122.174 68.1553C123.308 68.4426 124.424 68.7497 125.528 69.1395C125.528 69.195 125.528 69.2504 125.528 69.3076C125.375 69.3323 125.223 69.357 125.066 69.3825C123.044 69.7548 121.68 70.4714 120.484 72.1656C119.667 73.4821 118.968 74.8527 118.291 76.2455C117.019 78.8534 115.57 81.81 112.639 82.8198C111.418 83.1467 110.486 82.7888 109.389 82.2525C107.813 81.2995 107.063 79.391 106.531 77.7134C106.384 77.0807 106.326 76.4681 106.29 75.8201C106.278 75.618 106.266 75.4159 106.253 75.2077C106.228 74.7871 106.204 74.3663 106.182 73.9455C106.077 72.2811 105.877 70.4189 104.681 69.1395C103.783 68.5078 103.13 68.361 102.044 68.3935C101.91 68.3962 101.776 68.3989 101.637 68.4017C98.917 68.4917 96.3382 69.696 93.8334 70.6795C87.7511 73.064 87.7511 73.064 84.6331 71.8838C83.8782 71.5198 83.2737 71.0489 82.6584 70.4844C82.5466 70.3821 82.4347 70.2798 82.3195 70.1744C81.5251 69.4113 80.8344 68.575 80.1498 67.7131C79.8096 67.2857 79.8096 67.2857 79.4195 66.9198C79.128 66.6178 79.128 66.6178 79.128 66.2815C79.0274 66.233 78.9269 66.1845 78.8233 66.1344C78.4555 65.9453 78.4555 65.9453 77.9512 65.6091C77.8517 65.678 77.7522 65.7469 77.6497 65.8179C77.4505 65.9538 77.4505 65.9538 77.2472 66.0924C77.1165 66.1821 76.9858 66.2718 76.8512 66.3643C75.4241 67.24 73.905 67.2117 72.3042 66.8982C71.9113 66.7893 71.583 66.6457 71.2266 66.4497C71.388 64.3515 73.2395 62.3954 74.757 61.07C76.9103 59.315 79.3001 58.4392 82.0394 58.1743Z" fill="#F7931F"/>
<path d="M107.874 51.8223C108.033 51.8484 108.191 51.8744 108.354 51.9012C119.784 53.8069 130.938 60.5809 137.967 69.8106C137.227 70.0389 136.653 69.8489 135.928 69.6425C135.789 69.6045 135.651 69.5664 135.507 69.5272C135.202 69.4434 134.896 69.3589 134.591 69.2739C133.907 69.0846 133.221 68.9012 132.536 68.7176C131.978 68.5681 131.421 68.4178 130.863 68.2674C129.575 67.9198 128.287 67.573 126.999 67.2263C126.082 66.9795 125.165 66.7323 124.248 66.4844C122.329 65.9662 120.409 65.4555 118.486 64.9569C117.402 64.6751 116.323 64.38 115.245 64.0769C114.22 63.7901 113.191 63.5208 112.161 63.2541C110.888 62.9246 109.619 62.5842 108.353 62.2277C107.325 61.9397 106.292 61.6715 105.258 61.4049C104.138 61.1159 103.024 60.8157 101.917 60.4802C100.615 60.0867 99.2999 59.7619 97.9798 59.4381C96.8714 59.1642 95.7729 58.8673 94.6772 58.5469C93.0669 58.0767 91.4443 57.6681 89.8156 57.267C88.8222 57.022 87.8343 56.7593 86.8474 56.4895C83.5041 55.6191 79.2222 55.8998 76.0854 57.4312C75.6924 57.5622 75.4775 57.5039 75.0918 57.3701C80.16 54.5037 85.6679 52.6362 91.3989 51.6542C91.5384 51.6288 91.6778 51.6034 91.8215 51.5773C97.0682 50.65 102.645 50.9191 107.874 51.8223Z" fill="#5EACF8"/>
<path d="M77.9509 101.082C81.4182 100.918 84.8859 101.348 87.6175 103.667C89.347 105.339 90.0303 107.106 90.0972 109.488C90.0469 114.366 87.2618 120.172 84.003 123.777C83.892 123.777 83.7811 123.777 83.6668 123.777C83.046 121.615 82.4457 119.453 81.9352 117.262C81.565 115.674 81.1417 114.102 80.6972 112.533C80.2212 110.851 79.7503 109.174 79.3668 107.468C79.1726 106.618 78.9373 105.784 78.6864 104.948C77.9299 102.427 77.9299 102.427 77.9509 101.082Z" fill="#F17A21"/>
<path d="M77.9493 101.082C81.4166 100.918 84.8843 101.348 87.6159 103.667C89.3455 105.339 90.0287 107.106 90.0956 109.488C90.0511 113.81 87.9408 118.105 85.5145 121.592C85.459 121.481 85.4035 121.37 85.3463 121.256C85.5349 120.826 85.7339 120.413 85.9453 119.995C86.4556 118.95 86.8945 117.905 87.2587 116.801C87.2986 116.68 87.3386 116.56 87.3799 116.436C87.8091 115.098 88.1041 113.748 88.2043 112.346C88.2134 112.218 88.2225 112.091 88.2319 111.959C88.3095 109.8 87.7356 107.542 86.3347 105.867C84.1157 103.685 81.2356 103.433 78.2855 103.267C78.0391 102.497 77.9308 101.899 77.9493 101.082Z" fill="#DA6821"/>
<path d="M72.4025 79.7305C75.1983 81.0031 76.9533 82.5741 78.1276 85.4864C79.1392 88.4418 77.8862 91.1087 76.6063 93.74C76.4372 94.0202 76.4372 94.0202 76.101 94.1884C75.4713 92.2738 74.9065 90.3492 74.3915 88.4007C74.1076 87.3291 73.815 86.2607 73.5103 85.1949C73.4587 85.0138 73.4587 85.0138 73.4061 84.8291C73.2696 84.3506 73.1331 83.8722 72.9945 83.3943C72.2968 80.9874 72.2968 80.9874 72.2344 79.8986C72.2899 79.8431 72.3453 79.7876 72.4025 79.7305Z" fill="#F8961E"/>
<path d="M58.2802 70.6523C58.3357 70.6523 58.3912 70.6523 58.4483 70.6523C58.4852 70.7945 58.522 70.9367 58.56 71.0831C59.0785 72.9379 59.8772 74.2458 61.4744 75.3596C62.3961 75.837 63.3006 76.1104 64.3324 76.2001C63.9331 76.5994 63.7951 76.5848 63.2501 76.6519C61.6712 76.9486 60.452 77.8777 59.5293 79.1691C59.2216 79.6726 58.9752 80.185 58.755 80.732C58.6141 81.0812 58.4524 81.4133 58.2802 81.7479C58.1973 81.5223 58.1973 81.5223 58.1128 81.2922C57.2989 79.2233 56.3066 77.8562 54.2277 76.8989C53.7346 76.7019 53.2381 76.5301 52.7324 76.3683C52.7324 76.3128 52.7324 76.2573 52.7324 76.2001C52.8343 76.1754 52.9361 76.1507 53.0411 76.1253C54.8918 75.6298 56.3659 74.784 57.3392 73.1031C57.7568 72.3043 58.0707 71.5285 58.2802 70.6523Z" fill="#FFCF40"/>
<path d="M75.5444 68.2558C76.1235 68.8192 76.2387 69.0915 76.3535 69.8949C76.2976 71.6643 74.9664 73.191 73.7477 74.3499C72.1656 75.6948 72.1656 75.6948 71.226 75.6948C70.6998 73.3895 70.6636 71.16 70.7216 68.8021C70.9313 68.6927 71.1416 68.5843 71.3521 68.4764C71.4691 68.4159 71.5861 68.3555 71.7067 68.2932C72.7881 67.8018 74.5086 67.6004 75.5444 68.2558Z" fill="#F6951C"/>
<path d="M60.6339 118.227C61.1383 118.395 61.1383 118.395 61.4325 118.836C61.5573 118.968 61.6821 119.099 61.8107 119.235C62.4329 119.225 62.4329 119.225 62.9875 119.067C63.4919 119.698 63.4919 119.698 63.4919 120.076C63.1035 120.131 62.7152 120.187 62.3151 120.244C62.5647 120.826 62.5647 120.826 62.8194 121.421C63.3187 121.365 63.818 121.31 64.3325 121.253C64.4434 121.585 64.5544 121.918 64.6687 122.261C64.3358 122.372 64.003 122.483 63.66 122.598C63.771 122.93 63.8819 123.263 63.9962 123.606C63.4919 123.942 63.4919 123.942 63.1451 123.932C62.8194 123.774 62.8194 123.774 62.6093 123.344C62.5677 123.208 62.5261 123.073 62.4832 122.934C62.3826 122.989 62.2821 123.045 62.1785 123.102C61.8107 123.27 61.8107 123.27 61.3064 123.27C61.4173 123.603 61.5283 123.936 61.6426 124.279C61.1383 124.615 61.1383 124.615 60.6339 124.615C60.523 124.393 60.412 124.171 60.2977 123.942C59.7429 123.942 59.1881 123.942 58.6166 123.942C58.5056 123.665 58.3946 123.388 58.2803 123.102C58.7254 122.856 58.935 122.766 59.4571 122.766C59.2907 122.377 59.1243 121.989 58.9528 121.589C58.4535 121.644 57.9542 121.7 57.4397 121.757C57.1035 121.253 57.1035 121.253 57.1035 120.748C57.4919 120.637 57.8802 120.526 58.2803 120.412C58.1971 120.28 58.1139 120.149 58.0281 120.013C57.776 119.571 57.776 119.571 57.776 119.235C58.2803 118.899 58.2803 118.899 58.7847 118.899C59.289 119.609 59.289 119.609 59.289 120.076C59.6774 119.909 60.0657 119.743 60.4658 119.571C60.3549 119.405 60.2439 119.239 60.1296 119.067C60.1716 118.71 60.1716 118.71 60.2977 118.395C60.4087 118.339 60.5196 118.284 60.6339 118.227Z" fill="#F7F9FD"/>
<path d="M95.7695 140.921C96.248 140.907 96.7265 140.893 97.2195 140.879C97.3683 140.873 97.5171 140.866 97.6704 140.86C98.6043 140.847 99.0822 140.996 99.8043 141.593C100.12 141.909 100.003 142.349 100.011 142.769C99.9724 143.106 99.9724 143.106 99.6362 143.611C99.5252 143.611 99.4143 143.611 99.2999 143.611C99.4074 143.725 99.5149 143.839 99.6257 143.957C100.041 144.548 100.141 144.907 100.141 145.628C99.8436 146.099 99.631 146.387 99.1318 146.637C98.876 146.651 98.6197 146.655 98.3635 146.653C98.2278 146.653 98.0921 146.652 97.9523 146.652C97.7798 146.65 97.6074 146.649 97.4297 146.647C96.6079 146.642 96.6079 146.642 95.7695 146.637C95.7695 144.75 95.7695 142.864 95.7695 140.921Z" fill="#F6F9FD"/>
<path d="M74.9248 134.531C75.4373 134.946 75.7374 135.33 76.1016 135.876C76.6009 135.127 76.6009 135.127 77.1103 134.363C77.4432 134.53 77.7761 134.696 78.119 134.868C77.858 135.622 77.451 136.251 77.0052 136.906C76.9313 137.016 76.8573 137.126 76.7811 137.239C76.1288 138.202 75.4514 139.146 74.7567 140.079C74.3364 139.859 74.3364 139.859 73.9161 139.575C73.9161 139.408 73.9161 139.242 73.9161 139.071C73.6509 139.05 73.6509 139.05 73.3803 139.028C72.5787 138.871 72.1654 138.585 71.6781 137.936C71.4971 137.343 71.437 136.816 71.5625 136.213C72.3184 134.794 73.3145 134.046 74.9248 134.531Z" fill="#F7F9FD"/>
<path d="M104.176 141.762C104.619 141.762 105.063 141.762 105.52 141.762C105.631 143.26 105.742 144.758 105.857 146.301C105.468 146.301 105.08 146.301 104.68 146.301C104.624 146.19 104.569 146.079 104.512 145.965C104.309 146.136 104.309 146.136 104.102 146.311C103.509 146.703 103.036 146.708 102.346 146.594C101.59 146.329 101.297 145.735 100.929 145.05C100.708 144.226 100.698 143.657 101.107 142.896C101.727 142.14 101.727 142.14 102.158 141.93C102.793 141.868 103.428 141.808 104.007 142.098C104.063 141.987 104.118 141.876 104.176 141.762Z" fill="#F5F8FC"/>
<path d="M112.919 139.746C113.121 140.376 113.32 141.006 113.518 141.637C113.604 141.906 113.604 141.906 113.692 142.179C113.746 142.351 113.799 142.524 113.855 142.701C113.905 142.86 113.955 143.018 114.007 143.181C114.098 143.624 114.077 143.864 113.927 144.285C113.595 144.341 113.262 144.396 112.919 144.453C112.863 144.342 112.808 144.231 112.751 144.117C112.685 144.221 112.619 144.325 112.551 144.432C112.182 144.865 111.957 144.988 111.406 145.126C110.379 145.107 109.914 144.827 109.22 144.117C108.754 143.376 108.747 142.444 108.884 141.595C109.167 141.071 109.52 140.689 110.061 140.419C110.348 140.407 110.635 140.404 110.922 140.408C111.075 140.41 111.228 140.411 111.386 140.413C111.503 140.415 111.621 140.417 111.742 140.419C111.797 140.252 111.853 140.086 111.91 139.914C112.414 139.746 112.414 139.746 112.919 139.746Z" fill="#F7FAFD"/>
<path d="M72.4025 79.7305C75.1983 81.0031 76.9533 82.5741 78.1276 85.4864C79.0497 88.1804 78.0896 90.684 76.9147 93.1133C76.6054 93.684 76.6054 93.684 76.2691 93.8521C76.2997 93.762 76.3302 93.6718 76.3617 93.5789C77.2141 90.9214 77.8412 88.0743 76.6054 85.4464C75.7502 83.999 74.7697 82.9035 73.18 82.3152C72.8458 82.1635 72.8458 82.1635 72.5706 81.916C72.3441 81.251 72.2503 80.6002 72.2344 79.8986C72.2899 79.8431 72.3453 79.7876 72.4025 79.7305Z" fill="#DA7420"/>
<path d="M70.5518 68.9727C70.5662 69.1217 70.5806 69.2708 70.5954 69.4244C70.6496 69.9852 70.7038 70.5461 70.758 71.1069C70.7813 71.3482 70.8046 71.5895 70.8279 71.8308C70.9579 73.1759 71.0883 74.5209 71.2242 75.8654C70.4835 76.2357 69.675 76.0709 68.9126 75.8549C68.2465 75.4577 67.9152 75.085 67.6938 74.3523C67.4811 73.0392 67.678 72.1163 68.4254 71.0216C68.5168 70.9002 68.6083 70.7788 68.7025 70.6538C68.7766 70.5533 68.8507 70.4527 68.9271 70.3491C70.0076 68.9727 70.0076 68.9727 70.5518 68.9727Z" fill="#FEFDF7"/>
<path d="M126.525 132.98C127.135 133.302 127.443 133.572 127.713 134.197C127.543 134.327 127.373 134.456 127.198 134.59C126.977 134.76 126.756 134.931 126.536 135.101C126.424 135.186 126.311 135.272 126.196 135.36C126.089 135.442 125.983 135.524 125.874 135.609C125.726 135.723 125.726 135.723 125.575 135.839C125.504 135.907 125.432 135.976 125.359 136.047C125.359 136.157 125.359 136.268 125.359 136.383C125.849 136.411 125.849 136.411 126.368 136.383C126.728 136.07 126.728 136.07 126.851 135.637C127.066 135.148 127.258 134.972 127.713 134.702C127.824 134.702 127.935 134.702 128.049 134.702C128.102 135.476 128.121 135.899 127.776 136.603C127.148 137.314 126.557 137.583 125.622 137.654C124.856 137.628 124.445 137.358 123.909 136.826C123.373 136.189 123.247 135.544 123.265 134.712C123.409 134.06 123.852 133.612 124.35 133.189C125.058 132.773 125.739 132.672 126.525 132.98Z" fill="#F6F9FD"/>
<path d="M93.6267 141.795C94.1631 142.149 94.4486 142.375 94.7615 142.94C94.8152 143.506 94.8011 144.056 94.7615 144.622C93.639 144.523 92.5187 144.414 91.3992 144.285C91.5659 144.727 91.5659 144.727 91.9036 145.126C92.5401 145.194 92.9779 145.16 93.5847 144.958C94.0365 145.031 94.0365 145.031 94.4253 145.126C94.2629 145.554 94.0994 145.789 93.7528 146.093C93.0176 146.399 92.3517 146.438 91.5673 146.303C90.9103 145.964 90.5029 145.468 90.2224 144.79C90.0998 144.018 90.1405 143.322 90.5061 142.625C91.3407 141.497 92.3401 141.325 93.6267 141.795Z" fill="#F5F8FC"/>
<path d="M58.4484 55.5195C58.7846 55.8558 58.7846 55.8558 59.0053 56.4862C59.3647 57.4683 59.8814 58.1177 60.823 58.5876C60.9344 58.637 61.0458 58.6864 61.1606 58.7374C61.4745 58.8818 61.4745 58.8818 61.9788 59.2181C61.8172 59.2675 61.8172 59.2675 61.6524 59.3179C60.3782 59.7585 59.572 60.3799 58.937 61.5841C58.8182 61.8552 58.7153 62.1332 58.6165 62.4122C58.4375 62.1437 58.2604 61.8735 58.099 61.594C57.3084 60.2393 56.4153 59.6273 54.918 59.2181C55.2472 59.0505 55.5751 58.8884 55.9148 58.7433C56.9498 58.284 57.671 57.6797 58.1181 56.6202C58.2414 56.2554 58.352 55.8922 58.4484 55.5195Z" fill="#FFD042"/>
<path d="M65.1495 124.006C65.8591 124.215 66.3792 124.737 66.8529 125.288C67.0543 125.892 67.0767 126.335 67.0211 126.97C66.6848 127.379 66.6848 127.379 66.3486 127.642C65.8508 127.129 65.6811 126.9 65.6446 126.171C65.6602 125.901 65.6602 125.901 65.6761 125.625C65.4969 125.407 65.4969 125.407 65.0772 125.446C64.942 125.45 64.8068 125.453 64.6675 125.457C64.7445 126.04 64.8173 126.579 65.0037 127.138C65.0975 127.941 65.1706 128.593 64.678 129.26C63.9708 129.578 63.4081 129.702 62.6501 129.491C62.0041 129.036 61.5887 128.495 61.34 127.744C61.2739 127.349 61.2476 127.029 61.3052 126.633C61.6309 126.203 61.6309 126.203 61.9776 125.961C62.4729 126.472 62.6465 126.696 62.6711 127.421C62.6642 127.605 62.6572 127.789 62.6501 127.978C62.761 128.089 62.872 128.2 62.9863 128.315C63.2082 128.315 63.4301 128.315 63.6588 128.315C63.6879 127.456 63.6489 126.925 63.3225 126.129C63.2307 125.395 63.2383 125.076 63.6588 124.458C64.1741 124.104 64.5192 123.969 65.1495 124.006Z" fill="#F7F9FD"/>
<path d="M52.9005 64.9375C53.8522 65.7272 54.7249 66.5762 55.5903 67.4592C54.8006 68.411 53.9517 69.2837 53.0686 70.1491C52.1276 69.3845 51.3346 68.5481 50.5469 67.6273C51.1579 66.572 52.0285 65.7796 52.9005 64.9375Z" fill="#FFD041"/>
<path d="M77.6131 136.551C78.4116 136.866 78.4116 136.866 78.7899 137.055C78.8102 138.13 78.7319 139.18 78.6218 140.249C78.8467 140.028 78.8467 140.028 79.0762 139.802C79.2749 139.611 79.4736 139.421 79.6725 139.23C79.7711 139.132 79.8697 139.035 79.9713 138.934C80.0677 138.843 80.1642 138.751 80.2635 138.657C80.3516 138.571 80.4396 138.486 80.5303 138.398C80.8073 138.232 80.8073 138.232 81.1591 138.273C81.5299 138.42 81.7244 138.606 81.9841 138.904C80.9292 139.882 79.8642 140.832 78.74 141.73C78.4309 141.981 78.1281 142.239 77.8311 142.504C77.6863 142.63 77.5416 142.756 77.3924 142.887C77.201 143.059 77.201 143.059 77.0056 143.235C76.6044 143.443 76.6044 143.443 76.0508 143.31C75.9006 143.243 75.7504 143.176 75.5957 143.107C75.8837 142.436 76.2776 142.124 76.8467 141.689C77.3559 141.178 77.3141 140.458 77.3668 139.769C77.3814 139.581 77.3961 139.394 77.4111 139.201C77.4258 139.006 77.4404 138.811 77.4555 138.61C77.4708 138.413 77.486 138.215 77.5018 138.012C77.5394 137.525 77.5765 137.038 77.6131 136.551Z" fill="#F7F9FD"/>
<path d="M69.3763 130.332C69.7091 130.554 70.042 130.776 70.3849 131.004C70.2347 131.208 70.084 131.411 69.9331 131.614C69.8419 131.737 69.7507 131.86 69.6567 131.986C69.4139 132.301 69.1602 132.592 68.8929 132.885C68.5042 133.323 68.5042 133.323 68.4621 133.82C68.5054 134.231 68.5054 134.231 68.8719 134.535C69.34 134.662 69.34 134.662 69.8806 134.535C70.6049 133.978 71.1808 133.242 71.7299 132.518C72.0661 132.686 72.4023 132.854 72.7386 133.022C72.5097 133.525 72.2466 133.904 71.877 134.314C71.774 134.429 71.6711 134.544 71.565 134.663C71.453 134.787 71.341 134.911 71.2255 135.039C70.9767 135.319 70.728 135.6 70.4795 135.88C70.2799 136.104 70.0803 136.328 69.8806 136.552C69.5444 136.384 69.2081 136.216 68.8719 136.048C68.8719 135.937 68.8719 135.826 68.8719 135.712C68.5816 135.5 68.5816 135.5 68.2205 135.302C67.71 135.01 67.5285 134.873 67.1908 134.367C67.0811 133.66 67.0494 133.259 67.4186 132.639C67.7214 132.248 68.0379 131.877 68.3676 131.509C68.5604 131.281 68.753 131.054 68.9455 130.826C69.1587 130.581 69.1587 130.581 69.3763 130.332Z" fill="#F6F9FD"/>
<path d="M84.6735 61.0703C84.5885 61.4349 84.5055 61.7427 84.3373 62.079C84.2183 63.4114 84.5422 64.4561 85.3263 65.5444C86.4804 66.9074 88.0699 68.1885 89.8851 68.4674C90.8378 68.5192 91.79 68.4969 92.7431 68.4674C92.1267 69.0837 91.2939 69.1645 90.4525 69.2029C87.9701 69.1462 85.8402 67.8614 84.1692 66.1138C83.3801 65.1116 82.7218 64.0815 82.7468 62.7626C82.8917 62.113 83.3478 61.6721 83.833 61.2384C84.1692 61.0703 84.1692 61.0703 84.6735 61.0703Z" fill="#D9731F"/>
<path d="M117.198 138.129C117.818 138.283 118.061 138.589 118.465 139.075C118.768 139.612 118.768 139.612 119.022 140.178C119.108 140.366 119.194 140.553 119.283 140.747C119.474 141.261 119.474 141.261 119.474 141.933C119.141 142.044 118.808 142.155 118.465 142.269C118.322 141.981 118.322 141.981 118.177 141.687C118.052 141.436 117.928 141.186 117.803 140.935C117.74 140.808 117.678 140.681 117.613 140.55C117.523 140.369 117.523 140.369 117.431 140.184C117.375 140.073 117.32 139.961 117.263 139.846C117.137 139.58 117.137 139.58 116.952 139.411C116.539 139.369 116.539 139.369 116.111 139.411C115.728 139.728 115.728 139.728 115.702 140.242C115.715 141.03 116.094 141.673 116.448 142.361C116.616 142.774 116.616 142.774 116.448 143.278C116.017 143.478 116.017 143.478 115.607 143.614C114.949 142.229 114.302 140.847 113.758 139.411C114.336 139.026 114.552 138.907 115.271 138.907C115.361 138.796 115.451 138.685 115.544 138.571C116.091 138.111 116.504 138.147 117.198 138.129Z" fill="#F7F9FD"/>
<path d="M84.002 101.582C85.8241 101.618 87.447 102.702 88.7322 103.933C90.4947 105.84 90.6553 108.128 90.6149 110.604C90.5511 112.05 90.2025 113.377 89.6968 114.727C89.6457 114.864 89.5946 115.001 89.5419 115.142C88.7879 117.107 87.7912 118.896 86.5237 120.579C86.3556 120.075 86.3556 120.075 86.4902 119.736C86.5622 119.608 86.6341 119.48 86.7082 119.348C86.7871 119.204 86.866 119.06 86.9472 118.912C87.0328 118.758 87.1184 118.604 87.2066 118.446C89.0242 115.081 90.5951 111.101 89.6863 107.22C88.9511 104.926 87.6242 103.518 85.515 102.423C85.0159 102.185 84.5134 101.96 84.002 101.75C84.002 101.695 84.002 101.639 84.002 101.582Z" fill="#FCC83A"/>
<path d="M121.997 135.711C122.491 135.942 122.491 135.942 122.837 136.215C122.837 136.326 122.837 136.437 122.837 136.552C122.341 136.832 121.944 136.938 121.377 136.982C120.88 136.988 120.88 136.988 120.484 137.224C120.419 137.902 120.424 138.294 120.757 138.895C121.136 139.287 121.136 139.287 121.682 139.315C122.186 139.287 122.186 139.287 122.501 138.905C122.553 138.767 122.605 138.628 122.659 138.485C122.837 138.065 122.837 138.065 123.342 137.728C123.508 137.728 123.675 137.728 123.846 137.728C123.804 138.703 123.751 139.38 123.005 140.082C122.252 140.533 121.507 140.571 120.652 140.418C119.938 140.016 119.449 139.497 119.139 138.737C119.011 138.071 118.994 137.473 119.341 136.876C120.117 135.94 120.754 135.602 121.997 135.711Z" fill="#F6F8FD"/>
<path d="M126.367 69.3065C126.367 69.362 126.367 69.4175 126.367 69.4746C126.204 69.4994 126.042 69.5241 125.874 69.5495C123.936 69.8715 122.459 70.4545 121.165 72.0108C120.028 73.621 119.181 75.4112 118.36 77.1974C117.791 78.4339 117.151 79.5158 116.28 80.5702C116.185 80.6938 116.091 80.8173 115.994 80.9446C115.18 81.96 114.157 82.679 112.918 83.092C112.599 83.1035 112.28 83.1062 111.961 83.1025C111.794 83.1009 111.627 83.0994 111.455 83.0979C111.328 83.0959 111.2 83.094 111.068 83.092C111.068 83.0365 111.068 82.981 111.068 82.9238C111.174 82.9074 111.28 82.8909 111.389 82.8739C113.398 82.523 114.805 81.6594 116.013 79.9941C116.917 78.6831 117.609 77.2691 118.308 75.842C120.899 70.5505 120.899 70.5505 123.446 69.5692C124.442 69.2549 125.337 69.0257 126.367 69.3065Z" fill="#FCC73A"/>
<path d="M89.8326 139.379C90.0364 139.386 90.0364 139.386 90.2444 139.393C90.3477 139.399 90.4511 139.404 90.5576 139.41C90.5021 139.743 90.4467 140.076 90.3895 140.419C90.1676 140.475 89.9457 140.53 89.717 140.587C89.717 140.754 89.717 140.92 89.717 141.092C89.8835 141.147 90.0499 141.203 90.2214 141.26C90.1659 141.537 90.1104 141.815 90.0533 142.1C89.7759 142.156 89.4985 142.211 89.2127 142.268C89.1661 142.471 89.1195 142.673 89.0715 142.882C89.01 143.147 88.9485 143.412 88.887 143.676C88.8563 143.81 88.8256 143.943 88.794 144.081C88.7493 144.273 88.7493 144.273 88.7038 144.468C88.6765 144.586 88.6492 144.704 88.621 144.826C88.5402 145.126 88.5402 145.126 88.3721 145.463C87.9838 145.407 87.5954 145.352 87.1953 145.294C87.2458 145.094 87.2963 144.893 87.3483 144.686C87.413 144.416 87.4776 144.146 87.542 143.876C87.5755 143.744 87.609 143.613 87.6435 143.477C87.8705 142.51 87.8559 141.737 87.6997 140.755C87.9216 140.755 88.1435 140.755 88.3721 140.755C88.3895 140.627 88.4068 140.499 88.4247 140.367C88.6353 139.543 89.0059 139.343 89.8326 139.379Z" fill="#F7F9FD"/>
<path d="M68.5349 127.477C68.8081 127.813 68.8081 127.813 69.0392 128.149C68.9838 128.25 68.9283 128.35 68.8711 128.454C68.5979 129.051 68.7369 129.546 68.8711 130.166C68.5937 130.222 68.3163 130.277 68.0305 130.335C67.9751 130.224 67.9196 130.113 67.8624 129.998C67.0971 130.223 66.4451 130.664 66.0132 131.343C66.0613 131.685 66.0613 131.685 66.1813 132.016C66.1813 132.182 66.1813 132.349 66.1813 132.52C65.8484 132.686 65.8484 132.686 65.5088 132.856C65.041 132.479 64.8448 132.207 64.6367 131.637C64.6833 130.705 65.1965 130.289 65.845 129.662C65.9343 129.566 66.0236 129.47 66.1156 129.37C66.3494 129.158 66.3494 129.158 66.6856 129.158C66.6284 128.965 66.6284 128.965 66.57 128.769C66.5175 128.317 66.5175 128.317 66.7382 128.012C67.0218 127.813 67.0218 127.813 67.3581 127.813C67.3581 127.924 67.3581 128.035 67.3581 128.149C67.4898 128.038 67.6216 127.927 67.7574 127.813C68.1987 127.477 68.1987 127.477 68.5349 127.477Z" fill="#F6F9FD"/>
<path d="M73.7461 80.2344C75.486 80.6359 77.0434 82.2457 77.9805 83.7123C79.0623 85.6294 79.4045 87.4456 78.9577 89.6068C78.3695 91.7037 77.2795 93.6334 75.7635 95.1966C75.597 95.2798 75.597 95.2798 75.4272 95.3647C75.5937 94.8654 75.7601 94.3661 75.9316 93.8517C76.0425 93.9072 76.1535 93.9626 76.2678 94.0198C76.5443 93.468 76.8162 92.9141 77.0874 92.3597C77.1647 92.2054 77.2421 92.0511 77.3218 91.8921C78.4005 89.6722 78.6265 87.486 77.8255 85.1281C77.0258 83.1633 75.8407 81.8635 74.1152 80.6717C73.9934 80.5829 73.8716 80.494 73.7461 80.4025C73.7461 80.347 73.7461 80.2915 73.7461 80.2344Z" fill="#FCCA3A"/>
<path d="M82.8258 137.898C83.3251 137.982 83.3251 137.982 83.8345 138.067C84.0507 138.715 83.9081 138.915 83.6513 139.54C83.5749 139.728 83.4985 139.916 83.4198 140.109C83.3382 140.305 83.2566 140.502 83.1726 140.704C83.0512 141.001 83.0512 141.001 82.9273 141.304C82.7268 141.795 82.5248 142.285 82.3215 142.774C82.8763 142.94 83.431 143.107 84.0026 143.278C83.9472 143.611 83.8917 143.944 83.8345 144.287C82.8499 144.007 81.9081 143.703 80.9766 143.278C81.0772 142.543 81.2589 141.905 81.5288 141.215C81.6042 141.021 81.6795 140.827 81.757 140.627C81.8358 140.427 81.9146 140.227 81.9958 140.021C82.0752 139.817 82.1546 139.613 82.2364 139.403C82.432 138.901 82.6285 138.4 82.8258 137.898Z" fill="#F6F9FD"/>
<path d="M67.0217 52.832C67.3169 53.2158 67.5716 53.5854 67.8098 54.0088C68.3001 54.645 68.8136 54.8845 69.5434 55.1856C69.2072 55.5219 69.2072 55.5219 68.6398 55.7951C68.0009 56.147 67.7762 56.56 67.4965 57.2194C67.358 57.5393 67.358 57.5393 67.0217 58.0436C66.9558 57.839 66.89 57.6344 66.8221 57.4237C66.5224 56.6348 66.1304 56.092 65.3609 55.6952C65.078 55.5718 64.7893 55.4615 64.5 55.3538C65.0043 55.0175 65.0043 55.0175 65.5822 54.7338C66.278 54.344 66.5119 53.878 66.8536 53.1683C66.9091 53.0573 66.9646 52.9463 67.0217 52.832Z" fill="#FFD144"/>
<path d="M106.876 139.734C107.12 139.74 107.12 139.74 107.369 139.745C107.514 140.499 107.657 141.252 107.8 142.006C107.849 142.263 107.898 142.519 107.947 142.775C108.018 143.144 108.088 143.513 108.157 143.882C108.179 143.996 108.202 144.11 108.224 144.228C108.325 144.767 108.378 145.245 108.378 145.797C107.99 145.797 107.601 145.797 107.201 145.797C107.057 145.094 106.913 144.391 106.77 143.688C106.722 143.449 106.673 143.211 106.624 142.972C106.553 142.628 106.483 142.283 106.413 141.939C106.371 141.732 106.329 141.525 106.285 141.312C106.205 140.829 106.159 140.4 106.193 139.913C106.361 139.745 106.361 139.745 106.876 139.734Z" fill="#F6F9FD"/>
<path d="M101.886 68.2902C102.009 68.2909 102.133 68.2917 102.26 68.2925C102.563 68.2944 102.865 68.2974 103.167 68.3007C103.167 68.3561 103.167 68.4116 103.167 68.4688C103.019 68.4833 102.87 68.4978 102.716 68.5128C101.549 68.6452 100.433 68.8316 99.3067 69.1701C99.1843 69.2066 99.0619 69.243 98.9358 69.2805C97.442 69.7363 95.9972 70.3156 94.5472 70.8928C92.2971 71.7853 89.9639 72.6875 87.5117 72.7032C87.3414 72.7056 87.171 72.7079 86.9955 72.7104C86.5248 72.6717 86.2517 72.5776 85.8516 72.3354C86.0145 72.3311 86.1775 72.3268 86.3454 72.3223C89.4179 72.2083 92.0575 71.2103 94.8963 70.1112C95.9354 69.7093 96.9784 69.3219 98.0294 68.9521C98.1624 68.9046 98.2954 68.8571 98.4324 68.8081C99.5965 68.4018 100.658 68.2757 101.886 68.2902Z" fill="#FDC937"/>
<path d="M117.961 76.1992C118.044 76.3657 118.044 76.3657 118.129 76.5354C117.954 76.9356 117.77 77.3088 117.562 77.6912C117.5 77.8039 117.439 77.9166 117.376 78.0328C116.306 79.9553 114.987 81.8755 112.886 82.7557C111.589 83.096 110.55 82.9098 109.387 82.2514C109.085 81.8915 109.085 81.8915 108.883 81.5789C109.067 81.6344 109.25 81.6899 109.44 81.747C110.988 82.1239 112.354 82.0107 113.758 81.2427C115.694 80.0262 116.827 78.1236 117.961 76.1992Z" fill="#DB6922"/>
<path d="M86.0187 140.25C86.3562 140.298 86.6927 140.354 87.0274 140.418C86.9201 141.339 86.708 142.19 86.439 143.076C86.4011 143.205 86.3632 143.333 86.3241 143.465C86.0439 144.403 86.0439 144.403 85.8506 144.789C85.4623 144.734 85.0739 144.678 84.6738 144.621C85.6181 140.651 85.6181 140.651 86.0187 140.25Z" fill="#F6F9FC"/>
<path d="M74.179 135.556C75.0053 135.781 75.0053 135.781 75.2613 136.218C75.3509 136.722 75.345 137.059 75.1135 137.522C74.9145 137.805 74.9145 137.805 74.4207 138.235C73.7678 138.258 73.4181 138.209 72.9076 137.794C72.66 137.206 72.7444 136.827 72.9076 136.218C73.3005 135.614 73.4508 135.543 74.179 135.556Z" fill="#467AD1"/>
<path d="M111.331 141.262C111.909 141.43 111.909 141.43 112.234 141.703C112.486 142.267 112.489 142.669 112.413 143.279C112.14 143.689 112.14 143.689 111.741 143.952C111.135 144.052 110.853 144.028 110.333 143.699C109.949 143.109 109.923 142.619 110.059 141.934C110.436 141.317 110.605 141.262 111.331 141.262Z" fill="#457AD2"/>
<path d="M103.84 142.941C104.26 143.288 104.26 143.288 104.512 143.782C104.502 144.369 104.451 144.774 104.155 145.284C103.648 145.571 103.231 145.524 102.663 145.463C102.297 145.194 102.175 145.046 102.092 144.596C102.093 144.466 102.094 144.336 102.096 144.202C102.094 144.072 102.093 143.942 102.092 143.808C102.27 142.846 102.985 142.821 103.84 142.941Z" fill="#4276D0"/>
<path d="M60.9707 67.7947C62.5165 67.6758 63.8301 68.3559 65.0055 69.3078C66.4103 70.6461 67.1711 72.2353 67.233 74.1831C67.2149 74.9325 67.0422 75.6456 66.8547 76.3686C66.6831 75.8115 66.6847 75.3307 66.7076 74.7505C66.7146 72.8369 66.0127 71.2465 64.7145 69.8312C63.6381 68.8533 62.3419 68.3818 60.9707 67.9629C60.9707 67.9074 60.9707 67.8519 60.9707 67.7947Z" fill="#FDD039"/>
<path d="M87.1656 60.3726C87.4117 60.3772 87.4117 60.3772 87.6628 60.3818C87.7865 60.3857 87.9102 60.3896 88.0377 60.3937C88.0377 60.4491 88.0377 60.5046 88.0377 60.5618C87.9179 60.5743 87.7981 60.5869 87.6746 60.5999C86.5432 60.7552 85.7475 60.9973 85.0117 61.9067C84.6545 62.9781 84.8605 63.8402 85.2895 64.8487C85.596 65.4173 85.9814 65.8643 86.4262 66.3296C86.6928 66.6139 86.6928 66.6139 87.0291 67.1183C85.6258 66.4795 84.9221 65.3017 84.3392 63.9241C84.1266 63.2862 84.0274 62.7325 84.1711 62.0748C84.9176 60.8741 85.7431 60.3384 87.1656 60.3726Z" fill="#FBC533"/>
<path d="M96.9473 144.29C97.2239 144.285 97.5006 144.282 97.7773 144.279C97.9314 144.277 98.0855 144.275 98.2442 144.273C98.6284 144.29 98.6284 144.29 98.7965 144.458C98.8281 144.952 98.8281 144.952 98.7965 145.467C98.4603 145.803 98.4603 145.803 98.0965 145.836C97.7134 145.825 97.3303 145.814 96.9473 145.803C96.9473 145.304 96.9473 144.804 96.9473 144.29Z" fill="#4478D1"/>
<path d="M96.9473 141.931C97.1924 141.922 97.4376 141.916 97.6828 141.91C97.8193 141.906 97.9558 141.902 98.0965 141.898C98.4603 141.931 98.4603 141.931 98.7965 142.268C98.7031 143.033 98.7031 143.033 98.4603 143.276C98.2049 143.288 97.9489 143.29 97.6933 143.287C97.5544 143.285 97.4155 143.284 97.2723 143.282C97.1651 143.28 97.0578 143.278 96.9473 143.276C96.9473 142.832 96.9473 142.389 96.9473 141.931Z" fill="#4177D1"/>
<path d="M61.3078 120.92C61.8122 121.623 61.8122 121.623 61.8122 122.097C61.4238 122.152 61.0355 122.208 60.6354 122.265C60.4134 121.932 60.1915 121.599 59.9629 121.256C60.2619 120.658 60.7544 120.678 61.3078 120.92Z" fill="#4E86DA"/>
<path d="M125.747 133.892C125.971 133.959 125.971 133.959 126.199 134.028C125.962 134.612 125.71 134.849 125.169 135.163C125.047 135.235 124.926 135.307 124.8 135.381C124.707 135.434 124.614 135.487 124.518 135.541C124.381 135.174 124.381 135.174 124.35 134.701C124.789 134.088 124.975 133.848 125.747 133.892Z" fill="#5388D9"/>
<path d="M91.3984 144.285C92.3244 144.384 93.1887 144.549 94.0883 144.79C94.0883 144.845 94.0883 144.9 94.0883 144.958C93.3338 145.252 92.7129 145.37 91.9028 145.294C91.5771 145.073 91.5771 145.073 91.3984 144.79C91.3984 144.623 91.3984 144.457 91.3984 144.285Z" fill="#4277D0"/>
<path d="M93.2476 142.774C93.5838 143.11 93.5838 143.11 93.5838 143.615C92.9181 143.559 92.2523 143.504 91.5664 143.446C91.6219 143.224 91.6774 143.003 91.7345 142.774C92.2588 142.512 92.6865 142.664 93.2476 142.774Z" fill="#477ED5"/>
<path d="M86.9336 138.539C87.3644 138.571 87.3644 138.571 87.7007 138.907C87.6376 139.348 87.6376 139.348 87.5325 139.747C87.1333 139.852 87.1333 139.852 86.692 139.916C86.3557 139.579 86.3557 139.579 86.3242 139.148C86.3666 138.598 86.3827 138.581 86.9336 138.539Z" fill="#F3F8FD"/>
<path d="M86.8607 118.734C86.9162 118.901 86.9716 119.067 87.0288 119.239C86.7935 119.661 86.5537 120.049 86.2828 120.447C86.2099 120.557 86.1369 120.667 86.0618 120.78C85.8813 121.052 85.6988 121.322 85.5158 121.592C85.4603 121.481 85.4048 121.37 85.3477 121.256C85.5204 120.848 85.7019 120.462 85.9045 120.069C85.9586 119.959 86.0127 119.85 86.0684 119.737C86.4804 118.925 86.4804 118.925 86.8607 118.734Z" fill="#CA5824"/>
<path d="M60.9707 67.7953C62.0421 67.7129 63.0293 67.9947 63.9232 68.5834C64.003 68.6562 64.0827 68.729 64.1649 68.804C63.7559 68.9493 63.5494 68.9909 63.1312 68.8533C63.0077 68.7919 62.8842 68.7306 62.7569 68.6674C62.1705 68.3873 61.5932 68.155 60.9707 67.9634C60.9707 67.908 60.9707 67.8525 60.9707 67.7953Z" fill="#FED44B"/>
<path d="M117.96 76.1992C118.016 76.3102 118.071 76.4211 118.128 76.5354C117.92 76.9745 117.703 77.3937 117.466 77.8173C117.402 77.9361 117.337 78.0548 117.27 78.1772C117.109 78.4712 116.946 78.7643 116.783 79.0572C116.673 79.0017 116.562 78.9462 116.447 78.8891C116.688 78.2235 117.007 77.664 117.393 77.0713C117.499 76.9073 117.605 76.7432 117.715 76.5742C117.836 76.3886 117.836 76.3886 117.96 76.1992Z" fill="#E77422"/>
<path d="M59.4578 109.824C59.6797 110.102 59.9016 110.379 60.1302 110.665C60.0297 110.713 59.9291 110.762 59.8255 110.812C59.4253 111.009 59.4253 111.009 58.9534 111.337C58.8425 110.949 58.7315 110.561 58.6172 110.16C58.8946 110.049 59.172 109.939 59.4578 109.824Z" fill="#EDF3FB"/>
<path d="M132.923 132.18C133.259 132.684 133.259 132.684 133.259 133.188C132.926 133.355 132.593 133.521 132.25 133.693C132.195 133.304 132.139 132.916 132.082 132.516C132.359 132.405 132.637 132.294 132.923 132.18Z" fill="#EAF0FA"/>
<path d="M77.2773 56.1914C77.3882 56.2469 77.4992 56.3024 77.6135 56.3595C77.4454 56.8639 77.4454 56.8639 77.0849 57.0661C76.9369 57.1242 76.7889 57.1823 76.6364 57.2421C76.4896 57.3019 76.3429 57.3617 76.1918 57.4234C75.7413 57.5424 75.5235 57.5252 75.0918 57.3682C75.4482 57.1669 75.8055 56.9676 76.1635 56.7693C76.265 56.7118 76.3664 56.6542 76.4709 56.5949C76.7342 56.4501 77.0054 56.3196 77.2773 56.1914Z" fill="#7AB9F8"/>
<path d="M86.1867 120.246C86.3174 120.517 86.3174 120.517 86.3548 120.919C86.1189 121.299 85.8886 121.625 85.6088 121.969C85.4994 122.109 85.4994 122.109 85.3878 122.252C85.2077 122.481 85.025 122.709 84.8418 122.936C84.8418 122.262 85.162 121.856 85.5143 121.307C85.5784 121.205 85.6425 121.103 85.7086 120.998C85.867 120.747 86.0267 120.496 86.1867 120.246Z" fill="#F5B937"/>
<path d="M77.2783 91.5C77.4464 92.0043 77.4464 92.0043 77.2422 92.4581C77.1466 92.6239 77.051 92.7897 76.9526 92.9605C76.8574 93.1276 76.7623 93.2947 76.6643 93.4668C76.5521 93.6583 76.5521 93.6583 76.4377 93.8536C76.2696 93.5174 76.2696 93.5174 76.3885 93.1286C76.4498 92.9795 76.5111 92.8304 76.5743 92.6768C76.6343 92.5277 76.6944 92.3786 76.7562 92.225C76.9421 91.8362 76.9421 91.8362 77.2783 91.5Z" fill="#C35A23"/>
<path d="M126.368 135.039C126.479 135.095 126.59 135.15 126.704 135.207C126.316 135.651 125.928 136.095 125.528 136.552C125.417 136.497 125.306 136.441 125.191 136.384C125.442 135.746 125.823 135.441 126.368 135.039Z" fill="#588FDE"/>
<path d="M124.014 63.7578C124.125 63.9797 124.236 64.2016 124.35 64.4303C124.018 64.5967 124.018 64.5967 123.678 64.7665C123.567 64.5446 123.456 64.3227 123.342 64.094C123.564 63.9831 123.786 63.8721 124.014 63.7578Z" fill="#D5E9FC"/>
<path d="M53.0688 91.3281C53.2352 91.55 53.4017 91.7719 53.5731 92.0006C53.0688 92.3368 53.0688 92.3368 52.7326 92.3368C52.6771 92.1149 52.6216 91.893 52.5645 91.6644C52.7309 91.5534 52.8973 91.4424 53.0688 91.3281Z" fill="#D6E5F8"/>
<path d="M73.7461 80.2344C74.491 80.4375 74.9197 80.6575 75.4272 81.2431C74.8606 81.2431 74.7435 81.1593 74.303 80.8333C74.1983 80.7572 74.0936 80.6812 73.9858 80.6028C73.9067 80.5367 73.8276 80.4706 73.7461 80.4025C73.7461 80.347 73.7461 80.2915 73.7461 80.2344Z" fill="#FAC130"/>
<path d="M127.544 134.199C127.599 134.421 127.655 134.643 127.712 134.872C127.379 135.038 127.379 135.038 127.039 135.208C126.928 135.097 126.817 134.986 126.703 134.872C126.981 134.65 127.258 134.428 127.544 134.199Z" fill="#5690DF"/>
    <path d="M91.9381 7.85199C91.5771 3.72562 94.6317 0.0583218 98.7735 0.00751694C106.347 -0.0853857 113.907 0.682537 121.308 2.29647C125.355 3.17907 127.61 7.38566 126.426 11.3552C125.243 15.3247 121.069 17.5485 117.011 16.7196C111.44 15.5816 105.769 15.0056 100.082 15C95.9403 14.996 92.2991 11.9784 91.9381 7.85199Z" fill="#5EACF8">
        <animateTransform attributeName="transform" type="rotate" from="0 100 100" to="360 100 100" dur="1s"
                          repeatCount="indefinite"></animateTransform>
    </path>
    <path d="M137.623 15.497C139.308 11.713 143.757 9.98641 147.405 11.95C154.074 15.5406 160.314 19.8774 166.004 24.8768C169.116 27.6107 169.048 32.3831 166.089 35.2812C163.129 38.1793 158.401 38.1009 155.253 35.4083C150.932 31.7122 146.251 28.4588 141.281 25.6973C137.66 23.6857 135.938 19.2811 137.623 15.497Z" fill="#007BE0">
        <animateTransform attributeName="transform" type="rotate" from="0 100 100" to="360 100 100" dur="1s"
                          repeatCount="indefinite"></animateTransform>
    </path>
    <path d="M170.859 40.5422C174.032 37.8797 178.788 38.2783 181.206 41.642C188.924 52.3825 194.451 64.5692 197.437 77.5049C200.423 90.4407 200.799 103.817 198.57 116.854C197.871 120.937 193.771 123.38 189.752 122.378C185.733 121.376 183.322 117.307 183.966 113.216C185.655 102.486 185.275 91.5077 182.821 80.8792C180.368 70.2506 175.897 60.2171 169.675 51.3136C167.303 47.9182 167.686 43.2047 170.859 40.5422Z" fill="#0055B8">
        <animateTransform attributeName="transform" type="rotate" from="0 100 100" to="360 100 100" dur="1s"
                          repeatCount="indefinite"></animateTransform>
    </path>
</g>
    <defs>
        <clipPath id="clip0_5942_81374">
            <rect width="200" height="200" fill="white"/>
        </clipPath>
    </defs>
</svg>