<svg width="24" height="24" viewBox="0 0 24 24" fill="none" xmlns="http://www.w3.org/2000/svg">
<path fill-rule="evenodd" clip-rule="evenodd" d="M6 2C3.79086 2 2 3.79086 2 6V18C2 20.2091 3.79086 22 6 22H18C20.2091 22 22 20.2091 22 18V6C22 3.79086 20.2091 2 18 2H6ZM4.85692 4.10715C5.27114 4.10714 5.60693 4.44292 5.60693 4.85714L5.60706 13.2108L8.74503 10.4817C9.03659 10.2281 9.47308 10.2376 9.7534 10.5035L13.2526 13.8233L17.3955 9.89285H16.2642C15.85 9.89285 15.5142 9.55707 15.5142 9.14285C15.5142 8.72864 15.85 8.39285 16.2642 8.39285H19.2758C19.69 8.39285 20.0258 8.72864 20.0258 9.14285V12C20.0258 12.4142 19.69 12.75 19.2758 12.75C18.8615 12.75 18.5258 12.4142 18.5258 12V10.8882L13.7688 15.4012C13.4794 15.6758 13.0258 15.6758 12.7364 15.4012L9.21528 12.0606L5.60709 15.1987L5.60711 17C5.60711 17.2651 5.71774 17.5278 5.92869 17.728C6.14097 17.9294 6.43694 18.0489 6.75328 18.0489H19.778C20.1922 18.0489 20.528 18.3847 20.528 18.7989C20.528 19.2132 20.1922 19.5489 19.778 19.5489H6.75328C6.06384 19.5489 5.39521 19.2895 4.89629 18.8161C4.39603 18.3415 4.10711 17.6891 4.10711 17L4.10708 14.8724C4.10688 14.8624 4.10688 14.8525 4.10708 14.8425L4.10693 4.85716C4.10693 4.44294 4.44271 4.10715 4.85692 4.10715Z" fill="#0055B8"/>
</svg>
