<svg width="24" height="24" viewBox="0 0 24 24" fill="none" xmlns="http://www.w3.org/2000/svg">
<path fill-rule="evenodd" clip-rule="evenodd" d="M6.53481 2H5.90111C5.3969 2 4.91335 2.19754 4.55682 2.54916C4.20029 2.90078 4 3.37768 4 3.87495V18.8746C4 19.3718 4.20029 19.8487 4.55682 20.2004C4.91335 20.552 5.3969 20.7495 5.90111 20.7495H10.3408C10.3497 20.607 10.3725 20.462 10.4093 20.3158L10.8845 18.4433C11.062 17.7407 11.43 17.0991 11.9492 16.5871L18.0707 10.5498C18.3973 10.2269 18.7837 9.96895 19.2089 9.7898V3.87495C19.2089 3.37768 19.0086 2.90078 18.652 2.54916C18.2955 2.19754 17.812 2 17.3078 2H16.6741H12.2381H6.53481ZM13.5055 5H7.16851C7.00044 5 6.83926 5.06585 6.72042 5.18305C6.60158 5.30026 6.53481 5.45923 6.53481 5.62498C6.53481 5.79074 6.60158 5.94971 6.72042 6.06691C6.83926 6.18412 7.00044 6.24997 7.16851 6.24997H13.5055C13.6736 6.24997 13.8348 6.18412 13.9536 6.06691C14.0725 5.94971 14.1392 5.79074 14.1392 5.62498C14.1392 5.45923 14.0725 5.30026 13.9536 5.18305C13.8348 5.06585 13.6736 5 13.5055 5ZM13.9536 9.81682C14.0725 9.69961 14.1392 9.54064 14.1392 9.37489C14.1392 9.20913 14.0725 9.05016 13.9536 8.93296C13.8348 8.81575 13.6736 8.7499 13.5055 8.7499H7.16851C7.00044 8.7499 6.83926 8.81575 6.72042 8.93296C6.60158 9.05016 6.53481 9.20913 6.53481 9.37489C6.53481 9.54064 6.60158 9.69961 6.72042 9.81682C6.83926 9.93402 7.00044 9.99987 7.16851 9.99987H13.5055C13.6736 9.99987 13.8348 9.93402 13.9536 9.81682ZM9.70332 12.4998H7.16851C7.00044 12.4998 6.83926 12.5657 6.72042 12.6829C6.60158 12.8001 6.53481 12.959 6.53481 13.1248C6.53481 13.2905 6.60158 13.4495 6.72042 13.5667C6.83926 13.6839 7.00044 13.7498 7.16851 13.7498H9.70332C9.87139 13.7498 10.0326 13.6839 10.1514 13.5667C10.2703 13.4495 10.337 13.2905 10.337 13.1248C10.337 12.959 10.2703 12.8001 10.1514 12.6829C10.0326 12.5657 9.87139 12.4998 9.70332 12.4998Z" fill="#0055B8"/>
<path fill-rule="evenodd" clip-rule="evenodd" d="M12.8465 17.4721L18.9681 11.4348H18.9668C19.4123 11.0019 20.0133 10.7603 20.6387 10.7626C21.2641 10.7649 21.8632 11.0108 22.3055 11.4469C22.7478 11.8829 22.9974 12.4737 23 13.0905C23.0025 13.7073 22.7578 14.3001 22.3191 14.7397L16.1975 20.777C15.841 21.129 15.3941 21.3788 14.9048 21.4995L13.0062 21.967C12.8174 22.0134 12.6197 22.0108 12.4322 21.9596C12.2447 21.9083 12.0738 21.8101 11.9362 21.6745C11.7985 21.5389 11.6988 21.3705 11.6467 21.1856C11.5945 21.0008 11.5918 20.8057 11.6387 20.6195L12.1139 18.7471C12.2365 18.2645 12.4897 17.8238 12.8465 17.4721Z" fill="#0055B8"/>
</svg>
