<svg width="52" height="52" viewBox="0 0 52 52" fill="none" xmlns="http://www.w3.org/2000/svg">
<rect width="52" height="52" rx="26" fill="#F6EEFF"/>
<path opacity="0.5" d="M12 10.9387C13.5067 10.9387 14.7288 12.2547 14.7288 13.8773C14.7288 12.2547 15.9508 10.9387 17.4575 10.9387C15.9508 10.9387 14.7288 9.62257 14.7288 8C14.7288 9.62257 13.5067 10.9387 12 10.9387Z" fill="#D4ABFF"/>
<path opacity="0.5" d="M39 35C40.1043 35 41 35.8957 41 37C41 35.8957 41.8957 35 43 35C41.8957 35 41 34.1043 41 33C41 34.1043 40.1043 35 39 35Z" fill="#D4ABFF"/>
<path opacity="0.5" d="M8 42.5C9.93103 42.5 11.5 44.069 11.5 46C11.5 44.069 13.069 42.5 15 42.5C13.069 42.5 11.5 40.931 11.5 39C11.5 40.931 9.93103 42.5 8 42.5Z" fill="#D4ABFF"/>
<path opacity="0.5" d="M38 12.6179C40.5478 12.6179 42.6179 14.688 42.6179 17.2358C42.6179 14.688 44.688 12.6179 47.2358 12.6179C44.688 12.6179 42.6179 10.5478 42.6179 8C42.6179 10.5478 40.5478 12.6179 38 12.6179Z" fill="#D4ABFF"/>
<path d="M16.5312 20C15.8599 20 15.2161 20.2739 14.7414 20.7615C14.2667 21.2491 14 21.9104 14 22.6V36.4667C14 37.1562 14.2667 37.8175 14.7414 38.3051C15.2161 38.7927 15.8599 39.0667 16.5312 39.0667H23.2812C23.9526 39.0667 24.5964 38.7927 25.0711 38.3051C25.5458 37.8175 25.8125 37.1562 25.8125 36.4667V22.6C25.8125 21.9104 25.5458 21.2491 25.0711 20.7615C24.5964 20.2739 23.9526 20 23.2812 20H16.5312ZM18.2188 34.7333C18.2188 34.5035 18.3076 34.283 18.4659 34.1205C18.6241 33.958 18.8387 33.8667 19.0625 33.8667H20.75C20.9738 33.8667 21.1884 33.958 21.3466 34.1205C21.5049 34.283 21.5938 34.5035 21.5938 34.7333C21.5938 34.9632 21.5049 35.1836 21.3466 35.3462C21.1884 35.5087 20.9738 35.6 20.75 35.6H19.0625C18.8387 35.6 18.6241 35.5087 18.4659 35.3462C18.3076 35.1836 18.2188 34.9632 18.2188 34.7333Z" fill="#A958FF"/>
<path fill-rule="evenodd" clip-rule="evenodd" d="M21.1458 13H35.5903C36.1796 13 36.7449 13.2391 37.1616 13.6646C37.5784 14.0901 37.8125 14.6673 37.8125 15.2691V32.5C37.8125 33.0523 37.3648 33.5 36.8125 33.5H27.8125V21.1364C27.8125 20.3045 27.4964 19.5068 26.9338 18.9186C26.3712 18.3304 25.6081 18 24.8125 18H17.8125V16.4036C17.8125 13.9065 19.8058 13 21.1458 13ZM27.8079 38.0382H36.678C37.3045 38.0382 37.8125 37.5302 37.8125 36.9036C37.8125 36.277 37.3045 35.7691 36.678 35.7691H27.8125V37.8636C27.8125 37.922 27.8109 37.9802 27.8079 38.0382ZM34.7948 22.6282C35.1251 22.8702 35.5903 22.6343 35.5903 22.2249V16.2691C35.5903 15.7168 35.1426 15.2691 34.5903 15.2691H32.1458C31.5935 15.2691 31.1458 15.7168 31.1458 16.2691V22.1687C31.1458 22.5883 31.6315 22.8213 31.9587 22.5587L33.0876 21.653C33.1935 21.5681 33.3431 21.5648 33.4526 21.645L34.7948 22.6282Z" fill="#A958FF"/>
</svg>
