<svg width="52" height="52" viewBox="0 0 52 52" fill="none" xmlns="http://www.w3.org/2000/svg">
<rect width="52" height="52" rx="26" fill="#E3FCE5"/>
<path opacity="0.3" d="M11 15.9387C12.5067 15.9387 13.7288 17.2547 13.7288 18.8773C13.7288 17.2547 14.9508 15.9387 16.4575 15.9387C14.9508 15.9387 13.7288 14.6226 13.7288 13C13.7288 14.6226 12.5067 15.9387 11 15.9387Z" fill="#09B95A"/>
<path opacity="0.3" d="M30 43.9387C31.5067 43.9387 32.7288 45.2547 32.7288 46.8773C32.7288 45.2547 33.9508 43.9387 35.4575 43.9387C33.9508 43.9387 32.7288 42.6226 32.7288 41C32.7288 42.6226 31.5067 43.9387 30 43.9387Z" fill="#09B95A"/>
<path opacity="0.3" d="M4 24.6179C6.5478 24.6179 8.61789 26.688 8.61789 29.2358C8.61789 26.688 10.688 24.6179 13.2358 24.6179C10.688 24.6179 8.61789 22.5478 8.61789 20C8.61789 22.5478 6.5478 24.6179 4 24.6179Z" fill="#09B95A"/>
<path opacity="0.3" d="M37 18.6179C39.5478 18.6179 41.6179 20.688 41.6179 23.2358C41.6179 20.688 43.688 18.6179 46.2358 18.6179C43.688 18.6179 41.6179 16.5478 41.6179 14C41.6179 16.5478 39.5478 18.6179 37 18.6179Z" fill="#09B95A"/>
<path fill-rule="evenodd" clip-rule="evenodd" d="M31.1998 18.8C31.1998 21.282 29.316 23.324 26.9002 23.5742V26.1001H34.9506C36.1381 26.1001 37.1006 27.0626 37.1006 28.2501V29.6001H39.1502C40.0615 29.6001 40.8002 30.3388 40.8002 31.2501V36.3501C40.8002 37.2613 40.0615 38.0001 39.1502 38.0001H34.0502C33.1389 38.0001 32.4002 37.2613 32.4002 36.3501V31.2501C32.4002 30.3388 33.1389 29.6001 34.0502 29.6001H36.1006V28.2501C36.1006 27.6149 35.5858 27.1001 34.9506 27.1001H26.9002V29.6001H28.9506C29.8619 29.6001 30.6006 30.3388 30.6006 31.2501V36.3501C30.6006 37.2613 29.8619 38.0001 28.9506 38.0001H23.8506C22.9394 38.0001 22.2006 37.2613 22.2006 36.3501V31.2501C22.2006 30.3388 22.9394 29.6001 23.8506 29.6001H25.9002V27.1001H17.8506C17.2155 27.1001 16.7006 27.6149 16.7006 28.2501V29.6001H18.75C19.6613 29.6001 20.4 30.3388 20.4 31.2501V36.3501C20.4 37.2613 19.6613 38.0001 18.75 38.0001H13.65C12.7387 38.0001 12 37.2613 12 36.3501V31.2501C12 30.3388 12.7387 29.6001 13.65 29.6001H15.7006V28.2501C15.7006 27.0626 16.6632 26.1001 17.8506 26.1001H25.9002V23.5743C23.484 23.3245 21.5998 21.2823 21.5998 18.8C21.5998 16.149 23.7488 14 26.3998 14C29.0508 14 31.1998 16.149 31.1998 18.8Z" fill="#019859"/>
</svg>
