<svg width="80" height="80" viewBox="0 0 80 80" fill="none" xmlns="http://www.w3.org/2000/svg">
<g clip-path="url(#clip0_908_52378)">
<circle cx="13" cy="60" r="67" fill="#D6EBFF"/>
<path d="M32.8906 7.5625V25.6406C32.8906 26.0094 32.7441 26.3632 32.4833 26.6239C32.2225 26.8847 31.8688 27.0312 31.5 27.0312C31.1312 27.0312 30.7775 26.8847 30.5167 26.6239C30.2559 26.3632 30.1094 26.0094 30.1094 25.6406V7.5625H32.8906Z" fill="#002E6D"/>
<path d="M45.4062 77.875V52.8438H70.4375V80.6562H49.5781L45.4062 77.875Z" fill="#F5F7F9"/>
<path d="M70.4375 76.4844H45.4062V80.6562H70.4375V76.4844Z" fill="#FFCE00"/>
<path d="M17.5938 77.875V52.8438H-7.4375V80.6562H13.4219" fill="#F5F7F9"/>
<path d="M17.5938 76.4844H-7.4375V80.6562H17.5938V76.4844Z" fill="#FFCE00"/>
<path d="M74.6094 52.8438H-11.6094C-8.45266 47.2812 -10.6777 51.2028 -0.484375 33.375H63.4844C73.7889 51.4531 71.5083 47.3925 74.6094 52.8438Z" fill="#0055B8"/>
<path d="M74.6094 52.8438H-11.6094L-9.23141 48.6719H72.2314L74.6094 52.8438Z" fill="#002E6D"/>
<path d="M45.4062 38.1948V80.8719H17.5938V38.1948L31.5 26.4219L45.4062 38.1948Z" fill="white"/>
<path d="M45.4062 37.5469V43.1094C44.3772 43.1094 46.1572 44.4166 31.5 31.5116C16.8567 44.4027 18.6228 43.1094 17.5938 43.1094V37.5469L31.5 26.4219L45.4062 37.5469Z" fill="#DFE3EA"/>
<path d="M53.75 40.3281H45.7261L31.5 27.8125L17.2739 40.3281H9.25L31.5 20.8594L53.75 40.3281Z" fill="#0055B8"/>
<path d="M38.4531 66.75H24.5469V80.88H38.4531V66.75Z" fill="#FFCE00"/>
<path d="M32.8906 66.75H30.1094V80.88H32.8906V66.75Z" fill="#FFCE00"/>
<path d="M64.875 61.1875H50.9688V68.1406H64.875V61.1875Z" fill="#86BEFF"/>
<path d="M59.3125 61.1875H56.5312V68.1406H59.3125V61.1875Z" fill="#BDDCFF"/>
<path d="M12.0312 61.1875H-1.875V68.1406H12.0312V61.1875Z" fill="#86BEFF"/>
<path d="M6.46875 61.1875H3.6875V68.1406H6.46875V61.1875Z" fill="#BDDCFF"/>
<path d="M31.5 52.8438C34.5721 52.8438 37.0625 50.3533 37.0625 47.2812C37.0625 44.2092 34.5721 41.7188 31.5 41.7188C28.4279 41.7188 25.9375 44.2092 25.9375 47.2812C25.9375 50.3533 28.4279 52.8438 31.5 52.8438Z" fill="#FFCE00"/>
<path d="M31.4998 52.8438C30.6512 52.8431 29.814 52.6483 29.0523 52.2743C28.2905 51.9003 27.6245 51.357 27.1051 50.6859C26.5857 50.0149 26.2267 49.2339 26.0556 48.4027C25.8845 47.5716 25.9059 46.7123 26.118 45.8906C26.4292 47.081 27.1262 48.1346 28.1 48.8866C29.0738 49.6386 30.2694 50.0465 31.4998 50.0465C32.7301 50.0465 33.9258 49.6386 34.8996 48.8866C35.8734 48.1346 36.5704 47.081 36.8815 45.8906C37.0936 46.7123 37.115 47.5716 36.9439 48.4027C36.7728 49.2339 36.4138 50.0149 35.8944 50.6859C35.375 51.357 34.709 51.9003 33.9473 52.2743C33.1855 52.6483 32.3483 52.8431 31.4998 52.8438Z" fill="#FFCE00"/>
<path d="M42.625 7.5625H30.1094V15.9062H42.625V7.5625Z" fill="#FFCE00"/>
</g>
<defs>
<clipPath id="clip0_908_52378">
<rect width="80" height="80" fill="white"/>
</clipPath>
</defs>
</svg>
