<svg width="106" height="57" viewBox="0 0 106 57" fill="none" xmlns="http://www.w3.org/2000/svg">
<path d="M42.2397 42.1176C40.0083 42.1176 37.7768 41.6148 35.671 40.6405C31.931 38.8804 29.1024 35.8004 27.7195 31.9032C26.7766 29.2946 26.5566 26.4974 27.0909 23.7945C27.2795 22.8516 28.1909 22.223 29.1338 22.4116C30.0767 22.6002 30.7052 23.5116 30.5167 24.4545C30.1081 26.5602 30.2967 28.7288 31.0196 30.7403C32.0881 33.7261 34.2882 36.1461 37.1797 37.4976C40.0711 38.849 43.3083 39.0062 46.3255 37.9376C47.7713 37.4347 49.0599 36.649 50.1913 35.6432C51.1342 34.8261 51.9199 33.8518 52.5485 32.7832C53.3342 31.4317 53.8685 29.9546 54.0885 28.4145C54.3714 26.4659 54.1828 24.4859 53.5228 22.6316C52.6114 20.0858 50.9142 17.9801 48.6199 16.5658C47.8027 16.0629 47.5513 14.9943 48.0541 14.1772C48.557 13.36 49.6256 13.1086 50.4427 13.6114C53.3971 15.4658 55.5971 18.1687 56.7914 21.4687C57.64 23.8573 57.9229 26.4345 57.5457 28.9488C57.2628 30.9289 56.5714 32.8146 55.5657 34.5747C54.7485 35.9575 53.7113 37.2147 52.517 38.2519C51.0399 39.5405 49.3742 40.5462 47.5198 41.2376C45.7598 41.8033 43.9998 42.1176 42.2397 42.1176Z" fill="#24C11B"/>
<path d="M42.2461 15.0869C43.2876 15.0869 44.1318 14.2426 44.1318 13.2012C44.1318 12.1597 43.2876 11.3154 42.2461 11.3154C41.2046 11.3154 40.3604 12.1597 40.3604 13.2012C40.3604 14.2426 41.2046 15.0869 42.2461 15.0869Z" fill="#24C11B"/>
<path d="M35.236 16.5014C35.9651 16.5014 36.5561 15.9104 36.5561 15.1814C36.5561 14.4523 35.9651 13.8613 35.236 13.8613C34.507 13.8613 33.916 14.4523 33.916 15.1814C33.916 15.9104 34.507 16.5014 35.236 16.5014Z" fill="#24C11B"/>
<path d="M30.4619 20.0831C30.8438 20.0831 31.1534 19.7735 31.1534 19.3916C31.1534 19.0098 30.8438 18.7002 30.4619 18.7002C30.0801 18.7002 29.7705 19.0098 29.7705 19.3916C29.7705 19.7735 30.0801 20.0831 30.4619 20.0831Z" fill="#24C11B"/>
<path d="M40.8632 32.654C40.5489 32.6226 40.266 32.4969 40.0146 32.2769L34.7659 27.8768C34.0745 27.2796 33.9802 26.2111 34.5774 25.5196C35.1745 24.7968 36.2431 24.7339 36.9345 25.331L40.9261 28.694L47.4005 21.371C47.9976 20.6795 49.0662 20.6167 49.7576 21.2138C50.4491 21.811 50.5119 22.8796 49.9148 23.571L42.3718 32.0883C41.9632 32.5283 41.3975 32.7169 40.8632 32.654Z" fill="#0055B8"/>
<path d="M13.1201 42.1468C6.96003 42.1468 0.265625 40.2297 0.265625 35.3267C0.265625 33.0324 1.96278 31.9324 3.94282 31.9324C6.89715 31.9324 9.72577 34.3524 14.0316 34.3524C15.603 34.3524 16.2002 33.7553 16.2002 32.9067C16.2002 29.1038 0.485613 32.8438 0.485613 21.0579C0.485613 15.7464 5.38856 11.4092 13.5287 11.4092C19.3745 11.4092 24.466 13.9549 24.466 17.695C24.466 19.8008 22.8946 21.1836 20.9145 21.1836C18.0231 21.1836 15.8545 19.2665 12.2087 19.2665C10.7001 19.2665 9.97723 19.7379 9.97723 20.9008C9.97723 24.7666 25.6918 21.6865 25.6918 32.6238C25.6918 37.4953 21.7631 42.1468 13.1201 42.1468Z" fill="#0055B8"/>
<path d="M90.7804 16.9093V36.6468C90.7804 39.5382 88.8004 41.5497 85.8775 41.5497C83.8346 41.5497 82.2003 40.5125 81.4774 38.9411C79.5916 40.9211 77.0145 42.1468 73.6201 42.1468C66.2657 42.1468 59.917 36.1125 59.917 26.8094C59.917 17.9464 65.7 11.4092 73.6201 11.4092C77.0773 11.4092 79.6545 12.5092 81.5402 14.4264C82.3888 12.9178 83.8974 12.0063 85.8775 12.0063C88.8004 12.0063 90.7804 14.0178 90.7804 16.9093ZM81.006 26.8094C81.006 23.258 78.5859 20.5236 75.3173 20.5236C72.0486 20.5236 69.6286 23.2265 69.6286 26.8094C69.6286 30.2981 72.0486 33.0324 75.3173 33.0324C78.5859 33.0324 81.006 30.3295 81.006 26.8094Z" fill="#0055B8"/>
<path d="M100.867 0C103.759 0 105.77 1.98003 105.77 4.90294V37.2749C105.77 40.1664 103.79 42.1779 100.93 42.1779C98.0388 42.1779 96.0273 40.1978 96.0273 37.2749V4.90294C96.0273 1.98003 98.0074 0 100.867 0Z" fill="#0055B8"/>
<path d="M18.4919 53.8387C18.3033 53.8387 18.209 53.7759 18.0833 53.5873L16.2918 51.1358H15.1289V53.493C15.1289 53.6816 14.9718 53.8387 14.7832 53.8387C14.5946 53.8387 14.4375 53.6816 14.4375 53.493V45.9815C14.4375 45.7929 14.5946 45.6357 14.7832 45.6357C14.9718 45.6357 15.1289 45.7929 15.1289 45.9815V50.5387H16.2918L18.0518 48.3701C18.1461 48.2129 18.2718 48.1186 18.429 48.1186C18.7118 48.1186 18.8376 48.4015 18.6804 48.6215L16.889 50.8215L18.7433 53.3359C18.9318 53.5873 18.7747 53.8387 18.4919 53.8387Z" fill="#002E6D"/>
<path d="M24.8066 50.6951C24.8066 50.978 24.6494 51.1665 24.3351 51.1665H20.0294C20.1236 52.3923 21.0036 53.3351 22.2608 53.3351C23.4237 53.3351 23.8008 52.738 24.0837 52.738C24.2408 52.738 24.3665 52.8323 24.3665 52.9894C24.3665 53.3666 23.4865 53.9637 22.2608 53.9637C20.5322 53.9637 19.3379 52.6123 19.3379 50.978C19.3379 49.3436 20.5008 47.9922 22.1351 47.9922C23.8008 47.9922 24.8066 49.3751 24.8066 50.6951ZM20.0294 50.6322H24.1151C23.9894 49.3751 23.1723 48.5893 22.1037 48.5893C20.9722 48.5893 20.1551 49.4694 20.0294 50.6322Z" fill="#002E6D"/>
<path d="M26.3145 45.6035C26.5031 45.6035 26.6602 45.7607 26.6602 45.9492V53.4608C26.6602 53.6494 26.5031 53.8065 26.3145 53.8065C26.1259 53.8065 25.9688 53.6494 25.9688 53.4608V45.9492C25.9688 45.7607 26.0945 45.6035 26.3145 45.6035Z" fill="#002E6D"/>
<path d="M33.6371 48.4335V53.4622C33.6371 53.6508 33.4799 53.8079 33.2914 53.8079C33.0714 53.8079 32.9457 53.6508 32.9457 53.4622V52.645C32.4742 53.3993 31.7199 53.9022 30.7142 53.9022C29.1427 53.9022 27.917 52.5822 27.917 50.9164C27.917 49.2507 29.0799 47.9307 30.7142 47.9307C31.6885 47.9307 32.4742 48.4335 32.9457 49.1878V48.4021C32.9457 48.2135 33.1028 48.0564 33.2914 48.0564C33.5114 48.1192 33.6371 48.245 33.6371 48.4335ZM32.9457 50.9479C32.9457 49.6593 32.0656 48.6535 30.8085 48.6535C29.5513 48.6535 28.6398 49.6907 28.6398 50.9479C28.6398 52.2365 29.5513 53.305 30.8085 53.305C32.0656 53.305 32.9457 52.2365 32.9457 50.9479Z" fill="#002E6D"/>
<path d="M37.0322 53.9334C35.7751 53.9334 34.8008 53.242 34.8008 52.8334C34.8008 52.6449 34.9265 52.5506 35.0836 52.5506C35.3979 52.5506 35.7751 53.3049 37.0951 53.3049C37.9437 53.3049 38.4151 52.8963 38.4151 52.2991C38.4151 50.7591 34.9893 51.5134 34.9893 49.4705C34.9893 48.5905 35.7437 47.9619 37.0008 47.9619C38.038 47.9619 38.8866 48.4648 38.8866 48.8105C38.8866 48.9676 38.7608 49.0619 38.6037 49.0619C38.2894 49.0619 37.9122 48.5591 36.9379 48.5591C36.1522 48.5591 35.6808 48.9362 35.6808 49.4391C35.6808 50.8534 39.1066 50.162 39.1066 52.2677C39.1066 53.2734 38.3523 53.9334 37.0322 53.9334Z" fill="#002E6D"/>
<path d="M47.0264 46.6099C47.0264 47.05 47.3721 47.3957 47.8121 47.3957C48.2521 47.3957 48.5978 47.05 48.5978 46.6099C48.5978 46.1699 48.2521 45.8242 47.8121 45.8242C47.3721 45.8242 47.0264 46.2014 47.0264 46.6099Z" fill="#FFD600"/>
<path d="M46.2454 50.9479C46.2454 52.7079 45.0197 53.9336 43.5425 53.9336C42.7882 53.9336 42.2225 53.6508 41.8139 53.1479V55.5051C41.8139 55.9451 41.5311 56.2279 41.091 56.2279C40.651 56.2279 40.3682 55.9137 40.3682 55.5051V48.7792C40.3682 48.3392 40.651 48.0564 41.091 48.0564C41.4682 48.0564 41.751 48.3078 41.8139 48.685C42.2225 48.2135 42.7882 47.9307 43.5425 47.9307C45.0825 47.9621 46.2454 49.2507 46.2454 50.9479ZM44.7997 50.9793C44.7997 50.0678 44.1711 49.3135 43.2911 49.3135C42.4425 49.3135 41.7825 50.0364 41.7825 50.9793C41.7825 51.8907 42.4111 52.6136 43.2911 52.6136C44.1711 52.5822 44.7997 51.8593 44.7997 50.9793Z" fill="#002E6D"/>
<path d="M47.8176 53.807C47.3776 53.807 47.0947 53.5241 47.0947 53.0841V48.8098C47.0947 48.3698 47.3776 48.0869 47.8176 48.0869C48.2576 48.0869 48.5405 48.3698 48.5405 48.8098V53.0841C48.5405 53.5241 48.2262 53.807 47.8176 53.807Z" fill="#002E6D"/>
<path d="M54.8214 50.3505V53.0849C54.8214 53.5249 54.5385 53.8077 54.0985 53.8077C53.6585 53.8077 53.3756 53.5249 53.3756 53.0849V50.5705C53.3756 49.8162 52.9356 49.3134 52.2442 49.3134C51.5213 49.3134 51.1127 49.7848 51.1127 50.5705V53.0849C51.1127 53.5249 50.8299 53.8077 50.3899 53.8077C49.9499 53.8077 49.667 53.5249 49.667 53.0849V48.8105C49.667 48.3705 49.9499 48.0876 50.3899 48.0876C50.7985 48.0876 51.0499 48.3391 51.1127 48.6848C51.4584 48.2133 52.0242 47.9619 52.7156 47.9619C53.9728 47.9619 54.8214 48.8734 54.8214 50.3505Z" fill="#002E6D"/>
<path d="M59.1302 52.3925C59.5073 52.3925 59.7273 52.6439 59.7273 52.9268C59.7273 53.4611 59.1302 53.9011 58.2187 53.9011C57.0559 53.9011 56.3015 53.1782 56.3015 51.7954V49.3439H55.7673C55.3901 49.3439 55.1387 49.0925 55.1387 48.6839C55.1387 48.3067 55.3901 48.0553 55.7673 48.0553H56.3015V47.301C56.3015 46.861 56.5844 46.5781 57.0244 46.5781C57.4644 46.5781 57.7473 46.861 57.7473 47.301V48.0553H58.8159C59.193 48.0553 59.4444 48.3067 59.4444 48.6839C59.4444 49.061 59.193 49.3125 58.8159 49.3125H57.7787V51.9211C57.7787 52.3611 57.9673 52.4868 58.2816 52.4868C58.5644 52.5811 58.8473 52.3925 59.1302 52.3925Z" fill="#002E6D"/>
<path d="M65.6975 48.8105V53.0849C65.6975 53.5249 65.4147 53.8077 64.9747 53.8077C64.5661 53.8077 64.2518 53.5249 64.2518 53.1477C63.8432 53.6192 63.2775 53.9334 62.5232 53.9334C61.0146 53.9334 59.8203 52.7077 59.8203 50.9477C59.8203 49.2505 60.9518 47.9619 62.5232 47.9619C63.2775 47.9619 63.8432 48.2448 64.2518 48.7162C64.3147 48.3391 64.5975 48.0876 64.9747 48.0876C65.3833 48.0876 65.6975 48.3705 65.6975 48.8105ZM64.2204 50.9477C64.2204 50.0362 63.5918 49.3134 62.7432 49.3134C61.8632 49.3134 61.2346 50.0362 61.2346 50.9477C61.2346 51.8591 61.8632 52.582 62.7432 52.582C63.6232 52.582 64.2204 51.8591 64.2204 50.9477Z" fill="#002E6D"/>
<path d="M70.6605 48.7462C70.6605 49.1862 70.3777 49.4376 69.9377 49.4376C69.7177 49.4376 69.4662 49.3748 69.1205 49.3748C68.5862 49.3748 68.2719 49.7519 68.2719 50.3805V53.1148C68.2719 53.5548 67.9891 53.8377 67.5491 53.8377C67.109 53.8377 66.8262 53.5548 66.8262 53.1148V48.8405C66.8262 48.4005 67.109 48.1176 67.5491 48.1176C67.9576 48.1176 68.2405 48.369 68.2719 48.7462C68.5862 48.3062 69.0577 47.9919 69.6863 47.9919C70.1577 47.9604 70.6605 48.2119 70.6605 48.7462Z" fill="#002E6D"/>
<path d="M3.2781 49.8149V53.5549C3.2781 53.7121 3.15238 53.8378 2.99523 53.8378C2.83809 53.8378 2.71236 53.7121 2.71236 53.5549V53.3664C2.49236 53.6807 2.11523 53.9007 1.67522 53.9007C0.858067 53.9007 0.229492 53.2406 0.229492 52.3292C0.229492 51.4492 0.826638 50.7892 1.67522 50.7892C2.11523 50.7892 2.49236 50.9778 2.71236 51.3235V49.8463C2.71236 49.6892 2.83809 49.5634 2.99523 49.5634C3.18381 49.532 3.2781 49.6577 3.2781 49.8149ZM2.74382 52.3292C2.74382 51.7635 2.33524 51.292 1.80095 51.292C1.23522 51.292 0.826615 51.7635 0.826615 52.3292C0.826615 52.8949 1.23522 53.3664 1.80095 53.3664C2.33524 53.3664 2.74382 52.8949 2.74382 52.3292Z" fill="#0055B8"/>
<path d="M7.14142 51.1043V53.5558C7.14142 53.7129 7.0157 53.8387 6.85855 53.8387C6.70141 53.8387 6.57568 53.7129 6.57568 53.5558V53.3672C6.35568 53.6815 5.97851 53.9015 5.53851 53.9015C4.72135 53.9015 4.09277 53.2415 4.09277 52.3301C4.09277 51.45 4.68992 50.79 5.53851 50.79C5.97851 50.79 6.35568 50.9786 6.57568 51.3243V51.1358C6.57568 50.9786 6.70141 50.8529 6.85855 50.8529C7.04713 50.8529 7.14142 50.9472 7.14142 51.1043ZM6.6071 52.3301C6.6071 51.7643 6.19852 51.2929 5.66423 51.2929C5.09851 51.2929 4.68993 51.7643 4.68993 52.3301C4.68993 52.8958 5.09851 53.3672 5.66423 53.3672C6.19852 53.3672 6.6071 52.8958 6.6071 52.3301Z" fill="#0055B8"/>
<path d="M9.971 51.1043C9.971 51.2615 9.8767 51.3558 9.71955 51.3558C9.62526 51.3558 9.49956 51.3243 9.34242 51.3243C8.9967 51.3243 8.77668 51.6072 8.77668 52.0472V53.5872C8.77668 53.7444 8.65095 53.8701 8.49381 53.8701C8.33666 53.8701 8.21094 53.7444 8.21094 53.5872V51.1358C8.21094 50.9786 8.33666 50.8529 8.49381 50.8529C8.65095 50.8529 8.77668 50.9786 8.77668 51.1358V51.23C8.93382 50.9786 9.18526 50.79 9.53098 50.79C9.71956 50.79 9.971 50.8843 9.971 51.1043Z" fill="#0055B8"/>
<path d="M11.2305 50.0039C11.2305 50.1925 11.0733 50.3496 10.8848 50.3496C10.6962 50.3496 10.5391 50.1925 10.5391 50.0039C10.5391 49.8154 10.6962 49.6582 10.8848 49.6582C11.1048 49.6582 11.2305 49.8154 11.2305 50.0039ZM10.9162 53.8383C10.7591 53.8383 10.6334 53.7126 10.6334 53.5554V51.1039C10.6334 50.9468 10.7591 50.8211 10.9162 50.8211C11.0734 50.8211 11.1991 50.9468 11.1991 51.1039V53.5554C11.1676 53.7126 11.0734 53.8383 10.9162 53.8383Z" fill="#0055B8"/>
</svg>
