<svg width="35" height="43" viewBox="0 0 35 43" fill="none" xmlns="http://www.w3.org/2000/svg">
<path d="M12.1637 22.8345C12.3992 22.8291 12.6237 22.8671 12.8318 22.9396C12.5726 22.9777 12.3116 22.9994 12.0396 22.9994C11.8443 22.9994 11.6508 22.9868 11.4609 22.9668C11.6617 22.8852 11.8826 22.8417 12.1144 22.8345H12.1637Z" fill="#0055B8"/>
<path d="M14.2909 17.2667C14.3292 17.428 14.3474 17.5948 14.3474 17.7651C14.3474 19.0321 13.3088 20.0635 12.0329 20.0635C10.7533 20.0635 9.71826 19.0321 9.71826 17.7651C9.71826 17.5948 9.73652 17.428 9.77485 17.2667C10.0012 16.2353 10.9248 15.4668 12.0329 15.4668C13.139 15.4668 14.0663 16.2353 14.2909 17.2667Z" fill="#0055B8"/>
<path d="M32.7954 3.87905C31.3807 2.47793 29.4987 1.70215 27.4963 1.70215H8.68751C4.52745 1.70215 1.1012 4.99378 1.05009 9.04307C1.02636 11.0695 1.80215 12.9709 3.24238 14.3992C3.75714 14.9104 4.33579 15.3381 4.95277 15.6753C4.95642 15.6789 4.95824 15.6807 4.96189 15.6807C4.99475 15.6952 5.02761 15.7133 5.06412 15.7315C5.31967 15.8565 5.60626 15.929 5.90744 15.929C6.56641 15.929 7.14506 15.601 7.48823 15.0989C7.49188 15.0989 7.49188 15.0952 7.49371 15.0934C7.52291 15.0481 7.55029 15.0046 7.57767 14.9593C7.58132 14.9539 7.58315 14.9448 7.59045 14.9375C7.73466 14.6711 7.81862 14.3612 7.81862 14.0349C7.81862 13.3171 7.41521 12.6863 6.81831 12.3673C6.81466 12.3673 6.81466 12.3673 6.81284 12.3637C6.49705 12.1933 6.20498 11.9812 5.94578 11.7202C5.23753 11.017 4.85602 10.0853 4.8688 9.09019C4.89618 7.10543 6.60657 5.49042 8.68933 5.49042H27.3959C28.378 5.49042 29.3381 5.83119 30.0445 6.50728C30.7729 7.20693 31.1726 8.13678 31.1726 9.13732V9.18807C31.1452 11.1855 29.4111 12.8114 27.3101 12.7897C24.3366 12.7588 21.9362 15.2131 21.9362 18.1639V34.5296C21.9362 35.5701 21.5291 36.5452 20.7898 37.2775C20.0067 38.0551 18.9498 38.4647 17.84 38.4158C15.7262 38.3197 14.1016 36.5198 14.1016 34.4227V24.6928C14.1016 23.8735 13.5722 23.1884 12.8403 22.9382C12.6322 22.8657 12.4076 22.8277 12.1722 22.8331H12.1247C11.8929 22.8386 11.6738 22.8839 11.4712 22.9654C10.7758 23.2373 10.2847 23.9098 10.2847 24.6928V34.3574C10.2847 38.6025 13.6799 42.1769 17.955 42.2095C20.0469 42.2276 22.0165 41.4229 23.4877 39.9619C24.9499 38.5119 25.7567 36.5815 25.7567 34.5296V18.1639C25.7567 17.283 26.485 16.5834 27.374 16.5797C29.4476 16.5743 31.3351 15.7514 32.7114 14.4282C34.0969 13.0978 34.9658 11.2635 34.9932 9.2352C35.0169 7.21418 34.2393 5.31098 32.7954 3.87905Z" fill="#0055B8"/>
<path d="M14.3474 17.7651C14.3474 19.0321 13.3088 20.0635 12.0329 20.0635C10.7533 20.0635 9.71826 19.0321 9.71826 17.7651C9.71826 17.5948 9.73652 17.428 9.77485 17.2667C10.0012 16.2353 10.9248 15.4668 12.0329 15.4668C13.1372 15.4668 14.0645 16.2353 14.2909 17.2667C14.3292 17.4262 14.3474 17.5948 14.3474 17.7651Z" fill="#0055B8"/>
<path d="M16.7856 9.72567C16.7382 9.70211 16.698 9.68398 16.6652 9.66948C15.1574 9.02602 13.6496 8.38799 12.14 7.7409C12.0415 7.69921 11.9557 7.71915 11.8626 7.75903C10.6195 8.2883 9.37639 8.81938 8.1333 9.34865C7.89235 9.45016 7.65505 9.55166 7.41592 9.65317C7.37394 9.67129 7.33195 9.69123 7.26807 9.72204C7.32465 9.75286 7.35569 9.76917 7.38854 9.78548C8.16433 10.1172 8.9383 10.4453 9.71226 10.7751V13.059C10.4114 12.7182 11.1963 12.5261 12.0268 12.5261C12.8574 12.5261 13.6441 12.7182 14.3414 13.0608V10.7679C14.67 10.6265 14.9949 10.4906 15.3235 10.3492C15.36 10.3347 15.3983 10.3184 15.4476 10.3021C15.4513 10.3401 15.4531 10.3709 15.4531 10.3999C15.4531 11.192 15.4531 11.9841 15.4568 12.7762C15.4568 12.8632 15.4239 12.9104 15.3491 12.9502C15.1446 13.0572 15.0059 13.2076 14.9402 13.3979C14.9018 13.494 14.8836 13.6009 14.8836 13.717C14.8799 14.1465 14.8799 14.5779 14.8799 15.0075C14.8799 15.1398 14.8836 15.1416 15.015 15.1416H16.4808C16.5319 15.1416 16.5648 15.1416 16.5867 15.1326C16.625 15.1199 16.625 15.0873 16.625 15.0003C16.625 14.5942 16.625 14.1864 16.6286 13.784C16.6286 13.4052 16.4808 13.1079 16.1358 12.9321C16.0628 12.894 16.0573 12.8397 16.0573 12.7708V10.5051C16.0573 10.4126 16.0537 10.1933 16.0518 10.0392C16.238 9.96493 16.5191 9.84167 16.6652 9.78005C16.6962 9.76736 16.7382 9.74923 16.7856 9.72567Z" fill="#0055B8"/>
<path d="M11.1383 21.1363C11.3738 21.1308 11.5983 21.1689 11.8064 21.2414C11.5472 21.2794 11.2862 21.3012 11.0142 21.3012C10.8189 21.3012 10.6254 21.2885 10.4355 21.2686C10.6363 21.187 10.8572 21.1435 11.089 21.1363H11.1383Z" fill="url(#paint0_linear_12277_668748)"/>
<path d="M13.3102 16.0707C13.3102 17.3377 12.2716 18.369 10.9956 18.369C10.7565 18.369 10.5247 18.3328 10.3074 18.2657C9.36372 17.9739 8.6792 17.1002 8.6792 16.0707C8.6792 15.8985 8.69745 15.7317 8.73761 15.5704C8.96396 14.539 9.88761 13.7705 10.9956 13.7705C11.4191 13.7705 11.817 13.8847 12.1584 14.0805C12.1584 14.0805 12.1602 14.0823 12.162 14.0823C12.7097 14.4013 13.1131 14.936 13.2518 15.5704C13.292 15.7317 13.3102 15.9003 13.3102 16.0707Z" fill="url(#paint1_linear_12277_668748)"/>
<path d="M31.7458 2.1769C31.1435 1.58056 30.4553 1.09479 29.7087 0.735904C28.7047 0.25376 27.5949 0 26.4467 0H7.63795C3.47606 0 0.0516383 3.29163 0.000527492 7.34092C-0.0232025 9.36737 0.754411 11.2688 2.19282 12.6971C2.70758 13.21 3.28623 13.636 3.90321 13.9749C3.90686 13.9786 3.90868 13.9804 3.91233 13.9804C3.94701 13.9949 3.97805 14.0148 4.01455 14.0311C4.1113 14.0782 4.21352 14.1199 4.32122 14.1507C4.49098 14.2015 4.67169 14.2287 4.85788 14.2287C5.51502 14.2287 6.0955 13.8988 6.43867 13.3967C6.44049 13.3967 6.44049 13.3931 6.44414 13.3895C6.47518 13.346 6.50256 13.2988 6.52994 13.2553C6.53176 13.2481 6.53541 13.2408 6.54271 13.2336C6.68692 12.969 6.77089 12.6572 6.77089 12.3309C6.77089 11.6131 6.36565 10.9824 5.7724 10.6634C5.76875 10.6634 5.76875 10.6634 5.7651 10.6597C5.44931 10.4894 5.15725 10.2773 4.89804 10.0163C4.19162 9.31481 3.81011 8.38133 3.82106 7.38623C3.84662 5.39965 5.55701 3.78646 7.6416 3.78646H26.3463C26.9944 3.78646 27.6314 3.93328 28.1936 4.22873C28.4839 4.37917 28.7558 4.57131 28.9968 4.8015C29.727 5.50116 30.1267 6.42919 30.1267 7.43154V7.4823C30.0993 9.47794 28.3652 11.1056 26.2642 11.0839C23.2906 11.0549 20.8903 13.5073 20.8903 16.46V32.8257C20.8903 33.8661 20.485 34.8413 19.7439 35.5717C18.9608 36.3511 17.9039 36.759 16.7941 36.7118C16.4053 36.6955 16.0311 36.6194 15.6806 36.4925C14.1363 35.9397 13.0557 34.428 13.0557 32.7169V22.987C13.0557 22.3399 12.7235 21.7762 12.2233 21.4445C12.2051 21.4319 12.1868 21.4192 12.1667 21.4083L12.1649 21.4065C12.0481 21.3358 11.9258 21.276 11.7944 21.2325C11.5863 21.1618 11.3599 21.1219 11.1263 21.1273H11.0788C10.847 21.1346 10.6261 21.1781 10.4253 21.2597C9.72984 21.5315 9.24064 22.204 9.24064 22.987V32.6517C9.24064 35.9324 11.2686 38.8126 14.1637 39.9654C15.0143 40.3043 15.9398 40.4947 16.9109 40.5037C19.0028 40.5219 20.9706 39.7189 22.4437 38.2561C23.9058 36.8061 24.7144 34.8757 24.7144 32.8239V16.4672C24.7144 15.5845 25.4428 14.8848 26.3299 14.883C28.4035 14.8758 30.291 14.0547 31.6673 12.7297C33.0528 11.3993 33.9217 9.56494 33.9491 7.53667C33.9655 5.51384 33.1897 3.60883 31.7458 2.1769Z" fill="url(#paint2_linear_12277_668748)"/>
<path d="M13.3102 16.0707C13.3102 17.3377 12.2716 18.369 10.9956 18.369C10.7565 18.369 10.5247 18.3328 10.3074 18.2657C9.36372 17.9739 8.6792 17.1002 8.6792 16.0707C8.6792 15.8985 8.69745 15.7317 8.73761 15.5704C8.96396 14.539 9.88761 13.7705 10.9956 13.7705C11.4191 13.7705 11.817 13.8847 12.1584 14.0805C12.1584 14.0805 12.1602 14.0823 12.162 14.0823C12.7097 14.4013 13.1131 14.936 13.2518 15.5704C13.292 15.7317 13.3102 15.9003 13.3102 16.0707Z" fill="url(#paint3_linear_12277_668748)"/>
<path d="M15.6483 8.08809C15.5023 8.15153 15.2212 8.27479 15.035 8.3491C15.0386 8.50317 15.0405 8.72249 15.0405 8.81494V11.0825C15.0405 11.1513 15.0478 11.2039 15.119 11.2438C15.4658 11.4196 15.6118 11.7169 15.6118 12.0975C15.6082 12.4999 15.6082 12.9059 15.6082 13.3137C15.6082 13.4007 15.6082 13.4334 15.5698 13.4442C15.5479 13.4551 15.5151 13.4551 15.464 13.4551H13.9982C13.8649 13.4551 13.8613 13.4515 13.8613 13.3192C13.8613 12.8896 13.8613 12.46 13.8649 12.0286C13.8649 11.9108 13.8832 11.8039 13.9233 11.7078C13.989 11.5175 14.1259 11.3688 14.3322 11.2601C14.4071 11.2202 14.4417 11.1731 14.4417 11.0879C14.4381 10.3955 14.4381 9.70491 14.4381 9.01251V8.70981C14.4381 8.67899 14.4344 8.64999 14.4308 8.61193C14.3833 8.62824 14.3432 8.64455 14.3085 8.65905C13.9799 8.80044 13.6568 8.93638 13.3283 9.07776V11.3689C12.6291 11.0263 11.8442 10.8341 11.0137 10.8341C10.3638 10.8341 9.74502 10.952 9.17002 11.164C9.00756 11.2257 8.85058 11.2927 8.69725 11.367V9.0832C8.05653 8.8095 7.41582 8.53942 6.77329 8.26391C6.64003 8.20772 6.50678 8.15153 6.37353 8.09353C6.34067 8.07903 6.30964 8.06091 6.25305 8.03009C6.31694 7.99928 6.35892 7.97934 6.40091 7.96121C6.63821 7.85971 6.87551 7.76002 7.11646 7.6567C8.35955 7.12743 9.60446 6.59453 10.8476 6.06526C10.9406 6.02539 11.0246 6.00545 11.125 6.04895C12.6328 6.69423 14.1406 7.33225 15.6483 7.97571C15.6812 7.9884 15.7159 8.00834 15.7615 8.02828C15.7651 8.03009 15.767 8.0319 15.7706 8.03372C15.7213 8.05909 15.6794 8.07722 15.6483 8.08809Z" fill="url(#paint4_linear_12277_668748)"/>
<path d="M12.2857 21.4489C12.2729 21.4507 12.2565 21.4525 12.2437 21.4543C11.9991 21.4906 11.7508 21.5087 11.4953 21.5087C11.2981 21.5087 11.1083 21.496 10.9185 21.4761C11.1192 21.3945 11.3383 21.351 11.5701 21.3438H11.6888C11.7216 21.3438 11.7563 21.3456 11.7873 21.3492C11.8147 21.351 11.8421 21.3528 11.8695 21.3564C11.9115 21.3601 11.9553 21.3673 11.9973 21.3746C12.0319 21.38 12.0648 21.3873 12.0977 21.3945C12.1214 21.3999 12.1415 21.4054 12.1652 21.4108C12.167 21.4108 12.1707 21.4126 12.1725 21.4126C12.1761 21.4144 12.1816 21.4144 12.1853 21.4163L12.1871 21.4181C12.1926 21.4181 12.1981 21.4199 12.2017 21.4217C12.2327 21.4289 12.2583 21.438 12.2857 21.4489Z" fill="#F7A81E"/>
<path d="M13.3203 16.0632C13.3203 17.3302 12.2817 18.3616 11.0058 18.3616C10.7666 18.3616 10.5348 18.3253 10.3176 18.2583C9.62758 17.8613 9.16211 17.1182 9.16211 16.2681C9.16211 16.0977 9.17854 15.9309 9.2187 15.7696C9.44504 14.7383 10.3687 13.9697 11.4767 13.9697C11.7177 13.9697 11.9495 14.006 12.1685 14.073C12.1685 14.073 12.1703 14.0749 12.1722 14.0749C12.7198 14.3939 13.1232 14.9286 13.2619 15.563C13.3021 15.7243 13.3203 15.8929 13.3203 16.0632Z" fill="#F7A81E"/>
<path d="M31.7704 2.17548C31.5312 1.93985 31.2775 1.71872 31.0147 1.51933C30.6113 1.21482 30.1823 0.950186 29.7314 0.736302C28.8571 0.388288 27.9133 0.207031 26.944 0.207031H8.13343C3.97337 0.207031 0.547122 3.49866 0.496011 7.54795C0.472281 9.5744 1.24989 11.4758 2.6883 12.9041C3.00227 13.2159 3.33996 13.4968 3.69591 13.7451C3.90583 13.8901 4.12306 14.0261 4.34575 14.1511C4.51551 14.2019 4.69623 14.2291 4.88242 14.2291C5.53956 14.2291 6.12003 13.8992 6.4632 13.3971C6.46503 13.3971 6.46503 13.3935 6.46868 13.3899C6.49971 13.3464 6.52709 13.2992 6.55447 13.2557C6.5563 13.2485 6.55995 13.2412 6.56725 13.234C6.71145 12.9694 6.79542 12.6576 6.79542 12.3313C6.79542 11.6299 6.40844 11.01 5.83344 10.6855C5.82066 10.6764 5.80789 10.671 5.79511 10.6638C5.79146 10.6638 5.79146 10.6638 5.78781 10.6601C5.47202 10.4898 5.17995 10.2777 4.92075 10.0167C4.21432 9.31521 3.83282 8.38173 3.84377 7.38663C3.86933 5.40005 5.57971 3.78686 7.66431 3.78686H26.3691C27.0171 3.78686 27.6541 3.93368 28.2163 4.22913C28.4518 4.31432 28.68 4.42307 28.8954 4.55358C29.109 4.68227 29.3079 4.83453 29.4923 5.01035C30.2224 5.71 30.6222 6.63804 30.6222 7.64039V7.69114C30.5948 9.68678 28.8607 11.3127 26.7597 11.2927C25.46 11.28 24.2717 11.7404 23.3426 12.5108C22.5996 13.127 22.0246 13.9409 21.6961 14.8689C21.4971 15.4345 21.3876 16.0398 21.3876 16.6688V33.0345C21.3876 34.0749 20.9805 35.0501 20.2394 35.7806C19.4563 36.5582 18.4012 36.9678 17.2896 36.9207C16.7182 36.8953 16.1834 36.7449 15.7051 36.4947C15.5646 36.4458 15.4295 36.3878 15.2981 36.3225C13.9747 35.6682 13.0784 34.2761 13.0784 32.7191V22.9893C13.0784 22.3422 12.7462 21.7785 12.246 21.4468C12.2588 21.4449 12.2752 21.4431 12.288 21.4413C12.2606 21.4304 12.2333 21.4232 12.204 21.4141C12.1986 21.4123 12.1913 21.4105 12.1876 21.4087C12.184 21.4069 12.1785 21.4069 12.1748 21.4051C12.173 21.4051 12.1694 21.4033 12.1675 21.4033C12.1438 21.396 12.1237 21.3906 12.1 21.3869C12.0653 21.3779 12.0325 21.3724 11.9996 21.367C11.9576 21.3579 11.9138 21.3525 11.8718 21.3489C11.8444 21.3452 11.8171 21.3434 11.7897 21.3416C11.7568 21.338 11.724 21.3362 11.6911 21.3362H11.5725C11.3406 21.3434 11.1216 21.3869 10.9208 21.4685C10.2235 21.7404 9.7343 22.4129 9.7343 23.1959V32.8605C9.7343 35.5413 11.0887 37.9538 13.1642 39.3767C13.4873 39.5997 13.8286 39.7954 14.1864 39.9676C15.037 40.3066 15.9625 40.4969 16.9336 40.5059C17.3316 40.5096 17.724 40.4842 18.111 40.428C19.7557 40.196 21.2744 39.442 22.4664 38.2584C23.9285 36.8083 24.7372 34.8779 24.7372 32.8261V16.4658C24.7372 15.5831 25.4655 14.8834 26.3526 14.8816C28.4263 14.8744 30.3137 14.0533 31.6901 12.7283C31.785 12.6358 31.8799 12.5416 31.9693 12.4455C32.4658 11.9162 32.8857 11.3181 33.2106 10.6656C33.6834 9.71579 33.9554 8.65543 33.97 7.53526C33.99 5.51243 33.2143 3.60742 31.7704 2.17548Z" fill="#F7A81E"/>
<path d="M13.3203 16.0632C13.3203 17.3302 12.2817 18.3616 11.0058 18.3616C10.7666 18.3616 10.5348 18.3253 10.3176 18.2583C9.62758 17.8613 9.16211 17.1182 9.16211 16.2681C9.16211 16.0977 9.17854 15.9309 9.2187 15.7696C9.44504 14.7383 10.3687 13.9697 11.4767 13.9697C11.7177 13.9697 11.9495 14.006 12.1685 14.073C12.1685 14.073 12.1703 14.0749 12.1722 14.0749C12.7198 14.3939 13.1232 14.9286 13.2619 15.563C13.3021 15.7243 13.3203 15.8929 13.3203 16.0632Z" fill="#FEFEFE"/>
<path d="M15.6442 8.0843C15.4981 8.14774 15.217 8.27099 15.0308 8.34531C15.0345 8.49937 15.0363 8.7187 15.0363 8.81114V11.0787C15.0363 11.1475 15.0436 11.2001 15.1148 11.24C15.4616 11.4158 15.6077 11.7131 15.6077 12.0937C15.604 12.4961 15.604 12.9021 15.604 13.3099C15.604 13.3969 15.604 13.4296 15.5657 13.4404C15.5438 13.4513 15.5109 13.4513 15.4598 13.4513H14.3299C14.3299 13.0435 14.3299 12.6393 14.3317 12.2315C14.3317 12.1136 14.35 12.0067 14.3901 11.9106C14.4559 11.7203 14.5946 11.5699 14.8008 11.4629C14.8757 11.4231 14.9085 11.3759 14.9085 11.2907C14.9049 10.4986 14.9049 9.70655 14.9049 8.91445C14.9049 8.88364 14.9031 8.85464 14.8994 8.81657C14.852 8.83289 14.8118 8.8492 14.7771 8.8637C14.6621 8.91264 14.5489 8.96158 14.4339 9.00871V8.70601C14.4339 8.67519 14.4303 8.64619 14.4266 8.60813C14.3792 8.62444 14.339 8.64076 14.3043 8.65526C13.9758 8.79664 13.6527 8.93258 13.3241 9.07396V11.3651C12.7309 11.075 12.0774 10.8938 11.3874 10.8448C11.2632 10.8358 11.1355 10.8322 11.0095 10.8322C10.3597 10.8322 9.74087 10.95 9.16588 11.162V9.28784C9.00889 9.22078 8.85009 9.15371 8.6931 9.08665C8.24223 8.89452 7.79136 8.7042 7.33867 8.51206C7.17256 8.44137 7.00644 8.37068 6.84216 8.29999C6.82026 8.28912 6.80018 8.27824 6.77097 8.26193C6.75819 8.25286 6.74176 8.24743 6.72351 8.23655C6.7874 8.20574 6.82756 8.1858 6.86954 8.16767C7.10684 8.06617 7.34597 7.96467 7.58692 7.86316C7.68366 7.82329 7.78041 7.77978 7.87715 7.73991L7.87898 7.73809C9.0235 7.25051 10.1698 6.76112 11.3162 6.27172C11.4093 6.23185 11.4932 6.21191 11.5936 6.2536C12.3658 6.58349 13.1361 6.91337 13.9064 7.24145C14.5234 7.50427 15.1422 7.76528 15.7573 8.02811C15.761 8.02992 15.7628 8.03173 15.7665 8.03354C15.7172 8.05529 15.6752 8.07342 15.6442 8.0843Z" fill="#FEFEFE"/>
<defs>
<linearGradient id="paint0_linear_12277_668748" x1="10.477" y1="46.664" x2="11.8097" y2="-6.5994" gradientUnits="userSpaceOnUse">
<stop offset="1.24826e-07" stop-color="#8738FF"/>
<stop offset="0.5979" stop-color="#B892FF"/>
<stop offset="1" stop-color="#D7CBFF"/>
</linearGradient>
<linearGradient id="paint1_linear_12277_668748" x1="10.2183" y1="46.6621" x2="11.5509" y2="-6.60108" gradientUnits="userSpaceOnUse">
<stop offset="1.24826e-07" stop-color="#8738FF"/>
<stop offset="0.5979" stop-color="#B892FF"/>
<stop offset="1" stop-color="#D7CBFF"/>
</linearGradient>
<linearGradient id="paint2_linear_12277_668748" x1="16.7331" y1="-5.42956" x2="17.5912" y2="41.6192" gradientUnits="userSpaceOnUse">
<stop stop-color="#E9EB7B"/>
<stop offset="0.1842" stop-color="#EAE776" stop-opacity="0.8158"/>
<stop offset="0.4065" stop-color="#ECDD67" stop-opacity="0.5935"/>
<stop offset="0.6485" stop-color="#F0CB4F" stop-opacity="0.3515"/>
<stop offset="0.9029" stop-color="#F5B32D" stop-opacity="0.0971"/>
<stop offset="1" stop-color="#F7A81E" stop-opacity="0"/>
</linearGradient>
<linearGradient id="paint3_linear_12277_668748" x1="10.2183" y1="46.6621" x2="11.5509" y2="-6.60108" gradientUnits="userSpaceOnUse">
<stop offset="1.24826e-07" stop-color="#8738FF"/>
<stop offset="0.5979" stop-color="#B892FF"/>
<stop offset="1" stop-color="#D7CBFF"/>
</linearGradient>
<linearGradient id="paint4_linear_12277_668748" x1="10.0308" y1="46.6569" x2="11.3635" y2="-6.60623" gradientUnits="userSpaceOnUse">
<stop offset="1.24826e-07" stop-color="#8738FF"/>
<stop offset="0.5979" stop-color="#B892FF"/>
<stop offset="1" stop-color="#D7CBFF"/>
</linearGradient>
</defs>
</svg>
