<svg width="164" height="63" viewBox="0 0 164 63" fill="none" xmlns="http://www.w3.org/2000/svg">
<g filter="url(#filter0_d_917_64811)">
<path d="M27.9457 45.7683C27.7773 45.7683 27.6931 45.6841 27.5667 45.5578L25.9247 43.2841H24.8299V45.4315C24.8299 45.5999 24.7036 45.7683 24.4931 45.7683C24.3247 45.7683 24.1562 45.642 24.1562 45.4315V38.5263C24.1562 38.3579 24.2826 38.1895 24.4931 38.1895C24.6615 38.1895 24.8299 38.3158 24.8299 38.5263V42.6947H25.9247L27.5667 40.6736C27.6509 40.5473 27.7773 40.4631 27.9036 40.4631C28.1983 40.4631 28.2825 40.7157 28.1141 40.9263L26.472 42.9473L28.1983 45.2631C28.3246 45.5578 28.1983 45.7683 27.9457 45.7683Z" fill="white"/>
<path d="M33.7577 42.8631C33.7577 43.1157 33.5892 43.2841 33.3366 43.2841H29.3367C29.4209 44.421 30.2209 45.2631 31.3998 45.2631C32.4945 45.2631 32.8313 44.7157 33.084 44.7157C33.2524 44.7157 33.3366 44.7999 33.3366 44.9683C33.3366 45.3473 32.4945 45.8525 31.3998 45.8525C29.7998 45.8525 28.7051 44.6315 28.7051 43.1157C28.7051 41.5999 29.7577 40.3789 31.2735 40.3789C32.8314 40.3789 33.7577 41.6421 33.7577 42.8631ZM29.3367 42.821H33.084C32.9577 41.642 32.1998 40.9263 31.2314 40.9263C30.2209 40.9684 29.463 41.7684 29.3367 42.821Z" fill="white"/>
<path d="M35.1435 38.1895C35.3119 38.1895 35.4803 38.3158 35.4803 38.5263V45.4736C35.4803 45.642 35.354 45.8104 35.1435 45.8104C34.9751 45.8104 34.8066 45.6841 34.8066 45.4736V38.5263C34.8066 38.3158 34.9751 38.1895 35.1435 38.1895Z" fill="white"/>
<path d="M41.9243 40.8V45.4315C41.9243 45.5999 41.798 45.7683 41.5875 45.7683C41.377 45.7683 41.2507 45.642 41.2507 45.4315V44.6736C40.8296 45.3894 40.1138 45.8525 39.1875 45.8525C37.7139 45.8525 36.6191 44.6315 36.6191 43.1157C36.6191 41.5999 37.7139 40.3789 39.1875 40.3789C40.1138 40.3789 40.8296 40.8421 41.2507 41.5157V40.8C41.2507 40.6315 41.377 40.4631 41.5875 40.4631C41.7559 40.5052 41.9243 40.6315 41.9243 40.8ZM41.2507 43.1157C41.2507 41.9368 40.4086 40.9684 39.2717 40.9684C38.1349 40.9684 37.2928 41.8947 37.2928 43.1157C37.2928 44.3368 38.1349 45.2631 39.2717 45.2631C40.4507 45.2631 41.2507 44.2947 41.2507 43.1157Z" fill="white"/>
<path d="M45.0377 45.8945C43.8588 45.8945 42.9746 45.263 42.9746 44.884C42.9746 44.7156 43.1009 44.6314 43.2693 44.6314C43.5641 44.6314 43.9009 45.3472 45.122 45.3472C45.8798 45.3472 46.343 44.9682 46.343 44.4209C46.343 42.9893 43.1851 43.7051 43.1851 41.8104C43.1851 41.0104 43.8588 40.4209 45.0377 40.4209C46.0062 40.4209 46.764 40.8841 46.764 41.1788C46.764 41.3472 46.6377 41.4314 46.5114 41.4314C46.2167 41.4314 45.8798 40.9683 44.9956 40.9683C44.2799 40.9683 43.8167 41.3051 43.8167 41.8104C43.8167 43.1156 46.9746 42.484 46.9746 44.4209C46.9325 45.263 46.2167 45.8945 45.0377 45.8945Z" fill="white"/>
<path d="M54.2207 39.1152C54.2207 39.5362 54.5575 39.831 54.9365 39.831C55.3575 39.831 55.6523 39.4941 55.6523 39.1152C55.6523 38.7363 55.3154 38.3994 54.9365 38.3994C54.5575 38.3994 54.2207 38.7363 54.2207 39.1152Z" fill="#FFD600"/>
<path d="M53.5038 43.1157C53.5038 44.7578 52.367 45.8525 51.0196 45.8525C50.3459 45.8525 49.7986 45.5999 49.4196 45.1367V47.3262C49.4196 47.7051 49.167 47.9999 48.7459 47.9999C48.3249 47.9999 48.0723 47.7051 48.0723 47.3262V41.1368C48.0723 40.7578 48.3249 40.4631 48.7459 40.4631C49.1249 40.4631 49.3775 40.6736 49.4196 41.0526C49.7986 40.6315 50.3038 40.3789 51.0196 40.3789C52.4512 40.3789 53.5038 41.5578 53.5038 43.1157ZM52.1985 43.1157C52.1985 42.2736 51.6091 41.5999 50.8091 41.5999C50.0091 41.5999 49.4196 42.2736 49.4196 43.1157C49.4196 43.9578 50.0091 44.5894 50.8091 44.5894C51.6091 44.6315 52.1985 43.9578 52.1985 43.1157Z" fill="white"/>
<path d="M54.9354 45.7681C54.5565 45.7681 54.2617 45.5155 54.2617 45.0944V41.1366C54.2617 40.7576 54.5143 40.4629 54.9354 40.4629C55.3564 40.4629 55.6091 40.7155 55.6091 41.1366V45.0944C55.6091 45.4734 55.3564 45.7681 54.9354 45.7681Z" fill="white"/>
<path d="M61.421 42.5685V45.0948C61.421 45.4737 61.1684 45.7684 60.7474 45.7684C60.3684 45.7684 60.0737 45.5158 60.0737 45.0948V42.779C60.0737 42.0632 59.6526 41.6422 59.0211 41.6422C58.3474 41.6422 57.9684 42.1053 57.9684 42.779V45.0948C57.9684 45.4737 57.7158 45.7684 57.2948 45.7684C56.9158 45.7684 56.6211 45.5158 56.6211 45.0948V41.1369C56.6211 40.758 56.8737 40.4632 57.2948 40.4632C57.6737 40.4632 57.9263 40.6738 57.9684 41.0106C58.3053 40.5895 58.8105 40.3369 59.4421 40.3369C60.6632 40.379 61.421 41.2211 61.421 42.5685Z" fill="white"/>
<path d="M65.3771 44.4625C65.756 44.4625 65.9245 44.7152 65.9245 44.9678C65.9245 45.4731 65.3771 45.852 64.535 45.852C63.4403 45.852 62.7666 45.1783 62.7666 43.9152V41.6836H62.2613C61.9245 41.6836 61.6719 41.431 61.6719 41.0942C61.6719 40.7573 61.9245 40.5047 62.2613 40.5047H62.7666V39.7889C62.7666 39.3679 63.0192 39.1152 63.4403 39.1152C63.8613 39.1152 64.1139 39.3679 64.1139 39.7889V40.5047H65.0824C65.4192 40.5047 65.6718 40.7573 65.6718 41.0942C65.6718 41.431 65.4192 41.6836 65.0824 41.6836H64.1139V44.0836C64.1139 44.4625 64.2824 44.631 64.5771 44.631C64.8718 44.631 65.1245 44.4625 65.3771 44.4625Z" fill="white"/>
<path d="M71.4393 41.1357V45.0936C71.4393 45.4725 71.1867 45.7672 70.7657 45.7672C70.3867 45.7672 70.092 45.5146 70.092 45.1778C69.713 45.6409 69.2078 45.8935 68.492 45.8935C67.1025 45.8935 66.0078 44.7567 66.0078 43.1567C66.0078 41.5989 67.0604 40.4199 68.492 40.4199C69.1657 40.4199 69.713 40.6726 70.092 41.0936C70.1341 40.7568 70.3867 40.5041 70.7657 40.5041C71.1867 40.462 71.4393 40.7568 71.4393 41.1357ZM70.092 43.1146C70.092 42.2725 69.5025 41.5989 68.7025 41.5989C67.9025 41.5989 67.3131 42.2725 67.3131 43.1146C67.3131 43.9567 67.9025 44.6304 68.7025 44.6304C69.5025 44.6304 70.092 43.9567 70.092 43.1146Z" fill="white"/>
<path d="M76.0281 41.0948C76.0281 41.4737 75.7755 41.7264 75.3545 41.7264C75.1439 41.7264 74.9334 41.6422 74.5966 41.6422C74.1334 41.6422 73.7966 42.0211 73.7966 42.5685V45.0948C73.7966 45.4737 73.5439 45.7684 73.1229 45.7684C72.744 45.7684 72.4492 45.5158 72.4492 45.0948V41.1369C72.4492 40.758 72.7019 40.4632 73.1229 40.4632C73.5018 40.4632 73.7545 40.7159 73.7966 41.0527C74.0913 40.6316 74.5124 40.3369 75.1018 40.3369C75.565 40.379 76.0281 40.5895 76.0281 41.0948Z" fill="white"/>
<path d="M13.9274 42.0635V45.5161C13.9274 45.6845 13.801 45.7687 13.6747 45.7687C13.5063 45.7687 13.4221 45.6424 13.4221 45.5161V45.3477C13.2116 45.6424 12.8747 45.8529 12.4537 45.8529C11.6958 45.8529 11.1484 45.2635 11.1484 44.4214C11.1484 43.6214 11.6958 42.9898 12.4537 42.9898C12.8747 42.9898 13.2116 43.1582 13.4221 43.453V42.1056C13.4221 41.9372 13.5063 41.853 13.6747 41.853C13.801 41.8109 13.9274 41.9372 13.9274 42.0635ZM13.4221 44.3793C13.4221 43.8319 13.0432 43.4109 12.5379 43.4109C12.0326 43.4109 11.6537 43.8319 11.6537 44.3793C11.6537 44.9266 12.0326 45.3477 12.5379 45.3477C13.0432 45.3477 13.4221 44.9266 13.4221 44.3793Z" fill="white"/>
<path d="M17.4645 43.284V45.5155C17.4645 45.684 17.3803 45.7682 17.2118 45.7682C17.0434 45.7682 16.9592 45.684 16.9592 45.5155V45.3471C16.7487 45.6419 16.4118 45.8524 15.9908 45.8524C15.2329 45.8524 14.6855 45.2629 14.6855 44.4208C14.6855 43.6208 15.2329 42.9893 15.9908 42.9893C16.4118 42.9893 16.7487 43.1577 16.9592 43.4524V43.284C16.9592 43.1156 17.0434 43.0314 17.2118 43.0314C17.3803 43.0314 17.4645 43.1156 17.4645 43.284ZM16.9592 44.3787C16.9592 43.8314 16.5803 43.4103 16.075 43.4103C15.5697 43.4103 15.1908 43.8314 15.1908 44.3787C15.1908 44.9261 15.5697 45.3471 16.075 45.3471C16.6224 45.3471 16.9592 44.9261 16.9592 44.3787Z" fill="white"/>
<path d="M20.0757 43.2418C20.0757 43.3681 19.9915 43.4944 19.8231 43.4944C19.7388 43.4944 19.6125 43.4523 19.4441 43.4523C19.1494 43.4523 18.9389 43.705 18.9389 44.126V45.5576C18.9389 45.726 18.8125 45.8102 18.6862 45.8102C18.5178 45.8102 18.4336 45.726 18.4336 45.5576V43.326C18.4336 43.1576 18.5178 43.0734 18.6862 43.0734C18.8546 43.0734 18.9389 43.1576 18.9389 43.326V43.4102C19.1073 43.1576 19.3178 43.0313 19.6125 43.0313C19.8652 42.9471 20.0757 43.0313 20.0757 43.2418Z" fill="white"/>
<path d="M21.2555 42.2313C21.2555 42.3997 21.1292 42.526 20.9607 42.526C20.7923 42.526 20.666 42.3997 20.666 42.2313C20.666 42.0628 20.7923 41.9365 20.9607 41.9365C21.1292 41.9365 21.2555 42.0628 21.2555 42.2313ZM20.9607 45.7681C20.7923 45.7681 20.7081 45.6839 20.7081 45.5154V43.2839C20.7081 43.1155 20.7923 43.0312 20.9607 43.0312C21.1292 43.0312 21.2134 43.1155 21.2134 43.2839V45.5154C21.2134 45.6839 21.0871 45.7681 20.9607 45.7681Z" fill="white"/>
<path d="M46.8097 22.3576L46.0939 22.8207C45.1255 23.4523 43.9466 23.326 43.3992 22.4418C42.8098 21.5576 43.2308 20.4628 44.1992 19.7892L45.0834 19.1997C45.9255 18.6102 46.3466 18.105 46.3466 17.3892C46.3466 16.6313 45.7571 16.0418 44.9571 16.0418C43.3992 16.0418 43.0624 17.5576 41.5887 17.5576C40.4098 17.5576 39.8203 16.7576 39.8203 15.8313C39.8203 14.0208 42.2624 12.084 45.1255 12.084C48.6623 12.084 50.5149 14.5261 50.5149 17.0945C50.5149 19.1155 49.6307 20.547 46.8097 22.3576ZM47.8202 26.9891C47.8202 28.4206 46.6413 29.5575 45.2097 29.5575C43.7782 29.5575 42.6413 28.4206 42.6413 26.9891C42.6413 25.5575 43.7782 24.3786 45.2097 24.3786C46.6834 24.3786 47.8202 25.5575 47.8202 26.9891Z" fill="#FFD600"/>
<path d="M25.969 25.8524C28.4111 25.8524 29.6321 27.5365 29.6321 29.2628C29.6321 32.5891 26.3059 34.9891 21.2954 34.9891C15.2744 34.9891 11.2744 31.1997 11.2744 23.7471V15.3262H9.33762C7.02186 15.3262 5.42188 13.6841 5.42188 11.3683C5.42188 9.09464 7.02186 7.45255 9.33762 7.45255H11.3165V4.50521C11.3165 1.85261 13.1692 0 15.7797 0C18.4744 0 20.2849 1.85261 20.2849 4.50521V7.45255H24.0322C26.3059 7.45255 27.9479 9.05253 27.9479 11.4104C27.9479 13.6841 26.348 15.3262 24.0322 15.3262H20.4112V24.926C20.4112 26.2734 20.9586 26.6523 21.8428 26.6523C22.8954 26.6102 24.4111 25.8524 25.969 25.8524Z" fill="#FFD600"/>
<path d="M117.843 13.2212L109.38 36.463C106.812 43.4103 102.812 45.9366 97.9695 45.9366C93.4222 45.9366 90.0117 43.8735 90.0117 40.463C90.0117 38.5683 91.3591 36.7999 93.8433 36.7999C95.6959 36.7999 96.6643 37.5157 98.3485 37.5157C99.7379 37.5157 100.706 36.6736 101.506 34.6104L91.738 13.7685C89.8854 9.81069 92.4117 7.2002 95.5696 7.2002C98.3906 7.2002 99.4011 8.9686 100.58 11.7054L105.38 23.1158L109.422 11.3686C110.348 8.58965 111.611 7.2002 114.138 7.2002C117.043 7.2002 119.232 9.43175 117.843 13.2212Z" fill="#FFD600"/>
<path d="M55.6973 15.2838C55.0236 15.2838 54.3499 15.1154 53.8025 14.8206L53.0026 14.947L51.3184 15.1996L52.2026 13.0943C51.9078 12.5049 51.7815 11.8733 51.7815 11.1996C51.7815 8.84176 53.5078 7.03125 55.7815 7.03125C58.0551 7.03125 59.7814 8.79965 59.7814 11.1996C59.6972 13.5154 57.9709 15.2838 55.6973 15.2838Z" fill="#FFD600"/>
<path d="M88.2829 18.2315V29.9366C88.2829 32.6313 86.4303 34.4418 83.8198 34.4418C81.1251 34.4418 79.3146 32.5892 79.3146 29.9366V19.4525C79.3146 16.7578 77.7567 15.0315 75.3988 15.0315C72.9989 15.0315 71.441 16.7578 71.441 19.4525V29.9366C71.441 32.6313 69.5884 34.4418 66.9779 34.4418C64.2832 34.4418 62.4727 32.5892 62.4727 29.9366V11.7052C62.4727 9.01051 64.3253 7.20001 66.9358 7.20001C68.8726 7.20001 70.4305 8.21052 71.1041 9.81051C72.662 7.74737 75.2304 6.65264 78.3462 6.65264C84.4514 6.61054 88.2829 10.9894 88.2829 18.2315Z" fill="#FFD600"/>
<path d="M58.7255 30.947L57.294 27.4945C58.3045 25.4734 58.8098 23.1998 58.8098 20.884C58.8098 19.284 58.5992 17.7682 58.1361 16.3367C57.4624 16.6314 56.7045 16.7998 55.9466 16.7998C55.9045 16.7998 55.9045 16.7998 55.8624 16.7998C56.2835 18.063 56.494 19.4524 56.494 20.9261C56.494 23.0734 55.9887 25.1366 54.9782 26.9471C54.8098 27.2839 54.8098 27.6629 54.9361 27.9576C54.9782 27.9997 54.9782 28.0418 54.9782 28.0418L56.494 31.6628L54.894 31.4523C54.8519 31.4523 54.8098 31.4523 54.7677 31.4523L51.6098 31.0313C51.3572 30.9891 51.1046 31.0313 50.8519 31.1997C49.0835 32.2523 47.1467 32.7576 45.0415 32.7576C38.5573 32.7576 33.6732 27.6629 33.6732 20.884C33.6732 14.063 38.5573 8.88412 45.0415 8.88412C46.9362 8.88412 48.7467 9.34728 50.2625 10.1473C50.3467 9.34728 50.6414 8.58939 51.0204 7.91571C49.252 7.03151 47.1888 6.56836 45.0415 6.56836C37.2521 6.56836 31.3574 12.7157 31.3574 20.8419C31.3574 28.926 37.2521 34.9891 45.0415 34.9891C47.3994 34.9891 49.673 34.3996 51.6519 33.3049L54.5572 33.6839C54.5993 33.6839 54.5993 33.6839 54.6414 33.6839L56.1572 33.8944C56.9993 34.0207 57.8413 33.6839 58.3466 33.0102C58.9361 32.4628 59.0203 31.6628 58.7255 30.947Z" fill="white"/>
<path d="M144.031 7.19971C142.178 7.19971 140.789 8.0418 140.031 9.43126C138.305 7.66286 135.905 6.65234 132.747 6.65234C125.463 6.65234 120.115 12.6733 120.115 20.8417C120.115 29.431 125.968 34.9889 132.747 34.9889C135.862 34.9889 138.262 33.8942 139.989 32.0415C140.662 33.4731 142.178 34.4415 144.073 34.4415C146.768 34.4415 148.578 32.5889 148.578 29.9363V11.7049C148.578 9.01021 146.725 7.19971 144.031 7.19971ZM134.305 26.5679C131.315 26.5679 129.084 24.0416 129.084 20.8417C129.084 17.5575 131.315 15.0312 134.305 15.0312C137.294 15.0312 139.526 17.5575 139.526 20.8417C139.526 24.0837 137.294 26.5679 134.305 26.5679Z" fill="#FFD600"/>
</g>
<defs>
<filter id="filter0_d_917_64811" x="0.421875" y="-5" width="163.156" height="68" filterUnits="userSpaceOnUse" color-interpolation-filters="sRGB">
<feFlood flood-opacity="0" result="BackgroundImageFix"/>
<feColorMatrix in="SourceAlpha" type="matrix" values="0 0 0 0 0 0 0 0 0 0 0 0 0 0 0 0 0 0 127 0" result="hardAlpha"/>
<feOffset dx="5" dy="5"/>
<feGaussianBlur stdDeviation="5"/>
<feComposite in2="hardAlpha" operator="out"/>
<feColorMatrix type="matrix" values="0 0 0 0 0 0 0 0 0 0 0 0 0 0 0 0 0 0 0.24 0"/>
<feBlend mode="normal" in2="BackgroundImageFix" result="effect1_dropShadow_917_64811"/>
<feBlend mode="normal" in="SourceGraphic" in2="effect1_dropShadow_917_64811" result="shape"/>
</filter>
</defs>
</svg>
