<svg width="130" height="48" viewBox="0 0 130 48" fill="none" xmlns="http://www.w3.org/2000/svg">
<path d="M86.0527 37.7365C86.0527 38.2108 86.4209 38.5834 86.8895 38.5834C87.358 38.5834 87.7262 38.2108 87.7262 37.7365C87.7262 37.2623 87.358 36.8896 86.8895 36.8896C86.4209 36.9235 86.0527 37.2961 86.0527 37.7365Z" fill="#FFD600"/>
<path d="M55.9972 45.459C55.7964 45.459 55.696 45.3913 55.5621 45.188L53.6543 42.5797H52.416V45.0864C52.416 45.2896 52.2487 45.459 52.0478 45.459C51.847 45.459 51.6797 45.3235 51.6797 45.0864V37.0582C51.6797 36.8549 51.8136 36.6855 52.0478 36.6855C52.2487 36.6855 52.416 36.821 52.416 37.0582V41.9022H53.6543L55.4951 39.5649C55.5955 39.3955 55.7294 39.3277 55.8968 39.3277C56.198 39.3277 56.3319 39.6326 56.1645 39.8697L54.2903 42.2071L56.2315 44.8832C56.4658 45.1541 56.2649 45.459 55.9972 45.459Z" fill="#002E6D"/>
<path d="M62.6573 42.0714C62.6573 42.3763 62.49 42.5795 62.1553 42.5795H57.6035C57.7039 43.8667 58.641 44.883 59.9463 44.883C61.1847 44.883 61.5528 44.2394 61.8541 44.2394C62.0214 44.2394 62.1553 44.341 62.1553 44.5104C62.1553 44.9168 61.2182 45.5266 59.9463 45.5266C58.139 45.5266 56.8672 44.1039 56.8672 42.3424C56.8672 40.5809 58.0721 39.1582 59.8124 39.1582C61.5863 39.1921 62.6573 40.6826 62.6573 42.0714ZM57.6035 42.0375H61.8876C61.7537 40.6826 60.8835 39.8696 59.7455 39.8696C58.6076 39.8696 57.7374 40.818 57.6035 42.0375Z" fill="#002E6D"/>
<path d="M64.2315 36.6855C64.4323 36.6855 64.5996 36.8549 64.5996 37.0582V45.0525C64.5996 45.2558 64.4323 45.4251 64.2315 45.4251C64.0307 45.4251 63.8633 45.2896 63.8633 45.0525V37.0243C63.8633 36.821 64.0307 36.6855 64.2315 36.6855Z" fill="#002E6D"/>
<path d="M71.962 39.7005V45.0527C71.962 45.2559 71.8281 45.4253 71.5938 45.4253C71.3595 45.4253 71.2256 45.2898 71.2256 45.0527V44.2058C70.7236 45.0188 69.9203 45.5608 68.8828 45.5608C67.2093 45.5608 65.9375 44.1719 65.9375 42.3766C65.9375 40.6151 67.1758 39.1924 68.8828 39.1924C69.9203 39.1924 70.7236 39.7005 71.2256 40.5135V39.6666C71.2256 39.4634 71.3595 39.294 71.5938 39.294C71.8281 39.3279 71.962 39.4973 71.962 39.7005ZM71.2256 42.3766C71.2256 41.0216 70.2885 39.9037 68.9832 39.9037C67.6779 39.9037 66.7073 40.9877 66.7073 42.3766C66.7073 43.7316 67.6779 44.8833 68.9832 44.8833C70.2885 44.8494 71.2256 43.7316 71.2256 42.3766Z" fill="#002E6D"/>
<path d="M75.546 45.5601C74.2072 45.5601 73.2031 44.8149 73.2031 44.4084C73.2031 44.2051 73.337 44.1035 73.5044 44.1035C73.839 44.1035 74.2407 44.9165 75.6129 44.9165C76.5166 44.9165 77.0186 44.4761 77.0186 43.8664C77.0186 42.2065 73.4039 43.0195 73.4039 40.8516C73.4039 39.9369 74.2072 39.2256 75.5125 39.2256C76.617 39.2256 77.4872 39.7337 77.4872 40.1402C77.4872 40.3096 77.3533 40.4112 77.186 40.4112C76.8513 40.4112 76.4497 39.8692 75.4456 39.8692C74.6423 39.8692 74.1068 40.2757 74.1068 40.8177C74.1068 42.342 77.7215 41.5968 77.7215 43.8325C77.7215 44.8487 76.9182 45.5601 75.546 45.5601Z" fill="#002E6D"/>
<path d="M85.2509 42.3766C85.2509 44.2397 83.9456 45.5608 82.3726 45.5608C81.6028 45.5608 80.9669 45.2559 80.5318 44.7139V47.2206C80.5318 47.661 80.2305 47.9997 79.762 47.9997C79.2934 47.9997 78.9922 47.661 78.9922 47.2206V40.0731C78.9922 39.6328 79.2934 39.294 79.762 39.294C80.1636 39.294 80.4648 39.565 80.5318 39.9715C80.9669 39.4634 81.5693 39.1924 82.3726 39.1924C84.0126 39.1924 85.2509 40.5474 85.2509 42.3766ZM83.7113 42.3766C83.7113 41.3942 83.042 40.6151 82.1383 40.6151C81.2346 40.6151 80.5652 41.3942 80.5652 42.3766C80.5652 43.3251 81.2346 44.1042 82.1383 44.1042C83.042 44.1042 83.7113 43.3251 83.7113 42.3766Z" fill="#002E6D"/>
<path d="M86.8929 45.4262C86.4578 45.4262 86.123 45.1213 86.123 44.6471V40.074C86.123 39.6337 86.4243 39.2949 86.8594 39.2949C87.328 39.2949 87.6292 39.5998 87.6292 40.074V44.6471C87.6292 45.1213 87.328 45.4262 86.8929 45.4262Z" fill="#002E6D"/>
<path d="M94.2897 41.7327V44.6459C94.2897 45.0862 93.9885 45.425 93.52 45.425C93.0849 45.425 92.7502 45.1201 92.7502 44.6459V41.9359C92.7502 41.1229 92.2816 40.6148 91.5453 40.6148C90.809 40.6148 90.3404 41.1229 90.3404 41.9359V44.6459C90.3404 45.0862 90.0392 45.425 89.5706 45.425C89.1355 45.425 88.8008 45.1201 88.8008 44.6459V40.0728C88.8008 39.6324 89.102 39.2937 89.5371 39.2937C89.9722 39.2937 90.24 39.5308 90.3069 39.9373C90.6751 39.4292 91.2775 39.1582 91.9804 39.1582C93.3861 39.1921 94.2897 40.1406 94.2897 41.7327Z" fill="#002E6D"/>
<path d="M98.8047 43.9337C99.2064 43.9337 99.4407 44.2047 99.4407 44.5096C99.4407 45.0854 98.8047 45.5597 97.8341 45.5597C96.5958 45.5597 95.826 44.8144 95.826 43.324V40.7156H95.2905C94.8888 40.7156 94.6211 40.4446 94.6211 40.0381C94.6211 39.6316 94.8888 39.3607 95.2905 39.3607H95.8595V38.5477C95.8595 38.0734 96.1607 37.7686 96.5958 37.7686C97.0644 37.7686 97.3656 38.0734 97.3656 38.5477V39.3607H98.47C98.8717 39.3607 99.1394 39.6316 99.1394 40.0381C99.1394 40.4446 98.8717 40.7156 98.47 40.7156H97.3656V43.4933C97.3656 43.9337 97.5664 44.1031 97.9011 44.1031C98.2358 44.1031 98.5035 43.9337 98.8047 43.9337Z" fill="#002E6D"/>
<path d="M105.733 40.0731V44.6462C105.733 45.0865 105.432 45.4253 104.963 45.4253C104.528 45.4253 104.227 45.1204 104.193 44.7139C103.758 45.222 103.156 45.5608 102.386 45.5608C100.813 45.5608 99.5078 44.2735 99.5078 42.3766C99.5078 40.5474 100.713 39.1924 102.386 39.1924C103.156 39.1924 103.792 39.4973 104.193 39.9715C104.227 39.565 104.528 39.294 104.963 39.294C105.398 39.294 105.733 39.6328 105.733 40.0731ZM104.193 42.3427C104.193 41.3603 103.524 40.6151 102.62 40.6151C101.683 40.6151 101.014 41.3942 101.014 42.3427C101.014 43.3251 101.683 44.1042 102.62 44.1042C103.524 44.1042 104.193 43.3251 104.193 42.3427Z" fill="#002E6D"/>
<path d="M110.956 40.0051C110.956 40.4454 110.655 40.7503 110.219 40.7503C109.985 40.7503 109.717 40.6826 109.383 40.6826C108.847 40.6826 108.479 41.089 108.479 41.7327V44.6459C108.479 45.0862 108.178 45.425 107.709 45.425C107.274 45.425 106.939 45.1201 106.939 44.6459V40.0728C106.939 39.6324 107.241 39.2937 107.676 39.2937C108.111 39.2937 108.412 39.5647 108.446 39.9712C108.78 39.4969 109.282 39.1582 109.918 39.1582C110.42 39.1921 110.956 39.4631 110.956 40.0051Z" fill="#002E6D"/>
<path d="M39.965 41.16V45.1233C39.965 45.2927 39.8311 45.4282 39.6638 45.4282C39.4964 45.4282 39.3626 45.2927 39.3626 45.1233V44.9201C39.1283 45.2588 38.7601 45.496 38.2581 45.496C37.4213 45.496 36.752 44.7846 36.752 43.8361C36.752 42.8876 37.3879 42.1763 38.2581 42.1763C38.7266 42.1763 39.1283 42.3795 39.3626 42.7183V41.1262C39.3626 40.9568 39.463 40.8213 39.6638 40.8213C39.8646 40.889 39.965 40.9907 39.965 41.16ZM39.396 43.8361C39.396 43.2264 38.9944 42.7183 38.392 42.7183C37.7895 42.7183 37.3879 43.1925 37.3879 43.8361C37.3879 44.4458 37.823 44.954 38.392 44.954C38.9609 44.954 39.396 44.4458 39.396 43.8361Z" fill="#0055B8"/>
<path d="M44.047 42.5497V45.158C44.047 45.3274 43.9131 45.4629 43.7458 45.4629C43.5784 45.4629 43.4446 45.3274 43.4446 45.158V44.9548C43.2103 45.2935 42.8421 45.5306 42.3401 45.5306C41.5034 45.5306 40.834 44.8193 40.834 43.8708C40.834 42.9223 41.4699 42.2109 42.3401 42.2109C42.8087 42.2109 43.2103 42.4142 43.4446 42.7529V42.5497C43.4446 42.3803 43.5784 42.2448 43.7458 42.2448C43.9466 42.2448 44.047 42.3803 44.047 42.5497ZM43.4781 43.8369C43.4781 43.2272 43.0764 42.7191 42.474 42.7191C41.8715 42.7191 41.4699 43.1933 41.4699 43.8369C41.4699 44.4466 41.905 44.9548 42.474 44.9548C43.043 44.9548 43.4781 44.4466 43.4781 43.8369Z" fill="#0055B8"/>
<path d="M47.0286 42.5145C47.0286 42.6839 46.9281 42.7855 46.7608 42.7855C46.6604 42.7855 46.5265 42.7516 46.3592 42.7516C45.991 42.7516 45.7567 43.0565 45.7567 43.5308V45.1567C45.7567 45.3261 45.6228 45.4616 45.4555 45.4616C45.2881 45.4616 45.1543 45.36 45.1543 45.1567V42.5484C45.1543 42.379 45.2881 42.2435 45.4555 42.2435C45.6228 42.2435 45.7567 42.3452 45.7567 42.5484V42.65C45.9241 42.379 46.1918 42.1758 46.56 42.1758C46.7608 42.1758 47.0286 42.2774 47.0286 42.5145Z" fill="#0055B8"/>
<path d="M48.3672 41.3619C48.3672 41.5651 48.1999 41.7345 47.9991 41.7345C47.7982 41.7345 47.6309 41.5651 47.6309 41.3619C47.6309 41.1586 47.7982 40.9893 47.9991 40.9893C48.1999 40.9893 48.3672 41.1586 48.3672 41.3619ZM47.9991 45.4268C47.8317 45.4268 47.6978 45.3252 47.6978 45.1219V42.5136C47.6978 42.3442 47.7982 42.2087 47.9991 42.2087C48.1664 42.2087 48.3002 42.3104 48.3002 42.5136V45.1219C48.3002 45.3252 48.1664 45.4268 47.9991 45.4268Z" fill="#0055B8"/>
<path d="M32.0986 5.89445V29.9126C32.0986 43.0904 22.3585 45.7667 15.7982 45.7667C8.16688 45.7667 0.669417 42.9888 0.669417 37.5347C0.669417 34.994 2.47685 33.2325 5.15452 33.2325C8.36773 33.2325 10.2086 36.2136 15.1623 36.2136C19.0114 36.2136 21.7561 34.2149 21.7561 30.353V28.1172C19.8148 29.8787 17.204 30.895 13.9239 30.895C6.4264 30.895 0 24.7973 0 15.312C0 6.23321 6.4264 0 13.9239 0C17.6391 0 20.4842 1.11791 22.4589 3.04885C23.2957 1.5583 24.9023 0.643646 26.8771 0.643646C29.9564 0.643646 32.0986 2.77784 32.0986 5.89445ZM21.7561 15.312C21.7561 12.0599 19.3127 9.51919 16.0326 9.51919C12.7524 9.51919 10.309 12.0599 10.309 15.312C10.309 18.6319 12.7524 21.1048 16.0326 21.1048C19.3127 21.1048 21.7561 18.5641 21.7561 15.312Z" fill="#0055B8"/>
<path d="M96.8327 5.45406C96.8327 8.63841 94.7241 10.4677 91.7786 10.4677C90.3729 10.4677 88.7663 10.129 87.0258 10.129C84.9841 10.129 83.6117 11.3485 83.6117 13.3133V27.1348C83.6117 30.2514 81.5031 32.3856 78.4907 32.3856C75.4114 32.3856 73.3027 30.2514 73.3027 27.1348V5.89444C73.3027 2.77784 75.4114 0.643646 78.4238 0.643646C80.8671 0.643646 82.708 1.99869 83.3775 4.16676C85.1179 1.89706 87.7287 0 91.0758 0C94.1551 0 96.8327 1.79543 96.8327 5.45406Z" fill="#0055B8"/>
<path d="M114.872 22.5954C117.75 22.5954 119.691 20.2579 119.691 16.7009V5.2508C119.691 2.1342 121.8 0 124.812 0C127.892 0 130 2.1342 130 5.2508V17.4462C130 26.4234 123.976 32.3856 114.872 32.3856C105.701 32.3856 99.6758 26.4234 99.6758 17.4462V5.2508C99.6758 2.1342 101.784 0 104.797 0C107.876 0 109.985 2.1342 109.985 5.2508V16.6671C109.985 20.2579 111.926 22.5954 114.872 22.5954Z" fill="#0055B8"/>
<path d="M58.4092 11.958C59.5472 12.6355 59.5472 14.2615 58.4092 14.9391L54.4931 17.2426L50.577 19.5462C49.439 20.2237 48.0332 19.3768 48.0332 18.0557V13.4485V8.84135C48.0332 7.52018 49.439 6.70716 50.577 7.3508L54.4931 9.65438L58.4092 11.958Z" fill="#0055B8"/>
<path d="M39.0252 4.13256C40.0973 4.13256 40.9664 3.25292 40.9664 2.16784C40.9664 1.08276 40.0973 0.203125 39.0252 0.203125C37.9531 0.203125 37.084 1.08276 37.084 2.16784C37.084 3.25292 37.9531 4.13256 39.0252 4.13256Z" fill="#A958FF"/>
<path d="M52.7134 32.1824C50.839 32.1824 49.065 31.9453 47.425 31.4371C46.3874 31.1322 45.8184 30.0482 46.1196 28.998C46.4208 27.9479 47.4919 27.372 48.5295 27.6769C49.8349 28.0495 51.2406 28.2528 52.7468 28.2528C60.01 28.2528 64.629 24.1876 64.629 17.0398C64.629 15.9557 65.4993 15.075 66.5703 15.075C67.6414 15.075 68.5116 15.9557 68.5116 17.0398C68.4781 26.4235 62.1856 32.1824 52.7134 32.1824ZM41.9023 27.6769C41.3667 27.6769 40.8312 27.4397 40.4295 26.9994C38.0531 24.2215 36.7812 20.5968 36.7812 16.4639V7.85935C36.7812 6.77531 37.6515 5.89453 38.7225 5.89453C39.7936 5.89453 40.6639 6.77531 40.6639 7.85935V16.4639C40.6639 19.6482 41.601 22.3922 43.3415 24.4248C44.0444 25.2378 43.9775 26.4912 43.1742 27.2026C42.806 27.5414 42.3374 27.6769 41.9023 27.6769Z" fill="#A958FF"/>
<path d="M40.9994 34.5181C40.5978 34.5181 40.1961 34.3826 39.828 34.1454C39.259 33.7051 38.9578 33.0276 39.0582 32.3162L39.9619 25.5075C40.0957 24.4235 41.0998 23.6782 42.1373 23.8137C43.2084 23.9492 43.9447 24.9316 43.8108 26.0156L43.3757 29.3014L46.89 27.6754C47.8606 27.2351 48.9985 27.6754 49.4671 28.6578C49.9022 29.6401 49.4671 30.7919 48.4965 31.2661L41.8027 34.3487C41.5349 34.4842 41.2671 34.5181 40.9994 34.5181Z" fill="#A958FF"/>
<path d="M66.6385 4.13256C67.7106 4.13256 68.5797 3.25292 68.5797 2.16784C68.5797 1.08276 67.7106 0.203125 66.6385 0.203125C65.5664 0.203125 64.6973 1.08276 64.6973 2.16784C64.6973 3.25292 65.5664 4.13256 66.6385 4.13256Z" fill="#0055B8"/>
<path d="M66.6404 13.4153C65.5694 13.4153 64.6992 12.5345 64.6992 11.4505V7.92761C64.6992 6.84362 65.5694 5.96289 66.6404 5.96289C67.7115 5.96289 68.5817 6.84362 68.5817 7.92761V11.4844C68.5482 12.5684 67.7115 13.4153 66.6404 13.4153Z" fill="#0055B8"/>
</svg>
