<svg width="122" height="63" viewBox="0 0 122 63" fill="none" xmlns="http://www.w3.org/2000/svg">
<path d="M119.169 3.29499C118.158 2.40078 116.786 1.88574 115.183 1.88574C111.818 1.88574 109.435 4.25206 109.435 7.66265V27.7835L96.2515 8.08238C94.9303 6.11552 93.7133 4.57244 92.3308 3.52209C90.928 2.4535 89.3617 1.88574 87.3462 1.88574C83.2805 1.88574 80.5463 4.39197 80.5463 9.05568V41.4278C80.5463 44.0882 81.9941 46.1098 84.2566 46.8742C84.8999 47.0912 85.6085 47.2068 86.3661 47.2068C89.7313 47.2068 92.1144 44.8405 92.1144 41.4299V22.0755L93.993 24.7886L105.226 41.0122C107.078 43.6725 108.726 45.6272 111.04 46.5701C112.057 46.9858 113.202 47.2068 114.55 47.2068C118.408 47.2068 121.003 44.4937 121.003 40.0368V7.66265C121.003 5.8438 120.323 4.31898 119.169 3.29499Z" fill="#0055B8"/>
<path d="M51.3418 25.5308C51.6053 25.5248 51.8564 25.5673 52.0892 25.6485C51.7993 25.691 51.5073 25.7154 51.203 25.7154C50.9845 25.7154 50.768 25.7012 50.5557 25.6789C50.7803 25.5876 51.0274 25.539 51.2867 25.5308H51.3418Z" fill="#0055B8"/>
<path d="M53.7308 19.2996C53.7737 19.4801 53.7941 19.6666 53.7941 19.8573C53.7941 21.2746 52.6322 22.4284 51.2048 22.4284C49.7733 22.4284 48.6155 21.2746 48.6155 19.8573C48.6155 19.6666 48.6359 19.4801 48.6788 19.2996C48.932 18.1459 49.9653 17.2861 51.2048 17.2861C52.4422 17.2861 53.4796 18.1459 53.7308 19.2996Z" fill="#0055B8"/>
<path d="M74.4215 4.32393C72.8389 2.75653 70.7336 1.88867 68.4935 1.88867H47.4524C42.7986 1.88867 38.9657 5.57097 38.9086 10.1008C38.882 12.3678 39.7499 14.4949 41.361 16.0927C41.9369 16.6645 42.5842 17.143 43.2744 17.5202C43.2785 17.5242 43.2805 17.5263 43.2846 17.5263C43.3214 17.5425 43.3581 17.5628 43.399 17.583C43.6849 17.7229 44.0055 17.8041 44.3424 17.8041C45.0796 17.8041 45.7269 17.437 46.1108 16.8754C46.1149 16.8754 46.1149 16.8713 46.1169 16.8693C46.1496 16.8186 46.1802 16.7699 46.2109 16.7192C46.2149 16.7132 46.217 16.703 46.2252 16.6949C46.3865 16.3968 46.4804 16.0501 46.4804 15.6851C46.4804 14.8821 46.0291 14.1765 45.3614 13.8196C45.3573 13.8196 45.3573 13.8196 45.3552 13.8156C45.002 13.625 44.6752 13.3877 44.3853 13.0957C43.593 12.309 43.1662 11.2668 43.1805 10.1536C43.2111 7.93323 45.1245 6.12656 47.4545 6.12656H68.3812C69.4798 6.12656 70.5539 6.50776 71.3442 7.26409C72.159 8.04678 72.6062 9.08699 72.6062 10.2063V10.2631C72.5755 12.4976 70.6356 14.3164 68.2852 14.2921C64.9587 14.2576 62.2735 17.0031 62.2735 20.3042V38.6123C62.2735 39.7762 61.8181 40.8671 60.9911 41.6863C60.1151 42.5561 58.9327 43.0144 57.6912 42.9597C55.3265 42.8522 53.5091 40.8387 53.5091 38.4926V27.608C53.5091 26.6914 52.9169 25.925 52.098 25.6452C51.8652 25.564 51.6141 25.5215 51.3507 25.5275H51.2976C51.0382 25.5336 50.7932 25.5843 50.5665 25.6756C49.7885 25.9797 49.2392 26.732 49.2392 27.608V38.4196C49.2392 43.1685 53.0374 47.1671 57.8198 47.2036C60.16 47.2239 62.3633 46.3236 64.0092 44.6893C65.6449 43.0671 66.5474 40.9076 66.5474 38.6123V20.3042C66.5474 19.3187 67.3622 18.5361 68.3567 18.532C70.6764 18.5259 72.7879 17.6053 74.3276 16.1251C75.8775 14.6368 76.8495 12.5848 76.8801 10.3158C76.9067 8.05489 76.0368 5.92581 74.4215 4.32393Z" fill="#0055B8"/>
<path d="M53.7941 19.8592C53.7941 21.2766 52.6322 22.4303 51.2048 22.4303C49.7733 22.4303 48.6155 21.2766 48.6155 19.8592C48.6155 19.6686 48.6359 19.4821 48.6788 19.3016C48.932 18.1478 49.9653 17.2881 51.2048 17.2881C52.4402 17.2881 53.4776 18.1478 53.7308 19.3016C53.7737 19.48 53.7941 19.6686 53.7941 19.8592Z" fill="#0055B8"/>
<path d="M56.5239 10.8702C56.4708 10.8439 56.4258 10.8236 56.3891 10.8074C54.7024 10.0875 53.0157 9.37378 51.3269 8.6499C51.2166 8.60326 51.1206 8.62556 51.0165 8.67017C49.6259 9.26226 48.2353 9.85638 46.8446 10.4485C46.5751 10.562 46.3096 10.6756 46.0421 10.7891C45.9951 10.8094 45.9482 10.8317 45.8767 10.8662C45.94 10.9006 45.9747 10.9189 46.0115 10.9371C46.8793 11.3082 47.7452 11.6752 48.611 12.0443V14.5992C49.3931 14.2179 50.2712 14.003 51.2003 14.003C52.1294 14.003 53.0095 14.2179 53.7896 14.6012V12.0361C54.1571 11.878 54.5206 11.7259 54.8882 11.5678C54.929 11.5515 54.9719 11.5333 55.027 11.515C55.0311 11.5576 55.0332 11.5921 55.0332 11.6245C55.0332 12.5106 55.0332 13.3967 55.0373 14.2828C55.0373 14.3802 55.0005 14.4329 54.9168 14.4775C54.6881 14.5971 54.5329 14.7654 54.4594 14.9783C54.4165 15.0858 54.3961 15.2054 54.3961 15.3352C54.392 15.8158 54.392 16.2984 54.392 16.7789C54.392 16.927 54.3961 16.929 54.5431 16.929H56.1828C56.24 16.929 56.2768 16.929 56.3013 16.9188C56.3442 16.9046 56.3442 16.8681 56.3442 16.7708C56.3442 16.3166 56.3442 15.8604 56.3482 15.4102C56.3482 14.9864 56.1828 14.6539 55.7969 14.4572C55.7152 14.4146 55.7091 14.3538 55.7091 14.2768V11.7421C55.7091 11.6387 55.705 11.3934 55.703 11.221C55.9113 11.1379 56.2257 11 56.3891 10.9311C56.4238 10.9169 56.4708 10.8966 56.5239 10.8702Z" fill="#0055B8"/>
<path d="M50.2024 23.6451C50.4659 23.639 50.717 23.6816 50.9498 23.7627C50.6599 23.8053 50.3678 23.8296 50.0636 23.8296C49.8451 23.8296 49.6286 23.8154 49.4163 23.7931C49.6409 23.7019 49.888 23.6532 50.1473 23.6451H50.2024Z" fill="url(#paint0_linear_12159_674602)"/>
<path d="M52.6567 17.9735C52.6567 19.3909 51.4948 20.5447 50.0674 20.5447C49.7999 20.5447 49.5406 20.5041 49.2976 20.4291C48.2418 20.1026 47.4761 19.1253 47.4761 17.9735C47.4761 17.7809 47.4965 17.5944 47.5414 17.4139C47.7946 16.2601 48.8279 15.4004 50.0674 15.4004C50.5412 15.4004 50.9863 15.5281 51.3682 15.7471C51.3682 15.7471 51.3702 15.7492 51.3723 15.7492C51.9849 16.106 52.4362 16.7042 52.5914 17.4139C52.6363 17.5944 52.6567 17.7829 52.6567 17.9735Z" fill="url(#paint1_linear_12159_674602)"/>
<path d="M73.2799 2.43526C72.606 1.76815 71.8362 1.22473 71.001 0.823244C69.8779 0.283877 68.6363 0 67.3519 0H46.3108C41.655 0 37.8241 3.68229 37.7669 8.21217C37.7404 10.4791 38.6103 12.6062 40.2194 14.204C40.7953 14.7778 41.4426 15.2544 42.1328 15.6335C42.1369 15.6376 42.1389 15.6396 42.143 15.6396C42.1818 15.6558 42.2165 15.6781 42.2574 15.6964C42.3656 15.7491 42.48 15.7957 42.6004 15.8302C42.7903 15.887 42.9925 15.9174 43.2008 15.9174C43.9359 15.9174 44.5853 15.5484 44.9692 14.9867C44.9712 14.9867 44.9712 14.9826 44.9753 14.9786C45.01 14.9299 45.0407 14.8772 45.0713 14.8285C45.0733 14.8204 45.0774 14.8123 45.0856 14.8042C45.2469 14.5082 45.3408 14.1594 45.3408 13.7944C45.3408 12.9914 44.8875 12.2858 44.2238 11.9289C44.2198 11.9289 44.2198 11.9289 44.2157 11.9249C43.8624 11.7343 43.5357 11.497 43.2457 11.205C42.4555 10.4203 42.0287 9.37606 42.0409 8.26286C42.0695 6.0405 43.9829 4.23586 46.3149 4.23586H67.2396C67.9645 4.23586 68.6772 4.4001 69.3061 4.73061C69.6308 4.89891 69.9351 5.11385 70.2046 5.37137C71.0214 6.15406 71.4686 7.19224 71.4686 8.31355V8.37033C71.438 10.6028 69.4981 12.4237 67.1477 12.3994C63.8212 12.3669 61.136 15.1104 61.136 18.4135V36.7216C61.136 37.8855 60.6826 38.9764 59.8536 39.7935C58.9775 40.6654 57.7952 41.1217 56.5536 41.0689C56.1187 41.0507 55.7001 40.9655 55.308 40.8236C53.5804 40.2051 52.3716 38.514 52.3716 36.5999V25.7152C52.3716 24.9913 51.9999 24.3607 51.4404 23.9897C51.42 23.9755 51.3995 23.9613 51.3771 23.9491L51.375 23.9471C51.2444 23.868 51.1075 23.8011 50.9605 23.7524C50.7277 23.6733 50.4745 23.6287 50.2131 23.6348H50.16C49.9007 23.6429 49.6536 23.6916 49.429 23.7828C48.651 24.087 48.1037 24.8393 48.1037 25.7152V36.5269C48.1037 40.197 50.3724 43.419 53.6111 44.7087C54.5627 45.0878 55.598 45.3007 56.6843 45.3109C59.0245 45.3312 61.2258 44.4329 62.8737 42.7965C64.5094 41.1744 65.414 39.0149 65.414 36.7195V18.4216C65.414 17.4341 66.2288 16.6514 67.2212 16.6494C69.541 16.6413 71.6524 15.7228 73.1921 14.2405C74.742 12.7522 75.714 10.7001 75.7446 8.43116C75.763 6.16825 74.8952 4.03714 73.2799 2.43526Z" fill="url(#paint2_linear_12159_674602)"/>
<path d="M52.6567 17.9735C52.6567 19.3909 51.4948 20.5447 50.0674 20.5447C49.7999 20.5447 49.5406 20.5041 49.2976 20.4291C48.2418 20.1026 47.4761 19.1253 47.4761 17.9735C47.4761 17.7809 47.4965 17.5944 47.5414 17.4139C47.7946 16.2601 48.8279 15.4004 50.0674 15.4004C50.5412 15.4004 50.9863 15.5281 51.3682 15.7471C51.3682 15.7471 51.3702 15.7492 51.3723 15.7492C51.9849 16.106 52.4362 16.7042 52.5914 17.4139C52.6363 17.5944 52.6567 17.7829 52.6567 17.9735Z" fill="url(#paint3_linear_12159_674602)"/>
<path d="M55.2498 9.04396C55.0865 9.11493 54.772 9.25281 54.5637 9.33595C54.5678 9.5083 54.5698 9.75365 54.5698 9.85706V12.3937C54.5698 12.4708 54.578 12.5296 54.6577 12.5742C55.0456 12.7709 55.209 13.1034 55.209 13.5292C55.2049 13.9794 55.2049 14.4336 55.2049 14.8898C55.2049 14.9871 55.2049 15.0236 55.162 15.0358C55.1375 15.048 55.1008 15.048 55.0436 15.048H53.4038C53.2548 15.048 53.2507 15.0439 53.2507 14.8959C53.2507 14.4153 53.2507 13.9348 53.2548 13.4522C53.2548 13.3204 53.2752 13.2007 53.3201 13.0933C53.3936 12.8804 53.5468 12.7141 53.7775 12.5924C53.8613 12.5478 53.9001 12.4951 53.9001 12.3998C53.896 11.6252 53.896 10.8527 53.896 10.0781V9.73946C53.896 9.70499 53.8919 9.67254 53.8878 9.62996C53.8347 9.64821 53.7898 9.66646 53.751 9.68268C53.3834 9.84084 53.022 9.99292 52.6544 10.1511V12.7141C51.8723 12.3309 50.9942 12.1159 50.0651 12.1159C49.3382 12.1159 48.6459 12.2477 48.0027 12.485C47.8209 12.5539 47.6453 12.6289 47.4738 12.7121V10.1572C46.757 9.85098 46.0403 9.54885 45.3215 9.24064C45.1724 9.17779 45.0233 9.11493 44.8743 9.05004C44.8375 9.03382 44.8028 9.01354 44.7395 8.97907C44.811 8.9446 44.8579 8.9223 44.9049 8.90202C45.1704 8.78847 45.4358 8.67695 45.7054 8.56137C47.096 7.96928 48.4887 7.37314 49.8793 6.78105C49.9834 6.73644 50.0774 6.71414 50.1897 6.7628C51.8764 7.48466 53.5631 8.19841 55.2498 8.91824C55.2866 8.93243 55.3254 8.95474 55.3764 8.97704C55.3805 8.97907 55.3826 8.9811 55.3867 8.98313C55.3315 9.01151 55.2846 9.03179 55.2498 9.04396Z" fill="url(#paint4_linear_12159_674602)"/>
<path d="M51.4936 23.9936C51.4793 23.9956 51.4609 23.9976 51.4466 23.9997C51.173 24.0402 50.8953 24.0605 50.6094 24.0605C50.3889 24.0605 50.1765 24.0463 49.9641 24.024C50.1887 23.9328 50.4338 23.8841 50.6931 23.876H50.8258C50.8626 23.876 50.9014 23.878 50.9361 23.8821C50.9667 23.8841 50.9974 23.8861 51.028 23.8902C51.075 23.8942 51.124 23.9023 51.171 23.9104C51.2098 23.9165 51.2465 23.9246 51.2833 23.9328C51.3098 23.9388 51.3323 23.9449 51.3588 23.951C51.3609 23.951 51.3649 23.953 51.367 23.953C51.3711 23.9551 51.3772 23.9551 51.3813 23.9571L51.3833 23.9591C51.3894 23.9591 51.3956 23.9611 51.3997 23.9632C51.4344 23.9713 51.463 23.9814 51.4936 23.9936Z" fill="#F7A81E"/>
<path d="M52.6659 17.9738C52.6659 19.3912 51.504 20.5449 50.0766 20.5449C49.8091 20.5449 49.5498 20.5044 49.3068 20.4294C48.5349 19.9853 48.0142 19.1539 48.0142 18.203C48.0142 18.0124 48.0325 17.8258 48.0775 17.6453C48.3307 16.4916 49.3639 15.6318 50.6035 15.6318C50.873 15.6318 51.1323 15.6724 51.3774 15.7474C51.3774 15.7474 51.3794 15.7494 51.3815 15.7494C51.9941 16.1063 52.4454 16.7045 52.6006 17.4142C52.6455 17.5946 52.6659 17.7832 52.6659 17.9738Z" fill="#F7A81E"/>
<path d="M73.2935 2.43645C73.026 2.17285 72.7421 1.92547 72.4481 1.70243C71.9968 1.36177 71.5169 1.06573 71.0125 0.826462C70.0344 0.437145 68.9787 0.234375 67.8943 0.234375H46.8512C42.1974 0.234375 38.3645 3.91667 38.3074 8.44654C38.2808 10.7135 39.1507 12.8406 40.7598 14.4384C41.1111 14.7871 41.4888 15.1014 41.887 15.3792C42.1219 15.5414 42.3649 15.6935 42.614 15.8334C42.8039 15.8902 43.0061 15.9206 43.2144 15.9206C43.9495 15.9206 44.5989 15.5516 44.9828 14.9899C44.9848 14.9899 44.9848 14.9859 44.9889 14.9818C45.0236 14.9331 45.0542 14.8804 45.0849 14.8318C45.0869 14.8236 45.091 14.8155 45.0991 14.8074C45.2605 14.5114 45.3544 14.1626 45.3544 13.7976C45.3544 13.0129 44.9215 12.3194 44.2783 11.9565C44.264 11.9463 44.2497 11.9403 44.2354 11.9322C44.2313 11.9322 44.2313 11.9322 44.2272 11.9281C43.8739 11.7375 43.5472 11.5003 43.2572 11.2083C42.467 10.4235 42.0402 9.37928 42.0524 8.26608C42.081 6.04372 43.9944 4.23907 46.3264 4.23907H67.2511C67.976 4.23907 68.6887 4.40332 69.3176 4.73383C69.5811 4.82913 69.8363 4.95079 70.0773 5.09679C70.3162 5.24076 70.5388 5.41108 70.745 5.60777C71.5618 6.39046 72.009 7.42864 72.009 8.54996V8.60673C71.9784 10.8392 70.0385 12.6581 67.6881 12.6358C66.2342 12.6216 64.9048 13.1366 63.8654 13.9984C63.0343 14.6878 62.3911 15.5982 62.0235 16.6364C61.8009 17.269 61.6784 17.9463 61.6784 18.6499V36.958C61.6784 38.1219 61.223 39.2128 60.394 40.0299C59.5179 40.8998 58.3376 41.3581 57.094 41.3054C56.4549 41.277 55.8566 41.1087 55.3216 40.8288C55.1643 40.7741 55.0132 40.7092 54.8662 40.6362C53.3857 39.9042 52.3831 38.3469 52.3831 36.6052V25.7205C52.3831 24.9966 52.0114 24.366 51.4519 23.9949C51.4662 23.9929 51.4846 23.9909 51.4989 23.9888C51.4682 23.9767 51.4376 23.9686 51.4049 23.9584C51.3988 23.9564 51.3907 23.9544 51.3866 23.9523C51.3825 23.9503 51.3764 23.9503 51.3723 23.9483C51.3702 23.9483 51.3661 23.9462 51.3641 23.9462C51.3376 23.9381 51.3151 23.9321 51.2885 23.928C51.2497 23.9179 51.213 23.9118 51.1762 23.9057C51.1293 23.8956 51.0803 23.8895 51.0333 23.8854C51.0027 23.8814 50.972 23.8793 50.9414 23.8773C50.9046 23.8733 50.8679 23.8712 50.8311 23.8712H50.6984C50.4391 23.8793 50.194 23.928 49.9694 24.0192C49.1893 24.3234 48.6421 25.0757 48.6421 25.9516V36.7633C48.6421 39.7623 50.1573 42.4611 52.4791 44.0529C52.8405 44.3023 53.2224 44.5213 53.6226 44.7139C54.5742 45.0931 55.6095 45.306 56.6958 45.3161C57.141 45.3202 57.58 45.2918 58.013 45.2289C59.8528 44.9694 61.5518 44.1259 62.8852 42.8018C64.5209 41.1796 65.4255 39.0201 65.4255 36.7248V18.4228C65.4255 17.4353 66.2403 16.6526 67.2327 16.6506C69.5525 16.6425 71.6639 15.7239 73.2036 14.2417C73.3098 14.1383 73.416 14.0328 73.5161 13.9254C74.0715 13.3333 74.5412 12.6641 74.9046 11.9342C75.4335 10.8717 75.7378 9.68546 75.7541 8.43235C75.7766 6.16944 74.9087 4.03833 73.2935 2.43645Z" fill="#F7A81E"/>
<path d="M52.6659 17.9738C52.6659 19.3912 51.504 20.5449 50.0766 20.5449C49.8091 20.5449 49.5498 20.5044 49.3068 20.4294C48.5349 19.9853 48.0142 19.1539 48.0142 18.203C48.0142 18.0124 48.0325 17.8258 48.0775 17.6453C48.3307 16.4916 49.3639 15.6318 50.6035 15.6318C50.873 15.6318 51.1323 15.6724 51.3774 15.7474C51.3774 15.7474 51.3794 15.7494 51.3815 15.7494C51.9941 16.1063 52.4454 16.7045 52.6006 17.4142C52.6455 17.5946 52.6659 17.7832 52.6659 17.9738Z" fill="#FEFEFE"/>
<path d="M55.2643 9.04357C55.101 9.11454 54.7865 9.25243 54.5782 9.33556C54.5823 9.50792 54.5843 9.75327 54.5843 9.85668V12.3933C54.5843 12.4704 54.5925 12.5292 54.6721 12.5738C55.0601 12.7705 55.2235 13.103 55.2235 13.5288C55.2194 13.979 55.2194 14.4332 55.2194 14.8894C55.2194 14.9867 55.2194 15.0232 55.1765 15.0354C55.152 15.0476 55.1152 15.0476 55.0581 15.0476H53.7941C53.7941 14.5913 53.7941 14.1392 53.7961 13.6829C53.7961 13.5511 53.8165 13.4315 53.8614 13.324C53.935 13.1111 54.0902 12.9428 54.3209 12.8232C54.4046 12.7786 54.4414 12.7259 54.4414 12.6306C54.4373 11.7445 54.4373 10.8584 54.4373 9.97226C54.4373 9.93779 54.4353 9.90534 54.4312 9.86276C54.3781 9.88101 54.3332 9.89926 54.2944 9.91548C54.1657 9.97023 54.0391 10.025 53.9105 10.0777V9.73907C53.9105 9.7046 53.9064 9.67216 53.9023 9.62958C53.8492 9.64783 53.8043 9.66608 53.7655 9.6823C53.3979 9.84046 53.0365 9.99253 52.6689 10.1507V12.7137C52.0052 12.3893 51.2742 12.1865 50.5023 12.1318C50.3634 12.1216 50.2205 12.1176 50.0796 12.1176C49.3526 12.1176 48.6604 12.2494 48.0171 12.4866V10.39C47.8415 10.3149 47.6639 10.2399 47.4883 10.1649C46.9839 9.94995 46.4795 9.73704 45.9731 9.52211C45.7873 9.44303 45.6014 9.36395 45.4176 9.28487C45.3931 9.2727 45.3707 9.26054 45.338 9.24229C45.3237 9.23215 45.3053 9.22606 45.2849 9.2139C45.3564 9.17943 45.4013 9.15712 45.4483 9.13685C45.7137 9.0233 45.9812 8.90974 46.2508 8.79619C46.359 8.75158 46.4672 8.70292 46.5755 8.65831L46.5775 8.65628C47.8579 8.11083 49.1403 7.56335 50.4227 7.01588C50.5268 6.97127 50.6207 6.94896 50.7331 6.9956C51.5968 7.36464 52.4586 7.73368 53.3203 8.10069C54.0105 8.39471 54.7028 8.6867 55.3909 8.98071C55.395 8.98274 55.3971 8.98477 55.4011 8.9868C55.346 9.01113 55.299 9.03141 55.2643 9.04357Z" fill="#FEFEFE"/>
<path d="M33.502 8.45106C32.6403 6.86946 31.4743 5.47846 30.0408 4.30848C29.6589 3.99216 29.2566 3.69409 28.836 3.41021C27.0083 2.42069 24.903 1.69681 22.5628 1.27302C20.9701 0.983057 19.267 0.833008 17.4659 0.833008H6.43896C3.25748 0.833008 0.996948 3.07767 0.996948 6.23682V40.3487C0.996948 41.8411 1.44824 43.1348 2.24667 44.1203C2.45904 44.3879 2.69796 44.6333 2.96138 44.8522C3.09003 44.905 3.21868 44.9557 3.35345 45.0003C4.00078 45.2213 4.71549 45.3369 5.48329 45.3369C6.46755 45.3369 7.36809 45.1361 8.15018 44.7651C9.83895 43.9722 10.9825 42.3947 11.2275 40.3589C11.2643 40.0831 11.2806 39.8013 11.2806 39.5093V31.3681H16.0181C16.5307 31.3681 17.0351 31.3559 17.5292 31.3295C28.2683 30.8105 35.2439 24.697 35.2439 15.5744C35.2439 12.9242 34.6353 10.5254 33.502 8.45106ZM11.2786 22.0326V10.1746H17.0065C18.6809 10.1746 20.0859 10.6633 21.1007 11.523C21.6644 11.7582 22.1626 12.0705 22.5894 12.4537C22.9651 12.7924 23.2878 13.1817 23.541 13.6217C24.0045 14.4125 24.2557 15.3574 24.2557 16.4158C24.2557 19.7859 21.9216 22.0326 18.3889 22.0326H11.2786Z" fill="#FEFEFE"/>
<path d="M117.783 1.40978C117.746 1.37733 117.712 1.34692 117.675 1.31853C116.993 1.0306 116.225 0.864325 115.394 0.842021C115.323 0.839993 115.253 0.837965 115.182 0.837965C111.814 0.837965 109.433 3.20429 109.433 6.6169L109.431 9.38268L109.417 28.0456L108.051 25.8983L103.254 18.2315L100.02 13.0589L97.0177 8.25933L96.252 7.0346C94.9287 5.06774 93.7117 3.52466 92.3313 2.47432C91.8677 2.11947 91.3858 1.8214 90.8753 1.5801C90.2647 1.29014 89.6133 1.08332 88.9027 0.963682C88.4126 0.878519 87.898 0.835938 87.3467 0.835938C83.281 0.835938 80.5447 3.34217 80.5447 8.0079V40.3801C80.5447 40.5646 80.5528 40.7471 80.5651 40.9255C80.6917 42.5598 81.386 43.9184 82.4866 44.843C82.6133 44.8957 82.7399 44.9464 82.8726 44.989C83.3361 45.1451 83.8364 45.2486 84.3612 45.2952C84.5634 45.3114 84.7717 45.3216 84.982 45.3216C88.3473 45.3216 90.7303 42.9552 90.7303 39.5426V20.1903L90.7058 18.994L93.2808 22.7107L93.9915 23.7388L96.689 27.634L105.223 39.9624C106.55 41.8704 107.771 43.4135 109.211 44.4841C109.356 44.5551 109.503 44.62 109.654 44.6808C110.671 45.0965 111.816 45.3175 113.164 45.3175C117.021 45.3175 119.615 42.6044 119.615 38.1455V5.77743C119.619 3.95859 118.939 2.43579 117.783 1.40978Z" fill="#FEFEFE"/>
<path d="M65.7702 59.6145C65.5864 59.6145 65.4884 59.5415 65.3536 59.359L63.4994 56.8467H62.2967V59.2475C62.2967 59.4543 62.1374 59.6003 61.9291 59.6003C61.7208 59.6003 61.5718 59.4543 61.5718 59.2475V51.5423C61.5718 51.3354 61.7188 51.1895 61.9291 51.1895C62.1374 51.1895 62.2967 51.3354 62.2967 51.5423V56.1999H63.4994L65.3169 53.9694C65.4271 53.8113 65.5374 53.7261 65.7089 53.7261C66.0152 53.7261 66.1378 54.0059 65.9662 54.2391L64.1243 56.4939L66.0397 59.0671C66.2378 59.3448 66.054 59.6145 65.7702 59.6145Z" fill="white"/>
<path d="M72.2987 56.3821C72.2987 56.674 72.1272 56.8565 71.8189 56.8565H67.3631C67.4489 58.1016 68.3699 59.0748 69.6706 59.0748C70.8734 59.0748 71.2553 58.4665 71.5371 58.4665C71.7086 58.4665 71.8189 58.576 71.8189 58.7342C71.8189 59.1357 70.8979 59.7217 69.6461 59.7217C67.8777 59.7217 66.626 58.3449 66.626 56.6619C66.626 54.9789 67.8165 53.6143 69.4991 53.6143C71.2675 53.6163 72.2987 55.0296 72.2987 56.3821ZM67.3631 56.3334H71.5738C71.4513 55.0296 70.5916 54.2489 69.4869 54.2489C68.3331 54.2489 67.4979 55.1513 67.3631 56.3334Z" fill="white"/>
<path d="M73.8592 51.1895C74.0675 51.1895 74.2268 51.3354 74.2268 51.5443V59.2495C74.2268 59.4564 74.0675 59.6024 73.8592 59.6024C73.651 59.6024 73.5039 59.4564 73.5039 59.2495V51.5443C73.5019 51.3354 73.6489 51.1895 73.8592 51.1895Z" fill="white"/>
<path d="M81.4226 54.0908V59.2472C81.4226 59.454 81.2756 59.6 81.0673 59.6C80.8468 59.6 80.6998 59.454 80.6998 59.2472V58.4179C80.2199 59.1985 79.4235 59.7217 78.4045 59.7217C76.7709 59.7217 75.5314 58.3814 75.5314 56.6619C75.5314 54.9546 76.7464 53.6143 78.4045 53.6143C79.4235 53.6143 80.2219 54.1131 80.6998 54.8937V54.0887C80.6998 53.8819 80.8468 53.7359 81.0673 53.7359C81.2756 53.7379 81.4226 53.8839 81.4226 54.0908ZM80.6998 56.6517C80.6998 55.3358 79.7788 54.2875 78.4903 54.2875C77.2018 54.2875 76.2563 55.3358 76.2563 56.6517C76.2563 57.9677 77.2018 59.0546 78.4903 59.0546C79.7788 59.0525 80.6998 57.9677 80.6998 56.6517Z" fill="white"/>
<path d="M84.9207 59.7236C83.6076 59.7236 82.6132 59.0159 82.6132 58.6022C82.6132 58.4076 82.7479 58.3224 82.9195 58.3224C83.238 58.3224 83.6444 59.1031 84.9819 59.1031C85.8539 59.1031 86.3562 58.6874 86.3562 58.0791C86.3562 56.4934 82.8194 57.2619 82.8194 55.1775C82.8194 54.2873 83.5933 53.6182 84.8819 53.6182C85.9498 53.6182 86.8218 54.117 86.8218 54.484C86.8218 54.6543 86.6993 54.7516 86.54 54.7516C86.2092 54.7516 85.8151 54.2407 84.8328 54.2407C84.0344 54.2407 83.5321 54.63 83.5321 55.1552C83.5321 56.6192 87.0689 55.9115 87.0689 58.0446C87.0689 59.0281 86.2725 59.7236 84.9207 59.7236Z" fill="white"/>
<path d="M95.2146 52.216C95.2146 52.6682 95.5781 53.0291 96.0212 53.0291C96.4766 53.0291 96.8401 52.6682 96.8401 52.216C96.8401 51.776 96.4766 51.415 96.0212 51.415C95.5781 51.415 95.2146 51.776 95.2146 52.216Z" fill="#FFD600"/>
<path d="M94.4225 56.6556C94.4225 58.4602 93.1544 59.7073 91.6188 59.7073C90.851 59.7073 90.2527 59.4051 89.8259 58.9083V61.3294C89.8259 61.7654 89.5216 62.0797 89.0826 62.0797C88.6313 62.0797 88.327 61.7654 88.327 61.3294V54.4515C88.327 54.0155 88.6313 53.7134 89.0826 53.7134C89.4849 53.7134 89.7769 53.9689 89.8259 54.3562C90.2404 53.8715 90.8387 53.5938 91.6188 53.5938C93.2279 53.5938 94.4225 54.9138 94.4225 56.6556ZM92.9236 56.6677C92.9236 55.7228 92.2784 54.9726 91.3758 54.9726C90.4855 54.9726 89.8259 55.7228 89.8259 56.6677C89.8259 57.5883 90.4855 58.3264 91.3758 58.3264C92.2763 58.3284 92.9236 57.5883 92.9236 56.6677Z" fill="white"/>
<path d="M96.0355 59.589C95.5965 59.589 95.2922 59.2869 95.2922 58.8509V54.4549C95.2922 54.0189 95.5965 53.7168 96.0233 53.7168C96.4746 53.7168 96.7788 54.0189 96.7788 54.4549V58.8509C96.7788 59.2849 96.4746 59.589 96.0355 59.589Z" fill="white"/>
<path d="M103.291 56.0392V58.8475C103.291 59.2835 102.986 59.5856 102.547 59.5856C102.108 59.5856 101.792 59.2835 101.792 58.8475V56.2561C101.792 55.4694 101.328 54.9726 100.609 54.9726C99.8784 54.9726 99.4272 55.4694 99.4272 56.2561V58.8475C99.4272 59.2835 99.1229 59.5856 98.6838 59.5856C98.2448 59.5856 97.9406 59.2835 97.9406 58.8475V54.4515C97.9406 54.0155 98.2448 53.7134 98.6716 53.7134C99.0861 53.7134 99.3659 53.9567 99.4149 54.3318C99.7804 53.8594 100.354 53.5938 101.061 53.5938C102.413 53.5937 103.291 54.5265 103.291 56.0392Z" fill="white"/>
<path d="M107.71 58.1459C108.112 58.1459 108.319 58.4116 108.319 58.7035C108.319 59.2591 107.71 59.7073 106.746 59.7073C105.539 59.7073 104.771 58.9813 104.771 57.564V55.0577H104.234C103.844 55.0577 103.577 54.7921 103.577 54.3927C103.577 54.0175 103.844 53.7499 104.234 53.7499H104.784V52.9631C104.784 52.515 105.088 52.2129 105.515 52.2129C105.966 52.2129 106.27 52.515 106.27 52.9631V53.7499H107.369C107.747 53.7499 108.014 54.0155 108.014 54.4048C108.014 54.7921 107.747 55.0577 107.369 55.0577H106.295V57.7343C106.295 58.1703 106.491 58.3284 106.82 58.3284C107.148 58.3284 107.428 58.1459 107.71 58.1459Z" fill="white"/>
<path d="M114.493 54.4535V58.8495C114.493 59.2855 114.189 59.5876 113.75 59.5876C113.323 59.5876 113.019 59.3098 112.994 58.9104C112.58 59.4072 111.982 59.7093 111.214 59.7093C109.666 59.7093 108.408 58.4623 108.408 56.6454C108.408 54.9016 109.59 53.5938 111.214 53.5938C111.982 53.5938 112.58 53.8715 112.994 54.3562C113.043 53.9689 113.335 53.7134 113.75 53.7134C114.189 53.7134 114.493 54.0175 114.493 54.4535ZM112.994 56.6454C112.994 55.7127 112.347 54.9746 111.459 54.9746C110.556 54.9746 109.899 55.7127 109.899 56.6454C109.899 57.5782 110.558 58.3284 111.459 58.3284C112.347 58.3284 112.994 57.5761 112.994 56.6454Z" fill="white"/>
<path d="M119.621 54.3937C119.621 54.8297 119.316 55.0953 118.89 55.0953C118.657 55.0953 118.402 55.0223 118.061 55.0223C117.523 55.0223 117.17 55.4218 117.17 56.0402V58.8486C117.17 59.2845 116.866 59.5866 116.427 59.5866C115.988 59.5866 115.684 59.2845 115.684 58.8486V54.4525C115.684 54.0166 115.988 53.7144 116.415 53.7144C116.841 53.7144 117.133 53.9801 117.17 54.3674C117.487 53.9192 117.975 53.5928 118.622 53.5928C119.108 53.5948 119.621 53.8483 119.621 54.3937Z" fill="white"/>
<path d="M50.0824 55.4966V59.3167C50.0824 59.481 49.9619 59.6027 49.8026 59.6027C49.6372 59.6027 49.5147 59.483 49.5147 59.3167V59.114C49.2778 59.4485 48.9082 59.6655 48.4426 59.6655C47.6136 59.6655 46.9622 58.9883 46.9622 58.0697C46.9622 57.1694 47.587 56.48 48.4426 56.48C48.9082 56.48 49.2799 56.6828 49.5147 57.0133V55.4986C49.5147 55.3344 49.6291 55.2188 49.8026 55.2188C49.968 55.2167 50.0824 55.3323 50.0824 55.4966ZM49.5147 58.0677C49.5147 57.4715 49.1063 57.0032 48.5264 57.0032C47.9525 57.0032 47.5319 57.4715 47.5319 58.0677C47.5319 58.6578 47.9525 59.1383 48.5264 59.1383C49.1063 59.1383 49.5147 58.6578 49.5147 58.0677Z" fill="white"/>
<path d="M54.0812 56.8211V59.3233C54.0812 59.4875 53.9669 59.6031 53.7994 59.6031C53.6279 59.6031 53.5115 59.4896 53.5115 59.3233V59.1144C53.2767 59.449 52.905 59.666 52.4395 59.666C51.6104 59.666 50.959 58.9887 50.959 58.0702C50.959 57.1699 51.5838 56.4805 52.4395 56.4805C52.905 56.4805 53.2767 56.6832 53.5115 57.0138V56.8231C53.5115 56.6589 53.6259 56.5454 53.7994 56.5454C53.9649 56.5413 54.0812 56.6569 54.0812 56.8211ZM53.5115 58.0682C53.5115 57.472 53.1031 57.0036 52.5232 57.0036C51.9494 57.0036 51.5267 57.472 51.5267 58.0682C51.5267 58.6582 51.9473 59.1388 52.5232 59.1388C53.1031 59.1388 53.5115 58.6582 53.5115 58.0682Z" fill="white"/>
<path d="M56.9983 56.802C56.9983 56.9601 56.8901 57.0615 56.7247 57.0615C56.6226 57.0615 56.5082 57.0169 56.3224 57.0169C55.9711 57.0169 55.7486 57.3028 55.7486 57.7509V59.3224C55.7486 59.4866 55.6281 59.6002 55.4668 59.6002C55.2952 59.6002 55.1788 59.4866 55.1788 59.3224V56.8202C55.1788 56.656 55.2932 56.5424 55.4606 56.5424C55.626 56.5424 55.7486 56.656 55.7486 56.8202V56.9216C55.914 56.6621 56.1753 56.4775 56.5204 56.4775C56.7349 56.4775 56.9983 56.5728 56.9983 56.802Z" fill="white"/>
<path d="M58.2968 55.6788C58.2968 55.8694 58.1375 56.0276 57.9456 56.0276C57.7475 56.0276 57.5944 55.8694 57.5944 55.6788C57.5944 55.4882 57.7475 55.3301 57.9456 55.3301C58.1375 55.3321 58.2968 55.4903 58.2968 55.6788ZM57.9517 59.6024C57.7802 59.6024 57.6638 59.4889 57.6638 59.3246V56.8225C57.6638 56.6582 57.7781 56.5447 57.9435 56.5447C58.109 56.5447 58.2315 56.6582 58.2315 56.8225V59.3246C58.2335 59.4889 58.113 59.6024 57.9517 59.6024Z" fill="white"/>
<defs>
<linearGradient id="paint0_linear_12159_674602" x1="49.4627" y1="52.2026" x2="50.9535" y2="-7.38233" gradientUnits="userSpaceOnUse">
<stop offset="1.24826e-07" stop-color="#8738FF"/>
<stop offset="0.5979" stop-color="#B892FF"/>
<stop offset="1" stop-color="#D7CBFF"/>
</linearGradient>
<linearGradient id="paint1_linear_12159_674602" x1="49.1978" y1="52.1957" x2="50.6886" y2="-7.38898" gradientUnits="userSpaceOnUse">
<stop offset="1.24826e-07" stop-color="#8738FF"/>
<stop offset="0.5979" stop-color="#B892FF"/>
<stop offset="1" stop-color="#D7CBFF"/>
</linearGradient>
<linearGradient id="paint2_linear_12159_674602" x1="56.4854" y1="-6.07396" x2="57.4454" y2="46.5587" gradientUnits="userSpaceOnUse">
<stop stop-color="#E9EB7B"/>
<stop offset="0.1842" stop-color="#EAE776" stop-opacity="0.8158"/>
<stop offset="0.4065" stop-color="#ECDD67" stop-opacity="0.5935"/>
<stop offset="0.6485" stop-color="#F0CB4F" stop-opacity="0.3515"/>
<stop offset="0.9029" stop-color="#F5B32D" stop-opacity="0.0971"/>
<stop offset="1" stop-color="#F7A81E" stop-opacity="0"/>
</linearGradient>
<linearGradient id="paint3_linear_12159_674602" x1="49.1978" y1="52.1957" x2="50.6886" y2="-7.38898" gradientUnits="userSpaceOnUse">
<stop offset="1.24826e-07" stop-color="#8738FF"/>
<stop offset="0.5979" stop-color="#B892FF"/>
<stop offset="1" stop-color="#D7CBFF"/>
</linearGradient>
<linearGradient id="paint4_linear_12159_674602" x1="48.9657" y1="52.1903" x2="50.4565" y2="-7.39435" gradientUnits="userSpaceOnUse">
<stop offset="1.24826e-07" stop-color="#8738FF"/>
<stop offset="0.5979" stop-color="#B892FF"/>
<stop offset="1" stop-color="#D7CBFF"/>
</linearGradient>
</defs>
</svg>
