<svg width="164" height="63" viewBox="0 0 164 63" fill="none" xmlns="http://www.w3.org/2000/svg">
<g filter="url(#filter0_d_1893_370639)">
<path d="M27.9459 45.7681C27.7775 45.7681 27.6933 45.6839 27.567 45.5576L25.9249 43.2839H24.8302V45.4312C24.8302 45.5997 24.7039 45.7681 24.4933 45.7681C24.3249 45.7681 24.1565 45.6418 24.1565 45.4312V38.526C24.1565 38.3576 24.2828 38.1892 24.4933 38.1892C24.6618 38.1892 24.8302 38.3155 24.8302 38.526V42.6944H25.9249L27.567 40.6734C27.6512 40.5471 27.7775 40.4629 27.9038 40.4629C28.1986 40.4629 28.2828 40.7155 28.1143 40.926L26.4723 42.9471L28.1986 45.2628C28.3249 45.5576 28.1986 45.7681 27.9459 45.7681Z" fill="white"/>
<path d="M33.7573 42.8631C33.7573 43.1157 33.5889 43.2841 33.3362 43.2841H29.3363C29.4205 44.421 30.2205 45.2631 31.3994 45.2631C32.4941 45.2631 32.831 44.7157 33.0836 44.7157C33.252 44.7157 33.3362 44.7999 33.3362 44.9683C33.3362 45.3473 32.4941 45.8525 31.3994 45.8525C29.7994 45.8525 28.7047 44.6315 28.7047 43.1157C28.7047 41.5999 29.7573 40.3789 31.2731 40.3789C32.831 40.3789 33.7573 41.6421 33.7573 42.8631ZM29.3363 42.821H33.0836C32.9573 41.642 32.1994 40.9263 31.231 40.9263C30.2205 40.9684 29.4626 41.7684 29.3363 42.821Z" fill="white"/>
<path d="M35.1443 38.1893C35.3128 38.1893 35.4812 38.3156 35.4812 38.5262V45.4735C35.4812 45.6419 35.3549 45.8103 35.1443 45.8103C34.9759 45.8103 34.8075 45.684 34.8075 45.4735V38.5262C34.8075 38.3156 34.9759 38.1893 35.1443 38.1893Z" fill="white"/>
<path d="M41.9245 40.8V45.4315C41.9245 45.5999 41.7982 45.7683 41.5877 45.7683C41.3772 45.7683 41.2509 45.642 41.2509 45.4315V44.6736C40.8298 45.3894 40.114 45.8525 39.1877 45.8525C37.714 45.8525 36.6193 44.6315 36.6193 43.1157C36.6193 41.5999 37.714 40.3789 39.1877 40.3789C40.114 40.3789 40.8298 40.8421 41.2509 41.5157V40.8C41.2509 40.6315 41.3772 40.4631 41.5877 40.4631C41.7561 40.5052 41.9245 40.6315 41.9245 40.8ZM41.2509 43.1157C41.2509 41.9368 40.4088 40.9684 39.2719 40.9684C38.1351 40.9684 37.293 41.8947 37.293 43.1157C37.293 44.3368 38.1351 45.2631 39.2719 45.2631C40.4509 45.2631 41.2509 44.2947 41.2509 43.1157Z" fill="white"/>
<path d="M45.0387 45.8942C43.8598 45.8942 42.9756 45.2626 42.9756 44.8836C42.9756 44.7152 43.1019 44.631 43.2703 44.631C43.5651 44.631 43.9019 45.3468 45.1229 45.3468C45.8808 45.3468 46.344 44.9679 46.344 44.4205C46.344 42.9889 43.1861 43.7047 43.1861 41.81C43.1861 41.01 43.8598 40.4205 45.0387 40.4205C46.0071 40.4205 46.765 40.8837 46.765 41.1784C46.765 41.3468 46.6387 41.431 46.5124 41.431C46.2177 41.431 45.8808 40.9679 44.9966 40.9679C44.2808 40.9679 43.8177 41.3047 43.8177 41.81C43.8177 43.1152 46.9755 42.4837 46.9755 44.4205C46.9334 45.2626 46.2177 45.8942 45.0387 45.8942Z" fill="white"/>
<path d="M54.2206 39.1154C54.2206 39.5365 54.5574 39.8312 54.9364 39.8312C55.3574 39.8312 55.6521 39.4944 55.6521 39.1154C55.6521 38.7365 55.3153 38.3997 54.9364 38.3997C54.5574 38.3997 54.2206 38.7365 54.2206 39.1154Z" fill="#FFD600"/>
<path d="M53.5046 43.1157C53.5046 44.7578 52.3677 45.8525 51.0204 45.8525C50.3467 45.8525 49.7994 45.5999 49.4204 45.1367V47.3262C49.4204 47.7051 49.1678 47.9999 48.7467 47.9999C48.3257 47.9999 48.0731 47.7051 48.0731 47.3262V41.1368C48.0731 40.7578 48.3257 40.4631 48.7467 40.4631C49.1257 40.4631 49.3783 40.6736 49.4204 41.0526C49.7994 40.6315 50.3046 40.3789 51.0204 40.3789C52.452 40.3789 53.5046 41.5578 53.5046 43.1157ZM52.1993 43.1157C52.1993 42.2736 51.6099 41.5999 50.8099 41.5999C50.0099 41.5999 49.4204 42.2736 49.4204 43.1157C49.4204 43.9578 50.0099 44.5894 50.8099 44.5894C51.6099 44.6315 52.1993 43.9578 52.1993 43.1157Z" fill="white"/>
<path d="M54.9353 45.7682C54.5563 45.7682 54.2616 45.5156 54.2616 45.0945V41.1367C54.2616 40.7577 54.5142 40.463 54.9353 40.463C55.3563 40.463 55.6089 40.7156 55.6089 41.1367V45.0945C55.6089 45.4735 55.3563 45.7682 54.9353 45.7682Z" fill="white"/>
<path d="M61.4213 42.5682V45.0945C61.4213 45.4735 61.1687 45.7682 60.7477 45.7682C60.3687 45.7682 60.074 45.5156 60.074 45.0945V42.7787C60.074 42.063 59.6529 41.6419 59.0214 41.6419C58.3477 41.6419 57.9688 42.1051 57.9688 42.7787V45.0945C57.9688 45.4735 57.7161 45.7682 57.2951 45.7682C56.9161 45.7682 56.6214 45.5156 56.6214 45.0945V41.1367C56.6214 40.7577 56.874 40.463 57.2951 40.463C57.674 40.463 57.9266 40.6735 57.9688 41.0103C58.3056 40.5893 58.8109 40.3367 59.4424 40.3367C60.6635 40.3788 61.4213 41.2209 61.4213 42.5682Z" fill="white"/>
<path d="M65.3781 44.4629C65.7571 44.4629 65.9255 44.7155 65.9255 44.9682C65.9255 45.4734 65.3781 45.8524 64.536 45.8524C63.4413 45.8524 62.7676 45.1787 62.7676 43.9155V41.684H62.2624C61.9255 41.684 61.6729 41.4314 61.6729 41.0945C61.6729 40.7577 61.9255 40.5051 62.2624 40.5051H62.7676V39.7893C62.7676 39.3682 63.0203 39.1156 63.4413 39.1156C63.8624 39.1156 64.115 39.3682 64.115 39.7893V40.5051H65.0834C65.4202 40.5051 65.6729 40.7577 65.6729 41.0945C65.6729 41.4314 65.4202 41.684 65.0834 41.684H64.115V44.084C64.115 44.4629 64.2834 44.6313 64.5781 44.6313C64.8729 44.6313 65.1255 44.4629 65.3781 44.4629Z" fill="white"/>
<path d="M71.4401 41.1363V45.0942C71.4401 45.4731 71.1875 45.7678 70.7665 45.7678C70.3875 45.7678 70.0928 45.5152 70.0928 45.1784C69.7138 45.6415 69.2086 45.8942 68.4928 45.8942C67.1033 45.8942 66.0086 44.7573 66.0086 43.1573C66.0086 41.5995 67.0612 40.4205 68.4928 40.4205C69.1665 40.4205 69.7138 40.6732 70.0928 41.0942C70.1349 40.7574 70.3875 40.5047 70.7665 40.5047C71.1875 40.4626 71.4401 40.7574 71.4401 41.1363ZM70.0928 43.1152C70.0928 42.2731 69.5033 41.5995 68.7033 41.5995C67.9033 41.5995 67.3139 42.2731 67.3139 43.1152C67.3139 43.9573 67.9033 44.631 68.7033 44.631C69.5033 44.631 70.0928 43.9573 70.0928 43.1152Z" fill="white"/>
<path d="M76.0295 41.0946C76.0295 41.4735 75.7769 41.7261 75.3559 41.7261C75.1453 41.7261 74.9348 41.6419 74.598 41.6419C74.1348 41.6419 73.798 42.0209 73.798 42.5682V45.0945C73.798 45.4735 73.5454 45.7682 73.1243 45.7682C72.7454 45.7682 72.4506 45.5156 72.4506 45.0945V41.1367C72.4506 40.7577 72.7033 40.463 73.1243 40.463C73.5032 40.463 73.7559 40.7156 73.798 41.0525C74.0927 40.6314 74.5138 40.3367 75.1032 40.3367C75.5664 40.3788 76.0295 40.5893 76.0295 41.0946Z" fill="white"/>
<path d="M13.9267 42.063V45.5156C13.9267 45.684 13.8004 45.7682 13.6741 45.7682C13.5056 45.7682 13.4214 45.6419 13.4214 45.5156V45.3472C13.2109 45.6419 12.8741 45.8525 12.453 45.8525C11.6951 45.8525 11.1478 45.263 11.1478 44.4209C11.1478 43.6209 11.6951 42.9893 12.453 42.9893C12.8741 42.9893 13.2109 43.1577 13.4214 43.4525V42.1051C13.4214 41.9367 13.5056 41.8525 13.6741 41.8525C13.8004 41.8104 13.9267 41.9367 13.9267 42.063ZM13.4214 44.3788C13.4214 43.8314 13.0425 43.4104 12.5372 43.4104C12.032 43.4104 11.653 43.8314 11.653 44.3788C11.653 44.9261 12.032 45.3472 12.5372 45.3472C13.0425 45.3472 13.4214 44.9261 13.4214 44.3788Z" fill="white"/>
<path d="M17.4646 43.2837V45.5153C17.4646 45.6837 17.3804 45.7679 17.212 45.7679C17.0435 45.7679 16.9593 45.6837 16.9593 45.5153V45.3469C16.7488 45.6416 16.412 45.8521 15.9909 45.8521C15.233 45.8521 14.6857 45.2627 14.6857 44.4206C14.6857 43.6206 15.233 42.989 15.9909 42.989C16.412 42.989 16.7488 43.1574 16.9593 43.4522V43.2837C16.9593 43.1153 17.0435 43.0311 17.212 43.0311C17.3804 43.0311 17.4646 43.1153 17.4646 43.2837ZM16.9593 44.3785C16.9593 43.8311 16.5804 43.4101 16.0751 43.4101C15.5699 43.4101 15.1909 43.8311 15.1909 44.3785C15.1909 44.9258 15.5699 45.3469 16.0751 45.3469C16.6225 45.3469 16.9593 44.9258 16.9593 44.3785Z" fill="white"/>
<path d="M20.0744 43.2417C20.0744 43.368 19.9902 43.4943 19.8218 43.4943C19.7376 43.4943 19.6112 43.4522 19.4428 43.4522C19.1481 43.4522 18.9376 43.7049 18.9376 44.1259V45.5575C18.9376 45.7259 18.8113 45.8101 18.6849 45.8101C18.5165 45.8101 18.4323 45.7259 18.4323 45.5575V43.3259C18.4323 43.1575 18.5165 43.0733 18.6849 43.0733C18.8534 43.0733 18.9376 43.1575 18.9376 43.3259V43.4101C19.106 43.1575 19.3165 43.0312 19.6112 43.0312C19.8639 42.947 20.0744 43.0312 20.0744 43.2417Z" fill="white"/>
<path d="M21.2549 42.2313C21.2549 42.3997 21.1286 42.526 20.9601 42.526C20.7917 42.526 20.6654 42.3997 20.6654 42.2313C20.6654 42.0628 20.7917 41.9365 20.9601 41.9365C21.1286 41.9365 21.2549 42.0628 21.2549 42.2313ZM20.9601 45.7681C20.7917 45.7681 20.7075 45.6839 20.7075 45.5154V43.2839C20.7075 43.1155 20.7917 43.0312 20.9601 43.0312C21.1286 43.0312 21.2128 43.1155 21.2128 43.2839V45.5154C21.2128 45.6839 21.0865 45.7681 20.9601 45.7681Z" fill="white"/>
<path d="M46.8101 22.358L46.0943 22.8212C45.1259 23.4528 43.9469 23.3265 43.3996 22.4423C42.8101 21.5581 43.2312 20.4633 44.1996 19.7897L45.0838 19.2002C45.9259 18.6107 46.3469 18.1055 46.3469 17.3897C46.3469 16.6318 45.7575 16.0423 44.9575 16.0423C43.3996 16.0423 43.0628 17.5581 41.5891 17.5581C40.4101 17.5581 39.8207 16.7581 39.8207 15.8318C39.8207 14.0213 42.2628 12.0845 45.1259 12.0845C48.6627 12.0845 50.5153 14.5266 50.5153 17.0949C50.5153 19.116 49.6311 20.5475 46.8101 22.358ZM47.8206 26.9896C47.8206 28.4211 46.6417 29.558 45.2101 29.558C43.7785 29.558 42.6417 28.4211 42.6417 26.9896C42.6417 25.558 43.7785 24.3791 45.2101 24.3791C46.6838 24.3791 47.8206 25.558 47.8206 26.9896Z" fill="#FFD600"/>
<path d="M25.9693 25.8524C28.4113 25.8524 29.6324 27.5365 29.6324 29.2628C29.6324 32.5891 26.3061 34.9891 21.2956 34.9891C15.2746 34.9891 11.2747 31.1997 11.2747 23.7471V15.3262H9.33787C7.0221 15.3262 5.42212 13.6841 5.42212 11.3683C5.42212 9.09464 7.0221 7.45255 9.33787 7.45255H11.3168V4.50521C11.3168 1.85261 13.1694 0 15.7799 0C18.4746 0 20.2851 1.85261 20.2851 4.50521V7.45255H24.0324C26.3061 7.45255 27.9482 9.05253 27.9482 11.4104C27.9482 13.6841 26.3482 15.3262 24.0324 15.3262H20.4114V24.926C20.4114 26.2734 20.9588 26.6523 21.843 26.6523C22.8956 26.6102 24.4114 25.8524 25.9693 25.8524Z" fill="#FFD600"/>
<path d="M117.842 13.2211L109.379 36.4629C106.811 43.4102 102.811 45.9365 97.9689 45.9365C93.4216 45.9365 90.0111 43.8734 90.0111 40.4629C90.0111 38.5682 91.3585 36.7998 93.8426 36.7998C95.6953 36.7998 96.6637 37.5155 98.3479 37.5155C99.7373 37.5155 100.706 36.6734 101.506 34.6103L91.7374 13.7684C89.8848 9.81057 92.4111 7.20007 95.5689 7.20007C98.39 7.20007 99.4005 8.96847 100.579 11.7053L105.379 23.1157L109.421 11.3684C110.348 8.58953 111.611 7.20007 114.137 7.20007C117.042 7.20007 119.232 9.43163 117.842 13.2211Z" fill="#FFD600"/>
<path d="M55.6981 15.2843C55.0244 15.2843 54.3507 15.1159 53.8033 14.8211L53.0033 14.9474L51.3192 15.2001L52.2034 13.0948C51.9086 12.5054 51.7823 11.8738 51.7823 11.2001C51.7823 8.84224 53.5086 7.03174 55.7823 7.03174C58.0559 7.03174 59.7822 8.80014 59.7822 11.2001C59.698 13.5159 57.9717 15.2843 55.6981 15.2843Z" fill="#FFD600"/>
<path d="M88.2824 18.2315V29.9366C88.2824 32.6313 86.4298 34.4418 83.8193 34.4418C81.1246 34.4418 79.3141 32.5892 79.3141 29.9366V19.4525C79.3141 16.7578 77.7562 15.0315 75.3983 15.0315C72.9984 15.0315 71.4405 16.7578 71.4405 19.4525V29.9366C71.4405 32.6313 69.5879 34.4418 66.9774 34.4418C64.2827 34.4418 62.4722 32.5892 62.4722 29.9366V11.7052C62.4722 9.01051 64.3248 7.20001 66.9353 7.20001C68.8721 7.20001 70.43 8.21052 71.1037 9.81051C72.6615 7.74737 75.2299 6.65264 78.3457 6.65264C84.4509 6.61054 88.2824 10.9894 88.2824 18.2315Z" fill="#FFD600"/>
<path d="M58.7262 30.9469L57.2946 27.4943C58.3051 25.4733 58.8104 23.1996 58.8104 20.8839C58.8104 19.2839 58.5998 17.7681 58.1367 16.3366C57.463 16.6313 56.7051 16.7997 55.9472 16.7997C55.9051 16.7997 55.9051 16.7997 55.863 16.7997C56.2841 18.0629 56.4946 19.4523 56.4946 20.926C56.4946 23.0733 55.9893 25.1365 54.9788 26.947C54.8104 27.2838 54.8104 27.6627 54.9367 27.9575C54.9788 27.9996 54.9788 28.0417 54.9788 28.0417L56.4946 31.6627L54.8946 31.4522C54.8525 31.4522 54.8104 31.4522 54.7683 31.4522L51.6104 31.0311C51.3578 30.989 51.1052 31.0311 50.8526 31.1996C49.0842 32.2522 47.1473 32.7574 45.0421 32.7574C38.558 32.7574 33.6738 27.6627 33.6738 20.8839C33.6738 14.0629 38.558 8.884 45.0421 8.884C46.9368 8.884 48.7473 9.34715 50.2631 10.1471C50.3473 9.34715 50.642 8.58927 51.021 7.91559C49.2526 7.03139 47.1894 6.56824 45.0421 6.56824C37.2527 6.56824 31.358 12.7155 31.358 20.8418C31.358 28.9259 37.2527 34.989 45.0421 34.989C47.4 34.989 49.6736 34.3995 51.6526 33.3048L54.5578 33.6837C54.5999 33.6837 54.5999 33.6837 54.642 33.6837L56.1578 33.8943C56.9999 34.0206 57.842 33.6837 58.3472 33.0101C58.9367 32.4627 59.0209 31.6627 58.7262 30.9469Z" fill="white"/>
<path d="M144.031 7.20007C142.178 7.20007 140.788 8.04217 140.031 9.43163C138.304 7.66323 135.904 6.65271 132.746 6.65271C125.462 6.65271 120.115 12.6737 120.115 20.842C120.115 29.4314 125.968 34.9892 132.746 34.9892C135.862 34.9892 138.262 33.8945 139.988 32.0419C140.662 33.4735 142.178 34.4419 144.073 34.4419C146.767 34.4419 148.578 32.5893 148.578 29.9367V11.7053C148.578 9.01058 146.725 7.20007 144.031 7.20007ZM134.304 26.5683C131.315 26.5683 129.083 24.042 129.083 20.842C129.083 17.5579 131.315 15.0316 134.304 15.0316C137.294 15.0316 139.525 17.5579 139.525 20.842C139.525 24.0841 137.294 26.5683 134.304 26.5683Z" fill="#FFD600"/>
</g>
<defs>
<filter id="filter0_d_1893_370639" x="0.422119" y="-5" width="163.156" height="67.9999" filterUnits="userSpaceOnUse" color-interpolation-filters="sRGB">
<feFlood flood-opacity="0" result="BackgroundImageFix"/>
<feColorMatrix in="SourceAlpha" type="matrix" values="0 0 0 0 0 0 0 0 0 0 0 0 0 0 0 0 0 0 127 0" result="hardAlpha"/>
<feOffset dx="5" dy="5"/>
<feGaussianBlur stdDeviation="5"/>
<feComposite in2="hardAlpha" operator="out"/>
<feColorMatrix type="matrix" values="0 0 0 0 0 0 0 0 0 0 0 0 0 0 0 0 0 0 0.24 0"/>
<feBlend mode="normal" in2="BackgroundImageFix" result="effect1_dropShadow_1893_370639"/>
<feBlend mode="normal" in="SourceGraphic" in2="effect1_dropShadow_1893_370639" result="shape"/>
</filter>
</defs>
</svg>
