<svg width="56" height="56" viewBox="0 0 56 56" fill="none" xmlns="http://www.w3.org/2000/svg">
<g clip-path="url(#clip0_1893_370846)">
<path d="M11.2765 62.6402C4.96306 59.3068 -1.44111 54.5365 -4.27596 47.9749C-7.07143 41.3673 -6.30407 32.9094 -3.45858 25.6981C-0.613092 18.4869 -0.92521 8.16658 4.94724 5.0498C10.8197 1.93302 23.1711 3.03569 28.3228 6.01264C34.7099 9.70356 35.2952 18.0622 41.3662 21.0543C47.4373 24.0005 58.3468 25.0681 61.6681 30.2846C64.9893 35.5011 64.2165 39.7466 60.382 45.1468C56.5935 50.5011 49.9409 53.2308 44.4353 56.9119C38.8903 60.6323 34.4464 65.2583 29.1328 66.5903C23.8193 67.9223 17.59 65.9735 11.2765 62.6402Z" fill="#FFCE00"/>
<path opacity="0.8" d="M35.6321 24.7824C39.0838 27.9824 42.3481 32.113 43.0338 36.7753C43.6865 41.4601 41.7546 46.7153 38.7121 50.822C35.6695 54.9287 34.1073 61.5541 29.8358 62.5369C25.5643 63.5197 17.8868 60.7099 15.1142 57.9351C11.6765 54.4948 12.7301 49.072 9.3745 46.1306C6.01105 43.2185 -0.754132 40.6771 -1.97904 36.7885C-3.20394 32.8998 -1.98735 30.3281 1.37596 27.5434C4.70217 24.7801 9.40445 24.177 13.5386 22.7723C17.7046 21.3492 21.3238 19.1616 24.9349 19.22C28.546 19.2785 32.1803 21.5824 35.6321 24.7824Z" fill="#FFE784"/>
<path opacity="0.8" d="M27.7334 45.2922C26.6879 49.8815 24.7429 54.7738 21.0481 57.6987C17.3173 60.6064 11.8002 61.5609 6.7224 60.9794C1.64463 60.3978 -4.87426 62.3576 -7.86112 59.1497C-10.848 55.9419 -12.2534 47.8881 -11.2366 44.0995C-9.97607 39.4023 -4.75302 37.6033 -3.88352 33.2266C-3.04329 28.8577 -4.22495 21.7282 -1.46971 18.7231C1.28552 15.7179 4.121 15.4857 8.21425 17.006C12.2704 18.505 15.1438 22.2757 18.4275 25.1537C21.7429 28.05 25.447 30.0905 27.2019 33.247C28.9569 36.4035 28.7788 40.7029 27.7334 45.2922Z" fill="#FFF7D7"/>
<g style="mix-blend-mode:overlay">
<path d="M23.2273 13.2045C23.8422 13.2045 24.3409 13.7033 24.3409 14.3182C24.3409 13.7033 24.8397 13.2045 25.4546 13.2045C24.8397 13.2045 24.3409 12.7058 24.3409 12.0909C24.3409 12.7058 23.8422 13.2045 23.2273 13.2045Z" fill="#002E6D"/>
</g>
<g style="mix-blend-mode:overlay">
<path d="M22.2727 31.3409C22.8876 31.3409 23.3863 31.8397 23.3863 32.4545C23.3863 31.8397 23.8851 31.3409 24.5 31.3409C23.8851 31.3409 23.3863 30.8422 23.3863 30.2273C23.3863 30.8422 22.8876 31.3409 22.2727 31.3409Z" fill="#002E6D"/>
</g>
<g style="mix-blend-mode:overlay">
<path d="M18.4546 9.38636C20.4734 9.38636 22.1137 11.0266 22.1137 13.0455C22.1137 11.0266 23.754 9.38636 25.7728 9.38636C23.754 9.38636 22.1137 7.74608 22.1137 5.72727C22.1137 7.74608 20.4734 9.38636 18.4546 9.38636Z" fill="#002E6D"/>
</g>
<g style="mix-blend-mode:overlay">
<path d="M45.1818 40.8864C46.6739 40.8864 47.8863 42.0987 47.8863 43.5909C47.8863 42.0987 49.0987 40.8864 50.5909 40.8864C49.0987 40.8864 47.8863 39.674 47.8863 38.1818C47.8863 39.674 46.6739 40.8864 45.1818 40.8864Z" fill="#002E6D"/>
</g>
<g style="mix-blend-mode:overlay">
<path d="M44.2273 44.8636C44.7539 44.8636 45.1818 45.2915 45.1818 45.8182C45.1818 45.2915 45.6097 44.8636 46.1364 44.8636C45.6097 44.8636 45.1818 44.4357 45.1818 43.9091C45.1818 44.4357 44.7539 44.8636 44.2273 44.8636Z" fill="#002E6D"/>
</g>
<rect x="29.6008" y="9.21842" width="15.1782" height="18.5855" rx="1.27273" transform="rotate(-2.53912 29.6008 9.21842)" fill="#E7EBEE"/>
<rect x="28.9546" y="8.62695" width="15.1782" height="18.5855" rx="1.27273" transform="rotate(-2.53912 28.9546 8.62695)" fill="white"/>
<g clip-path="url(#clip1_1893_370846)">
<path fill-rule="evenodd" clip-rule="evenodd" d="M33.9017 14.016C33.9898 13.7555 34.1408 13.5207 34.3414 13.3326C34.542 13.1445 34.786 13.0089 35.0516 12.9377L37.1277 12.3814C37.3933 12.3102 37.6724 12.3058 37.9402 12.3684C38.2079 12.431 38.4561 12.5587 38.6627 12.7403L39.2751 13.2789C39.3439 13.3393 39.4267 13.3819 39.5159 13.4027C39.6052 13.4236 39.6982 13.422 39.7867 13.3983L40.2869 13.2643C40.7148 13.1496 41.1708 13.2096 41.5545 13.4312C41.9381 13.6527 42.2181 14.0175 42.3328 14.4455L43.6298 19.2861C43.7445 19.714 43.6844 20.17 43.4629 20.5536C43.2414 20.9373 42.8766 21.2173 42.4486 21.332L34.9188 23.3496C34.4909 23.4642 34.0349 23.4042 33.6512 23.1827C33.2675 22.9612 32.9876 22.5963 32.8729 22.1684L31.5759 17.3278C31.4612 16.8998 31.5212 16.4439 31.7428 16.0602C31.9643 15.6765 32.3291 15.3966 32.7571 15.2819L33.2573 15.1479C33.3458 15.1242 33.4271 15.079 33.494 15.0163C33.5608 14.9536 33.6112 14.8754 33.6406 14.7886L33.9015 14.0154L33.9017 14.016ZM36.4551 18.3262C36.3786 18.0409 36.4187 17.737 36.5663 17.4812C36.714 17.2254 36.9573 17.0387 37.2426 16.9623C37.5278 16.8859 37.8318 16.9259 38.0876 17.0736C38.3434 17.2212 38.53 17.4645 38.6065 17.7498C38.6829 18.0351 38.6429 18.339 38.4952 18.5948C38.3475 18.8506 38.1043 19.0372 37.819 19.1137C37.5337 19.1901 37.2298 19.1501 36.974 19.0024C36.7182 18.8548 36.5315 18.6115 36.4551 18.3262ZM36.9543 15.8866C36.3837 16.0395 35.8973 16.4128 35.6019 16.9244C35.3066 17.4359 35.2265 18.0439 35.3794 18.6145C35.5323 19.185 35.9056 19.6715 36.4171 19.9669C36.9287 20.2622 37.5367 20.3423 38.1072 20.1894C38.6778 20.0365 39.1643 19.6632 39.4597 19.1516C39.755 18.6401 39.835 18.0321 39.6822 17.4615C39.5293 16.891 39.156 16.4045 38.6444 16.1091C38.1329 15.8138 37.5249 15.7337 36.9543 15.8866Z" fill="#007BE0"/>
</g>
<path d="M19.9653 24.4672H12.2279V28.7647H19.9653V24.4672Z" fill="#CADCEF"/>
<path d="M11.7327 26.4922L12.2013 27.5091L19.1694 27.5975L19.6204 26.5275L18.2586 23.8835L12.6965 24.2815" fill="#CADCEF"/>
<path d="M12.7761 24.7855L12.6346 27.1377L10.4681 28.0573L12.334 31.338L20.6019 30.1265L18.7096 29.1715L18.2409 27.1907L17.7457 24.4672" fill="#FBC6B6"/>
<path d="M11.3967 27.8274C11.3967 27.8274 13.457 31.2584 16.1275 31.1523C17.4362 31.0992 18.7184 28.3757 20.3101 27.5179L26.3143 57.1057L26.3497 62.88C26.3497 62.88 14.1202 66.5763 5.51624 62.6147L5.64004 51.1015L11.3967 27.8274Z" fill="#EBF4FF"/>
<path d="M11.3967 27.8274C11.3967 27.8274 13.457 31.2584 16.1275 31.1523C17.4362 31.0992 18.7184 28.3757 20.3101 27.5179L26.3143 57.1057L26.3497 62.88C26.3497 62.88 14.1202 66.5763 5.51624 62.6147L5.64004 51.1015L11.3967 27.8274Z" stroke="#191708" stroke-width="0.191215" stroke-miterlimit="10" stroke-linecap="round" stroke-linejoin="round"/>
<path d="M18.5416 24.5114C18.5416 24.5114 18.4443 26.3949 19.4347 26.9255C19.4347 26.9255 17.9845 29.8966 17.9491 30.3299C17.9137 30.7632 18.0375 31.0992 18.0375 32.0631C18.0375 33.0181 18.7449 37.7224 18.6212 37.9435C18.4974 38.1646 18.1879 46.5475 18.8422 51.2164C19.4966 55.8854 19.6469 62.0488 20.0183 62.0488C20.3897 62.0488 21.0352 61.0319 22.8038 60.9346C24.5635 60.8373 25.713 60.8108 26.6061 59.9442C27.4993 59.0776 28.525 58.3083 28.6134 57.9634C28.7019 57.6274 28.7019 55.797 28.7019 55.797C28.7019 55.797 30.3731 54.3733 31.1778 52.4544C31.9825 50.5356 31.452 42.3649 30.7092 38.8101C29.9664 35.2553 29.9045 31.0462 29.0379 30.551C28.1713 30.0558 23.2813 28.7913 22.0168 27.3322C20.7434 25.882 20.5312 24.9535 19.8503 24.6706C19.1959 24.3876 18.5416 24.5114 18.5416 24.5114Z" fill="#2DBFE8"/>
<path d="M18.6389 24.5114C18.6389 24.5114 18.5504 26.3949 19.532 26.9255C19.532 26.9255 18.0818 29.8966 18.0464 30.3299C18.011 30.7632 18.1348 31.0992 18.1348 32.0631C18.1348 33.0181 18.8422 37.7224 18.7184 37.9435C18.5946 38.1646 18.2852 46.5475 18.9395 51.2164C19.585 55.8854 19.7442 62.0488 20.1156 62.0488C20.487 62.0488 21.1325 61.0319 22.9011 60.9346C24.6608 60.8373 25.8103 60.8108 26.7034 59.9442C27.5965 59.0776 28.6223 58.3083 28.7107 57.9634C28.808 57.6274 28.808 55.797 28.808 55.797C28.808 55.797 30.4793 54.3733 31.284 52.4544C32.0887 50.5356 31.5581 42.3649 30.8241 38.8101C30.0814 35.2553 30.0195 31.0462 29.1529 30.551C28.2863 30.0558 23.3962 28.7913 22.1317 27.3322C20.8672 25.882 20.6462 24.9535 19.9653 24.6706C19.2932 24.3876 18.6389 24.5114 18.6389 24.5114Z" stroke="#0D94C9" stroke-width="0.213349" stroke-miterlimit="10" stroke-linecap="round"/>
<path d="M12.3871 24.5733C12.3871 24.5733 10.9988 25.0066 10.7158 25.5902C10.4417 26.1827 9.32748 28.2165 9.32748 28.2165C9.32748 28.2165 3.07567 31.506 2.76617 32.3107C2.45668 33.1154 -0.231512 49.6424 0.0160845 50.5975C0.263681 51.5525 3.42054 55.6997 3.42054 55.6997L3.08451 57.9546C3.08451 57.9546 4.41092 60.9523 6.70119 61.6951C8.99146 62.4379 9.73425 62.093 9.73425 62.093L10.256 56.9289C10.256 56.9289 11.6178 56.5575 12.1129 54.0196C12.6081 51.4817 13.9964 45.8489 14.0318 44.2749C14.0583 42.692 14.2794 37.5633 13.7223 35.6444C13.1652 33.7255 12.5462 30.3211 12.7319 29.4545C12.9176 28.5879 11.7415 26.7044 11.7415 26.7044C11.7415 26.7044 12.2633 26.1827 12.3871 24.5733Z" fill="#2DBFE8"/>
<path d="M12.3871 24.5733C12.3871 24.5733 10.9988 25.0066 10.7158 25.5902C10.4417 26.1827 9.32748 28.2165 9.32748 28.2165C9.32748 28.2165 3.07567 31.506 2.76617 32.3107C2.45668 33.1154 -0.231512 49.6424 0.0160845 50.5975C0.263681 51.5525 3.42054 55.6997 3.42054 55.6997L3.08451 57.9546C3.08451 57.9546 4.41092 60.9523 6.70119 61.6951C8.99146 62.4379 9.73425 62.093 9.73425 62.093L10.256 56.9289C10.256 56.9289 11.6178 56.5575 12.1129 54.0196C12.6081 51.4817 13.9964 45.8489 14.0318 44.2749C14.0583 42.692 14.2794 37.5633 13.7223 35.6444C13.1652 33.7255 12.5462 30.3211 12.7319 29.4545C12.9176 28.5879 11.7415 26.7044 11.7415 26.7044C11.7415 26.7044 12.2633 26.1827 12.3871 24.5733Z" stroke="#0D94C9" stroke-width="0.213349" stroke-miterlimit="10" stroke-linecap="round"/>
<path d="M2.76611 32.3107C2.76611 32.3107 5.09175 33.6725 5.68422 36.343" stroke="#0D94C9" stroke-width="0.213349" stroke-miterlimit="10" stroke-linecap="round"/>
<path d="M10.7069 25.599C10.7069 25.599 11.3436 26.218 11.6973 26.8193C11.6973 26.8193 12.2986 25.6698 12.2986 24.6086C12.2986 24.6086 11.0429 25.1392 10.7069 25.599Z" fill="#1148B7"/>
<path d="M19.6028 27.005C19.6028 27.005 20.1422 25.7317 20.6462 25.3161C20.6462 25.3161 20.2129 24.3522 18.7362 24.5821C18.7362 24.5821 18.5682 26.2446 19.6028 27.005Z" fill="#1148B7"/>
<path d="M29.1618 30.551C29.1618 30.551 27.2517 31.9481 27.2517 37.0592C27.2517 42.1703 27.0483 48.3868 27.0483 48.3868" stroke="#0D94C9" stroke-width="0.213349" stroke-miterlimit="10" stroke-linecap="round"/>
<path d="M25.8722 49.0677C25.8722 49.0677 28.5339 51.6232 28.8257 55.797" stroke="#0D94C9" stroke-width="0.213349" stroke-miterlimit="10" stroke-linecap="round"/>
<path d="M12.0865 24.6617C12.0865 24.6617 10.8927 24.3522 9.94652 25.5018C9.00035 26.6513 9.14183 26.7928 8.38136 27.4383C7.62088 28.0839 7.78005 29.0742 8.46978 29.764C9.15952 30.4537 11.0961 31.2849 12.4755 31.4706C13.855 31.6563 15.3317 31.8155 15.4467 32.461L16.6405 32.5318C16.6405 32.5318 16.2249 30.0381 14.8985 29.2776C13.572 28.5171 12.1749 27.5533 12.4313 25.2011" fill="#EBF4FF"/>
<path d="M17.6662 24.9712C17.6662 24.9712 18.9396 25.8732 19.1518 26.9078C19.3552 27.9424 18.0995 28.6498 17.6308 28.7913C17.1622 28.9328 16.3044 29.5164 16.0568 30.3653C15.8092 31.2142 16.8173 32.3991 16.8173 32.3991C16.8173 32.3991 17.0207 31.0904 19.1783 30.7632C21.336 30.436 22.6977 28.6586 22.8038 27.9158C22.91 27.1731 22.512 26.4656 21.557 25.7759C20.602 25.0862 20.7081 24.4318 20.0184 24.1665C19.3287 23.9101 17.8254 23.8924 17.8254 23.8924" fill="#EBF4FF"/>
<path d="M11.9007 24.6882C11.9007 24.6882 10.6539 24.2992 9.69004 25.8201C8.72618 27.3411 9.14179 26.5983 8.2133 27.6152C7.29366 28.6321 8.399 30.1 10.424 30.9312C11.6089 31.4176 12.7938 31.4087 13.6958 31.5237" stroke="#191708" stroke-width="0.191215" stroke-miterlimit="10" stroke-linecap="round" stroke-linejoin="round"/>
<path d="M12.5992 26.8812C12.5992 26.8812 12.9706 28.4022 14.3943 28.9504C15.818 29.4987 15.9595 30.6571 15.9595 30.6571C15.9595 30.6571 16.2778 29.1804 17.5689 28.8178C18.8599 28.4464 19.2755 27.3411 19.0898 26.7486C18.9041 26.1473 18.2586 25.5548 18.2586 25.5548" stroke="#191708" stroke-width="0.191215" stroke-miterlimit="10" stroke-linecap="round" stroke-linejoin="round"/>
<path d="M16.8792 32.2665C16.8792 32.2665 17.2948 31.0196 18.5858 30.8428C19.8768 30.6571 22.3174 29.7374 22.733 28.0838C23.1486 26.4303 21.3978 26.0146 20.938 25.095C20.4781 24.1754 19.2313 23.7332 18.4089 24.193" stroke="#191708" stroke-width="0.191215" stroke-miterlimit="10" stroke-linecap="round" stroke-linejoin="round"/>
<path d="M9.97302 27.0846C9.97302 27.0846 10.0172 28.4199 13.8815 29.7109" stroke="#191708" stroke-width="0.191215" stroke-miterlimit="10" stroke-linecap="round" stroke-linejoin="round"/>
<path d="M27.2783 39.8359C27.2783 39.8359 23.9003 40.8086 18.4797 41.065C18.4532 42.4798 18.4444 44.2307 18.4886 45.9816C21.3094 45.8489 24.369 45.4598 27.3136 44.6109L27.2783 39.8359Z" fill="#0D94C9"/>
<path d="M14.0938 41.1004C12.0069 41.0296 8.73509 40.5344 6.32103 40.163C6.32103 40.163 5.88773 42.8866 5.56055 44.8674C5.56055 44.8674 9.62821 45.8224 13.802 45.9904C13.9346 45.2565 14.0142 44.664 14.023 44.2837C14.0407 43.6559 14.0849 42.4445 14.0938 41.1004Z" fill="#0D94C9"/>
<path d="M6.45367 39.0842L4.97693 48.3426" stroke="#0D94C9" stroke-width="0.213349" stroke-miterlimit="10" stroke-linecap="round"/>
<path d="M6.51542 48.6786C6.51542 48.6786 4.09251 51.9681 3.41162 55.7086" stroke="#0D94C9" stroke-width="0.213349" stroke-miterlimit="10" stroke-linecap="round"/>
<path d="M4.07495 46.9277L5.82581 49.6867" stroke="#0D94C9" stroke-width="0.213349" stroke-miterlimit="10" stroke-linecap="round"/>
<path d="M9.03578 15.5714C9.03578 15.5714 8.79702 14.1477 10.9281 12.3526C13.0681 10.5487 16.4814 10.7875 19.0369 11.6894L18.639 13.1662L19.3199 12.5825C19.3199 12.5825 20.4517 13.8736 20.2218 15.6067C19.9919 17.3399 19.6294 18.9051 19.6294 18.9051C19.6294 18.9051 18.3649 13.8824 15.0488 14.6606C11.724 15.4387 9.92889 16.7386 9.92889 16.7386L10.1057 21.5225C10.1057 21.5225 8.16918 18.9493 7.87737 18.012C7.46177 16.6767 9.03578 15.5714 9.03578 15.5714Z" fill="#002E6D"/>
<path d="M9.76094 20.0546C9.76094 20.0546 8.19577 18.4453 7.46183 20.0104C6.66598 21.7082 10.2827 23.3618 10.2827 23.3618" fill="#FAC8BB"/>
<path d="M18.7627 19.2765C18.7627 19.2765 19.868 17.3222 20.9734 18.6487C22.176 20.09 19.0899 22.6014 19.0899 22.6014" fill="#F38F6F"/>
<path d="M9.03582 20.09C9.03582 20.09 8.38145 19.5683 8.00122 20.1431C7.62098 20.7178 8.27534 21.1954 8.27534 21.1954" stroke="#FF7F66" stroke-width="0.278688" stroke-miterlimit="10" stroke-linecap="round"/>
<path d="M16.057 26.8016L15.2965 26.8812C12.4226 27.173 9.79631 24.6617 9.46029 21.3103L9.18616 18.5867C8.89435 15.7217 10.6717 13.175 13.1212 12.9274L14.6333 12.7771C17.0916 12.5295 19.3376 14.6694 19.6206 17.5345L19.9831 21.1423C20.2838 24.0073 18.5152 26.554 16.057 26.8016Z" fill="#FAC8BB"/>
<path d="M10.5214 24.3787C10.5214 24.3787 12.343 27.3322 15.7739 26.7751" stroke="#FF7F66" stroke-width="0.278688" stroke-miterlimit="10" stroke-linecap="round"/>
<path d="M19.762 19.2676C19.762 19.2676 19.5675 16.7298 18.3383 16.0489C18.3383 16.0489 16.8704 16.9066 14.2176 17.1542C11.724 17.393 11.3968 17.3134 10.7247 16.9774C10.5125 16.8713 10.1853 16.6856 10.1853 16.6856L10.6275 17.6317C10.6275 17.6317 9.42486 20.1519 9.6194 21.9912L8.02771 18.2861L10.371 13.8559L14.3503 11.5391L16.5698 12.4234L20.213 15.3857" fill="#002E6D"/>
<path d="M13.42 21.6094C13.7875 21.5299 14.011 21.121 13.9191 20.6962C13.8272 20.2714 13.4548 19.9914 13.0873 20.0709C12.7197 20.1504 12.4962 20.5592 12.5881 20.9841C12.68 21.4089 13.0524 21.6888 13.42 21.6094Z" fill="white"/>
<path d="M13.4071 21.4093C13.6887 21.3484 13.8601 21.0359 13.7899 20.7113C13.7197 20.3867 13.4345 20.173 13.1529 20.2339C12.8713 20.2948 12.6999 20.6073 12.7701 20.9319C12.8403 21.2565 13.1255 21.4702 13.4071 21.4093Z" fill="#213469"/>
<path d="M11.9715 18.4099C12.3164 18.2065 13.3067 17.729 13.5897 18.2861C13.8196 18.7282 12.6259 18.9581 12.1749 18.9935C11.7239 19.0289 11.5559 18.6575 11.9715 18.4099Z" fill="#002E6D"/>
<path d="M17.627 20.772C17.9745 20.6282 18.1214 20.1861 17.9553 19.7845C17.7891 19.3829 17.3727 19.1738 17.0253 19.3176C16.6778 19.4614 16.5308 19.9035 16.697 20.3051C16.8632 20.7067 17.2795 20.9157 17.627 20.772Z" fill="white"/>
<path d="M17.5041 20.6519C17.7703 20.5418 17.8832 20.2037 17.7563 19.8969C17.6293 19.59 17.3106 19.4306 17.0443 19.5407C16.7781 19.6509 16.6652 19.9889 16.7921 20.2958C16.9191 20.6026 17.2378 20.7621 17.5041 20.6519Z" fill="#213469"/>
<path d="M17.6664 17.4284C17.2684 17.3576 16.1808 17.2427 16.1012 17.8705C16.0393 18.3657 17.2331 18.1711 17.6752 18.0562C18.1173 17.9236 18.1439 17.5168 17.6664 17.4284Z" fill="#002E6D"/>
<path d="M15.4202 20.9566C15.9508 21.4606 16.6228 22.3361 15.9508 23.1142C15.8447 23.238 15.6413 23.1938 15.5971 23.0346L15.0842 21.16C15.0312 20.9654 15.2699 20.8151 15.4202 20.9566Z" fill="#FF8D76"/>
<path d="M14.0231 23.8393C14.0231 23.8393 14.6421 24.7855 15.9508 24.2991" stroke="#FF7F66" stroke-width="0.278688" stroke-miterlimit="10" stroke-linecap="round"/>
<path d="M9.301 15.6156C9.301 15.6156 8.06302 15.368 7.51477 16.0135" stroke="#002E6D" stroke-width="0.300167" stroke-miterlimit="10" stroke-linecap="round"/>
</g>
<defs>
<clipPath id="clip0_1893_370846">
<rect width="56" height="56" rx="28" fill="white"/>
</clipPath>
<clipPath id="clip1_1893_370846">
<rect width="13.3636" height="13.3636" fill="white" transform="translate(29.2031 12.7754) rotate(-15)"/>
</clipPath>
</defs>
</svg>
