<svg width="56" height="56" viewBox="0 0 56 56" fill="none" xmlns="http://www.w3.org/2000/svg">
<g clip-path="url(#clip0_1893_370826)">
<path d="M11.2765 62.6402C4.96306 59.3068 -1.44111 54.5365 -4.27596 47.9749C-7.07143 41.3673 -6.30407 32.9094 -3.45858 25.6981C-0.613092 18.4869 -0.92521 8.16658 4.94724 5.0498C10.8197 1.93302 23.1711 3.03569 28.3228 6.01264C34.7099 9.70356 35.2952 18.0622 41.3662 21.0543C47.4373 24.0005 58.3468 25.0681 61.6681 30.2846C64.9893 35.5011 64.2165 39.7466 60.382 45.1468C56.5935 50.5011 49.9409 53.2308 44.4353 56.9119C38.8903 60.6323 34.4464 65.2583 29.1328 66.5903C23.8193 67.9223 17.59 65.9735 11.2765 62.6402Z" fill="#FFCE00"/>
<path opacity="0.8" d="M35.6321 24.7824C39.0838 27.9824 42.3481 32.113 43.0338 36.7753C43.6865 41.4601 41.7546 46.7153 38.7121 50.822C35.6695 54.9287 34.1073 61.5541 29.8358 62.5369C25.5643 63.5197 17.8868 60.7099 15.1142 57.9351C11.6765 54.4948 12.7301 49.072 9.3745 46.1306C6.01105 43.2185 -0.754132 40.6771 -1.97904 36.7885C-3.20394 32.8998 -1.98735 30.3281 1.37596 27.5434C4.70217 24.7801 9.40445 24.177 13.5386 22.7723C17.7046 21.3492 21.3238 19.1616 24.9349 19.22C28.546 19.2785 32.1803 21.5824 35.6321 24.7824Z" fill="#FFE784"/>
<path opacity="0.8" d="M27.7334 45.2922C26.6879 49.8815 24.7429 54.7738 21.0481 57.6987C17.3173 60.6064 11.8002 61.5609 6.7224 60.9794C1.64463 60.3978 -4.87426 62.3576 -7.86112 59.1497C-10.848 55.9419 -12.2534 47.8881 -11.2366 44.0995C-9.97607 39.4023 -4.75302 37.6033 -3.88352 33.2266C-3.04329 28.8577 -4.22495 21.7282 -1.46971 18.7231C1.28552 15.7179 4.121 15.4857 8.21425 17.006C12.2704 18.505 15.1438 22.2757 18.4275 25.1537C21.7429 28.05 25.447 30.0905 27.2019 33.247C28.9569 36.4035 28.7788 40.7029 27.7334 45.2922Z" fill="#FFF7D7"/>
<path d="M17.0022 14.9502C17.0022 14.9502 13.5624 14.1367 10.9095 17.1255C8.25671 20.1144 9.29131 23.5454 8.11523 25.4377C6.97452 27.277 5.98413 28.0198 5.98413 28.0198C5.98413 28.0198 10.5558 30.9025 13.5535 30.929C16.56 30.9644 15.8084 31.3358 15.8084 31.3358C15.8084 31.3358 21.1759 31.3004 24.2355 30.2747C24.2355 30.2747 22.7411 26.7553 23.0241 24.0671C23.2982 21.3877 22.6969 18.0363 21.0256 16.8072" fill="#002E6D"/>
<path d="M4.69306 56.0778C4.69306 56.0778 3.14558 67.1842 4.22439 73.6041C5.30321 80.0239 5.48006 84.9935 5.41816 87.6109C5.36511 90.1046 5.71882 102.927 6.48813 106.216C6.55003 106.472 6.7711 106.649 7.02754 106.676C7.97371 106.747 10.3436 106.817 12.2182 106.101C12.51 105.986 12.7046 105.703 12.6957 105.394C12.625 102.67 12.3067 89.6536 12.51 88.6898C12.7399 87.6198 12.5631 87.1423 12.5631 86.3111C12.5631 85.4798 12.793 68.4311 12.961 68.4311C13.129 68.4311 13.527 68.4311 13.5888 68.7848C13.6419 69.1385 13.7569 86.1342 13.7569 86.6117C13.7569 87.0892 13.9868 88.8136 13.9868 89.5829C13.9868 90.2549 13.8541 101.857 13.8276 104.863C13.8188 105.288 14.1106 105.65 14.5173 105.747C15.6404 106.013 17.9837 106.826 19.487 106.481C19.8672 106.393 20.1413 106.066 20.1502 105.677C20.2209 104.058 20.4597 99.1419 20.9725 94.9858C21.6004 89.9366 20.9018 87.1423 21.0167 86.6117C21.1317 86.0812 21.229 84.6928 21.061 84.569C20.8929 84.4541 23.1832 74.7978 23.5458 72.03C25.1375 59.8801 21.5473 55.7683 21.5473 55.7683C21.5473 55.7683 21.3616 56.1485 13.4739 56.3254C5.58618 56.4845 4.69306 56.0778 4.69306 56.0778Z" fill="#558AF0"/>
<path d="M26.2251 57.3246L27.7018 56.8471C27.9406 56.7763 28.0732 56.5376 28.0025 56.3165C27.9406 56.1131 27.7195 55.9893 27.4896 56.0424L26.2339 56.3342C26.0836 56.3696 25.951 56.4757 25.8979 56.6171L25.7211 57.0947" fill="#F38F6F"/>
<path d="M5.66572 53.8671L5.36506 53.9378C4.7107 55.7152 2.72993 64.4076 4.14477 73.6483C5.26779 81.0054 5.40044 85.0908 5.34738 87.7082C5.29432 90.2107 5.83373 102.829 6.50578 106.154C6.64726 106.879 7.66418 106.738 7.66418 106.738C7.66418 106.738 6.28471 93.1819 6.50578 89.123C6.72685 85.0642 6.52346 79.3341 5.48002 72.4545C4.63996 66.9101 6.08133 57.6871 6.86833 54.4065C5.83373 54.1589 5.87794 54.0793 5.66572 53.8671Z" fill="#EBF4FF"/>
<path d="M19.1332 54.937C19.8494 56.5022 21.8921 61.295 22.069 65.6456C22.29 70.9335 19.0271 82.4645 19.6018 84.852C20.1855 87.2395 19.3808 101.017 18.8767 103.988C18.3815 106.888 19.1067 106.481 19.1685 106.526C19.1685 106.526 20.2208 106.375 20.1855 105.579C20.1147 103.961 20.4861 99.2745 21.0078 95.1007C21.6357 90.025 20.9371 87.2219 21.0521 86.6913C21.167 86.1607 21.2643 84.7636 21.0963 84.6398C20.9283 84.5248 23.2274 74.8244 23.5899 72.0477C24.9959 61.2065 21.3173 55.0255 21.1582 54.7779C21.1493 54.7956 20.9194 54.8575 19.1332 54.937Z" fill="#EBF4FF"/>
<path d="M21.1582 54.769C21.1582 54.769 21.1582 54.769 21.167 54.7779C21.167 54.769 21.1582 54.769 21.1582 54.769Z" fill="#EBF4FF"/>
<path d="M4.69297 55.6621C4.69297 55.6621 3.2516 67.6617 4.13588 73.5156C5.10858 79.9531 5.47997 84.8166 5.41807 87.4341C5.36502 89.9012 5.67451 102.095 6.44383 106.083C6.51457 106.446 6.82407 106.72 7.19546 106.738C8.26543 106.791 10.5203 106.791 12.3066 106.075C12.5453 105.977 12.6956 105.739 12.6868 105.482C12.6249 102.944 12.3066 89.6536 12.5099 88.6898C12.7399 87.6198 12.563 87.1423 12.563 86.3111C12.563 85.4798 12.7929 68.4311 12.9609 68.4311C13.1289 68.4311 13.5269 68.4311 13.5888 68.7848C13.6418 69.1385 13.7568 86.1342 13.7568 86.6117C13.7568 87.0892 13.9867 88.8136 13.9867 89.5829C13.9867 90.2549 13.854 101.972 13.8275 104.907C13.8187 105.305 14.084 105.668 14.4642 105.792C15.5784 106.154 17.904 106.8 19.4338 106.534C19.8671 106.455 20.1943 106.075 20.2031 105.632C20.2562 103.926 20.4507 99.1684 20.9459 95.1007C21.5737 90.0515 20.9282 87.1246 21.0432 86.594C21.1581 86.0635 21.2819 84.5867 21.1139 84.4629C20.9459 84.3391 23.2273 74.5591 23.6076 71.8001C25.0666 61.2596 21.8479 56.175 21.8479 56.175C21.8479 56.175 21.3792 56.1308 13.4826 56.3165C5.58609 56.4845 4.69297 55.6621 4.69297 55.6621Z" stroke="#1148B7" stroke-width="0.205417" stroke-miterlimit="10" stroke-linecap="round"/>
<path d="M12.9875 28.683L12.4746 31.9459L11.6346 31.5568C11.6346 31.5568 10.4939 34.8906 13.9249 35.2708C17.3558 35.651 18.3639 32.4942 18.3639 32.4942L17.3558 32.4765L17.4 29.2666" fill="#FBC6B6"/>
<path d="M-0.418013 54.716L-0.453384 53.8317C-0.462227 53.6283 -0.303057 53.4515 -0.0908315 53.4426C0.103709 53.4338 0.27172 53.5753 0.298248 53.7698L0.439732 54.8398C0.457418 54.9724 0.404361 55.1051 0.298248 55.1846L-0.0554611 55.4588" fill="#F38F6F"/>
<path d="M4.51612 50.9313L4.98478 52.3284L1.77487 56.0159C1.56265 56.2635 1.23546 56.3696 0.917126 56.2988L-0.0202036 56.0954C-0.2678 56.0424 -0.480026 55.8832 -0.594981 55.6621L-1.41736 54.1235C-1.54115 53.8936 -1.4262 53.6106 -1.1786 53.531C-0.966376 53.4603 -0.727622 53.5576 -0.621509 53.7521L0.0593811 54.9547L2.32312 52.3373L4.51612 50.9313Z" fill="#FBC6B6"/>
<path d="M22.2635 51.3734L21.3262 53.1685L24.147 57.1654C24.3327 57.4307 24.651 57.5722 24.9694 57.5368L25.9244 57.4307C26.172 57.4042 26.4019 57.2627 26.5434 57.0593L27.5161 55.6179C27.6576 55.4057 27.578 55.1139 27.3392 55.0078C27.1358 54.9194 26.8883 54.9813 26.7645 55.167L25.9686 56.2988L23.979 53.4691L22.2635 51.3734Z" fill="#FBC6B6"/>
<path d="M12.059 31.6453C12.059 31.6453 8.37157 29.7175 6.61187 30.5576C4.85216 31.3977 -4.12321 39.197 -5.21087 40.8771C-6.30737 42.5484 1.91638 52.6114 1.91638 52.6114L4.68415 50.9313L0.99673 42.964L5.52421 39.8602C5.52421 39.8602 6.86831 46.9874 5.27661 50.6748C4.60457 52.2223 4.23317 53.2392 4.02979 53.9024C3.82641 54.5479 3.86178 55.2465 4.1359 55.8567C4.33928 56.3076 4.72836 56.6525 5.20587 56.794C6.44385 57.1654 9.0613 57.7844 12.2358 57.5456C16.6837 57.2096 20.2827 57.5456 20.2827 57.5456L22.0336 56.1927C22.3254 55.9716 22.4669 55.6091 22.405 55.2465C22.0336 53.027 20.9283 45.042 23.5103 42.2389L29.5941 45.8909C29.5941 45.8909 24.0232 49.7552 22.2547 51.4265L24.3681 54.0351C24.3681 54.0351 32.5299 50.666 33.874 48.7383C34.2896 48.1458 34.6433 47.6329 34.944 47.1996C35.5453 46.333 35.4745 45.157 34.7671 44.37C33.1843 42.6103 30.3192 39.4799 27.9229 37.0835C24.4034 33.5641 23.0594 32.2996 20.7956 32.22C18.5319 32.1405 18.0278 32.4676 18.0278 32.4676C18.0278 32.4676 16.9137 34.7048 14.4819 34.3688C12.0413 34.0593 12.059 31.6453 12.059 31.6453Z" fill="#EBF4FF"/>
<path d="M12.059 31.716C12.059 31.716 8.37158 29.7883 6.61188 30.6284C4.85218 31.4684 -4.1232 39.2677 -5.21086 40.939C-6.29851 42.6191 1.91639 52.6821 1.91639 52.6821L4.68416 51.002L0.996743 43.0347L5.52422 39.9309C5.52422 39.9309 6.86832 47.0582 5.27663 50.7456C4.45425 52.6556 4.07401 53.7521 3.906 54.3711C3.79105 54.7867 3.82642 55.2377 4.00327 55.6356L4.29508 56.2811C4.39235 56.5022 4.57805 56.6702 4.79912 56.7409C5.78066 57.0681 8.65455 57.8905 12.2359 57.6164C15.7287 57.3511 18.6999 57.5014 19.8141 57.581C20.1236 57.5987 20.4242 57.5103 20.663 57.3246L21.6976 56.5287C22.1928 56.1485 22.4315 55.5295 22.3431 54.9193C21.9275 52.2665 21.0697 44.9713 23.5192 42.3184L29.603 45.9705C29.603 45.9705 23.7933 49.9144 22.0336 51.5945L24.3062 54.1412C24.3062 54.1412 32.5388 50.7544 33.874 48.8267C34.2896 48.2342 34.6433 47.7214 34.944 47.2881C35.5453 46.4215 35.4746 45.2454 34.7671 44.4584C33.1843 42.6987 30.3193 39.5684 27.9229 37.172C24.4035 33.6526 23.0594 32.3881 20.7956 32.3085C18.5319 32.2289 18.0279 32.5561 18.0279 32.5561C18.0279 32.5561 16.8518 34.7756 14.42 34.4396C11.9706 34.1035 12.059 31.716 12.059 31.716Z" stroke="#191708" stroke-width="0.205417" stroke-miterlimit="10" stroke-linecap="round"/>
<path d="M1.47427 44.0163L0.262817 41.4872" stroke="#191708" stroke-width="0.205417" stroke-miterlimit="10" stroke-linecap="round"/>
<path d="M4.55151 36.049C4.55151 36.049 5.34736 38.799 5.61264 40.5499" stroke="#191708" stroke-width="0.205417" stroke-miterlimit="10" stroke-linecap="round"/>
<path d="M24.147 41.6199C24.147 41.6199 23.4484 42.2831 22.9178 43.1497" stroke="#191708" stroke-width="0.205417" stroke-miterlimit="10" stroke-linecap="round"/>
<path d="M11.2278 31.3977C11.2278 31.3977 10.8388 35.0586 14.031 35.5007C17.798 36.0224 19.1509 32.3881 19.1509 32.3881" stroke="#191708" stroke-width="0.205417" stroke-miterlimit="10"/>
<path d="M18.6734 55.8832L16.4539 53.8848" stroke="#191708" stroke-width="0.205417" stroke-miterlimit="10" stroke-linecap="round"/>
<path d="M19.6461 55.0431L19.4692 53.7963" stroke="#191708" stroke-width="0.205417" stroke-miterlimit="10" stroke-linecap="round"/>
<path d="M6.12561 55.3969L6.97451 54.0174" stroke="#191708" stroke-width="0.205417" stroke-miterlimit="10" stroke-linecap="round"/>
<path d="M30.7349 45.2454L28.8779 46.448" stroke="#191708" stroke-width="0.205417" stroke-miterlimit="10" stroke-linecap="round"/>
<path d="M22.8826 50.9401L25.2524 53.6902" stroke="#191708" stroke-width="0.205417" stroke-miterlimit="10" stroke-linecap="round"/>
<path d="M4.22437 50.0558L1.22668 51.736" stroke="#191708" stroke-width="0.205417" stroke-miterlimit="10" stroke-linecap="round"/>
<path d="M10.2552 30.2393C10.2552 30.2393 9.38862 32.6357 12.1829 40.2139C14.9772 47.7921 13.2441 66.8393 12.6516 68.2365C12.6516 68.2365 5.4536 71.5525 2.80963 69.9962C2.80963 69.9962 0.430931 60.057 1.27983 57.2627C1.53627 56.4138 3.91497 52.0897 3.91497 52.0897L1.72197 52.7971C1.72197 52.7971 -4.63596 47.2527 -6.16575 44.3965C-7.69554 41.5403 -6.36913 39.9398 -6.36913 39.9398C-6.36913 39.9398 -1.76207 35.5538 -0.117319 33.7587C1.52743 31.9636 4.69313 30.7256 5.73657 30.0359C6.78001 29.3462 10.2552 30.2393 10.2552 30.2393Z" fill="#F89E1C"/>
<path d="M28.3386 36.9509C28.3386 36.9509 23.0241 44.2639 19.1598 46.0589C15.8526 47.5976 16.1179 59.5176 16.2594 62.8867C16.2771 63.3818 15.941 68.3426 16.4362 68.3249C18.364 68.2807 23.5016 70.0935 25.2082 69.3242C25.2082 69.3242 25.0844 59.1815 25.0225 57.7225C24.9518 56.2634 23.8111 54.8928 23.8111 54.8928C23.8111 54.8928 26.2694 55.0962 29.1963 53.8317C32.1233 52.5672 35.5808 50.9047 36.1732 46.1827C36.4297 44.2727 30.9383 38.8167 28.3386 36.9509Z" fill="#F89E1C"/>
<path d="M1.27978 36.5176C2.67693 34.3865 7.66423 33.2547 7.66423 33.2547C7.62002 31.6276 7.28399 30.4161 7.06293 29.7706C6.51468 29.7706 6.02833 29.8414 5.73652 30.0359C4.69307 30.7256 1.52738 31.9636 -0.117373 33.7587C-1.75328 35.5538 -6.36034 39.9398 -6.36034 39.9398C-6.36034 39.9398 -7.68675 41.5315 -6.15696 44.3965C-4.62717 47.2527 1.73076 52.7971 1.73076 52.7971L3.00411 52.3815C2.70346 51.6829 1.88993 50.1089 0.422034 49.1451C-0.983961 48.2254 -3.3715 44.9094 -4.56527 43.1762C-4.91898 42.6633 -4.63601 41.9648 -4.02586 41.8321C-4.0347 41.8321 -0.117373 38.6399 1.27978 36.5176Z" fill="#EBF4FF"/>
<path d="M28.2678 41.726C28.2678 41.726 31.5219 44.9801 32.5919 46.5099C33.6619 48.0397 33.4585 51.2319 33.4585 51.2319C33.4585 51.2319 35.3243 49.7021 35.6515 48.0397C35.6515 48.0397 34.0598 42.3008 28.8338 39.2766" fill="#EBF4FF"/>
<path d="M10.1579 30.2393C10.1579 30.2393 9.29133 32.6357 12.0856 40.2139C14.8799 47.7921 13.1468 66.8394 12.5543 68.2365C12.5543 68.2365 5.35631 71.5525 2.71234 69.9962C2.71234 69.9962 0.598922 59.721 1.18254 57.2627C1.38593 56.4049 3.81768 52.0897 3.81768 52.0897L1.62468 52.7971C1.62468 52.7971 -4.73325 47.2527 -6.26304 44.3965C-7.79283 41.5403 -6.46642 39.9398 -6.46642 39.9398C-6.46642 39.9398 -1.85936 35.5538 -0.214609 33.7587C1.43014 31.9636 4.59584 30.7256 5.63928 30.0359C6.67388 29.355 10.1579 30.2393 10.1579 30.2393Z" stroke="#D57E02" stroke-width="0.205417" stroke-miterlimit="10" stroke-linecap="round"/>
<path d="M28.2414 36.9509C28.2414 36.9509 22.9269 44.2639 19.0626 46.0589C15.7555 47.5976 16.0207 59.5176 16.1622 62.8867C16.1799 63.3818 15.8439 68.3426 16.3391 68.3249C18.2668 68.2807 23.4044 70.0935 25.1111 69.3242C25.1111 69.3242 25.0226 59.0224 24.9607 57.5545C24.8988 56.0866 23.7139 54.8928 23.7139 54.8928C23.7139 54.8928 26.1722 55.0962 29.0991 53.8317C32.0261 52.5672 35.4836 50.9047 36.0761 46.1827C36.3236 44.2727 30.8323 38.8167 28.2414 36.9509Z" stroke="#D57E02" stroke-width="0.205417" stroke-miterlimit="10" stroke-linecap="round"/>
<path d="M7.39014 30.6549C7.39014 30.6549 8.40705 40.32 7.83227 43.1497C7.83227 43.1497 11.5109 46.3419 12.572 49.6668" stroke="#D57E02" stroke-width="0.205417" stroke-miterlimit="10" stroke-linecap="round"/>
<path d="M23.7227 54.9017L23.7934 48.473" stroke="#D57E02" stroke-width="0.205417" stroke-miterlimit="10" stroke-linecap="round"/>
<path d="M23.3424 42.9817C23.3424 42.9817 23.3424 45.3338 23.1656 45.6875C22.9887 46.0412 23.6519 47.8628 26.2252 47.9955" stroke="#D57E02" stroke-width="0.205417" stroke-miterlimit="10" stroke-linecap="round"/>
<path d="M27.1889 46.6956C27.1889 46.6956 26.0482 46.2623 25.7122 46.616C25.3762 46.9697 25.3143 48.2077 24.9606 48.4553C24.6069 48.7029 24.1382 48.8798 24.1382 48.8798" stroke="#D57E02" stroke-width="0.205417" stroke-miterlimit="10" stroke-linecap="round"/>
<path d="M16.3567 53.4426C16.3567 53.4426 20.7427 45.661 27.7903 42.6368C27.7903 42.6368 28.9222 40.4438 28.9222 38.914" stroke="#D57E02" stroke-width="0.205417" stroke-miterlimit="10" stroke-linecap="round"/>
<path d="M21.795 49.5872C21.795 49.5872 22.1488 51.7625 24.3241 52.5141" stroke="#D57E02" stroke-width="0.205417" stroke-miterlimit="10" stroke-linecap="round"/>
<path d="M19.7788 52.9916C20.0087 53.7079 20.8753 56.007 23.0771 57.4661C23.1656 57.5191 23.2717 57.5191 23.3601 57.4661L23.6784 57.2627C23.8465 57.1566 23.8376 56.9178 23.6696 56.8205C22.8914 56.3784 21.1671 55.1493 20.5835 52.7175C20.5481 52.5583 20.3801 52.4788 20.2298 52.5407L19.9291 52.6733C19.7965 52.7352 19.7346 52.8678 19.7788 52.9916Z" fill="#D57E02"/>
<path d="M7.08065 52.9916C6.85073 53.7079 5.98415 56.007 3.78231 57.4661C3.69388 57.5191 3.58777 57.5191 3.49934 57.4661L3.181 57.2627C3.01299 57.1566 3.02183 56.9178 3.18984 56.8205C3.968 56.3784 5.69234 55.1493 6.27596 52.7175C6.31133 52.5583 6.47934 52.4788 6.62967 52.5407L6.93032 52.6733C7.06296 52.7352 7.12486 52.8678 7.08065 52.9916Z" fill="#D57E02"/>
<path d="M3.96797 40.992C3.96797 40.992 2.96874 42.7871 1.64233 42.7164" stroke="#D57E02" stroke-width="0.205417" stroke-miterlimit="10" stroke-linecap="round"/>
<path d="M-4.4856 41.9559C-4.4856 41.9559 -1.42601 41.2043 0.652032 42.7075C2.73892 44.2108 3.13684 46.5188 4.72853 47.403C6.32023 48.2873 3.81773 52.0897 3.81773 52.0897" stroke="#D57E02" stroke-width="0.205417" stroke-miterlimit="10" stroke-linecap="round"/>
<path d="M3.88842 47.2792C3.88842 47.2792 2.56201 47.7214 1.53625 48.6499" stroke="#D57E02" stroke-width="0.205417" stroke-miterlimit="10" stroke-linecap="round"/>
<path d="M6.0195 45.9086C6.0195 45.9086 5.53315 48.6587 4.95837 49.8083" stroke="#D57E02" stroke-width="0.205417" stroke-miterlimit="10" stroke-linecap="round"/>
<path d="M21.9099 39.4092L24.1206 41.6287" stroke="#191708" stroke-width="0.205417" stroke-miterlimit="10" stroke-linecap="round"/>
<path d="M20.84 40.1785C20.84 40.1785 21.9718 40.8417 22.5024 40.939" stroke="#191708" stroke-width="0.205417" stroke-miterlimit="10" stroke-linecap="round"/>
<path d="M12.8019 50.8429C12.8019 50.8429 13.1998 53.9024 12.9345 57.1566" stroke="#D57E02" stroke-width="0.205417" stroke-miterlimit="10" stroke-linecap="round"/>
<path d="M2.47363 37.34C2.47363 37.34 4.23334 38.4365 4.26871 40.2669" stroke="#D57E02" stroke-width="0.205417" stroke-miterlimit="10" stroke-linecap="round"/>
<path d="M4.99377 40.1608C4.99377 40.1608 5.78962 39.8955 5.993 39.365" stroke="#D57E02" stroke-width="0.205417" stroke-miterlimit="10" stroke-linecap="round"/>
<path d="M15.9411 14.6938C15.9411 14.6938 16.5159 14.2251 16.2064 13.1905C15.8969 12.1559 14.7031 11.3247 13.2441 12.041C11.502 12.8899 10.7239 12.5362 10.7239 12.5362C10.7239 12.5362 10.8477 15.1713 13.5801 15.3835" fill="#002E6D"/>
<path d="M13.6066 15.6046C13.6066 15.6046 13.4828 14.8176 13.7481 14.4992C14.0134 14.1897 16.3832 13.332 17.0553 15.1448" fill="#F89E1C"/>
<path d="M14.765 30.0359L14.7208 30.0271C11.9353 29.4169 10.1579 26.6315 10.7681 23.846L11.7938 19.1682C12.404 16.3827 15.1894 14.6053 17.9749 15.2155L18.0191 15.2243C20.8046 15.8345 22.582 18.6199 21.9718 21.4054L20.9461 26.0832C20.3271 28.8687 17.5504 30.6461 14.765 30.0359Z" fill="#FAC8BB"/>
<path d="M17.1172 23.5365C17.4974 24.0848 17.9219 24.9779 17.1791 25.5438C17.0641 25.6322 16.8873 25.5527 16.8784 25.4023L16.7723 23.6515C16.7635 23.4658 17.0111 23.3773 17.1172 23.5365Z" fill="#FF8D76"/>
<path d="M12.3375 23.6318C12.588 22.382 12.0729 21.2249 11.1871 21.0474C10.3012 20.8699 9.38001 21.7391 9.12954 22.9889C8.87907 24.2387 9.39416 25.3958 10.28 25.5733C11.1659 25.7508 12.0871 24.8816 12.3375 23.6318Z" fill="#FAC8BB"/>
<path d="M10.5736 21.6707C10.5736 21.6707 11.3695 21.768 11.3076 23.174" stroke="#FF7F66" stroke-width="0.248003" stroke-miterlimit="10" stroke-linecap="round" stroke-linejoin="round"/>
<path d="M14.1105 22.3516L14.6234 22.6522" stroke="#002E6D" stroke-width="0.422143" stroke-miterlimit="10" stroke-linecap="round"/>
<path d="M15.3246 23.297C15.3608 22.8247 15.0705 22.4172 14.6761 22.387C14.2816 22.3567 13.9325 22.7151 13.8962 23.1874C13.86 23.6598 14.1503 24.0672 14.5448 24.0975C14.9392 24.1278 15.2883 23.7694 15.3246 23.297Z" fill="white"/>
<path d="M15.2163 23.2809C15.2459 22.8962 15.0093 22.5643 14.6879 22.5397C14.3665 22.515 14.082 22.8068 14.0525 23.1915C14.023 23.5762 14.2596 23.9081 14.581 23.9328C14.9023 23.9574 15.1868 23.6656 15.2163 23.2809Z" fill="#002E6D"/>
<path d="M19.9202 23.1121L19.3455 23.2978" stroke="#002E6D" stroke-width="0.422143" stroke-miterlimit="10" stroke-linecap="round"/>
<path d="M19.9461 23.9748C20.0164 23.5063 19.7563 23.0789 19.3652 23.0202C18.974 22.9614 18.5998 23.2936 18.5295 23.762C18.4591 24.2305 18.7192 24.6579 19.1104 24.7166C19.5016 24.7754 19.8757 24.4432 19.9461 23.9748Z" fill="white"/>
<path d="M19.7843 23.9441C19.8416 23.5625 19.6296 23.2144 19.3109 23.1666C18.9921 23.1187 18.6873 23.3892 18.63 23.7707C18.5727 24.1522 18.7846 24.5003 19.1034 24.5482C19.4221 24.5961 19.727 24.3256 19.7843 23.9441Z" fill="#002E6D"/>
<path d="M13.9868 20.9544C14.4997 20.7953 15.3398 20.6449 15.7731 21.1843C15.8261 21.2551 15.7554 21.3347 15.6581 21.3081C15.384 21.2374 14.8711 21.1313 14.0487 21.1224C13.9249 21.1224 13.8719 20.9898 13.9868 20.9544Z" fill="#002E6D"/>
<path d="M20.5304 22.2543C20.1325 21.8918 19.4339 21.4054 18.815 21.7149C18.7354 21.7591 18.7707 21.8564 18.868 21.8741C19.1421 21.9183 19.655 22.0421 20.4066 22.3781C20.5128 22.4312 20.61 22.3339 20.5304 22.2543Z" fill="#002E6D"/>
<path d="M11.4844 19.1151C10.7416 20.5653 11.8735 23.0148 11.8735 23.0148L13.9073 20.5388L11.4844 19.1151Z" fill="#002E6D"/>
<path d="M22.7323 23.9875C22.7323 23.9875 24.7927 17.3289 19.0361 15.3481C14.4998 13.783 12.9169 15.6842 12.351 16.5508C10.9273 18.7438 10.8566 20.415 10.8389 21.034C10.8389 21.0694 12.9788 21.6265 12.9788 21.6265L15.499 18.62L22.7323 23.9875Z" fill="#002E6D"/>
<path d="M15.4989 18.62L14.314 17.6473L15.0125 19.4689" fill="#FAC8BB"/>
<path d="M15.6051 30.1155C15.6051 30.1155 13.6773 30.3719 11.953 28.4973" stroke="#FF7F66" stroke-width="0.248003" stroke-miterlimit="10" stroke-linecap="round" stroke-linejoin="round"/>
<path d="M14.0222 25.7295C14.0222 25.7295 14.9242 27.6749 17.2233 27.1178" stroke="#FF7F66" stroke-width="0.248003" stroke-miterlimit="10" stroke-linecap="round" stroke-linejoin="round"/>
<g style="mix-blend-mode:overlay">
<path d="M23.2273 13.2045C23.8422 13.2045 24.3409 13.7033 24.3409 14.3182C24.3409 13.7033 24.8397 13.2045 25.4546 13.2045C24.8397 13.2045 24.3409 12.7058 24.3409 12.0909C24.3409 12.7058 23.8422 13.2045 23.2273 13.2045Z" fill="#002E6D"/>
</g>
<g style="mix-blend-mode:overlay">
<path d="M22.2727 31.3409C22.8876 31.3409 23.3863 31.8397 23.3863 32.4545C23.3863 31.8397 23.8851 31.3409 24.5 31.3409C23.8851 31.3409 23.3863 30.8422 23.3863 30.2273C23.3863 30.8422 22.8876 31.3409 22.2727 31.3409Z" fill="#002E6D"/>
</g>
<g style="mix-blend-mode:overlay">
<path d="M18.4546 9.38636C20.4734 9.38636 22.1137 11.0266 22.1137 13.0455C22.1137 11.0266 23.754 9.38636 25.7728 9.38636C23.754 9.38636 22.1137 7.74608 22.1137 5.72727C22.1137 7.74608 20.4734 9.38636 18.4546 9.38636Z" fill="#002E6D"/>
</g>
<g style="mix-blend-mode:overlay">
<path d="M45.1818 40.8864C46.6739 40.8864 47.8863 42.0988 47.8863 43.5909C47.8863 42.0988 49.0987 40.8864 50.5909 40.8864C49.0987 40.8864 47.8863 39.674 47.8863 38.1818C47.8863 39.674 46.6739 40.8864 45.1818 40.8864Z" fill="#002E6D"/>
</g>
<g style="mix-blend-mode:overlay">
<path d="M44.2273 44.8636C44.7539 44.8636 45.1818 45.2915 45.1818 45.8182C45.1818 45.2915 45.6097 44.8636 46.1364 44.8636C45.6097 44.8636 45.1818 44.4357 45.1818 43.9091C45.1818 44.4357 44.7539 44.8636 44.2273 44.8636Z" fill="#002E6D"/>
</g>
<rect x="29.6008" y="9.21841" width="15.1782" height="18.5855" rx="1.27273" transform="rotate(-2.53912 29.6008 9.21841)" fill="#E7EBEE"/>
<rect x="28.9546" y="8.62695" width="15.1782" height="18.5855" rx="1.27273" transform="rotate(-2.53912 28.9546 8.62695)" fill="white"/>
<g clip-path="url(#clip1_1893_370826)">
<path d="M31.7921 18.1345C31.5589 17.2636 31.6139 16.3407 31.9487 15.5036C32.2835 14.6665 32.8803 13.9603 33.6497 13.4904C34.4192 13.0205 35.32 12.8123 36.2176 12.8968C37.1152 12.9813 37.9613 13.3541 38.6296 13.9593C39.2978 14.5645 39.7522 15.3697 39.9249 16.2546C40.0976 17.1395 39.9793 18.0565 39.5877 18.8685C39.1961 19.6806 38.5522 20.3441 37.7523 20.76C36.9523 21.1758 36.0393 21.3216 35.1497 21.1756C34.5148 21.5128 33.8221 21.8426 33.5032 21.9926C33.4216 22.0308 33.332 22.0486 33.242 22.0445C33.1521 22.0403 33.0645 22.0143 32.9868 21.9687C32.9092 21.9231 32.8438 21.8593 32.7963 21.7828C32.7488 21.7062 32.7207 21.6193 32.7144 21.5295C32.69 21.1844 32.6424 20.4431 32.6277 19.7409C32.2346 19.2733 31.9493 18.7248 31.7921 18.1345ZM34.4923 14.9939C34.2886 15.1845 34.1543 15.4321 34.083 15.7319C34.0618 15.8379 34.0825 15.948 34.1408 16.039C34.199 16.13 34.2903 16.195 34.3954 16.2201C34.5005 16.2452 34.6113 16.2286 34.7044 16.1738C34.7976 16.1189 34.8658 16.0301 34.8948 15.926C34.935 15.7596 34.9969 15.6658 35.0634 15.6041C35.1324 15.5389 35.235 15.4832 35.3937 15.4407C35.5142 15.4084 35.667 15.413 35.7937 15.4707C35.9059 15.5213 36.0183 15.6203 36.0755 15.8339C36.1036 15.9387 36.0762 15.998 35.8584 16.2886C35.6674 16.5439 35.3672 16.9552 35.5306 17.5651C35.5593 17.6721 35.6293 17.7633 35.7252 17.8187C35.8211 17.8741 35.9351 17.8891 36.0421 17.8604C36.149 17.8318 36.2403 17.7618 36.2956 17.6659C36.351 17.5699 36.366 17.456 36.3374 17.349C36.284 17.15 36.3464 17.0301 36.5264 16.7893L36.5627 16.7421C36.7279 16.526 37.0228 16.1421 36.8823 15.6177C36.7601 15.1616 36.4776 14.8626 36.1384 14.709C35.836 14.5756 35.4971 14.5491 35.1775 14.6339C34.9328 14.6995 34.6923 14.8066 34.4923 14.9939ZM36.8681 18.792C36.8299 18.6494 36.7366 18.5277 36.6087 18.4539C36.4808 18.3801 36.3288 18.3601 36.1862 18.3983C36.0435 18.4365 35.9219 18.5298 35.8481 18.6577C35.7742 18.7856 35.7542 18.9376 35.7924 19.0802C35.8307 19.2229 35.924 19.3445 36.0519 19.4183C36.1798 19.4922 36.3318 19.5122 36.4744 19.474C36.6171 19.4358 36.7387 19.3424 36.8125 19.2145C36.8864 19.0866 36.9064 18.9347 36.8681 18.792ZM36.9971 21.6398C37.928 22.1329 39.0112 22.2546 40.0283 21.9805C40.6015 21.8277 41.1353 21.5542 41.594 21.1782C42.3135 21.1526 43.0816 21.0909 43.4346 21.0597C43.5245 21.0518 43.611 21.0222 43.6868 20.9733C43.7626 20.9245 43.8254 20.8579 43.8696 20.7793C43.9139 20.7007 43.9383 20.6125 43.9408 20.5224C43.9432 20.4323 43.9237 20.3429 43.8838 20.262C43.6209 19.727 43.3465 19.1978 43.0608 18.6747C43.1627 18.0986 43.1425 17.5075 43.0015 16.9397C42.8604 16.3719 42.6017 15.84 42.242 15.3785C41.8824 14.9171 41.4298 14.5363 40.9136 14.2608C40.3974 13.9854 39.8291 13.8215 39.2456 13.7796C39.8176 14.3769 40.2232 15.1136 40.4219 15.9164C40.6206 16.7193 40.6055 17.5601 40.378 18.3553C40.1506 19.1504 39.7187 19.8721 39.1255 20.4484C38.5323 21.0246 37.7985 21.4354 36.9971 21.6398Z" fill="#007BE0"/>
</g>
</g>
<defs>
<clipPath id="clip0_1893_370826">
<rect width="56" height="56" rx="28" fill="white"/>
</clipPath>
<clipPath id="clip1_1893_370826">
<rect width="13.3636" height="13.3636" fill="white" transform="translate(29.2031 12.7754) rotate(-15)"/>
</clipPath>
</defs>
</svg>
