<svg width="144" height="48" viewBox="0 0 144 48" fill="none" xmlns="http://www.w3.org/2000/svg">
<path d="M22.9054 45.768C22.737 45.768 22.6528 45.6838 22.5265 45.5575L20.8844 43.2839H19.8318V45.4312C19.8318 45.5996 19.7054 45.768 19.4949 45.768C19.3265 45.768 19.1581 45.6417 19.1581 45.4312V38.526C19.1581 38.3576 19.2844 38.1891 19.4949 38.1891C19.6633 38.1891 19.8318 38.3155 19.8318 38.526V42.6944H20.9265L22.5686 40.6733C22.6528 40.547 22.7791 40.4628 22.9054 40.4628C23.2001 40.4628 23.2844 40.7154 23.1159 40.926L21.4739 42.947L23.2001 45.2628C23.3265 45.5575 23.158 45.768 22.9054 45.768Z" fill="#002E6D"/>
<path d="M28.7577 42.8631C28.7577 43.1158 28.5893 43.2842 28.3366 43.2842H24.3367C24.4209 44.421 25.2208 45.2631 26.3998 45.2631C27.4945 45.2631 27.8313 44.7158 28.084 44.7158C28.2524 44.7158 28.3366 44.8 28.3366 44.9684C28.3366 45.3473 27.4945 45.8526 26.3998 45.8526C24.7998 45.8526 23.7051 44.6316 23.7051 43.1158C23.7051 41.6 24.7577 40.379 26.2735 40.379C27.8314 40.379 28.7577 41.6421 28.7577 42.8631ZM24.3367 42.821H28.084C27.9577 41.6421 27.1998 40.9263 26.2314 40.9263C25.2209 40.9684 24.463 41.7684 24.3367 42.821Z" fill="#002E6D"/>
<path d="M30.1474 38.1891C30.3158 38.1891 30.4842 38.3154 30.4842 38.526V45.4733C30.4842 45.6417 30.3579 45.8101 30.1474 45.8101C29.979 45.8101 29.8105 45.6838 29.8105 45.4733V38.526C29.8105 38.3154 29.9369 38.1891 30.1474 38.1891Z" fill="#002E6D"/>
<path d="M36.8841 40.8V45.4315C36.8841 45.6 36.7578 45.7684 36.5472 45.7684C36.3367 45.7684 36.2104 45.6421 36.2104 45.4315V44.6737C35.7894 45.3894 35.0736 45.8526 34.1472 45.8526C32.6736 45.8526 31.5789 44.6316 31.5789 43.1158C31.5789 41.6 32.6736 40.379 34.1472 40.379C35.0736 40.379 35.7894 40.8421 36.2104 41.5158V40.8C36.2104 40.6316 36.3367 40.4632 36.5472 40.4632C36.7578 40.5053 36.8841 40.6316 36.8841 40.8ZM36.2525 43.1158C36.2525 41.9368 35.4104 40.9684 34.2736 40.9684C33.1367 40.9684 32.2946 41.8947 32.2946 43.1158C32.2946 44.3368 33.1367 45.2631 34.2736 45.2631C35.4525 45.2631 36.2525 44.2947 36.2525 43.1158Z" fill="#002E6D"/>
<path d="M40.0419 45.8944C38.863 45.8944 37.9788 45.2628 37.9788 44.8839C37.9788 44.7155 38.1051 44.6312 38.2735 44.6312C38.5682 44.6312 38.9051 45.347 40.1261 45.347C40.884 45.347 41.3472 44.9681 41.3472 44.4207C41.3472 42.9891 38.1893 43.7049 38.1893 41.8102C38.1893 41.0102 38.863 40.4207 40.0419 40.4207C41.0103 40.4207 41.7682 40.8839 41.7682 41.1786C41.7682 41.3471 41.6419 41.4313 41.5156 41.4313C41.2209 41.4313 40.884 40.9681 39.9998 40.9681C39.284 40.9681 38.8209 41.305 38.8209 41.8102C38.8209 43.1155 41.9787 42.4839 41.9787 44.4207C41.9366 45.2628 41.2209 45.8944 40.0419 45.8944Z" fill="#002E6D"/>
<path d="M49.2208 39.1153C49.2208 39.5363 49.5577 39.831 49.9366 39.831C50.3577 39.831 50.6524 39.4942 50.6524 39.1153C50.6524 38.7363 50.3156 38.3995 49.9366 38.3995C49.5577 38.3995 49.2208 38.7363 49.2208 39.1153Z" fill="#FFD600"/>
<path d="M48.5051 43.1158C48.5051 44.7579 47.3683 45.8526 46.021 45.8526C45.3473 45.8526 44.7999 45.6 44.421 45.1368V47.3263C44.421 47.7052 44.1683 47.9999 43.7473 47.9999C43.3262 47.9999 43.0736 47.7052 43.0736 47.3263V41.1368C43.0736 40.7579 43.3262 40.4632 43.7473 40.4632C44.1262 40.4632 44.3789 40.6737 44.421 41.0526C44.7999 40.6316 45.3052 40.379 46.021 40.379C47.4525 40.379 48.5051 41.5579 48.5051 43.1158ZM47.1578 43.1158C47.1578 42.2737 46.5683 41.6 45.7683 41.6C44.9683 41.6 44.3789 42.2737 44.3789 43.1158C44.3789 43.9579 44.9683 44.5894 45.7683 44.5894C46.6104 44.6316 47.1578 43.9579 47.1578 43.1158Z" fill="#002E6D"/>
<path d="M49.9366 45.7682C49.5577 45.7682 49.2629 45.5155 49.2629 45.0945V41.1366C49.2629 40.7577 49.5156 40.4629 49.9366 40.4629C50.3577 40.4629 50.6103 40.7156 50.6103 41.1366V45.0945C50.6103 45.4734 50.3577 45.7682 49.9366 45.7682Z" fill="#002E6D"/>
<path d="M56.4207 42.5683V45.0946C56.4207 45.4736 56.1681 45.7683 55.747 45.7683C55.3681 45.7683 55.0733 45.5157 55.0733 45.0946V42.7788C55.0733 42.0631 54.6523 41.642 54.0207 41.642C53.347 41.642 52.9681 42.1052 52.9681 42.7788V45.0946C52.9681 45.4736 52.7154 45.7683 52.2944 45.7683C51.9155 45.7683 51.6207 45.5157 51.6207 45.0946V41.1368C51.6207 40.7578 51.8733 40.4631 52.2944 40.4631C52.6733 40.4631 52.926 40.6736 52.9681 41.0104C53.3049 40.5894 53.8102 40.3368 54.4418 40.3368C55.6628 40.3789 56.4207 41.221 56.4207 42.5683Z" fill="#002E6D"/>
<path d="M60.3788 44.463C60.7578 44.463 60.9262 44.7156 60.9262 44.9683C60.9262 45.4735 60.3788 45.8525 59.5367 45.8525C58.442 45.8525 57.7683 45.1788 57.7683 43.9156V41.6841H57.3052C56.9683 41.6841 56.7157 41.4314 56.7157 41.0946C56.7157 40.7578 56.9683 40.5051 57.3052 40.5051H57.8104V39.7894C57.8104 39.3683 58.0631 39.1157 58.4841 39.1157C58.9052 39.1157 59.1578 39.3683 59.1578 39.7894V40.5051H60.1262C60.4631 40.5051 60.7157 40.7578 60.7157 41.0946C60.7157 41.4314 60.4631 41.6841 60.1262 41.6841H59.1578V44.0841C59.1578 44.463 59.3262 44.6314 59.621 44.6314C59.8736 44.6314 60.1262 44.463 60.3788 44.463Z" fill="#002E6D"/>
<path d="M66.4417 41.1365V45.0944C66.4417 45.4733 66.189 45.7681 65.768 45.7681C65.389 45.7681 65.0943 45.5154 65.0943 45.1786C64.7154 45.6418 64.2101 45.8944 63.4943 45.8944C62.1049 45.8944 61.0101 44.7576 61.0101 43.1576C61.0101 41.5997 62.0628 40.4207 63.4943 40.4207C64.168 40.4207 64.7154 40.6734 65.0943 41.0944C65.1364 40.7576 65.389 40.505 65.768 40.505C66.1469 40.4628 66.4417 40.7576 66.4417 41.1365ZM65.0943 43.1155C65.0943 42.2734 64.5049 41.5997 63.7049 41.5997C62.9049 41.5997 62.3154 42.2734 62.3154 43.1155C62.3154 43.9576 62.9049 44.6312 63.7049 44.6312C64.5049 44.6312 65.0943 43.9576 65.0943 43.1155Z" fill="#002E6D"/>
<path d="M71.0312 41.0946C71.0312 41.4736 70.7786 41.7262 70.3575 41.7262C70.147 41.7262 69.9365 41.642 69.5996 41.642C69.1365 41.642 68.7997 42.021 68.7997 42.5683V45.0946C68.7997 45.4736 68.547 45.7683 68.126 45.7683C67.747 45.7683 67.4523 45.5157 67.4523 45.0946V41.1368C67.4523 40.7578 67.7049 40.4631 68.126 40.4631C68.5049 40.4631 68.7576 40.7157 68.7997 41.0525C69.0944 40.6315 69.5154 40.3368 70.1049 40.3368C70.5681 40.3789 71.0312 40.5894 71.0312 41.0946Z" fill="#002E6D"/>
<path d="M8.9265 42.063V45.5156C8.9265 45.684 8.8002 45.7682 8.67388 45.7682C8.50546 45.7682 8.42126 45.6419 8.42126 45.5156V45.3472C8.21074 45.6419 7.87388 45.8524 7.45283 45.8524C6.69494 45.8524 6.14758 45.263 6.14758 44.4209C6.14758 43.6209 6.69494 42.9893 7.45283 42.9893C7.87388 42.9893 8.21074 43.1577 8.42126 43.4525V42.1051C8.42126 41.9367 8.50546 41.8525 8.67388 41.8525C8.8002 41.8104 8.9265 41.9367 8.9265 42.063ZM8.42126 44.3788C8.42126 43.8314 8.0423 43.4103 7.53704 43.4103C7.03178 43.4103 6.65285 43.8314 6.65285 44.3788C6.65285 44.9261 7.03178 45.3472 7.53704 45.3472C8.0423 45.3472 8.42126 44.9261 8.42126 44.3788Z" fill="#0055B8"/>
<path d="M12.4632 43.2839V45.5154C12.4632 45.6838 12.379 45.768 12.2106 45.768C12.0422 45.768 11.958 45.6838 11.958 45.5154V45.347C11.7475 45.6417 11.4106 45.8523 10.9896 45.8523C10.2317 45.8523 9.68433 45.2628 9.68433 44.4207C9.68433 43.6207 10.2317 42.9891 10.9896 42.9891C11.4106 42.9891 11.7475 43.1575 11.958 43.4523V43.2839C11.958 43.1154 12.0422 43.0312 12.2106 43.0312C12.379 43.0312 12.4632 43.1154 12.4632 43.2839ZM11.958 44.3786C11.958 43.8312 11.579 43.4102 11.0738 43.4102C10.5685 43.4102 10.1896 43.8312 10.1896 44.3786C10.1896 44.926 10.5685 45.347 11.0738 45.347C11.6211 45.347 11.958 44.926 11.958 44.3786Z" fill="#0055B8"/>
<path d="M15.0741 43.2415C15.0741 43.3678 14.9899 43.4941 14.8215 43.4941C14.7373 43.4941 14.611 43.452 14.4425 43.452C14.1478 43.452 13.9373 43.7046 13.9373 44.1257V45.5573C13.9373 45.7257 13.811 45.8099 13.6847 45.8099C13.5162 45.8099 13.432 45.7257 13.432 45.5573V43.3257C13.432 43.1573 13.5162 43.0731 13.6847 43.0731C13.8531 43.0731 13.9373 43.1573 13.9373 43.3257V43.4099C14.1057 43.1573 14.3162 43.031 14.6109 43.031C14.8636 42.9467 15.0741 43.031 15.0741 43.2415Z" fill="#0055B8"/>
<path d="M16.2527 42.2309C16.2527 42.3993 16.1264 42.5257 15.9579 42.5257C15.7895 42.5257 15.6632 42.3993 15.6632 42.2309C15.6632 42.0625 15.7895 41.9362 15.9579 41.9362C16.1264 41.9362 16.2527 42.0625 16.2527 42.2309ZM15.9579 45.7677C15.7895 45.7677 15.7053 45.6835 15.7053 45.5151V43.2835C15.7053 43.1151 15.7895 43.0309 15.9579 43.0309C16.1264 43.0309 16.2106 43.1151 16.2106 43.2835V45.5151C16.2106 45.6835 16.0843 45.7677 15.9579 45.7677Z" fill="#0055B8"/>
<path d="M41.8107 22.3579L41.0949 22.8211C40.1265 23.4526 38.9476 23.3263 38.4002 22.4421C37.8107 21.5579 38.2318 20.4632 39.2002 19.7895L40.0844 19.2C40.9265 18.6106 41.3476 18.1053 41.3476 17.3895C41.3476 16.6316 40.7581 16.0422 39.9581 16.0422C38.4002 16.0422 38.0634 17.5579 36.5897 17.5579C35.4108 17.5579 34.8213 16.7579 34.8213 15.8316C34.8213 14.0211 37.2634 12.0843 40.1265 12.0843C43.6633 12.0843 45.516 14.5264 45.516 17.0948C45.516 19.1158 44.6318 20.5474 41.8107 22.3579ZM42.8212 26.9894C42.8212 28.421 41.6423 29.5578 40.2107 29.5578C38.7792 29.5578 37.6423 28.421 37.6423 26.9894C37.6423 25.5579 38.7792 24.3789 40.2107 24.3789C41.6423 24.3789 42.8212 25.5579 42.8212 26.9894Z" fill="#0055B8"/>
<path d="M20.9687 25.8524C23.4108 25.8524 24.6319 27.5366 24.6319 29.2629C24.6319 32.5892 21.3055 34.9892 16.2951 34.9892C10.274 34.9892 6.27408 31.1998 6.27408 23.7472V15.3262H4.33727C2.0636 15.3262 0.421509 13.7262 0.421509 11.3683C0.421509 9.09467 2.02149 7.45258 4.33727 7.45258H6.3583V4.50523C6.3583 1.81051 8.21091 0 10.8214 0C13.5161 0 15.3266 1.85262 15.3266 4.50523V7.45258H19.074C21.3477 7.45258 22.9898 9.05257 22.9898 11.4104C22.9898 13.6841 21.3898 15.3262 19.074 15.3262H15.453V24.9261C15.453 26.2735 16.0003 26.6524 16.8845 26.6524C17.8951 26.6103 19.4108 25.8524 20.9687 25.8524Z" fill="#0055B8"/>
<path d="M112.842 13.221L104.379 36.4629C101.81 43.4102 97.8102 45.9365 92.9682 45.9365C88.4208 45.9365 85.0104 43.8734 85.0104 40.4629C85.0104 38.5681 86.3577 36.7997 88.8419 36.7997C90.6945 36.7997 91.6629 37.5155 93.3471 37.5155C94.7366 37.5155 95.705 36.6734 96.505 34.6103L86.7788 13.7683C84.9261 9.81046 87.4524 7.19995 90.6103 7.19995C93.4313 7.19995 94.4419 8.96836 95.6208 11.7052L100.421 23.1156L104.421 11.3683C105.347 8.58941 106.61 7.19995 109.136 7.19995C112.042 7.19995 114.231 9.43151 112.842 13.221Z" fill="#0055B8"/>
<path d="M50.6946 15.2842C50.0209 15.2842 49.3472 15.1157 48.7999 14.821L47.9999 14.9473L46.3157 15.1999L47.1999 13.0947C46.9051 12.5052 46.7788 11.8737 46.7788 11.2C46.7788 8.8421 48.5051 7.03159 50.7788 7.03159C53.0525 7.03159 54.7788 8.79999 54.7788 11.2C54.6946 13.5157 52.9682 15.2842 50.6946 15.2842Z" fill="#0055B8"/>
<path d="M83.2842 18.2315V29.9366C83.2842 32.6314 81.4316 34.4419 78.8211 34.4419C76.1264 34.4419 74.3159 32.5893 74.3159 29.9366V19.4525C74.3159 16.7578 72.758 15.0315 70.4001 15.0315C68.0001 15.0315 66.4422 16.7578 66.4422 19.4525V29.9366C66.4422 32.6314 64.5896 34.4419 61.9791 34.4419C59.2844 34.4419 57.4739 32.5893 57.4739 29.9366V11.7052C57.4739 9.01048 59.3265 7.19996 61.937 7.19996C63.8738 7.19996 65.4317 8.21048 66.1054 9.81047C67.6633 7.74733 70.2317 6.6526 73.3474 6.6526C79.4105 6.61049 83.2842 10.9894 83.2842 18.2315Z" fill="#0055B8"/>
<path d="M53.7263 30.9471L52.2947 27.4945C53.3052 25.4734 53.8105 23.1998 53.8105 20.884C53.8105 19.284 53.5999 17.7682 53.1368 16.3367C52.4631 16.6314 51.7052 16.7998 50.9473 16.7998C50.9052 16.7998 50.9052 16.7998 50.8631 16.7998C51.2842 18.063 51.4947 19.4524 51.4947 20.9261C51.4947 23.0735 50.9894 25.1366 49.9789 26.9471C49.8105 27.284 49.8105 27.6629 49.9368 27.9576C49.9789 27.9997 49.9789 28.0418 49.9789 28.0418L51.4947 31.6629L49.8947 31.4523C49.8526 31.4523 49.8105 31.4523 49.7684 31.4523L46.6105 31.0313C46.3579 30.9892 46.1053 31.0313 45.8526 31.1997C44.0842 32.2523 42.1474 32.7576 40.0421 32.7576C33.558 32.7576 28.6738 27.6629 28.6738 20.884C28.6738 14.063 33.558 8.88409 40.0421 8.88409C41.9369 8.88409 43.7474 9.34724 45.2632 10.1472C45.3474 9.34724 45.6421 8.58935 46.0211 7.91567C44.2526 7.03147 42.1895 6.56831 40.0421 6.56831C32.2527 6.56831 26.358 12.7156 26.358 20.8419C26.358 28.9261 32.2527 34.9892 40.0421 34.9892C42.4 34.9892 44.6737 34.3997 46.6526 33.305L49.5579 33.6839C49.6 33.6839 49.6 33.6839 49.6421 33.6839L51.1579 33.8944C52 34.0208 52.842 33.6839 53.3473 33.0102C53.8947 32.4629 54.021 31.6629 53.7263 30.9471Z" fill="#FFD600"/>
<path d="M139.031 7.20004C137.179 7.20004 135.789 8.04214 135.031 9.43161C133.305 7.6632 130.905 6.65268 127.747 6.65268C120.463 6.65268 115.116 12.6737 115.116 20.8421C115.116 29.4315 120.968 34.9893 127.747 34.9893C130.863 34.9893 133.263 33.8946 134.989 32.042C135.663 33.4735 137.179 34.442 139.073 34.442C141.768 34.442 143.579 32.5893 143.579 29.9367V11.7053C143.536 9.01056 141.726 7.20004 139.031 7.20004ZM129.305 26.5683C126.316 26.5683 124.084 24.042 124.084 20.8421C124.084 17.5579 126.316 15.0316 129.305 15.0316C132.294 15.0316 134.526 17.5579 134.526 20.8421C134.526 24.0841 132.294 26.5683 129.305 26.5683Z" fill="#0055B8"/>
</svg>
