<svg width="150" height="67" viewBox="0 0 150 67" fill="none" xmlns="http://www.w3.org/2000/svg">
<g filter="url(#filter0_d_917_50041)">
<path d="M91.0527 41.9503C91.0527 42.4146 91.4209 42.7794 91.8895 42.7794C92.358 42.7794 92.7262 42.4146 92.7262 41.9503C92.7262 41.4859 92.358 41.1211 91.8895 41.1211C91.4209 41.1543 91.0527 41.5191 91.0527 41.9503Z" fill="#FFD600"/>
<path d="M60.9952 49.5121C60.7944 49.5121 60.694 49.4458 60.5601 49.2468L58.6524 46.6929H57.4141V49.1473C57.4141 49.3463 57.2467 49.5121 57.0459 49.5121C56.8451 49.5121 56.6777 49.3795 56.6777 49.1473V41.2867C56.6777 41.0877 56.8116 40.9219 57.0459 40.9219C57.2467 40.9219 57.4141 41.0545 57.4141 41.2867V46.0296H58.6524L60.4932 43.7411C60.5936 43.5752 60.7275 43.5089 60.8948 43.5089C61.196 43.5089 61.3299 43.8074 61.1626 44.0396L59.2883 46.3281L61.2295 48.9483C61.4638 49.2136 61.2965 49.5121 60.9952 49.5121Z" fill="white"/>
<path d="M67.6554 46.1961C67.6554 46.4946 67.488 46.6936 67.1533 46.6936H62.6016C62.702 47.954 63.6391 48.949 64.9444 48.949C66.1827 48.949 66.5509 48.3188 66.8521 48.3188C67.0195 48.3188 67.1533 48.4183 67.1533 48.5841C67.1533 48.9821 66.2162 49.5791 64.9444 49.5791C63.1371 49.5791 61.8652 48.1861 61.8652 46.4615C61.8652 44.7368 63.0701 43.3438 64.8105 43.3438C66.6178 43.3769 67.6554 44.8363 67.6554 46.1961ZM62.6016 46.1629H66.919C66.7852 44.8363 65.915 44.0403 64.777 44.0403C63.6056 44.0403 62.7689 44.9689 62.6016 46.1629Z" fill="white"/>
<path d="M69.2295 40.9219C69.4303 40.9219 69.5976 41.0877 69.5976 41.2867V49.1141C69.5976 49.3131 69.4303 49.479 69.2295 49.479C69.0287 49.479 68.8613 49.3463 68.8613 49.1141V41.2535C68.8613 41.0545 69.0287 40.9219 69.2295 40.9219Z" fill="white"/>
<path d="M76.9619 43.8745V49.1149C76.9619 49.3139 76.828 49.4797 76.5938 49.4797C76.3595 49.4797 76.2256 49.347 76.2256 49.1149V48.2857C75.7236 49.0817 74.9203 49.6124 73.8828 49.6124C72.2093 49.6124 70.9375 48.2525 70.9375 46.4947C70.9375 44.77 72.1759 43.377 73.8828 43.377C74.9203 43.377 75.7236 43.8745 76.2256 44.6705V43.8413C76.2256 43.6423 76.3595 43.4765 76.5938 43.4765C76.828 43.5096 76.9619 43.6755 76.9619 43.8745ZM76.2256 46.4947C76.2256 45.168 75.2885 44.0735 73.9832 44.0735C72.6779 44.0735 71.7073 45.1348 71.7073 46.4947C71.7073 47.8213 72.6779 48.949 73.9832 48.949C75.2885 48.9158 76.2256 47.8213 76.2256 46.4947Z" fill="white"/>
<path d="M80.542 49.6124C79.2033 49.6124 78.1992 48.8827 78.1992 48.4847C78.1992 48.2857 78.3331 48.1862 78.5004 48.1862C78.8351 48.1862 79.2368 48.9822 80.609 48.9822C81.5126 48.9822 82.0147 48.551 82.0147 47.954C82.0147 46.3289 78.4 47.1249 78.4 45.0022C78.4 44.1067 79.2033 43.4102 80.5086 43.4102C81.6131 43.4102 82.4832 43.9077 82.4832 44.3057C82.4832 44.4715 82.3494 44.571 82.182 44.571C81.8473 44.571 81.4457 44.0403 80.4416 44.0403C79.6384 44.0403 79.1029 44.4383 79.1029 44.969C79.1029 46.4615 82.7175 45.7318 82.7175 47.9209C82.7175 48.9159 81.9143 49.6124 80.542 49.6124Z" fill="white"/>
<path d="M90.2489 46.4947C90.2489 48.3188 88.9436 49.6124 87.3706 49.6124C86.6008 49.6124 85.9649 49.3139 85.5298 48.7832V51.2375C85.5298 51.6687 85.2286 52.0004 84.76 52.0004C84.2915 52.0004 83.9902 51.6687 83.9902 51.2375V44.2393C83.9902 43.8081 84.2915 43.4765 84.76 43.4765C85.1616 43.4765 85.4629 43.7418 85.5298 44.1398C85.9649 43.6423 86.5673 43.377 87.3706 43.377C89.0106 43.377 90.2489 44.7036 90.2489 46.4947ZM88.7094 46.4947C88.7094 45.5328 88.04 44.77 87.1363 44.77C86.2327 44.77 85.5633 45.5328 85.5633 46.4947C85.5633 47.4233 86.2327 48.1862 87.1363 48.1862C88.04 48.1862 88.7094 47.4233 88.7094 46.4947Z" fill="white"/>
<path d="M91.8889 49.4798C91.4538 49.4798 91.1191 49.1813 91.1191 48.717V44.2394C91.1191 43.8082 91.4204 43.4766 91.8555 43.4766C92.324 43.4766 92.6252 43.7751 92.6252 44.2394V48.717C92.6252 49.1813 92.324 49.4798 91.8889 49.4798Z" fill="white"/>
<path d="M99.2858 45.8644V48.7168C99.2858 49.148 98.9846 49.4797 98.516 49.4797C98.0809 49.4797 97.7462 49.1811 97.7462 48.7168V46.0634C97.7462 45.2674 97.2776 44.7699 96.5413 44.7699C95.805 44.7699 95.3364 45.2674 95.3364 46.0634V48.7168C95.3364 49.148 95.0352 49.4797 94.5667 49.4797C94.1316 49.4797 93.7969 49.1811 93.7969 48.7168V44.2393C93.7969 43.8081 94.0981 43.4764 94.5332 43.4764C94.9683 43.4764 95.236 43.7086 95.303 44.1066C95.6711 43.6091 96.2736 43.3438 96.9764 43.3438C98.3821 43.3769 99.2858 44.3056 99.2858 45.8644Z" fill="white"/>
<path d="M103.805 48.0208C104.206 48.0208 104.441 48.2861 104.441 48.5846C104.441 49.1485 103.805 49.6128 102.834 49.6128C101.596 49.6128 100.826 48.8831 100.826 47.4238V44.8699H100.29C99.8888 44.8699 99.6211 44.6046 99.6211 44.2066C99.6211 43.8086 99.8888 43.5432 100.29 43.5432H100.859V42.7472C100.859 42.2829 101.161 41.9844 101.596 41.9844C102.064 41.9844 102.366 42.2829 102.366 42.7472V43.5432H103.47C103.872 43.5432 104.139 43.8086 104.139 44.2066C104.139 44.6046 103.872 44.8699 103.47 44.8699H102.366V47.5896C102.366 48.0208 102.566 48.1866 102.901 48.1866C103.236 48.1866 103.503 48.0208 103.805 48.0208Z" fill="white"/>
<path d="M110.733 44.2393V48.7168C110.733 49.148 110.432 49.4797 109.963 49.4797C109.528 49.4797 109.227 49.1812 109.193 48.7832C108.758 49.2807 108.156 49.6124 107.386 49.6124C105.813 49.6124 104.508 48.352 104.508 46.4947C104.508 44.7036 105.713 43.377 107.386 43.377C108.156 43.377 108.792 43.6755 109.193 44.1398C109.227 43.7418 109.528 43.4765 109.963 43.4765C110.398 43.4765 110.733 43.8081 110.733 44.2393ZM109.193 46.4615C109.193 45.4996 108.524 44.77 107.62 44.77C106.683 44.77 106.014 45.5328 106.014 46.4615C106.014 47.4233 106.683 48.1862 107.62 48.1862C108.524 48.1862 109.193 47.4233 109.193 46.4615Z" fill="white"/>
<path d="M115.954 44.1729C115.954 44.6041 115.653 44.9026 115.217 44.9026C114.983 44.9026 114.715 44.8363 114.381 44.8363C113.845 44.8363 113.477 45.2343 113.477 45.8644V48.7168C113.477 49.148 113.176 49.4797 112.707 49.4797C112.272 49.4797 111.938 49.1811 111.938 48.7168V44.2393C111.938 43.8081 112.239 43.4764 112.674 43.4764C113.109 43.4764 113.41 43.7418 113.444 44.1398C113.778 43.6754 114.28 43.3438 114.916 43.3438C115.418 43.3769 115.954 43.6423 115.954 44.1729Z" fill="white"/>
<path d="M44.963 45.3004V49.181C44.963 49.3468 44.8291 49.4795 44.6618 49.4795C44.4945 49.4795 44.3606 49.3468 44.3606 49.181V48.982C44.1263 49.3136 43.7581 49.5458 43.2561 49.5458C42.4194 49.5458 41.75 48.8493 41.75 47.9206C41.75 46.9919 42.3859 46.2954 43.2561 46.2954C43.7247 46.2954 44.1263 46.4944 44.3606 46.8261V45.2673C44.3606 45.1014 44.461 44.9688 44.6618 44.9688C44.8626 45.0351 44.963 45.1346 44.963 45.3004ZM44.394 47.9206C44.394 47.3236 43.9924 46.8261 43.39 46.8261C42.7875 46.8261 42.3859 47.2904 42.3859 47.9206C42.3859 48.5176 42.821 49.0151 43.39 49.0151C43.9924 49.0151 44.394 48.5176 44.394 47.9206Z" fill="white"/>
<path d="M49.0451 46.6598V49.2137C49.0451 49.3795 48.9112 49.5122 48.7438 49.5122C48.5765 49.5122 48.4426 49.3795 48.4426 49.2137V49.0147C48.2083 49.3463 47.8402 49.5785 47.3381 49.5785C46.5014 49.5785 45.832 48.882 45.832 47.9533C45.832 47.0246 46.4679 46.3281 47.3381 46.3281C47.8067 46.3281 48.2083 46.5271 48.4426 46.8588V46.6598C48.4426 46.494 48.5765 46.3613 48.7438 46.3613C48.9446 46.3613 49.0451 46.494 49.0451 46.6598ZM48.4761 47.9201C48.4761 47.3231 48.0745 46.8256 47.472 46.8256C46.8696 46.8256 46.4679 47.29 46.4679 47.9201C46.4679 48.5171 46.903 49.0147 47.472 49.0147C48.041 49.0147 48.4761 48.5171 48.4761 47.9201Z" fill="white"/>
<path d="M52.0247 46.6266C52.0247 46.7924 51.9242 46.8919 51.7569 46.8919C51.6565 46.8919 51.5226 46.8588 51.3553 46.8588C50.9871 46.8588 50.7528 47.1573 50.7528 47.6216V49.2136C50.7528 49.3795 50.619 49.5121 50.4516 49.5121C50.2843 49.5121 50.1504 49.4126 50.1504 49.2136V46.6598C50.1504 46.4939 50.2843 46.3613 50.4516 46.3613C50.619 46.3613 50.7528 46.4608 50.7528 46.6598V46.7593C50.9202 46.4939 51.1879 46.2949 51.5561 46.2949C51.7569 46.2949 52.0247 46.3944 52.0247 46.6266Z" fill="white"/>
<path d="M53.3633 45.4996C53.3633 45.6986 53.1959 45.8644 52.9951 45.8644C52.7943 45.8644 52.627 45.6986 52.627 45.4996C52.627 45.3006 52.7943 45.1348 52.9951 45.1348C53.1959 45.1348 53.3633 45.3006 53.3633 45.4996ZM52.9951 49.4796C52.8278 49.4796 52.6939 49.3801 52.6939 49.1811V46.6273C52.6939 46.4614 52.7943 46.3288 52.9951 46.3288C53.1625 46.3288 53.2963 46.4283 53.2963 46.6273V49.1811C53.2963 49.3801 53.1625 49.4796 52.9951 49.4796Z" fill="white"/>
<path d="M37.0983 10.7714V34.288C37.0983 47.1906 27.3584 49.8109 20.7981 49.8109C13.1668 49.8109 5.66941 47.0911 5.66941 41.7509C5.66941 39.2633 7.47683 37.5385 10.1545 37.5385C13.3677 37.5385 15.2085 40.4574 20.1622 40.4574C24.0113 40.4574 26.7559 38.5004 26.7559 34.7192V32.53C24.8146 34.2548 22.2039 35.2499 18.9238 35.2499C11.4264 35.2499 5 29.2795 5 19.9923C5 11.103 11.4264 5 18.9238 5C22.639 5 25.484 6.09457 27.4588 7.98518C28.2956 6.52576 29.9022 5.63021 31.8769 5.63021C34.9562 5.63021 37.0983 7.71983 37.0983 10.7714ZM26.7559 19.9923C26.7559 16.8081 24.3126 14.3204 21.0324 14.3204C17.7523 14.3204 15.309 16.8081 15.309 19.9923C15.309 23.2428 17.7523 25.6641 21.0324 25.6641C24.3126 25.6641 26.7559 23.1765 26.7559 19.9923Z" fill="#A958FF"/>
<path d="M101.831 10.3402C101.831 13.458 99.722 15.2491 96.7766 15.2491C95.3708 15.2491 93.7642 14.9174 92.0237 14.9174C89.982 14.9174 88.6097 16.1115 88.6097 18.0353V31.5681C88.6097 34.6197 86.5011 36.7093 83.4887 36.7093C80.4094 36.7093 78.3008 34.6197 78.3008 31.5681V10.7714C78.3008 7.71983 80.4094 5.63021 83.4218 5.63021C85.8651 5.63021 87.706 6.95695 88.3754 9.07975C90.1159 6.85745 92.7266 5 96.0737 5C99.153 5 101.831 6.75794 101.831 10.3402Z" fill="#A958FF"/>
<path d="M119.871 27.1235C122.75 27.1235 124.691 24.8349 124.691 21.3522V10.1411C124.691 7.08963 126.8 5 129.812 5C132.892 5 135 7.08963 135 10.1411V22.0819C135 30.8716 128.975 36.7093 119.871 36.7093C110.701 36.7093 104.676 30.8716 104.676 22.0819V10.1411C104.676 7.08963 106.784 5 109.797 5C112.876 5 114.985 7.08963 114.985 10.1411V21.319C114.985 24.8349 116.926 27.1235 119.871 27.1235Z" fill="#A958FF"/>
<path d="M63.4071 16.7076C64.5451 17.371 64.5451 18.9631 63.4071 19.6265L59.4911 21.882L55.575 24.1374C54.437 24.8008 53.0312 23.9716 53.0312 22.678V18.1671V13.6561C53.0312 12.3625 54.437 11.5665 55.575 12.1967L59.4911 14.4522L63.4071 16.7076Z" fill="#A958FF"/>
<path d="M44.0271 9.04659C45.0992 9.04659 45.9683 8.18533 45.9683 7.12291C45.9683 6.06048 45.0992 5.19922 44.0271 5.19922C42.955 5.19922 42.0859 6.06048 42.0859 7.12291C42.0859 8.18533 42.955 9.04659 44.0271 9.04659Z" fill="white"/>
<path d="M57.7172 36.5104C55.8428 36.5104 54.0689 36.2782 52.4288 35.7807C51.3912 35.4822 50.8222 34.4208 51.1235 33.3925C51.4247 32.3643 52.4958 31.8004 53.5333 32.099C54.8387 32.4638 56.2445 32.6628 57.7507 32.6628C65.0138 32.6628 69.6327 28.6826 69.6327 21.684C69.6327 20.6226 70.503 19.7602 71.574 19.7602C72.6451 19.7602 73.5153 20.6226 73.5153 21.684C73.4818 30.8717 67.1894 36.5104 57.7172 36.5104ZM46.9062 32.099C46.3706 32.099 45.8351 31.8668 45.4335 31.4356C43.057 28.7158 41.7852 25.1667 41.7852 21.1201V12.6953C41.7852 11.6339 42.6554 10.7715 43.7265 10.7715C44.7975 10.7715 45.6677 11.6339 45.6677 12.6953V21.1201C45.6677 24.238 46.6049 26.9246 48.3454 28.9148C49.0483 29.7108 48.9813 30.9381 48.178 31.6346C47.8099 31.9663 47.3413 32.099 46.9062 32.099Z" fill="white"/>
<path d="M46.0013 38.7991C45.5997 38.7991 45.1981 38.6664 44.8299 38.4342C44.2609 38.0031 43.9597 37.3397 44.0601 36.6432L44.9638 29.9766C45.0977 28.9153 46.1017 28.1856 47.1393 28.3183C48.2103 28.451 48.9466 29.4128 48.8127 30.4741L48.3776 33.6913L51.8918 32.0993C52.8624 31.6682 54.0004 32.0993 54.469 33.0612C54.9041 34.023 54.469 35.1507 53.4984 35.615L46.8046 38.6332C46.5368 38.7659 46.2691 38.7991 46.0013 38.7991Z" fill="white"/>
<path d="M71.6404 9.04659C72.7125 9.04659 73.5816 8.18533 73.5816 7.12291C73.5816 6.06048 72.7125 5.19922 71.6404 5.19922C70.5683 5.19922 69.6992 6.06048 69.6992 7.12291C69.6992 8.18533 70.5683 9.04659 71.6404 9.04659Z" fill="#A958FF"/>
<path d="M71.6404 18.1346C70.5694 18.1346 69.6992 17.2723 69.6992 16.2109V12.7616C69.6992 11.7002 70.5694 10.8379 71.6404 10.8379C72.7114 10.8379 73.5816 11.7002 73.5816 12.7616V16.2441C73.5816 17.3055 72.7114 18.1346 71.6404 18.1346Z" fill="#A958FF"/>
</g>
<defs>
<filter id="filter0_d_917_50041" x="0" y="0" width="150" height="68" filterUnits="userSpaceOnUse" color-interpolation-filters="sRGB">
<feFlood flood-opacity="0" result="BackgroundImageFix"/>
<feColorMatrix in="SourceAlpha" type="matrix" values="0 0 0 0 0 0 0 0 0 0 0 0 0 0 0 0 0 0 127 0" result="hardAlpha"/>
<feOffset dx="5" dy="5"/>
<feGaussianBlur stdDeviation="5"/>
<feComposite in2="hardAlpha" operator="out"/>
<feColorMatrix type="matrix" values="0 0 0 0 0 0 0 0 0 0 0 0 0 0 0 0 0 0 0.24 0"/>
<feBlend mode="normal" in2="BackgroundImageFix" result="effect1_dropShadow_917_50041"/>
<feBlend mode="normal" in="SourceGraphic" in2="effect1_dropShadow_917_50041" result="shape"/>
</filter>
</defs>
</svg>
