<svg width="142" height="84" viewBox="0 0 142 84" fill="none" xmlns="http://www.w3.org/2000/svg">
<g filter="url(#filter0_d_1965_493802)">
<path d="M53.7705 52.9391C51.2305 52.9391 48.6905 52.3667 46.2937 51.2577C42.0365 49.2544 38.8169 45.7485 37.2428 41.3125C36.1696 38.3432 35.9192 35.1593 36.5273 32.0828C36.742 31.0095 37.7794 30.2941 38.8526 30.5087C39.9259 30.7234 40.6414 31.7608 40.4267 32.834C39.9616 35.2309 40.1763 37.6993 40.9991 39.9889C42.2154 43.3874 44.7196 46.142 48.0108 47.6803C51.302 49.2186 54.9868 49.3975 58.4211 48.1811C60.0667 47.6087 61.5334 46.7144 62.8213 45.5696C63.8945 44.6395 64.7889 43.5305 65.5044 42.3142C66.3987 40.7759 67.0069 39.0945 67.2573 37.3416C67.5793 35.1236 67.3646 32.8698 66.6134 30.7591C65.5759 27.8614 63.6441 25.4646 61.0326 23.8547C60.1025 23.2823 59.8163 22.066 60.3887 21.1359C60.9611 20.2058 62.1774 19.9196 63.1075 20.492C66.4703 22.6026 68.9745 25.6792 70.3339 29.4355C71.2998 32.1543 71.6218 35.0878 71.1925 37.9497C70.8705 40.2035 70.0835 42.3499 68.9387 44.3533C68.0086 45.9274 66.828 47.3583 65.4686 48.5389C63.7872 50.0056 61.8912 51.1504 59.7805 51.9374C57.7772 52.5813 55.7738 52.9391 53.7705 52.9391Z" fill="white"/>
<path d="M53.7661 22.1718C54.9515 22.1718 55.9125 21.2108 55.9125 20.0254C55.9125 18.8399 54.9515 17.8789 53.7661 17.8789C52.5806 17.8789 51.6196 18.8399 51.6196 20.0254C51.6196 21.2108 52.5806 22.1718 53.7661 22.1718Z" fill="white"/>
<path d="M45.7911 23.7824C46.6209 23.7824 47.2936 23.1097 47.2936 22.2799C47.2936 21.45 46.6209 20.7773 45.7911 20.7773C44.9613 20.7773 44.2886 21.45 44.2886 22.2799C44.2886 23.1097 44.9613 23.7824 45.7911 23.7824Z" fill="white"/>
<path d="M40.3505 27.8612C40.7852 27.8612 41.1375 27.5088 41.1375 27.0741C41.1375 26.6395 40.7852 26.2871 40.3505 26.2871C39.9158 26.2871 39.5635 26.6395 39.5635 27.0741C39.5635 27.5088 39.9158 27.8612 40.3505 27.8612Z" fill="white"/>
<path d="M52.2272 42.1696C51.8694 42.1338 51.5475 41.9907 51.2613 41.7403L45.287 36.7319C44.5 36.0522 44.3927 34.8359 45.0724 34.0489C45.7521 33.2261 46.9684 33.1545 47.7554 33.8342L52.2987 37.6621L59.6324 29.2909C60.3121 28.5039 61.5285 28.4323 62.3155 29.1121C63.1025 29.7918 63.1741 31.0081 62.4944 31.7951L53.9086 41.4899C53.4435 42.0265 52.8353 42.2412 52.2272 42.1696Z" fill="#24C11B"/>
<path d="M20.6028 52.9724C13.5911 52.9724 5.97119 50.7902 5.97119 45.2095C5.97119 42.5979 7.90299 41.3459 10.1568 41.3459C13.5195 41.3459 16.7392 44.1005 21.6403 44.1005C23.429 44.1005 24.1087 43.4208 24.1087 42.4548C24.1087 38.1262 6.22161 42.3833 6.22161 28.968C6.22161 22.9222 11.8024 17.9854 21.0679 17.9854C27.7219 17.9854 33.5173 20.8831 33.5173 25.1402C33.5173 27.537 31.7286 29.1111 29.4748 29.1111C26.1836 29.1111 23.7152 26.9289 19.5654 26.9289C17.8482 26.9289 17.0254 27.4655 17.0254 28.7891C17.0254 33.1894 34.9125 29.6835 34.9125 42.1329C34.9125 47.6779 30.4407 52.9724 20.6028 52.9724Z" fill="#24C11B"/>
<path d="M108.999 24.2458V46.712C108.999 50.0032 106.746 52.2927 103.419 52.2927C101.093 52.2927 99.233 51.1122 98.4102 49.3235C96.2637 51.5773 93.3303 52.9724 89.4667 52.9724C81.0955 52.9724 73.8691 46.1038 73.8691 35.5147C73.8691 25.4264 80.4516 17.9854 89.4667 17.9854C93.4018 17.9854 96.3353 19.2374 98.4817 21.4197C99.4476 19.7025 101.165 18.6651 103.419 18.6651C106.746 18.6651 108.999 20.9546 108.999 24.2458ZM97.8736 35.5147C97.8736 31.4722 95.119 28.3598 91.3985 28.3598C87.678 28.3598 84.9233 31.4364 84.9233 35.5147C84.9233 39.4856 87.678 42.5979 91.3985 42.5979C95.119 42.5979 97.8736 39.5214 97.8736 35.5147Z" fill="#24C11B"/>
<path d="M120.485 5C123.776 5 126.066 7.25377 126.066 10.5808V47.4281C126.066 50.7193 123.812 53.0089 120.556 53.0089C117.265 53.0089 114.976 50.7551 114.976 47.4281V10.5808C114.976 7.25377 117.265 5 120.485 5Z" fill="#24C11B"/>
<path d="M26.7203 66.2814C26.5057 66.2814 26.3984 66.2098 26.2553 65.9952L24.2161 63.2048H22.8925V65.8879C22.8925 66.1025 22.7136 66.2814 22.499 66.2814C22.2843 66.2814 22.1055 66.1025 22.1055 65.8879V57.3379C22.1055 57.1232 22.2843 56.9443 22.499 56.9443C22.7136 56.9443 22.8925 57.1232 22.8925 57.3379V62.5251H24.2161L26.2195 60.0567C26.3268 59.8778 26.4699 59.7705 26.6488 59.7705C26.9708 59.7705 27.1138 60.0925 26.935 60.3429L24.8959 62.8471L27.0065 65.709C27.2212 65.9952 27.0423 66.2814 26.7203 66.2814Z" fill="white"/>
<path d="M33.9107 62.7035C33.9107 63.0255 33.7319 63.2401 33.3741 63.2401H28.4731C28.5804 64.6353 29.5821 65.7086 31.013 65.7086C32.3367 65.7086 32.766 65.0288 33.0879 65.0288C33.2668 65.0288 33.4099 65.1362 33.4099 65.315C33.4099 65.7443 32.4082 66.424 31.013 66.424C29.0455 66.424 27.686 64.8858 27.686 63.0255C27.686 61.1652 29.0097 59.627 30.8699 59.627C32.766 59.627 33.9107 61.201 33.9107 62.7035ZM28.4731 62.632H33.1237C32.9806 61.201 32.0505 60.3067 30.8342 60.3067C29.5463 60.3067 28.6162 61.3083 28.4731 62.632Z" fill="white"/>
<path d="M35.6274 56.9082C35.842 56.9082 36.0209 57.0871 36.0209 57.3017V65.8517C36.0209 66.0664 35.842 66.2452 35.6274 66.2452C35.4128 66.2452 35.2339 66.0664 35.2339 65.8517V57.3017C35.2339 57.0871 35.4128 56.9082 35.6274 56.9082Z" fill="white"/>
<path d="M43.9611 60.1271V65.8509C43.9611 66.0656 43.7822 66.2444 43.5676 66.2444C43.3172 66.2444 43.1741 66.0656 43.1741 65.8509V64.9208C42.6374 65.7794 41.7789 66.3518 40.6341 66.3518C38.8454 66.3518 37.4502 64.8493 37.4502 62.9532C37.4502 61.0572 38.7738 59.5547 40.6341 59.5547C41.7431 59.5547 42.6374 60.1271 43.1741 60.9857V60.0913C43.1741 59.8767 43.3529 59.6978 43.5676 59.6978C43.818 59.7693 43.9611 59.9124 43.9611 60.1271ZM43.1741 62.989C43.1741 61.5223 42.1724 60.3775 40.7414 60.3775C39.3104 60.3775 38.273 61.558 38.273 62.989C38.273 64.4557 39.3104 65.6721 40.7414 65.6721C42.1724 65.6721 43.1741 64.4557 43.1741 62.989Z" fill="white"/>
<path d="M47.8266 66.3879C46.3956 66.3879 45.2866 65.6009 45.2866 65.1358C45.2866 64.9212 45.4297 64.8138 45.6086 64.8138C45.9663 64.8138 46.3956 65.6724 47.8981 65.6724C48.864 65.6724 49.4006 65.2074 49.4006 64.5276C49.4006 62.7747 45.5013 63.6333 45.5013 61.308C45.5013 60.3063 46.3598 59.5908 47.7908 59.5908C48.9714 59.5908 49.9373 60.1632 49.9373 60.5567C49.9373 60.7356 49.7942 60.8429 49.6153 60.8429C49.2575 60.8429 48.8283 60.2705 47.7193 60.2705C46.8249 60.2705 46.2883 60.6998 46.2883 61.2722C46.2883 62.882 50.1877 62.095 50.1877 64.4919C50.1877 65.6366 49.3291 66.3879 47.8266 66.3879Z" fill="white"/>
<path d="M59.2017 58.0526C59.2017 58.5534 59.5952 58.9469 60.096 58.9469C60.5969 58.9469 60.9904 58.5534 60.9904 58.0526C60.9904 57.5517 60.5969 57.1582 60.096 57.1582C59.5952 57.1582 59.2017 57.5875 59.2017 58.0526Z" fill="#FFD600"/>
<path d="M58.3079 62.989C58.3079 64.9924 56.9127 66.3875 55.2314 66.3875C54.3728 66.3875 53.7288 66.0656 53.2638 65.4932V68.1763C53.2638 68.6771 52.9418 68.9991 52.441 68.9991C51.9401 68.9991 51.6182 68.6413 51.6182 68.1763V60.5206C51.6182 60.0198 51.9401 59.6978 52.441 59.6978C52.8703 59.6978 53.1922 59.984 53.2638 60.4133C53.7288 59.8767 54.3728 59.5547 55.2314 59.5547C56.9843 59.5905 58.3079 61.0572 58.3079 62.989ZM56.6623 63.0248C56.6623 61.9873 55.9468 61.1287 54.9452 61.1287C53.9793 61.1287 53.228 61.9516 53.228 63.0248C53.228 64.0622 53.9435 64.885 54.9452 64.885C55.9468 64.8493 56.6623 64.0265 56.6623 63.0248Z" fill="white"/>
<path d="M60.0967 66.2453C59.5959 66.2453 59.2739 65.9233 59.2739 65.4225V60.5572C59.2739 60.0563 59.5959 59.7344 60.0967 59.7344C60.5976 59.7344 60.9195 60.0563 60.9195 60.5572V65.4225C60.9195 65.9233 60.5618 66.2453 60.0967 66.2453Z" fill="white"/>
<path d="M68.072 62.3097V65.422C68.072 65.9228 67.7501 66.2448 67.2492 66.2448C66.7484 66.2448 66.4264 65.9228 66.4264 65.422V62.5601C66.4264 61.7015 65.9256 61.1291 65.1386 61.1291C64.3158 61.1291 63.8507 61.6657 63.8507 62.5601V65.422C63.8507 65.9228 63.5287 66.2448 63.0279 66.2448C62.527 66.2448 62.2051 65.9228 62.2051 65.422V60.5567C62.2051 60.0559 62.527 59.7339 63.0279 59.7339C63.4929 59.7339 63.7791 60.0201 63.8507 60.4136C64.2442 59.877 64.8881 59.5908 65.6752 59.5908C67.1061 59.5908 68.072 60.6283 68.072 62.3097Z" fill="white"/>
<path d="M72.975 64.6358C73.4042 64.6358 73.6547 64.922 73.6547 65.2439C73.6547 65.8521 72.975 66.353 71.9375 66.353C70.6139 66.353 69.7553 65.5301 69.7553 63.9561V61.1657H69.1471C68.7178 61.1657 68.4316 60.8795 68.4316 60.4144C68.4316 59.9852 68.7178 59.699 69.1471 59.699H69.7553V58.8404C69.7553 58.3395 70.0773 58.0176 70.5781 58.0176C71.0789 58.0176 71.4009 58.3395 71.4009 58.8404V59.699H72.6172C73.0465 59.699 73.3327 59.9852 73.3327 60.4144C73.3327 60.8437 73.0465 61.1299 72.6172 61.1299H71.4367V64.0992C71.4367 64.6 71.6513 64.7431 72.0091 64.7431C72.331 64.8504 72.653 64.6358 72.975 64.6358Z" fill="white"/>
<path d="M80.4529 60.5567V65.422C80.4529 65.9228 80.131 66.2448 79.6301 66.2448C79.1651 66.2448 78.8073 65.9228 78.8073 65.4936C78.3423 66.0302 77.6983 66.3879 76.8398 66.3879C75.1226 66.3879 73.7632 64.9927 73.7632 62.9894C73.7632 61.0576 75.0511 59.5908 76.8398 59.5908C77.6983 59.5908 78.3423 59.9128 78.8073 60.4494C78.8789 60.0201 79.2008 59.7339 79.6301 59.7339C80.0952 59.7339 80.4529 60.0559 80.4529 60.5567ZM78.8073 62.9894C78.8073 61.9519 78.0919 61.1291 77.1259 61.1291C76.1243 61.1291 75.4088 61.9519 75.4088 62.9894C75.4088 64.0268 76.1243 64.8496 77.1259 64.8496C78.0919 64.8496 78.8073 64.0268 78.8073 62.9894Z" fill="white"/>
<path d="M86.1052 60.4856C86.1052 60.9864 85.7832 61.2726 85.2824 61.2726C85.0319 61.2726 84.7458 61.2011 84.3522 61.2011C83.7441 61.2011 83.3863 61.6304 83.3863 62.3458V65.4582C83.3863 65.959 83.0644 66.281 82.5635 66.281C82.0627 66.281 81.7407 65.959 81.7407 65.4582V60.5929C81.7407 60.0921 82.0627 59.7701 82.5635 59.7701C83.0286 59.7701 83.3506 60.0563 83.3863 60.4856C83.7441 59.9847 84.2807 59.627 84.9962 59.627C85.5328 59.5912 86.1052 59.8774 86.1052 60.4856Z" fill="white"/>
<path d="M9.40417 61.7019V65.959C9.40417 66.1379 9.26108 66.281 9.08221 66.281C8.90333 66.281 8.76024 66.1379 8.76024 65.959V65.7443C8.50982 66.1021 8.08053 66.3525 7.57969 66.3525C6.64956 66.3525 5.93408 65.6012 5.93408 64.5638C5.93408 63.5621 6.61379 62.8109 7.57969 62.8109C8.08053 62.8109 8.50982 63.0255 8.76024 63.419V61.7376C8.76024 61.5588 8.90333 61.4157 9.08221 61.4157C9.29685 61.3799 9.40417 61.523 9.40417 61.7019ZM8.79601 64.5638C8.79601 63.9199 8.33095 63.3833 7.72279 63.3833C7.07885 63.3833 6.61379 63.9199 6.61379 64.5638C6.61379 65.2077 7.07885 65.7443 7.72279 65.7443C8.33095 65.7443 8.79601 65.2077 8.79601 64.5638Z" fill="white"/>
<path d="M13.8046 63.1683V65.9587C13.8046 66.1375 13.6615 66.2806 13.4826 66.2806C13.3037 66.2806 13.1606 66.1375 13.1606 65.9587V65.744C12.9102 66.1018 12.4809 66.3522 11.9801 66.3522C11.05 66.3522 10.3345 65.6009 10.3345 64.5635C10.3345 63.5618 11.0142 62.8105 11.9801 62.8105C12.4809 62.8105 12.9102 63.0252 13.1606 63.4187V63.2041C13.1606 63.0252 13.3037 62.8821 13.4826 62.8821C13.6972 62.8821 13.8046 62.9894 13.8046 63.1683ZM13.1964 64.5635C13.1964 63.9195 12.7313 63.3829 12.1232 63.3829C11.4792 63.3829 11.0142 63.9195 11.0142 64.5635C11.0142 65.2074 11.4792 65.744 12.1232 65.744C12.7313 65.744 13.1964 65.2074 13.1964 64.5635Z" fill="white"/>
<path d="M17.0229 63.1683C17.0229 63.3472 16.9156 63.4545 16.7367 63.4545C16.6294 63.4545 16.4863 63.4187 16.3074 63.4187C15.9139 63.4187 15.6635 63.7407 15.6635 64.2415V65.9944C15.6635 66.1733 15.5204 66.3164 15.3415 66.3164C15.1626 66.3164 15.0195 66.1733 15.0195 65.9944V63.2041C15.0195 63.0252 15.1626 62.8821 15.3415 62.8821C15.5204 62.8821 15.6635 63.0252 15.6635 63.2041V63.3114C15.8423 63.0252 16.1285 62.8105 16.522 62.8105C16.7367 62.8105 17.0229 62.9179 17.0229 63.1683Z" fill="white"/>
<path d="M18.4921 61.917C18.4921 62.1316 18.3132 62.3105 18.0986 62.3105C17.8839 62.3105 17.7051 62.1316 17.7051 61.917C17.7051 61.7023 17.8839 61.5234 18.0986 61.5234C18.3132 61.5234 18.4921 61.7023 18.4921 61.917ZM18.0986 66.2814C17.9197 66.2814 17.7766 66.1383 17.7766 65.9594V63.169C17.7766 62.9902 17.9197 62.8471 18.0986 62.8471C18.2775 62.8471 18.4206 62.9902 18.4206 63.169V65.9594C18.4206 66.1383 18.2775 66.2814 18.0986 66.2814Z" fill="white"/>
</g>
<defs>
<filter id="filter0_d_1965_493802" x="0.934082" y="0" width="140.131" height="83.999" filterUnits="userSpaceOnUse" color-interpolation-filters="sRGB">
<feFlood flood-opacity="0" result="BackgroundImageFix"/>
<feColorMatrix in="SourceAlpha" type="matrix" values="0 0 0 0 0 0 0 0 0 0 0 0 0 0 0 0 0 0 127 0" result="hardAlpha"/>
<feOffset dx="5" dy="5"/>
<feGaussianBlur stdDeviation="5"/>
<feComposite in2="hardAlpha" operator="out"/>
<feColorMatrix type="matrix" values="0 0 0 0 0 0 0 0 0 0 0 0 0 0 0 0 0 0 0.24 0"/>
<feBlend mode="normal" in2="BackgroundImageFix" result="effect1_dropShadow_1965_493802"/>
<feBlend mode="normal" in="SourceGraphic" in2="effect1_dropShadow_1965_493802" result="shape"/>
</filter>
</defs>
</svg>
