<svg width="56" height="56" viewBox="0 0 56 56" fill="none" xmlns="http://www.w3.org/2000/svg">
<g clip-path="url(#clip0_1893_370866)">
<path d="M11.2765 62.6402C4.96306 59.3068 -1.44111 54.5365 -4.27596 47.9749C-7.07143 41.3673 -6.30407 32.9094 -3.45858 25.6981C-0.613092 18.4869 -0.92521 8.16658 4.94724 5.0498C10.8197 1.93302 23.1711 3.03569 28.3228 6.01264C34.7099 9.70356 35.2952 18.0622 41.3662 21.0543C47.4373 24.0005 58.3468 25.0681 61.6681 30.2846C64.9893 35.5011 64.2165 39.7466 60.382 45.1468C56.5935 50.5011 49.9409 53.2308 44.4353 56.9119C38.8903 60.6323 34.4464 65.2583 29.1328 66.5903C23.8193 67.9223 17.59 65.9735 11.2765 62.6402Z" fill="#FFCE00"/>
<path opacity="0.8" d="M35.6321 24.7824C39.0838 27.9824 42.3481 32.113 43.0338 36.7753C43.6865 41.4601 41.7546 46.7153 38.7121 50.822C35.6695 54.9287 34.1073 61.5541 29.8358 62.5369C25.5643 63.5197 17.8868 60.7099 15.1142 57.9351C11.6765 54.4948 12.7301 49.072 9.3745 46.1306C6.01105 43.2185 -0.754132 40.6771 -1.97904 36.7885C-3.20394 32.8998 -1.98735 30.3281 1.37596 27.5434C4.70217 24.7801 9.40445 24.177 13.5386 22.7723C17.7046 21.3492 21.3238 19.1616 24.9349 19.22C28.546 19.2785 32.1803 21.5824 35.6321 24.7824Z" fill="#FFE784"/>
<path opacity="0.8" d="M27.7334 45.2922C26.6879 49.8815 24.7429 54.7738 21.0481 57.6987C17.3173 60.6064 11.8002 61.5609 6.7224 60.9794C1.64463 60.3978 -4.87426 62.3576 -7.86112 59.1497C-10.848 55.9419 -12.2534 47.8881 -11.2366 44.0995C-9.97607 39.4023 -4.75302 37.6033 -3.88352 33.2266C-3.04329 28.8577 -4.22495 21.7282 -1.46971 18.7231C1.28552 15.7179 4.121 15.4857 8.21425 17.006C12.2704 18.505 15.1438 22.2757 18.4275 25.1537C21.7429 28.05 25.447 30.0905 27.2019 33.247C28.9569 36.4035 28.7788 40.7029 27.7334 45.2922Z" fill="#FFF7D7"/>
<g style="mix-blend-mode:overlay">
<path d="M23.2273 13.2045C23.8422 13.2045 24.3409 13.7033 24.3409 14.3182C24.3409 13.7033 24.8397 13.2045 25.4546 13.2045C24.8397 13.2045 24.3409 12.7058 24.3409 12.0909C24.3409 12.7058 23.8422 13.2045 23.2273 13.2045Z" fill="#002E6D"/>
</g>
<g style="mix-blend-mode:overlay">
<path d="M22.2727 31.3409C22.8876 31.3409 23.3863 31.8397 23.3863 32.4545C23.3863 31.8397 23.8851 31.3409 24.5 31.3409C23.8851 31.3409 23.3863 30.8422 23.3863 30.2273C23.3863 30.8422 22.8876 31.3409 22.2727 31.3409Z" fill="#002E6D"/>
</g>
<g style="mix-blend-mode:overlay">
<path d="M18.4546 9.38636C20.4734 9.38636 22.1137 11.0266 22.1137 13.0455C22.1137 11.0266 23.754 9.38636 25.7728 9.38636C23.754 9.38636 22.1137 7.74608 22.1137 5.72727C22.1137 7.74608 20.4734 9.38636 18.4546 9.38636Z" fill="#002E6D"/>
</g>
<g style="mix-blend-mode:overlay">
<path d="M45.1818 40.8864C46.6739 40.8864 47.8863 42.0988 47.8863 43.5909C47.8863 42.0988 49.0987 40.8864 50.5909 40.8864C49.0987 40.8864 47.8863 39.674 47.8863 38.1818C47.8863 39.674 46.6739 40.8864 45.1818 40.8864Z" fill="#002E6D"/>
</g>
<g style="mix-blend-mode:overlay">
<path d="M44.2273 44.8636C44.7539 44.8636 45.1818 45.2915 45.1818 45.8182C45.1818 45.2915 45.6097 44.8636 46.1364 44.8636C45.6097 44.8636 45.1818 44.4357 45.1818 43.9091C45.1818 44.4357 44.7539 44.8636 44.2273 44.8636Z" fill="#002E6D"/>
</g>
<rect x="29.6008" y="9.21842" width="15.1782" height="18.5855" rx="1.27273" transform="rotate(-2.53912 29.6008 9.21842)" fill="#E7EBEE"/>
<rect x="28.9546" y="8.62695" width="15.1782" height="18.5855" rx="1.27273" transform="rotate(-2.53912 28.9546 8.62695)" fill="white"/>
<g clip-path="url(#clip1_1893_370866)">
<path fill-rule="evenodd" clip-rule="evenodd" d="M38.7702 22.6635C41.6218 21.8994 43.3141 18.9683 42.55 16.1166C41.7859 13.265 38.8548 11.5727 36.0032 12.3368C33.1515 13.1009 31.4593 16.032 32.2233 18.8837C32.9874 21.7353 35.9185 23.4275 38.7702 22.6635ZM39.5557 16.0246C39.7402 15.705 39.6307 15.2964 39.3111 15.1118C38.9915 14.9273 38.5829 15.0368 38.3984 15.3564L36.8426 18.0512L35.7845 17.4403C35.4649 17.2558 35.0563 17.3653 34.8718 17.6849C34.6872 18.0045 34.7967 18.4131 35.1163 18.5976L36.753 19.5426C37.0726 19.7271 37.4813 19.6176 37.6658 19.298L39.5557 16.0246Z" fill="#0055B8"/>
</g>
<path d="M6.84931 54.6073C6.84931 54.6073 5.30183 65.7138 6.38064 72.1336C7.45946 78.5535 7.63631 83.5231 7.57441 86.1405C7.52136 88.6342 7.87507 101.456 8.64439 104.746C8.70629 105.002 8.92735 105.179 9.18379 105.205C10.13 105.276 12.4998 105.347 14.3745 104.631C14.6663 104.516 14.8608 104.233 14.852 103.923C14.7812 101.2 14.4629 88.1832 14.6663 87.2193C14.8962 86.1494 14.7193 85.6719 14.7193 84.8407C14.7193 84.0094 14.9493 66.9606 15.1173 66.9606C15.2853 66.9606 15.6832 66.9606 15.7451 67.3144C15.807 67.6681 15.9131 84.6638 15.9131 85.1413C15.9131 85.6188 16.143 87.3432 16.143 88.1125C16.143 88.7845 16.0104 100.386 15.9839 103.393C15.975 103.817 16.2668 104.18 16.6736 104.277C17.7966 104.542 20.1399 105.356 21.6432 105.011C22.0234 104.923 22.2976 104.595 22.3064 104.206C22.3772 102.588 22.6159 97.6715 23.1288 93.5154C23.7566 88.4662 23.0581 85.6719 23.173 85.1413C23.288 84.6107 23.3852 83.2224 23.2172 83.0986C23.0492 82.9837 25.3395 73.3274 25.702 70.5596C27.2937 58.4097 23.7036 54.2979 23.7036 54.2979C23.7036 54.2979 23.5179 54.6781 15.6302 54.8549C7.74243 55.0053 6.84931 54.6073 6.84931 54.6073Z" fill="#558AF0"/>
<path d="M7.82208 52.3967L7.52144 52.4674C6.86708 54.2448 4.8863 62.9372 6.30114 72.1779C7.42417 79.535 7.55679 83.6204 7.50374 86.2378C7.45068 88.7403 7.9901 101.359 8.66214 104.684C8.80363 105.409 9.82055 105.267 9.82055 105.267C9.82055 105.267 8.44108 91.7115 8.66214 87.6526C8.88321 83.5938 8.67982 77.8637 7.63638 70.9841C6.79632 65.4397 8.2377 56.2167 9.02471 52.9361C7.99011 52.6796 8.03431 52.6089 7.82208 52.3967Z" fill="#EBF4FF"/>
<path d="M21.2983 53.4666C22.0146 55.0318 24.0573 59.8245 24.2341 64.1752C24.4552 69.4631 21.1922 80.9941 21.767 83.3816C22.3506 85.7691 21.5459 99.5461 21.0419 102.517C20.5467 105.418 21.2718 105.011 21.3337 105.055C21.3337 105.055 22.386 104.905 22.3506 104.109C22.2799 102.491 22.6513 97.8041 23.173 93.6303C23.8008 88.5546 23.1023 85.7514 23.2172 85.2209C23.3322 84.6815 23.4294 83.2932 23.2614 83.1694C23.0934 83.0544 25.3925 73.3539 25.7551 70.5773C27.1611 59.7361 23.4825 53.555 23.3233 53.3074C23.3056 53.3251 23.0757 53.387 21.2983 53.4666Z" fill="#EBF4FF"/>
<path d="M23.3145 53.2986C23.3145 53.2986 23.3145 53.2986 23.3233 53.3075C23.3321 53.2986 23.3145 53.2986 23.3145 53.2986Z" fill="#EBF4FF"/>
<path d="M6.84935 54.1917C6.84935 54.1917 5.40798 66.1913 6.29225 72.0452C7.26495 78.4827 7.63634 83.3462 7.57445 85.9637C7.52139 88.4308 7.83089 100.625 8.60021 104.613C8.67095 104.976 8.98045 105.25 9.35184 105.267C10.4218 105.32 12.6767 105.32 14.4629 104.604C14.7017 104.507 14.852 104.268 14.8432 104.012C14.7813 101.474 14.4629 88.1832 14.6663 87.2193C14.8962 86.1494 14.7194 85.6719 14.7194 84.8406C14.7194 84.0094 14.9493 66.9606 15.1173 66.9606C15.2853 66.9606 15.6832 66.9606 15.7451 67.3143C15.807 67.6681 15.9131 84.6638 15.9131 85.1413C15.9131 85.6188 16.1431 87.3431 16.1431 88.1125C16.1431 88.7845 16.0104 100.501 15.9839 103.437C15.9751 103.835 16.2403 104.197 16.6206 104.321C17.7348 104.684 20.0604 105.329 21.5902 105.064C22.0235 104.984 22.3506 104.604 22.3595 104.162C22.4125 102.455 22.6071 97.698 23.1023 93.6303C23.7301 88.5811 23.0846 85.6542 23.1996 85.1236C23.3145 84.593 23.4383 83.1163 23.2703 82.9925C23.1023 82.8687 25.3837 73.0886 25.7639 70.3297C27.223 59.7803 24.0042 54.6958 24.0042 54.6958C24.0042 54.6958 23.5356 54.6515 15.639 54.8372C7.74245 55.0053 6.84935 54.1917 6.84935 54.1917Z" stroke="#1148B7" stroke-width="0.205417" stroke-miterlimit="10" stroke-linecap="round"/>
<path d="M16.1785 13.5771C16.1785 13.5771 12.6502 13.2853 10.4838 16.6455C8.30845 20.0057 9.84707 23.2333 8.9628 25.2848C8.10505 27.2745 7.24731 28.1499 7.24731 28.1499C7.24731 28.1499 12.1904 30.3164 15.1704 29.9008C18.1416 29.4851 17.4607 29.9715 17.4607 29.9715C17.4607 29.9715 22.7663 29.1314 25.6313 27.6635C25.6313 27.6635 23.6241 24.4006 23.5003 21.7124C23.3765 19.0153 22.28 15.7966 20.4318 14.8327" fill="#002E6D"/>
<path d="M14.1446 27.9376L13.8351 30.0245L12.1285 30.3517C12.1285 30.3517 11.651 34.1452 15.082 34.5255C18.5129 34.9057 20.644 30.4313 20.644 30.4313L18.451 30.1837L18.5483 28.5213" fill="#FBC6B6"/>
<path d="M15.0819 13.4798C15.0819 13.4798 15.5771 12.9227 15.1173 11.9588C14.6575 10.995 13.3487 10.3406 12.0135 11.2602C10.4218 12.3656 9.59058 12.1268 9.59058 12.1268C9.59058 12.1268 10.1035 14.7178 12.8447 14.5144" fill="#002E6D"/>
<path d="M12.9155 14.7354C12.9155 14.7354 12.6767 13.975 12.8889 13.6212C13.11 13.2675 15.3207 12.0738 16.258 13.7627" fill="#F89E1C"/>
<path d="M16.2139 28.8308H16.1697C13.3223 28.6451 11.147 26.1603 11.3416 23.3129L11.6599 18.529C11.8456 15.6816 14.3304 13.5063 17.1778 13.7009H17.222C20.0693 13.8865 22.2446 16.3714 22.0501 19.2187L21.7318 24.0026C21.5461 26.85 19.0613 29.0165 16.2139 28.8308Z" fill="#FAC8BB"/>
<path d="M17.0008 21.9688C17.4518 22.4552 18.0089 23.2776 17.3634 23.9496C17.2573 24.0557 17.0804 24.0027 17.0451 23.8523L16.6825 22.1368C16.6471 21.9511 16.8682 21.8362 17.0008 21.9688Z" fill="#FF8D76"/>
<path d="M12.8578 22.8432C12.9188 21.5699 12.2367 20.5027 11.3342 20.4594C10.4317 20.4161 9.65059 21.4132 9.58954 22.6865C9.52849 23.9597 10.2106 25.027 11.1131 25.0702C12.0156 25.1135 12.7967 24.1164 12.8578 22.8432Z" fill="#FAC8BB"/>
<path d="M10.9702 23.9672C10.9702 23.9672 10.1655 23.8965 10.1831 22.4993" stroke="#FF7F66" stroke-width="0.248003" stroke-miterlimit="10" stroke-linecap="round" stroke-linejoin="round"/>
<path d="M23.4294 22.9735C23.5497 21.7046 22.9182 20.6068 22.0187 20.5215C21.1193 20.4362 20.2927 21.3957 20.1723 22.6647C20.052 23.9336 20.6836 25.0314 21.583 25.1167C22.4824 25.2019 23.3091 24.2424 23.4294 22.9735Z" fill="#FAC8BB"/>
<path d="M21.882 24.0203C21.882 24.0203 22.6866 24.0645 22.8723 22.6762" stroke="#FF7F66" stroke-width="0.248003" stroke-miterlimit="10" stroke-linecap="round" stroke-linejoin="round"/>
<path d="M13.8528 21.2437L14.4099 21.4736" stroke="#002E6D" stroke-width="0.422143" stroke-miterlimit="10" stroke-linecap="round"/>
<path d="M14.5391 22.9033C14.9336 22.8743 15.2253 22.4678 15.1906 21.9954C15.1559 21.523 14.8079 21.1634 14.4134 21.1924C14.0189 21.2214 13.7272 21.6279 13.7619 22.1003C13.7966 22.5727 14.1446 22.9322 14.5391 22.9033Z" fill="white"/>
<path d="M14.5452 22.7363C14.8667 22.7127 15.1044 22.3817 15.0761 21.9969C15.0479 21.6121 14.7643 21.3194 14.4429 21.343C14.1214 21.3666 13.8837 21.6976 13.912 22.0824C13.9403 22.4672 14.2238 22.76 14.5452 22.7363Z" fill="#002E6D"/>
<path d="M19.7156 21.1287L19.1761 21.394" stroke="#002E6D" stroke-width="0.422143" stroke-miterlimit="10" stroke-linecap="round"/>
<path d="M19.1496 22.8442C19.5452 22.8442 19.8659 22.4602 19.8659 21.9865C19.8659 21.5128 19.5452 21.1287 19.1496 21.1287C18.754 21.1287 18.4333 21.5128 18.4333 21.9865C18.4333 22.4602 18.754 22.8442 19.1496 22.8442Z" fill="white"/>
<path d="M19.1231 22.6762C19.4454 22.6762 19.7067 22.3634 19.7067 21.9776C19.7067 21.5918 19.4454 21.2791 19.1231 21.2791C18.8007 21.2791 18.5394 21.5918 18.5394 21.9776C18.5394 22.3634 18.8007 22.6762 19.1231 22.6762Z" fill="#002E6D"/>
<path d="M13.5168 19.8819C14.0032 19.6432 14.8079 19.3691 15.3119 19.8466C15.3738 19.9085 15.3208 19.9969 15.2146 19.9881C14.9317 19.9527 14.41 19.935 13.5964 20.0411C13.4815 20.0588 13.4196 19.935 13.5168 19.8819Z" fill="#002E6D"/>
<path d="M20.1842 20.1915C19.7332 19.8908 18.9728 19.5106 18.4068 19.9173C18.3361 19.9704 18.3803 20.0677 18.4864 20.0677C18.7694 20.0677 19.2911 20.1207 20.0781 20.3329C20.2019 20.3683 20.2815 20.2534 20.1842 20.1915Z" fill="#002E6D"/>
<path d="M10.6606 18.6262C10.1389 20.1737 11.6333 22.4286 11.6333 22.4286L13.278 19.6785L10.6606 18.6262Z" fill="#002E6D"/>
<path d="M21.7759 21.8627C21.7759 21.8627 24.0131 14.7708 18.0177 13.6743C13.3045 12.8078 11.5625 15.0184 11.1381 15.9646C10.0593 18.3433 10.2361 20.0057 10.3069 20.6159C10.3069 20.6513 12.5087 20.8812 12.5087 20.8812L14.5514 17.5386L21.7759 21.8627Z" fill="#002E6D"/>
<path d="M14.8255 17.7243L13.5167 16.9284L14.4806 18.6351" fill="#FAC8BB"/>
<path d="M17.0628 28.7777C17.0628 28.7777 15.1881 29.3171 13.2162 27.7254" stroke="#FF7F66" stroke-width="0.248003" stroke-miterlimit="10" stroke-linecap="round" stroke-linejoin="round"/>
<path d="M17.7525 24.9488L14.914 24.7985C14.8344 24.7985 14.7637 24.8604 14.7637 24.94C14.7814 25.4175 14.9936 26.85 17.0451 26.8854C17.1158 26.8854 17.1689 26.8411 17.1866 26.7704L17.4607 25.3113C17.4695 25.2671 17.5049 25.2229 17.5491 25.2052L17.7791 25.1168C17.8763 25.0903 17.8498 24.9576 17.7525 24.9488Z" fill="#E86752"/>
<path d="M12.2081 31.855C12.2081 31.855 14.0297 34.5343 21.0862 31.9788C21.0862 31.9788 28.1427 48.6473 28.2665 53.7584C28.3903 58.8695 6.48682 57.1629 6.48682 57.1629L12.2081 31.855Z" fill="#EBF4FF"/>
<path d="M11.9694 34.0391C11.9694 34.0391 14.8875 35.622 20.2462 34.0391" stroke="#191708" stroke-width="0.205417" stroke-miterlimit="10" stroke-linecap="round"/>
<path d="M12.2168 31.855C12.2168 31.855 14.0385 34.5343 21.095 31.9788C21.095 31.9788 28.1515 48.6473 28.2753 53.7584C28.3991 58.8695 6.49561 57.1629 6.49561 57.1629L12.2168 31.855Z" stroke="#191708" stroke-width="0.205417" stroke-miterlimit="10" stroke-linecap="round"/>
<path d="M4.77128 32.3767C2.39259 34.8615 -0.472449 48.7092 -1.71927 54.7046C-2.9661 60.7 -3.55858 60.5408 -2.99264 62.2386C-2.57703 63.4943 -0.543195 64.1929 1.26072 64.2901C2.24227 64.3432 3.12654 63.6977 3.3653 62.7426L3.40951 62.5923C3.40951 62.5923 4.08155 69.8699 5.21342 70.5419C5.21342 70.5419 11.1204 69.8699 13.6052 68.1721C16.09 66.4743 14.3833 33.5882 13.1365 29.8565C13.1365 29.8477 7.14114 29.8919 4.77128 32.3767Z" fill="#F89E1C"/>
<path d="M26.8781 32.2971C29.2568 34.7819 32.1219 48.6297 33.3687 54.625C34.6155 60.6204 35.208 60.4612 34.642 62.159C34.2264 63.4147 32.1926 64.1133 30.3887 64.2105C29.4071 64.2636 28.5229 63.6181 28.2841 62.6631L28.2399 62.5127C28.2399 62.5127 28.0719 68.9591 26.94 69.64C26.94 69.64 20.7943 69.4543 18.3007 67.7565C15.8159 66.0587 17.7878 33.8269 19.0346 30.0953C19.0258 30.0776 24.4994 29.8035 26.8781 32.2971Z" fill="#F89E1C"/>
<path d="M3.36536 62.7426L6.35418 48.78" stroke="#D57E02" stroke-width="0.218592" stroke-miterlimit="10" stroke-linecap="round"/>
<path d="M28.2312 62.5039L26.4714 54.0149" stroke="#D57E02" stroke-width="0.218592" stroke-miterlimit="10" stroke-linecap="round"/>
<path d="M21.6079 31.2802C21.6079 31.2802 21.7229 41.2371 21.7229 42.705C21.7229 44.1729 18.3273 49.3813 18.3273 55.7127" stroke="#D57E02" stroke-width="0.218592" stroke-miterlimit="10" stroke-linecap="round"/>
<path d="M25.4721 41.0868C25.4721 41.0868 23.8893 43.4655 24.5701 45.4993" stroke="#D57E02" stroke-width="0.218592" stroke-miterlimit="10" stroke-linecap="round"/>
<path d="M25.7021 43.6954C25.7021 43.6954 24.1193 44.9422 25.2512 48.444" stroke="#D57E02" stroke-width="0.218592" stroke-miterlimit="10" stroke-linecap="round"/>
<path d="M6.12427 40.8657C6.12427 40.8657 7.59215 42.3336 7.48604 43.9165" stroke="#D57E02" stroke-width="0.218592" stroke-miterlimit="10" stroke-linecap="round"/>
<path d="M33.3599 54.7046C32.1131 48.7092 29.2038 34.72 26.8251 32.2264C25.6048 30.9442 23.4561 30.4667 21.6256 30.1483L21.6963 32.1822C22.6425 32.4209 24.3757 32.8277 25.1627 33.2787C26.3565 33.9595 27.9924 40.2909 27.9924 40.2909L32.7851 62.4685L33.1123 63.6535C33.8551 63.3086 34.4299 62.8399 34.6333 62.2298C35.1992 60.532 34.6067 60.7 33.3599 54.7046Z" fill="#EBF4FF"/>
<path d="M4.77128 32.3767C2.39259 34.8615 -0.472449 48.7092 -1.71927 54.7046C-2.9661 60.7 -3.55858 60.5408 -2.99264 62.2386C-2.78926 62.8399 -2.21448 63.3174 -1.47169 63.6623L-1.41863 62.9372C-1.41863 62.9372 2.04771 45.7734 3.48024 40.1229C3.91353 38.3986 5.25764 33.8976 6.46025 33.2256C7.59212 32.5889 10.6429 32.3944 10.6429 32.3944L11.1204 30.0068C9.16613 30.2191 6.25686 30.8204 4.77128 32.3767Z" fill="#EBF4FF"/>
<path d="M10.7667 31.8108C10.7667 31.8108 9.86472 38.2571 10.0858 40.7508C10.3157 43.2356 12.6855 46.4101 12.6855 51.9545" stroke="#D57E02" stroke-width="0.218592" stroke-miterlimit="10" stroke-linecap="round"/>
</g>
<defs>
<clipPath id="clip0_1893_370866">
<rect width="56" height="56" rx="28" fill="white"/>
</clipPath>
<clipPath id="clip1_1893_370866">
<rect width="13.3636" height="13.3636" fill="white" transform="translate(29.2031 12.7754) rotate(-15)"/>
</clipPath>
</defs>
</svg>
