<svg width="100" height="100" viewBox="0 0 100 100" fill="none" xmlns="http://www.w3.org/2000/svg">
<mask id="mask0_2342_98256" style="mask-type:alpha" maskUnits="userSpaceOnUse" x="0" y="0" width="100" height="100">
<rect width="100" height="100" fill="#D9D9D9"/>
</mask>
<g mask="url(#mask0_2342_98256)">
<path d="M74.0028 65.5194C76.9382 57.0735 70.6191 48.276 61.681 48.4166L58.2182 48.4693C58.1919 48.4693 58.1743 48.4693 58.1479 48.4693L49.5174 48.6099L40.8869 48.4693C40.8605 48.4693 40.8429 48.4693 40.8166 48.4693L37.3538 48.4166C28.4157 48.276 22.0966 57.0735 25.032 65.5194C25.99 68.2791 27.0183 70.8454 28.0905 73.2271C28.6706 74.6245 29.4176 76.1626 30.2525 77.7533C33.8911 84.8898 37.7317 90.2684 40.6759 94.6716C40.7902 94.8386 40.9132 95.0056 41.0363 95.1638C42.9874 97.9849 46.2392 99.3296 49.5262 99.2857C52.8044 99.3384 56.065 97.9849 58.0161 95.1638C58.1391 95.0056 58.2622 94.8386 58.3764 94.6716C61.3206 90.2684 65.1613 84.8898 68.7998 77.7533C69.6348 76.1626 70.3818 74.6333 70.9619 73.2271C72.0165 70.8366 73.0448 68.2791 74.0028 65.5194Z" fill="#F89E1C"/>
<path d="M58.9284 82.649C61.3629 77.9383 56.5379 74.7041 51.1768 77.8065C44.7874 81.4977 41.0082 79.8367 36.7457 72.7705C33.2829 67.0227 28.2206 68.508 26.4453 69.2638C26.999 70.6612 27.5615 72.0147 28.1415 73.3066C28.7216 74.7041 29.4686 76.2421 30.3036 77.8328C33.9421 84.9693 37.7828 90.348 40.727 94.7511C40.8412 94.9181 40.9643 95.0851 41.0873 95.2433C43.0384 98.0645 46.2902 99.4091 49.5772 99.3652C52.8554 99.4179 56.116 98.0645 58.0671 95.2433C58.1902 95.0851 58.3132 94.9181 58.4275 94.7511C59.3854 93.3098 60.4489 91.7717 61.5562 90.0931C59.0075 89.68 56.573 87.2016 58.9284 82.649Z" fill="#032663"/>
<path d="M49.3565 99.5147C45.885 99.5147 42.7386 97.9591 40.9193 95.3225C40.7963 95.1643 40.6733 94.9973 40.559 94.8216C40.1371 94.1888 39.6889 93.5296 39.2319 92.8529C36.5601 88.9067 33.2468 84.0026 30.1268 77.8857C29.2391 76.1983 28.5097 74.669 27.956 73.3507C27.3671 72.0412 26.7959 70.6789 26.2598 69.3079L26.207 69.1673L26.3477 69.1058C28.3427 68.2533 33.361 66.8998 36.8414 72.6828C41.2006 79.9159 44.9182 81.2166 51.0615 77.666C54.3309 75.7764 57.2048 76.2774 58.6022 77.6132C59.8854 78.8437 60.0524 80.7508 59.0329 82.7195C58.0046 84.7145 57.82 86.4811 58.5056 87.8345C59.0592 88.9243 60.193 89.7065 61.5377 89.9262L61.7838 89.9614L61.6431 90.1635C61.0191 91.1039 60.4127 92.0004 59.8239 92.8617C59.3669 93.5384 58.9274 94.1888 58.5056 94.8128C58.3913 94.9885 58.2683 95.1555 58.1452 95.3137C56.2996 97.9855 53.0917 99.5587 49.5323 99.4972C49.4708 99.5147 49.4092 99.5147 49.3565 99.5147ZM49.5323 99.1983C52.9862 99.2511 56.0975 97.7394 57.8904 95.1467C58.0134 94.9798 58.1364 94.8216 58.2419 94.6546C58.6638 94.0218 59.1032 93.3714 59.5602 92.6947C60.1051 91.8949 60.6588 91.06 61.2388 90.1987C59.8942 89.9175 58.778 89.1001 58.2155 87.9839C57.7058 86.9732 57.3806 85.2155 58.7516 82.5789L58.8923 82.6492L58.7516 82.5789C59.7008 80.742 59.569 78.9755 58.3825 77.8505C57.0642 76.5938 54.3397 76.1367 51.2197 77.9472C44.9622 81.5682 40.9897 80.1883 36.5689 72.8586C33.2907 67.4271 28.6151 68.5345 26.6113 69.3519C27.1298 70.6702 27.6835 71.9797 28.246 73.2453C28.7909 74.5636 29.5204 76.0752 30.408 77.7627C33.5192 83.862 36.8326 88.7573 39.4956 92.6947C39.9526 93.3714 40.4008 94.0306 40.8227 94.6634C40.9369 94.8304 41.0512 94.9885 41.1742 95.1555C42.9671 97.7394 46.0959 99.2599 49.5323 99.1983Z" fill="#10319B"/>
<path d="M18.1673 55.4481C16.9105 58.946 14.564 67.4271 16.6117 77.8681C16.8139 78.8876 18.1322 79.1777 18.7474 78.3427L19.2308 77.6924C24.1085 71.0832 24.3634 62.1363 19.8723 55.2548C19.4417 54.5868 18.4398 54.7011 18.1673 55.4481Z" fill="#F5851F"/>
<path d="M49.6829 99.5145C49.6214 99.5145 49.5687 99.5145 49.5072 99.5145C45.9741 99.5672 42.7398 98.0028 40.8942 95.3223C40.7712 95.1641 40.6481 94.9971 40.5339 94.8213C40.112 94.1885 39.6638 93.5293 39.2068 92.8526C36.535 88.9065 33.2217 84.0024 30.1017 77.8854C29.214 76.198 28.4845 74.6688 27.9309 73.3505C26.8059 70.8281 25.7776 68.2354 24.8724 65.634C23.4486 61.5472 24.0902 57.188 26.6213 53.6901C29.1437 50.2098 33.0459 48.2587 37.3524 48.3202L40.8063 48.3729H40.8766L49.5072 48.5135L58.1377 48.3729H58.1816L61.6707 48.3202C65.9772 48.2499 69.8794 50.2098 72.4018 53.6901C74.9329 57.188 75.5745 61.5472 74.1507 65.634C73.2455 68.2354 72.2172 70.8369 71.0922 73.3592C70.5473 74.6776 69.8179 76.2068 68.9214 77.8942C65.8014 84.0024 62.4793 88.9153 59.8163 92.8614C59.3593 93.5381 58.9111 94.1973 58.4892 94.8301C58.375 95.0058 58.2519 95.1728 58.1289 95.331C56.3096 97.9589 53.1633 99.5145 49.6829 99.5145ZM49.5072 99.1981C52.9611 99.2508 56.0723 97.7391 57.8652 95.1465C57.9883 94.9795 58.1113 94.8213 58.2168 94.6543C58.6386 94.0215 59.0869 93.3624 59.5439 92.6856C62.2069 88.7483 65.5202 83.8442 68.6314 77.7536C69.5191 76.075 70.2397 74.5545 70.7934 73.245C71.9184 70.7314 72.9467 68.1387 73.8431 65.5461C75.2317 61.556 74.6077 57.3023 72.1381 53.8922C69.6773 50.4998 65.8542 48.5926 61.6707 48.6542L58.2168 48.7069H58.1728L49.5159 48.8475L40.8766 48.7069H40.8063L37.3436 48.6542C33.1601 48.5926 29.3371 50.4998 26.8762 53.8922C24.4066 57.311 23.7826 61.556 25.1712 65.5461C26.0677 68.1387 27.0959 70.7314 28.2209 73.245C28.7658 74.5633 29.4953 76.075 30.3829 77.7624C33.4941 83.8618 36.8075 88.7571 39.4704 92.6944C39.9275 93.3712 40.3757 94.0303 40.7975 94.6631C40.9118 94.8301 41.026 94.9883 41.1491 95.1553C42.9508 97.7391 46.0796 99.2596 49.5072 99.1981Z" fill="#10319B"/>
<path d="M69.8521 53.0927C67.6286 51.1679 64.7986 50.0078 61.6347 50.0693L58.1631 50.1309C58.1368 50.1309 58.1192 50.1309 58.0928 50.1309L49.4183 50.2803L40.7439 50.1309C40.7175 50.1309 40.6999 50.1309 40.6736 50.1309L37.202 50.0693C32.3858 49.9902 29.7668 53.453 27.4993 57.4167C26.9895 58.3132 27.4905 59.4733 28.466 59.6666C36.6835 61.2925 55.3771 63.1118 69.8521 53.0927Z" fill="#E26907"/>
<path d="M47.2578 76.2772C46.4317 76.2772 45.5968 76.0751 44.8321 75.662C43.2062 74.7832 42.2043 73.1573 42.1428 71.3116L41.8264 60.73C41.7737 58.8844 42.6789 57.1969 44.2521 56.2302C45.8253 55.2546 47.7324 55.2019 49.3583 56.0808L58.7535 61.1343C60.3267 61.978 61.3198 63.5424 61.4165 65.3265C61.5131 67.1106 60.687 68.7717 59.2193 69.7736C59.1753 69.8088 59.1226 69.8351 59.0787 69.8703L59.0171 69.9054L49.9472 75.5126C49.1123 76.0136 48.1806 76.2772 47.2578 76.2772ZM46.9326 56.0896C46.1241 56.0896 45.3067 56.3181 44.5773 56.7663C43.1974 57.6188 42.4065 59.0953 42.4592 60.7124L42.7756 71.294C42.8283 72.9112 43.7072 74.3349 45.131 75.0996C46.5547 75.8642 48.2334 75.8202 49.6044 74.9677L58.7359 69.3254C58.7798 69.299 58.8238 69.2726 58.8589 69.2463C60.1421 68.3674 60.8628 66.9173 60.7749 65.3529C60.6958 63.7973 59.8257 62.4262 58.4459 61.688L49.0507 56.6345C48.3828 56.2653 47.6533 56.0896 46.9326 56.0896Z" fill="#F89E1C"/>
<path d="M47.2149 76.3564C46.3975 76.3564 45.5714 76.1542 44.8068 75.7411C43.1896 74.8711 42.1965 73.2627 42.1438 71.4259L41.8186 60.5806C41.7659 58.7526 42.6623 57.0827 44.2179 56.1159C45.7735 55.1492 47.6719 55.0965 49.289 55.9665L58.9127 61.1519C60.4683 61.9868 61.4526 63.5424 61.5493 65.3089C61.646 67.0755 60.8286 68.7278 59.3785 69.7209C59.3345 69.756 59.2818 69.7824 59.2378 69.8176L59.1763 69.8527L49.8779 75.6005C49.0517 76.1015 48.1377 76.3564 47.2149 76.3564ZM46.8809 55.6765C46.0196 55.6765 45.1583 55.9138 44.3849 56.3972C42.926 57.3024 42.0823 58.8668 42.135 60.5806L42.4602 71.4259C42.5129 73.1397 43.4445 74.6513 44.9562 75.4687C46.4678 76.286 48.2432 76.2333 49.7109 75.3281L59.0621 69.5451C59.106 69.5187 59.15 69.4836 59.1939 69.4572C60.5562 68.5256 61.3208 66.9876 61.2329 65.3265C61.145 63.6742 60.2222 62.2153 58.7633 61.4331L49.1396 56.2478C48.4277 55.8699 47.6543 55.6765 46.8809 55.6765Z" fill="#10319B"/>
<path d="M19.8717 55.2541C19.4411 54.595 18.4392 54.7092 18.1667 55.4475C17.0593 58.5235 15.1082 65.4578 16.0574 74.185C16.2068 66.407 19.4235 58.9629 20.61 56.4757C20.3727 56.0627 20.1354 55.6496 19.8717 55.2541Z" fill="#F89E1C"/>
<path d="M16.417 72.7621C16.0303 72.7621 15.793 72.6918 15.7578 72.683L15.9424 72.0766L15.8457 72.3754L15.9336 72.0678C15.9687 72.0766 19.7743 72.9028 22.9118 64.6765L23.0788 65.9157C20.5213 72.393 17.7265 72.7621 16.417 72.7621Z" fill="#F89E1C"/>
<path d="M16.1914 75.3724C16.1914 75.3724 19.5135 77.0071 22.0623 71.9185C22.0623 71.9185 19.953 78.2375 17.7031 78.7473C17.7031 78.7473 16.2441 79.0725 16.1914 75.3724Z" fill="#032663"/>
<path d="M17.7981 78.9843C17.6926 78.9843 17.5959 78.9755 17.4905 78.9491C16.9631 78.8261 16.5676 78.4306 16.4622 77.8945C14.3793 67.2865 16.8577 58.6208 18.0178 55.3954C18.1584 54.9999 18.5099 54.7187 18.9318 54.6659C19.3537 54.6132 19.7667 54.8065 19.9952 55.1669C24.5039 62.066 24.2402 71.1536 19.3449 77.7802L18.8615 78.4306C18.6154 78.7822 18.2199 78.9843 17.7981 78.9843ZM19.0724 54.9735C19.0373 54.9735 19.0109 54.9735 18.9758 54.9823C18.6681 55.0175 18.4221 55.2108 18.3166 55.5009C17.1653 58.7087 14.7044 67.3041 16.7698 77.833C16.8489 78.2373 17.1477 78.5449 17.5608 78.6415C17.965 78.7294 18.3781 78.58 18.6242 78.246L19.1076 77.5957C23.9238 71.0745 24.1787 62.1275 19.7404 55.3427C19.591 55.1054 19.3449 54.9735 19.0724 54.9735Z" fill="#10319B"/>
<path d="M17.3847 75.7144C16.6377 75.7144 16.1455 75.5211 16.1367 75.5123L16.2598 75.2223C16.3916 75.275 19.5995 76.5406 22.0164 71.8738L22.2976 72.0232C20.6805 75.1344 18.6591 75.7144 17.3847 75.7144Z" fill="#10319B"/>
<path d="M16.5517 72.9382C16.1738 72.9382 15.9453 72.8679 15.9102 72.8591L16.0068 72.5603C16.042 72.5691 19.7157 73.6149 22.9499 65.8545L23.2399 65.9775C20.6561 72.1736 17.7997 72.9382 16.5517 72.9382Z" fill="#10319B"/>
<path d="M81.2532 55.4481C82.51 58.946 84.8566 67.4271 82.8088 77.8681C82.6067 78.8876 81.2884 79.1777 80.6732 78.3427L80.1898 77.6924C75.312 71.0832 75.0572 62.1363 79.5482 55.2548C79.9788 54.5868 80.9808 54.7011 81.2532 55.4481Z" fill="#F89E1C"/>
<path d="M80.409 56.4851C80.4002 56.5027 80.3915 56.5115 80.3827 56.529C78.8446 59.1481 79.1522 62.479 81.1033 64.7992C81.7449 65.5638 82.5271 66.2581 83.4499 66.7152C83.4411 61.9605 82.2195 58.2868 81.5076 56.5642C81.3143 56.0984 80.6639 56.0544 80.409 56.4851Z" fill="#F4B821"/>
<path d="M77.1558 60.6512C75.5651 66.3991 76.5933 72.7094 80.1879 77.6926L80.6537 78.3429C80.7065 78.422 80.7768 78.4836 80.8471 78.5451L82.4466 78.4572C82.596 78.299 82.7015 78.1056 82.7454 77.8683C82.9476 76.8137 83.1058 75.7854 83.2288 74.7747C78.2017 72.6215 77.2964 64.5974 77.1558 60.6512Z" fill="#F5851F"/>
<path d="M82.9314 72.7792C81.6043 72.7792 78.7567 71.9531 76.2695 65.6428L76.4805 64.5793C79.6532 73.2977 83.4323 72.0937 83.4675 72.0849L83.6784 72.6825C83.6345 72.6913 83.3708 72.7792 82.9314 72.7792Z" fill="#F89E1C"/>
<path d="M83.2302 75.3724C83.2302 75.3724 79.9081 77.0071 77.3594 71.9185C77.3594 71.9185 79.4687 78.2375 81.7186 78.7473C81.7186 78.7473 83.1775 79.0725 83.2302 75.3724Z" fill="#032663"/>
<path d="M81.6201 78.9844C81.1983 78.9844 80.8028 78.7911 80.5391 78.4307L80.0558 77.7804C75.1604 71.1537 74.9056 62.0662 79.4054 55.167C79.6427 54.8067 80.047 54.6221 80.4688 54.6661C80.8907 54.7188 81.2422 54.9912 81.3829 55.3955C82.543 58.6298 85.0302 67.2954 82.9384 77.8946C82.833 78.422 82.4375 78.8262 81.9102 78.9493C81.8223 78.9756 81.7256 78.9844 81.6201 78.9844ZM80.3458 54.9737C80.0733 54.9737 79.836 55.1055 79.6778 55.334C75.2395 62.1189 75.4944 71.0658 80.3106 77.587L80.794 78.2374C81.0401 78.5714 81.4532 78.7208 81.8574 78.6329C82.2617 78.545 82.5605 78.2374 82.6484 77.8243C84.7226 67.2954 82.2529 58.7001 81.1016 55.4922C80.9961 55.2022 80.7501 55.0088 80.4425 54.9737C80.4073 54.9737 80.3809 54.9737 80.3458 54.9737Z" fill="#10319B"/>
<path d="M82.034 75.7149C80.7596 75.7149 78.7382 75.1349 77.1211 72.0149L77.4023 71.8655C79.8192 76.5411 83.0271 75.2755 83.1589 75.214L83.282 75.504C83.2732 75.5216 82.781 75.7149 82.034 75.7149Z" fill="#10319B"/>
<path d="M82.8679 72.9382C81.6199 72.9382 78.7636 72.1736 76.1797 65.9775L76.4697 65.8545C79.7215 73.6413 83.3776 72.5691 83.4128 72.5603L83.5095 72.8591C83.4743 72.8679 83.2458 72.9382 82.8679 72.9382Z" fill="#10319B"/>
<path d="M47.8456 73.843C47.2128 73.843 46.58 73.6848 45.9911 73.3684C44.7431 72.7005 43.9785 71.4613 43.9346 70.0463L43.6973 62.1189C43.6533 60.7039 44.3476 59.4207 45.5517 58.6825C46.7558 57.9354 48.2147 57.9003 49.4539 58.5682L56.4849 62.3562C57.6889 63.0065 58.4447 64.2018 58.5151 65.5641C58.5854 66.9263 57.9614 68.2007 56.8364 68.9653C56.8013 68.9917 56.7661 69.0092 56.7309 69.0356L56.687 69.062L49.8933 73.263C49.2605 73.6409 48.5574 73.843 47.8456 73.843ZM47.5995 58.7264C47.0018 58.7264 46.413 58.8934 45.8769 59.2186C44.875 59.8426 44.2949 60.9148 44.3301 62.1013L44.5674 70.0287C44.6025 71.2152 45.2441 72.2523 46.29 72.8147C47.327 73.3772 48.5574 73.3421 49.5594 72.7181L56.3882 68.4907C56.4233 68.4731 56.4497 68.4467 56.4761 68.4292C57.4165 67.7876 57.935 66.7242 57.8735 65.5904C57.812 64.4567 57.1792 63.4548 56.1773 62.9099L49.1463 59.1219C48.6629 58.8583 48.1356 58.7264 47.5995 58.7264Z" fill="#F89E1C"/>
<path d="M56.4962 68.6923C56.5314 68.6747 56.5665 68.6483 56.5929 68.6307C58.7286 67.1718 58.5792 63.9463 56.2765 62.7071L49.4037 58.9983C47.022 57.7151 44.1569 59.4905 44.236 62.1974L44.4645 69.9402C44.5436 72.6384 47.523 74.2379 49.8168 72.8229L56.4611 68.7186C56.4699 68.7098 56.4875 68.701 56.4962 68.6923Z" fill="#032663"/>
<path d="M53.6211 67.4974C53.6387 67.4886 53.6563 67.471 53.6738 67.4622C54.8779 66.6449 54.79 64.8256 53.4893 64.1225L49.6134 62.0396C48.2688 61.3189 46.6516 62.3208 46.7044 63.8413L46.8362 68.2093C46.8802 69.7297 48.5588 70.635 49.8507 69.8352L53.5947 67.5238C53.6035 67.515 53.6123 67.5062 53.6211 67.4974Z" fill="#33FCFE"/>
<path d="M71.1798 56.0726C70.1076 57.2943 63.8588 60.3967 63.8588 60.3967C63.8588 60.3967 66.0032 62.005 66.0384 65.4062C66.0648 67.9462 63.6654 70.2225 63.6654 70.2225C65.8275 72.4284 65.0101 76.3218 63.4106 79.2748C61.811 82.2278 63.226 83.0891 63.226 83.0891C63.226 83.0891 72.5772 69.1151 73.3945 61.2668C73.7285 58.0765 71.1798 56.0726 71.1798 56.0726Z" fill="#F4B821"/>
<path d="M28.9336 70.855C28.9336 70.855 31.3593 70.4507 32.66 72.0942C33.9607 73.7377 41.6948 88.3182 45.2982 93.5299C45.9485 94.4703 47.6184 97.6957 49.4728 97.0542C49.4728 97.0542 46.8889 98.5219 43.0834 94.69C39.2867 90.8493 31.1659 75.4779 28.9336 70.855Z" fill="#0E51A0"/>
<path d="M24.867 9.93598C26.6292 8.69367 28.7349 7.63638 31.061 6.75531L30.9112 6.79055C30.9112 6.79055 38.3827 2.65833 49.5282 2.65833C60.6386 2.65833 68.1982 6.6672 68.2422 6.69364C70.6387 7.58352 72.7885 8.65843 74.5947 9.92717C83.2909 16.0506 82.5773 29.205 78.7622 41.6017C76.0045 50.6239 62.8677 54.7297 49.7397 54.5271C36.6117 54.7297 23.4749 50.6239 20.6995 41.6017C16.8845 29.2138 16.1708 16.0594 24.867 9.93598Z" fill="#F89E1C"/>
<path d="M24.8687 9.97929C25.7938 9.3273 26.8158 8.72817 27.9084 8.1731C19.3884 14.367 20.1109 27.451 23.8995 39.786C26.6749 48.8258 39.8028 52.9316 52.9396 52.7377C60.4023 52.8523 67.865 51.5659 73.4334 48.7817C67.7681 52.9051 58.7547 54.8083 49.7325 54.6673C36.6046 54.8699 23.4678 50.7553 20.6924 41.7155C16.8862 29.3012 16.1725 16.1204 24.8687 9.97929Z" fill="#F5851F"/>
<path d="M28.931 21.0104C23.6005 19.9003 23.2481 11.4067 23.2305 11.0367L23.8648 11.019C23.8648 11.0983 24.2173 19.3804 29.0544 20.3848L28.931 21.0104Z" fill="#F89E1C"/>
<path d="M69.395 21.3363L69.2188 20.7283C74.5228 19.1864 74.8312 10.5696 74.8312 10.4814L75.4655 10.4991C75.4567 10.8691 75.1396 19.671 69.395 21.3363Z" fill="#F4B821"/>
<path d="M49.9261 10.2087C46.9392 10.2087 44.1639 9.23075 42.5427 7.58315C42.4898 7.53028 42.437 7.47742 42.3841 7.41575L39.4766 4.13816L40.1902 3.50378L43.0978 6.77256C43.133 6.81662 43.1771 6.86067 43.2211 6.90472C44.7982 8.50827 47.6353 9.38935 50.6397 9.23075C53.5561 9.07216 56.0936 7.96201 57.424 6.27916L59.5033 3.63595L60.2522 4.22626L58.1729 6.86948C56.6839 8.7726 53.8821 10.0061 50.6926 10.1823C50.4283 10.1999 50.1816 10.2087 49.9261 10.2087Z" fill="#F4B821"/>
<path d="M49.9078 13.6538C45.9518 13.6538 42.3659 12.3234 40.0839 9.99734C40.0046 9.91804 39.9165 9.82993 39.8372 9.74183L39.7491 9.64491L35.7578 5.16025L36.4715 4.52588L40.542 9.10745C40.6125 9.18675 40.683 9.26605 40.7623 9.33653C42.8681 11.4687 46.2073 12.7022 49.9078 12.7022C50.2074 12.7022 50.5158 12.6934 50.8241 12.6758C54.7714 12.4555 58.1635 10.9048 60.1195 8.41141L63.0887 4.63161L63.8376 5.22193L60.8684 9.00173C58.745 11.7066 55.0973 13.3895 50.877 13.6274C50.5598 13.645 50.2338 13.6538 49.9078 13.6538Z" fill="#F4B821"/>
<path d="M74.1012 12.2532C72.295 10.9756 70.1451 9.88312 67.7486 8.99324C67.6958 8.9668 60.1185 4.34998 49.0082 4.34998C41.6953 4.34117 35.3075 5.56586 31.7656 6.40288C34.0124 5.3456 40.5852 2.65833 49.5369 2.65833C60.6472 2.65833 68.2068 6.70245 68.2508 6.72888C70.6474 7.62757 72.7972 8.71129 74.6034 9.98885C82.3568 15.4955 82.6299 26.6411 79.8898 37.8484C82.0572 27.4341 81.3348 17.3899 74.1012 12.2532Z" fill="#F4B821"/>
<path d="M69.9171 20.9049L69.8555 20.5965C74.8247 19.5657 75.3622 10.7197 75.371 10.6316L75.6882 10.6492C75.6617 11.0193 75.1243 19.8212 69.9171 20.9049Z" fill="#10319B"/>
<path d="M60.4876 8.67582L63.4569 4.89602C62.4172 4.56121 61.2101 4.21759 59.8621 3.90041L57.7828 6.54362C56.373 8.34101 53.7034 9.50403 50.6549 9.68024C47.5183 9.85646 44.5402 8.91371 42.875 7.21324C42.8221 7.16037 42.7781 7.11632 42.734 7.06346L39.8265 3.79468C38.4432 4.10305 37.2009 4.45548 36.1172 4.7991L40.1084 9.28376L40.1966 9.38068C40.2758 9.45997 40.3463 9.54808 40.4256 9.62738C42.6195 11.8565 46.1085 13.134 49.906 13.134C50.2143 13.134 50.5315 13.1252 50.8487 13.1076C54.9281 12.8962 58.4436 11.275 60.4876 8.67582Z" fill="#032663"/>
<path d="M29.4508 20.9052C24.2437 19.8214 23.671 11.1076 23.6445 10.7376L23.9617 10.72C23.9705 10.8081 24.5432 19.5659 29.5125 20.5968L29.4508 20.9052Z" fill="#10319B"/>
<path d="M49.6694 54.4118C43.1759 54.5087 36.6912 53.61 31.3166 51.6364C30.0655 50.2972 29.0699 48.5703 28.4884 46.5614C26.9994 41.4072 25.3253 34.2 24.6822 26.1029C24.365 22.1205 26.6117 18.5081 29.8364 17.7327C34.233 16.6755 41.0172 15.4508 49.0702 15.3274V15.3186C49.2993 15.3186 49.5196 15.3274 49.7487 15.3274C49.9777 15.3274 50.198 15.3186 50.4271 15.3186V15.3274C58.4801 15.4508 65.1058 16.4728 69.5023 17.5301C72.727 18.3054 75.1324 22.1205 74.8152 26.1029C74.172 34.2 72.498 41.4072 71.0089 46.5614C70.4362 48.5262 69.4759 50.2179 68.26 51.5571C62.8238 53.5836 56.2422 54.5087 49.6694 54.4118Z" fill="#032663"/>
<path d="M72.094 49.5485L70.8164 50.2446C71.0543 49.5397 71.4508 48.3503 71.7151 47.5133C72.42 45.3106 73.2217 42.8083 73.9354 41.1343C75.0896 38.4294 78.2967 36.3853 80.4025 35.3633L80.0412 36.7466C78.0764 37.7069 75.8473 39.0726 74.8077 41.5132C74.1116 43.152 73.3187 45.6278 72.6138 47.8128C72.3583 48.641 72.3318 48.8437 72.094 49.5485Z" fill="#F4B821"/>
<path d="M27.7765 49.7516C27.706 49.7516 27.6444 49.7076 27.6267 49.6459C27.4153 49.0203 27.195 48.3331 26.9659 47.637C26.2787 45.5137 25.4946 43.0995 24.7633 41.3814C23.6972 38.888 21.4064 37.5047 19.3006 36.4739C19.2213 36.4386 19.1861 36.3417 19.2301 36.2624C19.2654 36.1831 19.3623 36.1479 19.4416 36.1919C21.6002 37.2404 23.9527 38.6677 25.0628 41.2581C25.8029 42.9938 26.5871 45.4079 27.2743 47.5401C27.5034 48.2362 27.7237 48.9146 27.9263 49.549C27.9527 49.6283 27.9087 49.7252 27.8294 49.7516C27.8118 49.7516 27.7942 49.7516 27.7765 49.7516Z" fill="#F89E1C"/>
<path d="M80.1479 36.7026C79.7691 38.3414 79.3285 39.989 78.8263 41.619C77.7955 44.9847 75.3549 47.6632 72.0156 49.7073C72.8791 47.1257 73.6016 44.2446 74.5707 41.9626C75.7249 39.2754 78.2889 37.6013 80.1479 36.7026Z" fill="#032663"/>
<path d="M77.8816 41.8222C78.234 40.8707 78.56 39.9191 78.8684 38.9587C77.8816 39.5931 76.8684 40.5094 76.2516 41.787C75.5908 43.1438 75.0093 44.8179 74.4102 46.4126C75.9785 45.2055 77.1855 43.6813 77.8816 41.8222Z" fill="#0E51A0"/>
<path d="M72.2175 49.6898L71.918 49.5929C72.2175 48.703 72.4995 47.7602 72.7726 46.8527C73.2924 45.1258 73.8387 43.3461 74.4731 41.8394C75.6185 39.1433 78.1824 37.4517 80.1207 36.5001L80.2617 36.7821C78.3674 37.7072 75.8828 39.346 74.7638 41.954C74.1295 43.443 73.592 45.2139 73.0722 46.932C72.799 47.8571 72.5171 48.7999 72.2175 49.6898Z" fill="#10319B"/>
<path d="M19.3008 36.7026C19.6796 38.3414 20.1202 39.989 20.6224 41.619C21.6532 44.9847 24.0938 47.6632 27.4331 49.7073C26.5696 47.1257 25.8471 44.2446 24.878 41.9626C23.7326 39.2754 21.1598 37.6013 19.3008 36.7026Z" fill="#032663"/>
<path d="M50.6035 54.6683C50.3127 54.6683 50.0219 54.6683 49.74 54.6595C38.1715 54.8357 23.5986 51.5317 20.5501 41.6372C17.8188 32.7736 14.7438 16.8615 24.7792 9.79528L24.8673 9.92744L24.7792 9.79528C26.5326 8.56178 30.7881 6.68509 30.9732 6.6058C31.0348 6.57055 38.4799 2.5 49.5374 2.5C60.6301 2.5 68.2513 6.50888 68.3306 6.55293C70.7888 7.46044 72.9386 8.55297 74.7008 9.79528C84.7362 16.8615 81.6612 32.7736 78.9299 41.6284C75.9519 51.285 62.0133 54.6683 50.6035 54.6683ZM49.7312 54.3423C50.0131 54.3423 50.3039 54.3511 50.5946 54.3511C61.8988 54.3511 75.6964 51.0295 78.6215 41.5403C81.3264 32.7648 84.3838 17.0113 74.5158 10.0596C72.7712 8.83491 70.6478 7.75119 68.1985 6.84369C68.1015 6.79082 60.5419 2.826 49.5374 2.826C38.568 2.826 31.1846 6.8525 31.1141 6.89655C31.0613 6.92298 26.7 8.84372 24.9643 10.0596C15.0874 17.0024 18.1536 32.7648 20.8496 41.5403C23.8453 51.2673 38.2861 54.5185 49.7312 54.3423Z" fill="#10319B"/>
<path d="M49.7391 53.0201C44.1707 53.0994 38.6112 52.4034 33.871 50.8791C33.1397 50.6412 32.4789 50.2007 32.0208 49.5839C31.2366 48.5443 30.6198 47.3196 30.2057 45.9539C28.8313 41.3195 27.2894 34.826 26.6991 27.5395C26.4083 23.9535 28.4788 20.7024 31.4481 20.0063C35.501 19.0548 41.7566 17.9534 49.184 17.8389V17.8301C49.3955 17.8301 49.5981 17.8301 49.8096 17.8389C50.0211 17.8389 50.2237 17.8301 50.4352 17.8301V17.8389C57.8626 17.9534 64.1094 19.0548 68.1712 20.0063C71.1492 20.7024 73.2109 23.9535 72.9201 27.5395C72.321 34.826 70.7879 41.3195 69.4135 45.9539C69.0082 47.3108 68.4002 48.5178 67.6249 49.5487C67.1843 50.139 66.5676 50.5619 65.8716 50.791C61.0609 52.3857 55.4044 53.1082 49.7391 53.0201Z" fill="#FCE8CA"/>
<path fill-rule="evenodd" clip-rule="evenodd" d="M36.3862 35.7703C36.6012 35.5003 36.9944 35.4558 37.2644 35.6708C38.2856 36.484 41.0953 38.2477 44.0309 38.7348C44.3352 38.7853 44.5572 39.0502 44.5536 39.3586C44.55 39.667 44.322 39.9267 44.0166 39.9701C43.2948 40.0728 42.0718 40.3065 40.78 40.671C39.4796 41.0378 38.1568 41.5242 37.2053 42.1162C36.9122 42.2985 36.5268 42.2087 36.3444 41.9157C36.1621 41.6226 36.2518 41.2372 36.5449 41.0548C37.6453 40.3702 39.1012 39.8458 40.4406 39.4679C40.7071 39.3927 40.9709 39.3228 41.2286 39.2582C39.0828 38.458 37.2919 37.2906 36.4857 36.6486C36.2157 36.4336 36.1711 36.0404 36.3862 35.7703Z" fill="#0E51A0"/>
<path d="M41.2572 32.5531C41.302 32.5607 41.3517 32.5845 41.3913 32.622C41.973 33.1279 42.7375 33.3271 43.4944 33.1642C43.6612 33.1312 43.8201 33.235 43.8544 33.3944C43.8874 33.5612 43.7836 33.7201 43.6242 33.7544C42.6843 33.9551 41.7284 33.708 40.9991 33.0772C40.8726 32.9635 40.8583 32.7769 40.972 32.6504C41.0333 32.561 41.1466 32.5266 41.2572 32.5531Z" fill="#032663"/>
<path fill-rule="evenodd" clip-rule="evenodd" d="M62.8755 35.7703C62.6605 35.5003 62.2673 35.4558 61.9973 35.6708C60.9761 36.484 58.1664 38.2477 55.2308 38.7348C54.9265 38.7853 54.7046 39.0502 54.7081 39.3586C54.7117 39.667 54.9397 39.9267 55.2451 39.9701C55.9669 40.0728 57.1899 40.3065 58.4818 40.671C59.7821 41.0378 61.105 41.5242 62.0565 42.1162C62.3495 42.2985 62.735 42.2087 62.9173 41.9157C63.0997 41.6226 63.0099 41.2372 62.7168 41.0548C61.6164 40.3702 60.1606 39.8458 58.8212 39.4679C58.5546 39.3927 58.2908 39.3228 58.0331 39.2582C60.1789 38.458 61.9698 37.2906 62.776 36.6486C63.046 36.4336 63.0906 36.0404 62.8755 35.7703Z" fill="#0E51A0"/>
<path d="M58.0084 32.5531C57.9636 32.5607 57.914 32.5845 57.8743 32.622C57.2926 33.1279 56.5282 33.3271 55.7712 33.1642C55.6044 33.1312 55.4455 33.235 55.4112 33.3944C55.3782 33.5612 55.482 33.7201 55.6414 33.7544C56.5814 33.9551 57.5372 33.708 58.2665 33.0772C58.393 32.9635 58.4073 32.7769 58.2936 32.6504C58.2324 32.561 58.119 32.5266 58.0084 32.5531Z" fill="#032663"/>
<path d="M45.8784 50C45.8149 49.9971 45.7513 49.9942 45.6852 49.9776C45.2167 49.8697 44.9186 49.4008 45.0197 48.9322C45.5313 46.5458 47.4548 45.0033 49.9194 45C52.3204 44.9938 54.445 46.6493 54.9768 48.9228C55.0867 49.3966 54.7961 49.8633 54.3254 49.9671C53.8546 50.071 53.3855 49.773 53.2755 49.2992C52.9807 48.0267 51.7385 46.7444 49.9385 46.7437C48.286 46.7452 47.0492 47.7303 46.71 49.3185C46.6257 49.7278 46.2777 50.0003 45.8784 50Z" fill="#0E51A0"/>
<path d="M48.6833 54.4825C42.2603 54.4825 36.2514 53.5222 31.2557 51.6895L31.2205 51.6807L31.1941 51.6543C29.8901 50.2534 28.9033 48.4736 28.3306 46.5088C26.9649 41.7687 25.1851 34.3588 24.5155 25.9798C24.1895 21.9005 26.4539 18.2264 29.7932 17.4246C34.2778 16.3497 54.1901 13.1955 69.6881 17.4246C73.0098 18.3321 75.2741 22.0062 74.9569 25.9798C74.2873 34.3588 72.5164 41.7687 71.1419 46.5088C70.5868 48.4384 69.6176 50.1917 68.3577 51.575L68.3313 51.6014L68.296 51.619C63.0801 53.575 56.4632 54.5971 49.6613 54.4913C49.3353 54.4825 49.0093 54.4825 48.6833 54.4825ZM49.6701 54.1565C56.4192 54.2623 62.9743 53.249 68.155 51.3195C69.3709 49.9714 70.3049 48.2798 70.8423 46.4119C72.208 41.6894 73.9789 34.2972 74.6397 25.9446C74.9481 22.1207 72.7807 18.5876 69.6 17.7242C54.1636 13.5127 34.3307 16.6581 29.8636 17.7242C26.683 18.4907 24.5155 22.0238 24.8327 25.9446C25.5023 34.2972 27.2645 41.6894 28.6301 46.4119C29.1852 48.3238 30.1368 50.0507 31.3967 51.4076C36.5334 53.2755 43.0181 54.2623 49.6701 54.1565Z" fill="#10319B"/>
<path d="M27.2893 49.584C26.9985 48.7206 26.7254 47.8219 26.4611 46.9496C25.9412 45.2403 25.395 43.4782 24.7518 41.9627C23.6416 39.3548 21.1482 37.7072 19.2539 36.7909L19.3949 36.5089C21.3332 37.4517 23.8883 39.1433 25.0426 41.8482C25.6945 43.3725 26.2408 45.1522 26.7606 46.8615C27.025 47.7338 27.2981 48.6325 27.5888 49.4871L27.2893 49.584Z" fill="#10319B"/>
<path d="M75.4844 36.6319L79.5637 34.253C79.5637 34.253 80.7268 22.5347 76.9381 17.2042L75.8456 20.5611C75.8456 20.5611 77.5989 23.1074 75.4844 36.6319Z" fill="#F4B821"/>
</g>
</svg>
