<svg width="100" height="100" viewBox="0 0 100 100" fill="none" xmlns="http://www.w3.org/2000/svg">
<mask id="mask0_3273_26730" style="mask-type:alpha" maskUnits="userSpaceOnUse" x="0" y="0" width="100" height="100">
<rect width="100" height="100" fill="#D9D9D9"/>
</mask>
<g mask="url(#mask0_3273_26730)">
<path d="M2.66395 45.8815C2.61983 45.8285 2.61983 45.7491 2.66395 45.705C2.7169 45.6608 2.79632 45.6608 2.84044 45.705C2.88456 45.7579 2.88456 45.8373 2.84044 45.8815C2.78749 45.9344 2.70807 45.9344 2.66395 45.8815Z" fill="white"/>
<path d="M11.8241 28.0733C11.78 28.0204 11.78 27.941 11.8241 27.8969C11.8771 27.8527 11.9565 27.8527 12.0006 27.8969C12.0447 27.9498 12.0447 28.0292 12.0006 28.0733C11.9476 28.1175 11.8682 28.1175 11.8241 28.0733Z" fill="white"/>
<path d="M43.1738 68.5556C38.9505 60.5048 43.6138 50.9846 52.2893 50.0431L55.6416 49.6824C55.668 49.6824 55.6856 49.6736 55.712 49.6736L64.0796 48.7673L72.4032 47.5883C72.4296 47.5883 72.4471 47.5883 72.4735 47.5795L75.8082 47.1043C84.431 45.8813 91.9891 53.8705 90.5373 62.6341C90.0622 65.4936 89.4902 68.1684 88.8479 70.6761C88.5136 72.1367 88.0473 73.7556 87.5017 75.4362C85.1525 82.9767 82.3193 88.7926 80.19 93.5351C80.1108 93.7199 80.0228 93.8959 79.926 94.0718C78.5095 97.1074 75.5795 98.8495 72.3944 99.2015C69.2268 99.6502 65.8569 98.7 63.5077 96.1307C63.3581 95.9812 63.2173 95.8404 63.0853 95.682C59.5131 91.661 54.9201 86.7689 50.2216 80.1083C49.157 78.6301 48.1803 77.1959 47.3884 75.8673C45.963 73.6148 44.5552 71.1864 43.1738 68.5556Z" fill="#F89E1C"/>
<path d="M70.8895 99.4298C68.0212 99.4298 65.2935 98.2772 63.4018 96.2095C63.261 96.0687 63.1115 95.9192 62.9707 95.7608C62.4604 95.1801 61.9237 94.5818 61.3694 93.9658C58.1402 90.3672 54.128 85.8798 50.107 80.1783C48.972 78.6033 48.0129 77.1779 47.265 75.9285C45.7692 73.5617 44.3438 71.098 43.0416 68.6168C40.9563 64.6486 40.9211 60.0028 42.9536 56.2018C44.8542 52.6383 48.2505 50.3419 52.2715 49.9019L64.0617 48.6173L75.7904 46.9544C79.8642 46.3737 83.9116 47.799 86.9032 50.861C89.9651 53.9933 91.3729 58.4015 90.6778 62.6425C90.2291 65.3437 89.6572 68.0537 88.9885 70.6933C88.6717 72.0747 88.223 73.676 87.6335 75.4622C85.6186 81.9204 83.2165 87.2084 81.2808 91.4582C80.9465 92.1885 80.6297 92.8924 80.3218 93.5787C80.2426 93.7459 80.1634 93.9218 80.0578 94.1242C78.7116 97.0014 75.852 98.9459 72.4205 99.3243C71.9014 99.3946 71.3911 99.4298 70.8895 99.4298ZM43.2968 68.4936C44.599 70.966 46.0156 73.4209 47.5114 75.7877C48.2593 77.0283 49.2095 78.4537 50.3446 80.0199C54.3568 85.7127 58.369 90.1912 61.5893 93.7811C62.1436 94.397 62.6803 94.9953 63.1907 95.576C63.3314 95.7256 63.4723 95.8752 63.613 96.0247C65.7775 98.3916 69.0506 99.5266 72.3765 99.0603C75.72 98.6908 78.4916 96.8078 79.8026 94.0098C79.9082 93.8075 79.9962 93.6403 80.0666 93.4731C80.3746 92.7868 80.6913 92.0829 81.0257 91.3526C82.9526 87.1117 85.3546 81.8324 87.3695 75.3918C87.9502 73.6144 88.399 72.0131 88.7157 70.6405C89.3932 68.0009 89.9564 65.2997 90.4051 62.6073C91.0914 58.4543 89.71 54.1341 86.7096 51.0634C83.7797 48.063 79.8202 46.6728 75.8344 47.2359L64.1057 48.8989L52.3067 50.1835C48.3825 50.6058 45.0653 52.8495 43.2088 56.3426C41.2203 60.0556 41.2555 64.6046 43.2968 68.4936Z" fill="#10319B"/>
<path d="M58.704 85.5363C55.1141 80.2923 61.502 76.9839 64.9335 79.0604C71.2158 82.8703 73.3627 78.8757 76.1959 71.2736C78.7563 64.4018 87.9685 64.9649 89.2179 68.4228C88.9188 69.8834 89.1563 69.3819 88.8132 70.7369C88.4788 72.1975 88.0125 73.8164 87.467 75.497C85.1177 83.0375 82.2846 88.8534 80.1553 93.5959C80.0761 93.7807 79.9881 93.9567 79.8913 94.1326C78.4747 97.1682 75.5448 98.9103 72.3596 99.2623C69.1921 99.711 65.8222 98.7607 63.4729 96.1915C63.3234 96.0419 63.1825 95.9012 63.0506 95.7428C61.8891 94.4318 60.6046 93.024 59.2584 91.493C61.634 90.7803 61.6516 89.8389 58.704 85.5363Z" fill="#032663"/>
<path d="M45.1445 55.6918C46.9747 53.5097 49.5263 52.0139 52.597 51.6884L55.9669 51.3276C55.9933 51.3276 56.011 51.3188 56.0374 51.3188L64.4489 50.4213L72.8165 49.2247C72.8428 49.2247 72.8605 49.2247 72.8869 49.2159L76.2392 48.732C80.8849 48.0633 83.982 51.2044 86.8328 54.8735C87.4751 55.7006 87.176 56.9148 86.2609 57.2227C78.5708 59.8359 60.7798 63.901 45.1445 55.6918Z" fill="#E26907"/>
<path d="M44.1327 61.1992C45.1974 62.2287 50.2743 64.27 50.2743 64.27C50.2743 64.27 49.2976 66.2057 50.2303 69.5668C50.9342 72.0832 53.1866 73.9309 53.1866 73.9309C52.3684 76.465 54.0137 80.1692 55.923 82.8176C57.8323 85.4748 57.1284 86.5483 57.1284 86.5483C57.1284 86.5483 46.8868 74.2917 44.1152 66.6808C42.9977 63.5925 44.1327 61.1992 44.1327 61.1992Z" fill="#F4B821"/>
<path d="M87.6333 68.4048C87.6333 68.4048 85.2136 68.2904 84.2282 70.0853C83.2427 71.8803 78.1483 87.322 75.5175 92.9444C75.0423 93.9562 73.9513 97.3701 72.0508 96.9566C72.0508 96.9566 74.7872 98.1004 77.8403 93.8242C80.9023 89.5481 86.2343 73.2793 87.6333 68.4048Z" fill="#0E51A0"/>
<path d="M51.5147 75.4264C51.0044 75.4264 50.494 75.312 50.0101 75.0832C48.5671 74.3969 47.6344 72.8484 47.564 71.0446L47.2297 61.5156C47.1681 59.6591 48.0128 57.9785 49.4558 57.1251C50.6172 56.4388 51.9458 56.4388 53.0985 57.1251L60.3662 61.454C61.554 62.1579 62.3371 63.5041 62.4603 65.0527C62.5923 66.7069 61.9763 68.2818 60.8149 69.2585C60.7797 69.2849 60.7445 69.3201 60.7005 69.3465L60.6565 69.3817L53.7319 74.6609C53.0456 75.1624 52.2802 75.4264 51.5147 75.4264ZM51.2771 57.2395C50.7668 57.2395 50.2477 57.3802 49.7725 57.6618C48.5319 58.3921 47.8016 59.8615 47.8544 61.4804L48.1888 71.0094C48.2416 72.5844 49.0423 73.9218 50.2741 74.5025C51.2859 74.9864 52.4033 74.8457 53.336 74.133L60.3046 68.8274C60.3398 68.801 60.3662 68.7746 60.4014 68.7482C61.4044 67.9035 61.9411 66.5309 61.8268 65.0791C61.7212 63.7417 61.0525 62.5803 60.0406 61.9732L52.7729 57.6442C52.289 57.3802 51.7874 57.2395 51.2771 57.2395Z" fill="#F89E1C"/>
<path d="M51.4785 75.4893C50.9858 75.4893 50.4843 75.3749 50.0092 75.1461C48.5838 74.4686 47.6599 72.9376 47.5983 71.1515L47.2551 61.385C47.1935 59.546 48.0294 57.8831 49.4548 57.0384C50.5898 56.3609 51.8921 56.3609 53.0183 57.0384L60.462 61.4729C61.6322 62.168 62.4065 63.4966 62.5297 65.0276C62.6617 66.673 62.0546 68.2303 60.9019 69.1894C60.8667 69.2158 60.8316 69.251 60.7964 69.2774L60.7524 69.3126L53.6606 74.715C52.9743 75.2341 52.2352 75.4893 51.4785 75.4893ZM51.241 56.8624C50.6867 56.8624 50.1323 57.012 49.6132 57.32C48.2934 58.103 47.5103 59.6604 47.5719 61.385L47.915 71.1515C47.9766 72.8233 48.8301 74.2487 50.1411 74.8734C51.2322 75.3925 52.4464 75.2517 53.4495 74.4774L60.5852 69.0398C60.6204 69.0134 60.6556 68.987 60.682 68.9606C61.7554 68.0632 62.3185 66.6026 62.1954 65.0628C62.081 63.6374 61.3683 62.3968 60.286 61.7545L52.8423 57.32C52.3408 57.012 51.7865 56.8624 51.241 56.8624Z" fill="#10319B"/>
<path d="M51.6902 73.1221C51.2943 73.1221 50.9071 73.0341 50.5288 72.8581C49.4201 72.3302 48.6987 71.1511 48.6547 69.7609L48.3995 62.6252C48.3467 61.2086 48.9978 59.924 50.1064 59.2729C51.0039 58.745 52.0246 58.745 52.9132 59.2729L58.3508 62.5108C59.2659 63.0563 59.8642 64.0858 59.961 65.2648C60.0666 66.5318 59.5914 67.7284 58.7028 68.4763L58.6148 68.5467L58.4212 68.2916L58.5972 68.5555L53.3972 72.5149C52.8692 72.9197 52.2797 73.1221 51.6902 73.1221ZM51.5142 59.5017C51.1447 59.5017 50.7751 59.6072 50.4232 59.8096C49.5257 60.3463 48.989 61.411 49.033 62.5988L49.2881 69.7346C49.3321 70.8784 49.9129 71.855 50.8015 72.2774C51.5318 72.6205 52.3413 72.5237 53.01 72.0134L58.1925 68.0628L58.4124 68.2916L58.2188 68.0452L58.2892 67.9924C59.0195 67.3765 59.4067 66.3734 59.3275 65.3176C59.2483 64.3409 58.7644 63.4963 58.0253 63.0563L52.5877 59.8184C52.2445 59.6072 51.875 59.5017 51.5142 59.5017Z" fill="#F89E1C"/>
<path d="M58.3694 68.2386C58.3958 68.221 58.4222 68.1946 58.4486 68.177C60.0764 66.8132 59.9356 63.9096 58.1494 62.845L52.835 59.6774C50.9961 58.5864 48.8052 60.2493 48.8932 62.6866L49.1396 69.6639C49.2276 72.0924 51.524 73.465 53.275 72.1276L58.343 68.265C58.343 68.2474 58.3518 68.2386 58.3694 68.2386Z" fill="#032663"/>
<path d="M57.4543 67.0944C57.4719 67.0856 57.4807 67.068 57.4983 67.0592C58.4134 66.2937 58.3341 64.6571 57.3311 64.05L54.3308 62.2639C53.2925 61.648 52.0607 62.5894 52.1047 63.9532L52.2454 67.8862C52.2982 69.2588 53.5917 70.0243 54.5771 69.2764L57.4367 67.1032C57.4367 67.1032 57.4455 67.1032 57.4543 67.0944Z" fill="#33FCFE"/>
<path d="M87.2116 57.6193C90.0183 60.8044 96.0542 68.8112 98.2451 80.7511C98.4563 81.9125 97.1805 82.7748 96.1774 82.1501L95.3944 81.6573C87.4491 76.6861 83.4281 67.3067 85.3198 58.1296C85.5046 57.2497 86.622 56.9506 87.2116 57.6193Z" fill="#F5851F"/>
<path d="M85.3275 58.1294C85.5122 57.2495 86.6209 56.9504 87.2104 57.6279C89.674 60.4259 94.6453 66.9633 97.2937 76.6155C93.8798 68.4327 87.3511 61.8777 85.0547 59.7396C85.1251 59.194 85.2131 58.6661 85.3275 58.1294Z" fill="#F89E1C"/>
<path d="M94.6549 75.5157C92.8159 75.5157 90.2203 74.7854 86.3313 70.6236L86.0938 69.6733C92.64 76.6683 96.5466 74.3982 96.5818 74.3718L96.9777 74.8646C96.8985 74.9174 96.1067 75.5157 94.6549 75.5157Z" fill="#F89E1C"/>
<path d="M97.6549 77.9271C97.6549 77.9271 94.8129 81.0506 89.9824 76.7217C89.9824 76.7217 94.8657 82.5464 97.4701 82.1417C97.4701 82.1417 99.1507 81.8777 97.6549 77.9271Z" fill="#032663"/>
<path d="M96.907 82.5186C96.6254 82.5186 96.3526 82.4394 96.0975 82.2811L95.3144 81.7883C87.3516 76.8083 83.2778 67.2881 85.1695 58.0934C85.2663 57.6271 85.6094 57.2575 86.0757 57.1344C86.5333 57.0112 87.0172 57.1608 87.3339 57.5127C89.9208 60.4515 96.1767 68.5991 98.4115 80.7149C98.5171 81.3132 98.2795 81.8939 97.7692 82.2371C97.5052 82.4218 97.2061 82.5186 96.907 82.5186ZM86.4013 57.4071C86.3221 57.4071 86.2341 57.4159 86.1549 57.4423C85.803 57.5391 85.5478 57.8031 85.4774 58.155C83.6121 67.2177 87.6331 76.6147 95.4815 81.5156L96.2646 82.0083C96.6782 82.2635 97.1797 82.2547 97.5844 81.9819C97.9804 81.7092 98.174 81.2516 98.0948 80.7765C95.8775 68.7311 89.6656 60.6451 87.0964 57.7239C86.9116 57.5215 86.6653 57.4071 86.4013 57.4071Z" fill="#10319B"/>
<path d="M94.7349 79.1145C93.4239 79.1145 91.7433 78.613 89.7988 76.9148L90.01 76.6772C94.5502 80.6367 97.4273 77.9355 97.5505 77.8211L97.7705 78.0498C97.7441 78.0586 96.6354 79.1145 94.7349 79.1145Z" fill="#10319B"/>
<path d="M94.6819 75.7526C92.9221 75.7526 90.3001 74.952 86.4551 71.0013L86.4903 70.6758C93.1861 77.5652 96.6616 74.908 96.6968 74.8816L96.8992 75.1279C96.8288 75.1807 96.0897 75.7526 94.6819 75.7526Z" fill="#10319B"/>
<path d="M57.6388 64.2969L3.10742 24.2734V99.4299L53.7146 69.5761L57.6388 64.2969Z" fill="url(#paint0_radial_3273_26730)"/>
<path d="M13.002 59C13.002 57.3431 14.3451 56 16.002 56H25.002C26.6588 56 28.002 57.3431 28.002 59V71C28.002 72.6569 26.6588 74 25.002 74H16.002C14.3451 74 13.002 72.6569 13.002 71V59Z" fill="#0055B8"/>
<path d="M31.8311 60.6584C31.323 60.9124 31.002 61.4318 31.002 62V68C31.002 68.5682 31.323 69.0876 31.8311 69.3416L34.8311 70.8416C35.2961 71.0741 35.8483 71.0493 36.2905 70.776C36.7328 70.5027 37.002 70.0199 37.002 69.5V60.5C37.002 59.9801 36.7328 59.4973 36.2905 59.224C35.8483 58.9507 35.2961 58.9259 34.8311 59.1584L31.8311 60.6584Z" fill="#0055B8"/>
<path d="M31.4354 63.5934C31.3913 63.5404 31.3913 63.461 31.4354 63.4169C31.4884 63.3728 31.5678 63.3728 31.6119 63.4169C31.656 63.4698 31.656 63.5492 31.6119 63.5934C31.5678 63.6375 31.4884 63.6375 31.4354 63.5934Z" fill="white"/>
<path d="M39.1444 66.0655C39.1003 66.0126 39.1003 65.9332 39.1444 65.889C39.1974 65.8449 39.2768 65.8449 39.3209 65.889C39.365 65.942 39.365 66.0214 39.3209 66.0655C39.268 66.1185 39.1974 66.1185 39.1444 66.0655Z" fill="white"/>
<path d="M6.38661 56.3961C6.34249 56.3432 6.34249 56.2637 6.38661 56.2196C6.43955 56.1755 6.51897 56.1755 6.56309 56.2196C6.60722 56.2726 6.60722 56.352 6.56309 56.3961C6.51015 56.449 6.43955 56.449 6.38661 56.3961Z" fill="white"/>
<path d="M91.9434 10.2479C90.1934 8.9744 88.1143 7.89151 85.7926 6.97322L85.9398 7.00787C85.9398 7.00787 78.5242 2.76294 67.3747 2.59834C56.2599 2.43374 48.6364 6.32349 48.5931 6.34948C46.1847 7.19846 44.0103 8.2467 42.191 9.49419C33.398 15.4891 34.7667 28.813 38.3966 41.2705C41.0388 50.3322 53.2625 54.4818 66.4045 54.4818C79.5378 54.8803 92.7404 50.9732 95.6512 41.9896C99.6449 29.662 100.555 16.5113 91.9434 10.2479Z" fill="#F89E1C"/>
<path d="M91.9439 10.2992C91.0257 9.63216 90.0207 9.01708 88.9292 8.44531C97.3584 14.7694 96.4401 27.8507 92.4637 40.135C89.5529 49.136 76.3503 53.0518 63.217 52.6533C55.7494 52.6533 48.1258 50.7214 42.6074 47.8452C48.2125 52.0555 57.3694 54.6285 66.3964 54.6285C79.5297 55.027 92.7323 51.1112 95.6431 42.1102C99.6455 29.7479 100.555 16.5713 91.9439 10.2992Z" fill="#F5851F"/>
<path d="M87.6127 21.8305L87.4395 20.9122C92.1955 20.0026 92.8366 11.5993 92.8452 11.5127L93.7809 11.582C93.7549 11.9545 93.0705 20.7822 87.6127 21.8305Z" fill="#F89E1C"/>
<path d="M47.484 20.6522C41.4805 18.9976 41.2899 10.3431 41.2812 9.97924L42.2169 9.96191C42.2169 10.0485 42.4075 18.2785 47.7353 19.7512L47.484 20.6522Z" fill="#F4B821"/>
<path d="M67.0797 10.1434C66.7592 10.1434 66.4386 10.1347 66.1094 10.1087C62.9214 9.88348 60.1492 8.60134 58.6851 6.68679L56.6406 4.00988L57.3857 3.44678L59.4302 6.12368C60.7296 7.83032 63.2593 8.97385 66.1787 9.18177C69.1848 9.38968 72.0437 8.54936 73.6377 6.96401C73.681 6.92069 73.7243 6.87738 73.7676 6.8254L76.7217 3.60271L77.4148 4.23512L74.4607 7.46647C74.4087 7.52711 74.3567 7.57909 74.2961 7.63107C72.6847 9.21642 69.9818 10.1434 67.0797 10.1434Z" fill="#F4B821"/>
<path d="M67.0983 13.5829C67.0116 13.5829 66.925 13.5829 66.8297 13.5829C66.5091 13.5743 66.1799 13.5656 65.8681 13.5396C61.6491 13.2451 58.0366 11.5038 55.9488 8.76623L53.0293 4.93713L53.7743 4.37402L56.6938 8.20313C58.617 10.7241 61.987 12.3268 65.9374 12.6127C66.2406 12.63 66.5438 12.6473 66.8557 12.6473C70.5721 12.6993 73.9248 11.5211 76.0646 9.41596C76.1426 9.338 76.2118 9.26869 76.2898 9.19072L76.3764 9.09543L80.4308 4.66857L81.1238 5.30098L76.9742 9.83179C76.8876 9.91842 76.8096 10.0051 76.723 10.083C74.4445 12.3181 70.9533 13.5829 67.0983 13.5829Z" fill="#F4B821"/>
<path d="M42.659 11.8333C44.4869 10.5772 46.6527 9.52026 49.0697 8.66261C49.1217 8.63662 56.7799 4.1318 67.886 4.2964C75.189 4.40902 81.5738 5.72581 85.0997 6.61812C82.8732 5.52656 76.3326 2.7457 67.3749 2.60709C56.2601 2.44249 48.6366 6.36689 48.5846 6.39287C46.1762 7.25052 44.0018 8.30743 42.1739 9.56358C34.3337 14.9607 34.7062 26.1448 37.2705 37.3982C35.278 26.9418 35.3473 16.8579 42.659 11.8333Z" fill="#F4B821"/>
<path d="M46.6441 20.3583C41.4549 19.1974 41.0477 10.5863 41.0391 10.2137L41.3509 10.2051C41.3509 10.2917 41.7581 18.9462 46.7134 20.0551L46.6441 20.3583Z" fill="#10319B"/>
<path d="M56.3296 8.46345L53.4102 4.63435C54.4584 4.31381 55.6712 3.98461 57.0227 3.69873L59.0672 6.37564C60.4533 8.19489 63.1042 9.39907 66.1536 9.61565C69.2896 9.84089 72.2871 8.93992 73.9764 7.26794C74.0284 7.21596 74.0717 7.17264 74.1237 7.12067L77.0778 3.88932C78.4552 4.21852 79.6941 4.59103 80.777 4.95488L76.7226 9.38174L76.6273 9.47704C76.5494 9.55501 76.4714 9.64164 76.3934 9.7196C74.167 11.92 70.6498 13.1502 66.8553 13.0896C66.5434 13.0809 66.2316 13.0722 65.9197 13.0462C61.8307 12.7604 58.3308 11.0884 56.3296 8.46345Z" fill="#032663"/>
<path d="M87.1974 21.1546L87.1367 20.8514C92.1267 19.8898 92.7851 11.2526 92.7937 11.166L93.1056 11.192C93.0883 11.5559 92.4212 20.1497 87.1974 21.1546Z" fill="#10319B"/>
<path d="M63.7894 53.0434C70.2781 53.2426 76.7928 52.4369 82.1986 50.5484C83.472 49.2229 84.4856 47.5163 85.1007 45.5151C86.6687 40.3865 88.4447 33.1961 89.2157 25.1048C89.5969 21.1284 87.4051 17.4725 84.1911 16.6582C79.8075 15.5407 73.0416 14.2152 64.9849 13.964V13.9553C64.7597 13.9553 64.5344 13.9553 64.3092 13.9553C64.084 13.9467 63.8587 13.9467 63.6335 13.938V13.9467C55.5768 13.9553 48.9322 14.8736 44.514 15.8612C41.2739 16.5889 38.8136 20.366 39.0735 24.3597C39.602 32.4684 41.1613 39.7021 42.5734 44.8827C42.686 45.2985 42.816 45.697 42.9633 46.0869C43.8642 48.4692 45.8914 50.2452 48.3344 50.9729C53.0471 52.359 58.4096 53.0434 63.7894 53.0434Z" fill="#032663"/>
<path d="M42.6071 47.8539L43.5601 48.6682C43.4041 48.1311 43.1356 47.2128 42.9536 46.5717C42.4772 44.8824 41.9401 42.9592 41.4376 41.6597C40.6319 39.5632 38.9253 38.2984 37.2793 37.3975L37.4699 38.1771C38.9946 39.0175 39.9995 39.9964 40.7272 41.885C41.221 43.1584 41.7495 45.0557 42.2173 46.7277C42.3992 47.3774 42.4425 47.3081 42.6071 47.8539Z" fill="#F4B821"/>
<path d="M87.1451 50.8176C87.1278 50.8176 87.1104 50.8176 87.0931 50.809C87.0151 50.783 86.9718 50.6877 86.9978 50.6097C87.3616 49.5788 87.7168 48.4699 88.072 47.3957C88.8084 45.1433 89.5621 42.8129 90.4024 40.9157C91.9098 37.5197 95.0458 35.7351 97.2723 34.6956C97.3502 34.6609 97.4455 34.6956 97.4802 34.7735C97.5148 34.8515 97.4802 34.9468 97.4022 34.9814C95.2191 36.0037 92.1524 37.745 90.6883 41.0456C89.8566 42.9255 89.0943 45.2473 88.3666 47.491C88.0201 48.5652 87.6562 49.6828 87.2923 50.7137C87.2663 50.783 87.2057 50.8176 87.1451 50.8176Z" fill="#F89E1C"/>
<path d="M37.4707 38.1782C37.7046 39.4257 38.0598 40.5346 38.389 41.7821C39.0733 44.3637 40.4335 45.9144 42.6772 47.8809C42.0968 45.8971 41.577 44.0085 40.9013 42.2326C40.0956 40.1707 38.9174 38.9752 37.4707 38.1782Z" fill="#032663"/>
<path d="M38.4931 41.8942C38.2506 41.1665 38.086 40.4561 37.8867 39.7197C38.6491 40.2568 39.1429 41.0192 39.5847 42.0155C40.0612 43.0724 40.425 44.6404 40.8409 45.8705C39.628 44.8656 38.9696 43.3236 38.4931 41.8942Z" fill="#0E51A0"/>
<path d="M42.4172 47.6637C42.2959 47.2565 42.1833 46.8667 42.0707 46.4768C41.6548 45.0214 41.2564 43.644 40.7193 42.2406C40.0002 40.3866 38.9779 39.1738 37.3926 38.3075L37.5399 38.0303C39.1945 38.9399 40.2601 40.2047 41.0051 42.1279C41.5509 43.54 41.9494 44.9261 42.3652 46.3902C42.4779 46.7714 42.5905 47.1699 42.7031 47.5684L42.4172 47.6637Z" fill="#10319B"/>
<path d="M97.5587 35.3965C97.0649 37.415 96.4931 39.2689 95.93 41.2961C94.8385 45.2378 92.4735 48.0273 87.1543 50.8082C88.2632 47.6461 89.346 44.5794 90.5849 41.7725C92.0489 38.4892 95.2456 36.4794 97.5587 35.3965Z" fill="#032663"/>
<path d="M63.7367 51.6581C69.2984 51.8227 74.8775 51.2076 79.6422 49.7609C80.3786 49.5357 81.0457 49.1025 81.5135 48.4961C82.3105 47.4652 82.9516 46.2523 83.376 44.8922C84.8228 40.2748 86.4601 33.8034 87.1618 26.5177C87.5083 22.9312 85.4899 19.6479 82.5184 18.9115C78.4727 17.8979 72.2352 16.7024 64.8109 16.4772V16.4685C64.603 16.4685 64.3951 16.4685 64.1872 16.4685C63.9793 16.4598 63.7714 16.4598 63.5635 16.4512V16.4598C56.1305 16.4598 49.8584 17.4734 45.7867 18.3571C42.798 19.0068 40.6842 22.2295 40.9181 25.8247C41.4032 33.1277 42.8413 39.6424 44.1494 44.3031C44.5306 45.6632 45.1283 46.8847 45.882 47.933C46.3152 48.5307 46.9303 48.9639 47.6233 49.2065C52.414 50.8438 58.071 51.6581 63.7367 51.6581Z" fill="#FCE8CA"/>
<path d="M65.7287 53.1307C65.0876 53.1307 64.4379 53.1221 63.7795 53.1047H63.7708C58.2437 53.1047 52.8899 52.377 48.2725 51.0083C45.7515 50.2546 43.707 48.4007 42.8234 46.0356C42.6761 45.6371 42.5375 45.2213 42.4249 44.7968C41.1254 40.0321 39.4621 32.5991 38.9163 24.2045C38.6564 20.2282 40.9782 16.5897 44.3135 15.732C59.8811 11.7383 79.7543 15.1862 84.2245 16.3298C87.5424 17.1787 89.7515 20.8866 89.3704 24.9669C88.5734 33.3441 86.6935 40.7251 85.2467 45.4465C84.649 47.4131 83.6267 49.1717 82.3099 50.5578L82.2839 50.5838L82.2493 50.5924C77.4672 52.2644 71.7929 53.1307 65.7287 53.1307ZM63.7882 52.7929C70.4414 53.0008 76.9388 52.1085 82.1107 50.3066C83.3842 48.9638 84.3717 47.2571 84.9522 45.3512C86.3902 40.6472 88.2702 33.2835 89.0585 24.9322C89.431 21.0078 87.3172 17.4386 84.1465 16.633C79.6937 15.4981 59.8984 12.0502 44.3914 16.0352C41.2034 16.8582 38.977 20.3581 39.2282 24.1872C39.7653 32.5558 41.4286 39.9714 42.7194 44.7188C42.832 45.1347 42.962 45.5332 43.1093 45.9317C43.9669 48.2014 45.9248 49.986 48.3591 50.7137C52.9506 52.0738 58.2784 52.8015 63.7708 52.8015C63.7795 52.7929 63.7795 52.7929 63.7882 52.7929Z" fill="#10319B"/>
<path d="M87.6207 50.6348L87.3262 50.5309C87.7247 49.4047 88.0712 48.3045 88.4004 47.2389C89.0155 45.2897 89.5959 43.4531 90.4016 41.6425C91.8657 38.3505 95.045 36.3147 97.4447 35.1885L97.5746 35.4744C95.2183 36.5832 92.1082 38.5671 90.6788 41.7725C89.8818 43.5657 89.3013 45.3936 88.6949 47.3342C88.3657 48.3997 88.0192 49.5 87.6207 50.6348Z" fill="#10319B"/>
<path d="M38.164 35.3359L36.7519 34.1231C36.7519 34.1231 35.8249 24.1865 37.9907 18.3042L38.3805 21.6742C38.3892 21.6828 37.5142 21.7954 38.164 35.3359Z" fill="#F4B821"/>
<path d="M68.1288 54.672C67.5397 54.672 66.9593 54.6633 66.3875 54.646C66.3875 54.646 66.3875 54.646 66.3788 54.646C54.649 54.646 41.0912 51.1461 38.2323 41.3221C33.5023 25.0961 34.8018 14.3452 42.0961 9.38118C43.8807 8.15968 46.0465 7.10278 48.5415 6.21914C48.836 6.0632 56.3383 2.29474 67.3838 2.45934C78.4466 2.62394 85.9489 6.85155 86.0182 6.89486L86.1221 6.9555C88.4005 7.87379 90.393 8.93936 92.0304 10.1349C101.958 17.3513 98.6403 33.2308 95.7815 42.0585C92.7494 51.4147 79.3736 54.672 68.1288 54.672ZM66.3962 54.3341C77.8575 54.6807 92.3509 51.6486 95.4956 41.9545C98.3285 33.2134 101.629 17.4812 91.8571 10.3774C90.1678 9.14727 88.1146 8.05572 85.7409 7.12877L85.7496 7.09411C84.762 6.56566 77.6063 2.91849 67.3751 2.76255C56.4162 2.58929 48.7407 6.4617 48.6627 6.49636C46.1851 7.37133 44.0367 8.42823 42.2694 9.63241C35.105 14.5184 33.8488 25.1481 38.5356 41.2355C41.3511 50.8949 54.7703 54.3341 66.3962 54.3341Z" fill="#10319B"/>
<path d="M74.2792 27.2538C74.2272 27.2451 74.1752 27.2191 74.1232 27.1758C73.4388 26.5954 72.5465 26.3701 71.6715 26.5694C71.481 26.6127 71.2904 26.4914 71.2471 26.3008C71.2037 26.1102 71.325 25.9196 71.5156 25.8763C72.6072 25.6338 73.7247 25.911 74.5824 26.6387C74.7296 26.7686 74.747 26.9852 74.6257 27.1325C74.5391 27.2451 74.4091 27.2798 74.2792 27.2538Z" fill="#032663"/>
<path d="M46.4963 27.6781C46.5483 27.6694 46.6003 27.6434 46.6523 27.6001C47.3367 27.0197 48.229 26.8031 49.1126 26.9937C49.3032 27.037 49.4938 26.9157 49.5371 26.7251C49.5804 26.5345 49.4591 26.3439 49.2685 26.3006C48.177 26.0494 47.0594 26.3266 46.2018 27.0543C46.0545 27.1843 46.0372 27.4008 46.1585 27.5481C46.2451 27.6607 46.375 27.704 46.4963 27.6781Z" fill="#032663"/>
<path d="M53.7476 40.8024C53.661 40.9844 53.5571 41.1576 53.4444 41.3136L47.3542 41.2096C47.2416 41.045 47.1463 40.8717 47.0684 40.6812L53.7476 40.8024Z" fill="#0052A3"/>
<path d="M54.0155 40.0916C53.9722 40.2649 53.9115 40.4381 53.8422 40.6114L46.9723 40.4988C46.903 40.3342 46.8597 40.1523 46.8164 39.979L54.0155 40.0916Z" fill="#0052A3"/>
<path d="M46.7353 38.514L46.7266 39.0337L54.1328 39.1581L54.1415 38.6384L46.7353 38.514Z" fill="#0052A3"/>
<path d="M54.1288 39.3728C54.1201 39.546 54.0941 39.7193 54.0595 39.8925L46.7738 39.7713C46.7478 39.598 46.7305 39.4247 46.7305 39.2515L54.1288 39.3728Z" fill="#0052A3"/>
<path d="M52.517 42.2231C52.1965 42.4397 51.8326 42.613 51.4515 42.7256L49.2943 42.6909C48.9132 42.5696 48.558 42.3877 48.2461 42.1538L52.517 42.2231Z" fill="#0052A3"/>
<path d="M53.4355 34.1313L47.5879 34.036C47.7352 33.8541 47.9084 33.6808 48.0903 33.5249L52.9504 33.6029C53.1323 33.7675 53.2969 33.9407 53.4355 34.1313Z" fill="#0052A3"/>
<path d="M53.2889 41.5123C53.133 41.7029 52.9597 41.8675 52.7778 42.0234L47.9958 41.9454C47.8138 41.7895 47.6492 41.6076 47.502 41.417L53.2889 41.5123Z" fill="#0052A3"/>
<path d="M51.7204 32.8677C52.0843 32.9976 52.4135 33.1795 52.708 33.4048L48.3418 33.3355C48.645 33.1189 48.9828 32.9456 49.3467 32.833L51.7204 32.8677Z" fill="#0052A3"/>
<path d="M53.9472 35.0588C54.0078 35.2234 54.0598 35.4053 54.1031 35.5786L46.8867 35.4573C46.93 35.2754 46.9907 35.1108 47.06 34.9375L53.9472 35.0588Z" fill="#0052A3"/>
<path d="M54.1382 35.7863C54.1642 35.9596 54.1815 36.1328 54.1815 36.3061L46.7832 36.1848C46.7919 36.0116 46.8092 35.8383 46.8438 35.665L54.1382 35.7863Z" fill="#0052A3"/>
<path d="M53.5821 34.3394C53.6861 34.504 53.7813 34.6773 53.8593 34.8679L47.1367 34.7553C47.2234 34.5733 47.3187 34.4001 47.4313 34.2441L53.5821 34.3394Z" fill="#0052A3"/>
<path d="M46.7665 37.0755L46.7578 37.5952L54.164 37.7197L54.1728 37.1999L46.7665 37.0755Z" fill="#0052A3"/>
<path d="M46.7763 36.3606L46.7676 36.8804L54.1738 37.0048L54.1825 36.4851L46.7763 36.3606Z" fill="#0052A3"/>
<path d="M46.7451 37.7986L46.7363 38.3184L54.1426 38.4428L54.1513 37.9231L46.7451 37.7986Z" fill="#0052A3"/>
<path d="M73.3355 40.8376C73.2489 41.0195 73.1449 41.1928 73.0323 41.3487L66.9421 41.2448C66.8295 41.0802 66.7342 40.9069 66.6562 40.7163L73.3355 40.8376Z" fill="#0052A3"/>
<path d="M73.6053 40.1185C73.562 40.2917 73.5013 40.465 73.432 40.6383L66.5622 40.5256C66.4929 40.361 66.4496 40.1791 66.4062 40.0059L73.6053 40.1185Z" fill="#0052A3"/>
<path d="M66.331 38.5437L66.3223 39.0635L73.7285 39.1879L73.7372 38.6682L66.331 38.5437Z" fill="#0052A3"/>
<path d="M73.7167 39.3986C73.708 39.5719 73.682 39.7451 73.6473 39.9184L66.3617 39.7971C66.3357 39.6239 66.3184 39.4506 66.3184 39.2773L73.7167 39.3986Z" fill="#0052A3"/>
<path d="M72.1049 42.249C71.7844 42.4656 71.4205 42.6388 71.0393 42.7514L68.8822 42.7168C68.501 42.5955 68.1459 42.4136 67.834 42.1797L72.1049 42.249Z" fill="#0052A3"/>
<path d="M73.0312 34.167L67.1836 34.0717C67.3309 33.8897 67.5041 33.7165 67.686 33.5605L72.5461 33.6385C72.7193 33.7945 72.8839 33.9764 73.0312 34.167Z" fill="#0052A3"/>
<path d="M72.8768 41.5479C72.7209 41.7385 72.5476 41.9031 72.3657 42.0591L67.5836 41.9811C67.4017 41.8251 67.2371 41.6432 67.0898 41.4526L72.8768 41.5479Z" fill="#0052A3"/>
<path d="M71.3083 32.9018C71.6722 33.0318 72.0014 33.2137 72.2959 33.439L67.9297 33.3696C68.2329 33.1531 68.5708 32.9798 68.9346 32.8672L71.3083 32.9018Z" fill="#0052A3"/>
<path d="M73.5351 35.093C73.5957 35.2576 73.6477 35.4395 73.691 35.6127L66.4746 35.4915C66.5179 35.3095 66.5786 35.1449 66.6479 34.9717L73.5351 35.093Z" fill="#0052A3"/>
<path d="M73.7261 35.8122C73.7521 35.9855 73.7694 36.1587 73.7694 36.332L66.3711 36.2107C66.3798 36.0374 66.3971 35.8642 66.4318 35.6909L73.7261 35.8122Z" fill="#0052A3"/>
<path d="M73.17 34.3653C73.2739 34.5299 73.3692 34.7032 73.4472 34.8938L66.7246 34.7811C66.8112 34.5992 66.9065 34.426 67.0191 34.27L73.17 34.3653Z" fill="#0052A3"/>
<path d="M66.3525 37.1072L66.3438 37.627L73.75 37.7514L73.7587 37.2317L66.3525 37.1072Z" fill="#0052A3"/>
<path d="M66.3642 36.3899L66.3555 36.9097L73.7617 37.0341L73.7704 36.5144L66.3642 36.3899Z" fill="#0052A3"/>
<path d="M66.3427 37.8299L66.334 38.3496L73.7402 38.4741L73.7489 37.9543L66.3427 37.8299Z" fill="#0052A3"/>
<path d="M58.787 42.9856C58.4874 43.0114 58.2696 43.5529 58.3513 44.1202C58.6373 45.9253 59.536 47.1888 60.5709 47.1373C61.6058 47.0857 62.4636 45.6932 62.6815 43.8623C62.7496 43.295 62.5181 42.7793 62.2049 42.7793L58.787 42.9856Z" fill="#032663"/>
</g>
<defs>
<radialGradient id="paint0_radial_3273_26730" cx="0" cy="0" r="1" gradientUnits="userSpaceOnUse" gradientTransform="translate(60.9383 66.8045) scale(56.3066 56.3067)">
<stop offset="0.0783725" stop-color="#33FCFE"/>
<stop offset="1" stop-color="#33FCFE" stop-opacity="0"/>
</radialGradient>
</defs>
</svg>
