<svg width="160" height="160" viewBox="0 0 160 160" fill="none" xmlns="http://www.w3.org/2000/svg">
<g clip-path="url(#clip0_1920_75755)">
<path d="M61.9885 116.179C82.2915 116.179 98.7504 99.7223 98.7504 79.4226C98.7504 59.1228 82.2915 42.6666 61.9885 42.6666C41.6854 42.6666 25.2266 59.1228 25.2266 79.4226C25.2266 99.7223 41.6854 116.179 61.9885 116.179Z" fill="#FFF7D7"/>
<path d="M62.668 60C69.2954 60 74.668 54.6274 74.668 48C74.668 41.3726 69.2954 36 62.668 36C56.0405 36 50.668 41.3726 50.668 48C50.668 54.6274 56.0405 60 62.668 60Z" fill="#FFCE00"/>
<path d="M58.9377 44.4909C58.9376 44.4781 58.9375 44.4654 58.9375 44.4527C58.9375 43.7342 59.1499 43.0317 59.5481 42.4336C59.9462 41.8355 60.5123 41.3684 61.1752 41.0911C61.8381 40.8137 62.5682 40.7385 63.2737 40.8748C63.9793 41.0111 64.6288 41.353 65.1406 41.8573C65.6524 42.3616 66.0036 43.006 66.1502 43.7094C66.2968 44.4127 66.2321 45.1437 65.9644 45.8105C65.6966 46.4772 65.2377 47.05 64.6453 47.4567C64.053 47.8634 63.3536 48.0859 62.635 48.0964V51.4053" stroke="white" stroke-width="2" stroke-linecap="round" stroke-linejoin="round"/>
<path d="M102.023 94.9645C103.695 94.9645 105.05 93.6096 105.05 91.9382C105.05 90.2668 103.695 88.9119 102.023 88.9119C100.351 88.9119 98.9961 90.2668 98.9961 91.9382C98.9961 93.6096 100.351 94.9645 102.023 94.9645Z" fill="#B9D4DB"/>
<path d="M94.0343 95.6915C94.9011 95.6915 95.6038 94.989 95.6038 94.1223C95.6038 93.2557 94.9011 92.5531 94.0343 92.5531C93.1675 92.5531 92.4648 93.2557 92.4648 94.1223C92.4648 94.989 93.1675 95.6915 94.0343 95.6915Z" fill="#B9D4DB"/>
<path d="M98.0194 86.7751C99.2577 86.7751 100.262 85.7714 100.262 84.5334C100.262 83.2953 99.2577 82.2916 98.0194 82.2916C96.7812 82.2916 95.7773 83.2953 95.7773 84.5334C95.7773 85.7714 96.7812 86.7751 98.0194 86.7751Z" fill="#B9D4DB"/>
<path d="M93.3118 77.1974H32.317L30.3281 72.1561H93.3118C93.3901 72.1561 93.4677 72.1716 93.5401 72.2015C93.6125 72.2315 93.6783 72.2755 93.7337 72.3309C93.7891 72.3863 93.833 72.452 93.863 72.5244C93.893 72.5968 93.9084 72.6744 93.9084 72.7527V76.6009C93.9084 76.6792 93.893 76.7568 93.863 76.8292C93.833 76.9015 93.7891 76.9673 93.7337 77.0227C93.6783 77.0781 93.6125 77.122 93.5401 77.152C93.4677 77.182 93.3901 77.1974 93.3118 77.1974Z" fill="#FFCE00"/>
<path d="M84.429 103.685H42.9536C42.7512 103.685 42.5536 103.623 42.3873 103.508C42.2209 103.393 42.0937 103.23 42.0226 103.04L32.3203 77.1975H91.191L85.3991 102.909C85.3495 103.129 85.2264 103.326 85.0501 103.467C84.8738 103.608 84.6547 103.685 84.429 103.685Z" fill="#F9AE2B"/>
<path d="M88.2049 90.4418C83.9619 90.7139 79.7189 90.8563 75.476 90.953C73.3545 91.0136 71.233 91.027 69.1115 91.0627L62.747 91.099C58.504 91.1028 54.261 91.0548 50.018 90.9549C45.775 90.8586 41.532 90.7156 37.2891 90.4418C41.532 90.1681 45.775 90.025 50.018 89.9287C54.261 89.8334 58.504 89.7854 62.747 89.7847L69.1115 89.821C71.233 89.8566 73.3545 89.8701 75.476 89.9307C79.7189 90.0274 83.9619 90.1697 88.2049 90.4418Z" fill="#995F0D"/>
<path d="M79.9065 77.1975C79.6648 79.509 79.2954 81.7917 78.8876 84.0658C78.4745 86.3386 78.0135 88.6007 77.5046 90.852C76.9984 93.1039 76.4456 95.3453 75.8461 97.5762C75.5435 98.691 75.2302 99.8034 74.8958 100.911C74.7228 101.464 74.558 102.018 74.3782 102.569L74.2397 102.988C74.1852 103.141 74.0966 103.28 73.9806 103.395C73.8717 103.503 73.7402 103.585 73.5955 103.635C73.4508 103.685 73.2967 103.702 73.1445 103.685C73.282 103.669 73.4143 103.623 73.5323 103.551C73.6504 103.479 73.7514 103.382 73.8285 103.267C73.9005 103.161 73.9479 103.04 73.9672 102.914L74.0225 102.489C74.0963 101.914 74.1851 101.343 74.2657 100.769C74.4385 99.6252 74.6324 98.4859 74.8371 97.349C75.2503 95.0762 75.7119 92.8142 76.2218 90.5631C76.7298 88.3116 77.2832 86.0704 77.8821 83.8393C78.4888 81.6101 79.1338 79.3894 79.9065 77.1975Z" fill="#995F0D"/>
<path d="M56.2075 103.685C56.0491 103.702 55.8889 103.682 55.7396 103.627C55.5903 103.571 55.456 103.482 55.3472 103.365C55.2405 103.243 55.1549 103.104 55.0938 102.953L54.8973 102.546C54.6354 102.003 54.3886 101.455 54.1335 100.909C53.6341 99.8147 53.1551 98.7124 52.686 97.6063C51.7519 95.3927 50.8637 93.1618 50.0215 90.9137C49.1767 88.6665 48.3767 86.4026 47.6215 84.1218C46.8727 81.8386 46.1616 79.5413 45.5742 77.1975C46.6744 79.3488 47.651 81.5465 48.5898 83.7584C49.5238 85.9721 50.4114 88.2031 51.2526 90.4517C52.0957 92.6995 52.8951 94.9636 53.6509 97.2442C54.0256 98.3857 54.3904 99.5309 54.7348 100.684C54.9016 101.262 55.0767 101.838 55.2367 102.418L55.3566 102.854C55.384 102.991 55.4333 103.122 55.5028 103.243C55.5795 103.365 55.6827 103.468 55.8047 103.545C55.9267 103.621 56.0644 103.669 56.2075 103.685Z" fill="#995F0D"/>
<path d="M53.2495 124.006C55.5188 124.006 57.3584 122.167 57.3584 119.898C57.3584 117.629 55.5188 115.79 53.2495 115.79C50.9802 115.79 49.1406 117.629 49.1406 119.898C49.1406 122.167 50.9802 124.006 53.2495 124.006Z" fill="#FFCE00"/>
<path d="M53.2519 121.794C54.2993 121.794 55.1483 120.945 55.1483 119.898C55.1483 118.851 54.2993 118.002 53.2519 118.002C52.2045 118.002 51.3555 118.851 51.3555 119.898C51.3555 120.945 52.2045 121.794 53.2519 121.794Z" fill="#DBE8EC"/>
<path d="M76.9527 124.006C79.2219 124.006 81.0616 122.167 81.0616 119.898C81.0616 117.629 79.2219 115.79 76.9527 115.79C74.6834 115.79 72.8438 117.629 72.8438 119.898C72.8438 122.167 74.6834 124.006 76.9527 124.006Z" fill="#FFCE00"/>
<path d="M76.9511 121.794C77.9985 121.794 78.8475 120.945 78.8475 119.898C78.8475 118.851 77.9985 118.002 76.9511 118.002C75.9037 118.002 75.0547 118.851 75.0547 119.898C75.0547 120.945 75.9037 121.794 76.9511 121.794Z" fill="#DBE8EC"/>
<path d="M63.1141 77.1975C63.5173 79.3886 63.7898 81.5875 64.0231 83.7888C64.2509 85.9903 64.4298 88.1948 64.5596 90.4022C64.6922 92.6094 64.777 94.8195 64.8141 97.0324C64.8443 99.2457 64.8344 101.461 64.6925 103.685C64.2875 101.494 64.0145 99.2952 63.7817 97.0939C63.554 94.8923 63.3757 92.6878 63.247 90.4804C63.1162 88.273 63.032 86.0629 62.9943 83.85C62.9645 81.6367 62.9739 79.421 63.1141 77.1975Z" fill="#995F0D"/>
<path d="M83.9056 113.704H46.7362C46.6031 113.704 46.4732 113.664 46.3636 113.589C46.254 113.513 46.1698 113.406 46.1222 113.282L24.5952 57.1761H13.1928C13.0184 57.1761 12.8511 57.1068 12.7278 56.9835C12.6044 56.8602 12.5352 56.6929 12.5352 56.5185C12.5352 56.3441 12.6044 56.1769 12.7278 56.0536C12.8511 55.9302 13.0184 55.861 13.1928 55.861H25.0473C25.1803 55.861 25.3102 55.9013 25.4199 55.9767C25.5295 56.052 25.6137 56.1589 25.6613 56.2831L47.1883 112.389H83.9056C84.08 112.389 84.2473 112.458 84.3707 112.582C84.494 112.705 84.5633 112.872 84.5633 113.047C84.5633 113.221 84.494 113.388 84.3707 113.512C84.2473 113.635 84.08 113.704 83.9056 113.704Z" fill="#FFCE00"/>
<path d="M18.9106 54.6227H11.1064C10.8643 54.6227 10.668 54.8189 10.668 55.061V58.2085C10.668 58.4506 10.8643 58.6469 11.1064 58.6469H18.9106C19.1528 58.6469 19.349 58.4506 19.349 58.2085V55.061C19.349 54.8189 19.1528 54.6227 18.9106 54.6227Z" fill="#FFCE00"/>
<path d="M62.6693 56C63.4056 56 64.0026 55.4031 64.0026 54.6667C64.0026 53.9303 63.4056 53.3334 62.6693 53.3334C61.9329 53.3334 61.3359 53.9303 61.3359 54.6667C61.3359 55.4031 61.9329 56 62.6693 56Z" fill="white"/>
<mask id="mask0_1920_75755" style="mask-type:alpha" maskUnits="userSpaceOnUse" x="63" y="26" width="107" height="108">
<rect x="63.1953" y="26.6666" width="106.667" height="106.667" fill="#D9D9D9"/>
</mask>
<g mask="url(#mask0_1920_75755)">
<path d="M99.7467 93.2425C97.4334 89.5526 91.3209 81.2736 80.1955 75.4751C79.1085 74.911 77.8907 75.8765 78.2107 77.0342L78.4647 77.9434C81.0204 87.1345 89.0868 93.8988 98.7002 94.9076C99.6093 95.0008 100.241 94.0244 99.7467 93.2425Z" fill="#F5851F"/>
<path d="M98.6904 94.9024C99.6092 94.9998 100.231 94.0192 99.7466 93.2415C97.7145 89.9978 92.7338 83.194 84.0022 77.6696C91.0698 83.4796 95.6003 91.8019 97.0315 94.6691C97.5792 94.7678 98.1354 94.8469 98.6904 94.9024Z" fill="#F89E1C"/>
<path d="M87.422 90.5819L86.5969 90.1082C81.2788 81.039 85.4227 78.5868 85.5975 78.4773L86.0258 79.0916L85.8138 78.7796L85.8101 78.9749C85.7737 79.0054 82.0061 81.5513 87.422 90.5819Z" fill="#F89E1C"/>
<path d="M82.7999 76.9173C82.7999 76.9173 78.8766 78.701 81.7239 84.6836C81.7239 84.6836 77.2801 78.2169 78.4539 75.8312C78.4539 75.8312 79.3438 74.2603 82.7999 76.9173Z" fill="#032663"/>
<path d="M100.007 94.3262C99.982 94.3847 99.9566 94.4432 99.9215 94.4974C99.6588 94.9161 99.1808 95.1372 98.683 95.0835C89.0459 94.076 80.8502 87.2092 78.2878 77.9805L78.0337 77.0713C77.8676 76.4666 78.0712 75.837 78.5639 75.4486C79.0566 75.0602 79.7194 75.0003 80.2831 75.3027C91.5797 81.187 97.7733 89.7328 99.9093 93.1374C100.134 93.501 100.172 93.9462 100.007 94.3262ZM78.4434 76.2069C78.3377 76.4505 78.3142 76.7182 78.3954 76.985L78.6494 77.8942C81.1652 86.9637 89.2315 93.7281 98.7153 94.7153C99.0792 94.7574 99.4035 94.597 99.596 94.2868C99.7842 93.9863 99.7789 93.625 99.596 93.3257C97.471 89.9491 91.333 81.4621 80.1198 75.6256C79.6842 75.4019 79.1916 75.4429 78.8081 75.7398C78.6346 75.8729 78.5195 76.0314 78.4434 76.2069Z" fill="#10319B"/>
<path d="M81.8107 84.6739L81.4669 84.8258C78.767 78.9303 82.6752 76.7811 82.7171 76.7646L82.9012 77.0876C82.7433 77.158 79.2518 79.0942 81.8107 84.6739Z" fill="#10319B"/>
<path d="M86.6728 89.9093L86.3443 90.0795C81.3546 81.1874 85.1531 78.597 85.3237 78.4973L85.5358 78.8093C85.5036 78.8301 81.877 81.3445 86.6728 89.9093Z" fill="#10319B"/>
<path d="M143.721 94.3306C145.283 85.2916 137.561 77.2644 128.667 78.7399L125.229 79.3138C125.203 79.3231 125.182 79.3205 125.152 79.3211L116.567 80.7469L107.933 81.894C107.904 81.8945 107.886 81.9007 107.86 81.91L104.402 82.3725C95.4652 83.5574 90.5878 93.4624 94.8784 101.637C96.2772 104.31 97.7163 106.762 99.1727 109.04C99.9826 110.382 100.968 111.83 102.06 113.329C106.846 120.055 111.543 124.968 115.191 129.007C115.335 129.163 115.476 129.311 115.626 129.455C118.017 132.034 121.491 132.928 124.754 132.387C128.033 131.948 131.066 130.087 132.554 126.926C132.648 126.745 132.742 126.564 132.829 126.365C135.057 121.443 138.017 115.383 140.496 107.569C141.073 105.826 141.567 104.151 141.919 102.635C142.594 100.048 143.206 97.2856 143.721 94.3306Z" fill="#F89E1C"/>
<path d="M131.451 114.033C133.117 108.865 127.789 106.297 122.94 110.251C117.165 114.967 113.125 113.839 107.733 107.267C103.35 101.929 98.5436 104.19 96.8967 105.226C97.6684 106.572 98.4565 107.852 99.2411 109.095C100.051 110.437 101.036 111.885 102.129 113.383C106.914 120.11 111.611 125.022 115.259 129.062C115.403 129.218 115.544 129.366 115.694 129.51C118.086 132.089 121.56 132.983 124.822 132.442C128.101 132.003 131.134 130.141 132.622 126.981C132.716 126.799 132.81 126.618 132.898 126.419C133.622 124.811 134.433 123.084 135.27 121.209C132.674 121.179 129.84 119.023 131.451 114.033Z" fill="#032663"/>
<path d="M127.063 132.075C129.589 131.182 131.635 129.403 132.74 127.058C132.834 126.877 132.928 126.696 133.016 126.497C133.33 125.794 133.664 125.064 134.009 124.31C134.448 123.346 134.913 122.343 135.388 121.287L135.493 121.052L135.245 121.051C133.868 121.035 132.609 120.404 131.89 119.375C130.993 118.093 130.889 116.265 131.589 114.083C132.286 111.923 131.816 110.007 130.334 108.941C128.724 107.793 125.774 107.711 122.816 110.118C117.265 114.656 113.349 113.879 107.836 107.163C103.431 101.792 98.6377 103.921 96.79 105.087L96.6621 105.172L96.7411 105.311C97.5004 106.622 98.286 107.923 99.0855 109.18C99.8469 110.441 100.82 111.883 101.976 113.478C106.076 119.242 110.174 123.745 113.48 127.372C114.044 127.992 114.593 128.597 115.116 129.182C115.26 129.339 115.404 129.495 115.554 129.639C117.828 132.082 121.292 133.197 124.818 132.621C125.599 132.513 126.343 132.329 127.063 132.075ZM134.987 121.379C134.551 122.352 134.129 123.281 133.716 124.177C133.37 124.931 133.036 125.661 132.713 126.367C132.631 126.554 132.537 126.735 132.444 126.916C131.075 129.828 128.212 131.836 124.763 132.296C121.333 132.867 117.979 131.782 115.779 129.412C115.626 129.258 115.485 129.111 115.345 128.963C114.822 128.378 114.276 127.782 113.708 127.153C110.418 123.54 106.32 119.038 102.226 113.291C101.073 111.705 100.103 110.271 99.3446 109.02C98.5724 107.812 97.8142 106.56 97.0823 105.299C98.9511 104.165 103.438 102.342 107.578 107.382C113.175 114.197 117.359 115.008 123.009 110.386C125.836 108.084 128.618 108.137 130.136 109.219C131.495 110.189 131.915 111.965 131.266 113.98C130.335 116.875 130.94 118.615 131.614 119.571C132.36 120.62 133.602 121.286 134.987 121.379Z" fill="#10319B"/>
<path d="M127.035 132.083C129.561 131.19 131.607 129.411 132.704 127.07C132.798 126.889 132.891 126.707 132.979 126.509C133.302 125.802 133.633 125.064 133.987 124.307C136.009 119.892 138.526 114.393 140.651 107.701C141.268 105.845 141.747 104.186 142.08 102.755C142.793 100.026 143.402 97.2255 143.885 94.43C144.636 90.0494 143.298 85.7063 140.21 82.5249C137.133 79.349 132.914 77.9389 128.645 78.6484L116.545 80.6554L104.397 82.2748C100.099 82.8466 96.5199 85.4242 94.56 89.3439C92.5974 93.2843 92.6702 97.8179 94.7483 101.771C96.0738 104.293 97.5165 106.783 99.0458 109.183C99.8071 110.444 100.781 111.886 101.936 113.48C106.037 119.245 110.134 123.747 113.437 127.366C114.001 127.986 114.551 128.591 115.073 129.176C115.217 129.333 115.361 129.489 115.511 129.633C117.786 132.076 121.249 133.191 124.776 132.615C125.577 132.51 126.324 132.334 127.035 132.083ZM101.868 83.2179C102.693 82.9264 103.558 82.7196 104.444 82.6036L116.604 80.9898L128.704 78.9828C132.87 78.2898 136.989 79.6665 139.987 82.7613C143.001 85.8706 144.31 90.1053 143.572 94.3827C143.092 97.1575 142.492 99.9552 141.776 102.675C141.439 104.097 140.969 105.753 140.358 107.598C138.238 114.278 135.727 119.764 133.702 124.171C133.357 124.924 133.017 125.666 132.694 126.372C132.612 126.559 132.518 126.741 132.424 126.922C131.056 129.833 128.184 131.845 124.743 132.301C121.314 132.872 117.96 131.788 115.76 129.417C115.607 129.264 115.466 129.116 115.325 128.969C114.803 128.384 114.253 127.778 113.68 127.162C110.39 123.549 106.292 119.046 102.21 113.305C101.057 111.719 100.087 110.285 99.3285 109.034C97.8023 106.642 96.3597 104.152 95.0404 101.648C93.0139 97.7852 92.952 93.3662 94.8604 89.5239C96.3537 86.4895 98.8332 84.2907 101.868 83.2179Z" fill="#10319B"/>
<path d="M137.581 82.2902C135.063 80.6641 132.041 79.9062 128.902 80.4336L125.446 81.0137C125.42 81.023 125.399 81.0205 125.37 81.021L116.741 82.4623L108.065 83.6043C108.036 83.6048 108.018 83.611 107.992 83.6203L104.513 84.0802C99.6954 84.7172 97.6472 88.6386 96.0162 93.0145C95.6456 94.004 96.3423 95.1098 97.3467 95.1594C105.827 95.5865 124.767 94.6452 137.581 82.2902Z" fill="#E26907"/>
<path d="M119.505 107.924C119.794 107.822 120.074 107.693 120.354 107.535C121.97 106.609 122.932 104.917 122.942 103.019L122.938 92.0361C122.941 90.1998 122.022 88.5213 120.479 87.5367C118.941 86.5609 117.067 86.4534 115.472 87.2737C115.422 87.3011 115.373 87.3285 115.323 87.3558L115.485 87.6443L115.306 87.362L115.265 87.3863L105.933 92.7277C104.316 93.6544 103.355 95.3461 103.345 97.2444C103.347 99.1484 104.31 100.87 105.929 101.848L115.191 107.446C116.53 108.275 118.083 108.427 119.505 107.924ZM116.311 87.6382C117.575 87.1917 118.964 87.3521 120.145 88.0989C121.494 88.9545 122.288 90.4205 122.294 92.0271L122.297 103.01C122.295 104.678 121.453 106.15 120.035 106.967C118.616 107.784 116.926 107.75 115.51 106.899L106.249 101.3C104.833 100.449 103.993 98.9396 103.987 97.2741C103.989 95.6055 104.831 94.1336 106.249 93.3165L115.623 87.9508L115.488 87.653L115.649 87.9415C115.69 87.9172 115.739 87.8898 115.783 87.8743C115.937 87.7803 116.127 87.7033 116.311 87.6382Z" fill="#F89E1C"/>
<path d="M119.586 107.993C119.876 107.89 120.156 107.762 120.427 107.607C122.026 106.686 122.985 105.015 122.989 103.129L122.99 91.8784C122.986 90.054 122.082 88.3899 120.555 87.4198C119.028 86.4497 117.169 86.3566 115.589 87.1619C115.539 87.1893 115.49 87.2167 115.44 87.244L115.523 87.3926L115.435 87.2559L115.385 87.2833L105.822 92.7554C104.223 93.6758 103.265 95.347 103.26 97.2334C103.256 99.1198 104.214 100.824 105.82 101.796L115.308 107.531C116.629 108.337 118.183 108.489 119.586 107.993ZM116.308 87.2137C117.65 86.7393 119.13 86.9069 120.378 87.6996C121.804 88.6068 122.662 90.1687 122.663 91.8755L122.662 103.126C122.665 104.891 121.769 106.461 120.257 107.321C118.754 108.178 116.959 108.152 115.453 107.243L105.965 101.508C104.46 100.599 103.569 98.9994 103.566 97.2337C103.564 95.4681 104.46 93.8982 105.972 93.0382L115.584 87.5387L115.511 87.387L115.593 87.5356C115.642 87.5082 115.683 87.4839 115.733 87.4566C115.925 87.3589 116.115 87.2819 116.308 87.2137Z" fill="#10319B"/>
<path d="M118.139 105.436C118.358 105.359 118.58 105.26 118.784 105.139C120.025 104.434 120.76 103.138 120.761 101.687L120.766 93.4646C120.764 92.0639 120.061 90.7729 118.888 90.023C117.706 89.2762 116.278 89.1989 115.059 89.8271L114.893 89.9154L107.899 93.9169C106.658 94.622 105.922 95.9183 105.922 97.3691C105.922 98.8199 106.663 100.137 107.895 100.886L114.833 105.075C115.863 105.698 117.06 105.818 118.139 105.436ZM115.749 90.2443C116.67 89.9187 117.688 90.0328 118.551 90.5764C119.53 91.1974 120.118 92.2727 120.118 93.4469L120.113 101.669C120.108 102.885 119.495 103.97 118.461 104.562C117.427 105.155 116.197 105.136 115.156 104.507L108.217 100.318C107.188 99.6947 106.562 98.5936 106.567 97.3781C106.571 96.1626 107.184 95.0775 108.218 94.485L115.343 90.4076C115.48 90.3492 115.609 90.2939 115.749 90.2443Z" fill="#F89E1C"/>
<path d="M115.118 90.2703C115.15 90.2491 115.185 90.2367 115.226 90.2124C117.541 89.0289 120.348 90.7706 120.346 93.475L120.347 101.518C120.344 104.302 117.387 105.988 115.028 104.562L108.251 100.464C105.891 99.0381 105.888 95.5657 108.25 94.2078L115.077 90.2945C115.095 90.2883 115.109 90.2734 115.118 90.2703Z" fill="#032663"/>
<path d="M114.801 93.451C114.819 93.4448 114.842 93.4267 114.859 93.4205C116.163 92.7526 117.746 93.7423 117.75 95.2607L117.752 99.7896C117.754 101.358 116.088 102.312 114.758 101.509L110.932 99.2002C109.602 98.3973 109.599 96.4345 110.93 95.6777L114.778 93.4691C114.784 93.4572 114.792 93.4541 114.801 93.451Z" fill="#33FCFE"/>
<path d="M139.383 85.1265C138.508 86.5313 132.779 90.6189 132.779 90.6189C132.779 90.6189 135.177 91.9324 135.76 95.3974C136.201 97.985 134.175 100.655 134.175 100.655C136.681 102.582 136.508 106.67 135.386 109.918C134.264 113.166 135.821 113.83 135.821 113.83C135.821 113.83 142.891 98.2059 142.439 90.086C142.25 86.7876 139.383 85.1265 139.383 85.1265Z" fill="#F4B821"/>
<path d="M99.6406 106.486C99.6406 106.486 102.002 105.711 103.561 107.193C105.121 108.674 115.194 122.374 119.632 127.141C120.427 127.995 122.619 131.04 124.37 130.105C124.37 130.105 122.035 131.986 117.617 128.643C113.201 125.309 102.615 110.853 99.6406 106.486Z" fill="#0E51A0"/>
<path d="M90.3925 37.6338C92.2262 36.2428 94.4225 35.0461 96.8773 34.042L96.7243 34.0864C96.7243 34.0864 104.532 29.4342 116.367 29.1849C128.165 28.9416 136.307 33.1291 136.359 33.1582C138.926 34.0692 141.245 35.1913 143.205 36.5338C152.623 42.9987 152.258 57.3132 148.587 70.8683C145.913 80.729 132.094 85.4791 118.145 85.5532C104.212 86.0585 90.1396 81.8894 86.9293 72.1525C82.496 58.7617 81.3389 44.4843 90.3925 37.6338Z" fill="#F89E1C"/>
<path d="M90.391 37.6891C91.3545 36.9623 92.4205 36.2844 93.5615 35.66C84.6975 42.5732 85.8622 56.7833 90.2573 70.1145C93.4798 79.8682 107.554 84.0465 121.487 83.5411C129.414 83.5008 137.303 81.9385 143.125 78.7874C137.236 83.4024 127.718 85.6611 118.142 85.7126C104.209 86.2179 90.135 82.0396 86.9217 72.2844C82.5021 58.863 81.3389 44.5489 90.391 37.6891Z" fill="#F5851F"/>
<path d="M95.1574 50.1759L95.3254 49.2046C90.2498 48.2407 89.4504 39.1013 89.4443 39.008L88.476 39.0847C88.5159 39.4931 89.3597 49.0685 95.1574 50.1759Z" fill="#F89E1C"/>
<path d="M137.741 48.6616C144.085 46.8289 144.168 37.4384 144.168 37.0423L143.205 37.0333C143.201 37.1282 143.121 46.0842 137.479 47.7148L137.741 48.6616Z" fill="#F4B821"/>
<path d="M119.067 37.1667C121.903 36.6933 124.307 35.3864 125.643 33.5596L127.769 30.639L126.99 30.0426L124.865 32.9633C123.507 34.8313 120.83 36.0894 117.739 36.3319C114.554 36.5805 111.498 35.6758 109.778 33.963C109.732 33.9141 109.677 33.8667 109.631 33.8177L106.455 30.3295L105.747 31.0042L108.932 34.491C108.99 34.5567 109.047 34.6133 109.104 34.6699C111.015 36.5677 114.363 37.584 117.817 37.3093C118.238 37.2862 118.654 37.2356 119.067 37.1667Z" fill="#F4B821"/>
<path d="M119.709 40.8509C123.49 40.2197 126.662 38.4261 128.574 35.8053L131.614 31.6378L130.835 31.0414L127.787 35.2197C125.775 37.9705 122.222 39.7428 118.031 40.0651C117.714 40.0897 117.387 40.1066 117.058 40.1143C113.119 40.1964 109.532 38.9369 107.236 36.6507C107.156 36.5697 107.076 36.4886 106.995 36.3984L106.902 36.2913L102.538 31.5108L101.83 32.1856L106.298 37.0808C106.39 37.1787 106.48 37.2674 106.57 37.3561C109.058 39.8273 112.898 41.1861 117.091 41.0994C117.429 41.0901 117.776 41.0793 118.111 41.0517C118.66 41.0072 119.186 40.9382 119.709 40.8509Z" fill="#F4B821"/>
<path d="M142.731 39.0645C140.778 37.7113 138.458 36.5799 135.889 35.6598C135.837 35.6307 127.642 30.7824 115.853 31.0241C108.097 31.1868 101.343 32.6539 97.6124 33.6446C99.9693 32.4493 106.872 29.3821 116.366 29.1838C128.164 28.9406 136.312 33.1648 136.364 33.1939C138.933 34.114 141.254 35.2454 143.206 36.5986C151.61 42.4121 152.225 54.5159 149.656 66.7645C151.634 55.388 150.57 44.4911 142.731 39.0645Z" fill="#F4B821"/>
<path d="M138.552 48.5542C144.044 47.2694 144.349 37.9079 144.358 37.5102L144.036 37.498C144.033 37.5929 143.726 47.0018 138.48 48.236L138.552 48.5542Z" fill="#10319B"/>
<path d="M128.173 35.4867L131.22 31.3084C130.107 30.9661 128.812 30.6161 127.374 30.3091L125.249 33.2297C123.806 35.2064 121.01 36.541 117.768 36.7896C114.445 37.0521 111.246 36.0862 109.427 34.2863C109.37 34.2297 109.324 34.1807 109.268 34.1242L106.082 30.6374C104.624 31.0034 103.315 31.4106 102.174 31.8086L106.539 36.5983L106.642 36.7038C106.723 36.794 106.813 36.8827 106.893 36.9638C109.289 39.3372 113.037 40.6547 117.069 40.5665C117.398 40.5587 117.734 40.5403 118.069 40.5127C122.401 40.1857 126.086 38.3538 128.173 35.4867Z" fill="#032663"/>
<path d="M95.5813 49.4541L95.6409 49.1328C90.3312 48.1232 89.4997 38.7344 89.4935 38.6411L89.1677 38.6672C89.2045 39.0573 90.0269 48.3909 95.5813 49.4541Z" fill="#10319B"/>
<path d="M118.057 85.4261C111.166 85.6803 104.251 84.8347 98.481 82.8171C97.1101 81.3857 96.0082 79.5321 95.3255 77.3632C93.5848 71.7958 91.6049 64.0043 90.6665 55.2183C90.2095 50.8987 92.4876 46.915 95.8832 46.0085C100.524 44.7622 107.682 43.2842 116.233 42.9699L116.231 42.9607C116.476 42.9576 116.712 42.956 116.947 42.9544C117.183 42.9528 117.426 42.9405 117.66 42.9298L117.661 42.9389C126.22 42.8969 133.276 43.8603 137.979 44.9053C141.427 45.6692 144.092 49.771 143.873 54.1091C143.43 62.9276 141.875 70.7904 140.448 76.4244C139.901 78.5722 138.93 80.4417 137.676 81.915C132.007 84.2293 125.05 85.3906 118.057 85.4261Z" fill="#032663"/>
<path d="M141.733 79.6434L140.4 80.4223C140.63 79.6483 141.016 78.348 141.27 77.4378C141.952 75.0223 142.731 72.2886 143.443 70.4528C144.588 67.4789 147.933 65.1943 150.145 64.0327L149.802 65.5426C147.747 66.6215 145.419 68.1609 144.393 70.8319C143.702 72.6264 142.929 75.3402 142.252 77.7266C141.982 78.649 141.962 78.8693 141.733 79.6434Z" fill="#F4B821"/>
<path d="M94.6995 80.8344C94.7087 80.8329 94.7178 80.8313 94.727 80.8298C94.8066 80.7977 94.857 80.7043 94.8233 80.6156C94.5784 79.9396 94.3228 79.1993 94.0656 78.4498C93.2665 76.1495 92.3588 73.5371 91.5292 71.6757C90.2971 68.9288 87.8769 67.4839 85.4414 66.3435C85.3603 66.3098 85.2624 66.3451 85.2288 66.4261C85.1951 66.5072 85.2303 66.6051 85.313 66.6479C87.6888 67.77 90.054 69.1675 91.2417 71.8181C92.0697 73.6702 92.9759 76.2735 93.7643 78.5662C94.023 79.3248 94.2771 80.0559 94.5236 80.7411C94.5526 80.8023 94.6261 80.8466 94.6995 80.8344Z" fill="#F89E1C"/>
<path d="M149.898 65.4977C149.547 67.292 149.128 69.0788 148.644 70.867C147.654 74.5415 145.141 77.5173 141.656 79.8066C142.487 76.9888 143.178 73.836 144.138 71.3363C145.271 68.4022 147.947 66.5215 149.898 65.4977Z" fill="#032663"/>
<path d="M147.641 71.1205C147.986 70.0817 148.31 69.0277 148.598 67.9799C147.565 68.6899 146.527 69.7028 145.903 71.1087C145.238 72.6064 144.674 74.4268 144.089 76.1753C145.724 74.8365 146.962 73.1581 147.641 71.1205Z" fill="#0E51A0"/>
<path d="M141.85 79.7927C142.139 78.8106 142.411 77.7842 142.678 76.7868C143.176 74.9113 143.7 72.9654 144.324 71.3332C145.422 68.4709 148.02 66.6316 150.005 65.5833L149.852 65.2881C147.823 66.3533 145.158 68.2507 144.02 71.2047C143.388 72.8477 142.866 74.8028 142.36 76.6889C142.093 77.6863 141.821 78.7128 141.53 79.6857L141.85 79.7927Z" fill="#10319B"/>
<path d="M85.2784 66.8422C85.7255 68.6165 86.2476 70.3877 86.8247 72.1497C88.0157 75.7807 90.6918 78.645 94.2947 80.7886C93.3027 78.0111 92.4514 74.8893 91.3433 72.433C90.0592 69.5438 87.2855 67.7901 85.2784 66.8422Z" fill="#032663"/>
<path d="M127.517 84.9029C131.243 84.2809 134.692 83.2995 137.655 82.0031C143.649 79.3705 147.48 75.5332 148.742 70.8889C151.37 61.2056 154.16 43.8449 143.295 36.3954C141.378 35.0835 139.065 33.9414 136.417 32.9968C136.097 32.8332 128.071 28.7772 116.368 29.0235C104.627 29.2667 96.8467 33.8577 96.7687 33.899C96.5943 33.9847 92.139 36.1151 90.3038 37.4969C79.8677 45.3895 83.6106 62.6123 86.7734 72.1778C88.2843 76.7648 92.3312 80.438 98.4642 82.8195C103.91 84.929 110.91 85.949 118.159 85.6916C121.371 85.6648 124.534 85.4008 127.517 84.9029ZM109.679 29.9797C111.717 29.6396 113.961 29.4065 116.376 29.3523C128.004 29.1091 135.958 33.13 136.298 33.2997C138.944 34.2352 141.237 35.3711 143.124 36.6692C153.819 44.0056 151.04 61.2041 148.434 70.7987C145.542 81.4412 130.309 85.2953 118.141 85.3551C105.98 85.8003 90.5482 82.5845 87.0762 72.0707C83.9471 62.5938 80.221 45.5286 90.4982 37.7569C92.2982 36.3904 96.8774 34.211 96.9202 34.185C96.9798 34.1468 101.851 31.2866 109.679 29.9797Z" fill="#10319B"/>
<path d="M118.239 83.4575C112.332 83.6701 106.406 83.0369 101.327 81.4887C100.542 81.2518 99.8321 80.7854 99.3165 80.1263C98.4519 79.016 97.7602 77.6976 97.2871 76.2201C95.6873 71.214 93.8637 64.1889 93.0065 56.2855C92.5833 52.3942 94.6841 48.8173 97.8288 47.9905C102.104 46.8712 108.71 45.5325 116.595 45.2444L116.594 45.2352C116.819 45.226 117.036 45.2275 117.253 45.229C117.469 45.2213 117.694 45.212 117.911 45.2135L117.912 45.2227C125.801 45.1793 132.469 46.2452 136.804 47.1818C139.984 47.8677 142.275 51.3624 142.077 55.263C141.666 63.1989 140.227 70.2876 138.904 75.3572C138.519 76.8365 137.901 78.1659 137.12 79.3057C136.672 79.9559 136.025 80.4318 135.286 80.6966C130.24 82.5105 124.252 83.4253 118.239 83.4575Z" fill="#FCE8CA"/>
<path fill-rule="evenodd" clip-rule="evenodd" d="M106.687 65.5255C105.309 65.835 104.094 66.776 103.363 67.7408C103.032 68.178 102.404 68.2604 101.96 67.925C101.516 67.5896 101.425 66.9633 101.756 66.5262C102.702 65.2776 104.29 64.0125 106.221 63.5788C108.221 63.1294 110.476 63.6018 112.559 65.6554C112.85 65.9419 112.94 66.3723 112.788 66.7452C112.636 67.1182 112.272 67.3599 111.866 67.3572C111.275 67.3534 110.32 67.3754 109.427 67.5678C108.48 67.772 107.892 68.1068 107.666 68.499C107.393 68.9745 106.781 69.1343 106.3 68.8559C105.818 68.5775 105.649 67.9663 105.923 67.4909C106.579 66.3492 107.882 65.8597 108.93 65.6278C108.133 65.3661 107.375 65.3707 106.687 65.5255Z" fill="#0E51A0"/>
<path d="M129.316 68.6961L129.248 69.256L121.556 68.4711L121.625 67.9112L129.316 68.6961Z" fill="#0052A3"/>
<path d="M129.228 69.4649C129.196 69.6539 129.165 69.8339 129.106 70.0119L121.549 69.2366C121.536 69.0535 121.541 68.8625 121.555 68.6722L129.228 69.4649Z" fill="#0052A3"/>
<path d="M129.028 63.833L122.964 63.2192C123.14 63.0315 123.333 62.8632 123.533 62.7137L128.577 63.2275C128.752 63.4129 128.9 63.6145 129.028 63.833Z" fill="#0052A3"/>
<path d="M127.372 62.3305C127.729 62.5014 128.064 62.7253 128.35 62.9914L123.817 62.5234C124.156 62.3201 124.528 62.1646 124.913 62.0737L127.372 62.3305Z" fill="#0052A3"/>
<path d="M129.468 64.8594C129.517 65.0451 129.548 65.2385 129.57 65.4314L122.084 64.6612C122.152 64.4748 122.228 64.298 122.313 64.1219L129.468 64.8594Z" fill="#0052A3"/>
<path d="M129.593 65.6429C129.606 65.8261 129.601 66.017 129.587 66.2073L121.905 65.423C121.928 65.2334 121.968 65.054 122.017 64.8753L129.593 65.6429Z" fill="#0052A3"/>
<path d="M129.168 64.0536C129.262 64.2424 129.338 64.439 129.404 64.644L122.428 63.9286C122.541 63.7454 122.653 63.5622 122.791 63.3991L129.168 64.0536Z" fill="#0052A3"/>
<path d="M129.483 67.1756L129.424 67.7272L121.733 66.9422L121.791 66.3907L129.483 67.1756Z" fill="#0052A3"/>
<path d="M129.573 66.4164L129.506 66.9672L121.814 66.1823L121.882 65.6224L129.573 66.4164Z" fill="#0052A3"/>
<path d="M129.401 67.9358L129.342 68.4964L121.651 67.7024L121.709 67.1509L129.401 67.9358Z" fill="#0052A3"/>
<path d="M118.75 72.3231C118.926 72.3258 119.05 72.49 119.007 72.658C118.862 73.2051 118.364 73.6021 117.774 73.6044C117.183 73.5988 116.689 73.1908 116.539 72.6449C116.493 72.4755 116.625 72.3167 116.792 72.3128L118.75 72.3231Z" fill="#032663"/>
<path d="M104.246 58.8013C104.292 58.7935 104.344 58.7687 104.385 58.7296C104.989 58.2008 105.784 57.9949 106.573 58.1691C106.747 58.2044 106.912 58.0961 106.947 57.9289C106.981 57.7539 106.872 57.5866 106.706 57.5499C105.726 57.3351 104.732 57.5906 103.975 58.2499C103.844 58.3687 103.829 58.5647 103.948 58.698C104.013 58.7921 104.131 58.8287 104.246 58.8013Z" fill="#032663"/>
<path d="M129.575 58.8797C129.525 58.8719 129.481 58.8471 129.434 58.8067C128.831 58.2722 128.034 58.0516 127.249 58.2153C127.079 58.2517 126.909 58.1434 126.87 57.9649C126.833 57.7942 126.939 57.6236 127.116 57.5859C128.094 57.382 129.09 57.6496 129.845 58.3197C129.976 58.4344 129.987 58.6337 129.874 58.7653C129.804 58.8655 129.682 58.902 129.575 58.8797Z" fill="#032663"/>
<path d="M127.893 84.6605C131.482 84.0615 134.838 83.1428 137.76 81.9474L137.796 81.9321L137.819 81.9C139.12 80.3715 140.091 78.4455 140.625 76.3375C141.94 71.1562 143.599 63.0686 144.057 53.9457C144.27 49.6275 141.763 45.6878 138.214 44.7709C121.629 40.5213 100.586 44.3831 95.8555 45.6539C92.3437 46.5986 90.0472 50.6421 90.5211 55.0626C91.4825 64.1561 93.5849 72.1724 95.1847 77.2917C95.8506 79.4162 96.954 81.3356 98.3724 82.8251L98.3953 82.8495L98.4351 82.8618C104.068 84.8458 110.86 85.7495 118.07 85.4891C121.434 85.4653 124.755 85.1845 127.893 84.6605ZM137.6 81.663C132.159 83.8824 125.215 85.1171 118.053 85.1618L118.044 85.1633C110.993 85.416 104.075 84.4955 98.565 82.5665C97.191 81.1168 96.1259 79.257 95.4799 77.1952C93.8923 72.0928 91.7839 64.0964 90.8285 55.0396C90.3807 50.7751 92.5717 46.8908 95.9306 45.9904C100.643 44.7227 121.612 40.8732 138.129 45.1059C141.529 45.9815 143.936 49.7775 143.725 53.9351C143.271 63.0289 141.609 71.0982 140.301 76.2596C139.794 78.3063 138.86 80.1697 137.6 81.663Z" fill="#10319B"/>
<path d="M94.1805 80.7887L94.4834 80.6816C94.1436 79.7195 93.8144 78.7085 93.4899 77.725C92.8867 75.8636 92.2529 73.9319 91.5305 72.3167C90.2341 69.4108 87.465 67.6279 85.3768 66.6465L85.2469 66.9417C87.2846 67.9033 89.9787 69.6326 91.2414 72.4499C91.9623 74.0558 92.5839 75.9708 93.187 77.8322C93.51 78.8065 93.8407 79.8267 94.1805 80.7887Z" fill="#10319B"/>
<path d="M144.942 65.5244L149.203 62.851C149.203 62.851 150.092 50.0905 145.903 44.3845L144.847 48.0605C144.847 48.0605 146.774 50.7858 144.942 65.5244Z" fill="#F4B821"/>
<path fill-rule="evenodd" clip-rule="evenodd" d="M117.009 104.644L111.075 104.483C109.749 104.447 108.624 103.507 108.365 102.221L104.873 84.8468C104.517 83.0776 105.913 81.4412 107.735 81.4906L121.795 81.8716C123.629 81.9213 124.936 83.6536 124.463 85.4075L119.829 102.561C119.49 103.818 118.324 104.679 117.009 104.644Z" fill="#58595B"/>
<path fill-rule="evenodd" clip-rule="evenodd" d="M116.88 104.641L111.099 104.484C109.807 104.449 108.711 103.568 108.457 102.362L105.037 86.0745C104.689 84.4174 106.048 82.8837 107.822 82.9318L121.518 83.303C123.305 83.3514 124.58 84.977 124.12 86.6214L119.624 102.692C119.296 103.87 118.16 104.676 116.88 104.641Z" fill="#404041"/>
<path fill-rule="evenodd" clip-rule="evenodd" d="M115.379 91.4721L113.533 91.4221C113.128 91.4111 112.796 91.0108 112.76 90.4901L112.463 86.097C112.389 85.6163 112.695 85.1696 113.089 85.1803L116.141 85.263C116.539 85.2738 116.819 85.7426 116.714 86.2204L116.118 90.6848C116.056 91.1454 115.741 91.482 115.379 91.4721Z" fill="#BBBDBF"/>
<path fill-rule="evenodd" clip-rule="evenodd" d="M115.695 87.1007C115.71 87.776 115.216 88.3286 114.589 88.3352C113.964 88.3419 113.444 87.7988 113.428 87.1246C113.413 86.4493 113.909 85.8968 114.534 85.8901C115.16 85.8834 115.68 86.4255 115.695 87.1007Z" fill="#404041"/>
<path fill-rule="evenodd" clip-rule="evenodd" d="M115.505 89.8552C115.517 90.4287 115.098 90.897 114.567 90.9021C114.036 90.9073 113.595 90.4485 113.582 89.875C113.569 89.3025 113.989 88.8342 114.52 88.828C115.051 88.8229 115.492 89.2827 115.505 89.8552Z" fill="#404041"/>
<path d="M144.703 94.9514C138.895 93.5812 124.997 91.387 108.943 96.4969C107.382 96.9984 107.208 99.139 108.662 99.965L109.797 100.618C121.31 107.165 135.5 105.963 145.385 97.6123C146.328 96.8052 145.939 95.2333 144.703 94.9514Z" fill="#F89E1C"/>
<path d="M143.242 96.47C143.221 96.4907 143.211 96.5011 143.18 96.5115C139.389 99.4106 134.05 99.5297 129.953 96.8651C128.601 95.9769 127.341 94.8721 126.418 93.488C133.934 92.638 139.999 93.935 142.884 94.7436C143.667 94.966 143.877 95.9731 143.242 96.47Z" fill="#F4B821"/>
<path d="M137.378 102.353C128.641 105.904 118.454 105.399 109.8 100.597L108.665 99.9647C108.531 99.8934 108.407 99.7911 108.304 99.7094L108.085 97.1593C108.3 96.901 108.587 96.6939 108.957 96.5686C110.569 96.0565 112.162 95.6269 113.734 95.259C118.236 102.849 131.115 102.847 137.378 102.353Z" fill="#F5851F"/>
<path d="M116.94 95.3863C117.228 97.4937 119.163 101.846 129.68 104.664L131.323 104.141C116.853 100.685 117.933 94.4658 117.943 94.4143L116.954 94.1929C116.934 94.2548 116.844 94.6975 116.94 95.3863Z" fill="#F89E1C"/>
<path d="M112.796 95.3767C112.796 95.3767 110.941 100.931 119.525 104.046C119.525 104.046 109.083 101.835 107.79 98.3642C107.78 98.3745 106.956 96.1258 112.796 95.3767Z" fill="#032663"/>
<path d="M145.664 97.7029C146.094 97.2687 146.266 96.6403 146.109 96.0342C145.941 95.3767 145.424 94.8649 144.754 94.7139C139.399 93.4443 125.171 91.0666 108.861 96.2704C108.049 96.5316 107.487 97.2236 107.419 98.0983C107.341 98.9628 107.767 99.7734 108.541 100.212L109.676 100.865C121.209 107.432 135.636 106.219 145.552 97.8372C145.593 97.7752 145.634 97.7339 145.664 97.7029ZM144.654 95.1876C145.138 95.2983 145.5 95.6566 145.615 96.1395C145.731 96.6224 145.589 97.0963 145.22 97.4068C135.468 105.644 121.278 106.845 109.92 100.39L108.785 99.7375C108.197 99.4009 107.875 98.7956 107.924 98.1267C107.982 97.468 108.401 96.9413 109.028 96.7428C125.214 91.5807 139.34 93.9384 144.654 95.1876Z" fill="#10319B"/>
<path d="M119.413 104.447L119.585 103.963C111.66 100.968 113.021 95.4985 113.031 95.4471L112.537 95.3055C112.537 95.3672 111.044 101.279 119.413 104.447Z" fill="#10319B"/>
<path d="M129.17 104.873L129.302 104.388C116.342 100.646 117.187 94.645 117.197 94.5935L116.702 94.4931C116.652 94.7505 115.716 100.989 129.17 104.873Z" fill="#10319B"/>
</g>
</g>
<defs>
<clipPath id="clip0_1920_75755">
<rect width="160" height="160" fill="white"/>
</clipPath>
</defs>
</svg>
