<svg width="80" height="80" viewBox="0 0 80 80" fill="none" xmlns="http://www.w3.org/2000/svg">
<mask id="mask0_12159_676858" style="mask-type:alpha" maskUnits="userSpaceOnUse" x="0" y="0" width="80" height="80">
<rect width="80" height="80" fill="#D9D9D9"/>
</mask>
<g mask="url(#mask0_12159_676858)">
<path opacity="0.5" d="M16.8541 20.5833C15.9866 20.5833 15.1547 20.2387 14.5413 19.6253C13.9279 19.0119 13.5833 18.18 13.5833 17.3125V10.7708C13.5833 9.90335 13.9279 9.0714 14.5413 8.458C15.1547 7.8446 15.9866 7.5 16.8541 7.5C17.7216 7.5 18.5535 7.8446 19.1669 8.458C19.7803 9.0714 20.1249 9.90335 20.1249 10.7708V17.3125C20.1249 18.1794 19.7808 19.0109 19.1681 19.6242C18.5554 20.2375 17.7243 20.5825 16.8574 20.5833H16.8541ZM49.5624 20.5833C48.6949 20.5833 47.863 20.2387 47.2496 19.6253C46.6362 19.0119 46.2916 18.18 46.2916 17.3125V10.7708C46.2916 9.90335 46.6362 9.0714 47.2496 8.458C47.863 7.8446 48.6949 7.5 49.5624 7.5C50.4299 7.5 51.2618 7.8446 51.8752 8.458C52.4886 9.0714 52.8333 9.90335 52.8333 10.7708V17.3125C52.8333 18.1794 52.4891 19.0109 51.8764 19.6242C51.2637 20.2375 50.4326 20.5825 49.5657 20.5833H49.5624Z" fill="#FFE784"/>
<path d="M56.1042 14.042H52.8333V17.3128C52.8333 18.1803 52.4887 19.0123 51.8753 19.6257C51.2619 20.2391 50.43 20.5837 49.5625 20.5837C48.695 20.5837 47.8631 20.2391 47.2497 19.6257C46.6363 19.0123 46.2917 18.1803 46.2917 17.3128V14.042H20.125V17.3128C20.125 18.1803 19.7804 19.0123 19.167 19.6257C18.5536 20.2391 17.7216 20.5837 16.8542 20.5837C15.9867 20.5837 15.1547 20.2391 14.5413 19.6257C13.9279 19.0123 13.5833 18.1803 13.5833 17.3128V14.042H10.3125C7.71006 14.042 5.21422 15.0758 3.37401 16.916C1.53381 18.7562 0.5 21.2521 0.5 23.8545V30.3962H65.9167V23.8545C65.9167 21.2521 64.8829 18.7562 63.0427 16.916C61.2024 15.0758 58.7066 14.042 56.1042 14.042Z" fill="#FFE784"/>
<path d="M16.8541 46.7497C18.6605 46.7497 20.1249 45.2853 20.1249 43.4788C20.1249 41.6724 18.6605 40.208 16.8541 40.208C15.0477 40.208 13.5833 41.6724 13.5833 43.4788C13.5833 45.2853 15.0477 46.7497 16.8541 46.7497Z" fill="#FFE784"/>
<path d="M16.8541 59.8337C18.6605 59.8337 20.1249 58.3693 20.1249 56.5628C20.1249 54.7564 18.6605 53.292 16.8541 53.292C15.0477 53.292 13.5833 54.7564 13.5833 56.5628C13.5833 58.3693 15.0477 59.8337 16.8541 59.8337Z" fill="#FFE784"/>
<path d="M33.2083 46.7497C35.0148 46.7497 36.4792 45.2853 36.4792 43.4788C36.4792 41.6724 35.0148 40.208 33.2083 40.208C31.4019 40.208 29.9375 41.6724 29.9375 43.4788C29.9375 45.2853 31.4019 46.7497 33.2083 46.7497Z" fill="#FFE784"/>
<path d="M33.2083 59.8337C35.0148 59.8337 36.4792 58.3693 36.4792 56.5628C36.4792 54.7564 35.0148 53.292 33.2083 53.292C31.4019 53.292 29.9375 54.7564 29.9375 56.5628C29.9375 58.3693 31.4019 59.8337 33.2083 59.8337Z" fill="#FFE784"/>
<path d="M49.5622 46.7497C51.3686 46.7497 52.833 45.2853 52.833 43.4788C52.833 41.6724 51.3686 40.208 49.5622 40.208C47.7558 40.208 46.2914 41.6724 46.2914 43.4788C46.2914 45.2853 47.7558 46.7497 49.5622 46.7497Z" fill="#FFE784"/>
<path d="M49.5622 59.8337C51.3686 59.8337 52.833 58.3693 52.833 56.5628C52.833 54.7564 51.3686 53.292 49.5622 53.292C47.7558 53.292 46.2914 54.7564 46.2914 56.5628C46.2914 58.3693 47.7558 59.8337 49.5622 59.8337Z" fill="#FFE784"/>
<path opacity="0.7" d="M0 30V62.7083C0 65.3108 1.03381 67.8066 2.87401 69.6468C4.71422 71.487 7.21006 72.5208 9.8125 72.5208H55.6042C58.2066 72.5208 60.7024 71.487 62.5427 69.6468C64.3829 67.8066 65.4167 65.3108 65.4167 62.7083V30H0ZM16.3542 59.4375C15.4867 59.4375 14.6547 59.0929 14.0413 58.4795C13.4279 57.8661 13.0833 57.0341 13.0833 56.1667C13.0833 55.2992 13.4279 54.4672 14.0413 53.8538C14.6547 53.2404 15.4867 52.8958 16.3542 52.8958C17.2216 52.8958 18.0536 53.2404 18.667 53.8538C19.2804 54.4672 19.625 55.2992 19.625 56.1667C19.625 57.0341 19.2804 57.8661 18.667 58.4795C18.0536 59.0929 17.2216 59.4375 16.3542 59.4375ZM16.3542 46.3542C15.4867 46.3542 14.6547 46.0096 14.0413 45.3962C13.4279 44.7828 13.0833 43.9508 13.0833 43.0833C13.0833 42.2159 13.4279 41.3839 14.0413 40.7705C14.6547 40.1571 15.4867 39.8125 16.3542 39.8125C17.2216 39.8125 18.0536 40.1571 18.667 40.7705C19.2804 41.3839 19.625 42.2159 19.625 43.0833C19.625 43.9508 19.2804 44.7828 18.667 45.3962C18.0536 46.0096 17.2216 46.3542 16.3542 46.3542ZM32.7083 59.4375C31.8409 59.4375 31.0089 59.0929 30.3955 58.4795C29.7821 57.8661 29.4375 57.0341 29.4375 56.1667C29.4375 55.2992 29.7821 54.4672 30.3955 53.8538C31.0089 53.2404 31.8409 52.8958 32.7083 52.8958C33.5758 52.8958 34.4078 53.2404 35.0212 53.8538C35.6346 54.4672 35.9792 55.2992 35.9792 56.1667C35.9792 57.0341 35.6346 57.8661 35.0212 58.4795C34.4078 59.0929 33.5758 59.4375 32.7083 59.4375ZM32.7083 46.3542C31.8409 46.3542 31.0089 46.0096 30.3955 45.3962C29.7821 44.7828 29.4375 43.9508 29.4375 43.0833C29.4375 42.2159 29.7821 41.3839 30.3955 40.7705C31.0089 40.1571 31.8409 39.8125 32.7083 39.8125C33.5758 39.8125 34.4078 40.1571 35.0212 40.7705C35.6346 41.3839 35.9792 42.2159 35.9792 43.0833C35.9792 43.9508 35.6346 44.7828 35.0212 45.3962C34.4078 46.0096 33.5758 46.3542 32.7083 46.3542ZM49.0625 59.4375C48.195 59.4375 47.3631 59.0929 46.7497 58.4795C46.1363 57.8661 45.7917 57.0341 45.7917 56.1667C45.7917 55.2992 46.1363 54.4672 46.7497 53.8538C47.3631 53.2404 48.195 52.8958 49.0625 52.8958C49.93 52.8958 50.7619 53.2404 51.3753 53.8538C51.9887 54.4672 52.3333 55.2992 52.3333 56.1667C52.3333 57.0341 51.9887 57.8661 51.3753 58.4795C50.7619 59.0929 49.93 59.4375 49.0625 59.4375ZM49.0625 46.3542C48.195 46.3542 47.3631 46.0096 46.7497 45.3962C46.1363 44.7828 45.7917 43.9508 45.7917 43.0833C45.7917 42.2159 46.1363 41.3839 46.7497 40.7705C47.3631 40.1571 48.195 39.8125 49.0625 39.8125C49.93 39.8125 50.7619 40.1571 51.3753 40.7705C51.9887 41.3839 52.3333 42.2159 52.3333 43.0833C52.3333 43.9508 51.9887 44.7828 51.3753 45.3962C50.7619 46.0096 49.93 46.3542 49.0625 46.3542Z" fill="#FFF7D7"/>
<mask id="mask1_12159_676858" style="mask-type:alpha" maskUnits="userSpaceOnUse" x="28" y="12" width="62" height="61">
<rect x="28.5" y="12" width="61" height="61" fill="#D9D9D9"/>
</mask>
<g mask="url(#mask1_12159_676858)">
<path d="M73.6413 51.967C75.4319 46.8149 71.5772 41.4484 66.125 41.5342L64.0127 41.5664C63.9966 41.5664 63.9859 41.5664 63.9698 41.5664L58.7052 41.6522L53.4406 41.5664C53.4245 41.5664 53.4138 41.5664 53.3977 41.5664L51.2854 41.5342C45.8331 41.4484 41.9785 46.8149 43.7691 51.967C44.3535 53.6503 44.9807 55.2158 45.6348 56.6687C45.9886 57.5211 46.4443 58.4593 46.9536 59.4296C49.1731 63.7829 51.5159 67.0639 53.3119 69.7498C53.3816 69.8516 53.4567 69.9535 53.5317 70.05C54.7219 71.7709 56.7055 72.5912 58.7105 72.5644C60.7102 72.5965 62.6992 71.7709 63.8894 70.05C63.9644 69.9535 64.0395 69.8516 64.1092 69.7498C65.9052 67.0639 68.248 63.7829 70.4675 59.4296C70.9768 58.4593 71.4325 57.5264 71.7863 56.6687C72.4296 55.2104 73.0569 53.6503 73.6413 51.967Z" fill="#F89E1C"/>
<path d="M64.4469 62.4167C65.9319 59.5431 62.9887 57.5702 59.7184 59.4627C55.8209 61.7144 53.5156 60.7011 50.9154 56.3908C48.8032 52.8846 45.7151 53.7906 44.6322 54.2517C44.97 55.1041 45.3131 55.9297 45.6669 56.7178C46.0207 57.5702 46.4764 58.5084 46.9857 59.4788C49.2052 63.832 51.548 67.113 53.344 69.7989C53.4137 69.9008 53.4888 70.0027 53.5638 70.0992C54.754 71.8201 56.7376 72.6403 58.7427 72.6135C60.7424 72.6457 62.7313 71.8201 63.9215 70.0992C63.9966 70.0027 64.0716 69.9008 64.1413 69.7989C64.7257 68.9197 65.3744 67.9815 66.0499 66.9575C64.4951 66.7056 63.0101 65.1937 64.4469 62.4167Z" fill="#032663"/>
<path d="M58.6086 72.7048C56.491 72.7048 54.5717 71.7559 53.4619 70.1476C53.3869 70.0511 53.3118 69.9492 53.2421 69.842C52.9848 69.456 52.7114 69.0539 52.4326 68.6411C50.8028 66.2339 48.7817 63.2424 46.8785 59.5111C46.337 58.4818 45.892 57.5489 45.5543 56.7448C45.1951 55.946 44.8466 55.115 44.5196 54.2786L44.4874 54.1929L44.5732 54.1553C45.7902 53.6353 48.8514 52.8097 50.9744 56.3373C53.6335 60.7495 55.9012 61.543 59.6487 59.3771C61.643 58.2244 63.3961 58.53 64.2485 59.3449C65.0312 60.0955 65.1331 61.2588 64.5112 62.4597C63.8839 63.6767 63.7714 64.7543 64.1895 65.5799C64.5273 66.2447 65.2189 66.7218 66.0391 66.8558L66.1892 66.8773L66.1034 67.0006C65.7228 67.5742 65.3529 68.1211 64.9937 68.6464C64.7149 69.0592 64.4469 69.456 64.1895 69.8366C64.1198 69.9438 64.0448 70.0457 63.9697 70.1422C62.8439 71.772 60.8871 72.7316 58.7158 72.6941C58.6783 72.7048 58.6408 72.7048 58.6086 72.7048ZM58.7158 72.5118C60.8227 72.544 62.7206 71.6219 63.8143 70.0403C63.8893 69.9385 63.9644 69.842 64.0287 69.7401C64.286 69.3541 64.5541 68.9574 64.8329 68.5446C65.1653 68.0567 65.503 67.5474 65.8568 67.022C65.0366 66.8505 64.3557 66.3519 64.0126 65.671C63.7017 65.0545 63.5033 63.9823 64.3396 62.3739L64.4254 62.4168L64.3396 62.3739C64.9186 61.2535 64.8382 60.1759 64.1145 59.4897C63.3103 58.723 61.6484 58.4442 59.7452 59.5486C55.9281 61.7574 53.5048 60.9157 50.8082 56.4445C48.8085 53.1314 45.9564 53.8069 44.734 54.3055C45.0503 55.1096 45.3881 55.9084 45.7312 56.6804C46.0636 57.4846 46.5086 58.4067 47.05 59.436C48.9479 63.1567 50.969 66.1428 52.5934 68.5446C52.8722 68.9574 53.1456 69.3595 53.403 69.7455C53.4727 69.8473 53.5424 69.9438 53.6174 70.0457C54.7111 71.6219 56.6196 72.5493 58.7158 72.5118Z" fill="#10319B"/>
<path d="M39.5821 45.824C38.8154 47.9577 37.384 53.1312 38.6332 59.5002C38.7565 60.1221 39.5606 60.299 39.9359 59.7897L40.2308 59.3929C43.2062 55.3614 43.3617 49.9038 40.6221 45.706C40.3594 45.2986 39.7483 45.3683 39.5821 45.824Z" fill="#F5851F"/>
<path d="M58.8071 72.7042C58.7695 72.7042 58.7374 72.7042 58.6999 72.7042C56.5447 72.7364 54.5718 71.7821 53.446 70.147C53.3709 70.0505 53.2958 69.9486 53.2262 69.8414C52.9688 69.4554 52.6954 69.0533 52.4166 68.6405C50.7868 66.2334 48.7657 63.2419 46.8625 59.5105C46.321 58.4812 45.8761 57.5484 45.5383 56.7442C44.8521 55.2055 44.2248 53.624 43.6726 52.0371C42.8041 49.5442 43.1955 46.8851 44.7395 44.7514C46.2781 42.6284 48.6585 41.4382 51.2854 41.4757L53.3923 41.5079H53.4352L58.6999 41.5937L63.9645 41.5079H63.9913L66.1196 41.4757C68.7466 41.4328 71.1269 42.6284 72.6656 44.7514C74.2096 46.8851 74.6009 49.5442 73.7324 52.0371C73.1802 53.624 72.553 55.2109 71.8668 56.7495C71.5344 57.5537 71.0894 58.4865 70.5426 59.5159C68.6394 63.2419 66.6129 66.2387 64.9884 68.6459C64.7097 69.0587 64.4362 69.4608 64.1789 69.8468C64.1092 69.954 64.0342 70.0558 63.9591 70.1523C62.8494 71.7553 60.9301 72.7042 58.8071 72.7042ZM58.6999 72.5112C60.8068 72.5434 62.7046 71.6213 63.7983 70.0398C63.8733 69.9379 63.9484 69.8414 64.0127 69.7395C64.2701 69.3535 64.5435 68.9515 64.8222 68.5386C66.4467 66.1369 68.4678 63.1454 70.3656 59.4301C70.9071 58.4061 71.3467 57.4787 71.6845 56.6799C72.3707 55.1466 72.9979 53.565 73.5448 51.9835C74.3918 49.5496 74.0112 46.9548 72.5047 44.8747C71.0036 42.8053 68.6715 41.6419 66.1196 41.6794L64.0127 41.7116H63.9859L58.7052 41.7974L53.4352 41.7116H53.3923L51.2801 41.6794C48.7282 41.6419 46.3961 42.8053 44.895 44.8747C43.3885 46.9601 43.0079 49.5496 43.8549 51.9835C44.4018 53.565 45.029 55.1466 45.7152 56.6799C46.0476 57.484 46.4926 58.4061 47.0341 59.4355C48.9319 63.1561 50.953 66.1422 52.5775 68.544C52.8562 68.9568 53.1297 69.3589 53.387 69.7449C53.4567 69.8468 53.5264 69.9433 53.6014 70.0451C54.7005 71.6213 56.609 72.5488 58.6999 72.5112Z" fill="#10319B"/>
<path d="M71.1108 44.3867C69.7544 43.2126 68.0282 42.5049 66.0982 42.5424L63.9805 42.58C63.9644 42.58 63.9537 42.58 63.9376 42.58L58.6462 42.6711L53.3548 42.58C53.3387 42.58 53.328 42.58 53.3119 42.58L51.1942 42.5424C48.2564 42.4942 46.6587 44.6065 45.2756 47.0243C44.9646 47.5712 45.2702 48.2788 45.8653 48.3968C50.8779 49.3886 62.281 50.4983 71.1108 44.3867Z" fill="#E26907"/>
<path d="M57.3274 58.5298C56.8235 58.5298 56.3142 58.4065 55.8478 58.1545C54.856 57.6184 54.2448 56.6266 54.2073 55.5008L54.0143 49.046C53.9821 47.9202 54.5343 46.8908 55.4939 46.3011C56.4536 45.706 57.6169 45.6739 58.6087 46.21L64.3398 49.2926C65.2994 49.8073 65.9052 50.7616 65.9642 51.8499C66.0232 52.9382 65.5192 53.9514 64.6239 54.5626C64.5971 54.584 64.5649 54.6001 64.5381 54.6216L64.5006 54.643L58.9679 58.0634C58.4586 58.369 57.8904 58.5298 57.3274 58.5298ZM57.1291 46.2153C56.6359 46.2153 56.1373 46.3547 55.6923 46.6281C54.8506 47.1482 54.3681 48.0488 54.4003 49.0353L54.5933 55.4901C54.6254 56.4765 55.1616 57.345 56.0301 57.8114C56.8986 58.2778 57.9225 58.251 58.7589 57.731L64.3291 54.2892C64.3559 54.2731 64.3827 54.257 64.4041 54.2409C65.1868 53.7048 65.6265 52.8202 65.5728 51.8659C65.5246 50.917 64.9938 50.0807 64.1521 49.6304L58.4211 46.5477C58.0137 46.3225 57.5687 46.2153 57.1291 46.2153Z" fill="#F89E1C"/>
<path d="M57.3006 58.5773C56.8021 58.5773 56.2981 58.454 55.8317 58.2021C54.8452 57.6713 54.2394 56.6902 54.2073 55.5698L54.0089 48.9541C53.9767 47.839 54.5236 46.8204 55.4725 46.2307C56.4214 45.641 57.5794 45.6088 58.5659 46.1396L64.4363 49.3026C65.3852 49.8119 65.9856 50.7608 66.0446 51.8384C66.1036 52.916 65.605 53.9239 64.7204 54.5297C64.6936 54.5511 64.6614 54.5672 64.6346 54.5887L64.5971 54.6101L58.9251 58.1163C58.4211 58.4219 57.8636 58.5773 57.3006 58.5773ZM57.0969 45.9626C56.5715 45.9626 56.0461 46.1074 55.5744 46.4022C54.6844 46.9544 54.1697 47.9087 54.2019 48.9541L54.4003 55.5698C54.4324 56.6152 55.0007 57.5373 55.9228 58.0359C56.8449 58.5345 57.9279 58.5023 58.8232 57.9501L64.5274 54.4225C64.5542 54.4064 64.581 54.3849 64.6078 54.3689C65.4388 53.8006 65.9052 52.8624 65.8516 51.8491C65.798 50.8413 65.2351 49.9513 64.3451 49.4742L58.4747 46.3111C58.0405 46.0806 57.5687 45.9626 57.0969 45.9626Z" fill="#10319B"/>
<path d="M40.6222 45.705C40.3595 45.3029 39.7484 45.3726 39.5822 45.8229C38.9067 47.6993 37.7165 51.9292 38.2955 57.2528C38.3867 52.5082 40.3488 47.9674 41.0726 46.4502C40.9278 46.1982 40.7831 45.9462 40.6222 45.705Z" fill="#F89E1C"/>
<path d="M38.5152 56.3854C38.2794 56.3854 38.1346 56.3425 38.1132 56.3371L38.2257 55.9672L38.1668 56.1495L38.2204 55.9618C38.2418 55.9672 40.5632 56.4711 42.4771 51.4531L42.579 52.209C41.0189 56.1602 39.314 56.3854 38.5152 56.3854Z" fill="#F89E1C"/>
<path d="M38.3759 57.978C38.3759 57.978 40.4024 58.9752 41.9571 55.8711C41.9571 55.8711 40.6704 59.7257 39.298 60.0367C39.298 60.0367 38.408 60.235 38.3759 57.978Z" fill="#032663"/>
<path d="M39.3569 60.1812C39.2926 60.1812 39.2336 60.1759 39.1693 60.1598C38.8476 60.0847 38.6064 59.8435 38.542 59.5165C37.2714 53.0456 38.7833 47.7595 39.4909 45.792C39.5767 45.5507 39.7912 45.3792 40.0485 45.347C40.3058 45.3149 40.5578 45.4328 40.6972 45.6526C43.4475 49.8611 43.2866 55.4045 40.3005 59.4468L40.0056 59.8435C39.8555 60.0579 39.6143 60.1812 39.3569 60.1812ZM40.1343 45.5347C40.1128 45.5347 40.0968 45.5347 40.0753 45.54C39.8877 45.5615 39.7376 45.6794 39.6732 45.8563C38.9709 47.8131 37.4698 53.0563 38.7297 59.4789C38.7779 59.7255 38.9602 59.9132 39.2122 59.9722C39.4588 60.0258 39.7108 59.9346 39.8609 59.7309L40.1557 59.3342C43.0936 55.3562 43.2491 49.8986 40.5417 45.7598C40.4506 45.6151 40.3005 45.5347 40.1343 45.5347Z" fill="#10319B"/>
<path d="M39.105 58.1866C38.6493 58.1866 38.3491 58.0686 38.3438 58.0633L38.4188 57.8863C38.4992 57.9185 40.456 58.6905 41.9303 55.8438L42.1019 55.9349C41.1154 57.8327 39.8824 58.1866 39.105 58.1866Z" fill="#10319B"/>
<path d="M38.5957 56.4929C38.3652 56.4929 38.2258 56.45 38.2043 56.4447L38.2633 56.2624C38.2848 56.2678 40.5257 56.9057 42.4986 52.1719L42.6755 52.2469C41.0993 56.0265 39.357 56.4929 38.5957 56.4929Z" fill="#10319B"/>
<path d="M78.0642 45.824C78.8308 47.9577 80.2622 53.1312 79.0131 59.5002C78.8898 60.1221 78.0856 60.299 77.7103 59.7897L77.4155 59.3929C74.44 55.3614 74.2846 49.9038 77.0241 45.706C77.2868 45.2986 77.898 45.3683 78.0642 45.824Z" fill="#F89E1C"/>
<path d="M77.5495 46.4563C77.5441 46.467 77.5388 46.4724 77.5334 46.4831C76.5952 48.0807 76.7829 50.1126 77.973 51.5279C78.3644 51.9943 78.8415 52.4179 79.4044 52.6967C79.3991 49.7963 78.6539 47.5553 78.2196 46.5046C78.1017 46.2204 77.705 46.1936 77.5495 46.4563Z" fill="#F4B821"/>
<path d="M75.5659 48.998C74.5956 52.5042 75.2228 56.3535 77.4155 59.3933L77.6996 59.79C77.7318 59.8382 77.7747 59.8758 77.8176 59.9133L78.7933 59.8597C78.8845 59.7632 78.9488 59.6452 78.9756 59.5005C79.0989 58.8571 79.1954 58.2299 79.2705 57.6134C76.2039 56.2999 75.6517 51.4052 75.5659 48.998Z" fill="#F5851F"/>
<path d="M79.0882 56.3955C78.2787 56.3955 76.5417 55.8915 75.0245 52.0422L75.1531 51.3936C77.0885 56.7118 79.3938 55.9773 79.4152 55.9719L79.5439 56.3365C79.5171 56.3419 79.3563 56.3955 79.0882 56.3955Z" fill="#F89E1C"/>
<path d="M79.2705 57.978C79.2705 57.978 77.244 58.9752 75.6893 55.8711C75.6893 55.8711 76.9759 59.7257 78.3484 60.0367C78.3484 60.0367 79.2383 60.235 79.2705 57.978Z" fill="#032663"/>
<path d="M78.2894 60.1809C78.032 60.1809 77.7908 60.0629 77.63 59.8431L77.3351 59.4464C74.3489 55.4041 74.1935 49.8607 76.9384 45.6523C77.0831 45.4324 77.3297 45.3199 77.5871 45.3467C77.8444 45.3788 78.0588 45.545 78.1446 45.7916C78.8523 47.7645 80.3695 53.0506 79.0935 59.5161C79.0292 59.8378 78.788 60.0844 78.4663 60.1594C78.4127 60.1755 78.3537 60.1809 78.2894 60.1809ZM77.512 45.5343C77.3458 45.5343 77.2011 45.6147 77.1046 45.7541C74.3972 49.8929 74.5527 55.3505 77.4906 59.3285L77.7854 59.7252C77.9355 59.9289 78.1875 60.02 78.4341 59.9664C78.6807 59.9128 78.863 59.7252 78.9166 59.4732C80.1818 53.0506 78.6754 47.8074 77.9731 45.8506C77.9087 45.6737 77.7586 45.5558 77.571 45.5343C77.5495 45.5343 77.5335 45.5343 77.512 45.5343Z" fill="#10319B"/>
<path d="M78.5414 58.1861C77.764 58.1861 76.5309 57.8322 75.5445 55.929L75.716 55.8379C77.1904 58.69 79.1472 57.918 79.2276 57.8805L79.3026 58.0574C79.2973 58.0681 78.9971 58.1861 78.5414 58.1861Z" fill="#10319B"/>
<path d="M79.0506 56.4929C78.2894 56.4929 76.547 56.0265 74.9708 52.2469L75.1477 52.1719C77.1314 56.9218 79.3616 56.2678 79.383 56.2624L79.442 56.4447C79.4205 56.45 79.2812 56.4929 79.0506 56.4929Z" fill="#10319B"/>
<path d="M57.6866 57.0449C57.3006 57.0449 56.9146 56.9484 56.5554 56.7554C55.7941 56.3479 55.3277 55.592 55.3009 54.7289L55.1561 49.8931C55.1293 49.03 55.5528 48.2473 56.2873 47.7969C57.0218 47.3412 57.9117 47.3198 58.6676 47.7272L62.9565 50.0379C63.691 50.4346 64.1521 51.1637 64.195 51.9947C64.2378 52.8257 63.8572 53.603 63.171 54.0694C63.1495 54.0855 63.1281 54.0962 63.1066 54.1123L63.0798 54.1284L58.9357 56.691C58.5497 56.9215 58.1208 57.0449 57.6866 57.0449ZM57.5364 47.8237C57.1719 47.8237 56.8127 47.9256 56.4857 48.124C55.8745 48.5046 55.5207 49.1586 55.5421 49.8824L55.6869 54.7181C55.7083 55.4419 56.0997 56.0745 56.7376 56.4176C57.3702 56.7607 58.1208 56.7393 58.732 56.3586L62.8976 53.7799C62.919 53.7692 62.9351 53.7531 62.9512 53.7424C63.5248 53.351 63.8411 52.7023 63.8036 52.0108C63.7661 51.3192 63.3801 50.708 62.7689 50.3756L58.48 48.065C58.1851 47.9042 57.8635 47.8237 57.5364 47.8237Z" fill="#F89E1C"/>
<path d="M62.9619 53.9026C62.9834 53.8919 63.0048 53.8758 63.0209 53.8651C64.3236 52.9751 64.2325 51.0076 62.8279 50.2517L58.6355 47.9893C57.1826 47.2066 55.4349 48.2895 55.4832 49.9407L55.6225 54.6639C55.6708 56.3098 57.4882 57.2855 58.8875 56.4223L62.9405 53.9187C62.9458 53.9133 62.9566 53.908 62.9619 53.9026Z" fill="#032663"/>
<path d="M61.2088 53.174C61.2195 53.1686 61.2302 53.1579 61.241 53.1526C61.9754 52.654 61.9218 51.5442 61.1284 51.1153L58.7641 49.8447C57.9439 49.4051 56.9574 50.0163 56.9896 50.9438L57.07 53.6083C57.0968 54.5357 58.1208 55.0879 58.9089 54.6001L61.1927 53.1901C61.1981 53.1847 61.2034 53.1794 61.2088 53.174Z" fill="#33FCFE"/>
<path d="M71.9203 46.2051C71.2663 46.9503 67.4545 48.8427 67.4545 48.8427C67.4545 48.8427 68.7626 49.8238 68.7841 51.8986C68.8001 53.4479 67.3366 54.8365 67.3366 54.8365C68.6554 56.1821 68.1568 58.5571 67.1811 60.3584C66.2054 62.1598 67.0685 62.6852 67.0685 62.6852C67.0685 62.6852 72.7727 54.161 73.2713 49.3735C73.475 47.4274 71.9203 46.2051 71.9203 46.2051Z" fill="#F4B821"/>
<path d="M46.1494 55.2221C46.1494 55.2221 47.6291 54.9755 48.4225 55.978C49.216 56.9806 53.9338 65.8747 56.1318 69.0538C56.5285 69.6275 57.5471 71.595 58.6783 71.2036C58.6783 71.2036 57.1022 72.0989 54.7808 69.7615C52.4648 67.4187 47.5111 58.0421 46.1494 55.2221Z" fill="#0E51A0"/>
<path d="M43.6691 18.0614C44.744 17.3036 46.0285 16.6587 47.4474 16.1212L47.356 16.1427C47.356 16.1427 51.9137 13.6221 58.7124 13.6221C65.4897 13.6221 70.1011 16.0675 70.128 16.0836C71.5899 16.6264 72.9012 17.2821 74.003 18.0561C79.3077 21.7914 78.8724 29.8156 76.5452 37.3775C74.8629 42.8811 66.8495 45.3856 58.8414 45.262C50.8334 45.3856 42.8199 42.8811 41.1269 37.3775C38.7998 29.8209 38.3644 21.7967 43.6691 18.0614Z" fill="#F89E1C"/>
<path d="M43.669 18.0881C44.2333 17.6904 44.8568 17.3249 45.5232 16.9863C40.326 20.7646 40.7668 28.7458 43.0778 36.2702C44.7708 41.7845 52.7789 44.289 60.7923 44.1708C65.3445 44.2406 69.8968 43.4559 73.2935 41.7576C69.8377 44.2729 64.3395 45.4338 58.836 45.3478C50.8279 45.4714 42.8145 42.9615 41.1215 37.4472C38.7997 29.8745 38.3643 21.8342 43.669 18.0881Z" fill="#F5851F"/>
<path d="M46.1466 24.8164C42.895 24.1392 42.6801 18.9582 42.6693 18.7324L43.0563 18.7217C43.0563 18.7701 43.2713 23.8221 46.2219 24.4348L46.1466 24.8164Z" fill="#F89E1C"/>
<path d="M70.8319 25.016L70.7244 24.6451C73.9599 23.7046 74.148 18.4483 74.148 18.3945L74.535 18.4053C74.5296 18.631 74.3361 24.0002 70.8319 25.016Z" fill="#F4B821"/>
<path d="M58.9542 18.2277C57.1322 18.2277 55.4392 17.6311 54.4503 16.6261C54.418 16.5939 54.3858 16.5616 54.3536 16.524L52.58 14.5247L53.0153 14.1377L54.7889 16.1316C54.8104 16.1585 54.8373 16.1854 54.8641 16.2123C55.8262 17.1904 57.5568 17.7279 59.3895 17.6311C61.1685 17.5344 62.7163 16.8572 63.5279 15.8307L64.7963 14.2183L65.2531 14.5784L63.9847 16.1908C63.0764 17.3517 61.3673 18.1041 59.4217 18.2116C59.2605 18.2223 59.11 18.2277 58.9542 18.2277Z" fill="#F4B821"/>
<path d="M58.9435 20.3288C56.5304 20.3288 54.3429 19.5172 52.9509 18.0983C52.9025 18.05 52.8488 17.9962 52.8004 17.9425L52.7467 17.8834L50.312 15.1477L50.7473 14.7607L53.2304 17.5555C53.2734 17.6039 53.3164 17.6522 53.3648 17.6952C54.6493 18.9959 56.6862 19.7483 58.9435 19.7483C59.1263 19.7483 59.3144 19.7429 59.5025 19.7322C61.9103 19.5978 63.9795 18.6519 65.1726 17.1309L66.9838 14.8252L67.4407 15.1853L65.6295 17.491C64.3342 19.141 62.1091 20.1675 59.5347 20.3126C59.3412 20.3234 59.1424 20.3288 58.9435 20.3288Z" fill="#F4B821"/>
<path d="M73.7021 19.4749C72.6003 18.6956 71.2889 18.0292 69.8271 17.4864C69.7948 17.4702 65.1727 14.654 58.3954 14.654C53.9345 14.6486 50.038 15.3957 47.8774 15.9063C49.2479 15.2613 53.2574 13.6221 58.7179 13.6221C65.4952 13.6221 70.1065 16.089 70.1334 16.1051C71.5953 16.6533 72.9067 17.3144 74.0085 18.0937C78.7381 21.4528 78.9047 28.2516 77.2332 35.088C78.5553 28.7353 78.1146 22.6083 73.7021 19.4749Z" fill="#F4B821"/>
<path d="M71.1491 24.7521L71.1115 24.564C74.1428 23.9351 74.4706 18.5391 74.476 18.4854L74.6695 18.4961C74.6533 18.7218 74.3255 24.091 71.1491 24.7521Z" fill="#10319B"/>
<path d="M65.3985 17.2929L67.2097 14.9872C66.5755 14.783 65.8392 14.5734 65.0169 14.3799L63.7485 15.9923C62.8885 17.0887 61.2601 17.7981 59.4005 17.9056C57.4871 18.0131 55.6705 17.438 54.6547 16.4008C54.6225 16.3685 54.5956 16.3416 54.5688 16.3094L52.7952 14.3154C51.9513 14.5035 51.1935 14.7185 50.5325 14.9281L52.9671 17.6638L53.0209 17.7229C53.0693 17.7713 53.1123 17.825 53.1606 17.8734C54.4989 19.2331 56.6272 20.0124 58.9436 20.0124C59.1317 20.0124 59.3252 20.0071 59.5187 19.9963C62.0071 19.8673 64.1516 18.8784 65.3985 17.2929Z" fill="#032663"/>
<path d="M46.4638 24.753C43.2875 24.0919 42.9381 18.7765 42.922 18.5508L43.1155 18.54C43.1209 18.5938 43.4702 23.9361 46.5014 24.5649L46.4638 24.753Z" fill="#10319B"/>
<path d="M58.7985 45.1916C54.8374 45.2507 50.8818 44.7025 47.6033 43.4986C46.8401 42.6817 46.2328 41.6282 45.8781 40.4028C44.9698 37.2587 43.9486 32.8624 43.5563 27.9232C43.3628 25.4939 44.7333 23.2903 46.7004 22.8174C49.3823 22.1724 53.5207 21.4253 58.433 21.3501V21.3447C58.5727 21.3447 58.7071 21.3501 58.8468 21.3501C58.9866 21.3501 59.1209 21.3447 59.2607 21.3447V21.3501C64.173 21.4253 68.2147 22.0488 70.8966 22.6937C72.8636 23.1667 74.3309 25.4939 74.1374 27.9232C73.7451 32.8624 72.7239 37.2587 71.8156 40.4028C71.4663 41.6014 70.8804 42.6333 70.1388 43.4502C66.8227 44.6864 62.8079 45.2507 58.7985 45.1916Z" fill="#032663"/>
<path d="M72.4766 42.2253L71.6973 42.6499C71.8424 42.2199 72.0843 41.4943 72.2455 40.9838C72.6755 39.6401 73.1646 38.1138 73.5999 37.0926C74.304 35.4426 76.2603 34.1957 77.5448 33.5723L77.3245 34.4161C76.1259 35.0019 74.7662 35.8349 74.132 37.3237C73.7074 38.3234 73.2237 39.8336 72.7937 41.1665C72.6379 41.6717 72.6217 41.7953 72.4766 42.2253Z" fill="#F4B821"/>
<path d="M45.4428 42.3486C45.3998 42.3486 45.3622 42.3217 45.3514 42.2841C45.2224 41.9025 45.0881 41.4833 44.9483 41.0587C44.5291 39.7634 44.0508 38.2908 43.6047 37.2427C42.9544 35.7217 41.557 34.8779 40.2725 34.2491C40.2241 34.2276 40.2026 34.1685 40.2295 34.1201C40.251 34.0718 40.3101 34.0503 40.3585 34.0771C41.6752 34.7167 43.1102 35.5874 43.7874 37.1675C44.2389 38.2263 44.7172 39.6989 45.1364 40.9995C45.2762 41.4241 45.4105 41.838 45.5342 42.2249C45.5503 42.2733 45.5234 42.3324 45.475 42.3486C45.4643 42.3486 45.4535 42.3486 45.4428 42.3486Z" fill="#F89E1C"/>
<path d="M77.389 34.3887C77.1579 35.3883 76.8892 36.3934 76.5829 37.3877C75.954 39.4407 74.4653 41.0746 72.4283 42.3215C72.955 40.7468 73.3958 38.9893 73.987 37.5973C74.691 35.958 76.255 34.9369 77.389 34.3887Z" fill="#032663"/>
<path d="M76.0078 37.5124C76.2228 36.9319 76.4216 36.3514 76.6097 35.7656C76.0078 36.1526 75.3897 36.7115 75.0135 37.4909C74.6104 38.3185 74.2557 39.3397 73.8902 40.3125C74.8469 39.5762 75.5832 38.6464 76.0078 37.5124Z" fill="#0E51A0"/>
<path d="M72.5519 42.3113L72.3691 42.2522C72.5519 41.7094 72.7239 41.1343 72.8905 40.5807C73.2076 39.5273 73.5408 38.4416 73.9278 37.5226C74.6264 35.878 76.1904 34.8461 77.3728 34.2656L77.4588 34.4376C76.3033 35.0019 74.7877 36.0016 74.1051 37.5925C73.7181 38.5008 73.3903 39.581 73.0732 40.6291C72.9066 41.1934 72.7346 41.7685 72.5519 42.3113Z" fill="#10319B"/>
<path d="M40.2725 34.3887C40.5036 35.3883 40.7723 36.3934 41.0786 37.3877C41.7075 39.4407 43.1962 41.0746 45.2332 42.3215C44.7065 40.7468 44.2657 38.9893 43.6745 37.5973C42.9759 35.958 41.4065 34.9369 40.2725 34.3887Z" fill="#032663"/>
<path d="M59.368 45.348C59.1907 45.348 59.0133 45.348 58.8413 45.3427C51.7846 45.4502 42.8951 43.4347 41.0355 37.3991C39.3694 31.9923 37.4937 22.2859 43.6153 17.9755L43.669 18.0561L43.6153 17.9755C44.6848 17.2231 47.2807 16.0783 47.3936 16.0299C47.4312 16.0084 51.9727 13.5254 58.7177 13.5254C65.4843 13.5254 70.1333 15.9708 70.1816 15.9977C71.6811 16.5513 72.9925 17.2177 74.0674 17.9755C80.189 22.2859 78.3133 31.9923 76.6472 37.3937C74.8306 43.2842 66.3281 45.348 59.368 45.348ZM58.836 45.1492C59.008 45.1492 59.1853 45.1546 59.3627 45.1546C66.2582 45.1546 74.6747 43.1284 76.4591 37.34C78.1091 31.9869 79.974 22.3773 73.9546 18.1367C72.8904 17.3897 71.5951 16.7286 70.101 16.175C70.0419 16.1428 65.4305 13.7242 58.7177 13.7242C52.0264 13.7242 47.5226 16.1804 47.4796 16.2073C47.4473 16.2234 44.7869 17.3951 43.7281 18.1367C37.7033 22.3719 39.5736 31.9869 41.2182 37.34C43.0456 43.2735 51.8544 45.2567 58.836 45.1492Z" fill="#10319B"/>
<path d="M58.8413 44.3429C55.4446 44.3912 52.0532 43.9667 49.1617 43.0369C48.7156 42.8917 48.3126 42.623 48.0331 42.2468C47.5547 41.6126 47.1785 40.8655 46.9259 40.0325C46.0875 37.2055 45.147 33.2444 44.7869 28.7997C44.6095 26.6123 45.8725 24.6291 47.6837 24.2045C50.156 23.624 53.9719 22.9522 58.5027 22.8823V22.877C58.6317 22.877 58.7553 22.877 58.8843 22.8823C59.0133 22.8823 59.1369 22.877 59.2659 22.877V22.8823C63.7966 22.9522 67.6072 23.624 70.0848 24.2045C71.9014 24.6291 73.1591 26.6123 72.9817 28.7997C72.6162 33.2444 71.6811 37.2055 70.8426 40.0325C70.5954 40.8602 70.2246 41.5965 69.7516 42.2253C69.4829 42.5854 69.1067 42.8434 68.6821 42.9831C65.7476 43.9559 62.2971 44.3966 58.8413 44.3429Z" fill="#FCE8CA"/>
<path fill-rule="evenodd" clip-rule="evenodd" d="M50.6955 33.8205C50.8267 33.6558 51.0665 33.6286 51.2312 33.7598C51.8541 34.2559 53.5681 35.3317 55.3588 35.6288C55.5444 35.6596 55.6798 35.8212 55.6776 36.0093C55.6754 36.1975 55.5363 36.3559 55.3501 36.3824C54.9098 36.445 54.1637 36.5876 53.3757 36.8099C52.5825 37.0337 51.7756 37.3304 51.1951 37.6915C51.0164 37.8027 50.7813 37.7479 50.67 37.5692C50.5588 37.3904 50.6135 37.1553 50.7923 37.0441C51.4636 36.6264 52.3516 36.3066 53.1687 36.0761C53.3313 36.0302 53.4922 35.9875 53.6494 35.9481C52.3404 35.46 51.248 34.7479 50.7562 34.3563C50.5915 34.2251 50.5643 33.9852 50.6955 33.8205Z" fill="#0E51A0"/>
<path d="M53.6664 31.8574C53.6937 31.8621 53.724 31.8766 53.7482 31.8995C54.1031 32.208 54.5694 32.3296 55.0311 32.2302C55.1329 32.2101 55.2298 32.2734 55.2507 32.3706C55.2708 32.4724 55.2075 32.5693 55.1103 32.5902C54.5369 32.7127 53.9539 32.5619 53.509 32.1771C53.4318 32.1078 53.4231 31.9939 53.4924 31.9168C53.5298 31.8623 53.599 31.8413 53.6664 31.8574Z" fill="#032663"/>
<path fill-rule="evenodd" clip-rule="evenodd" d="M66.855 33.8205C66.7238 33.6558 66.484 33.6286 66.3192 33.7598C65.6963 34.2559 63.9824 35.3317 62.1917 35.6288C62.0061 35.6596 61.8707 35.8212 61.8729 36.0093C61.875 36.1975 62.0141 36.3559 62.2004 36.3824C62.6407 36.445 63.3868 36.5876 64.1748 36.8099C64.968 37.0337 65.7749 37.3304 66.3553 37.6915C66.5341 37.8027 66.7692 37.7479 66.8805 37.5692C66.9917 37.3904 66.9369 37.1553 66.7582 37.0441C66.0869 36.6264 65.1988 36.3066 64.3818 36.0761C64.2192 36.0302 64.0583 35.9875 63.9011 35.9481C65.21 35.46 66.3025 34.7479 66.7943 34.3563C66.959 34.2251 66.9862 33.9852 66.855 33.8205Z" fill="#0E51A0"/>
<path d="M63.884 31.8574C63.8567 31.8621 63.8264 31.8766 63.8022 31.8995C63.4474 32.208 62.9811 32.3296 62.5193 32.2302C62.4176 32.2101 62.3207 32.2734 62.2998 32.3706C62.2796 32.4724 62.3429 32.5693 62.4402 32.5902C63.0135 32.7127 63.5966 32.5619 64.0415 32.1771C64.1187 32.1078 64.1274 31.9939 64.058 31.9168C64.0207 31.8623 63.9515 31.8413 63.884 31.8574Z" fill="#032663"/>
<path d="M56.4858 42.5002C56.447 42.4984 56.4082 42.4966 56.3679 42.4865C56.0821 42.4207 55.9003 42.1347 55.962 41.8488C56.274 40.3932 57.4474 39.4522 58.9508 39.4502C60.4154 39.4464 61.7114 40.4563 62.0358 41.8431C62.1028 42.1321 61.9256 42.4168 61.6384 42.4801C61.3513 42.5435 61.0651 42.3617 60.998 42.0727C60.8182 41.2965 60.0605 40.5143 58.9624 40.5138C57.9544 40.5148 57.2 41.1157 56.9931 42.0845C56.9417 42.3342 56.7293 42.5004 56.4858 42.5002Z" fill="#0E51A0"/>
<path d="M58.1966 45.2352C54.2785 45.2352 50.6131 44.6494 47.5657 43.5315L47.5442 43.5261L47.5281 43.51C46.7327 42.6554 46.1307 41.5698 45.7814 40.3712C44.9483 37.4797 43.8627 32.9597 43.4542 27.8486C43.2553 25.3601 44.6366 23.119 46.6735 22.6299C49.4092 21.9742 61.5556 20.0501 71.0095 22.6299C73.0357 23.1835 74.4169 25.4246 74.2234 27.8486C73.815 32.9597 72.7347 37.4797 71.8963 40.3712C71.5577 41.5483 70.9665 42.6178 70.1979 43.4616L70.1818 43.4777L70.1603 43.4885C66.9786 44.6816 62.9423 45.3051 58.7931 45.2406C58.5943 45.2352 58.3954 45.2352 58.1966 45.2352ZM58.7985 45.0363C62.9154 45.1008 66.9141 44.4828 70.0743 43.3057C70.816 42.4834 71.3857 41.4515 71.7135 40.3121C72.5466 37.4314 73.6269 32.9221 74.03 27.8271C74.2181 25.4945 72.8959 23.3393 70.9557 22.8126C61.5395 20.2436 49.4414 22.1623 46.7165 22.8126C44.7763 23.2802 43.4542 25.4354 43.6477 27.8271C44.0561 32.9221 45.131 37.4314 45.9641 40.3121C46.3027 41.4784 46.8831 42.5318 47.6517 43.3595C50.7851 44.4989 54.7407 45.1008 58.7985 45.0363Z" fill="#10319B"/>
<path d="M45.1469 42.2463C44.9696 41.7196 44.803 41.1714 44.6417 40.6393C44.3246 39.5967 43.9914 38.5218 43.5991 37.5973C42.9219 36.0065 41.4009 35.0014 40.2454 34.4425L40.3314 34.2705C41.5138 34.8456 43.0724 35.8775 43.7764 37.5275C44.1742 38.4573 44.5074 39.5429 44.8245 40.5856C44.9857 41.1177 45.1523 41.6659 45.3297 42.1872L45.1469 42.2463Z" fill="#10319B"/>
<path d="M74.5458 34.346L77.0343 32.8949C77.0343 32.8949 77.7437 25.7467 75.4326 22.4951L74.7662 24.5428C74.7662 24.5428 75.8357 26.0961 74.5458 34.346Z" fill="#F4B821"/>
</g>
</g>
</svg>
