<svg width="80" height="80" viewBox="0 0 80 80" fill="none" xmlns="http://www.w3.org/2000/svg">
<mask id="mask0_908_11272" style="mask-type:alpha" maskUnits="userSpaceOnUse" x="0" y="0" width="80" height="80">
<rect width="80" height="80" fill="#D9D9D9"/>
</mask>
<g mask="url(#mask0_908_11272)">
<path d="M59.314 52.844C61.6195 46.2106 56.6565 39.301 49.6365 39.4115L46.9169 39.4529C46.8962 39.4529 46.8824 39.4529 46.8617 39.4529L40.0833 39.5633L33.3049 39.4529C33.2842 39.4529 33.2704 39.4529 33.2497 39.4529L30.53 39.4115C23.51 39.301 18.547 46.2106 20.8525 52.844C21.6049 55.0114 22.4125 57.027 23.2546 58.8976C23.7102 59.9952 24.2969 61.2031 24.9527 62.4525C27.8104 68.0574 30.8268 72.2819 33.1392 75.7401C33.2289 75.8712 33.3256 76.0024 33.4222 76.1266C34.9546 78.3424 37.5086 79.3985 40.0902 79.364C42.6649 79.4054 45.2257 78.3424 46.7581 76.1266C46.8548 76.0024 46.9514 75.8712 47.0411 75.7401C49.3535 72.2819 52.37 68.0574 55.2277 62.4525C55.8834 61.2031 56.4702 60.0021 56.9257 58.8976C57.754 57.0201 58.5617 55.0114 59.314 52.844Z" fill="#F89E1C"/>
<path d="M47.476 66.2971C49.3881 62.5973 45.5985 60.0572 41.3879 62.4938C36.3697 65.3929 33.4016 64.0883 30.0538 58.5386C27.3341 54.0242 23.3582 55.1908 21.9639 55.7844C22.3987 56.8819 22.8405 57.9449 23.2961 58.9596C23.7517 60.0571 24.3384 61.2651 24.9941 62.5145C27.8518 68.1194 30.8683 72.3439 33.1807 75.8021C33.2704 75.9332 33.367 76.0644 33.4637 76.1886C34.9961 78.4044 37.55 79.4605 40.1316 79.426C42.7063 79.4674 45.2672 78.4044 46.7996 76.1886C46.8962 76.0644 46.9929 75.9332 47.0826 75.8021C47.835 74.6701 48.6702 73.4621 49.5399 72.1437C47.5382 71.8193 45.6261 69.8727 47.476 66.2971Z" fill="#032663"/>
<path d="M39.9594 79.5436C37.2329 79.5436 34.7617 78.3218 33.3329 76.251C33.2362 76.1268 33.1396 75.9956 33.0499 75.8575C32.7185 75.3606 32.3665 74.8429 32.0076 74.3114C29.9091 71.2121 27.3069 67.3604 24.8564 62.5562C24.1592 61.2308 23.5863 60.0298 23.1515 58.9944C22.689 57.9659 22.2403 56.896 21.8192 55.8192L21.7778 55.7087L21.8883 55.6604C23.4552 54.9909 27.3966 53.9278 30.13 58.4698C33.5537 64.1507 36.4736 65.1723 41.2985 62.3836C43.8663 60.8995 46.1235 61.293 47.221 62.3422C48.2288 63.3085 48.3599 64.8064 47.5592 66.3526C46.7516 67.9195 46.6066 69.3069 47.1451 70.3699C47.5799 71.2259 48.4704 71.8402 49.5265 72.0128L49.7197 72.0404L49.6093 72.1991C49.1192 72.9377 48.6429 73.6418 48.1804 74.3183C47.8215 74.8498 47.4764 75.3606 47.1451 75.8506C47.0553 75.9887 46.9587 76.1198 46.862 76.2441C45.4125 78.3425 42.893 79.5781 40.0975 79.5298C40.0491 79.5436 40.0008 79.5436 39.9594 79.5436ZM40.0975 79.2951C42.8102 79.3365 45.2537 78.1492 46.6619 76.113C46.7585 75.9818 46.8551 75.8575 46.938 75.7264C47.2693 75.2294 47.6144 74.7186 47.9734 74.1871C48.4013 73.559 48.8362 72.9032 49.2918 72.2268C48.2357 72.0059 47.359 71.3639 46.9173 70.4873C46.5169 69.6935 46.2615 68.313 47.3383 66.2422L47.4488 66.2974L47.3383 66.2422C48.0838 64.7995 47.9803 63.4121 47.0484 62.5285C46.013 61.5415 43.8732 61.1825 41.4228 62.6045C36.5081 65.4484 33.3881 64.3646 29.9161 58.6078C27.3414 54.342 23.6692 55.2117 22.0954 55.8537C22.5026 56.8891 22.9375 57.9176 23.3792 58.9116C23.8072 59.9469 24.3801 61.1342 25.0773 62.4595C27.5208 67.25 30.1231 71.0947 32.2146 74.1871C32.5736 74.7186 32.9256 75.2363 33.2569 75.7333C33.3467 75.8645 33.4364 75.9887 33.533 76.1199C34.9412 78.1492 37.3985 79.3434 40.0975 79.2951Z" fill="#10319B"/>
<path d="M40.2146 79.5436C40.1663 79.5436 40.1249 79.5436 40.0766 79.5436C37.3017 79.585 34.7615 78.3563 33.312 76.251C33.2153 76.1268 33.1187 75.9956 33.029 75.8576C32.6976 75.3606 32.3456 74.8429 31.9867 74.3114C29.8883 71.2121 27.286 67.3604 24.8355 62.5562C24.1384 61.2309 23.5654 60.0298 23.1306 58.9944C22.247 57.0133 21.4394 54.9771 20.7285 52.9339C19.6102 49.7241 20.1141 46.3004 22.1021 43.5532C24.0831 40.8197 27.1479 39.2873 30.5302 39.3357L33.243 39.3771H33.2982L40.0766 39.4875L46.855 39.3771H46.8895L49.6298 39.3357C53.0121 39.2804 56.0769 40.8197 58.058 43.5532C60.0459 46.3004 60.5498 49.7241 59.4316 52.9339C58.7206 54.9771 57.913 57.0202 57.0295 59.0013C56.6015 60.0367 56.0286 61.2378 55.3245 62.5631C52.8741 67.3604 50.2649 71.219 48.1734 74.3183C47.8144 74.8498 47.4624 75.3675 47.1311 75.8645C47.0413 76.0025 46.9447 76.1337 46.8481 76.2579C45.4192 78.3218 42.9481 79.5436 40.2146 79.5436ZM40.0766 79.2951C42.7893 79.3365 45.2328 78.1492 46.641 76.113C46.7376 75.9818 46.8343 75.8576 46.9171 75.7264C47.2484 75.2294 47.6005 74.7117 47.9594 74.1802C50.0509 71.0878 52.6532 67.2362 55.0967 62.4526C55.7939 61.1342 56.3599 59.9401 56.7948 58.9116C57.6783 56.9374 58.4859 54.9011 59.19 52.8649C60.2806 49.7311 59.7905 46.3902 57.8509 43.7119C55.9181 41.0475 52.9155 39.5496 49.6298 39.598L46.9171 39.6394H46.8826L40.0835 39.7498L33.2982 39.6394H33.243L30.5233 39.598C27.2377 39.5496 24.235 41.0475 22.3023 43.7119C20.3626 46.3971 19.8725 49.7311 20.9632 52.8649C21.6672 54.9011 22.4748 56.9374 23.3584 58.9116C23.7863 59.947 24.3593 61.1342 25.0564 62.4595C27.5 67.25 30.1023 71.0947 32.1938 74.1871C32.5527 74.7186 32.9047 75.2363 33.2361 75.7333C33.3258 75.8645 33.4155 75.9887 33.5122 76.1199C34.9272 78.1492 37.3845 79.3434 40.0766 79.2951Z" fill="#10319B"/>
<path d="M56.0561 43.0839C54.3098 41.5722 52.0871 40.661 49.6022 40.7094L46.8756 40.7577C46.8549 40.7577 46.8411 40.7577 46.8204 40.7577L40.0075 40.875L33.1946 40.7577C33.1739 40.7577 33.16 40.7577 33.1393 40.7577L30.4128 40.7094C26.6301 40.6472 24.5732 43.3669 22.7923 46.48C22.3919 47.184 22.7854 48.0952 23.5516 48.247C30.0055 49.524 44.6875 50.9529 56.0561 43.0839Z" fill="#E26907"/>
<path d="M38.3095 61.2923C37.6607 61.2923 37.0049 61.1336 36.4044 60.8091C35.1274 60.1189 34.3405 58.8419 34.2922 57.3923L34.0437 49.0815C34.0023 47.632 34.7133 46.3067 35.9488 45.5474C37.1844 44.7812 38.6823 44.7398 39.9593 45.43L47.3382 49.3991C48.5738 50.0617 49.3538 51.2904 49.4297 52.6916C49.5056 54.0929 48.8568 55.3975 47.704 56.1844C47.6695 56.212 47.6281 56.2327 47.5936 56.2603L47.5453 56.2879L40.4218 60.6918C39.766 61.0852 39.0343 61.2923 38.3095 61.2923ZM38.0541 45.4369C37.4191 45.4369 36.7772 45.6164 36.2042 45.9684C35.1205 46.638 34.4993 47.7976 34.5407 49.0677L34.7892 57.3785C34.8306 58.6486 35.5209 59.7668 36.6391 60.3674C37.7573 60.9679 39.0757 60.9334 40.1525 60.2638L47.3244 55.8323C47.3589 55.8116 47.3934 55.7909 47.421 55.7702C48.4288 55.0799 48.9948 53.941 48.9258 52.7123C48.8637 51.4906 48.1803 50.4137 47.0966 49.8339L39.7177 45.8649C39.1931 45.575 38.6202 45.4369 38.0541 45.4369Z" fill="#F89E1C"/>
<path d="M38.2751 61.355C37.6332 61.355 36.9843 61.1963 36.3838 60.8718C35.1137 60.1885 34.3337 58.9253 34.2923 57.4826L34.0369 48.9648C33.9955 47.529 34.6995 46.2175 35.9213 45.4582C37.1431 44.6989 38.634 44.6575 39.9041 45.3409L47.4625 49.4135C48.6843 50.0692 49.4574 51.291 49.5333 52.6784C49.6093 54.0658 48.9673 55.3635 47.8284 56.1435C47.7939 56.1711 47.7524 56.1918 47.7179 56.2195L47.6696 56.2471L40.3666 60.7614C39.7178 61.1549 38.9999 61.355 38.2751 61.355ZM38.0128 45.1131C37.3363 45.1131 36.6599 45.2995 36.0525 45.6791C34.9066 46.3901 34.244 47.6188 34.2854 48.9648L34.5408 57.4826C34.5822 58.8287 35.3139 60.0159 36.5011 60.6579C37.6884 61.2998 39.0827 61.2584 40.2355 60.5474L47.5799 56.0055C47.6144 55.9848 47.6489 55.9572 47.6834 55.9365C48.7533 55.2048 49.3539 53.9968 49.2848 52.6922C49.2158 51.3945 48.491 50.2487 47.3452 49.6343L39.7868 45.5618C39.2277 45.265 38.6202 45.1131 38.0128 45.1131Z" fill="#10319B"/>
<path d="M55.4838 18.213L55.3457 17.7368C59.5011 16.5288 59.7427 9.77801 59.7427 9.70898L60.2397 9.72279C60.2328 10.0127 59.9843 16.9084 55.4838 18.213Z" fill="#F4B821"/>
<path d="M55.8906 17.8751L55.8423 17.6336C59.7354 16.8259 60.1564 9.89569 60.1633 9.82666L60.4118 9.84047C60.3911 10.1304 59.9701 17.0261 55.8906 17.8751Z" fill="#10319B"/>
<path d="M38.7718 59.3806C38.2748 59.3806 37.7778 59.2563 37.3153 59.0078C36.3352 58.4832 35.7346 57.51 35.7001 56.3986L35.5138 50.1725C35.4792 49.0611 36.0245 48.0533 36.9702 47.4735C37.9159 46.8868 39.0617 46.8592 40.035 47.3838L45.5571 50.3588C46.5028 50.8696 47.0964 51.8084 47.1516 52.8783C47.2068 53.9482 46.7167 54.9491 45.8332 55.5496C45.8056 55.5703 45.778 55.5841 45.7504 55.6048L45.7159 55.6255L40.3801 58.925C39.8831 59.2218 39.3309 59.3806 38.7718 59.3806ZM38.5785 47.508C38.1091 47.508 37.6467 47.6392 37.2256 47.8946C36.4387 48.3847 35.9831 49.2268 36.0107 50.1586L36.1971 56.3848C36.2247 57.3167 36.7286 58.1312 37.55 58.573C38.3645 59.0147 39.3309 58.9871 40.1178 58.497L45.4812 55.1769C45.5088 55.1631 45.5295 55.1424 45.5502 55.1286C46.2888 54.6247 46.696 53.7894 46.6477 52.899C46.5994 52.0086 46.1024 51.2217 45.3155 50.7937L39.7934 47.8187C39.4137 47.6116 38.9996 47.508 38.5785 47.508Z" fill="#F89E1C"/>
<path d="M45.5645 55.3358C45.5921 55.322 45.6198 55.3013 45.6405 55.2875C47.3178 54.1417 47.2005 51.6084 45.392 50.6351L39.9941 47.7222C38.1235 46.7144 35.8732 48.1088 35.9353 50.2348L36.1148 56.316C36.1769 58.4351 38.5169 59.6914 40.3185 58.5801L45.5369 55.3565C45.5438 55.3496 45.5576 55.3427 45.5645 55.3358Z" fill="#032663"/>
<path d="M43.3069 54.3968C43.3207 54.3899 43.3345 54.3761 43.3483 54.3692C44.294 53.7272 44.225 52.2984 43.2034 51.7462L40.1593 50.1102C39.1032 49.5442 37.8331 50.3311 37.8745 51.5253L37.9781 54.9559C38.0126 56.15 39.331 56.861 40.3457 56.2329L43.2862 54.4175C43.2931 54.4106 43.3 54.4037 43.3069 54.3968Z" fill="#33FCFE"/>
<path d="M20.1602 7.91697C21.5711 6.92231 23.2571 6.07579 25.1194 5.37035L24.9995 5.39857C24.9995 5.39857 30.9816 2.09009 39.9053 2.09009C48.8008 2.09009 54.8534 5.29981 54.8887 5.32097C56.8075 6.03346 58.5287 6.89409 59.9749 7.90992C66.9375 12.8127 66.3661 23.3448 63.3116 33.2703C61.1036 40.4939 50.5856 43.7812 40.0746 43.619C29.5636 43.7812 19.0456 40.4939 16.8235 33.2703C13.769 23.3519 13.1976 12.8197 20.1602 7.91697Z" fill="#F89E1C"/>
<path d="M20.1601 7.95224C20.9008 7.43022 21.7191 6.95053 22.5938 6.5061C15.7723 11.4653 16.3507 21.941 19.3841 31.8171C21.6062 39.0548 32.1172 42.3421 42.6352 42.1869C48.6102 42.2786 54.5852 41.2487 59.0436 39.0195C54.5076 42.321 47.291 43.8447 40.0674 43.7318C29.5564 43.8941 19.0384 40.5997 16.8163 33.362C13.7688 23.4224 13.1974 12.8691 20.1601 7.95224Z" fill="#F5851F"/>
<path d="M23.4118 16.7843C19.1439 15.8954 18.8618 9.09506 18.8477 8.79878L19.3556 8.78467C19.3556 8.84816 19.6377 15.4792 23.5106 16.2834L23.4118 16.7843Z" fill="#F89E1C"/>
<path d="M40.2219 8.13593C37.8305 8.13593 35.6084 7.3529 34.3104 6.03374C34.2681 5.99141 34.2257 5.94908 34.1834 5.8997L31.8555 3.27549L32.4269 2.76758L34.7548 5.38474C34.783 5.42001 34.8183 5.45528 34.8536 5.49055C36.1163 6.77444 38.3878 7.47987 40.7933 7.3529C43.1283 7.22592 45.1599 6.33707 46.2252 4.98969L47.89 2.87339L48.4896 3.34603L46.8248 5.46233C45.6326 6.98607 43.3893 7.97368 40.8356 8.11477C40.624 8.12887 40.4265 8.13593 40.2219 8.13593Z" fill="#F4B821"/>
<path d="M40.2082 10.8945C37.0408 10.8945 34.1697 9.82927 32.3426 7.96692C32.2791 7.90344 32.2086 7.83289 32.1451 7.76235L32.0745 7.68475L28.8789 4.09409L29.4503 3.58618L32.7094 7.25444C32.7658 7.31792 32.8223 7.38141 32.8858 7.43785C34.5718 9.145 37.2453 10.1326 40.2082 10.1326C40.448 10.1326 40.6949 10.1256 40.9418 10.1114C44.1022 9.93508 46.8181 8.69352 48.3841 6.69714L50.7615 3.67083L51.3611 4.14347L48.9838 7.16978C47.2837 9.33547 44.3632 10.6828 40.9841 10.8733C40.7302 10.8874 40.4692 10.8945 40.2082 10.8945Z" fill="#F4B821"/>
<path d="M59.5792 9.77226C58.1331 8.74938 56.4118 7.87464 54.493 7.16216C54.4507 7.14099 48.384 3.44452 39.4884 3.44452C33.6333 3.43747 28.5189 4.41802 25.6831 5.08818C27.482 4.24166 32.7445 2.09009 39.9117 2.09009C48.8072 2.09009 54.8598 5.32803 54.8951 5.34919C56.8139 6.06873 58.5352 6.93642 59.9813 7.9593C66.1891 12.3683 66.4078 21.292 64.2139 30.2651C65.9493 21.9269 65.3708 13.8849 59.5792 9.77226Z" fill="#F4B821"/>
<path d="M48.6807 6.9081L51.0581 3.88179C50.2257 3.61373 49.2592 3.33861 48.1799 3.08465L46.5151 5.20095C45.3864 6.64004 43.2489 7.57121 40.8081 7.7123C38.2968 7.85338 35.9124 7.09857 34.5791 5.73708C34.5368 5.69476 34.5015 5.65948 34.4663 5.61716L32.1383 3C31.0308 3.2469 30.0361 3.52908 29.1685 3.80419L32.3641 7.39485L32.4346 7.47245C32.4981 7.53594 32.5545 7.60648 32.618 7.66997C34.3746 9.45472 37.1681 10.4776 40.2085 10.4776C40.4554 10.4776 40.7094 10.4705 40.9633 10.4564C44.2295 10.2871 47.0441 8.98913 48.6807 6.9081Z" fill="#032663"/>
<path d="M23.828 16.6995C19.6589 15.8318 19.2004 8.85507 19.1792 8.55879L19.4332 8.54468C19.4402 8.61522 19.8987 15.6272 23.8774 16.4526L23.828 16.6995Z" fill="#10319B"/>
<path d="M40.0178 43.5279C34.8187 43.6055 29.6267 42.8859 25.3236 41.3058C24.3219 40.2335 23.5247 38.8508 23.0591 37.2425C21.867 33.1157 20.5266 27.3452 20.0117 20.8623C19.7577 17.6737 21.5566 14.7815 24.1385 14.1607C27.6586 13.3142 33.0904 12.3336 39.5381 12.2348V12.2278C39.7215 12.2278 39.8978 12.2348 40.0813 12.2348C40.2647 12.2348 40.441 12.2278 40.6244 12.2278V12.2348C47.0721 12.3336 52.377 13.1519 55.8971 13.9984C58.479 14.6192 60.4048 17.6737 60.1508 20.8623C59.6359 27.3452 58.2956 33.1157 57.1034 37.2425C56.6448 38.8156 55.8759 40.17 54.9024 41.2423C50.5499 42.8648 45.2803 43.6055 40.0178 43.5279Z" fill="#032663"/>
<path d="M57.9711 39.6341L56.9482 40.1914C57.1387 39.627 57.4562 38.6747 57.6678 38.0045C58.2321 36.241 58.8741 34.2375 59.4455 32.8972C60.3696 30.7315 62.9374 29.0949 64.6234 28.2766L64.3341 29.3841C62.761 30.1531 60.9763 31.2465 60.1439 33.2005C59.5866 34.5126 58.9517 36.4949 58.3873 38.2444C58.1828 38.9075 58.1616 39.0697 57.9711 39.6341Z" fill="#F4B821"/>
<path d="M22.4875 39.7958C22.431 39.7958 22.3817 39.7605 22.3675 39.7112C22.1982 39.2103 22.0219 38.6601 21.8385 38.1028C21.2882 36.4027 20.6604 34.4698 20.0749 33.0942C19.2213 31.0978 17.3872 29.9903 15.7012 29.1649C15.6377 29.1367 15.6095 29.0591 15.6448 28.9956C15.673 28.9321 15.7506 28.9039 15.8141 28.9392C17.5424 29.7787 19.4259 30.9215 20.3147 32.9954C20.9073 34.3851 21.5351 36.318 22.0854 38.0252C22.2688 38.5825 22.4451 39.1257 22.6074 39.6336C22.6286 39.6971 22.5933 39.7747 22.5298 39.7958C22.5157 39.7958 22.5016 39.7958 22.4875 39.7958Z" fill="#F89E1C"/>
<path d="M64.4189 29.3484C64.1155 30.6605 63.7628 31.9797 63.3607 33.2847C62.5354 35.9795 60.5813 38.124 57.9077 39.7606C58.599 37.6937 59.1775 35.3869 59.9535 33.5598C60.8776 31.4083 62.9304 30.0679 64.4189 29.3484Z" fill="#032663"/>
<path d="M62.6056 33.4472C62.8878 32.6853 63.1488 31.9235 63.3957 31.1545C62.6056 31.6625 61.7943 32.3961 61.3005 33.419C60.7715 34.5054 60.3059 35.8457 59.8262 37.1225C61.0818 36.1561 62.0483 34.9357 62.6056 33.4472Z" fill="#0E51A0"/>
<path d="M58.0699 39.7464L57.8301 39.6688C58.0699 38.9563 58.2957 38.2015 58.5143 37.4749C58.9306 36.0922 59.3679 34.6673 59.8758 33.461C60.7929 31.3023 62.8457 29.9479 64.3977 29.186L64.5105 29.4118C62.9939 30.1525 61.0045 31.4646 60.1086 33.5527C59.6007 34.7449 59.1704 36.1628 58.7542 37.5384C58.5355 38.2791 58.3098 39.0339 58.0699 39.7464Z" fill="#10319B"/>
<path d="M15.7017 29.3484C16.005 30.6605 16.3577 31.9797 16.7598 33.2847C17.5852 35.9795 19.5392 38.124 22.2128 39.7606C21.5215 37.6937 20.943 35.3869 20.1671 33.5598C19.25 31.4083 17.1901 30.0679 15.7017 29.3484Z" fill="#032663"/>
<path d="M40.7656 43.7321C40.5328 43.7321 40.3 43.7321 40.0743 43.7251C30.8119 43.8661 19.144 41.2208 16.7032 33.2987C14.5164 26.2021 12.0544 13.4619 20.0893 7.80437L20.1599 7.91018L20.0893 7.80437C21.4931 6.81676 24.9004 5.31419 25.0485 5.2507C25.0979 5.22248 31.0588 1.96338 39.912 1.96338C48.7934 1.96338 54.8954 5.1731 54.9589 5.20837C56.9271 5.93497 58.6483 6.80971 60.0592 7.80437C68.0941 13.4619 65.6321 26.2021 63.4453 33.2917C61.0609 41.0232 49.901 43.7321 40.7656 43.7321ZM40.0672 43.4711C40.2929 43.4711 40.5257 43.4781 40.7585 43.4781C49.8092 43.4781 60.8563 40.8187 63.1984 33.2211C65.3641 26.195 67.8119 13.5819 59.9111 8.016C58.5143 7.03545 56.8142 6.16776 54.8531 5.44117C54.7755 5.39884 48.7229 2.22439 39.912 2.22439C31.1294 2.22439 25.2178 5.44822 25.1614 5.48349C25.1191 5.50466 21.6272 7.0425 20.2375 8.016C12.3296 13.5748 14.7845 26.195 16.9431 33.2211C19.3416 41.0091 30.9036 43.6122 40.0672 43.4711Z" fill="#10319B"/>
<path d="M40.0743 42.4123C35.616 42.4758 31.1647 41.9185 27.3695 40.6981C26.784 40.5077 26.2549 40.1549 25.8881 39.6611C25.2602 38.8287 24.7664 37.8482 24.4349 36.7547C23.3344 33.0442 22.0999 27.8451 21.6272 22.0112C21.3945 19.1401 23.0522 16.537 25.4295 15.9797C28.6745 15.2179 33.6831 14.3361 39.6299 14.2444V14.2373C39.7992 14.2373 39.9615 14.2373 40.1308 14.2444C40.3001 14.2444 40.4623 14.2373 40.6316 14.2373V14.2444C46.5784 14.3361 51.58 15.2179 54.832 15.9797C57.2164 16.537 58.8671 19.1401 58.6343 22.0112C58.1546 27.8451 56.9271 33.0442 55.8267 36.7547C55.5022 37.8411 55.0154 38.8076 54.3946 39.6329C54.0419 40.1056 53.5481 40.4442 52.9908 40.6276C49.1392 41.9044 44.6103 42.4829 40.0743 42.4123Z" fill="#FCE8CA"/>
<path d="M28.9837 29.805C28.9282 29.8018 28.8727 29.7987 28.815 29.7834C28.4067 29.684 28.1507 29.2685 28.2436 28.8571C28.7138 26.7621 30.4098 25.4232 32.5637 25.444C34.6622 25.4616 36.5029 26.9389 36.9457 28.9446C37.0372 29.3626 36.7776 29.7644 36.3652 29.8513C35.9528 29.9381 35.5516 29.6704 35.4601 29.2524C35.2147 28.1298 34.1416 26.9895 32.5685 26.9716C31.1242 26.957 30.0338 27.812 29.722 29.2063C29.6384 29.5667 29.3257 29.8041 28.9837 29.805Z" fill="#0E51A0"/>
<path d="M43.9744 29.8416C43.9189 29.8384 43.8634 29.8352 43.8058 29.82C43.3974 29.7206 43.1414 29.3051 43.2343 28.8937C43.7045 26.7987 45.4005 25.4598 47.5544 25.4806C49.6529 25.4983 51.4936 26.9755 51.9364 28.9812C52.0278 29.3992 51.7694 29.807 51.3569 29.8939C50.9445 29.9807 50.5374 29.714 50.4459 29.296C50.2005 28.1734 49.1274 27.0331 47.5543 27.0152C46.1101 27.0006 45.0196 27.8556 44.7078 29.2499C44.6302 29.6093 44.3234 29.8457 43.9744 29.8416Z" fill="#0E51A0"/>
<path d="M38.2081 31.9175C37.8939 31.9269 37.6394 32.4756 37.6966 33.0684C37.9058 34.9559 38.7818 36.3175 39.8655 36.3238C40.9492 36.3301 41.9144 34.9363 42.2329 33.0512C42.3322 32.4671 42.116 31.9191 41.7888 31.901L38.2081 31.9175Z" fill="#032663"/>
<path d="M30.2615 22.5537C30.2972 22.5477 30.3367 22.5287 30.3683 22.4987C30.831 22.0935 31.4405 21.9356 32.0453 22.0691C32.1786 22.0962 32.3051 22.0132 32.3319 21.885C32.3577 21.7509 32.2743 21.6226 32.147 21.5945C31.396 21.4299 30.6338 21.6257 30.0537 22.1311C29.9531 22.2221 29.9423 22.3723 30.0335 22.4745C30.0827 22.5466 30.1732 22.5747 30.2615 22.5537Z" fill="#032663"/>
<path d="M49.1782 22.6144C49.1405 22.6084 49.1066 22.5894 49.0706 22.5584C48.6082 22.1487 47.9977 21.9796 47.3954 22.1051C47.2656 22.133 47.135 22.05 47.1052 21.9132C47.0764 21.7824 47.1578 21.6516 47.2935 21.6227C48.0434 21.4664 48.8069 21.6715 49.3853 22.1851C49.4862 22.273 49.4943 22.4258 49.4077 22.5266C49.3537 22.6035 49.2607 22.6314 49.1782 22.6144Z" fill="#032663"/>
<path d="M39.2275 43.5841C34.0849 43.5841 29.2739 42.8151 25.2741 41.3478L25.2458 41.3408L25.2247 41.3196C24.1806 40.198 23.3905 38.773 22.932 37.1999C21.8386 33.4046 20.4136 27.4719 19.8775 20.7633C19.6165 17.4971 21.4294 14.5555 24.103 13.9135C27.6937 13.0529 43.6365 10.5274 56.0451 13.9135C58.7046 14.6401 60.5175 17.5818 60.2636 20.7633C59.7274 27.4719 58.3095 33.4046 57.209 37.1999C56.7646 38.7448 55.9886 40.1486 54.9799 41.2561L54.9587 41.2773L54.9305 41.2914C50.7543 42.8575 45.4565 43.6758 40.0106 43.5911C39.7496 43.5841 39.4885 43.5841 39.2275 43.5841ZM40.0176 43.323C45.4212 43.4077 50.6697 42.5964 54.8176 41.0515C55.7911 39.9722 56.5389 38.6178 56.9692 37.1223C58.0626 33.3412 59.4805 27.4226 60.0096 20.7351C60.2565 17.6735 58.5211 14.8447 55.9745 14.1534C43.6153 10.7814 27.736 13.2998 24.1595 14.1534C21.6129 14.7671 19.8775 17.5959 20.1314 20.7351C20.6676 27.4226 22.0784 33.3412 23.1719 37.1223C23.6163 38.6531 24.3782 40.0357 25.3869 41.1221C29.4996 42.6176 34.6916 43.4077 40.0176 43.323Z" fill="#10319B"/>
<path d="M22.0996 39.6617C21.8668 38.9704 21.6481 38.2509 21.4365 37.5525C21.0203 36.184 20.5829 34.7731 20.0679 33.5597C19.1791 31.4717 17.1827 30.1525 15.666 29.4189L15.7789 29.1931C17.3308 29.9479 19.3766 31.3024 20.3007 33.468C20.8227 34.6884 21.2601 36.1134 21.6763 37.482C21.8879 38.1803 22.1066 38.8999 22.3394 39.5842L22.0996 39.6617Z" fill="#10319B"/>
<path d="M60.6875 29.2919L63.9537 27.3872C63.9537 27.3872 64.8848 18.0049 61.8515 13.7371L60.9767 16.4248C60.9767 16.4248 62.3805 18.4635 60.6875 29.2919Z" fill="#F4B821"/>
<path d="M57.0985 45.4243C56.2563 46.3838 51.3486 48.8204 51.3486 48.8204C51.3486 48.8204 53.0328 50.0836 53.0604 52.7549C53.0811 54.7498 51.1967 56.5376 51.1967 56.5376C52.8948 58.2701 52.2528 61.328 50.9965 63.6473C49.7402 65.9666 50.8516 66.643 50.8516 66.643C50.8516 66.643 58.196 55.6678 58.8379 49.5038C59.1002 46.9981 57.0985 45.4243 57.0985 45.4243Z" fill="#F4B821"/>
<path d="M23.917 57.0338C23.917 57.0338 25.8221 56.7163 26.8437 58.0071C27.8653 59.2979 33.9396 70.7494 36.7697 74.8426C37.2805 75.5812 38.592 78.1145 40.0485 77.6106C40.0485 77.6106 38.0191 78.7633 35.0303 75.7538C32.0483 72.7373 25.6703 60.6646 23.917 57.0338Z" fill="#0E51A0"/>
<path d="M14.5759 48.1163C16.6981 43.7178 22.4833 33.7249 34.161 26.0466C35.2948 25.3045 36.7786 26.2705 36.5628 27.6152L36.3948 28.6647C34.6878 39.3128 26.5342 47.7793 15.947 49.8966C14.9422 50.0903 14.1242 49.0519 14.5759 48.1163Z" fill="#F5851F"/>
<path d="M15.9538 49.8841C14.9423 50.0902 14.1215 49.0423 14.5731 48.1066C16.4344 44.2332 21.1388 36.0393 30.1955 28.8983C23.048 36.1919 19.0237 46.0482 17.7817 49.4465C17.1758 49.6157 16.5738 49.7628 15.9538 49.8841Z" fill="#F89E1C"/>
<path d="M31.4308 27.9388C31.4308 27.9388 36.0232 29.5558 33.5938 36.6069C33.5938 36.6069 37.8128 28.8484 36.2158 26.2707C36.2158 26.2707 34.9554 24.5825 31.4308 27.9388Z" fill="#032663"/>
<path d="M18.2664 49.5009C17.5198 49.7222 16.7618 49.9052 15.9953 50.0594C15.4546 50.1676 14.9054 49.9659 14.5665 49.5249C14.2304 49.0935 14.174 48.5167 14.4022 48.0221C16.3646 43.9625 22.1977 33.6743 34.0594 25.879C34.644 25.4975 35.3708 25.4903 35.9643 25.8767C36.5578 26.2631 36.8606 26.9335 36.7426 27.6245L36.5746 28.6739C34.9906 38.5776 27.762 46.6866 18.2664 49.5009ZM34.6327 26.0215C34.5082 26.0584 34.3799 26.1172 34.2572 26.1952C22.4731 33.9363 16.6834 44.1596 14.7344 48.1943C14.5544 48.5705 14.5941 48.9857 14.8579 49.3136C15.1121 49.6444 15.5113 49.7968 15.9219 49.7063C26.3627 47.622 34.5354 39.1498 36.2162 28.624L36.3842 27.5746C36.472 27.0279 36.2405 26.4925 35.7643 26.1859C35.4179 25.9658 35.006 25.9108 34.6327 26.0215Z" fill="#10319B"/>
<path d="M33.871 36.7334L33.5243 36.6175C35.6921 30.0188 31.4029 28.1245 31.3561 28.1071L31.4968 27.7738C31.5436 27.7912 36.1509 29.8099 33.871 36.7334Z" fill="#10319B"/>
<path d="M29.0836 43.1714L28.7503 43.0306C33.0713 32.8052 28.6777 30.3483 28.6377 30.3185L28.8128 29.9959C29.0018 30.1065 33.5346 32.6471 29.0836 43.1714Z" fill="#10319B"/>
<path d="M65.4788 48.1163C63.3566 43.7178 57.5714 33.7249 45.8937 26.0466C44.7599 25.3045 43.2761 26.2705 43.4919 27.6152L43.6599 28.6647C45.3669 39.3128 53.5205 47.7793 64.1077 49.8966C65.1124 50.0903 65.9304 49.0519 65.4788 48.1163Z" fill="#F5851F"/>
<path d="M64.1009 49.8841C65.1124 50.0902 65.9332 49.0423 65.4816 48.1066C63.6202 44.2332 58.9159 36.0393 49.8592 28.8983C57.0067 36.1919 61.031 46.0482 62.273 49.4465C62.8789 49.6157 63.4809 49.7628 64.1009 49.8841Z" fill="#F89E1C"/>
<path d="M48.6234 27.9388C48.6234 27.9388 44.031 29.5558 46.4604 36.6069C46.4604 36.6069 42.2414 28.8484 43.8384 26.2707C43.8384 26.2707 45.0988 24.5825 48.6234 27.9388Z" fill="#032663"/>
<path d="M61.7883 49.5009C62.5349 49.7222 63.2929 49.9052 64.0594 50.0594C64.6 50.1676 65.1492 49.9659 65.4882 49.5249C65.8243 49.0935 65.8807 48.5167 65.6525 48.0221C63.6901 43.9625 57.857 33.6743 45.9953 25.879C45.4107 25.4975 44.6839 25.4903 44.0904 25.8767C43.4969 26.2631 43.1941 26.9335 43.3121 27.6245L43.48 28.6739C45.0641 38.5776 52.2927 46.6866 61.7883 49.5009ZM45.422 26.0215C45.5465 26.0584 45.6748 26.1172 45.7975 26.1952C57.5815 33.9363 63.3713 44.1596 65.3202 48.1943C65.5003 48.5705 65.4606 48.9857 65.1968 49.3136C64.9426 49.6444 64.5434 49.7968 64.1328 49.7063C53.692 47.622 45.5192 39.1498 43.8385 28.624L43.6705 27.5746C43.5827 27.0279 43.8142 26.4925 44.2904 26.1859C44.6368 25.9658 45.0487 25.9108 45.422 26.0215Z" fill="#10319B"/>
<path d="M46.1836 36.7334L46.5304 36.6175C44.3626 30.0188 48.6518 28.1245 48.6986 28.1071L48.5579 27.7738C48.5111 27.7912 43.9038 29.8099 46.1836 36.7334Z" fill="#10319B"/>
<path d="M50.9711 43.1714L51.3044 43.0306C46.9834 32.8052 51.3769 30.3483 51.417 30.3185L51.2419 29.9959C51.0529 30.1065 46.52 32.6471 50.9711 43.1714Z" fill="#10319B"/>
</g>
</svg>
