<svg width="100" height="100" viewBox="0 0 100 100" fill="none" xmlns="http://www.w3.org/2000/svg">
<mask id="mask0_2992_94617" style="mask-type:alpha" maskUnits="userSpaceOnUse" x="0" y="0" width="100" height="100">
<rect width="100" height="100" fill="#D9D9D9"/>
</mask>
<g mask="url(#mask0_2992_94617)">
<path d="M74.0028 65.5195C76.9382 57.0736 70.6191 48.2761 61.681 48.4167L58.2182 48.4694C58.1919 48.4694 58.1743 48.4694 58.1479 48.4694L49.5174 48.6101L40.8869 48.4694C40.8605 48.4694 40.8429 48.4694 40.8166 48.4694L37.3538 48.4167C28.4157 48.2761 22.0966 57.0736 25.032 65.5195C25.99 68.2792 27.0183 70.8455 28.0905 73.2272C28.6706 74.6247 29.4176 76.1627 30.2525 77.7534C33.8911 84.8899 37.7317 90.2686 40.6759 94.6717C40.7902 94.8387 40.9132 95.0057 41.0363 95.1639C42.9874 97.9851 46.2392 99.3297 49.5262 99.2858C52.8044 99.3385 56.065 97.9851 58.0161 95.1639C58.1391 95.0057 58.2622 94.8387 58.3764 94.6717C61.3206 90.2686 65.1613 84.8899 68.7998 77.7534C69.6348 76.1627 70.3818 74.6334 70.9619 73.2272C72.0165 70.8367 73.0448 68.2792 74.0028 65.5195Z" fill="#F89E1C"/>
<path d="M58.9284 82.6487C61.3629 77.9379 56.5379 74.7037 51.1768 77.8061C44.7874 81.4974 41.0082 79.8363 36.7457 72.7702C33.2829 67.0223 28.2206 68.5076 26.4453 69.2635C26.999 70.6609 27.5615 72.0143 28.1415 73.3063C28.7216 74.7037 29.4686 76.2417 30.3036 77.8325C33.9421 84.9689 37.7828 90.3476 40.727 94.7508C40.8412 94.9177 40.9643 95.0847 41.0873 95.2429C43.0384 98.0641 46.2902 99.4088 49.5772 99.3648C52.8554 99.4176 56.116 98.0641 58.0671 95.2429C58.1902 95.0847 58.3132 94.9177 58.4275 94.7508C59.3854 93.3094 60.4489 91.7714 61.5562 90.0927C59.0075 89.6797 56.573 87.2012 58.9284 82.6487Z" fill="#032663"/>
<path d="M49.3565 99.515C45.885 99.515 42.7386 97.9594 40.9193 95.3228C40.7963 95.1646 40.6733 94.9976 40.559 94.8218C40.1371 94.189 39.6889 93.5299 39.2319 92.8531C36.5601 88.907 33.2468 84.0029 30.1268 77.8859C29.2391 76.1985 28.5097 74.6693 27.956 73.351C27.3671 72.0414 26.7959 70.6792 26.2598 69.3082L26.207 69.1675L26.3477 69.106C28.3427 68.2535 33.361 66.9 36.8414 72.683C41.2006 79.9161 44.9182 81.2169 51.0615 77.6662C54.3309 75.7767 57.2048 76.2776 58.6022 77.6135C59.8854 78.8439 60.0524 80.7511 59.0329 82.7197C58.0046 84.7148 57.82 86.4813 58.5056 87.8348C59.0592 88.9246 60.193 89.7068 61.5377 89.9265L61.7838 89.9616L61.6431 90.1638C61.0191 91.1042 60.4127 92.0006 59.8239 92.8619C59.3669 93.5387 58.9274 94.189 58.5056 94.813C58.3913 94.9888 58.2683 95.1558 58.1452 95.314C56.2996 97.9857 53.0917 99.5589 49.5323 99.4974C49.4708 99.515 49.4092 99.515 49.3565 99.515ZM49.5323 99.1986C52.9862 99.2513 56.0975 97.7397 57.8904 95.147C58.0134 94.98 58.1364 94.8218 58.2419 94.6548C58.6638 94.022 59.1032 93.3717 59.5602 92.6949C60.1051 91.8952 60.6588 91.0602 61.2388 90.1989C59.8942 89.9177 58.778 89.1003 58.2155 87.9842C57.7058 86.9735 57.3806 85.2157 58.7516 82.5791L58.8923 82.6494L58.7516 82.5791C59.7008 80.7423 59.569 78.9757 58.3825 77.8508C57.0642 76.594 54.3397 76.137 51.2197 77.9475C44.9622 81.5684 40.9897 80.1886 36.5689 72.8588C33.2907 67.4274 28.6151 68.5347 26.6113 69.3521C27.1298 70.6704 27.6835 71.9799 28.246 73.2455C28.7909 74.5638 29.5204 76.0755 30.408 77.7629C33.5192 83.8623 36.8326 88.7576 39.4956 92.6949C39.9526 93.3717 40.4008 94.0308 40.8227 94.6636C40.9369 94.8306 41.0512 94.9888 41.1742 95.1558C42.9671 97.7397 46.0959 99.2601 49.5323 99.1986Z" fill="#10319B"/>
<path d="M18.1673 55.448C16.9105 58.9459 14.564 67.427 16.6117 77.868C16.8139 78.8875 18.1322 79.1775 18.7474 78.3426L19.2308 77.6922C24.1085 71.0831 24.3634 62.1362 19.8723 55.2546C19.4417 54.5867 18.4398 54.7009 18.1673 55.448Z" fill="#F5851F"/>
<path d="M49.6829 99.5145C49.6214 99.5145 49.5687 99.5145 49.5072 99.5145C45.9741 99.5672 42.7398 98.0028 40.8942 95.3223C40.7712 95.1641 40.6481 94.9971 40.5339 94.8213C40.112 94.1885 39.6638 93.5293 39.2068 92.8526C36.535 88.9065 33.2217 84.0024 30.1017 77.8854C29.214 76.198 28.4845 74.6688 27.9309 73.3505C26.8059 70.8281 25.7776 68.2354 24.8724 65.634C23.4486 61.5472 24.0902 57.188 26.6213 53.6901C29.1437 50.2098 33.0459 48.2587 37.3524 48.3202L40.8063 48.3729H40.8766L49.5072 48.5135L58.1377 48.3729H58.1816L61.6707 48.3202C65.9772 48.2499 69.8794 50.2098 72.4018 53.6901C74.9329 57.188 75.5745 61.5472 74.1507 65.634C73.2455 68.2354 72.2172 70.8369 71.0922 73.3592C70.5473 74.6776 69.8179 76.2068 68.9214 77.8942C65.8014 84.0024 62.4793 88.9153 59.8163 92.8614C59.3593 93.5381 58.9111 94.1973 58.4892 94.8301C58.375 95.0058 58.2519 95.1728 58.1289 95.331C56.3096 97.9589 53.1633 99.5145 49.6829 99.5145ZM49.5072 99.1981C52.9611 99.2508 56.0723 97.7391 57.8652 95.1465C57.9883 94.9795 58.1113 94.8213 58.2168 94.6543C58.6386 94.0215 59.0869 93.3624 59.5439 92.6856C62.2069 88.7483 65.5202 83.8442 68.6314 77.7536C69.5191 76.075 70.2397 74.5545 70.7934 73.245C71.9184 70.7314 72.9467 68.1387 73.8431 65.5461C75.2317 61.556 74.6077 57.3023 72.1381 53.8922C69.6773 50.4998 65.8542 48.5926 61.6707 48.6542L58.2168 48.7069H58.1728L49.5159 48.8475L40.8766 48.7069H40.8063L37.3436 48.6542C33.1601 48.5926 29.3371 50.4998 26.8762 53.8922C24.4066 57.311 23.7826 61.556 25.1712 65.5461C26.0677 68.1387 27.0959 70.7314 28.2209 73.245C28.7658 74.5633 29.4953 76.075 30.3829 77.7624C33.4941 83.8618 36.8075 88.7571 39.4704 92.6944C39.9275 93.3712 40.3757 94.0303 40.7975 94.6631C40.9118 94.8301 41.026 94.9883 41.1491 95.1553C42.9508 97.7391 46.0796 99.2596 49.5072 99.1981Z" fill="#10319B"/>
<path d="M69.8521 53.093C67.6286 51.1683 64.7986 50.0082 61.6347 50.0697L58.1631 50.1312C58.1368 50.1312 58.1192 50.1312 58.0928 50.1312L49.4183 50.2806L40.7439 50.1312C40.7175 50.1312 40.6999 50.1312 40.6736 50.1312L37.202 50.0697C32.3858 49.9906 29.7668 53.4534 27.4993 57.4171C26.9895 58.3135 27.4905 59.4736 28.466 59.667C36.6835 61.2929 55.3771 63.1122 69.8521 53.093Z" fill="#E26907"/>
<path d="M47.2578 76.2772C46.4317 76.2772 45.5968 76.0751 44.8321 75.662C43.2062 74.7832 42.2043 73.1573 42.1428 71.3116L41.8264 60.73C41.7737 58.8844 42.6789 57.1969 44.2521 56.2302C45.8253 55.2546 47.7324 55.2019 49.3583 56.0808L58.7535 61.1343C60.3267 61.978 61.3198 63.5424 61.4165 65.3265C61.5131 67.1106 60.687 68.7717 59.2193 69.7736C59.1753 69.8088 59.1226 69.8351 59.0787 69.8703L59.0171 69.9054L49.9472 75.5126C49.1123 76.0136 48.1806 76.2772 47.2578 76.2772ZM46.9326 56.0896C46.1241 56.0896 45.3067 56.3181 44.5773 56.7663C43.1974 57.6188 42.4065 59.0953 42.4592 60.7124L42.7756 71.294C42.8283 72.9112 43.7072 74.3349 45.131 75.0996C46.5547 75.8642 48.2334 75.8202 49.6044 74.9677L58.7359 69.3254C58.7798 69.299 58.8238 69.2726 58.8589 69.2463C60.1421 68.3674 60.8628 66.9173 60.7749 65.3529C60.6958 63.7973 59.8257 62.4262 58.4459 61.688L49.0507 56.6345C48.3828 56.2653 47.6533 56.0896 46.9326 56.0896Z" fill="#F89E1C"/>
<path d="M47.2149 76.3566C46.3975 76.3566 45.5714 76.1545 44.8068 75.7414C43.1896 74.8713 42.1965 73.263 42.1438 71.4261L41.8186 60.5809C41.7659 58.7528 42.6623 57.083 44.2179 56.1162C45.7735 55.1494 47.6719 55.0967 49.289 55.9668L58.9127 61.1521C60.4683 61.9871 61.4526 63.5427 61.5493 65.3092C61.646 67.0757 60.8286 68.728 59.3785 69.7211C59.3345 69.7563 59.2818 69.7826 59.2378 69.8178L59.1763 69.853L49.8779 75.6008C49.0517 76.1017 48.1377 76.3566 47.2149 76.3566ZM46.8809 55.6768C46.0196 55.6768 45.1583 55.9141 44.3849 56.3974C42.926 57.3027 42.0823 58.8671 42.135 60.5809L42.4602 71.4261C42.5129 73.1399 43.4445 74.6516 44.9562 75.4689C46.4678 76.2863 48.2432 76.2336 49.7109 75.3283L59.0621 69.5453C59.106 69.519 59.15 69.4838 59.1939 69.4575C60.5562 68.5259 61.3208 66.9878 61.2329 65.3268C61.145 63.6745 60.2222 62.2156 58.7633 61.4334L49.1396 56.248C48.4277 55.8701 47.6543 55.6768 46.8809 55.6768Z" fill="#10319B"/>
<path d="M19.8717 55.254C19.4411 54.5948 18.4392 54.7091 18.1667 55.4473C17.0593 58.5234 15.1082 65.4577 16.0574 74.1849C16.2068 66.4069 19.4235 58.9628 20.61 56.4756C20.3727 56.0625 20.1354 55.6495 19.8717 55.254Z" fill="#F89E1C"/>
<path d="M16.417 72.7624C16.0303 72.7624 15.793 72.6921 15.7578 72.6833L15.9424 72.0769L15.8457 72.3757L15.9336 72.0681C15.9687 72.0769 19.7743 72.903 22.9118 64.6768L23.0788 65.916C20.5213 72.3933 17.7265 72.7624 16.417 72.7624Z" fill="#F89E1C"/>
<path d="M16.1914 75.3729C16.1914 75.3729 19.5135 77.0076 22.0623 71.9189C22.0623 71.9189 19.953 78.238 17.7031 78.7478C17.7031 78.7478 16.2441 79.073 16.1914 75.3729Z" fill="#032663"/>
<path d="M17.7981 78.9842C17.6926 78.9842 17.5959 78.9754 17.4905 78.949C16.9631 78.826 16.5676 78.4305 16.4622 77.8944C14.3793 67.2864 16.8577 58.6207 18.0178 55.3953C18.1584 54.9998 18.5099 54.7185 18.9318 54.6658C19.3537 54.6131 19.7667 54.8064 19.9952 55.1668C24.5039 62.0659 24.2402 71.1534 19.3449 77.7801L18.8615 78.4305C18.6154 78.782 18.2199 78.9842 17.7981 78.9842ZM19.0724 54.9734C19.0373 54.9734 19.0109 54.9734 18.9758 54.9822C18.6681 55.0173 18.4221 55.2107 18.3166 55.5007C17.1653 58.7086 14.7044 67.304 16.7698 77.8329C16.8489 78.2371 17.1477 78.5447 17.5608 78.6414C17.965 78.7293 18.3781 78.5799 18.6242 78.2459L19.1076 77.5956C23.9238 71.0743 24.1787 62.1274 19.7404 55.3425C19.591 55.1052 19.3449 54.9734 19.0724 54.9734Z" fill="#10319B"/>
<path d="M17.3847 75.7147C16.6377 75.7147 16.1455 75.5213 16.1367 75.5126L16.2598 75.2225C16.3916 75.2753 19.5995 76.5408 22.0164 71.874L22.2976 72.0234C20.6805 75.1346 18.6591 75.7147 17.3847 75.7147Z" fill="#10319B"/>
<path d="M16.5517 72.9382C16.1738 72.9382 15.9453 72.8679 15.9102 72.8591L16.0068 72.5603C16.042 72.5691 19.7157 73.6149 22.9499 65.8545L23.2399 65.9775C20.6561 72.1736 17.7997 72.9382 16.5517 72.9382Z" fill="#10319B"/>
<path d="M81.2532 55.448C82.51 58.9459 84.8566 67.427 82.8088 77.868C82.6067 78.8875 81.2884 79.1775 80.6732 78.3426L80.1898 77.6922C75.312 71.0831 75.0572 62.1362 79.5482 55.2546C79.9788 54.5867 80.9808 54.7009 81.2532 55.448Z" fill="#F89E1C"/>
<path d="M80.409 56.4847C80.4002 56.5023 80.3915 56.5111 80.3827 56.5287C78.8446 59.1477 79.1522 62.4786 81.1033 64.7989C81.7449 65.5635 82.5271 66.2578 83.4499 66.7148C83.4411 61.9601 82.2195 58.2864 81.5076 56.5638C81.3143 56.098 80.6639 56.0541 80.409 56.4847Z" fill="#F4B821"/>
<path d="M77.1558 60.6514C75.5651 66.3992 76.5933 72.7095 80.1879 77.6927L80.6537 78.3431C80.7065 78.4221 80.7768 78.4837 80.8471 78.5452L82.4466 78.4573C82.596 78.2991 82.7015 78.1058 82.7454 77.8685C82.9476 76.8138 83.1058 75.7855 83.2288 74.7748C78.2017 72.6216 77.2964 64.5975 77.1558 60.6514Z" fill="#F5851F"/>
<path d="M82.9314 72.779C81.6043 72.779 78.7567 71.9528 76.2695 65.6425L76.4805 64.5791C79.6532 73.2975 83.4323 72.0935 83.4675 72.0847L83.6784 72.6823C83.6345 72.6911 83.3708 72.779 82.9314 72.779Z" fill="#F89E1C"/>
<path d="M83.2302 75.3729C83.2302 75.3729 79.9081 77.0076 77.3594 71.9189C77.3594 71.9189 79.4687 78.238 81.7186 78.7478C81.7186 78.7478 83.1775 79.073 83.2302 75.3729Z" fill="#032663"/>
<path d="M81.6201 78.9849C81.1983 78.9849 80.8028 78.7916 80.5391 78.4312L80.0558 77.7809C75.1604 71.1542 74.9056 62.0666 79.4054 55.1675C79.6427 54.8072 80.047 54.6226 80.4688 54.6665C80.8907 54.7193 81.2422 54.9917 81.3829 55.396C82.543 58.6303 85.0302 67.2959 82.9384 77.8951C82.833 78.4224 82.4375 78.8267 81.9102 78.9498C81.8223 78.9761 81.7256 78.9849 81.6201 78.9849ZM80.3458 54.9741C80.0733 54.9741 79.836 55.106 79.6778 55.3345C75.2395 62.1194 75.4944 71.0663 80.3106 77.5875L80.794 78.2379C81.0401 78.5719 81.4532 78.7213 81.8574 78.6334C82.2617 78.5455 82.5605 78.2379 82.6484 77.8248C84.7226 67.2959 82.2529 58.7006 81.1016 55.4927C80.9961 55.2027 80.7501 55.0093 80.4425 54.9741C80.4073 54.9741 80.3809 54.9741 80.3458 54.9741Z" fill="#10319B"/>
<path d="M82.034 75.7147C80.7596 75.7147 78.7382 75.1346 77.1211 72.0146L77.4023 71.8652C79.8192 76.5408 83.0271 75.2752 83.1589 75.2137L83.282 75.5038C83.2732 75.5213 82.781 75.7147 82.034 75.7147Z" fill="#10319B"/>
<path d="M82.8679 72.9382C81.6199 72.9382 78.7636 72.1736 76.1797 65.9775L76.4697 65.8545C79.7215 73.6413 83.3776 72.5691 83.4128 72.5603L83.5095 72.8591C83.4743 72.8679 83.2458 72.9382 82.8679 72.9382Z" fill="#10319B"/>
<path d="M47.8456 73.8425C47.2128 73.8425 46.58 73.6843 45.9911 73.3679C44.7431 72.7 43.9785 71.4608 43.9346 70.0458L43.6973 62.1184C43.6533 60.7034 44.3476 59.4203 45.5517 58.682C46.7558 57.935 48.2147 57.8998 49.4539 58.5677L56.4849 62.3557C57.6889 63.006 58.4447 64.2013 58.5151 65.5636C58.5854 66.9258 57.9614 68.2002 56.8364 68.9648C56.8013 68.9912 56.7661 69.0087 56.7309 69.0351L56.687 69.0615L49.8933 73.2625C49.2605 73.6404 48.5574 73.8425 47.8456 73.8425ZM47.5995 58.7259C47.0018 58.7259 46.413 58.8929 45.8769 59.2181C44.875 59.8421 44.2949 60.9143 44.3301 62.1008L44.5674 70.0282C44.6025 71.2147 45.2441 72.2518 46.29 72.8143C47.327 73.3767 48.5574 73.3416 49.5594 72.7176L56.3882 68.4902C56.4233 68.4726 56.4497 68.4463 56.4761 68.4287C57.4165 67.7871 57.935 66.7237 57.8735 65.5899C57.812 64.4562 57.1792 63.4543 56.1773 62.9094L49.1463 59.1214C48.6629 58.8578 48.1356 58.7259 47.5995 58.7259Z" fill="#F89E1C"/>
<path d="M56.4962 68.6921C56.5314 68.6746 56.5665 68.6482 56.5929 68.6306C58.7286 67.1717 58.5792 63.9462 56.2765 62.707L49.4037 58.9982C47.022 57.715 44.1569 59.4903 44.236 62.1973L44.4645 69.9401C44.5436 72.6383 47.523 74.2378 49.8168 72.8228L56.4611 68.7185C56.4699 68.7097 56.4875 68.7009 56.4962 68.6921Z" fill="#032663"/>
<path d="M53.6211 67.4972C53.6387 67.4884 53.6563 67.4708 53.6738 67.462C54.8779 66.6446 54.79 64.8254 53.4893 64.1223L49.6134 62.0394C48.2688 61.3187 46.6516 62.3206 46.7044 63.841L46.8362 68.209C46.8802 69.7295 48.5588 70.6347 49.8507 69.8349L53.5947 67.5235C53.6035 67.5147 53.6123 67.5059 53.6211 67.4972Z" fill="#33FCFE"/>
<path d="M71.1798 56.0723C70.1076 57.2939 63.8588 60.3963 63.8588 60.3963C63.8588 60.3963 66.0032 62.0047 66.0384 65.4059C66.0648 67.9458 63.6654 70.2221 63.6654 70.2221C65.8275 72.4281 65.0101 76.3215 63.4106 79.2745C61.811 82.2275 63.226 83.0888 63.226 83.0888C63.226 83.0888 72.5772 69.1147 73.3945 61.2664C73.7285 58.0761 71.1798 56.0723 71.1798 56.0723Z" fill="#F4B821"/>
<path d="M28.9336 70.8555C28.9336 70.8555 31.3593 70.4512 32.66 72.0947C33.9607 73.7382 41.6948 88.3187 45.2982 93.5304C45.9485 94.4708 47.6184 97.6962 49.4728 97.0546C49.4728 97.0546 46.8889 98.5224 43.0834 94.6905C39.2867 90.8498 31.1659 75.4783 28.9336 70.8555Z" fill="#0E51A0"/>
<path d="M24.867 9.93586C26.6292 8.69355 28.7349 7.63626 31.061 6.75519L30.9112 6.79043C30.9112 6.79043 38.3827 2.6582 49.5282 2.6582C60.6386 2.6582 68.1982 6.66708 68.2422 6.69351C70.6387 7.5834 72.7885 8.65831 74.5947 9.92705C83.2909 16.0505 82.5773 29.2049 78.7622 41.6016C76.0045 50.6238 62.8677 54.7296 49.7397 54.5269C36.6117 54.7296 23.4749 50.6238 20.6995 41.6016C16.8845 29.2137 16.1708 16.0593 24.867 9.93586Z" fill="#F89E1C"/>
<path d="M24.8687 9.97905C25.7938 9.32706 26.8158 8.72793 27.9084 8.17285C19.3884 14.3668 20.1109 27.4507 23.8995 39.7857C26.6749 48.8255 39.8028 52.9313 52.9396 52.7375C60.4023 52.852 67.865 51.5657 73.4334 48.7815C67.7681 52.9049 58.7547 54.808 49.7325 54.667C36.6046 54.8697 23.4678 50.7551 20.6924 41.7153C16.8862 29.301 16.1725 16.1201 24.8687 9.97905Z" fill="#F5851F"/>
<path d="M28.931 21.0099C23.6005 19.8998 23.2481 11.4062 23.2305 11.0362L23.8648 11.0186C23.8648 11.0979 24.2173 19.3799 29.0544 20.3844L28.931 21.0099Z" fill="#F89E1C"/>
<path d="M69.395 21.3363L69.2188 20.7283C74.5228 19.1864 74.8312 10.5696 74.8312 10.4814L75.4655 10.4991C75.4567 10.8691 75.1396 19.671 69.395 21.3363Z" fill="#F4B821"/>
<path d="M49.9261 10.2089C46.9392 10.2089 44.1639 9.23088 42.5427 7.58327C42.4898 7.53041 42.437 7.47754 42.3841 7.41587L39.4766 4.13828L40.1902 3.50391L43.0978 6.77268C43.133 6.81674 43.1771 6.86079 43.2211 6.90485C44.7982 8.5084 47.6353 9.38947 50.6397 9.23088C53.5561 9.07228 56.0936 7.96213 57.424 6.27928L59.5033 3.63607L60.2522 4.22639L58.1729 6.8696C56.6839 8.77272 53.8821 10.0062 50.6926 10.1824C50.4283 10.2001 50.1816 10.2089 49.9261 10.2089Z" fill="#F4B821"/>
<path d="M49.9078 13.6533C45.9518 13.6533 42.3659 12.3229 40.0839 9.99685C40.0046 9.91755 39.9165 9.82945 39.8372 9.74134L39.7491 9.64442L35.7578 5.15976L36.4715 4.52539L40.542 9.10697C40.6125 9.18626 40.683 9.26556 40.7623 9.33605C42.8681 11.4682 46.2073 12.7017 49.9078 12.7017C50.2074 12.7017 50.5158 12.6929 50.8241 12.6753C54.7714 12.455 58.1635 10.9044 60.1195 8.41092L63.0887 4.63112L63.8376 5.22144L60.8684 9.00124C58.745 11.7061 55.0973 13.389 50.877 13.6269C50.5598 13.6445 50.2338 13.6533 49.9078 13.6533Z" fill="#F4B821"/>
<path d="M74.1012 12.2531C72.295 10.9755 70.1451 9.883 67.7486 8.99311C67.6958 8.96668 60.1185 4.34986 49.0082 4.34986C41.6953 4.34105 35.3075 5.56574 31.7656 6.40276C34.0124 5.34547 40.5852 2.6582 49.5369 2.6582C60.6472 2.6582 68.2068 6.70232 68.2508 6.72876C70.6474 7.62745 72.7972 8.71117 74.6034 9.98872C82.3568 15.4954 82.6299 26.641 79.8898 37.8482C82.0572 27.434 81.3348 17.3897 74.1012 12.2531Z" fill="#F4B821"/>
<path d="M69.9171 20.9051L69.8555 20.5968C74.8247 19.5659 75.3622 10.7199 75.371 10.6318L75.6882 10.6495C75.6617 11.0195 75.1243 19.8214 69.9171 20.9051Z" fill="#10319B"/>
<path d="M60.4876 8.67606L63.4569 4.89626C62.4172 4.56145 61.2101 4.21784 59.8621 3.90065L57.7828 6.54387C56.373 8.34126 53.7034 9.50427 50.6549 9.68049C47.5183 9.8567 44.5402 8.91395 42.875 7.21348C42.8221 7.16062 42.7781 7.11656 42.734 7.0637L39.8265 3.79492C38.4432 4.1033 37.2009 4.45573 36.1172 4.79934L40.1084 9.284L40.1966 9.38092C40.2758 9.46022 40.3463 9.54832 40.4256 9.62762C42.6195 11.8567 46.1085 13.1343 49.906 13.1343C50.2143 13.1343 50.5315 13.1255 50.8487 13.1079C54.9281 12.8964 58.4436 11.2752 60.4876 8.67606Z" fill="#032663"/>
<path d="M29.4508 20.9049C24.2437 19.8212 23.671 11.1074 23.6445 10.7373L23.9617 10.7197C23.9705 10.8078 24.5432 19.5657 29.5125 20.5965L29.4508 20.9049Z" fill="#10319B"/>
<path d="M49.6694 54.4115C43.1759 54.5085 36.6912 53.6098 31.3166 51.6362C30.0655 50.2969 29.0699 48.57 28.4884 46.5612C26.9994 41.4069 25.3253 34.1997 24.6822 26.1027C24.365 22.1202 26.6117 18.5078 29.8364 17.7325C34.233 16.6752 41.0172 15.4505 49.0702 15.3272V15.3184C49.2993 15.3184 49.5196 15.3272 49.7487 15.3272C49.9777 15.3272 50.198 15.3184 50.4271 15.3184V15.3272C58.4801 15.4505 65.1058 16.4726 69.5023 17.5299C72.727 18.3052 75.1324 22.1202 74.8152 26.1027C74.172 34.1997 72.498 41.4069 71.0089 46.5612C70.4362 48.526 69.4759 50.2176 68.26 51.5569C62.8238 53.5833 56.2422 54.5085 49.6694 54.4115Z" fill="#032663"/>
<path d="M72.094 49.5485L70.8164 50.2446C71.0543 49.5397 71.4508 48.3503 71.7151 47.5133C72.42 45.3106 73.2217 42.8083 73.9354 41.1343C75.0896 38.4294 78.2967 36.3853 80.4025 35.3633L80.0412 36.7466C78.0764 37.7069 75.8473 39.0726 74.8077 41.5132C74.1116 43.152 73.3187 45.6278 72.6138 47.8128C72.3583 48.641 72.3318 48.8437 72.094 49.5485Z" fill="#F4B821"/>
<path d="M27.7765 49.7517C27.706 49.7517 27.6444 49.7077 27.6267 49.646C27.4153 49.0205 27.195 48.3332 26.9659 47.6372C26.2787 45.5138 25.4946 43.0996 24.7633 41.3816C23.6972 38.8881 21.4064 37.5048 19.3006 36.474C19.2213 36.4387 19.1861 36.3418 19.2301 36.2625C19.2654 36.1832 19.3623 36.148 19.4416 36.192C21.6002 37.2405 23.9527 38.6679 25.0628 41.2582C25.8029 42.9939 26.5871 45.4081 27.2743 47.5403C27.5034 48.2363 27.7237 48.9147 27.9263 49.5491C27.9527 49.6284 27.9087 49.7253 27.8294 49.7517C27.8118 49.7517 27.7942 49.7517 27.7765 49.7517Z" fill="#F89E1C"/>
<path d="M80.1479 36.7031C79.7691 38.3419 79.3285 39.9895 78.8263 41.6195C77.7955 44.9852 75.3549 47.6637 72.0156 49.7078C72.8791 47.1262 73.6016 44.2451 74.5707 41.9631C75.7249 39.2759 78.2889 37.6018 80.1479 36.7031Z" fill="#032663"/>
<path d="M77.8816 41.8225C78.234 40.8709 78.56 39.9194 78.8684 38.959C77.8816 39.5934 76.8684 40.5097 76.2516 41.7872C75.5908 43.1441 75.0093 44.8181 74.4102 46.4128C75.9785 45.2058 77.1855 43.6815 77.8816 41.8225Z" fill="#0E51A0"/>
<path d="M72.2175 49.6896L71.918 49.5927C72.2175 48.7028 72.4995 47.7601 72.7726 46.8526C73.2924 45.1257 73.8387 43.3459 74.4731 41.8393C75.6185 39.1432 78.1824 37.4516 80.1207 36.5L80.2617 36.7819C78.3674 37.7071 75.8828 39.3459 74.7638 41.9538C74.1295 43.4428 73.592 45.2138 73.0722 46.9319C72.799 47.857 72.5171 48.7998 72.2175 49.6896Z" fill="#10319B"/>
<path d="M19.3008 36.7031C19.6796 38.3419 20.1202 39.9895 20.6224 41.6195C21.6532 44.9852 24.0938 47.6637 27.4331 49.7078C26.5696 47.1262 25.8471 44.2451 24.878 41.9631C23.7326 39.2759 21.1598 37.6018 19.3008 36.7031Z" fill="#032663"/>
<path d="M50.6035 54.6683C50.3127 54.6683 50.0219 54.6683 49.74 54.6595C38.1715 54.8357 23.5986 51.5317 20.5501 41.6372C17.8188 32.7736 14.7438 16.8615 24.7792 9.79528L24.8673 9.92744L24.7792 9.79528C26.5326 8.56178 30.7881 6.68509 30.9732 6.6058C31.0348 6.57055 38.4799 2.5 49.5374 2.5C60.6301 2.5 68.2513 6.50888 68.3306 6.55293C70.7888 7.46044 72.9386 8.55297 74.7008 9.79528C84.7362 16.8615 81.6612 32.7736 78.9299 41.6284C75.9519 51.285 62.0133 54.6683 50.6035 54.6683ZM49.7312 54.3423C50.0131 54.3423 50.3039 54.3511 50.5946 54.3511C61.8988 54.3511 75.6964 51.0295 78.6215 41.5403C81.3264 32.7648 84.3838 17.0113 74.5158 10.0596C72.7712 8.83491 70.6478 7.75119 68.1985 6.84369C68.1015 6.79082 60.5419 2.826 49.5374 2.826C38.568 2.826 31.1846 6.8525 31.1141 6.89655C31.0613 6.92298 26.7 8.84372 24.9643 10.0596C15.0874 17.0024 18.1536 32.7648 20.8496 41.5403C23.8453 51.2673 38.2861 54.5185 49.7312 54.3423Z" fill="#10319B"/>
<path d="M49.7391 53.0201C44.1707 53.0994 38.6112 52.4034 33.871 50.8791C33.1397 50.6412 32.4789 50.2007 32.0208 49.5839C31.2366 48.5443 30.6198 47.3196 30.2057 45.9539C28.8313 41.3195 27.2894 34.826 26.6991 27.5395C26.4083 23.9535 28.4788 20.7024 31.4481 20.0063C35.501 19.0548 41.7566 17.9534 49.184 17.8389V17.8301C49.3955 17.8301 49.5981 17.8301 49.8096 17.8389C50.0211 17.8389 50.2237 17.8301 50.4352 17.8301V17.8389C57.8626 17.9534 64.1094 19.0548 68.1712 20.0063C71.1492 20.7024 73.2109 23.9535 72.9201 27.5395C72.321 34.826 70.7879 41.3195 69.4135 45.9539C69.0082 47.3108 68.4002 48.5178 67.6249 49.5487C67.1843 50.139 66.5676 50.5619 65.8716 50.791C61.0609 52.3857 55.4044 53.1082 49.7391 53.0201Z" fill="#FCE8CA"/>
<path d="M48.6833 54.4822C42.2603 54.4822 36.2514 53.5218 31.2557 51.6892L31.2205 51.6804L31.1941 51.6539C29.8901 50.253 28.9033 48.4732 28.3306 46.5085C26.9649 41.7683 25.1851 34.3585 24.5155 25.9795C24.1895 21.9001 26.4539 18.226 29.7932 17.4243C34.2778 16.3494 54.1901 13.1951 69.6881 17.4243C73.0098 18.3318 75.2741 22.0058 74.9569 25.9795C74.2873 34.3585 72.5164 41.7683 71.1419 46.5085C70.5868 48.438 69.6176 50.1913 68.3577 51.5746L68.3313 51.6011L68.296 51.6187C63.0801 53.5747 56.4632 54.5967 49.6613 54.491C49.3353 54.4822 49.0093 54.4822 48.6833 54.4822ZM49.6701 54.1562C56.4192 54.2619 62.9743 53.2487 68.155 51.3191C69.3709 49.9711 70.3049 48.2794 70.8423 46.4115C72.208 41.689 73.9789 34.2968 74.6397 25.9442C74.9481 22.1204 72.7807 18.5873 69.6 17.7238C54.1636 13.5123 34.3307 16.6577 29.8636 17.7238C26.683 18.4904 24.5155 22.0235 24.8327 25.9442C25.5023 34.2968 27.2645 41.689 28.6301 46.4115C29.1852 48.3235 30.1368 50.0504 31.3967 51.4072C36.5334 53.2751 43.0181 54.2619 49.6701 54.1562Z" fill="#10319B"/>
<path d="M27.2893 49.5839C26.9985 48.7204 26.7254 47.8218 26.4611 46.9495C25.9412 45.2402 25.395 43.4781 24.7518 41.9626C23.6416 39.3547 21.1482 37.707 19.2539 36.7907L19.3949 36.5088C21.3332 37.4515 23.8883 39.1432 25.0426 41.8481C25.6945 43.3723 26.2408 45.1521 26.7606 46.8614C27.025 47.7337 27.2981 48.6323 27.5888 49.487L27.2893 49.5839Z" fill="#10319B"/>
<path d="M75.4844 36.6317L79.5637 34.2529C79.5637 34.2529 80.7268 22.5346 76.9381 17.2041L75.8456 20.561C75.8456 20.561 77.5989 23.1073 75.4844 36.6317Z" fill="#F4B821"/>
<path fill-rule="evenodd" clip-rule="evenodd" d="M53.1766 42.9645V45.757C53.1766 46.3004 53.0615 46.8112 52.8396 47.2702C52.2888 48.4909 51.0721 49.3269 49.6663 49.3269H49.5923C48.1537 49.3269 46.9123 48.4415 46.378 47.1783C46.1889 46.7443 46.082 46.2669 46.082 45.757V42.9645C46.082 40.9922 47.6604 39.3945 49.5923 39.3945H49.6663C51.6064 39.3945 53.1766 40.9922 53.1766 42.9645Z" fill="#002252"/>
<path fill-rule="evenodd" clip-rule="evenodd" d="M52.7033 47.3276C52.1792 48.5141 51.0214 49.3268 49.6838 49.3268H49.6134C48.2444 49.3268 47.0632 48.4653 46.5547 47.2382C47.4387 47.0594 48.393 46.9619 49.3943 46.9619C50.5755 46.9619 51.6942 47.0919 52.7033 47.3276Z" fill="#D92037"/>
<path d="M38.4844 37.3221L43.9102 35.6943V52.8165C43.9102 52.8165 42.2824 52.6881 41.1973 52.5143C40.1121 52.3405 38.4844 52.124 38.4844 52.124V37.3221Z" fill="#47C4E9"/>
<path fill-rule="evenodd" clip-rule="evenodd" d="M36.3666 31.9525C36.5817 31.6825 36.9749 31.6379 37.2449 31.8529C38.2661 32.6661 41.0758 34.4298 44.0114 34.9169C44.3157 34.9674 44.5376 35.2323 44.5341 35.5407C44.5305 35.8491 44.3025 36.1088 43.9971 36.1522C43.2753 36.2549 42.0523 36.4887 40.7604 36.8531C39.4601 37.22 38.1372 37.7063 37.1857 38.2983C36.8926 38.4806 36.5072 38.3909 36.3249 38.0978C36.1425 37.8047 36.2323 37.4193 36.5254 37.237C37.6258 36.5523 39.0816 36.0279 40.421 35.6501C40.6876 35.5749 40.9514 35.505 41.2091 35.4403C39.0633 34.6401 37.2724 33.4728 36.4662 32.8307C36.1962 32.6157 36.1516 32.2225 36.3666 31.9525Z" fill="#0E51A0"/>
<path d="M41.2377 28.7347C41.2824 28.7423 41.3321 28.7662 41.3718 28.8036C41.9535 29.3095 42.7179 29.5087 43.4749 29.3459C43.6417 29.3129 43.8006 29.4167 43.8349 29.576C43.8679 29.7429 43.7641 29.9017 43.6047 29.936C42.6647 30.1368 41.7089 29.8896 40.9796 29.2588C40.8531 29.1452 40.8388 28.9585 40.9525 28.832C41.0137 28.7427 41.1271 28.7082 41.2377 28.7347Z" fill="#032663"/>
<path d="M60.7422 37.3221L55.3164 35.6943V52.8165C55.3164 52.8165 56.9441 52.6881 58.0293 52.5143C59.1144 52.3405 60.7422 52.124 60.7422 52.124V37.3221Z" fill="#47C4E9"/>
<path fill-rule="evenodd" clip-rule="evenodd" d="M62.8599 31.9525C62.6449 31.6825 62.2517 31.6379 61.9817 31.8529C60.9605 32.6661 58.1508 34.4298 55.2152 34.9169C54.9109 34.9674 54.6889 35.2323 54.6925 35.5407C54.6961 35.8491 54.9241 36.1088 55.2295 36.1522C55.9513 36.2549 57.1743 36.4887 58.4661 36.8531C59.7665 37.22 61.0893 37.7063 62.0408 38.2983C62.3339 38.4806 62.7193 38.3909 62.9017 38.0978C63.084 37.8047 62.9943 37.4193 62.7012 37.237C61.6007 36.5523 60.1449 36.0279 58.8055 35.6501C58.539 35.5749 58.2752 35.505 58.0175 35.4403C60.1633 34.6401 61.9542 33.4728 62.7604 32.8307C63.0304 32.6157 63.0749 32.2225 62.8599 31.9525Z" fill="#0E51A0"/>
<path d="M57.9889 28.7347C57.9441 28.7423 57.8944 28.7662 57.8548 28.8036C57.273 29.3095 56.5086 29.5087 55.7517 29.3459C55.5848 29.3129 55.426 29.4167 55.3917 29.576C55.3587 29.7429 55.4625 29.9017 55.6218 29.936C56.5618 30.1368 57.5177 29.8896 58.247 29.2588C58.3735 29.1452 58.3878 28.9585 58.2741 28.832C58.2128 28.7427 58.0995 28.7082 57.9889 28.7347Z" fill="#032663"/>
</g>
</svg>
