<svg width="100" height="100" viewBox="0 0 100 100" fill="none" xmlns="http://www.w3.org/2000/svg">
<mask id="mask0_414_1436" style="mask-type:alpha" maskUnits="userSpaceOnUse" x="0" y="0" width="100" height="100">
<rect width="100" height="100" fill="#D9D9D9"/>
</mask>
<g mask="url(#mask0_414_1436)">
<path d="M74.6542 65.4C77.5926 56.9456 71.2672 48.1393 62.3201 48.28L58.8539 48.3328C58.8275 48.3328 58.8099 48.3328 58.7835 48.3328L50.1443 48.4736L41.5052 48.3328C41.4788 48.3328 41.4612 48.3328 41.4348 48.3328L37.9686 48.28C29.0215 48.1393 22.6961 56.9456 25.6345 65.4C26.5934 68.1624 27.6227 70.7313 28.696 73.1154C29.2767 74.5142 30.0244 76.0538 30.8602 77.6461C34.5024 84.7897 38.3469 90.1738 41.2941 94.5813C41.4084 94.7485 41.5316 94.9156 41.6548 95.074C43.6078 97.898 46.8629 99.244 50.1531 99.2C53.4346 99.2528 56.6985 97.898 58.6515 95.074C58.7747 94.9156 58.8979 94.7485 59.0122 94.5813C61.9594 90.1738 65.8039 84.7897 69.4461 77.6461C70.2818 76.0538 71.0296 74.523 71.6103 73.1154C72.666 70.7225 73.6953 68.1624 74.6542 65.4Z" fill="#F89E1C"/>
<path d="M59.5665 82.5454C62.0034 77.83 57.1736 74.5925 51.8071 77.698C45.4113 81.393 41.6284 79.7302 37.3616 72.657C33.8954 66.9035 28.828 68.3902 27.0509 69.1468C27.6052 70.5456 28.1682 71.9004 28.7488 73.1937C29.3295 74.5925 30.0773 76.132 30.913 77.7244C34.5552 84.868 38.3997 90.2521 41.3469 94.6596C41.4612 94.8268 41.5844 94.9939 41.7076 95.1523C43.6606 97.9763 46.9157 99.3223 50.206 99.2783C53.4874 99.3311 56.7513 97.9763 58.7044 95.1523C58.8275 94.9939 58.9507 94.8268 59.0651 94.6596C60.024 93.2168 61.0885 91.6772 62.197 89.9969C59.6457 89.5834 57.2088 87.1025 59.5665 82.5454Z" fill="#032663"/>
<path d="M49.9861 99.4267C46.5111 99.4267 43.3616 97.8696 41.5405 95.2303C41.4173 95.072 41.2941 94.9048 41.1798 94.7289C40.7575 94.0954 40.3088 93.4356 39.8513 92.7582C37.1769 88.8081 33.8602 83.8991 30.7371 77.7761C29.8486 76.0869 29.1184 74.5562 28.5641 73.2365C27.9747 71.9257 27.4029 70.5621 26.8662 69.1897L26.8134 69.0489L26.9542 68.9873C28.9512 68.134 33.9746 66.7792 37.4584 72.5679C41.822 79.8083 45.5433 81.1103 51.6928 77.5561C54.9655 75.6647 57.8423 76.1661 59.2411 77.5033C60.5255 78.735 60.6927 80.644 59.6721 82.6147C58.6428 84.6117 58.4581 86.38 59.1443 87.7348C59.6985 88.8257 60.8334 89.6087 62.1794 89.8286L62.4258 89.8638L62.285 90.0662C61.6604 91.0075 61.0534 91.9049 60.4639 92.767C60.0065 93.4444 59.5666 94.0954 59.1443 94.7201C59.0299 94.896 58.9068 95.0632 58.7836 95.2215C56.9361 97.896 53.725 99.4707 50.162 99.4091C50.1005 99.4267 50.0389 99.4267 49.9861 99.4267ZM50.162 99.11C53.6195 99.1628 56.7338 97.6496 58.5285 95.0544C58.6516 94.8872 58.7748 94.7289 58.8804 94.5617C59.3026 93.9283 59.7425 93.2773 60.2 92.5999C60.7454 91.7993 61.2997 90.9635 61.8803 90.1014C60.5343 89.8198 59.417 89.0017 58.854 87.8844C58.3437 86.8727 58.0182 85.1132 59.3906 82.4739L59.5314 82.5443L59.3906 82.4739C60.3408 80.6352 60.2088 78.8669 59.0211 77.7409C57.7015 76.4828 54.9743 76.0253 51.8512 77.8376C45.5873 81.4622 41.6109 80.081 37.1857 72.7439C33.9042 67.307 29.224 68.4155 27.2181 69.2337C27.7372 70.5533 28.2914 71.8641 28.8545 73.131C29.3999 74.4506 30.1301 75.9638 31.0186 77.6529C34.133 83.7584 37.4496 88.6586 40.1153 92.5999C40.5727 93.2773 41.0214 93.9371 41.4437 94.5705C41.5581 94.7377 41.6724 94.896 41.7956 95.0632C43.5903 97.6496 46.7222 99.1716 50.162 99.11Z" fill="#10319B"/>
<path d="M18.7629 55.3194C17.5049 58.8208 15.156 67.3104 17.2058 77.7618C17.4081 78.7823 18.7277 79.0726 19.3436 78.2369L19.8274 77.5859C24.71 70.9701 24.9652 62.0143 20.4696 55.1258C20.0386 54.4572 19.0357 54.5716 18.7629 55.3194Z" fill="#F5851F"/>
<path d="M50.3114 99.4288C50.2498 99.4288 50.197 99.4288 50.1354 99.4288C46.5988 99.4816 43.3614 97.9157 41.5139 95.2324C41.3907 95.0741 41.2676 94.9069 41.1532 94.7309C40.7309 94.0975 40.2822 93.4377 39.8248 92.7603C37.1503 88.8102 33.8337 83.9012 30.7105 77.7781C29.822 76.089 29.0918 74.5583 28.5376 73.2386C27.4115 70.7137 26.3822 68.1185 25.476 65.5144C24.0508 61.4236 24.693 57.06 27.2267 53.5586C29.7516 50.0748 33.6577 48.1217 37.9685 48.1833L41.4259 48.2361H41.4963L50.1354 48.3769L58.7746 48.2361H58.8186L62.3112 48.1833C66.622 48.1129 70.5281 50.0748 73.053 53.5586C75.5866 57.06 76.2289 61.4236 74.8037 65.5144C73.8975 68.1185 72.8682 70.7225 71.7421 73.2474C71.1967 74.5671 70.4665 76.0978 69.5691 77.7869C66.446 83.9012 63.1206 88.819 60.4549 92.7691C59.9975 93.4465 59.5488 94.1063 59.1265 94.7397C59.0121 94.9157 58.889 95.0829 58.7658 95.2412C56.9447 97.8717 53.7952 99.4288 50.3114 99.4288ZM50.1354 99.1121C53.5929 99.1649 56.7072 97.6517 58.5019 95.0565C58.625 94.8893 58.7482 94.7309 58.8538 94.5638C59.2761 93.9304 59.7247 93.2706 60.1822 92.5932C62.8479 88.6519 66.1645 83.7429 69.2788 77.6462C70.1674 75.9659 70.8888 74.4439 71.443 73.1331C72.5691 70.617 73.5984 68.0217 74.4958 65.4264C75.8858 61.4324 75.2611 57.1744 72.789 53.7609C70.3257 50.3651 66.4988 48.456 62.3112 48.5176L58.8538 48.5704H58.8098L50.1442 48.7112L41.4963 48.5704H41.4259L37.9597 48.5176C33.7721 48.456 29.9452 50.3651 27.4819 53.7609C25.0098 57.1832 24.3851 61.4324 25.7751 65.4264C26.6725 68.0217 27.7018 70.617 28.8279 73.1331C29.3733 74.4527 30.1035 75.9659 30.9921 77.655C34.1064 83.7605 37.423 88.6607 40.0887 92.602C40.5462 93.2794 40.9948 93.9392 41.4171 94.5726C41.5315 94.7397 41.6458 94.8981 41.769 95.0653C43.5725 97.6517 46.7044 99.1737 50.1354 99.1121Z" fill="#10319B"/>
<path d="M70.5015 52.9598C68.2758 51.0331 65.443 49.8719 62.2759 49.9335L58.8008 49.995C58.7744 49.995 58.7568 49.995 58.7305 49.995L50.0473 50.1446L41.3642 49.995C41.3378 49.995 41.3202 49.995 41.2938 49.995L37.8188 49.9335C32.9977 49.8543 30.3761 53.3205 28.1063 57.2882C27.5961 58.1855 28.0975 59.3468 29.074 59.5403C37.2997 61.1679 56.012 62.989 70.5015 52.9598Z" fill="#E26907"/>
<path d="M47.8827 76.1679C47.0558 76.1679 46.22 75.9655 45.4546 75.552C43.8271 74.6723 42.8242 73.0447 42.7626 71.1973L42.4459 60.6051C42.3931 58.7576 43.2992 57.0685 44.874 56.1007C46.4488 55.1242 48.3578 55.0714 49.9854 55.9512L59.3899 61.0097C60.9646 61.8543 61.9588 63.4203 62.0555 65.2062C62.1523 66.9921 61.3253 68.6548 59.8562 69.6577C59.8122 69.6929 59.7594 69.7193 59.7154 69.7545L59.6538 69.7897L50.5748 75.4025C49.739 75.9039 48.8065 76.1679 47.8827 76.1679ZM47.5572 55.96C46.7479 55.96 45.9297 56.1887 45.1995 56.6374C43.8183 57.4907 43.0265 58.9687 43.0793 60.5875L43.396 71.1797C43.4488 72.7984 44.3286 74.2236 45.7537 74.989C47.1789 75.7544 48.8593 75.7104 50.2317 74.857L59.3723 69.209C59.4163 69.1826 59.4603 69.1562 59.4955 69.1298C60.7799 68.2501 61.5013 66.7985 61.4133 65.2326C61.3341 63.6754 60.4632 62.303 59.082 61.564L49.6774 56.5054C49.0088 56.1359 48.2786 55.96 47.5572 55.96Z" fill="#F89E1C"/>
<path d="M47.8392 76.248C47.021 76.248 46.1941 76.0457 45.4287 75.6322C43.8099 74.7613 42.8158 73.1513 42.763 71.3126L42.4375 60.4565C42.3847 58.6266 43.2821 56.9551 44.8392 55.9874C46.3964 55.0197 48.2967 54.9669 49.9154 55.8378L59.5487 61.0284C61.1058 61.8641 62.0912 63.4213 62.1879 65.1896C62.2847 66.9579 61.4665 68.6118 60.0149 69.6059C59.971 69.6411 59.9182 69.6675 59.8742 69.7027L59.8126 69.7379L50.5048 75.4915C49.6779 75.9929 48.7629 76.248 47.8392 76.248ZM47.5049 55.5475C46.6427 55.5475 45.7806 55.785 45.0064 56.2689C43.546 57.175 42.7014 58.741 42.7542 60.4565L43.0797 71.3126C43.1325 73.0282 44.0651 74.5413 45.5782 75.3595C47.0914 76.1777 48.8685 76.1249 50.3377 75.2187L59.6982 69.43C59.7422 69.4036 59.7862 69.3684 59.8302 69.342C61.1938 68.4095 61.9592 66.8699 61.8712 65.2072C61.7832 63.5532 60.8595 62.0929 59.3991 61.3099L49.7658 56.1193C49.0532 55.741 48.2791 55.5475 47.5049 55.5475Z" fill="#10319B"/>
<path d="M20.4703 55.1243C20.0392 54.4645 19.0363 54.5788 18.7635 55.3178C17.6551 58.3969 15.702 65.3382 16.6521 74.0741C16.8017 66.2883 20.0216 58.8368 21.2093 56.3471C20.9717 55.9336 20.7342 55.5202 20.4703 55.1243Z" fill="#F89E1C"/>
<path d="M17.0127 72.6489C16.6256 72.6489 16.3881 72.5786 16.3529 72.5698L16.5377 71.9627L16.4409 72.2619L16.5289 71.9539C16.5641 71.9627 20.3734 72.7897 23.5141 64.5552L23.6812 65.7957C21.1212 72.2795 18.3236 72.6489 17.0127 72.6489Z" fill="#F89E1C"/>
<path d="M16.7843 75.262C16.7843 75.262 20.1097 76.8984 22.661 71.8046C22.661 71.8046 20.5496 78.13 18.2974 78.6403C18.2974 78.6403 16.837 78.9658 16.7843 75.262Z" fill="#032663"/>
<path d="M18.394 78.8769C18.2884 78.8769 18.1916 78.8681 18.086 78.8417C17.5582 78.7185 17.1623 78.3227 17.0567 77.786C14.9717 67.1674 17.4526 58.4931 18.6139 55.2644C18.7547 54.8685 19.1066 54.587 19.5288 54.5342C19.9511 54.4814 20.3646 54.6749 20.5933 55.0356C25.1065 61.9417 24.8425 71.0383 19.9423 77.6716L19.4585 78.3227C19.2121 78.6746 18.8162 78.8769 18.394 78.8769ZM19.6696 54.8421C19.6344 54.8421 19.608 54.8421 19.5728 54.8509C19.2649 54.8861 19.0186 55.0796 18.913 55.37C17.7605 58.581 15.2972 67.185 17.3646 77.7244C17.4438 78.1291 17.7429 78.437 18.1564 78.5338C18.5611 78.6218 18.9746 78.4722 19.2209 78.1379L19.7048 77.4869C24.5258 70.9591 24.7809 62.0033 20.3382 55.2116C20.1886 54.9741 19.9423 54.8421 19.6696 54.8421Z" fill="#10319B"/>
<path d="M17.9801 75.605C17.2323 75.605 16.7397 75.4115 16.7309 75.4027L16.854 75.1124C16.986 75.1652 20.1971 76.432 22.6164 71.7605L22.8979 71.9101C21.2792 75.0244 19.2558 75.605 17.9801 75.605Z" fill="#10319B"/>
<path d="M17.1441 72.8251C16.7658 72.8251 16.5371 72.7547 16.5019 72.7459L16.5987 72.4468C16.6339 72.4556 20.3112 73.5025 23.5487 65.7343L23.839 65.8575C21.2526 72.0597 18.3934 72.8251 17.1441 72.8251Z" fill="#10319B"/>
<path d="M48.4722 73.7302C47.8388 73.7302 47.2054 73.5718 46.6159 73.2551C45.3667 72.5865 44.6013 71.3461 44.5573 69.9297L44.3198 61.9943C44.2758 60.5779 44.9708 59.2935 46.1761 58.5545C47.3813 57.8067 48.8417 57.7715 50.0822 58.4401L57.1202 62.2318C58.3254 62.8829 59.082 64.0793 59.1524 65.4429C59.2228 66.8065 58.5981 68.0822 57.4721 68.8476C57.4369 68.874 57.4017 68.8916 57.3665 68.9179L57.3225 68.9443L50.522 73.1495C49.8886 73.5278 49.1848 73.7302 48.4722 73.7302ZM48.2259 58.5985C47.6276 58.5985 47.0382 58.7656 46.5016 59.0911C45.4986 59.7157 44.918 60.789 44.9532 61.9767L45.1907 69.9121C45.2259 71.0997 45.8681 72.1378 46.915 72.7009C47.9532 73.2639 49.1848 73.2287 50.1877 72.6041L57.0234 68.3725C57.0586 68.3549 57.085 68.3285 57.1114 68.3109C58.0527 67.6687 58.5718 66.6042 58.5102 65.4693C58.4486 64.3344 57.8152 63.3315 56.8123 62.7861L49.7742 58.9944C49.2904 58.7304 48.7625 58.5985 48.2259 58.5985Z" fill="#F89E1C"/>
<path d="M57.1296 68.5771C57.1648 68.5595 57.2 68.5331 57.2264 68.5155C59.3642 67.0551 59.2146 63.8264 56.9097 62.586L50.03 58.8734C47.6459 57.589 44.7779 59.3661 44.8571 62.0757L45.0858 69.8263C45.165 72.5272 48.1474 74.1283 50.4435 72.7119L57.0944 68.6035C57.1032 68.5947 57.1208 68.5859 57.1296 68.5771Z" fill="#032663"/>
<path d="M54.2523 67.3777C54.2699 67.3689 54.2875 67.3513 54.305 67.3425C55.5103 66.5243 55.4223 64.7033 54.1203 63.9995L50.2406 61.9144C48.8946 61.193 47.2758 62.196 47.3286 63.7179L47.4606 68.0903C47.5046 69.6123 49.1849 70.5184 50.4781 69.7178L54.2259 67.4041C54.2347 67.3953 54.2435 67.3865 54.2523 67.3777Z" fill="#33FCFE"/>
<path d="M71.8303 55.9431C70.757 57.1659 64.502 60.2715 64.502 60.2715C64.502 60.2715 66.6486 61.8814 66.6838 65.286C66.7101 67.8285 64.3084 70.1071 64.3084 70.1071C66.4726 72.3153 65.6544 76.2125 64.0533 79.1685C62.4522 82.1245 63.8686 82.9866 63.8686 82.9866C63.8686 82.9866 73.2291 68.9986 74.0473 61.1424C74.3816 57.9489 71.8303 55.9431 71.8303 55.9431Z" fill="#F4B821"/>
<path d="M29.5403 70.741C29.5403 70.741 31.9684 70.3363 33.2705 71.9814C34.5725 73.6265 42.3143 88.2216 45.9213 93.4386C46.5723 94.3799 48.2438 97.6086 50.1001 96.9664C50.1001 96.9664 47.5136 98.4355 43.7043 94.5998C39.9038 90.7553 31.7749 75.3685 29.5403 70.741Z" fill="#0E51A0"/>
<path d="M23.769 8.83024C25.5746 7.55731 27.7322 6.47397 30.1156 5.57119L29.9621 5.6073C29.9621 5.6073 37.6177 1.37325 49.0379 1.37325C60.422 1.37325 68.1679 5.48091 68.213 5.50799C70.6686 6.41981 72.8714 7.5212 74.7221 8.82121C83.6326 15.0956 82.9013 28.5741 78.9923 41.2763C76.1666 50.5208 62.7061 54.7278 49.2546 54.5201C35.8031 54.7278 22.3426 50.5208 19.4988 41.2763C15.5898 28.5831 14.8585 15.1046 23.769 8.83024Z" fill="#F89E1C"/>
<path d="M23.769 8.87579C24.7169 8.20773 25.7641 7.59384 26.8836 7.02509C18.1537 13.3717 18.894 26.778 22.7759 39.417C25.6197 48.6795 39.0712 52.8865 52.5317 52.6879C60.1782 52.8052 67.8248 51.4872 73.5304 48.6344C67.7255 52.8594 58.49 54.8094 49.2455 54.665C35.7941 54.8726 22.3336 50.6566 19.4898 41.3941C15.5898 28.6738 14.8585 15.1682 23.769 8.87579Z" fill="#F5851F"/>
<path d="M27.9307 20.1789C22.4689 19.0414 22.1078 10.3386 22.0897 9.9594L22.7397 9.94135C22.7397 10.0226 23.1008 18.5088 28.0571 19.5379L27.9307 20.1789Z" fill="#F89E1C"/>
<path d="M69.3954 20.5123L69.2149 19.8894C74.6496 18.3095 74.9656 9.48028 74.9656 9.39L75.6156 9.40805C75.6066 9.78722 75.2816 18.806 69.3954 20.5123Z" fill="#F4B821"/>
<path d="M49.444 9.11017C46.3835 9.11017 43.5398 8.10808 41.8786 6.41988C41.8245 6.36571 41.7703 6.31154 41.7161 6.24835L38.737 2.88999L39.4682 2.23999L42.4474 5.58932C42.4835 5.63446 42.5286 5.6796 42.5738 5.72473C44.1898 7.3678 47.0967 8.27058 50.1752 8.10808C53.1634 7.94558 55.7635 6.80807 57.1267 5.08376L59.2572 2.37541L60.0246 2.98027L57.894 5.68862C56.3683 7.63864 53.4975 8.90253 50.2294 9.08309C49.9586 9.10115 49.7058 9.11017 49.444 9.11017Z" fill="#F4B821"/>
<path d="M49.4261 12.6403C45.3726 12.6403 41.6983 11.277 39.3601 8.8937C39.2788 8.81245 39.1885 8.72217 39.1073 8.63189L39.017 8.53259L34.9274 3.93742L35.6587 3.28741L39.8295 7.98189C39.9017 8.06314 39.974 8.14439 40.0552 8.21661C42.2129 10.4013 45.6344 11.6652 49.4261 11.6652C49.7331 11.6652 50.049 11.6562 50.365 11.6382C54.4095 11.4125 57.8852 9.82357 59.8894 7.26869L62.9318 3.39575L63.6991 4.00061L60.6567 7.87355C58.481 10.6451 54.7435 12.3694 50.4192 12.6132C50.0942 12.6312 49.7601 12.6403 49.4261 12.6403Z" fill="#F4B821"/>
<path d="M74.2164 11.2046C72.3657 9.89552 70.1629 8.77607 67.7074 7.86426C67.6532 7.83717 59.8893 3.10659 48.5052 3.10659C41.0121 3.09756 34.4669 4.35243 30.8377 5.21007C33.1398 4.12673 39.8746 1.37325 49.0468 1.37325C60.4309 1.37325 68.1768 5.51702 68.222 5.5441C70.6775 6.46494 72.8803 7.57537 74.731 8.8844C82.6755 14.5268 82.9554 25.947 80.1477 37.4304C82.3686 26.7595 81.6283 16.4678 74.2164 11.2046Z" fill="#F4B821"/>
<path d="M69.928 20.0698L69.8648 19.7538C74.9565 18.6976 75.5072 9.63364 75.5162 9.54337L75.8412 9.56142C75.8141 9.94059 75.2634 18.9594 69.928 20.0698Z" fill="#10319B"/>
<path d="M60.2686 7.54006L63.311 3.66711C62.2457 3.32406 61.0089 2.97197 59.6276 2.64697L57.4971 5.35532C56.0526 7.197 53.3172 8.38867 50.1935 8.56923C46.9796 8.74979 43.9282 7.78381 42.222 6.04143C42.1678 5.98727 42.1226 5.94213 42.0775 5.88796L39.0983 2.53864C37.681 2.85461 36.408 3.21572 35.2976 3.56781L39.3872 8.16298L39.4775 8.26228C39.5587 8.34353 39.631 8.43381 39.7122 8.51506C41.9602 10.7991 45.5352 12.1081 49.4262 12.1081C49.7421 12.1081 50.0671 12.0991 50.3921 12.0811C54.572 11.8644 58.1741 10.2033 60.2686 7.54006Z" fill="#032663"/>
<path d="M28.4631 20.0708C23.1277 18.9604 22.5408 10.0319 22.5138 9.65268L22.8388 9.63463C22.8478 9.72491 23.4346 18.6986 28.5263 19.7548L28.4631 20.0708Z" fill="#10319B"/>
<path d="M49.1822 54.403C42.5287 54.5023 35.8842 53.5814 30.3773 51.5592C29.0953 50.187 28.0752 48.4175 27.4793 46.3592C25.9536 41.0779 24.2383 33.6931 23.5793 25.3965C23.2543 21.316 25.5564 17.6145 28.8606 16.8201C33.3655 15.7368 40.3169 14.4819 48.5684 14.3555V14.3465C48.8031 14.3465 49.0288 14.3555 49.2635 14.3555C49.4982 14.3555 49.7239 14.3465 49.9586 14.3465V14.3555C58.2101 14.4819 64.999 15.5291 69.5039 16.6125C72.8081 17.4069 75.2727 21.316 74.9477 25.3965C74.2887 33.6931 72.5734 41.0779 71.0477 46.3592C70.4609 48.3724 69.4768 50.1057 68.231 51.4779C62.6608 53.5543 55.917 54.5023 49.1822 54.403Z" fill="#032663"/>
<path d="M72.1579 49.4193L70.8488 50.1325C71.0926 49.4102 71.4989 48.1915 71.7697 47.3338C72.4919 45.0769 73.3134 42.513 74.0447 40.7977C75.2274 38.0261 78.5135 35.9317 80.6711 34.8844L80.301 36.3018C78.2878 37.2858 76.0037 38.6852 74.9385 41.1859C74.2253 42.865 73.4128 45.4019 72.6905 47.6408C72.4287 48.4894 72.4016 48.697 72.1579 49.4193Z" fill="#F4B821"/>
<path d="M26.7479 49.6268C26.6757 49.6268 26.6125 49.5817 26.5945 49.5185C26.3778 48.8775 26.1521 48.1733 25.9174 47.4601C25.2132 45.2844 24.4097 42.8108 23.6604 41.0504C22.568 38.4955 20.2208 37.0781 18.0632 36.0219C17.9819 35.9858 17.9458 35.8865 17.9909 35.8052C18.027 35.724 18.1264 35.6878 18.2076 35.733C20.4194 36.8073 22.8299 38.2698 23.9674 40.924C24.7257 42.7025 25.5292 45.1761 26.2333 47.3608C26.4681 48.074 26.6938 48.7692 26.9014 49.4192C26.9285 49.5004 26.8834 49.5997 26.8021 49.6268C26.784 49.6268 26.766 49.6268 26.7479 49.6268Z" fill="#F89E1C"/>
<path d="M80.4096 36.2566C80.0214 37.9358 79.57 39.624 79.0555 41.2941C77.9992 44.7427 75.4985 47.4872 72.0769 49.5817C72.9617 46.9365 73.702 43.9844 74.695 41.6462C75.8777 38.8927 78.5048 37.1774 80.4096 36.2566Z" fill="#032663"/>
<path d="M78.0892 41.5021C78.4503 40.5271 78.7843 39.5521 79.1003 38.5681C78.0892 39.2181 77.051 40.157 76.419 41.466C75.7419 42.8563 75.1461 44.5716 74.5322 46.2056C76.1392 44.9688 77.376 43.407 78.0892 41.5021Z" fill="#0E51A0"/>
<path d="M72.2844 49.5645L71.9774 49.4652C72.2844 48.5534 72.5733 47.5874 72.8531 46.6575C73.3858 44.8881 73.9455 43.0645 74.5955 41.5207C75.7691 38.7582 78.3962 37.0248 80.3824 36.0498L80.5268 36.3387C78.5858 37.2866 76.04 38.9658 74.8934 41.6381C74.2434 43.1638 73.6927 44.9784 73.1601 46.7388C72.8802 47.6867 72.5913 48.6527 72.2844 49.5645Z" fill="#10319B"/>
<path d="M18.0633 36.2566C18.4515 37.9358 18.9029 39.624 19.4175 41.2941C20.4737 44.7427 22.9745 47.4872 26.396 49.5817C25.5113 46.9365 24.771 43.9844 23.7779 41.6462C22.6043 38.8927 19.9682 37.1774 18.0633 36.2566Z" fill="#032663"/>
<path d="M50.1388 54.6647C49.8409 54.6647 49.5429 54.6647 49.254 54.6557C37.4005 54.8363 22.4685 51.4508 19.3448 41.3126C16.5462 32.2306 13.3955 15.9263 23.6782 8.68599L23.7685 8.8214L23.6782 8.68599C25.4747 7.42209 29.8352 5.49916 30.0248 5.41791C30.088 5.3818 37.7165 1.21094 49.0464 1.21094C60.4124 1.21094 68.2215 5.3186 68.3028 5.36374C70.8215 6.29361 73.0243 7.41306 74.8299 8.68599C85.1126 15.9263 81.9619 32.2306 79.1633 41.3036C76.1119 51.1981 61.8298 54.6647 50.1388 54.6647ZM49.245 54.3307C49.5339 54.3307 49.8318 54.3397 50.1297 54.3397C61.7125 54.3397 75.85 50.9362 78.8473 41.2133C81.6188 32.2215 84.7515 16.0798 74.6403 8.95682C72.8528 7.70195 70.6771 6.59153 68.1674 5.66166C68.0681 5.60749 60.3222 1.54497 49.0464 1.54497C37.8068 1.54497 30.2414 5.67069 30.1692 5.71583C30.115 5.74291 25.6463 7.71098 23.8678 8.95682C13.7476 16.0708 16.8893 32.2215 19.6518 41.2133C22.7212 51.18 37.5179 54.5113 49.245 54.3307Z" fill="#10319B"/>
<path d="M49.2541 52.9772C43.5485 53.0584 37.852 52.3452 32.995 50.7834C32.2457 50.5396 31.5686 50.0883 31.0991 49.4563C30.2957 48.391 29.6637 47.1362 29.2394 45.7368C27.8311 40.9882 26.2512 34.3347 25.6463 26.8687C25.3484 23.1943 27.4699 19.8631 30.5123 19.1499C34.6651 18.1749 41.0749 17.0464 48.6854 16.929V16.92C48.902 16.92 49.1097 16.92 49.3263 16.929C49.543 16.929 49.7506 16.92 49.9673 16.92V16.929C57.5778 17.0464 63.9785 18.1749 68.1403 19.1499C71.1917 19.8631 73.3043 23.1943 73.0063 26.8687C72.3924 34.3347 70.8216 40.9882 69.4133 45.7368C68.998 47.1271 68.3751 48.3639 67.5806 49.4202C67.1292 50.0251 66.4973 50.4584 65.7841 50.6931C60.8549 52.3272 55.059 53.0674 49.2541 52.9772Z" fill="#FCE8CA"/>
<path d="M48.1713 54.4751C41.59 54.4751 35.433 53.4911 30.3142 51.6133L30.2781 51.6042L30.251 51.5771C28.9149 50.1417 27.9038 48.3181 27.317 46.3049C25.9177 41.4479 24.094 33.8555 23.4079 25.27C23.0739 21.0902 25.394 17.3256 28.8156 16.504C33.4108 15.4026 53.8137 12.1707 69.6936 16.504C73.0971 17.4339 75.4173 21.1985 75.0923 25.27C74.4062 33.8555 72.5916 41.4479 71.1832 46.3049C70.6145 48.282 69.6214 50.0785 68.3304 51.4959L68.3033 51.523L68.2672 51.541C62.9228 53.5452 56.1429 54.5924 49.1734 54.4841C48.8393 54.4751 48.5053 54.4751 48.1713 54.4751ZM49.1824 54.1411C56.0977 54.2494 62.8144 53.2112 68.1228 51.2341C69.3686 49.8528 70.3256 48.1195 70.8763 46.2056C72.2756 41.3667 74.0902 33.7923 74.7673 25.2339C75.0833 21.3159 72.8624 17.6957 69.6034 16.811C53.7866 12.4957 33.4649 15.7186 28.8878 16.811C25.6288 17.5964 23.4079 21.2165 23.7329 25.2339C24.419 33.7923 26.2246 41.3667 27.6239 46.2056C28.1927 48.1646 29.1677 49.9341 30.4587 51.3244C35.7219 53.2383 42.3664 54.2494 49.1824 54.1411Z" fill="#10319B"/>
<path d="M26.2515 49.4558C25.9536 48.5711 25.6738 47.6503 25.4029 46.7565C24.8703 45.0051 24.3105 43.1995 23.6515 41.6467C22.514 38.9745 19.9591 37.2863 18.0181 36.3474L18.1626 36.0585C20.1487 37.0245 22.7668 38.7578 23.9494 41.5294C24.6175 43.0912 25.1772 44.9148 25.7099 46.6662C25.9807 47.56 26.2606 48.4808 26.5585 49.3565L26.2515 49.4558Z" fill="#10319B"/>
<path d="M75.6338 36.1856L79.8137 33.7481C79.8137 33.7481 81.0054 21.7411 77.1234 16.2793L76.0039 19.7189C76.0039 19.7189 77.8005 22.3279 75.6338 36.1856Z" fill="#F4B821"/>
<ellipse cx="49.4979" cy="44.8533" rx="2.2238" ry="3.05773" fill="#032663"/>
<path d="M35.1733 28.8323C35.2263 28.8234 35.2793 28.7969 35.3235 28.7527C36.0041 28.1606 36.8967 27.9219 37.7806 28.1075C37.975 28.1517 38.1606 28.028 38.196 27.8335C38.2401 27.6391 38.1164 27.4535 37.922 27.4181C36.8172 27.1883 35.7036 27.48 34.8551 28.2224C34.7048 28.355 34.696 28.5759 34.8197 28.7262C34.917 28.8234 35.0495 28.8588 35.1733 28.8323Z" fill="#032663"/>
<path d="M63.562 28.8324C63.509 28.8235 63.456 28.797 63.4118 28.7528C62.7312 28.1607 61.8386 27.922 60.9548 28.1076C60.7603 28.1518 60.5747 28.0281 60.5394 27.8336C60.4952 27.6392 60.6189 27.4536 60.8134 27.4182C61.9181 27.1885 63.0318 27.4801 63.8802 28.2225C64.0305 28.3551 64.0393 28.5761 63.9156 28.7263C63.8272 28.8235 63.6858 28.8589 63.562 28.8324Z" fill="#032663"/>
<path d="M44.0661 37.9249C43.9954 38.1193 43.9071 38.3137 43.801 38.4905L37.5789 39.0208C37.4463 38.8617 37.3314 38.6849 37.2342 38.4993L44.0661 37.9249Z" fill="#0052A3"/>
<path d="M44.2691 37.1562C44.2426 37.3506 44.1984 37.5362 44.1454 37.713L37.1278 38.314C37.0482 38.1461 36.9775 37.9693 36.9157 37.7837L44.2691 37.1562Z" fill="#0052A3"/>
<path d="M44.2692 35.6369L44.3045 36.1849L36.7301 36.8301L36.6859 36.2909L44.2692 35.6369Z" fill="#0052A3"/>
<path d="M44.3134 36.3956C44.3223 36.5812 44.3134 36.7668 44.2957 36.9436L36.8451 37.58C36.8009 37.4032 36.7656 37.2264 36.7479 37.0408L44.3134 36.3956Z" fill="#0052A3"/>
<path d="M42.9519 39.5342C42.6426 39.7993 42.2979 40.0114 41.9179 40.1705L39.7171 40.3561C39.3194 40.2677 38.9394 40.1087 38.5947 39.9054L42.9519 39.5342Z" fill="#0052A3"/>
<path d="M43.0933 30.9873L37.1187 31.4999C37.2513 31.2878 37.4104 31.0933 37.5783 30.9166L42.5542 30.4923C42.7487 30.6337 42.9343 30.8017 43.0933 30.9873Z" fill="#0052A3"/>
<path d="M43.6682 38.7214C43.5268 38.9336 43.3677 39.128 43.1998 39.3048L38.3034 39.7202C38.1001 39.5699 37.9145 39.402 37.7466 39.2164L43.6682 38.7214Z" fill="#0052A3"/>
<path d="M41.2194 29.8472C41.5995 29.9445 41.953 30.0947 42.28 30.3068L37.8167 30.6869C38.1084 30.4306 38.4354 30.2185 38.7978 30.0594L41.2194 29.8472Z" fill="#0052A3"/>
<path d="M43.7032 31.9067C43.7827 32.0746 43.8534 32.2514 43.9065 32.437L36.5265 33.0645C36.553 32.8701 36.5972 32.6845 36.6503 32.5077L43.7032 31.9067Z" fill="#0052A3"/>
<path d="M43.9687 32.6412C44.0129 32.818 44.0482 32.9947 44.0659 33.1803L36.5004 33.8255C36.4915 33.6399 36.4915 33.4543 36.5092 33.2775L43.9687 32.6412Z" fill="#0052A3"/>
<path d="M43.2705 31.1821C43.3942 31.3412 43.5091 31.518 43.6063 31.7036L36.7302 32.2869C36.8009 32.0925 36.8804 31.898 36.9865 31.7213L43.2705 31.1821Z" fill="#0052A3"/>
<path d="M44.1453 34.1344L44.1895 34.6824L36.6151 35.3276L36.5709 34.7796L44.1453 34.1344Z" fill="#0052A3"/>
<path d="M44.0924 33.3831L44.1277 33.9311L36.5533 34.5763L36.5091 34.0283L44.0924 33.3831Z" fill="#0052A3"/>
<path d="M44.2072 34.8857L44.2514 35.4336L36.6682 36.0788L36.6329 35.5308L44.2072 34.8857Z" fill="#0052A3"/>
<path d="M61.8331 38.3321C61.7359 38.5177 61.6298 38.7033 61.5061 38.8712L55.2574 38.6767C55.1514 38.5 55.0541 38.3144 54.9746 38.1199L61.8331 38.3321Z" fill="#0052A3"/>
<path d="M62.1246 37.5896C62.0716 37.7752 62.0097 37.952 61.9302 38.1288L54.8861 37.9167C54.8242 37.7399 54.7712 37.5543 54.7359 37.3687L62.1246 37.5896Z" fill="#0052A3"/>
<path d="M62.2925 36.0786L62.266 36.6265L54.6651 36.3967L54.6916 35.8488L62.2925 36.0786Z" fill="#0052A3"/>
<path d="M62.2568 36.8387C62.2392 37.0243 62.2215 37.201 62.1773 37.3778L54.709 37.148C54.6825 36.9712 54.6736 36.7856 54.6736 36.6L62.2568 36.8387Z" fill="#0052A3"/>
<path d="M60.5334 39.7997C60.1975 40.0295 59.8263 40.1975 59.4286 40.3124L57.219 40.2416C56.8302 40.1091 56.4766 39.9058 56.1584 39.6672L60.5334 39.7997Z" fill="#0052A3"/>
<path d="M61.6649 31.3237L55.6726 31.1469C55.8317 30.9525 56.0085 30.7757 56.1941 30.6166L61.1788 30.7669C61.3644 30.9348 61.5235 31.1204 61.6649 31.3237Z" fill="#0052A3"/>
<path d="M61.3466 39.0747C61.1876 39.2691 61.002 39.4459 60.8075 39.6049L55.9023 39.4547C55.7167 39.2868 55.5576 39.1012 55.4073 38.8979L61.3466 39.0747Z" fill="#0052A3"/>
<path d="M59.9325 29.9716C60.2949 30.113 60.6396 30.3075 60.9401 30.5461L56.4591 30.4047C56.7773 30.1837 57.1308 30.007 57.502 29.8921L59.9325 29.9716Z" fill="#0052A3"/>
<path d="M62.169 32.3041C62.2309 32.4809 62.2751 32.6665 62.3104 32.8521L54.9128 32.6223C54.9658 32.4367 55.0277 32.2599 55.0984 32.0832L62.169 32.3041Z" fill="#0052A3"/>
<path d="M62.3455 33.0641C62.372 33.2408 62.3808 33.4264 62.3808 33.612L54.7888 33.3822C54.7976 33.1966 54.8241 33.0199 54.8595 32.8431L62.3455 33.0641Z" fill="#0052A3"/>
<path d="M61.8148 31.5356C61.9209 31.7124 62.0093 31.898 62.0888 32.0925L55.195 31.8803C55.2922 31.6947 55.3894 31.5091 55.5132 31.3412L61.8148 31.5356Z" fill="#0052A3"/>
<path d="M62.3451 34.576L62.3274 35.1152L54.7266 34.8854L54.7442 34.3463L62.3451 34.576Z" fill="#0052A3"/>
<path d="M62.381 33.8243L62.3544 34.3634L54.7536 34.1336L54.7801 33.5857L62.381 33.8243Z" fill="#0052A3"/>
<path d="M62.3187 35.3267L62.3011 35.8747L54.7002 35.636L54.7178 35.0969L62.3187 35.3267Z" fill="#0052A3"/>
<path d="M80.7317 64.3867C77.5283 60.4918 69.2747 51.8649 55.684 46.9976C54.3554 46.5249 53.1015 47.8597 53.6471 49.1568L54.0692 50.1719C58.3828 60.4481 68.6325 66.961 79.7725 66.508C80.8501 66.4702 81.413 65.2232 80.7317 64.3867Z" fill="#F5851F"/>
<path d="M79.771 66.5087C80.8384 66.4648 81.4013 65.2178 80.7302 64.3873C77.9147 60.9597 71.189 53.8683 60.3588 48.9114C69.3195 54.4892 75.7601 63.4096 77.8344 66.5203C78.4807 66.5308 79.1269 66.5412 79.771 66.5087Z" fill="#F89E1C"/>
<path d="M61.7683 50.3193C62.0369 49.8687 62.2837 49.641 62.3184 49.6061L62.8969 50.2425L62.6158 49.9222L62.9133 50.2384C62.8786 50.2732 59.272 54.1343 66.6791 63.5059L65.1189 62.8396C59.347 55.359 60.8585 51.8455 61.7683 50.3193Z" fill="#F89E1C"/>
<path d="M58.8856 48.2409C58.8856 48.2409 54.6725 50.9769 58.8322 57.4825C58.8322 57.4825 52.9333 50.6342 53.9023 47.6579C53.9023 47.6579 54.5369 45.7318 58.8856 48.2409Z" fill="#032663"/>
<path d="M53.5591 47.6051C53.6324 47.4822 53.7098 47.3756 53.8138 47.271C54.3236 46.742 55.0592 46.5558 55.7573 46.8054C69.567 51.7478 77.9442 60.6565 80.8972 64.2494C81.2604 64.6881 81.3439 65.2931 81.1123 65.8214C80.8807 66.3497 80.3684 66.6967 79.7897 66.7127C68.617 67.1739 58.2095 60.5532 53.8877 50.2443L53.4656 49.2291C53.2269 48.6981 53.2661 48.0967 53.5591 47.6051ZM80.6561 65.7716C80.6806 65.7306 80.6989 65.6999 80.7131 65.6528C80.8858 65.2699 80.8314 64.8488 80.5667 64.5244C77.6281 60.954 69.3206 52.1145 55.6153 47.2066C55.0892 47.0179 54.5231 47.1525 54.1234 47.5667C53.7402 47.9768 53.6273 48.562 53.8455 49.0808L54.2677 50.096C58.5215 60.2394 68.7712 66.7522 79.7619 66.2936C80.1422 66.2843 80.4668 66.0891 80.6561 65.7716Z" fill="#10319B"/>
<path d="M57.6544 49.3944C58.1734 48.5238 58.7406 48.0845 58.757 48.0804L59.0095 48.4253C58.8565 48.5423 55.1529 51.4015 58.9125 57.4604L58.543 57.6844C56.0407 53.6383 56.769 50.8795 57.6544 49.3944Z" fill="#10319B"/>
<path d="M61.4726 50.3505C61.7352 49.91 61.9759 49.6926 62.0105 49.6577L62.2916 49.978C62.257 50.0128 58.4858 53.5676 65.2829 62.7283L64.938 62.9808C59.5123 55.6649 60.6056 51.8049 61.4726 50.3505Z" fill="#10319B"/>
</g>
</svg>
