<svg width="100" height="100" viewBox="0 0 100 100" fill="none" xmlns="http://www.w3.org/2000/svg">
<mask id="mask0_4_2437" style="mask-type:alpha" maskUnits="userSpaceOnUse" x="0" y="0" width="100" height="100">
<rect width="100" height="100" fill="#D9D9D9"/>
</mask>
<g mask="url(#mask0_4_2437)">
<path d="M34.2672 62.4148C32.0984 58.9555 26.368 51.1939 15.9379 45.7578C14.9189 45.229 13.7772 46.1342 14.0771 47.2196L14.3153 48.0719C16.7113 56.6885 24.2735 63.0301 33.2861 63.9758C34.1383 64.0633 34.7308 63.1478 34.2672 62.4148Z" fill="#F5851F"/>
<path d="M33.2769 63.971C34.1383 64.0624 34.7216 63.143 34.2671 62.4139C32.362 59.373 27.6926 52.9944 19.5067 47.8153C26.1326 53.2622 30.3799 61.0643 31.7216 63.7523C32.2352 63.8448 32.7566 63.919 33.2769 63.971Z" fill="#F89E1C"/>
<path d="M22.7128 59.9205L21.9393 59.4764C16.9535 50.974 20.8384 48.6751 21.0023 48.5725L21.4039 49.1483L21.2051 48.8558L21.2016 49.0389C21.1675 49.0675 17.6354 51.4543 22.7128 59.9205Z" fill="#F89E1C"/>
<path d="M18.3795 47.1101C18.3795 47.1101 14.7014 48.7822 17.3708 54.391C17.3708 54.391 13.2048 48.3285 14.3052 46.0918C14.3052 46.0918 15.1394 44.6191 18.3795 47.1101Z" fill="#032663"/>
<path d="M34.5103 63.4309C34.4865 63.4857 34.4627 63.5405 34.4298 63.5914C34.1836 63.9839 33.7354 64.1912 33.2688 64.1407C24.234 63.1962 16.5505 56.7587 14.1482 48.1067L13.91 47.2544C13.7543 46.6874 13.9452 46.0972 14.4071 45.733C14.869 45.3689 15.4904 45.3128 16.0188 45.5963C26.6094 51.1128 32.4159 59.1245 34.4184 62.3163C34.6288 62.6572 34.6649 63.0745 34.5103 63.4309ZM14.2941 46.4439C14.195 46.6724 14.173 46.9234 14.2491 47.1735L14.4873 48.0258C16.8458 56.5285 24.408 62.8701 33.2991 63.7956C33.6402 63.8351 33.9442 63.6847 34.1247 63.3939C34.3011 63.1122 34.2961 62.7734 34.1247 62.4928C32.1325 59.3273 26.3781 51.3708 15.8658 45.899C15.4574 45.6893 14.9956 45.7278 14.636 46.0061C14.4733 46.1309 14.3655 46.2795 14.2941 46.4439Z" fill="#10319B"/>
<path d="M17.4509 54.3817L17.1286 54.5242C14.5975 48.9971 18.2614 46.9823 18.3007 46.9668L18.4733 47.2696C18.3253 47.3356 15.0519 49.1508 17.4509 54.3817Z" fill="#10319B"/>
<path d="M22.0092 59.2901L21.7012 59.4496C17.0234 51.1133 20.5845 48.6848 20.7444 48.5913L20.9432 48.8838C20.9131 48.9033 17.5131 51.2606 22.0092 59.2901Z" fill="#10319B"/>
<path d="M75.4918 63.4349C76.956 54.9609 69.7164 47.4353 61.3792 48.8186L58.1555 49.3566C58.1308 49.3654 58.1114 49.363 58.0839 49.3634L50.0354 50.7001L41.941 51.7756C41.9134 51.7761 41.8969 51.7819 41.8723 51.7906L38.6301 52.2242C30.2521 53.3351 25.6795 62.621 29.7019 70.2844C31.0133 72.7907 32.3624 75.0894 33.7279 77.225C34.4871 78.4832 35.411 79.8405 36.435 81.2457C40.9213 87.5517 45.3246 92.157 48.7448 95.9441C48.8798 96.0906 49.012 96.229 49.1524 96.3644C51.3947 98.7822 54.6515 99.6202 57.7102 99.1127C60.7845 98.7014 63.6278 96.9563 65.0229 93.993C65.1109 93.8231 65.1988 93.6533 65.281 93.4669C67.3692 88.8524 70.1445 83.1716 72.468 75.8463C73.0097 74.2116 73.4725 72.6417 73.8028 71.2205C74.4351 68.7951 75.0092 66.2052 75.4918 63.4349Z" fill="#F89E1C"/>
<path d="M63.9896 81.9057C65.5522 77.0606 60.5567 74.6538 56.0106 78.3607C50.5972 82.7813 46.8096 81.7239 41.7548 75.5633C37.645 70.5581 33.1393 72.678 31.5953 73.6494C32.3187 74.9109 33.0576 76.1116 33.7932 77.2764C34.5524 78.5345 35.4763 79.8918 36.5003 81.297C40.9866 87.603 45.3899 92.2083 48.8101 95.9954C48.9451 96.1419 49.0773 96.2803 49.2177 96.4157C51.46 98.8335 54.7168 99.6715 57.7755 99.164C60.8498 98.7528 63.6931 97.0076 65.0882 94.0443C65.1762 93.8744 65.2641 93.7046 65.3463 93.5182C66.0254 92.0107 66.7853 90.3914 67.5703 88.6336C65.1365 88.6057 62.4792 86.5844 63.9896 81.9057Z" fill="#032663"/>
<path d="M59.8733 98.8203C62.2419 97.9831 64.1597 96.3153 65.1961 94.1172C65.2841 93.9473 65.3721 93.7774 65.4542 93.5911C65.7486 92.9319 66.0618 92.2476 66.3857 91.541C66.7971 90.637 67.2326 89.6966 67.6783 88.7065L67.7764 88.4867L67.5446 88.4854C66.2532 88.47 65.0728 87.8788 64.3988 86.9143C63.5578 85.7128 63.4607 83.9985 64.1164 81.9534C64.7696 79.9277 64.329 78.1313 62.9399 77.1327C61.4307 76.0564 58.6649 75.9792 55.8915 78.2362C50.6876 82.4903 47.0162 81.7618 41.8486 75.4653C37.719 70.4302 33.2248 72.4257 31.4926 73.5191L31.3727 73.5985L31.4468 73.7296C32.1586 74.9582 32.8951 76.1782 33.6446 77.3566C34.3584 78.5383 35.2711 79.8903 36.3546 81.3854C40.1985 86.7898 44.0403 91.0107 47.139 94.4118C47.6682 94.9927 48.1833 95.56 48.6732 96.1085C48.8082 96.255 48.9433 96.4016 49.0837 96.537C51.2161 98.8271 54.4628 99.8722 57.7693 99.3327C58.5013 99.2312 59.199 99.0586 59.8733 98.8203ZM67.3019 88.7932C66.8934 89.7055 66.498 90.5761 66.1103 91.4163C65.7865 92.1229 65.4732 92.8072 65.1706 93.4693C65.0938 93.6445 65.0058 93.8143 64.9178 93.9842C63.6344 96.7138 60.9508 98.5967 57.7169 99.0274C54.5014 99.5625 51.3573 98.5459 49.295 96.3235C49.1517 96.1799 49.0196 96.0416 48.8874 95.9032C48.3975 95.3548 47.8853 94.7957 47.3533 94.2066C44.2686 90.819 40.4268 86.5981 36.5888 81.2101C35.5081 79.7232 34.5983 78.3795 33.8875 77.206C33.1636 76.0741 32.4528 74.9005 31.7666 73.7183C33.5186 72.6549 37.7255 70.946 41.6068 75.671C46.8533 82.06 50.7763 82.8198 56.0726 78.4868C58.7236 76.3285 61.3317 76.3782 62.7542 77.3927C64.0286 78.3022 64.4227 79.967 63.8139 81.8568C62.9413 84.5706 63.5087 86.202 64.14 87.0983C64.8392 88.0816 66.0036 88.7063 67.3019 88.7932Z" fill="#10319B"/>
<path d="M59.8487 98.8281C62.2173 97.9909 64.135 96.3231 65.1632 94.1279C65.2512 93.958 65.3392 93.7881 65.4213 93.6018C65.7239 92.9397 66.0343 92.2472 66.3663 91.5377C68.2617 87.3984 70.6215 82.2437 72.6136 75.9701C73.192 74.2298 73.6413 72.674 73.9538 71.3331C74.6223 68.7746 75.193 66.1489 75.6452 63.5281C76.3492 59.4213 75.0952 55.3497 72.1998 52.3671C69.3156 49.3897 65.3605 48.0677 61.3583 48.7329L50.0145 50.6144L38.6256 52.1327C34.5963 52.6687 31.2409 55.0852 29.4034 58.7599C27.5635 62.4541 27.6317 66.7043 29.58 70.4102C30.8226 72.7743 32.1751 75.1088 33.6089 77.3591C34.3226 78.5408 35.2353 79.8928 36.3188 81.3879C40.1627 86.7923 44.0045 91.0132 47.1003 94.4061C47.6295 94.987 48.1445 95.5543 48.6345 96.1028C48.7695 96.2493 48.9046 96.3959 49.045 96.5313C51.1774 98.8214 54.4241 99.8665 57.7306 99.3269C58.482 99.2279 59.1825 99.0636 59.8487 98.8281ZM36.2551 53.0168C37.0282 52.7435 37.8386 52.5496 38.6698 52.4409L50.0698 50.928L61.4136 49.0464C65.3195 48.3967 69.1803 49.6874 71.9914 52.5888C74.8165 55.5037 76.044 59.4737 75.3519 63.4838C74.9021 66.0852 74.3396 68.708 73.6682 71.2582C73.3529 72.5909 72.9118 74.1438 72.3388 75.8729C70.352 82.1355 67.9974 87.279 66.0992 91.4101C65.7753 92.1167 65.4568 92.8121 65.1542 93.4742C65.0773 93.6494 64.9893 93.8193 64.9014 93.9891C63.618 96.7187 60.9261 98.6045 57.7004 99.0323C54.4849 99.5675 51.3408 98.5508 49.2786 96.3284C49.1353 96.1848 49.0031 96.0465 48.871 95.9082C48.3811 95.3597 47.866 94.7923 47.3286 94.2144C44.2439 90.8268 40.4021 86.6059 36.5752 81.2233C35.4946 79.7364 34.5848 78.3926 33.8739 77.2191C32.4431 74.9771 31.0906 72.6426 29.8538 70.295C27.9539 66.6736 27.8959 62.5309 29.6851 58.9287C31.085 56.0839 33.4095 54.0226 36.2551 53.0168Z" fill="#10319B"/>
<path d="M69.7361 52.147C67.3746 50.6225 64.5423 49.912 61.5992 50.4064L58.359 50.9503C58.3343 50.959 58.315 50.9566 58.2874 50.9571L50.1979 52.3083L42.0647 53.3789C42.0371 53.3794 42.0206 53.3852 41.996 53.3939L38.7345 53.8251C34.2179 54.4223 32.2977 58.0986 30.7686 62.2009C30.4211 63.1287 31.0743 64.1653 32.016 64.2118C39.966 64.6122 57.7227 63.7298 69.7361 52.147Z" fill="#E26907"/>
<path d="M52.7875 76.1791C53.0589 76.0831 53.3215 75.9625 53.5837 75.8143C55.0993 74.9456 56.0005 73.3596 56.0098 71.5799L56.0066 61.2839C56.0087 59.5623 55.1472 57.9887 53.7015 57.0657C52.2587 56.1509 50.5022 56.0501 49.007 56.8191C48.9605 56.8448 48.9141 56.8704 48.8676 56.8961L49.0187 57.1665L48.8512 56.9019L48.813 56.9247L40.0637 61.9323C38.5481 62.801 37.6469 64.387 37.6376 66.1667C37.6394 67.9516 38.543 69.5658 40.0603 70.4821L48.7431 75.7304C49.9986 76.5079 51.4551 76.65 52.7875 76.1791ZM49.7939 57.1608C50.9782 56.7422 52.2803 56.8926 53.3882 57.5927C54.6524 58.3949 55.3972 59.7692 55.4022 61.2755L55.4055 71.5715C55.4033 73.1358 54.6142 74.5157 53.2845 75.2818C51.9547 76.0478 50.3705 76.0156 49.0429 75.2174L40.3601 69.969C39.0325 69.1708 38.2456 67.7559 38.2395 66.1944C38.2417 64.6301 39.0307 63.2503 40.3605 62.4842L49.1481 57.4539L49.0216 57.1747L49.1727 57.4451C49.2109 57.4224 49.2574 57.3967 49.2985 57.3822C49.4431 57.2941 49.6212 57.2219 49.7939 57.1608Z" fill="#F89E1C"/>
<path d="M52.8658 76.2433C53.1372 76.1474 53.3998 76.0268 53.6538 75.8815C55.1529 75.0186 56.0517 73.4519 56.0557 71.6834L56.0562 61.1362C56.053 59.4258 55.2056 57.8657 53.7739 56.9562C52.3422 56.0467 50.5998 55.9595 49.1181 56.7145C49.0717 56.7401 49.0252 56.7658 48.9788 56.7915L49.0558 56.9308L48.9735 56.8026L48.927 56.8283L39.962 61.9584C38.4629 62.8213 37.5641 64.388 37.5601 66.1565C37.556 67.925 38.4538 69.5228 39.96 70.4337L48.8549 75.8106C50.0934 76.5663 51.5499 76.7084 52.8658 76.2433ZM49.7921 56.763C51.0504 56.3183 52.4382 56.4754 53.6076 57.2186C54.9444 58.0691 55.7487 59.5333 55.75 61.1335L55.7494 71.6806C55.7516 73.3359 54.9118 74.8077 53.4945 75.614C52.0854 76.4174 50.402 76.3925 48.9907 75.5406L40.0959 70.1636C38.6845 69.3117 37.8492 67.8121 37.847 66.1568C37.8448 64.5015 38.6846 63.0297 40.1019 62.2235L49.1134 57.0677L49.0446 56.9255L49.1216 57.0648C49.1681 57.0391 49.2063 57.0164 49.2527 56.9907C49.4332 56.8992 49.6112 56.827 49.7921 56.763Z" fill="#10319B"/>
<path d="M51.5088 73.8469C51.7144 73.7742 51.9224 73.6822 52.1135 73.5684C53.2769 72.9074 53.9668 71.6921 53.9672 70.332L53.9719 62.6236C53.9703 61.3104 53.3112 60.1001 52.2116 59.3971C51.1037 58.6969 49.7644 58.6245 48.6217 59.2134L48.466 59.2962L41.9094 63.0476C40.7461 63.7086 40.0561 64.9239 40.0558 66.2841C40.0554 67.6442 40.7508 68.8787 41.9056 69.5807L48.41 73.5082C49.3751 74.0922 50.4972 74.2045 51.5088 73.8469ZM49.2688 59.6045C50.1324 59.2993 51.0861 59.4063 51.8954 59.9159C52.8135 60.4981 53.3641 61.5062 53.3646 62.607L53.3599 70.3153C53.3556 71.4548 52.7807 72.4722 51.8113 73.0276C50.8419 73.583 49.6884 73.5652 48.7122 72.9758L42.2078 69.0483C41.2427 68.4643 40.6558 67.432 40.6601 66.2925C40.6645 65.153 41.2393 64.1357 42.2087 63.5802L48.8881 59.7576C49.0168 59.7029 49.1373 59.651 49.2688 59.6045Z" fill="#F89E1C"/>
<path d="M48.6764 59.6286C48.7064 59.6088 48.7393 59.5972 48.7775 59.5744C50.9481 58.4649 53.5791 60.0977 53.5779 62.6331L53.5784 70.1731C53.5757 72.7831 50.8039 74.3641 48.5921 73.0273L42.2382 69.1854C40.0263 67.8485 40.0229 64.5931 42.2375 63.32L48.6382 59.6514C48.6547 59.6456 48.6682 59.6316 48.6764 59.6286Z" fill="#032663"/>
<path d="M48.3792 62.6103C48.3957 62.6045 48.4174 62.5876 48.4339 62.5818C49.6558 61.9556 51.1402 62.8834 51.1438 64.3069L51.1457 68.5528C51.1474 70.0233 49.5854 70.9177 48.3386 70.1648L44.7518 68.0002C43.505 67.2474 43.5022 65.4073 44.7503 64.6979L48.3575 62.6273C48.3628 62.6161 48.371 62.6132 48.3792 62.6103Z" fill="#33FCFE"/>
<path d="M71.4252 54.8064C70.6047 56.1233 65.2331 59.9555 65.2331 59.9555C65.2331 59.9555 67.4817 61.1869 68.0285 64.4353C68.4418 66.8612 66.5419 69.3646 66.5419 69.3646C68.8919 71.1707 68.7291 75.0029 67.6776 78.0484C66.6261 81.0938 68.0857 81.7158 68.0857 81.7158C68.0857 81.7158 74.7137 67.0683 74.2898 59.4559C74.1128 56.3637 71.4252 54.8064 71.4252 54.8064Z" fill="#F4B821"/>
<path d="M34.1672 74.8311C34.1672 74.8311 36.3806 74.1043 37.8429 75.4933C39.3053 76.8822 48.7484 89.7259 52.9092 94.1948C53.6547 94.9953 55.709 97.8496 57.3513 96.9731C57.3513 96.9731 55.1622 98.7368 51.0199 95.6028C46.8805 92.477 36.9557 78.9247 34.1672 74.8311Z" fill="#0E51A0"/>
<path d="M25.4976 10.2817C27.2167 8.97772 29.2757 7.85576 31.5771 6.91443L31.4337 6.95606C31.4337 6.95606 38.7533 2.59466 49.8484 2.36086C60.9091 2.13281 68.5421 6.05864 68.5908 6.08587C70.9974 6.93992 73.1716 7.99194 75.009 9.25054C83.8385 15.3113 83.4964 28.7312 80.0552 41.4391C77.5481 50.6835 64.5927 55.1368 51.5157 55.2062C38.4532 55.68 25.2605 51.7714 22.2509 42.6431C18.0946 30.0892 17.0098 16.7041 25.4976 10.2817Z" fill="#F89E1C"/>
<path d="M25.4975 10.3337C26.4007 9.65229 27.4001 9.01674 28.4697 8.43137C20.1597 14.9125 21.2517 28.2345 25.3721 40.7325C28.3931 49.8765 41.5873 53.7937 54.6498 53.3199C62.081 53.2821 69.4774 51.8175 74.936 48.8633C69.4147 53.1899 60.4912 55.3074 51.5141 55.3557C38.4516 55.8295 25.2574 51.9123 22.245 42.7668C18.1016 30.1842 17.0111 16.7647 25.4975 10.3337Z" fill="#F5851F"/>
<path d="M29.963 22.0399L30.1205 21.1293C25.3621 20.2256 24.6127 11.6575 24.6069 11.57L23.6992 11.6419C23.7366 12.0248 24.5277 21.0017 29.963 22.0399Z" fill="#F89E1C"/>
<path d="M69.8853 20.6202C75.8332 18.9021 75.9112 10.0985 75.9111 9.72707L75.0077 9.71871C75.0048 9.80762 74.9296 18.2039 69.6398 19.7326L69.8853 20.6202Z" fill="#F4B821"/>
<path d="M52.3793 9.84392C55.0379 9.40011 57.2919 8.17485 58.5448 6.46228L60.5374 3.72417L59.8073 3.16509L57.8147 5.90319C56.5417 7.65449 54.0325 8.83393 51.1343 9.06127C48.1487 9.29436 45.2833 8.44617 43.671 6.84047C43.628 6.79459 43.5764 6.75015 43.5333 6.70427L40.5554 3.43401L39.8916 4.0666L42.8781 7.33542C42.9326 7.39707 42.9857 7.45011 43.0388 7.50316C44.8304 9.28233 47.9697 10.2351 51.2077 9.9776C51.6021 9.95598 51.9921 9.90856 52.3793 9.84392Z" fill="#F4B821"/>
<path d="M52.9833 13.2977C56.5281 12.7059 59.5019 11.0244 61.2938 8.56746L64.1436 4.66039L63.4135 4.1013L60.5565 8.01841C58.67 10.5973 55.3392 12.2588 51.41 12.561C51.1132 12.584 50.8063 12.5999 50.498 12.6071C46.8053 12.6841 43.4422 11.5033 41.2892 9.36C41.2146 9.28401 41.14 9.20803 41.0639 9.12344L40.9764 9.02308L36.8854 4.54135L36.2216 5.17394L40.4102 9.76319C40.4963 9.85495 40.5809 9.9381 40.6655 10.0213C42.9979 12.338 46.5976 13.612 50.5283 13.5306C50.8452 13.5219 51.1708 13.5118 51.4848 13.4859C51.9996 13.4442 52.4929 13.3795 52.9833 13.2977Z" fill="#F4B821"/>
<path d="M74.5646 11.623C72.7344 10.3543 70.5587 9.29372 68.1507 8.43106C68.102 8.40383 60.4186 3.85851 49.3666 4.08512C42.096 4.23761 35.7637 5.61308 32.2663 6.54182C34.4759 5.42126 40.9469 2.54575 49.8479 2.35985C60.9086 2.1318 68.5473 6.09204 68.5961 6.11927C71.0041 6.98193 73.1798 8.04255 75.01 9.31119C82.8886 14.7613 83.4652 26.1087 81.0576 37.5917C82.9118 26.9263 81.9139 16.7104 74.5646 11.623Z" fill="#F4B821"/>
<path d="M70.6469 20.5196C75.7962 19.3151 76.0821 10.5387 76.0906 10.1659L75.788 10.1545C75.7852 10.2434 75.4978 19.0642 70.5794 20.2214L70.6469 20.5196Z" fill="#10319B"/>
<path d="M60.9166 8.26886L63.7736 4.35176C62.7295 4.03081 61.5163 3.70273 60.1682 3.41484L58.1756 6.15295C56.8224 8.00608 54.2013 9.25725 51.1626 9.49036C48.0465 9.7364 45.0477 8.83088 43.3422 7.14346C43.2891 7.09042 43.2461 7.04454 43.193 6.99149L40.2065 3.72267C38.8399 4.06576 37.6125 4.44754 36.5428 4.82067L40.6353 9.311L40.7314 9.40993C40.8074 9.49452 40.892 9.57767 40.9666 9.65365C43.2129 11.8787 46.7266 13.1139 50.5067 13.0312C50.8151 13.0239 51.1305 13.0066 51.4446 12.9807C55.5057 12.6742 58.9598 10.9568 60.9166 8.26886Z" fill="#032663"/>
<path d="M30.3633 21.3633L30.4192 21.0622C25.4414 20.1156 24.6618 11.3137 24.6561 11.2262L24.3506 11.2507C24.3851 11.6163 25.1561 20.3666 30.3633 21.3633Z" fill="#10319B"/>
<path d="M51.4338 55.0869C44.9736 55.3252 38.4915 54.5325 33.0818 52.641C31.7966 51.299 30.7636 49.5612 30.1235 47.528C28.4916 42.3085 26.6355 35.004 25.7557 26.7671C25.3273 22.7175 27.463 18.9827 30.6464 18.1329C34.9969 16.9645 41.7079 15.5788 49.724 15.2842L49.7226 15.2756C49.9521 15.2727 50.1729 15.2712 50.3937 15.2697C50.6146 15.2682 50.8426 15.2566 51.062 15.2466L51.0634 15.2552C59.0869 15.2158 65.7023 16.1189 70.1108 17.0986C73.3433 17.8148 75.8424 21.6602 75.637 25.7272C75.2219 33.9946 73.7639 41.3659 72.4259 46.6478C71.9131 48.6613 71.0029 50.414 69.8274 51.7953C64.512 53.9649 57.9903 55.0536 51.4338 55.0869Z" fill="#032663"/>
<path d="M73.6289 49.6656L72.38 50.3958C72.595 49.6701 72.9575 48.4511 73.1953 47.5978C73.8343 45.3333 74.565 42.7705 75.2328 41.0495C76.3061 38.2614 79.4418 36.1196 81.5151 35.0306L81.1943 36.4461C79.2672 37.4576 77.085 38.9008 76.1234 41.4049C75.4757 43.0872 74.7507 45.6313 74.116 47.8686C73.8624 48.7334 73.8438 48.9399 73.6289 49.6656Z" fill="#F4B821"/>
<path d="M29.5349 50.7821C29.5435 50.7807 29.5521 50.7793 29.5607 50.7778C29.6353 50.7477 29.6826 50.6602 29.651 50.577C29.4214 49.9433 29.1818 49.2493 28.9407 48.5466C28.1915 46.39 27.3405 43.9409 26.5628 42.1959C25.4077 39.6207 23.1387 38.2661 20.8554 37.1969C20.7794 37.1654 20.6877 37.1984 20.6561 37.2744C20.6246 37.3504 20.6576 37.4422 20.735 37.4823C22.9624 38.5343 25.1798 39.8445 26.2932 42.3293C27.0695 44.0658 27.9191 46.5063 28.6582 48.6557C28.9007 49.3669 29.1389 50.0523 29.37 50.6947C29.3973 50.7521 29.4661 50.7936 29.5349 50.7821Z" fill="#F89E1C"/>
<path d="M81.2844 36.4042C80.955 38.0864 80.5626 39.7614 80.1084 41.438C79.1801 44.8828 76.8247 47.6726 73.5571 49.8188C74.3365 47.1771 74.9839 44.2213 75.8839 41.8779C76.9458 39.1271 79.4548 37.364 81.2844 36.4042Z" fill="#032663"/>
<path d="M79.1668 41.6755C79.4906 40.7017 79.7944 39.7135 80.0637 38.7311C79.0959 39.3968 78.1225 40.3464 77.5377 41.6644C76.9143 43.0685 76.3856 44.7751 75.8368 46.4144C77.3694 45.1592 78.5306 43.5858 79.1668 41.6755Z" fill="#0E51A0"/>
<path d="M73.7399 49.8057C74.0106 48.885 74.2656 47.9227 74.5164 46.9876C74.9834 45.2294 75.4748 43.4051 76.0595 41.8749C77.0884 39.1915 79.5244 37.4672 81.3855 36.4844L81.242 36.2076C79.3393 37.2062 76.8417 38.9851 75.7741 41.7545C75.1822 43.2948 74.6923 45.1276 74.2181 46.8959C73.9673 47.831 73.7123 48.7933 73.4401 49.7054L73.7399 49.8057Z" fill="#10319B"/>
<path d="M20.7033 37.6644C21.1225 39.3278 21.612 40.9883 22.153 42.6401C23.2696 46.0442 25.7784 48.7295 29.1561 50.7392C28.2262 48.1352 27.4281 45.2085 26.3892 42.9057C25.1854 40.1972 22.585 38.553 20.7033 37.6644Z" fill="#032663"/>
<path d="M60.302 54.5964C63.7951 54.0133 67.0286 53.0932 69.8061 51.8779C75.4254 49.4098 79.0167 45.8123 80.2001 41.4583C82.6643 32.3802 85.28 16.1046 75.0936 9.12064C73.2964 7.89071 71.1279 6.82005 68.6453 5.93447C68.3456 5.78111 60.8216 1.97858 49.8499 2.20948C38.8422 2.43751 31.5484 6.74154 31.4753 6.78028C31.3118 6.86063 27.135 8.85791 25.4145 10.1533C15.6306 17.5526 19.1396 33.699 22.1047 42.6667C23.5212 46.967 27.3151 50.4105 33.0648 52.6433C38.1705 54.6209 44.7329 55.5771 51.5287 55.3358C54.5402 55.3107 57.5057 55.0632 60.302 54.5964ZM43.579 3.10596C45.4891 2.78711 47.5928 2.56858 49.8571 2.51779C60.7586 2.28978 68.2152 6.05934 68.5336 6.21844C71.0147 7.09542 73.1646 8.16034 74.9331 9.37738C84.9602 16.2553 82.3545 32.3788 79.9118 41.3738C77.1998 51.3511 62.9192 54.9643 51.5114 55.0204C40.1109 55.4378 25.6436 52.4229 22.3886 42.5662C19.4551 33.6817 15.9619 17.683 25.5967 10.397C27.2842 9.116 31.5772 7.0728 31.6173 7.04841C31.6732 7.01254 36.2399 4.33113 43.579 3.10596Z" fill="#10319B"/>
<path d="M51.6025 53.2415C46.0643 53.4408 40.5086 52.8472 35.7472 51.3957C35.0115 51.1737 34.346 50.7365 33.8626 50.1185C33.0521 49.0776 32.4036 47.8416 31.9601 46.4565C30.4603 41.7633 28.7506 35.1772 27.947 27.7677C27.5503 24.1196 29.5198 20.7663 32.468 19.9912C36.4758 18.9418 42.6691 17.6869 50.0615 17.4168L50.0601 17.4081C50.2709 17.3995 50.4745 17.4009 50.6781 17.4022C50.8803 17.395 51.0911 17.3864 51.2948 17.3877L51.2962 17.3963C58.6915 17.3557 64.9428 18.355 69.007 19.233C71.9886 19.8761 74.1362 23.1523 73.9507 26.8092C73.5655 34.2491 72.2164 40.8947 70.9758 45.6475C70.6147 47.0343 70.0357 48.2806 69.3032 49.3492C68.8832 49.9587 68.2767 50.4049 67.5841 50.6532C62.8537 52.3537 57.2397 53.2113 51.6025 53.2415Z" fill="#FCE8CA"/>
<path fill-rule="evenodd" clip-rule="evenodd" d="M40.7716 36.4299C39.4802 36.72 38.3405 37.6022 37.6554 38.5068C37.345 38.9166 36.7562 38.9939 36.3402 38.6794C35.9243 38.365 35.8387 37.7778 36.1491 37.368C37.0357 36.1975 38.5248 35.0114 40.3345 34.6049C42.2094 34.1836 44.3238 34.6264 46.2769 36.5517C46.5493 36.8202 46.6341 37.2237 46.4916 37.5734C46.3491 37.923 46.0075 38.1496 45.6266 38.1472C45.0727 38.1436 44.1776 38.1642 43.3408 38.3446C42.4524 38.536 41.9011 38.8498 41.6898 39.2176C41.4335 39.6633 40.86 39.8131 40.4086 39.5521C39.9573 39.2911 39.7991 38.7182 40.0553 38.2724C40.6704 37.2021 41.8923 36.7432 42.875 36.5258C42.1273 36.2805 41.4171 36.2848 40.7716 36.4299Z" fill="#0E51A0"/>
<path d="M61.9885 39.4025L61.9246 39.9274L54.7138 39.1916L54.7777 38.6667L61.9885 39.4025Z" fill="#0052A3"/>
<path d="M61.9034 40.1233C61.8735 40.3005 61.8442 40.4692 61.7897 40.6361L54.7049 39.9093C54.6922 39.7376 54.6969 39.5586 54.71 39.3802L61.9034 40.1233Z" fill="#0052A3"/>
<path d="M61.7184 34.8435L56.0334 34.2681C56.1984 34.0921 56.3789 33.9344 56.5666 33.7941L61.2955 34.2759C61.4601 34.4497 61.5982 34.6387 61.7184 34.8435Z" fill="#0052A3"/>
<path d="M60.1638 33.4349C60.4983 33.5951 60.8123 33.8051 61.0811 34.0545L56.831 33.6158C57.1491 33.4252 57.4977 33.2794 57.8587 33.1942L60.1638 33.4349Z" fill="#0052A3"/>
<path d="M62.1298 35.8056C62.1762 35.9796 62.2051 36.161 62.2256 36.3418L55.208 35.6198C55.2716 35.445 55.3429 35.2793 55.4226 35.1142L62.1298 35.8056Z" fill="#0052A3"/>
<path d="M62.2464 36.5401C62.2591 36.7118 62.2544 36.8908 62.2413 37.0692L55.0389 36.3339C55.0604 36.1561 55.098 35.988 55.1441 35.8205L62.2464 36.5401Z" fill="#0052A3"/>
<path d="M61.8469 35.0501C61.9352 35.2271 62.0062 35.4114 62.0681 35.6036L55.5284 34.9329C55.6339 34.7612 55.7394 34.5894 55.8689 34.4365L61.8469 35.0501Z" fill="#0052A3"/>
<path d="M62.1417 37.977L62.0869 38.4941L54.876 37.7582L54.9309 37.2411L62.1417 37.977Z" fill="#0052A3"/>
<path d="M62.2271 37.2654L62.1639 37.7818L54.953 37.0459L55.0169 36.521L62.2271 37.2654Z" fill="#0052A3"/>
<path d="M62.0653 38.6899L62.0098 39.2154L54.7996 38.471L54.8545 37.954L62.0653 38.6899Z" fill="#0052A3"/>
<path d="M52.0796 42.8028C52.2447 42.8054 52.3611 42.9593 52.3211 43.1168C52.1854 43.6297 51.7186 44.0019 51.1653 44.0041C50.6106 43.9989 50.1478 43.6164 50.0068 43.1046C49.9644 42.9458 50.0882 42.7968 50.2448 42.7933L52.0796 42.8028Z" fill="#032663"/>
<path d="M38.4836 30.1262C38.5273 30.1189 38.5757 30.0956 38.6143 30.0589C39.1802 29.5632 39.9258 29.3701 40.6655 29.5334C40.8285 29.5666 40.9832 29.465 41.016 29.3083C41.0476 29.1442 40.9456 28.9873 40.7899 28.953C39.8713 28.7516 38.9391 28.9911 38.2295 29.6092C38.1065 29.7206 38.0933 29.9043 38.2048 30.0293C38.2649 30.1175 38.3757 30.1518 38.4836 30.1262Z" fill="#032663"/>
<path d="M62.2304 30.1997C62.1843 30.1923 62.1428 30.1691 62.0989 30.1312C61.5332 29.6301 60.7865 29.4233 60.0498 29.5767C59.8911 29.6109 59.7313 29.5094 59.6949 29.342C59.6597 29.182 59.7592 29.0221 59.9252 28.9867C60.8424 28.7955 61.7763 29.0464 62.4837 29.6746C62.6071 29.7822 62.617 29.969 62.5112 30.0923C62.4451 30.1863 62.3313 30.2205 62.2304 30.1997Z" fill="#032663"/>
<path d="M60.6535 54.3692C64.0176 53.8076 67.1636 52.9464 69.9038 51.8257L69.9368 51.8113L69.9583 51.7812C71.1783 50.3483 72.0884 48.5426 72.5898 46.5664C73.8218 41.709 75.3772 34.1268 75.8066 25.5741C76.0063 21.5257 73.6563 17.8323 70.3291 16.9727C54.7803 12.9887 35.0531 16.6091 30.618 17.8006C27.3256 18.6862 25.1727 22.477 25.6169 26.6212C26.5183 35.1463 28.4892 42.6616 29.9891 47.4609C30.6134 49.4526 31.6478 51.2521 32.9775 52.6485L32.999 52.6714L33.0363 52.6829C38.3169 54.5429 44.6843 55.3902 51.4443 55.146C54.5977 55.1237 57.711 54.8605 60.6535 54.3692ZM69.7531 51.559C64.6528 53.6397 58.1426 54.7972 51.4284 54.8392L51.4198 54.8406C44.809 55.0775 38.324 54.2145 33.1581 52.4061C31.87 51.047 30.8715 49.3034 30.2658 47.3705C28.7774 42.587 26.8008 35.0903 25.9052 26.5996C25.4854 22.6016 27.5394 18.9601 30.6883 18.116C35.1063 16.9275 54.7646 13.3186 70.2489 17.2868C73.437 18.1077 75.6937 21.6663 75.4954 25.5641C75.0703 34.0896 73.512 41.6545 72.2858 46.4933C71.8102 48.4122 70.9344 50.1591 69.7531 51.559Z" fill="#10319B"/>
<path d="M29.0496 50.7393L29.3335 50.6389C29.015 49.7369 28.7064 48.7891 28.4021 47.8671C27.8367 46.122 27.2425 44.311 26.5652 42.7968C25.3499 40.0725 22.7538 38.4011 20.7961 37.4809L20.6743 37.7577C22.5847 38.6592 25.1104 40.2805 26.2942 42.9217C26.9701 44.4272 27.5527 46.2225 28.1182 47.9676C28.421 48.881 28.731 49.8374 29.0496 50.7393Z" fill="#10319B"/>
<path d="M76.637 36.4293L80.6316 33.9229C80.6316 33.9229 81.4645 21.96 77.5381 16.6106L76.5481 20.0569C76.5481 20.0569 78.3542 22.6118 76.637 36.4293Z" fill="#F4B821"/>
<path fill-rule="evenodd" clip-rule="evenodd" d="M50.4507 73.1037L44.8874 72.9529C43.6444 72.9192 42.5898 72.0384 42.3471 70.832L39.0733 54.5441C38.7397 52.8854 40.0485 51.3513 41.7564 51.3975L54.9371 51.7547C56.6567 51.8013 57.8819 53.4254 57.4383 55.0697L53.0946 71.1512C52.7765 72.3299 51.683 73.1371 50.4507 73.1037Z" fill="#58595B"/>
<path fill-rule="evenodd" clip-rule="evenodd" d="M50.3307 73.1013L44.9113 72.9544C43.7005 72.9216 42.6726 72.0954 42.4347 70.9642L39.2287 55.695C38.9019 54.1416 40.176 52.7037 41.8391 52.7488L54.6795 53.0967C56.3543 53.1421 57.5501 54.6662 57.119 56.2078L52.904 71.2739C52.5957 72.3788 51.5309 73.1338 50.3307 73.1013Z" fill="#404041"/>
<path fill-rule="evenodd" clip-rule="evenodd" d="M48.9225 60.7552L47.1922 60.7083C46.812 60.698 46.5009 60.3227 46.4674 59.8345L46.1887 55.716C46.1192 55.2654 46.406 54.8466 46.7756 54.8566L49.637 54.9341C50.0105 54.9443 50.273 55.3838 50.1743 55.8317L49.6151 60.0171C49.5576 60.4489 49.2619 60.7644 48.9225 60.7552Z" fill="#BBBDBF"/>
<path fill-rule="evenodd" clip-rule="evenodd" d="M49.2205 56.657C49.2345 57.2901 48.7708 57.8081 48.1837 57.8143C47.5976 57.8206 47.1101 57.3114 47.0951 56.6793C47.0811 56.0463 47.5458 55.5283 48.1319 55.522C48.719 55.5158 49.2065 56.0239 49.2205 56.657Z" fill="#404041"/>
<path fill-rule="evenodd" clip-rule="evenodd" d="M49.0396 59.2392C49.0513 59.7768 48.6579 60.2159 48.1604 60.2207C47.6629 60.2255 47.2492 59.7954 47.2365 59.2577C47.2248 58.721 47.6182 58.282 48.1157 58.2762C48.6142 58.2714 49.0278 58.7025 49.0396 59.2392Z" fill="#404041"/>
<path d="M76.4142 64.0172C70.9686 62.7326 57.9389 60.6756 42.8891 65.4661C41.4255 65.9363 41.2619 67.9431 42.6255 68.7175L43.6894 69.3294C54.4826 75.4673 67.7857 74.3405 77.0534 66.5118C77.9369 65.7552 77.5727 64.2815 76.4142 64.0172Z" fill="#F89E1C"/>
<path d="M75.0427 65.4409C75.0235 65.4602 75.0139 65.4699 74.9851 65.4797C71.4303 68.1977 66.4256 68.3093 62.5845 65.8113C61.317 64.9785 60.1353 63.9428 59.2705 62.6452C66.3164 61.8483 72.0027 63.0642 74.7068 63.8223C75.4408 64.0309 75.6383 64.975 75.0427 65.4409Z" fill="#F4B821"/>
<path d="M69.5448 70.956C61.3543 74.2852 51.8044 73.8118 43.6907 69.3097L42.6269 68.7171C42.5012 68.6502 42.385 68.5543 42.2882 68.4777L42.0835 66.087C42.2848 65.8449 42.5538 65.6507 42.9004 65.5332C44.4122 65.0532 45.905 64.6503 47.3788 64.3055C51.5996 71.4211 63.6739 71.4191 69.5448 70.956Z" fill="#F5851F"/>
<path d="M50.387 64.425C50.6572 66.4006 52.4712 70.4807 62.3308 73.1225L63.8714 72.6326C50.3055 69.392 51.3182 63.562 51.3276 63.5138L50.4007 63.3062C50.3817 63.3641 50.297 63.7793 50.387 64.425Z" fill="#F89E1C"/>
<path d="M46.5005 64.416C46.5005 64.416 44.7615 69.6228 52.8095 72.5435C52.8095 72.5435 43.0201 70.4704 41.8081 67.2168C41.7986 67.2264 41.0262 65.1182 46.5005 64.416Z" fill="#032663"/>
<path d="M77.3149 66.5966C77.7179 66.1895 77.8789 65.6004 77.7315 65.0322C77.5741 64.4157 77.0895 63.9359 76.4619 63.7944C71.4412 62.6041 58.1021 60.375 42.8116 65.2536C42.0509 65.4985 41.5237 66.1472 41.4603 66.9673C41.3871 67.7778 41.7863 68.5377 42.5116 68.9488L43.5755 69.5607C54.3881 75.7178 67.913 74.5802 77.2094 66.7225C77.2477 66.6644 77.2861 66.6256 77.3149 66.5966ZM76.3677 64.2385C76.8215 64.3423 77.1607 64.6782 77.269 65.1309C77.3774 65.5836 77.2445 66.0279 76.8988 66.319C67.756 74.0409 54.4529 75.1678 43.8048 69.1159L42.7409 68.504C42.1896 68.1885 41.8878 67.621 41.933 66.9939C41.9878 66.3764 42.3807 65.8826 42.9681 65.6965C58.143 60.857 71.3856 63.0673 76.3677 64.2385Z" fill="#10319B"/>
<path d="M52.7054 72.9196L52.8671 72.4656C45.4369 69.6574 46.7134 64.5301 46.7228 64.4819L46.2592 64.3491C46.2595 64.407 44.8597 69.9496 52.7054 72.9196Z" fill="#10319B"/>
<path d="M61.8506 73.3183L61.9737 72.8644C49.8242 69.3564 50.616 63.73 50.6254 63.6817L50.162 63.5876C50.115 63.8289 49.2375 69.6776 61.8506 73.3183Z" fill="#10319B"/>
</g>
</svg>
