<svg width="100" height="100" viewBox="0 0 100 100" fill="none" xmlns="http://www.w3.org/2000/svg">
<mask id="mask0_414_1591" style="mask-type:alpha" maskUnits="userSpaceOnUse" x="0" y="0" width="100" height="100">
<rect width="100" height="100" fill="#D9D9D9"/>
</mask>
<g mask="url(#mask0_414_1591)">
<path d="M68.7526 69.7068C73.114 61.8334 68.3545 52.0225 59.4638 50.6248L56.0224 50.0851C55.9959 50.0851 55.9782 50.0763 55.9517 50.0675L47.3705 48.7228L38.8336 47.1039C38.807 47.095 38.7893 47.095 38.7628 47.095L35.3392 46.4492C26.4926 44.7772 18.7165 52.4206 20.1762 61.3026C20.6539 64.2043 21.2378 66.9201 21.8836 69.4768C22.2198 70.963 22.6975 72.6173 23.2548 74.3336C25.6434 82.0301 28.5273 88.028 30.6947 92.9025C30.7743 93.0883 30.8717 93.274 30.9601 93.4598C32.411 96.5915 35.41 98.4847 38.6655 99.0066C41.9122 99.617 45.3712 98.8385 47.7863 96.3792C47.9367 96.2376 48.0871 96.0961 48.2286 95.9457C51.8999 92.0886 56.6329 87.3999 61.4719 80.9508C62.5689 79.5176 63.5774 78.1199 64.3913 76.8371C65.8687 74.6432 67.3283 72.2812 68.7526 69.7068Z" fill="#F89E1C"/>
<path d="M50.8648 84.1184C54.0938 79.8632 49.8563 75.8292 44.0087 77.9877C37.0376 80.5532 33.5698 78.262 30.5531 70.5124C28.1026 64.2225 22.8301 64.8152 20.9369 65.2664C21.2465 66.7526 21.5739 68.1857 21.9277 69.5658C22.2639 71.052 22.7416 72.7063 23.2989 74.4226C25.6875 82.1191 28.5715 88.117 30.7389 92.9915C30.8185 93.1773 30.9158 93.363 31.0043 93.5488C32.4551 96.6805 35.4541 98.5737 38.7096 99.0956C41.9563 99.706 45.4153 98.9275 47.8304 96.4682C47.9808 96.3266 48.1312 96.1851 48.2728 96.0347C49.4759 94.7785 50.7852 93.425 52.1829 91.9564C49.7413 91.1072 47.7508 88.232 50.8648 84.1184Z" fill="#032663"/>
<path d="M38.4799 99.2008C35.0386 98.6081 32.1812 96.5203 30.8276 93.601C30.7392 93.424 30.6419 93.2383 30.5622 93.0436C30.2526 92.3447 29.9253 91.6105 29.5803 90.8585C27.6075 86.4883 25.157 81.0477 23.1135 74.4482C22.5207 72.6258 22.0607 70.9803 21.7422 69.5826C21.3884 68.1848 21.0522 66.734 20.7514 65.2831L20.716 65.1327L20.8664 65.0973C22.9896 64.5931 28.2002 64.1154 30.6684 70.4407C33.747 78.3583 37.2148 80.2957 43.9205 77.8187C47.4857 76.5006 50.2458 77.4914 51.4136 79.0572C52.4752 80.4992 52.3071 82.4189 50.9624 84.1971C49.6 86.0018 49.1135 87.718 49.5558 89.1865C49.9185 90.3631 50.9093 91.3362 52.2009 91.7786L52.4398 91.8582L52.2717 92.0351C51.4932 92.8578 50.7324 93.6452 50.007 94.3972C49.4408 94.9899 48.8923 95.556 48.3615 96.1134C48.22 96.2638 48.0696 96.4142 47.9192 96.5469C45.6279 98.8824 42.1778 99.8909 38.6568 99.2185C38.5949 99.2274 38.5418 99.2185 38.4799 99.2008ZM38.7099 98.9177C42.1247 99.5635 45.4775 98.5904 47.698 96.3345C47.8484 96.193 47.9988 96.0515 48.1315 95.9099C48.6623 95.3526 49.2108 94.7864 49.777 94.1937C50.4493 93.4948 51.1482 92.7605 51.8736 92.0086C50.5909 91.4955 49.6266 90.4958 49.255 89.2927C48.9189 88.2046 48.9012 86.3999 50.7147 84.0201L50.8386 84.1174L50.7147 84.0201C51.9709 82.357 52.139 80.5788 51.1659 79.2607C50.0778 77.7922 47.4503 76.8721 44.0444 78.1283C37.2149 80.6496 33.517 78.5972 30.3853 70.5645C28.0675 64.6108 23.2373 64.9116 21.1053 65.3804C21.3972 66.7782 21.7157 68.1671 22.0607 69.5206C22.3792 70.9184 22.8392 72.5462 23.4231 74.3685C25.4666 80.9504 27.9083 86.3822 29.8722 90.7435C30.2084 91.4955 30.5357 92.2209 30.8542 92.9286C30.9338 93.1144 31.0223 93.2913 31.1196 93.4771C32.4466 96.3434 35.2863 98.387 38.7099 98.9177Z" fill="#10319B"/>
<path d="M38.8071 99.2635C38.7451 99.2546 38.6921 99.2458 38.6301 99.2281C35.1092 98.6796 32.181 96.5653 30.8098 93.5928C30.7213 93.4159 30.624 93.2301 30.5444 93.0355C30.2348 92.3366 29.9074 91.6023 29.5624 90.8504C27.5896 86.4802 25.1391 81.0395 23.0956 74.44C22.5029 72.6176 22.0428 70.9722 21.7244 69.5744C21.0432 66.8851 20.4682 64.1338 20.017 61.3913C19.3093 57.0919 20.6893 52.881 23.8033 49.8466C26.8996 46.8211 31.1017 45.5648 35.3658 46.361L38.7894 47.0068L38.8602 47.0157L47.3971 48.6346L55.9783 49.9793L56.0225 49.9881L59.4903 50.5278C63.772 51.2001 67.3107 53.8098 69.2127 57.6935C71.1236 61.6037 71.0086 66.0269 68.9031 69.8398C67.5584 72.2638 66.0899 74.67 64.5417 76.979C63.7721 78.191 62.7901 79.5799 61.6135 81.1015C57.4733 86.6306 53.3331 90.93 50.0157 94.3802C49.4407 94.9729 48.8921 95.5479 48.3614 96.1052C48.2198 96.2556 48.0694 96.406 47.919 96.5387C45.6455 98.8565 42.2572 99.8562 38.8071 99.2635ZM38.6921 98.9184C42.1069 99.5642 45.4597 98.5911 47.6802 96.3352C47.8305 96.1937 47.981 96.0522 48.1137 95.9106C48.6445 95.3533 49.1929 94.7783 49.768 94.1855C53.0854 90.7354 57.2167 86.4448 61.3481 80.9334C62.5158 79.4118 63.4978 78.0317 64.2586 76.8286C65.8068 74.5285 67.2664 72.1311 68.6111 69.716C70.6724 65.9915 70.7785 61.6744 68.9207 57.8616C67.063 54.0752 63.5951 51.5274 59.4373 50.8728L55.9959 50.3331L55.9517 50.3243L47.3351 48.9708L38.7894 47.3519L38.7186 47.343L35.295 46.6972C31.1548 45.9187 27.0323 47.1484 24.0156 50.0943C20.9812 53.0579 19.6366 57.1627 20.3266 61.3648C20.7778 64.0895 21.3528 66.8408 22.034 69.5213C22.3525 70.9191 22.8125 72.5469 23.3963 74.3692C25.4399 80.9511 27.8816 86.3829 29.8455 90.7442C30.1817 91.4962 30.509 92.2216 30.8275 92.9293C30.9071 93.1151 30.9955 93.292 31.0929 93.4778C32.4287 96.3353 35.2685 98.3788 38.6921 98.9184Z" fill="#10319B"/>
<path d="M66.7711 56.6761C64.8956 54.3848 62.2859 52.757 59.1365 52.2616L55.6775 51.722C55.651 51.722 55.6333 51.7132 55.6067 51.7043L46.9814 50.3685L38.4002 48.7319C38.3737 48.723 38.356 48.723 38.3294 48.723L34.8881 48.0684C30.1198 47.1572 26.9351 50.1473 23.998 53.6948C23.3345 54.491 23.6353 55.7295 24.573 56.0922C32.4642 59.1177 50.7058 64.1249 66.7711 56.6761Z" fill="#E26907"/>
<path d="M29.3854 6.2415C31.3405 5.31261 33.6052 4.62258 36.0557 4.16256L35.9053 4.17141C35.9053 4.17141 44.0087 1.36705 55.0315 3.26906C66.0189 5.17107 72.8131 10.4259 72.8573 10.4613C75.0778 11.7529 77.0241 13.186 78.5899 14.7519C86.1449 22.298 83.1901 35.1963 77.2983 46.803C73.0077 55.2514 59.3133 57.065 46.3619 54.6145C33.3398 52.5621 21.0431 46.2545 19.8399 36.8594C18.1856 23.9435 19.7249 10.8152 29.3854 6.2415Z" fill="#F89E1C"/>
<path d="M40.3818 75.7926C39.559 75.6511 38.7717 75.306 38.0817 74.7664C36.622 73.6164 35.8966 71.8382 36.162 69.9893L37.6659 59.4353C37.9313 57.5952 39.1167 56.0825 40.8418 55.3836C42.5669 54.6936 44.4689 54.959 45.9374 56.109L54.3859 62.7351C55.8013 63.8409 56.5179 65.566 56.3056 67.353C56.0933 69.14 54.9963 70.6439 53.3685 71.387C53.3155 71.4136 53.2624 71.4313 53.2093 71.4578L53.1385 71.4843L43.1773 75.4918C42.2661 75.8545 41.3018 75.9518 40.3818 75.7926ZM43.5223 55.7109C42.7173 55.5694 41.8769 55.6578 41.0718 55.9763C39.5591 56.5867 38.524 57.9137 38.294 59.5238L36.7901 70.0777C36.5601 71.6878 37.1882 73.2536 38.4709 74.2622C39.7537 75.2707 41.4168 75.5007 42.9296 74.8991L52.9527 70.8651C52.997 70.8474 53.0412 70.8297 53.0943 70.8031C54.5186 70.1573 55.474 68.8392 55.6598 67.2734C55.8456 65.7164 55.2175 64.2036 53.9789 63.2393L45.5305 56.6133C44.9378 56.1356 44.2477 55.8348 43.5223 55.7109Z" fill="#F89E1C"/>
<path d="M40.3287 75.8645C39.5148 75.723 38.7363 75.3779 38.0463 74.8471C36.5954 73.7059 35.8789 71.9366 36.1443 70.1142L37.6836 59.3037C37.9401 57.4814 39.1167 55.9774 40.8329 55.2874C42.5492 54.5974 44.4335 54.8716 45.8843 56.004L54.5451 62.7893C55.9429 63.8863 56.6594 65.6025 56.4471 67.363C56.2348 69.1323 55.1467 70.6273 53.5366 71.3616C53.4835 71.3881 53.4305 71.4058 53.3774 71.4324L53.3154 71.4589L43.1065 75.5637C42.1953 75.9264 41.2399 76.0237 40.3287 75.8645ZM43.5489 55.2963C42.6907 55.1459 41.7972 55.2343 40.948 55.5793C39.3467 56.2251 38.2409 57.6317 37.9932 59.348L36.4539 70.1585C36.2062 71.8747 36.8785 73.529 38.2409 74.5994C39.6033 75.6699 41.3726 75.9176 42.9738 75.2718L53.2447 71.1404C53.2978 71.1228 53.342 71.0962 53.3951 71.0785C54.9078 70.3885 55.9252 68.9907 56.1198 67.3276C56.3144 65.6733 55.6509 64.072 54.3417 63.037L45.6809 56.2517C45.0439 55.7474 44.3097 55.429 43.5489 55.2963Z" fill="#10319B"/>
<path d="M29.3767 6.28658C30.4029 5.80002 31.5175 5.37538 32.6941 5.02152C23.2018 9.68365 21.6802 22.7589 23.3256 35.6129C24.5288 45.0257 36.8166 51.3421 49.8388 53.3945C57.208 54.7834 64.8071 54.7923 70.7874 52.9876C64.4798 56.1015 55.2352 56.4377 46.3355 54.7569C33.3134 52.7045 21.0255 46.388 19.8224 36.9753C18.1681 24.0328 19.7162 10.8779 29.3767 6.28658Z" fill="#F5851F"/>
<path d="M31.4999 17.9012C26.4132 15.8931 27.519 7.41806 27.5721 7.0642L28.2002 7.15267C28.1913 7.23229 27.1121 15.4861 31.73 17.3085L31.4999 17.9012Z" fill="#F89E1C"/>
<path d="M71.4863 25.137L71.4156 24.5001C76.927 23.8897 78.7051 15.4058 78.7228 15.3262L79.3509 15.4501C79.2713 15.8216 77.4577 24.4735 71.4863 25.137Z" fill="#F4B821"/>
<path d="M54.1206 10.7974C51.1658 10.2843 48.5826 8.84234 47.2645 6.93149C47.2202 6.86956 47.176 6.80764 47.1406 6.74571L44.8228 3.01246L45.6367 2.50821L47.9545 6.24146C47.9899 6.29454 48.0164 6.33877 48.0607 6.39185C49.3434 8.24078 51.9974 9.612 55.0052 9.95701C57.9246 10.2932 60.6228 9.63854 62.224 8.19655L64.7364 5.93183L65.3733 6.63955L62.8433 8.91312C61.0386 10.532 58.0661 11.284 54.8725 10.9124C54.6248 10.8771 54.3683 10.8417 54.1206 10.7974Z" fill="#F4B821"/>
<path d="M53.519 14.2039C49.6 13.5227 46.2825 11.5941 44.4248 8.90477C44.354 8.80746 44.292 8.71015 44.2301 8.61284L44.1594 8.49783L40.9835 3.37568L41.7973 2.87142L45.044 8.09974C45.0971 8.1882 45.159 8.27667 45.221 8.36513C46.9372 10.8422 50.0246 12.6292 53.6959 13.2661C53.9967 13.3192 54.2975 13.3634 54.6072 13.3988C58.5527 13.8588 62.1709 12.9034 64.533 10.7714L68.1247 7.5424L68.7617 8.25013L65.1699 11.4791C62.6044 13.7881 58.7119 14.832 54.4921 14.3454C54.156 14.3012 53.8375 14.2569 53.519 14.2039Z" fill="#F4B821"/>
<path d="M77.6875 16.955C76.1217 15.3803 74.1755 13.9295 71.955 12.6379C71.9108 12.6025 65.1962 6.7372 54.2088 4.83519C46.9812 3.58783 40.4524 3.69398 36.7987 3.92399C39.1962 3.2605 46.1672 1.73005 55.0226 3.2605C66.0101 5.16251 72.8042 10.4528 72.8485 10.4881C75.0689 11.7797 77.0152 13.2306 78.5811 14.8053C85.3133 21.5817 83.6678 32.6576 79.041 43.2735C82.9601 33.3388 83.9686 23.2803 77.6875 16.955Z" fill="#F4B821"/>
<path d="M72.0701 24.8017L72.0613 24.4832C77.1569 24.3151 79.2004 15.6543 79.2181 15.5659L79.5278 15.6366C79.4481 15.9993 77.4046 24.6247 72.0701 24.8017Z" fill="#10319B"/>
<path d="M64.8337 11.0891L68.4253 7.86009C67.4522 7.34699 66.3199 6.7985 65.0371 6.26771L62.5247 8.53243C60.8262 10.0629 57.9864 10.7706 54.9343 10.4167C51.8027 10.054 49.016 8.61205 47.6536 6.64811C47.6094 6.59503 47.574 6.53311 47.5387 6.47118L45.2208 2.73793C43.7965 2.80871 42.505 2.9414 41.3814 3.10064L44.5573 8.2228L44.6281 8.33781C44.69 8.43512 44.752 8.52358 44.8139 8.62089C46.6009 11.2041 49.8388 13.0707 53.5985 13.7165C53.9082 13.7696 54.2178 13.8138 54.5362 13.8492C58.6145 14.3092 62.3743 13.3096 64.8337 11.0891Z" fill="#032663"/>
<path d="M32.0304 17.8753C27.0675 15.9114 27.9875 7.18865 28.0318 6.81709L28.3502 6.85248C28.3414 6.94094 27.4125 15.7079 32.1542 17.5745L32.0304 17.8753Z" fill="#10319B"/>
<path d="M46.3 54.4821C39.8597 53.4647 33.5963 51.4654 28.6157 48.5991C27.6072 47.0598 26.9172 45.1755 26.6872 43.0965C26.0945 37.7444 25.6787 30.331 26.4218 22.2098C26.7845 18.2112 29.6242 15.0264 32.9505 14.8141C37.48 14.5222 44.398 14.4779 52.3953 15.7253V15.7164C52.6165 15.7518 52.8376 15.7961 53.0588 15.8403C53.28 15.8757 53.5011 15.9111 53.7311 15.9465V15.9553C61.6754 17.4592 68.0537 19.6001 72.2293 21.3959C75.2902 22.7141 77.0153 26.8985 76.0156 30.7821C73.9897 38.6821 71.1058 45.5293 68.7526 50.3684C67.8502 52.2173 66.6117 53.7301 65.1786 54.8359C59.4637 55.9152 52.7934 55.7117 46.3 54.4821Z" fill="#032663"/>
<path d="M69.3278 53.5085L67.9478 53.9773C68.3016 53.3227 68.8944 52.208 69.3013 51.4295C70.3806 49.3683 71.5925 47.0328 72.5922 45.4935C74.1934 43.0076 77.7144 41.5479 79.9791 40.8933L79.3775 42.2026C77.272 42.813 74.8304 43.7861 73.3884 46.0154C72.4153 47.5194 71.2122 49.8283 70.1417 51.8719C69.7436 52.6592 69.6817 52.8538 69.3278 53.5085Z" fill="#F4B821"/>
<path d="M25.4398 46.1308C25.3778 46.122 25.3159 46.0689 25.3071 45.9981C25.2097 45.3435 25.1036 44.6269 24.9974 43.9015C24.6789 41.681 24.3162 39.1597 23.8916 37.3285C23.2635 34.6745 21.2288 32.914 19.3268 31.5428C19.256 31.4898 19.2383 31.3924 19.2914 31.3217C19.3445 31.2509 19.4418 31.2332 19.5126 31.2863C21.4676 32.6929 23.5554 34.5064 24.2012 37.2577C24.6347 39.0978 24.9974 41.6279 25.3159 43.8572C25.4221 44.5915 25.5194 45.2992 25.6255 45.9539C25.6344 46.0423 25.5813 46.122 25.4928 46.1397C25.4751 46.1397 25.4574 46.1397 25.4398 46.1308Z" fill="#F89E1C"/>
<path d="M79.4924 42.176C78.8378 43.733 78.1212 45.2812 77.3427 46.8116C75.7503 49.961 72.8752 52.1992 69.2216 53.6412C70.5132 51.2349 71.7251 48.5102 73.0787 46.4135C74.671 43.9719 77.4931 42.7599 79.4924 42.176Z" fill="#032663"/>
<path d="M76.3695 46.8556C76.8826 45.9798 77.3692 45.0863 77.838 44.1839C76.7499 44.644 75.5998 45.3782 74.7594 46.5371C73.8747 47.7668 73.0166 49.3238 72.1408 50.8012C73.9101 49.8811 75.3698 48.5807 76.3695 46.8556Z" fill="#0E51A0"/>
<path d="M69.425 53.6768L69.1418 53.5264C69.5842 52.6949 70.0353 51.8102 70.46 50.9609C71.2739 49.342 72.1143 47.67 73.0078 46.29C74.609 43.8218 77.4222 42.5832 79.51 41.9817L79.5985 42.2913C77.5638 42.8752 74.8213 44.0783 73.2732 46.4669C72.3885 47.8293 71.557 49.4924 70.7431 51.1025C70.3096 51.9606 69.8673 52.8453 69.425 53.6768Z" fill="#10319B"/>
<path d="M19.2917 31.7639C19.389 33.4536 19.5394 35.1521 19.7518 36.8507C20.1941 40.3539 22.1492 43.4237 25.1039 46.0157C24.697 43.3175 24.467 40.3451 23.9008 37.9123C23.2284 35.0725 20.9726 32.9847 19.2917 31.7639Z" fill="#032663"/>
<path d="M47.1848 54.8975C46.8929 54.8445 46.6098 54.8002 46.3267 54.7472C34.8527 52.9425 20.999 47.1745 19.6808 36.8683C18.4954 27.6413 18.1769 11.3725 29.3147 6.09993L29.3855 6.24148L29.3147 6.09993C31.261 5.17989 35.7904 4.04753 35.985 4.0033C36.047 3.97676 44.115 1.22548 55.0582 3.11864C66.028 5.02065 72.8929 10.2844 72.9548 10.3374C75.2284 11.6556 77.1658 13.1064 78.7051 14.6369C87.4278 23.3419 81.6598 38.558 77.44 46.856C72.8487 55.8884 58.473 56.8526 47.1848 54.8975ZM46.3797 54.4287C46.6628 54.4818 46.9459 54.5348 47.2378 54.5791C58.4287 56.5165 72.6452 55.5876 77.1569 46.7056C81.3325 38.4872 87.0562 23.4215 78.475 14.858C76.9623 13.3453 75.0426 11.9121 72.7779 10.594C72.6894 10.5321 65.8953 5.30374 55.0051 3.41943C44.1504 1.54396 36.162 4.2687 36.0824 4.29524C36.0204 4.31293 31.376 5.46298 29.4563 6.37418C18.5042 11.5583 18.8316 27.6767 19.9993 36.8152C21.2997 46.9533 35.0208 52.6417 46.3797 54.4287Z" fill="#10319B"/>
<path d="M46.6097 53.1281C41.0895 52.2611 35.7019 50.6157 31.2786 48.2979C30.5886 47.9352 30.0224 47.3867 29.6686 46.6966C29.0758 45.5377 28.6689 44.2196 28.5008 42.7953C27.9346 37.9739 27.5188 31.2859 28.1823 23.9787C28.5096 20.3781 31.1105 17.5118 34.1714 17.3349C38.347 17.0872 44.7165 17.0695 52.0857 18.2284V18.2196C52.2892 18.2549 52.4927 18.2903 52.6961 18.3346C52.8996 18.37 53.1031 18.3965 53.3154 18.4319V18.4407C60.6403 19.8208 66.6383 21.9882 70.4866 23.616C73.3086 24.8102 74.8037 28.3843 73.9013 31.8875C72.0613 39.0001 69.4338 45.1573 67.2752 49.5098C66.6471 50.7837 65.8333 51.8719 64.8955 52.7654C64.3559 53.2696 63.6747 53.5881 62.9404 53.6943C57.9244 54.4285 52.2007 54.1808 46.6097 53.1281Z" fill="#FCE8CA"/>
<path d="M45.3181 54.3846C38.9663 53.2877 33.1895 51.306 28.5539 48.6344L28.5185 48.6167L28.5008 48.5813C27.448 46.9712 26.7757 45.0427 26.5545 42.9991C26.006 38.0716 25.5195 30.4458 26.298 22.0328C26.6695 17.9457 29.5447 14.6901 32.9771 14.469C37.595 14.1682 57.8359 14.4601 72.4504 21.2985C75.5821 22.767 77.1922 26.7922 76.2014 30.6582C74.1048 38.8324 71.0792 45.8654 68.9207 50.3152C68.036 52.1288 66.7887 53.6946 65.3024 54.8535L65.2759 54.88L65.2405 54.8889C59.7468 55.9328 53.0234 55.8089 46.3177 54.5439C45.9639 54.4996 45.6366 54.4466 45.3181 54.3846ZM46.3443 54.2342C53.0058 55.4905 59.6672 55.6143 65.1167 54.5881C66.5498 53.4646 67.7618 51.943 68.6199 50.1914C70.7785 45.7504 73.7952 38.7439 75.8829 30.5962C76.8384 26.8718 75.2991 22.997 72.3089 21.5993C57.7564 14.7963 37.595 14.5043 32.9948 14.7963C29.7127 15.0086 26.9703 18.1314 26.6076 22.0682C25.838 30.4458 26.3245 38.0627 26.8642 42.9637C27.0853 44.9454 27.7311 46.8208 28.7396 48.3778C33.5079 51.1203 39.7536 53.1992 46.3443 54.2342Z" fill="#10319B"/>
<path d="M24.9975 45.8828C24.8559 44.9805 24.7409 44.0428 24.6259 43.1316C24.3959 41.3534 24.1659 39.5133 23.7855 37.9121C23.1309 35.1431 20.9546 33.0907 19.2383 31.8522L19.4241 31.5957C21.1846 32.8607 23.4228 34.975 24.0951 37.8413C24.4755 39.4602 24.7144 41.3092 24.9356 43.0962C25.0506 43.9985 25.1655 44.9363 25.3071 45.8386L24.9975 45.8828Z" fill="#10319B"/>
<path d="M20.6273 50.014C19.2914 46.5108 15.5228 38.5047 7.1009 31.8874C6.27817 31.2416 5.08389 31.8874 5.16351 32.9313L5.22541 33.7452C5.83583 41.9902 11.5153 48.9878 19.4595 51.2879C20.2203 51.5002 20.9104 50.7571 20.6273 50.014Z" fill="#F5851F"/>
<path d="M19.4595 51.2799C20.2203 51.5011 20.9104 50.758 20.6273 50.0149C19.4507 46.9362 16.3898 40.3721 9.94949 34.3299C14.939 40.3633 17.3718 48.1571 18.0972 50.8287C18.5395 50.9968 18.9907 51.1472 19.4595 51.2799Z" fill="#F89E1C"/>
<path d="M10.5952 35.6477C10.8872 35.3911 11.1171 35.2938 11.1525 35.2761L11.4091 35.86L11.2852 35.5681L11.4179 35.86C11.3825 35.8777 7.94124 37.7443 10.9402 46.0866L10.0025 45.255C7.71122 38.629 9.59555 36.5146 10.5952 35.6477Z" fill="#F89E1C"/>
<path d="M9.05601 33.5156C9.05601 33.5156 5.44661 34.4533 6.84437 40.0001C6.84437 40.0001 4.3054 33.7898 5.68546 31.9232C5.69431 31.9232 6.58782 30.72 9.05601 33.5156Z" fill="#032663"/>
<path d="M5.46444 31.8085C5.54406 31.7378 5.62367 31.6847 5.72098 31.6316C6.20754 31.3751 6.76489 31.4281 7.19838 31.7643C15.753 38.4877 19.5393 46.7327 20.7778 49.9617C20.9282 50.3598 20.8486 50.8021 20.5567 51.1206C20.2647 51.4391 19.8312 51.5629 19.4154 51.4391C11.4447 49.1301 5.68561 42.0263 5.06635 33.7548L5.0044 32.9409C4.96902 32.4986 5.14597 32.0828 5.46444 31.8085ZM20.247 50.9702C20.2736 50.9525 20.3001 50.926 20.3178 50.8994C20.5301 50.6694 20.592 50.3598 20.477 50.0678C19.2562 46.8654 15.4964 38.6823 7.00373 32.0032C6.67641 31.7466 6.24295 31.7112 5.87139 31.9059C5.49984 32.1005 5.2875 32.4897 5.32289 32.9055L5.38483 33.7194C5.9864 41.8582 11.6659 48.8559 19.5039 51.1206C19.7693 51.209 20.0436 51.1471 20.247 50.9702Z" fill="#10319B"/>
<path d="M7.92367 34.0286C8.48985 33.542 8.99413 33.3651 9.01183 33.3651L9.1091 33.6658C8.96756 33.7101 5.69435 34.8513 6.91518 40L6.60555 40.0708C5.79166 36.6294 6.95055 34.869 7.92367 34.0286Z" fill="#10319B"/>
<path d="M10.3832 35.6028C10.6663 35.3551 10.8875 35.2578 10.9229 35.2401L11.0467 35.532C11.0114 35.5497 7.52579 37.1598 10.1444 45.2013L9.8436 45.2986C7.75581 38.876 9.42782 36.4255 10.3832 35.6028Z" fill="#10319B"/>
<path d="M72.7693 57.3934C75.8567 55.2702 83.509 50.8293 94.2045 50.1658C95.2484 50.1038 95.8676 51.3158 95.213 52.1209L94.6999 52.7578C89.5069 59.1981 80.8639 61.7282 73.017 59.1008C72.2562 58.8531 72.1146 57.8446 72.7693 57.3934Z" fill="#F89E1C"/>
<path d="M73.9988 57.9501C74.0165 57.9501 74.0253 57.9589 74.043 57.9589C76.9801 58.7817 80.1472 57.6405 81.9165 55.1546C82.5003 54.3318 82.9692 53.403 83.1816 52.3856C78.5548 53.6064 75.2904 55.7384 73.7865 56.8708C73.3884 57.1716 73.5034 57.8085 73.9988 57.9501Z" fill="#F4B821"/>
<path d="M78.8821 60.0551C84.8889 60.1347 90.763 57.5338 94.6997 52.7567L95.2129 52.1286C95.2748 52.049 95.319 51.9694 95.3632 51.8897L94.8767 50.3593C94.6909 50.2531 94.4697 50.2001 94.222 50.2177C93.1428 50.2885 92.1077 50.3947 91.0904 50.5362C90.2676 55.9769 82.6861 58.9139 78.8821 60.0551Z" fill="#F5851F"/>
<path d="M89.2236 51.3411C89.5597 52.6326 89.4801 55.6139 83.9687 59.648L82.8806 59.7187C90.5594 54.4108 88.4274 51.0314 88.4009 51.0049L88.9317 50.6422C88.9582 50.6687 89.1086 50.9164 89.2236 51.3411Z" fill="#F89E1C"/>
<path d="M91.6654 50.3858C91.6654 50.3858 94.107 53.2078 89.7987 56.9764C89.7987 56.9764 95.4163 53.314 95.3367 50.9873C95.3367 50.9962 95.2836 49.5011 91.6654 50.3858Z" fill="#032663"/>
<path d="M95.5931 51.0318C95.6993 51.4476 95.6108 51.8811 95.3366 52.2261L94.8235 52.863C89.6129 59.321 80.8282 61.8865 72.9636 59.2591C72.5567 59.1264 72.2647 58.7725 72.2028 58.3479C72.1409 57.9233 72.3267 57.5075 72.6805 57.2686C75.5291 55.3135 83.3318 50.6868 94.1954 50.0145C94.735 49.9791 95.2304 50.2622 95.487 50.7487C95.5312 50.8372 95.5666 50.9345 95.5931 51.0318ZM72.539 58.401C72.6097 58.6664 72.7955 58.8699 73.0609 58.9583C80.8017 61.5415 89.4447 59.0202 94.5669 52.6596L95.08 52.0226C95.3454 51.6953 95.3896 51.2618 95.195 50.8814C95.0004 50.5099 94.6288 50.2975 94.213 50.3241C83.4291 50.9964 75.6883 55.5878 72.8574 57.5252C72.6009 57.7021 72.4771 57.9852 72.5213 58.2948C72.5213 58.3302 72.5301 58.3656 72.539 58.401Z" fill="#10319B"/>
<path d="M92.311 51.4573C92.6383 52.7046 92.5853 54.8101 89.9578 57.181L89.7455 56.9421C93.6822 53.3947 91.6298 50.5992 91.5414 50.4841L91.7979 50.2895C91.7979 50.3072 92.1164 50.7318 92.311 51.4573Z" fill="#10319B"/>
<path d="M89.3917 51.3594C89.7102 52.5802 89.6925 55.5526 84.3138 59.6486L84.1192 59.392C90.8691 54.2434 88.8963 50.9524 88.8786 50.9171L89.144 50.749C89.1706 50.7844 89.2944 50.9967 89.3917 51.3594Z" fill="#10319B"/>
<path d="M41.3903 73.475C40.7621 73.3689 40.1605 73.1035 39.6298 72.6877C38.5151 71.8119 37.9666 70.4495 38.1613 69.0429L39.2847 61.1429C39.4882 59.7363 40.3906 58.5774 41.7087 58.0466C43.0268 57.5158 44.4865 57.7193 45.6012 58.604L51.9265 63.5669C53.0057 64.4161 53.5542 65.7343 53.395 67.0967C53.2358 68.459 52.3954 69.6091 51.148 70.1841C51.1126 70.2018 51.0684 70.2195 51.0241 70.2372L50.9711 70.2549L43.5134 73.2539C42.8234 73.5193 42.0891 73.5989 41.3903 73.475ZM43.7346 58.4447C43.1419 58.3386 42.5314 58.4093 41.9476 58.6393C40.8417 59.0817 40.0809 60.0548 39.9129 61.2314L38.7893 69.1314C38.6212 70.308 39.0813 71.4492 40.019 72.1834C40.9568 72.9177 42.1776 73.0946 43.2834 72.6435L50.7853 69.6268C50.8207 69.6091 50.8561 69.6002 50.8826 69.5825C51.9265 69.1048 52.6254 68.1494 52.7581 67.0082C52.8908 65.867 52.4396 64.77 51.5284 64.0623L45.2031 59.0994C44.7696 58.7544 44.2654 58.5332 43.7346 58.4447Z" fill="#F89E1C"/>
<path d="M50.8472 69.8483C50.8826 69.8306 50.9179 69.8129 50.9533 69.8041C53.3153 68.7248 53.7312 65.4958 51.6522 63.868L45.4684 59.0201C43.3276 57.3393 40.1782 58.6132 39.789 61.3025L38.692 69.0256C38.3116 71.7149 40.9833 73.8116 43.5045 72.8031L50.7941 69.8748C50.8206 69.866 50.8383 69.8571 50.8472 69.8483Z" fill="#032663"/>
<path d="M48.2021 68.1767C48.2198 68.1679 48.2463 68.159 48.264 68.1502C49.5999 67.5398 49.8299 65.7262 48.6621 64.8062L45.1766 62.0814C43.9735 61.1349 42.1953 61.8514 41.9741 63.3642L41.3549 67.7167C41.1425 69.2295 42.6465 70.4149 44.0708 69.8399L48.1756 68.1856C48.1844 68.1856 48.1933 68.1856 48.2021 68.1767Z" fill="#33FCFE"/>
<path d="M74.8922 41.3091L79.3331 39.6548C79.3331 39.6548 82.4913 28.2605 79.6604 22.3421L78.0062 25.4826C77.9973 25.4826 79.2977 28.2958 74.8922 41.3091Z" fill="#F4B821"/>
<path d="M67.5849 59.8611C66.311 60.8873 59.5788 62.8866 59.5788 62.8866C59.5788 62.8866 61.4277 64.8505 60.8793 68.2299C60.4723 70.76 57.7033 72.6001 57.7033 72.6001C59.4638 75.1656 57.9953 78.8812 55.8987 81.5351C53.802 84.1891 55.0582 85.2861 55.0582 85.2861C55.0582 85.2861 66.7357 73.0336 68.8942 65.3902C69.7701 62.285 67.5849 59.8611 67.5849 59.8611Z" fill="#F4B821"/>
<path d="M23.1485 67.2743C23.1485 67.2743 25.6255 67.2832 26.634 69.141C27.6425 70.9899 32.8178 86.781 35.4983 92.5666C35.9848 93.6105 37.0818 97.0961 39.0369 96.7776C39.0369 96.7776 36.2237 97.7861 33.1008 93.3363C29.9869 88.8776 24.5639 72.2373 23.1485 67.2743Z" fill="#0E51A0"/>
<path d="M31.9422 38.1337C31.8626 38.116 31.783 38.0983 31.7034 38.0629C31.1372 37.8241 30.8718 37.1694 31.1107 36.6032C32.3226 33.7193 35.1182 32.2065 38.2321 32.7461C41.2665 33.2681 43.5578 35.8159 43.6905 38.7883C43.717 39.4076 43.2393 39.9207 42.62 39.9472C42.0008 39.9738 41.4877 39.4961 41.4611 38.8768C41.3904 37.2136 40.1253 35.3293 37.8518 34.9312C35.764 34.5685 33.9681 35.5328 33.1631 37.4525C32.9508 37.9479 32.4376 38.2133 31.9422 38.1337Z" fill="#0E51A0"/>
<path d="M54.2797 41.9912C54.2 41.9735 54.1204 41.9558 54.0408 41.9204C53.4747 41.6816 53.2092 41.0269 53.4481 40.4607C54.6601 37.5768 57.4556 36.064 60.5696 36.6036C63.6039 37.1256 65.8952 39.6734 66.0279 42.6458C66.0545 43.2651 65.5767 43.787 64.9575 43.8136C64.3382 43.8401 63.8162 43.3624 63.7897 42.7431C63.7189 41.08 62.4539 39.1957 60.1803 38.7976C58.0925 38.4349 56.2967 39.3991 55.4917 41.3189C55.2882 41.8143 54.7839 42.0797 54.2797 41.9912Z" fill="#0E51A0"/>
<path d="M49.0955 45.6618C49.2901 45.6972 49.3962 45.9007 49.3166 46.0776C49.0512 46.6526 48.4231 46.9977 47.7685 46.8915C47.1138 46.7765 46.645 46.2369 46.583 45.6087C46.5653 45.4141 46.7423 45.2637 46.928 45.2903L49.0955 45.6618Z" fill="#032663"/>
<path d="M35.5958 27.9783C35.6489 27.9783 35.7108 27.9606 35.7639 27.9252C36.5335 27.4563 37.4536 27.3767 38.294 27.7129C38.4798 27.7836 38.6832 27.6952 38.754 27.5182C38.8248 27.3325 38.7363 27.129 38.5594 27.0582C37.5155 26.6424 36.3654 26.7398 35.4012 27.3236C35.2331 27.4298 35.18 27.6421 35.2862 27.8102C35.3393 27.9252 35.4631 27.9871 35.5958 27.9783Z" fill="#032663"/>
<path d="M63.5952 32.8251C63.5421 32.8074 63.4979 32.7721 63.4536 32.719C62.8875 32.0201 62.047 31.6309 61.1447 31.6662C60.9501 31.6751 60.782 31.5247 60.7731 31.3212C60.7643 31.1266 60.9147 30.9585 61.1182 30.9497C62.2417 30.9054 63.2944 31.3831 64.0021 32.259C64.126 32.4093 64.0994 32.6305 63.9491 32.7544C63.8517 32.8517 63.7102 32.8694 63.5952 32.8251Z" fill="#032663"/>
<path d="M94.0274 55.9678C93.9741 55.9146 93.9741 55.8347 94.0274 55.7815C94.0806 55.7283 94.1604 55.7283 94.2137 55.7815C94.2669 55.8347 94.2669 55.9146 94.2137 55.9678C94.1693 56.0211 94.0806 56.0211 94.0274 55.9678Z" fill="white"/>
<path d="M82.9869 16.7781C82.9337 16.7249 82.9337 16.645 82.9869 16.5918C83.0402 16.5385 83.12 16.5385 83.1733 16.5918C83.2265 16.645 83.2265 16.7249 83.1733 16.7781C83.12 16.8313 83.0402 16.8313 82.9869 16.7781Z" fill="white"/>
</g>
</svg>
