<svg width="100" height="100" viewBox="0 0 100 100" fill="none" xmlns="http://www.w3.org/2000/svg">
<path d="M68.2337 59.6384C69.0156 50.593 60.6011 43.5106 51.8387 45.879L48.4437 46.7949C48.4177 46.8015 48.4004 46.8059 48.3745 46.8124L39.9149 49.1042L31.3852 51.1191C31.3592 51.1256 31.3419 51.13 31.316 51.1366L27.8946 51.9487C19.0599 54.0317 15.0374 64.2759 20.0339 71.8565C21.6653 74.3337 23.3177 76.6031 24.9673 78.6798C25.8869 79.9105 27.0059 81.2379 28.2246 82.5953C33.5864 88.7116 38.7086 93.0474 42.705 96.6466C42.8591 96.7825 43.0219 96.9161 43.1825 97.0411C45.8067 99.3311 49.3429 99.8433 52.5671 98.9799C55.8069 98.2139 58.6785 96.0682 59.895 92.8047C59.9766 92.6183 60.056 92.4232 60.1268 92.2303C61.9261 87.1619 64.3643 80.9097 66.165 72.9778C66.5899 71.2037 66.9437 69.5122 67.1637 67.9834C67.6053 65.3674 67.9793 62.5936 68.2337 59.6384Z" fill="#F89E1C"/>
<path d="M57.6717 80.2605C58.8926 75.0165 53.3366 73.037 48.8339 77.4282C43.4661 82.6555 39.332 81.9635 33.3736 76.0721C28.5312 71.2787 23.9192 74.0037 22.3604 75.1905C23.254 76.4278 24.1454 77.6196 25.0386 78.7465C25.9582 79.9772 27.0772 81.3046 28.2959 82.662C33.6577 88.7783 38.7799 93.114 42.7763 96.7133C42.9304 96.8491 43.0932 96.9828 43.2538 97.1078C45.878 99.3978 49.4142 99.9099 52.6384 99.0466C55.8782 98.2806 58.7498 96.1349 59.9663 92.8713C60.0479 92.6849 60.1273 92.4899 60.1981 92.297C60.7814 90.6393 61.4444 88.8602 62.1155 86.9317C59.506 87.1697 56.4893 85.329 57.6717 80.2605Z" fill="#032663"/>
<path d="M52.4617 99.2564C49.0448 100.123 45.5599 99.3765 43.1114 97.2353C42.9508 97.1103 42.7881 96.9766 42.6318 96.8321C42.0587 96.3145 41.453 95.7776 40.8344 95.2255C37.2201 92.0081 32.7354 88.0079 28.1383 82.7657C26.8436 81.3263 25.7441 80.0032 24.8702 78.8437C23.9639 77.7018 23.0617 76.5035 22.192 75.2878L22.105 75.1625L22.2281 75.0669C23.979 73.7301 28.5807 71.1458 33.449 75.9694C39.5443 82.001 43.5279 82.3537 48.6886 77.3262C51.4351 74.6507 54.3888 74.4267 56.0975 75.3929C57.6674 76.2838 58.3076 78.1193 57.7953 80.3113C57.281 82.5315 57.5401 84.3163 58.5525 85.4774C59.3694 86.4119 60.6805 86.8989 62.0588 86.7797L62.3098 86.7529L62.2218 86.9869C61.8422 88.0682 61.469 89.1019 61.1044 90.0965C60.8234 90.8766 60.5531 91.6264 60.2936 92.3458C60.225 92.5473 60.1456 92.7424 60.0639 92.9288C58.914 96.019 56.1491 98.3677 52.6303 99.1953C52.5742 99.2279 52.5136 99.2433 52.4617 99.2564ZM52.5536 98.8925C55.9663 98.0826 58.6514 95.8185 59.7692 92.8194C59.8486 92.6243 59.9303 92.4379 59.9924 92.2472C60.2498 91.5192 60.52 90.7694 60.801 89.9893C61.1378 89.0661 61.4744 88.1062 61.8305 87.1138C60.4368 87.1724 59.1343 86.6464 58.3021 85.6882C57.5483 84.8206 56.7896 83.1716 57.4813 80.2345L57.6372 80.2686L57.4813 80.2345C57.9572 78.1897 57.3867 76.4839 55.9382 75.6727C54.3271 74.7646 51.5315 74.9945 48.9123 77.5549C43.6567 82.6801 39.4025 82.3132 33.2225 76.2017C28.6408 71.6737 24.3151 73.9302 22.5468 75.2347C23.3861 76.4029 24.2578 77.5536 25.1271 78.6589C25.9924 79.8205 27.0875 81.1264 28.3822 82.5658C32.9662 87.7929 37.4488 91.7845 41.0522 94.9954C41.6709 95.5475 42.2765 96.0844 42.8496 96.602C43.0037 96.7378 43.1557 96.865 43.3184 96.9987C45.7278 99.0946 49.1866 99.8104 52.5536 98.8925Z" fill="#10319B"/>
<path d="M10.7649 63.6582C10.4006 67.4146 10.207 76.3477 14.8362 86.1112C15.2895 87.0642 16.6595 87.0207 17.0567 86.0454L17.3702 85.2847C20.5221 77.5626 18.5408 68.693 12.4035 63.0403C11.8065 62.5011 10.8489 62.8636 10.7649 63.6582Z" fill="#F5851F"/>
<path d="M52.782 99.1747C52.7215 99.1901 52.6696 99.2032 52.609 99.2186C49.1447 100.152 45.5711 99.4192 43.0857 97.2413C42.9251 97.1163 42.7624 96.9826 42.606 96.8381C42.033 96.3206 41.4273 95.7836 40.8087 95.2316C37.1944 92.0142 32.7096 88.0139 28.1126 82.7717C26.8179 81.3323 25.7184 80.0092 24.8445 78.8498C23.1079 76.6478 21.4489 74.3525 19.9089 72.0178C17.4879 68.3507 17.0317 63.9 18.6503 59.8256C20.2646 55.7708 23.6186 52.8768 27.8726 51.8629L31.2854 51.053L31.3546 51.0355L39.8843 49.0206L48.3438 46.7289L48.3871 46.7179L51.8081 45.7955C56.0293 44.6518 60.359 45.6072 63.71 48.4034C67.074 51.2148 68.7931 55.3453 68.4114 59.7229C68.1695 62.5093 67.8065 65.3263 67.3286 68.0897C67.1211 69.5232 66.7847 71.2103 66.3234 73.0949C64.7765 79.8853 62.7324 85.5497 61.0959 90.0981C60.815 90.8782 60.5382 91.6388 60.2809 92.3669C60.2123 92.5684 60.1329 92.7635 60.0512 92.9499C58.9141 95.9816 56.2076 98.3064 52.782 99.1747ZM52.5279 98.8985C55.9406 98.0887 58.6257 95.8246 59.7435 92.8254C59.8229 92.6303 59.9046 92.4439 59.9667 92.2532C60.224 91.5252 60.5007 90.7646 60.7817 89.9845C62.4204 85.4447 64.458 79.7911 66.0006 73.0202C66.4555 71.1465 66.7855 69.4702 67.0037 68.0431C67.4839 65.2884 67.8491 62.48 68.0845 59.7045C68.4558 55.4308 66.7803 51.3997 63.4987 48.6595C60.2302 45.9345 55.9915 45.0112 51.8893 46.1155L48.5028 47.0292L48.4596 47.0402L39.9741 49.3384L31.4357 51.3555L31.3665 51.3731L27.9451 52.1851C23.8122 53.1684 20.5251 55.9993 18.9494 59.9524C17.3717 63.9335 17.8166 68.2673 20.1789 71.8481C21.7081 74.1763 23.367 76.4716 25.1014 78.6649C25.9667 79.8265 27.0618 81.1324 28.3565 82.5718C32.9405 87.7989 37.4231 91.7905 41.0265 95.0014C41.6452 95.5535 42.2508 96.0904 42.8239 96.608C42.978 96.7438 43.1299 96.871 43.2927 97.0047C45.7107 99.0984 49.1696 99.8143 52.5279 98.8985Z" fill="#10319B"/>
<path d="M61.0503 48.4434C58.3816 47.1038 55.3067 46.668 52.2079 47.518L48.8064 48.4447C48.7804 48.4513 48.7631 48.4556 48.7372 48.4622L40.2366 50.7736L31.6614 52.7908C31.6354 52.7973 31.6181 52.8017 31.5922 52.8083L28.16 53.6139C23.3998 54.7377 21.686 58.7994 20.4431 63.2664C20.1651 64.276 20.9476 65.2928 21.956 65.2397C30.452 64.7984 49.303 61.9164 61.0503 48.4434Z" fill="#E26907"/>
<path d="M5.98863 16.5154C7.35426 14.9216 9.08839 13.4203 11.0725 12.0325L10.9396 12.1016C10.9396 12.1016 17.0014 6.41516 27.5185 3.74917C38.0024 1.09161 46.0947 3.06622 46.1426 3.08062C48.6168 3.34709 50.9025 3.84715 52.9104 4.61232C62.581 8.3104 65.054 20.8938 64.4194 33.5041C63.9752 42.6772 52.5612 49.6938 40.125 52.6427C27.7857 55.9741 14.4075 55.2421 9.63051 47.3925C3.06743 36.6157 -0.752507 24.3737 5.98863 16.5154Z" fill="#F89E1C"/>
<path d="M6.00104 16.5643C6.71804 15.7277 7.53915 14.9179 8.43731 14.1328C1.87931 22.0155 5.69069 34.1888 12.2162 44.9221C16.9974 52.7884 30.3672 53.5225 42.717 50.1973C49.7863 48.5203 56.5205 45.5214 61.1089 41.5623C56.7494 46.8083 48.6994 50.7601 40.1522 52.7852C27.8129 56.1166 14.4326 55.3762 9.65146 47.51C3.08826 36.6978 -0.737996 24.4309 6.00104 16.5643Z" fill="#F5851F"/>
<path d="M12.4728 26.0022C7.17728 26.2297 4.81309 18.2993 4.70795 17.9544L5.30234 17.786C5.32131 17.8608 7.63492 25.5916 12.4395 25.3824L12.4728 26.0022Z" fill="#F89E1C"/>
<path d="M50.7348 16.6223L50.4231 16.0908C55.0593 13.3671 53.2892 5.16235 53.2681 5.07921L53.8709 4.9441C53.9511 5.29539 55.7572 13.6769 50.7348 16.6223Z" fill="#F4B821"/>
<path d="M29.6987 10.7781C26.8803 11.4925 24.0275 11.2335 22.1036 10.0666C22.0411 10.0294 21.9786 9.99215 21.9139 9.94659L18.3863 7.54929L18.908 6.77998L22.4335 9.16897C22.4773 9.20211 22.5294 9.23314 22.5815 9.26417C24.4533 10.4001 27.3411 10.5528 30.1382 9.68453C32.8522 8.8373 34.9811 7.18278 35.8339 5.27659L37.1638 2.28504L38.0117 2.66293L36.6818 5.65448C35.7237 7.80857 33.377 9.65102 30.4095 10.5802C30.1726 10.658 29.9398 10.717 29.6987 10.7781Z" fill="#F4B821"/>
<path d="M30.5061 14.0338C26.7731 14.9801 23.0711 14.5824 20.3615 12.9334C20.2677 12.8775 20.1634 12.8155 20.0675 12.7513L19.9612 12.6809L15.1223 9.40384L15.644 8.63453L20.5809 11.9841C20.6664 12.0421 20.7519 12.1 20.8436 12.1476C23.3427 13.6642 26.7783 14.0232 30.2785 13.1359C30.5612 13.0643 30.8501 12.9822 31.1368 12.8918C34.8088 11.7398 37.6387 9.46514 38.888 6.64443L40.794 2.36542L41.6419 2.74332L39.7442 7.02022C38.3875 10.0805 35.3481 12.541 31.4226 13.7749C31.1192 13.8696 30.8137 13.9558 30.5061 14.0338Z" fill="#F4B821"/>
<path d="M53.0009 6.92396C50.9909 6.15047 48.701 5.63377 46.2268 5.36731C46.1706 5.35501 37.9162 2.81096 27.4324 5.46852C20.5401 7.21564 14.795 9.89301 11.6551 11.5384C13.5223 10.0033 19.0817 5.89533 27.5287 3.75411C38.0125 1.09655 46.1132 3.10441 46.1611 3.11881C48.6375 3.39359 50.9253 3.90198 52.9353 4.67546C61.5687 8.01707 64.4924 18.4689 64.5875 29.6996C64.1396 19.3458 61.0553 10.0407 53.0009 6.92396Z" fill="#F4B821"/>
<path d="M51.1212 16.0892L50.9892 15.813C55.4317 13.6516 53.8229 5.17586 53.8101 5.09061L54.1137 5.03137C54.1772 5.38688 55.7776 13.8294 51.1212 16.0892Z" fill="#10319B"/>
<path d="M39.3023 6.81197L41.2 2.53506C40.1389 2.46782 38.9177 2.4323 37.5698 2.45545L36.2399 5.447C35.3396 7.48024 33.0987 9.21625 30.2642 10.1117C27.3466 11.0283 24.311 10.851 22.3329 9.64475C22.2704 9.60751 22.2183 9.57648 22.1641 9.53714L18.6386 7.14814C17.4071 7.77001 16.3191 8.39972 15.3787 8.98319L20.2176 12.2603L20.3239 12.3307C20.4177 12.3865 20.5053 12.4528 20.5991 12.5087C23.2025 14.0873 26.8004 14.4583 30.3837 13.5499C30.6747 13.4762 30.9719 13.392 31.267 13.2995C35.0636 12.1159 37.9931 9.74521 39.3023 6.81197Z" fill="#032663"/>
<path d="M12.9358 25.7686C7.76303 25.9916 5.1383 17.9061 5.02484 17.5632L5.31993 17.4707C5.34932 17.5517 7.98458 25.6788 12.9202 25.4629L12.9358 25.7686Z" fill="#10319B"/>
<path d="M40.0316 52.5518C33.9274 54.1965 27.5933 54.8996 22.0498 54.3228C20.5488 53.3584 19.1963 51.967 18.1671 50.2105C15.5291 45.703 12.2255 39.3026 9.68182 31.816C8.42992 28.1339 9.6859 24.1878 12.5433 22.6848C16.4391 20.6355 22.5479 17.8571 30.1173 15.8145L30.1152 15.8061C30.3314 15.7514 30.5413 15.707 30.7575 15.6522C30.9737 15.5974 31.1794 15.5364 31.3956 15.4816L31.3977 15.4899C39.0261 13.68 45.5227 13.0596 49.9242 13.0056C53.1526 12.9659 56.3348 15.9905 56.9881 19.8243C58.318 27.6186 58.4623 34.8199 58.2901 40.0397C58.2197 42.0307 57.7181 43.8567 56.8911 45.4112C52.2462 48.6238 46.2569 51.071 40.0316 52.5518Z" fill="#032663"/>
<path d="M60.0265 42.5969L58.9875 43.5593C59.0433 42.8373 59.133 41.6201 59.1822 40.767C59.3204 38.52 59.4784 35.967 59.7514 34.2167C60.1936 31.3882 62.7309 28.6922 64.4735 27.2241L64.4635 28.6158C62.8392 29.992 61.0624 31.8139 60.6651 34.3655C60.4003 36.0784 60.2443 38.6043 60.1018 40.8347C60.0588 41.6774 60.0824 41.8749 60.0265 42.5969Z" fill="#F4B821"/>
<path d="M18.2571 53.3969C18.1906 53.4138 18.1218 53.3869 18.0905 53.333C17.7413 52.7932 17.3691 52.1974 16.9864 51.5954C15.83 49.7562 14.5126 47.6657 13.4116 46.2194C11.8092 44.1216 9.31668 43.3642 7.08307 42.8952C6.99982 42.8809 6.94338 42.7979 6.96598 42.7125C6.98027 42.6293 7.06329 42.5728 7.14866 42.5954C9.43636 43.0685 11.9976 43.8526 13.6648 46.0314C14.7783 47.4922 16.0957 49.5826 17.2542 51.4302C17.6369 52.0322 18.007 52.6197 18.35 53.1698C18.3939 53.2383 18.3755 53.3403 18.307 53.3842C18.2882 53.3801 18.2737 53.3927 18.2571 53.3969Z" fill="#F89E1C"/>
<path d="M64.5527 28.5504C64.5872 30.1874 64.5656 31.8475 64.4816 33.5057C64.314 36.9282 62.6517 40.0394 59.9896 42.767C60.1869 40.1245 60.1795 37.233 60.5482 34.8479C60.9945 32.036 63.0156 29.8514 64.5527 28.5504Z" fill="#032663"/>
<path d="M63.6413 33.9238C63.7462 32.9416 63.8262 31.9657 63.8875 30.9857C63.1081 31.8204 62.3712 32.9274 62.0948 34.2804C61.7958 35.7188 61.6475 37.4376 61.4636 39.0857C62.6548 37.5716 63.4313 35.8528 63.6413 33.9238Z" fill="#0E51A0"/>
<path d="M60.1767 42.701L59.8708 42.6812C59.9406 41.7699 59.9812 40.8128 60.0218 39.8912C60.0993 38.1373 60.189 36.3272 60.4272 34.7538C60.8631 31.9357 62.8779 29.7262 64.4793 28.3646L64.6798 28.597C63.1136 29.923 61.161 32.0637 60.729 34.7923C60.4866 36.3491 60.403 38.1488 60.3235 39.8943C60.287 40.8326 60.2465 41.7897 60.1767 42.701Z" fill="#10319B"/>
<path d="M7.13681 43.105C7.88631 44.5608 8.6961 46.0101 9.55989 47.428C11.3377 50.3574 14.2813 52.301 17.9212 53.4311C16.489 51.2017 15.1181 48.6558 13.6577 46.7344C11.9341 44.4726 9.10812 43.5166 7.13681 43.105Z" fill="#032663"/>
<path d="M40.9732 52.568C40.6989 52.6375 40.4245 52.7071 40.1564 52.7662C29.274 55.7018 14.7407 56.0677 9.4974 47.4604C4.80204 39.7582 -1.90568 25.4787 5.87368 16.4105L5.98843 16.5142L5.87368 16.4105C7.2331 14.8272 10.7998 12.0384 10.9555 11.9193C11.0052 11.8713 17.0568 6.24942 27.4908 3.6045C37.9581 0.951157 46.1085 2.91101 46.1939 2.93361C48.7306 3.20195 51.0205 3.71865 52.9804 4.46941C64.1402 8.73674 65.0448 24.4872 64.5855 33.4961C64.0831 43.3122 51.7398 49.8388 40.9732 52.568ZM40.0722 52.469C40.3382 52.4016 40.6147 52.3403 40.889 52.2708C51.5558 49.5669 63.7809 43.1322 64.2714 33.4784C64.7247 24.5507 63.8414 8.95407 52.867 4.75477C50.9279 4.01642 48.665 3.50172 46.1366 3.23127C46.0325 3.20457 37.9508 1.27153 27.5667 3.90381C17.2158 6.52765 11.2119 12.0932 11.1559 12.1516C11.1124 12.1892 7.4564 15.0449 6.10939 16.6074C-1.54771 25.5296 5.11375 39.6615 9.75689 47.2973C14.9103 55.7593 29.3145 55.3729 40.0722 52.469Z" fill="#10319B"/>
<path d="M39.7663 51.23C34.5309 52.6368 29.1183 53.3098 24.2808 53.0053C23.5339 52.9558 22.8049 52.6981 22.2251 52.2257C21.2365 51.4323 20.3616 50.4241 19.6441 49.2345C17.2386 45.1902 14.2304 39.4316 11.9305 32.6972C10.7984 29.383 11.9745 25.8199 14.6098 24.4528C18.2066 22.5855 23.8461 20.0499 30.8273 18.1652L30.8252 18.1569C31.0247 18.1063 31.216 18.0578 31.4176 18.0156C31.6171 17.965 31.8062 17.9082 32.0058 17.8576L32.0079 17.8659C39.0439 16.1974 45.2019 15.7424 49.2623 15.6688C52.2389 15.6132 54.962 18.1879 55.5454 21.6412C56.723 28.6602 56.8296 35.1543 56.6411 39.8562C56.5833 41.2334 56.2983 42.5179 55.8133 43.6761C55.5388 44.3385 55.058 44.8851 54.456 45.2677C50.2959 47.9149 45.1312 49.9497 39.7663 51.23Z" fill="#FCE8CA"/>
<path d="M39.1163 52.8519C33.0554 54.3883 27.1556 54.9194 22.0032 54.385L21.9679 54.3852L21.9366 54.3665C20.371 53.3565 19.0142 51.9132 18.0038 50.1961C15.5813 46.0499 12.1295 39.4836 9.49337 31.7372C8.20998 27.9658 9.46783 23.9573 12.427 22.402C16.4017 20.315 34.4367 12.5756 50.0725 12.8592C53.424 12.921 56.4395 15.8463 57.0906 19.6718C58.463 27.7385 58.5643 35.1541 58.4012 39.9558C58.339 41.9093 57.8438 43.7956 56.9858 45.4023L56.9672 45.4335L56.9381 45.4586C52.4842 48.5519 46.4849 51.0991 40.0412 52.6263C39.7315 52.696 39.4239 52.7739 39.1163 52.8519ZM39.9694 52.3083C46.3632 50.7937 52.3064 48.2696 56.7335 45.2096C57.5583 43.6468 58.035 41.8271 58.0953 39.936C58.2544 35.153 58.1573 27.754 56.7829 19.7144C56.1592 16.0324 53.2689 13.2169 50.061 13.163C34.4876 12.8812 16.5254 20.5933 12.5652 22.6678C9.74722 24.1519 8.5471 28.0043 9.78424 31.6281C12.414 39.3495 15.845 45.9034 18.2633 50.033C19.2444 51.7044 20.5554 53.1063 22.0688 54.0853C27.3647 54.6275 33.7177 53.9992 39.9694 52.3083Z" fill="#10319B"/>
<path d="M17.7586 53.3457C17.2777 52.6005 16.8051 51.8178 16.347 51.0579C15.4476 49.5694 14.5106 48.0373 13.5412 46.7611C11.8699 44.5657 9.12291 43.6075 7.11624 43.1959L7.18182 42.8962C9.23639 43.3221 12.0521 44.3072 13.7882 46.5835C14.768 47.8658 15.7092 49.4146 16.6086 50.9032C17.0666 51.663 17.5393 52.4457 18.0181 53.1826L17.7586 53.3457Z" fill="#10319B"/>
<path d="M60.1386 29.598L63.4189 26.3775C63.4189 26.3775 61.7134 15.0418 56.8633 10.9181L56.6354 14.347C56.6375 14.3553 58.8989 16.3303 60.1386 29.598Z" fill="#F4B821"/>
<path d="M20.32 32.9742C20.3671 32.9541 20.4103 32.9176 20.4414 32.8668C20.9395 32.1656 21.7134 31.7445 22.5741 31.7186C22.7642 31.716 22.9086 31.5598 22.8978 31.3716C22.8952 31.1815 22.7389 31.0372 22.5508 31.048C21.4754 31.0824 20.5086 31.6021 19.8885 32.4802C19.7789 32.6367 19.8202 32.8435 19.9686 32.955C20.0804 33.0234 20.2112 33.0264 20.32 32.9742Z" fill="#032663"/>
<path d="M46.6309 26.6166C46.5797 26.6203 46.5247 26.6076 46.4738 26.5766C45.7105 26.1801 44.8297 26.1589 44.0521 26.5288C43.8818 26.6133 43.6821 26.5402 43.6058 26.3679C43.5213 26.1976 43.5944 25.9979 43.7667 25.9216C44.7391 25.4612 45.8366 25.4821 46.7892 25.9802C46.9581 26.0694 47.0158 26.2722 46.9348 26.4392C46.8746 26.5491 46.7515 26.6135 46.6309 26.6166Z" fill="#032663"/>
<path d="M30.5983 39.41C30.5763 39.6061 30.538 39.8061 30.4793 39.9937L24.8313 41.8785C24.6728 41.7608 24.5267 41.6227 24.395 41.4724L30.5983 39.41Z" fill="#0052A3"/>
<path d="M30.6146 38.6525C30.6335 38.8387 30.6341 39.0206 30.6246 39.1963L24.2552 41.3248C24.1438 41.187 24.0387 41.039 23.9398 40.8808L30.6146 38.6525Z" fill="#0052A3"/>
<path d="M30.2739 37.2432L30.4294 37.7432L23.5539 40.0374L23.3922 39.5476L30.2739 37.2432Z" fill="#0052A3"/>
<path d="M30.4852 37.9376C30.5349 38.1076 30.5683 38.2816 30.5915 38.4494L23.8287 40.7077C23.7481 40.5538 23.6758 40.3979 23.6178 40.2298L30.4852 37.9376Z" fill="#0052A3"/>
<path d="M29.9264 41.1507C29.6991 41.4658 29.4271 41.7396 29.1105 41.9721L27.1124 42.637C26.724 42.6441 26.3362 42.5818 25.9712 42.4706L29.9264 41.1507Z" fill="#0052A3"/>
<path d="M28.1434 33.1976L22.7208 35.0107C22.7962 34.7844 22.9001 34.5685 23.0161 34.3671L27.5329 32.8596C27.7448 32.9471 27.9544 33.0612 28.1434 33.1976Z" fill="#0052A3"/>
<path d="M30.4077 40.236C30.3241 40.4643 30.2202 40.6801 30.1042 40.8816L25.6591 42.3631C25.4371 42.2693 25.2275 42.1553 25.0303 42.0209L30.4077 40.236Z" fill="#0052A3"/>
<path d="M26.1513 32.5604C26.5254 32.5654 26.8867 32.6255 27.2372 32.7489L23.1857 34.1006C23.3986 33.7978 23.6542 33.5279 23.9544 33.2993L26.1513 32.5604Z" fill="#0052A3"/>
<path d="M28.9145 33.9126C29.0259 34.0504 29.131 34.1984 29.2217 34.3586L22.5224 36.5929C22.5034 36.4067 22.5028 36.2248 22.5124 36.0491L28.9145 33.9126Z" fill="#0052A3"/>
<path d="M29.3246 34.5339C29.4051 34.6879 29.4775 34.8438 29.5354 35.0118L22.668 37.3041C22.6183 37.134 22.5767 36.962 22.5535 36.7942L29.3246 34.5339Z" fill="#0052A3"/>
<path d="M28.3509 33.338C28.5012 33.4577 28.6473 33.5958 28.7789 33.746L22.5367 35.8265C22.5586 35.6305 22.5888 35.4325 22.6475 35.2449L28.3509 33.338Z" fill="#0052A3"/>
<path d="M29.8229 35.878L29.9866 36.376L23.111 38.6702L22.9473 38.1722L29.8229 35.878Z" fill="#0052A3"/>
<path d="M29.6055 35.1937L29.761 35.6937L22.8854 37.9879L22.7217 37.4899L29.6055 35.1937Z" fill="#0052A3"/>
<path d="M30.0485 36.561L30.2122 37.0589L23.3284 39.3551L23.173 38.8552L30.0485 36.561Z" fill="#0052A3"/>
<path d="M47.1562 35.8091C47.1076 36.0029 47.0509 36.1986 46.9738 36.382L41.1389 37.6011C41.001 37.461 40.8694 37.3108 40.7521 37.1484L47.1562 35.8091Z" fill="#0052A3"/>
<path d="M47.26 35.0565C47.2524 35.2404 47.2347 35.4181 47.2006 35.5998L40.6245 36.9806C40.5276 36.8307 40.4368 36.6705 40.3625 36.5064L47.26 35.0565Z" fill="#0052A3"/>
<path d="M47.0772 33.6164L47.1754 34.1302L40.0793 35.6194L39.9811 35.1056L47.0772 33.6164Z" fill="#0052A3"/>
<path d="M47.2148 34.3297C47.24 34.5056 47.2632 34.6734 47.2618 34.8472L40.2886 36.3067C40.2244 36.1488 40.1747 35.9787 40.1331 35.8067L47.2148 34.3297Z" fill="#0052A3"/>
<path d="M46.2804 37.459C46.0206 37.7472 45.7142 37.986 45.3713 38.1815L43.3076 38.6108C42.9175 38.575 42.5443 38.4658 42.196 38.3159L46.2804 37.459Z" fill="#0052A3"/>
<path d="M45.431 29.3504L39.8376 30.5285C39.9415 30.3127 40.0657 30.1093 40.2021 29.9203L44.8557 28.9432C45.0654 29.0573 45.2544 29.1937 45.431 29.3504Z" fill="#0052A3"/>
<path d="M46.8718 36.6058C46.7679 36.8216 46.6355 37.027 46.4909 37.218L41.911 38.1773C41.7014 38.0632 41.5124 37.9268 41.3276 37.772L46.8718 36.6058Z" fill="#0052A3"/>
<path d="M43.5224 28.4851C43.89 28.5351 44.253 28.6381 44.5849 28.792L40.4002 29.6644C40.6456 29.3883 40.9337 29.1453 41.252 28.9557L43.5224 28.4851Z" fill="#0052A3"/>
<path d="M46.1175 30.1471C46.2145 30.2971 46.297 30.4592 46.3713 30.6233L39.4636 32.067C39.4712 31.8831 39.489 31.7054 39.5149 31.5258L46.1175 30.1471Z" fill="#0052A3"/>
<path d="M46.4514 30.8121C46.5156 30.97 46.5653 31.1401 46.6069 31.3121L39.519 32.7993C39.4856 32.6253 39.4706 32.4555 39.4638 32.2838L46.4514 30.8121Z" fill="#0052A3"/>
<path d="M45.6173 29.5138C45.7552 29.6539 45.8787 29.8061 45.996 29.9685L39.5592 31.3158C39.6077 31.122 39.6562 30.9282 39.7333 30.7448L45.6173 29.5138Z" fill="#0052A3"/>
<path d="M46.79 32.2127L46.8943 32.7164L39.7982 34.2055L39.6939 33.7019L46.79 32.2127Z" fill="#0052A3"/>
<path d="M46.6544 31.5085L46.7506 32.0141L39.6545 33.5033L39.5563 32.9895L46.6544 31.5085Z" fill="#0052A3"/>
<path d="M46.9335 32.9146L47.0399 33.4265L39.9418 34.9075L39.8375 34.4038L46.9335 32.9146Z" fill="#0052A3"/>
<path d="M35.2709 42.8341C34.9052 42.9528 34.7946 43.6843 35.0649 44.3607C35.9574 46.5052 37.4528 47.8035 38.7273 47.4394C40.0018 47.0754 40.6574 45.108 40.3851 42.7855C40.3014 42.0657 39.8598 41.4964 39.4694 41.5873L35.2709 42.8341Z" fill="#032663"/>
<path d="M44.5949 76.9008C43.7818 77.1069 42.9095 77.1162 42.0539 76.9004C40.2343 76.4411 38.8425 75.0907 38.3215 73.2895L35.3699 62.9534C34.8576 61.15 35.3275 59.2633 36.6347 57.9192C37.9397 56.5665 39.8037 56.0388 41.6233 56.4982L52.1314 59.128C53.8903 59.566 55.2581 60.8579 55.7984 62.5898C56.3387 64.3217 55.94 66.1628 54.7454 67.5151C54.7109 67.5607 54.6656 67.5998 54.6311 67.6453L54.5793 67.6953L47.0511 75.4772C46.3565 76.1872 45.5032 76.6705 44.5949 76.9008ZM39.238 57.112C38.4422 57.3138 37.6947 57.7426 37.0886 58.3658C35.9432 59.5491 35.533 61.1997 35.9884 62.7782L38.9399 73.1143C39.3953 74.6928 40.6155 75.8749 42.2077 76.2723C43.7998 76.6696 45.4411 76.2075 46.5778 75.0264L54.1578 67.1945C54.1944 67.1576 54.2311 67.1207 54.2591 67.086C55.3028 65.9008 55.6503 64.2937 55.1735 62.7759C54.7075 61.2645 53.5091 60.1321 51.9668 59.7497L41.4587 57.1199C40.7092 56.9232 39.9473 56.9322 39.238 57.112Z" fill="#F89E1C"/>
<path d="M44.5711 76.9909C43.7666 77.1948 42.903 77.202 42.0474 76.9862C40.2386 76.5333 38.8598 75.198 38.3496 73.4033L35.3237 62.8099C34.8157 61.0237 35.2814 59.1565 36.5713 57.8168C37.8612 56.4772 39.7165 55.9516 41.5253 56.4046L52.289 59.0985C54.0284 59.5322 55.3854 60.8177 55.9213 62.5323C56.4572 64.2469 56.0649 66.0771 54.8854 67.4164C54.8509 67.462 54.8056 67.5011 54.7711 67.5466L54.7193 67.5966L47.0013 75.5739C46.3154 76.2817 45.4793 76.7606 44.5711 76.9909ZM39.0827 56.7199C38.235 56.9348 37.4465 57.3833 36.8058 58.052C35.5957 59.307 35.1556 61.0573 35.6351 62.7309L38.6611 73.3243C39.1406 74.998 40.4347 76.2534 42.1264 76.6807C43.8182 77.1081 45.5524 76.6132 46.7712 75.356L54.5323 67.331C54.569 67.2941 54.6035 67.2485 54.6402 67.2116C55.7485 65.9548 56.1174 64.2502 55.6164 62.6372C55.1177 61.0329 53.8454 59.8271 52.2143 59.4213L41.4506 56.7273C40.6534 56.5243 39.844 56.527 39.0827 56.7199Z" fill="#10319B"/>
<path d="M12.3951 63.0425C11.8067 62.5012 10.8491 62.8636 10.7651 63.6582C10.4427 66.9621 10.2524 74.274 13.3641 82.627C11.5705 74.9342 12.8793 66.8048 13.4265 64.0607C13.0899 63.7133 12.7533 63.366 12.3951 63.0425Z" fill="#F89E1C"/>
<path d="M13.3634 81.1341C12.9828 81.2306 12.7317 81.2206 12.6949 81.2207L12.7252 80.5778L12.7046 80.896L12.7144 80.5713C12.7512 80.5712 16.7029 80.4348 17.7386 71.5553L18.2122 72.7333C17.311 79.7467 14.6523 80.8074 13.3634 81.1341Z" fill="#F89E1C"/>
<path d="M13.79 83.7607C13.79 83.7607 17.4677 84.5408 18.7067 78.8963C18.7067 78.8963 18.2072 85.6422 16.1199 86.7053C16.1199 86.7053 14.7673 87.398 13.79 83.7607Z" fill="#032663"/>
<path d="M16.2741 86.9151C16.1703 86.9415 16.073 86.9569 15.9626 86.9573C15.4129 86.9677 14.9249 86.6772 14.6874 86.1758C9.99055 76.2545 10.2679 67.1069 10.605 63.6428C10.6447 63.2184 10.9205 62.8539 11.3226 62.6967C11.7247 62.5396 12.1795 62.6268 12.4943 62.9245C18.6532 68.5901 20.6611 77.6004 17.4962 85.3441L17.1827 86.1048C17.0304 86.5209 16.6893 86.8099 16.2741 86.9151ZM11.5377 62.9644C11.5031 62.9732 11.4772 62.9798 11.4448 62.9972C11.1508 63.1085 10.9568 63.3602 10.9254 63.672C10.5926 67.1167 10.3063 76.1929 14.9748 86.0385C15.1535 86.4167 15.5244 86.6449 15.955 86.637C16.3749 86.6226 16.7442 86.3725 16.9031 85.9824L17.2166 85.2217C20.3299 77.6015 18.3485 68.7318 12.2873 63.1611C12.081 62.9648 11.8059 62.8964 11.5377 62.9644Z" fill="#10319B"/>
<path d="M15.0539 83.8095C14.3187 83.9959 13.786 83.9283 13.7752 83.9219L13.8239 83.6057C13.9668 83.6247 17.4399 84.07 18.6544 78.8737L18.9685 78.9506C18.1531 82.4163 16.3082 83.4915 15.0539 83.8095Z" fill="#10319B"/>
<path d="M13.5371 81.2749C13.1652 81.3692 12.9227 81.357 12.8859 81.3571L12.9065 81.0389C12.9433 81.0388 16.8201 81.1516 18.0672 72.7063L18.3834 72.7551C17.3861 79.4983 14.7655 80.9635 13.5371 81.2749Z" fill="#10319B"/>
<path d="M66.7061 48.4359C67.8698 44.8421 71.2604 36.5824 79.4057 29.4805C80.1955 28.7856 81.4378 29.3776 81.4102 30.427L81.3918 31.2471C81.1971 39.5844 75.84 46.9269 67.949 49.6495C67.1983 49.9103 66.462 49.2016 66.7061 48.4359Z" fill="#F89E1C"/>
<path d="M68.0288 48.1222C68.0398 48.1161 68.0594 48.1123 68.0704 48.1062C70.9268 46.9565 72.7546 44.0974 72.6401 41.0234C72.6039 40.0024 72.4035 38.9721 71.9472 38.0272C68.9945 41.8482 67.6975 45.5527 67.1894 47.3843C67.0597 47.8763 67.5574 48.3136 68.0288 48.1222Z" fill="#F4B821"/>
<path d="M73.2337 46.8027C78.0882 43.1759 81.1824 37.4753 81.3956 31.239L81.4226 30.4213C81.4235 30.3196 81.411 30.2326 81.4009 30.137L80.0669 29.213C79.8537 29.2455 79.6432 29.3344 79.4561 29.5041C78.6418 30.2199 77.8705 30.9479 77.1507 31.6904C79.8312 36.5465 75.5715 43.5499 73.2337 46.8027Z" fill="#F5851F"/>
<path d="M76.1461 33.4726C77.2125 34.2932 78.9812 36.731 77.0481 43.3438L76.2228 44.0658C79.1002 35.0954 75.3182 33.7117 75.2838 33.7019L75.4843 33.0909C75.5162 33.1092 75.7947 33.2064 76.1461 33.4726Z" fill="#F89E1C"/>
<path d="M77.5148 31.2163C77.5148 31.2163 81.1969 31.969 80.0786 37.6343C80.0786 37.6343 82.3188 31.2474 80.8253 29.4438C80.8253 29.4438 79.8584 28.2711 77.5148 31.2163Z" fill="#032663"/>
<path d="M81.0489 29.3124C81.3916 29.5762 81.5828 29.9826 81.578 30.4263L81.5596 31.2464C81.3662 39.6119 75.9212 47.0687 68.0081 49.8036C67.5967 49.947 67.1539 49.8404 66.8404 49.5386C66.5355 49.2392 66.4214 48.7896 66.555 48.3823C67.6325 45.0608 71.0237 36.5695 79.3046 29.3482C79.7228 28.9842 80.2815 28.9102 80.7811 29.144C80.8793 29.1903 80.9641 29.2514 81.0489 29.3124ZM67.1378 49.3722C67.3491 49.5432 67.6336 49.5865 67.9006 49.495C75.6802 46.8058 81.0348 39.4719 81.2372 31.2388L81.2556 30.4187C81.2642 29.9946 81.0351 29.6238 80.6508 29.4411C80.2666 29.2583 79.8316 29.3209 79.5223 29.5952C71.3123 36.7623 67.9381 45.1935 66.8704 48.4806C66.7769 48.7788 66.8476 49.0863 67.0726 49.3075C67.0849 49.3295 67.1144 49.3564 67.1378 49.3722Z" fill="#10319B"/>
<path d="M78.6827 31.6767C79.711 32.468 80.9665 34.1951 80.3186 37.7028L80.0022 37.6412C80.9672 32.387 77.6081 31.4102 77.4707 31.3714L77.558 31.0622C77.5666 31.0647 78.0819 31.2102 78.6827 31.6767Z" fill="#10319B"/>
<path d="M76.2901 33.3819C77.2951 34.1573 79.1127 36.5533 77.3278 43.1338L77.0186 43.0465C79.2533 34.7755 75.6563 33.3605 75.6133 33.3484L75.7264 33.0465C75.7583 33.0648 75.9854 33.1475 76.2901 33.3819Z" fill="#10319B"/>
<path d="M44.5668 74.3571C43.9439 74.515 43.2817 74.5172 42.6231 74.3527C41.2281 74.0066 40.1664 72.9777 39.7701 71.596L37.5586 63.8526C37.1623 62.4708 37.5256 61.0346 38.5265 60.0076C39.5252 58.9719 40.9524 58.5733 42.3387 58.9215L50.2041 60.8956C51.5515 61.2353 52.5936 62.2232 53.0027 63.5465C53.4118 64.8697 53.1156 66.2797 52.1991 67.313C52.1711 67.3477 52.1409 67.3738 52.1128 67.4085L52.0762 67.4454L46.4376 73.2753C45.909 73.8051 45.2674 74.1795 44.5668 74.3571ZM40.553 59.5399C39.9648 59.689 39.4268 60.0003 38.9803 60.4541C38.1498 61.3183 37.8464 62.5183 38.1771 63.6774L40.3885 71.4208C40.7191 72.5798 41.6094 73.4405 42.7791 73.7332C43.9402 74.028 45.1425 73.6864 45.9729 72.8223L51.6395 66.9577C51.6697 66.9316 51.6891 66.8991 51.7107 66.8752C52.4762 66.0091 52.7212 64.833 52.3778 63.7325C52.0344 62.6319 51.1616 61.8037 50.0395 61.5173L42.1741 59.5433C41.6326 59.4043 41.0806 59.4062 40.553 59.5399Z" fill="#F89E1C"/>
<path d="M51.7937 67.1316C51.8239 67.1056 51.8519 67.0708 51.8735 67.047C53.6115 65.0781 52.6597 61.9407 50.0842 61.2956L42.3942 59.3599C39.7298 58.6911 37.3528 61.1534 38.106 63.7979L40.2627 71.3619C41.0138 73.9978 44.3453 74.8288 46.25 72.8638L51.7657 67.1663C51.7721 67.1555 51.7873 67.1425 51.7937 67.1316Z" fill="#032663"/>
<path d="M48.6684 66.6803C48.6835 66.6672 48.6964 66.6456 48.7115 66.6325C49.6927 65.5276 49.1523 63.7589 47.6966 63.3914L43.3621 62.3083C41.8588 61.9345 40.5171 63.3241 40.9484 64.8074L42.1679 69.0738C42.5905 70.5593 44.4686 71.0315 45.5407 69.922L48.649 66.7128C48.6533 66.6933 48.6597 66.6825 48.6684 66.6803Z" fill="#33FCFE"/>
<path d="M63.0995 51.045C62.349 52.5149 56.9726 57.1275 56.9726 57.1275C56.9726 57.1275 59.4846 58.1755 60.3678 61.5144C61.0275 64.0078 59.2339 66.8469 59.2339 66.8469C61.9122 68.4787 62.0792 72.5147 61.2416 75.8203C60.404 79.1259 62.0116 79.6206 62.0116 79.6206C62.0116 79.6206 67.729 63.5334 66.5754 55.6047C66.1081 52.3813 63.0995 51.045 63.0995 51.045Z" fill="#F4B821"/>
<path d="M25.2054 76.1346C25.2054 76.1346 27.4921 75.1315 29.1824 76.4246C30.8727 77.7177 42.1228 90.139 46.9698 94.3696C47.8445 95.1329 50.2928 97.891 51.958 96.7968C51.958 96.7968 49.781 98.8861 45.0793 96.064C40.3841 93.2311 28.556 80.1278 25.2054 76.1346Z" fill="#0E51A0"/>
<path d="M80.0183 32.8696C69.2283 33.0424 60.3736 26.454 60.2407 18.154C60.1078 9.85407 68.747 2.98554 79.537 2.81275C90.3269 2.63995 99.1817 9.22833 99.3146 17.5283C99.4475 25.8283 90.8083 32.6968 80.0183 32.8696Z" fill="#D6EBFF"/>
<path d="M60 32.4998C64 31.9998 65.8333 28.9581 66.25 27.4998L72.5 29.9998C69 32.9998 62.7083 32.9164 60 32.4998Z" fill="#D6EBFF"/>
<g clip-path="url(#clip0_5136_10754)">
<path d="M69.1285 10.7261L90.487 12.0153C90.6034 12.0223 90.7156 12.0618 90.8108 12.1293C90.906 12.1968 90.9804 12.2896 91.0255 12.3972C91.0707 12.5048 91.0849 12.6228 91.0664 12.738C91.0479 12.8533 90.9976 12.961 90.921 13.0491L76.8844 29.2004C76.8057 29.2907 76.7027 29.3565 76.5876 29.39C76.4726 29.4234 76.3503 29.4231 76.2355 29.3891C76.1206 29.355 76.0179 29.2886 75.9397 29.1979C75.8615 29.1072 75.811 28.9958 75.7942 28.8772L74.767 21.5199C74.7504 21.4008 74.7686 21.2795 74.8192 21.1705C74.8699 21.0614 74.9509 20.9693 75.0525 20.9052L82.428 16.2533C82.4719 16.2256 82.5083 16.1874 82.5338 16.1421C82.5593 16.0969 82.5731 16.046 82.574 15.994L82.5657 15.9162C82.5496 15.8476 82.5107 15.7864 82.4554 15.7427C82.4001 15.699 82.3317 15.6752 82.2612 15.6753L82.1889 15.6839L73.6566 17.7034C73.5398 17.7308 73.4175 17.7239 73.3044 17.6837C73.1913 17.6434 73.0922 17.5714 73.019 17.4763L68.5952 11.7323C68.5219 11.6373 68.4775 11.5232 68.4673 11.4037C68.4571 11.2842 68.4815 11.1642 68.5376 11.0582C68.5937 10.9521 68.6792 10.8645 68.7838 10.8057C68.8883 10.7469 69.0076 10.7194 69.1274 10.7266L69.1285 10.7261Z" fill="#007BE0"/>
</g>
<defs>
<clipPath id="clip0_5136_10754">
<rect width="25" height="25" fill="white" transform="translate(65 9.67908) rotate(-22.7771)"/>
</clipPath>
</defs>
</svg>
