<svg width="100" height="100" viewBox="0 0 100 100" fill="none" xmlns="http://www.w3.org/2000/svg">
<mask id="mask0_1830_43350" style="mask-type:alpha" maskUnits="userSpaceOnUse" x="0" y="0" width="100" height="100">
<rect width="100" height="100" fill="#D9D9D9"/>
</mask>
<g mask="url(#mask0_1830_43350)">
<path d="M74.0028 65.5186C76.9382 57.0726 70.6191 48.2751 61.681 48.4157L58.2182 48.4685C58.1919 48.4685 58.1743 48.4685 58.1479 48.4685L49.5174 48.6091L40.8869 48.4685C40.8605 48.4685 40.8429 48.4685 40.8166 48.4685L37.3538 48.4157C28.4157 48.2751 22.0966 57.0726 25.032 65.5186C25.99 68.2782 27.0183 70.8445 28.0905 73.2263C28.6706 74.6237 29.4176 76.1617 30.2525 77.7525C33.8911 84.8889 37.7317 90.2676 40.6759 94.6707C40.7902 94.8377 40.9132 95.0047 41.0363 95.1629C42.9874 97.9841 46.2392 99.3288 49.5262 99.2848C52.8044 99.3375 56.065 97.9841 58.0161 95.1629C58.1391 95.0047 58.2622 94.8377 58.3764 94.6707C61.3206 90.2676 65.1613 84.8889 68.7998 77.7525C69.6348 76.1617 70.3818 74.6325 70.9619 73.2263C72.0165 70.8357 73.0448 68.2782 74.0028 65.5186Z" fill="#F89E1C"/>
<path d="M58.9284 82.6497C61.3629 77.9389 56.5379 74.7047 51.1768 77.8071C44.7874 81.4983 41.0082 79.8373 36.7457 72.7711C33.2829 67.0233 28.2206 68.5086 26.4453 69.2644C26.999 70.6619 27.5615 72.0153 28.1415 73.3073C28.7216 74.7047 29.4686 76.2427 30.3036 77.8334C33.9421 84.9699 37.7828 90.3486 40.727 94.7517C40.8412 94.9187 40.9643 95.0857 41.0873 95.2439C43.0384 98.0651 46.2902 99.4097 49.5772 99.3658C52.8554 99.4185 56.116 98.0651 58.0671 95.2439C58.1902 95.0857 58.3132 94.9187 58.4275 94.7517C59.3854 93.3104 60.4489 91.7723 61.5562 90.0937C59.0075 89.6806 56.573 87.2022 58.9284 82.6497Z" fill="#032663"/>
<path d="M49.3565 99.514C45.885 99.514 42.7386 97.9584 40.9193 95.3218C40.7963 95.1636 40.6733 94.9966 40.559 94.8208C40.1371 94.188 39.6889 93.5289 39.2319 92.8521C36.5601 88.906 33.2468 84.0019 30.1268 77.885C29.2391 76.1975 28.5097 74.6683 27.956 73.35C27.3671 72.0405 26.7959 70.6782 26.2598 69.3072L26.207 69.1666L26.3477 69.105C28.3427 68.2525 33.361 66.8991 36.8414 72.682C41.2006 79.9152 44.9182 81.2159 51.0615 77.6652C54.3309 75.7757 57.2048 76.2766 58.6022 77.6125C59.8854 78.8429 60.0524 80.7501 59.0329 82.7188C58.0046 84.7138 57.82 86.4803 58.5056 87.8338C59.0592 88.9236 60.193 89.7058 61.5377 89.9255L61.7838 89.9607L61.6431 90.1628C61.0191 91.1032 60.4127 91.9997 59.8239 92.8609C59.3669 93.5377 58.9274 94.188 58.5056 94.812C58.3913 94.9878 58.2683 95.1548 58.1452 95.313C56.2996 97.9848 53.0917 99.5579 49.5323 99.4964C49.4708 99.514 49.4092 99.514 49.3565 99.514ZM49.5323 99.1976C52.9862 99.2503 56.0975 97.7387 57.8904 95.146C58.0134 94.979 58.1364 94.8208 58.2419 94.6538C58.6638 94.021 59.1032 93.3707 59.5602 92.694C60.1051 91.8942 60.6588 91.0593 61.2388 90.198C59.8942 89.9167 58.778 89.0994 58.2155 87.9832C57.7058 86.9725 57.3806 85.2148 58.7516 82.5781L58.8923 82.6484L58.7516 82.5781C59.7008 80.7413 59.569 78.9748 58.3825 77.8498C57.0642 76.593 54.3397 76.136 51.2197 77.9465C44.9622 81.5674 40.9897 80.1876 36.5689 72.8578C33.2907 67.4264 28.6151 68.5338 26.6113 69.3511C27.1298 70.6694 27.6835 71.9789 28.246 73.2445C28.7909 74.5628 29.5204 76.0745 30.408 77.7619C33.5192 83.8613 36.8326 88.7566 39.4956 92.694C39.9526 93.3707 40.4008 94.0298 40.8227 94.6626C40.9369 94.8296 41.0512 94.9878 41.1742 95.1548C42.9671 97.7387 46.0959 99.2591 49.5323 99.1976Z" fill="#10319B"/>
<path d="M18.1673 55.448C16.9105 58.9459 14.564 67.427 16.6117 77.868C16.8139 78.8875 18.1322 79.1775 18.7474 78.3426L19.2308 77.6922C24.1085 71.0831 24.3634 62.1362 19.8723 55.2546C19.4417 54.5867 18.4398 54.7009 18.1673 55.448Z" fill="#F5851F"/>
<path d="M49.6829 99.5145C49.6214 99.5145 49.5687 99.5145 49.5072 99.5145C45.9741 99.5672 42.7398 98.0028 40.8942 95.3223C40.7712 95.1641 40.6481 94.9971 40.5339 94.8213C40.112 94.1885 39.6638 93.5293 39.2068 92.8526C36.535 88.9065 33.2217 84.0024 30.1017 77.8854C29.214 76.198 28.4845 74.6688 27.9309 73.3505C26.8059 70.8281 25.7776 68.2354 24.8724 65.634C23.4486 61.5472 24.0902 57.188 26.6213 53.6901C29.1437 50.2098 33.0459 48.2587 37.3524 48.3202L40.8063 48.3729H40.8766L49.5072 48.5135L58.1377 48.3729H58.1816L61.6707 48.3202C65.9772 48.2499 69.8794 50.2098 72.4018 53.6901C74.9329 57.188 75.5745 61.5472 74.1507 65.634C73.2455 68.2354 72.2172 70.8369 71.0922 73.3592C70.5473 74.6776 69.8179 76.2068 68.9214 77.8942C65.8014 84.0024 62.4793 88.9153 59.8163 92.8614C59.3593 93.5381 58.9111 94.1973 58.4892 94.8301C58.375 95.0058 58.2519 95.1728 58.1289 95.331C56.3096 97.9589 53.1633 99.5145 49.6829 99.5145ZM49.5072 99.1981C52.9611 99.2508 56.0723 97.7391 57.8652 95.1465C57.9883 94.9795 58.1113 94.8213 58.2168 94.6543C58.6386 94.0215 59.0869 93.3624 59.5439 92.6856C62.2069 88.7483 65.5202 83.8442 68.6314 77.7536C69.5191 76.075 70.2397 74.5545 70.7934 73.245C71.9184 70.7314 72.9467 68.1387 73.8431 65.5461C75.2317 61.556 74.6077 57.3023 72.1381 53.8922C69.6773 50.4998 65.8542 48.5926 61.6707 48.6542L58.2168 48.7069H58.1728L49.5159 48.8475L40.8766 48.7069H40.8063L37.3436 48.6542C33.1601 48.5926 29.3371 50.4998 26.8762 53.8922C24.4066 57.311 23.7826 61.556 25.1712 65.5461C26.0677 68.1387 27.0959 70.7314 28.2209 73.245C28.7658 74.5633 29.4953 76.075 30.3829 77.7624C33.4941 83.8618 36.8075 88.7571 39.4704 92.6944C39.9275 93.3712 40.3757 94.0303 40.7975 94.6631C40.9118 94.8301 41.026 94.9883 41.1491 95.1553C42.9508 97.7391 46.0796 99.2596 49.5072 99.1981Z" fill="#10319B"/>
<path d="M69.8521 53.0921C67.6286 51.1673 64.7986 50.0072 61.6347 50.0687L58.1631 50.1303C58.1368 50.1303 58.1192 50.1303 58.0928 50.1303L49.4183 50.2797L40.7439 50.1303C40.7175 50.1303 40.6999 50.1303 40.6736 50.1303L37.202 50.0687C32.3858 49.9896 29.7668 53.4524 27.4993 57.4161C26.9895 58.3125 27.4905 59.4727 28.466 59.666C36.6835 61.2919 55.3771 63.1112 69.8521 53.0921Z" fill="#E26907"/>
<path d="M47.2578 76.2782C46.4317 76.2782 45.5968 76.0761 44.8321 75.663C43.2062 74.7841 42.2043 73.1582 42.1428 71.3126L41.8264 60.731C41.7737 58.8854 42.6789 57.1979 44.2521 56.2312C45.8253 55.2556 47.7324 55.2029 49.3583 56.0818L58.7535 61.1353C60.3267 61.979 61.3198 63.5434 61.4165 65.3275C61.5131 67.1116 60.687 68.7727 59.2193 69.7746C59.1753 69.8097 59.1226 69.8361 59.0787 69.8713L59.0171 69.9064L49.9472 75.5136C49.1123 76.0146 48.1806 76.2782 47.2578 76.2782ZM46.9326 56.0905C46.1241 56.0905 45.3067 56.319 44.5773 56.7673C43.1974 57.6198 42.4065 59.0963 42.4592 60.7134L42.7756 71.295C42.8283 72.9121 43.7072 74.3359 45.131 75.1005C46.5547 75.8652 48.2334 75.8212 49.6044 74.9687L58.7359 69.3264C58.7798 69.3 58.8238 69.2736 58.8589 69.2473C60.1421 68.3684 60.8628 66.9182 60.7749 65.3538C60.6958 63.7982 59.8257 62.4272 58.4459 61.689L49.0507 56.6354C48.3828 56.2663 47.6533 56.0905 46.9326 56.0905Z" fill="#F89E1C"/>
<path d="M47.2149 76.3556C46.3975 76.3556 45.5714 76.1535 44.8068 75.7404C43.1896 74.8703 42.1965 73.262 42.1438 71.4252L41.8186 60.5799C41.7659 58.7518 42.6623 57.082 44.2179 56.1152C45.7735 55.1485 47.6719 55.0957 49.289 55.9658L58.9127 61.1511C60.4683 61.9861 61.4526 63.5417 61.5493 65.3082C61.646 67.0747 60.8286 68.727 59.3785 69.7201C59.3345 69.7553 59.2818 69.7817 59.2378 69.8168L59.1763 69.852L49.8779 75.5998C49.0517 76.1008 48.1377 76.3556 47.2149 76.3556ZM46.8809 55.6758C46.0196 55.6758 45.1583 55.9131 44.3849 56.3965C42.926 57.3017 42.0823 58.8661 42.135 60.5799L42.4602 71.4252C42.5129 73.139 43.4445 74.6506 44.9562 75.468C46.4678 76.2853 48.2432 76.2326 49.7109 75.3273L59.0621 69.5444C59.106 69.518 59.15 69.4828 59.1939 69.4565C60.5562 68.5249 61.3208 66.9869 61.2329 65.3258C61.145 63.6735 60.2222 62.2146 58.7633 61.4324L49.1396 56.247C48.4277 55.8691 47.6543 55.6758 46.8809 55.6758Z" fill="#10319B"/>
<path d="M19.8717 55.254C19.4411 54.5948 18.4392 54.7091 18.1667 55.4473C17.0593 58.5234 15.1082 65.4577 16.0574 74.1849C16.2068 66.4069 19.4235 58.9628 20.61 56.4756C20.3727 56.0625 20.1354 55.6495 19.8717 55.254Z" fill="#F89E1C"/>
<path d="M16.417 72.7614C16.0303 72.7614 15.793 72.6911 15.7578 72.6823L15.9424 72.0759L15.8457 72.3747L15.9336 72.0671C15.9687 72.0759 19.7743 72.902 22.9118 64.6758L23.0788 65.915C20.5213 72.3923 17.7265 72.7614 16.417 72.7614Z" fill="#F89E1C"/>
<path d="M16.1914 75.3719C16.1914 75.3719 19.5135 77.0066 22.0623 71.918C22.0623 71.918 19.953 78.2371 17.7031 78.7468C17.7031 78.7468 16.2441 79.072 16.1914 75.3719Z" fill="#032663"/>
<path d="M17.7981 78.9852C17.6926 78.9852 17.5959 78.9764 17.4905 78.95C16.9631 78.827 16.5676 78.4315 16.4622 77.8954C14.3793 67.2874 16.8577 58.6217 18.0178 55.3962C18.1584 55.0007 18.5099 54.7195 18.9318 54.6668C19.3537 54.614 19.7667 54.8074 19.9952 55.1677C24.5039 62.0669 24.2402 71.1544 19.3449 77.7811L18.8615 78.4315C18.6154 78.783 18.2199 78.9852 17.7981 78.9852ZM19.0724 54.9744C19.0373 54.9744 19.0109 54.9744 18.9758 54.9832C18.6681 55.0183 18.4221 55.2117 18.3166 55.5017C17.1653 58.7096 14.7044 67.3049 16.7698 77.8338C16.8489 78.2381 17.1477 78.5457 17.5608 78.6424C17.965 78.7303 18.3781 78.5809 18.6242 78.2469L19.1076 77.5965C23.9238 71.0753 24.1787 62.1284 19.7404 55.3435C19.591 55.1062 19.3449 54.9744 19.0724 54.9744Z" fill="#10319B"/>
<path d="M17.3847 75.7137C16.6377 75.7137 16.1455 75.5204 16.1367 75.5116L16.2598 75.2215C16.3916 75.2743 19.5995 76.5399 22.0164 71.873L22.2976 72.0225C20.6805 75.1337 18.6591 75.7137 17.3847 75.7137Z" fill="#10319B"/>
<path d="M16.5517 72.9392C16.1738 72.9392 15.9453 72.8689 15.9102 72.8601L16.0068 72.5613C16.042 72.57 19.7157 73.6159 22.9499 65.8555L23.2399 65.9785C20.6561 72.1746 17.7997 72.9392 16.5517 72.9392Z" fill="#10319B"/>
<path d="M81.2532 55.448C82.51 58.9459 84.8566 67.427 82.8088 77.868C82.6067 78.8875 81.2884 79.1775 80.6732 78.3426L80.1898 77.6922C75.312 71.0831 75.0572 62.1362 79.5482 55.2546C79.9788 54.5867 80.9808 54.7009 81.2532 55.448Z" fill="#F89E1C"/>
<path d="M80.409 56.4857C80.4002 56.5033 80.3915 56.5121 80.3827 56.5296C78.8446 59.1487 79.1522 62.4796 81.1033 64.7998C81.7449 65.5644 82.5271 66.2588 83.4499 66.7158C83.4411 61.9611 82.2195 58.2874 81.5076 56.5648C81.3143 56.099 80.6639 56.0551 80.409 56.4857Z" fill="#F4B821"/>
<path d="M77.1558 60.6504C75.5651 66.3982 76.5933 72.7085 80.1879 77.6917L80.6537 78.3421C80.7065 78.4212 80.7768 78.4827 80.8471 78.5442L82.4466 78.4563C82.596 78.2981 82.7015 78.1048 82.7454 77.8675C82.9476 76.8128 83.1058 75.7846 83.2288 74.7739C78.2017 72.6206 77.2964 64.5965 77.1558 60.6504Z" fill="#F5851F"/>
<path d="M82.9314 72.7799C81.6043 72.7799 78.7567 71.9538 76.2695 65.6435L76.4805 64.5801C79.6532 73.2985 83.4323 72.0944 83.4675 72.0856L83.6784 72.6833C83.6345 72.6921 83.3708 72.7799 82.9314 72.7799Z" fill="#F89E1C"/>
<path d="M83.2302 75.3719C83.2302 75.3719 79.9081 77.0066 77.3594 71.918C77.3594 71.918 79.4687 78.2371 81.7186 78.7468C81.7186 78.7468 83.1775 79.072 83.2302 75.3719Z" fill="#032663"/>
<path d="M81.6201 78.9849C81.1983 78.9849 80.8028 78.7916 80.5391 78.4312L80.0558 77.7809C75.1604 71.1542 74.9056 62.0666 79.4054 55.1675C79.6427 54.8072 80.047 54.6226 80.4688 54.6665C80.8907 54.7193 81.2422 54.9917 81.3829 55.396C82.543 58.6303 85.0302 67.2959 82.9384 77.8951C82.833 78.4224 82.4375 78.8267 81.9102 78.9498C81.8223 78.9761 81.7256 78.9849 81.6201 78.9849ZM80.3458 54.9741C80.0733 54.9741 79.836 55.106 79.6778 55.3345C75.2395 62.1194 75.4944 71.0663 80.3106 77.5875L80.794 78.2379C81.0401 78.5719 81.4532 78.7213 81.8574 78.6334C82.2617 78.5455 82.5605 78.2379 82.6484 77.8248C84.7226 67.2959 82.2529 58.7006 81.1016 55.4927C80.9961 55.2027 80.7501 55.0093 80.4425 54.9741C80.4073 54.9741 80.3809 54.9741 80.3458 54.9741Z" fill="#10319B"/>
<path d="M82.034 75.7147C80.7596 75.7147 78.7382 75.1346 77.1211 72.0146L77.4023 71.8652C79.8192 76.5408 83.0271 75.2752 83.1589 75.2137L83.282 75.5038C83.2732 75.5213 82.781 75.7147 82.034 75.7147Z" fill="#10319B"/>
<path d="M82.8679 72.9392C81.6199 72.9392 78.7636 72.1746 76.1797 65.9785L76.4697 65.8555C79.7215 73.6423 83.3776 72.57 83.4128 72.5613L83.5095 72.8601C83.4743 72.8689 83.2458 72.9392 82.8679 72.9392Z" fill="#10319B"/>
<path d="M47.8456 73.8435C47.2128 73.8435 46.58 73.6853 45.9911 73.3689C44.7431 72.701 43.9785 71.4618 43.9346 70.0468L43.6973 62.1194C43.6533 60.7044 44.3476 59.4212 45.5517 58.683C46.7558 57.9359 48.2147 57.9008 49.4539 58.5687L56.4849 62.3567C57.6889 63.007 58.4447 64.2023 58.5151 65.5645C58.5854 66.9268 57.9614 68.2012 56.8364 68.9658C56.8013 68.9921 56.7661 69.0097 56.7309 69.0361L56.687 69.0624L49.8933 73.2635C49.2605 73.6414 48.5574 73.8435 47.8456 73.8435ZM47.5995 58.7269C47.0018 58.7269 46.413 58.8939 45.8769 59.2191C44.875 59.8431 44.2949 60.9153 44.3301 62.1018L44.5674 70.0292C44.6025 71.2157 45.2441 72.2528 46.29 72.8152C47.327 73.3777 48.5574 73.3426 49.5594 72.7186L56.3882 68.4912C56.4233 68.4736 56.4497 68.4472 56.4761 68.4297C57.4165 67.7881 57.935 66.7247 57.8735 65.5909C57.812 64.4572 57.1792 63.4552 56.1773 62.9103L49.1463 59.1224C48.6629 58.8588 48.1356 58.7269 47.5995 58.7269Z" fill="#F89E1C"/>
<path d="M56.4962 68.6921C56.5314 68.6746 56.5665 68.6482 56.5929 68.6306C58.7286 67.1717 58.5792 63.9462 56.2765 62.707L49.4037 58.9982C47.022 57.715 44.1569 59.4903 44.236 62.1973L44.4645 69.9401C44.5436 72.6383 47.523 74.2378 49.8168 72.8228L56.4611 68.7185C56.4699 68.7097 56.4875 68.7009 56.4962 68.6921Z" fill="#032663"/>
<path d="M53.6211 67.4972C53.6387 67.4884 53.6563 67.4708 53.6738 67.462C54.8779 66.6446 54.79 64.8254 53.4893 64.1223L49.6134 62.0394C48.2688 61.3187 46.6516 62.3206 46.7044 63.841L46.8362 68.209C46.8802 69.7295 48.5588 70.6347 49.8507 69.8349L53.5947 67.5235C53.6035 67.5147 53.6123 67.5059 53.6211 67.4972Z" fill="#33FCFE"/>
<path d="M71.1798 56.0723C70.1076 57.2939 63.8588 60.3963 63.8588 60.3963C63.8588 60.3963 66.0032 62.0047 66.0384 65.4059C66.0648 67.9458 63.6654 70.2221 63.6654 70.2221C65.8275 72.4281 65.0101 76.3215 63.4106 79.2745C61.811 82.2275 63.226 83.0888 63.226 83.0888C63.226 83.0888 72.5772 69.1147 73.3945 61.2664C73.7285 58.0761 71.1798 56.0723 71.1798 56.0723Z" fill="#F4B821"/>
<path d="M28.9336 70.8545C28.9336 70.8545 31.3593 70.4502 32.66 72.0937C33.9607 73.7372 41.6948 88.3177 45.2982 93.5294C45.9485 94.4698 47.6184 97.6952 49.4728 97.0537C49.4728 97.0537 46.8889 98.5214 43.0834 94.6895C39.2867 90.8488 31.1659 75.4774 28.9336 70.8545Z" fill="#0E51A0"/>
<path d="M24.867 9.93586C26.6292 8.69355 28.7349 7.63626 31.061 6.75519L30.9112 6.79043C30.9112 6.79043 38.3827 2.6582 49.5282 2.6582C60.6386 2.6582 68.1982 6.66708 68.2422 6.69351C70.6387 7.5834 72.7885 8.65831 74.5947 9.92705C83.2909 16.0505 82.5773 29.2049 78.7622 41.6016C76.0045 50.6238 62.8677 54.7296 49.7397 54.5269C36.6117 54.7296 23.4749 50.6238 20.6995 41.6016C16.8845 29.2137 16.1708 16.0593 24.867 9.93586Z" fill="#F89E1C"/>
<path d="M24.8687 9.98003C25.7938 9.32803 26.8158 8.7289 27.9084 8.17383C19.3884 14.3678 20.1109 27.4517 23.8995 39.7867C26.6749 48.8265 39.8028 52.9323 52.9396 52.7385C60.4023 52.853 67.865 51.5666 73.4334 48.7824C67.7681 52.9059 58.7547 54.809 49.7325 54.668C36.6046 54.8707 23.4678 50.7561 20.6924 41.7162C16.8862 29.3019 16.1725 16.1211 24.8687 9.98003Z" fill="#F5851F"/>
<path d="M28.931 21.0109C23.6005 19.9007 23.2481 11.4072 23.2305 11.0372L23.8648 11.0195C23.8648 11.0988 24.2173 19.3809 29.0544 20.3853L28.931 21.0109Z" fill="#F89E1C"/>
<path d="M69.395 21.3372L69.2188 20.7293C74.5228 19.1874 74.8312 10.5705 74.8312 10.4824L75.4655 10.5C75.4567 10.8701 75.1396 19.672 69.395 21.3372Z" fill="#F4B821"/>
<path d="M49.9261 10.2089C46.9392 10.2089 44.1639 9.23088 42.5427 7.58327C42.4898 7.53041 42.437 7.47754 42.3841 7.41587L39.4766 4.13828L40.1902 3.50391L43.0978 6.77268C43.133 6.81674 43.1771 6.86079 43.2211 6.90485C44.7982 8.5084 47.6353 9.38947 50.6397 9.23088C53.5561 9.07228 56.0936 7.96213 57.424 6.27928L59.5033 3.63607L60.2522 4.22639L58.1729 6.8696C56.6839 8.77272 53.8821 10.0062 50.6926 10.1824C50.4283 10.2001 50.1816 10.2089 49.9261 10.2089Z" fill="#F4B821"/>
<path d="M49.9078 13.6533C45.9518 13.6533 42.3659 12.3229 40.0839 9.99685C40.0046 9.91755 39.9165 9.82945 39.8372 9.74134L39.7491 9.64442L35.7578 5.15976L36.4715 4.52539L40.542 9.10697C40.6125 9.18626 40.683 9.26556 40.7623 9.33605C42.8681 11.4682 46.2073 12.7017 49.9078 12.7017C50.2074 12.7017 50.5158 12.6929 50.8241 12.6753C54.7714 12.455 58.1635 10.9044 60.1195 8.41092L63.0887 4.63112L63.8376 5.22144L60.8684 9.00124C58.745 11.7061 55.0973 13.389 50.877 13.6269C50.5598 13.6445 50.2338 13.6533 49.9078 13.6533Z" fill="#F4B821"/>
<path d="M74.1012 12.2531C72.295 10.9755 70.1451 9.883 67.7486 8.99311C67.6958 8.96668 60.1185 4.34986 49.0082 4.34986C41.6953 4.34105 35.3075 5.56574 31.7656 6.40276C34.0124 5.34547 40.5852 2.6582 49.5369 2.6582C60.6472 2.6582 68.2068 6.70232 68.2508 6.72876C70.6474 7.62745 72.7972 8.71117 74.6034 9.98872C82.3568 15.4954 82.6299 26.641 79.8898 37.8482C82.0572 27.434 81.3348 17.3897 74.1012 12.2531Z" fill="#F4B821"/>
<path d="M69.9171 20.9042L69.8555 20.5958C74.8247 19.5649 75.3622 10.719 75.371 10.6309L75.6882 10.6485C75.6617 11.0185 75.1243 19.8204 69.9171 20.9042Z" fill="#10319B"/>
<path d="M60.4876 8.67606L63.4569 4.89626C62.4172 4.56145 61.2101 4.21784 59.8621 3.90065L57.7828 6.54387C56.373 8.34126 53.7034 9.50427 50.6549 9.68049C47.5183 9.8567 44.5402 8.91395 42.875 7.21348C42.8221 7.16062 42.7781 7.11656 42.734 7.0637L39.8265 3.79492C38.4432 4.1033 37.2009 4.45573 36.1172 4.79934L40.1084 9.284L40.1966 9.38092C40.2758 9.46022 40.3463 9.54832 40.4256 9.62762C42.6195 11.8567 46.1085 13.1343 49.906 13.1343C50.2143 13.1343 50.5315 13.1255 50.8487 13.1079C54.9281 12.8964 58.4436 11.2752 60.4876 8.67606Z" fill="#032663"/>
<path d="M29.4508 20.9059C24.2437 19.8222 23.671 11.1084 23.6445 10.7383L23.9617 10.7207C23.9705 10.8088 24.5432 19.5667 29.5125 20.5975L29.4508 20.9059Z" fill="#10319B"/>
<path d="M49.6694 54.4115C43.1759 54.5085 36.6912 53.6098 31.3166 51.6362C30.0655 50.2969 29.0699 48.57 28.4884 46.5612C26.9994 41.4069 25.3253 34.1997 24.6822 26.1027C24.365 22.1202 26.6117 18.5078 29.8364 17.7325C34.233 16.6752 41.0172 15.4505 49.0702 15.3272V15.3184C49.2993 15.3184 49.5196 15.3272 49.7487 15.3272C49.9777 15.3272 50.198 15.3184 50.4271 15.3184V15.3272C58.4801 15.4505 65.1058 16.4726 69.5023 17.5299C72.727 18.3052 75.1324 22.1202 74.8152 26.1027C74.172 34.1997 72.498 41.4069 71.0089 46.5612C70.4362 48.526 69.4759 50.2176 68.26 51.5569C62.8238 53.5833 56.2422 54.5085 49.6694 54.4115Z" fill="#032663"/>
<path d="M72.094 49.5485L70.8164 50.2446C71.0543 49.5397 71.4508 48.3503 71.7151 47.5133C72.42 45.3106 73.2217 42.8083 73.9354 41.1343C75.0896 38.4294 78.2967 36.3853 80.4025 35.3633L80.0412 36.7466C78.0764 37.7069 75.8473 39.0726 74.8077 41.5132C74.1116 43.152 73.3187 45.6278 72.6138 47.8128C72.3583 48.641 72.3318 48.8437 72.094 49.5485Z" fill="#F4B821"/>
<path d="M27.7765 49.7508C27.706 49.7508 27.6444 49.7067 27.6267 49.645C27.4153 49.0195 27.195 48.3322 26.9659 47.6362C26.2787 45.5128 25.4946 43.0987 24.7633 41.3806C23.6972 38.8871 21.4064 37.5039 19.3006 36.473C19.2213 36.4378 19.1861 36.3408 19.2301 36.2616C19.2654 36.1823 19.3623 36.147 19.4416 36.1911C21.6002 37.2395 23.9527 38.6669 25.0628 41.2572C25.8029 42.9929 26.5871 45.4071 27.2743 47.5393C27.5034 48.2353 27.7237 48.9137 27.9263 49.5481C27.9527 49.6274 27.9087 49.7243 27.8294 49.7508C27.8118 49.7508 27.7942 49.7508 27.7765 49.7508Z" fill="#F89E1C"/>
<path d="M80.1479 36.7031C79.7691 38.3419 79.3285 39.9895 78.8263 41.6195C77.7955 44.9852 75.3549 47.6637 72.0156 49.7078C72.8791 47.1262 73.6016 44.2451 74.5707 41.9631C75.7249 39.2759 78.2889 37.6018 80.1479 36.7031Z" fill="#032663"/>
<path d="M77.8816 41.8225C78.234 40.8709 78.56 39.9194 78.8684 38.959C77.8816 39.5934 76.8684 40.5097 76.2516 41.7872C75.5908 43.1441 75.0093 44.8181 74.4102 46.4128C75.9785 45.2058 77.1855 43.6815 77.8816 41.8225Z" fill="#0E51A0"/>
<path d="M72.2175 49.6896L71.918 49.5927C72.2175 48.7028 72.4995 47.7601 72.7726 46.8526C73.2924 45.1257 73.8387 43.3459 74.4731 41.8393C75.6185 39.1432 78.1824 37.4516 80.1207 36.5L80.2617 36.7819C78.3674 37.7071 75.8828 39.3459 74.7638 41.9538C74.1295 43.4428 73.592 45.2138 73.0722 46.9319C72.799 47.857 72.5171 48.7998 72.2175 49.6896Z" fill="#10319B"/>
<path d="M19.3008 36.7031C19.6796 38.3419 20.1202 39.9895 20.6224 41.6195C21.6532 44.9852 24.0938 47.6637 27.4331 49.7078C26.5696 47.1262 25.8471 44.2451 24.878 41.9631C23.7326 39.2759 21.1598 37.6018 19.3008 36.7031Z" fill="#032663"/>
<path d="M50.6035 54.6683C50.3127 54.6683 50.0219 54.6683 49.74 54.6595C38.1715 54.8357 23.5986 51.5317 20.5501 41.6372C17.8188 32.7736 14.7438 16.8615 24.7792 9.79528L24.8673 9.92744L24.7792 9.79528C26.5326 8.56178 30.7881 6.68509 30.9732 6.6058C31.0348 6.57055 38.4799 2.5 49.5374 2.5C60.6301 2.5 68.2513 6.50888 68.3306 6.55293C70.7888 7.46044 72.9386 8.55297 74.7008 9.79528C84.7362 16.8615 81.6612 32.7736 78.9299 41.6284C75.9519 51.285 62.0133 54.6683 50.6035 54.6683ZM49.7312 54.3423C50.0131 54.3423 50.3039 54.3511 50.5946 54.3511C61.8988 54.3511 75.6964 51.0295 78.6215 41.5403C81.3264 32.7648 84.3838 17.0113 74.5158 10.0596C72.7712 8.83491 70.6478 7.75119 68.1985 6.84369C68.1015 6.79082 60.5419 2.826 49.5374 2.826C38.568 2.826 31.1846 6.8525 31.1141 6.89655C31.0613 6.92298 26.7 8.84372 24.9643 10.0596C15.0874 17.0024 18.1536 32.7648 20.8496 41.5403C23.8453 51.2673 38.2861 54.5185 49.7312 54.3423Z" fill="#10319B"/>
<path d="M49.7391 53.0201C44.1707 53.0994 38.6112 52.4034 33.871 50.8791C33.1397 50.6412 32.4789 50.2007 32.0208 49.5839C31.2366 48.5443 30.6198 47.3196 30.2057 45.9539C28.8313 41.3195 27.2894 34.826 26.6991 27.5395C26.4083 23.9535 28.4788 20.7024 31.4481 20.0063C35.501 19.0548 41.7566 17.9534 49.184 17.8389V17.8301C49.3955 17.8301 49.5981 17.8301 49.8096 17.8389C50.0211 17.8389 50.2237 17.8301 50.4352 17.8301V17.8389C57.8626 17.9534 64.1094 19.0548 68.1712 20.0063C71.1492 20.7024 73.2109 23.9535 72.9201 27.5395C72.321 34.826 70.7879 41.3195 69.4135 45.9539C69.0082 47.3108 68.4002 48.5178 67.6249 49.5487C67.1843 50.139 66.5676 50.5619 65.8716 50.791C61.0609 52.3857 55.4044 53.1082 49.7391 53.0201Z" fill="#FCE8CA"/>
<path fill-rule="evenodd" clip-rule="evenodd" d="M36.3862 35.7708C36.6012 35.5008 36.9944 35.4562 37.2644 35.6713C38.2856 36.4845 41.0953 38.2482 44.0309 38.7353C44.3352 38.7857 44.5572 39.0506 44.5536 39.3591C44.55 39.6675 44.322 39.9272 44.0166 39.9706C43.2948 40.0733 42.0718 40.307 40.78 40.6715C39.4796 41.0383 38.1568 41.5247 37.2053 42.1167C36.9122 42.299 36.5268 42.2092 36.3444 41.9162C36.1621 41.6231 36.2518 41.2377 36.5449 41.0553C37.6453 40.3707 39.1012 39.8463 40.4406 39.4684C40.7071 39.3932 40.9709 39.3233 41.2286 39.2587C39.0828 38.4585 37.2919 37.2911 36.4857 36.6491C36.2157 36.4341 36.1711 36.0408 36.3862 35.7708Z" fill="#0E51A0"/>
<path d="M41.2572 32.5521C41.302 32.5597 41.3517 32.5835 41.3913 32.621C41.973 33.1269 42.7375 33.3261 43.4944 33.1633C43.6612 33.1303 43.8201 33.2341 43.8544 33.3934C43.8874 33.5602 43.7836 33.7191 43.6242 33.7534C42.6843 33.9542 41.7284 33.707 40.9991 33.0762C40.8726 32.9626 40.8583 32.7759 40.972 32.6494C41.0333 32.56 41.1466 32.5256 41.2572 32.5521Z" fill="#032663"/>
<path fill-rule="evenodd" clip-rule="evenodd" d="M62.8755 35.7708C62.6605 35.5008 62.2673 35.4562 61.9973 35.6713C60.9761 36.4845 58.1664 38.2482 55.2308 38.7353C54.9265 38.7857 54.7046 39.0506 54.7081 39.3591C54.7117 39.6675 54.9397 39.9272 55.2451 39.9706C55.9669 40.0733 57.1899 40.307 58.4818 40.6715C59.7821 41.0383 61.105 41.5247 62.0565 42.1167C62.3495 42.299 62.735 42.2092 62.9173 41.9162C63.0997 41.6231 63.0099 41.2377 62.7168 41.0553C61.6164 40.3707 60.1606 39.8463 58.8212 39.4684C58.5546 39.3932 58.2908 39.3233 58.0331 39.2587C60.1789 38.4585 61.9698 37.2911 62.776 36.6491C63.046 36.4341 63.0906 36.0408 62.8755 35.7708Z" fill="#0E51A0"/>
<path d="M58.0084 32.5521C57.9636 32.5597 57.914 32.5835 57.8743 32.621C57.2926 33.1269 56.5282 33.3261 55.7712 33.1633C55.6044 33.1303 55.4455 33.2341 55.4112 33.3934C55.3782 33.5602 55.482 33.7191 55.6414 33.7534C56.5814 33.9542 57.5372 33.707 58.2665 33.0762C58.393 32.9626 58.4073 32.7759 58.2936 32.6494C58.2324 32.56 58.119 32.5256 58.0084 32.5521Z" fill="#032663"/>
<path d="M45.8784 50C45.8149 49.9971 45.7513 49.9942 45.6852 49.9776C45.2167 49.8697 44.9186 49.4008 45.0197 48.9322C45.5313 46.5458 47.4548 45.0033 49.9194 45C52.3204 44.9938 54.445 46.6493 54.9768 48.9228C55.0867 49.3966 54.7961 49.8633 54.3254 49.9671C53.8546 50.071 53.3855 49.773 53.2755 49.2992C52.9807 48.0267 51.7385 46.7444 49.9385 46.7437C48.286 46.7452 47.0492 47.7303 46.71 49.3185C46.6257 49.7278 46.2777 50.0003 45.8784 50Z" fill="#0E51A0"/>
<path d="M48.6833 54.4831C42.2603 54.4831 36.2514 53.5228 31.2557 51.6901L31.2205 51.6813L31.1941 51.6549C29.8901 50.254 28.9033 48.4742 28.3306 46.5094C26.9649 41.7693 25.1851 34.3594 24.5155 25.9804C24.1895 21.9011 26.4539 18.227 29.7932 17.4252C34.2778 16.3503 54.1901 13.1961 69.6881 17.4252C73.0098 18.3327 75.2741 22.0068 74.9569 25.9804C74.2873 34.3594 72.5164 41.7693 71.1419 46.5094C70.5868 48.439 69.6176 50.1923 68.3577 51.5756L68.3313 51.602L68.296 51.6197C63.0801 53.5756 56.4632 54.5977 49.6613 54.4919C49.3353 54.4831 49.0093 54.4831 48.6833 54.4831ZM49.6701 54.1571C56.4192 54.2629 62.9743 53.2496 68.155 51.3201C69.3709 49.972 70.3049 48.2804 70.8423 46.4125C72.208 41.69 73.9789 34.2978 74.6397 25.9452C74.9481 22.1213 72.7807 18.5883 69.6 17.7248C54.1636 13.5133 34.3307 16.6587 29.8636 17.7248C26.683 18.4913 24.5155 22.0244 24.8327 25.9452C25.5023 34.2978 27.2645 41.69 28.6301 46.4125C29.1852 48.3244 30.1368 50.0513 31.3967 51.4082C36.5334 53.2761 43.0181 54.2629 49.6701 54.1571Z" fill="#10319B"/>
<path d="M27.2893 49.5849C26.9985 48.7214 26.7254 47.8227 26.4611 46.9505C25.9412 45.2412 25.395 43.479 24.7518 41.9636C23.6416 39.3556 21.1482 37.708 19.2539 36.7917L19.3949 36.5098C21.3332 37.4525 23.8883 39.1442 25.0426 41.8491C25.6945 43.3733 26.2408 45.1531 26.7606 46.8624C27.025 47.7346 27.2981 48.6333 27.5888 49.488L27.2893 49.5849Z" fill="#10319B"/>
<path d="M75.4844 36.6327L79.5637 34.2538C79.5637 34.2538 80.7268 22.5356 76.9381 17.2051L75.8456 20.562C75.8456 20.562 77.5989 23.1083 75.4844 36.6327Z" fill="#F4B821"/>
</g>
</svg>
