<?xml version="1.0" encoding="UTF-8"?>
<!DOCTYPE svg PUBLIC "-//W3C//DTD SVG 1.1//EN" "http://www.w3.org/Graphics/SVG/1.1/DTD/svg11.dtd">
<svg xmlns="http://www.w3.org/2000/svg" version="1.1" width="275px" height="239px" style="shape-rendering:geometricPrecision; text-rendering:geometricPrecision; image-rendering:optimizeQuality; fill-rule:evenodd; clip-rule:evenodd" xmlns:xlink="http://www.w3.org/1999/xlink">
<g><path style="opacity:1" fill="#fdfdfd" d="M -0.5,-0.5 C 91.1667,-0.5 182.833,-0.5 274.5,-0.5C 274.5,79.1667 274.5,158.833 274.5,238.5C 182.833,238.5 91.1667,238.5 -0.5,238.5C -0.5,158.833 -0.5,79.1667 -0.5,-0.5 Z"/></g>
<g><path style="opacity:1" fill="#fef6d6" d="M 177.5,36.5 C 174.646,37.2051 171.979,38.2051 169.5,39.5C 162.561,42.9696 155.561,46.4696 148.5,50C 147.901,51.6225 147.234,53.1225 146.5,54.5C 146.631,53.7611 146.464,53.0944 146,52.5C 145.292,53.3805 144.458,54.0472 143.5,54.5C 143.047,53.5416 142.381,52.7083 141.5,52C 124.833,51.3333 108.167,51.3333 91.5,52C 88.6572,55.6187 88.9905,58.952 92.5,62C 107.83,62.4999 123.163,62.6666 138.5,62.5C 138.5,62.8333 138.5,63.1667 138.5,63.5C 138.737,64.791 138.404,65.791 137.5,66.5C 135.967,70.8962 135.3,75.5629 135.5,80.5C 135.668,85.52 136.001,90.52 136.5,95.5C 121.83,95.3334 107.163,95.5001 92.5,96C 88.5149,99.3807 88.5149,102.714 92.5,106C 100.167,106.167 107.833,106.333 115.5,106.5C 123.53,106.498 131.197,105.831 138.5,104.5C 140.512,114.852 146.178,122.519 155.5,127.5C 156.492,127.328 157.158,127.662 157.5,128.5C 157.5,128.833 157.5,129.167 157.5,129.5C 148.222,138.631 146.056,149.298 151,161.5C 151.71,162.973 152.876,163.64 154.5,163.5C 153.602,164.158 152.602,164.824 151.5,165.5C 158.491,182.142 167.158,197.808 177.5,212.5C 177.67,217.503 175.67,221.337 171.5,224C 119.75,224.991 68.0837,224.657 16.5,223C 14.9512,221.786 13.7845,220.286 13,218.5C 12.3333,152.833 12.3333,87.1667 13,21.5C 14.2506,18.6193 16.4173,16.786 19.5,16C 69.8333,15.3333 120.167,15.3333 170.5,16C 173.728,17.5629 175.895,20.0629 177,23.5C 177.499,27.8206 177.666,32.1539 177.5,36.5 Z"/></g>
<g><path style="opacity:1" fill="#ffe787" d="M 47.5,19.5 C 51.1667,19.5 54.8333,19.5 58.5,19.5C 58.5,86.5 58.5,153.5 58.5,220.5C 54.8333,220.5 51.1667,220.5 47.5,220.5C 47.5,153.5 47.5,86.5 47.5,19.5 Z"/></g>
<g><path style="opacity:1" fill="#162b63" d="M 177.5,36.5 C 178.5,36.5 179.5,36.5 180.5,36.5C 180.082,37.2216 179.416,37.7216 178.5,38C 185.664,48.4299 195.331,51.4299 207.5,47C 211.38,44.6211 214.38,41.4544 216.5,37.5C 219.067,37.7215 221.401,38.3882 223.5,39.5C 212.932,55.6311 198.932,59.4644 181.5,51C 177.797,47.6325 174.464,43.9658 171.5,40C 170.906,39.5357 170.239,39.369 169.5,39.5C 171.979,38.2051 174.646,37.2051 177.5,36.5 Z"/></g>
<g><path style="opacity:1" fill="#f1a321" d="M 216.5,37.5 C 214.38,41.4544 211.38,44.6211 207.5,47C 195.331,51.4299 185.664,48.4299 178.5,38C 179.416,37.7216 180.082,37.2216 180.5,36.5C 192.554,35.0361 204.554,35.3694 216.5,37.5 Z"/></g>
<g><path style="opacity:1" fill="#f19e22" d="M 169.5,39.5 C 170.239,39.369 170.906,39.5357 171.5,40C 174.464,43.9658 177.797,47.6325 181.5,51C 198.932,59.4644 212.932,55.6311 223.5,39.5C 230.642,42.2395 237.642,45.2395 244.5,48.5C 245.582,49.5938 246.248,50.9271 246.5,52.5C 245.369,61.7552 245.869,61.7552 248,52.5C 249.039,53.7101 250.206,54.7101 251.5,55.5C 254.849,61.5572 257.183,67.8906 258.5,74.5C 258.5,78.8333 258.5,83.1667 258.5,87.5C 257.19,91.6501 256.19,95.9834 255.5,100.5C 252.229,103.268 249.062,106.268 246,109.5C 243.66,115.019 241.827,120.686 240.5,126.5C 239.29,126.932 238.29,127.599 237.5,128.5C 236.624,128.631 235.957,128.298 235.5,127.5C 242.596,109.852 245.763,91.5182 245,72.5C 244.15,70.99 243.317,69.49 242.5,68C 244.001,64.4555 243.501,63.9555 241,66.5C 236.517,63.9995 231.684,62.4995 226.5,62C 201.11,58.0246 176.276,59.1913 152,65.5C 150.086,69.821 148.92,74.321 148.5,79C 149.501,94.5064 152.335,109.673 157,124.5C 157.465,125.931 158.299,127.097 159.5,128C 158.906,128.464 158.239,128.631 157.5,128.5C 157.158,127.662 156.492,127.328 155.5,127.5C 153.076,120.22 150.076,113.22 146.5,106.5C 142.795,92.737 141.628,78.737 143,64.5C 144.46,61.2522 145.626,57.9188 146.5,54.5C 147.234,53.1225 147.901,51.6225 148.5,50C 155.561,46.4696 162.561,42.9696 169.5,39.5 Z"/></g>
<g><path style="opacity:1" fill="#fee786" d="M 143.5,54.5 C 142.094,54.9731 141.427,55.9731 141.5,57.5C 139.75,58.6594 138.75,60.326 138.5,62.5C 123.163,62.6666 107.83,62.4999 92.5,62C 88.9905,58.952 88.6572,55.6187 91.5,52C 108.167,51.3333 124.833,51.3333 141.5,52C 142.381,52.7083 143.047,53.5416 143.5,54.5 Z"/></g>
<g><path style="opacity:1" fill="#8d8281" d="M 244.5,48.5 C 247.833,49.8333 250.167,52.1667 251.5,55.5C 250.206,54.7101 249.039,53.7101 248,52.5C 245.869,61.7552 245.369,61.7552 246.5,52.5C 246.248,50.9271 245.582,49.5938 244.5,48.5 Z"/></g>
<g><path style="opacity:1" fill="#f38520" d="M 146.5,54.5 C 145.626,57.9188 144.46,61.2522 143,64.5C 141.628,78.737 142.795,92.737 146.5,106.5C 144.142,104.322 141.475,102.655 138.5,101.5C 138.675,99.3792 138.341,97.3792 137.5,95.5C 136.203,85.8301 136.203,76.1634 137.5,66.5C 138.404,65.791 138.737,64.791 138.5,63.5C 140.008,61.8185 141.008,59.8185 141.5,57.5C 142.906,57.0269 143.573,56.0269 143.5,54.5C 144.458,54.0472 145.292,53.3805 146,52.5C 146.464,53.0944 146.631,53.7611 146.5,54.5 Z"/></g>
<g><path style="opacity:1" fill="#8e8ea4" d="M 251.5,55.5 C 253.686,56.8233 255.186,58.8233 256,61.5C 257.631,65.6879 258.464,70.0212 258.5,74.5C 257.183,67.8906 254.849,61.5572 251.5,55.5 Z"/></g>
<g><path style="opacity:1" fill="#86686a" d="M 143.5,54.5 C 143.573,56.0269 142.906,57.0269 141.5,57.5C 141.427,55.9731 142.094,54.9731 143.5,54.5 Z"/></g>
<g><path style="opacity:1" fill="#866a6f" d="M 141.5,57.5 C 141.008,59.8185 140.008,61.8185 138.5,63.5C 138.5,63.1667 138.5,62.8333 138.5,62.5C 138.75,60.326 139.75,58.6594 141.5,57.5 Z"/></g>
<g><path style="opacity:1" fill="#1f2f6a" d="M 237.5,128.5 C 238.5,130.5 239.5,132.5 240.5,134.5C 238.637,132.295 236.303,130.961 233.5,130.5C 215.269,136.585 196.602,138.085 177.5,135C 171.866,134.426 166.532,132.926 161.5,130.5C 160.167,130.167 158.833,129.833 157.5,129.5C 157.5,129.167 157.5,128.833 157.5,128.5C 158.239,128.631 158.906,128.464 159.5,128C 158.299,127.097 157.465,125.931 157,124.5C 152.335,109.673 149.501,94.5064 148.5,79C 148.92,74.321 150.086,69.821 152,65.5C 176.276,59.1913 201.11,58.0246 226.5,62C 231.684,62.4995 236.517,63.9995 241,66.5C 243.501,63.9555 244.001,64.4555 242.5,68C 243.317,69.49 244.15,70.99 245,72.5C 245.763,91.5182 242.596,109.852 235.5,127.5C 235.957,128.298 236.624,128.631 237.5,128.5 Z"/></g>
<g><path style="opacity:1" fill="#f4b520" d="M 249.5,63.5 C 251.778,66.3968 253.278,69.7301 254,73.5C 255.372,81.125 255.706,88.7917 255,96.5C 252.75,97.7079 250.583,99.0413 248.5,100.5C 248.73,90.3768 248.396,80.2101 247.5,70C 248.274,67.8458 248.941,65.6792 249.5,63.5 Z"/></g>
<g><path style="opacity:1" fill="#f8e5c8" d="M 185.5,64.5 C 201.701,63.8859 217.701,65.3859 233.5,69C 239.101,71.686 242.101,76.186 242.5,82.5C 241.392,94.3693 239.225,106.036 236,117.5C 234.819,121.363 232.986,124.863 230.5,128C 210.049,134.535 189.382,135.202 168.5,130C 165.898,129.117 163.731,127.617 162,125.5C 155.589,110.123 152.589,94.123 153,77.5C 154.5,73.3333 157.333,70.5 161.5,69C 169.536,66.9412 177.536,65.4412 185.5,64.5 Z"/></g>
<g><path style="opacity:1" fill="#776c8a" d="M 137.5,66.5 C 136.203,76.1634 136.203,85.8301 137.5,95.5C 137.167,95.5 136.833,95.5 136.5,95.5C 136.001,90.52 135.668,85.52 135.5,80.5C 135.3,75.5629 135.967,70.8962 137.5,66.5 Z"/></g>
<g><path style="opacity:1" fill="#3f4e79" d="M 212.5,93.5 C 214.379,93.3932 214.712,93.8932 213.5,95C 211.833,95.6667 210.167,95.6667 208.5,95C 210.058,94.79 211.391,94.29 212.5,93.5 Z"/></g>
<g><path style="opacity:1" fill="#8d859b" d="M 258.5,87.5 C 258.562,92.0758 257.895,96.4091 256.5,100.5C 256.167,100.5 255.833,100.5 255.5,100.5C 256.19,95.9834 257.19,91.6501 258.5,87.5 Z"/></g>
<g><path style="opacity:1" fill="#fde685" d="M 136.5,95.5 C 136.833,95.5 137.167,95.5 137.5,95.5C 138.341,97.3792 138.675,99.3792 138.5,101.5C 138.5,102.5 138.5,103.5 138.5,104.5C 131.197,105.831 123.53,106.498 115.5,106.5C 107.833,106.333 100.167,106.167 92.5,106C 88.5149,102.714 88.5149,99.3807 92.5,96C 107.163,95.5001 121.83,95.3334 136.5,95.5 Z"/></g>
<g><path style="opacity:1" fill="#3260a4" d="M 171.5,99.5 C 176.615,102.21 181.948,104.543 187.5,106.5C 187.291,107.086 186.957,107.586 186.5,108C 181.445,108.408 176.778,109.908 172.5,112.5C 171.167,111.5 171.167,110.5 172.5,109.5C 174.912,108.423 177.246,107.256 179.5,106C 177.5,105 175.5,104 173.5,103C 172.177,102.184 171.511,101.017 171.5,99.5 Z"/></g>
<g><path style="opacity:1" fill="#3662a5" d="M 220.5,99.5 C 222.028,99.5173 222.528,100.184 222,101.5C 219.749,103.377 217.249,104.877 214.5,106C 216.754,107.256 219.088,108.423 221.5,109.5C 222.833,110.5 222.833,111.5 221.5,112.5C 216.917,110.145 212.083,108.478 207,107.5C 206.409,106.517 206.743,105.85 208,105.5C 212.78,104.532 216.946,102.532 220.5,99.5 Z"/></g>
<g><path style="opacity:1" fill="#1e306e" d="M 138.5,101.5 C 141.475,102.655 144.142,104.322 146.5,106.5C 150.076,113.22 153.076,120.22 155.5,127.5C 146.178,122.519 140.512,114.852 138.5,104.5C 138.5,103.5 138.5,102.5 138.5,101.5 Z"/></g>
<g><path style="opacity:1" fill="#183579" d="M 255.5,100.5 C 255.833,100.5 256.167,100.5 256.5,100.5C 255.564,112.058 250.23,120.724 240.5,126.5C 241.827,120.686 243.66,115.019 246,109.5C 249.062,106.268 252.229,103.268 255.5,100.5 Z"/></g>
<g><path style="opacity:1" fill="#2a5ca3" d="M 194.5,117.5 C 201.46,116.995 205.627,119.995 207,126.5C 206.586,126.957 206.086,127.291 205.5,127.5C 203.278,121.698 199.278,120.031 193.5,122.5C 192.396,124.389 191.063,126.055 189.5,127.5C 188.369,125.926 188.202,124.259 189,122.5C 190.73,120.598 192.563,118.931 194.5,117.5 Z"/></g>
<g><path style="opacity:1" fill="#f49c1e" d="M 157.5,129.5 C 158.833,129.833 160.167,130.167 161.5,130.5C 159.515,134.456 157.015,138.122 154,141.5C 153.289,143.367 153.789,144.867 155.5,146C 164.03,148.139 172.697,148.973 181.5,148.5C 181.413,156.709 182.079,164.709 183.5,172.5C 184.914,176.403 187.748,178.737 192,179.5C 200.391,175.451 208.557,170.951 216.5,166C 222.842,156.529 220.508,150.029 209.5,146.5C 217.145,143.323 224.812,139.823 232.5,136C 233.5,135.167 234.5,134.333 235.5,133.5C 234.807,132.482 234.141,131.482 233.5,130.5C 236.303,130.961 238.637,132.295 240.5,134.5C 245.476,141.555 246.643,149.221 244,157.5C 238.442,173.949 230.776,189.282 221,203.5C 220.329,204.252 219.496,204.586 218.5,204.5C 216.248,204.084 214.748,202.751 214,200.5C 213.333,198.167 213.333,195.833 214,193.5C 219.009,181.831 215.176,177.331 202.5,180C 192.727,186.839 183.893,186.006 176,177.5C 173.54,171.408 169.373,166.908 163.5,164C 160.518,163.502 157.518,163.335 154.5,163.5C 152.876,163.64 151.71,162.973 151,161.5C 146.056,149.298 148.222,138.631 157.5,129.5 Z"/></g>
<g><path style="opacity:1" fill="#df690b" d="M 161.5,130.5 C 166.532,132.926 171.866,134.426 177.5,135C 196.602,138.085 215.269,136.585 233.5,130.5C 234.141,131.482 234.807,132.482 235.5,133.5C 234.5,134.333 233.5,135.167 232.5,136C 224.812,139.823 217.145,143.323 209.5,146.5C 205.645,143.404 201.312,141.07 196.5,139.5C 191.938,136.483 187.938,137.149 184.5,141.5C 182.166,143.176 181.166,145.509 181.5,148.5C 172.697,148.973 164.03,148.139 155.5,146C 153.789,144.867 153.289,143.367 154,141.5C 157.015,138.122 159.515,134.456 161.5,130.5 Z"/></g>
<g><path style="opacity:1" fill="#f39a1f" d="M 257.5,138.5 C 252.705,146.464 253.871,153.464 261,159.5C 261.483,158.552 261.649,157.552 261.5,156.5C 262.404,157.209 262.737,158.209 262.5,159.5C 262.5,163.5 262.5,167.5 262.5,171.5C 261.5,171.5 260.5,171.5 259.5,171.5C 255.833,169.167 252.833,166.167 250.5,162.5C 249.64,158.566 249.307,154.566 249.5,150.5C 251.005,146.481 252.838,142.481 255,138.5C 255.977,137.226 256.811,137.226 257.5,138.5 Z"/></g>
<g><path style="opacity:1" fill="#ad6f47" d="M 196.5,139.5 C 192.227,139.081 188.227,139.748 184.5,141.5C 187.938,137.149 191.938,136.483 196.5,139.5 Z"/></g>
<g><path style="opacity:1" fill="#e2720e" d="M 196.5,139.5 C 196.804,140.15 197.137,140.817 197.5,141.5C 200.306,142.105 202.64,143.438 204.5,145.5C 203.311,146.429 201.978,146.762 200.5,146.5C 196.573,144.233 192.573,144.066 188.5,146C 187.934,146.995 187.267,147.828 186.5,148.5C 184.821,148.715 183.821,148.048 183.5,146.5C 183.629,144.784 183.962,143.117 184.5,141.5C 188.227,139.748 192.227,139.081 196.5,139.5 Z"/></g>
<g><path style="opacity:1" fill="#f4b720" d="M 237.5,139.5 C 239.752,139.916 241.252,141.249 242,143.5C 242.726,148.239 242.393,152.905 241,157.5C 236.558,169.72 230.558,181.054 223,191.5C 222.333,189.5 222.333,187.5 223,185.5C 226.729,179.357 227.229,173.024 224.5,166.5C 229.396,160.763 229.73,154.763 225.5,148.5C 229.53,145.491 233.53,142.491 237.5,139.5 Z"/></g>
<g><path style="opacity:1" fill="#f1b423" d="M 257.5,138.5 C 259.963,144.134 261.296,150.134 261.5,156.5C 261.649,157.552 261.483,158.552 261,159.5C 253.871,153.464 252.705,146.464 257.5,138.5 Z"/></g>
<g><path style="opacity:1" fill="#f08822" d="M 143.5,146.5 C 143.565,149.428 144.232,152.095 145.5,154.5C 145.5,154.833 145.5,155.167 145.5,155.5C 145.623,158.588 144.623,161.255 142.5,163.5C 142.846,164.696 143.346,164.696 144,163.5C 144.49,164.793 144.657,166.127 144.5,167.5C 142.776,173.56 138.776,176.56 132.5,176.5C 132.5,175.167 132.5,173.833 132.5,172.5C 134.842,172.496 136.842,171.663 138.5,170C 136.744,169.86 135.078,170.36 133.5,171.5C 132.504,165.537 132.171,159.537 132.5,153.5C 133.349,148.772 134.515,144.105 136,139.5C 136.388,138.572 137.055,137.905 138,137.5C 140.335,140.165 142.168,143.165 143.5,146.5 Z"/></g>
<g><path style="opacity:1" fill="#162b62" d="M 200.5,146.5 C 203.102,148.81 206.102,150.643 209.5,152C 214.423,155.615 214.756,159.615 210.5,164C 205.999,166.416 201.666,169.083 197.5,172C 192.572,173.643 189.072,172.143 187,167.5C 186.5,161.175 186.334,154.842 186.5,148.5C 187.267,147.828 187.934,146.995 188.5,146C 192.573,144.066 196.573,144.233 200.5,146.5 Z"/></g>
<g><path style="opacity:1" fill="#dd8f30" d="M 196.5,139.5 C 201.312,141.07 205.645,143.404 209.5,146.5C 220.508,150.029 222.842,156.529 216.5,166C 208.557,170.951 200.391,175.451 192,179.5C 187.748,178.737 184.914,176.403 183.5,172.5C 183.183,163.646 183.183,154.979 183.5,146.5C 183.821,148.048 184.821,148.715 186.5,148.5C 186.334,154.842 186.5,161.175 187,167.5C 189.072,172.143 192.572,173.643 197.5,172C 201.666,169.083 205.999,166.416 210.5,164C 214.756,159.615 214.423,155.615 209.5,152C 206.102,150.643 203.102,148.81 200.5,146.5C 201.978,146.762 203.311,146.429 204.5,145.5C 202.64,143.438 200.306,142.105 197.5,141.5C 197.137,140.817 196.804,140.15 196.5,139.5 Z"/></g>
<g><path style="opacity:1" fill="#31f5f9" d="M 192.5,150.5 C 197.478,151.235 201.978,153.235 206,156.5C 206.667,157.833 206.667,159.167 206,160.5C 192.773,170.14 188.273,166.806 192.5,150.5 Z"/></g>
<g><path style="opacity:1" fill="#8a6972" d="M 143.5,146.5 C 145.04,148.838 145.706,151.505 145.5,154.5C 144.232,152.095 143.565,149.428 143.5,146.5 Z"/></g>
<g><path style="opacity:1" fill="#72678b" d="M 249.5,150.5 C 249.307,154.566 249.64,158.566 250.5,162.5C 249.596,163.209 249.263,164.209 249.5,165.5C 248.167,160.5 248.167,155.5 249.5,150.5 Z"/></g>
<g><path style="opacity:1" fill="#956c52" d="M 184.5,141.5 C 183.962,143.117 183.629,144.784 183.5,146.5C 183.183,154.979 183.183,163.646 183.5,172.5C 182.079,164.709 181.413,156.709 181.5,148.5C 181.166,145.509 182.166,143.176 184.5,141.5 Z"/></g>
<g><path style="opacity:1" fill="#8c7684" d="M 145.5,155.5 C 146.682,159.577 146.349,163.577 144.5,167.5C 144.657,166.127 144.49,164.793 144,163.5C 143.346,164.696 142.846,164.696 142.5,163.5C 144.623,161.255 145.623,158.588 145.5,155.5 Z"/></g>
<g><path style="opacity:1" fill="#0a2866" d="M 154.5,163.5 C 157.518,163.335 160.518,163.502 163.5,164C 169.373,166.908 173.54,171.408 176,177.5C 183.893,186.006 192.727,186.839 202.5,180C 215.176,177.331 219.009,181.831 214,193.5C 213.333,195.833 213.333,198.167 214,200.5C 214.748,202.751 216.248,204.084 218.5,204.5C 218.918,205.222 219.584,205.722 220.5,206C 217.074,210.848 213.408,215.515 209.5,220C 196.472,226.75 185.806,224.25 177.5,212.5C 167.158,197.808 158.491,182.142 151.5,165.5C 152.602,164.824 153.602,164.158 154.5,163.5 Z"/></g>
<g><path style="opacity:1" fill="#e1812e" d="M 250.5,162.5 C 252.833,166.167 255.833,169.167 259.5,171.5C 260.968,172.779 261.635,174.446 261.5,176.5C 260.5,176.5 259.5,176.5 258.5,176.5C 254.954,175.615 252.288,173.615 250.5,170.5C 250.634,168.708 250.301,167.042 249.5,165.5C 249.263,164.209 249.596,163.209 250.5,162.5 Z"/></g>
<g><path style="opacity:1" fill="#0d4e9c" d="M 157.5,168.5 C 160.652,167.959 163.152,168.959 165,171.5C 172,183.833 179,196.167 186,208.5C 188.256,212.537 191.089,216.037 194.5,219C 188.072,218.521 183.239,215.354 180,209.5C 171.46,196.421 163.96,182.754 157.5,168.5 Z"/></g>
<g><path style="opacity:1" fill="#7d6470" d="M 132.5,153.5 C 132.171,159.537 132.504,165.537 133.5,171.5C 135.078,170.36 136.744,169.86 138.5,170C 136.842,171.663 134.842,172.496 132.5,172.5C 132.5,173.833 132.5,175.167 132.5,176.5C 132.5,177.167 132.5,177.833 132.5,178.5C 131.167,170.167 131.167,161.833 132.5,153.5 Z"/></g>
<g><path style="opacity:1" fill="#2d3775" d="M 144.5,167.5 C 143.402,173.198 141.069,178.365 137.5,183C 133.508,184.177 131.842,182.677 132.5,178.5C 132.5,177.833 132.5,177.167 132.5,176.5C 138.776,176.56 142.776,173.56 144.5,167.5 Z"/></g>
<g><path style="opacity:1" fill="#172e71" d="M 250.5,170.5 C 252.288,173.615 254.954,175.615 258.5,176.5C 259.5,177.167 260.5,177.833 261.5,178.5C 262.101,182.909 260.434,184.242 256.5,182.5C 253.962,178.757 251.962,174.757 250.5,170.5 Z"/></g>
<g><path style="opacity:1" fill="#817a9c" d="M 262.5,159.5 C 263.163,161.641 263.497,163.975 263.5,166.5C 263.589,170.761 262.922,174.761 261.5,178.5C 260.5,177.833 259.5,177.167 258.5,176.5C 259.5,176.5 260.5,176.5 261.5,176.5C 261.635,174.446 260.968,172.779 259.5,171.5C 260.5,171.5 261.5,171.5 262.5,171.5C 262.5,167.5 262.5,163.5 262.5,159.5 Z"/></g>
</svg>
