<svg width="80" height="80" viewBox="0 0 80 80" fill="none" xmlns="http://www.w3.org/2000/svg">
<mask id="mask0_908_12257" style="mask-type:alpha" maskUnits="userSpaceOnUse" x="0" y="0" width="80" height="80">
<rect width="80" height="80" fill="#D9D9D9"/>
</mask>
<g mask="url(#mask0_908_12257)">
<path d="M2.13048 36.7055C2.09518 36.6631 2.09518 36.5996 2.13048 36.5643C2.17283 36.529 2.23637 36.529 2.27167 36.5643C2.30696 36.6067 2.30696 36.6702 2.27167 36.7055C2.22931 36.7479 2.16577 36.7479 2.13048 36.7055Z" fill="white"/>
<path d="M9.45811 22.4589C9.42282 22.4166 9.42282 22.353 9.45811 22.3177C9.50047 22.2824 9.56401 22.2824 9.5993 22.3177C9.6346 22.3601 9.6346 22.4236 9.5993 22.4589C9.55695 22.4942 9.49341 22.4942 9.45811 22.4589Z" fill="white"/>
<path d="M34.5379 54.8447C31.1592 48.4041 34.8899 40.7879 41.8303 40.0347L44.5121 39.7461C44.5332 39.7461 44.5473 39.7391 44.5684 39.7391L51.2625 39.0141L57.9214 38.0709C57.9425 38.0709 57.9565 38.0709 57.9777 38.0638L60.6454 37.6837C67.5436 36.7053 73.5901 43.0967 72.4287 50.1075C72.0486 52.3952 71.591 54.535 71.0772 56.5411C70.8097 57.7096 70.4366 59.0047 70.0002 60.3492C68.1208 66.3816 65.8543 71.0343 64.1508 74.8283C64.0875 74.9762 64.0171 75.1169 63.9397 75.2577C62.8064 77.6861 60.4624 79.0799 57.9143 79.3614C55.3803 79.7204 52.6844 78.9602 50.805 76.9048C50.6853 76.7852 50.5727 76.6725 50.4671 76.5458C47.6093 73.329 43.9349 69.4154 40.1761 64.0869C39.3244 62.9043 38.5431 61.757 37.9096 60.6941C36.7692 58.8921 35.643 56.9494 34.5379 54.8447Z" fill="#F89E1C"/>
<path d="M56.7107 79.5443C54.416 79.5443 52.234 78.6222 50.7206 76.968C50.608 76.8554 50.4883 76.7358 50.3757 76.6091C49.9674 76.1445 49.5381 75.6658 49.0946 75.1731C46.5113 72.2942 43.3015 68.7043 40.0847 64.1431C39.1767 62.8831 38.4094 61.7428 37.8111 60.7432C36.6145 58.8498 35.4742 56.8788 34.4324 54.8939C32.7642 51.7193 32.736 48.0027 34.362 44.9619C35.8825 42.1111 38.5995 40.2739 41.8163 39.922L51.2485 38.8943L60.6315 37.5639C63.8905 37.0994 67.1284 38.2397 69.5217 40.6892C71.9712 43.1951 73.0974 46.7216 72.5414 50.1144C72.1824 52.2754 71.7249 54.4434 71.1899 56.5551C70.9365 57.6602 70.5775 58.9413 70.1059 60.3702C68.494 65.5368 66.5723 69.7672 65.0238 73.167C64.7563 73.7512 64.5029 74.3144 64.2565 74.8634C64.1932 74.9971 64.1298 75.1379 64.0454 75.2998C62.9684 77.6016 60.6807 79.1572 57.9355 79.4598C57.5202 79.5162 57.112 79.5443 56.7107 79.5443ZM34.6366 54.7953C35.6783 56.7733 36.8116 58.7371 38.0082 60.6306C38.6066 61.6231 39.3667 62.7634 40.2748 64.0164C43.4845 68.5706 46.6943 72.1534 49.2706 75.0253C49.714 75.518 50.1434 75.9967 50.5517 76.4612C50.6643 76.5809 50.7769 76.7006 50.8895 76.8202C52.6211 78.7137 55.2396 79.6217 57.9003 79.2487C60.5751 78.953 62.7924 77.4467 63.8412 75.2083C63.9257 75.0464 63.9961 74.9127 64.0524 74.7789C64.2988 74.2299 64.5522 73.6668 64.8196 73.0825C66.3612 69.6898 68.2828 65.4664 69.8947 60.3139C70.3593 58.892 70.7183 57.6109 70.9717 56.5128C71.5137 54.4011 71.9642 52.2402 72.3232 50.0863C72.8722 46.7639 71.7671 43.3077 69.3668 40.8511C67.0229 38.4508 63.8553 37.3387 60.6667 37.7892L51.2837 39.1195L41.8445 40.1472C38.7051 40.4851 36.0514 42.28 34.5662 45.0745C32.9754 48.045 33.0035 51.6841 34.6366 54.7953Z" fill="#10319B"/>
<path d="M46.9619 68.4292C44.09 64.234 49.2004 61.5874 51.9456 63.2485C56.9714 66.2964 58.6889 63.1007 60.9554 57.0191C63.0038 51.5216 70.3736 51.9721 71.3731 54.7384C71.1338 55.9069 71.3238 55.5057 71.0493 56.5897C70.7818 57.7582 70.4087 59.0533 69.9723 60.3978C68.0929 66.4302 65.8264 71.0829 64.123 74.8769C64.0596 75.0247 63.9892 75.1655 63.9118 75.3063C62.7785 77.7347 60.4345 79.1284 57.8864 79.41C55.3524 79.769 52.6565 79.0088 50.7771 76.9534C50.6574 76.8337 50.5448 76.7211 50.4392 76.5944C49.51 75.5456 48.4824 74.4194 47.4054 73.1946C49.3059 72.6244 49.32 71.8713 46.9619 68.4292Z" fill="#032663"/>
<path d="M36.1143 44.5537C37.5784 42.808 39.6197 41.6114 42.0763 41.351L44.7722 41.0624C44.7933 41.0624 44.8074 41.0553 44.8285 41.0553L51.5578 40.3374L58.2518 39.3801C58.2729 39.3801 58.287 39.3801 58.3081 39.373L60.99 38.9859C64.7066 38.4509 67.1843 40.9638 69.4649 43.8991C69.9787 44.5607 69.7394 45.5321 69.0074 45.7785C62.8553 47.8691 48.6225 51.1211 36.1143 44.5537Z" fill="#E26907"/>
<path d="M35.3052 48.9597C36.1569 49.7833 40.2184 51.4163 40.2184 51.4163C40.2184 51.4163 39.4371 52.9649 40.1832 55.6538C40.7464 57.6669 42.5483 59.1451 42.5483 59.1451C41.8937 61.1723 43.21 64.1357 44.7374 66.2544C46.2649 68.3802 45.7018 69.239 45.7018 69.239C45.7018 69.239 37.5084 59.4337 35.2912 53.345C34.3972 50.8743 35.3052 48.9597 35.3052 48.9597Z" fill="#F4B821"/>
<path d="M70.1057 54.7241C70.1057 54.7241 68.1699 54.6326 67.3816 56.0685C66.5932 57.5045 62.5176 69.8578 60.413 74.3557C60.0329 75.1652 59.1601 77.8963 57.6396 77.5655C57.6396 77.5655 59.8288 78.4806 62.2713 75.0596C64.7208 71.6387 68.9865 58.6237 70.1057 54.7241Z" fill="#0E51A0"/>
<path d="M41.2108 60.3414C40.8025 60.3414 40.3943 60.2499 40.0071 60.0669C38.8527 59.5178 38.1066 58.279 38.0503 56.836L37.7828 49.2128C37.7335 47.7276 38.4092 46.3831 39.5636 45.7004C40.4928 45.1513 41.5557 45.1513 42.4778 45.7004L48.292 49.1635C49.2422 49.7266 49.8687 50.8036 49.9672 52.0425C50.0728 53.3658 49.5801 54.6258 48.6509 55.4071C48.6228 55.4282 48.5946 55.4564 48.5595 55.4775L48.5243 55.5056L42.9846 59.729C42.4355 60.1302 41.8232 60.3414 41.2108 60.3414ZM41.0207 45.7919C40.6125 45.7919 40.1972 45.9045 39.817 46.1297C38.8246 46.714 38.2403 47.8895 38.2826 49.1846L38.55 56.8078C38.5923 58.0678 39.2328 59.1377 40.2183 59.6023C41.0278 59.9894 41.9217 59.8768 42.6678 59.3067L48.2427 55.0622C48.2709 55.0411 48.292 55.0199 48.3201 54.9988C49.1226 54.3231 49.5519 53.225 49.4604 52.0636C49.376 50.9937 48.841 50.0645 48.0315 49.5788L42.2173 46.1156C41.8302 45.9045 41.429 45.7919 41.0207 45.7919Z" fill="#F89E1C"/>
<path d="M41.182 60.3918C40.7878 60.3918 40.3866 60.3003 40.0065 60.1173C38.8662 59.5753 38.1271 58.3505 38.0779 56.9216L37.8033 49.1084C37.7541 47.6372 38.4228 46.3068 39.5631 45.6311C40.4711 45.0891 41.5129 45.0891 42.4138 45.6311L48.3688 49.1787C49.305 49.7348 49.9244 50.7977 50.023 52.0225C50.1286 53.3388 49.6429 54.5847 48.7208 55.3519C48.6926 55.373 48.6645 55.4012 48.6363 55.4223L48.6011 55.4505L42.9277 59.7724C42.3787 60.1877 41.7874 60.3918 41.182 60.3918ZM40.992 45.4903C40.5485 45.4903 40.1051 45.61 39.6898 45.8564C38.6339 46.4828 38.0075 47.7287 38.0567 49.1084L38.3312 56.9216C38.3805 58.259 39.0633 59.3993 40.1121 59.8991C40.985 60.3144 41.9563 60.2018 42.7588 59.5823L48.4674 55.2323C48.4955 55.2111 48.5237 55.19 48.5448 55.1689C49.4035 54.4509 49.8541 53.2825 49.7555 52.0506C49.664 50.9103 49.0938 49.9178 48.228 49.404L42.2731 45.8564C41.8718 45.61 41.4284 45.4903 40.992 45.4903Z" fill="#10319B"/>
<path d="M41.3513 58.4981C41.0345 58.4981 40.7248 58.4277 40.4221 58.287C39.5352 57.8646 38.958 56.9214 38.9229 55.8092L38.7187 50.1007C38.6765 48.9674 39.1974 47.9397 40.0843 47.4188C40.8023 46.9965 41.6188 46.9965 42.3297 47.4188L46.6798 50.0091C47.4118 50.4456 47.8905 51.2691 47.9679 52.2123C48.0524 53.226 47.6723 54.1832 46.9613 54.7816L46.8909 54.8379L46.7361 54.6337L46.8769 54.8449L42.7168 58.0124C42.2945 58.3362 41.8229 58.4981 41.3513 58.4981ZM41.2105 47.6018C40.9149 47.6018 40.6192 47.6863 40.3377 47.8482C39.6197 48.2776 39.1903 49.1293 39.2255 50.0795L39.4296 55.7881C39.4648 56.7032 39.9294 57.4845 40.6404 57.8224C41.2246 58.0969 41.8722 58.0195 42.4071 57.6112L46.5531 54.4507L46.7291 54.6337L46.5742 54.4367L46.6305 54.3944C47.2148 53.9017 47.5245 53.0992 47.4611 52.2546C47.3978 51.4732 47.0106 50.7975 46.4193 50.4456L42.0692 47.8552C41.7947 47.6863 41.4991 47.6018 41.2105 47.6018Z" fill="#F89E1C"/>
<path d="M46.6944 54.5913C46.7155 54.5773 46.7366 54.5561 46.7577 54.5421C48.0599 53.451 47.9473 51.1282 46.5184 50.2765L42.2669 47.7424C40.7957 46.8696 39.043 48.2 39.1134 50.1498L39.3105 55.7317C39.3809 57.6744 41.2181 58.7725 42.6188 57.7026L46.6732 54.6125C46.6732 54.5984 46.6803 54.5913 46.6944 54.5913Z" fill="#032663"/>
<path d="M45.9623 53.6762C45.9763 53.6691 45.9834 53.655 45.9975 53.648C46.7295 53.0356 46.6661 51.7264 45.8637 51.2407L43.4634 49.8118C42.6328 49.319 41.6474 50.0722 41.6826 51.1633L41.7952 54.3097C41.8374 55.4078 42.8721 56.0201 43.6605 55.4218L45.9482 53.6832C45.9482 53.6832 45.9552 53.6832 45.9623 53.6762Z" fill="#33FCFE"/>
<path d="M69.7681 46.0955C72.0135 48.6436 76.8422 55.049 78.5949 64.6009C78.7639 65.5301 77.7432 66.2199 76.9408 65.7201L76.3143 65.3259C69.9581 61.3489 66.7413 53.8454 68.2547 46.5037C68.4025 45.7998 69.2965 45.5605 69.7681 46.0955Z" fill="#F5851F"/>
<path d="M68.2617 46.5035C68.4095 45.7996 69.2964 45.5603 69.768 46.1023C71.7389 48.3406 75.7159 53.5706 77.8347 61.2923C75.1035 54.7461 69.8806 49.5021 68.0435 47.7916C68.0998 47.3552 68.1702 46.9328 68.2617 46.5035Z" fill="#F89E1C"/>
<path d="M75.7234 60.4129C74.2523 60.4129 72.1758 59.8286 69.0645 56.4992L68.8745 55.739C74.1115 61.335 77.2368 59.5189 77.2649 59.4978L77.5817 59.892C77.5183 59.9342 76.8848 60.4129 75.7234 60.4129Z" fill="#F89E1C"/>
<path d="M78.1233 62.3418C78.1233 62.3418 75.8497 64.8406 71.9854 61.3774C71.9854 61.3774 75.892 66.0372 77.9755 65.7134C77.9755 65.7134 79.32 65.5023 78.1233 62.3418Z" fill="#032663"/>
<path d="M77.5249 66.0151C77.2996 66.0151 77.0814 65.9517 76.8773 65.825L76.2508 65.4308C69.8806 61.4468 66.6215 53.8306 68.1349 46.4749C68.2123 46.1018 68.4868 45.8062 68.8599 45.7076C69.2259 45.6091 69.6131 45.7288 69.8665 46.0103C71.9359 48.3613 76.9407 54.8794 78.7285 64.5721C78.813 65.0507 78.6229 65.5153 78.2147 65.7898C78.0035 65.9376 77.7642 66.0151 77.5249 66.0151ZM69.1204 45.9259C69.057 45.9259 68.9866 45.9329 68.9233 45.954C68.6417 46.0314 68.4376 46.2426 68.3813 46.5242C66.889 53.7743 70.1058 61.2919 76.3846 65.2126L77.011 65.6068C77.3418 65.8109 77.7431 65.8039 78.0669 65.5857C78.3836 65.3675 78.5385 65.0014 78.4751 64.6213C76.7013 54.985 71.7318 48.5162 69.6764 46.1793C69.5286 46.0174 69.3315 45.9259 69.1204 45.9259Z" fill="#10319B"/>
<path d="M75.7868 63.2916C74.738 63.2916 73.3935 62.8904 71.8379 61.5318L72.0069 61.3418C75.639 64.5093 77.9407 62.3484 78.0392 62.2569L78.2152 62.4399C78.1941 62.4469 77.3072 63.2916 75.7868 63.2916Z" fill="#10319B"/>
<path d="M75.744 60.602C74.3362 60.602 72.2386 59.9615 69.1626 56.801L69.1908 56.5405C74.5474 62.052 77.3278 59.9263 77.356 59.9052L77.5179 60.1022C77.4615 60.1445 76.8703 60.602 75.744 60.602Z" fill="#10319B"/>
<path d="M46.11 51.4377L2.48486 19.4189V79.5441L42.9706 55.6611L46.11 51.4377Z" fill="url(#paint0_radial_908_12257)"/>
<path d="M25.1476 50.8747C25.1123 50.8323 25.1123 50.7688 25.1476 50.7335C25.1899 50.6982 25.2535 50.6982 25.2888 50.7335C25.3241 50.7759 25.3241 50.8394 25.2888 50.8747C25.2535 50.91 25.1899 50.91 25.1476 50.8747Z" fill="white"/>
<path d="M31.3141 52.8527C31.2788 52.8104 31.2788 52.7468 31.3141 52.7115C31.3564 52.6762 31.42 52.6762 31.4553 52.7115C31.4906 52.7539 31.4906 52.8174 31.4553 52.8527C31.4129 52.8951 31.3564 52.8951 31.3141 52.8527Z" fill="white"/>
<path d="M5.10802 45.1171C5.07272 45.0748 5.07272 45.0112 5.10802 44.9759C5.15037 44.9406 5.21391 44.9406 5.24921 44.9759C5.2845 45.0183 5.2845 45.0818 5.24921 45.1171C5.20685 45.1595 5.15037 45.1595 5.10802 45.1171Z" fill="white"/>
<path d="M2 50.0637V48.6929H4.56098V56.4396H3.03077V50.0637H2Z" fill="#032663"/>
<path d="M10.7488 54.7606C11.4289 54.1938 11.9709 53.7227 12.3747 53.3473C12.7785 52.9647 13.115 52.568 13.3842 52.1571C13.6534 51.7462 13.788 51.3424 13.788 50.9457C13.788 50.5844 13.703 50.301 13.533 50.0956C13.363 49.8901 13.1008 49.7874 12.7466 49.7874C12.3924 49.7874 12.1197 49.9078 11.9284 50.1487C11.7371 50.3825 11.6379 50.7048 11.6308 51.1157H10.1856C10.214 50.2656 10.4655 49.6209 10.9401 49.1817C11.4218 48.7424 12.0311 48.5228 12.7679 48.5228C13.5755 48.5228 14.1954 48.7389 14.6275 49.171C15.0596 49.5961 15.2757 50.1593 15.2757 50.8607C15.2757 51.4132 15.1269 51.941 14.8294 52.444C14.5319 52.947 14.1918 53.3862 13.8093 53.7617C13.4267 54.1301 12.9273 54.5764 12.3109 55.1006H15.4457V56.3333H10.1963V55.2281L10.7488 54.7606Z" fill="#032663"/>
<path d="M20.655 50.7331C20.6905 50.0247 20.9384 49.4792 21.3989 49.0967C21.8665 48.707 22.4793 48.5122 23.2373 48.5122C23.7544 48.5122 24.1972 48.6043 24.5656 48.7885C24.934 48.9656 25.2103 49.21 25.3945 49.5217C25.5857 49.8263 25.6814 50.1735 25.6814 50.5631C25.6814 51.0094 25.5645 51.3884 25.3307 51.7002C25.104 52.0048 24.8313 52.2102 24.5125 52.3165V52.359C24.9234 52.4865 25.2421 52.7132 25.4688 53.0391C25.7026 53.365 25.8195 53.7829 25.8195 54.293C25.8195 54.7181 25.7203 55.0971 25.522 55.4301C25.3307 55.763 25.0438 56.0251 24.6612 56.2164C24.2858 56.4006 23.8324 56.4927 23.301 56.4927C22.5005 56.4927 21.8488 56.2908 21.3458 55.887C20.8428 55.4832 20.5771 54.8881 20.5488 54.1017H21.994C22.0082 54.4489 22.125 54.7287 22.3447 54.9412C22.5714 55.1467 22.8795 55.2494 23.2692 55.2494C23.6305 55.2494 23.9068 55.1502 24.098 54.9519C24.2964 54.7464 24.3956 54.4843 24.3956 54.1655C24.3956 53.7404 24.261 53.4358 23.9918 53.2516C23.7226 53.0674 23.3046 52.9753 22.7378 52.9753H22.4297V51.7533H22.7378C23.7438 51.7533 24.2468 51.4168 24.2468 50.7438C24.2468 50.4391 24.1547 50.2018 23.9705 50.0318C23.7934 49.8618 23.5348 49.7768 23.1948 49.7768C22.8618 49.7768 22.6032 49.8689 22.419 50.053C22.2419 50.2302 22.1392 50.4569 22.1109 50.7331H20.655Z" fill="#032663"/>
<path d="M31.182 54.9306V53.7617L34.6569 48.7885H36.389V53.6342H37.3241V54.9306H36.389V56.4396H34.9013V54.9306H31.182ZM34.9969 50.3825L32.8185 53.6342H34.9969V50.3825Z" fill="#032663"/>
<path d="M73.5545 8.1984C72.1545 7.17962 70.4912 6.31331 68.6339 5.57867L68.7517 5.6064C68.7517 5.6064 62.8192 2.21045 53.8996 2.07877C45.0078 1.94709 38.9089 5.05889 38.8743 5.07968C36.9476 5.75887 35.208 6.59746 33.7526 7.59545C26.7182 12.3914 27.8132 23.0505 30.7171 33.0165C32.8309 40.2658 42.6098 43.5856 53.1234 43.5856C63.63 43.9044 74.1921 40.7787 76.5208 33.5918C79.7157 23.7297 80.4434 13.2092 73.5545 8.1984Z" fill="#F89E1C"/>
<path d="M73.5547 8.23972C72.82 7.70607 72.0161 7.214 71.1429 6.75659C77.8862 11.8159 77.1516 22.2809 73.9705 32.1084C71.6418 39.3092 61.0798 42.4418 50.5731 42.1229C44.599 42.1229 38.5002 40.5774 34.0854 38.2765C38.5695 41.6447 45.895 43.7031 53.1166 43.7031C63.6233 44.0219 74.1853 40.8893 76.514 33.6885C79.7159 23.7987 80.4436 13.2574 73.5547 8.23972Z" fill="#F5851F"/>
<path d="M70.0893 17.4644L69.9507 16.7298C73.7555 16.0021 74.2684 9.27951 74.2753 9.21021L75.0238 9.26565C75.003 9.56366 74.4555 16.6258 70.0893 17.4644Z" fill="#F89E1C"/>
<path d="M37.9876 16.5217C33.1848 15.198 33.0323 8.27442 33.0254 7.98334L33.7739 7.96948C33.7739 8.03879 33.9264 14.6228 38.1886 15.801L37.9876 16.5217Z" fill="#F4B821"/>
<path d="M53.6642 8.11485C53.4078 8.11485 53.1514 8.10792 52.888 8.08712C50.3376 7.90693 48.1198 6.88122 46.9486 5.34958L45.313 3.20805L45.909 2.75757L47.5446 4.89909C48.5842 6.2644 50.6079 7.17923 52.9435 7.34556C55.3484 7.51189 57.6354 6.83963 58.9106 5.57135C58.9453 5.5367 58.98 5.50205 59.0146 5.46046L61.3779 2.88232L61.9323 3.38824L59.569 5.97332C59.5275 6.02183 59.4859 6.06342 59.4373 6.105C58.1483 7.37328 55.986 8.11485 53.6642 8.11485Z" fill="#F4B821"/>
<path d="M53.678 10.8664C53.6087 10.8664 53.5394 10.8664 53.4632 10.8664C53.2067 10.8595 52.9434 10.8525 52.6939 10.8317C49.3187 10.5961 46.4287 9.20307 44.7584 7.01303L42.4229 3.94975L43.0189 3.49927L45.3545 6.56255C46.893 8.57933 49.589 9.86147 52.7493 10.0902C52.9919 10.104 53.2344 10.1179 53.4839 10.1179C56.4571 10.1595 59.1393 9.21693 60.8511 7.53282C60.9135 7.47044 60.9689 7.415 61.0313 7.35263L61.1006 7.27639L64.3441 3.7349L64.8985 4.24083L61.5788 7.86548C61.5095 7.93479 61.4471 8.00409 61.3778 8.06647C59.5551 9.85454 56.7621 10.8664 53.678 10.8664Z" fill="#F4B821"/>
<path d="M34.1266 9.46656C35.589 8.46164 37.3216 7.61611 39.2552 6.92999C39.2968 6.9092 45.4233 3.30534 54.3082 3.43702C60.1506 3.52712 65.2584 4.58055 68.0792 5.29439C66.298 4.42115 61.0655 2.19646 53.8993 2.08557C45.0075 1.95389 38.9087 5.09341 38.8671 5.1142C36.9404 5.80032 35.2008 6.64584 33.7385 7.65077C27.4664 11.9685 27.7644 20.9158 29.8158 29.9185C28.2218 21.5534 28.2773 13.4863 34.1266 9.46656Z" fill="#F4B821"/>
<path d="M37.3151 16.2866C33.1637 15.3579 32.838 8.469 32.8311 8.17099L33.0806 8.16406C33.0806 8.23337 33.4063 15.1569 37.3705 16.044L37.3151 16.2866Z" fill="#10319B"/>
<path d="M45.0636 6.77101L42.728 3.70772C43.5666 3.45129 44.5369 3.18794 45.618 2.95923L47.2536 5.10075C48.3625 6.55616 50.4832 7.5195 52.9228 7.69276C55.4316 7.87296 57.8296 7.15218 59.181 5.8146C59.2226 5.77301 59.2572 5.73836 59.2988 5.69678L61.6621 3.1117C62.7641 3.37506 63.7552 3.67307 64.6215 3.96415L61.378 7.50564L61.3018 7.58187C61.2394 7.64425 61.177 7.71355 61.1146 7.77593C59.3335 9.53628 56.5197 10.5204 53.4841 10.4719C53.2346 10.465 52.9852 10.458 52.7357 10.4372C49.4645 10.2085 46.6645 8.87095 45.0636 6.77101Z" fill="#032663"/>
<path d="M69.7565 16.924L69.708 16.6814C73.7 15.9121 74.2267 9.00241 74.2336 8.93311L74.4831 8.9539C74.4693 9.24498 73.9356 16.12 69.7565 16.924Z" fill="#10319B"/>
<path d="M51.0309 42.4347C56.2219 42.5941 61.4336 41.9495 65.7583 40.4387C66.7771 39.3783 67.5879 38.013 68.08 36.4121C69.3344 32.3092 70.7552 26.5569 71.372 20.0838C71.6769 16.9027 69.9235 13.978 67.3523 13.3266C63.8454 12.4325 58.4327 11.3722 51.9873 11.1712V11.1643C51.8071 11.1643 51.627 11.1643 51.4468 11.1643C51.2666 11.1573 51.0864 11.1573 50.9062 11.1504V11.1573C44.4608 11.1643 39.1451 11.8989 35.6106 12.689C33.0186 13.2711 31.0503 16.2928 31.2582 19.4878C31.681 25.9747 32.9285 31.7617 34.0582 35.9061C34.1482 36.2388 34.2522 36.5576 34.37 36.8695C35.0908 38.7754 36.7125 40.1961 38.6669 40.7783C42.4371 41.8872 46.7271 42.4347 51.0309 42.4347Z" fill="#032663"/>
<path d="M34.0855 38.2833L34.8479 38.9348C34.7231 38.5051 34.5083 37.7705 34.3627 37.2576C33.9815 35.9062 33.5519 34.3676 33.1499 33.328C32.5053 31.6508 31.14 30.639 29.8232 29.9182L29.9757 30.542C31.1955 31.2142 31.9994 31.9974 32.5816 33.5082C32.9766 34.527 33.3994 36.0448 33.7736 37.3824C33.9192 37.9022 33.9538 37.8467 34.0855 38.2833Z" fill="#F4B821"/>
<path d="M69.7152 40.654C69.7013 40.654 69.6875 40.654 69.6736 40.6471C69.6112 40.6263 69.5766 40.5501 69.5974 40.4877C69.8884 39.663 70.1726 38.7758 70.4567 37.9165C71.0458 36.1145 71.6488 34.2502 72.3211 32.7325C73.527 30.0157 76.0358 28.588 77.8169 27.7564C77.8793 27.7286 77.9555 27.7564 77.9833 27.8187C78.011 27.8811 77.9833 27.9573 77.9209 27.9851C76.1744 28.8029 73.721 30.1959 72.5498 32.8364C71.8844 34.3403 71.2746 36.1977 70.6924 37.9927C70.4152 38.8521 70.1241 39.7461 69.833 40.5709C69.8122 40.6263 69.7637 40.654 69.7152 40.654Z" fill="#F89E1C"/>
<path d="M29.9756 30.5425C30.1627 31.5405 30.4468 32.4276 30.7102 33.4256C31.2577 35.4909 32.3458 36.7314 34.1408 38.3046C33.6764 36.7176 33.2606 35.2067 32.72 33.786C32.0755 32.1365 31.133 31.1801 29.9756 30.5425Z" fill="#032663"/>
<path d="M30.7932 33.5154C30.5992 32.9333 30.4675 32.365 30.3081 31.7759C30.918 32.2056 31.313 32.8155 31.6665 33.6125C32.0477 34.458 32.3387 35.7124 32.6714 36.6965C31.7011 35.8926 31.1744 34.659 30.7932 33.5154Z" fill="#0E51A0"/>
<path d="M33.9333 38.131C33.8362 37.8053 33.7461 37.4934 33.656 37.1816C33.3234 36.0172 33.0046 34.9153 32.5749 33.7925C31.9997 32.3094 31.1819 31.3391 29.9136 30.6461L30.0314 30.4243C31.3551 31.152 32.2076 32.1639 32.8036 33.7024C33.2402 34.8321 33.559 35.941 33.8917 37.1123C33.9818 37.4172 34.0719 37.736 34.162 38.0548L33.9333 38.131Z" fill="#10319B"/>
<path d="M78.0457 28.3174C77.6506 29.9322 77.1932 31.4153 76.7428 33.0371C75.8695 36.1904 73.9775 38.4221 69.7222 40.6467C70.6093 38.1171 71.4756 35.6637 72.4666 33.4182C73.6379 30.7916 76.1952 29.1837 78.0457 28.3174Z" fill="#032663"/>
<path d="M50.9888 41.3265C55.4382 41.4581 59.9014 40.9661 63.7132 39.8087C64.3023 39.6285 64.8359 39.282 65.2102 38.7968C65.8478 37.9721 66.3607 37.0018 66.7003 35.9137C67.8577 32.2198 69.1675 27.0427 69.7289 21.2141C70.0061 18.3449 68.3913 15.7182 66.0141 15.1292C62.7776 14.3183 57.7876 13.3619 51.8482 13.1817V13.1748C51.6818 13.1748 51.5155 13.1748 51.3492 13.1748C51.1829 13.1678 51.0165 13.1678 50.8502 13.1609V13.1678C44.9038 13.1678 39.8861 13.9787 36.6288 14.6856C34.2378 15.2054 32.5467 17.7835 32.7339 20.6597C33.122 26.5021 34.2724 31.7138 35.3189 35.4425C35.6239 36.5305 36.1021 37.5077 36.705 38.3463C37.0515 38.8245 37.5436 39.1711 38.0981 39.3651C41.9306 40.675 46.4562 41.3265 50.9888 41.3265Z" fill="#FCE8CA"/>
<path d="M52.583 42.5044C52.0701 42.5044 51.5503 42.4975 51.0236 42.4836H51.0167C46.595 42.4836 42.3119 41.9015 38.618 40.8065C36.6012 40.2035 34.9656 38.7204 34.2587 36.8284C34.1409 36.5096 34.03 36.1769 33.9399 35.8373C32.9003 32.0255 31.5697 26.0791 31.133 19.3635C30.9251 16.1824 32.7825 13.2716 35.4508 12.5855C47.9049 9.3905 63.8034 12.1488 67.3796 13.0637C70.034 13.7429 71.8012 16.7091 71.4963 19.9734C70.8587 26.6752 69.3548 32.58 68.1974 36.3571C67.7192 37.9303 66.9014 39.3372 65.8479 40.4461L65.8272 40.4669L65.7994 40.4738C61.9738 41.8114 57.4343 42.5044 52.583 42.5044ZM51.0305 42.2342C56.3532 42.4005 61.551 41.6866 65.6885 40.2451C66.7073 39.1709 67.4974 37.8056 67.9617 36.2808C69.1122 32.5176 70.6161 26.6267 71.2468 19.9457C71.5448 16.8061 69.8538 13.9508 67.3172 13.3062C63.7549 12.3983 47.9187 9.63999 35.5131 12.828C32.9627 13.4864 31.1816 16.2863 31.3826 19.3496C31.8122 26.0445 33.1429 31.977 34.1755 35.7749C34.2656 36.1076 34.3696 36.4264 34.4874 36.7452C35.1735 38.561 36.7398 39.9887 38.6873 40.5708C42.3605 41.6589 46.6227 42.2411 51.0167 42.2411C51.0236 42.2341 51.0236 42.2342 51.0305 42.2342Z" fill="#10319B"/>
<path d="M70.0965 40.508L69.8608 40.4248C70.1796 39.5238 70.4569 38.6437 70.7202 37.7912C71.2123 36.2318 71.6766 34.7626 72.3212 33.3141C73.4924 30.6805 76.0359 29.0518 77.9557 28.1509L78.0596 28.3796C76.1745 29.2667 73.6865 30.8538 72.5429 33.4181C71.9053 34.8527 71.441 36.315 70.9558 37.8674C70.6925 38.7199 70.4153 39.6001 70.0965 40.508Z" fill="#10319B"/>
<path d="M30.5306 28.2689L29.4009 27.2987C29.4009 27.2987 28.6594 19.3494 30.392 14.6436L30.7038 17.3395C30.7108 17.3465 30.0108 17.4365 30.5306 28.2689Z" fill="#F4B821"/>
<path d="M54.5027 43.7377C54.0314 43.7377 53.567 43.7308 53.1096 43.7169C53.1096 43.7169 53.1096 43.7169 53.1027 43.7169C43.7188 43.7169 32.8726 40.917 30.5855 33.0578C26.8014 20.077 27.841 11.4762 33.6765 7.50504C35.1042 6.52784 36.8368 5.68232 38.8328 4.97541C39.0684 4.85066 45.0702 1.83589 53.9066 1.96757C62.7569 2.09925 68.7587 5.48133 68.8142 5.51599L68.8973 5.5645C70.72 6.29913 72.314 7.15159 73.6239 8.10799C81.5663 13.8811 78.9119 26.5847 76.6248 33.6469C74.1991 41.1318 63.4985 43.7377 54.5027 43.7377ZM53.1166 43.4674C62.2856 43.7446 73.8803 41.319 76.3961 33.5637C78.6624 26.5709 81.3029 13.9851 73.4853 8.30205C72.1339 7.31792 70.4913 6.44467 68.5924 5.70311L68.5993 5.67539C67.8092 5.25263 62.0846 2.33489 53.8997 2.21014C45.1326 2.07153 38.9922 5.16946 38.9298 5.19718C36.9477 5.89716 35.2289 6.74269 33.8151 7.70603C28.0836 11.6148 27.0787 20.1186 30.8281 32.9885C33.0805 40.716 43.8158 43.4674 53.1166 43.4674Z" fill="#10319B"/>
<path d="M59.4234 21.8029C59.3818 21.796 59.3402 21.7752 59.2987 21.7405C58.7511 21.2762 58.0373 21.096 57.3373 21.2554C57.1849 21.2901 57.0324 21.193 56.9977 21.0406C56.9631 20.8881 57.0601 20.7356 57.2126 20.701C58.0858 20.5069 58.9799 20.7287 59.666 21.3108C59.7838 21.4148 59.7977 21.5881 59.7006 21.7059C59.6313 21.796 59.5274 21.8237 59.4234 21.8029Z" fill="#032663"/>
<path d="M37.1973 22.1427C37.2389 22.1358 37.2805 22.115 37.3221 22.0804C37.8696 21.616 38.5835 21.4428 39.2904 21.5952C39.4428 21.6299 39.5953 21.5329 39.63 21.3804C39.6646 21.2279 39.5676 21.0754 39.4151 21.0408C38.5419 20.8398 37.6478 21.0616 36.9617 21.6437C36.8439 21.7477 36.83 21.921 36.9271 22.0388C36.9964 22.1289 37.1003 22.1635 37.1973 22.1427Z" fill="#032663"/>
<path d="M42.9982 32.642C42.9289 32.7875 42.8457 32.9261 42.7556 33.0509L37.8835 32.9677C37.7934 32.836 37.7172 32.6974 37.6548 32.5449L42.9982 32.642Z" fill="#0052A3"/>
<path d="M43.2129 32.0732C43.1782 32.2119 43.1297 32.3505 43.0743 32.4891L37.5783 32.399C37.5229 32.2673 37.4883 32.1218 37.4536 31.9832L43.2129 32.0732Z" fill="#0052A3"/>
<path d="M37.3883 30.8113L37.3813 31.2271L43.3063 31.3266L43.3133 30.9108L37.3883 30.8113Z" fill="#0052A3"/>
<path d="M43.3029 31.4982C43.296 31.6368 43.2752 31.7754 43.2475 31.914L37.4189 31.817C37.3981 31.6783 37.3843 31.5397 37.3843 31.4011L43.3029 31.4982Z" fill="#0052A3"/>
<path d="M42.0139 33.7786C41.7575 33.9519 41.4664 34.0905 41.1615 34.1806L39.4358 34.1528C39.1308 34.0558 38.8467 33.9103 38.5972 33.7231L42.0139 33.7786Z" fill="#0052A3"/>
<path d="M42.7484 27.3052L38.0703 27.229C38.1881 27.0834 38.3267 26.9448 38.4723 26.8201L42.3603 26.8824C42.5058 27.0141 42.6375 27.1527 42.7484 27.3052Z" fill="#0052A3"/>
<path d="M42.631 33.2098C42.5063 33.3623 42.3677 33.4939 42.2221 33.6187L38.3965 33.5563C38.251 33.4316 38.1193 33.286 38.0015 33.1335L42.631 33.2098Z" fill="#0052A3"/>
<path d="M41.3762 26.2938C41.6673 26.3978 41.9307 26.5433 42.1663 26.7235L38.6733 26.6681C38.9159 26.4948 39.1862 26.3562 39.4773 26.2661L41.3762 26.2938Z" fill="#0052A3"/>
<path d="M43.1576 28.047C43.2062 28.1787 43.2478 28.3242 43.2824 28.4628L37.5093 28.3658C37.5439 28.2202 37.5924 28.0886 37.6479 27.95L43.1576 28.047Z" fill="#0052A3"/>
<path d="M43.3098 28.6293C43.3306 28.7679 43.3444 28.9065 43.3444 29.0451L37.4258 28.9481C37.4327 28.8094 37.4466 28.6708 37.4743 28.5322L43.3098 28.6293Z" fill="#0052A3"/>
<path d="M42.8668 27.4715C42.9499 27.6032 43.0262 27.7418 43.0885 27.8943L37.7104 27.8042C37.7798 27.6586 37.856 27.52 37.9461 27.3953L42.8668 27.4715Z" fill="#0052A3"/>
<path d="M37.4127 29.6604L37.4058 30.0762L43.3307 30.1757L43.3377 29.7599L37.4127 29.6604Z" fill="#0052A3"/>
<path d="M37.4215 29.0886L37.4146 29.5044L43.3395 29.604L43.3465 29.1882L37.4215 29.0886Z" fill="#0052A3"/>
<path d="M37.3966 30.239L37.3896 30.6548L43.3146 30.7544L43.3216 30.3386L37.3966 30.239Z" fill="#0052A3"/>
<path d="M58.6686 32.6698C58.5993 32.8153 58.5161 32.9539 58.4261 33.0787L53.5539 32.9955C53.4638 32.8638 53.3876 32.7252 53.3252 32.5728L58.6686 32.6698Z" fill="#0052A3"/>
<path d="M58.8832 32.0947C58.8486 32.2333 58.8001 32.372 58.7446 32.5106L53.2488 32.4205C53.1933 32.2888 53.1587 32.1432 53.124 32.0046L58.8832 32.0947Z" fill="#0052A3"/>
<path d="M53.0646 30.8349L53.0576 31.2507L58.9826 31.3503L58.9896 30.9345L53.0646 30.8349Z" fill="#0052A3"/>
<path d="M58.9733 31.5189C58.9664 31.6575 58.9456 31.7961 58.9179 31.9347L53.0893 31.8377C53.0685 31.6991 53.0547 31.5605 53.0547 31.4219L58.9733 31.5189Z" fill="#0052A3"/>
<path d="M57.6843 33.7991C57.4279 33.9724 57.1368 34.111 56.8319 34.2011L55.1061 34.1733C54.8012 34.0763 54.5171 33.9308 54.2676 33.7437L57.6843 33.7991Z" fill="#0052A3"/>
<path d="M58.4256 27.3335L53.7476 27.2573C53.8654 27.1117 54.004 26.9731 54.1495 26.8484L58.0375 26.9108C58.1761 27.0355 58.3078 27.1811 58.4256 27.3335Z" fill="#0052A3"/>
<path d="M58.3009 33.2381C58.1762 33.3906 58.0376 33.5223 57.8921 33.647L54.0664 33.5846C53.9209 33.4599 53.7892 33.3143 53.6714 33.1619L58.3009 33.2381Z" fill="#0052A3"/>
<path d="M57.0466 26.3212C57.3377 26.4251 57.6011 26.5707 57.8368 26.7509L54.3438 26.6954C54.5863 26.5222 54.8566 26.3836 55.1477 26.2935L57.0466 26.3212Z" fill="#0052A3"/>
<path d="M58.828 28.0743C58.8766 28.206 58.9181 28.3515 58.9528 28.4902L53.1797 28.3931C53.2143 28.2476 53.2629 28.1159 53.3183 27.9773L58.828 28.0743Z" fill="#0052A3"/>
<path d="M58.9802 28.6495C59.001 28.7881 59.0149 28.9267 59.0149 29.0653L53.0962 28.9683C53.1031 28.8297 53.117 28.6911 53.1447 28.5525L58.9802 28.6495Z" fill="#0052A3"/>
<path d="M58.5367 27.4923C58.6198 27.6239 58.6961 27.7625 58.7584 27.915L53.3804 27.8249C53.4497 27.6794 53.5259 27.5408 53.616 27.416L58.5367 27.4923Z" fill="#0052A3"/>
<path d="M53.0822 29.6858L53.0752 30.1016L59.0002 30.2011L59.0072 29.7853L53.0822 29.6858Z" fill="#0052A3"/>
<path d="M53.0915 29.112L53.0845 29.5278L59.0095 29.6274L59.0164 29.2116L53.0915 29.112Z" fill="#0052A3"/>
<path d="M53.0734 30.2639L53.0664 30.6797L58.9914 30.7793L58.9984 30.3635L53.0734 30.2639Z" fill="#0052A3"/>
<path d="M47.0294 34.3887C46.7897 34.4093 46.6155 34.8425 46.6808 35.2964C46.9096 36.7404 47.6286 37.7513 48.4565 37.71C49.2844 37.6687 49.9707 36.5548 50.145 35.0901C50.1995 34.6362 50.0143 34.2236 49.7637 34.2236L47.0294 34.3887Z" fill="#032663"/>
</g>
<defs>
<radialGradient id="paint0_radial_908_12257" cx="0" cy="0" r="1" gradientUnits="userSpaceOnUse" gradientTransform="translate(48.7495 53.4438) scale(45.0453 45.0454)">
<stop offset="0.0783725" stop-color="#33FCFE"/>
<stop offset="1" stop-color="#33FCFE" stop-opacity="0"/>
</radialGradient>
</defs>
</svg>
