<svg width="100" height="74" viewBox="0 0 100 74" fill="none" xmlns="http://www.w3.org/2000/svg">
<rect x="45.6992" y="18.2344" width="4.25121" height="24.4444" rx="2.1256" transform="rotate(90 45.6992 18.2344)" fill="#FFCE00"/>
<rect x="45.6992" y="28.8623" width="4.25121" height="24.4444" rx="2.12561" transform="rotate(90 45.6992 28.8623)" fill="#FFCE00"/>
<path d="M54.2031 42.6787H63.7683L62.1741 53.8381L54.2031 56.4951V42.6787Z" fill="#FFCE00"/>
<path fill-rule="evenodd" clip-rule="evenodd" d="M16.8134 9.64788C15.4382 11.0231 14.6656 12.8884 14.6656 14.8333V33.9257C14.6656 34.8074 14.6562 36.129 14.6406 37.7135C16.3222 37.1429 18.1244 36.8335 19.9989 36.8335C29.2036 36.8335 36.6655 44.2954 36.6655 53.5002C36.6655 55.3942 36.3496 57.2145 35.7675 58.9112C41.6362 58.8664 48.2511 58.8333 54.9989 58.8333C57.9163 58.8333 60.7141 57.6744 62.777 55.6115C64.8399 53.5486 65.9989 50.7507 65.9989 47.8333V41.5C65.9989 40.9477 65.5512 40.5 64.9989 40.5H54.9989V14.8333C54.9989 12.8884 54.2263 11.0231 52.851 9.64788C51.4757 8.27262 49.6105 7.5 47.6655 7.5H21.9989C20.054 7.5 18.1887 8.27262 16.8134 9.64788ZM60.1843 53.0188C58.8091 54.394 56.9438 55.1667 54.9989 55.1667V44.1667H62.3322V47.8333C62.3322 49.7782 61.5596 51.6435 60.1843 53.0188ZM26.2025 19.037C26.5463 18.6932 27.0127 18.5 27.4989 18.5H42.1655C42.6518 18.5 43.1181 18.6932 43.4619 19.037C43.8057 19.3808 43.9989 19.8471 43.9989 20.3333C43.9989 20.8196 43.8057 21.2859 43.4619 21.6297C43.1181 21.9735 42.6518 22.1667 42.1655 22.1667H27.4989C27.0127 22.1667 26.5463 21.9735 26.2025 21.6297C25.8587 21.2859 25.6656 20.8196 25.6656 20.3333C25.6656 19.8471 25.8587 19.3808 26.2025 19.037ZM26.2025 30.037C26.5463 29.6931 27.0127 29.5 27.4989 29.5H42.1655C42.6518 29.5 43.1181 29.6931 43.4619 30.037C43.8057 30.3808 43.9989 30.8471 43.9989 31.3333C43.9989 31.8196 43.8057 32.2859 43.4619 32.6297C43.1181 32.9735 42.6518 33.1667 42.1655 33.1667H27.4989C27.0127 33.1667 26.5463 32.9735 26.2025 32.6297C25.8587 32.2859 25.6656 31.8196 25.6656 31.3333C25.6656 30.8471 25.8587 30.3808 26.2025 30.037Z" fill="#FFE784"/>
<path fill-rule="evenodd" clip-rule="evenodd" d="M20.0013 66.8337C27.3651 66.8337 33.3346 60.8641 33.3346 53.5003C33.3346 46.1365 27.3651 40.167 20.0013 40.167C12.6375 40.167 6.66797 46.1365 6.66797 53.5003C6.66797 60.8641 12.6375 66.8337 20.0013 66.8337ZM21.8346 52.1177C21.3484 52.5761 20.6891 52.8337 20.0016 52.8337C19.3141 52.8337 18.6547 52.5761 18.1686 52.1177C17.6824 51.6593 17.4093 51.0375 17.4093 50.3892C17.4093 49.7409 17.6824 49.1192 18.1686 48.6607C18.6547 48.2023 19.3141 47.9448 20.0016 47.9448C20.6891 47.9448 21.3484 48.2023 21.8346 48.6607C22.3207 49.1192 22.5938 49.7409 22.5938 50.3892C22.5938 51.0375 22.3207 51.6593 21.8346 52.1177ZM16.0391 53.1712C16.3632 52.8656 16.5452 52.451 16.5452 52.0188C16.5452 51.5866 16.3632 51.1721 16.0391 50.8665C15.715 50.5609 15.2754 50.3892 14.8171 50.3892C14.3587 50.3892 13.9192 50.5609 13.5951 50.8665C13.271 51.1721 13.0889 51.5866 13.0889 52.0188C13.0889 52.451 13.271 52.8656 13.5951 53.1712C13.9192 53.4768 14.3587 53.6485 14.8171 53.6485C15.2754 53.6485 15.715 53.4768 16.0391 53.1712ZM12.3389 57.628C12.3903 57.7805 12.5007 57.9091 12.6482 57.9882C13.1955 58.2882 13.8062 58.4705 14.4369 58.5219C14.4032 58.3491 14.3954 58.1699 14.4153 57.989C14.5492 56.7658 15.1313 55.625 16.0614 54.7631C15.6088 54.5293 15.0925 54.4282 14.5785 54.4727C14.0646 54.5172 13.5765 54.7054 13.1767 55.0131C12.7769 55.3208 12.4836 55.7341 12.3343 56.1999C12.185 56.6658 12.1866 57.163 12.3389 57.628ZM25.5664 58.5211C25.5664 58.5211 25.5663 58.5211 25.5663 58.5211V58.5219C25.5663 58.5216 25.5664 58.5213 25.5664 58.5211ZM27.3549 57.9882C26.8077 58.2879 26.1969 58.4699 25.5664 58.5211C25.6004 58.3456 25.608 58.1665 25.5887 57.989C25.4546 56.7653 24.8718 55.6242 23.9409 54.7623C24.3936 54.5284 24.91 54.4272 25.4241 54.4717C25.9381 54.5163 26.4263 54.7045 26.8262 55.0124C27.2261 55.3202 27.5194 55.7336 27.6685 56.1996C27.8177 56.6656 27.8159 57.163 27.6634 57.628C27.6122 57.7804 27.5021 57.909 27.3549 57.9882ZM26.4081 53.1712C26.7322 52.8656 26.9142 52.451 26.9142 52.0188C26.9142 51.5866 26.7322 51.1721 26.4081 50.8665C26.084 50.5609 25.6444 50.3892 25.1861 50.3892C24.7277 50.3892 24.2882 50.5609 23.9641 50.8665C23.64 51.1721 23.4579 51.5866 23.4579 52.0188C23.4579 52.451 23.64 52.8656 23.9641 53.1712C24.2882 53.4768 24.7277 53.6485 25.1861 53.6485C25.6444 53.6485 26.084 53.4768 26.4081 53.1712ZM15.751 58.4298C15.7926 58.5303 15.8586 58.6202 15.9438 58.6922C17.0546 59.6429 18.5015 60.1688 20.0016 60.167C21.502 60.1689 22.9491 59.643 24.0602 58.6922C24.1454 58.6202 24.2115 58.5304 24.2531 58.4299C24.2947 58.3294 24.3106 58.221 24.2995 58.1137C24.1896 57.111 23.6894 56.1824 22.8957 55.5073C22.1019 54.8322 21.0709 54.4585 20.002 54.4585C18.9331 54.4585 17.9021 54.8322 17.1083 55.5073C16.3146 56.1824 15.8144 57.111 15.7045 58.1137C15.6935 58.221 15.7094 58.3293 15.751 58.4298Z" fill="#FFE784"/>
<mask id="mask0_3076_35793" style="mask-type:alpha" maskUnits="userSpaceOnUse" x="33" y="1" width="70" height="70">
<rect x="33.125" y="1" width="69.1667" height="69.1667" fill="#D9D9D9"/>
</mask>
<g mask="url(#mask0_3076_35793)">
<path d="M84.3081 46.3179C86.3384 40.4761 81.9677 34.3912 75.7855 34.4885L73.3905 34.5249C73.3722 34.5249 73.3601 34.5249 73.3418 34.5249L67.3724 34.6222L61.4029 34.5249C61.3847 34.5249 61.3725 34.5249 61.3543 34.5249L58.9592 34.4885C52.777 34.3912 48.4063 40.4761 50.4367 46.3179C51.0993 48.2267 51.8105 50.0017 52.5521 51.6491C52.9533 52.6156 53.47 53.6794 54.0475 54.7797C56.5642 59.7157 59.2206 63.436 61.257 66.4815C61.3361 66.597 61.4212 66.7125 61.5063 66.8219C62.8558 68.7732 65.105 69.7033 67.3785 69.6729C69.6459 69.7094 71.9011 68.7732 73.2506 66.8219C73.3357 66.7125 73.4208 66.597 73.4999 66.4815C75.5363 63.436 78.1928 59.7157 80.7094 54.7797C81.2869 53.6794 81.8036 52.6217 82.2048 51.6491C82.9343 49.9956 83.6455 48.2267 84.3081 46.3179Z" fill="#F89E1C"/>
<path d="M73.8854 58.1657C75.5693 54.9074 72.232 52.6704 68.5239 54.8162C64.1046 57.3694 61.4906 56.2205 58.5424 51.333C56.1473 47.3575 52.6459 48.3848 51.418 48.9076C51.8009 49.8741 52.19 50.8103 52.5912 51.7039C52.9924 52.6704 53.5091 53.7342 54.0866 54.8345C56.6032 59.7705 59.2597 63.4908 61.2961 66.5363C61.3751 66.6518 61.4602 66.7673 61.5454 66.8767C62.8949 68.828 65.144 69.7581 67.4175 69.7277C69.685 69.7642 71.9402 68.828 73.2897 66.8767C73.3748 66.7673 73.4599 66.6518 73.5389 66.5363C74.2015 65.5394 74.9371 64.4755 75.703 63.3145C73.9402 63.0288 72.2563 61.3145 73.8854 58.1657Z" fill="#032663"/>
<path d="M67.2656 69.8316C64.8645 69.8316 62.6882 68.7556 61.4299 66.932C61.3448 66.8225 61.2597 66.707 61.1807 66.5855C60.8889 66.1478 60.5789 65.6919 60.2628 65.2238C58.4148 62.4944 56.1231 59.1024 53.9651 54.8715C53.3511 53.7044 52.8466 52.6466 52.4636 51.7348C52.0563 50.829 51.6612 49.8868 51.2904 48.9385L51.2539 48.8413L51.3512 48.7987C52.7311 48.2091 56.2021 47.2729 58.6093 51.2728C61.6244 56.2757 64.1958 57.1754 68.4449 54.7195C70.7063 53.4126 72.694 53.7591 73.6606 54.683C74.5481 55.5341 74.6636 56.8532 73.9585 58.2149C73.2472 59.5948 73.1196 60.8166 73.5937 61.7528C73.9767 62.5065 74.7609 63.0476 75.6909 63.1995L75.8611 63.2238L75.7639 63.3637C75.3323 64.0141 74.9128 64.6341 74.5056 65.2299C74.1894 65.698 73.8855 66.1478 73.5937 66.5794C73.5147 66.701 73.4296 66.8165 73.3445 66.9259C72.0679 68.7738 69.8491 69.862 67.3872 69.8194C67.3447 69.8316 67.3021 69.8316 67.2656 69.8316ZM67.3872 69.6127C69.7762 69.6492 71.9281 68.6036 73.1682 66.8104C73.2533 66.6949 73.3384 66.5855 73.4114 66.47C73.7031 66.0323 74.0071 65.5825 74.3232 65.1144C74.7001 64.5612 75.083 63.9837 75.4842 63.388C74.5542 63.1935 73.7822 62.6281 73.3931 61.8561C73.0405 61.157 72.8156 59.9413 73.7639 58.1176L73.8612 58.1662L73.7639 58.1176C74.4204 56.8471 74.3293 55.6253 73.5086 54.8472C72.5968 53.9779 70.7123 53.6618 68.5543 54.914C64.2262 57.4185 61.4786 56.4642 58.4209 51.3944C56.1535 47.6376 52.9195 48.4036 51.5335 48.9689C51.8922 49.8807 52.2752 50.7865 52.6642 51.6619C53.0411 52.5737 53.5456 53.6192 54.1596 54.7864C56.3115 59.0051 58.6032 62.391 60.4451 65.1144C60.7612 65.5825 61.0713 66.0384 61.3631 66.476C61.4421 66.5915 61.5211 66.701 61.6062 66.8165C62.8463 68.6036 65.0104 69.6553 67.3872 69.6127Z" fill="#10319B"/>
<path d="M45.6888 39.3523C44.8196 41.7716 43.1965 47.6378 44.6129 54.8594C44.7527 55.5646 45.6645 55.7652 46.0901 55.1877L46.4244 54.7379C49.7982 50.1666 49.9744 43.9783 46.8681 39.2185C46.5703 38.7565 45.8773 38.8356 45.6888 39.3523Z" fill="#F5851F"/>
<path d="M67.4874 69.8315C67.4448 69.8315 67.4083 69.8315 67.3658 69.8315C64.9221 69.868 62.6851 68.786 61.4085 66.9319C61.3234 66.8225 61.2383 66.707 61.1593 66.5854C60.8675 66.1477 60.5575 65.6918 60.2414 65.2238C58.3934 62.4943 56.1017 59.1023 53.9437 54.8715C53.3297 53.7043 52.8252 52.6466 52.4422 51.7348C51.6641 49.9901 50.9529 48.1969 50.3267 46.3975C49.342 43.5709 49.7857 40.5557 51.5364 38.1363C53.2811 35.7291 55.9801 34.3796 58.9587 34.4222L61.3477 34.4586H61.3963L67.3658 34.5559L73.3352 34.4586H73.3656L75.7789 34.4222C78.7576 34.3735 81.4566 35.7291 83.2012 38.1363C84.9519 40.5557 85.3957 43.5709 84.4109 46.3975C83.7848 48.1969 83.0736 49.9962 82.2955 51.7408C81.9186 52.6527 81.414 53.7104 80.794 54.8775C78.636 59.1023 76.3382 62.5004 74.4963 65.2298C74.1802 65.6979 73.8702 66.1538 73.5784 66.5915C73.4994 66.7131 73.4143 66.8286 73.3292 66.938C72.0708 68.7556 69.8946 69.8315 67.4874 69.8315ZM67.3658 69.6127C69.7548 69.6492 71.9067 68.6036 73.1468 66.8103C73.2319 66.6948 73.317 66.5854 73.3899 66.4699C73.6817 66.0322 73.9918 65.5763 74.3079 65.1083C76.1497 62.3849 78.4415 58.9929 80.5934 54.7803C81.2074 53.6192 81.7058 52.5676 82.0888 51.6618C82.8669 49.9233 83.5781 48.13 84.1982 46.3367C85.1586 43.5769 84.727 40.6348 83.0189 38.2762C81.3168 35.9297 78.6725 34.6106 75.7789 34.6532L73.3899 34.6896H73.3595L67.3719 34.7869L61.3963 34.6896H61.3477L58.9526 34.6532C56.0591 34.6106 53.4148 35.9297 51.7127 38.2762C50.0046 40.6408 49.573 43.5769 50.5334 46.3367C51.1535 48.13 51.8647 49.9233 52.6428 51.6618C53.0197 52.5736 53.5242 53.6192 54.1382 54.7864C56.2901 59.0051 58.5818 62.391 60.4237 65.1143C60.7398 65.5824 61.0499 66.0383 61.3416 66.476C61.4207 66.5915 61.4997 66.7009 61.5848 66.8164C62.831 68.6036 64.995 69.6553 67.3658 69.6127Z" fill="#10319B"/>
<path d="M81.438 37.7226C79.9 36.3914 77.9426 35.5889 75.7542 35.6315L73.3531 35.674C73.3348 35.674 73.3227 35.674 73.3044 35.674L67.3046 35.7774L61.3048 35.674C61.2865 35.674 61.2744 35.674 61.2561 35.674L58.855 35.6315C55.5238 35.5768 53.7123 37.9719 52.1439 40.7134C51.7913 41.3335 52.1378 42.1359 52.8126 42.2696C58.4963 43.3942 71.4261 44.6525 81.438 37.7226Z" fill="#E26907"/>
<path d="M65.809 53.7584C65.2376 53.7584 64.6601 53.6186 64.1313 53.3329C63.0067 52.725 62.3137 51.6004 62.2711 50.3238L62.0523 43.0049C62.0158 41.7283 62.6419 40.5612 63.7301 39.8925C64.8182 39.2177 66.1373 39.1813 67.2619 39.7891L73.7602 43.2845C74.8483 43.8681 75.5352 44.9501 75.6021 46.1841C75.6689 47.4181 75.0975 48.567 74.0824 49.26C74.052 49.2843 74.0155 49.3026 73.9851 49.3269L73.9425 49.3512L67.6692 53.2295C67.0917 53.576 66.4473 53.7584 65.809 53.7584ZM65.5841 39.7952C65.0249 39.7952 64.4595 39.9533 63.955 40.2633C63.0006 40.8529 62.4535 41.8742 62.49 42.9927L62.7088 50.3117C62.7453 51.4302 63.3532 52.4149 64.3379 52.9438C65.3227 53.4727 66.4838 53.4423 67.4321 52.8526L73.748 48.95C73.7784 48.9318 73.8088 48.9135 73.8331 48.8953C74.7206 48.2874 75.2191 47.2844 75.1583 46.2023C75.1036 45.1264 74.5018 44.1781 73.5474 43.6675L67.0491 40.1721C66.5871 39.9168 66.0826 39.7952 65.5841 39.7952Z" fill="#F89E1C"/>
<path d="M65.7808 53.8133C65.2155 53.8133 64.6441 53.6735 64.1152 53.3878C62.9967 52.786 62.3098 51.6736 62.2733 50.4031L62.0484 42.9018C62.0119 41.6374 62.632 40.4824 63.7079 39.8137C64.7839 39.145 66.0969 39.1086 67.2154 39.7104L73.8718 43.2969C74.9477 43.8744 75.6286 44.9504 75.6954 46.1722C75.7623 47.3941 75.197 48.5369 74.194 49.2238C74.1636 49.2481 74.1271 49.2664 74.0967 49.2907L74.0542 49.315L67.6227 53.2906C67.0513 53.6371 66.4191 53.8133 65.7808 53.8133ZM65.5498 39.5098C64.9541 39.5098 64.3584 39.6739 63.8234 40.0082C62.8143 40.6344 62.2308 41.7164 62.2672 42.9018L62.4922 50.4031C62.5286 51.5885 63.173 52.634 64.2186 53.1994C65.2641 53.7647 66.492 53.7282 67.5072 53.1021L73.9751 49.1022C74.0055 49.084 74.0359 49.0597 74.0663 49.0414C75.0085 48.3971 75.5374 47.3333 75.4766 46.1844C75.4158 45.0415 74.7775 44.0325 73.7684 43.4914L67.1121 39.9049C66.6197 39.6435 66.0848 39.5098 65.5498 39.5098Z" fill="#10319B"/>
<path d="M46.8677 39.2179C46.5698 38.762 45.8769 38.841 45.6884 39.3517C44.9225 41.4793 43.573 46.2755 44.2295 52.3118C44.3328 46.932 46.5577 41.7832 47.3783 40.0629C47.2142 39.7772 47.0501 39.4915 46.8677 39.2179Z" fill="#F89E1C"/>
<path d="M44.4794 51.3279C44.2119 51.3279 44.0478 51.2793 44.0234 51.2732L44.1511 50.8538L44.0842 51.0604L44.145 50.8477C44.1693 50.8538 46.8015 51.4252 48.9716 45.7354L49.0871 46.5925C47.3182 51.0726 45.3851 51.3279 44.4794 51.3279Z" fill="#F89E1C"/>
<path d="M44.3203 53.1331C44.3203 53.1331 46.6181 54.2638 48.381 50.7441C48.381 50.7441 46.9221 55.1148 45.3659 55.4674C45.3659 55.4674 44.3568 55.6923 44.3203 53.1331Z" fill="#032663"/>
<path d="M45.4345 55.6308C45.3616 55.6308 45.2947 55.6248 45.2218 55.6065C44.8571 55.5214 44.5835 55.2479 44.5106 54.8771C43.0699 47.5399 44.7841 41.5461 45.5865 39.3152C45.6838 39.0416 45.9269 38.8471 46.2187 38.8106C46.5105 38.7741 46.7962 38.9079 46.9543 39.1571C50.0727 43.929 49.8904 50.2146 46.5044 54.798L46.1701 55.2479C45.9999 55.491 45.7263 55.6308 45.4345 55.6308ZM46.316 39.0234C46.2917 39.0234 46.2734 39.0234 46.2491 39.0295C46.0364 39.0538 45.8661 39.1875 45.7932 39.3881C44.9969 41.6069 43.2948 47.552 44.7233 54.8345C44.778 55.1141 44.9847 55.3269 45.2704 55.3938C45.55 55.4545 45.8358 55.3512 46.006 55.1202L46.3403 54.6704C49.6715 50.1599 49.8478 43.9716 46.778 39.2787C46.6746 39.1146 46.5044 39.0234 46.316 39.0234Z" fill="#10319B"/>
<path d="M45.1484 53.3694C44.6317 53.3694 44.2912 53.2356 44.2852 53.2295L44.3703 53.0289C44.4614 53.0654 46.6802 53.9408 48.3519 50.7129L48.5464 50.8162C47.4279 52.9682 46.0298 53.3694 45.1484 53.3694Z" fill="#10319B"/>
<path d="M44.5727 51.4494C44.3113 51.4494 44.1532 51.4007 44.1289 51.3947L44.1958 51.188C44.2201 51.1941 46.7611 51.9174 48.9981 46.5498L49.1987 46.6349C47.4115 50.9205 45.4359 51.4494 44.5727 51.4494Z" fill="#10319B"/>
<path d="M89.3227 39.3523C90.192 41.7716 91.815 47.6378 90.3987 54.8594C90.2588 55.5646 89.347 55.7652 88.9215 55.1877L88.5872 54.7379C85.2134 50.1666 85.0371 43.9783 88.1434 39.2185C88.4413 38.7565 89.1343 38.8356 89.3227 39.3523Z" fill="#F89E1C"/>
<path d="M88.7405 40.0695C88.7344 40.0817 88.7283 40.0878 88.7222 40.0999C87.6584 41.9114 87.8712 44.2153 89.2207 45.8201C89.6644 46.349 90.2055 46.8292 90.8437 47.1453C90.8377 43.8567 89.9927 41.3157 89.5003 40.1242C89.3666 39.8021 88.9167 39.7717 88.7405 40.0695Z" fill="#F4B821"/>
<path d="M86.4905 42.9512C85.3902 46.9267 86.1015 51.2914 88.5877 54.7381L88.9099 55.1879C88.9464 55.2426 88.995 55.2852 89.0436 55.3277L90.15 55.267C90.2533 55.1575 90.3263 55.0238 90.3567 54.8597C90.4965 54.1302 90.6059 53.419 90.691 52.7199C87.2139 51.2306 86.5878 45.6806 86.4905 42.9512Z" fill="#F5851F"/>
<path d="M90.4867 51.3396C89.5688 51.3396 87.5992 50.7681 85.8789 46.4035L86.0248 45.668C88.2193 51.6982 90.8332 50.8654 90.8575 50.8593L91.0034 51.2727C90.973 51.2788 90.7906 51.3396 90.4867 51.3396Z" fill="#F89E1C"/>
<path d="M90.6935 53.1331C90.6935 53.1331 88.3957 54.2638 86.6328 50.7441C86.6328 50.7441 88.0917 55.1148 89.6479 55.4674C89.6479 55.4674 90.657 55.6923 90.6935 53.1331Z" fill="#032663"/>
<path d="M89.5776 55.6313C89.2858 55.6313 89.0123 55.4975 88.8299 55.2483L88.4956 54.7985C85.1096 50.215 84.9333 43.9295 88.0457 39.1576C88.2099 38.9083 88.4895 38.7807 88.7813 38.8111C89.0731 38.8475 89.3162 39.036 89.4135 39.3156C90.2159 41.5526 91.9362 47.5464 90.4894 54.8775C90.4165 55.2422 90.1429 55.5219 89.7782 55.607C89.7174 55.6252 89.6505 55.6313 89.5776 55.6313ZM88.6962 39.0238C88.5077 39.0238 88.3436 39.115 88.2342 39.273C85.1643 43.9659 85.3406 50.1542 88.6719 54.6647L89.0062 55.1146C89.1764 55.3456 89.4621 55.4489 89.7417 55.3881C90.0214 55.3273 90.228 55.1146 90.2888 54.8289C91.7234 47.5464 90.0153 41.6013 89.2189 39.3825C89.146 39.1819 88.9758 39.0481 88.763 39.0238C88.7387 39.0238 88.7205 39.0238 88.6962 39.0238Z" fill="#10319B"/>
<path d="M89.8668 53.3696C88.9854 53.3696 87.5873 52.9684 86.4688 50.8104L86.6633 50.707C88.335 53.941 90.5537 53.0656 90.6449 53.0231L90.73 53.2237C90.724 53.2358 90.3835 53.3696 89.8668 53.3696Z" fill="#10319B"/>
<path d="M90.4424 51.4494C89.5792 51.4494 87.6036 50.9205 85.8164 46.6349L86.017 46.5498C88.2662 51.9357 90.795 51.1941 90.8193 51.188L90.8862 51.3947C90.8619 51.4007 90.7038 51.4494 90.4424 51.4494Z" fill="#10319B"/>
<path d="M66.2182 52.0752C65.7806 52.0752 65.3429 51.9658 64.9356 51.747C64.0724 51.285 63.5435 50.4279 63.5131 49.4492L63.349 43.966C63.3186 42.9873 63.7989 42.0998 64.6317 41.5892C65.4645 41.0725 66.4736 41.0482 67.3307 41.5102L72.1938 44.1302C73.0266 44.58 73.5494 45.4067 73.598 46.3489C73.6466 47.2912 73.215 48.1726 72.4369 48.7015C72.4126 48.7197 72.3883 48.7319 72.364 48.7501L72.3336 48.7683L67.6346 51.674C67.1969 51.9354 66.7106 52.0752 66.2182 52.0752ZM66.048 41.6196C65.6347 41.6196 65.2274 41.7351 64.8566 41.96C64.1636 42.3916 63.7624 43.1332 63.7867 43.9539L63.9508 49.437C63.9751 50.2576 64.4189 50.975 65.1423 51.364C65.8596 51.753 66.7106 51.7287 67.4036 51.2971L72.1269 48.3732C72.1512 48.361 72.1694 48.3428 72.1877 48.3306C72.8381 47.8869 73.1968 47.1513 73.1542 46.3672C73.1117 45.583 72.674 44.89 71.981 44.5131L67.1179 41.8931C66.7836 41.7108 66.4188 41.6196 66.048 41.6196Z" fill="#F89E1C"/>
<path d="M72.1999 48.5123C72.2242 48.5001 72.2485 48.4819 72.2667 48.4697C73.7439 47.4606 73.6406 45.2297 72.0479 44.3726L67.2942 41.8073C65.6469 40.9198 63.6651 42.1477 63.7199 44.02L63.8779 49.3755C63.9326 51.2417 65.9934 52.348 67.5799 51.3693L72.1756 48.5305C72.1816 48.5244 72.1938 48.5183 72.1999 48.5123Z" fill="#032663"/>
<path d="M70.2107 47.6861C70.2229 47.68 70.235 47.6678 70.2472 47.6618C71.08 47.0964 71.0192 45.8381 70.1195 45.3518L67.4388 43.9111C66.5087 43.4126 65.3902 44.1056 65.4267 45.1573L65.5178 48.1785C65.5482 49.2301 66.7093 49.8562 67.6029 49.3031L70.1925 47.7043C70.1986 47.6982 70.2046 47.6922 70.2107 47.6861Z" fill="#33FCFE"/>
<path d="M82.3579 39.7842C81.6163 40.6291 77.2942 42.775 77.2942 42.775C77.2942 42.775 78.7774 43.8874 78.8017 46.2399C78.82 47.9967 77.1605 49.5711 77.1605 49.5711C78.6559 51.0969 78.0905 53.7899 76.9842 55.8324C75.8778 57.8749 76.8565 58.4706 76.8565 58.4706C76.8565 58.4706 83.3244 48.8052 83.8898 43.3768C84.1208 41.1702 82.3579 39.7842 82.3579 39.7842Z" fill="#F4B821"/>
<path d="M53.1367 50.0079C53.1367 50.0079 54.8145 49.7283 55.7142 50.8651C56.6138 52.0018 61.9632 62.0866 64.4556 65.6914C64.9054 66.3419 66.0604 68.5728 67.343 68.129C67.343 68.129 65.5558 69.1442 62.9237 66.4938C60.2976 63.8374 54.6807 53.2054 53.1367 50.0079Z" fill="#0E51A0"/>
<path d="M50.3239 7.87258C51.5427 7.01331 52.9992 6.28202 54.608 5.67262L54.5044 5.69699C54.5044 5.69699 59.6722 2.83887 67.3812 2.83887C75.0659 2.83887 80.2946 5.61168 80.3251 5.62996C81.9827 6.24546 83.4696 6.98894 84.7189 7.86649C90.7338 12.1019 90.2402 21.2003 87.6014 29.7747C85.694 36.0151 76.6077 38.8549 67.5275 38.7147C58.4473 38.8549 49.361 36.0151 47.4414 29.7747C44.8027 21.2064 44.309 12.108 50.3239 7.87258Z" fill="#F89E1C"/>
<path d="M50.3211 7.90261C50.961 7.45165 51.6679 7.03725 52.4236 6.65332C46.5306 10.9375 47.0303 19.9872 49.6508 28.5189C51.5704 34.7714 60.6506 37.6113 69.7369 37.4772C74.8986 37.5564 80.0603 36.6667 83.9117 34.7409C79.9932 37.593 73.759 38.9093 67.5186 38.8118C58.4385 38.952 49.3522 36.106 47.4325 29.8535C44.7999 21.2669 44.3063 12.1502 50.3211 7.90261Z" fill="#F5851F"/>
<path d="M53.1304 15.5328C49.4435 14.7649 49.1997 8.89021 49.1875 8.63426L49.6263 8.62207C49.6263 8.67692 49.87 14.4054 53.2157 15.1001L53.1304 15.5328Z" fill="#F89E1C"/>
<path d="M81.1219 15.7579L81 15.3374C84.6686 14.271 84.8819 8.31094 84.8819 8.25L85.3207 8.26219C85.3146 8.51814 85.0952 14.6061 81.1219 15.7579Z" fill="#F4B821"/>
<path d="M67.6534 8.06143C65.5875 8.06143 63.6678 7.38498 62.5465 6.24539C62.51 6.20882 62.4734 6.17226 62.4368 6.1296L60.4258 3.8626L60.9194 3.42383L62.9305 5.68473C62.9548 5.7152 62.9853 5.74567 63.0158 5.77614C64.1066 6.88527 66.0689 7.49468 68.147 7.38498C70.1641 7.27529 71.9192 6.50743 72.8394 5.34346L74.2776 3.51524L74.7956 3.92354L73.3574 5.75177C72.3275 7.06809 70.3896 7.92126 68.1836 8.04314C68.0007 8.05533 67.8301 8.06143 67.6534 8.06143Z" fill="#F4B821"/>
<path d="M67.6426 10.4443C64.9063 10.4443 62.426 9.52412 60.8477 7.91529C60.7928 7.86044 60.7319 7.7995 60.677 7.73856L60.6161 7.67152L57.8555 4.56963L58.3491 4.13086L61.1646 7.29978C61.2133 7.35463 61.2621 7.40948 61.3169 7.45823C62.7734 8.933 65.0831 9.78617 67.6426 9.78617C67.8498 9.78617 68.0631 9.78008 68.2764 9.76789C71.0065 9.61553 73.3527 8.54298 74.7056 6.81835L76.7593 4.20399L77.2773 4.61229L75.2236 7.22665C73.7549 9.09754 71.232 10.2615 68.3129 10.426C68.0935 10.4382 67.868 10.4443 67.6426 10.4443Z" fill="#F4B821"/>
<path d="M84.3758 9.47532C83.1265 8.59168 81.6396 7.83602 79.982 7.22051C79.9454 7.20223 74.7045 4.00893 67.0199 4.00893C61.9618 4.00284 57.5436 4.84991 55.0938 5.42885C56.6477 4.69756 61.1939 2.83887 67.3855 2.83887C75.0702 2.83887 80.2989 5.63605 80.3294 5.65433C81.9869 6.27593 83.4739 7.0255 84.7232 7.90914C90.086 11.7179 90.2749 19.427 88.3796 27.1786C89.8788 19.9754 89.3791 13.0282 84.3758 9.47532Z" fill="#F4B821"/>
<path d="M81.4802 15.4592L81.4375 15.2459C84.8746 14.5329 85.2463 8.41446 85.2524 8.35352L85.4718 8.3657C85.4535 8.62166 85.0818 14.7096 81.4802 15.4592Z" fill="#10319B"/>
<path d="M74.9617 7.00112L77.0154 4.38676C76.2963 4.15519 75.4614 3.91752 74.529 3.69813L73.0908 5.52635C72.1158 6.76955 70.2693 7.57397 68.1607 7.69585C65.9912 7.81773 63.9314 7.16566 62.7796 5.9895C62.7431 5.95294 62.7126 5.92247 62.6821 5.8859L60.6711 3.625C59.7143 3.83829 58.855 4.08206 58.1055 4.31973L60.8661 7.42161L60.927 7.48865C60.9819 7.5435 61.0306 7.60444 61.0855 7.65928C62.6029 9.20109 65.0162 10.0847 67.6427 10.0847C67.856 10.0847 68.0754 10.0786 68.2948 10.0664C71.1163 9.92019 73.5479 8.79888 74.9617 7.00112Z" fill="#032663"/>
<path d="M53.4926 15.4598C49.891 14.7102 49.4948 8.68318 49.4766 8.42723L49.6959 8.41504C49.702 8.47598 50.0982 14.5335 53.5352 15.2465L53.4926 15.4598Z" fill="#10319B"/>
<path d="M67.4792 38.6351C62.9879 38.7022 58.5026 38.0806 54.7852 36.7155C53.9199 35.7892 53.2313 34.5948 52.829 33.2053C51.7991 29.6403 50.6413 24.6553 50.1964 19.0549C49.977 16.3003 51.531 13.8018 53.7614 13.2655C56.8024 12.5342 61.4948 11.6871 67.0648 11.6018V11.5957C67.2233 11.5957 67.3756 11.6018 67.5341 11.6018C67.6925 11.6018 67.8449 11.5957 68.0033 11.5957V11.6018C73.5733 11.6871 78.1561 12.394 81.197 13.1253C83.4274 13.6616 85.0911 16.3003 84.8717 19.0549C84.4269 24.6553 83.269 29.6403 82.2391 33.2053C81.843 34.5643 81.1787 35.7344 80.3377 36.6607C76.5777 38.0623 72.0254 38.7022 67.4792 38.6351Z" fill="#032663"/>
<path d="M82.9852 35.2714L82.1016 35.7529C82.2661 35.2653 82.5403 34.4426 82.7232 33.8637C83.2107 32.3402 83.7652 30.6095 84.2589 29.4516C85.0572 27.5807 87.2754 26.1669 88.7319 25.46L88.4821 26.4167C87.1231 27.081 85.5813 28.0256 84.8622 29.7136C84.3807 30.8471 83.8323 32.5596 83.3448 34.0709C83.168 34.6437 83.1497 34.7839 82.9852 35.2714Z" fill="#F4B821"/>
<path d="M52.3347 35.4116C52.2859 35.4116 52.2433 35.3811 52.2311 35.3385C52.0848 34.9058 51.9325 34.4305 51.774 33.949C51.2987 32.4803 50.7563 30.8106 50.2505 29.6222C49.5131 27.8976 47.9287 26.9408 46.4722 26.2278C46.4173 26.2034 46.393 26.1364 46.4234 26.0816C46.4478 26.0267 46.5148 26.0023 46.5697 26.0328C48.0627 26.758 49.6899 27.7452 50.4577 29.5369C50.9696 30.7374 51.512 32.4072 51.9873 33.882C52.1458 34.3634 52.2981 34.8327 52.4383 35.2714C52.4566 35.3263 52.4261 35.3933 52.3713 35.4116C52.3591 35.4116 52.3469 35.4116 52.3347 35.4116Z" fill="#F89E1C"/>
<path d="M88.5584 26.3867C88.2964 27.5202 87.9917 28.6598 87.6443 29.7872C86.9313 32.1152 85.2433 33.9678 82.9336 35.3816C83.5308 33.596 84.0305 31.6033 84.7009 30.0249C85.4992 28.1662 87.2726 27.0083 88.5584 26.3867Z" fill="#032663"/>
<path d="M86.9909 29.9269C87.2347 29.2687 87.4602 28.6105 87.6735 27.9463C86.9909 28.3851 86.2901 29.0188 85.8635 29.9025C85.4065 30.841 85.0042 31.9989 84.5898 33.1019C85.6746 32.267 86.5095 31.2127 86.9909 29.9269Z" fill="#0E51A0"/>
<path d="M83.0705 35.3689L82.8633 35.3019C83.0705 34.6864 83.2655 34.0343 83.4544 33.4066C83.814 32.2122 84.1918 30.9812 84.6306 29.9391C85.4228 28.0743 87.1962 26.9043 88.5369 26.2461L88.6344 26.4411C87.3242 27.081 85.6056 28.2145 84.8317 30.0183C84.3929 31.0482 84.0212 32.2731 83.6616 33.4615C83.4727 34.1014 83.2777 34.7534 83.0705 35.3689Z" fill="#10319B"/>
<path d="M46.4727 26.3867C46.7347 27.5202 47.0394 28.6598 47.3868 29.7872C48.0998 32.1152 49.7878 33.9678 52.0975 35.3816C51.5003 33.596 51.0006 31.6033 50.3302 30.0249C49.538 28.1662 47.7585 27.0083 46.4727 26.3867Z" fill="#032663"/>
<path d="M68.1231 38.8126C67.9219 38.8126 67.7208 38.8126 67.5258 38.8065C59.5243 38.9283 49.4447 36.6431 47.3361 29.7994C45.447 23.6688 43.3201 12.6628 50.2613 7.77539L50.3222 7.8668L50.2613 7.77539C51.474 6.92222 54.4175 5.62418 54.5454 5.56933C54.5881 5.54496 59.7376 2.72949 67.3857 2.72949C75.0581 2.72949 80.3295 5.5023 80.3843 5.53277C82.0846 6.16046 83.5715 6.91613 84.7904 7.77539C91.7315 12.6628 89.6047 23.6688 87.7155 29.7933C85.6557 36.4724 76.0149 38.8126 68.1231 38.8126ZM67.5197 38.5871C67.7147 38.5871 67.9159 38.5932 68.117 38.5932C75.9357 38.5932 85.479 36.2957 87.5022 29.7324C89.3731 23.6627 91.4878 12.7664 84.6624 7.95822C83.4558 7.11114 81.9871 6.36157 80.2929 5.73387C80.2259 5.69731 74.9972 2.95497 67.3857 2.95497C59.7985 2.95497 54.6917 5.73997 54.6429 5.77044C54.6064 5.78872 51.5898 7.11723 50.3893 7.95822C43.5578 12.7604 45.6785 23.6627 47.5433 29.7324C49.6153 36.4602 59.6035 38.709 67.5197 38.5871Z" fill="#10319B"/>
<path d="M67.5252 37.6728C63.6737 37.7276 59.8283 37.2462 56.5497 36.1919C56.0439 36.0274 55.5868 35.7227 55.27 35.2961C54.7276 34.577 54.301 33.7299 54.0146 32.7853C53.0639 29.5798 51.9974 25.0885 51.5891 20.0487C51.388 17.5684 52.8201 15.3197 54.8738 14.8382C57.6771 14.1801 62.0039 13.4183 67.1412 13.3391V13.333C67.2875 13.333 67.4276 13.333 67.5739 13.3391C67.7202 13.3391 67.8603 13.333 68.0066 13.333V13.3391C73.1439 13.4183 77.4646 14.1801 80.274 14.8382C82.3338 15.3197 83.7598 17.5684 83.5587 20.0487C83.1443 25.0885 82.0839 29.5798 81.1332 32.7853C80.8529 33.7238 80.4324 34.5587 79.8961 35.2717C79.5914 35.68 79.1649 35.9725 78.6834 36.131C75.3561 37.234 71.4436 37.7337 67.5252 37.6728Z" fill="#FCE8CA"/>
<path fill-rule="evenodd" clip-rule="evenodd" d="M58.2895 25.7411C58.4382 25.5544 58.7102 25.5235 58.897 25.6723C59.6033 26.2348 61.5467 27.4546 63.5771 27.7915C63.7876 27.8264 63.9411 28.0097 63.9386 28.223C63.9362 28.4363 63.7784 28.6159 63.5672 28.646C63.068 28.717 62.222 28.8787 61.3285 29.1307C60.4291 29.3845 59.5142 29.7209 58.856 30.1303C58.6533 30.2564 58.3867 30.1944 58.2606 29.9916C58.1345 29.7889 58.1966 29.5224 58.3993 29.3962C59.1604 28.9227 60.1674 28.56 61.0938 28.2986C61.2781 28.2466 61.4606 28.1983 61.6389 28.1536C60.1547 27.6001 58.916 26.7927 58.3584 26.3486C58.1716 26.1999 58.1408 25.9279 58.2895 25.7411Z" fill="#0E51A0"/>
<path d="M61.6573 23.5162C61.6883 23.5214 61.7227 23.5379 61.7501 23.5638C62.1524 23.9137 62.6812 24.0515 63.2047 23.9389C63.3201 23.9161 63.43 23.9879 63.4537 24.0981C63.4765 24.2135 63.4048 24.3234 63.2945 24.3471C62.6444 24.4859 61.9833 24.315 61.4788 23.8787C61.3913 23.8001 61.3814 23.671 61.4601 23.5835C61.5024 23.5217 61.5808 23.4978 61.6573 23.5162Z" fill="#032663"/>
<path fill-rule="evenodd" clip-rule="evenodd" d="M76.6128 25.7411C76.4641 25.5544 76.1921 25.5235 76.0054 25.6723C75.2991 26.2348 73.3557 27.4546 71.3252 27.7915C71.1148 27.8264 70.9612 28.0097 70.9637 28.223C70.9662 28.4363 71.1239 28.6159 71.3351 28.646C71.8344 28.717 72.6803 28.8787 73.5738 29.1307C74.4732 29.3845 75.3882 29.7209 76.0463 30.1303C76.249 30.2564 76.5156 30.1944 76.6417 29.9916C76.7679 29.7889 76.7058 29.5224 76.503 29.3962C75.7419 28.9227 74.735 28.56 73.8086 28.2986C73.6242 28.2466 73.4417 28.1983 73.2635 28.1536C74.7477 27.6001 75.9864 26.7927 76.544 26.3486C76.7307 26.1999 76.7616 25.9279 76.6128 25.7411Z" fill="#0E51A0"/>
<path d="M73.245 23.5162C73.214 23.5214 73.1797 23.5379 73.1522 23.5638C72.7499 23.9137 72.2212 24.0515 71.6976 23.9389C71.5822 23.9161 71.4723 23.9879 71.4486 24.0981C71.4258 24.2135 71.4976 24.3234 71.6078 24.3471C72.258 24.4859 72.9191 24.315 73.4235 23.8787C73.511 23.8001 73.5209 23.671 73.4423 23.5835C73.3999 23.5217 73.3215 23.4978 73.245 23.5162Z" fill="#032663"/>
<path d="M64.8537 35.5833C64.8097 35.5813 64.7657 35.5793 64.72 35.5678C64.396 35.4932 64.1898 35.1689 64.2597 34.8448C64.6136 33.1942 65.944 32.1273 67.6487 32.125C69.3094 32.1207 70.7789 33.2658 71.1467 34.8383C71.2227 35.166 71.0217 35.4888 70.6961 35.5606C70.3705 35.6324 70.046 35.4263 69.97 35.0986C69.7661 34.2184 68.9069 33.3316 67.6619 33.331C66.5189 33.3321 65.6635 34.0135 65.4288 35.112C65.3706 35.3951 65.1298 35.5835 64.8537 35.5833Z" fill="#0E51A0"/>
<path d="M66.7962 38.6846C62.3536 38.6846 58.1975 38.0203 54.7421 36.7527L54.7177 36.7467L54.6995 36.7284C53.7975 35.7594 53.115 34.5284 52.7189 33.1694C51.7743 29.8908 50.5433 24.7657 50.0801 18.9702C49.8547 16.1487 51.4208 13.6074 53.7305 13.0529C56.8324 12.3094 70.605 10.1277 81.3245 13.0529C83.622 13.6806 85.1882 16.2218 84.9688 18.9702C84.5056 24.7657 83.2807 29.8908 82.33 33.1694C81.9461 34.504 81.2758 35.7168 80.4043 36.6735L80.386 36.6918L80.3616 36.704C76.754 38.0569 72.1773 38.7638 67.4727 38.6907C67.2472 38.6846 67.0217 38.6846 66.7962 38.6846ZM67.4788 38.4591C72.1468 38.5322 76.6808 37.8314 80.2641 36.4968C81.1051 35.5644 81.7511 34.3943 82.1228 33.1024C83.0674 29.836 84.2923 24.723 84.7494 18.9458C84.9627 16.301 83.4635 13.8573 81.2636 13.2601C70.5867 10.3471 56.869 12.5227 53.7793 13.2601C51.5793 13.7902 50.0801 16.234 50.2995 18.9458C50.7627 24.723 51.9815 29.836 52.9261 33.1024C53.31 34.4248 53.9682 35.6192 54.8396 36.5577C58.3925 37.8497 62.8777 38.5322 67.4788 38.4591Z" fill="#10319B"/>
<path d="M51.9992 35.2956C51.7981 34.6983 51.6092 34.0768 51.4264 33.4734C51.0668 32.2912 50.689 31.0724 50.2441 30.0242C49.4763 28.2203 47.7516 27.0807 46.4414 26.447L46.5389 26.252C47.8796 26.904 49.6469 28.0741 50.4452 29.945C50.8962 30.9992 51.274 32.2302 51.6336 33.4125C51.8164 34.0158 52.0053 34.6374 52.2064 35.2285L51.9992 35.2956Z" fill="#10319B"/>
<path d="M85.332 26.3378L88.1536 24.6924C88.1536 24.6924 88.958 16.5873 86.3376 12.9004L85.5819 15.2222C85.5819 15.2222 86.7946 16.9834 85.332 26.3378Z" fill="#F4B821"/>
</g>
</svg>
