<svg width="100" height="93" viewBox="0 0 100 93" fill="none" xmlns="http://www.w3.org/2000/svg">
<rect width="100" height="93" fill="#EEF0F4"/>
<g id="Mobile/Murid/Notif/Aktivitas" clip-path="url(#clip0_1832_371114)">
<rect width="360" height="640" transform="translate(-130 -246)" fill="transparent"/>
<g id="Empty State">
<g id="robot_empty_notif">
<mask id="mask0_1832_371114" style="mask-type:alpha" maskUnits="userSpaceOnUse" x="0" y="-4" width="100" height="100">
<rect id="Rectangle 763" y="-4" width="100" height="100" fill="#D9D9D9"/>
</mask>
<g mask="url(#mask0_1832_371114)">
<g id="Group 39933">
<g id="Group 39943">
<path id="Vector" d="M63.5382 65.2759L66.3823 44.4435C68.1286 31.6524 62.7575 20.0117 51.2281 15.5516L51.6149 12.7184C52.087 9.26025 49.6349 6.08191 46.1768 5.60979C42.7186 5.13766 39.5876 7.55378 39.1155 11.012L38.7287 13.8452C26.3841 15.0459 18.1365 24.7849 16.3846 37.6176L13.5405 58.45L7.39027 63.0853C4.40703 65.3518 5.62595 70.1019 9.33412 70.6082L64.2066 78.0995C67.9148 78.6058 70.4041 74.362 68.1375 71.3787L63.5382 65.2759Z" fill="#FFF7D7"/>
<path id="Vector_2" d="M51.6159 12.7184L51.2291 15.5516L38.7297 13.8451L39.1165 11.0119C39.5886 7.55375 42.7196 5.13763 46.1778 5.60975C49.636 6.08187 52.0881 9.26021 51.6159 12.7184Z" fill="#FFE784"/>
<path id="Vector_3" d="M23.16 11.9321C25.1261 10.5877 25.5375 7.8852 24.0984 5.99108C23.4364 5.12425 22.4636 4.54854 21.3851 4.38547C20.3067 4.22241 19.2071 4.48473 18.3184 5.11709C10.1428 10.7545 4.12374 19.0009 1.24696 28.5059C0.524994 30.9963 2.17039 33.5552 4.7536 33.9078C6.75351 34.1809 8.70252 32.9615 9.30887 31.0071C11.6178 23.2564 16.5045 16.5266 23.16 11.9321ZM73.2743 12.6198C71.8181 10.8507 69.2292 10.5397 67.4298 11.9068C65.5357 13.3459 65.255 16.0238 66.7471 17.8403C71.7744 23.9167 74.8318 31.6765 74.9783 39.9301C74.9969 41.9698 76.5477 43.667 78.5893 43.9457C81.1308 44.2927 83.4436 42.2741 83.3739 39.6757C83.1388 29.585 79.4642 20.1282 73.2743 12.6198Z" fill="#FFE784"/>
<path id="Vector_4" d="M35.0845 86.8558C39.6676 87.4816 43.9294 84.2437 44.5551 79.6605L27.8892 77.3853C27.5874 79.5953 28.176 81.8347 29.5254 83.6107C30.8748 85.3868 32.8744 86.5541 35.0845 86.8558Z" fill="#FFE784"/>
</g>
<g id="Robot">
<mask id="mask1_1832_371114" style="mask-type:alpha" maskUnits="userSpaceOnUse" x="35" y="8" width="77" height="77">
<rect id="Rectangle 705" x="35.625" y="8.00024" width="100" height="100" fill="#D9D9D9"/>
</mask>
<g mask="url(#mask1_1832_371114)">
<g id="Group">
<g id="Group_2">
<path id="Vector_5" d="M92.0515 57.9589C94.2898 51.5189 89.4715 44.8108 82.6562 44.918L80.0158 44.9582C79.9957 44.9582 79.9823 44.9582 79.9622 44.9582L73.3814 45.0654L66.8007 44.9582C66.7805 44.9582 66.7671 44.9582 66.747 44.9582L64.1067 44.918C57.2914 44.8108 52.4731 51.5189 54.7113 57.9589C55.4418 60.0632 56.2258 62.02 57.0434 63.8361C57.4857 64.9016 58.0553 66.0743 58.692 67.2873C61.4663 72.7288 64.3949 76.8301 66.6398 80.1875C66.7269 80.3148 66.8208 80.4421 66.9146 80.5627C68.4023 82.7139 70.8818 83.7392 73.3881 83.7057C75.8877 83.7459 78.374 82.7139 79.8617 80.5627C79.9555 80.4421 80.0493 80.3148 80.1364 80.1875C82.3814 76.8301 85.3099 72.7288 88.0843 67.2873C88.7209 66.0743 89.2905 64.9083 89.7328 63.8361C90.537 62.0133 91.3211 60.0632 92.0515 57.9589Z" fill="#F89E1C"/>
</g>
<g id="Group_3">
<path id="Vector_6" d="M80.5584 71.0201C82.4147 67.4282 78.7356 64.9621 74.6478 67.3277C69.7759 70.1422 66.8943 68.8757 63.6441 63.4878C61.0037 59.105 57.1437 60.2376 55.79 60.8139C56.2122 61.8794 56.6411 62.9114 57.0834 63.8965C57.5257 64.9621 58.0953 66.1348 58.732 67.3478C61.5063 72.7893 64.4348 76.8905 66.6798 80.2479C66.7669 80.3753 66.8607 80.5026 66.9546 80.6232C68.4423 82.7744 70.9218 83.7997 73.4281 83.7662C75.9277 83.8064 78.414 82.7744 79.9017 80.6232C79.9955 80.5026 80.0893 80.3753 80.1764 80.2479C80.9069 79.1489 81.7177 77.9762 82.5621 76.6962C80.6187 76.3812 78.7624 74.4914 80.5584 71.0201Z" fill="#032663"/>
</g>
<g id="Group_4">
<path id="Vector_7" d="M73.2609 83.8803C70.6138 83.8803 68.2147 82.6941 66.8275 80.6837C66.7337 80.5631 66.6399 80.4358 66.5528 80.3017C66.2311 79.8192 65.8893 79.3166 65.5408 78.8006C63.5036 75.7917 60.9772 72.0523 58.5982 67.3881C57.9214 66.1015 57.3651 64.9354 56.943 63.9302C56.494 62.9317 56.0584 61.893 55.6496 60.8476L55.6094 60.7404L55.7166 60.6934C57.2378 60.0434 61.0643 59.0114 63.7181 63.4209C67.042 68.9362 69.8766 69.928 74.5609 67.2206C77.0538 65.7798 79.2452 66.1618 80.3107 67.1804C81.2891 68.1186 81.4165 69.5728 80.6391 71.0739C79.855 72.5951 79.7143 73.9421 80.237 74.9741C80.6592 75.8051 81.5237 76.4015 82.549 76.5691L82.7366 76.5959L82.6294 76.75C82.1536 77.467 81.6912 78.1506 81.2422 78.8073C80.8937 79.3233 80.5587 79.8192 80.237 80.295C80.1499 80.4291 80.0561 80.5564 79.9622 80.677C78.555 82.7142 76.1089 83.9138 73.3949 83.8669C73.348 83.8803 73.3011 83.8803 73.2609 83.8803ZM73.3949 83.639C76.0285 83.6792 78.4008 82.5266 79.7679 80.5497C79.8617 80.4224 79.9555 80.3017 80.036 80.1744C80.3576 79.6919 80.6927 79.196 81.0412 78.68C81.4567 78.0702 81.8788 77.4335 82.3211 76.7768C81.2958 76.5624 80.4447 75.9391 80.0159 75.088C79.6272 74.3174 79.3792 72.9771 80.4246 70.9667L80.5319 71.0203L80.4246 70.9667C81.1484 69.5661 81.0479 68.2191 80.1432 67.3613C79.138 66.403 77.0605 66.0546 74.6815 67.435C69.9102 70.196 66.8811 69.1439 63.5103 63.5549C61.0107 59.4135 57.4456 60.2579 55.9176 60.8811C56.313 61.8863 56.7352 62.8848 57.1641 63.8498C57.5796 64.855 58.1358 66.0077 58.8126 67.2943C61.1849 71.9451 63.7114 75.6778 65.7419 78.68C66.0904 79.196 66.4321 79.6986 66.7538 80.1811C66.8409 80.3084 66.928 80.4291 67.0219 80.5564C68.3889 82.5266 70.7746 83.6859 73.3949 83.639Z" fill="#10319B"/>
</g>
<g id="Group_5">
<path id="Vector_8" d="M49.4778 50.2795C48.5195 52.9466 46.7302 59.4135 48.2916 67.3747C48.4458 68.1521 49.451 68.3732 49.9201 67.7366L50.2887 67.2407C54.0079 62.2012 54.2023 55.3792 50.7779 50.132C50.4495 49.6227 49.6855 49.7098 49.4778 50.2795Z" fill="#F5851F"/>
</g>
<g id="Group_6">
<path id="Vector_9" d="M73.5089 83.88C73.462 83.88 73.4218 83.88 73.3748 83.88C70.6809 83.9203 68.2148 82.7274 66.8075 80.6835C66.7137 80.5629 66.6198 80.4355 66.5327 80.3015C66.2111 79.819 65.8693 79.3164 65.5208 78.8004C63.4836 75.7915 60.9572 72.0521 58.5782 67.3879C57.9013 66.1012 57.3451 64.9352 56.9229 63.93C56.0651 62.0067 55.2811 60.0298 54.5908 58.0462C53.5052 54.93 53.9944 51.6061 55.9244 48.939C57.8477 46.2852 60.8231 44.7975 64.1068 44.8444L66.7405 44.8846H66.7941L73.3748 44.9918L79.9556 44.8846H79.9891L82.6496 44.8444C85.9333 44.7908 88.9087 46.2852 90.832 48.939C92.762 51.6061 93.2512 54.93 92.1656 58.0462C91.4753 60.0298 90.6912 62.0134 89.8335 63.9367C89.418 64.9419 88.8618 66.1079 88.1782 67.3946C85.7992 72.0521 83.2661 75.7982 81.2356 78.8071C80.8871 79.3231 80.5453 79.8257 80.2237 80.3082C80.1366 80.4422 80.0427 80.5696 79.9489 80.6902C78.5617 82.6939 76.1626 83.88 73.5089 83.88ZM73.3748 83.6388C76.0085 83.679 78.3808 82.5264 79.7479 80.5495C79.8417 80.4221 79.9355 80.3015 80.0159 80.1742C80.3376 79.6917 80.6794 79.1891 81.0278 78.6731C83.0584 75.6708 85.5848 71.9315 87.9571 67.2874C88.6339 66.0074 89.1834 64.8481 89.6056 63.8496C90.4634 61.933 91.2475 59.9561 91.931 57.9791C92.9898 54.9367 92.514 51.6932 90.6309 49.0931C88.7545 46.5064 85.8394 45.0522 82.6496 45.0991L80.0159 45.1393H79.9824L73.3815 45.2465L66.7941 45.1393H66.7405L64.1001 45.0991C60.9102 45.0522 57.9951 46.5064 56.1187 49.0931C54.2357 51.6999 53.7599 54.9367 54.8187 57.9791C55.5022 59.9561 56.2863 61.933 57.1441 63.8496C57.5595 64.8548 58.1158 66.0074 58.7926 67.2941C61.1649 71.9449 63.6913 75.6775 65.7218 78.6798C66.0703 79.1958 66.4121 79.6984 66.7338 80.1809C66.8209 80.3082 66.908 80.4288 67.0018 80.5562C68.3756 82.5264 70.7613 83.6857 73.3748 83.6388Z" fill="#10319B"/>
</g>
<g id="Group_7">
<path id="Vector_10" d="M88.8883 48.4833C87.1929 47.0157 85.035 46.1311 82.6225 46.178L79.9755 46.225C79.9554 46.225 79.9419 46.225 79.9218 46.225L73.3076 46.3389L66.6933 46.225C66.6732 46.225 66.6598 46.225 66.6397 46.225L63.9926 46.178C60.3203 46.1177 58.3232 48.7581 56.5943 51.7804C56.2056 52.464 56.5876 53.3485 57.3314 53.496C63.5972 54.7357 77.8511 56.1229 88.8883 48.4833Z" fill="#E26907"/>
</g>
<g id="Group_8">
<g id="Group_9">
<path id="Vector_11" d="M71.6592 66.1618C71.0293 66.1618 70.3927 66.0076 69.8097 65.6927C68.5699 65.0225 67.8059 63.7828 67.759 62.3755L67.5178 54.307C67.4776 52.8997 68.1678 51.613 69.3674 50.8759C70.5669 50.132 72.0211 50.0918 73.2609 50.762L80.4247 54.6153C81.6242 55.2586 82.3815 56.4515 82.4552 57.8118C82.5289 59.1722 81.899 60.4388 80.7798 61.2027C80.7463 61.2296 80.7061 61.2497 80.6726 61.2765L80.6257 61.3033L73.7099 65.5788C73.0732 65.9607 72.3629 66.1618 71.6592 66.1618ZM71.4113 50.7687C70.7948 50.7687 70.1715 50.9429 69.6153 51.2847C68.5632 51.9347 67.9601 53.0606 68.0003 54.2936L68.2415 62.3621C68.2817 63.5951 68.9519 64.6808 70.0375 65.2638C71.1231 65.8468 72.4031 65.8133 73.4485 65.1633L80.4113 60.861C80.4448 60.8409 80.4783 60.8208 80.5051 60.8007C81.4835 60.1305 82.033 59.0248 81.966 57.8319C81.9057 56.6458 81.2422 55.6004 80.1901 55.0375L73.0263 51.1842C72.517 50.9027 71.9608 50.7687 71.4113 50.7687Z" fill="#F89E1C"/>
</g>
</g>
<g id="Group_10">
<g id="Group_11">
<path id="Vector_12" d="M71.6256 66.2219C71.0024 66.2219 70.3725 66.0678 69.7894 65.7528C68.5564 65.0894 67.7991 63.863 67.7589 62.4624L67.511 54.1929C67.4707 52.799 68.1543 51.5258 69.3404 50.7886C70.5266 50.0515 71.9741 50.0112 73.2071 50.6747L80.5452 54.6285C81.7313 55.2651 82.4819 56.4513 82.5556 57.7983C82.6293 59.1452 82.0061 60.4051 80.9003 61.1624C80.8668 61.1892 80.8266 61.2093 80.7931 61.2361L80.7462 61.2629L73.6561 65.6456C73.0262 66.0276 72.3293 66.2219 71.6256 66.2219ZM71.371 50.4535C70.7142 50.4535 70.0575 50.6345 69.4678 51.0031C68.3553 51.6933 67.712 52.8861 67.7522 54.1929L68.0002 62.4624C68.0404 63.7692 68.7507 64.9219 69.9034 65.5451C71.056 66.1683 72.4097 66.1281 73.5288 65.4379L80.6591 61.0283C80.6926 61.0082 80.7261 60.9814 80.7596 60.9613C81.7983 60.251 82.3814 59.0782 82.3143 57.8117C82.2473 56.5518 81.5437 55.4394 80.4312 54.843L73.0932 50.8891C72.5504 50.601 71.9607 50.4535 71.371 50.4535Z" fill="#10319B"/>
</g>
</g>
<g id="Group_12">
<path id="Vector_13" d="M50.7779 50.1315C50.4495 49.6289 49.6855 49.716 49.4778 50.2789C48.6334 52.6244 47.1457 57.9118 47.8695 64.5663C47.9834 58.6355 50.4361 52.9594 51.3408 51.063C51.1598 50.748 50.9789 50.433 50.7779 50.1315Z" fill="#F89E1C"/>
</g>
<g id="Group_13">
<g id="Group_14">
<path id="Vector_14" d="M48.1442 63.4814C47.8493 63.4814 47.6684 63.4278 47.6416 63.4211L47.7823 62.9587L47.7086 63.1866L47.7756 62.952C47.8024 62.9587 50.7041 63.5887 53.0965 57.3162L53.2239 58.2611C51.2738 63.2 49.1427 63.4814 48.1442 63.4814Z" fill="#F89E1C"/>
</g>
</g>
<g id="Group_15">
<path id="Vector_15" d="M47.9697 65.4718C47.9697 65.4718 50.5029 66.7182 52.4463 62.8381C52.4463 62.8381 50.8379 67.6564 49.1224 68.0451C49.1224 68.0451 48.0099 68.2931 47.9697 65.4718Z" fill="#032663"/>
</g>
<g id="Group_16">
<path id="Vector_16" d="M49.1961 68.2258C49.1157 68.2258 49.042 68.2191 48.9616 68.199C48.5595 68.1052 48.2579 67.8036 48.1775 67.3948C46.5893 59.3063 48.4791 52.6987 49.3637 50.2393C49.4709 49.9377 49.7389 49.7233 50.0606 49.6831C50.3823 49.6428 50.6972 49.7903 50.8715 50.065C54.3093 55.3256 54.1082 62.2549 50.3756 67.3077L50.007 67.8036C49.8194 68.0717 49.5178 68.2258 49.1961 68.2258ZM50.1678 49.9176C50.141 49.9176 50.1209 49.9176 50.0941 49.9243C49.8596 49.9511 49.6719 50.0985 49.5915 50.3197C48.7136 52.7657 46.8372 59.3197 48.4121 67.3479C48.4724 67.6562 48.7002 67.8907 49.0152 67.9645C49.3234 68.0315 49.6384 67.9176 49.8261 67.6629L50.1946 67.167C53.867 62.1946 54.0613 55.3725 50.6771 50.1991C50.5632 50.0181 50.3756 49.9176 50.1678 49.9176Z" fill="#10319B"/>
</g>
<g id="Group_17">
<path id="Vector_17" d="M48.8813 65.7325C48.3117 65.7325 47.9364 65.585 47.9297 65.5783L48.0235 65.3572C48.124 65.3974 50.57 66.3624 52.4129 62.804L52.6274 62.9179C51.3943 65.2902 49.853 65.7325 48.8813 65.7325Z" fill="#10319B"/>
</g>
<g id="Group_18">
<path id="Vector_18" d="M48.2446 63.6157C47.9564 63.6157 47.7822 63.5621 47.7554 63.5554L47.8291 63.3275C47.8559 63.3342 50.6571 64.1317 53.1232 58.2144L53.3443 58.3082C51.3741 63.0327 49.1962 63.6157 48.2446 63.6157Z" fill="#10319B"/>
</g>
<g id="Group_19">
<path id="Vector_19" d="M97.5803 50.2795C98.5386 52.9466 100.328 59.4135 98.7665 67.3747C98.6123 68.1521 97.6071 68.3732 97.138 67.7366L96.7695 67.2407C93.0502 62.2012 92.8558 55.3792 96.2803 50.132C96.6086 49.6227 97.3726 49.7098 97.5803 50.2795Z" fill="#F89E1C"/>
</g>
<g id="Group_20">
<path id="Vector_20" d="M96.937 51.0702C96.9303 51.0836 96.9236 51.0903 96.9169 51.1037C95.7441 53.1007 95.9787 55.6405 97.4664 57.4097C97.9556 57.9927 98.552 58.5221 99.2557 58.8706C99.249 55.2451 98.3175 52.4439 97.7747 51.1305C97.6272 50.7753 97.1313 50.7418 96.937 51.0702Z" fill="#F4B821"/>
</g>
<g id="Group_21">
<path id="Vector_21" d="M94.4575 54.2468C93.2445 58.6295 94.0286 63.4411 96.7695 67.2408L97.1246 67.7367C97.1648 67.7971 97.2185 67.844 97.2721 67.8909L98.4917 67.8239C98.6056 67.7032 98.6861 67.5558 98.7196 67.3749C98.8737 66.5707 98.9943 65.7866 99.0881 65.016C95.255 63.3741 94.5647 57.2558 94.4575 54.2468Z" fill="#F5851F"/>
</g>
<g id="Group_22">
<g id="Group_23">
<path id="Vector_22" d="M98.8604 63.4944C97.8485 63.4944 95.6773 62.8644 93.7808 58.0528L93.9416 57.2419C96.3608 63.8897 99.2424 62.9716 99.2692 62.9649L99.43 63.4206C99.3965 63.4273 99.1955 63.4944 98.8604 63.4944Z" fill="#F89E1C"/>
</g>
</g>
<g id="Group_24">
<path id="Vector_23" d="M99.0879 65.4718C99.0879 65.4718 96.5547 66.7182 94.6113 62.8381C94.6113 62.8381 96.2197 67.6564 97.9352 68.0451C97.9352 68.0451 99.0477 68.2931 99.0879 65.4718Z" fill="#032663"/>
</g>
<g id="Group_25">
<path id="Vector_24" d="M97.8615 68.2259C97.5398 68.2259 97.2383 68.0784 97.0372 67.8037L96.6686 67.3078C92.936 62.2549 92.7416 55.3257 96.1727 50.0651C96.3537 49.7903 96.6619 49.6496 96.9836 49.6831C97.3053 49.7233 97.5733 49.931 97.6805 50.2393C98.5651 52.7054 100.462 59.313 98.8667 67.3949C98.7863 67.797 98.4847 68.1052 98.0826 68.199C98.0156 68.2192 97.9419 68.2259 97.8615 68.2259ZM96.8898 49.9176C96.682 49.9176 96.5011 50.0182 96.3805 50.1924C92.9963 55.3659 93.1906 62.1879 96.863 67.1603L97.2316 67.6562C97.4192 67.9109 97.7342 68.0248 98.0424 67.9578C98.3507 67.8908 98.5785 67.6562 98.6455 67.3413C100.227 59.313 98.344 52.759 97.4661 50.313C97.3857 50.0919 97.198 49.9444 96.9635 49.9176C96.9367 49.9176 96.9166 49.9176 96.8898 49.9176Z" fill="#10319B"/>
</g>
<g id="Group_26">
<path id="Vector_25" d="M98.1767 65.7328C97.205 65.7328 95.6637 65.2905 94.4307 62.9115L94.6451 62.7976C96.488 66.3628 98.934 65.3978 99.0345 65.3508L99.1283 65.572C99.1216 65.5854 98.7464 65.7328 98.1767 65.7328Z" fill="#10319B"/>
</g>
<g id="Group_27">
<path id="Vector_26" d="M98.8131 63.6157C97.8615 63.6157 95.6836 63.0327 93.7134 58.3082L93.9345 58.2144C96.414 64.1518 99.2018 63.3342 99.2286 63.3275L99.3023 63.5554C99.2755 63.5621 99.1013 63.6157 98.8131 63.6157Z" fill="#10319B"/>
</g>
<g id="Group_28">
<g id="Group_29">
<path id="Vector_27" d="M72.1079 64.3056C71.6254 64.3056 71.1429 64.185 70.6939 63.9437C69.7423 63.4344 69.1593 62.4895 69.1258 61.4106L68.9449 55.3659C68.9114 54.287 69.4408 53.3086 70.3589 52.7457C71.2769 52.1761 72.3894 52.1492 73.3343 52.6586L78.6954 55.5469C79.6135 56.0428 80.1898 56.9542 80.2434 57.9929C80.297 59.0316 79.8212 60.0033 78.9634 60.5863C78.9366 60.6064 78.9098 60.6198 78.883 60.6399L78.8495 60.66L73.6693 63.8633C73.1868 64.1515 72.6507 64.3056 72.1079 64.3056ZM71.9203 52.7792C71.4646 52.7792 71.0156 52.9065 70.6068 53.1545C69.8428 53.6303 69.4006 54.4478 69.4274 55.3525L69.6083 61.3972C69.6351 62.3019 70.1243 63.0926 70.9218 63.5215C71.7125 63.9504 72.6507 63.9236 73.4147 63.4478L78.6217 60.2244C78.6485 60.211 78.6686 60.1909 78.6887 60.1775C79.4057 59.6883 79.8011 58.8775 79.7542 58.013C79.7073 57.1485 79.2248 56.3845 78.4608 55.969L73.0997 53.0807C72.7311 52.8797 72.3291 52.7792 71.9203 52.7792Z" fill="#F89E1C"/>
</g>
</g>
<g id="Group_30">
<g id="Group_31">
<path id="Vector_28" d="M78.7022 60.378C78.729 60.3646 78.7558 60.3445 78.7759 60.3311C80.4044 59.2187 80.2904 56.7593 78.5347 55.8144L73.2942 52.9864C71.4781 52.008 69.2934 53.3617 69.3538 55.4257L69.528 61.3296C69.5883 63.3869 71.8601 64.6066 73.6091 63.5277L78.6754 60.3981C78.6821 60.3914 78.6955 60.3847 78.7022 60.378Z" fill="#032663"/>
</g>
</g>
<g id="Group_32">
<g id="Group_33">
<path id="Vector_29" d="M76.5108 59.467C76.5242 59.4603 76.5376 59.4469 76.551 59.4402C77.4691 58.817 77.4021 57.4298 76.4103 56.8937L73.455 55.3054C72.4296 54.7559 71.1966 55.5199 71.2368 56.6792L71.3373 60.0098C71.3708 61.1692 72.6508 61.8594 73.6359 61.2496L76.4907 59.4871C76.4974 59.4804 76.5041 59.4737 76.5108 59.467Z" fill="#33FCFE"/>
</g>
</g>
<g id="Group_34">
<path id="Vector_30" d="M89.9002 50.7556C89.0826 51.6871 84.3179 54.0527 84.3179 54.0527C84.3179 54.0527 85.9531 55.2791 85.9799 57.8725C86 59.8092 84.1705 61.5449 84.1705 61.5449C85.819 63.2269 85.1958 66.1956 83.9761 68.4473C82.7565 70.699 83.8354 71.3557 83.8354 71.3557C83.8354 71.3557 90.9657 60.7005 91.5889 54.7161C91.8436 52.2835 89.9002 50.7556 89.9002 50.7556Z" fill="#F4B821"/>
</g>
<g id="Group_35">
<path id="Vector_31" d="M57.6865 62.0272C57.6865 62.0272 59.5361 61.7189 60.5279 62.9721C61.5197 64.2252 67.417 75.3428 70.1645 79.3168C70.6604 80.0338 71.9337 82.4932 73.3477 82.004C73.3477 82.004 71.3775 83.1232 68.4758 80.2014C65.5808 77.2728 59.3887 65.5521 57.6865 62.0272Z" fill="#0E51A0"/>
</g>
<g id="Group 39846">
<path id="Vector_32" d="M54.5862 15.5766C55.9298 14.6293 57.5355 13.8231 59.3091 13.1513L59.1949 13.1782C59.1949 13.1782 64.8919 10.0273 73.3904 10.0273C81.862 10.0273 87.6262 13.0841 87.6598 13.1043C89.4871 13.7828 91.1264 14.6024 92.5036 15.5698C99.1344 20.239 98.5903 30.2692 95.6813 39.7217C93.5785 46.6011 83.5617 49.7318 73.5516 49.5772C63.5415 49.7318 53.5247 46.6011 51.4085 39.7217C48.4995 30.2759 47.9554 20.2457 54.5862 15.5766Z" fill="#F89E1C"/>
<path id="Vector_33" d="M54.586 15.6094C55.2914 15.1123 56.0707 14.6554 56.9038 14.2322C50.4073 18.9551 50.9582 28.9315 53.847 38.337C55.9632 45.2298 65.9733 48.3605 75.9901 48.2127C81.6804 48.3 87.3707 47.3192 91.6166 45.1962C87.2968 48.3404 80.4241 49.7915 73.5447 49.684C63.5346 49.8385 53.5178 46.7011 51.4016 39.8083C48.4993 30.3424 47.9552 20.292 54.586 15.6094Z" fill="#F5851F"/>
<path id="Vector_34" d="M57.6831 24.0208C53.6186 23.1743 53.3499 16.6979 53.3364 16.4158L53.8201 16.4023C53.8201 16.4628 54.0889 22.7779 57.7771 23.5438L57.6831 24.0208Z" fill="#F89E1C"/>
<path id="Vector_35" d="M88.5396 24.2692L88.4053 23.8057C92.4496 22.63 92.6848 16.0596 92.6848 15.9924L93.1685 16.0059C93.1617 16.288 92.9199 22.9995 88.5396 24.2692Z" fill="#F4B821"/>
<path id="Vector_36" d="M73.6929 15.7844C71.4154 15.7844 69.2992 15.0387 68.063 13.7824C68.0227 13.7421 67.9824 13.7018 67.9421 13.6547L65.7251 11.1556L66.2693 10.6719L68.4863 13.1643C68.5131 13.1979 68.5467 13.2315 68.5803 13.2651C69.7829 14.4878 71.9461 15.1596 74.237 15.0387C76.4607 14.9178 78.3956 14.0713 79.41 12.7881L80.9955 10.7726L81.5666 11.2228L79.9811 13.2382C78.8457 14.6893 76.7093 15.6299 74.2773 15.7643C74.0758 15.7777 73.8877 15.7844 73.6929 15.7844Z" fill="#F4B821"/>
<path id="Vector_37" d="M73.6795 18.4112C70.6631 18.4112 67.9288 17.3968 66.1888 15.6232C66.1283 15.5627 66.0611 15.4955 66.0007 15.4283L65.9335 15.3544L62.8901 11.9349L63.4343 11.4512L66.5381 14.9446C66.5919 15.0051 66.6456 15.0656 66.7061 15.1193C68.3117 16.7451 70.8579 17.6856 73.6795 17.6856C73.9079 17.6856 74.1431 17.6789 74.3782 17.6655C77.388 17.4975 79.9745 16.3151 81.4659 14.4139L83.7299 11.5318L84.301 11.9819L82.0369 14.864C80.4179 16.9265 77.6365 18.2097 74.4185 18.391C74.1767 18.4045 73.9281 18.4112 73.6795 18.4112Z" fill="#F4B821"/>
<path id="Vector_38" d="M92.1275 17.3434C90.7503 16.3693 89.1111 15.5362 87.2837 14.8577C87.2434 14.8376 81.4658 11.3172 72.9942 11.3172C67.4181 11.3105 62.5474 12.2443 59.8467 12.8826C61.5598 12.0764 66.5716 10.0273 73.3972 10.0273C81.8689 10.0273 87.6331 13.111 87.6667 13.1311C89.494 13.8164 91.1332 14.6427 92.5105 15.6169C98.4225 19.8157 98.6307 28.3142 96.5414 36.8597C98.194 28.9189 97.6431 21.2601 92.1275 17.3434Z" fill="#F4B821"/>
<path id="Vector_39" d="M88.9362 23.9403L88.8892 23.7052C92.6782 22.9192 93.088 16.1741 93.0947 16.1069L93.3366 16.1204C93.3164 16.4025 92.9066 23.114 88.9362 23.9403Z" fill="#10319B"/>
<path id="Vector_40" d="M81.748 14.6154L84.012 11.7333C83.2193 11.478 82.2989 11.216 81.271 10.9742L79.6855 12.9896C78.6106 14.3601 76.575 15.2469 74.2505 15.3813C71.8589 15.5157 69.5881 14.7968 68.3184 13.5002C68.2781 13.4599 68.2445 13.4263 68.2109 13.386L65.9939 10.8936C64.9391 11.1287 63.9919 11.3974 63.1655 11.6594L66.2089 15.079L66.276 15.1529C66.3365 15.2133 66.3903 15.2805 66.4507 15.341C68.1235 17.0407 70.7839 18.0148 73.6795 18.0148C73.9146 18.0148 74.1565 18.0081 74.3983 17.9947C77.5088 17.8334 80.1894 16.5973 81.748 14.6154Z" fill="#032663"/>
<path id="Vector_41" d="M58.0796 23.9405C54.1092 23.1142 53.6725 16.4699 53.6523 16.1878L53.8942 16.1743C53.9009 16.2415 54.3376 22.9194 58.1266 23.7054L58.0796 23.9405Z" fill="#10319B"/>
<path id="Vector_42" d="M73.4978 49.4892C68.5465 49.5631 63.602 48.8779 59.5039 47.373C58.5499 46.3518 57.7907 45.0351 57.3474 43.5033C56.212 39.5732 54.9355 34.0777 54.4451 27.9037C54.2032 24.8671 55.9164 22.1126 58.3752 21.5214C61.7276 20.7153 66.9006 19.7814 73.041 19.6874V19.6807C73.2157 19.6807 73.3836 19.6874 73.5583 19.6874C73.733 19.6874 73.9009 19.6807 74.0756 19.6807V19.6874C80.216 19.7814 85.2681 20.5607 88.6205 21.3669C91.0793 21.9581 92.9134 24.8671 92.6715 27.9037C92.1811 34.0777 90.9046 39.5732 89.7693 43.5033C89.3326 45.0015 88.6003 46.2914 87.6732 47.3125C83.5281 48.8577 78.5096 49.5631 73.4978 49.4892Z" fill="#032663"/>
<path id="Vector_43" d="M90.5957 45.7811L89.6216 46.3118C89.803 45.7744 90.1053 44.8674 90.3068 44.2292C90.8443 42.5497 91.4556 40.6417 91.9998 39.3652C92.8799 37.3028 95.3253 35.7442 96.931 34.9648L96.6555 36.0196C95.1574 36.7519 93.4577 37.7932 92.6649 39.6541C92.1342 40.9037 91.5295 42.7915 90.9921 44.4576C90.7973 45.0891 90.7771 45.2437 90.5957 45.7811Z" fill="#F4B821"/>
<path id="Vector_44" d="M56.8032 45.9359C56.7495 45.9359 56.7025 45.9023 56.689 45.8553C56.5278 45.3783 56.3598 44.8543 56.1852 44.3236C55.6611 42.7045 55.0632 40.8637 54.5056 39.5537C53.6927 37.6524 51.946 36.5977 50.3404 35.8116C50.2799 35.7848 50.253 35.7109 50.2866 35.6504C50.3135 35.5899 50.3874 35.5631 50.4478 35.5967C52.0938 36.3961 53.8875 37.4845 54.734 39.4596C55.2984 40.7831 55.8963 42.6239 56.4203 44.2497C56.595 44.7804 56.7629 45.2977 56.9174 45.7814C56.9376 45.8419 56.904 45.9158 56.8435 45.9359C56.8301 45.9359 56.8167 45.9359 56.8032 45.9359Z" fill="#F89E1C"/>
<path id="Vector_45" d="M96.736 35.9861C96.4472 37.2357 96.1112 38.492 95.7283 39.7348C94.9423 42.3012 93.0813 44.3435 90.5352 45.9021C91.1935 43.9337 91.7444 41.7368 92.4834 39.9968C93.3635 37.9478 95.3185 36.6713 96.736 35.9861Z" fill="#032663"/>
<path id="Vector_46" d="M95.0098 39.8897C95.2785 39.1641 95.5271 38.4386 95.7622 37.7063C95.0098 38.19 94.2372 38.8887 93.7669 39.8628C93.263 40.8974 92.8196 42.1739 92.3628 43.3899C93.5586 42.4695 94.479 41.3072 95.0098 39.8897Z" fill="#0E51A0"/>
<path id="Vector_47" d="M90.6898 45.8887L90.4614 45.8148C90.6898 45.1362 90.9048 44.4174 91.1131 43.7254C91.5095 42.4086 91.926 41.0516 92.4097 39.9028C93.2831 37.847 95.238 36.5571 96.716 35.8315L96.8235 36.0465C95.3791 36.7519 93.4846 38.0015 92.6314 39.9901C92.1477 41.1255 91.7379 42.4758 91.3415 43.7859C91.1332 44.4913 90.9183 45.2101 90.6898 45.8887Z" fill="#10319B"/>
<path id="Vector_48" d="M50.3403 35.9861C50.6292 37.2357 50.9651 38.492 51.3481 39.7348C52.1341 42.3012 53.995 44.3435 56.5412 45.9021C55.8828 43.9337 55.3319 41.7368 54.5929 39.9968C53.7196 37.9478 51.7579 36.6713 50.3403 35.9861Z" fill="#032663"/>
<path id="Vector_49" d="M74.2099 49.6848C73.9882 49.6848 73.7665 49.6848 73.5516 49.6781C64.7306 49.8125 53.6187 47.2931 51.2942 39.7486C49.2116 32.9901 46.867 20.8571 54.519 15.4691L54.5861 15.5699L54.519 15.4691C55.8559 14.5286 59.1008 13.0976 59.2418 13.0372C59.2889 13.0103 64.9657 9.90649 73.397 9.90649C81.8552 9.90649 87.6664 12.9633 87.7269 12.9969C89.6013 13.6888 91.2405 14.5219 92.5841 15.4691C100.236 20.8571 97.8915 32.9901 95.8089 39.7419C93.5381 47.105 82.91 49.6848 74.2099 49.6848ZM73.5448 49.4362C73.7598 49.4362 73.9815 49.443 74.2032 49.443C82.8226 49.443 93.3433 46.9102 95.5737 39.6747C97.6362 32.9834 99.9674 20.9713 92.4431 15.6707C91.1129 14.7369 89.4938 13.9105 87.6261 13.2186C87.5522 13.1782 81.788 10.1551 73.397 10.1551C65.0329 10.1551 59.4031 13.2253 59.3493 13.2589C59.309 13.279 55.9835 14.7436 54.66 15.6707C47.129 20.9646 49.4669 32.9834 51.5227 39.6747C53.8068 47.0916 64.8179 49.5706 73.5448 49.4362Z" fill="#10319B"/>
<path id="Vector_50" d="M73.5517 48.4281C69.3058 48.4886 65.0666 47.9578 61.4522 46.7956C60.8946 46.6142 60.3908 46.2783 60.0414 45.808C59.4435 45.0153 58.9732 44.0814 58.6575 43.0401C57.6094 39.5064 56.4338 34.5551 55.9836 28.9991C55.7619 26.2648 57.3407 23.7858 59.6047 23.2551C62.6951 22.5295 67.465 21.6898 73.1284 21.6024V21.5957C73.2897 21.5957 73.4442 21.5957 73.6054 21.6024C73.7666 21.6024 73.9212 21.5957 74.0824 21.5957V21.6024C79.7458 21.6898 84.509 22.5295 87.6061 23.2551C89.8768 23.7858 91.4489 26.2648 91.2272 28.9991C90.7703 34.5551 89.6014 39.5064 88.5533 43.0401C88.2443 44.0747 87.7808 44.9951 87.1896 45.7811C86.8537 46.2313 86.3834 46.5537 85.8526 46.7284C82.1845 47.9444 77.8714 48.4953 73.5517 48.4281Z" fill="#FCE8CA"/>
<g id="Group 39926">
<path id="Vector 6 (Stroke)" fill-rule="evenodd" clip-rule="evenodd" d="M63.3695 35.2752C63.5334 35.0693 63.8332 35.0353 64.0391 35.1992C64.8178 35.8193 66.9602 37.1642 69.1986 37.5355C69.4306 37.574 69.5998 37.776 69.5971 38.0112C69.5944 38.2464 69.4205 38.4444 69.1877 38.4775C68.6373 38.5558 67.7047 38.734 66.7197 39.0119C65.7282 39.2916 64.7195 39.6624 63.994 40.1138C63.7705 40.2529 63.4767 40.1844 63.3376 39.961C63.1986 39.7375 63.267 39.4436 63.4905 39.3046C64.3296 38.7825 65.4396 38.3827 66.4609 38.0946C66.6642 38.0372 66.8653 37.9839 67.0618 37.9347C65.4256 37.3245 64.0601 36.4344 63.4454 35.9448C63.2395 35.7809 63.2055 35.481 63.3695 35.2752Z" fill="#0E51A0"/>
<path id="Vector_51" d="M67.0831 32.822C67.1173 32.8278 67.1551 32.846 67.1854 32.8746C67.629 33.2603 68.2118 33.4122 68.789 33.288C68.9162 33.2629 69.0373 33.342 69.0635 33.4635C69.0887 33.5907 69.0095 33.7119 68.888 33.738C68.1713 33.8911 67.4424 33.7026 66.8863 33.2217C66.7899 33.135 66.779 32.9927 66.8657 32.8962C66.9124 32.8281 66.9988 32.8018 67.0831 32.822Z" fill="#032663"/>
<path id="Vector 6 (Stroke)_2" fill-rule="evenodd" clip-rule="evenodd" d="M83.569 35.2752C83.4051 35.0693 83.1052 35.0353 82.8993 35.1992C82.1207 35.8193 79.9783 37.1642 77.7399 37.5355C77.5079 37.574 77.3386 37.776 77.3414 38.0112C77.3441 38.2464 77.518 38.4444 77.7508 38.4775C78.3012 38.5558 79.2337 38.734 80.2188 39.0119C81.2103 39.2916 82.2189 39.6624 82.9445 40.1138C83.1679 40.2529 83.4618 40.1844 83.6009 39.961C83.7399 39.7375 83.6715 39.4436 83.448 39.3046C82.6089 38.7825 81.4988 38.3827 80.4776 38.0946C80.2743 38.0372 80.0732 37.9839 79.8766 37.9347C81.5128 37.3245 82.8784 36.4344 83.4931 35.9448C83.699 35.7809 83.733 35.481 83.569 35.2752Z" fill="#0E51A0"/>
<path id="Vector_52" d="M79.8553 32.822C79.8212 32.8278 79.7833 32.846 79.7531 32.8746C79.3095 33.2603 78.7266 33.4122 78.1495 33.288C78.0223 33.2629 77.9011 33.342 77.875 33.4635C77.8498 33.5907 77.929 33.7119 78.0505 33.738C78.7672 33.8911 79.496 33.7026 80.0521 33.2217C80.1486 33.135 80.1595 32.9927 80.0728 32.8962C80.0261 32.8281 79.9397 32.8018 79.8553 32.822Z" fill="#032663"/>
<path id="Vector_53" d="M70.6073 46.1252C70.5588 46.123 70.5104 46.1208 70.4599 46.1082C70.1027 46.0259 69.8754 45.6684 69.9525 45.311C70.3426 43.4914 71.8093 42.3153 73.6885 42.3128C75.5193 42.308 77.1393 43.5704 77.5448 45.3039C77.6286 45.6652 77.407 46.021 77.0481 46.1002C76.6891 46.1794 76.3314 45.9522 76.2476 45.5909C76.0228 44.6206 75.0756 43.6429 73.7031 43.6423C72.4431 43.6434 71.5 44.3946 71.2414 45.6056C71.1771 45.9177 70.9117 46.1255 70.6073 46.1252Z" fill="#0E51A0"/>
</g>
<path id="Vector_54" d="M72.7457 49.5433C67.8481 49.5433 63.2663 48.811 59.4571 47.4136L59.4302 47.4069L59.4101 47.3867C58.4158 46.3185 57.6634 44.9615 57.2267 43.4633C56.1854 39.8489 54.8283 34.199 54.3177 27.81C54.0691 24.6995 55.7957 21.898 58.3419 21.2866C61.7614 20.467 76.9445 18.0619 88.7618 21.2866C91.2945 21.9786 93.0211 24.7801 92.7793 27.81C92.2687 34.199 90.9183 39.8489 89.8703 43.4633C89.447 44.9346 88.708 46.2715 87.7473 47.3263L87.7272 47.3464L87.7003 47.3599C83.7232 48.8513 78.6778 49.6306 73.4914 49.55C73.2428 49.5433 72.9942 49.5433 72.7457 49.5433ZM73.4981 49.2947C78.6442 49.3753 83.6425 48.6027 87.5928 47.1314C88.5199 46.1036 89.2321 44.8137 89.6419 43.3894C90.6832 39.7885 92.0335 34.1519 92.5374 27.7831C92.7725 24.8674 91.1199 22.1734 88.6946 21.515C76.9244 18.3037 61.8018 20.7021 58.3956 21.515C55.9704 22.0995 54.3177 24.7935 54.5596 27.7831C55.0701 34.1519 56.4138 39.7885 57.4551 43.3894C57.8783 44.8473 58.6039 46.164 59.5646 47.1986C63.4813 48.6229 68.4259 49.3753 73.4981 49.2947Z" fill="#10319B"/>
<path id="Vector_55" d="M56.4336 45.8082C56.2119 45.1498 56.0037 44.4645 55.8021 43.7994C55.4057 42.4961 54.9892 41.1525 54.4988 39.9969C53.6523 38.0083 51.751 36.752 50.3066 36.0534L50.4141 35.8384C51.8921 36.5572 53.8404 37.8471 54.7205 39.9096C55.2176 41.0718 55.6342 42.4289 56.0305 43.7322C56.2321 44.3973 56.4403 45.0826 56.662 45.7343L56.4336 45.8082Z" fill="#10319B"/>
<path id="Vector_56" d="M93.1821 35.932L96.2926 34.1181C96.2926 34.1181 97.1794 25.1829 94.2906 21.1184L93.4576 23.678C93.4576 23.678 94.7945 25.6196 93.1821 35.932Z" fill="#F4B821"/>
</g>
</g>
</g>
</g>
</g>
</g>
</g>
</g>
</g>
<defs>
<clipPath id="clip0_1832_371114">
<rect width="360" height="640" fill="white" transform="translate(-130 -246)"/>
</clipPath>
</defs>
</svg>
