<svg width="80" height="80" viewBox="0 0 80 80" fill="none" xmlns="http://www.w3.org/2000/svg">
<mask id="mask0_908_11138" style="mask-type:alpha" maskUnits="userSpaceOnUse" x="0" y="0" width="80" height="80">
<rect width="80" height="80" fill="#D9D9D9"/>
</mask>
<g mask="url(#mask0_908_11138)">
<path d="M59.7235 52.3199C62.0742 45.5563 57.0139 38.5113 49.8562 38.6239L47.0833 38.6661C47.0622 38.6661 47.0481 38.6661 47.027 38.6661L40.1156 38.7787L33.2043 38.6661C33.1832 38.6661 33.1691 38.6661 33.148 38.6661L30.375 38.6239C23.2174 38.5113 18.1571 45.5563 20.5077 52.3199C21.2749 54.5298 22.0983 56.5849 22.957 58.4922C23.4215 59.6112 24.0197 60.8429 24.6883 62.1168C27.6021 67.8316 30.6777 72.1389 33.0354 75.6649C33.1269 75.7987 33.2254 75.9324 33.324 76.0591C34.8864 78.3183 37.4905 79.3951 40.1227 79.3599C42.7479 79.4021 45.359 78.3183 46.9214 76.0591C47.0199 75.9324 47.1185 75.7987 47.21 75.6649C49.5677 72.1389 52.6433 67.8316 55.557 62.1168C56.2256 60.8429 56.8239 59.6183 57.2884 58.4922C58.1329 56.5779 58.9564 54.5298 59.7235 52.3199Z" fill="#F89E1C"/>
<path d="M47.6531 66.0363C49.6026 62.2639 45.7388 59.674 41.4456 62.1584C36.329 65.1143 33.3026 63.7842 29.8892 58.1256C27.1162 53.5227 23.0623 54.7122 21.6406 55.3174C22.084 56.4365 22.5345 57.5203 22.999 58.5549C23.4635 59.674 24.0617 60.9056 24.7303 62.1795C27.644 67.8944 30.7197 72.2016 33.0774 75.7277C33.1689 75.8614 33.2674 75.9951 33.3659 76.1218C34.9284 78.381 37.5325 79.4578 40.1647 79.4226C42.7898 79.4648 45.4009 78.381 46.9634 76.1218C47.0619 75.9951 47.1604 75.8614 47.2519 75.7277C48.0191 74.5734 48.8707 73.3418 49.7575 71.9975C47.7164 71.6667 45.7669 69.682 47.6531 66.0363Z" fill="#032663"/>
<path d="M39.9888 79.5414C37.2088 79.5414 34.6892 78.2957 33.2323 76.1843C33.1338 76.0576 33.0352 75.9239 32.9438 75.7831C32.6059 75.2764 32.247 74.7485 31.881 74.2066C29.7415 71.0466 27.0881 67.1194 24.5896 62.2209C23.8788 60.8696 23.2946 59.645 22.8512 58.5893C22.3797 57.5406 21.9222 56.4497 21.4929 55.3518L21.4507 55.2392L21.5633 55.1899C23.1609 54.5072 27.1796 53.4234 29.9667 58.0544C33.4575 63.8467 36.4346 64.8883 41.3542 62.0449C43.9723 60.5318 46.2737 60.9329 47.3928 62.0027C48.4203 62.988 48.5541 64.5153 47.7376 66.0918C46.9142 67.6894 46.7664 69.1041 47.3154 70.1879C47.7588 71.0606 48.6667 71.687 49.7435 71.863L49.9405 71.8911L49.8279 72.053C49.3282 72.8061 48.8426 73.5239 48.3711 74.2137C48.0051 74.7556 47.6532 75.2764 47.3154 75.7761C47.2239 75.9169 47.1253 76.0506 47.0268 76.1773C45.5488 78.3168 42.98 79.5766 40.1296 79.5274C40.0803 79.5414 40.031 79.5414 39.9888 79.5414ZM40.1296 79.2881C42.8955 79.3303 45.387 78.1198 46.8227 76.0435C46.9212 75.9098 47.0198 75.7831 47.1042 75.6494C47.4421 75.1427 47.794 74.6219 48.1599 74.0799C48.5963 73.4395 49.0397 72.7709 49.5042 72.0811C48.4274 71.8559 47.5335 71.2014 47.0831 70.3076C46.6749 69.4982 46.4145 68.0906 47.5124 65.9792L47.625 66.0355L47.5124 65.9792C48.2725 64.5082 48.167 63.0936 47.2168 62.1927C46.1611 61.1863 43.9794 60.8203 41.4809 62.2702C36.4698 65.1698 33.2886 64.0649 29.7485 58.1952C27.1233 53.8457 23.3791 54.7325 21.7744 55.387C22.1897 56.4427 22.6331 57.4913 23.0835 58.5048C23.5199 59.5605 24.104 60.7711 24.8149 62.1224C27.3063 67.0067 29.9596 70.9269 32.0922 74.0799C32.4581 74.6219 32.8171 75.1497 33.1549 75.6565C33.2464 75.7902 33.3379 75.9169 33.4364 76.0506C34.8722 78.1198 37.3777 79.3373 40.1296 79.2881Z" fill="#10319B"/>
<path d="M15.0102 44.2554C14.0037 47.0565 12.1246 53.8482 13.7644 62.2093C13.9263 63.0258 14.982 63.258 15.4747 62.5894L15.8618 62.0686C19.7679 56.776 19.972 49.6113 16.3755 44.1006C16.0307 43.5657 15.2283 43.6572 15.0102 44.2554Z" fill="#F5851F"/>
<path d="M40.2493 79.543C40.2001 79.543 40.1578 79.543 40.1086 79.543C37.2793 79.5853 34.6893 78.3325 33.2113 76.1859C33.1128 76.0592 33.0143 75.9255 32.9228 75.7847C32.5849 75.278 32.226 74.7501 31.86 74.2082C29.7205 71.0482 27.0671 67.1209 24.5686 62.2225C23.8578 60.8712 23.2736 59.6466 22.8303 58.5909C21.9294 56.571 21.1059 54.4948 20.381 52.4115C19.2409 49.1388 19.7546 45.648 21.7816 42.8469C23.8015 40.0598 26.9264 38.4974 30.375 38.5466L33.1409 38.5889H33.1972L40.1086 38.7015L47.0199 38.5889H47.0551L49.8492 38.5466C53.2978 38.4903 56.4227 40.0598 58.4426 42.8469C60.4695 45.648 60.9833 49.1388 59.8431 52.4115C59.1182 54.4948 58.2948 56.578 57.3939 58.5979C56.9576 59.6536 56.3734 60.8782 55.6555 62.2295C53.157 67.1209 50.4967 71.0552 48.3641 74.2153C47.9982 74.7572 47.6392 75.285 47.3014 75.7918C47.2099 75.9325 47.1114 76.0663 47.0129 76.1929C45.556 78.2973 43.0364 79.543 40.2493 79.543ZM40.1086 79.2897C42.8745 79.3319 45.366 78.1214 46.8017 76.0451C46.9002 75.9114 46.9988 75.7847 47.0832 75.651C47.4211 75.1443 47.78 74.6164 48.146 74.0745C50.2785 70.9215 52.9318 66.9943 55.4233 62.1169C56.1341 60.7727 56.7112 59.5551 57.1546 58.5064C58.0555 56.4936 58.8789 54.4173 59.5968 52.3411C60.7088 49.1459 60.2091 45.7395 58.2314 43.0087C56.2608 40.2921 53.1993 38.7648 49.8492 38.8141L47.0832 38.8563H47.048L40.1156 38.9689L33.1972 38.8563H33.1409L30.368 38.8141C27.0179 38.7648 23.9563 40.2921 21.9857 43.0087C20.008 45.7465 19.5083 49.1459 20.6203 52.3411C21.3382 54.4173 22.1616 56.4936 23.0625 58.5064C23.4989 59.5621 24.083 60.7727 24.7939 62.124C27.2853 67.0083 29.9386 70.9285 32.0712 74.0815C32.4371 74.6235 32.7961 75.1513 33.1339 75.6581C33.2254 75.7918 33.3169 75.9185 33.4154 76.0522C34.8582 78.1214 37.3637 79.3389 40.1086 79.2897Z" fill="#10319B"/>
<path d="M56.401 42.3678C54.6204 40.8264 52.3542 39.8974 49.8205 39.9467L47.0405 39.996C47.0194 39.996 47.0053 39.996 46.9842 39.996L40.0376 40.1156L33.0911 39.996C33.07 39.996 33.0559 39.996 33.0348 39.996L30.2548 39.9467C26.398 39.8833 24.3007 42.6563 22.4848 45.8305C22.0766 46.5483 22.4778 47.4774 23.259 47.6322C29.8396 48.9342 44.8094 50.3911 56.401 42.3678Z" fill="#E26907"/>
<path d="M38.3063 60.9343C37.6447 60.9343 36.9761 60.7724 36.3638 60.4416C35.0618 59.7378 34.2595 58.4358 34.2102 56.9578L33.9568 48.484C33.9146 47.006 34.6395 45.6547 35.8993 44.8806C37.1591 44.0993 38.6864 44.0571 39.9884 44.7609L47.512 48.8078C48.7718 49.4834 49.5671 50.7362 49.6446 52.1649C49.722 53.5936 49.0604 54.9238 47.885 55.7261C47.8499 55.7543 47.8076 55.7754 47.7724 55.8036L47.7232 55.8317L40.4599 60.322C39.7913 60.7231 39.0453 60.9343 38.3063 60.9343ZM38.0459 44.768C37.3984 44.768 36.7439 44.9509 36.1597 45.3099C35.0548 45.9926 34.4213 47.175 34.4636 48.47L34.7169 56.9437C34.7592 58.2387 35.463 59.3789 36.6031 59.9912C37.7433 60.6035 39.0875 60.5683 40.1855 59.8856L47.498 55.3672C47.5331 55.3461 47.5683 55.325 47.5965 55.3039C48.624 54.6001 49.2012 53.4388 49.1308 52.186C49.0674 50.9403 48.3707 49.8424 47.2657 49.2512L39.7421 45.2043C39.2072 44.9087 38.623 44.768 38.0459 44.768Z" fill="#F89E1C"/>
<path d="M38.2713 60.9984C37.6168 60.9984 36.9552 60.8365 36.3429 60.5057C35.0479 59.809 34.2526 58.521 34.2104 57.0501L33.95 48.3652C33.9078 46.9013 34.6257 45.564 35.8714 44.7899C37.1171 44.0157 38.6373 43.9734 39.9323 44.6702L47.6389 48.8226C48.8847 49.4912 49.6729 50.737 49.7503 52.1516C49.8278 53.5663 49.1732 54.8894 48.0119 55.6847C47.9768 55.7128 47.9345 55.734 47.8993 55.7621L47.8501 55.7903L40.4039 60.3931C39.7423 60.7943 39.0103 60.9984 38.2713 60.9984ZM38.0039 44.438C37.3142 44.438 36.6244 44.628 36.0051 45.0151C34.8368 45.74 34.1611 46.9928 34.2034 48.3652L34.4638 57.0501C34.506 58.4225 35.252 59.633 36.4626 60.2876C37.6731 60.9421 39.0948 60.8999 40.2701 60.1749L47.7586 55.5439C47.7938 55.5228 47.829 55.4947 47.8641 55.4736C48.955 54.7275 49.5673 53.4959 49.497 52.1657C49.4266 50.8425 48.6876 49.6742 47.5193 49.0479L39.8127 44.8954C39.2426 44.5928 38.6232 44.438 38.0039 44.438Z" fill="#10319B"/>
<path d="M16.376 44.0995C16.0312 43.5716 15.2288 43.6631 15.0106 44.2543C14.1239 46.7176 12.5614 52.2706 13.3215 59.2594C13.4412 53.0307 16.0171 47.0695 16.9672 45.0778C16.7772 44.747 16.5872 44.4162 16.376 44.0995Z" fill="#F89E1C"/>
<path d="M13.6104 58.1193C13.3007 58.1193 13.1107 58.063 13.0825 58.0559L13.2303 57.5703L13.1529 57.8096L13.2233 57.5633C13.2514 57.5703 16.2989 58.2319 18.8115 51.6443L18.9452 52.6366C16.8971 57.8237 14.659 58.1193 13.6104 58.1193Z" fill="#F89E1C"/>
<path d="M13.4272 60.2095C13.4272 60.2095 16.0876 61.5186 18.1286 57.4436C18.1286 57.4436 16.4395 62.5039 14.6378 62.9121C14.6378 62.9121 13.4695 63.1725 13.4272 60.2095Z" fill="#032663"/>
<path d="M14.7152 63.1016C14.6307 63.1016 14.5533 63.0946 14.4688 63.0735C14.0466 62.975 13.7298 62.6582 13.6454 62.2289C11.9774 53.7341 13.9621 46.7946 14.8911 44.2116C15.0037 43.8949 15.2852 43.6697 15.6231 43.6275C15.9609 43.5852 16.2917 43.7401 16.4747 44.0286C20.0852 49.5535 19.874 56.8308 15.9539 62.1374L15.5668 62.6582C15.3697 62.9398 15.053 63.1016 14.7152 63.1016ZM15.7357 43.8738C15.7075 43.8738 15.6864 43.8738 15.6583 43.8808C15.4119 43.909 15.2149 44.0638 15.1304 44.2961C14.2084 46.865 12.2378 53.7481 13.8917 62.1797C13.9551 62.5034 14.1944 62.7497 14.5251 62.8272C14.8489 62.8975 15.1797 62.7779 15.3767 62.5105L15.7638 61.9896C19.6207 56.7674 19.8248 49.6027 16.2706 44.1694C16.1509 43.9794 15.9539 43.8738 15.7357 43.8738Z" fill="#10319B"/>
<path d="M14.3842 60.4841C13.7859 60.4841 13.3918 60.3292 13.3848 60.3222L13.4833 60.0899C13.5889 60.1322 16.1577 61.1456 18.0932 57.4084L18.3184 57.5281C17.0234 60.0195 15.4047 60.4841 14.3842 60.4841Z" fill="#10319B"/>
<path d="M13.7154 58.26C13.4128 58.26 13.2298 58.2037 13.2017 58.1967L13.2791 57.9574C13.3072 57.9644 16.2491 58.802 18.8391 52.5874L19.0714 52.6859C17.0022 57.6477 14.7148 58.26 13.7154 58.26Z" fill="#10319B"/>
<path d="M38.7776 58.9842C38.2709 58.9842 37.7641 58.8576 37.2926 58.6042C36.2932 58.0693 35.6809 57.0769 35.6457 55.9438L35.4557 49.5955C35.4205 48.4624 35.9765 47.4349 36.9407 46.8437C37.9049 46.2454 39.0732 46.2173 40.0656 46.7522L45.696 49.7856C46.6602 50.3064 47.2655 51.2635 47.3218 52.3544C47.3781 53.4453 46.8784 54.4658 45.9775 55.0782C45.9493 55.0993 45.9212 55.1133 45.893 55.1345L45.8579 55.1556L40.4175 58.5197C39.9107 58.8224 39.3477 58.9842 38.7776 58.9842ZM38.5806 46.8789C38.102 46.8789 37.6304 47.0126 37.2011 47.273C36.3988 47.7727 35.9343 48.6313 35.9624 49.5815L36.1524 55.9297C36.1806 56.8799 36.6944 57.7104 37.5319 58.1608C38.3624 58.6112 39.3477 58.5831 40.15 58.0834L45.6186 54.6981C45.6467 54.684 45.6678 54.6629 45.6889 54.6488C46.442 54.1351 46.8573 53.2835 46.808 52.3756C46.7587 51.4676 46.252 50.6653 45.4496 50.229L39.8192 47.1956C39.4322 46.9844 39.0099 46.8789 38.5806 46.8789Z" fill="#F89E1C"/>
<path d="M45.7036 54.8616C45.7317 54.8475 45.7599 54.8264 45.781 54.8123C47.4912 53.644 47.3716 51.061 45.5276 50.0687L40.0239 47.0986C38.1166 46.0711 35.8222 47.4928 35.8856 49.6605L36.0685 55.861C36.1319 58.0216 38.5178 59.3025 40.3547 58.1694L45.6754 54.8827C45.6825 54.8756 45.6965 54.8686 45.7036 54.8616Z" fill="#032663"/>
<path d="M43.4017 53.9022C43.4158 53.8952 43.4299 53.8811 43.444 53.8741C44.4082 53.2195 44.3378 51.7627 43.2962 51.1996L40.1924 49.5316C39.1156 48.9545 37.8206 49.7568 37.8628 50.9744L37.9684 54.4723C38.0036 55.6899 39.3478 56.4148 40.3824 55.7743L43.3806 53.9233C43.3877 53.9163 43.3947 53.9093 43.4017 53.9022Z" fill="#33FCFE"/>
<path d="M57.4642 44.7544C56.6056 45.7327 51.6016 48.2171 51.6016 48.2171C51.6016 48.2171 53.3188 49.5051 53.347 52.2288C53.3681 54.2627 51.4467 56.0856 51.4467 56.0856C53.1781 57.8521 52.5236 60.97 51.2426 63.3347C49.9617 65.6995 51.0948 66.3892 51.0948 66.3892C51.0948 66.3892 58.5833 55.1988 59.2378 48.9139C59.5053 46.3591 57.4642 44.7544 57.4642 44.7544Z" fill="#F4B821"/>
<path d="M23.6323 56.5928C23.6323 56.5928 25.5748 56.2691 26.6164 57.5852C27.6581 58.9013 33.8515 70.5773 36.7371 74.7509C37.2579 75.504 38.5951 78.0869 40.0801 77.5731C40.0801 77.5731 38.011 78.7485 34.9635 75.6799C31.9231 72.6043 25.42 60.2948 23.6323 56.5928Z" fill="#0E51A0"/>
<path d="M19.0152 7.06423C20.4597 6.04589 22.1858 5.17921 24.0925 4.45699L23.9697 4.48588C23.9697 4.48588 30.0942 1.09863 39.2303 1.09863C48.3376 1.09863 54.5343 4.38476 54.5704 4.40643C56.5349 5.13588 58.2971 6.017 59.7777 7.057C66.9061 12.0765 66.3211 22.8593 63.1938 33.0211C60.9333 40.4167 50.1649 43.7822 39.4037 43.6161C28.6425 43.7822 17.8741 40.4167 15.5991 33.0211C12.4718 22.8665 11.8868 12.0837 19.0152 7.06423Z" fill="#F89E1C"/>
<path d="M19.0156 7.10068C19.7739 6.56623 20.6117 6.07512 21.5073 5.62012C14.5233 10.6974 15.1156 21.4224 18.2211 31.5336C20.4962 38.9437 31.2573 42.3092 42.0257 42.1503C48.143 42.2442 54.2603 41.1898 58.8247 38.9075C54.1808 42.2876 46.7924 43.8476 39.3968 43.732C28.6357 43.8981 17.8673 40.5253 15.5922 33.1153C12.4722 22.9391 11.8872 12.1346 19.0156 7.10068Z" fill="#F5851F"/>
<path d="M22.3447 16.1432C17.9752 15.2332 17.6863 8.2709 17.6719 7.96757L18.1919 7.95312C18.1919 8.01813 18.4808 14.8071 22.4458 15.6304L22.3447 16.1432Z" fill="#F89E1C"/>
<path d="M55.5165 16.4098L55.3721 15.9115C59.7199 14.6476 59.9727 7.58419 59.9727 7.51196L60.4927 7.52641C60.4854 7.82974 60.2254 15.0448 55.5165 16.4098Z" fill="#F4B821"/>
<path d="M39.5554 7.28814C37.107 7.28814 34.832 6.48647 33.5031 5.1359C33.4598 5.09257 33.4164 5.04924 33.3731 4.99868L30.9897 2.312L31.5748 1.79199L33.9581 4.47145C33.987 4.50757 34.0231 4.54368 34.0592 4.57979C35.352 5.89424 37.6776 6.61647 40.1404 6.48647C42.5309 6.35647 44.6109 5.44646 45.7015 4.06701L47.406 1.90033L48.0199 2.38422L46.3154 4.5509C45.0948 6.11091 42.7982 7.12203 40.1837 7.26647C39.967 7.28092 39.7648 7.28814 39.5554 7.28814Z" fill="#F4B821"/>
<path d="M39.5409 10.1122C36.2981 10.1122 33.3586 9.02159 31.488 7.11491C31.423 7.04991 31.3508 6.97769 31.2858 6.90547L31.2136 6.82602L27.9419 3.14989L28.5269 2.62988L31.8636 6.38546C31.9214 6.45046 31.9791 6.51546 32.0441 6.57324C33.7703 8.32103 36.5075 9.33215 39.5409 9.33215C39.7864 9.33215 40.0392 9.32493 40.292 9.31048C43.5276 9.12992 46.3081 7.85881 47.9115 5.8149L50.3454 2.71655L50.9593 3.20044L48.5254 6.29879C46.7848 8.51603 43.7948 9.89548 40.3353 10.0905C40.0753 10.1049 39.8081 10.1122 39.5409 10.1122Z" fill="#F4B821"/>
<path d="M59.3734 8.96368C57.8928 7.91645 56.1306 7.02089 54.1662 6.29144C54.1228 6.26978 47.9117 2.48531 38.8044 2.48531C32.8099 2.47809 27.5738 3.48198 24.6704 4.1681C26.5121 3.30142 31.8999 1.09863 39.2377 1.09863C48.345 1.09863 54.5417 4.41365 54.5778 4.43532C56.5423 5.17199 58.3045 6.06033 59.7851 7.10756C66.1407 11.6215 66.3646 20.7576 64.1184 29.9444C65.8951 21.4076 65.3029 13.1743 59.3734 8.96368Z" fill="#F4B821"/>
<path d="M55.9426 16.0559L55.8921 15.8032C59.9654 14.9581 60.406 7.70699 60.4132 7.63477L60.6732 7.64921C60.6516 7.95255 60.211 15.1676 55.9426 16.0559Z" fill="#10319B"/>
<path d="M48.2151 6.03214L50.649 2.93379C49.7967 2.65934 48.8073 2.37767 47.7023 2.11767L45.9978 4.28435C44.8423 5.7577 42.6539 6.71104 40.155 6.85548C37.5839 6.99993 35.1428 6.22714 33.7778 4.83325C33.7344 4.78991 33.6983 4.7538 33.6622 4.71047L31.2789 2.03101C30.145 2.28379 29.1266 2.57268 28.2383 2.85434L31.51 6.53048L31.5822 6.60992C31.6472 6.67492 31.705 6.74715 31.77 6.81215C33.5683 8.63938 36.4283 9.68661 39.5411 9.68661C39.7939 9.68661 40.0539 9.67939 40.3139 9.66494C43.6578 9.49161 46.5395 8.16271 48.2151 6.03214Z" fill="#032663"/>
<path d="M22.7707 16.0567C18.5023 15.1684 18.0329 8.02554 18.0112 7.72221L18.2712 7.70776C18.2785 7.77999 18.7479 14.9589 22.8213 15.8039L22.7707 16.0567Z" fill="#10319B"/>
<path d="M39.3461 43.5223C34.0233 43.6017 28.7077 42.865 24.3022 41.2472C23.2766 40.1495 22.4605 38.7339 21.9838 37.0872C20.7633 32.8622 19.391 26.9544 18.8638 20.3171C18.6038 17.0526 20.4455 14.0915 23.0888 13.456C26.6927 12.5893 32.2539 11.5854 38.855 11.4843V11.4771C39.0428 11.4771 39.2234 11.4843 39.4111 11.4843C39.5989 11.4843 39.7795 11.4771 39.9673 11.4771V11.4843C46.5684 11.5854 51.9996 12.4232 55.6035 13.2898C58.2468 13.9254 60.2185 17.0526 59.9585 20.3171C59.4313 26.9544 58.059 32.8622 56.8385 37.0872C56.369 38.6978 55.5818 40.0844 54.5851 41.1822C50.129 42.8434 44.734 43.6017 39.3461 43.5223Z" fill="#032663"/>
<path d="M57.7264 39.5353L56.6792 40.1059C56.8742 39.5281 57.1992 38.5531 57.4159 37.867C57.9937 36.0614 58.6509 34.0103 59.2359 32.6381C60.182 30.4208 62.8109 28.7453 64.537 27.9075L64.2409 29.0414C62.6303 29.8286 60.8031 30.948 59.9509 32.9486C59.3803 34.292 58.7303 36.3214 58.1525 38.1125C57.9431 38.7914 57.9214 38.9575 57.7264 39.5353Z" fill="#F4B821"/>
<path d="M21.3988 39.7014C21.341 39.7014 21.2904 39.6652 21.276 39.6147C21.1027 39.1019 20.9221 38.5386 20.7343 37.968C20.171 36.2274 19.5282 34.2485 18.9288 32.8402C18.0549 30.7963 16.1771 29.6624 14.451 28.8174C14.386 28.7885 14.3571 28.7091 14.3932 28.6441C14.4221 28.5791 14.5015 28.5502 14.5665 28.5863C16.336 29.4457 18.2643 30.6157 19.1743 32.7391C19.781 34.1619 20.4238 36.1408 20.9871 37.8886C21.1749 38.4591 21.3554 39.0152 21.5215 39.5352C21.5432 39.6002 21.5071 39.6797 21.4421 39.7014C21.4277 39.7014 21.4132 39.7014 21.3988 39.7014Z" fill="#F89E1C"/>
<path d="M64.3278 29.0054C64.0172 30.3487 63.6561 31.6993 63.2444 33.0354C62.3994 35.7943 60.3989 37.9899 57.6616 39.6654C58.3694 37.5493 58.9616 35.1876 59.7561 33.3171C60.7022 31.1143 62.8039 29.742 64.3278 29.0054Z" fill="#032663"/>
<path d="M62.4716 33.2017C62.7604 32.4217 63.0277 31.6417 63.2804 30.8545C62.4716 31.3745 61.641 32.1256 61.1354 33.1728C60.5938 34.2851 60.1171 35.6573 59.626 36.9645C60.9115 35.9751 61.901 34.7256 62.4716 33.2017Z" fill="#0E51A0"/>
<path d="M57.8276 39.6516L57.582 39.5721C57.8276 38.8427 58.0587 38.0699 58.2826 37.326C58.7087 35.9104 59.1565 34.4515 59.6765 33.2165C60.6154 31.0065 62.7171 29.6198 64.306 28.8398L64.4215 29.071C62.8687 29.8293 60.8321 31.1726 59.9148 33.3104C59.3948 34.531 58.9543 35.9827 58.5281 37.391C58.3043 38.1493 58.0731 38.9221 57.8276 39.6516Z" fill="#10319B"/>
<path d="M14.4507 29.0054C14.7612 30.3487 15.1224 31.6993 15.534 33.0354C16.379 35.7943 18.3796 37.9899 21.1168 39.6654C20.4091 37.5493 19.8168 35.1876 19.0224 33.3171C18.0835 31.1143 15.9746 29.742 14.4507 29.0054Z" fill="#032663"/>
<path d="M40.1112 43.7318C39.8729 43.7318 39.6345 43.7318 39.4034 43.7246C29.9206 43.869 17.975 41.1607 15.4761 33.0501C13.2372 25.7845 10.7166 12.741 18.9428 6.94879L19.015 7.05712L18.9428 6.94879C20.38 5.93767 23.8683 4.39933 24.02 4.33433C24.0706 4.30544 30.1734 0.96875 39.2373 0.96875C48.3302 0.96875 54.5774 4.25488 54.6424 4.29099C56.6574 5.03489 58.4197 5.93045 59.8641 6.94879C68.0903 12.741 65.5697 25.7845 63.3308 33.0428C60.8897 40.9584 49.4641 43.7318 40.1112 43.7318ZM39.3962 43.4646C39.6273 43.4646 39.8657 43.4718 40.104 43.4718C49.3702 43.4718 60.6802 40.749 63.078 32.9706C65.2953 25.7772 67.8014 12.8638 59.7124 7.16546C58.2824 6.16156 56.5419 5.27322 54.5341 4.52933C54.4546 4.48599 48.2579 1.23597 39.2373 1.23597C30.2456 1.23597 24.1933 4.53655 24.1356 4.57266C24.0922 4.59433 20.5172 6.16878 19.0944 7.16546C10.9983 12.8566 13.5116 25.7772 15.7216 32.9706C18.1772 40.944 30.0145 43.609 39.3962 43.4646Z" fill="#10319B"/>
<path d="M39.4036 42.3816C34.8392 42.4466 30.2819 41.8761 26.3963 40.6266C25.7969 40.4316 25.2552 40.0705 24.8797 39.5649C24.2369 38.7127 23.7313 37.7088 23.3919 36.5894C22.2652 32.7905 21.0013 27.4676 20.5174 21.4948C20.2791 18.5554 21.9763 15.8903 24.4102 15.3198C27.7325 14.5398 32.8603 13.637 38.9486 13.5431V13.5359C39.122 13.5359 39.2881 13.5359 39.4614 13.5431C39.6348 13.5431 39.8009 13.5359 39.9742 13.5359V13.5431C46.0626 13.637 51.1832 14.5398 54.5126 15.3198C56.9538 15.8903 58.6438 18.5554 58.4054 21.4948C57.9143 27.4676 56.6576 32.7905 55.531 36.5894C55.1987 37.7016 54.7004 38.691 54.0648 39.5361C53.7037 40.0199 53.1982 40.3666 52.6276 40.5544C48.6843 41.8616 44.0476 42.4538 39.4036 42.3816Z" fill="#FCE8CA"/>
<path d="M39.4785 42.4912C34.9216 42.595 30.3665 42.0585 26.4763 40.8324C25.8761 40.641 25.3322 40.2817 24.9529 39.7756C24.3039 38.9224 23.7906 37.9154 23.4422 36.7905C22.2851 32.9728 20.978 27.6212 20.4442 21.6081C20.1813 18.6489 21.8534 15.9498 24.2787 15.3546C27.5892 14.5409 32.7015 13.5883 38.7798 13.4426L38.7797 13.4353C38.9528 13.4338 39.1186 13.4325 39.2918 13.4383C39.4648 13.4368 39.6306 13.4281 39.8037 13.4267L39.8037 13.434C45.8836 13.4774 51.0039 14.3439 54.3349 15.1017C56.7771 15.656 58.4871 18.3266 58.2741 21.2898C57.8343 27.3111 56.6247 32.6839 55.532 36.5205C55.2097 37.6437 54.7205 38.6447 54.0931 39.5013C53.7366 39.9918 53.2348 40.3453 52.6667 40.5393C48.7405 41.8893 44.1159 42.5249 39.4785 42.4912Z" fill="url(#paint0_linear_908_11138)"/>
<ellipse cx="39.6415" cy="37.1177" rx="1.82905" ry="2.51494" fill="#032663"/>
<path d="M34.6034 32.8457C34.4518 32.9662 34.2863 33.078 34.1156 33.1672L28.9493 30.5623C28.9232 30.3711 28.9197 30.1744 28.9346 29.9793L34.6034 32.8457Z" fill="#0052A3"/>
<path d="M35.1386 32.3373C35.0219 32.4793 34.8955 32.6056 34.7666 32.7206L28.9383 29.7849C28.9584 29.6125 28.9898 29.4373 29.0325 29.2594L35.1386 32.3373Z" fill="#0052A3"/>
<path d="M35.8803 31.1379L35.6381 31.5916L29.349 28.4201L29.5799 27.9692L35.8803 31.1379Z" fill="#0052A3"/>
<path d="M35.5441 31.7592C35.4596 31.9113 35.3612 32.0548 35.2601 32.187L29.0729 29.0688C29.1252 28.9065 29.1845 28.7485 29.262 28.592L35.5441 31.7592Z" fill="#0052A3"/>
<path d="M32.9401 33.5741C32.5656 33.6347 32.1894 33.636 31.8115 33.5778L29.9854 32.6552C29.7155 32.3914 29.4944 32.0799 29.3229 31.7504L32.9401 33.5741Z" fill="#0052A3"/>
<path d="M33.9017 33.2799C33.6857 33.3801 33.4644 33.4575 33.2449 33.5166L29.1805 31.4654C29.0943 31.2469 29.0308 31.0229 28.9899 30.7933L33.9017 33.2799Z" fill="#0052A3"/>
<path d="M36.1981 30.5144L35.9628 30.9724L29.6668 27.7967L29.909 27.343L36.1981 30.5144Z" fill="#0052A3"/>
<path d="M44.4825 32.8457C44.6341 32.9662 44.7996 33.078 44.9704 33.1672L50.1367 30.5623C50.1628 30.3711 50.1662 30.1744 50.1513 29.9793L44.4825 32.8457Z" fill="#0052A3"/>
<path d="M43.9473 32.3373C44.0641 32.4793 44.1904 32.6056 44.3193 32.7206L50.1477 29.7849C50.1276 29.6125 50.0962 29.4373 50.0535 29.2594L43.9473 32.3373Z" fill="#0052A3"/>
<path d="M43.2056 31.1379L43.4479 31.5916L49.7369 28.4201L49.506 27.9692L43.2056 31.1379Z" fill="#0052A3"/>
<path d="M43.5413 31.7592C43.6258 31.9113 43.7243 32.0548 43.8254 32.187L50.0125 29.0688C49.9602 28.9065 49.901 28.7485 49.8234 28.592L43.5413 31.7592Z" fill="#0052A3"/>
<path d="M46.1458 33.5741C46.5203 33.6347 46.8965 33.636 47.2745 33.5778L49.1005 32.6552C49.3704 32.3914 49.5915 32.0799 49.763 31.7504L46.1458 33.5741Z" fill="#0052A3"/>
<path d="M45.1843 33.2799C45.4003 33.3801 45.6215 33.4575 45.841 33.5166L49.9054 31.4654C49.9916 31.2469 50.0551 31.0229 50.096 30.7933L45.1843 33.2799Z" fill="#0052A3"/>
<path d="M42.8879 30.5144L43.1231 30.9724L49.4192 27.7967L49.1769 27.343L42.8879 30.5144Z" fill="#0052A3"/>
<rect x="32.7026" y="25" width="4.11604" height="0.685893" rx="0.342947" transform="rotate(42.1304 32.7026 25)" fill="#032663"/>
<rect width="4.11604" height="0.685893" rx="0.342947" transform="matrix(-0.741619 0.670821 0.670821 0.741619 46.7266 25)" fill="#032663"/>
<path d="M38.5374 43.58C33.2724 43.58 28.3468 42.7927 24.2517 41.2905L24.2229 41.2833L24.2012 41.2616C23.1323 40.1133 22.3234 38.6544 21.854 37.0438C20.7345 33.1582 19.2756 27.0843 18.7267 20.2159C18.4595 16.872 20.3156 13.8603 23.0529 13.2031C26.729 12.322 43.0513 9.73643 55.7553 13.2031C58.4781 13.947 60.3342 16.9587 60.0742 20.2159C59.5253 27.0843 58.0736 33.1582 56.947 37.0438C56.492 38.6255 55.6975 40.0627 54.6647 41.1966L54.6431 41.2183L54.6142 41.2327C50.3386 42.8361 44.9147 43.6739 39.3391 43.5872C39.0718 43.58 38.8046 43.58 38.5374 43.58ZM39.3463 43.3127C44.8785 43.3994 50.2519 42.5689 54.4986 40.9872C55.4953 39.8822 56.2608 38.4955 56.7014 36.9644C57.8208 33.0932 59.2725 27.0338 59.8142 20.187C60.067 17.0526 58.2903 14.1565 55.6831 13.4487C43.0296 9.99643 26.7723 12.5748 23.1106 13.4487C20.5034 14.077 18.7267 16.9731 18.9867 20.187C19.5356 27.0338 20.9801 33.0932 22.0995 36.9644C22.5545 38.5316 23.3345 39.9472 24.3673 41.0594C28.5779 42.5905 33.8935 43.3994 39.3463 43.3127Z" fill="#10319B"/>
<path d="M21.0013 39.5648C20.7629 38.857 20.539 38.1203 20.3224 37.4053C19.8963 36.0042 19.4485 34.5597 18.9212 33.3175C18.0112 31.1797 15.9673 29.8292 14.4146 29.078L14.5301 28.8469C16.119 29.6197 18.2135 31.0064 19.1596 33.2236C19.694 34.4731 20.1418 35.932 20.5679 37.3331C20.7846 38.0481 21.0085 38.7848 21.2468 39.4853L21.0013 39.5648Z" fill="#10319B"/>
<path d="M60.5073 28.9485L63.8512 26.9985C63.8512 26.9985 64.8046 17.3929 61.699 13.0234L60.8034 15.7751C60.8034 15.7751 62.2407 17.8624 60.5073 28.9485Z" fill="#F4B821"/>
<path d="M64.585 51.5093C62.0223 48.3935 55.4193 41.4919 44.5468 37.5981C43.4839 37.2199 42.4808 38.2878 42.9173 39.3254L43.255 40.1376C46.7058 48.3585 54.9056 53.5688 63.8176 53.2064C64.6797 53.1761 65.13 52.1785 64.585 51.5093Z" fill="#F5851F"/>
<path d="M63.8167 53.2068C64.6706 53.1716 65.1209 52.174 64.5841 51.5097C62.3317 48.7676 56.951 43.0945 48.2869 39.1289C55.4555 43.5912 60.608 50.7275 62.2674 53.2161C62.7844 53.2244 63.3014 53.2328 63.8167 53.2068Z" fill="#F89E1C"/>
<path d="M49.4145 40.2554C49.6295 39.8948 49.8269 39.7127 49.8546 39.6848L50.3174 40.1939L50.0926 39.9377L50.3305 40.1906C50.3028 40.2185 47.4175 43.3073 53.3432 50.8046L52.095 50.2716C47.4775 44.2871 48.6867 41.4763 49.4145 40.2554Z" fill="#F89E1C"/>
<path d="M47.1084 38.5928C47.1084 38.5928 43.7379 40.7815 47.0656 45.986C47.0656 45.986 42.3465 40.5073 43.1217 38.1264C43.1217 38.1264 43.6294 36.5855 47.1084 38.5928Z" fill="#032663"/>
<path d="M42.8472 38.084C42.9058 37.9857 42.9677 37.9004 43.0509 37.8167C43.4587 37.3935 44.0473 37.2446 44.6057 37.4442C55.6535 41.3981 62.3552 48.5251 64.7176 51.3994C65.0082 51.7503 65.075 52.2344 64.8897 52.657C64.7044 53.0797 64.2946 53.3573 63.8316 53.3701C54.8935 53.7391 46.5675 48.4424 43.1101 40.1953L42.7724 39.3832C42.5814 38.9584 42.6127 38.4773 42.8472 38.084ZM64.5248 52.6172C64.5443 52.5844 64.559 52.5598 64.5703 52.5222C64.7085 52.2158 64.665 51.8789 64.4532 51.6194C62.1023 48.7631 55.4564 41.6915 44.4921 37.7652C44.0712 37.6142 43.6184 37.7219 43.2986 38.0533C42.992 38.3813 42.9017 38.8495 43.0763 39.2645L43.414 40.0767C46.8171 48.1914 55.0169 53.4017 63.8094 53.0348C64.1137 53.0273 64.3734 52.8712 64.5248 52.6172Z" fill="#10319B"/>
<path d="M46.1236 39.5155C46.5388 38.819 46.9926 38.4676 47.0057 38.4643L47.2077 38.7402C47.0852 38.8338 44.1224 41.1212 47.1301 45.9683L46.8345 46.1475C44.8326 42.9106 45.4153 40.7036 46.1236 39.5155Z" fill="#10319B"/>
<path d="M49.1778 40.2802C49.3878 39.9279 49.5804 39.7539 49.6081 39.726L49.833 39.9822C49.8052 40.0101 46.7883 42.8539 52.226 50.1825L51.9501 50.3845C47.6095 44.5318 48.4841 41.4438 49.1778 40.2802Z" fill="#10319B"/>
</g>
<defs>
<linearGradient id="paint0_linear_908_11138" x1="39.6263" y1="53.6002" x2="39.2337" y2="6.94317" gradientUnits="userSpaceOnUse">
<stop offset="0.2378" stop-color="#FF6934"/>
<stop offset="0.303" stop-color="#FF8659"/>
<stop offset="0.3648" stop-color="#FF9C74"/>
<stop offset="0.4193" stop-color="#FFA984"/>
<stop offset="0.461" stop-color="#FFAE8A"/>
<stop offset="0.5673" stop-color="#FEB996"/>
<stop offset="0.7594" stop-color="#FDD6B6"/>
<stop offset="0.8631" stop-color="#FCE8CA"/>
</linearGradient>
</defs>
</svg>
