<svg width="100" height="100" viewBox="0 0 100 100" fill="none" xmlns="http://www.w3.org/2000/svg">
<mask id="mask0_7552_34585" style="mask-type:alpha" maskUnits="userSpaceOnUse" x="0" y="0" width="100" height="100">
<rect width="100" height="100" fill="#D9D9D9"/>
</mask>
<g mask="url(#mask0_7552_34585)">
<path d="M68.6873 78.7831C75.28 72.5257 73.6793 61.6317 65.5418 57.5871L62.3901 56.0186C62.3663 56.0063 62.3504 55.9981 62.3266 55.9858L54.4669 52.0848L46.7385 47.9299C46.7147 47.9176 46.6988 47.9093 46.675 47.897L43.5724 46.2333C35.5662 41.9348 25.7537 46.9304 24.4628 55.9278C24.0399 58.8671 23.7708 61.6646 23.6275 64.3159C23.4992 65.8486 23.456 67.5862 23.4676 69.4125C23.4228 77.5554 24.3809 84.2053 24.9848 89.5558C25.01 89.7599 25.0432 89.9681 25.0805 90.1684C25.5258 93.6268 27.8349 96.3588 30.8238 97.8532C33.7596 99.4308 37.3359 99.7303 40.4146 98.0931C40.5995 98.0077 40.7886 97.9143 40.9697 97.8168C45.6836 95.2146 51.6623 92.1496 58.2789 87.403C59.7753 86.3561 61.1637 85.3237 62.3438 84.3246C64.4119 82.6579 66.5342 80.8282 68.6873 78.7831Z" fill="#F89E1C"/>
<path d="M47.0808 87.2174C51.4779 84.0995 48.63 78.9268 42.3406 79.2264C34.8477 79.5779 32.21 76.314 31.6585 67.9434C31.2139 61.1365 25.9491 60.1152 23.993 59.9692C23.8409 61.4896 23.7172 62.9744 23.638 64.4118C23.5097 65.9445 23.4665 67.6821 23.4781 69.5084C23.4333 77.6513 24.3914 84.3012 24.9953 89.6517C25.0205 89.8558 25.0537 90.0641 25.091 90.2644C25.5363 93.7227 27.8454 96.4547 30.8343 97.9491C33.7702 99.5267 37.3464 99.8262 40.4251 98.1891C40.6101 98.1036 40.7991 98.0103 40.9802 97.9128C42.5181 97.0582 44.1962 96.1656 45.9797 95.1664C43.8708 93.6039 42.829 90.2295 47.0808 87.2174Z" fill="#032663"/>
<path d="M30.5662 97.9814C27.4312 96.3612 25.3158 93.4879 24.9034 90.2577C24.8661 90.0574 24.8329 89.8492 24.8118 89.6372C24.7261 88.8688 24.629 88.0643 24.5321 87.2399C23.961 82.4293 23.2576 76.4541 23.2948 69.4739C23.2807 67.5357 23.3357 65.8142 23.4509 64.3653C23.5303 62.9078 23.6502 61.411 23.806 59.9226L23.824 59.771L23.9797 59.7811C26.1792 59.9423 31.3429 61.0622 31.7869 67.909C32.3478 76.4756 35.0981 79.3853 42.3031 79.046C46.1375 78.8654 48.4991 80.6591 49.1376 82.5177C49.7221 84.2277 48.9828 86.028 47.1433 87.33C45.2836 88.6518 44.2925 90.161 44.2799 91.7032C44.2713 92.9458 44.9301 94.1813 46.0419 95.0073L46.2477 95.1539L46.0264 95.2708C45.024 95.8289 44.0579 96.3554 43.1242 96.8584C42.3956 97.2562 41.6952 97.6385 41.023 98.0051C40.8378 98.1105 40.6488 98.2039 40.4638 98.2893C37.5501 99.8408 33.9189 99.7643 30.7332 98.0476C30.6694 98.0347 30.6139 98.006 30.5662 97.9814ZM30.8726 97.7777C33.9672 99.4373 37.4824 99.5242 40.3116 98.0196C40.5006 97.9262 40.6856 97.8408 40.8588 97.7392C41.5351 97.3646 42.2354 96.9824 42.964 96.5845C43.8294 96.1166 44.7191 95.621 45.6449 95.1139C44.5618 94.2323 43.9353 92.9733 43.9482 91.7028C43.9596 90.5521 44.4863 88.813 46.955 87.0718L47.0492 87.2009L46.955 87.0718C48.6695 85.856 49.3749 84.1991 48.8284 82.6294C48.2244 80.8792 45.9773 79.1949 42.3147 79.3738C34.9737 79.7233 32.0302 76.6232 31.4588 67.9406C31.0333 61.5056 26.294 60.3235 24.1029 60.1264C23.9559 61.5589 23.8448 62.9999 23.7621 64.4054C23.6389 65.8502 23.5922 67.5558 23.6062 69.494C23.5692 76.4543 24.2767 82.4215 24.844 87.2201C24.9409 88.0445 25.038 88.849 25.1237 89.6173C25.1489 89.8215 25.1783 90.0177 25.2115 90.2259C25.6247 93.3961 27.7406 96.2294 30.8726 97.7777Z" fill="#10319B"/>
<path d="M22.9647 43.6279C20.1972 46.2003 14.1198 52.7642 11.0961 63.149C10.8029 64.164 11.858 65.0412 12.8033 64.5743L13.5434 64.2126C21.0329 60.5205 25.4387 52.5597 24.5947 44.2491C24.5175 43.4449 23.5594 43.0805 22.9647 43.6279Z" fill="#F5851F"/>
<path d="M30.8599 98.1323C30.8044 98.1036 30.7568 98.0789 30.7012 98.0502C27.486 96.4489 25.2953 93.5267 24.8796 90.2446C24.8423 90.0443 24.8091 89.836 24.788 89.624C24.7023 88.8556 24.6052 88.0512 24.5083 87.2267C23.9372 82.4161 23.2338 76.4409 23.2711 69.4607C23.257 67.5225 23.3119 65.801 23.4272 64.3521C23.5885 61.5492 23.8699 58.7279 24.2665 55.956C24.8881 51.6009 27.502 47.9636 31.4203 45.986C35.3225 44.0202 39.7571 44.0794 43.6175 46.1449L46.7121 47.8045L46.7756 47.8373L54.504 51.9923L62.3637 55.8933L62.4034 55.9138L65.5789 57.4946C69.5009 59.441 72.1101 63.0321 72.7637 67.3524C73.417 71.6926 71.9619 75.9287 68.7688 78.9549C66.7372 80.8817 64.5944 82.7512 62.4013 84.504C61.2939 85.4403 59.9214 86.4808 58.3243 87.5863C52.6559 91.6463 47.3629 94.5326 43.1163 96.8534C42.3877 97.2513 41.6753 97.6373 40.999 98.0119C40.8138 98.1173 40.6247 98.2107 40.4398 98.2961C37.5704 99.8202 34.003 99.7566 30.8599 98.1323ZM30.8489 97.7645C33.9435 99.4241 37.4586 99.511 40.2878 98.0064C40.4769 97.913 40.6618 97.8276 40.835 97.726C41.5113 97.3514 42.2237 96.9654 42.9523 96.5675C47.1948 94.2546 52.4758 91.3722 58.128 87.324C59.7131 86.2223 61.0735 85.1856 62.1847 84.2614C64.3738 82.5165 66.5124 80.655 68.532 78.732C71.6483 75.7767 73.07 71.644 72.4313 67.4119C71.7922 63.1997 69.2298 59.6931 65.4231 57.7962L62.2793 56.2318L62.2396 56.2113L54.3561 52.298L46.6197 48.1389L46.5562 48.1061L43.4537 46.4424C39.7044 44.4344 35.3618 44.3724 31.5562 46.2875C27.7303 48.2224 25.1856 51.7647 24.5774 56.0161C24.1769 58.7759 23.8955 61.5972 23.7383 64.3922C23.6151 65.8371 23.5684 67.5427 23.5825 69.4808C23.5455 76.4411 24.253 82.4083 24.8203 87.2069C24.9171 88.0314 25.0143 88.8358 25.0999 89.6042C25.1252 89.8083 25.1545 90.0045 25.1877 90.2127C25.6088 93.387 27.7248 96.2204 30.8489 97.7645Z" fill="#10319B"/>
<path d="M70.7411 65.6238C69.6314 62.8478 67.6171 60.4794 64.7311 59.0583L61.5673 57.4936C61.5435 57.4813 61.5276 57.4731 61.5038 57.4608L53.6004 53.5473L45.8363 49.3638C45.8125 49.3515 45.7967 49.3433 45.7729 49.331L42.6665 47.6552C38.354 45.336 34.3726 47.2408 30.475 49.7621C29.5963 50.3338 29.5072 51.6152 30.298 52.2452C36.9602 57.5487 52.9929 67.9162 70.7411 65.6238Z" fill="#E26907"/>
<path d="M39.5146 76.0151C38.7685 75.6295 38.1089 75.0573 37.6111 74.3274C36.553 72.7749 36.407 70.839 37.2128 69.1435L41.8657 59.4398C42.6794 57.7484 44.2845 56.647 46.1564 56.5082C48.0324 56.3614 49.7793 57.2039 50.8375 58.7564L56.9635 67.705C57.9904 69.2012 58.1572 71.0774 57.4118 72.7337C56.6665 74.3901 55.1451 75.5046 53.3521 75.7244C53.296 75.7356 53.2361 75.7348 53.18 75.746L53.108 75.7491L42.3001 76.5798C41.3123 76.6425 40.348 76.4458 39.5146 76.0151ZM48.6428 57.6323C47.9126 57.2549 47.0678 57.0798 46.1999 57.1441C44.5559 57.27 43.1525 58.2342 42.4453 59.7193L37.7925 69.423C37.0854 70.908 37.2146 72.6039 38.1435 73.9589C39.0724 75.3139 40.6089 76.0577 42.2449 75.9277L53.1247 75.094C53.1767 75.0907 53.2287 75.0874 53.2728 75.08C54.8417 74.8852 56.1694 73.9119 56.8201 72.4581C57.4747 71.0164 57.3288 69.3721 56.4273 68.0614L50.3013 59.1129C49.8703 58.4678 49.2936 57.9686 48.6428 57.6323Z" fill="#F89E1C"/>
<path d="M39.4379 76.0658C38.6998 75.6844 38.0481 75.1162 37.5503 74.3864C36.496 72.8459 36.3498 70.9299 37.1594 69.2465L41.9274 59.3006C42.733 57.6251 44.3219 56.5354 46.1779 56.3884C48.0339 56.2414 49.7729 57.0797 50.8272 58.6202L57.0981 67.7945C58.1133 69.2745 58.2762 71.1387 57.539 72.7792C56.8019 74.4196 55.2926 75.5303 53.5195 75.7504C53.4634 75.7616 53.4035 75.7608 53.3474 75.772L53.2754 75.7751L42.1956 76.6261C41.2157 76.6929 40.2713 76.4965 39.4379 76.0658ZM48.7879 57.2344C48.0101 56.8324 47.1215 56.6447 46.1974 56.7203C44.4574 56.8569 42.9654 57.8759 42.2131 59.4482L37.4452 69.3941C36.6929 70.9665 36.8287 72.7664 37.8124 74.21C38.7961 75.6537 40.424 76.4346 42.1719 76.3021L53.3158 75.444C53.3678 75.4407 53.4239 75.4294 53.4759 75.4261C55.1409 75.2206 56.5492 74.1885 57.2451 72.6474C57.9368 71.1142 57.7844 69.366 56.8319 67.9787L50.5611 58.8045C50.0945 58.1309 49.4863 57.5954 48.7879 57.2344Z" fill="#10319B"/>
<path d="M24.5947 44.2497C24.5134 43.4535 23.5553 43.0891 22.9647 43.6286C20.529 45.8897 15.5307 51.2413 12.3148 59.5657C16.0798 52.6112 22.459 47.3899 24.6913 45.6975C24.6698 45.2137 24.6482 44.73 24.5947 44.2497Z" fill="#F89E1C"/>
<path d="M13.3048 58.4485C12.9555 58.268 12.774 58.0937 12.7464 58.0694L13.1961 57.6079L12.9693 57.8326L13.1923 57.5959C13.2199 57.6202 16.271 60.1423 22.9438 54.1777L22.5162 55.3748C17.1836 60.0307 14.4874 59.0596 13.3048 58.4485Z" fill="#F89E1C"/>
<path d="M11.8799 60.6983C11.8799 60.6983 14.1171 63.7251 18.7938 60.3191C18.7938 60.3191 13.9397 65.0413 11.67 64.4516C11.67 64.4516 10.2007 64.0644 11.8799 60.6983Z" fill="#032663"/>
<path d="M11.6467 64.712C11.5514 64.6627 11.4682 64.6097 11.3853 64.5367C10.9665 64.1794 10.7939 63.6377 10.9489 63.1043C14.0187 52.5523 20.3013 45.8832 22.8544 43.5118C23.1659 43.2203 23.6147 43.1304 24.0203 43.2797C24.4258 43.4289 24.7086 43.7963 24.7468 44.2284C25.5985 52.5631 21.1191 60.6468 13.6055 64.3465L12.8655 64.7083C12.4791 64.9109 12.0276 64.9089 11.6467 64.712ZM24.0037 43.6231C23.9719 43.6067 23.9481 43.5944 23.9123 43.5859C23.6181 43.4741 23.3056 43.5338 23.075 43.7465C20.5381 46.1062 14.3042 52.72 11.2554 63.1923C11.1381 63.5943 11.2644 64.0116 11.5923 64.2917C11.9164 64.5597 12.3592 64.6176 12.7373 64.4308L13.4774 64.0691C20.8703 60.4277 25.2762 52.4669 24.4346 44.2682C24.4104 43.9841 24.2497 43.7502 24.0037 43.6231Z" fill="#10319B"/>
<path d="M12.7994 61.5665C12.1248 61.2179 11.7705 60.8135 11.7667 60.8015L12.0132 60.597C12.1076 60.7062 14.4139 63.3462 18.7746 60.2597L18.9589 60.5259C16.0465 62.5809 13.9502 62.1613 12.7994 61.5665Z" fill="#10319B"/>
<path d="M13.3417 58.6673C13.0004 58.4909 12.8269 58.3208 12.7992 58.2964L13.026 58.0717C13.0536 58.096 15.8831 60.7551 22.4258 55.2563L22.6303 55.5027C17.4051 59.8923 14.4687 59.2497 13.3417 58.6673Z" fill="#10319B"/>
<path d="M79.9359 73.0706C79.4384 76.8161 77.5993 85.5704 70.877 94.0437C70.2187 94.87 68.8928 94.5167 68.7269 93.4756L68.5939 92.6626C67.2735 84.4176 71.2189 76.2188 78.4864 72.1002C79.1871 71.698 80.0386 72.2688 79.9359 73.0706Z" fill="#F89E1C"/>
<path d="M78.69 73.6143C78.6739 73.626 78.6618 73.6299 78.6457 73.6416C76.0344 75.289 74.7576 78.4407 75.4367 81.4466C75.6592 82.4366 76.0416 83.4287 76.6617 84.2721C78.8728 79.9741 79.4841 76.0863 79.6452 74.1984C79.688 73.6875 79.1212 73.3443 78.69 73.6143Z" fill="#F4B821"/>
<path d="M73.8091 75.8584C69.6899 80.3067 67.6734 86.4854 68.5939 92.6632L68.711 93.468C68.7217 93.564 68.7565 93.6524 68.7913 93.7408L70.2768 94.4079C70.4856 94.3348 70.6711 94.2094 70.8215 94.0156C71.4963 93.1575 72.119 92.3027 72.7019 91.4474C69.1669 87.1566 72.0944 79.4877 73.8091 75.8584Z" fill="#F5851F"/>
<path d="M73.363 89.5065C72.1645 88.8871 69.9786 86.8121 70.6775 79.9526L71.3643 79.0906C70.1605 88.4448 74.1354 89.1212 74.1712 89.1297L74.0828 89.7679C74.039 89.7553 73.7599 89.7116 73.363 89.5065Z" fill="#F89E1C"/>
<path d="M72.423 91.9871C72.423 91.9871 68.6599 91.9129 68.7332 86.1279C68.7332 86.1279 67.6888 92.819 69.4828 94.3294C69.4828 94.3294 70.6485 95.304 72.423 91.9871Z" fill="#032663"/>
<path d="M69.2848 94.4982C68.9038 94.3013 68.6369 93.9421 68.567 93.4937L68.434 92.6807C67.1059 84.4116 71.117 76.0859 78.4006 71.9555C78.7831 71.7408 79.2343 71.7629 79.5948 71.9994C79.9511 72.2439 80.1414 72.6541 80.0797 73.0848C79.618 76.547 77.8197 85.5336 70.9839 94.1293C70.6426 94.5563 70.0967 94.7368 69.5631 94.6018C69.4714 94.5846 69.38 94.5474 69.2848 94.4982ZM79.3401 72.2198C79.094 72.0926 78.8182 72.1009 78.5687 72.2335C71.394 76.2894 67.4485 84.4881 68.7544 92.6251L68.8874 93.438C68.9537 93.8545 69.257 94.1822 69.6631 94.2915C70.0693 94.4008 70.4827 94.2625 70.7548 93.9305C77.5419 85.3901 79.3232 76.4751 79.7806 73.0408C79.8208 72.7297 79.6888 72.4402 79.4274 72.2649C79.3956 72.2485 79.3718 72.2362 79.3401 72.2198Z" fill="#10319B"/>
<path d="M71.1834 91.738C70.0325 91.1433 68.4777 89.676 68.4735 86.1037L68.7972 86.1C68.7977 91.4504 72.2853 91.8047 72.4331 91.8107L72.4088 92.13C72.3927 92.1418 71.858 92.0867 71.1834 91.738Z" fill="#10319B"/>
<path d="M73.2337 89.6202C72.1066 89.0377 69.884 87.0141 70.4423 80.2127L70.7617 80.2369C70.0641 88.7867 73.8663 89.5247 73.9022 89.5332L73.85 89.8482C73.8141 89.8397 73.575 89.7966 73.2337 89.6202Z" fill="#10319B"/>
<path d="M41.1825 74.0929C40.6111 73.7976 40.1134 73.3594 39.7293 72.7988C38.914 71.6131 38.8019 70.1372 39.4226 68.8388L42.9081 61.569C43.5288 60.2706 44.7547 59.4359 46.1866 59.3311C47.6226 59.2184 48.9566 59.8676 49.7639 61.0492L54.3456 67.7514C55.1294 68.9007 55.2541 70.3329 54.6819 71.5959C54.1096 72.8589 52.9513 73.7186 51.5785 73.8841C51.5344 73.8915 51.4945 73.8909 51.4504 73.8983L51.3985 73.9016L43.3026 74.5248C42.5547 74.5707 41.8254 74.4251 41.1825 74.0929ZM48.0154 60.3265C47.4757 60.0476 46.866 59.9236 46.2301 59.9671C45.034 60.063 44.0098 60.7606 43.4878 61.8484L40.0022 69.1183C39.4803 70.2062 39.5756 71.4422 40.2576 72.4382C40.9316 73.4302 42.0592 73.9727 43.2553 73.8768L51.3952 73.2463C51.4352 73.2468 51.4713 73.2353 51.5033 73.2317C52.652 73.0912 53.6166 72.3729 54.0902 71.3203C54.5637 70.2677 54.4599 69.0676 53.8094 68.1079L49.2277 61.4056C48.9143 60.9419 48.4996 60.5768 48.0154 60.3265Z" fill="#F89E1C"/>
<path d="M51.3963 73.478C51.4362 73.4786 51.4803 73.4712 51.5123 73.4676C54.1219 73.1468 55.4923 70.1642 53.9912 67.9705L49.5155 61.4135C47.9634 59.1431 44.5474 59.4091 43.3555 61.8906L39.9482 68.9897C38.7603 71.4632 40.7044 74.2983 43.4364 74.091L51.3522 73.4854C51.3643 73.4816 51.3842 73.4819 51.3963 73.478Z" fill="#032663"/>
<path d="M49.3587 71.0566C49.3787 71.0569 49.4027 71.0492 49.4227 71.0495C50.8915 70.8733 51.6613 69.1893 50.8147 67.9473L48.2867 64.2573C47.4087 62.9789 45.4807 63.129 44.8187 64.5267L42.8991 68.5329C42.2292 69.9265 43.3227 71.5274 44.8627 71.4081L49.3226 71.0681C49.3346 71.0643 49.3467 71.0604 49.3587 71.0566Z" fill="#33FCFE"/>
<path d="M70.549 68.9329C69.0105 69.5357 61.9194 69.421 61.9194 69.421C61.9194 69.421 63.1054 71.8743 61.5498 74.9623C60.3881 77.2684 57.159 78.2043 57.159 78.2043C58.0819 81.2055 55.5267 84.3401 52.704 86.2603C49.8812 88.1806 50.7571 89.6188 50.7571 89.6188C50.7571 89.6188 65.7239 81.3634 70.1249 74.6572C71.9155 71.932 70.549 68.9329 70.549 68.9329Z" fill="#F4B821"/>
<path d="M25.4968 62.5661C25.4968 62.5661 27.8761 63.3331 28.2837 65.4243C28.6913 67.5156 28.8709 84.2926 29.6927 90.6809C29.8411 91.8337 29.8438 95.5259 31.8179 95.812C31.8179 95.812 28.7994 95.9315 27.1511 90.6949C25.5149 85.4545 25.3552 67.7827 25.4968 62.5661Z" fill="#0E51A0"/>
<path fill-rule="evenodd" clip-rule="evenodd" d="M91.1694 61.0586L89.5096 59.125L95.3516 54.1102C95.6258 53.8749 95.4125 53.4279 95.0564 53.4957L85.0385 55.3768C84.7706 55.4284 84.6579 55.7482 84.8351 55.9552L86.495 57.8888L80.6524 62.9044C80.3783 63.1396 80.5921 63.5858 80.9484 63.5194L90.9666 61.6362C91.2335 61.5861 91.3467 61.2656 91.1694 61.0586Z" fill="#F6B522"/>
<path fill-rule="evenodd" clip-rule="evenodd" d="M87.8762 74.0628L88.7388 71.6651L95.9843 74.2725C96.3243 74.3943 96.6069 73.9874 96.3735 73.7122L89.7922 65.9264C89.6168 65.7183 89.2828 65.7791 89.1902 66.0354L88.3276 68.4331L81.0827 65.8249C80.7427 65.7031 80.4596 66.1108 80.6929 66.386L87.2748 74.171C87.4493 74.3785 87.7842 74.3182 87.8762 74.0628Z" fill="#F6B522"/>
<path fill-rule="evenodd" clip-rule="evenodd" d="M8.42559 16.5319L8.15253 19.0654L0.496975 18.2409C0.1381 18.2026 -0.0410839 18.6648 0.251377 18.8778L8.48266 24.8901C8.70181 25.0507 9.01369 24.9141 9.04309 24.6434L9.31492 22.1094L16.9705 22.9339C17.3306 22.9727 17.5089 22.5108 17.2173 22.2975L8.98569 16.2843C8.76564 16.1241 8.45499 16.2612 8.42559 16.5319Z" fill="#F6B522"/>
<path fill-rule="evenodd" clip-rule="evenodd" d="M20.1578 10.0306L17.8198 11.0433L14.7597 3.97762C14.6156 3.64619 14.1258 3.71862 14.0837 4.07797L12.9163 14.2051C12.8841 14.4738 13.1574 14.6768 13.407 14.5693L15.7449 13.5567L18.8047 20.6214C18.9491 20.9537 19.4386 20.8804 19.4802 20.5223L20.6488 10.3957C20.6803 10.1252 20.407 9.92222 20.1578 10.0306Z" fill="#F6B522"/>
<path d="M31.9342 9.70295C33.7055 8.45422 35.8221 7.39147 38.1602 6.50585L38.0096 6.54127C38.0096 6.54127 45.5197 2.3877 56.7228 2.3877C67.8905 2.3877 75.4892 6.41728 75.5335 6.44385C77.9424 7.33833 80.1033 8.41879 81.9188 9.69409C90.6599 15.8492 89.9426 29.0715 86.1078 41.5323C83.3358 50.601 70.1312 54.7281 56.9354 54.5244C43.7396 54.7281 30.5349 50.601 27.7452 41.5323C23.9105 29.0804 23.1931 15.858 31.9342 9.70295Z" fill="#F89E1C"/>
<path d="M31.9344 9.74619C32.8643 9.09083 33.8917 8.48861 34.9898 7.93066C26.4258 14.1566 27.1521 27.3081 30.9602 39.7068C33.75 48.7933 46.9457 52.9204 60.1504 52.7255C67.6516 52.8406 75.1529 51.5476 80.75 48.7491C75.0554 52.8938 65.9955 54.8067 56.9267 54.665C43.7309 54.8687 30.5263 50.7329 27.7366 41.6464C23.9107 29.1679 23.1933 15.919 31.9344 9.74619Z" fill="#F5851F"/>
<path d="M36.0171 20.835C30.6591 19.7191 30.3048 11.1817 30.2871 10.8097L30.9248 10.792C30.9248 10.8717 31.279 19.1966 36.1411 20.2062L36.0171 20.835Z" fill="#F89E1C"/>
<path d="M76.6935 21.1628L76.5164 20.5518C81.8478 19.0019 82.1578 10.3405 82.1578 10.252L82.7954 10.2697C82.7866 10.6416 82.4677 19.489 76.6935 21.1628Z" fill="#F4B821"/>
<path d="M57.1214 9.97788C54.1192 9.97788 51.3294 8.99484 49.6999 7.33872C49.6468 7.28558 49.5936 7.23244 49.5405 7.17045L46.6179 3.87593L47.3353 3.23828L50.2578 6.52395C50.2933 6.56823 50.3375 6.61251 50.3818 6.65679C51.9671 8.26862 54.8188 9.15425 57.8388 8.99484C60.7702 8.83542 63.3208 7.71954 64.6581 6.028L66.7481 3.37112L67.5009 3.96449L65.4109 6.62136C63.9142 8.53431 61.0979 9.77418 57.8919 9.95131C57.6262 9.96902 57.3782 9.97788 57.1214 9.97788Z" fill="#F4B821"/>
<path d="M57.1037 13.4407C53.1273 13.4407 49.5228 12.1034 47.229 9.76535C47.1493 9.68564 47.0608 9.59708 46.9811 9.50852L46.8925 9.4111L42.8806 4.90327L43.598 4.26562L47.6895 8.87087C47.7604 8.95057 47.8312 9.03028 47.911 9.10113C50.0276 11.2443 53.3841 12.4842 57.1037 12.4842C57.4048 12.4842 57.7148 12.4754 58.0248 12.4576C61.9924 12.2362 65.402 10.6775 67.3681 8.17123L70.3527 4.3719L71.1054 4.96527L68.1209 8.76459C65.9865 11.4835 62.3201 13.175 58.0779 13.4141C57.7591 13.4318 57.4314 13.4407 57.1037 13.4407Z" fill="#F4B821"/>
<path d="M81.4231 12.0321C79.6076 10.748 77.4467 9.64981 75.0378 8.75533C74.9846 8.72876 67.3683 4.08809 56.2006 4.08809C48.8499 4.07924 42.4291 5.31025 38.8689 6.1516C41.1272 5.08885 47.734 2.3877 56.7319 2.3877C67.8996 2.3877 75.4983 6.45271 75.5426 6.47928C77.9515 7.38261 80.1124 8.47193 81.9279 9.75609C89.7214 15.2912 89.996 26.4944 87.2417 37.7595C89.4203 27.2914 88.6941 17.1953 81.4231 12.0321Z" fill="#F4B821"/>
<path d="M77.2163 20.7287L77.1543 20.4187C82.1492 19.3826 82.6894 10.4909 82.6983 10.4023L83.0171 10.4201C82.9906 10.792 82.4503 19.6394 77.2163 20.7287Z" fill="#10319B"/>
<path d="M67.74 8.43565L70.7246 4.63633C69.6795 4.29979 68.4662 3.9544 67.1112 3.63557L65.0211 6.29244C63.6041 8.09911 60.9207 9.26814 57.8564 9.44526C54.7036 9.62239 51.7102 8.67477 50.0364 6.96552C49.9832 6.91238 49.939 6.8681 49.8947 6.81496L46.9721 3.5293C45.5817 3.83927 44.333 4.19351 43.2437 4.53891L47.2555 9.04673L47.3441 9.14415C47.4238 9.22386 47.4946 9.31242 47.5744 9.39213C49.7796 11.6328 53.2866 12.9169 57.1037 12.9169C57.4136 12.9169 57.7325 12.9081 58.0513 12.8903C62.1517 12.6778 65.6854 11.0482 67.74 8.43565Z" fill="#032663"/>
<path d="M36.5394 20.729C31.3053 19.6397 30.7297 10.8809 30.7031 10.5089L31.0219 10.4912C31.0308 10.5798 31.6065 19.3829 36.6014 20.4191L36.5394 20.729Z" fill="#10319B"/>
<path d="M56.8648 54.4084C50.3377 54.5058 43.8195 53.6025 38.4172 51.6187C37.1596 50.2725 36.1589 48.5367 35.5744 46.5175C34.0777 41.3366 32.395 34.0922 31.7485 25.9533C31.4297 21.9503 33.688 18.3192 36.9294 17.5399C41.3486 16.4771 48.1679 15.2461 56.2625 15.1221V15.1133C56.4928 15.1133 56.7142 15.1221 56.9445 15.1221C57.1747 15.1221 57.3961 15.1133 57.6264 15.1133V15.1221C65.721 15.2461 72.3809 16.2734 76.8002 17.3362C80.0415 18.1155 82.4593 21.9503 82.1405 25.9533C81.494 34.0922 79.8113 41.3366 78.3146 46.5175C77.7389 48.4924 76.7736 50.1928 75.5514 51.539C70.0871 53.5759 63.4715 54.5058 56.8648 54.4084Z" fill="#032663"/>
<path d="M79.4038 49.5212L78.1196 50.2209C78.3587 49.5124 78.7573 48.3168 79.023 47.4754C79.7315 45.2614 80.5374 42.7462 81.2547 41.0635C82.4149 38.3447 85.6386 36.29 87.7552 35.2627L87.3921 36.6531C85.4172 37.6185 83.1765 38.9912 82.1315 41.4443C81.4319 43.0916 80.6348 45.5802 79.9263 47.7766C79.6695 48.609 79.6429 48.8127 79.4038 49.5212Z" fill="#F4B821"/>
<path d="M34.8567 49.7242C34.7858 49.7242 34.7238 49.6799 34.7061 49.618C34.4936 48.9892 34.2722 48.2984 34.0419 47.5987C33.3511 45.4644 32.5629 43.0378 31.8278 41.3108C30.7562 38.8045 28.4536 37.4141 26.337 36.3779C26.2573 36.3425 26.2218 36.245 26.2661 36.1653C26.3015 36.0856 26.399 36.0502 26.4787 36.0945C28.6484 37.1484 31.0131 38.5831 32.1289 41.1868C32.8729 42.9315 33.6611 45.3581 34.3519 47.5013C34.5821 48.201 34.8035 48.8829 35.0072 49.5205C35.0338 49.6002 34.9895 49.6977 34.9098 49.7242C34.8921 49.7242 34.8744 49.7242 34.8567 49.7242Z" fill="#F89E1C"/>
<path d="M87.4983 36.6084C87.1175 38.2557 86.6747 39.9118 86.1699 41.5502C85.1337 44.9333 82.6805 47.6256 79.324 49.6802C80.1919 47.0853 80.9181 44.1893 81.8923 41.8956C83.0525 39.1944 85.6296 37.5117 87.4983 36.6084Z" fill="#032663"/>
<path d="M85.2225 41.7543C85.5768 40.7978 85.9044 39.8413 86.2144 38.876C85.2225 39.5136 84.204 40.4347 83.5841 41.7188C82.9199 43.0827 82.3354 44.7654 81.7332 46.3684C83.3096 45.155 84.5229 43.6229 85.2225 41.7543Z" fill="#0E51A0"/>
<path d="M79.5277 49.6621L79.2266 49.5647C79.5277 48.6702 79.8111 47.7226 80.0856 46.8104C80.6081 45.0746 81.1572 43.2856 81.7949 41.7712C82.9462 39.0612 85.5233 37.3608 87.4717 36.4043L87.6134 36.6877C85.7093 37.6176 83.2119 39.2649 82.0871 41.8863C81.4495 43.383 80.9092 45.1631 80.3867 46.8901C80.1122 47.82 79.8288 48.7676 79.5277 49.6621Z" fill="#10319B"/>
<path d="M26.3372 36.6084C26.718 38.2557 27.1608 39.9118 27.6656 41.5502C28.7018 44.9333 31.155 47.6256 34.5115 49.6802C33.6436 47.0853 32.9173 44.1893 31.9432 41.8956C30.7918 39.1944 28.2058 37.5117 26.3372 36.6084Z" fill="#032663"/>
<path d="M57.8033 54.6663C57.5111 54.6663 57.2188 54.6663 56.9354 54.6574C45.3072 54.8346 30.659 51.5135 27.5947 41.5679C24.8493 32.6585 21.7584 16.6642 31.8457 9.56148L31.9343 9.69432L31.8457 9.56148C33.6081 8.32161 37.8857 6.43523 38.0716 6.35552C38.1336 6.3201 45.6171 2.22852 56.7317 2.22852C67.8817 2.22852 75.5424 6.2581 75.6221 6.30238C78.093 7.21458 80.2539 8.31275 82.0251 9.56148C92.1124 16.6642 89.0216 32.6585 86.2761 41.5591C83.2827 51.2655 69.2722 54.6663 57.8033 54.6663ZM56.9266 54.3386C57.21 54.3386 57.5022 54.3475 57.7945 54.3475C69.157 54.3475 83.0259 51.0087 85.9662 41.4705C88.685 32.6497 91.7581 16.8147 81.8392 9.82717C80.0856 8.59615 77.9513 7.50683 75.4892 6.59464C75.3918 6.5415 67.7932 2.5562 56.7317 2.5562C45.7057 2.5562 38.2842 6.6035 38.2133 6.64778C38.1602 6.67435 33.7764 8.60501 32.0317 9.82717C22.1038 16.8059 25.1858 32.6497 27.8958 41.4705C30.9069 51.2478 45.4223 54.5157 56.9266 54.3386Z" fill="#10319B"/>
<path d="M56.9352 53.0105C51.338 53.0902 45.7498 52.3905 40.9851 50.8584C40.25 50.6193 39.5858 50.1765 39.1253 49.5565C38.3371 48.5115 37.7171 47.2805 37.3009 45.9078C35.9193 41.2494 34.3695 34.7224 33.7761 27.3982C33.4839 23.7938 35.5651 20.5258 38.5496 19.8262C42.6235 18.8697 48.9114 17.7627 56.3772 17.6475V17.6387C56.5898 17.6387 56.7935 17.6387 57.006 17.6475C57.2186 17.6475 57.4223 17.6387 57.6348 17.6387V17.6475C65.1006 17.7627 71.3797 18.8697 75.4624 19.8262C78.4558 20.5258 80.5282 23.7938 80.2359 27.3982C79.6337 34.7224 78.0927 41.2494 76.7111 45.9078C76.3038 47.2716 75.6927 48.4849 74.9133 49.5211C74.4705 50.1145 73.8506 50.5396 73.1509 50.7699C68.3154 52.3728 62.6297 53.099 56.9352 53.0105Z" fill="#FCE8CA"/>
<path d="M55.8728 54.4806C49.4166 54.4806 43.3767 53.5152 38.3552 51.6731L38.3197 51.6643L38.2932 51.6377C36.9825 50.2296 35.9906 48.4406 35.4149 46.4657C34.0422 41.701 32.2532 34.2529 31.5801 25.8306C31.2525 21.7302 33.5285 18.0371 36.885 17.2312C41.3929 16.1508 61.408 12.9802 76.9861 17.2312C80.3249 18.1434 82.6009 21.8365 82.2821 25.8306C81.609 34.2529 79.8289 41.701 78.4474 46.4657C77.8894 48.4052 76.9152 50.1676 75.6488 51.558L75.6222 51.5846L75.5868 51.6023C70.3439 53.5684 63.6929 54.5957 56.8558 54.4894C56.5282 54.4806 56.2005 54.4806 55.8728 54.4806ZM56.8647 54.1529C63.6486 54.2591 70.2376 53.2407 75.4451 51.3012C76.6672 49.9462 77.606 48.2458 78.1462 46.3682C79.519 41.6213 81.2991 34.1909 81.9633 25.7952C82.2733 21.9516 80.0946 18.4002 76.8975 17.5323C61.3814 13.2991 41.446 16.4607 36.9559 17.5323C33.7588 18.3028 31.5801 21.8542 31.899 25.7952C32.572 34.1909 34.3433 41.6213 35.716 46.3682C36.274 48.29 37.2304 50.0259 38.4969 51.3897C43.6601 53.2673 50.1782 54.2591 56.8647 54.1529Z" fill="#10319B"/>
<path d="M34.3696 49.5557C34.0774 48.6878 33.8028 47.7845 33.5371 46.9077C33.0146 45.1896 32.4655 43.4184 31.819 41.8951C30.7031 39.2737 28.1968 37.6175 26.2927 36.6965L26.4344 36.4131C28.3828 37.3607 30.9511 39.0611 32.1113 41.78C32.7666 43.3121 33.3157 45.1011 33.8382 46.8192C34.1039 47.6959 34.3785 48.5993 34.6707 49.4583L34.3696 49.5557Z" fill="#10319B"/>
<path d="M82.8135 36.5368L86.9139 34.1456C86.9139 34.1456 88.0829 22.3668 84.2748 17.0088L83.1766 20.383C83.1766 20.383 84.939 22.9425 82.8135 36.5368Z" fill="#F4B821"/>
<path d="M44.8102 28.7789C44.8552 28.7712 44.9051 28.7473 44.945 28.7097C45.5297 28.2012 46.2981 28.0009 47.059 28.1646C47.2267 28.1978 47.3863 28.0934 47.4208 27.9332C47.454 27.7656 47.3497 27.6059 47.1895 27.5714C46.2446 27.3696 45.2839 27.618 44.5508 28.2521C44.4236 28.3663 44.4093 28.554 44.5235 28.6811C44.5851 28.7709 44.699 28.8056 44.8102 28.7789Z" fill="#032663"/>
<path d="M69.2433 28.8479C69.1957 28.8405 69.1531 28.8169 69.108 28.7783C68.5272 28.2676 67.7587 28.059 66.9989 28.2192C66.8352 28.2548 66.671 28.1516 66.6342 27.9804C66.5986 27.8167 66.7018 27.6525 66.873 27.6156C67.819 27.416 68.7802 27.669 69.5065 28.3093C69.6332 28.4189 69.6426 28.6102 69.533 28.7368C69.4646 28.8334 69.3471 28.8688 69.2433 28.8479Z" fill="#032663"/>
<path fill-rule="evenodd" clip-rule="evenodd" d="M43.9037 31.7006C44.193 31.3535 44.7088 31.3066 45.0559 31.5959L51.6005 37.0497C51.9476 37.339 51.9945 37.8548 51.7053 38.2019C51.416 38.549 50.9002 38.5959 50.5531 38.3066L44.0085 32.8528C43.6614 32.5636 43.6145 32.0477 43.9037 31.7006Z" fill="#0E51A0"/>
<path fill-rule="evenodd" clip-rule="evenodd" d="M51.7049 31.7006C51.4157 31.3535 50.8998 31.3066 50.5527 31.5959L44.0081 37.0497C43.661 37.339 43.6141 37.8548 43.9034 38.2019C44.1926 38.549 44.7085 38.5959 45.0556 38.3066L51.6002 32.8528C51.9472 32.5636 51.9941 32.0477 51.7049 31.7006Z" fill="#0E51A0"/>
<path fill-rule="evenodd" clip-rule="evenodd" d="M62.4467 31.7006C62.736 31.3535 63.2518 31.3066 63.5989 31.5959L70.1435 37.0497C70.4906 37.339 70.5375 37.8548 70.2482 38.2019C69.959 38.549 69.4431 38.5959 69.096 38.3066L62.5515 32.8528C62.2044 32.5636 62.1575 32.0477 62.4467 31.7006Z" fill="#0E51A0"/>
<path fill-rule="evenodd" clip-rule="evenodd" d="M70.2476 31.7006C69.9584 31.3535 69.4425 31.3066 69.0954 31.5959L62.5509 37.0497C62.2038 37.339 62.1569 37.8548 62.4461 38.2019C62.7353 38.549 63.2512 38.5959 63.5983 38.3066L70.1429 32.8528C70.49 32.5636 70.5369 32.0477 70.2476 31.7006Z" fill="#0E51A0"/>
<path d="M58.1663 43.6768H62.5293V46.4037C62.5293 47.6085 61.5526 48.5852 60.3478 48.5852C59.143 48.5852 58.1663 47.6085 58.1663 46.4037V43.6768Z" fill="#D92037"/>
<path fill-rule="evenodd" clip-rule="evenodd" d="M50.531 43.404C50.531 42.9522 50.8757 42.5859 51.301 42.5859H62.8502C63.2755 42.5859 63.6202 42.9522 63.6202 43.404C63.6202 43.8558 63.2755 44.2221 62.8502 44.2221H51.301C50.8757 44.2221 50.531 43.8558 50.531 43.404Z" fill="#0E51A0"/>
</g>
</svg>
