<svg width="80" height="80" viewBox="0 0 80 80" fill="none" xmlns="http://www.w3.org/2000/svg">
<mask id="mask0_12159_680603" style="mask-type:alpha" maskUnits="userSpaceOnUse" x="0" y="0" width="80" height="80">
<rect width="80" height="80" fill="#D9D9D9"/>
</mask>
<g mask="url(#mask0_12159_680603)">
<path d="M2.13049 36.7048C2.09519 36.6624 2.09519 36.5989 2.13049 36.5636C2.17285 36.5283 2.23638 36.5283 2.27168 36.5636C2.30698 36.6059 2.30698 36.6695 2.27168 36.7048C2.22932 36.7471 2.16579 36.7471 2.13049 36.7048Z" fill="white"/>
<path d="M9.45808 22.4577C9.42279 22.4153 9.42279 22.3518 9.45808 22.3165C9.50044 22.2812 9.56397 22.2812 9.59927 22.3165C9.63457 22.3589 9.63457 22.4224 9.59927 22.4577C9.55692 22.493 9.49338 22.493 9.45808 22.4577Z" fill="white"/>
<path d="M34.5376 54.8435C31.1589 48.4028 34.8895 40.7867 41.83 40.0335L44.5118 39.7449C44.5329 39.7449 44.547 39.7379 44.5681 39.7379L51.2622 39.0129L57.921 38.0696C57.9422 38.0696 57.9562 38.0696 57.9773 38.0626L60.6451 37.6825C67.5433 36.7041 73.5898 43.0955 72.4283 50.1063C72.0482 52.3939 71.5907 54.5338 71.0768 56.5399C70.8094 57.7084 70.4363 59.0035 69.9999 60.348C68.1205 66.3804 65.8539 71.0331 64.1505 74.8271C64.0872 74.9749 64.0168 75.1157 63.9393 75.2565C62.8061 77.6849 60.4621 79.0786 57.914 79.3602C55.38 79.7192 52.684 78.959 50.8046 76.9036C50.685 76.7839 50.5724 76.6713 50.4668 76.5446C47.609 73.3278 43.9346 69.4142 40.1758 64.0857C39.3241 62.9031 38.5427 61.7558 37.9092 60.6929C36.7689 58.8909 35.6427 56.9481 34.5376 54.8435Z" fill="#F89E1C"/>
<path d="M56.7105 79.5431C54.4158 79.5431 52.2337 78.621 50.7203 76.9668C50.6077 76.8542 50.488 76.7345 50.3754 76.6078C49.9671 76.1433 49.5378 75.6646 49.0943 75.1719C46.511 72.293 43.3013 68.7031 40.0844 64.1418C39.1764 62.8819 38.4092 61.7416 37.8108 60.742C36.6142 58.8485 35.4739 56.8776 34.4321 54.8926C32.7639 51.7181 32.7358 48.0015 34.3618 44.9607C35.8822 42.1099 38.5992 40.2727 41.816 39.9208L51.2482 38.8931L60.6312 37.5627C63.8902 37.0981 67.1281 38.2385 69.5214 40.688C71.9709 43.1939 73.0972 46.7204 72.5411 50.1132C72.1821 52.2741 71.7246 54.4422 71.1896 56.5538C70.9362 57.659 70.5772 58.94 70.1056 60.369C68.4937 65.5356 66.5721 69.766 65.0235 73.1658C64.756 73.75 64.5026 74.3131 64.2562 74.8622C64.1929 74.9959 64.1295 75.1367 64.0451 75.2986C62.9681 77.6003 60.6804 79.1559 57.9352 79.4586C57.5199 79.5149 57.1117 79.5431 56.7105 79.5431ZM34.6363 54.7941C35.678 56.772 36.8113 58.7359 38.008 60.6294C38.6063 61.6219 39.3665 62.7622 40.2745 64.0151C43.4842 68.5693 46.694 72.1522 49.2703 75.0241C49.7137 75.5168 50.1431 75.9954 50.5514 76.46C50.664 76.5797 50.7766 76.6993 50.8893 76.819C52.6208 78.7125 55.2393 79.6205 57.9 79.2475C60.5748 78.9518 62.7921 77.4455 63.8409 75.2071C63.9254 75.0452 63.9958 74.9115 64.0521 74.7777C64.2985 74.2287 64.5519 73.6656 64.8194 73.0813C66.3609 69.6885 68.2825 65.4652 69.8945 60.3126C70.359 58.8908 70.718 57.6097 70.9714 56.5116C71.5134 54.3999 71.9639 52.239 72.3229 50.085C72.8719 46.7626 71.7668 43.3065 69.3665 40.8499C67.0226 38.4496 63.855 37.3375 60.6664 37.788L51.2834 39.1183L41.8442 40.146C38.7048 40.4839 36.0511 42.2788 34.5659 45.0733C32.9751 48.0437 33.0032 51.6829 34.6363 54.7941Z" fill="#10319B"/>
<path d="M46.9616 68.4282C44.0897 64.233 49.2 61.5864 51.9452 63.2476C56.971 66.2954 58.6885 63.0998 60.9551 57.0181C63.0034 51.5207 70.3732 51.9712 71.3727 54.7375C71.1334 55.9059 71.3235 55.5047 71.0489 56.5887C70.7815 57.7572 70.4084 59.0523 69.972 60.3968C68.0926 66.4292 65.826 71.0819 64.1226 74.8759C64.0593 75.0238 63.9889 75.1645 63.9114 75.3053C62.7782 77.7338 60.4342 79.1275 57.8861 79.409C55.3521 79.768 52.6561 79.0078 50.7767 76.9524C50.6571 76.8328 50.5444 76.7201 50.4388 76.5934C49.5097 75.5446 48.482 74.4184 47.4051 73.1936C49.3056 72.6235 49.3196 71.8703 46.9616 68.4282Z" fill="#032663"/>
<path d="M36.1142 44.5522C37.5783 42.8066 39.6196 41.61 42.0762 41.3495L44.7722 41.0609C44.7933 41.0609 44.8074 41.0539 44.8285 41.0539L51.5577 40.3359L58.2518 39.3786C58.2729 39.3786 58.287 39.3786 58.3081 39.3716L60.99 38.9844C64.7065 38.4495 67.1842 40.9624 69.4649 43.8976C69.9787 44.5593 69.7394 45.5307 69.0073 45.777C62.8553 47.8676 48.6225 51.1196 36.1142 44.5522Z" fill="#E26907"/>
<path d="M35.3051 48.959C36.1568 49.7825 40.2183 51.4156 40.2183 51.4156C40.2183 51.4156 39.437 52.9642 40.1831 55.653C40.7462 57.6662 42.5482 59.1444 42.5482 59.1444C41.8936 61.1716 43.2098 64.135 44.7373 66.2537C46.2647 68.3795 45.7016 69.2382 45.7016 69.2382C45.7016 69.2382 37.5083 59.433 35.291 53.3443C34.3971 50.8736 35.3051 48.959 35.3051 48.959Z" fill="#F4B821"/>
<path d="M70.1058 54.7228C70.1058 54.7228 68.1701 54.6313 67.3817 56.0673C66.5933 57.5032 62.5178 69.8566 60.4131 74.3545C60.033 75.164 59.1602 77.8951 57.6398 77.5643C57.6398 77.5643 59.8289 78.4793 62.2714 75.0584C64.721 71.6375 68.9866 58.6224 70.1058 54.7228Z" fill="#0E51A0"/>
<path d="M41.2104 60.3409C40.8022 60.3409 40.3939 60.2494 40.0067 60.0664C38.8524 59.5173 38.1062 58.2785 38.0499 56.8355L37.7824 49.2123C37.7332 47.7271 38.4089 46.3826 39.5633 45.6999C40.4924 45.1508 41.5553 45.1508 42.4774 45.6999L48.2916 49.163C49.2418 49.7262 49.8683 50.8031 49.9669 52.042C50.0725 53.3653 49.5797 54.6253 48.6506 55.4066C48.6224 55.4277 48.5943 55.4559 48.5591 55.477L48.5239 55.5051L42.9842 59.7285C42.4352 60.1297 41.8228 60.3409 41.2104 60.3409ZM41.0204 45.7914C40.6121 45.7914 40.1968 45.904 39.8167 46.1292C38.8242 46.7135 38.24 47.889 38.2822 49.1842L38.5497 56.8073C38.5919 58.0673 39.2325 59.1372 40.2179 59.6018C41.0274 59.989 41.9213 59.8763 42.6675 59.3062L48.2423 55.0617C48.2705 55.0406 48.2916 55.0195 48.3198 54.9983C49.1222 54.3226 49.5516 53.2245 49.4601 52.0631C49.3756 50.9932 48.8406 50.064 48.0312 49.5783L42.217 46.1152C41.8298 45.904 41.4286 45.7914 41.0204 45.7914Z" fill="#F89E1C"/>
<path d="M41.1818 60.3908C40.7876 60.3908 40.3864 60.2993 40.0063 60.1163C38.866 59.5743 38.1269 58.3495 38.0776 56.9206L37.8031 49.1074C37.7538 47.6362 38.4225 46.3059 39.5628 45.6301C40.4708 45.0881 41.5126 45.0881 42.4136 45.6301L48.3686 49.1778C49.3047 49.7338 49.9242 50.7967 50.0227 52.0215C50.1283 53.3378 49.6426 54.5837 48.7205 55.3509C48.6924 55.3721 48.6642 55.4002 48.6361 55.4213L48.6009 55.4495L42.9275 59.7714C42.3784 60.1867 41.7871 60.3908 41.1818 60.3908ZM40.9917 45.4894C40.5483 45.4894 40.1048 45.609 39.6895 45.8554C38.6337 46.4818 38.0072 47.7277 38.0565 49.1074L38.331 56.9206C38.3803 58.258 39.0631 59.3983 40.1119 59.8981C40.9847 60.3134 41.9561 60.2008 42.7585 59.5814L48.4671 55.2313C48.4953 55.2102 48.5234 55.189 48.5445 55.1679C49.4033 54.45 49.8538 53.2815 49.7552 52.0497C49.6637 50.9094 49.0936 49.9169 48.2278 49.403L42.2728 45.8554C41.8716 45.609 41.4282 45.4894 40.9917 45.4894Z" fill="#10319B"/>
<path d="M41.3512 58.4976C41.0344 58.4976 40.7247 58.4273 40.422 58.2865C39.5351 57.8641 38.9579 56.9209 38.9227 55.8088L38.7186 50.1002C38.6763 48.9669 39.1972 47.9392 40.0842 47.4183C40.8021 46.996 41.6186 46.996 42.3296 47.4183L46.6796 50.0087C47.4117 50.4451 47.8904 51.2686 47.9678 52.2119C48.0523 53.2255 47.6721 54.1828 46.9612 54.7811L46.8908 54.8374L46.736 54.6333L46.8768 54.8444L42.7167 58.012C42.2944 58.3357 41.8228 58.4976 41.3512 58.4976ZM41.2104 47.6013C40.9148 47.6013 40.6191 47.6858 40.3375 47.8477C39.6196 48.2771 39.1902 49.1288 39.2254 50.079L39.4295 55.7876C39.4647 56.7027 39.9293 57.484 40.6402 57.8219C41.2245 58.0964 41.8721 58.019 42.407 57.6107L46.553 54.4502L46.7289 54.6333L46.5741 54.4362L46.6304 54.3939C47.2146 53.9012 47.5243 53.0988 47.461 52.2541C47.3976 51.4728 47.0105 50.797 46.4192 50.4451L42.0691 47.8547C41.7946 47.6858 41.499 47.6013 41.2104 47.6013Z" fill="#F89E1C"/>
<path d="M46.6942 54.5899C46.7153 54.5758 46.7364 54.5547 46.7576 54.5406C48.0598 53.4496 47.9472 51.1267 46.5182 50.275L42.2667 47.741C40.7956 46.8681 39.0429 48.1985 39.1132 50.1483L39.3104 55.7302C39.3807 57.6729 41.2179 58.771 42.6187 57.7011L46.6731 54.611C46.6731 54.5969 46.6801 54.5899 46.6942 54.5899Z" fill="#032663"/>
<path d="M45.962 53.6747C45.9761 53.6677 45.9831 53.6536 45.9972 53.6465C46.7292 53.0342 46.6659 51.7249 45.8634 51.2392L43.4632 49.8103C42.6326 49.3176 41.6471 50.0708 41.6823 51.1618L41.7949 54.3082C41.8371 55.4063 42.8719 56.0187 43.6602 55.4204L45.9479 53.6817C45.9479 53.6817 45.955 53.6817 45.962 53.6747Z" fill="#33FCFE"/>
<path d="M69.7677 46.0943C72.0131 48.6424 76.8419 55.0478 78.5946 64.5997C78.7635 65.5288 77.7429 66.2186 76.9404 65.7189L76.314 65.3247C69.9578 61.3477 66.741 53.8442 68.2543 46.5025C68.4022 45.7986 69.2961 45.5593 69.7677 46.0943Z" fill="#F5851F"/>
<path d="M68.2612 46.5027C68.409 45.7988 69.2959 45.5595 69.7675 46.1015C71.7384 48.3399 75.7155 53.5699 77.8342 61.2916C75.1031 54.7454 69.8801 49.5013 68.043 47.7909C68.0993 47.3545 68.1697 46.9321 68.2612 46.5027Z" fill="#F89E1C"/>
<path d="M75.7229 60.4122C74.2517 60.4122 72.1752 59.8279 69.064 56.4985L68.874 55.7383C74.1109 61.3343 77.2362 59.5182 77.2644 59.4971L77.5811 59.8913C77.5178 59.9335 76.8843 60.4122 75.7229 60.4122Z" fill="#F89E1C"/>
<path d="M78.123 62.3413C78.123 62.3413 75.8494 64.8401 71.985 61.377C71.985 61.377 75.8917 66.0367 77.9752 65.713C77.9752 65.713 79.3197 65.5018 78.123 62.3413Z" fill="#032663"/>
<path d="M77.5246 66.0143C77.2993 66.0143 77.0811 65.951 76.877 65.8243L76.2505 65.4301C69.8802 61.446 66.6212 53.8299 68.1346 46.4742C68.212 46.1011 68.4865 45.8055 68.8596 45.7069C69.2256 45.6084 69.6128 45.728 69.8662 46.0096C71.9356 48.3606 76.9403 54.8787 78.7282 64.5713C78.8127 65.05 78.6226 65.5146 78.2144 65.7891C78.0032 65.9369 77.7639 66.0143 77.5246 66.0143ZM69.1201 45.9251C69.0567 45.9251 68.9863 45.9322 68.9229 45.9533C68.6414 46.0307 68.4373 46.2419 68.381 46.5234C66.8887 53.7736 70.1055 61.2912 76.3842 65.2119L77.0107 65.6061C77.3415 65.8102 77.7428 65.8032 78.0665 65.5849C78.3833 65.3667 78.5382 65.0007 78.4748 64.6206C76.701 54.9843 71.7315 48.5155 69.6761 46.1785C69.5283 46.0166 69.3312 45.9251 69.1201 45.9251Z" fill="#10319B"/>
<path d="M75.7863 63.2906C74.7375 63.2906 73.393 62.8894 71.8374 61.5309L72.0064 61.3408C75.6385 64.5084 77.9402 62.3474 78.0387 62.2559L78.2147 62.4389C78.1936 62.4459 77.3067 63.2906 75.7863 63.2906Z" fill="#10319B"/>
<path d="M75.7438 60.6015C74.3361 60.6015 72.2384 59.961 69.1624 56.8005L69.1906 56.54C74.5472 62.0515 77.3276 59.9258 77.3558 59.9047L77.5177 60.1018C77.4614 60.144 76.8701 60.6015 75.7438 60.6015Z" fill="#10319B"/>
<path d="M46.1098 51.4368L2.48474 19.418V79.5432L42.9705 55.6601L46.1098 51.4368Z" fill="url(#paint0_radial_12159_680603)"/>
<path d="M27.7695 41.1813C26.9777 40.4204 25.9242 39.999 24.8034 39.999H14.2753C11.9467 39.999 10.0289 41.7867 10.0003 43.9859C9.98701 45.0865 10.4213 46.1192 11.2274 46.8949C11.5155 47.1725 11.8394 47.4048 12.1848 47.5879C12.1868 47.5899 12.1879 47.5909 12.1899 47.5909C12.2083 47.5988 12.2267 47.6086 12.2471 47.6184C12.3902 47.6864 12.5506 47.7257 12.7192 47.7257C13.088 47.7257 13.4119 47.5476 13.604 47.2749C13.606 47.2749 13.606 47.2729 13.6071 47.2719C13.6234 47.2473 13.6387 47.2237 13.6541 47.1991C13.6561 47.1961 13.6571 47.1912 13.6612 47.1873C13.7419 47.0426 13.7889 46.8742 13.7889 46.697C13.7889 46.3072 13.5631 45.9646 13.229 45.7914C13.227 45.7914 13.227 45.7914 13.226 45.7894C13.0492 45.6969 12.8857 45.5817 12.7406 45.4399C12.3442 45.058 12.1306 44.552 12.1378 44.0115C12.1531 42.9336 13.1105 42.0565 14.2763 42.0565H24.7472C25.2969 42.0565 25.8343 42.2415 26.2297 42.6087C26.6374 42.9887 26.8612 43.4937 26.8612 44.0371V44.0647C26.8459 45.1495 25.8752 46.0325 24.6992 46.0207C23.0347 46.004 21.6911 47.3369 21.6911 48.9395V57.8279C21.6911 58.3929 21.4633 58.9225 21.0495 59.3203C20.6112 59.7426 20.0196 59.965 19.3983 59.9385C18.2152 59.8863 17.3058 58.9088 17.3058 57.7698V52.4854C17.3058 52.0405 17.0095 51.6683 16.5998 51.5325C16.4833 51.4931 16.3576 51.4724 16.2258 51.4754H16.1992C16.0695 51.4784 15.9469 51.503 15.8335 51.5473C15.4442 51.6949 15.1693 52.0601 15.1693 52.4854V57.7344C15.1693 60.0399 17.0698 61.9811 19.4627 61.9989C20.6336 62.0087 21.7361 61.5716 22.5596 60.7782C23.378 59.9906 23.8297 58.9422 23.8297 57.8279V48.9395C23.8297 48.4611 24.2373 48.0811 24.7349 48.0792C25.8956 48.0762 26.9521 47.6293 27.7225 46.9106C28.498 46.1881 28.9844 45.1918 28.9997 44.0903C29.013 42.9926 28.5777 41.959 27.7695 41.1813Z" fill="#0055B8"/>
<path d="M18.5773 43.4015C18.4933 43.4384 18.3317 43.5101 18.2246 43.5533C18.2267 43.6429 18.2278 43.7705 18.2278 43.8243V45.1432C18.2278 45.1833 18.232 45.2138 18.2729 45.237C18.4723 45.3393 18.5563 45.5122 18.5563 45.7336C18.5542 45.9676 18.5542 46.2038 18.5542 46.441C18.5542 46.4916 18.5542 46.5106 18.5322 46.5169C18.5196 46.5232 18.5007 46.5232 18.4713 46.5232H17.8215C17.8215 46.286 17.8216 46.0509 17.8226 45.8137C17.8226 45.7452 17.8331 45.683 17.8562 45.6271C17.894 45.5164 17.9738 45.4289 18.0924 45.3667C18.1354 45.3435 18.1543 45.3161 18.1543 45.2665C18.1522 44.8058 18.1522 44.3451 18.1522 43.8844C18.1522 43.8665 18.1511 43.8496 18.149 43.8274C18.1218 43.8369 18.0987 43.8464 18.0787 43.8549C18.0126 43.8833 17.9475 43.9118 17.8814 43.9392V43.7631C17.8814 43.7452 17.8793 43.7283 17.8772 43.7062C17.8499 43.7157 17.8268 43.7252 17.8069 43.7336C17.6179 43.8159 17.4321 43.8949 17.2432 43.9772V45.3098C16.9021 45.1411 16.5263 45.0357 16.1295 45.0072C16.0581 45.0019 15.9847 44.9998 15.9122 44.9998C15.5385 44.9998 15.1827 45.0683 14.8521 45.1917V44.1016C14.7618 44.0626 14.6705 44.0235 14.5802 43.9845C14.3209 43.8728 14.0617 43.7621 13.8014 43.6503C13.7058 43.6092 13.6103 43.5681 13.5159 43.527C13.5033 43.5207 13.4917 43.5143 13.4749 43.5048C13.4676 43.4996 13.4581 43.4964 13.4476 43.4901C13.4844 43.4722 13.5075 43.4606 13.5316 43.45C13.6681 43.391 13.8056 43.3319 13.9441 43.2729C13.9998 43.2497 14.0554 43.2244 14.111 43.2012L14.1121 43.2002C14.7702 42.9165 15.4294 42.6319 16.0886 42.3472C16.1421 42.324 16.1904 42.3124 16.2481 42.3367C16.6921 42.5286 17.1351 42.7205 17.578 42.9113C17.9328 43.0641 18.2886 43.216 18.6424 43.3688C18.6445 43.3699 18.6455 43.3709 18.6476 43.372C18.6193 43.3846 18.5951 43.3952 18.5773 43.4015Z" fill="#0055B8"/>
<path d="M16.5098 50.728C16.5027 50.729 16.4936 50.73 16.4866 50.731C16.3515 50.751 16.2144 50.761 16.0733 50.761C15.9644 50.761 15.8595 50.754 15.7547 50.743C15.8656 50.698 15.9866 50.6739 16.1146 50.6699H16.1801C16.1983 50.6699 16.2174 50.6709 16.2346 50.6729C16.2497 50.6739 16.2648 50.6749 16.2799 50.6769C16.3031 50.6789 16.3273 50.6829 16.3505 50.6869C16.3696 50.6899 16.3878 50.6939 16.4059 50.698C16.419 50.701 16.4301 50.704 16.4432 50.707C16.4442 50.707 16.4463 50.708 16.4473 50.708C16.4493 50.709 16.4523 50.709 16.4543 50.71L16.4553 50.711C16.4584 50.711 16.4614 50.712 16.4634 50.713C16.4805 50.717 16.4946 50.722 16.5098 50.728Z" fill="#F7A81E"/>
<path d="M27.272 40.0861C27.1399 39.956 26.9998 39.8339 26.8546 39.7238C26.6319 39.5556 26.3949 39.4094 26.146 39.2913C25.6631 39.0991 25.1419 38.999 24.6066 38.999H14.2182C11.9207 38.999 10.0285 40.8169 10.0003 43.0531C9.98719 44.1723 10.4166 45.2224 11.211 46.0112C11.3844 46.1833 11.5709 46.3385 11.7675 46.4756C11.8834 46.5557 12.0034 46.6308 12.1264 46.6999C12.2201 46.7279 12.3199 46.7429 12.4227 46.7429C12.7857 46.7429 13.1062 46.5607 13.2958 46.2834C13.2968 46.2834 13.2968 46.2814 13.2988 46.2794C13.3159 46.2554 13.331 46.2294 13.3462 46.2054C13.3472 46.2014 13.3492 46.1973 13.3532 46.1933C13.4329 46.0472 13.4792 45.875 13.4792 45.6948C13.4792 45.3074 13.2655 44.9651 12.948 44.7859C12.9409 44.7809 12.9338 44.7779 12.9268 44.7739C12.9248 44.7739 12.9248 44.7739 12.9228 44.7719C12.7484 44.6778 12.5871 44.5607 12.4439 44.4165C12.0538 44.0291 11.8431 43.5136 11.8491 42.9641C11.8633 41.8669 12.8078 40.976 13.9591 40.976H24.289C24.6469 40.976 24.9987 41.0571 25.3092 41.2203C25.4393 41.2673 25.5653 41.3274 25.6842 41.3995C25.8022 41.4705 25.9121 41.5546 26.0139 41.6517C26.4171 42.0381 26.6379 42.5506 26.6379 43.1042V43.1322C26.6228 44.2343 25.6651 45.1323 24.5048 45.1213C23.787 45.1142 23.1307 45.3685 22.6176 45.7939C22.2073 46.1343 21.8898 46.5837 21.7083 47.0963C21.5984 47.4086 21.5379 47.7429 21.5379 48.0903V57.1285C21.5379 57.7031 21.3131 58.2416 20.9039 58.645C20.4714 59.0744 19.8887 59.3007 19.2748 59.2747C18.9592 59.2606 18.6639 59.1776 18.3997 59.0394C18.3221 59.0124 18.2475 58.9804 18.1749 58.9443C17.4441 58.5829 16.9491 57.8142 16.9491 56.9543V51.5808C16.9491 51.2235 16.7656 50.9121 16.4894 50.729C16.4965 50.728 16.5055 50.727 16.5126 50.726C16.4975 50.7199 16.4823 50.7159 16.4662 50.7109C16.4632 50.7099 16.4592 50.7089 16.4571 50.7079C16.4551 50.7069 16.4521 50.7069 16.4501 50.7059C16.4491 50.7059 16.4471 50.7049 16.4461 50.7049C16.4329 50.7009 16.4219 50.6979 16.4088 50.6959C16.3896 50.6909 16.3715 50.6879 16.3533 50.6849C16.3301 50.6799 16.3059 50.6769 16.2827 50.6749C16.2676 50.6729 16.2525 50.6719 16.2374 50.6709C16.2192 50.6689 16.2011 50.6679 16.1829 50.6679H16.1174C15.9894 50.6719 15.8684 50.6959 15.7575 50.741C15.3724 50.8911 15.1023 51.2625 15.1023 51.6949V57.0324C15.1023 58.5129 15.8503 59.8452 16.9965 60.631C17.1749 60.7542 17.3634 60.8623 17.561 60.9574C18.0308 61.1446 18.5419 61.2497 19.0782 61.2547C19.298 61.2567 19.5147 61.2427 19.7284 61.2116C20.6367 61.0835 21.4754 60.6671 22.1337 60.0134C22.9412 59.2126 23.3878 58.1465 23.3878 57.0134V47.9782C23.3878 47.4907 23.79 47.1043 24.28 47.1033C25.4252 47.0993 26.4675 46.6458 27.2276 45.9141C27.2801 45.863 27.3325 45.811 27.3819 45.7579C27.6561 45.4656 27.8879 45.1353 28.0674 44.7749C28.3285 44.2504 28.4787 43.6648 28.4867 43.0461C28.4978 41.929 28.0694 40.8769 27.272 40.0861Z" fill="#F7A81E"/>
<path d="M18.3742 43.347C18.2935 43.3821 18.1383 43.4501 18.0354 43.4912C18.0375 43.5763 18.0385 43.6974 18.0385 43.7485V45.0007C18.0385 45.0388 18.0425 45.0678 18.0818 45.0898C18.2734 45.1869 18.354 45.3511 18.354 45.5613C18.352 45.7835 18.352 46.0078 18.352 46.233C18.352 46.281 18.352 46.299 18.3308 46.3051C18.3187 46.3111 18.3006 46.3111 18.2723 46.3111H17.6483C17.6483 46.0858 17.6483 45.8626 17.6493 45.6374C17.6493 45.5723 17.6594 45.5132 17.6816 45.4602C17.7179 45.3551 17.7945 45.272 17.9084 45.2129C17.9498 45.1909 17.9679 45.1649 17.9679 45.1178C17.9659 44.6804 17.9659 44.243 17.9659 43.8055C17.9659 43.7885 17.9649 43.7725 17.9629 43.7515C17.9367 43.7605 17.9145 43.7695 17.8953 43.7775C17.8318 43.8045 17.7693 43.8315 17.7058 43.8576V43.6904C17.7058 43.6734 17.7038 43.6574 17.7018 43.6363C17.6756 43.6453 17.6534 43.6544 17.6342 43.6624C17.4528 43.7404 17.2743 43.8155 17.0929 43.8936V45.1589C16.7652 44.9987 16.4043 44.8986 16.0233 44.8716C15.9547 44.8666 15.8842 44.8646 15.8146 44.8646C15.4557 44.8646 15.114 44.9297 14.7964 45.0468V44.0117C14.7097 43.9747 14.622 43.9376 14.5353 43.9006C14.2863 43.7945 14.0373 43.6894 13.7873 43.5833C13.6956 43.5442 13.6039 43.5052 13.5131 43.4662C13.501 43.4602 13.4899 43.4542 13.4738 43.4451C13.4668 43.4401 13.4577 43.4371 13.4476 43.4311C13.4829 43.4141 13.5051 43.4031 13.5282 43.3931C13.6593 43.337 13.7914 43.281 13.9244 43.2249C13.9779 43.2029 14.0313 43.1789 14.0847 43.1569L14.0857 43.1558C14.7178 42.8866 15.3509 42.6163 15.984 42.346C16.0354 42.324 16.0818 42.313 16.1372 42.336C16.5636 42.5182 16.989 42.7004 17.4145 42.8816C17.7552 43.0267 18.0969 43.1709 18.4367 43.316C18.4387 43.317 18.4397 43.318 18.4417 43.319C18.4145 43.331 18.3913 43.341 18.3742 43.347Z" fill="#FEFEFE"/>
<path d="M25.1474 50.8737C25.1121 50.8314 25.1121 50.7678 25.1474 50.7325C25.1898 50.6972 25.2533 50.6972 25.2886 50.7325C25.3239 50.7749 25.3239 50.8384 25.2886 50.8737C25.2533 50.909 25.1898 50.909 25.1474 50.8737Z" fill="white"/>
<path d="M31.3138 52.8513C31.2785 52.8089 31.2785 52.7454 31.3138 52.7101C31.3561 52.6748 31.4196 52.6748 31.4549 52.7101C31.4902 52.7524 31.4902 52.816 31.4549 52.8513C31.4126 52.8936 31.3561 52.8936 31.3138 52.8513Z" fill="white"/>
<path d="M5.10797 45.1159C5.07267 45.0735 5.07267 45.01 5.10797 44.9747C5.15033 44.9394 5.21386 44.9394 5.24916 44.9747C5.28446 45.0171 5.28446 45.0806 5.24916 45.1159C5.2068 45.1583 5.15033 45.1583 5.10797 45.1159Z" fill="white"/>
<path d="M73.5547 8.19792C72.1547 7.17913 70.4914 6.31282 68.6341 5.57819L68.7519 5.60591C68.7519 5.60591 62.8194 2.20996 53.8998 2.07828C45.008 1.9466 38.9091 5.0584 38.8745 5.07919C36.9478 5.75838 35.2082 6.59697 33.7528 7.59496C26.7184 12.3909 27.8134 23.05 30.7173 33.016C32.8311 40.2654 42.61 43.5851 53.1236 43.5851C63.6302 43.9039 74.1923 40.7782 76.521 33.5913C79.7159 23.7292 80.4436 13.2087 73.5547 8.19792Z" fill="#F89E1C"/>
<path d="M73.5547 8.23899C72.82 7.70534 72.0161 7.21327 71.1429 6.75586C77.8863 11.8151 77.1516 22.2802 73.9705 32.1076C71.6419 39.3084 61.0798 42.441 50.5731 42.1222C44.599 42.1222 38.5002 40.5767 34.0855 38.2758C38.5695 41.644 45.895 43.7024 53.1166 43.7024C63.6233 44.0212 74.1854 40.8886 76.514 33.6878C79.7159 23.798 80.4436 13.2567 73.5547 8.23899Z" fill="#F5851F"/>
<path d="M70.0894 17.4642L69.9508 16.7296C73.7556 16.0019 74.2685 9.27927 74.2754 9.20996L75.0239 9.26541C75.0031 9.56342 74.4556 16.6256 70.0894 17.4642Z" fill="#F89E1C"/>
<path d="M37.9875 16.521C33.1846 15.1973 33.0322 8.27369 33.0253 7.98261L33.7737 7.96875C33.7737 8.03806 33.9262 14.622 38.1885 15.8002L37.9875 16.521Z" fill="#F4B821"/>
<path d="M53.6642 8.11411C53.4077 8.11411 53.1513 8.10718 52.8879 8.08639C50.3375 7.9062 48.1198 6.88048 46.9485 5.34884L45.3129 3.20732L45.9089 2.75684L47.5445 4.89836C48.5841 6.26367 50.6078 7.1785 52.9434 7.34483C55.3483 7.51116 57.6354 6.8389 58.9106 5.57062C58.9452 5.53597 58.9799 5.50131 59.0145 5.45973L61.3778 2.88158L61.9322 3.38751L59.569 5.97259C59.5274 6.0211 59.4858 6.06269 59.4373 6.10427C58.1482 7.37255 55.9859 8.11411 53.6642 8.11411Z" fill="#F4B821"/>
<path d="M53.6783 10.8661C53.609 10.8661 53.5396 10.8661 53.4634 10.8661C53.207 10.8592 52.9436 10.8523 52.6941 10.8315C49.319 10.5959 46.4289 9.20283 44.7587 7.01279L42.4231 3.94951L43.0191 3.49902L45.3547 6.5623C46.8933 8.57908 49.5892 9.86122 52.7495 10.0899C52.9921 10.1038 53.2347 10.1177 53.4842 10.1177C56.4574 10.1592 59.1395 9.21669 60.8513 7.53258C60.9137 7.4702 60.9691 7.41476 61.0315 7.35238L61.1008 7.27615L64.3443 3.73466L64.8987 4.24059L61.579 7.86524C61.5097 7.93454 61.4473 8.00385 61.378 8.06622C59.5553 9.85429 56.7623 10.8661 53.6783 10.8661Z" fill="#F4B821"/>
<path d="M34.1268 9.46607C35.5892 8.46115 37.3218 7.61563 39.2554 6.92951C39.297 6.90871 45.4235 3.30485 54.3084 3.43653C60.1508 3.52663 65.2586 4.58006 68.0793 5.29391C66.2982 4.42066 61.0657 2.19597 53.8995 2.08508C45.0077 1.9534 38.9089 5.09292 38.8673 5.11371C36.9406 5.79983 35.201 6.64535 33.7387 7.65028C27.4666 11.968 27.7646 20.9153 29.816 29.918C28.222 21.5529 28.2775 13.4858 34.1268 9.46607Z" fill="#F4B821"/>
<path d="M37.315 16.2866C33.1636 15.3579 32.8379 8.469 32.8309 8.17099L33.0804 8.16406C33.0804 8.23337 33.4062 15.1569 37.3704 16.044L37.315 16.2866Z" fill="#10319B"/>
<path d="M45.0636 6.77076L42.7281 3.70748C43.5667 3.45105 44.5369 3.18769 45.6181 2.95898L47.2537 5.10051C48.3626 6.55592 50.4833 7.51926 52.9228 7.69252C55.4317 7.87271 57.8296 7.15194 59.1811 5.81435C59.2227 5.77277 59.2573 5.73812 59.2989 5.69653L61.6622 3.11146C62.7641 3.37481 63.7552 3.67283 64.6215 3.96391L61.378 7.50539L61.3018 7.58163C61.2394 7.644 61.1771 7.71331 61.1147 7.77568C59.3335 9.53603 56.5198 10.5202 53.4842 10.4717C53.2347 10.4647 52.9852 10.4578 52.7357 10.437C49.4645 10.2083 46.6646 8.8707 45.0636 6.77076Z" fill="#032663"/>
<path d="M69.7568 16.9235L69.7083 16.6809C73.7002 15.9116 74.2269 9.00192 74.2339 8.93262L74.4834 8.95341C74.4695 9.24449 73.9359 16.1196 69.7568 16.9235Z" fill="#10319B"/>
<path d="M51.0308 42.4337C56.2217 42.5931 61.4334 41.9486 65.7581 40.4377C66.7769 39.3773 67.5877 38.012 68.0798 36.4111C69.3342 32.3082 70.755 26.5559 71.3718 20.0828C71.6767 16.9017 69.9233 13.9771 67.3521 13.3256C63.8452 12.4316 58.4325 11.3712 51.9871 11.1702V11.1633C51.807 11.1633 51.6268 11.1633 51.4466 11.1633C51.2664 11.1563 51.0862 11.1563 50.906 11.1494V11.1563C44.4606 11.1633 39.1449 11.8979 35.6104 12.688C33.0184 13.2701 31.0501 16.2918 31.258 19.4868C31.6808 25.9738 32.9283 31.7607 34.058 35.9052C34.1481 36.2378 34.252 36.5566 34.3698 36.8685C35.0906 38.7744 36.7123 40.1951 38.6667 40.7773C42.4369 41.8862 46.7269 42.4337 51.0308 42.4337Z" fill="#032663"/>
<path d="M34.0857 38.2831L34.848 38.9346C34.7233 38.5049 34.5084 37.7702 34.3629 37.2574C33.9817 35.9059 33.552 34.3674 33.15 33.3278C32.5055 31.6506 31.1402 30.6387 29.8234 29.918L29.9759 30.5417C31.1956 31.214 31.9996 31.9971 32.5817 33.508C32.9768 34.5268 33.3995 36.0445 33.7738 37.3821C33.9193 37.9019 33.954 37.8465 34.0857 38.2831Z" fill="#F4B821"/>
<path d="M69.7152 40.6535C69.7013 40.6535 69.6874 40.6535 69.6736 40.6466C69.6112 40.6258 69.5765 40.5496 69.5973 40.4872C69.8884 39.6625 70.1726 38.7754 70.4567 37.916C71.0458 36.114 71.6488 34.2497 72.321 32.732C73.527 30.0152 76.0358 28.5875 77.8169 27.7559C77.8793 27.7281 77.9555 27.7559 77.9832 27.8182C78.011 27.8806 77.9833 27.9568 77.9209 27.9846C76.1744 28.8024 73.721 30.1954 72.5497 32.8359C71.8844 34.3398 71.2745 36.1972 70.6924 37.9922C70.4152 38.8516 70.124 39.7456 69.833 40.5704C69.8122 40.6258 69.7637 40.6535 69.7152 40.6535Z" fill="#F89E1C"/>
<path d="M29.9755 30.542C30.1626 31.54 30.4468 32.4271 30.7101 33.4251C31.2576 35.4904 32.3457 36.7309 34.1407 38.3042C33.6764 36.7171 33.2605 35.2062 32.72 33.7855C32.0754 32.136 31.1329 31.1796 29.9755 30.542Z" fill="#032663"/>
<path d="M30.7934 33.5149C30.5994 32.9328 30.4677 32.3645 30.3083 31.7754C30.9182 32.2051 31.3132 32.815 31.6667 33.612C32.0479 34.4575 32.3389 35.7119 32.6716 36.696C31.7013 35.8921 31.1746 34.6585 30.7934 33.5149Z" fill="#0E51A0"/>
<path d="M33.9331 38.1305C33.8361 37.8048 33.746 37.4929 33.6559 37.1811C33.3232 36.0167 33.0045 34.9148 32.5748 33.7921C31.9995 32.3089 31.1817 31.3387 29.9134 30.6456L30.0313 30.4238C31.355 31.1515 32.2074 32.1634 32.8035 33.702C33.2401 34.8316 33.5589 35.9405 33.8916 37.1118C33.9817 37.4167 34.0717 37.7355 34.1618 38.0543L33.9331 38.1305Z" fill="#10319B"/>
<path d="M78.0458 28.3164C77.6508 29.9312 77.1934 31.4143 76.7429 33.0361C75.8696 36.1895 73.9776 38.4211 69.7223 40.6458C70.6094 38.1161 71.4757 35.6627 72.4667 33.4173C73.638 30.7906 76.1954 29.1827 78.0458 28.3164Z" fill="#032663"/>
<path d="M50.989 41.3257C55.4384 41.4574 59.9016 40.9653 63.7134 39.8079C64.3025 39.6277 64.8361 39.2812 65.2104 38.7961C65.848 37.9714 66.3608 37.0011 66.7004 35.913C67.8578 32.219 69.1677 27.042 69.729 21.2134C70.0063 18.3442 68.3915 15.7175 66.0143 15.1284C62.7778 14.3175 57.7878 13.3611 51.8484 13.1809V13.174C51.682 13.174 51.5157 13.174 51.3494 13.174C51.183 13.1671 51.0167 13.1671 50.8504 13.1602V13.1671C44.904 13.1671 39.8863 13.978 36.629 14.6849C34.238 15.2047 32.5469 17.7828 32.734 20.659C33.1221 26.5014 34.2726 31.7131 35.3191 35.4417C35.624 36.5298 36.1023 37.507 36.7052 38.3456C37.0517 38.8238 37.5438 39.1703 38.0982 39.3644C41.9308 40.6743 46.4564 41.3257 50.989 41.3257Z" fill="#FCE8CA"/>
<path d="M52.5831 42.5042C52.0702 42.5042 51.5504 42.4973 51.0237 42.4834H51.0168C46.5951 42.4834 42.3121 41.9012 38.6181 40.8062C36.6013 40.2033 34.9657 38.7201 34.2588 36.8281C34.141 36.5093 34.0301 36.1766 33.94 35.837C32.9004 32.0253 31.5698 26.0789 31.1332 19.3632C30.9253 16.1821 32.7827 13.2713 35.4509 12.5852C47.905 9.39025 63.8036 12.1486 67.3797 13.0634C70.0341 13.7426 71.8014 16.7089 71.4964 19.9731C70.8588 26.6749 69.3549 32.5797 68.1975 36.3568C67.7193 37.9301 66.9015 39.337 65.8481 40.4458L65.8273 40.4666L65.7996 40.4736C61.9739 41.8111 57.4344 42.5042 52.5831 42.5042ZM51.0307 42.2339C56.3533 42.4002 61.5512 41.6864 65.6887 40.2449C66.7074 39.1706 67.4975 37.8053 67.9619 36.2806C69.1123 32.5173 70.6163 26.6264 71.2469 19.9454C71.545 16.8059 69.8539 13.9505 67.3173 13.306C63.7551 12.3981 47.9189 9.63975 35.5133 12.8278C32.9628 13.4862 31.1817 16.2861 31.3827 19.3494C31.8124 26.0443 33.143 31.9768 34.1757 35.7747C34.2658 36.1073 34.3697 36.4261 34.4875 36.7449C35.1736 38.5607 36.7399 39.9884 38.6874 40.5706C42.3606 41.6587 46.6228 42.2408 51.0168 42.2408C51.0237 42.2339 51.0237 42.2339 51.0307 42.2339Z" fill="#10319B"/>
<path d="M70.0966 40.5075L69.861 40.4243C70.1798 39.5233 70.457 38.6432 70.7204 37.7907C71.2124 36.2314 71.6768 34.7621 72.3213 33.3136C73.4926 30.68 76.0361 29.0514 77.9558 28.1504L78.0598 28.3791C76.1747 29.2662 73.6866 30.8533 72.5431 33.4176C71.9055 34.8522 71.4411 36.3145 70.956 37.867C70.6927 38.7194 70.4154 39.5996 70.0966 40.5075Z" fill="#10319B"/>
<path d="M30.5304 28.2689L29.4007 27.2987C29.4007 27.2987 28.6592 19.3494 30.3918 14.6436L30.7037 17.3395C30.7106 17.3465 30.0106 17.4365 30.5304 28.2689Z" fill="#F4B821"/>
<path d="M54.5027 43.7372C54.0314 43.7372 53.5671 43.7303 53.1097 43.7164C53.1097 43.7164 53.1096 43.7164 53.1027 43.7164C43.7188 43.7164 32.8726 40.9165 30.5855 33.0573C26.8015 20.0765 27.841 11.4757 33.6765 7.50455C35.1042 6.52735 36.8368 5.68183 38.8328 4.97492C39.0685 4.85017 45.0703 1.8354 53.9067 1.96708C62.7569 2.09876 68.7587 5.48085 68.8142 5.5155L68.8973 5.56401C70.72 6.29865 72.3141 7.1511 73.6239 8.10751C81.5663 13.8806 78.9119 26.5842 76.6248 33.6464C74.1992 41.1314 63.4985 43.7372 54.5027 43.7372ZM53.1166 43.4669C62.2856 43.7442 73.8804 41.3185 76.3961 33.5632C78.6624 26.5704 81.3029 13.9846 73.4853 8.30156C72.1339 7.31743 70.4913 6.44419 68.5924 5.70262L68.5993 5.6749C67.8092 5.25214 62.0846 2.3344 53.8997 2.20965C45.1326 2.07104 38.9922 5.16897 38.9298 5.19669C36.9477 5.89668 35.229 6.7422 33.8151 7.70554C28.0836 11.6143 27.0787 20.1181 30.8281 32.988C33.0805 40.7155 43.8159 43.4669 53.1166 43.4669Z" fill="#10319B"/>
<path d="M59.4234 21.8024C59.3818 21.7955 59.3402 21.7747 59.2987 21.7401C58.7511 21.2757 58.0373 21.0955 57.3373 21.2549C57.1849 21.2896 57.0324 21.1925 56.9977 21.0401C56.9631 20.8876 57.0601 20.7351 57.2126 20.7005C58.0858 20.5064 58.9799 20.7282 59.666 21.3104C59.7838 21.4143 59.7977 21.5876 59.7006 21.7054C59.6313 21.7955 59.5274 21.8232 59.4234 21.8024Z" fill="#032663"/>
<path d="M37.1973 22.1422C37.2389 22.1353 37.2805 22.1145 37.3221 22.0799C37.8696 21.6155 38.5834 21.4423 39.2904 21.5947C39.4428 21.6294 39.5953 21.5324 39.6299 21.3799C39.6646 21.2274 39.5676 21.0749 39.4151 21.0403C38.5418 20.8393 37.6478 21.0611 36.9617 21.6432C36.8439 21.7472 36.83 21.9205 36.927 22.0383C36.9963 22.1284 37.1003 22.163 37.1973 22.1422Z" fill="#032663"/>
<path d="M42.9984 32.641C42.9291 32.7865 42.8459 32.9251 42.7558 33.0499L37.8837 32.9667C37.7936 32.835 37.7173 32.6964 37.655 32.5439L42.9984 32.641Z" fill="#0052A3"/>
<path d="M43.2132 32.0725C43.1785 32.2111 43.13 32.3497 43.0746 32.4883L37.5787 32.3983C37.5232 32.2666 37.4886 32.121 37.4539 31.9824L43.2132 32.0725Z" fill="#0052A3"/>
<path d="M37.3885 30.8108L37.3815 31.2266L43.3065 31.3261L43.3135 30.9103L37.3885 30.8108Z" fill="#0052A3"/>
<path d="M43.3032 31.4974C43.2962 31.636 43.2755 31.7746 43.2477 31.9132L37.4192 31.8162C37.3984 31.6776 37.3845 31.539 37.3845 31.4004L43.3032 31.4974Z" fill="#0052A3"/>
<path d="M42.0142 33.7781C41.7578 33.9514 41.4667 34.09 41.1617 34.1801L39.4361 34.1523C39.1311 34.0553 38.847 33.9098 38.5975 33.7227L42.0142 33.7781Z" fill="#0052A3"/>
<path d="M42.7488 27.3045L38.0707 27.2282C38.1885 27.0827 38.3271 26.9441 38.4727 26.8193L42.3607 26.8817C42.5062 27.0134 42.6379 27.152 42.7488 27.3045Z" fill="#0052A3"/>
<path d="M42.6311 33.2091C42.5064 33.3615 42.3678 33.4932 42.2222 33.6179L38.3966 33.5556C38.2511 33.4308 38.1194 33.2853 38.0015 33.1328L42.6311 33.2091Z" fill="#0052A3"/>
<path d="M41.3764 26.2933C41.6674 26.3973 41.9308 26.5428 42.1664 26.723L38.6735 26.6676C38.916 26.4943 39.1863 26.3557 39.4774 26.2656L41.3764 26.2933Z" fill="#0052A3"/>
<path d="M43.1577 28.0462C43.2062 28.1779 43.2478 28.3235 43.2824 28.4621L37.5093 28.365C37.544 28.2195 37.5925 28.0878 37.6479 27.9492L43.1577 28.0462Z" fill="#0052A3"/>
<path d="M43.3101 28.6283C43.3309 28.7669 43.3448 28.9055 43.3448 29.0441L37.4261 28.9471C37.433 28.8085 37.4469 28.6699 37.4746 28.5312L43.3101 28.6283Z" fill="#0052A3"/>
<path d="M42.8668 27.4708C42.95 27.6024 43.0262 27.7411 43.0886 27.8935L37.7105 27.8034C37.7798 27.6579 37.856 27.5193 37.9461 27.3945L42.8668 27.4708Z" fill="#0052A3"/>
<path d="M37.413 29.6594L37.406 30.0752L43.331 30.1748L43.338 29.759L37.413 29.6594Z" fill="#0052A3"/>
<path d="M37.4218 29.0881L37.4148 29.5039L43.3398 29.6035L43.3468 29.1877L37.4218 29.0881Z" fill="#0052A3"/>
<path d="M37.3971 30.2385L37.3901 30.6543L43.3151 30.7539L43.3221 30.3381L37.3971 30.2385Z" fill="#0052A3"/>
<path d="M58.6685 32.6693C58.5992 32.8148 58.516 32.9534 58.4259 33.0782L53.5538 32.995C53.4637 32.8633 53.3875 32.7247 53.3251 32.5723L58.6685 32.6693Z" fill="#0052A3"/>
<path d="M58.8833 32.094C58.8486 32.2326 58.8001 32.3712 58.7447 32.5098L53.2488 32.4197C53.1933 32.2881 53.1587 32.1425 53.1241 32.0039L58.8833 32.094Z" fill="#0052A3"/>
<path d="M53.0643 30.8342L53.0573 31.25L58.9823 31.3496L58.9893 30.9338L53.0643 30.8342Z" fill="#0052A3"/>
<path d="M58.9731 31.5179C58.9662 31.6565 58.9454 31.7951 58.9177 31.9338L53.0892 31.8367C53.0684 31.6981 53.0545 31.5595 53.0545 31.4209L58.9731 31.5179Z" fill="#0052A3"/>
<path d="M57.6842 33.7986C57.4278 33.9719 57.1367 34.1105 56.8317 34.2006L55.106 34.1729C54.8011 34.0758 54.517 33.9303 54.2675 33.7432L57.6842 33.7986Z" fill="#0052A3"/>
<path d="M58.4255 27.3328L53.7474 27.2566C53.8652 27.111 54.0038 26.9724 54.1494 26.8477L58.0374 26.91C58.176 27.0348 58.3077 27.1803 58.4255 27.3328Z" fill="#0052A3"/>
<path d="M58.301 33.2374C58.1762 33.3898 58.0376 33.5215 57.8921 33.6463L54.0664 33.5839C53.9209 33.4591 53.7892 33.3136 53.6714 33.1611L58.301 33.2374Z" fill="#0052A3"/>
<path d="M57.0465 26.3207C57.3375 26.4246 57.6009 26.5702 57.8366 26.7504L54.3436 26.6949C54.5861 26.5217 54.8564 26.3831 55.1475 26.293L57.0465 26.3207Z" fill="#0052A3"/>
<path d="M58.8278 28.0736C58.8763 28.2053 58.9179 28.3508 58.9525 28.4894L53.1794 28.3924C53.2141 28.2469 53.2626 28.1152 53.318 27.9766L58.8278 28.0736Z" fill="#0052A3"/>
<path d="M58.98 28.6488C59.0008 28.7874 59.0147 28.926 59.0147 29.0646L53.096 28.9676C53.1029 28.829 53.1168 28.6904 53.1445 28.5518L58.98 28.6488Z" fill="#0052A3"/>
<path d="M58.5365 27.4913C58.6197 27.623 58.6959 27.7616 58.7583 27.914L53.3802 27.8239C53.4495 27.6784 53.5258 27.5398 53.6158 27.415L58.5365 27.4913Z" fill="#0052A3"/>
<path d="M53.0821 29.6848L53.0751 30.1006L59.0001 30.2002L59.0071 29.7844L53.0821 29.6848Z" fill="#0052A3"/>
<path d="M53.0911 29.1116L53.0841 29.5273L59.0091 29.6269L59.0161 29.2111L53.0911 29.1116Z" fill="#0052A3"/>
<path d="M53.0733 30.2629L53.0663 30.6787L58.9913 30.7783L58.9982 30.3625L53.0733 30.2629Z" fill="#0052A3"/>
<path d="M47.0296 34.3877C46.7899 34.4083 46.6156 34.8415 46.681 35.2954C46.9098 36.7394 47.6287 37.7503 48.4567 37.709C49.2846 37.6678 49.9709 36.5538 50.1452 35.0891C50.1997 34.6352 50.0145 34.2227 49.7639 34.2227L47.0296 34.3877Z" fill="#032663"/>
<circle cx="16.1" cy="47.1" r="1.1" fill="#0055B8"/>
<circle cx="16" cy="47" r="1" fill="white"/>
</g>
<defs>
<radialGradient id="paint0_radial_12159_680603" cx="0" cy="0" r="1" gradientUnits="userSpaceOnUse" gradientTransform="translate(48.7494 53.4428) scale(45.0453 45.0454)">
<stop offset="0.0783725" stop-color="#33FCFE"/>
<stop offset="1" stop-color="#33FCFE" stop-opacity="0"/>
</radialGradient>
</defs>
</svg>
