<svg width="180" height="180" viewBox="0 0 180 180" fill="none" xmlns="http://www.w3.org/2000/svg">
<mask id="mask0_908_12111" style="mask-type:alpha" maskUnits="userSpaceOnUse" x="0" y="0" width="180" height="180">
<rect width="180" height="180" fill="#D9D9D9"/>
</mask>
<g mask="url(#mask0_908_12111)">
<path d="M124.095 125.538C131.949 111.359 123.378 93.6897 107.366 91.1724L101.168 90.2006C101.12 90.2006 101.088 90.1846 101.041 90.1687L85.5862 87.747L70.2115 84.8314C70.1637 84.8154 70.1319 84.8154 70.0841 84.8154L63.9182 83.6524C47.9859 80.6412 33.9815 94.4067 36.6103 110.403C37.4706 115.629 38.5222 120.52 39.6853 125.124C40.2907 127.801 41.151 130.78 42.1548 133.871C46.4565 147.732 51.6504 158.534 55.5538 167.313C55.6972 167.647 55.8724 167.982 56.0318 168.317C58.6447 173.957 64.0457 177.366 69.9088 178.306C75.756 179.406 81.9855 178.003 86.335 173.574C86.6059 173.319 86.8767 173.064 87.1317 172.794C93.7436 165.847 102.267 157.403 110.982 145.788C112.958 143.207 114.774 140.69 116.24 138.38C118.901 134.429 121.53 130.175 124.095 125.538Z" fill="#F89E1C"/>
<path d="M91.8775 151.493C97.6928 143.829 90.0612 136.564 79.5299 140.451C66.9753 145.072 60.7299 140.945 55.297 126.989C50.8837 115.661 41.388 116.728 37.9785 117.541C38.5361 120.217 39.1257 122.798 39.763 125.284C40.3684 127.961 41.2287 130.94 42.2325 134.031C46.5342 147.892 51.7281 158.694 55.6315 167.473C55.7749 167.807 55.9501 168.142 56.1094 168.476C58.7223 174.116 64.1234 177.526 69.9865 178.466C75.8337 179.565 82.0632 178.163 86.4127 173.734C86.6836 173.479 86.9544 173.224 87.2093 172.953C89.3761 170.691 91.7341 168.253 94.2515 165.609C89.8541 164.079 86.2693 158.901 91.8775 151.493Z" fill="#032663"/>
<path d="M69.5741 178.659C63.3764 177.591 58.2303 173.831 55.7926 168.573C55.6333 168.255 55.458 167.92 55.3147 167.57C54.757 166.311 54.1676 164.989 53.5462 163.634C49.9933 155.764 45.5801 145.966 41.8997 134.08C40.8322 130.798 40.0038 127.835 39.4302 125.317C38.7929 122.8 38.1874 120.187 37.6457 117.574L37.582 117.303L37.8529 117.24C41.6767 116.331 51.0608 115.471 55.5059 126.863C61.0503 141.122 67.2958 144.611 79.3724 140.15C85.7932 137.776 90.7641 139.561 92.8671 142.381C94.779 144.978 94.4763 148.435 92.0546 151.637C89.601 154.888 88.7247 157.978 89.5214 160.623C90.1746 162.742 91.959 164.495 94.2851 165.291L94.7153 165.435L94.4126 165.753C93.0106 167.235 91.6404 168.653 90.3339 170.007C89.3143 171.075 88.3264 172.094 87.3705 173.098C87.1156 173.369 86.8447 173.64 86.5739 173.879C82.4474 178.085 76.2338 179.901 69.8927 178.69C69.7812 178.706 69.6856 178.69 69.5741 178.659ZM69.9883 178.149C76.1382 179.312 82.1766 177.559 86.1756 173.497C86.4464 173.242 86.7173 172.987 86.9562 172.732C87.9122 171.728 88.9 170.708 89.9197 169.641C91.1305 168.382 92.3892 167.06 93.6957 165.706C91.3855 164.782 89.6488 162.981 88.9797 160.814C88.3742 158.855 88.3424 155.605 91.6085 151.319L91.8315 151.494L91.6085 151.319C93.8709 148.324 94.1736 145.121 92.4211 142.747C90.4614 140.102 85.7295 138.445 79.5956 140.708C67.2958 145.249 60.6361 141.552 54.996 127.086C50.8217 116.363 42.1227 116.905 38.283 117.749C38.8088 120.267 39.3824 122.768 40.0038 125.206C40.5773 127.723 41.4058 130.655 42.4573 133.937C46.1377 145.79 50.535 155.573 54.072 163.427C54.6774 164.782 55.2669 166.088 55.8405 167.363C55.9839 167.697 56.1432 168.016 56.3184 168.35C58.7083 173.512 63.8225 177.193 69.9883 178.149Z" fill="#10319B"/>
<path d="M70.1616 178.769C70.05 178.753 69.9544 178.737 69.8429 178.705C63.5019 177.717 58.2283 173.91 55.7588 168.556C55.5994 168.238 55.4242 167.903 55.2808 167.553C54.7232 166.294 54.1337 164.972 53.5123 163.617C49.9594 155.747 45.5461 145.948 41.8658 134.063C40.7983 130.781 39.9698 127.817 39.3963 125.3C38.1695 120.457 37.1339 115.502 36.3214 110.563C35.0468 102.82 37.5322 95.2359 43.1404 89.7711C48.7167 84.3222 56.2845 82.0598 63.9639 83.4937L70.1297 84.6568L70.2572 84.6727L85.6318 87.5883L101.086 90.0101L101.166 90.026L107.411 90.9979C115.122 92.2087 121.495 96.9087 124.921 103.903C128.362 110.945 128.155 118.911 124.363 125.778C121.942 130.144 119.297 134.477 116.509 138.635C115.123 140.818 113.354 143.32 111.235 146.06C103.779 156.018 96.3224 163.761 90.3478 169.974C89.3122 171.042 88.3244 172.077 87.3685 173.081C87.1135 173.352 86.8427 173.623 86.5718 173.862C82.4772 178.036 76.3752 179.836 70.1616 178.769ZM69.9545 178.148C76.1043 179.311 82.1426 177.558 86.1416 173.495C86.4125 173.24 86.6834 172.986 86.9224 172.731C87.8783 171.727 88.8661 170.691 89.9017 169.624C95.8763 163.41 103.317 155.683 110.757 145.757C112.86 143.017 114.629 140.531 115.999 138.365C118.787 134.222 121.416 129.905 123.837 125.555C127.55 118.848 127.741 111.073 124.395 104.206C121.049 97.3867 114.804 92.7982 107.316 91.6192L101.118 90.6474L101.038 90.6314L85.5203 88.1938L70.1297 85.2782L70.0022 85.2622L63.8364 84.0992C56.3801 82.6971 48.9556 84.9117 43.5227 90.2172C38.0579 95.5545 35.6363 102.947 36.879 110.515C37.6915 115.422 38.7271 120.377 39.9539 125.205C40.5275 127.722 41.3559 130.653 42.4075 133.935C46.0878 145.789 50.4852 155.571 54.0222 163.426C54.6276 164.78 55.217 166.087 55.7906 167.361C55.934 167.696 56.0933 168.015 56.2686 168.349C58.6743 173.495 63.7887 177.176 69.9545 178.148Z" fill="#10319B"/>
<path d="M120.521 102.068C117.144 97.9416 112.444 95.01 106.772 94.1178L100.542 93.146C100.495 93.146 100.463 93.13 100.415 93.1141L84.8808 90.7083L69.4265 87.7608C69.3787 87.7449 69.3469 87.7449 69.2991 87.7449L63.1014 86.5659C54.5139 84.9249 48.7783 90.31 43.4887 96.6989C42.2938 98.1328 42.8355 100.363 44.5243 101.017C58.736 106.465 91.5884 115.483 120.521 102.068Z" fill="#E26907"/>
<path d="M53.1945 11.2382C56.7156 9.56531 60.7942 8.32259 65.2075 7.49411L64.9367 7.51005C64.9367 7.51005 79.5306 2.45951 99.3823 5.88495C119.17 9.3104 131.406 18.7742 131.486 18.8379C135.485 21.164 138.99 23.7451 141.81 26.5651C155.416 40.1553 150.095 63.3846 139.484 84.2878C131.757 99.5032 107.094 102.769 83.7686 98.3561C60.3162 94.6598 38.1704 83.3 36.0036 66.3799C33.0242 43.1188 35.7964 19.4752 53.1945 11.2382Z" fill="#F89E1C"/>
<path d="M72.9996 136.497C71.5179 136.242 70.0999 135.621 68.8572 134.649C66.2283 132.578 64.9219 129.376 65.3999 126.046L68.1084 107.039C68.5864 103.725 70.7213 101 73.8281 99.7415C76.9349 98.4988 80.3603 98.9768 83.0051 101.048L98.2205 112.981C100.77 114.973 102.06 118.08 101.678 121.298C101.295 124.516 99.3198 127.225 96.3882 128.563C96.2926 128.611 96.197 128.643 96.1014 128.691L95.974 128.738L78.0342 135.956C76.3932 136.609 74.6565 136.784 72.9996 136.497ZM78.6555 100.331C77.2057 100.076 75.6922 100.235 74.2423 100.809C71.5179 101.908 69.6538 104.298 69.2396 107.198L66.5311 126.205C66.1169 129.105 67.2481 131.925 69.5582 133.741C71.8684 135.557 74.8637 135.972 77.5881 134.888L95.6394 127.623C95.719 127.591 95.7987 127.559 95.8943 127.512C98.4594 126.348 100.18 123.975 100.515 121.155C100.849 118.35 99.7181 115.626 97.4875 113.889L82.2722 101.956C81.2047 101.096 79.962 100.554 78.6555 100.331Z" fill="#F89E1C"/>
<path d="M72.9016 136.628C71.4359 136.373 70.0338 135.751 68.791 134.795C66.1781 132.74 64.8876 129.554 65.3656 126.272L68.1378 106.802C68.5998 103.52 70.7189 100.812 73.8097 99.5691C76.9006 98.3263 80.2942 98.8202 82.9071 100.86L98.5048 113.08C101.022 115.055 102.313 118.146 101.93 121.317C101.548 124.503 99.5882 127.196 96.6885 128.518C96.5929 128.566 96.4974 128.598 96.4018 128.646L96.2902 128.693L77.9044 136.086C76.2633 136.739 74.5427 136.914 72.9016 136.628ZM78.701 99.585C77.1555 99.3141 75.5464 99.4735 74.0169 100.095C71.1331 101.258 69.1415 103.791 68.6954 106.882L65.9232 126.351C65.4771 129.442 66.688 132.421 69.1416 134.349C71.5952 136.277 74.7816 136.723 77.6654 135.56L96.1628 128.12C96.2584 128.088 96.338 128.04 96.4336 128.008C99.158 126.766 100.99 124.248 101.341 121.253C101.691 118.274 100.496 115.39 98.1384 113.526L82.5407 101.306C81.3935 100.398 80.0711 99.824 78.701 99.585Z" fill="#10319B"/>
<path d="M53.1772 11.3188C55.0254 10.4426 57.0328 9.67782 59.1518 9.04053C42.0565 17.4369 39.3161 40.9848 42.2795 64.1344C44.4463 81.0864 66.5763 92.4621 90.0287 96.1584C103.3 98.6598 116.986 98.6757 127.756 95.4255C116.397 101.034 99.7474 101.639 83.7195 98.612C60.2671 94.9157 38.1371 83.54 35.9703 66.588C32.991 43.2791 35.7791 19.5877 53.1772 11.3188Z" fill="#F5851F"/>
<path d="M57.0005 32.2363C47.8394 28.6197 49.831 13.3565 49.9266 12.7192L51.0578 12.8786C51.0418 13.022 49.0981 27.8868 57.4148 31.1688L57.0005 32.2363Z" fill="#F89E1C"/>
<path d="M129.014 45.2705L128.887 44.1234C138.813 43.024 142.015 27.745 142.047 27.6016L143.178 27.8246C143.035 28.4938 139.768 44.0756 129.014 45.2705Z" fill="#F4B821"/>
<path d="M97.739 19.4437C92.4176 18.5196 87.7654 15.9227 85.3915 12.4813C85.3118 12.3698 85.2322 12.2582 85.1684 12.1467L80.9941 5.42328L82.4599 4.51514L86.6342 11.2386C86.6979 11.3342 86.7457 11.4138 86.8254 11.5094C89.1356 14.8393 93.9153 17.3088 99.3322 17.9301C104.59 18.5356 109.449 17.3566 112.333 14.7596L116.858 10.6809L118.005 11.9555L113.448 16.0501C110.198 18.9657 104.845 20.32 99.0933 19.6508C98.6472 19.5871 98.1851 19.5234 97.739 19.4437Z" fill="#F4B821"/>
<path d="M96.66 25.5748C89.602 24.348 83.6274 20.8748 80.2816 16.0314C80.1542 15.8561 80.0426 15.6808 79.9311 15.5056L79.8037 15.2985L74.084 6.07367L75.5497 5.16553L81.3969 14.5815C81.4925 14.7408 81.604 14.9002 81.7155 15.0595C84.8064 19.5205 90.3668 22.7389 96.9787 23.886C97.5204 23.9816 98.0621 24.0612 98.6197 24.125C105.726 24.9535 112.242 23.2328 116.496 19.3931L122.964 13.5778L124.111 14.8524L117.643 20.6677C113.023 24.826 106.012 26.706 98.4126 25.8297C97.8071 25.7501 97.2336 25.6704 96.66 25.5748Z" fill="#F4B821"/>
<path d="M140.184 30.5317C137.364 27.6957 133.859 25.0828 129.86 22.7567C129.78 22.693 117.688 12.1299 97.8997 8.70443C84.8831 6.45798 73.125 6.64916 66.5449 7.0634C70.8626 5.86848 83.4172 3.11219 99.3655 5.86848C119.153 9.29393 131.389 18.8214 131.469 18.8852C135.468 21.2113 138.973 23.8242 141.793 26.6601C153.918 38.8643 150.954 58.8115 142.622 77.9303C149.68 60.0383 151.496 41.9233 140.184 30.5317Z" fill="#F4B821"/>
<path d="M130.069 44.6626L130.053 44.0891C139.23 43.7863 142.91 28.1886 142.942 28.0293L143.5 28.1568C143.356 28.81 139.676 44.344 130.069 44.6626Z" fill="#10319B"/>
<path d="M117.035 19.9688L123.504 14.1535C121.751 13.2294 119.712 12.2416 117.402 11.2857L112.877 15.3644C109.818 18.1207 104.704 19.3952 99.2071 18.758C93.567 18.1047 88.5484 15.5078 86.0948 11.9708C86.0152 11.8752 85.9515 11.7637 85.8877 11.6521L81.7134 4.92871C79.1483 5.05617 76.8222 5.29515 74.7988 5.58194L80.5185 14.8067L80.6459 15.0139C80.7575 15.1891 80.869 15.3484 80.9805 15.5237C84.1989 20.1759 90.0301 23.5376 96.8014 24.7007C97.359 24.7963 97.9166 24.876 98.4901 24.9397C105.835 25.7682 112.606 23.9678 117.035 19.9688Z" fill="#032663"/>
<path d="M57.9561 32.1883C49.018 28.6514 50.6751 12.9421 50.7547 12.2729L51.3282 12.3367C51.3123 12.496 49.6394 28.2849 58.1791 31.6466L57.9561 32.1883Z" fill="#10319B"/>
<path d="M83.6572 98.1139C72.0585 96.2817 60.7783 92.681 51.8085 87.5189C49.9922 84.7467 48.7495 81.3531 48.3352 77.609C47.2678 67.97 46.519 54.6187 47.8573 39.9928C48.5105 32.7914 53.6247 27.0558 59.6153 26.6734C67.7726 26.1477 80.2317 26.068 94.6345 28.3144V28.2985C95.0328 28.3622 95.4312 28.4419 95.8295 28.5216C96.2278 28.5853 96.6261 28.649 97.0403 28.7128V28.7287C111.348 31.4372 122.835 35.2928 130.355 38.5271C135.867 40.901 138.974 48.437 137.174 55.4312C133.525 69.6588 128.331 81.9904 124.093 90.7054C122.468 94.0352 120.238 96.7596 117.657 98.7512C107.364 100.695 95.3515 100.328 83.6572 98.1139Z" fill="#032663"/>
<path d="M125.128 96.3589L122.643 97.2033C123.28 96.0243 124.347 94.0168 125.08 92.6148C127.024 88.9026 129.207 84.6964 131.007 81.9242C133.891 77.4472 140.232 74.8184 144.311 73.6394L143.227 75.9974C139.435 77.0967 135.038 78.8493 132.441 82.8642C130.688 85.5727 128.522 89.731 126.594 93.4114C125.877 94.8294 125.765 95.1799 125.128 96.3589Z" fill="#F4B821"/>
<path d="M46.0856 83.0781C45.974 83.0622 45.8625 82.9666 45.8466 82.8391C45.6713 81.6601 45.4801 80.3696 45.289 79.0631C44.7154 75.0641 44.0622 70.5234 43.2974 67.2254C42.1662 62.4457 38.5018 59.2752 35.0763 56.8057C34.9489 56.7101 34.917 56.5349 35.0126 56.4074C35.1082 56.2799 35.2835 56.2481 35.4109 56.3437C38.932 58.8769 42.692 62.143 43.855 67.098C44.6357 70.4119 45.289 74.9685 45.8625 78.9835C46.0537 80.3059 46.229 81.5804 46.4202 82.7594C46.4361 82.9188 46.3405 83.0621 46.1812 83.094C46.1493 83.094 46.1174 83.094 46.0856 83.0781Z" fill="#F89E1C"/>
<path d="M143.433 75.9585C142.254 78.7626 140.963 81.5507 139.561 84.307C136.694 89.9789 131.516 94.0098 124.936 96.6068C127.262 92.2732 129.444 87.366 131.882 83.5901C134.75 79.1928 139.832 77.01 143.433 75.9585Z" fill="#032663"/>
<path d="M137.811 84.3853C138.735 82.808 139.611 81.1988 140.456 79.5737C138.496 80.4022 136.425 81.7246 134.911 83.8117C133.318 86.0263 131.773 88.8304 130.195 91.4911C133.382 89.8341 136.011 87.4921 137.811 84.3853Z" fill="#0E51A0"/>
<path d="M125.305 96.669L124.795 96.3981C125.592 94.9005 126.404 93.3072 127.169 91.7777C128.635 88.8621 130.148 85.8509 131.757 83.3655C134.641 78.9204 139.708 76.6898 143.468 75.6064L143.627 76.1641C139.963 77.2156 135.023 79.3824 132.235 83.6841C130.642 86.1377 129.144 89.133 127.679 92.0327C126.898 93.5781 126.101 95.1713 125.305 96.669Z" fill="#10319B"/>
<path d="M35.0156 57.2056C35.1909 60.2486 35.4618 63.3076 35.8441 66.3666C36.6408 72.6758 40.1618 78.2044 45.4832 82.8725C44.7503 78.0132 44.336 72.6599 43.3164 68.2785C42.1055 63.1642 38.0428 59.4042 35.0156 57.2056Z" fill="#032663"/>
<path d="M85.2503 98.8664C84.7245 98.7708 84.2146 98.6911 83.7048 98.5955C63.0406 95.3454 38.0906 84.9575 35.7167 66.3964C33.5817 49.779 33.0082 20.4795 53.067 10.9838L53.1944 11.2387L53.067 10.9838C56.5721 9.32685 64.7294 7.28751 65.0799 7.20785C65.1915 7.16005 79.7217 2.2051 99.43 5.61462C119.186 9.04006 131.55 18.5198 131.661 18.6154C135.756 20.9893 139.245 23.6022 142.017 26.3585C157.726 42.0359 147.338 69.4394 139.739 84.3839C131.47 100.651 105.58 102.387 85.2503 98.8664ZM83.8004 98.022C84.3102 98.1176 84.82 98.2132 85.3458 98.2928C105.5 101.782 131.103 100.109 139.229 84.1131C146.749 69.312 157.057 42.1793 141.603 26.7568C138.878 24.0324 135.421 21.4513 131.342 19.0774C131.183 18.9659 118.947 9.5499 99.3344 6.15632C79.7855 2.77867 65.3986 7.68582 65.2552 7.73361C65.1437 7.76548 56.7792 9.83668 53.3219 11.4777C33.5977 20.814 34.1872 49.8427 36.2902 66.3008C38.6323 84.5592 63.3433 94.8037 83.8004 98.022Z" fill="#10319B"/>
<path d="M84.214 95.6785C74.2723 94.1171 64.5694 91.1537 56.6033 86.9794C55.3606 86.3262 54.3409 85.3384 53.7037 84.0957C52.6362 82.0086 51.9033 79.6346 51.6006 77.0695C50.5809 68.3864 49.8321 56.3416 51.027 43.1815C51.6165 36.6971 56.3006 31.535 61.8132 31.2164C69.3332 30.7703 80.8045 30.7384 94.0761 32.8255V32.8096C94.4426 32.8733 94.809 32.9371 95.1754 33.0167C95.5419 33.0804 95.9083 33.1282 96.2907 33.192V33.2079C109.483 35.6933 120.285 39.5968 127.215 42.5283C132.298 44.6792 134.99 51.1158 133.365 57.425C130.051 70.2346 125.319 81.3235 121.432 89.1622C120.301 91.4564 118.835 93.4161 117.146 95.0253C116.174 95.9334 114.947 96.507 113.625 96.6982C104.591 98.0205 94.2832 97.5744 84.214 95.6785Z" fill="#FCE8CA"/>
<path d="M65.178 66.3947C65.0588 66.3668 64.9395 66.339 64.8202 66.2843C63.9719 65.9146 63.5732 64.9169 63.9299 64.0596C65.7395 59.6925 69.923 57.4276 74.5873 58.2846C79.1324 59.1138 82.5684 63.012 82.7727 67.5295C82.8136 68.4707 82.0991 69.2445 81.1718 69.2774C80.2445 69.3104 79.4752 68.5785 79.4343 67.6373C79.3252 65.1097 77.4273 62.2318 74.0218 61.5998C70.8946 61.0239 68.207 62.4674 67.005 65.3743C66.688 66.1245 65.9201 66.5215 65.178 66.3947Z" fill="#0E51A0"/>
<path d="M98.761 72.3109C98.6418 72.283 98.5225 72.2552 98.4032 72.2005C97.5549 71.8308 97.1562 70.8331 97.5129 69.9758C99.3225 65.6087 103.506 63.3438 108.17 64.2009C112.715 65.0301 116.151 68.9282 116.356 73.4457C116.397 74.3869 115.682 75.1741 114.755 75.2071C113.827 75.24 113.045 74.508 113.004 73.5669C112.895 71.0393 110.997 68.1614 107.591 67.5294C104.464 66.9534 101.777 68.397 100.575 71.3039C100.271 72.0541 99.5163 72.4513 98.761 72.3109Z" fill="#0E51A0"/>
<path d="M92.8852 75.9463C93.5626 76.0881 93.9021 77.3758 93.5492 78.6384C92.3667 82.6488 89.9418 85.2615 87.5906 84.8565C85.2394 84.4515 83.6856 81.0576 83.7236 76.8486C83.7341 75.5442 84.4144 74.4401 85.1305 74.5273L92.8852 75.9463Z" fill="#032663"/>
<path d="M70.6824 51.1484C70.7621 51.1488 70.8551 51.1225 70.9348 51.0693C72.0912 50.3646 73.4729 50.252 74.7344 50.7696C75.0133 50.8786 75.3189 50.7462 75.4254 50.4783C75.532 50.197 75.3995 49.8875 75.1339 49.7785C73.5669 49.1383 71.8398 49.2758 70.391 50.1532C70.1385 50.3128 70.0585 50.6345 70.2177 50.8906C70.2972 51.0655 70.4831 51.1606 70.6824 51.1484Z" fill="#032663"/>
<path d="M112.769 58.595C112.689 58.5678 112.623 58.5138 112.556 58.433C111.708 57.3701 110.447 56.7731 109.093 56.8183C108.801 56.8299 108.549 56.6007 108.536 56.2927C108.523 55.998 108.749 55.7451 109.054 55.7336C110.74 55.6771 112.319 56.4099 113.38 57.7419C113.565 57.9707 113.525 58.3052 113.3 58.4912C113.154 58.6376 112.941 58.663 112.769 58.595Z" fill="#032663"/>
<path d="M81.8872 97.9397C70.4478 95.9641 60.044 92.3952 51.6955 87.5837L51.6318 87.5518L51.5999 87.4881C49.7039 84.5884 48.4931 81.1152 48.0948 77.4348C47.107 68.5605 46.2307 54.8269 47.6327 39.6752C48.3019 32.3145 53.4799 26.4514 59.6616 26.0531C67.9783 25.5114 104.431 26.0372 130.752 38.3529C136.392 40.9976 139.291 48.2468 137.507 55.2092C133.731 69.9307 128.282 82.5969 124.395 90.6108C122.801 93.8769 120.555 96.697 117.878 98.7841L117.831 98.8319L117.767 98.8478C107.873 100.728 95.7642 100.505 83.6875 98.2265C83.0502 98.1468 82.4608 98.0512 81.8872 97.9397ZM83.7354 97.6688C95.7324 99.9312 107.729 100.154 117.544 98.3061C120.125 96.2827 122.307 93.5424 123.853 90.3878C127.74 82.3898 133.173 69.7714 136.933 55.0977C138.654 48.3902 135.882 41.4119 130.497 38.8946C104.288 26.6426 67.9783 26.1168 59.6935 26.6426C53.7826 27.025 48.8436 32.6491 48.1904 39.739C46.8043 54.8269 47.6805 68.5446 48.6524 77.3711C49.0507 80.9399 50.2138 84.3176 52.0301 87.1216C60.6176 92.0607 71.8658 95.8048 83.7354 97.6688Z" fill="#10319B"/>
<path d="M45.2919 82.6313C45.037 81.0062 44.8299 79.3174 44.6228 77.6764C44.2085 74.474 43.7943 71.16 43.1092 68.2763C41.9302 63.2895 38.0108 59.5932 34.9199 57.3627L35.2545 56.9006C38.425 59.179 42.456 62.9868 43.6668 68.1488C44.3519 71.0645 44.7821 74.3943 45.1804 77.6126C45.3875 79.2377 45.5946 80.9266 45.8495 82.5516L45.2919 82.6313Z" fill="#10319B"/>
<path d="M37.4229 90.0715C35.0171 83.7623 28.2299 69.3436 13.0624 57.4262C11.5807 56.2631 9.42983 57.4262 9.57322 59.3062L9.6847 60.772C10.784 75.6209 21.0126 88.2233 35.3198 92.3657C36.6899 92.7481 37.9327 91.4098 37.4229 90.0715Z" fill="#F5851F"/>
<path d="M35.3196 92.3498C36.6898 92.7481 37.9325 91.4098 37.4227 90.0715C35.3037 84.527 29.7911 72.7053 18.1924 61.8235C27.1782 72.6893 31.5596 86.7257 32.866 91.5372C33.6627 91.84 34.4752 92.1108 35.3196 92.3498Z" fill="#F89E1C"/>
<path d="M19.3517 64.1982C19.8775 63.7362 20.2917 63.5609 20.3554 63.5291L20.8174 64.5806L20.5944 64.0548L20.8334 64.5806C20.7696 64.6125 14.572 67.9742 19.973 82.9983L18.2842 81.5007C14.1577 69.5674 17.5513 65.7596 19.3517 64.1982Z" fill="#F89E1C"/>
<path d="M16.5826 60.3574C16.5826 60.3574 10.0823 62.0462 12.5996 72.0357C12.5996 72.0357 8.02697 60.8513 10.5124 57.4895C10.5283 57.4895 12.1375 55.3227 16.5826 60.3574Z" fill="#032663"/>
<path d="M10.1119 57.2828C10.2553 57.1554 10.3987 57.0598 10.574 56.9642C11.4502 56.5022 12.454 56.5978 13.2347 57.2032C28.6412 69.3117 35.4603 84.1607 37.6908 89.9759C37.9616 90.6929 37.8182 91.4895 37.2925 92.0631C36.7667 92.6366 35.986 92.8597 35.2371 92.6366C20.8821 88.4783 10.5103 75.6847 9.39499 60.788L9.28343 59.3222C9.2197 58.5256 9.53838 57.7767 10.1119 57.2828ZM36.7348 91.7922C36.7826 91.7604 36.8304 91.7126 36.8623 91.6648C37.2446 91.2505 37.3561 90.6929 37.149 90.1671C34.9504 84.3996 28.1792 69.6623 12.8841 57.6334C12.2947 57.1713 11.514 57.1076 10.8448 57.4581C10.1757 57.8086 9.79328 58.5096 9.85701 59.2585L9.96857 60.7242C11.052 75.3819 21.2804 87.9844 35.3965 92.0631C35.8744 92.2224 36.3684 92.1109 36.7348 91.7922Z" fill="#10319B"/>
<path d="M14.54 61.2809C15.5597 60.4046 16.4679 60.0859 16.4997 60.0859L16.6749 60.6276C16.42 60.7073 10.5251 62.7626 12.7238 72.0352L12.1661 72.1626C10.7004 65.965 12.7875 62.7944 14.54 61.2809Z" fill="#10319B"/>
<path d="M18.9705 64.1186C19.4803 63.6725 19.8786 63.4972 19.9423 63.4653L20.1654 63.9911C20.1017 64.023 13.8243 66.9226 18.5403 81.4051L17.9986 81.5804C14.2386 70.0135 17.2498 65.6003 18.9705 64.1186Z" fill="#10319B"/>
<path d="M131.325 103.359C136.885 99.5354 150.667 91.5374 169.929 90.3425C171.809 90.231 172.924 92.4137 171.745 93.8635L170.821 95.0107C161.469 106.609 145.903 111.166 131.771 106.434C130.401 105.988 130.146 104.172 131.325 103.359Z" fill="#F89E1C"/>
<path d="M133.538 104.361C133.57 104.361 133.586 104.377 133.618 104.377C138.907 105.859 144.611 103.804 147.798 99.3267C148.849 97.8449 149.694 96.1721 150.076 94.3398C141.743 96.5385 135.864 100.378 133.156 102.418C132.439 102.959 132.646 104.106 133.538 104.361Z" fill="#F4B821"/>
<path d="M142.334 108.156C153.152 108.3 163.731 103.616 170.821 95.0122L171.745 93.881C171.857 93.7376 171.936 93.5942 172.016 93.4508L171.14 90.6945C170.805 90.5034 170.407 90.4078 169.961 90.4396C168.017 90.5671 166.153 90.7583 164.321 91.0132C162.839 100.812 149.185 106.101 142.334 108.156Z" fill="#F5851F"/>
<path d="M160.955 92.4623C161.56 94.7884 161.417 100.158 151.491 107.423L149.531 107.55C163.36 97.9908 159.521 91.9046 159.473 91.8568L160.429 91.2036C160.477 91.2514 160.748 91.6975 160.955 92.4623Z" fill="#F89E1C"/>
<path d="M165.356 90.7445C165.356 90.7445 169.753 95.8269 161.994 102.614C161.994 102.614 172.111 96.0181 171.968 91.8279C171.968 91.8439 171.872 89.1513 165.356 90.7445Z" fill="#032663"/>
<path d="M172.429 91.9052C172.621 92.654 172.461 93.4347 171.967 94.0561L171.043 95.2032C161.659 106.834 145.838 111.454 131.675 106.722C130.942 106.483 130.416 105.846 130.304 105.081C130.193 104.316 130.527 103.568 131.165 103.137C136.295 99.6164 150.347 91.2838 169.912 90.073C170.884 90.0092 171.776 90.5191 172.238 91.3954C172.318 91.5547 172.382 91.7299 172.429 91.9052ZM130.91 105.177C131.037 105.655 131.372 106.021 131.85 106.181C145.791 110.833 161.356 106.292 170.581 94.8367L171.505 93.6896C171.983 93.1001 172.063 92.3194 171.712 91.6343C171.362 90.9652 170.693 90.5828 169.944 90.6306C150.522 91.8415 136.582 100.11 131.483 103.6C131.021 103.918 130.798 104.428 130.878 104.986C130.878 105.049 130.894 105.113 130.91 105.177Z" fill="#10319B"/>
<path d="M166.519 92.6673C167.108 94.9137 167.013 98.7056 162.281 102.975L161.898 102.545C168.988 96.1565 165.292 91.1218 165.133 90.9147L165.595 90.5642C165.595 90.5961 166.168 91.3608 166.519 92.6673Z" fill="#10319B"/>
<path d="M161.259 92.4897C161.833 94.6884 161.801 100.042 152.114 107.418L151.764 106.956C163.92 97.6836 160.367 91.7568 160.335 91.6931L160.813 91.3904C160.861 91.4541 161.084 91.8365 161.259 92.4897Z" fill="#10319B"/>
<path d="M74.8136 132.322C73.6824 132.131 72.5989 131.653 71.643 130.904C69.6355 129.326 68.6478 126.873 68.9983 124.34L71.0217 110.112C71.3881 107.579 73.0132 105.492 75.3871 104.536C77.761 103.58 80.3898 103.946 82.3973 105.54L93.7889 114.478C95.7326 116.007 96.7205 118.381 96.4337 120.835C96.1469 123.288 94.6333 125.359 92.3869 126.395C92.3232 126.427 92.2435 126.459 92.1639 126.491L92.0682 126.522L78.6373 131.923C77.3946 132.401 76.0722 132.545 74.8136 132.322ZM79.0357 105.253C77.9682 105.062 76.8688 105.189 75.8173 105.603C73.8258 106.4 72.4556 108.152 72.1529 110.271L70.1294 124.499C69.8267 126.618 70.6553 128.673 72.3441 129.996C74.0329 131.318 76.2315 131.637 78.2231 130.824L91.7337 125.391C91.7974 125.359 91.8611 125.343 91.9089 125.312C93.7889 124.451 95.0476 122.731 95.2866 120.675C95.5256 118.62 94.713 116.644 93.072 115.37L81.6804 106.432C80.8997 105.81 79.9916 105.412 79.0357 105.253Z" fill="#F89E1C"/>
<path d="M91.8471 125.792C91.9108 125.76 91.9745 125.728 92.0382 125.712C96.2922 123.769 97.0411 117.953 93.297 115.022L82.1602 106.291C78.3046 103.264 72.6327 105.558 71.9317 110.401L69.9561 124.31C69.271 129.154 74.0826 132.93 78.6233 131.113L91.7515 125.84C91.7993 125.824 91.8312 125.808 91.8471 125.792Z" fill="#032663"/>
<path d="M87.0847 122.784C87.1166 122.768 87.1644 122.752 87.1962 122.736C89.602 121.637 90.0162 118.371 87.9132 116.714L81.6359 111.806C79.4691 110.102 76.2666 111.392 75.8683 114.117L74.7531 121.955C74.3707 124.68 77.0792 126.815 79.6443 125.779L87.0369 122.8C87.0528 122.8 87.0688 122.8 87.0847 122.784Z" fill="#33FCFE"/>
<path d="M135.15 74.3962L143.148 71.4168C143.148 71.4168 148.836 50.896 143.738 40.2373L140.759 45.8933C140.743 45.8933 143.085 50.9597 135.15 74.3962Z" fill="#F4B821"/>
<path d="M121.99 107.807C119.696 109.655 107.571 113.256 107.571 113.256C107.571 113.256 110.901 116.793 109.913 122.879C109.181 127.435 104.194 130.749 104.194 130.749C107.364 135.37 104.72 142.061 100.944 146.841C97.1677 151.621 99.4301 153.596 99.4301 153.596C99.4301 153.596 120.461 131.53 124.348 117.765C125.925 112.172 121.99 107.807 121.99 107.807Z" fill="#F4B821"/>
<path d="M41.9629 121.159C41.9629 121.159 46.4239 121.175 48.2402 124.521C50.0565 127.851 59.3769 156.29 64.2044 166.71C65.0807 168.59 67.0563 174.867 70.5773 174.293C70.5773 174.293 65.5108 176.11 59.8867 168.096C54.2786 160.066 44.5121 130.097 41.9629 121.159Z" fill="#0E51A0"/>
<path d="M149.728 30.2129C149.632 30.117 149.632 29.9732 149.728 29.8773C149.824 29.7815 149.968 29.7815 150.064 29.8773C150.16 29.9732 150.16 30.117 150.064 30.2129C149.968 30.3087 149.824 30.3087 149.728 30.2129Z" fill="white"/>
<path d="M5.97281 95.2174C9.84 94.0572 15.1558 94.3795 18.3932 97.048C20.9125 99.1106 22.3233 103.584 18.6325 105.118C17.1839 105.711 12.4097 105.711 11.8429 103.7C11.4398 102.295 12.9136 101.457 14.0977 101.276C17.5618 100.722 20.8117 104.46 20.7235 107.799C20.6102 112.814 14.9039 114.477 10.873 114.516C10.6084 114.516 10.6714 115.031 10.873 115.044C17.7382 115.727 25.3969 109.217 19.2875 102.694C17.65 100.941 15.0802 99.6907 12.7121 100.658C11.3768 101.212 10.3187 102.449 10.9863 103.932C12.057 106.317 16.3651 106.729 18.4562 106.123C19.0105 105.972 19.5287 105.707 19.9788 105.343C20.4288 104.979 20.8011 104.524 21.0727 104.007C21.3442 103.49 21.5092 102.921 21.5575 102.336C21.6058 101.751 21.5363 101.162 21.3534 100.606C19.6654 94.2635 10.9863 92.8712 5.84684 94.8436C5.69568 94.8436 5.75867 95.269 5.93502 95.2174H5.97281Z" fill="#FF9E16"/>
<path d="M134.443 10.3843C134.443 10.3843 133.845 21.5233 142.108 27.7142L150.762 25.0675C150.762 25.0675 144.985 22.3058 142.108 10.3843H134.443Z" fill="#0055B8"/>
<path d="M16.3039 150.406C16.3039 150.406 13.0086 156.507 6.29766 157.255L2.25 153.188C2.25 153.188 7.20048 153.908 12.7829 148.471L16.3039 150.406Z" fill="#007BE0"/>
<path d="M177.694 51.7809C173.523 50.5137 167.788 50.8657 164.282 53.7803C161.564 56.0332 160.056 60.919 164.038 62.5945C165.6 63.2422 170.75 63.2422 171.362 61.0457C171.797 59.511 170.207 58.5958 168.93 58.3986C165.193 57.7932 161.687 61.8764 161.768 65.5232C161.904 71.0004 168.06 72.8168 172.408 72.859C172.694 72.859 172.626 73.4222 172.408 73.4363C165.002 74.1826 156.741 67.0721 163.317 59.9475C165.098 58.0325 167.87 56.6668 170.424 57.7228C171.865 58.3282 173.006 59.6799 172.286 61.2992C171.131 63.904 166.484 64.3546 164.228 63.6928C163.63 63.5279 163.071 63.2377 162.585 62.8401C162.1 62.4425 161.698 61.946 161.405 61.3812C161.112 60.8163 160.934 60.1953 160.882 59.5563C160.83 58.9174 160.905 58.2742 161.102 57.6665C162.923 50.739 172.272 49.2183 177.83 51.3726C177.993 51.3726 177.925 51.8372 177.735 51.7809H177.694Z" fill="#002E6D"/>
<path d="M113.027 170.473C113.027 170.473 116.326 177.468 123.044 178.326L127.081 173.663C127.081 173.663 122.894 174.019 117.366 167.785L113.027 170.473Z" fill="#998122"/>
<path d="M18.0615 24.949C18.0615 24.949 29.1324 26.3299 35.8762 18.505L33.8507 9.69043C33.8507 9.69043 30.6745 15.2599 18.5909 17.3312L18.0615 24.949Z" fill="#FF9E16"/>
<path d="M153.33 126.586C153.33 126.586 157.449 135.127 165.838 136.175L170.897 130.481C170.897 130.481 164.709 131.49 157.731 123.878L153.33 126.586Z" fill="#FFE784"/>
</g>
</svg>
