<svg width="320" height="320" viewBox="0 0 320 320" fill="none" xmlns="http://www.w3.org/2000/svg">
<mask id="mask0_908_23050" style="mask-type:alpha" maskUnits="userSpaceOnUse" x="0" y="0" width="320" height="320">
<rect width="320" height="320" rx="10" fill="#E7EBEE"/>
<path d="M150 154C150 152.9 150.9 152 152 152H168C168.53 152 169.039 152.211 169.414 152.586C169.789 152.961 170 153.47 170 154V166C170 166.53 169.789 167.039 169.414 167.414C169.039 167.789 168.53 168 168 168H152C151.47 168 150.961 167.789 150.586 167.414C150.211 167.039 150 166.53 150 166V154ZM161 163L158 160L152 166H168L163 161L161 163ZM165 159C165.53 159 166.039 158.789 166.414 158.414C166.789 158.039 167 157.53 167 157C167 156.47 166.789 155.961 166.414 155.586C166.039 155.211 165.53 155 165 155C164.47 155 163.961 155.211 163.586 155.586C163.211 155.961 163 156.47 163 157C163 157.53 163.211 158.039 163.586 158.414C163.961 158.789 164.47 159 165 159Z" fill="#868E96"/>
</mask>
<g mask="url(#mask0_908_23050)">
<path fill-rule="evenodd" clip-rule="evenodd" d="M117.307 309.057C148.386 312.968 188.973 316.807 205.756 290.248C222.639 263.533 185.01 232.941 185.391 201.318C185.697 175.909 220.654 153.266 207.669 131.461C194.938 110.081 161.31 124.789 136.956 119.978C107.54 114.167 79.6063 87.7866 52.5721 100.823C23.3357 114.922 9.46259 150.323 6.77251 182.757C4.13178 214.596 17.6071 245.219 38.6058 269.213C58.7619 292.243 86.993 305.241 117.307 309.057Z" fill="#FFF7D7"/>
<path d="M291.595 96.5564H225.836C225.077 96.5564 224.462 97.1717 224.462 97.9307V111.626C224.462 112.385 225.077 113 225.836 113H291.595C292.354 113 292.969 112.385 292.969 111.626V97.9307C292.969 97.1717 292.354 96.5564 291.595 96.5564Z" fill="url(#paint0_linear_908_23050)"/>
<path d="M121.311 91.8704C120.727 91.8704 120.403 91.6373 119.989 91.0531L114.116 83.0553H110.299V90.714C110.301 90.8663 110.272 91.0174 110.213 91.158C110.155 91.2986 110.068 91.4258 109.959 91.5316C109.849 91.6374 109.719 91.7196 109.577 91.7732C109.434 91.8268 109.282 91.8506 109.13 91.8431C108.98 91.8496 108.83 91.8248 108.691 91.7703C108.551 91.7158 108.424 91.6329 108.317 91.5267C108.211 91.4205 108.128 91.2935 108.074 91.1536C108.019 91.0137 107.995 90.864 108.001 90.714V66.1274C107.995 65.9777 108.02 65.8283 108.075 65.6888C108.129 65.5492 108.212 65.4226 108.319 65.3167C108.425 65.2109 108.552 65.1282 108.691 65.0739C108.831 65.0197 108.98 64.9949 109.13 65.0013C109.282 64.9939 109.434 65.0176 109.576 65.071C109.718 65.1244 109.848 65.2064 109.958 65.3119C110.067 65.4174 110.154 65.5441 110.213 65.6844C110.271 65.8247 110.3 65.9754 110.299 66.1274V80.9817H114.107L119.858 73.8649C120.21 73.3593 120.558 73.0899 121.103 73.0899C122.074 73.0899 122.465 73.9799 121.92 74.7215L116.087 81.9141L122.141 90.1207C122.764 91.0288 122.183 91.8704 121.287 91.8704" fill="#183760"/>
<path d="M141.987 81.5661C141.987 82.4984 141.442 83.0796 140.473 83.0796H126.343C126.618 87.0452 129.533 90.1571 133.653 90.1571C137.468 90.1571 138.669 88.2137 139.565 88.2137C139.682 88.2037 139.799 88.2186 139.909 88.2575C140.019 88.2963 140.12 88.3581 140.205 88.4389C140.289 88.5196 140.355 88.6174 140.399 88.7258C140.443 88.8342 140.463 88.9506 140.458 89.0673C140.458 90.3509 137.543 92.2186 133.578 92.2186C127.977 92.2186 124.009 87.8232 124.009 82.456C124.009 77.0889 127.784 72.7358 133.108 72.7358C138.709 72.7358 141.978 77.2463 141.978 81.563L141.987 81.5661ZM126.343 81.4086H139.68C139.293 77.2493 136.571 74.7489 133.072 74.7489C129.415 74.7489 126.773 77.6247 126.343 81.4086Z" fill="#183760"/>
<path d="M146.903 65.0014C147.055 64.9944 147.206 65.0184 147.348 65.072C147.49 65.1256 147.62 65.2077 147.729 65.3131C147.838 65.4186 147.924 65.5452 147.983 65.6852C148.041 65.8253 148.07 65.9758 148.069 66.1275V90.705C148.07 90.8568 148.041 91.0073 147.983 91.1473C147.924 91.2874 147.838 91.414 147.729 91.5194C147.62 91.6249 147.49 91.7069 147.348 91.7605C147.206 91.8141 147.055 91.8381 146.903 91.8311C146.753 91.838 146.604 91.8136 146.464 91.7595C146.324 91.7053 146.197 91.6226 146.092 91.5166C145.986 91.4107 145.903 91.2837 145.849 91.144C145.795 91.0042 145.77 90.8547 145.777 90.705V66.1275C145.77 65.9778 145.795 65.8283 145.849 65.6886C145.903 65.5488 145.986 65.4219 146.092 65.3159C146.197 65.21 146.324 65.1273 146.464 65.0731C146.604 65.0189 146.753 64.9945 146.903 65.0014Z" fill="#183760"/>
<path d="M170.881 74.2553V90.7019C170.866 90.9956 170.739 91.2723 170.525 91.4748C170.312 91.6773 170.029 91.7903 169.735 91.7903C169.441 91.7903 169.158 91.6773 168.945 91.4748C168.732 91.2723 168.605 90.9956 168.589 90.7019V88.0592C167.076 90.5475 164.545 92.2185 161.324 92.2185C156.151 92.2185 152.225 87.9441 152.225 82.4589C152.225 76.9737 156.075 72.7357 161.324 72.7357C162.789 72.712 164.233 73.0779 165.51 73.7959C166.786 74.514 167.849 75.5585 168.589 76.8224V74.2553C168.605 73.9616 168.732 73.685 168.945 73.4824C169.158 73.2799 169.441 73.167 169.735 73.167C170.029 73.167 170.312 73.2799 170.525 73.4824C170.739 73.685 170.866 73.9616 170.881 74.2553ZM168.589 82.4287C168.589 78.23 165.674 74.888 161.591 74.888C157.507 74.888 154.513 78.2179 154.513 82.4287C154.513 86.6394 157.507 90.0904 161.591 90.0904C165.674 90.0904 168.589 86.6304 168.589 82.4287Z" fill="#183760"/>
<path d="M181.96 92.2184C177.801 92.2184 174.65 89.9632 174.65 88.6433C174.65 88.0198 175.077 87.7352 175.622 87.7352C176.633 87.7352 177.916 90.2235 182.154 90.2235C184.915 90.2235 186.507 88.9007 186.507 86.9572C186.507 81.9049 175.307 84.3539 175.307 77.7032C175.307 74.8668 177.759 72.7266 181.839 72.7266C185.224 72.7266 187.985 74.3188 187.985 75.4873C187.989 75.6042 187.969 75.7208 187.925 75.8293C187.882 75.9377 187.815 76.0357 187.731 76.1167C187.646 76.1977 187.546 76.2598 187.436 76.299C187.325 76.3382 187.208 76.3535 187.092 76.344C186.041 76.344 184.797 74.7093 181.685 74.7093C179.157 74.7093 177.565 75.9535 177.565 77.6245C177.565 82.2924 188.766 80.0462 188.766 86.8422C188.766 89.9904 186.238 92.2063 181.96 92.2063" fill="#183760"/>
<path d="M211.95 82.4495C211.95 88.2011 207.933 92.1819 203.066 92.1819C201.989 92.2101 200.92 91.9957 199.937 91.5544C198.955 91.1132 198.084 90.4565 197.39 89.633V97.3583C197.39 97.9885 197.139 98.593 196.694 99.0386C196.248 99.4842 195.644 99.7346 195.014 99.7346C194.383 99.7346 193.779 99.4842 193.333 99.0386C192.888 98.593 192.637 97.9885 192.637 97.3583V75.4084C192.637 74.0189 193.603 73.0533 195.035 73.0533C195.615 73.0266 196.184 73.2247 196.623 73.6063C197.061 73.9879 197.336 74.5238 197.39 75.1026C198.701 73.5558 200.596 72.6809 203.066 72.6809C208.163 72.6809 211.95 76.8917 211.95 82.4526V82.4495ZM207.198 82.4919C207.198 79.4799 205.151 77.0854 202.294 77.0854C199.436 77.0854 197.39 79.4799 197.39 82.4919C197.39 85.4283 199.473 87.7834 202.294 87.7834C205.115 87.7834 207.198 85.4283 207.198 82.4919Z" fill="#183760"/>
<path d="M217.03 91.7857C216.717 91.8008 216.404 91.7503 216.111 91.6373C215.819 91.5243 215.553 91.3513 215.331 91.1295C215.109 90.9077 214.936 90.642 214.823 90.3494C214.71 90.0568 214.66 89.7438 214.675 89.4305V75.4088C214.659 75.0986 214.707 74.7884 214.817 74.498C214.928 74.2076 215.097 73.9432 215.315 73.7218C215.532 73.5003 215.794 73.3265 216.082 73.2115C216.371 73.0965 216.68 73.0427 216.991 73.0536C218.42 73.0536 219.385 74.0193 219.385 75.4088V89.4305C219.4 89.7438 219.35 90.0568 219.237 90.3494C219.124 90.642 218.951 90.9077 218.729 91.1295C218.507 91.3513 218.242 91.5243 217.949 91.6373C217.656 91.7503 217.343 91.8008 217.03 91.7857Z" fill="#183760"/>
<path d="M240.025 80.4672V89.4307C240.04 89.7439 239.989 90.0569 239.876 90.3495C239.763 90.6421 239.59 90.9078 239.368 91.1296C239.147 91.3514 238.881 91.5244 238.588 91.6374C238.296 91.7504 237.983 91.8009 237.669 91.7858C237.354 91.8014 237.039 91.7516 236.744 91.6393C236.449 91.527 236.181 91.3547 235.956 91.1334C235.731 90.9121 235.554 90.6465 235.437 90.3534C235.32 90.0603 235.264 89.7461 235.275 89.4307V81.1635C235.275 78.654 233.807 77.0708 231.527 77.0708C229.248 77.0708 227.783 78.654 227.783 81.1635V89.4307C227.761 90.0411 227.503 90.6192 227.063 91.0432C226.624 91.4673 226.037 91.7043 225.426 91.7043C224.815 91.7043 224.228 91.4673 223.789 91.0432C223.349 90.6192 223.091 90.0411 223.069 89.4307V75.4089C223.053 75.0984 223.102 74.788 223.212 74.4974C223.323 74.2067 223.492 73.9422 223.71 73.7207C223.928 73.4992 224.19 73.3255 224.479 73.2107C224.768 73.0958 225.078 73.0424 225.388 73.0537C226.699 73.0537 227.589 73.8257 227.743 75.0244C228.9 73.5108 230.716 72.6663 232.956 72.6663C237.243 72.6663 240.025 75.642 240.025 80.4672Z" fill="#183760"/>
<path d="M254.022 87.1908C255.299 87.1908 255.953 88.0384 255.953 88.9647C255.953 90.7416 254.022 92.1704 250.974 92.1704C247.15 92.1704 244.717 89.8547 244.717 85.3351V77.3404H243.015C241.78 77.3404 240.93 76.4928 240.93 75.2214C240.919 74.9464 240.967 74.6724 241.069 74.4168C241.17 74.1611 241.324 73.9295 241.52 73.7367C241.717 73.5439 241.951 73.3941 242.208 73.2968C242.466 73.1996 242.741 73.1571 243.015 73.172H244.753V70.6625C244.753 69.2337 245.722 68.268 247.072 68.268C247.391 68.25 247.71 68.2996 248.009 68.4136C248.307 68.5276 248.579 68.7033 248.805 68.9294C249.031 69.1554 249.207 69.4266 249.321 69.7253C249.434 70.024 249.484 70.3433 249.466 70.6625V73.172H252.941C253.494 73.172 254.025 73.3917 254.416 73.7829C254.807 74.174 255.027 74.7045 255.027 75.2577C255.027 75.8109 254.807 76.3414 254.416 76.7325C254.025 77.1237 253.494 77.3434 252.941 77.3434H249.548V85.88C249.548 87.2695 250.153 87.772 251.207 87.772C252.26 87.772 253.138 87.1938 254.025 87.1938" fill="#183760"/>
<path d="M275.5 75.4089V89.4307C275.515 89.7441 275.464 90.0572 275.35 90.3498C275.237 90.6423 275.064 90.908 274.842 91.1298C274.62 91.3515 274.354 91.5244 274.061 91.6374C273.768 91.7503 273.455 91.8009 273.142 91.7858C271.792 91.7858 270.826 90.8988 270.75 89.6214C269.436 91.2076 267.545 92.1702 265.111 92.1702C260.204 92.1702 256.229 88.1925 256.229 82.4016C256.229 76.8377 259.974 72.6663 265.111 72.6663C267.532 72.6663 269.436 73.5562 270.75 75.088C270.905 73.8529 271.831 73.0416 273.142 73.0416C273.455 73.0265 273.768 73.0771 274.061 73.19C274.354 73.303 274.62 73.4759 274.842 73.6977C275.064 73.9194 275.237 74.1851 275.35 74.4777C275.464 74.7703 275.515 75.0833 275.5 75.3968V75.4089ZM270.738 82.4016C270.738 79.4259 268.689 77.0708 265.87 77.0708C263.052 77.0708 260.927 79.4259 260.927 82.4016C260.927 85.3773 263.013 87.7688 265.87 87.7688C268.728 87.7688 270.738 85.3743 270.738 82.4016Z" fill="#183760"/>
<path d="M291.737 75.2181C291.737 76.6075 290.772 77.4551 289.421 77.4551C288.686 77.4551 287.875 77.2251 286.794 77.2251C285.096 77.2251 283.976 78.4995 283.976 80.4702V89.4275C283.987 89.7441 283.934 90.0597 283.821 90.3556C283.708 90.6514 283.536 90.9214 283.316 91.1493C283.096 91.3773 282.832 91.5586 282.541 91.6825C282.249 91.8063 281.936 91.8702 281.619 91.8702C281.302 91.8702 280.989 91.8063 280.697 91.6825C280.405 91.5586 280.142 91.3773 279.922 91.1493C279.702 90.9214 279.53 90.6514 279.417 90.3556C279.304 90.0597 279.251 89.7441 279.262 89.4275V75.4088C279.246 75.0983 279.295 74.7879 279.405 74.4973C279.515 74.2066 279.685 73.9421 279.903 73.7206C280.121 73.4991 280.383 73.3254 280.672 73.2106C280.961 73.0957 281.27 73.0423 281.581 73.0536C282.931 73.0536 283.861 73.9043 283.976 75.1394C284.477 74.3796 285.16 73.7563 285.962 73.3252C286.764 72.894 287.66 72.6687 288.571 72.6692C290.118 72.6692 291.737 73.4805 291.737 75.2181Z" fill="#183760"/>
<path d="M234.273 101.757H235.674C236.607 101.757 237.024 102.223 237.024 102.968C237.024 103.713 236.607 104.212 235.674 104.212H234.273V101.757ZM232.596 100.371V108.717H234.27V105.456H235.06L236.9 108.711H238.838L236.834 105.332C237.379 105.212 237.866 104.908 238.213 104.47C238.559 104.031 238.744 103.487 238.735 102.929C238.735 101.53 237.733 100.371 235.723 100.371H232.596Z" fill="white"/>
<path d="M240.381 100.359V108.717H245.222V107.351H242.055V105.142H244.862V103.816H242.055V101.721H245.222V100.359H240.381Z" fill="white"/>
<path d="M246.454 104.53C246.437 105.094 246.535 105.656 246.743 106.181C246.951 106.706 247.265 107.183 247.665 107.582C248.064 107.981 248.542 108.294 249.067 108.501C249.593 108.708 250.155 108.805 250.72 108.786C251.673 108.805 252.602 108.49 253.348 107.896C254.093 107.301 254.607 106.465 254.8 105.532V104.073H250.278V105.353H253.147C253.064 105.911 252.775 106.418 252.337 106.774C251.899 107.13 251.344 107.31 250.78 107.278C249.227 107.278 248.174 106.228 248.174 104.527C248.174 102.825 249.215 101.802 250.71 101.802C251.105 101.779 251.498 101.867 251.845 102.057C252.191 102.247 252.477 102.531 252.669 102.877H254.594C254.055 101.203 252.575 100.258 250.71 100.258C250.146 100.242 249.584 100.341 249.06 100.55C248.535 100.759 248.059 101.073 247.66 101.473C247.261 101.873 246.949 102.35 246.741 102.875C246.534 103.4 246.436 103.962 246.454 104.527" fill="white"/>
<path d="M261.19 100.371V105.535C261.19 106.682 260.57 107.282 259.492 107.282C258.414 107.282 257.809 106.676 257.809 105.535V100.371H256.135V105.517C256.135 107.718 257.648 108.795 259.465 108.795C261.281 108.795 262.867 107.724 262.867 105.523V100.377L261.19 100.371Z" fill="white"/>
<path d="M264.608 100.371V108.717H269.034V107.391H266.282V100.371H264.608Z" fill="white"/>
<path d="M273.671 102.296L274.882 105.789H272.46L273.671 102.296ZM272.703 100.359L269.7 108.717H271.458L272.009 107.124H275.339L275.887 108.717H277.658L274.658 100.359H272.703Z" fill="white"/>
<path d="M280.567 101.757H281.966C282.898 101.757 283.316 102.223 283.316 102.968C283.316 103.713 282.898 104.212 281.966 104.212H280.567V101.757ZM278.893 100.371V108.717H280.567V105.456H281.354L283.198 108.711H285.132L283.149 105.332C283.695 105.212 284.182 104.908 284.528 104.47C284.875 104.031 285.059 103.487 285.05 102.929C285.05 101.53 284.045 100.371 282.023 100.371H278.893Z" fill="white"/>
<path d="M214.454 68.2706C214.45 68.7817 214.598 69.2826 214.879 69.7094C215.161 70.1362 215.563 70.4696 216.034 70.6673C216.505 70.865 217.025 70.918 217.526 70.8195C218.028 70.7211 218.489 70.4756 218.851 70.1143C219.212 69.7531 219.458 69.2924 219.557 68.791C219.657 68.2895 219.604 67.7698 219.407 67.2982C219.21 66.8266 218.877 66.4243 218.45 66.1424C218.024 65.8606 217.523 65.7121 217.012 65.7156C216.336 65.7204 215.688 65.991 215.21 66.469C214.731 66.9471 214.46 67.5941 214.454 68.2706Z" fill="#FFCD00"/>
<path d="M214.454 68.2706C214.45 68.7817 214.598 69.2826 214.879 69.7094C215.161 70.1362 215.563 70.4696 216.034 70.6673C216.505 70.865 217.025 70.918 217.526 70.8195C218.028 70.7211 218.489 70.4756 218.851 70.1143C219.212 69.7531 219.458 69.2924 219.557 68.791C219.657 68.2895 219.604 67.7698 219.407 67.2982C219.21 66.8266 218.877 66.4243 218.45 66.1424C218.024 65.8606 217.523 65.7121 217.012 65.7156C216.336 65.7204 215.688 65.991 215.21 66.469C214.731 66.9471 214.46 67.5941 214.454 68.2706Z" fill="url(#paint1_linear_908_23050)"/>
<path d="M136.984 230.877C143.859 217.794 135.691 201.861 121.045 199.888L115.376 199.126C115.333 199.127 115.303 199.113 115.259 199.1L101.124 197.202L87.0506 194.853C87.0067 194.84 86.9777 194.84 86.9342 194.841L81.2905 193.905C66.7073 191.48 54.2181 204.309 56.9355 218.837C57.8246 223.583 58.8813 228.02 60.0339 232.194C60.6395 234.622 61.4835 237.32 62.4605 240.117C66.6599 252.666 71.6111 262.408 75.3454 270.332C75.4828 270.634 75.6493 270.935 75.8012 271.237C78.2961 276.326 83.2878 279.325 88.6511 280.064C94.003 280.949 99.6532 279.546 103.529 275.421C103.771 275.184 104.013 274.946 104.239 274.694C110.127 268.229 117.727 260.361 125.438 249.599C127.187 247.207 128.792 244.876 130.082 242.74C132.428 239.085 134.739 235.155 136.984 230.877Z" fill="#F89E1C"/>
<path d="M108.14 255.181C113.287 248.079 106.184 241.61 96.6629 245.365C85.3117 249.829 79.536 246.193 74.3036 233.58C70.0534 223.343 61.4193 224.506 58.3277 225.315C58.8897 227.744 59.4789 230.085 60.1097 232.338C60.7153 234.765 61.5593 237.464 62.5363 240.261C66.7357 252.809 71.6869 262.552 75.4212 270.475C75.5586 270.777 75.725 271.079 75.877 271.381C78.3719 276.469 83.3636 279.469 88.7268 280.208C94.0787 281.092 99.729 279.689 103.605 275.565C103.847 275.327 104.088 275.089 104.315 274.837C106.245 272.731 108.345 270.462 110.587 268.001C106.548 266.695 103.176 262.047 108.14 255.181Z" fill="#032663"/>
<path d="M88.353 280.39C82.6822 279.542 77.9159 276.218 75.5884 271.474C75.4367 271.187 75.2703 270.886 75.1325 270.569C74.599 269.433 74.0351 268.239 73.4416 267.017C70.045 259.914 65.8255 251.071 62.2322 240.311C61.1933 237.341 60.3786 234.657 59.8053 232.373C59.1738 230.092 58.5695 227.722 58.0233 225.351L57.9597 225.106L58.2054 225.042C61.6726 224.138 70.2092 223.165 74.4897 233.459C79.8299 246.346 85.5928 249.401 96.5115 245.092C102.316 242.8 106.883 244.326 108.857 246.855C110.652 249.183 110.445 252.341 108.302 255.309C106.131 258.321 105.394 261.156 106.173 263.55C106.811 265.469 108.473 267.03 110.609 267.71L111.004 267.832L110.735 268.128C109.487 269.507 108.266 270.827 107.102 272.088C106.194 273.081 105.315 274.031 104.463 274.965C104.236 275.217 103.995 275.469 103.753 275.692C100.076 279.609 94.4484 281.39 88.6441 280.413C88.5427 280.43 88.4553 280.417 88.353 280.39ZM88.7204 279.917C94.3495 280.854 99.8184 279.135 103.382 275.352C103.624 275.114 103.866 274.876 104.078 274.639C104.93 273.705 105.81 272.756 106.718 271.762C107.796 270.591 108.917 269.36 110.08 268.099C107.956 267.303 106.337 265.697 105.684 263.735C105.092 261.961 104.998 258.999 107.889 255.027L108.096 255.182L107.889 255.027C109.891 252.251 110.103 249.326 108.458 247.198C106.618 244.826 102.272 243.411 96.726 245.596C85.6056 249.982 79.4609 246.746 74.0294 233.673C70.0092 223.983 62.0907 224.651 58.6077 225.498C59.1375 227.782 59.7105 230.051 60.3259 232.26C60.8992 234.543 61.7132 237.199 62.7376 240.169C66.3303 250.901 70.5349 259.729 73.9166 266.818C74.4957 268.04 75.0593 269.219 75.6077 270.37C75.7451 270.672 75.8967 270.959 76.0632 271.26C78.3452 275.918 83.0809 279.17 88.7204 279.917Z" fill="#10319B"/>
<path d="M88.8926 280.48C88.7907 280.468 88.7032 280.456 88.6009 280.429C82.801 279.656 77.9176 276.291 75.5591 271.46C75.4075 271.173 75.241 270.872 75.1033 270.555C74.5697 269.419 74.0058 268.225 73.4122 267.003C70.0157 259.901 65.7962 251.058 62.2028 240.298C61.1639 237.327 60.3493 234.643 59.7759 232.36C58.5604 227.969 57.517 223.474 56.6772 218.988C55.36 211.955 57.4733 204.993 62.4756 199.899C67.4492 194.82 74.3021 192.606 81.3308 193.759L86.9744 194.695L87.091 194.707L101.164 197.056L115.3 198.953L115.373 198.966L121.085 199.727C128.138 200.676 134.042 204.832 137.305 211.139C140.583 217.489 140.554 224.754 137.235 231.09C135.116 235.118 132.792 239.121 130.334 242.967C129.114 244.985 127.552 247.3 125.676 249.841C119.079 259.067 112.438 266.275 107.116 272.059C106.194 273.052 105.314 274.016 104.463 274.95C104.236 275.202 103.995 275.455 103.753 275.678C100.104 279.565 94.5779 281.329 88.8926 280.48ZM88.6914 279.918C94.3205 280.855 99.7894 279.136 103.353 275.353C103.595 275.115 103.837 274.877 104.049 274.64C104.901 273.706 105.78 272.742 106.703 271.748C112.024 265.964 118.651 258.771 125.234 249.574C127.096 247.034 128.658 244.733 129.864 242.731C132.322 238.899 134.631 234.91 136.752 230.897C140.001 224.708 140.019 217.617 136.831 211.425C133.645 205.277 127.86 201.22 121.01 200.295L115.341 199.534L115.268 199.521L101.074 197.61L86.9869 195.262L86.8704 195.25L81.2268 194.313C74.402 193.185 67.6788 195.353 62.8331 200.298C57.9589 205.273 55.8999 212.06 57.1846 218.933C58.0237 223.39 59.0671 227.886 60.2823 232.261C60.8556 234.544 61.6697 237.2 62.694 240.171C66.2867 250.902 70.4914 259.73 73.8732 266.819C74.4522 268.041 75.0157 269.22 75.5641 270.371C75.7015 270.673 75.8532 270.96 76.0196 271.261C78.3159 275.904 83.0516 279.156 88.6914 279.918Z" fill="#10319B"/>
<path d="M133.259 209.557C130.098 205.863 125.755 203.286 120.567 202.586L114.869 201.825C114.825 201.826 114.796 201.812 114.752 201.799L100.544 199.918L86.3978 197.541C86.3539 197.528 86.3249 197.528 86.2813 197.529L80.6083 196.579C72.7476 195.256 67.6275 200.279 62.9342 206.209C61.8738 207.54 62.4123 209.563 63.9648 210.124C77.0285 214.806 107.155 222.366 133.259 209.557Z" fill="#E26907"/>
<path d="M70.0629 128.114C73.2388 126.519 76.9317 125.304 80.9378 124.46L80.6913 124.48C80.6913 124.48 93.8927 119.584 112.057 122.308C130.163 125.033 141.506 133.414 141.58 133.47C145.272 135.51 148.519 137.793 151.146 140.306C163.821 152.421 159.437 173.702 150.184 192.969C143.446 206.993 121.031 210.466 99.6807 206.911C78.229 204.012 57.8144 194.102 55.4997 178.723C52.317 157.579 54.3694 135.972 70.0629 128.114Z" fill="#F89E1C"/>
<path d="M90.6291 241.894C89.2734 241.692 87.9684 241.154 86.8161 240.293C84.3783 238.458 83.1232 235.565 83.492 232.52L85.5794 215.14C85.9485 212.11 87.8399 209.583 90.6465 208.374C93.4535 207.179 96.5855 207.546 99.0379 209.38L113.147 219.953C115.51 221.717 116.749 224.523 116.465 227.464C116.181 230.405 114.435 232.914 111.789 234.193C111.703 234.238 111.617 234.269 111.53 234.315L111.415 234.361L95.2075 241.3C93.7247 241.928 92.1453 242.123 90.6291 241.894ZM95.0587 208.814C93.732 208.611 92.3556 208.787 91.0456 209.339C88.5842 210.395 86.9331 212.611 86.6137 215.263L84.5264 232.643C84.207 235.294 85.2947 237.842 87.4369 239.451C89.5792 241.06 92.3178 241.378 94.7794 240.336L111.088 233.351C111.16 233.32 111.232 233.29 111.318 233.244C113.633 232.132 115.154 229.934 115.402 227.357C115.651 224.794 114.565 222.333 112.497 220.795L98.388 210.223C97.3977 209.46 96.2541 208.991 95.0587 208.814Z" fill="#F89E1C"/>
<path d="M90.5447 242.013C89.2035 241.81 87.913 241.271 86.761 240.425C84.338 238.604 83.0977 235.725 83.4675 232.724L85.6037 214.922C85.9589 211.921 87.8361 209.409 90.6286 208.214C93.421 207.02 96.5243 207.402 98.947 209.208L113.41 220.034C115.744 221.784 116.983 224.576 116.698 227.474C116.413 230.386 114.681 232.879 112.064 234.143C111.978 234.189 111.892 234.22 111.806 234.265L111.705 234.311L95.094 241.418C93.6112 242.047 92.0463 242.241 90.5447 242.013ZM95.0874 208.131C93.6733 207.915 92.2097 208.092 90.828 208.69C88.2227 209.808 86.4582 212.157 86.1136 214.983L83.9774 232.786C83.6328 235.612 84.7964 238.303 87.0716 240.011C89.3468 241.719 92.2603 242.062 94.8656 240.944L111.577 233.791C111.664 233.76 111.735 233.714 111.822 233.683C114.28 232.496 115.9 230.165 116.159 227.427C116.419 224.705 115.272 222.1 113.085 220.448L98.6219 209.622C97.5581 208.817 96.3412 208.321 95.0874 208.131Z" fill="#10319B"/>
<path d="M70.05 128.187C71.717 127.351 73.5316 126.614 75.4503 125.99C60.0359 133.987 58.0107 155.507 61.1766 176.549C63.492 191.957 83.8925 201.883 105.344 204.781C117.492 206.795 129.967 206.534 139.719 203.356C129.477 208.696 114.313 209.582 99.6424 207.144C78.1907 204.246 57.7902 194.321 55.4749 178.912C52.2912 157.725 54.3571 136.074 70.05 128.187Z" fill="#F5851F"/>
<path d="M73.9555 147.179C65.5323 144.066 67.0413 130.113 67.1157 129.53L68.15 129.653C68.1383 129.784 66.6649 143.373 74.3117 146.197L73.9555 147.179Z" fill="#F89E1C"/>
<path d="M139.859 157.613L139.72 156.57C148.746 155.369 151.358 141.377 151.384 141.246L152.42 141.426C152.303 142.039 149.638 156.308 139.859 157.613Z" fill="#F4B821"/>
<path d="M110.833 134.699C105.964 133.964 101.671 131.69 99.4382 128.601C99.3634 128.501 99.2885 128.4 99.2282 128.3L95.2882 122.255L96.6061 121.398L100.546 127.443C100.606 127.529 100.651 127.6 100.726 127.686C102.898 130.675 107.305 132.83 112.255 133.288C117.06 133.734 121.465 132.562 124.042 130.137L128.084 126.328L129.156 127.467L125.084 131.29C122.18 134.013 117.328 135.355 112.072 134.861C111.664 134.812 111.241 134.763 110.833 134.699Z" fill="#F4B821"/>
<path d="M109.969 140.312C103.511 139.336 97.9949 136.289 94.8479 131.942C94.7282 131.785 94.623 131.627 94.5178 131.47L94.3975 131.283L88.9987 122.989L90.3165 122.132L95.8354 130.598C95.9257 130.741 96.0306 130.884 96.1355 131.027C99.0424 135.031 104.175 137.853 110.225 138.766C110.721 138.843 111.216 138.904 111.726 138.951C118.22 139.564 124.125 137.864 127.926 134.279L133.705 128.848L134.776 129.987L128.997 135.418C124.869 139.301 118.516 141.155 111.571 140.509C111.018 140.449 110.494 140.388 109.969 140.312Z" fill="#F4B821"/>
<path d="M149.745 143.955C147.117 141.426 143.87 139.115 140.178 137.075C140.104 137.019 128.869 127.633 110.763 124.908C98.8529 123.121 88.1389 123.531 82.1493 124.041C86.061 122.865 97.4496 120.101 112.042 122.293C130.148 125.018 141.493 133.457 141.567 133.514C145.259 135.554 148.506 137.865 151.134 140.394C162.43 151.275 160.13 169.517 152.918 187.111C158.992 170.66 160.284 154.112 149.745 143.955Z" fill="#F4B821"/>
<path d="M140.806 157.04L140.78 156.517C149.139 156.057 152.181 141.766 152.206 141.62L152.717 141.725C152.6 142.323 149.557 156.557 140.806 157.04Z" fill="#10319B"/>
<path d="M128.431 134.791L134.21 129.36C132.594 128.553 130.715 127.694 128.59 126.869L124.548 130.677C121.815 133.251 117.178 134.516 112.155 134.045C107.001 133.563 102.374 131.297 100.067 128.122C99.9923 128.036 99.932 127.936 99.8717 127.835L95.9318 121.791C93.5962 121.958 91.4807 122.223 89.642 122.525L95.0408 130.819L95.1612 131.005C95.2663 131.162 95.3712 131.305 95.4764 131.463C98.5034 135.639 103.886 138.586 110.082 139.511C110.592 139.586 111.102 139.648 111.626 139.694C118.337 140.302 124.474 138.525 128.431 134.791Z" fill="#032663"/>
<path d="M74.8257 147.116C66.6074 144.072 67.8025 129.719 67.8617 129.107L68.3857 129.154C68.3744 129.3 67.1664 143.725 75.0181 146.618L74.8257 147.116Z" fill="#10319B"/>
<path d="M99.5746 206.695C88.9652 205.258 78.6108 202.202 70.3309 197.677C68.6196 195.186 67.4188 192.118 66.966 188.713C65.7995 179.949 64.8489 167.794 65.7752 154.435C66.2261 147.858 70.7728 142.527 76.2256 142.058C83.6507 141.415 95.006 141.092 108.18 142.851L108.179 142.836C108.544 142.886 108.908 142.951 109.273 143.016C109.637 143.066 110.002 143.116 110.381 143.166L110.381 143.18C123.477 145.362 134.025 148.646 140.945 151.443C146.017 153.496 149 160.303 147.5 166.715C144.46 179.757 139.973 191.101 136.285 199.13C134.87 202.198 132.892 204.727 130.579 206.594C121.236 208.572 110.279 208.479 99.5746 206.695Z" fill="#032663"/>
<path d="M137.342 204.265L135.093 205.085C135.65 203.997 136.583 202.146 137.223 200.853C138.92 197.431 140.825 193.553 142.411 190.99C144.95 186.851 150.677 184.327 154.371 183.171L153.431 185.342C149.997 186.42 146.023 188.106 143.737 191.818C142.194 194.322 140.302 198.156 138.619 201.549C137.994 202.856 137.899 203.178 137.342 204.265Z" fill="#F4B821"/>
<path d="M65.0279 193.74C64.9259 193.728 64.8224 193.643 64.8053 193.527C64.6219 192.456 64.4217 191.283 64.2212 190.096C63.6181 186.463 62.9315 182.337 62.1682 179.346C61.0412 175.012 57.6373 172.195 54.4653 170.013C54.3472 169.929 54.3147 169.769 54.3993 169.651C54.4838 169.533 54.6429 169.501 54.761 169.585C58.0214 171.824 61.5144 174.725 62.674 179.219C63.4521 182.224 64.139 186.364 64.7424 190.012C64.9432 191.214 65.1286 192.372 65.3265 193.443C65.3442 193.588 65.26 193.72 65.1154 193.753C65.0864 193.753 65.0573 193.754 65.0279 193.74Z" fill="#F89E1C"/>
<path d="M153.619 185.294C152.6 187.874 151.48 190.441 150.257 192.982C147.757 198.21 143.118 201.988 137.172 204.487C139.206 200.49 141.097 195.973 143.243 192.482C145.769 188.417 150.358 186.325 153.619 185.294Z" fill="#032663"/>
<path d="M148.662 193.09C149.472 191.633 150.239 190.149 150.976 188.651C149.206 189.445 147.345 190.692 146.007 192.625C144.599 194.676 143.247 197.263 141.862 199.72C144.734 198.145 147.083 195.958 148.662 193.09Z" fill="#0E51A0"/>
<path d="M137.508 204.538L137.037 204.301C137.734 202.92 138.442 201.451 139.109 200.042C140.386 197.355 141.705 194.58 143.122 192.282C145.662 188.172 150.235 186.037 153.641 184.974L153.797 185.479C150.478 186.511 146.02 188.585 143.564 192.563C142.161 194.831 140.856 197.591 139.578 200.264C138.898 201.688 138.204 203.157 137.508 204.538Z" fill="#10319B"/>
<path d="M54.415 170.377C54.6359 173.148 54.9442 175.93 55.3541 178.711C56.2069 184.446 59.5274 189.415 64.4717 193.563C63.7061 189.148 63.2211 184.277 62.2037 180.304C60.9973 175.666 57.2185 172.321 54.415 170.377Z" fill="#032663"/>
<path d="M101.042 207.346C100.561 207.269 100.094 207.207 99.6276 207.13C80.7264 204.582 57.7752 195.614 55.2388 178.743C52.9592 163.638 51.8483 136.943 69.9418 127.884L70.0631 128.114L69.9418 127.884C73.1035 126.304 80.4982 124.281 80.8161 124.201C80.9168 124.156 94.0621 119.347 112.095 122.06C130.172 124.785 141.632 133.178 141.736 133.263C145.516 135.345 148.749 137.657 151.331 140.113C165.965 154.088 157.046 179.276 150.419 193.051C143.208 208.045 119.644 210.147 101.042 207.346ZM99.7033 206.605C100.17 206.682 100.637 206.759 101.117 206.821C119.559 209.597 142.863 207.558 149.949 192.814C156.506 179.172 165.358 154.232 150.961 140.485C148.423 138.056 145.22 135.773 141.454 133.691C141.307 133.592 129.965 125.255 112.019 122.555C94.1317 119.869 81.1162 124.631 80.9864 124.677C80.8854 124.708 73.3025 126.764 70.184 128.329C52.3923 137.236 53.5123 163.684 55.7597 178.644C58.261 195.24 80.9915 204.082 99.7033 206.605Z" fill="#10319B"/>
<path d="M100.034 204.462C90.9403 203.238 82.0364 200.732 74.6912 197.087C73.5453 196.516 72.5961 195.636 71.9902 194.516C70.9753 192.635 70.2596 190.486 69.9322 188.154C68.8284 180.26 67.904 169.295 68.7291 157.276C69.1363 151.353 73.3024 146.554 78.3208 146.153C85.1666 145.595 95.6223 145.336 107.762 146.972L107.761 146.957C108.097 147.008 108.432 147.059 108.768 147.124C109.103 147.175 109.438 147.211 109.788 147.261L109.788 147.276C121.863 149.277 131.788 152.618 138.164 155.151C142.84 157.009 145.423 162.823 144.069 168.606C141.305 180.349 137.214 190.552 133.828 197.775C132.843 199.889 131.546 201.705 130.039 203.206C129.171 204.053 128.065 204.6 126.863 204.801C118.655 206.188 109.25 205.988 100.034 204.462Z" fill="#FCE8CA"/>
<path d="M97.9589 206.571C87.4919 205 77.937 201.956 70.2305 197.737L70.1717 197.71L70.1414 197.652C68.355 195.047 67.1815 191.905 66.7446 188.559C65.666 180.489 64.5916 167.988 65.5655 154.149C66.0277 147.426 70.6299 141.978 76.2567 141.491C83.8267 140.83 117.065 140.577 141.304 151.275C146.498 153.573 149.287 160.122 147.8 166.505C144.654 179.999 139.941 191.654 136.558 199.037C135.172 202.046 133.181 204.662 130.783 206.618L130.74 206.663L130.682 206.679C121.701 208.591 110.66 208.631 99.6057 206.796C99.0232 206.736 98.484 206.661 97.9589 206.571ZM99.6381 206.287C110.619 208.108 121.559 208.071 130.468 206.189C132.78 204.293 134.715 201.751 136.06 198.845C139.443 191.476 144.142 179.865 147.275 166.414C148.709 160.266 146.042 153.96 141.083 151.774C116.947 141.132 83.8388 141.382 76.2975 142.027C70.9173 142.494 66.5282 147.72 66.0751 154.196C65.1144 167.977 66.1885 180.463 67.2516 188.489C67.6863 191.734 68.8143 194.79 70.5262 197.309C78.4531 201.639 88.7813 204.826 99.6381 206.287Z" fill="#10319B"/>
<path d="M64.2926 193.349C64.0276 191.873 63.805 190.338 63.5832 188.846C63.1413 185.935 62.6972 182.923 62.0149 180.308C60.8401 175.786 57.1932 172.496 54.3311 170.524L54.6268 170.097C57.5625 172.11 61.3133 175.5 62.5206 180.181C63.2036 182.825 63.6626 185.851 64.0902 188.777C64.3117 190.254 64.5343 191.789 64.7993 193.265L64.2926 193.349Z" fill="#10319B"/>
<path d="M57.2675 200.289C54.9479 194.587 48.4718 181.58 34.407 171.021C33.033 169.991 31.0958 171.094 31.2642 172.805L31.3953 174.139C32.6954 187.652 42.272 198.934 55.3965 202.423C56.6532 202.744 57.7591 201.499 57.2675 200.289Z" fill="#F5851F"/>
<path d="M55.3966 202.408C56.6535 202.744 57.7595 201.499 57.2679 200.289C55.2251 195.278 49.9629 184.613 39.1719 174.927C47.5808 184.651 51.8563 197.357 53.1438 201.717C53.876 201.977 54.6221 202.207 55.3966 202.408Z" fill="#F89E1C"/>
<path d="M40.2794 177.067C40.7494 176.635 41.1234 176.467 41.1809 176.437L41.6231 177.386L41.4093 176.911L41.6377 177.386C41.5802 177.416 35.9984 180.605 41.2232 194.191L39.6537 192.86C35.6527 182.065 38.6697 178.526 40.2794 177.067Z" fill="#F89E1C"/>
<path d="M37.6754 173.623C37.6754 173.623 31.784 175.293 34.2792 184.348C34.2792 184.348 29.8866 174.245 32.0847 171.131C32.0992 171.13 33.5225 169.123 37.6754 173.623Z" fill="#032663"/>
<path d="M31.7176 170.95C31.8458 170.831 31.9746 170.741 32.1324 170.65C32.9219 170.211 33.8387 170.278 34.5625 170.814C48.8491 181.542 55.3629 194.941 57.5128 200.197C57.7741 200.845 57.6593 201.574 57.1916 202.107C56.7239 202.641 56.0167 202.86 55.3296 202.671C42.1612 199.169 32.4501 187.715 31.1345 174.159L31.0034 172.825C30.9293 172.1 31.2047 171.411 31.7176 170.95ZM56.6779 201.872C56.7208 201.842 56.7634 201.797 56.7915 201.753C57.1317 201.368 57.2221 200.857 57.0228 200.382C54.9029 195.169 48.4349 181.871 34.2516 171.214C33.705 170.804 32.9921 170.762 32.3892 171.095C31.7863 171.428 31.4518 172.074 31.5249 172.756L31.656 174.089C32.9378 187.429 42.5143 198.711 55.4633 202.145C55.9022 202.281 56.3502 202.169 56.6779 201.872Z" fill="#10319B"/>
<path d="M35.8351 174.506C36.7469 173.687 37.5684 173.378 37.5974 173.378L37.768 173.868C37.5372 173.946 32.2051 175.937 34.3954 184.346L33.8896 184.473C32.4291 178.853 34.268 175.921 35.8351 174.506Z" fill="#10319B"/>
<path d="M39.9293 177.002C40.3851 176.585 40.7446 176.417 40.802 176.387L41.016 176.862C40.9585 176.892 35.2947 179.661 39.8842 192.768L39.3939 192.939C35.7344 182.47 38.3906 178.387 39.9293 177.002Z" fill="#10319B"/>
<path d="M143.132 210.516C148.123 206.919 160.525 199.352 178.059 197.876C179.771 197.737 180.831 199.704 179.785 201.049L178.966 202.114C170.674 212.874 156.577 217.34 143.6 213.31C142.342 212.931 142.073 211.281 143.132 210.516Z" fill="#F89E1C"/>
<path d="M145.17 211.387C145.199 211.386 145.214 211.4 145.243 211.4C150.095 212.644 155.252 210.656 158.067 206.511C158.996 205.14 159.732 203.598 160.044 201.92C152.493 204.091 147.211 207.709 144.783 209.623C144.14 210.131 144.352 211.172 145.17 211.387Z" fill="#F4B821"/>
<path d="M153.263 214.667C163.127 214.58 172.676 210.098 178.966 202.114L179.785 201.064C179.884 200.931 179.954 200.799 180.024 200.666L179.17 198.172C178.861 198.004 178.496 197.925 178.09 197.963C176.321 198.118 174.625 198.33 172.96 198.599C171.806 207.56 159.467 212.656 153.263 214.667Z" fill="#F5851F"/>
<path d="M169.925 199.988C170.524 202.096 170.501 206.993 161.599 213.815L159.815 213.97C172.229 204.979 168.607 199.509 168.563 199.466L169.421 198.851C169.465 198.894 169.721 199.295 169.925 199.988Z" fill="#F89E1C"/>
<path d="M173.899 198.331C173.899 198.331 178.009 202.876 171.073 209.218C171.073 209.218 180.163 203.003 179.948 199.186C179.948 199.201 179.807 196.748 173.899 198.331Z" fill="#032663"/>
<path d="M180.37 199.249C180.56 199.928 180.43 200.643 179.992 201.219L179.173 202.283C170.853 213.073 156.524 217.603 143.519 213.574C142.846 213.37 142.354 212.8 142.237 212.105C142.12 211.41 142.41 210.721 142.982 210.316C147.588 207.004 160.229 199.126 178.039 197.63C178.924 197.552 179.747 197.999 180.186 198.789C180.262 198.932 180.323 199.091 180.37 199.249ZM142.79 212.18C142.916 212.613 143.229 212.941 143.668 213.076C156.468 217.037 170.566 212.586 178.745 201.959L179.564 200.894C179.988 200.348 180.045 199.634 179.711 199.017C179.378 198.414 178.761 198.079 178.079 198.137C160.4 199.631 147.859 207.448 143.282 210.731C142.867 211.031 142.674 211.5 142.758 212.007C142.759 212.065 142.775 212.123 142.79 212.18Z" fill="#10319B"/>
<path d="M174.998 200.065C175.58 202.101 175.569 205.559 171.342 209.547L170.985 209.162C177.319 203.196 173.849 198.681 173.699 198.496L174.113 198.167C174.114 198.196 174.652 198.881 174.998 200.065Z" fill="#10319B"/>
<path d="M170.201 200.011C170.768 202.004 170.847 206.884 162.165 213.803L161.836 213.388C172.731 204.692 169.374 199.361 169.343 199.304L169.773 199.018C169.818 199.075 170.029 199.419 170.201 200.011Z" fill="#10319B"/>
<path d="M92.201 238.053C91.1661 237.902 90.1689 237.488 89.2825 236.824C87.421 235.427 86.4714 233.21 86.74 230.894L88.2988 217.885C88.5819 215.568 90.0213 213.633 92.166 212.714C94.3107 211.795 96.7144 212.076 98.5762 213.488L109.139 221.407C110.942 222.762 111.89 224.906 111.678 227.148C111.466 229.39 110.128 231.309 108.101 232.298C108.043 232.328 107.971 232.359 107.899 232.389L107.813 232.42L95.6785 237.613C94.5553 238.074 93.3528 238.231 92.201 238.053ZM95.5062 213.294C94.5293 213.141 93.5298 213.28 92.5796 213.678C90.7803 214.444 89.5665 216.069 89.3331 218.007L87.7743 231.016C87.5409 232.954 88.3374 234.811 89.9033 235.982C91.4693 237.154 93.4798 237.4 95.2788 236.62L107.485 231.396C107.542 231.366 107.6 231.35 107.643 231.32C109.34 230.498 110.452 228.904 110.629 227.026C110.806 225.148 110.025 223.363 108.504 222.234L97.9406 214.316C97.2165 213.765 96.3808 213.42 95.5062 213.294Z" fill="#F89E1C"/>
<path d="M107.594 231.757C107.652 231.727 107.709 231.696 107.767 231.68C111.606 229.823 112.171 224.507 108.7 221.91L98.3731 214.175C94.7978 211.494 89.6738 213.699 89.132 218.128L87.6104 230.846C87.0832 235.274 91.5448 238.62 95.6473 236.873L107.508 231.802C107.551 231.787 107.58 231.772 107.594 231.757Z" fill="#032663"/>
<path d="M103.192 229.108C103.22 229.093 103.264 229.077 103.292 229.062C105.463 228.012 105.775 225.026 103.825 223.558L98.0045 219.211C95.9952 217.701 93.102 218.941 92.7936 221.433L91.9343 228.6C91.6405 231.091 94.1522 232.983 96.4696 231.987L103.148 229.123C103.163 229.123 103.177 229.123 103.192 229.108Z" fill="#33FCFE"/>
<path d="M146.036 184.037L153.266 181.161C153.266 181.161 158.039 162.342 153.178 152.728L150.576 157.944C150.561 157.944 152.798 162.515 146.036 184.037Z" fill="#F4B821"/>
<path d="M134.711 214.756C132.656 216.486 121.677 220.012 121.677 220.012C121.677 220.012 124.783 223.169 124.005 228.737C123.428 232.905 118.949 236.026 118.949 236.026C121.932 240.174 119.656 246.326 116.31 250.759C112.964 255.191 115.066 256.947 115.066 256.947C115.066 256.947 133.793 236.411 137.06 223.785C138.385 218.656 134.711 214.756 134.711 214.756Z" fill="#F4B821"/>
<path d="M62.0308 228.532C62.0308 228.532 66.0974 228.457 67.8202 231.471C69.5426 234.469 78.6093 260.205 83.2189 269.606C84.0554 271.302 85.9822 276.985 89.1802 276.391C89.1802 276.391 84.5984 278.148 79.311 270.956C74.0378 263.75 64.5338 236.628 62.0308 228.532Z" fill="#0E51A0"/>
<path d="M75.413 180.376C75.2816 180.35 75.1503 180.324 75.0183 180.269C74.0802 179.897 73.6209 178.832 73.9925 177.894C75.8779 173.116 80.4124 170.531 85.5439 171.305C90.544 172.052 94.3976 176.152 94.7229 181.026C94.7888 182.042 94.0231 182.902 93.0075 182.968C91.9919 183.033 91.1323 182.268 91.0663 181.252C90.89 178.524 88.7452 175.477 84.9984 174.906C81.5579 174.386 78.6447 176.033 77.3925 179.214C77.0619 180.035 76.2291 180.489 75.413 180.376Z" fill="#0E51A0"/>
<path d="M112.222 185.901C112.091 185.874 111.959 185.848 111.827 185.793C110.889 185.421 110.43 184.356 110.802 183.418C112.687 178.64 117.221 176.055 122.353 176.829C127.353 177.576 131.207 181.676 131.532 186.551C131.598 187.566 130.833 188.44 129.817 188.506C128.801 188.572 127.927 187.807 127.861 186.791C127.685 184.063 125.54 181.016 121.793 180.445C118.353 179.925 115.44 181.572 114.187 184.753C113.871 185.574 113.053 186.028 112.222 185.901Z" fill="#0E51A0"/>
<path d="M103.845 192.115C104.165 192.166 104.347 192.496 104.223 192.79C103.808 193.743 102.789 194.332 101.711 194.182C100.632 194.017 99.8426 193.148 99.7182 192.119C99.6821 191.8 99.9671 191.547 100.273 191.584L103.845 192.115Z" fill="#032663"/>
<path d="M81.0436 163.572C81.1308 163.57 81.2318 163.539 81.3176 163.479C82.5642 162.681 84.0717 162.517 85.4635 163.039C85.771 163.148 86.1018 162.996 86.2116 162.703C86.321 162.395 86.1685 162.064 85.8755 161.955C84.1468 161.31 82.2623 161.511 80.7004 162.505C80.4283 162.685 80.3489 163.035 80.5293 163.307C80.6206 163.494 80.8261 163.592 81.0436 163.572Z" fill="#032663"/>
<path d="M127.183 170.518C127.095 170.491 127.022 170.435 126.947 170.349C125.992 169.222 124.599 168.614 123.119 168.704C122.799 168.726 122.518 168.485 122.496 168.151C122.475 167.832 122.715 167.551 123.049 167.529C124.892 167.416 126.637 168.162 127.831 169.574C128.04 169.817 128.004 170.181 127.762 170.389C127.605 170.553 127.374 170.587 127.183 170.518Z" fill="#032663"/>
<path d="M92.9808 220.673L221.5 99.5001L266 323C261.629 323.096 96.5555 231.245 96.5555 231.245L92.9808 220.673Z" fill="url(#paint2_radial_908_23050)"/>
<path d="M194.862 184.299C194.773 184.214 194.77 184.083 194.855 183.994C194.94 183.905 195.071 183.902 195.16 183.987C195.249 184.072 195.252 184.203 195.167 184.292C195.081 184.381 194.951 184.384 194.862 184.299Z" fill="white"/>
<path d="M177.978 207.41C177.889 207.324 177.886 207.194 177.972 207.105C178.057 207.016 178.187 207.013 178.276 207.098C178.366 207.183 178.368 207.314 178.283 207.403C178.213 207.492 178.067 207.495 177.978 207.41Z" fill="white"/>
<path d="M158.437 143.473C158.348 143.388 158.345 143.257 158.431 143.168C158.516 143.079 158.646 143.076 158.736 143.161C158.825 143.247 158.827 143.377 158.742 143.466C158.657 143.555 158.526 143.558 158.437 143.473Z" fill="white"/>
<path d="M252.054 211.822C252.054 212.083 252.26 212.289 252.521 212.289C252.783 212.289 252.989 212.083 252.989 211.822C252.989 211.56 252.783 211.354 252.521 211.354C252.26 211.373 252.054 211.579 252.054 211.822Z" fill="#FFD600"/>
<path d="M235.27 216.083C235.158 216.083 235.102 216.045 235.027 215.933L233.962 214.494H233.27V215.877C233.27 215.989 233.177 216.083 233.064 216.083C232.952 216.083 232.859 216.008 232.859 215.877V211.448C232.859 211.336 232.934 211.242 233.064 211.242C233.177 211.242 233.27 211.317 233.27 211.448V214.12H233.962L234.99 212.831C235.046 212.737 235.12 212.7 235.214 212.7C235.382 212.7 235.457 212.868 235.363 212.999L234.317 214.289L235.401 215.765C235.532 215.915 235.419 216.083 235.27 216.083Z" fill="#002E6D"/>
<path d="M238.989 214.214C238.989 214.382 238.896 214.495 238.709 214.495H236.167C236.223 215.205 236.746 215.766 237.475 215.766C238.167 215.766 238.372 215.41 238.541 215.41C238.634 215.41 238.709 215.466 238.709 215.56C238.709 215.784 238.186 216.121 237.475 216.121C236.466 216.121 235.756 215.336 235.756 214.364C235.756 213.392 236.429 212.607 237.401 212.607C238.391 212.626 238.989 213.448 238.989 214.214ZM236.167 214.196H238.559C238.485 213.448 237.999 212.999 237.363 212.999C236.728 212.999 236.242 213.523 236.167 214.196Z" fill="#002E6D"/>
<path d="M239.868 211.242C239.98 211.242 240.073 211.336 240.073 211.448V215.859C240.073 215.971 239.98 216.064 239.868 216.064C239.756 216.064 239.662 215.989 239.662 215.859V211.429C239.662 211.317 239.756 211.242 239.868 211.242Z" fill="#002E6D"/>
<path d="M244.185 212.906V215.859C244.185 215.971 244.111 216.064 243.98 216.064C243.849 216.064 243.774 215.99 243.774 215.859V215.392C243.494 215.84 243.045 216.139 242.466 216.139C241.531 216.139 240.821 215.373 240.821 214.382C240.821 213.41 241.513 212.625 242.466 212.625C243.045 212.625 243.494 212.906 243.774 213.354V212.887C243.774 212.775 243.849 212.682 243.98 212.682C244.111 212.7 244.185 212.794 244.185 212.906ZM243.774 214.382C243.774 213.635 243.251 213.018 242.522 213.018C241.793 213.018 241.251 213.616 241.251 214.382C241.251 215.13 241.793 215.765 242.522 215.765C243.251 215.747 243.774 215.13 243.774 214.382Z" fill="#002E6D"/>
<path d="M246.185 216.139C245.438 216.139 244.877 215.728 244.877 215.504C244.877 215.392 244.952 215.336 245.045 215.336C245.232 215.336 245.456 215.784 246.223 215.784C246.727 215.784 247.008 215.541 247.008 215.205C247.008 214.289 244.989 214.738 244.989 213.541C244.989 213.037 245.438 212.644 246.167 212.644C246.783 212.644 247.269 212.925 247.269 213.149C247.269 213.242 247.195 213.298 247.101 213.298C246.914 213.298 246.69 212.999 246.129 212.999C245.681 212.999 245.382 213.224 245.382 213.523C245.382 214.364 247.4 213.953 247.4 215.186C247.4 215.747 246.952 216.139 246.185 216.139Z" fill="#002E6D"/>
<path d="M251.606 214.382C251.606 215.41 250.877 216.139 249.999 216.139C249.569 216.139 249.214 215.971 248.971 215.672V217.055C248.971 217.298 248.802 217.485 248.541 217.485C248.279 217.485 248.111 217.298 248.111 217.055V213.111C248.111 212.868 248.279 212.682 248.541 212.682C248.765 212.682 248.933 212.831 248.971 213.055C249.214 212.775 249.55 212.625 249.999 212.625C250.914 212.625 251.606 213.373 251.606 214.382ZM250.746 214.382C250.746 213.84 250.372 213.41 249.868 213.41C249.363 213.41 248.989 213.84 248.989 214.382C248.989 214.906 249.363 215.336 249.868 215.336C250.372 215.336 250.746 214.906 250.746 214.382Z" fill="#002E6D"/>
<path d="M252.522 216.064C252.279 216.064 252.092 215.896 252.092 215.634V213.111C252.092 212.868 252.26 212.681 252.503 212.681C252.765 212.681 252.933 212.85 252.933 213.111V215.634C252.933 215.896 252.765 216.064 252.522 216.064Z" fill="#002E6D"/>
<path d="M256.652 214.027V215.635C256.652 215.878 256.484 216.065 256.222 216.065C255.979 216.065 255.792 215.896 255.792 215.635V214.14C255.792 213.691 255.531 213.411 255.12 213.411C254.708 213.411 254.447 213.691 254.447 214.14V215.635C254.447 215.878 254.278 216.065 254.017 216.065C253.774 216.065 253.587 215.896 253.587 215.635V213.112C253.587 212.869 253.755 212.682 253.998 212.682C254.241 212.682 254.391 212.813 254.428 213.037C254.634 212.756 254.97 212.607 255.362 212.607C256.147 212.626 256.652 213.149 256.652 214.027Z" fill="#002E6D"/>
<path d="M259.176 215.242C259.4 215.242 259.531 215.392 259.531 215.56C259.531 215.878 259.176 216.139 258.634 216.139C257.942 216.139 257.512 215.728 257.512 214.906V213.467H257.213C256.989 213.467 256.839 213.317 256.839 213.093C256.839 212.869 256.989 212.719 257.213 212.719H257.531V212.27C257.531 212.009 257.699 211.841 257.942 211.841C258.204 211.841 258.372 212.009 258.372 212.27V212.719H258.989C259.213 212.719 259.362 212.869 259.362 213.093C259.362 213.317 259.213 213.467 258.989 213.467H258.372V214.999C258.372 215.242 258.484 215.336 258.671 215.336C258.858 215.336 259.007 215.242 259.176 215.242Z" fill="#002E6D"/>
<path d="M263.044 213.111V215.635C263.044 215.878 262.876 216.064 262.614 216.064C262.371 216.064 262.203 215.896 262.184 215.672C261.941 215.952 261.605 216.139 261.175 216.139C260.297 216.139 259.568 215.429 259.568 214.382C259.568 213.373 260.241 212.625 261.175 212.625C261.605 212.625 261.96 212.794 262.184 213.055C262.203 212.831 262.371 212.682 262.614 212.682C262.857 212.682 263.044 212.868 263.044 213.111ZM262.184 214.364C262.184 213.822 261.811 213.41 261.306 213.41C260.783 213.41 260.409 213.84 260.409 214.364C260.409 214.906 260.783 215.336 261.306 215.336C261.811 215.336 262.184 214.906 262.184 214.364Z" fill="#002E6D"/>
<path d="M265.96 213.074C265.96 213.317 265.792 213.485 265.549 213.485C265.418 213.485 265.269 213.448 265.082 213.448C264.783 213.448 264.577 213.672 264.577 214.027V215.635C264.577 215.878 264.409 216.065 264.147 216.065C263.904 216.065 263.717 215.896 263.717 215.635V213.112C263.717 212.869 263.886 212.682 264.129 212.682C264.371 212.682 264.54 212.831 264.558 213.055C264.745 212.794 265.026 212.607 265.381 212.607C265.661 212.626 265.96 212.775 265.96 213.074Z" fill="#002E6D"/>
<path d="M226.317 213.71V215.897C226.317 215.99 226.242 216.065 226.148 216.065C226.055 216.065 225.98 215.99 225.98 215.897V215.784C225.849 215.971 225.644 216.102 225.364 216.102C224.896 216.102 224.522 215.71 224.522 215.186C224.522 214.663 224.878 214.271 225.364 214.271C225.625 214.271 225.849 214.383 225.98 214.57V213.691C225.98 213.598 226.036 213.523 226.148 213.523C226.261 213.56 226.317 213.616 226.317 213.71ZM225.999 215.186C225.999 214.85 225.775 214.57 225.438 214.57C225.102 214.57 224.878 214.831 224.878 215.186C224.878 215.523 225.121 215.803 225.438 215.803C225.756 215.803 225.999 215.523 225.999 215.186Z" fill="#0055B8"/>
<path d="M228.597 214.476V215.915C228.597 216.009 228.522 216.083 228.429 216.083C228.335 216.083 228.261 216.009 228.261 215.915V215.803C228.13 215.99 227.924 216.121 227.644 216.121C227.177 216.121 226.803 215.728 226.803 215.205C226.803 214.682 227.158 214.289 227.644 214.289C227.905 214.289 228.13 214.401 228.261 214.588V214.476C228.261 214.383 228.335 214.308 228.429 214.308C228.541 214.308 228.597 214.383 228.597 214.476ZM228.279 215.186C228.279 214.85 228.055 214.569 227.719 214.569C227.382 214.569 227.158 214.831 227.158 215.186C227.158 215.523 227.401 215.803 227.719 215.803C228.036 215.803 228.279 215.523 228.279 215.186Z" fill="#0055B8"/>
<path d="M230.26 214.458C230.26 214.551 230.204 214.607 230.111 214.607C230.055 214.607 229.98 214.588 229.887 214.588C229.681 214.588 229.55 214.757 229.55 215.018V215.915C229.55 216.009 229.476 216.084 229.382 216.084C229.289 216.084 229.214 216.028 229.214 215.915V214.476C229.214 214.383 229.289 214.308 229.382 214.308C229.476 214.308 229.55 214.364 229.55 214.476V214.532C229.644 214.383 229.793 214.271 229.999 214.271C230.111 214.271 230.26 214.327 230.26 214.458Z" fill="#0055B8"/>
<path d="M231.008 213.822C231.008 213.934 230.915 214.027 230.803 214.027C230.691 214.027 230.597 213.934 230.597 213.822C230.597 213.71 230.691 213.616 230.803 213.616C230.915 213.616 231.008 213.71 231.008 213.822ZM230.803 216.065C230.709 216.065 230.635 216.009 230.635 215.896V214.457C230.635 214.364 230.691 214.289 230.803 214.289C230.896 214.289 230.971 214.345 230.971 214.457V215.896C230.971 216.009 230.896 216.065 230.803 216.065Z" fill="#0055B8"/>
<path d="M221.925 194.252V207.504C221.925 214.775 216.485 216.251 212.822 216.251C208.561 216.251 204.374 214.719 204.374 211.709C204.374 210.308 205.383 209.336 206.878 209.336C208.673 209.336 209.701 210.981 212.467 210.981C214.616 210.981 216.149 209.878 216.149 207.747V206.513C215.065 207.485 213.607 208.046 211.775 208.046C207.589 208.046 204 204.682 204 199.448C204 194.439 207.589 191 211.775 191C213.85 191 215.439 191.617 216.542 192.682C217.009 191.86 217.906 191.355 219.009 191.355C220.728 191.355 221.925 192.533 221.925 194.252ZM216.149 199.448C216.149 197.654 214.785 196.252 212.953 196.252C211.121 196.252 209.757 197.654 209.757 199.448C209.757 201.28 211.121 202.644 212.953 202.644C214.785 202.644 216.149 201.243 216.149 199.448Z" fill="#0055B8"/>
<path d="M258.073 194.009C258.073 195.766 256.895 196.775 255.25 196.775C254.465 196.775 253.568 196.589 252.596 196.589C251.456 196.589 250.69 197.261 250.69 198.346V205.971C250.69 207.691 249.512 208.868 247.83 208.868C246.111 208.868 244.933 207.691 244.933 205.971V194.252C244.933 192.533 246.111 191.355 247.793 191.355C249.157 191.355 250.185 192.103 250.559 193.299C251.531 192.047 252.989 191 254.858 191C256.578 191 258.073 191.991 258.073 194.009Z" fill="#0055B8"/>
<path d="M268.147 203.467C269.755 203.467 270.839 202.177 270.839 200.215V193.897C270.839 192.178 272.016 191 273.698 191C275.418 191 276.596 192.178 276.596 193.897V200.626C276.596 205.579 273.231 208.868 268.147 208.868C263.026 208.868 259.662 205.579 259.662 200.626V193.897C259.662 192.178 260.839 191 262.521 191C264.241 191 265.418 192.178 265.418 193.897V200.196C265.418 202.177 266.503 203.467 268.147 203.467Z" fill="#0055B8"/>
<path d="M236.615 197.598C237.251 197.972 237.251 198.869 236.615 199.243L234.429 200.514L232.242 201.785C231.606 202.159 230.821 201.691 230.821 200.962V198.421V195.879C230.821 195.15 231.606 194.701 232.242 195.056L234.429 196.327L236.615 197.598Z" fill="#0055B8"/>
<path d="M225.793 193.28C226.392 193.28 226.878 192.795 226.878 192.196C226.878 191.597 226.392 191.112 225.793 191.112C225.195 191.112 224.709 191.597 224.709 192.196C224.709 192.795 225.195 193.28 225.793 193.28Z" fill="#A958FF"/>
<path d="M233.438 208.756C232.392 208.756 231.401 208.625 230.485 208.345C229.906 208.177 229.588 207.579 229.756 206.999C229.924 206.42 230.523 206.102 231.102 206.27C231.831 206.476 232.616 206.588 233.457 206.588C237.513 206.588 240.092 204.345 240.092 200.401C240.092 199.803 240.578 199.317 241.176 199.317C241.774 199.317 242.26 199.803 242.26 200.401C242.242 205.579 238.728 208.756 233.438 208.756ZM227.401 206.27C227.102 206.27 226.803 206.139 226.579 205.896C225.252 204.364 224.542 202.364 224.542 200.084V195.336C224.542 194.738 225.027 194.252 225.626 194.252C226.224 194.252 226.71 194.738 226.71 195.336V200.084C226.71 201.84 227.233 203.354 228.205 204.476C228.597 204.924 228.56 205.616 228.111 206.009C227.906 206.195 227.644 206.27 227.401 206.27Z" fill="#A958FF"/>
<path d="M226.896 210.045C226.672 210.045 226.448 209.97 226.242 209.84C225.925 209.597 225.756 209.223 225.812 208.83L226.317 205.074C226.392 204.476 226.953 204.064 227.532 204.139C228.13 204.214 228.541 204.756 228.466 205.354L228.223 207.167L230.186 206.27C230.728 206.027 231.363 206.27 231.625 206.812C231.868 207.354 231.625 207.989 231.083 208.251L227.345 209.952C227.195 210.026 227.046 210.045 226.896 210.045Z" fill="#A958FF"/>
<path d="M241.213 193.28C241.812 193.28 242.297 192.795 242.297 192.196C242.297 191.597 241.812 191.112 241.213 191.112C240.615 191.112 240.129 191.597 240.129 192.196C240.129 192.795 240.615 193.28 241.213 193.28Z" fill="#0055B8"/>
<path d="M241.213 198.401C240.615 198.401 240.129 197.915 240.129 197.317V195.374C240.129 194.775 240.615 194.29 241.213 194.29C241.811 194.29 242.297 194.775 242.297 195.374V197.336C242.279 197.934 241.811 198.401 241.213 198.401Z" fill="#0055B8"/>
<path d="M232.325 270.159C232.218 270.159 232.164 270.105 232.084 270.025L231.037 268.576H230.367V269.944C230.367 270.052 230.286 270.159 230.152 270.159C230.045 270.159 229.938 270.078 229.938 269.944V265.545C229.938 265.438 230.018 265.33 230.152 265.33C230.259 265.33 230.367 265.411 230.367 265.545V268.201H231.064L232.11 266.913C232.164 266.833 232.244 266.779 232.325 266.779C232.513 266.779 232.566 266.94 232.459 267.074L231.413 268.362L232.513 269.837C232.593 270.025 232.486 270.159 232.325 270.159Z" fill="#002E6D"/>
<path d="M236.053 268.308C236.053 268.469 235.946 268.577 235.785 268.577H233.237C233.29 269.301 233.8 269.837 234.551 269.837C235.249 269.837 235.463 269.489 235.624 269.489C235.732 269.489 235.785 269.542 235.785 269.65C235.785 269.891 235.249 270.213 234.551 270.213C233.532 270.213 232.834 269.435 232.834 268.469C232.834 267.504 233.505 266.726 234.471 266.726C235.463 266.726 236.053 267.53 236.053 268.308ZM233.237 268.281H235.624C235.544 267.53 235.061 267.074 234.444 267.074C233.8 267.101 233.317 267.611 233.237 268.281Z" fill="#002E6D"/>
<path d="M236.939 265.33C237.046 265.33 237.153 265.411 237.153 265.545V269.971C237.153 270.078 237.073 270.186 236.939 270.186C236.831 270.186 236.724 270.105 236.724 269.971V265.545C236.724 265.411 236.805 265.33 236.939 265.33Z" fill="#002E6D"/>
<path d="M241.231 266.994V269.945C241.231 270.052 241.151 270.159 241.016 270.159C240.882 270.159 240.802 270.079 240.802 269.945V269.462C240.534 269.918 240.078 270.213 239.487 270.213C238.549 270.213 237.851 269.435 237.851 268.469C237.851 267.504 238.549 266.726 239.487 266.726C240.078 266.726 240.534 267.021 240.802 267.45V266.994C240.802 266.887 240.882 266.779 241.016 266.779C241.151 266.806 241.231 266.887 241.231 266.994ZM240.829 268.469C240.829 267.718 240.292 267.101 239.568 267.101C238.844 267.101 238.307 267.691 238.307 268.469C238.307 269.247 238.844 269.837 239.568 269.837C240.319 269.837 240.829 269.22 240.829 268.469Z" fill="#002E6D"/>
<path d="M243.243 270.239C242.492 270.239 241.928 269.837 241.928 269.596C241.928 269.488 242.009 269.435 242.116 269.435C242.304 269.435 242.518 269.891 243.296 269.891C243.779 269.891 244.074 269.649 244.074 269.301C244.074 268.389 242.062 268.845 242.062 267.637C242.062 267.128 242.492 266.752 243.243 266.752C243.86 266.752 244.342 267.047 244.342 267.235C244.342 267.342 244.262 267.396 244.182 267.396C243.994 267.396 243.779 267.101 243.216 267.101C242.76 267.101 242.465 267.316 242.465 267.637C242.465 268.469 244.477 268.067 244.477 269.301C244.45 269.837 243.994 270.239 243.243 270.239Z" fill="#002E6D"/>
<path d="M249.091 265.921C249.091 266.189 249.305 266.377 249.547 266.377C249.815 266.377 250.003 266.162 250.003 265.921C250.003 265.679 249.788 265.465 249.547 265.465C249.305 265.465 249.091 265.679 249.091 265.921Z" fill="#FFD600"/>
<path d="M248.635 268.469C248.635 269.515 247.91 270.213 247.052 270.213C246.623 270.213 246.274 270.052 246.033 269.757V271.152C246.033 271.393 245.872 271.581 245.604 271.581C245.335 271.581 245.174 271.393 245.174 271.152V267.208C245.174 266.967 245.335 266.779 245.604 266.779C245.845 266.779 246.006 266.913 246.033 267.155C246.274 266.887 246.596 266.726 247.052 266.726C247.964 266.726 248.635 267.477 248.635 268.469ZM247.776 268.469C247.776 267.933 247.401 267.504 246.891 267.504C246.381 267.504 246.006 267.933 246.006 268.469C246.006 269.006 246.381 269.408 246.891 269.408C247.428 269.435 247.776 269.006 247.776 268.469Z" fill="#002E6D"/>
<path d="M249.547 270.159C249.305 270.159 249.118 269.998 249.118 269.73V267.208C249.118 266.967 249.279 266.779 249.547 266.779C249.815 266.779 249.976 266.94 249.976 267.208V269.73C249.976 269.971 249.815 270.159 249.547 270.159Z" fill="#002E6D"/>
<path d="M253.678 268.12V269.73C253.678 269.971 253.517 270.159 253.248 270.159C253.007 270.159 252.819 269.998 252.819 269.73V268.255C252.819 267.799 252.551 267.53 252.149 267.53C251.719 267.53 251.478 267.825 251.478 268.255V269.73C251.478 269.971 251.317 270.159 251.049 270.159C250.807 270.159 250.62 269.998 250.62 269.73V267.208C250.62 266.967 250.781 266.779 251.049 266.779C251.29 266.779 251.451 266.913 251.478 267.128C251.693 266.86 252.015 266.699 252.417 266.699C253.195 266.726 253.678 267.262 253.678 268.12Z" fill="#002E6D"/>
<path d="M256.2 269.327C256.441 269.327 256.548 269.488 256.548 269.649C256.548 269.971 256.2 270.213 255.663 270.213C254.966 270.213 254.536 269.783 254.536 268.979V267.557H254.241C254.027 267.557 253.866 267.396 253.866 267.181C253.866 266.967 254.027 266.806 254.241 266.806H254.563V266.35C254.563 266.082 254.724 265.921 254.992 265.921C255.261 265.921 255.422 266.082 255.422 266.35V266.806H256.039C256.253 266.806 256.414 266.967 256.414 267.181C256.414 267.396 256.253 267.557 256.039 267.557H255.422V269.086C255.422 269.327 255.529 269.435 255.717 269.435C255.878 269.435 256.039 269.327 256.2 269.327Z" fill="#002E6D"/>
<path d="M260.062 267.208V269.73C260.062 269.971 259.901 270.159 259.633 270.159C259.391 270.159 259.204 269.998 259.204 269.783C258.962 270.079 258.64 270.239 258.184 270.239C257.299 270.239 256.602 269.515 256.602 268.496C256.602 267.503 257.272 266.752 258.184 266.752C258.613 266.752 258.962 266.913 259.204 267.181C259.23 266.967 259.391 266.806 259.633 266.806C259.874 266.779 260.062 266.967 260.062 267.208ZM259.204 268.469C259.204 267.933 258.828 267.503 258.318 267.503C257.809 267.503 257.433 267.933 257.433 268.469C257.433 269.006 257.809 269.435 258.318 269.435C258.828 269.435 259.204 269.006 259.204 268.469Z" fill="#002E6D"/>
<path d="M262.986 267.182C262.986 267.423 262.825 267.584 262.557 267.584C262.423 267.584 262.289 267.53 262.074 267.53C261.779 267.53 261.564 267.772 261.564 268.12V269.73C261.564 269.971 261.404 270.159 261.135 270.159C260.894 270.159 260.706 269.998 260.706 269.73V267.208C260.706 266.967 260.867 266.779 261.135 266.779C261.377 266.779 261.538 266.94 261.564 267.155C261.752 266.887 262.02 266.699 262.396 266.699C262.691 266.726 262.986 266.86 262.986 267.182Z" fill="#002E6D"/>
<path d="M223.419 267.799V269.998C223.419 270.106 223.338 270.159 223.258 270.159C223.151 270.159 223.097 270.079 223.097 269.998V269.891C222.963 270.079 222.748 270.213 222.48 270.213C221.997 270.213 221.648 269.837 221.648 269.301C221.648 268.791 221.997 268.389 222.48 268.389C222.748 268.389 222.963 268.496 223.097 268.684V267.825C223.097 267.718 223.151 267.664 223.258 267.664C223.338 267.638 223.419 267.718 223.419 267.799ZM223.097 269.274C223.097 268.925 222.856 268.657 222.534 268.657C222.212 268.657 221.97 268.925 221.97 269.274C221.97 269.623 222.212 269.891 222.534 269.891C222.856 269.891 223.097 269.623 223.097 269.274Z" fill="#0055B8"/>
<path d="M225.672 268.576V269.998C225.672 270.105 225.619 270.159 225.511 270.159C225.404 270.159 225.35 270.105 225.35 269.998V269.891C225.216 270.078 225.002 270.213 224.733 270.213C224.251 270.213 223.902 269.837 223.902 269.3C223.902 268.791 224.251 268.388 224.733 268.388C225.002 268.388 225.216 268.496 225.35 268.684V268.576C225.35 268.469 225.404 268.415 225.511 268.415C225.619 268.415 225.672 268.469 225.672 268.576ZM225.35 269.274C225.35 268.925 225.109 268.657 224.787 268.657C224.465 268.657 224.224 268.925 224.224 269.274C224.224 269.622 224.465 269.891 224.787 269.891C225.136 269.891 225.35 269.622 225.35 269.274Z" fill="#0055B8"/>
<path d="M227.335 268.549C227.335 268.63 227.282 268.71 227.174 268.71C227.121 268.71 227.04 268.684 226.933 268.684C226.745 268.684 226.611 268.845 226.611 269.113V270.025C226.611 270.132 226.53 270.186 226.45 270.186C226.343 270.186 226.289 270.132 226.289 270.025V268.603C226.289 268.496 226.343 268.442 226.45 268.442C226.557 268.442 226.611 268.496 226.611 268.603V268.657C226.718 268.496 226.852 268.415 227.04 268.415C227.201 268.362 227.335 268.415 227.335 268.549Z" fill="#0055B8"/>
<path d="M228.086 267.906C228.086 268.013 228.006 268.093 227.899 268.093C227.791 268.093 227.711 268.013 227.711 267.906C227.711 267.798 227.791 267.718 227.899 267.718C228.006 267.718 228.086 267.798 228.086 267.906ZM227.899 270.159C227.791 270.159 227.738 270.105 227.738 269.998V268.576C227.738 268.469 227.791 268.415 227.899 268.415C228.006 268.415 228.06 268.469 228.06 268.576V269.998C228.06 270.105 227.979 270.159 227.899 270.159Z" fill="#0055B8"/>
<path d="M244.369 255.244L243.913 255.539C243.296 255.942 242.545 255.861 242.196 255.298C241.821 254.735 242.089 254.037 242.706 253.608L243.269 253.232C243.806 252.857 244.074 252.535 244.074 252.079C244.074 251.596 243.698 251.221 243.189 251.221C242.196 251.221 241.982 252.186 241.043 252.186C240.292 252.186 239.916 251.677 239.916 251.086C239.916 249.933 241.472 248.699 243.296 248.699C245.549 248.699 246.73 250.255 246.73 251.891C246.73 253.179 246.166 254.091 244.369 255.244ZM245.013 258.195C245.013 259.107 244.262 259.831 243.35 259.831C242.438 259.831 241.713 259.107 241.713 258.195C241.713 257.283 242.438 256.532 243.35 256.532C244.262 256.532 245.013 257.283 245.013 258.195Z" fill="#0055B8"/>
<path d="M231.091 257.471C232.646 257.471 233.424 258.544 233.424 259.643C233.424 261.763 231.305 263.292 228.113 263.292C224.277 263.292 221.729 260.877 221.729 256.129V250.764H220.495C219.046 250.764 218 249.745 218 248.243C218 246.794 219.019 245.748 220.495 245.748H221.782V243.87C221.782 242.153 222.963 241 224.626 241C226.343 241 227.496 242.18 227.496 243.87V245.748H229.884C231.332 245.748 232.378 246.767 232.378 248.27C232.378 249.718 231.359 250.764 229.884 250.764H227.577V256.88C227.577 257.739 227.925 257.98 228.489 257.98C229.132 257.953 230.098 257.471 231.091 257.471Z" fill="#0055B8"/>
<path d="M289.623 249.423L284.231 264.231C282.595 268.657 280.046 270.266 276.962 270.266C274.064 270.266 271.892 268.952 271.892 266.779C271.892 265.572 272.75 264.445 274.333 264.445C275.513 264.445 276.13 264.901 277.203 264.901C278.088 264.901 278.705 264.365 279.215 263.051L273.018 249.772C271.838 247.251 273.447 245.587 275.459 245.587C277.257 245.587 277.9 246.714 278.652 248.458L281.71 255.727L284.258 248.243C284.848 246.473 285.653 245.587 287.262 245.587C289.113 245.587 290.508 247.009 289.623 249.423Z" fill="#0055B8"/>
<path d="M250.029 250.737C249.6 250.737 249.171 250.63 248.822 250.442L248.312 250.523L247.239 250.684L247.803 249.343C247.615 248.967 247.534 248.565 247.534 248.135C247.534 246.633 248.634 245.48 250.083 245.48C251.531 245.48 252.631 246.606 252.631 248.135C252.577 249.611 251.478 250.737 250.029 250.737Z" fill="#0055B8"/>
<path d="M270.792 252.615V260.073C270.792 261.79 269.612 262.943 267.948 262.943C266.232 262.943 265.078 261.763 265.078 260.073V253.393C265.078 251.676 264.086 250.577 262.583 250.577C261.054 250.577 260.062 251.676 260.062 253.393V260.073C260.062 261.79 258.882 262.943 257.218 262.943C255.502 262.943 254.348 261.763 254.348 260.073V248.457C254.348 246.741 255.528 245.587 257.192 245.587C258.426 245.587 259.418 246.231 259.847 247.25C260.84 245.936 262.476 245.238 264.461 245.238C268.324 245.212 270.792 248.001 270.792 252.615Z" fill="#0055B8"/>
<path d="M251.961 260.716L251.049 258.517C251.692 257.229 252.014 255.78 252.014 254.305C252.014 253.286 251.88 252.32 251.585 251.408C251.156 251.596 250.673 251.703 250.19 251.703C250.163 251.703 250.163 251.703 250.137 251.703C250.405 252.508 250.539 253.393 250.539 254.332C250.539 255.7 250.217 257.014 249.573 258.168C249.466 258.383 249.466 258.624 249.546 258.812C249.573 258.839 249.573 258.865 249.573 258.865L250.539 261.172L249.52 261.038C249.493 261.038 249.466 261.038 249.439 261.038L247.427 260.77C247.266 260.743 247.105 260.77 246.944 260.877C245.818 261.548 244.584 261.87 243.243 261.87C239.112 261.87 236 258.624 236 254.305C236 249.959 239.112 246.66 243.243 246.66C244.45 246.66 245.603 246.955 246.569 247.465C246.623 246.955 246.81 246.472 247.052 246.043C245.925 245.48 244.611 245.185 243.243 245.185C238.28 245.185 234.524 249.101 234.524 254.278C234.524 259.429 238.28 263.292 243.243 263.292C244.745 263.292 246.193 262.916 247.454 262.218L249.305 262.46C249.332 262.46 249.332 262.46 249.359 262.46L250.324 262.594C250.861 262.675 251.397 262.46 251.719 262.031C252.068 261.682 252.148 261.172 251.961 260.716Z" fill="#FFD600"/>
<path d="M306.308 245.587C305.128 245.587 304.242 246.124 303.76 247.009C302.66 245.882 301.131 245.239 299.119 245.239C294.478 245.239 291.071 249.075 291.071 254.279C291.071 259.751 294.8 263.292 299.119 263.292C301.104 263.292 302.633 262.594 303.733 261.414C304.162 262.326 305.128 262.943 306.335 262.943C308.052 262.943 309.205 261.763 309.205 260.073V248.458C309.178 246.741 308.025 245.587 306.308 245.587ZM300.111 257.927C298.207 257.927 296.785 256.317 296.785 254.279C296.785 252.186 298.207 250.577 300.111 250.577C302.016 250.577 303.438 252.186 303.438 254.279C303.438 256.344 302.016 257.927 300.111 257.927Z" fill="#0055B8"/>
<path d="M257.391 160.45C255.99 160.45 254.588 160.134 253.266 159.522C250.917 158.417 249.14 156.482 248.272 154.035C247.68 152.396 247.541 150.64 247.877 148.942C247.995 148.35 248.568 147.955 249.16 148.074C249.752 148.192 250.147 148.764 250.028 149.357C249.772 150.679 249.89 152.041 250.344 153.304C251.015 155.18 252.397 156.699 254.213 157.548C256.029 158.397 258.062 158.496 259.957 157.825C260.865 157.509 261.674 157.015 262.385 156.384C262.977 155.87 263.471 155.258 263.865 154.587C264.359 153.739 264.694 152.811 264.833 151.844C265.01 150.62 264.892 149.376 264.477 148.212C263.905 146.613 262.839 145.29 261.398 144.402C260.885 144.086 260.727 143.415 261.043 142.902C261.359 142.389 262.03 142.231 262.543 142.547C264.398 143.711 265.78 145.409 266.53 147.481C267.063 148.982 267.241 150.6 267.004 152.179C266.826 153.423 266.392 154.607 265.76 155.712C265.247 156.581 264.596 157.371 263.846 158.022C262.918 158.831 261.872 159.463 260.707 159.897C259.602 160.252 258.496 160.45 257.391 160.45Z" fill="#24C11B"/>
<path d="M257.391 143.474C258.045 143.474 258.575 142.944 258.575 142.29C258.575 141.636 258.045 141.106 257.391 141.106C256.737 141.106 256.207 141.636 256.207 142.29C256.207 142.944 256.737 143.474 257.391 143.474Z" fill="#24C11B"/>
<path d="M252.989 144.363C253.447 144.363 253.818 143.992 253.818 143.534C253.818 143.076 253.447 142.705 252.989 142.705C252.531 142.705 252.16 143.076 252.16 143.534C252.16 143.992 252.531 144.363 252.989 144.363Z" fill="#24C11B"/>
<path d="M249.989 146.613C250.229 146.613 250.423 146.418 250.423 146.179C250.423 145.939 250.229 145.744 249.989 145.744C249.749 145.744 249.555 145.939 249.555 146.179C249.555 146.418 249.749 146.613 249.989 146.613Z" fill="#24C11B"/>
<path d="M256.522 154.509C256.325 154.489 256.147 154.41 255.989 154.272L252.693 151.508C252.259 151.133 252.2 150.462 252.575 150.028C252.95 149.574 253.621 149.534 254.055 149.91L256.562 152.022L260.628 147.422C261.003 146.988 261.674 146.949 262.108 147.324C262.543 147.699 262.582 148.37 262.207 148.804L257.47 154.153C257.213 154.43 256.858 154.548 256.522 154.509Z" fill="#0055B8"/>
<path d="M239.093 160.47C235.224 160.47 231.02 159.266 231.02 156.187C231.02 154.746 232.085 154.055 233.329 154.055C235.184 154.055 236.961 155.575 239.665 155.575C240.652 155.575 241.027 155.2 241.027 154.667C241.027 152.278 231.158 154.627 231.158 147.225C231.158 143.889 234.237 141.165 239.349 141.165C243.021 141.165 246.218 142.764 246.218 145.113C246.218 146.436 245.232 147.304 243.988 147.304C242.172 147.304 240.81 146.1 238.52 146.1C237.573 146.1 237.119 146.396 237.119 147.126C237.119 149.554 246.988 147.62 246.988 154.489C246.988 157.549 244.521 160.47 239.093 160.47Z" fill="#0055B8"/>
<path d="M287.868 144.62V157.016C287.868 158.832 286.624 160.095 284.788 160.095C283.505 160.095 282.479 159.444 282.025 158.457C280.84 159.7 279.222 160.47 277.09 160.47C272.471 160.47 268.484 156.68 268.484 150.837C268.484 145.271 272.116 141.165 277.09 141.165C279.261 141.165 280.88 141.856 282.064 143.06C282.597 142.113 283.545 141.54 284.788 141.54C286.624 141.54 287.868 142.804 287.868 144.62ZM281.729 150.837C281.729 148.607 280.209 146.89 278.156 146.89C276.103 146.89 274.583 148.587 274.583 150.837C274.583 153.028 276.103 154.746 278.156 154.746C280.209 154.746 281.729 153.048 281.729 150.837Z" fill="#0055B8"/>
<path d="M294.204 134C296.02 134 297.283 135.244 297.283 137.079V157.41C297.283 159.226 296.04 160.49 294.243 160.49C292.427 160.49 291.164 159.246 291.164 157.41V137.079C291.164 135.244 292.408 134 294.204 134Z" fill="#0055B8"/>
<path d="M242.468 167.813C242.35 167.813 242.291 167.773 242.212 167.655L241.086 166.115H240.356V167.596C240.356 167.714 240.257 167.813 240.139 167.813C240.021 167.813 239.922 167.714 239.922 167.596V162.878C239.922 162.76 240.021 162.661 240.139 162.661C240.257 162.661 240.356 162.76 240.356 162.878V165.74H241.086L242.192 164.378C242.251 164.279 242.33 164.22 242.429 164.22C242.606 164.22 242.685 164.398 242.587 164.536L241.462 165.918L242.626 167.497C242.745 167.655 242.646 167.813 242.468 167.813Z" fill="#002E6D"/>
<path d="M246.436 165.839C246.436 166.017 246.337 166.135 246.14 166.135H243.436C243.495 166.905 244.048 167.497 244.837 167.497C245.568 167.497 245.804 167.122 245.982 167.122C246.081 167.122 246.16 167.181 246.16 167.28C246.16 167.517 245.607 167.892 244.837 167.892C243.752 167.892 243.001 167.043 243.001 166.017C243.001 164.99 243.732 164.142 244.758 164.142C245.804 164.142 246.436 165.01 246.436 165.839ZM243.436 165.8H246.002C245.923 165.01 245.41 164.517 244.738 164.517C244.028 164.517 243.515 165.069 243.436 165.8Z" fill="#002E6D"/>
<path d="M247.383 162.641C247.502 162.641 247.6 162.74 247.6 162.858V167.576C247.6 167.694 247.502 167.793 247.383 167.793C247.265 167.793 247.166 167.694 247.166 167.576V162.858C247.166 162.74 247.245 162.641 247.383 162.641Z" fill="#002E6D"/>
<path d="M251.983 164.418V167.576C251.983 167.695 251.884 167.793 251.765 167.793C251.627 167.793 251.548 167.695 251.548 167.576V167.063C251.252 167.537 250.779 167.852 250.147 167.852C249.16 167.852 248.39 167.023 248.39 165.977C248.39 164.931 249.12 164.102 250.147 164.102C250.759 164.102 251.252 164.418 251.548 164.892V164.398C251.548 164.28 251.647 164.181 251.765 164.181C251.904 164.22 251.983 164.299 251.983 164.418ZM251.548 165.997C251.548 165.188 250.996 164.556 250.206 164.556C249.417 164.556 248.844 165.207 248.844 165.997C248.844 166.806 249.417 167.477 250.206 167.477C250.996 167.477 251.548 166.806 251.548 165.997Z" fill="#002E6D"/>
<path d="M254.114 167.872C253.325 167.872 252.713 167.438 252.713 167.181C252.713 167.063 252.792 167.003 252.891 167.003C253.088 167.003 253.325 167.477 254.154 167.477C254.687 167.477 254.983 167.221 254.983 166.846C254.983 165.878 252.831 166.352 252.831 165.069C252.831 164.516 253.305 164.122 254.095 164.122C254.746 164.122 255.279 164.437 255.279 164.655C255.279 164.753 255.2 164.812 255.101 164.812C254.904 164.812 254.667 164.497 254.055 164.497C253.562 164.497 253.266 164.733 253.266 165.049C253.266 165.938 255.417 165.503 255.417 166.826C255.417 167.457 254.943 167.872 254.114 167.872Z" fill="#002E6D"/>
<path d="M260.391 163.273C260.391 163.549 260.608 163.766 260.885 163.766C261.161 163.766 261.378 163.549 261.378 163.273C261.378 162.996 261.161 162.779 260.885 162.779C260.608 162.779 260.391 163.016 260.391 163.273Z" fill="#FFD600"/>
<path d="M259.898 165.997C259.898 167.102 259.128 167.872 258.2 167.872C257.726 167.872 257.371 167.695 257.115 167.379V168.859C257.115 169.135 256.937 169.313 256.661 169.313C256.384 169.313 256.207 169.116 256.207 168.859V164.635C256.207 164.359 256.384 164.181 256.661 164.181C256.897 164.181 257.075 164.339 257.115 164.576C257.371 164.28 257.726 164.102 258.2 164.102C259.167 164.122 259.898 164.931 259.898 165.997ZM258.99 166.017C258.99 165.444 258.595 164.971 258.042 164.971C257.509 164.971 257.095 165.425 257.095 166.017C257.095 166.589 257.49 167.043 258.042 167.043C258.595 167.023 258.99 166.569 258.99 166.017Z" fill="#002E6D"/>
<path d="M260.885 167.793C260.608 167.793 260.431 167.616 260.431 167.339V164.655C260.431 164.378 260.608 164.201 260.885 164.201C261.161 164.201 261.339 164.378 261.339 164.655V167.339C261.339 167.616 261.141 167.793 260.885 167.793Z" fill="#002E6D"/>
<path d="M265.287 165.622V167.339C265.287 167.615 265.109 167.793 264.832 167.793C264.556 167.793 264.379 167.615 264.379 167.339V165.76C264.379 165.286 264.102 164.97 263.668 164.97C263.214 164.97 262.957 165.266 262.957 165.76V167.339C262.957 167.615 262.78 167.793 262.503 167.793C262.227 167.793 262.049 167.615 262.049 167.339V164.655C262.049 164.378 262.227 164.201 262.503 164.201C262.76 164.201 262.918 164.358 262.957 164.576C263.174 164.279 263.53 164.122 263.964 164.122C264.754 164.122 265.287 164.694 265.287 165.622Z" fill="#002E6D"/>
<path d="M267.991 166.905C268.228 166.905 268.366 167.063 268.366 167.24C268.366 167.576 267.991 167.852 267.418 167.852C266.688 167.852 266.214 167.398 266.214 166.53V164.99H265.879C265.642 164.99 265.484 164.832 265.484 164.575C265.484 164.339 265.642 164.181 265.879 164.181H266.214V163.707C266.214 163.431 266.392 163.253 266.668 163.253C266.945 163.253 267.122 163.431 267.122 163.707V164.181H267.793C268.03 164.181 268.188 164.339 268.188 164.575C268.188 164.812 268.03 164.97 267.793 164.97H267.142V166.609C267.142 166.885 267.26 166.964 267.458 166.964C267.635 167.023 267.813 166.905 267.991 166.905Z" fill="#002E6D"/>
<path d="M272.116 164.655V167.339C272.116 167.615 271.938 167.793 271.662 167.793C271.405 167.793 271.208 167.615 271.208 167.379C270.951 167.675 270.596 167.872 270.122 167.872C269.175 167.872 268.425 167.102 268.425 165.997C268.425 164.931 269.135 164.122 270.122 164.122C270.596 164.122 270.951 164.299 271.208 164.595C271.247 164.358 271.425 164.201 271.662 164.201C271.919 164.201 272.116 164.378 272.116 164.655ZM271.188 165.997C271.188 165.424 270.793 164.97 270.261 164.97C269.708 164.97 269.313 165.424 269.313 165.997C269.313 166.569 269.708 167.023 270.261 167.023C270.813 167.023 271.188 166.569 271.188 165.997Z" fill="#002E6D"/>
<path d="M275.235 164.615C275.235 164.891 275.057 165.049 274.781 165.049C274.643 165.049 274.485 165.01 274.268 165.01C273.932 165.01 273.735 165.247 273.735 165.641V167.359C273.735 167.635 273.557 167.813 273.281 167.813C273.004 167.813 272.827 167.635 272.827 167.359V164.674C272.827 164.398 273.004 164.22 273.281 164.22C273.537 164.22 273.715 164.378 273.735 164.615C273.932 164.339 274.228 164.141 274.623 164.141C274.919 164.122 275.235 164.279 275.235 164.615Z" fill="#002E6D"/>
<path d="M232.915 165.286V167.635C232.915 167.734 232.836 167.813 232.737 167.813C232.638 167.813 232.559 167.734 232.559 167.635V167.517C232.421 167.714 232.184 167.852 231.908 167.852C231.395 167.852 231 167.438 231 166.865C231 166.313 231.375 165.898 231.908 165.898C232.184 165.898 232.421 166.017 232.559 166.234V165.306C232.559 165.207 232.638 165.128 232.737 165.128C232.855 165.109 232.915 165.188 232.915 165.286ZM232.579 166.865C232.579 166.51 232.323 166.214 231.987 166.214C231.632 166.214 231.375 166.51 231.375 166.865C231.375 167.221 231.632 167.517 231.987 167.517C232.323 167.517 232.579 167.221 232.579 166.865Z" fill="#0055B8"/>
<path d="M235.342 166.096V167.635C235.342 167.734 235.263 167.813 235.165 167.813C235.066 167.813 234.987 167.734 234.987 167.635V167.517C234.849 167.714 234.612 167.852 234.336 167.852C233.823 167.852 233.428 167.438 233.428 166.865C233.428 166.313 233.803 165.898 234.336 165.898C234.612 165.898 234.849 166.017 234.987 166.234V166.115C234.987 166.017 235.066 165.938 235.165 165.938C235.283 165.938 235.342 165.997 235.342 166.096ZM235.007 166.865C235.007 166.51 234.75 166.214 234.415 166.214C234.059 166.214 233.803 166.51 233.803 166.865C233.803 167.221 234.059 167.517 234.415 167.517C234.75 167.517 235.007 167.221 235.007 166.865Z" fill="#0055B8"/>
<path d="M237.119 166.096C237.119 166.194 237.06 166.253 236.961 166.253C236.902 166.253 236.823 166.234 236.724 166.234C236.507 166.234 236.369 166.411 236.369 166.688V167.655C236.369 167.754 236.29 167.833 236.191 167.833C236.093 167.833 236.014 167.754 236.014 167.655V166.115C236.014 166.017 236.093 165.938 236.191 165.938C236.29 165.938 236.369 166.017 236.369 166.115V166.175C236.468 166.017 236.626 165.898 236.843 165.898C236.961 165.898 237.119 165.957 237.119 166.096Z" fill="#0055B8"/>
<path d="M237.908 165.404C237.908 165.523 237.81 165.622 237.691 165.622C237.573 165.622 237.474 165.523 237.474 165.404C237.474 165.286 237.573 165.187 237.691 165.187C237.829 165.187 237.908 165.286 237.908 165.404ZM237.711 167.813C237.612 167.813 237.533 167.734 237.533 167.635V166.095C237.533 165.997 237.612 165.918 237.711 165.918C237.81 165.918 237.889 165.997 237.889 166.095V167.635C237.869 167.734 237.81 167.813 237.711 167.813Z" fill="#0055B8"/>
<path d="M26 103C35.931 103 44 111.069 44 121C44 111.069 52.069 103 62 103C52.069 103 44 94.931 44 85C44 94.931 35.931 103 26 103Z" fill="#FFCF3C"/>
<path d="M44 78C48.4138 78 52 81.5862 52 86C52 81.5862 55.5862 78 60 78C55.5862 78 52 74.4138 52 70C52 74.4138 48.4138 78 44 78Z" fill="#FFCF3C"/>
<path d="M200 32C191.724 32 185 38.7241 185 47C185 38.7241 178.276 32 170 32C178.276 32 185 25.2759 185 17C185 25.2759 191.724 32 200 32Z" fill="#002E6D"/>
<path d="M168 40.5C164.414 40.5 161.5 43.4138 161.5 47C161.5 43.4138 158.586 40.5 155 40.5C158.586 40.5 161.5 37.5862 161.5 34C161.5 37.5862 164.414 40.5 168 40.5Z" fill="#002E6D"/>
</g>
<defs>
<linearGradient id="paint0_linear_908_23050" x1="224.462" y1="104.778" x2="292.973" y2="104.778" gradientUnits="userSpaceOnUse">
<stop stop-color="#2BAAE2"/>
<stop offset="0.26" stop-color="#26A1DB"/>
<stop offset="0.67" stop-color="#1789C9"/>
<stop offset="1" stop-color="#0971B7"/>
</linearGradient>
<linearGradient id="paint1_linear_908_23050" x1="218.85" y1="70.108" x2="215.205" y2="66.4664" gradientUnits="userSpaceOnUse">
<stop stop-color="#ED9423"/>
<stop offset="0.1" stop-color="#ED9622" stop-opacity="0.97"/>
<stop offset="0.23" stop-color="#EF9A1F" stop-opacity="0.9"/>
<stop offset="0.38" stop-color="#F1A11B" stop-opacity="0.78"/>
<stop offset="0.55" stop-color="#F4AA15" stop-opacity="0.61"/>
<stop offset="0.73" stop-color="#F8B70E" stop-opacity="0.39"/>
<stop offset="0.92" stop-color="#FDC604" stop-opacity="0.13"/>
<stop offset="1" stop-color="#FFCD00" stop-opacity="0"/>
</linearGradient>
<radialGradient id="paint2_radial_908_23050" cx="0" cy="0" r="1" gradientUnits="userSpaceOnUse" gradientTransform="translate(68.0525 256.741) rotate(-1.26154) scale(150.053 150.142)">
<stop offset="0.0502259" stop-color="#33FCFE"/>
<stop offset="1" stop-color="#33FCFE" stop-opacity="0"/>
</radialGradient>
</defs>
</svg>
