<svg width="16" height="12" viewBox="0 0 16 12" fill="none" xmlns="http://www.w3.org/2000/svg">
<path d="M7.20005 2.7999C7.20005 4.12539 6.12553 5.1999 4.80005 5.1999C3.47457 5.1999 2.40005 4.12539 2.40005 2.7999C2.40005 1.47442 3.47457 0.399902 4.80005 0.399902C6.12553 0.399902 7.20005 1.47442 7.20005 2.7999Z" fill="#0055B8"/>
<path d="M13.6 2.7999C13.6 4.12539 12.5255 5.1999 11.2 5.1999C9.87457 5.1999 8.80005 4.12539 8.80005 2.7999C8.80005 1.47442 9.87457 0.399902 11.2 0.399902C12.5255 0.399902 13.6 1.47442 13.6 2.7999Z" fill="#0055B8"/>
<path d="M10.3434 11.5999C10.3807 11.3386 10.4001 11.0715 10.4001 10.7999C10.4001 9.49176 9.95153 8.28837 9.19985 7.33516C9.78825 6.99474 10.4714 6.7999 11.2001 6.7999C13.4092 6.7999 15.2001 8.59076 15.2001 10.7999V11.5999H10.3434Z" fill="#0055B8"/>
<path d="M4.80005 6.7999C7.00919 6.7999 8.80005 8.59076 8.80005 10.7999V11.5999H0.800049V10.7999C0.800049 8.59076 2.59091 6.7999 4.80005 6.7999Z" fill="#0055B8"/>
</svg>
