<svg width="52" height="52" viewBox="0 0 52 52" fill="none" xmlns="http://www.w3.org/2000/svg">
<rect width="52" height="52" rx="26" fill="#FFF7D7"/>
<path d="M12 10.9387C13.5067 10.9387 14.7288 12.2547 14.7288 13.8773C14.7288 12.2547 15.9508 10.9387 17.4575 10.9387C15.9508 10.9387 14.7288 9.62257 14.7288 8C14.7288 9.62257 13.5067 10.9387 12 10.9387Z" fill="#FFE784"/>
<path d="M38 40C39.1043 40 40 40.8957 40 42C40 40.8957 40.8957 40 42 40C40.8957 40 40 39.1043 40 38C40 39.1043 39.1043 40 38 40Z" fill="#FFE784"/>
<path d="M11 40.6179C13.5478 40.6179 15.6179 42.688 15.6179 45.2358C15.6179 42.688 17.688 40.6179 20.2358 40.6179C17.688 40.6179 15.6179 38.5478 15.6179 36C15.6179 38.5478 13.5478 40.6179 11 40.6179Z" fill="#FFE784"/>
<path d="M33 14.6179C35.5478 14.6179 37.6179 16.688 37.6179 19.2358C37.6179 16.688 39.688 14.6179 42.2358 14.6179C39.688 14.6179 37.6179 12.5478 37.6179 10C37.6179 12.5478 35.5478 14.6179 33 14.6179Z" fill="#FFE784"/>
<path d="M13 21.5112C13 20.5988 13.1822 19.7895 13.5467 19.0835C13.9222 18.3775 14.4247 17.8344 15.0542 17.4542C15.6948 17.074 16.4071 16.8839 17.1913 16.8839C17.876 16.8839 18.4724 17.0197 18.9805 17.2912C19.4995 17.5628 19.9137 17.905 20.2229 18.3177V18.1985C20.2229 17.5534 20.7458 17.0305 21.3909 17.0305C22.0359 17.0305 22.5588 17.5534 22.5588 18.1985V24.8891C22.5588 25.5341 22.0359 26.057 21.3909 26.057C20.7458 26.057 20.2229 25.5341 20.2229 24.8891V24.7373C19.9247 25.1609 19.5106 25.5139 18.9805 25.7963C18.4614 26.0679 17.8595 26.2037 17.1747 26.2037C16.4016 26.2037 15.6948 26.0081 15.0542 25.6171C14.4247 25.2261 13.9222 24.6775 13.5467 23.9715C13.1822 23.2546 13 22.4345 13 21.5112ZM20.2229 21.5438C20.2229 20.9898 20.1125 20.5173 19.8916 20.1263C19.6707 19.7244 19.3725 19.4202 18.997 19.2138C18.6215 18.9966 18.2184 18.888 17.7877 18.888C17.357 18.888 16.9594 18.9912 16.5949 19.1976C16.2304 19.4039 15.9322 19.7081 15.7003 20.11C15.4794 20.501 15.369 20.9681 15.369 21.5112C15.369 22.0543 15.4794 22.5322 15.7003 22.945C15.9322 23.3469 16.2304 23.6565 16.5949 23.8737C16.9704 24.091 17.368 24.1996 17.7877 24.1996C18.2184 24.1996 18.6215 24.0964 18.997 23.89C19.3725 23.6728 19.6707 23.3686 19.8916 22.9776C20.1125 22.5757 20.2229 22.0978 20.2229 21.5438Z" fill="#FFCE00"/>
<path d="M27.4884 18.3503C27.7866 17.9158 28.1952 17.5628 28.7143 17.2912C29.2444 17.0197 29.8464 16.8839 30.5201 16.8839C31.3042 16.8839 32.011 17.074 32.6405 17.4542C33.2811 17.8344 33.7836 18.3775 34.1481 19.0835C34.5236 19.7787 34.7113 20.5879 34.7113 21.5112C34.7113 22.4345 34.5236 23.2546 34.1481 23.9715C33.7836 24.6775 33.2811 25.2261 32.6405 25.6171C32.011 26.0081 31.3042 26.2037 30.5201 26.2037C29.8353 26.2037 29.2334 26.0733 28.7143 25.8126C28.2063 25.5411 27.7976 25.1935 27.4884 24.7699V24.8974C27.4884 25.5378 26.9692 26.057 26.3288 26.057C25.6883 26.057 25.1691 25.5378 25.1691 24.8974V15.1596C25.1691 14.5192 25.6883 14 26.3288 14C26.9692 14 27.4884 14.5192 27.4884 15.1596V18.3503ZM32.3423 21.5112C32.3423 20.9681 32.2264 20.501 31.9945 20.11C31.7736 19.7081 31.4754 19.4039 31.0999 19.1976C30.7354 18.9912 30.3378 18.888 29.9071 18.888C29.4874 18.888 29.0898 18.9966 28.7143 19.2138C28.3499 19.4202 28.0517 19.7244 27.8197 20.1263C27.5988 20.5282 27.4884 21.0007 27.4884 21.5438C27.4884 22.0869 27.5988 22.5594 27.8197 22.9613C28.0517 23.3632 28.3499 23.6728 28.7143 23.89C29.0898 24.0964 29.4874 24.1996 29.9071 24.1996C30.3378 24.1996 30.7354 24.091 31.0999 23.8737C31.4754 23.6565 31.7736 23.3469 31.9945 22.945C32.2264 22.5431 32.3423 22.0652 32.3423 21.5112Z" fill="#FFCE00"/>
<path d="M18.9805 33.3401C18.9805 32.406 19.1737 31.5913 19.5603 30.8961C19.9468 30.1901 20.4825 29.647 21.1672 29.2668C21.852 28.8758 22.6361 28.6802 23.5196 28.6802C24.6572 28.6802 25.596 28.9627 26.3359 29.5275C26.6739 29.7768 26.9615 30.0722 27.1988 30.4139C27.6635 31.0829 27.0535 31.8737 26.2389 31.8737C25.7027 31.8737 25.2608 31.488 24.8674 31.1237C24.8041 31.065 24.7358 31.0109 24.6627 30.9613C24.3535 30.7332 23.9669 30.6191 23.5031 30.6191C22.8404 30.6191 22.3158 30.8581 21.9293 31.336C21.5427 31.8031 21.3494 32.4711 21.3494 33.3401C21.3494 34.1982 21.5427 34.8663 21.9293 35.3442C22.3158 35.8113 22.8404 36.0448 23.5031 36.0448C24.0918 36.0448 24.5523 35.8825 24.8848 35.5579C25.2649 35.1867 25.698 34.8065 26.2294 34.8065C27.0462 34.8065 27.651 35.6013 27.1778 36.2671C26.9446 36.5952 26.6639 36.885 26.3359 37.1365C25.5849 37.7122 24.6462 38 23.5196 38C22.6361 38 21.852 37.8099 21.1672 37.4297C20.4825 37.0387 19.9468 36.4956 19.5603 35.8004C19.1737 35.0944 18.9805 34.2743 18.9805 33.3401Z" fill="#FFCE00"/>
<path d="M29.2913 33.3075C29.2913 32.3951 29.4735 31.5859 29.838 30.8798C30.2135 30.1738 30.7215 29.6307 31.3621 29.2505C32.0027 28.8703 32.715 28.6802 33.4991 28.6802C34.0955 28.6802 34.6643 28.8106 35.2055 29.0713C35.7467 29.3211 36.1774 29.6578 36.4977 30.0815V26.9725C36.4977 26.3229 37.0243 25.7963 37.6739 25.7963C38.3235 25.7963 38.8501 26.3229 38.8501 26.9725V36.6772C38.8501 37.3268 38.3235 37.8534 37.6739 37.8534C37.0243 37.8534 36.4977 37.3268 36.4977 36.6772V36.5173C36.2105 36.9627 35.8074 37.3211 35.2883 37.5927C34.7692 37.8642 34.1673 38 33.4826 38C32.7095 38 32.0027 37.8045 31.3621 37.4134C30.7215 37.0224 30.2135 36.4739 29.838 35.7678C29.4735 35.0509 29.2913 34.2308 29.2913 33.3075ZM36.5142 33.3401C36.5142 32.7862 36.4038 32.3136 36.1829 31.9226C35.962 31.5207 35.6638 31.2166 35.2883 31.0102C34.9128 30.7929 34.5097 30.6843 34.079 30.6843C33.6482 30.6843 33.2507 30.7875 32.8862 30.9939C32.5217 31.2003 32.2235 31.5044 31.9916 31.9063C31.7707 32.2974 31.6603 32.7644 31.6603 33.3075C31.6603 33.8506 31.7707 34.3286 31.9916 34.7413C32.2235 35.1432 32.5217 35.4528 32.8862 35.6701C33.2617 35.8873 33.6593 35.9959 34.079 35.9959C34.5097 35.9959 34.9128 35.8927 35.2883 35.6864C35.6638 35.4691 35.962 35.165 36.1829 34.7739C36.4038 34.372 36.5142 33.8941 36.5142 33.3401Z" fill="#FFCE00"/>
</svg>
