<svg width="80" height="80" viewBox="0 0 80 80" fill="none" xmlns="http://www.w3.org/2000/svg">
<circle cx="31" cy="41" r="28" fill="#FFD599"/>
<path d="M41.9375 38.7267C43.6875 39.737 43.6875 42.263 41.9375 43.2733L27.5 51.6088C25.75 52.6192 23.5625 51.3562 23.5625 49.3355L23.5625 32.6645C23.5625 30.6438 25.75 29.3808 27.5 30.3912L41.9375 38.7267Z" fill="#FFF4E5"/>
<mask id="mask0_35_4878" style="mask-type:alpha" maskUnits="userSpaceOnUse" x="0" y="0" width="80" height="80">
<rect width="80" height="80" fill="#D9D9D9"/>
</mask>
<g mask="url(#mask0_35_4878)">
<mask id="mask1_35_4878" style="mask-type:alpha" maskUnits="userSpaceOnUse" x="28" y="12" width="62" height="61">
<rect x="28.5" y="12" width="61" height="61" fill="#D9D9D9"/>
</mask>
<g mask="url(#mask1_35_4878)">
<path d="M73.6413 51.9669C75.4319 46.8148 71.5773 41.4484 66.125 41.5341L64.0127 41.5663C63.9966 41.5663 63.9859 41.5663 63.9698 41.5663L58.7052 41.6521L53.4406 41.5663C53.4245 41.5663 53.4138 41.5663 53.3977 41.5663L51.2854 41.5341C45.8332 41.4484 41.9785 46.8148 43.7692 51.9669C44.3535 53.6503 44.9808 55.2157 45.6348 56.6686C45.9887 57.521 46.4444 58.4592 46.9537 59.4296C49.1732 63.7828 51.516 67.0638 53.3119 69.7497C53.3816 69.8516 53.4567 69.9534 53.5317 70.0499C54.7219 71.7708 56.7055 72.5911 58.7106 72.5643C60.7103 72.5965 62.6993 71.7708 63.8894 70.0499C63.9645 69.9534 64.0395 69.8516 64.1092 69.7497C65.9052 67.0638 68.248 63.7828 70.4675 59.4296C70.9768 58.4592 71.4325 57.5264 71.7864 56.6686C72.4297 55.2104 73.0569 53.6503 73.6413 51.9669Z" fill="#F89E1C"/>
<path d="M64.4469 62.4159C65.932 59.5424 62.9887 57.5695 59.7184 59.462C55.8209 61.7136 53.5156 60.7004 50.9155 56.39C48.8032 52.8839 45.7152 53.7899 44.6322 54.2509C44.97 55.1034 45.3131 55.929 45.6669 56.7171C46.0208 57.5695 46.4765 58.5077 46.9858 59.478C49.2053 63.8313 51.5481 67.1123 53.3441 69.7982C53.4137 69.9 53.4888 70.0019 53.5639 70.0984C54.754 71.8193 56.7376 72.6396 58.7427 72.6128C60.7424 72.6449 62.7314 71.8193 63.9215 70.0984C63.9966 70.0019 64.0717 69.9 64.1413 69.7982C64.7257 68.919 65.3744 67.9808 66.0499 66.9568C64.4952 66.7048 63.0101 65.193 64.4469 62.4159Z" fill="#032663"/>
<path d="M58.6087 72.7039C56.491 72.7039 54.5718 71.755 53.462 70.1467C53.3869 70.0502 53.3119 69.9483 53.2422 69.8411C52.9849 69.4551 52.7114 69.053 52.4327 68.6402C50.8029 66.2331 48.7817 63.2416 46.8786 59.5102C46.3371 58.4809 45.8921 57.5481 45.5544 56.7439C45.1952 55.9451 44.8467 55.1141 44.5197 54.2778L44.4875 54.192L44.5733 54.1545C45.7902 53.6345 48.8514 52.8088 50.9744 56.3365C53.6336 60.7487 55.9013 61.5421 59.6487 59.3762C61.6431 58.2236 63.3962 58.5292 64.2486 59.344C65.0313 60.0946 65.1332 61.258 64.5113 62.4589C63.884 63.6758 63.7714 64.7534 64.1896 65.579C64.5273 66.2438 65.2189 66.7209 66.0392 66.855L66.1893 66.8764L66.1035 66.9997C65.7229 67.5734 65.353 68.1202 64.9938 68.6456C64.715 69.0584 64.4469 69.4551 64.1896 69.8357C64.1199 69.943 64.0448 70.0448 63.9698 70.1413C62.844 71.7711 60.8872 72.7308 58.7159 72.6932C58.6784 72.7039 58.6408 72.7039 58.6087 72.7039ZM58.7159 72.5109C60.8228 72.5431 62.7207 71.621 63.8143 70.0395C63.8894 69.9376 63.9644 69.8411 64.0288 69.7392C64.2861 69.3532 64.5542 68.9565 64.8329 68.5437C65.1653 68.0559 65.5031 67.5466 65.8569 67.0212C65.0367 66.8496 64.3558 66.351 64.0127 65.6702C63.7017 65.0536 63.5034 63.9814 64.3397 62.3731L64.4255 62.416L64.3397 62.3731C64.9187 61.2526 64.8383 60.175 64.1145 59.4888C63.3104 58.7222 61.6484 58.4434 59.7452 59.5478C55.9281 61.7565 53.5049 60.9149 50.8083 56.4437C48.8086 53.1305 45.9564 53.806 44.7341 54.3046C45.0504 55.1088 45.3882 55.9076 45.7313 56.6796C46.0637 57.4837 46.5086 58.4058 47.0501 59.4352C48.9479 63.1558 50.9691 66.1419 52.5935 68.5437C52.8723 68.9565 53.1457 69.3586 53.403 69.7446C53.4727 69.8465 53.5424 69.943 53.6175 70.0448C54.7111 71.621 56.6197 72.5485 58.7159 72.5109Z" fill="#10319B"/>
<path d="M39.5821 45.8233C38.8155 47.957 37.3841 53.1305 38.6332 59.4995C38.7565 60.1214 39.5607 60.2983 39.936 59.789L40.2308 59.3923C43.2062 55.3608 43.3617 49.9031 40.6222 45.7054C40.3595 45.2979 39.7483 45.3676 39.5821 45.8233Z" fill="#F5851F"/>
<path d="M58.8071 72.7039C58.7695 72.7039 58.7374 72.7039 58.6999 72.7039C56.5447 72.736 54.5718 71.7817 53.446 70.1466C53.3709 70.0501 53.2958 69.9482 53.2262 69.841C52.9688 69.455 52.6954 69.0529 52.4166 68.6401C50.7868 66.233 48.7657 63.2415 46.8625 59.5102C46.321 58.4808 45.8761 57.548 45.5383 56.7438C44.8521 55.2052 44.2248 53.6236 43.6726 52.0368C42.8041 49.5438 43.1955 46.8847 44.7395 44.751C46.2781 42.628 48.6585 41.4378 51.2854 41.4754L53.3923 41.5075H53.4352L58.6999 41.5933L63.9645 41.5075H63.9913L66.1196 41.4754C68.7466 41.4325 71.1269 42.628 72.6656 44.751C74.2096 46.8847 74.6009 49.5438 73.7324 52.0368C73.1802 53.6236 72.553 55.2105 71.8668 56.7492C71.5344 57.5533 71.0894 58.4862 70.5426 59.5155C68.6394 63.2415 66.6129 66.2384 64.9884 68.6455C64.7097 69.0583 64.4362 69.4604 64.1789 69.8464C64.1092 69.9536 64.0342 70.0555 63.9591 70.152C62.8494 71.7549 60.9301 72.7039 58.8071 72.7039ZM58.6999 72.5109C60.8068 72.543 62.7046 71.6209 63.7983 70.0394C63.8733 69.9375 63.9484 69.841 64.0127 69.7392C64.2701 69.3532 64.5435 68.9511 64.8222 68.5383C66.4467 66.1365 68.4678 63.145 70.3656 59.4297C70.9071 58.4058 71.3467 57.4783 71.6845 56.6795C72.3707 55.1462 72.9979 53.5647 73.5448 51.9831C74.3918 49.5492 74.0112 46.9544 72.5047 44.8743C71.0036 42.8049 68.6715 41.6415 66.1196 41.6791L64.0127 41.7112H63.9859L58.7052 41.797L53.4352 41.7112H53.3923L51.2801 41.6791C48.7282 41.6415 46.3961 42.8049 44.895 44.8743C43.3885 46.9598 43.0079 49.5492 43.8549 51.9831C44.4018 53.5647 45.029 55.1462 45.7152 56.6795C46.0476 57.4836 46.4926 58.4058 47.0341 59.4351C48.9319 63.1557 50.953 66.1419 52.5775 68.5436C52.8562 68.9564 53.1297 69.3585 53.387 69.7445C53.4567 69.8464 53.5264 69.9429 53.6014 70.0447C54.7005 71.6209 56.609 72.5484 58.6999 72.5109Z" fill="#10319B"/>
<path d="M71.1109 44.3865C69.7545 43.2124 68.0282 42.5047 66.0982 42.5423L63.9806 42.5798C63.9645 42.5798 63.9538 42.5798 63.9377 42.5798L58.6463 42.6709L53.3548 42.5798C53.3388 42.5798 53.328 42.5798 53.312 42.5798L51.1943 42.5423C48.2564 42.494 46.6588 44.6063 45.2756 47.0242C44.9647 47.571 45.2703 48.2787 45.8654 48.3966C50.878 49.3884 62.2811 50.4982 71.1109 44.3865Z" fill="#E26907"/>
<path d="M57.3274 58.5291C56.8235 58.5291 56.3142 58.4058 55.8478 58.1539C54.8559 57.6177 54.2448 56.6259 54.2072 55.5001L54.0142 49.0453C53.9821 47.9195 54.5343 46.8901 55.4939 46.3004C56.4536 45.7053 57.6169 45.6732 58.6087 46.2093L64.3398 49.2919C65.2994 49.8066 65.9052 50.7609 65.9642 51.8492C66.0232 52.9375 65.5192 53.9507 64.6239 54.5619C64.5971 54.5833 64.5649 54.5994 64.5381 54.6209L64.5006 54.6423L58.9679 58.0627C58.4586 58.3683 57.8903 58.5291 57.3274 58.5291ZM57.1291 46.2146C56.6358 46.2146 56.1373 46.354 55.6923 46.6274C54.8506 47.1475 54.3681 48.0481 54.4002 49.0346L54.5932 55.4894C54.6254 56.4758 55.1615 57.3443 56.03 57.8107C56.8985 58.2772 57.9225 58.2504 58.7588 57.7303L64.329 54.2885C64.3558 54.2724 64.3826 54.2563 64.4041 54.2402C65.1868 53.7041 65.6264 52.8195 65.5728 51.8653C65.5246 50.9163 64.9938 50.08 64.1521 49.6297L58.4211 46.547C58.0136 46.3219 57.5687 46.2146 57.1291 46.2146Z" fill="#F89E1C"/>
<path d="M57.3006 58.5773C56.802 58.5773 56.2981 58.454 55.8317 58.2021C54.8452 57.6713 54.2394 56.6902 54.2073 55.5698L54.0089 48.9541C53.9767 47.839 54.5236 46.8204 55.4725 46.2307C56.4214 45.641 57.5794 45.6088 58.5659 46.1395L64.4363 49.3026C65.3852 49.8119 65.9856 50.7608 66.0446 51.8384C66.1036 52.916 65.605 53.9239 64.7204 54.5297C64.6936 54.5511 64.6614 54.5672 64.6346 54.5887L64.5971 54.6101L58.925 58.1163C58.4211 58.4219 57.8635 58.5773 57.3006 58.5773ZM57.0969 45.9626C56.5715 45.9626 56.0461 46.1074 55.5743 46.4022C54.6844 46.9544 54.1697 47.9087 54.2019 48.9541L54.4003 55.5698C54.4324 56.6152 55.0007 57.5373 55.9228 58.0359C56.8449 58.5345 57.9279 58.5023 58.8232 57.9501L64.5274 54.4225C64.5542 54.4064 64.581 54.3849 64.6078 54.3689C65.4388 53.8006 65.9052 52.8624 65.8516 51.8491C65.798 50.8412 65.2351 49.9513 64.3451 49.4742L58.4747 46.3111C58.0405 46.0806 57.5687 45.9626 57.0969 45.9626Z" fill="#10319B"/>
<path d="M40.6222 45.705C40.3595 45.3029 39.7483 45.3726 39.5822 45.8229C38.9067 47.6993 37.7165 51.9293 38.2955 57.2528C38.3866 52.5083 40.3488 47.9674 41.0725 46.4502C40.9278 46.1982 40.783 45.9462 40.6222 45.705Z" fill="#F89E1C"/>
<path d="M38.5153 56.3849C38.2794 56.3849 38.1346 56.342 38.1132 56.3366L38.2258 55.9667L38.1668 56.149L38.2204 55.9613C38.2418 55.9667 40.5632 56.4706 42.4771 51.4526L42.579 52.2086C41.0189 56.1597 39.3141 56.3849 38.5153 56.3849Z" fill="#F89E1C"/>
<path d="M38.3759 57.9772C38.3759 57.9772 40.4024 58.9744 41.9571 55.8703C41.9571 55.8703 40.6705 59.7249 39.298 60.0359C39.298 60.0359 38.4081 60.2342 38.3759 57.9772Z" fill="#032663"/>
<path d="M39.3569 60.1804C39.2926 60.1804 39.2336 60.1751 39.1693 60.159C38.8476 60.0839 38.6064 59.8427 38.5421 59.5156C37.2715 53.0448 38.7833 47.7587 39.491 45.7912C39.5767 45.5499 39.7912 45.3784 40.0485 45.3462C40.3059 45.314 40.5578 45.432 40.6972 45.6518C43.4475 49.8603 43.2866 55.4037 40.3005 59.4459L40.0056 59.8427C39.8555 60.0571 39.6143 60.1804 39.3569 60.1804ZM40.1343 45.5339C40.1129 45.5339 40.0968 45.5338 40.0753 45.5392C39.8877 45.5607 39.7376 45.6786 39.6732 45.8555C38.9709 47.8123 37.4698 53.0555 38.7297 59.4781C38.7779 59.7247 38.9602 59.9124 39.2122 59.9713C39.4588 60.025 39.7108 59.9338 39.8609 59.7301L40.1558 59.3334C43.0936 55.3554 43.2491 49.8978 40.5418 45.759C40.4506 45.6143 40.3005 45.5339 40.1343 45.5339Z" fill="#10319B"/>
<path d="M39.105 58.1858C38.6493 58.1858 38.3491 58.0679 38.3437 58.0625L38.4188 57.8856C38.4992 57.9177 40.456 58.6897 41.9303 55.843L42.1019 55.9341C41.1154 57.832 39.8824 58.1858 39.105 58.1858Z" fill="#10319B"/>
<path d="M38.5957 56.4923C38.3652 56.4923 38.2258 56.4494 38.2043 56.4441L38.2633 56.2618C38.2847 56.2671 40.5257 56.9051 42.4986 52.1713L42.6755 52.2463C41.0993 56.0259 39.357 56.4923 38.5957 56.4923Z" fill="#10319B"/>
<path d="M78.0642 45.8233C78.8308 47.957 80.2623 53.1305 79.0131 59.4995C78.8898 60.1214 78.0856 60.2983 77.7104 59.789L77.4155 59.3923C74.4401 55.3608 74.2846 49.9031 77.0241 45.7054C77.2868 45.2979 77.898 45.3676 78.0642 45.8233Z" fill="#F89E1C"/>
<path d="M77.5495 46.4559C77.5442 46.4666 77.5388 46.472 77.5334 46.4827C76.5952 48.0803 76.7829 50.1122 77.9731 51.5275C78.3644 51.9939 78.8416 52.4175 79.4045 52.6962C79.3991 49.7959 78.6539 47.5549 78.2197 46.5041C78.1017 46.22 77.705 46.1932 77.5495 46.4559Z" fill="#F4B821"/>
<path d="M75.5659 48.9973C74.5956 52.5034 75.2228 56.3527 77.4155 59.3925L77.6996 59.7892C77.7318 59.8375 77.7747 59.875 77.8176 59.9125L78.7933 59.8589C78.8845 59.7624 78.9488 59.6445 78.9756 59.4997C79.0989 58.8564 79.1954 58.2291 79.2705 57.6126C76.2039 56.2991 75.6517 51.4044 75.5659 48.9973Z" fill="#F5851F"/>
<path d="M79.0882 56.3953C78.2787 56.3953 76.5417 55.8914 75.0245 52.0421L75.1531 51.3934C77.0885 56.7116 79.3938 55.9771 79.4152 55.9718L79.5439 56.3363C79.5171 56.3417 79.3563 56.3953 79.0882 56.3953Z" fill="#F89E1C"/>
<path d="M79.2705 57.9772C79.2705 57.9772 77.244 58.9744 75.6893 55.8703C75.6893 55.8703 76.9759 59.7249 78.3484 60.0359C78.3484 60.0359 79.2383 60.2342 79.2705 57.9772Z" fill="#032663"/>
<path d="M78.2894 60.1805C78.0321 60.1805 77.7908 60.0626 77.63 59.8428L77.3351 59.4461C74.349 55.4038 74.1935 49.8604 76.9384 45.6519C77.0831 45.4321 77.3298 45.3195 77.5871 45.3463C77.8444 45.3785 78.0589 45.5447 78.1446 45.7913C78.8523 47.7642 80.3695 53.0502 79.0936 59.5157C79.0292 59.8374 78.788 60.084 78.4663 60.1591C78.4127 60.1752 78.3537 60.1805 78.2894 60.1805ZM77.512 45.534C77.3458 45.534 77.2011 45.6144 77.1046 45.7538C74.3972 49.8925 74.5527 55.3502 77.4906 59.3281L77.7854 59.7248C77.9356 59.9286 78.1875 60.0197 78.4341 59.9661C78.6808 59.9125 78.863 59.7248 78.9166 59.4729C80.1819 53.0502 78.6754 47.8071 77.9731 45.8503C77.9088 45.6733 77.7586 45.5554 77.571 45.534C77.5496 45.534 77.5335 45.534 77.512 45.534Z" fill="#10319B"/>
<path d="M78.5414 58.1861C77.764 58.1861 76.531 57.8323 75.5445 55.9291L75.7161 55.838C77.1904 58.6901 79.1472 57.9181 79.2276 57.8805L79.3027 58.0575C79.2973 58.0682 78.9971 58.1861 78.5414 58.1861Z" fill="#10319B"/>
<path d="M79.0507 56.4923C78.2894 56.4923 76.547 56.0259 74.9708 52.2463L75.1478 52.1713C77.1314 56.9212 79.3616 56.2671 79.383 56.2618L79.442 56.4441C79.4206 56.4494 79.2812 56.4923 79.0507 56.4923Z" fill="#10319B"/>
<path d="M57.6866 57.0442C57.3006 57.0442 56.9146 56.9477 56.5554 56.7547C55.7941 56.3473 55.3277 55.5913 55.3009 54.7282L55.1561 49.8925C55.1293 49.0293 55.5528 48.2466 56.2873 47.7963C57.0218 47.3406 57.9117 47.3191 58.6676 47.7266L62.9565 50.0372C63.691 50.434 64.1521 51.1631 64.195 51.994C64.2378 52.825 63.8572 53.6024 63.171 54.0688C63.1495 54.0849 63.1281 54.0956 63.1067 54.1117L63.0798 54.1278L58.9357 56.6904C58.5497 56.9209 58.1208 57.0442 57.6866 57.0442ZM57.5365 47.8231C57.1719 47.8231 56.8127 47.925 56.4857 48.1233C55.8745 48.504 55.5207 49.158 55.5421 49.8818L55.6869 54.7175C55.7083 55.4412 56.0997 56.0738 56.7376 56.417C57.3703 56.7601 58.1208 56.7386 58.732 56.358L62.8976 53.7793C62.919 53.7686 62.9351 53.7525 62.9512 53.7418C63.5248 53.3504 63.8411 52.7017 63.8036 52.0101C63.7661 51.3185 63.3801 50.7074 62.7689 50.375L58.48 48.0643C58.1851 47.9035 57.8635 47.8231 57.5365 47.8231Z" fill="#F89E1C"/>
<path d="M62.962 53.9023C62.9834 53.8916 63.0048 53.8755 63.0209 53.8648C64.3237 52.9748 64.2325 51.0073 62.8279 50.2514L58.6355 47.989C57.1827 47.2063 55.435 48.2892 55.4832 49.9404L55.6226 54.6636C55.6708 56.3094 57.4883 57.2852 58.8875 56.422L62.9405 53.9184C62.9459 53.913 62.9566 53.9077 62.962 53.9023Z" fill="#032663"/>
<path d="M61.2088 53.1734C61.2196 53.1681 61.2303 53.1574 61.241 53.152C61.9755 52.6534 61.9219 51.5437 61.1284 51.1148L58.7642 49.8442C57.9439 49.4046 56.9575 50.0157 56.9896 50.9432L57.0701 53.6077C57.0969 54.5352 58.1208 55.0874 58.9089 54.5995L61.1928 53.1895C61.1981 53.1842 61.2035 53.1788 61.2088 53.1734Z" fill="#33FCFE"/>
<path d="M71.9203 46.2043C71.2663 46.9495 67.4545 48.842 67.4545 48.842C67.4545 48.842 68.7626 49.8231 68.7841 51.8978C68.8002 53.4472 67.3366 54.8357 67.3366 54.8357C68.6554 56.1814 68.1568 58.5563 67.1811 60.3577C66.2054 62.159 67.0685 62.6844 67.0685 62.6844C67.0685 62.6844 72.7728 54.1602 73.2713 49.3727C73.4751 47.4267 71.9203 46.2043 71.9203 46.2043Z" fill="#F4B821"/>
<path d="M46.1495 55.2216C46.1495 55.2216 47.6291 54.975 48.4226 55.9775C49.216 56.98 53.9338 65.8741 56.1319 69.0533C56.5286 69.6269 57.5472 71.5944 58.6784 71.2031C58.6784 71.2031 57.1022 72.0984 54.7809 69.7609C52.4649 67.4181 47.5112 58.0415 46.1495 55.2216Z" fill="#0E51A0"/>
<path d="M43.6692 18.061C44.7441 17.3032 46.0286 16.6582 47.4475 16.1208L47.3561 16.1423C47.3561 16.1423 51.9137 13.6216 58.7125 13.6216C65.4898 13.6216 70.1012 16.067 70.1281 16.0831C71.5899 16.626 72.9013 17.2817 74.0031 18.0556C79.3078 21.7909 78.8724 29.8151 76.5453 37.3771C74.863 42.8806 66.8496 45.3851 58.8415 45.2615C50.8335 45.3851 42.82 42.8806 41.127 37.3771C38.7999 29.8205 38.3645 21.7963 43.6692 18.061Z" fill="#F89E1C"/>
<path d="M43.6691 18.0873C44.2334 17.6896 44.8569 17.3242 45.5233 16.9856C40.3262 20.7639 40.7669 28.7451 43.0779 36.2694C44.7709 41.7837 52.779 44.2882 60.7924 44.17C65.3446 44.2399 69.8969 43.4552 73.2936 41.7568C69.8378 44.2721 64.3396 45.433 58.8361 45.347C50.828 45.4706 42.8146 42.9607 41.1216 37.4464C38.7998 29.8737 38.3644 21.8334 43.6691 18.0873Z" fill="#F5851F"/>
<path d="M46.1467 24.8163C42.8951 24.1391 42.6802 18.9581 42.6694 18.7323L43.0564 18.7216C43.0564 18.77 43.2714 23.822 46.222 24.4347L46.1467 24.8163Z" fill="#F89E1C"/>
<path d="M70.832 25.0151L70.7245 24.6443C73.9599 23.7038 74.1481 18.4475 74.1481 18.3937L74.535 18.4045C74.5296 18.6302 74.3362 23.9994 70.832 25.0151Z" fill="#F4B821"/>
<path d="M58.9542 18.2273C57.1323 18.2273 55.4393 17.6308 54.4504 16.6257C54.4181 16.5935 54.3859 16.5612 54.3536 16.5236L52.58 14.5243L53.0154 14.1373L54.789 16.1313C54.8105 16.1581 54.8373 16.185 54.8642 16.2119C55.8263 17.1901 57.5569 17.7275 59.3896 17.6308C61.1686 17.534 62.7164 16.8568 63.528 15.8303L64.7964 14.2179L65.2532 14.578L63.9848 16.1904C63.0765 17.3513 61.3674 18.1037 59.4218 18.2112C59.2606 18.222 59.1101 18.2273 58.9542 18.2273Z" fill="#F4B821"/>
<path d="M58.9436 20.3288C56.5304 20.3288 54.343 19.5172 52.951 18.0984C52.9026 18.05 52.8489 17.9962 52.8005 17.9425L52.7468 17.8834L50.3121 15.1477L50.7474 14.7608L53.2305 17.5555C53.2735 17.6039 53.3165 17.6523 53.3648 17.6953C54.6493 18.9959 56.6863 19.7483 58.9436 19.7483C59.1263 19.7483 59.3144 19.743 59.5026 19.7322C61.9103 19.5979 63.9795 18.6519 65.1727 17.1309L66.9839 14.8253L67.4408 15.1854L65.6295 17.491C64.3343 19.141 62.1092 20.1676 59.5348 20.3127C59.3413 20.3234 59.1425 20.3288 58.9436 20.3288Z" fill="#F4B821"/>
<path d="M73.7022 19.4745C72.6004 18.6952 71.289 18.0287 69.8272 17.4859C69.7949 17.4698 65.1728 14.6535 58.3955 14.6535C53.9346 14.6481 50.0381 15.3952 47.8775 15.9058C49.248 15.2608 53.2575 13.6216 58.718 13.6216C65.4953 13.6216 70.1066 16.0885 70.1335 16.1046C71.5954 16.6528 72.9068 17.3139 74.0086 18.0932C78.7382 21.4523 78.9048 28.2511 77.2333 35.0875C78.5554 28.7348 78.1147 22.6078 73.7022 19.4745Z" fill="#F4B821"/>
<path d="M71.1492 24.752L71.1116 24.5639C74.1428 23.9351 74.4707 18.539 74.476 18.4853L74.6695 18.496C74.6534 18.7218 74.3255 24.0909 71.1492 24.752Z" fill="#10319B"/>
<path d="M65.3985 17.2922L67.2097 14.9865C66.5755 14.7823 65.8392 14.5727 65.0169 14.3792L63.7485 15.9916C62.8886 17.088 61.2601 17.7974 59.4005 17.9049C57.4872 18.0124 55.6706 17.4373 54.6548 16.4C54.6225 16.3678 54.5957 16.3409 54.5688 16.3087L52.7952 14.3147C51.9514 14.5028 51.1936 14.7178 50.5325 14.9274L52.9672 17.6631L53.0209 17.7222C53.0693 17.7706 53.1123 17.8243 53.1607 17.8727C54.4989 19.2324 56.6272 20.0117 58.9437 20.0117C59.1318 20.0117 59.3253 20.0064 59.5187 19.9956C62.0072 19.8666 64.1516 18.8777 65.3985 17.2922Z" fill="#032663"/>
<path d="M46.4639 24.7521C43.2875 24.0911 42.9382 18.7756 42.9221 18.5499L43.1156 18.5392C43.1209 18.5929 43.4703 23.9352 46.5015 24.564L46.4639 24.7521Z" fill="#10319B"/>
<path d="M58.7986 45.1912C54.8375 45.2503 50.8819 44.7021 47.6034 43.4982C46.8402 42.6812 46.2329 41.6278 45.8782 40.4024C44.9699 37.2583 43.9487 32.862 43.5564 27.9228C43.3629 25.4935 44.7334 23.2899 46.7005 22.8169C49.3824 22.172 53.5208 21.4249 58.4331 21.3497V21.3443C58.5728 21.3443 58.7072 21.3497 58.8469 21.3497C58.9867 21.3497 59.121 21.3443 59.2608 21.3443V21.3497C64.1731 21.4249 68.2148 22.0484 70.8967 22.6933C72.8637 23.1663 74.331 25.4935 74.1375 27.9228C73.7452 32.862 72.724 37.2583 71.8157 40.4024C71.4664 41.601 70.8805 42.6329 70.1388 43.4498C66.8228 44.6859 62.808 45.2503 58.7986 45.1912Z" fill="#032663"/>
<path d="M72.4767 42.2246L71.6974 42.6492C71.8425 42.2192 72.0844 41.4937 72.2456 40.9831C72.6756 39.6395 73.1646 38.1131 73.6 37.0919C74.304 35.4419 76.2604 34.195 77.5449 33.5716L77.3245 34.4154C76.126 35.0012 74.7662 35.8343 74.1321 37.323C73.7075 38.3227 73.2238 39.8329 72.7938 41.1658C72.6379 41.671 72.6218 41.7946 72.4767 42.2246Z" fill="#F4B821"/>
<path d="M45.4428 42.3485C45.3998 42.3485 45.3622 42.3216 45.3514 42.284C45.2224 41.9024 45.0881 41.4832 44.9483 41.0586C44.5291 39.7634 44.0508 38.2907 43.6047 37.2427C42.9544 35.7217 41.557 34.8779 40.2725 34.2491C40.2241 34.2276 40.2026 34.1685 40.2295 34.1201C40.251 34.0717 40.3101 34.0502 40.3585 34.0771C41.6752 34.7167 43.1102 35.5874 43.7874 37.1675C44.2389 38.2262 44.7172 39.6989 45.1364 40.9995C45.2762 41.4241 45.4105 41.8379 45.5341 42.2249C45.5503 42.2733 45.5234 42.3324 45.475 42.3485C45.4643 42.3485 45.4535 42.3485 45.4428 42.3485Z" fill="#F89E1C"/>
<path d="M77.3891 34.3886C77.158 35.3883 76.8893 36.3933 76.5829 37.3876C75.9541 39.4407 74.4653 41.0745 72.4284 42.3214C72.9551 40.7467 73.3958 38.9892 73.987 37.5972C74.6911 35.958 76.2551 34.9368 77.3891 34.3886Z" fill="#032663"/>
<path d="M76.0078 37.5115C76.2228 36.9311 76.4216 36.3506 76.6097 35.7648C76.0078 36.1518 75.3897 36.7107 75.0135 37.49C74.6104 38.3177 74.2557 39.3389 73.8902 40.3117C74.8469 39.5753 75.5832 38.6456 76.0078 37.5115Z" fill="#0E51A0"/>
<path d="M72.5519 42.3108L72.3692 42.2516C72.5519 41.7088 72.7239 41.1337 72.8905 40.5802C73.2076 39.5267 73.5409 38.4411 73.9278 37.522C74.6265 35.8774 76.1905 34.8455 77.3729 34.2651L77.4589 34.4371C76.3034 35.0014 74.7878 36.0011 74.1052 37.5919C73.7182 38.5002 73.3904 39.5805 73.0733 40.6285C72.9067 41.1929 72.7347 41.7679 72.5519 42.3108Z" fill="#10319B"/>
<path d="M40.2725 34.3886C40.5036 35.3883 40.7723 36.3933 41.0787 37.3876C41.7075 39.4407 43.1962 41.0745 45.2332 42.3214C44.7065 40.7467 44.2658 38.9892 43.6746 37.5972C42.9759 35.958 41.4065 34.9368 40.2725 34.3886Z" fill="#032663"/>
<path d="M59.3681 45.3477C59.1907 45.3477 59.0134 45.3477 58.8414 45.3423C51.7846 45.4498 42.8951 43.4343 41.0355 37.3987C39.3694 31.9919 37.4937 22.2855 43.6153 17.9751L43.6691 18.0557L43.6153 17.9751C44.6849 17.2227 47.2808 16.0779 47.3936 16.0295C47.4312 16.008 51.9727 13.525 58.7178 13.525C65.4843 13.525 70.1333 15.9704 70.1817 15.9973C71.6812 16.5509 72.9926 17.2173 74.0675 17.9751C80.1891 22.2855 78.3134 31.9919 76.6472 37.3933C74.8307 43.2838 66.3281 45.3477 59.3681 45.3477ZM58.836 45.1488C59.008 45.1488 59.1854 45.1542 59.3627 45.1542C66.2583 45.1542 74.6748 43.128 76.4591 37.3396C78.1091 31.9865 79.9741 22.3769 73.9546 18.1364C72.8904 17.3893 71.5952 16.7282 70.1011 16.1746C70.0419 16.1424 65.4306 13.7239 58.7178 13.7239C52.0265 13.7239 47.5226 16.18 47.4796 16.2069C47.4474 16.223 44.787 17.3947 43.7282 18.1364C37.7033 22.3715 39.5737 31.9865 41.2183 37.3396C43.0456 43.2731 51.8545 45.2563 58.836 45.1488Z" fill="#10319B"/>
<path d="M58.8414 44.3423C55.4447 44.3907 52.0533 43.9661 49.1618 43.0363C48.7158 42.8912 48.3127 42.6224 48.0332 42.2462C47.5549 41.612 47.1786 40.865 46.926 40.0319C46.0876 37.2049 45.1471 33.2439 44.787 28.7991C44.6096 26.6117 45.8726 24.6285 47.6838 24.2039C50.1561 23.6234 53.9721 22.9516 58.5028 22.8817V22.8764C58.6318 22.8764 58.7554 22.8764 58.8844 22.8817C59.0134 22.8817 59.137 22.8764 59.266 22.8764V22.8817C63.7967 22.9516 67.6073 23.6234 70.0849 24.2039C71.9015 24.6285 73.1592 26.6117 72.9818 28.7991C72.6163 33.2439 71.6812 37.2049 70.8427 40.0319C70.5955 40.8596 70.2247 41.5959 69.7517 42.2247C69.483 42.5848 69.1068 42.8428 68.6822 42.9825C65.7477 43.9553 62.2972 44.396 58.8414 44.3423Z" fill="#FCE8CA"/>
<path fill-rule="evenodd" clip-rule="evenodd" d="M50.6956 33.8199C50.8268 33.6552 51.0666 33.628 51.2313 33.7591C51.8542 34.2552 53.5682 35.3311 55.3589 35.6282C55.5445 35.659 55.6799 35.8206 55.6777 36.0087C55.6755 36.1968 55.5364 36.3552 55.3502 36.3817C54.9099 36.4443 54.1638 36.5869 53.3758 36.8093C52.5826 37.033 51.7757 37.3297 51.1952 37.6908C51.0165 37.8021 50.7814 37.7473 50.6701 37.5685C50.5589 37.3897 50.6137 37.1546 50.7924 37.0434C51.4637 36.6258 52.3517 36.3059 53.1688 36.0754C53.3314 36.0295 53.4923 35.9869 53.6495 35.9475C52.3405 35.4593 51.2481 34.7473 50.7563 34.3556C50.5916 34.2244 50.5644 33.9846 50.6956 33.8199Z" fill="#0E51A0"/>
<path d="M53.6666 31.8573C53.6939 31.862 53.7242 31.8765 53.7484 31.8994C54.1032 32.208 54.5695 32.3295 55.0313 32.2302C55.133 32.21 55.2299 32.2733 55.2508 32.3706C55.271 32.4723 55.2077 32.5692 55.1104 32.5901C54.5371 32.7126 53.954 32.5618 53.5091 32.177C53.4319 32.1077 53.4232 31.9939 53.4926 31.9167C53.5299 31.8622 53.5991 31.8412 53.6666 31.8573Z" fill="#032663"/>
<path fill-rule="evenodd" clip-rule="evenodd" d="M66.8551 33.8199C66.7239 33.6552 66.484 33.628 66.3193 33.7591C65.6964 34.2552 63.9825 35.3311 62.1918 35.6282C62.0062 35.659 61.8708 35.8206 61.873 36.0087C61.8751 36.1968 62.0142 36.3552 62.2005 36.3817C62.6408 36.4443 63.3869 36.5869 64.1749 36.8093C64.9681 37.033 65.775 37.3297 66.3554 37.6908C66.5342 37.8021 66.7693 37.7473 66.8806 37.5685C66.9918 37.3897 66.937 37.1546 66.7583 37.0434C66.087 36.6258 65.1989 36.3059 64.3819 36.0754C64.2193 36.0295 64.0584 35.9869 63.9012 35.9475C65.2101 35.4593 66.3026 34.7473 66.7944 34.3556C66.9591 34.2244 66.9862 33.9846 66.8551 33.8199Z" fill="#0E51A0"/>
<path d="M63.8841 31.8573C63.8568 31.862 63.8265 31.8765 63.8023 31.8994C63.4475 32.208 62.9812 32.3295 62.5194 32.2302C62.4177 32.21 62.3208 32.2733 62.2998 32.3706C62.2797 32.4723 62.343 32.5692 62.4402 32.5901C63.0136 32.7126 63.5967 32.5618 64.0416 32.177C64.1187 32.1077 64.1274 31.9939 64.0581 31.9167C64.0207 31.8622 63.9516 31.8412 63.8841 31.8573Z" fill="#032663"/>
<path d="M56.4859 42.5C56.4471 42.4982 56.4083 42.4964 56.368 42.4863C56.0822 42.4205 55.9004 42.1345 55.9621 41.8486C56.2741 40.393 57.4475 39.452 58.9509 39.45C60.4155 39.4462 61.7115 40.4561 62.0359 41.8429C62.1029 42.1319 61.9257 42.4166 61.6385 42.48C61.3513 42.5433 61.0652 42.3615 60.9981 42.0725C60.8182 41.2963 60.0605 40.5141 58.9625 40.5136C57.9545 40.5146 57.2001 41.1155 56.9931 42.0843C56.9417 42.334 56.7294 42.5002 56.4859 42.5Z" fill="#0E51A0"/>
<path d="M58.1966 45.2344C54.2786 45.2344 50.6131 44.6485 47.5658 43.5306L47.5443 43.5253L47.5281 43.5091C46.7327 42.6546 46.1308 41.5689 45.7814 40.3704C44.9484 37.4789 43.8627 32.9589 43.4542 27.8477C43.2554 25.3593 44.6366 23.1181 46.6736 22.6291C49.4092 21.9734 61.5557 20.0493 71.0095 22.6291C73.0357 23.1826 74.417 25.4238 74.2235 27.8477C73.815 32.9589 72.7347 37.4789 71.8963 40.3704C71.5577 41.5474 70.9665 42.617 70.1979 43.4608L70.1818 43.4769L70.1603 43.4876C66.9786 44.6808 62.9423 45.3042 58.7932 45.2397C58.5943 45.2344 58.3955 45.2344 58.1966 45.2344ZM58.7985 45.0355C62.9154 45.1 66.9141 44.4819 70.0743 43.3049C70.816 42.4826 71.3857 41.4507 71.7136 40.3113C72.5466 37.4305 73.6269 32.9213 74.03 27.8262C74.2181 25.4937 72.896 23.3385 70.9558 22.8118C61.5396 20.2428 49.4415 22.1615 46.7166 22.8118C44.7764 23.2794 43.4542 25.4346 43.6477 27.8262C44.0562 32.9213 45.1311 37.4305 45.9641 40.3113C46.3027 41.4776 46.8832 42.531 47.6518 43.3587C50.7851 44.4981 54.7408 45.1 58.7985 45.0355Z" fill="#10319B"/>
<path d="M45.147 42.2463C44.9697 41.7196 44.8031 41.1714 44.6418 40.6393C44.3247 39.5966 43.9915 38.5217 43.5992 37.5973C42.922 36.0064 41.401 35.0014 40.2455 34.4424L40.3315 34.2705C41.5139 34.8455 43.0725 35.8774 43.7765 37.5274C44.1743 38.4572 44.5075 39.5429 44.8246 40.5855C44.9858 41.1176 45.1524 41.6658 45.3298 42.1872L45.147 42.2463Z" fill="#10319B"/>
<path d="M74.5459 34.3455L77.0343 32.8943C77.0343 32.8943 77.7438 25.7462 75.4327 22.4946L74.7663 24.5423C74.7663 24.5423 75.8358 26.0956 74.5459 34.3455Z" fill="#F4B821"/>
</g>
</g>
</svg>
