<svg width="10" height="10" viewBox="0 0 10 10" fill="none" xmlns="http://www.w3.org/2000/svg">
<path fill-rule="evenodd" clip-rule="evenodd" d="M4.99989 0C5.55218 0 5.99989 0.447715 5.99989 1V4L8.99989 4C9.55218 4 9.99989 4.44772 9.99989 5C9.99989 5.55228 9.55218 6 8.99989 6H5.99989V9C5.99989 9.55229 5.55218 10 4.99989 10C4.44761 10 3.99989 9.55229 3.99989 9V6H0.999893C0.447608 6 -0.000106812 5.55228 -0.000106812 5C-0.000106752 4.44771 0.447608 4 0.999893 4L3.99989 4V1C3.99989 0.447715 4.44761 0 4.99989 0Z" fill="white"/>
</svg>
