<svg width="48" height="48" viewBox="0 0 48 48" fill="none" xmlns="http://www.w3.org/2000/svg">
<rect width="48" height="48" rx="24" fill="#CED4DA"/>
<path d="M37.2742 36.9238L28.6343 33.6021L28.2618 30.2988C30.3134 28.5708 31.8827 25.7621 32.5116 22.648C32.5177 22.6358 32.5299 22.6297 32.536 22.6114C36.6977 13.2136 30.679 7.69452 24.299 7.69452C16.7141 7.69452 11.1562 15.5211 15.4331 23.686C16.2086 26.5192 17.79 29.0288 19.7073 30.5247L19.3593 33.6082L10.7377 36.9177C8.85091 37.6015 7.58087 39.4089 7.58087 41.4117V46.7788C7.58087 47.4505 8.13041 48 8.80207 48H39.1976C39.8692 48 40.4188 47.4505 40.4188 46.7788V41.4117C40.4188 39.4089 39.1488 37.6015 37.2742 36.9238ZM24.006 34.457C22.771 34.457 21.5605 34.0948 20.605 33.5105L20.8553 31.2819C20.8614 31.288 20.8675 31.2941 20.8797 31.2941C21.7729 31.7769 22.8021 32.0634 23.8472 32.0634C25.1882 32.0634 26.8174 31.4267 27.1261 31.117L27.3948 33.5105C26.4716 34.1108 25.1372 34.457 24.006 34.457ZM16.5811 23.2831C16.4177 21.1598 18.0555 18.8895 19.4692 17.2748C21.7867 17.4965 24.5451 17.3134 26.4545 16.0353C27.0964 17.9611 29.8254 21.0836 31.2904 22.5503C30.0907 28.2009 25.3755 33.0851 20.7088 29.7615V29.7554C18.6557 28.3101 17.2229 25.6899 16.5811 23.2831Z" fill="#4D545C"/>
<path d="M20.6934 23.0687C21.3732 23.0687 21.9243 22.5176 21.9243 21.8378C21.9243 21.1579 21.3732 20.6068 20.6934 20.6068C20.0135 20.6068 19.4624 21.1579 19.4624 21.8378C19.4624 22.5176 20.0135 23.0687 20.6934 23.0687Z" fill="#4D545C"/>
<path d="M27.0053 23.0687C27.6851 23.0687 28.2362 22.5176 28.2362 21.8378C28.2362 21.1579 27.6851 20.6068 27.0053 20.6068C26.3254 20.6068 25.7743 21.1579 25.7743 21.8378C25.7743 22.5176 26.3254 23.0687 27.0053 23.0687Z" fill="#4D545C"/>
<path d="M21.7092 27.5586C22.2992 28.1487 23.0743 28.4438 23.8493 28.4438C24.6244 28.4438 25.3996 28.1487 25.9896 27.5586C26.2281 27.3201 26.2281 26.9338 25.9896 26.6952C25.7511 26.4566 25.3648 26.4567 25.1262 26.6952C24.4223 27.3985 23.2771 27.3991 22.5726 26.6952C22.3341 26.4567 21.9477 26.4567 21.7092 26.6952C21.4706 26.9337 21.4707 27.3201 21.7092 27.5586Z" fill="#4D545C"/>
</svg>
