<svg width="52" height="52" viewBox="0 0 52 52" fill="none" xmlns="http://www.w3.org/2000/svg">
<rect width="52" height="52" rx="26" fill="#E1F4FE"/>
<path opacity="0.3" d="M10 10.9387C11.5067 10.9387 12.7288 12.2547 12.7288 13.8773C12.7288 12.2547 13.9508 10.9387 15.4575 10.9387C13.9508 10.9387 12.7288 9.62257 12.7288 8C12.7288 9.62257 11.5067 10.9387 10 10.9387Z" fill="#007BE0"/>
<path opacity="0.3" d="M37 37C38.1043 37 39 37.8957 39 39C39 37.8957 39.8957 37 41 37C39.8957 37 39 36.1043 39 35C39 36.1043 38.1043 37 37 37Z" fill="#007BE0"/>
<path opacity="0.3" d="M8 41.5C9.93103 41.5 11.5 43.069 11.5 45C11.5 43.069 13.069 41.5 15 41.5C13.069 41.5 11.5 39.931 11.5 38C11.5 39.931 9.93103 41.5 8 41.5Z" fill="#007BE0"/>
<path opacity="0.3" d="M39 22.6179C41.5478 22.6179 43.6179 24.688 43.6179 27.2358C43.6179 24.688 45.688 22.6179 48.2358 22.6179C45.688 22.6179 43.6179 20.5478 43.6179 18C43.6179 20.5478 41.5478 22.6179 39 22.6179Z" fill="#007BE0"/>
<path d="M35.76 26.72C35.6 26.72 35.44 26.7886 35.3143 26.9143L34.1714 28.0571L36.5143 30.4L37.6571 29.2571C37.9086 29.0171 37.9086 28.6171 37.6571 28.3771L36.1943 26.9143C36.1386 26.8544 36.0715 26.8064 35.9969 26.773C35.9223 26.7396 35.8417 26.7216 35.76 26.72ZM33.5086 28.72L26.5714 35.6457V38H28.9257L35.8514 31.0629L33.5086 28.72ZM33.4286 25.5657L25.3257 33.6571C24.8571 33.3714 24.2857 33.2 23.7143 33.2C22 33.2 20.6286 34.5714 20.6286 36.2857V38H16.2857C15.6795 38 15.0981 37.7592 14.6695 37.3305C14.2408 36.9019 14 36.3205 14 35.7143V31.3714H15.7143C17.4286 31.3714 18.8 30 18.8 28.2857C18.8 26.5714 17.4286 25.2 15.7143 25.2H14V20.8571C14 19.6 15.0286 18.5714 16.2857 18.5714H20.8571V16.8571C20.8571 16.0994 21.1582 15.3727 21.694 14.8368C22.2298 14.301 22.9565 14 23.7143 14C24.472 14 25.1988 14.301 25.7346 14.8368C26.2704 15.3727 26.5714 16.0994 26.5714 16.8571V18.5714H31.1429C31.7491 18.5714 32.3304 18.8122 32.7591 19.2409C33.1878 19.6696 33.4286 20.2509 33.4286 20.8571V25.5657Z" fill="#0055B8"/>
</svg>
