<svg width="52" height="52" viewBox="0 0 52 52" fill="none" xmlns="http://www.w3.org/2000/svg">
<rect width="52" height="52" rx="26" fill="#FFF7D7"/>
<path d="M10 10.9387C11.5067 10.9387 12.7288 12.2547 12.7288 13.8773C12.7288 12.2547 13.9508 10.9387 15.4575 10.9387C13.9508 10.9387 12.7288 9.62257 12.7288 8C12.7288 9.62257 11.5067 10.9387 10 10.9387Z" fill="#FFE784"/>
<path d="M27 45C28.1043 45 29 45.8957 29 47C29 45.8957 29.8957 45 31 45C29.8957 45 29 44.1043 29 43C29 44.1043 28.1043 45 27 45Z" fill="#FFE784"/>
<path d="M9 38.5C10.931 38.5 12.5 40.069 12.5 42C12.5 40.069 14.069 38.5 16 38.5C14.069 38.5 12.5 36.931 12.5 35C12.5 36.931 10.931 38.5 9 38.5Z" fill="#FFE784"/>
<path d="M39 22.6179C41.5478 22.6179 43.6179 24.688 43.6179 27.2358C43.6179 24.688 45.688 22.6179 48.2358 22.6179C45.688 22.6179 43.6179 20.5478 43.6179 18C43.6179 20.5478 41.5478 22.6179 39 22.6179Z" fill="#FFE784"/>
<path d="M13 23.9981C13.0005 21.8391 13.6819 19.7384 14.9424 18.0097C16.203 16.281 17.9749 15.0173 19.9934 14.4074C22.0119 13.7975 24.1686 13.8741 26.1412 14.6259C28.1137 15.3777 29.7962 16.7642 30.937 18.5783C32.0779 20.3923 32.616 22.5365 32.4708 24.6902C32.3256 26.844 31.505 28.8917 30.1316 30.5274C28.7582 32.163 26.9057 33.2987 24.8511 33.7648C22.7965 34.2308 20.65 34.0022 18.7326 33.113C17.0977 33.4997 15.3367 33.833 14.527 33.9823C14.3201 34.0203 14.1073 34.0059 13.907 33.9406C13.7067 33.8752 13.5249 33.7608 13.3774 33.6072C13.2299 33.4536 13.121 33.2654 13.0602 33.059C12.9995 32.8525 12.9886 32.634 13.0286 32.4223C13.182 31.6089 13.5224 29.8649 13.9136 28.2315C13.3099 26.9063 12.998 25.4609 13 23.9981ZM20.9848 18.4072C20.4103 18.7219 19.9581 19.2113 19.6163 19.8606C19.5044 20.0926 19.4846 20.36 19.5609 20.6067C19.6372 20.8534 19.8038 21.0601 20.0256 21.1834C20.2474 21.3067 20.5072 21.3369 20.7503 21.2678C20.9934 21.1986 21.2009 21.0355 21.3292 20.8126C21.5202 20.4526 21.7164 20.274 21.9036 20.1726C22.0985 20.0646 22.3636 19.9993 22.747 19.9993C23.0381 19.9993 23.3799 20.1046 23.6308 20.3166C23.853 20.5033 24.0466 20.802 24.0466 21.3313C24.0466 21.5913 23.9492 21.7113 23.2825 22.2487C22.6976 22.7207 21.7723 23.486 21.7723 24.9981C21.7723 25.2633 21.875 25.5177 22.0578 25.7052C22.2406 25.8928 22.4885 25.9981 22.747 25.9981C23.0055 25.9981 23.2535 25.8928 23.4362 25.7052C23.619 25.5177 23.7217 25.2633 23.7217 24.9981C23.7217 24.5047 23.9349 24.2661 24.4859 23.8207L24.5964 23.7341C25.0993 23.3367 25.996 22.6314 25.996 21.3313C25.996 20.2006 25.5399 19.3339 24.868 18.7686C24.2667 18.2724 23.5187 18.0011 22.747 17.9992C22.1557 17.9992 21.5488 18.0979 20.9848 18.4072ZM24.0466 28.6649C24.0466 28.3112 23.9097 27.9721 23.666 27.722C23.4223 27.472 23.0917 27.3315 22.747 27.3315C22.4024 27.3315 22.0718 27.472 21.8281 27.722C21.5843 27.9721 21.4474 28.3112 21.4474 28.6649C21.4474 29.0185 21.5843 29.3576 21.8281 29.6077C22.0718 29.8577 22.4024 29.9982 22.747 29.9982C23.0917 29.9982 23.4223 29.8577 23.666 29.6077C23.9097 29.3576 24.0466 29.0185 24.0466 28.6649ZM22.6171 35.3317C24.4178 37.0492 26.7864 38.0022 29.245 37.9985C30.6294 38.0004 31.9982 37.6985 33.2595 37.1131C34.897 37.4998 36.6658 37.8331 37.4806 37.9798C37.6879 38.0173 37.901 38.0024 38.1014 37.9364C38.3018 37.8704 38.4834 37.7552 38.6307 37.6009C38.7779 37.4465 38.8862 37.2577 38.9462 37.0507C39.0063 36.8438 39.0162 36.6249 38.9752 36.4131C38.7056 35.0128 38.4066 33.6187 38.0784 32.2316C38.6563 30.9622 38.9678 29.5824 38.9929 28.1816C39.0179 26.7808 38.7559 25.3903 38.2239 24.1C37.6918 22.8097 36.9015 21.6484 35.9041 20.6914C34.9068 19.7344 33.7246 19.003 32.4343 18.5446C33.3632 20.2806 33.8326 22.2361 33.7956 24.2161C33.7586 26.1962 33.2165 28.1318 32.2234 29.83C31.2303 31.5282 29.8207 32.9298 28.1353 33.8951C26.4498 34.8604 24.5472 35.3557 22.6171 35.3317Z" fill="#FFCE00"/>
</svg>
