<svg width="52" height="52" viewBox="0 0 52 52" fill="none" xmlns="http://www.w3.org/2000/svg">
<rect width="52" height="52" rx="26" fill="#FFF2F7"/>
<path opacity="0.7" d="M10 10.9387C11.5067 10.9387 12.7288 12.2547 12.7288 13.8773C12.7288 12.2547 13.9508 10.9387 15.4575 10.9387C13.9508 10.9387 12.7288 9.62257 12.7288 8C12.7288 9.62257 11.5067 10.9387 10 10.9387Z" fill="#FFBCD8"/>
<path opacity="0.7" d="M37 37C38.1043 37 39 37.8957 39 39C39 37.8957 39.8957 37 41 37C39.8957 37 39 36.1043 39 35C39 36.1043 38.1043 37 37 37Z" fill="#FFBCD8"/>
<path opacity="0.7" d="M9 38.5C10.931 38.5 12.5 40.069 12.5 42C12.5 40.069 14.069 38.5 16 38.5C14.069 38.5 12.5 36.931 12.5 35C12.5 36.931 10.931 38.5 9 38.5Z" fill="#FFBCD8"/>
<path opacity="0.7" d="M39 22.6179C41.5478 22.6179 43.6179 24.688 43.6179 27.2358C43.6179 24.688 45.688 22.6179 48.2358 22.6179C45.688 22.6179 43.6179 20.5478 43.6179 18C43.6179 20.5478 41.5478 22.6179 39 22.6179Z" fill="#FFBCD8"/>
<path fill-rule="evenodd" clip-rule="evenodd" d="M16.7053 21.9177C16.7053 16.4403 21.1457 12 26.6222 12H26.6275C32.1049 12 36.5452 16.4412 36.5452 21.9177C36.5452 24.6278 35.7789 26.3126 34.9396 28.1578C33.9236 30.3915 32.8007 32.8603 32.8007 37.6674C32.8013 37.9739 32.7414 38.2775 32.6243 38.5607C32.5073 38.844 32.3355 39.1014 32.1188 39.3181C31.9021 39.5348 31.6447 39.7066 31.3614 39.8236C31.0782 39.9406 30.7746 40.0006 30.4681 40H23.0214C21.7286 40 20.9966 38.9532 21.1254 37.6674L21.4464 34.4661L19.4357 34.8163C18.022 35.0632 16.7106 34.2712 16.7106 32.6891V30.1211H15.4407C14.1479 30.1211 13.6011 28.7709 14.3181 27.7885L16.7142 24.1207L16.7053 21.9177ZM25.3481 16.0727C24.6586 16.0711 23.9875 16.2956 23.4378 16.7119H23.4386C23.0154 17.0408 22.6889 17.4962 22.5729 18.0468C22.3085 18.0677 22.0666 18.1766 21.8635 18.3418C21.5556 18.5917 21.3315 18.9665 21.1904 19.3631C20.9696 19.9797 20.9099 20.7648 21.1389 21.4355C21.0795 21.4628 21.0224 21.4946 20.968 21.5306C20.7527 21.6749 20.5875 21.878 20.4642 22.1182H22.7284C23.1862 22.1182 23.627 22.2912 23.9625 22.6026C24.2979 22.9141 24.5033 23.3408 24.5372 23.7973C24.8064 23.8911 25.0338 24.077 25.1793 24.3222C25.3247 24.5673 25.3789 24.856 25.3322 25.1372C25.2854 25.4185 25.1408 25.6741 24.9239 25.8591C24.707 26.0441 24.4317 26.1464 24.1466 26.1481C23.8616 26.1498 23.5851 26.0508 23.3659 25.8684C23.1468 25.686 22.9992 25.4321 22.9491 25.1515C22.899 24.8708 22.9497 24.5815 23.0922 24.3346C23.2347 24.0877 23.4599 23.8991 23.7279 23.8021C23.6635 23.3072 23.2411 22.9243 22.7284 22.9243H20.2054C20.1385 23.279 20.1087 23.6844 20.1087 24.1334C20.1087 25.0523 20.4593 25.6706 20.9043 26.0518C21.1503 26.2628 21.4407 26.4157 21.7539 26.4992C21.8569 27.0163 22.0834 27.5008 22.4141 27.9114C22.8743 28.4878 23.5861 28.9698 24.5421 28.9698C25.1361 28.9698 25.6343 28.7119 26.0067 28.4072C26.0529 28.3693 26.09 28.3217 26.1155 28.2678C26.141 28.2138 26.1543 28.1549 26.1542 28.0952V20.5061H25.2796C25.1846 20.775 24.9975 21.0017 24.7515 21.146C24.5054 21.2903 24.2163 21.343 23.9352 21.2948C23.6541 21.2465 23.3991 21.1005 23.2152 20.8824C23.0314 20.6643 22.9306 20.3883 22.9306 20.1031C22.9306 19.8178 23.0314 19.5418 23.2152 19.3237C23.3991 19.1057 23.6541 18.9596 23.9352 18.9114C24.2163 18.8631 24.5054 18.9158 24.7515 19.0602C24.9975 19.2045 25.1846 19.4311 25.2796 19.7H26.1542V16.7796C26.1542 16.6861 26.1218 16.5955 26.0623 16.5233C25.9785 16.4226 25.885 16.3218 25.785 16.2428C25.6956 16.1735 25.5416 16.0727 25.3481 16.0727ZM27.5648 26.1486H26.9603V28.0952C26.9603 28.155 26.9737 28.2139 26.9993 28.2679C27.025 28.3218 27.0623 28.3694 27.1086 28.4072C27.4802 28.7119 27.9792 28.9698 28.5724 28.9698C29.5284 28.9698 30.241 28.4878 30.7004 27.9114C31.0543 27.4697 31.28 26.949 31.3606 26.4992C31.6738 26.4157 31.9642 26.2628 32.2102 26.0518C32.6552 25.6706 33.0058 25.0531 33.0058 24.1334C33.0058 23.3072 32.905 22.6269 32.6608 22.1392C32.5367 21.8901 32.3682 21.6789 32.1465 21.5314C32.0909 21.4943 32.0337 21.4621 31.9756 21.4347C32.2046 20.7657 32.1449 19.9797 31.9241 19.3631C31.783 18.9665 31.5589 18.5917 31.251 18.3418C31.0479 18.1766 30.806 18.0669 30.5416 18.0468C30.4264 17.4962 30.0999 17.0408 29.6767 16.7119C29.127 16.2956 28.4559 16.0711 27.7664 16.0727C27.5721 16.0727 27.4181 16.1735 27.3295 16.2428C27.2295 16.3218 27.1352 16.4226 27.0522 16.5233C26.9927 16.5955 26.9602 16.6861 26.9603 16.7796V25.3425H27.5648C28.121 25.3425 28.5724 24.8911 28.5724 24.3349V22.8558C28.3035 22.7607 28.0769 22.5736 27.9326 22.3276C27.7882 22.0816 27.7355 21.7925 27.7838 21.5114C27.832 21.2303 27.9781 20.9752 28.1961 20.7914C28.4142 20.6076 28.6902 20.5067 28.9755 20.5067C29.2607 20.5067 29.5367 20.6076 29.7548 20.7914C29.9729 20.9752 30.1189 21.2303 30.1671 21.5114C30.2154 21.7925 30.1627 22.0816 30.0184 22.3276C29.874 22.5736 29.6474 22.7607 29.3785 22.8558V24.3349C29.3785 24.8159 29.1874 25.2772 28.8473 25.6174C28.5072 25.9575 28.0458 26.1486 27.5648 26.1486ZM23.8541 19.8181C23.9296 19.7425 24.0322 19.7 24.139 19.7C24.2459 19.7 24.3484 19.7425 24.424 19.8181C24.4996 19.8937 24.5421 19.9962 24.5421 20.1031C24.5421 20.21 24.4996 20.3125 24.424 20.3881C24.3484 20.4636 24.2459 20.5061 24.139 20.5061C24.0322 20.5061 23.9296 20.4636 23.8541 20.3881C23.7785 20.3125 23.736 20.21 23.736 20.1031C23.736 19.9962 23.7785 19.8937 23.8541 19.8181ZM23.8541 24.6545C23.9296 24.5789 24.0322 24.5364 24.139 24.5364C24.2459 24.5364 24.3484 24.5789 24.424 24.6545C24.4996 24.7301 24.5421 24.8326 24.5421 24.9395C24.5421 25.0464 24.4996 25.1489 24.424 25.2245C24.3484 25.3 24.2459 25.3425 24.139 25.3425C24.0322 25.3425 23.9296 25.3 23.8541 25.2245C23.7785 25.1489 23.736 25.0464 23.736 24.9395C23.736 24.8326 23.7785 24.7301 23.8541 24.6545ZM29.2604 22.0002C29.1849 22.0758 29.0823 22.1182 28.9755 22.1182C28.8686 22.1182 28.766 22.0758 28.6905 22.0002C28.6149 21.9246 28.5724 21.8221 28.5724 21.7152C28.5724 21.6083 28.6149 21.5058 28.6905 21.4302C28.766 21.3546 28.8686 21.3122 28.9755 21.3122C29.0823 21.3122 29.1849 21.3546 29.2604 21.4302C29.336 21.5058 29.3785 21.6083 29.3785 21.7152C29.3785 21.8221 29.336 21.9246 29.2604 22.0002Z" fill="#FF79B1"/>
</svg>
