<svg width="56" height="57" viewBox="0 0 56 57" fill="none" xmlns="http://www.w3.org/2000/svg">
<g clip-path="url(#clip0_12159_680756)">
<path d="M10.3255 62.7802C4.01201 59.4469 -2.39216 54.6765 -5.22701 48.1149C-8.02248 41.5073 -7.25512 33.0494 -4.40963 25.8382C-1.56414 18.6269 -1.87626 8.30658 3.99619 5.18981C9.86865 2.07303 22.2201 3.1757 27.3717 6.15265C33.7589 9.84357 34.3441 18.2022 40.4152 21.1943C46.4863 24.1405 57.3958 25.2081 60.717 30.4246C64.0383 35.6411 63.2654 39.8866 59.431 45.2868C55.6424 50.6411 48.9898 53.3708 43.4842 57.0519C37.9392 60.7723 33.4954 65.3983 28.1818 66.7303C22.8682 68.0623 16.6389 66.1135 10.3255 62.7802Z" fill="#E1F4FE"/>
<g style="mix-blend-mode:overlay" opacity="0.8">
<path d="M35.6321 25.1042C39.0839 28.3042 42.3482 32.4347 43.0338 37.097C43.6865 41.7818 41.7547 47.0371 38.7121 51.1438C35.6696 55.2505 34.1073 61.8759 29.8358 62.8586C25.5643 63.8414 17.8869 61.0316 15.1142 58.2568C11.6766 54.8165 12.7301 49.3937 9.37456 46.4524C6.01111 43.5403 -0.754071 40.9989 -1.97897 37.1102C-3.20388 33.2215 -1.98729 30.6498 1.37602 27.8651C4.70223 25.1019 9.40451 24.4988 13.5387 23.094C17.7047 21.671 21.3239 19.4833 24.935 19.5418C28.546 19.6002 32.1804 21.9042 35.6321 25.1042Z" fill="#002E6D"/>
</g>
<path opacity="0.8" d="M27.7334 45.6139C26.6879 50.2032 24.7429 55.0954 21.0481 58.0204C17.3173 60.928 11.8002 61.8826 6.7224 61.301C1.64463 60.7194 -4.87426 62.6792 -7.86112 59.4714C-10.848 56.2635 -12.2534 48.2098 -11.2366 44.4212C-9.97607 39.7239 -4.75302 37.9249 -3.88352 33.5482C-3.04329 29.1794 -4.22495 22.0498 -1.46971 19.0447C1.28552 16.0396 4.121 15.8073 8.21425 17.3277C12.2704 18.8266 15.1438 22.5974 18.4275 25.4753C21.7429 28.3716 25.447 30.4122 27.2019 33.5687C28.9569 36.7252 28.7788 41.0246 27.7334 45.6139Z" fill="#BCEBFF"/>
<path d="M6.84644 54.9306C6.84644 54.9306 5.29896 66.0371 6.37778 72.4569C7.45659 78.8767 7.63344 83.8463 7.57154 86.4638C7.51849 88.9574 7.87221 101.779 8.64152 105.069C8.70342 105.325 8.92448 105.502 9.18092 105.529C10.1271 105.599 12.497 105.67 14.3716 104.954C14.6634 104.839 14.858 104.556 14.8491 104.247C14.7784 101.523 14.46 88.5065 14.6634 87.5426C14.8933 86.4726 14.7165 85.9951 14.7165 85.1639C14.7165 84.3327 14.9464 67.2839 15.1144 67.2839C15.2824 67.2839 15.6803 67.2839 15.7422 67.6376C15.8041 67.9913 15.9102 84.987 15.9102 85.4646C15.9102 85.9421 16.1402 87.6664 16.1402 88.4357C16.1402 89.1078 16.0075 100.709 15.981 103.716C15.9722 104.14 16.264 104.503 16.6707 104.6C17.7938 104.866 20.1371 105.679 21.6403 105.334C22.0206 105.246 22.2947 104.919 22.3035 104.529C22.3743 102.911 22.613 97.9947 23.1259 93.8386C23.7538 88.7894 23.0552 85.9951 23.1701 85.4646C23.2851 84.934 23.3824 83.5457 23.2144 83.4219C23.0463 83.3069 25.3366 73.6507 25.6992 70.8829C27.2908 58.733 23.7007 54.6211 23.7007 54.6211C23.7007 54.6211 23.515 55.0013 15.6273 55.1782C7.73957 55.3285 6.84644 54.9306 6.84644 54.9306Z" fill="#558AF0"/>
<path d="M7.81915 52.7197L7.51851 52.7905C6.86415 54.5679 4.88337 63.2603 6.29821 72.5009C7.42124 79.8581 7.55386 83.9434 7.50081 86.5609C7.44775 89.0634 7.98717 101.682 8.65921 105.007C8.8007 105.732 9.81762 105.59 9.81762 105.59C9.81762 105.59 8.43815 92.0345 8.65921 87.9757C8.88028 83.9169 8.67689 78.1868 7.63345 71.3072C6.79339 65.7628 8.23477 56.5398 9.02178 53.2591C7.98718 53.0027 8.03138 52.932 7.81915 52.7197Z" fill="#EBF4FF"/>
<path d="M21.2955 53.79C22.0118 55.3552 24.0545 60.148 24.2313 64.4986C24.4524 69.7865 21.1894 81.3175 21.7642 83.705C22.3478 86.0925 21.5431 99.8695 21.0391 102.841C20.5439 105.741 21.269 105.334 21.3309 105.379C21.3309 105.379 22.3832 105.228 22.3478 104.432C22.2771 102.814 22.6485 98.1275 23.1702 93.9537C23.798 88.878 23.0995 86.0749 23.2144 85.5443C23.3294 85.0049 23.4266 83.6166 23.2586 83.4928C23.0906 83.3778 25.3897 73.6773 25.7523 70.9007C27.1583 60.0595 23.4797 53.8785 23.3205 53.6309C23.3028 53.6485 23.0729 53.7104 21.2955 53.79Z" fill="#EBF4FF"/>
<path d="M23.3116 53.6221C23.3116 53.6221 23.3117 53.6221 23.3205 53.6309C23.3293 53.6221 23.3116 53.6221 23.3116 53.6221Z" fill="#EBF4FF"/>
<path d="M6.84648 54.5146C6.84648 54.5146 5.40511 66.5142 6.28938 72.3681C7.26208 78.8056 7.63348 83.6691 7.57158 86.2866C7.51852 88.7537 7.82802 100.948 8.59734 104.936C8.66808 105.298 8.97758 105.573 9.34897 105.59C10.4189 105.643 12.6738 105.643 14.4601 104.927C14.6988 104.83 14.8491 104.591 14.8403 104.335C14.7784 101.797 14.4601 88.5061 14.6634 87.5423C14.8934 86.4723 14.7165 85.9948 14.7165 85.1636C14.7165 84.3324 14.9464 67.2836 15.1144 67.2836C15.2824 67.2836 15.6804 67.2836 15.7423 67.6373C15.8042 67.991 15.9103 84.9867 15.9103 85.4642C15.9103 85.9417 16.1402 87.6661 16.1402 88.4354C16.1402 89.1074 16.0076 100.824 15.981 103.76C15.9722 104.158 16.2375 104.52 16.6177 104.644C17.7319 105.007 20.0575 105.652 21.5873 105.387C22.0206 105.307 22.3478 104.927 22.3566 104.485C22.4097 102.778 22.6042 98.0209 23.0994 93.9532C23.7273 88.904 23.0817 85.9771 23.1967 85.4465C23.3116 84.916 23.4354 83.4392 23.2674 83.3154C23.0994 83.1916 25.3808 73.4116 25.7611 70.6526C27.2201 60.1033 24.0014 55.0187 24.0014 55.0187C24.0014 55.0187 23.5327 54.9745 15.6361 55.1602C7.73958 55.3282 6.84648 54.5146 6.84648 54.5146Z" stroke="#1148B7" stroke-width="0.205417" stroke-miterlimit="10" stroke-linecap="round"/>
<path d="M16.1754 13.8999C16.1754 13.8999 12.6472 13.6081 10.4807 16.9684C8.3054 20.3286 9.84402 23.5562 8.95974 25.6077C8.102 27.5973 7.24426 28.4728 7.24426 28.4728C7.24426 28.4728 12.1874 30.6392 15.1674 30.2236C18.1385 29.808 17.4576 30.2944 17.4576 30.2944C17.4576 30.2944 22.7633 29.4543 25.6283 27.9864C25.6283 27.9864 23.621 24.7235 23.4972 22.0353C23.3734 19.3382 22.2769 16.1195 20.4288 15.1556" fill="#002E6D"/>
<path d="M14.1416 28.2607L13.8321 30.3476L12.1255 30.6748C12.1255 30.6748 11.648 34.4683 15.079 34.8486C18.5099 35.2288 20.641 30.7544 20.641 30.7544L18.448 30.5068L18.5453 28.8444" fill="#FBC6B6"/>
<path d="M15.0789 13.803C15.0789 13.803 15.5741 13.2459 15.1143 12.2821C14.6545 11.3182 13.3457 10.6638 12.0105 11.5835C10.4188 12.6888 9.58759 12.4501 9.58759 12.4501C9.58759 12.4501 10.1005 15.041 12.8417 14.8376" fill="#002E6D"/>
<path d="M12.9125 15.0584C12.9125 15.0584 12.6737 14.2979 12.8859 13.9442C13.107 13.5905 15.3177 12.3967 16.255 14.0857" fill="#F89E1C"/>
<path d="M16.2108 29.1537H16.1666C13.3193 28.968 11.144 26.4832 11.3385 23.6359L11.6568 18.8519C11.8425 16.0046 14.3274 13.8293 17.1747 14.0238H17.2189C20.0663 14.2095 22.2416 16.6943 22.0471 19.5417L21.7287 24.3256C21.543 27.173 19.0582 29.3394 16.2108 29.1537Z" fill="#FAC8BB"/>
<path d="M16.9978 22.2917C17.4488 22.778 18.0059 23.6004 17.3604 24.2724C17.2543 24.3786 17.0774 24.3255 17.0421 24.1752L16.6795 22.4597C16.6441 22.274 16.8652 22.159 16.9978 22.2917Z" fill="#FF8D76"/>
<path d="M12.8548 23.1667C12.9159 21.8935 12.2338 20.8262 11.3313 20.7829C10.4288 20.7397 9.64766 21.7368 9.58661 23.01C9.52556 24.2833 10.2077 25.3505 11.1102 25.3938C12.0127 25.4371 12.7938 24.44 12.8548 23.1667Z" fill="#FAC8BB"/>
<path d="M10.9671 24.2902C10.9671 24.2902 10.1624 24.2194 10.1801 22.8223" stroke="#FF7F66" stroke-width="0.248003" stroke-miterlimit="10" stroke-linecap="round" stroke-linejoin="round"/>
<path d="M23.4264 23.2964C23.5467 22.0275 22.9151 20.9297 22.0157 20.8444C21.1163 20.7591 20.2896 21.7187 20.1693 22.9876C20.049 24.2565 20.6805 25.3543 21.58 25.4396C22.4794 25.5249 23.306 24.5653 23.4264 23.2964Z" fill="#FAC8BB"/>
<path d="M21.879 24.3431C21.879 24.3431 22.6837 24.3873 22.8694 22.999" stroke="#FF7F66" stroke-width="0.248003" stroke-miterlimit="10" stroke-linecap="round" stroke-linejoin="round"/>
<path d="M13.8498 21.5674L14.4069 21.7973" stroke="#002E6D" stroke-width="0.422143" stroke-miterlimit="10" stroke-linecap="round"/>
<path d="M14.5361 23.2268C14.9306 23.1978 15.2223 22.7913 15.1876 22.3189C15.1529 21.8464 14.805 21.4869 14.4104 21.5159C14.0159 21.5449 13.7242 21.9513 13.7589 22.4238C13.7936 22.8962 14.1416 23.2557 14.5361 23.2268Z" fill="white"/>
<path d="M14.5422 23.0596C14.8636 23.036 15.1013 22.705 15.0731 22.3202C15.0448 21.9354 14.7613 21.6426 14.4398 21.6662C14.1184 21.6898 13.8807 22.0209 13.9089 22.4057C13.9372 22.7904 14.2207 23.0832 14.5422 23.0596Z" fill="#002E6D"/>
<path d="M19.7126 21.4521L19.1732 21.7174" stroke="#002E6D" stroke-width="0.422143" stroke-miterlimit="10" stroke-linecap="round"/>
<path d="M19.1466 23.1676C19.5422 23.1676 19.8629 22.7836 19.8629 22.3099C19.8629 21.8362 19.5422 21.4521 19.1466 21.4521C18.751 21.4521 18.4304 21.8362 18.4304 22.3099C18.4304 22.7836 18.751 23.1676 19.1466 23.1676Z" fill="white"/>
<path d="M19.1201 22.9997C19.4425 22.9997 19.7037 22.6869 19.7037 22.3011C19.7037 21.9153 19.4425 21.6025 19.1201 21.6025C18.7978 21.6025 18.5365 21.9153 18.5365 22.3011C18.5365 22.6869 18.7978 22.9997 19.1201 22.9997Z" fill="#002E6D"/>
<path d="M13.5138 20.2052C14.0001 19.9664 14.8048 19.6923 15.3088 20.1698C15.3707 20.2317 15.3177 20.3202 15.2116 20.3113C14.9286 20.2759 14.4069 20.2583 13.5934 20.3644C13.4784 20.3821 13.4165 20.2583 13.5138 20.2052Z" fill="#002E6D"/>
<path d="M20.1812 20.5148C19.7302 20.2142 18.9698 19.8339 18.4038 20.2407C18.3331 20.2938 18.3773 20.391 18.4834 20.391C18.7664 20.391 19.2881 20.4441 20.0751 20.6563C20.1989 20.6917 20.2785 20.5767 20.1812 20.5148Z" fill="#002E6D"/>
<path d="M10.6576 18.9492C10.1359 20.4967 11.6303 22.7516 11.6303 22.7516L13.275 20.0015L10.6576 18.9492Z" fill="#002E6D"/>
<path d="M21.7729 22.1856C21.7729 22.1856 24.0101 15.0937 18.0147 13.9972C13.3016 13.1306 11.5595 15.3413 11.1351 16.2875C10.0563 18.6662 10.2331 20.3286 10.3039 20.9388C10.3039 20.9741 12.5057 21.2041 12.5057 21.2041L14.5484 17.8615L21.7729 22.1856Z" fill="#002E6D"/>
<path d="M14.8225 18.0478L13.5138 17.252L14.4777 18.9586" fill="#FAC8BB"/>
<path d="M17.0597 29.1011C17.0597 29.1011 15.1851 29.6405 13.2131 28.0488" stroke="#FF7F66" stroke-width="0.248003" stroke-miterlimit="10" stroke-linecap="round" stroke-linejoin="round"/>
<path d="M17.7495 25.2724L14.9109 25.1221C14.8314 25.1221 14.7606 25.184 14.7606 25.2636C14.7783 25.7411 14.9905 27.1736 17.042 27.209C17.1128 27.209 17.1658 27.1647 17.1835 27.094L17.4577 25.6349C17.4665 25.5907 17.5019 25.5465 17.5461 25.5288L17.776 25.4404C17.8733 25.4139 17.8467 25.2812 17.7495 25.2724Z" fill="#E86752"/>
<path d="M12.2052 32.1787C12.2052 32.1787 14.0267 34.8581 21.0832 32.3025C21.0832 32.3025 28.1397 48.9711 28.2635 54.0822C28.3873 59.1933 6.48389 57.4866 6.48389 57.4866L12.2052 32.1787Z" fill="#EBF4FF"/>
<path d="M11.9664 34.3623C11.9664 34.3623 14.8845 35.9452 20.2432 34.3623" stroke="#191708" stroke-width="0.205417" stroke-miterlimit="10" stroke-linecap="round"/>
<path d="M12.214 32.1787C12.214 32.1787 14.0356 34.8581 21.0921 32.3025C21.0921 32.3025 28.1486 48.9711 28.2724 54.0822C28.3962 59.1933 6.49274 57.4866 6.49274 57.4866L12.214 32.1787Z" stroke="#191708" stroke-width="0.205417" stroke-miterlimit="10" stroke-linecap="round"/>
<path d="M4.76835 32.6995C2.38966 35.1844 -0.475379 49.0321 -1.7222 55.0274C-2.96903 61.0228 -3.56151 60.8636 -2.99557 62.5615C-2.57996 63.8171 -0.546125 64.5157 1.25779 64.613C2.23934 64.666 3.12361 64.0205 3.36237 63.0655L3.40658 62.9152C3.40658 62.9152 4.07862 70.1927 5.21049 70.8648C5.21049 70.8648 11.1174 70.1927 13.6022 68.4949C16.087 66.7971 14.3804 33.911 13.1336 30.1794C13.1336 30.1705 7.13821 30.2147 4.76835 32.6995Z" fill="#F89E1C"/>
<path d="M26.8752 32.6204C29.2539 35.1052 32.119 48.9529 33.3658 54.9483C34.6126 60.9437 35.2051 60.7845 34.6392 62.4823C34.2236 63.738 32.1897 64.4366 30.3858 64.5338C29.4043 64.5869 28.52 63.9414 28.2812 62.9863L28.237 62.836C28.237 62.836 28.069 69.2824 26.9371 69.9633C26.9371 69.9633 20.7914 69.7776 18.2978 68.0798C15.813 66.382 17.7849 34.1502 19.0318 30.4186C19.0229 30.4009 24.4966 30.1268 26.8752 32.6204Z" fill="#F89E1C"/>
<path d="M3.36243 63.0662L6.35125 49.1035" stroke="#D57E02" stroke-width="0.218592" stroke-miterlimit="10" stroke-linecap="round"/>
<path d="M28.2282 62.8269L26.4684 54.3379" stroke="#D57E02" stroke-width="0.218592" stroke-miterlimit="10" stroke-linecap="round"/>
<path d="M21.6049 31.6035C21.6049 31.6035 21.7199 41.5604 21.7199 43.0283C21.7199 44.4962 18.3243 49.7046 18.3243 56.036" stroke="#D57E02" stroke-width="0.218592" stroke-miterlimit="10" stroke-linecap="round"/>
<path d="M25.4693 41.4102C25.4693 41.4102 23.8864 43.7889 24.5673 45.8227" stroke="#D57E02" stroke-width="0.218592" stroke-miterlimit="10" stroke-linecap="round"/>
<path d="M25.6991 44.0186C25.6991 44.0186 24.1163 45.2654 25.2482 48.7671" stroke="#D57E02" stroke-width="0.218592" stroke-miterlimit="10" stroke-linecap="round"/>
<path d="M6.12134 41.1895C6.12134 41.1895 7.58922 42.6573 7.48311 44.2402" stroke="#D57E02" stroke-width="0.218592" stroke-miterlimit="10" stroke-linecap="round"/>
<path d="M33.3569 55.028C32.1101 49.0326 29.2008 35.0434 26.8221 32.5497C25.6018 31.2675 23.4531 30.79 21.6226 30.4717L21.6933 32.5055C22.6395 32.7443 24.3727 33.151 25.1597 33.602C26.3535 34.2829 27.9894 40.6143 27.9894 40.6143L32.7821 62.7919L33.1093 63.9768C33.8521 63.6319 34.4269 63.1633 34.6303 62.5531C35.1962 60.8553 34.6037 61.0233 33.3569 55.028Z" fill="#EBF4FF"/>
<path d="M4.76835 32.6999C2.38966 35.1847 -0.475378 49.0325 -1.7222 55.0278C-2.96903 61.0232 -3.56151 60.864 -2.99557 62.5618C-2.79219 63.1632 -2.21741 63.6407 -1.47462 63.9855L-1.42156 63.2604C-1.42156 63.2604 2.04478 46.0967 3.47731 40.4462C3.9106 38.7218 5.25471 34.2209 6.45732 33.5488C7.5892 32.9122 10.6399 32.7176 10.6399 32.7176L11.1174 30.3301C9.1632 30.5423 6.25393 31.1436 4.76835 32.6999Z" fill="#EBF4FF"/>
<path d="M10.7638 32.1338C10.7638 32.1338 9.86185 38.5801 10.0829 41.0738C10.3128 43.5586 12.6827 46.7331 12.6827 52.2775" stroke="#D57E02" stroke-width="0.218592" stroke-miterlimit="10" stroke-linecap="round"/>
<g style="mix-blend-mode:overlay">
<path d="M23.2273 13.5257C23.8422 13.5257 24.3409 14.0245 24.3409 14.6394C24.3409 14.0245 24.8397 13.5257 25.4546 13.5257C24.8397 13.5257 24.3409 13.027 24.3409 12.4121C24.3409 13.027 23.8422 13.5257 23.2273 13.5257Z" fill="#002E6D"/>
</g>
<g style="mix-blend-mode:overlay">
<path d="M22.2727 31.6625C22.8876 31.6625 23.3863 32.1612 23.3863 32.7761C23.3863 32.1612 23.8851 31.6625 24.5 31.6625C23.8851 31.6625 23.3863 31.1637 23.3863 30.5488C23.3863 31.1637 22.8876 31.6625 22.2727 31.6625Z" fill="#002E6D"/>
</g>
<g style="mix-blend-mode:overlay">
<path d="M18.4545 9.70792C20.4733 9.70792 22.1136 11.3482 22.1136 13.367C22.1136 11.3482 23.7539 9.70792 25.7727 9.70792C23.7539 9.70792 22.1136 8.06764 22.1136 6.04883C22.1136 8.06764 20.4733 9.70792 18.4545 9.70792Z" fill="#002E6D"/>
</g>
<g style="mix-blend-mode:overlay">
<path d="M45.1818 41.2075C46.674 41.2075 47.8864 42.4199 47.8864 43.912C47.8864 42.4199 49.0988 41.2075 50.5909 41.2075C49.0988 41.2075 47.8864 39.9951 47.8864 38.5029C47.8864 39.9951 46.674 41.2075 45.1818 41.2075Z" fill="#002E6D"/>
</g>
<g style="mix-blend-mode:overlay">
<path d="M44.2273 45.185C44.7539 45.185 45.1818 45.6129 45.1818 46.1396C45.1818 45.6129 45.6097 45.185 46.1364 45.185C45.6097 45.185 45.1818 44.7571 45.1818 44.2305C45.1818 44.7571 44.7539 45.185 44.2273 45.185Z" fill="#002E6D"/>
</g>
<g clip-path="url(#clip1_12159_680756)">
<path d="M34.726 21.2872C34.2213 21.2872 33.8102 20.8692 33.8102 20.356C33.8102 19.8428 34.2213 19.4248 34.726 19.4248H47.1874V21.2872H34.726Z" fill="#E0EBFC"/>
<path d="M47.1874 21.2872H34.7575C34.2921 21.2872 33.8771 20.9477 33.8173 20.4785C33.7456 19.9108 34.1803 19.4248 34.7252 19.4248H47.7244C48.0212 19.4248 48.2622 19.1798 48.2622 18.8779C48.2622 18.5761 48.0212 18.3311 47.7244 18.3311H34.7252C33.626 18.3311 32.7346 19.2374 32.7346 20.3552C32.7346 21.4729 33.626 22.3801 34.7252 22.3801H47.7244C48.0212 22.3801 48.2622 22.1351 48.2622 21.8332C48.2622 21.5314 48.0212 21.2864 47.7244 21.2864H47.1866L47.1874 21.2872Z" fill="#F9A7A7"/>
<path d="M47.1874 21.4473H34.726C34.1339 21.4473 33.6528 20.9581 33.6528 20.356C33.6528 19.7539 34.1339 19.2646 34.726 19.2646H47.1874C47.274 19.2646 47.3449 19.3367 47.3449 19.4248V21.2872C47.3449 21.3752 47.274 21.4473 47.1874 21.4473ZM34.726 19.5849C34.3079 19.5849 33.9677 19.9308 33.9677 20.356C33.9677 20.7811 34.3079 21.127 34.726 21.127H47.0299V19.5849H34.726Z" fill="#3762CC"/>
<path d="M47.7244 22.541H34.726C33.5417 22.541 32.5771 21.561 32.5771 20.3559C32.5771 19.1509 33.5409 18.1709 34.726 18.1709H47.7244C48.1079 18.1709 48.4197 18.488 48.4197 18.8779C48.4197 19.2678 48.1079 19.5849 47.7244 19.5849H34.726C34.5086 19.5849 34.3008 19.6802 34.1567 19.8475C34.0102 20.0165 33.9457 20.2334 33.974 20.4584C34.022 20.8396 34.359 21.127 34.7575 21.127H47.7244C48.1079 21.127 48.4197 21.4441 48.4197 21.834C48.4197 22.2239 48.1079 22.541 47.7244 22.541ZM34.726 18.492C33.7149 18.492 32.8921 19.3287 32.8921 20.3559C32.8921 21.3832 33.7149 22.2207 34.726 22.2207H47.7244C47.9338 22.2207 48.1047 22.047 48.1047 21.834C48.1047 21.621 47.9338 21.4473 47.7244 21.4473H34.7575C34.2008 21.4473 33.7299 21.0397 33.6614 20.4993C33.622 20.1862 33.7157 19.8715 33.9197 19.6361C34.1236 19.3999 34.4173 19.2654 34.7252 19.2654H47.7244C47.9338 19.2654 48.1047 19.0917 48.1047 18.8787C48.1047 18.6657 47.9338 18.492 47.7244 18.492H34.726Z" fill="#3762CC"/>
<path d="M35.6181 14.6504H45.3787V17.8875C45.3787 18.1325 45.1827 18.3319 44.9417 18.3319H36.0551C35.8142 18.3319 35.6181 18.1325 35.6181 17.8875V14.6504Z" fill="#0052A3"/>
<path d="M48.2646 13.4814H32.7323C32.4148 13.4814 32.1575 13.7431 32.1575 14.0659C32.1575 14.3887 32.4148 14.6504 32.7323 14.6504H48.2646C48.582 14.6504 48.8394 14.3887 48.8394 14.0659C48.8394 13.7431 48.582 13.4814 48.2646 13.4814Z" fill="#0052A3"/>
<path d="M47.3008 18.492C47.2142 18.492 47.1433 18.42 47.1433 18.3319V14.6504C47.1433 14.5623 47.2142 14.4902 47.3008 14.4902C47.3874 14.4902 47.4583 14.5623 47.4583 14.6504V18.3319C47.4583 18.42 47.3874 18.492 47.3008 18.492Z" fill="#3762CC"/>
<path d="M47.3008 17.8535C47.5008 17.8535 47.6622 18.0185 47.6622 18.221V18.9793H46.9386V18.221C46.9386 18.0177 47.1008 17.8535 47.3 17.8535H47.3008Z" fill="#A4C9FF"/>
<path d="M47.663 19.1404H46.9393C46.8527 19.1404 46.7819 19.0683 46.7819 18.9802V18.222C46.7819 17.9305 47.0149 17.6943 47.3008 17.6943C47.5866 17.6943 47.8197 17.9313 47.8197 18.222V18.9802C47.8197 19.0683 47.7488 19.1404 47.6622 19.1404H47.663ZM47.0968 18.8201H47.5055V18.222C47.5055 18.1075 47.4141 18.0146 47.3015 18.0146C47.1889 18.0146 47.0976 18.1075 47.0976 18.222V18.8201H47.0968Z" fill="#3762CC"/>
<path d="M34.726 25.336C34.2213 25.336 33.8102 24.9181 33.8102 24.4048C33.8102 23.8916 34.2213 23.4736 34.726 23.4736H47.1874V25.336H34.726Z" fill="#E0EBFC"/>
<path d="M47.1874 25.336H34.7575C34.2921 25.336 33.8771 24.9965 33.8173 24.5273C33.7456 23.9596 34.1803 23.4736 34.7252 23.4736H47.7244C48.0212 23.4736 48.2622 23.2286 48.2622 22.9267C48.2622 22.6249 48.0212 22.3799 47.7244 22.3799H34.7252C33.626 22.3799 32.7346 23.2862 32.7346 24.404C32.7346 25.5217 33.626 26.4289 34.7252 26.4289H47.7244C48.0212 26.4289 48.2622 26.1839 48.2622 25.882C48.2622 25.5802 48.0212 25.3352 47.7244 25.3352H47.1866L47.1874 25.336Z" fill="#A4C9FF"/>
<path d="M47.1874 25.4961H34.726C34.1339 25.4961 33.6528 25.0069 33.6528 24.4048C33.6528 23.8027 34.1339 23.3135 34.726 23.3135H47.1874C47.274 23.3135 47.3449 23.3855 47.3449 23.4736V25.336C47.3449 25.4241 47.274 25.4961 47.1874 25.4961ZM34.726 23.6337C34.3079 23.6337 33.9677 23.9796 33.9677 24.4048C33.9677 24.83 34.3079 25.1758 34.726 25.1758H47.0299V23.6337H34.726Z" fill="#3762CC"/>
<path d="M47.7244 26.59H34.726C33.5417 26.59 32.5771 25.61 32.5771 24.4057C32.5771 23.2015 33.5409 22.2207 34.726 22.2207H47.7244C48.1079 22.2207 48.4197 22.5378 48.4197 22.9277C48.4197 23.3176 48.1079 23.6347 47.7244 23.6347H34.726C34.5086 23.6347 34.3008 23.73 34.1567 23.8973C34.0102 24.0663 33.9457 24.2832 33.974 24.5082C34.022 24.8894 34.359 25.1768 34.7575 25.1768H47.7244C48.1079 25.1768 48.4197 25.4939 48.4197 25.8838C48.4197 26.2737 48.1079 26.5908 47.7244 26.5908V26.59ZM34.726 22.541C33.7149 22.541 32.8921 23.3777 32.8921 24.4049C32.8921 25.4322 33.7149 26.2697 34.726 26.2697H47.7244C47.9338 26.2697 48.1047 26.096 48.1047 25.883C48.1047 25.67 47.9338 25.4963 47.7244 25.4963H34.7575C34.2008 25.4963 33.7299 25.0887 33.6614 24.5475C33.622 24.2344 33.7157 23.9197 33.9197 23.6843C34.1236 23.4481 34.4173 23.3136 34.7252 23.3136H47.7244C47.9338 23.3136 48.1047 23.1399 48.1047 22.9269C48.1047 22.7139 47.9338 22.5402 47.7244 22.5402H34.726V22.541Z" fill="#3762CC"/>
<path d="M47.1874 20.5166H35.6181C35.5315 20.5166 35.4606 20.4445 35.4606 20.3564C35.4606 20.2683 35.5315 20.1963 35.6181 20.1963H47.1874C47.274 20.1963 47.3449 20.2683 47.3449 20.3564C47.3449 20.4445 47.274 20.5166 47.1874 20.5166Z" fill="#3762CC"/>
<path d="M47.1874 24.5654H35.6181C35.5315 24.5654 35.4606 24.4933 35.4606 24.4053C35.4606 24.3172 35.5315 24.2451 35.6181 24.2451H47.1874C47.274 24.2451 47.3449 24.3172 47.3449 24.4053C47.3449 24.4933 47.274 24.5654 47.1874 24.5654Z" fill="#3762CC"/>
<path d="M34.726 29.3848C34.2213 29.3848 33.8102 28.9669 33.8102 28.4536C33.8102 27.9404 34.2213 27.5225 34.726 27.5225H47.1874V29.3848H34.726Z" fill="#E0EBFC"/>
<path d="M47.1874 29.3848H34.7575C34.2921 29.3848 33.8771 29.0453 33.8173 28.5761C33.7456 28.0084 34.1803 27.5224 34.7252 27.5224H47.7244C48.0212 27.5224 48.2622 27.2774 48.2622 26.9756C48.2622 26.6737 48.0212 26.4287 47.7244 26.4287H34.7252C33.626 26.4287 32.7346 27.3351 32.7346 28.4528C32.7346 29.5706 33.626 30.4777 34.7252 30.4777H47.7244C48.0212 30.4777 48.2622 30.2327 48.2622 29.9309C48.2622 29.629 48.0212 29.384 47.7244 29.384H47.1866L47.1874 29.3848Z" fill="#6BDDDD"/>
<path d="M47.1874 29.5449H34.726C34.1339 29.5449 33.6528 29.0557 33.6528 28.4536C33.6528 27.8515 34.1339 27.3623 34.726 27.3623H47.1874C47.274 27.3623 47.3449 27.4344 47.3449 27.5224V29.3848C47.3449 29.4729 47.274 29.5449 47.1874 29.5449ZM34.726 27.6826C34.3079 27.6826 33.9677 28.0285 33.9677 28.4536C33.9677 28.8788 34.3079 29.2247 34.726 29.2247H47.0299V27.6826H34.726Z" fill="#3762CC"/>
<path d="M47.7244 30.6388H34.726C33.5417 30.6388 32.5771 29.6588 32.5771 28.4546C32.5771 27.2504 33.5409 26.2695 34.726 26.2695H47.7244C48.1079 26.2695 48.4197 26.5866 48.4197 26.9765C48.4197 27.3665 48.1079 27.6835 47.7244 27.6835H34.726C34.5086 27.6835 34.3008 27.7788 34.1567 27.9461C34.0102 28.1151 33.9457 28.3321 33.974 28.5571C34.022 28.9382 34.359 29.2256 34.7575 29.2256H47.7244C48.1079 29.2256 48.4197 29.5427 48.4197 29.9326C48.4197 30.3226 48.1079 30.6396 47.7244 30.6396V30.6388ZM34.726 26.5898C33.7149 26.5898 32.8921 27.4265 32.8921 28.4546C32.8921 29.4826 33.7149 30.3194 34.726 30.3194H47.7244C47.9338 30.3194 48.1047 30.1456 48.1047 29.9326C48.1047 29.7196 47.9338 29.5459 47.7244 29.5459H34.7575C34.2008 29.5459 33.7299 29.1384 33.6614 28.5971C33.622 28.284 33.7157 27.9694 33.9197 27.734C34.1236 27.4978 34.4173 27.3633 34.7252 27.3633H47.7244C47.9338 27.3633 48.1047 27.1895 48.1047 26.9765C48.1047 26.7635 47.9338 26.5898 47.7244 26.5898H34.726Z" fill="#3762CC"/>
<path d="M47.1874 28.6142H35.6181C35.5315 28.6142 35.4606 28.5422 35.4606 28.4541C35.4606 28.366 35.5315 28.2939 35.6181 28.2939H47.1874C47.274 28.2939 47.3449 28.366 47.3449 28.4541C47.3449 28.5422 47.274 28.6142 47.1874 28.6142Z" fill="#3762CC"/>
<path d="M51.4866 18.9805H43.1149C42.9184 18.9805 42.759 19.1425 42.759 19.3424V30.7992C42.759 30.9991 42.9184 31.1612 43.1149 31.1612H51.4866C51.6832 31.1612 51.8425 30.9991 51.8425 30.7992V19.3424C51.8425 19.1425 51.6832 18.9805 51.4866 18.9805Z" fill="#E0EBFC"/>
<path d="M44.9331 20.1436H44.1173C44.0303 20.1436 43.9598 20.2152 43.9598 20.3037V21.1332C43.9598 21.2216 44.0303 21.2933 44.1173 21.2933H44.9331C45.02 21.2933 45.0905 21.2216 45.0905 21.1332V20.3037C45.0905 20.2152 45.02 20.1436 44.9331 20.1436Z" fill="#A4C9FF"/>
<path d="M50.6418 20.9989H46.2307C46.0788 20.9989 45.9551 20.8732 45.9551 20.7187C45.9551 20.5642 46.0788 20.4385 46.2307 20.4385H50.6418C50.7937 20.4385 50.9173 20.5642 50.9173 20.7187C50.9173 20.8732 50.7937 20.9989 50.6418 20.9989Z" fill="#4671C6"/>
<path d="M44.9331 22.4531H44.1173C44.0303 22.4531 43.9598 22.5248 43.9598 22.6133V23.4428C43.9598 23.5312 44.0303 23.6029 44.1173 23.6029H44.9331C45.02 23.6029 45.0905 23.5312 45.0905 23.4428V22.6133C45.0905 22.5248 45.02 22.4531 44.9331 22.4531Z" fill="#A4C9FF"/>
<path d="M50.6418 23.3085H46.2307C46.0788 23.3085 45.9551 23.1828 45.9551 23.0283C45.9551 22.8738 46.0788 22.748 46.2307 22.748H50.6418C50.7937 22.748 50.9173 22.8738 50.9173 23.0283C50.9173 23.1828 50.7937 23.3085 50.6418 23.3085Z" fill="#4671C6"/>
<path d="M44.9331 24.585H44.1173C44.0303 24.585 43.9598 24.6567 43.9598 24.7451V25.5746C43.9598 25.663 44.0303 25.7347 44.1173 25.7347H44.9331C45.02 25.7347 45.0905 25.663 45.0905 25.5746V24.7451C45.0905 24.6567 45.02 24.585 44.9331 24.585Z" fill="#A4C9FF"/>
<path d="M50.6418 25.4394H46.2307C46.0788 25.4394 45.9551 25.3137 45.9551 25.1591C45.9551 25.0046 46.0788 24.8789 46.2307 24.8789H50.6418C50.7937 24.8789 50.9173 25.0046 50.9173 25.1591C50.9173 25.3137 50.7937 25.4394 50.6418 25.4394Z" fill="#4671C6"/>
<path d="M44.9331 26.7168H44.1173C44.0303 26.7168 43.9598 26.7885 43.9598 26.8769V27.7064C43.9598 27.7949 44.0303 27.8666 44.1173 27.8666H44.9331C45.02 27.8666 45.0905 27.7949 45.0905 27.7064V26.8769C45.0905 26.7885 45.02 26.7168 44.9331 26.7168Z" fill="#A4C9FF"/>
<path d="M50.6418 27.5722H46.2307C46.0788 27.5722 45.9551 27.4465 45.9551 27.292C45.9551 27.1374 46.0788 27.0117 46.2307 27.0117H50.6418C50.7937 27.0117 50.9173 27.1374 50.9173 27.292C50.9173 27.4465 50.7937 27.5722 50.6418 27.5722Z" fill="#4671C6"/>
<path d="M44.9331 28.8477H44.1173C44.0303 28.8477 43.9598 28.9194 43.9598 29.0078V29.8373C43.9598 29.9257 44.0303 29.9974 44.1173 29.9974H44.9331C45.02 29.9974 45.0905 29.9257 45.0905 29.8373V29.0078C45.0905 28.9194 45.02 28.8477 44.9331 28.8477Z" fill="#A4C9FF"/>
<path d="M50.6418 29.7031H46.2307C46.0788 29.7031 45.9551 29.5773 45.9551 29.4228C45.9551 29.2683 46.0788 29.1426 46.2307 29.1426H50.6418C50.7937 29.1426 50.9173 29.2683 50.9173 29.4228C50.9173 29.5773 50.7937 29.7031 50.6418 29.7031Z" fill="#4671C6"/>
<path d="M51.4866 31.3213H43.1149C42.8315 31.3213 42.6016 31.0867 42.6016 30.7992V19.3424C42.6016 19.0541 42.8323 18.8203 43.1149 18.8203H51.4866C51.7701 18.8203 52 19.0549 52 19.3424V30.7992C52 31.0875 51.7693 31.3213 51.4866 31.3213ZM43.1149 19.1406C43.0055 19.1406 42.9165 19.2311 42.9165 19.3424V30.7992C42.9165 30.9105 43.0055 31.001 43.1149 31.001H51.4866C51.596 31.001 51.685 30.9105 51.685 30.7992V19.3424C51.685 19.2311 51.596 19.1406 51.4866 19.1406H43.1149Z" fill="#3762CC"/>
<path d="M44.9331 21.4534H44.1173C43.9433 21.4534 43.8024 21.3101 43.8024 21.1332V20.3037C43.8024 20.1267 43.9433 19.9834 44.1173 19.9834H44.9331C45.1071 19.9834 45.248 20.1267 45.248 20.3037V21.1332C45.248 21.3101 45.1071 21.4534 44.9331 21.4534ZM44.1173 20.3037V21.1332H44.9331V20.3037H44.1173Z" fill="#3762CC"/>
<path d="M44.9331 23.763H44.1173C43.9433 23.763 43.8024 23.6197 43.8024 23.4427V22.6132C43.8024 22.4363 43.9433 22.293 44.1173 22.293H44.9331C45.1071 22.293 45.248 22.4363 45.248 22.6132V23.4427C45.248 23.6197 45.1071 23.763 44.9331 23.763ZM44.1173 22.6132V23.4427H44.9331V22.6132H44.1173Z" fill="#3762CC"/>
<path d="M44.9331 25.8939H44.1173C43.9433 25.8939 43.8024 25.7505 43.8024 25.5736V24.7441C43.8024 24.5671 43.9433 24.4238 44.1173 24.4238H44.9331C45.1071 24.4238 45.248 24.5671 45.248 24.7441V25.5736C45.248 25.7505 45.1071 25.8939 44.9331 25.8939ZM44.1173 24.7441V25.5736H44.9331V24.7441H44.1173Z" fill="#3762CC"/>
<path d="M44.9331 28.0267H44.1173C43.9433 28.0267 43.8024 27.8834 43.8024 27.7064V26.8769C43.8024 26.7 43.9433 26.5566 44.1173 26.5566H44.9331C45.1071 26.5566 45.248 26.7 45.248 26.8769V27.7064C45.248 27.8834 45.1071 28.0267 44.9331 28.0267ZM44.1173 26.8769V27.7064H44.9331V26.8769H44.1173Z" fill="#3762CC"/>
<path d="M44.9331 30.1575H44.1173C43.9433 30.1575 43.8024 30.0142 43.8024 29.8373V29.0078C43.8024 28.8308 43.9433 28.6875 44.1173 28.6875H44.9331C45.1071 28.6875 45.248 28.8308 45.248 29.0078V29.8373C45.248 30.0142 45.1071 30.1575 44.9331 30.1575ZM44.1173 29.0078V29.8373H44.9331V29.0078H44.1173Z" fill="#3762CC"/>
</g>
</g>
<defs>
<clipPath id="clip0_12159_680756">
<rect y="0.321289" width="56" height="56" rx="28" fill="white"/>
</clipPath>
<clipPath id="clip1_12159_680756">
<rect width="20" height="18" fill="white" transform="translate(32 13.3213)"/>
</clipPath>
</defs>
</svg>
