<svg width="56" height="57" viewBox="0 0 56 57" fill="none" xmlns="http://www.w3.org/2000/svg">
<g clip-path="url(#clip0_12159_680811)">
<path d="M11.2766 62.9618C4.96312 59.6285 -1.44104 54.8582 -4.2759 48.2965C-7.07137 41.689 -6.30401 33.231 -3.45852 26.0198C-0.613031 18.8086 -0.925149 8.48822 4.9473 5.37145C10.8198 2.25467 23.1712 3.35734 28.3228 6.33429C34.71 10.0252 35.2952 18.3839 41.3663 21.376C47.4374 24.3221 58.3469 25.3898 61.6681 30.6063C64.9894 35.8228 64.2165 40.0683 60.3821 45.4685C56.5936 50.8228 49.9409 53.5524 44.4353 57.2335C38.8903 60.9539 34.4465 65.5799 29.1329 66.9119C23.8193 68.2439 17.59 66.2951 11.2766 62.9618Z" fill="#E1F4FE"/>
<g style="mix-blend-mode:overlay" opacity="0.8">
<path d="M35.6321 25.1042C39.0839 28.3042 42.3482 32.4347 43.0338 37.097C43.6865 41.7818 41.7547 47.0371 38.7121 51.1438C35.6696 55.2505 34.1073 61.8759 29.8358 62.8586C25.5643 63.8414 17.8869 61.0316 15.1142 58.2568C11.6766 54.8165 12.7301 49.3937 9.37456 46.4524C6.01111 43.5403 -0.754071 40.9989 -1.97897 37.1102C-3.20388 33.2215 -1.98729 30.6498 1.37602 27.8651C4.70223 25.1019 9.40451 24.4988 13.5387 23.094C17.7047 21.671 21.3239 19.4833 24.935 19.5418C28.546 19.6002 32.1804 21.9042 35.6321 25.1042Z" fill="#002E6D"/>
</g>
<path opacity="0.8" d="M27.7334 45.6139C26.6879 50.2032 24.7429 55.0954 21.0481 58.0204C17.3173 60.928 11.8002 61.8826 6.7224 61.301C1.64463 60.7194 -4.87426 62.6792 -7.86112 59.4714C-10.848 56.2635 -12.2534 48.2098 -11.2366 44.4212C-9.97607 39.7239 -4.75302 37.9249 -3.88352 33.5482C-3.04329 29.1794 -4.22495 22.0498 -1.46971 19.0447C1.28552 16.0396 4.121 15.8073 8.21425 17.3277C12.2704 18.8266 15.1438 22.5974 18.4275 25.4753C21.7429 28.3716 25.447 30.4122 27.2019 33.5687C28.9569 36.7252 28.7788 41.0246 27.7334 45.6139Z" fill="#C3EDFF"/>
<path d="M40.6823 35.2186C39.9129 35.1036 39.8245 34.352 39.9395 33.9275C40.0279 33.6092 40.2401 32.8134 40.0279 32.7072C39.4177 32.4066 38.8606 33.8037 38.8606 33.8037C37.8349 36.2532 38.2063 37.4646 38.2063 37.4646L36.4996 39.1978L40.8414 41.5323L43.565 39.1094C43.9717 38.7468 44.3255 38.3224 44.6173 37.8449L45.8995 35.7403C46.1471 35.3601 46.262 34.9002 46.2178 34.4493L46.0144 32.5215C45.9702 32.0617 45.5723 31.7257 45.1213 31.7345L44.069 31.7699C43.8037 31.7788 43.5473 31.9026 43.3793 32.1059L40.6823 35.2186Z" fill="url(#paint0_linear_12159_680811)"/>
<path d="M45.8818 32.5029L42.4597 36.8447" stroke="#FF7F66" stroke-width="0.263938" stroke-miterlimit="10" stroke-linecap="round"/>
<path d="M46.041 34.0684L43.565 37.5347" stroke="#FF7F66" stroke-width="0.263938" stroke-miterlimit="10" stroke-linecap="round"/>
<path d="M44.5554 31.8584L41.5577 35.7404" stroke="#FF7F66" stroke-width="0.263938" stroke-miterlimit="10" stroke-linecap="round"/>
<path d="M15.7458 27.7548C15.7458 27.7548 17.0811 27.5779 18.2572 29.037C19.4332 30.496 20.6535 30.3545 20.6889 31.9109L14.9853 32.2557L13.8093 29.7621" fill="#EBF4FF"/>
<path d="M12.191 27.251C12.191 27.251 8.1941 27.0388 7.3452 28.4978C6.49629 29.9569 4.66584 29.2229 5.06377 31.6193L16.3029 33.6443" fill="#EBF4FF"/>
<path d="M24.6328 34.0596L31.7158 43.7512L37.3574 37.9415C37.3574 37.9415 38.7281 38.5782 39.409 39.0822C41.2306 40.4352 41.6727 41.7085 41.6727 41.7085C41.6727 41.7085 36.5262 47.8277 34.625 50.0207C33.3694 51.4621 30.9642 51.9573 29.5405 50.6574L24.1199 45.6524" fill="#2DBFE8"/>
<path d="M20.2998 60.8973C20.3705 60.9062 20.6005 76.0361 20.7066 82.8804C20.7419 85.0292 20.1848 87.1514 19.106 89.0084L4.04685 112.751L-2.57635 108.613L9.54703 84.6931L4.48899 60.2076L14.5078 51.5859L20.2998 60.8973Z" fill="#002E6D"/>
<path d="M7.16837 39.7813C7.16837 40.0378 5.64741 52.621 5.64741 52.621L12.1114 65.3545C11.4748 66.5571 10.281 67.6448 8.94576 68.7059C8.94576 68.7059 7.29216 67.3264 7.19489 64.4083C7.19489 64.4083 -0.144576 56.5471 -0.905051 54.4868C-1.65668 52.4176 0.421359 38.3223 0.421359 38.3223L7.16837 39.7813Z" fill="#FBC6B6"/>
<path d="M12.5447 33.0157L16.6478 32.6797L16.3294 27.374L12.2352 27.7189L12.5447 33.0157Z" fill="#FAC8BB"/>
<path d="M9.52057 29.9747C9.52057 29.9747 4.35641 29.9128 0.527501 34.2545C0.527501 34.2545 -1.44442 46.4487 -1.57706 52.5678C-1.60359 53.7616 -1.20567 54.9289 -0.436348 55.9016L6.58477 64.7531C6.58477 64.7531 9.65321 63.9219 10.6613 61.6405" fill="#2DBFE8"/>
<path d="M12.3679 60.2165C12.3679 60.2165 19.3625 61.5429 24.3852 59.6682C24.3852 59.6682 24.2525 36.3853 17.2049 29.3023C17.2049 29.3023 15.6043 29.1077 15.5071 30.8674C15.4894 31.1593 15.3744 31.513 15.2948 31.8048C15.2418 31.9905 14.9411 32.0258 14.8262 31.8578C14.5078 31.3626 13.9419 30.6552 13.208 30.4165C12.023 30.0362 10.396 29.7798 9.494 29.9832C8.59204 30.1777 7.57513 35.1385 7.57513 35.1385L12.3679 60.2165Z" fill="#EBF4FF"/>
<path d="M14.7997 44.1053C13.6501 37.5175 11.7224 32.1941 10.847 29.9746C5.5944 30.0365 3.63131 32.6982 3.63131 32.6982L3.57825 52.2406L4.81623 63.8688C4.81623 63.8688 3.88774 65.2306 3.88774 66.2298C3.88774 67.3086 4.54211 67.848 4.54211 67.848C5.58555 65.266 8.60092 64.7531 10.5905 64.1518C12.1115 63.692 13.5263 65.0979 15.3391 66.2917C15.8254 66.6101 16.5063 66.2829 16.4886 65.7346C16.2853 59.7835 15.8077 49.915 14.7997 44.1053Z" fill="#2DBFE8"/>
<path d="M26.5163 48.6767C26.5163 48.6767 25.8089 35.9255 24.677 34.0332C23.5452 32.1408 19.4775 31.0178 19.4775 31.0178L17.9565 30.8232C18.3191 31.9905 18.7789 33.4849 19.3625 35.3684C21.3875 41.9386 22.8996 55.7863 23.7308 63.6033C23.7662 63.9481 24.1465 64.1604 24.5002 64.0366C26.03 63.5148 27.1441 63.0373 27.1441 63.0373C27.1441 63.0373 27.4978 62.4006 27.4978 61.3837C27.4978 60.3757 26.5163 48.6767 26.5163 48.6767Z" fill="#2DBFE8"/>
<path d="M11.7578 61.0125L4.37408 51.3828" stroke="#0D94C9" stroke-width="0.233996" stroke-miterlimit="10" stroke-linecap="round"/>
<path d="M6.65547 37.9414L5.28485 52.6734" stroke="#0D94C9" stroke-width="0.233996" stroke-miterlimit="10" stroke-linecap="round"/>
<path d="M8.02612 39.374L6.4079 41.1956" stroke="#0D94C9" stroke-width="0.233996" stroke-miterlimit="10" stroke-linecap="round"/>
<path d="M24.5355 35.9873C25.5613 39.4979 26.587 50.4805 26.587 50.4805" stroke="#0D94C9" stroke-width="0.233996" stroke-miterlimit="10" stroke-linecap="round"/>
<path d="M5.00189 30.9913C5.00189 30.9913 7.85809 29.9479 10.5905 31.7164C13.3317 33.485 13.9596 34.9352 13.9596 34.9352L14.8438 33.4496C14.8438 33.4496 12.2087 28.9929 9.8477 28.4004" fill="#EBF4FF"/>
<path d="M17.4083 30.0186L18.1157 33.6883C18.4163 31.6368 19.8931 30.9824 19.8931 30.9824" fill="#EBF4FF"/>
<path d="M14.2426 41.2578C12.0496 41.4789 9.44979 41.6027 6.35484 41.5408L5.89502 46.8995C5.89502 46.8995 10.2987 47.6511 15.2506 47.2709C15.1091 46.1302 14.9588 45.0602 14.7908 44.1052C14.6316 43.1236 14.4371 42.1775 14.2426 41.2578Z" fill="#0D94C9"/>
<path d="M25.0041 37.5527C25.0041 37.5527 23.9961 39.0383 20.512 40.0906C20.8834 41.9122 21.2283 43.9283 21.5555 46.0329C23.2533 45.4228 24.6416 44.8303 25.8884 43.6277L25.0041 37.5527Z" fill="#0D94C9"/>
<path d="M1.46478 33.856C1.46478 33.856 3.63125 33.2812 4.83386 35.1647" stroke="#0D94C9" stroke-width="0.233996" stroke-miterlimit="10" stroke-linecap="round"/>
<path d="M13.0488 36.6504C13.0488 36.6504 15.958 45.9529 16.073 56.9622" stroke="#0D94C9" stroke-width="0.233996" stroke-miterlimit="10" stroke-linecap="round"/>
<path d="M13.1903 33.8207C13.1903 33.8207 9.09608 29.2844 4.99305 31.1148C4.99305 31.1148 4.88695 30.0537 5.76238 29.6558C6.63781 29.2578 6.75276 29.0014 7.59282 28.1171C8.43288 27.2417 10.8823 27.1621 10.8823 27.1621" stroke="#191708" stroke-width="0.211332" stroke-miterlimit="10" stroke-linecap="round" stroke-linejoin="round"/>
<path d="M16.3737 27.8691C16.3737 27.8691 17.2845 27.8868 18.0891 28.8772C18.8938 29.8676 20.4325 30.3805 20.6093 31.477L19.6543 31.0967C19.6543 31.0967 18.5932 31.698 18.1334 33.0687" stroke="#191708" stroke-width="0.211332" stroke-miterlimit="10" stroke-linecap="round" stroke-linejoin="round"/>
<path d="M10.8558 29.3896C10.8558 29.3896 10.9088 29.8848 11.8462 29.991C12.7746 30.0971 14.4106 30.3447 14.9942 32.2547" stroke="#191708" stroke-width="0.211332" stroke-miterlimit="10" stroke-linecap="round" stroke-linejoin="round"/>
<path d="M17.4701 20.2991C17.4701 20.2991 19.2917 18.3979 19.8488 20.2991C20.4059 22.2003 16.913 23.792 16.913 23.792" fill="#FF8D76"/>
<path d="M17.6824 16.0201L19.6631 15.6045C19.6631 15.6045 19.8931 17.8859 18.602 20.4326" fill="#002E6D"/>
<path d="M15.003 27.8686L14.2425 27.9482C11.351 28.24 8.71582 25.8525 8.38864 22.6337L8.12336 20.0163C7.84923 17.2662 9.64431 14.8079 12.1203 14.5603L13.6501 14.41C16.126 14.1624 18.3809 16.2051 18.6551 18.9551L19.0088 22.4127C19.274 25.1627 17.4701 27.621 15.003 27.8686Z" fill="#FAC8BB"/>
<path d="M15.4363 20.7058C16.0553 21.1745 16.86 22.0145 16.2322 22.9165C16.1349 23.058 15.9138 23.0314 15.8519 22.8723L15.1003 20.9622C15.0295 20.7589 15.2683 20.5732 15.4363 20.7058Z" fill="#FF8D76"/>
<path d="M17.0275 21.2627C17.4259 21.2225 17.7115 20.8196 17.6654 20.3629C17.6193 19.9061 17.2589 19.5685 16.8605 19.6088C16.462 19.649 16.1764 20.0519 16.2226 20.5086C16.2687 20.9653 16.6291 21.303 17.0275 21.2627Z" fill="white"/>
<path d="M16.893 21.2285C17.1991 21.1975 17.4186 20.8889 17.3832 20.539C17.3479 20.1892 17.0711 19.9307 16.765 19.9616C16.4589 19.9925 16.2394 20.3012 16.2747 20.651C16.3101 21.0008 16.5869 21.2594 16.893 21.2285Z" fill="#213469"/>
<path d="M13.1899 21.7305C13.5883 21.6903 13.8739 21.2874 13.8277 20.8306C13.7816 20.3739 13.4212 20.0363 13.0228 20.0765C12.6244 20.1168 12.3388 20.5197 12.3849 20.9764C12.4311 21.4331 12.7914 21.7707 13.1899 21.7305Z" fill="white"/>
<path d="M13.0553 21.6962C13.3614 21.6653 13.5809 21.3566 13.5456 21.0068C13.5103 20.657 13.2335 20.3984 12.9274 20.4294C12.6212 20.4603 12.4018 20.7689 12.4371 21.1188C12.4724 21.4686 12.7492 21.7271 13.0553 21.6962Z" fill="#213469"/>
<path d="M11.8461 18.3898C12.2352 18.2129 13.3229 17.8327 13.5616 18.4517C13.7473 18.9469 12.474 19.0441 11.9965 19.0264C11.5101 19.0176 11.3775 18.602 11.8461 18.3898Z" fill="#002E6D"/>
<path d="M17.9565 18.1776C17.5763 17.9831 16.5151 17.5409 16.241 18.1422C16.0288 18.6286 17.2933 18.7878 17.7797 18.8054C18.2572 18.8231 18.4075 18.4164 17.9565 18.1776Z" fill="#002E6D"/>
<path d="M10.6524 17.0187C10.6524 17.0187 15.2064 17.8588 18.5755 16.4793C18.5755 16.4793 19.84 15.1087 20.1583 13.3313C20.1583 13.3313 11.6428 9.38744 8.88382 15.5862C8.88382 15.5862 6.93842 15.5862 6.69083 17.0364C6.44323 18.4866 7.33634 20.7415 8.55664 23.1556L10.0953 17.5935L9.36133 16.8684L10.6524 17.0187Z" fill="#002E6D"/>
<path d="M8.69816 20.7239C8.69816 20.7239 7.04456 19.0261 6.27525 20.6797C5.43519 22.4748 9.25525 24.2168 9.25525 24.2168" fill="#FAC8BB"/>
<path d="M9.28179 15.8338C9.28179 15.8338 8.55669 14.7727 7.07996 15.4536" stroke="#002E6D" stroke-width="0.331744" stroke-miterlimit="10" stroke-linecap="round"/>
<path d="M9.29059 25.3135C9.29059 25.3135 11.2183 28.435 14.8438 27.8513" stroke="#FF7F66" stroke-width="0.294419" stroke-miterlimit="10" stroke-linecap="round"/>
<path d="M7.92884 20.7677C7.92884 20.7677 7.23026 20.2195 6.83234 20.8208C6.43441 21.4221 7.12415 21.935 7.12415 21.935" stroke="#FF7F66" stroke-width="0.294419" stroke-miterlimit="10" stroke-linecap="round"/>
<path d="M13.597 23.5361C13.597 23.5361 14.1452 24.5973 15.5689 24.2347" stroke="#FF7F66" stroke-width="0.294419" stroke-miterlimit="10" stroke-linecap="round"/>
<g style="mix-blend-mode:overlay">
<path d="M23.2273 13.5257C23.8422 13.5257 24.3409 14.0245 24.3409 14.6394C24.3409 14.0245 24.8397 13.5257 25.4546 13.5257C24.8397 13.5257 24.3409 13.027 24.3409 12.4121C24.3409 13.027 23.8422 13.5257 23.2273 13.5257Z" fill="#002E6D"/>
</g>
<g style="mix-blend-mode:overlay">
<path d="M22.2727 31.6625C22.8876 31.6625 23.3863 32.1612 23.3863 32.7761C23.3863 32.1612 23.8851 31.6625 24.5 31.6625C23.8851 31.6625 23.3863 31.1637 23.3863 30.5488C23.3863 31.1637 22.8876 31.6625 22.2727 31.6625Z" fill="#002E6D"/>
</g>
<g style="mix-blend-mode:overlay">
<path d="M18.4545 9.70792C20.4733 9.70792 22.1136 11.3482 22.1136 13.367C22.1136 11.3482 23.7539 9.70792 25.7727 9.70792C23.7539 9.70792 22.1136 8.06764 22.1136 6.04883C22.1136 8.06764 20.4733 9.70792 18.4545 9.70792Z" fill="#002E6D"/>
</g>
<g style="mix-blend-mode:overlay">
<path d="M45.1818 41.2075C46.674 41.2075 47.8864 42.4199 47.8864 43.912C47.8864 42.4199 49.0988 41.2075 50.5909 41.2075C49.0988 41.2075 47.8864 39.9951 47.8864 38.5029C47.8864 39.9951 46.674 41.2075 45.1818 41.2075Z" fill="#002E6D"/>
</g>
<g style="mix-blend-mode:overlay">
<path d="M44.2273 45.185C44.7539 45.185 45.1818 45.6129 45.1818 46.1396C45.1818 45.6129 45.6097 45.185 46.1364 45.185C45.6097 45.185 45.1818 44.7571 45.1818 44.2305C45.1818 44.7571 44.7539 45.185 44.2273 45.185Z" fill="#002E6D"/>
</g>
<rect x="31.865" y="8.02832" width="15.1782" height="18.5855" rx="1.27273" transform="rotate(6.78021 31.865 8.02832)" fill="#E7EBEE"/>
<rect x="31.2448" y="7.40918" width="15.1782" height="18.5855" rx="1.27273" transform="rotate(6.78021 31.2448 7.40918)" fill="white"/>
<rect x="26.6464" y="7.58496" width="15.1782" height="18.5855" rx="1.27273" transform="rotate(-2.53912 26.6464 7.58496)" fill="#E7EBEE"/>
<rect x="26.0001" y="6.99414" width="15.1782" height="18.5855" rx="1.27273" transform="rotate(-2.53912 26.0001 6.99414)" fill="white"/>
<rect x="32.8202" y="10.4531" width="7.12446" height="0.619518" rx="0.309759" transform="rotate(-2.53912 32.8202 10.4531)" fill="#007BE0"/>
<rect x="33.0205" y="14.9805" width="7.12446" height="0.619518" rx="0.309759" transform="rotate(-2.53912 33.0205 14.9805)" fill="#007BE0"/>
<rect x="33.2195" y="19.4678" width="7.12446" height="0.619518" rx="0.309759" transform="rotate(-2.53912 33.2195 19.4678)" fill="#007BE0"/>
<rect x="32.8885" y="12" width="3.71711" height="0.619518" rx="0.309759" transform="rotate(-2.53912 32.8885 12)" fill="#007BE0"/>
<rect x="33.0891" y="16.5283" width="3.71711" height="0.619518" rx="0.309759" transform="rotate(-2.53912 33.0891 16.5283)" fill="#007BE0"/>
<rect x="33.2884" y="21.0156" width="3.71711" height="0.619518" rx="0.309759" transform="rotate(-2.53912 33.2884 21.0156)" fill="#007BE0"/>
<rect x="28.7015" y="12.5996" width="3.05183" height="0.510534" rx="0.255267" transform="rotate(-47.5391 28.7015 12.5996)" fill="#69EA62"/>
<rect x="28.1056" y="11.3604" width="1.73323" height="0.510534" rx="0.255267" transform="rotate(42.5075 28.1056 11.3604)" fill="#69EA62"/>
<rect x="28.9018" y="17.1279" width="3.05183" height="0.510534" rx="0.255267" transform="rotate(-47.5391 28.9018 17.1279)" fill="#69EA62"/>
<rect x="28.3062" y="15.8877" width="1.73323" height="0.510534" rx="0.255267" transform="rotate(42.5075 28.3062 15.8877)" fill="#69EA62"/>
<rect x="29.1006" y="21.6152" width="3.05183" height="0.510534" rx="0.255267" transform="rotate(-47.5391 29.1006 21.6152)" fill="#69EA62"/>
<rect x="28.5049" y="20.375" width="1.73323" height="0.510534" rx="0.255267" transform="rotate(42.5075 28.5049 20.375)" fill="#69EA62"/>
<path d="M42.253 17.6455L42.7751 20.9897L43.7395 21.8612L46.3218 20.8491L45.159 18.1585L45.9353 15.6524L43.5978 15.5439L42.253 17.6455Z" fill="#FAC8BB"/>
<path d="M44.0008 17.9355L44.523 21.2797L45.4873 22.1513L45.7873 20.6058L45.1573 18.0186L45.6549 16.5566L45.3457 15.834L44.0008 17.9355Z" fill="#FAC8BB"/>
<path d="M45.437 18.0769L46.0817 16.0645L45.7108 16.0846L44.7217 18.0027L45.4299 20.8241L46.3244 21.4878L47.2096 21.0353L46.5933 20.7286L45.437 18.0769Z" fill="#FAC8BB"/>
<path d="M42.4278 15.1222L44.1344 16.5037L48.0534 11.1222C48.3955 10.6524 48.3116 9.97921 47.8661 9.61859L47.7729 9.54314C47.3273 9.18244 46.6888 9.27092 46.3468 9.74065L42.4278 15.1222V15.1222Z" fill="#0C73EF"/>
<path d="M47.6239 9.44329C47.1941 9.20593 46.6523 9.32024 46.3467 9.73983L42.4278 15.1214L42.9461 15.541C44.6838 13.1822 46.4067 10.8228 46.7121 10.3296C47.3608 9.28221 47.6239 9.44329 47.6239 9.44329Z" fill="#57ABFF"/>
<path d="M45.5496 10.8322L47.2561 12.2139L47.6226 11.7107L45.916 10.329L45.5496 10.8322Z" fill="#CCE1E5"/>
<path d="M45.9184 10.332L45.552 10.8352L46.0735 11.2574C46.2119 11.0633 46.3326 10.8925 46.4329 10.7485L45.9185 10.332H45.9184Z" fill="white"/>
<path d="M45.0586 9.63568L45.4337 9.93938L45.916 10.3298L45.5495 10.833L45.0672 10.4425L42.345 14.1808L41.9253 13.841L45.014 9.59961L45.0586 9.63568Z" fill="#CCE1E5"/>
<path d="M38.9006 19.967L40.6071 21.3486L44.1354 16.504L42.4289 15.1224L38.9006 19.967Z" fill="#0C73EF"/>
<path d="M42.9422 15.5417L42.4239 15.1221L38.8958 19.9669L39.3783 20.3575C40.0346 19.474 41.4932 17.5086 42.9422 15.5417Z" fill="#57ABFF"/>
<path d="M40.6039 21.3479L44.132 16.503L43.5842 16.0596C42.0282 18.1989 40.4715 20.3428 40.061 20.9083L40.6039 21.3479Z" fill="#0252B2"/>
<path d="M38.8976 19.9668L40.6042 21.3484L38 23.0619L38.8976 19.9668Z" fill="#CCE1E5"/>
<path d="M38 23.0619H38.0001L40.6042 21.3484L40.1835 21.0078L38 23.0619Z" fill="#A3B9BF"/>
<path d="M39.3801 20.3574L38.8975 19.9668L38 23.0618L39.3801 20.3574Z" fill="white"/>
<path d="M43.5858 16.0601L44.1336 16.5036L48.0525 11.122C48.3946 10.6523 48.3107 9.97905 47.8652 9.61842L47.7719 9.54297C47.7719 9.54297 48.0453 9.97573 47.0805 11.2726C46.6394 11.8655 45.1129 13.9604 43.5857 16.0602L43.5858 16.0601Z" fill="#0252B2"/>
<path d="M47.2553 12.2159L47.6217 11.7126L47.0791 11.2734C46.994 11.3879 46.8681 11.5588 46.7099 11.7744L47.2553 12.2159Z" fill="#A3B9BF"/>
<path d="M54.4674 16.3673C54.4021 16.2378 50.9941 16.0708 50.8717 16.0009L46.4098 13.4131L44.0195 16.6955L44.9905 16.6608C46.0382 16.6276 46.4028 17.5739 46.2804 18.2344C46.1537 18.9185 45.6787 19.5204 45.098 19.6704C44.5173 19.8204 41.8206 19.0688 41.8206 19.0688C40.9506 18.8468 40.2784 19.2038 40.1242 19.8737C39.964 20.5689 40.4016 21.1523 40.9887 21.3224C40.9887 21.3224 42.3992 21.7101 44.2343 22.1449C45.7797 22.5111 46.4431 22.5633 47.1027 22.2706L50.6201 20.9469C50.7736 20.8593 53.7846 21.7721 53.8435 21.5988L54.4674 16.3673Z" fill="#FAC8BB"/>
<path d="M52.3763 16.1381C51.6144 16.0812 50.9235 16.0317 50.8697 16.0008L46.4077 13.4131L45.6765 14.4172C46.3889 14.6333 47.7251 15.2563 48.2633 15.7578C48.8857 16.3376 49.7584 16.7386 50.5319 16.8413C51.3053 16.944 52.2548 17.0027 52.2548 17.0027L52.3763 16.1381Z" fill="#FFBCAA"/>
<path d="M46.2244 18.4561C46.0461 19.0448 45.6137 19.5364 45.0969 19.6699C44.5162 19.8199 41.8194 19.0683 41.8194 19.0683C40.9494 18.8463 40.2773 19.2034 40.123 19.8733C40.1007 19.9704 40.0911 20.065 40.0908 20.157C40.5499 19.2546 41.4957 19.5903 42.35 19.8247C43.2041 20.0591 44.4519 20.4241 45.2454 20.0827C46.039 19.7412 46.2247 18.4561 46.2247 18.4561H46.2244V18.4561Z" fill="#FFBCAA"/>
<path d="M46.2984 18.0201C46.2984 18.0201 46.5037 17.231 46.1092 16.5885C45.8647 16.1905 45.1646 15.9371 44.6672 15.8018L44.0161 16.6958L44.9872 16.6612C45.9256 16.6314 46.3146 17.3872 46.2979 18.0199L46.2984 18.0201H46.2984Z" fill="#FFBCAA"/>
<path d="M51.5421 17.1563C51.4832 17.6735 50.9 19.4176 50.284 19.4397C49.668 19.4617 47.9638 20.7816 47.416 21.0524C46.8682 21.3232 45.1303 21.3877 44.5254 21.2792C43.9205 21.1707 42.4199 20.9114 41.5175 20.7382C40.6162 20.5652 40.0921 20.1576 40.0908 20.1566C40.0893 20.7227 40.4825 21.1753 40.9876 21.3216C40.9876 21.3216 42.3981 21.7092 44.2331 22.1441C45.7784 22.5103 46.4419 22.5625 47.1015 22.2698L50.6189 20.9461C50.6781 20.9123 51.1627 21.0275 51.7387 21.1716L52.132 17.5869C52.132 17.5869 51.601 16.6392 51.542 17.1564L51.5421 17.1563Z" fill="#FFAF99"/>
<path d="M41.7978 14.2895C41.664 14.3321 41.5451 14.4156 41.4561 14.5293L39.4937 19.1127C39.5459 19.0648 39.5989 19.016 39.6523 18.9671L43.4394 13.7666L41.7978 14.2895Z" fill="#FFAF99"/>
<path d="M41.7978 14.2895C41.6641 14.3321 41.5451 14.4156 41.4561 14.5293L39.4937 19.1127C39.5459 19.0648 39.5989 19.016 39.6523 18.9671L40.8738 17.2898C41.0542 16.7187 41.2872 16.047 41.4665 15.7576C41.7935 15.23 41.5696 14.8506 42.6404 14.8639L43.4394 13.7666L41.7978 14.2895Z" fill="#FFBCAA"/>
<path d="M42.0141 19.5904L41.3684 19.454C41.0145 19.3792 40.67 19.6211 40.5991 19.9942L40.5982 19.9994C40.5272 20.3725 40.7566 20.7357 41.1106 20.8104L41.7563 20.9469L42.0141 19.5904Z" fill="#FFCD9C"/>
<path d="M51.0604 21.3912L53.1961 21.7868L53.8796 15.7854L51.7158 15.6367L51.0604 21.3912Z" fill="white"/>
<path d="M52.0071 21.8112L54.2712 22.2359L55.0249 15.6184L52.7298 15.4658L52.0071 21.8112Z" fill="#3A6B93"/>
<path d="M53.4785 21.3661C53.6421 21.1936 53.6421 20.9139 53.4785 20.7414C53.3149 20.5689 53.0496 20.5689 52.886 20.7414C52.7224 20.9139 52.7224 21.1936 52.886 21.3661C53.0496 21.5386 53.3149 21.5386 53.4785 21.3661Z" fill="white"/>
<path d="M42.9411 11.6807C42.9411 12.0517 42.6558 12.3524 42.304 12.3524C42.6558 12.3524 42.9411 12.6532 42.9411 13.0242C42.9411 12.6532 43.2264 12.3524 43.5782 12.3524C43.2264 12.3524 42.9411 12.0517 42.9411 11.6807Z" fill="white"/>
<path d="M47.6238 11.0723C47.6238 11.4433 47.3385 11.744 46.9866 11.744C47.3385 11.744 47.6238 12.0448 47.6238 12.4158C47.6238 12.0448 47.909 11.744 48.2609 11.744C47.909 11.744 47.6238 11.4433 47.6238 11.0723Z" fill="white"/>
</g>
<defs>
<linearGradient id="paint0_linear_12159_680811" x1="44.3849" y1="38.1855" x2="38.759" y2="33.6895" gradientUnits="userSpaceOnUse">
<stop offset="0.8704" stop-color="#FAC8BB"/>
<stop offset="0.9615" stop-color="#FAC8BB"/>
</linearGradient>
<clipPath id="clip0_12159_680811">
<rect y="0.321289" width="56" height="56" rx="28" fill="white"/>
</clipPath>
</defs>
</svg>
