<svg width="106" height="55" viewBox="0 0 106 55" fill="none" xmlns="http://www.w3.org/2000/svg">
<path d="M103.9 2.88641C103.016 2.10398 101.815 1.65332 100.412 1.65332C97.4677 1.65332 95.3825 3.72385 95.3825 6.70811V24.3138L83.8471 7.07538C82.691 5.35437 81.6261 4.00418 80.4165 3.08513C79.189 2.15011 77.8185 1.65332 76.0549 1.65332C72.4975 1.65332 70.105 3.84627 70.105 7.92701V36.2527C70.105 38.5805 71.3718 40.3494 73.3516 41.0182C73.9144 41.2081 74.5344 41.3092 75.1973 41.3092C78.1419 41.3092 80.2271 39.2387 80.2271 36.2544V19.3194L81.8709 21.6933L91.7 35.8889C93.3206 38.2167 94.7625 39.9271 96.7869 40.7521C97.6767 41.1158 98.6791 41.3092 99.8584 41.3092C103.234 41.3092 105.505 38.9353 105.505 35.0355V6.70811C105.505 5.11663 104.91 3.7824 103.9 2.88641Z" fill="#0055B8"/>
<path d="M44.5412 22.3394C44.7717 22.334 44.9915 22.3713 45.1952 22.4423C44.9415 22.4795 44.686 22.5008 44.4197 22.5008C44.2286 22.5008 44.0392 22.4884 43.8533 22.4689C44.0499 22.389 44.2661 22.3465 44.493 22.3394H44.5412V22.3394Z" fill="#0055B8"/>
<path d="M46.6316 16.8878C46.6691 17.0457 46.687 17.2089 46.687 17.3757C46.687 18.6159 45.6703 19.6254 44.4213 19.6254C43.1688 19.6254 42.1557 18.6159 42.1557 17.3757C42.1557 17.2089 42.1736 17.0457 42.2111 16.8878C42.4327 15.8783 43.3368 15.126 44.4213 15.126C45.5041 15.126 46.4118 15.8783 46.6316 16.8878Z" fill="#0055B8"/>
<path d="M64.7331 3.78418C63.3483 2.41269 61.5061 1.65332 59.546 1.65332H41.1351C37.063 1.65332 33.7092 4.87533 33.6592 8.83897C33.636 10.8226 34.3954 12.6837 35.8051 14.0818C36.309 14.5822 36.8754 15.0009 37.4793 15.3309C37.4829 15.3344 37.4847 15.3362 37.4883 15.3362C37.5204 15.3504 37.5526 15.3681 37.5883 15.3859C37.8385 15.5083 38.119 15.5793 38.4138 15.5793C39.0589 15.5793 39.6253 15.2581 39.9612 14.7667C39.9647 14.7667 39.9647 14.7631 39.9665 14.7614C39.9951 14.717 40.0219 14.6744 40.0487 14.6301C40.0523 14.6247 40.0541 14.6159 40.0612 14.6088C40.2024 14.348 40.2846 14.0446 40.2846 13.7252C40.2846 13.0226 39.8897 12.4052 39.3054 12.0929C39.3019 12.0929 39.3019 12.0929 39.3001 12.0894C38.991 11.9226 38.7051 11.715 38.4513 11.4595C37.7581 10.7711 37.3846 9.85915 37.3971 8.8851C37.4239 6.94231 39.0982 5.36147 41.1369 5.36147H59.4478C60.4091 5.36147 61.3489 5.69502 62.0404 6.35681C62.7533 7.04167 63.1446 7.95185 63.1446 8.93123V8.98091C63.1178 10.9361 61.4204 12.5276 59.3638 12.5063C56.4531 12.4761 54.1035 14.8785 54.1035 17.7669V33.7865C54.1035 34.8049 53.7051 35.7594 52.9814 36.4762C52.2149 37.2374 51.1803 37.6383 50.094 37.5904C48.0249 37.4964 46.4347 35.7346 46.4347 33.6818V24.1577C46.4347 23.3557 45.9165 22.6851 45.2 22.4402C44.9963 22.3693 44.7765 22.332 44.546 22.3373H44.4996C44.2727 22.3427 44.0583 22.387 43.8599 22.4669C43.1792 22.733 42.6985 23.3912 42.6985 24.1577V33.6179C42.6985 37.7732 46.0219 41.272 50.2066 41.3039C52.2542 41.3216 54.1821 40.5339 55.6223 39.1038C57.0535 37.6845 57.8432 35.7949 57.8432 33.7865V17.7669C57.8432 16.9046 58.5562 16.2198 59.4263 16.2162C61.4561 16.2109 63.3036 15.4054 64.6509 14.1102C66.007 12.8079 66.8575 11.0124 66.8843 9.02704C66.9076 7.04876 66.1464 5.18582 64.7331 3.78418Z" fill="#0055B8"/>
<path d="M46.687 17.3777C46.687 18.6178 45.6703 19.6274 44.4213 19.6274C43.1688 19.6274 42.1557 18.6178 42.1557 17.3777C42.1557 17.2109 42.1736 17.0477 42.2111 16.8897C42.4327 15.8802 43.3368 15.1279 44.4213 15.1279C45.5023 15.1279 46.41 15.8802 46.6316 16.8897C46.6691 17.0459 46.687 17.2109 46.687 17.3777Z" fill="#0055B8"/>
<path d="M49.0784 9.5123C49.0319 9.48924 48.9926 9.47149 48.9605 9.4573C47.4846 8.82745 46.0087 8.20292 44.5311 7.56951C44.4346 7.52871 44.3506 7.54822 44.2595 7.58726C43.0427 8.10533 41.8259 8.62518 40.6091 9.14326C40.3732 9.24262 40.1409 9.34197 39.9069 9.44133C39.8658 9.45907 39.8247 9.47859 39.7621 9.50875C39.8175 9.53891 39.8479 9.55488 39.8801 9.57085C40.6395 9.89553 41.397 10.2167 42.1546 10.5396V12.7751C42.839 12.4416 43.6073 12.2535 44.4203 12.2535C45.2333 12.2535 46.0034 12.4416 46.6859 12.7769V10.5325C47.0075 10.3941 47.3256 10.261 47.6472 10.1226C47.6829 10.1084 47.7205 10.0925 47.7687 10.0765C47.7723 10.1138 47.7741 10.1439 47.7741 10.1723C47.7741 10.9477 47.7741 11.723 47.7776 12.4983C47.7776 12.5835 47.7455 12.6296 47.6722 12.6687C47.4721 12.7733 47.3363 12.9206 47.272 13.1069C47.2344 13.2009 47.2166 13.3056 47.2166 13.4192C47.213 13.8397 47.213 14.2619 47.213 14.6824C47.213 14.8119 47.2166 14.8137 47.3452 14.8137H48.78C48.83 14.8137 48.8622 14.8137 48.8836 14.8048C48.9212 14.7924 48.9212 14.7605 48.9212 14.6753C48.9212 14.2779 48.9212 13.8787 48.9247 13.4848C48.9247 13.114 48.78 12.823 48.4423 12.6509C48.3708 12.6137 48.3655 12.5604 48.3655 12.493V10.2752C48.3655 10.1847 48.3619 9.97005 48.3601 9.81924C48.5424 9.7465 48.8175 9.62585 48.9605 9.56553C48.9909 9.55311 49.0319 9.53537 49.0784 9.5123Z" fill="#0055B8"/>
<path d="M43.5462 20.69C43.7767 20.6846 43.9965 20.7219 44.2002 20.7929C43.9465 20.8301 43.691 20.8514 43.4247 20.8514C43.2336 20.8514 43.0442 20.839 42.8583 20.8195C43.0549 20.7396 43.2711 20.6971 43.498 20.69H43.5462V20.69Z" fill="url(#paint0_linear_12159_680614)"/>
<path d="M45.6937 15.7281C45.6937 16.9683 44.677 17.9778 43.4281 17.9778C43.194 17.9778 42.9671 17.9423 42.7544 17.8767C41.8307 17.591 41.1606 16.7358 41.1606 15.7281C41.1606 15.5595 41.1785 15.3963 41.2178 15.2384C41.4394 14.2288 42.3435 13.4766 43.4281 13.4766C43.8426 13.4766 44.2321 13.5883 44.5662 13.78C44.5662 13.78 44.568 13.7817 44.5698 13.7817C45.1058 14.094 45.5007 14.6174 45.6365 15.2384C45.6758 15.3963 45.6937 15.5613 45.6937 15.7281Z" fill="url(#paint1_linear_12159_680614)"/>
<path d="M63.7371 2.13183C63.1474 1.54811 62.4738 1.07261 61.743 0.721315C60.7603 0.249369 59.6739 0.000976562 58.5501 0.000976562H40.1391C36.0653 0.000976562 32.7133 3.22298 32.6632 7.18662C32.64 9.17022 33.4012 11.0314 34.8092 12.4295C35.313 12.9316 35.8794 13.3485 36.4834 13.6803C36.4869 13.6839 36.4887 13.6856 36.4923 13.6856C36.5262 13.6998 36.5566 13.7194 36.5924 13.7353C36.6871 13.7814 36.7871 13.8223 36.8925 13.8524C37.0587 13.9021 37.2356 13.9287 37.4179 13.9287C38.0611 13.9287 38.6293 13.6058 38.9652 13.1143C38.967 13.1143 38.967 13.1108 38.9706 13.1072C39.0009 13.0647 39.0277 13.0185 39.0545 12.9759C39.0563 12.9689 39.0599 12.9618 39.067 12.9547C39.2082 12.6956 39.2904 12.3905 39.2904 12.0711C39.2904 11.3685 38.8937 10.7511 38.313 10.4388C38.3095 10.4388 38.3095 10.4388 38.3059 10.4352C37.9968 10.2685 37.7109 10.0609 37.4572 9.80539C36.7657 9.11876 36.3922 8.20503 36.403 7.23098C36.428 5.28642 38.1022 3.70735 40.1427 3.70735H58.4518C59.0861 3.70735 59.7097 3.85106 60.26 4.14026C60.5441 4.28752 60.8103 4.47559 61.0462 4.70092C61.7609 5.38578 62.1522 6.29418 62.1522 7.27533V7.32501C62.1254 9.27844 60.428 10.8717 58.3714 10.8504C55.4607 10.822 53.1111 13.2226 53.1111 16.1128V32.1323C53.1111 33.1508 52.7145 34.1053 51.989 34.8203C51.2225 35.5832 50.1879 35.9824 49.1016 35.9363C48.721 35.9203 48.3547 35.8458 48.0117 35.7216C46.5 35.1805 45.4423 33.7008 45.4423 32.0259V22.5018C45.4423 21.8684 45.1171 21.3166 44.6275 20.9919C44.6096 20.9795 44.5918 20.9671 44.5721 20.9564L44.5703 20.9547C44.456 20.8855 44.3363 20.8269 44.2076 20.7843C44.0039 20.7152 43.7824 20.6761 43.5536 20.6814H43.5072C43.2803 20.6885 43.0641 20.7311 42.8675 20.811C42.1868 21.0771 41.7079 21.7353 41.7079 22.5018V31.962C41.7079 35.1734 43.693 37.9926 46.5268 39.1211C47.3595 39.4528 48.2654 39.6391 49.2159 39.648C51.2636 39.6657 53.1897 38.8798 54.6317 37.448C56.0629 36.0286 56.8544 34.139 56.8544 32.1306V16.1199C56.8544 15.2558 57.5673 14.571 58.4357 14.5692C60.4655 14.5621 62.313 13.7584 63.6603 12.4614C65.0164 11.1591 65.8669 9.36361 65.8937 7.37824C65.9098 5.39819 65.1504 3.53348 63.7371 2.13183Z" fill="url(#paint2_linear_12159_680614)"/>
<path d="M45.6937 15.7281C45.6937 16.9683 44.677 17.9778 43.4281 17.9778C43.194 17.9778 42.9671 17.9423 42.7544 17.8767C41.8307 17.591 41.1606 16.7358 41.1606 15.7281C41.1606 15.5595 41.1785 15.3963 41.2178 15.2384C41.4394 14.2288 42.3435 13.4766 43.4281 13.4766C43.8426 13.4766 44.2321 13.5883 44.5662 13.78C44.5662 13.78 44.568 13.7817 44.5698 13.7817C45.1058 14.094 45.5007 14.6174 45.6365 15.2384C45.6758 15.3963 45.6937 15.5613 45.6937 15.7281Z" fill="url(#paint3_linear_12159_680614)"/>
<path d="M47.9646 7.91358C47.8217 7.97568 47.5465 8.09633 47.3643 8.16908C47.3678 8.31988 47.3696 8.53457 47.3696 8.62505V10.8446C47.3696 10.912 47.3768 10.9635 47.4464 11.0025C47.7859 11.1746 47.9289 11.4656 47.9289 11.8382C47.9253 12.2321 47.9253 12.6295 47.9253 13.0287C47.9253 13.1139 47.9253 13.1458 47.8878 13.1564C47.8663 13.1671 47.8342 13.1671 47.7841 13.1671H46.3494C46.2189 13.1671 46.2154 13.1635 46.2154 13.034C46.2154 12.6135 46.2154 12.193 46.2189 11.7708C46.2189 11.6554 46.2368 11.5508 46.2761 11.4567C46.3404 11.2704 46.4744 11.1249 46.6763 11.0185C46.7496 10.9795 46.7835 10.9333 46.7835 10.8499C46.78 10.1722 46.78 9.4962 46.78 8.81844V8.52215C46.78 8.49199 46.7764 8.4636 46.7728 8.42634C46.7264 8.44231 46.6871 8.45827 46.6531 8.47247C46.3315 8.61086 46.0152 8.74393 45.6936 8.88232V11.1249C45.0093 10.7896 44.241 10.6015 43.428 10.6015C42.7919 10.6015 42.1862 10.7169 41.6233 10.9245C41.4643 10.9848 41.3107 11.0504 41.1606 11.1232V8.88764C40.5334 8.61973 39.9062 8.35537 39.2773 8.08569C39.1469 8.03068 39.0164 7.97568 38.886 7.91891C38.8538 7.90471 38.8235 7.88697 38.7681 7.85681C38.8306 7.82665 38.8717 7.80713 38.9128 7.78939C39.1451 7.69003 39.3774 7.59245 39.6132 7.49132C40.83 6.97324 42.0486 6.45162 43.2654 5.93354C43.3565 5.89451 43.4387 5.87499 43.537 5.91757C45.0129 6.5492 46.4887 7.17373 47.9646 7.80358C47.9968 7.816 48.0307 7.83552 48.0754 7.85504C48.079 7.85681 48.0808 7.85858 48.0843 7.86036C48.0361 7.8852 47.995 7.90294 47.9646 7.91358Z" fill="url(#paint4_linear_12159_680614)"/>
<path d="M44.6682 20.9965C44.6557 20.9982 44.6396 21 44.6271 21.0018C44.3877 21.0373 44.1447 21.055 43.8945 21.055C43.7015 21.055 43.5157 21.0426 43.3299 21.0231C43.5264 20.9432 43.7409 20.9007 43.9678 20.8936H44.0839C44.1161 20.8936 44.15 20.8953 44.1804 20.8989C44.2072 20.9007 44.234 20.9024 44.2608 20.906C44.3019 20.9095 44.3448 20.9166 44.3859 20.9237C44.4198 20.929 44.452 20.9361 44.4842 20.9432C44.5074 20.9486 44.527 20.9539 44.5503 20.9592C44.5521 20.9592 44.5556 20.961 44.5574 20.961C44.561 20.9628 44.5663 20.9628 44.5699 20.9645L44.5717 20.9663C44.5771 20.9663 44.5824 20.9681 44.586 20.9698C44.6164 20.9769 44.6414 20.9858 44.6682 20.9965Z" fill="#F7A81E"/>
<path d="M45.694 15.728C45.694 16.9681 44.6773 17.9777 43.4284 17.9777C43.1943 17.9777 42.9674 17.9422 42.7547 17.8765C42.0793 17.488 41.6237 16.7606 41.6237 15.9284C41.6237 15.7617 41.6398 15.5984 41.6791 15.4405C41.9007 14.431 42.8048 13.6787 43.8894 13.6787C44.1252 13.6787 44.3521 13.7142 44.5665 13.7798C44.5665 13.7798 44.5683 13.7816 44.5701 13.7816C45.1061 14.0939 45.501 14.6173 45.6368 15.2383C45.6761 15.3962 45.694 15.5612 45.694 15.728Z" fill="#F7A81E"/>
<path d="M63.7373 2.13287C63.5032 1.90222 63.2548 1.68577 62.9976 1.4906C62.6027 1.19253 62.1828 0.933491 61.7414 0.724131C60.8856 0.383478 59.9618 0.206055 59.013 0.206055H40.6003C36.5282 0.206055 33.1744 3.42806 33.1244 7.3917C33.1012 9.37529 33.8624 11.2365 35.2703 12.6346C35.5777 12.9397 35.9082 13.2147 36.2566 13.4578C36.4621 13.5997 36.6747 13.7328 36.8927 13.8552C37.0589 13.9049 37.2358 13.9315 37.418 13.9315C38.0613 13.9315 38.6295 13.6086 38.9654 13.1172C38.9672 13.1172 38.9672 13.1136 38.9708 13.1101C39.0011 13.0675 39.0279 13.0213 39.0547 12.9788C39.0565 12.9717 39.0601 12.9646 39.0672 12.9575C39.2084 12.6984 39.2906 12.3933 39.2906 12.0739C39.2906 11.3873 38.9118 10.7805 38.349 10.4629C38.3364 10.454 38.3239 10.4487 38.3114 10.4416C38.3079 10.4416 38.3079 10.4416 38.3043 10.4381C37.9952 10.2713 37.7093 10.0637 37.4556 9.80821C36.7641 9.12158 36.3906 8.20785 36.4014 7.23379C36.4264 5.28923 38.1006 3.71017 40.1411 3.71017H58.4502C59.0845 3.71017 59.7081 3.85388 60.2584 4.14308C60.4889 4.22647 60.7123 4.33292 60.9231 4.46067C61.1322 4.58664 61.3269 4.73567 61.5074 4.90777C62.2221 5.59263 62.6134 6.50104 62.6134 7.48219V7.53187C62.5866 9.4853 60.8892 11.0768 58.8326 11.0573C57.5604 11.0448 56.3972 11.4955 55.4877 12.2496C54.7605 12.8528 54.1977 13.6494 53.8761 14.5578C53.6813 15.1114 53.5741 15.704 53.5741 16.3196V32.3392C53.5741 33.3576 53.1756 34.3121 52.4502 35.0272C51.6837 35.7883 50.6509 36.1893 49.5628 36.1432C49.0035 36.1183 48.48 35.9711 48.0119 35.7262C47.8743 35.6783 47.742 35.6215 47.6134 35.5577C46.318 34.9172 45.4407 33.5546 45.4407 32.0305V22.5064C45.4407 21.873 45.1155 21.3212 44.6259 20.9965C44.6384 20.9948 44.6545 20.993 44.667 20.9912C44.6402 20.9806 44.6134 20.9735 44.5848 20.9646C44.5794 20.9628 44.5723 20.961 44.5687 20.9593C44.5652 20.9575 44.5598 20.9575 44.5562 20.9557C44.5544 20.9557 44.5509 20.9539 44.5491 20.9539C44.5258 20.9468 44.5062 20.9415 44.483 20.938C44.449 20.9291 44.4169 20.9238 44.3847 20.9185C44.3436 20.9096 44.3007 20.9043 44.2596 20.9007C44.2328 20.8972 44.206 20.8954 44.1792 20.8936C44.147 20.8901 44.1149 20.8883 44.0827 20.8883H43.9666C43.7397 20.8954 43.5253 20.938 43.3287 21.0178C42.6462 21.284 42.1673 21.9422 42.1673 22.7087V32.1689C42.1673 34.793 43.4931 37.1545 45.5247 38.5472C45.8409 38.7655 46.175 38.9571 46.5253 39.1256C47.3579 39.4574 48.2638 39.6437 49.2143 39.6526C49.6039 39.6561 49.988 39.6313 50.3668 39.5763C51.9767 39.3492 53.4633 38.6111 54.6301 37.4525C56.0613 36.0332 56.8528 34.1436 56.8528 32.1352V16.1209C56.8528 15.2569 57.5657 14.572 58.4341 14.5703C60.4639 14.5632 62.3114 13.7594 63.6587 12.4625C63.7516 12.372 63.8445 12.2797 63.932 12.1857C64.418 11.6676 64.829 11.0821 65.147 10.4434C65.6098 9.51369 65.8761 8.47576 65.8903 7.37928C65.91 5.39924 65.1506 3.53452 63.7373 2.13287Z" fill="#F7A81E"/>
<path d="M45.694 15.728C45.694 16.9681 44.6773 17.9777 43.4284 17.9777C43.1943 17.9777 42.9674 17.9422 42.7547 17.8765C42.0793 17.488 41.6237 16.7606 41.6237 15.9284C41.6237 15.7617 41.6398 15.5984 41.6791 15.4405C41.9007 14.431 42.8048 13.6787 43.8894 13.6787C44.1252 13.6787 44.3521 13.7142 44.5665 13.7798C44.5665 13.7798 44.5683 13.7816 44.5701 13.7816C45.1061 14.0939 45.501 14.6173 45.6368 15.2383C45.6761 15.3962 45.694 15.5612 45.694 15.728Z" fill="#FEFEFE"/>
<path d="M47.9735 7.91422C47.8306 7.97632 47.5554 8.09697 47.3731 8.16971C47.3767 8.32052 47.3785 8.53521 47.3785 8.62569V10.8453C47.3785 10.9127 47.3856 10.9641 47.4553 11.0032C47.7948 11.1753 47.9378 11.4662 47.9378 11.8388C47.9342 12.2327 47.9342 12.6301 47.9342 13.0293C47.9342 13.1145 47.9342 13.1464 47.8967 13.1571C47.8752 13.1677 47.8431 13.1677 47.793 13.1677H46.687C46.687 12.7685 46.687 12.3729 46.6888 11.9737C46.6888 11.8583 46.7067 11.7537 46.746 11.6596C46.8103 11.4733 46.9461 11.3261 47.148 11.2214C47.2213 11.1824 47.2534 11.1362 47.2534 11.0528C47.2499 10.2775 47.2499 9.50216 47.2499 8.72682C47.2499 8.69666 47.2481 8.66827 47.2445 8.63102C47.198 8.64698 47.1587 8.66295 47.1248 8.67715C47.0122 8.72505 46.9014 8.77295 46.7889 8.81908V8.52279C46.7889 8.49262 46.7853 8.46424 46.7817 8.42698C46.7353 8.44295 46.696 8.45891 46.662 8.47311C46.3404 8.6115 46.0241 8.74457 45.7025 8.88296V11.1256C45.1218 10.8417 44.4821 10.6643 43.8067 10.6164C43.6852 10.6075 43.5602 10.604 43.4369 10.604C42.8008 10.604 42.1951 10.7193 41.6322 10.9269V9.09232C41.4786 9.02667 41.3231 8.96102 41.1694 8.89538C40.7281 8.70731 40.2868 8.52101 39.8437 8.33294C39.6811 8.26375 39.5185 8.19455 39.3577 8.12536C39.3362 8.11471 39.3166 8.10407 39.288 8.0881C39.2755 8.07923 39.2594 8.07391 39.2415 8.06326C39.3041 8.0331 39.3434 8.01358 39.3845 7.99584C39.6167 7.89648 39.8508 7.79713 40.0867 7.69777C40.1814 7.65874 40.2761 7.61615 40.3708 7.57712L40.3725 7.57535C41.4929 7.09808 42.615 6.61903 43.737 6.13999C43.8282 6.10096 43.9104 6.08144 44.0086 6.12225C44.7644 6.44516 45.5185 6.76807 46.2725 7.08921C46.8764 7.34647 47.4821 7.60196 48.0843 7.85922C48.0879 7.861 48.0896 7.86277 48.0932 7.86455C48.045 7.88584 48.0039 7.90358 47.9735 7.91422Z" fill="#FEFEFE"/>
<path d="M28.9373 7.39626C28.1833 6.01236 27.163 4.79524 25.9087 3.77151C25.5746 3.49472 25.2226 3.23391 24.8545 2.98552C23.2553 2.11969 21.4132 1.48629 19.3655 1.11548C17.9718 0.861762 16.4817 0.730469 14.9057 0.730469H5.25712C2.47332 0.730469 0.495361 2.69455 0.495361 5.4588V35.3067C0.495361 36.6126 0.890239 37.7445 1.58887 38.6068C1.77469 38.841 1.98375 39.0557 2.21424 39.2473C2.32681 39.2934 2.43938 39.3378 2.5573 39.3768C3.12371 39.5702 3.74908 39.6713 4.42091 39.6713C5.28214 39.6713 6.07011 39.4957 6.75444 39.171C8.23211 38.4773 9.2327 37.0969 9.44712 35.3156C9.47928 35.0743 9.49357 34.8277 9.49357 34.5722V27.4487H13.6389C14.0874 27.4487 14.5287 27.438 14.9611 27.4149C24.3578 26.9607 30.4614 21.6114 30.4614 13.6291C30.4614 11.3102 29.929 9.21131 28.9373 7.39626ZM9.49179 19.2801V8.90436H14.5037C15.9689 8.90436 17.1982 9.33195 18.0862 10.0842C18.5793 10.29 19.0153 10.5633 19.3887 10.8986C19.7175 11.1949 19.9998 11.5356 20.2214 11.9206C20.627 12.6125 20.8468 13.4393 20.8468 14.3655C20.8468 17.3142 18.8045 19.2801 15.7133 19.2801H9.49179Z" fill="#0055B8"/>
<path d="M102.683 1.23453C102.651 1.20614 102.621 1.17953 102.589 1.15469C101.992 0.902748 101.32 0.757261 100.593 0.737745C100.53 0.73597 100.469 0.734196 100.407 0.734196C97.4605 0.734196 95.3772 2.80473 95.3772 5.79076L95.3754 8.21082L95.3629 24.5409L94.1675 22.662L89.9704 15.9536L87.1401 11.4275L84.5135 7.22789L83.8435 6.15626C82.6857 4.43525 81.6208 3.08506 80.4129 2.166C80.0073 1.85551 79.5856 1.5947 79.1389 1.38357C78.6047 1.12985 78.0347 0.948878 77.4129 0.844199C76.9841 0.769681 76.5338 0.732422 76.0514 0.732422C72.4939 0.732422 70.0996 2.92537 70.0996 7.00789V35.3335C70.0996 35.495 70.1068 35.6547 70.1175 35.8108C70.2283 37.2408 70.8358 38.4296 71.7988 39.2386C71.9096 39.2848 72.0204 39.3291 72.1365 39.3664C72.5421 39.503 72.9799 39.5935 73.4391 39.6343C73.616 39.6485 73.7982 39.6573 73.9823 39.6573C76.9269 39.6573 79.0121 37.5868 79.0121 34.6008V17.6675L78.9906 16.6207L81.2437 19.8729L81.8655 20.7724L84.2259 24.1807L91.6928 34.968C92.8542 36.6376 93.9227 37.9878 95.1824 38.9246C95.3093 38.9867 95.4379 39.0435 95.5701 39.0967C96.4599 39.4604 97.4623 39.6538 98.6416 39.6538C102.017 39.6538 104.286 37.2799 104.286 33.3783V5.05623C104.29 3.46474 103.695 2.13229 102.683 1.23453Z" fill="#0055B8"/>
<path d="M57.169 52.163C57.0082 52.163 56.9224 52.0991 56.8045 51.9394L55.1821 49.7411H54.1297V51.8418C54.1297 52.0228 53.9903 52.1505 53.808 52.1505C53.6258 52.1505 53.4954 52.0228 53.4954 51.8418V45.0997C53.4954 44.9188 53.624 44.791 53.808 44.791C53.9903 44.791 54.1297 44.9188 54.1297 45.0997V49.1751H55.1821L56.7723 47.2235C56.8688 47.0851 56.9653 47.0106 57.1154 47.0106C57.3834 47.0106 57.4906 47.2554 57.3405 47.4595L55.7288 49.4324L57.4048 51.6839C57.5781 51.927 57.4173 52.163 57.169 52.163Z" fill="#0055B8"/>
<path d="M62.8815 49.3349C62.8815 49.5904 62.7314 49.7501 62.4616 49.7501H58.5628C58.6379 50.8395 59.4437 51.6911 60.5819 51.6911C61.6343 51.6911 61.9684 51.1588 62.215 51.1588C62.3651 51.1588 62.4616 51.2546 62.4616 51.393C62.4616 51.7443 61.6557 52.2571 60.5604 52.2571C59.0131 52.2571 57.9178 51.0524 57.9178 49.5798C57.9178 48.1071 58.9595 46.9131 60.4318 46.9131C61.9791 46.9149 62.8815 48.1515 62.8815 49.3349ZM58.5628 49.2923H62.2471C62.1399 48.1515 61.3877 47.4684 60.4211 47.4684C59.4115 47.4684 58.6807 48.258 58.5628 49.2923Z" fill="#0055B8"/>
<path d="M64.247 44.791C64.4292 44.791 64.5686 44.9188 64.5686 45.1015V51.8436C64.5686 52.0246 64.4292 52.1523 64.247 52.1523C64.0647 52.1523 63.9361 52.0246 63.9361 51.8436V45.1015C63.9343 44.9188 64.0629 44.791 64.247 44.791Z" fill="#0055B8"/>
<path d="M70.8649 47.33V51.8419C70.8649 52.0229 70.7363 52.1506 70.554 52.1506C70.3611 52.1506 70.2324 52.0229 70.2324 51.8419V51.1162C69.8125 51.7993 69.1157 52.2571 68.2241 52.2571C66.7947 52.2571 65.7101 51.0843 65.7101 49.5798C65.7101 48.0859 66.7732 46.9131 68.2241 46.9131C69.1157 46.9131 69.8143 47.3495 70.2324 48.0326V47.3283C70.2324 47.1473 70.3611 47.0195 70.554 47.0195C70.7363 47.0213 70.8649 47.1491 70.8649 47.33ZM70.2324 49.5709C70.2324 48.4194 69.4266 47.5021 68.2991 47.5021C67.1717 47.5021 66.3444 48.4194 66.3444 49.5709C66.3444 50.7224 67.1717 51.6734 68.2991 51.6734C69.4266 51.6716 70.2324 50.7224 70.2324 49.5709Z" fill="#0055B8"/>
<path d="M73.9256 52.2592C72.7767 52.2592 71.9066 51.64 71.9066 51.2781C71.9066 51.1077 72.0245 51.0332 72.1746 51.0332C72.4533 51.0332 72.8089 51.7163 73.9792 51.7163C74.7422 51.7163 75.1817 51.3526 75.1817 50.8203C75.1817 49.4329 72.087 50.1053 72.087 48.2814C72.087 47.5025 72.7642 46.917 73.8917 46.917C74.8262 46.917 75.5891 47.3535 75.5891 47.6746C75.5891 47.8236 75.4819 47.9088 75.3425 47.9088C75.0531 47.9088 74.7082 47.4617 73.8488 47.4617C73.1502 47.4617 72.7106 47.8023 72.7106 48.2619C72.7106 49.5429 75.8053 48.9236 75.8053 50.7901C75.8053 51.6506 75.1085 52.2592 73.9256 52.2592Z" fill="#0055B8"/>
<path d="M82.9329 45.6891C82.9329 46.0848 83.2509 46.4006 83.6386 46.4006C84.0371 46.4006 84.3551 46.0848 84.3551 45.6891C84.3551 45.3041 84.0371 44.9883 83.6386 44.9883C83.2509 44.9883 82.9329 45.3041 82.9329 45.6891Z" fill="#FFD600"/>
<path d="M82.2397 49.5756C82.2397 51.1546 81.1301 52.2458 79.7865 52.2458C79.1146 52.2458 78.5911 51.9814 78.2177 51.5468V53.6652C78.2177 54.0467 77.9515 54.3217 77.5673 54.3217C77.1724 54.3217 76.9062 54.0467 76.9062 53.6652V47.647C76.9062 47.2655 77.1724 47.0012 77.5673 47.0012C77.9193 47.0012 78.1748 47.2247 78.2177 47.5636C78.5804 47.1396 79.1039 46.8965 79.7865 46.8965C81.1945 46.8965 82.2397 48.0515 82.2397 49.5756ZM80.9282 49.5862C80.9282 48.7594 80.3636 48.103 79.5738 48.103C78.7948 48.103 78.2177 48.7594 78.2177 49.5862C78.2177 50.3917 78.7948 51.0376 79.5738 51.0376C80.3618 51.0393 80.9282 50.3917 80.9282 49.5862Z" fill="#0055B8"/>
<path d="M83.6512 52.1401C83.267 52.1401 83.0008 51.8758 83.0008 51.4943V47.6478C83.0008 47.2663 83.267 47.002 83.6405 47.002C84.0353 47.002 84.3016 47.2663 84.3016 47.6478V51.4943C84.3016 51.874 84.0353 52.1401 83.6512 52.1401Z" fill="#0055B8"/>
<path d="M89.9995 49.0362V51.4935C89.9995 51.875 89.7332 52.1393 89.3491 52.1393C88.9649 52.1393 88.688 51.875 88.688 51.4935V49.2261C88.688 48.5377 88.2824 48.103 87.6534 48.103C87.0138 48.103 86.6189 48.5377 86.6189 49.2261V51.4935C86.6189 51.875 86.3527 52.1393 85.9685 52.1393C85.5843 52.1393 85.3181 51.875 85.3181 51.4935V47.647C85.3181 47.2655 85.5843 47.0012 85.9578 47.0012C86.3205 47.0012 86.5653 47.2141 86.6082 47.5423C86.928 47.1289 87.4301 46.8965 88.0483 46.8965C89.2312 46.8965 89.9995 47.7126 89.9995 49.0362Z" fill="#0055B8"/>
<path d="M93.8663 50.8779C94.2183 50.8779 94.3987 51.1104 94.3987 51.3658C94.3987 51.852 93.8663 52.2441 93.0229 52.2441C91.9669 52.2441 91.2951 51.6089 91.2951 50.3687V48.1758H90.8252C90.4839 48.1758 90.2498 47.9433 90.2498 47.5938C90.2498 47.2656 90.4839 47.0314 90.8252 47.0314H91.3058V46.343C91.3058 45.9509 91.572 45.6865 91.9455 45.6865C92.3404 45.6865 92.6066 45.9509 92.6066 46.343V47.0314H93.5679C93.8984 47.0314 94.1325 47.2638 94.1325 47.6045C94.1325 47.9433 93.8984 48.1758 93.5679 48.1758H92.628V50.5178C92.628 50.8992 92.7995 51.0376 93.0872 51.0376C93.3749 51.0376 93.6197 50.8779 93.8663 50.8779Z" fill="#0055B8"/>
<path d="M99.8016 47.6488V51.4953C99.8016 51.8768 99.5354 52.1411 99.1512 52.1411C98.7778 52.1411 98.5116 51.898 98.4901 51.5485C98.1274 51.9832 97.6039 52.2476 96.9321 52.2476C95.5777 52.2476 94.477 51.1564 94.477 49.5667C94.477 48.0409 95.5116 46.8965 96.9321 46.8965C97.6039 46.8965 98.1274 47.1396 98.4901 47.5636C98.533 47.2247 98.7885 47.0012 99.1512 47.0012C99.5354 47.0012 99.8016 47.2673 99.8016 47.6488ZM98.4901 49.5667C98.4901 48.7506 97.9237 48.1047 97.1465 48.1047C96.3567 48.1047 95.7814 48.7506 95.7814 49.5667C95.7814 50.3829 96.3585 51.0393 97.1465 51.0393C97.9237 51.0393 98.4901 50.3811 98.4901 49.5667Z" fill="#0055B8"/>
<path d="M104.288 47.5944C104.288 47.9758 104.022 48.2083 103.649 48.2083C103.445 48.2083 103.221 48.1444 102.923 48.1444C102.453 48.1444 102.144 48.4939 102.144 49.0351V51.4924C102.144 51.8738 101.878 52.1382 101.494 52.1382C101.109 52.1382 100.843 51.8738 100.843 51.4924V47.6458C100.843 47.2644 101.109 47 101.483 47C101.856 47 102.112 47.2324 102.144 47.5713C102.421 47.1792 102.848 46.8936 103.414 46.8936C103.84 46.8953 104.288 47.1171 104.288 47.5944Z" fill="#0055B8"/>
<path d="M43.4422 48.5585V51.9012C43.4422 52.0449 43.3368 52.1513 43.1974 52.1513C43.0527 52.1513 42.9454 52.0467 42.9454 51.9012V51.7238C42.7382 52.0165 42.4148 52.2063 42.0074 52.2063C41.282 52.2063 40.712 51.6138 40.712 50.81C40.712 50.0223 41.2587 49.419 42.0074 49.419C42.4148 49.419 42.74 49.5965 42.9454 49.8857V48.5603C42.9454 48.4166 43.0455 48.3155 43.1974 48.3155C43.3421 48.3137 43.4422 48.4148 43.4422 48.5585ZM42.9454 50.8083C42.9454 50.2866 42.5881 49.8768 42.0806 49.8768C41.5786 49.8768 41.2105 50.2866 41.2105 50.8083C41.2105 51.3246 41.5786 51.745 42.0806 51.745C42.5881 51.745 42.9454 51.3246 42.9454 50.8083Z" fill="#0055B8"/>
<path d="M46.9411 49.717V51.9064C46.9411 52.0501 46.8411 52.1513 46.6946 52.1513C46.5445 52.1513 46.4426 52.0519 46.4426 51.9064V51.7237C46.2372 52.0164 45.912 52.2063 45.5046 52.2063C44.7792 52.2063 44.2092 51.6137 44.2092 50.8099C44.2092 50.0222 44.7559 49.4189 45.5046 49.4189C45.912 49.4189 46.2372 49.5964 46.4426 49.8856V49.7188C46.4426 49.5751 46.5427 49.4757 46.6946 49.4757C46.8393 49.4722 46.9411 49.5733 46.9411 49.717ZM46.4426 50.8082C46.4426 50.2865 46.0853 49.8767 45.5778 49.8767C45.0758 49.8767 44.7059 50.2865 44.7059 50.8082C44.7059 51.3245 45.074 51.745 45.5778 51.745C46.0853 51.745 46.4426 51.3245 46.4426 50.8082Z" fill="#0055B8"/>
<path d="M49.4936 49.7009C49.4936 49.8393 49.3989 49.928 49.2542 49.928C49.1649 49.928 49.0648 49.8889 48.9022 49.8889C48.5949 49.8889 48.4001 50.1391 48.4001 50.5312V51.9062C48.4001 52.05 48.2947 52.1493 48.1535 52.1493C48.0035 52.1493 47.9016 52.05 47.9016 51.9062V49.7168C47.9016 49.5731 48.0017 49.4738 48.1482 49.4738C48.2929 49.4738 48.4001 49.5731 48.4001 49.7168V49.8055C48.5449 49.5784 48.7736 49.417 49.0755 49.417C49.2631 49.417 49.4936 49.5004 49.4936 49.7009Z" fill="#0055B8"/>
<path d="M50.6298 48.7182C50.6298 48.885 50.4905 49.0234 50.3225 49.0234C50.1492 49.0234 50.0152 48.885 50.0152 48.7182C50.0152 48.5515 50.1492 48.4131 50.3225 48.4131C50.4905 48.4149 50.6298 48.5532 50.6298 48.7182ZM50.3279 52.1514C50.1778 52.1514 50.0759 52.052 50.0759 51.9083V49.7189C50.0759 49.5752 50.176 49.4759 50.3207 49.4759C50.4655 49.4759 50.5727 49.5752 50.5727 49.7189V51.9083C50.5745 52.052 50.469 52.1514 50.3279 52.1514Z" fill="#0055B8"/>
<defs>
<linearGradient id="paint0_linear_12159_680614" x1="42.899" y1="45.6777" x2="44.2034" y2="-6.45905" gradientUnits="userSpaceOnUse">
<stop offset="1.24826e-07" stop-color="#8738FF"/>
<stop offset="0.5979" stop-color="#B892FF"/>
<stop offset="1" stop-color="#D7CBFF"/>
</linearGradient>
<linearGradient id="paint1_linear_12159_680614" x1="42.6672" y1="45.6724" x2="43.9716" y2="-6.46414" gradientUnits="userSpaceOnUse">
<stop offset="1.24826e-07" stop-color="#8738FF"/>
<stop offset="0.5979" stop-color="#B892FF"/>
<stop offset="1" stop-color="#D7CBFF"/>
</linearGradient>
<linearGradient id="paint2_linear_12159_680614" x1="49.0419" y1="-5.31374" x2="49.8819" y2="40.7399" gradientUnits="userSpaceOnUse">
<stop stop-color="#E9EB7B"/>
<stop offset="0.1842" stop-color="#EAE776" stop-opacity="0.8158"/>
<stop offset="0.4065" stop-color="#ECDD67" stop-opacity="0.5935"/>
<stop offset="0.6485" stop-color="#F0CB4F" stop-opacity="0.3515"/>
<stop offset="0.9029" stop-color="#F5B32D" stop-opacity="0.0971"/>
<stop offset="1" stop-color="#F7A81E" stop-opacity="0"/>
</linearGradient>
<linearGradient id="paint3_linear_12159_680614" x1="42.6672" y1="45.6724" x2="43.9716" y2="-6.46414" gradientUnits="userSpaceOnUse">
<stop offset="1.24826e-07" stop-color="#8738FF"/>
<stop offset="0.5979" stop-color="#B892FF"/>
<stop offset="1" stop-color="#D7CBFF"/>
</linearGradient>
<linearGradient id="paint4_linear_12159_680614" x1="42.4659" y1="45.6666" x2="43.7704" y2="-6.46994" gradientUnits="userSpaceOnUse">
<stop offset="1.24826e-07" stop-color="#8738FF"/>
<stop offset="0.5979" stop-color="#B892FF"/>
<stop offset="1" stop-color="#D7CBFF"/>
</linearGradient>
</defs>
</svg>
