<svg width="24" height="24" viewBox="0 0 24 24" fill="none" xmlns="http://www.w3.org/2000/svg">
<path d="M2.00001 10.5C2.00037 8.8809 2.5247 7.30536 3.49463 6.00888C4.46457 4.71241 5.82802 3.76464 7.3812 3.30722C8.93439 2.8498 10.5939 2.9073 12.1117 3.47113C13.6295 4.03495 14.9241 5.07482 15.8019 6.43532C16.6798 7.79581 17.0938 9.40387 16.9821 11.0192C16.8704 12.6344 16.239 14.1702 15.1822 15.3969C14.1254 16.6236 12.7 17.4754 11.119 17.8249C9.53806 18.1744 7.88644 18.0029 6.41101 17.336C5.15301 17.626 3.79801 17.876 3.17501 17.988C3.01579 18.0165 2.85205 18.0057 2.69792 17.9567C2.54379 17.9077 2.40392 17.8219 2.29039 17.7067C2.17687 17.5915 2.09311 17.4504 2.04635 17.2955C1.99958 17.1407 1.99123 16.9768 2.02201 16.818C2.14001 16.208 2.40201 14.9 2.70301 13.675C2.23849 12.6811 1.99847 11.5971 2.00001 10.5ZM8.14401 6.30704C7.70201 6.54304 7.35401 6.91004 7.09101 7.39704C7.00493 7.57102 6.98965 7.77159 7.04839 7.9566C7.10713 8.14161 7.23531 8.29663 7.40598 8.38909C7.57665 8.48155 7.77653 8.50424 7.96358 8.45239C8.15063 8.40053 8.3103 8.27818 8.40901 8.11104C8.55601 7.84104 8.70701 7.70704 8.85101 7.63104C9.00101 7.55004 9.20501 7.50104 9.50001 7.50104C9.72401 7.50104 9.98701 7.58004 10.18 7.73904C10.351 7.87904 10.5 8.10304 10.5 8.50004C10.5 8.69504 10.425 8.78504 9.91201 9.18804C9.46201 9.54204 8.75001 10.116 8.75001 11.25C8.75001 11.449 8.82903 11.6397 8.96968 11.7804C9.11033 11.921 9.3011 12 9.50001 12C9.69892 12 9.88969 11.921 10.0303 11.7804C10.171 11.6397 10.25 11.449 10.25 11.25C10.25 10.88 10.414 10.701 10.838 10.367L10.923 10.302C11.31 10.004 12 9.47504 12 8.50004C12 7.65204 11.649 7.00204 11.132 6.57804C10.6693 6.20594 10.0938 6.00245 9.50001 6.00104C9.04501 6.00104 8.57801 6.07504 8.14401 6.30704ZM10.5 14C10.5 13.7348 10.3947 13.4805 10.2071 13.2929C10.0196 13.1054 9.76522 13 9.50001 13C9.23479 13 8.98044 13.1054 8.7929 13.2929C8.60536 13.4805 8.50001 13.7348 8.50001 14C8.50001 14.2653 8.60536 14.5196 8.7929 14.7071C8.98044 14.8947 9.23479 15 9.50001 15C9.76522 15 10.0196 14.8947 10.2071 14.7071C10.3947 14.5196 10.5 14.2653 10.5 14ZM9.40001 19C10.7856 20.2882 12.6082 21.0029 14.5 21C15.5652 21.0015 16.6185 20.7751 17.589 20.336C18.849 20.626 20.21 20.876 20.837 20.986C20.9965 21.0142 21.1604 21.003 21.3146 20.9535C21.4688 20.904 21.6086 20.8176 21.7219 20.7019C21.8352 20.5861 21.9186 20.4445 21.9647 20.2893C22.0109 20.134 22.0186 19.9699 21.987 19.811C21.7796 18.7609 21.5495 17.7153 21.297 16.675C21.7417 15.723 21.9814 14.6882 22.0006 13.6376C22.0199 12.5871 21.8183 11.5442 21.4089 10.5765C20.9995 9.60877 20.3914 8.73785 19.6239 8.02012C18.8565 7.3024 17.9469 6.75386 16.954 6.41004C17.6688 7.71202 18.03 9.17858 18.0015 10.6636C17.973 12.1486 17.5559 13.6003 16.7917 14.8739C16.0276 16.1475 14.943 17.1987 13.6461 17.9226C12.3492 18.6466 10.8852 19.018 9.40001 19Z" fill="#0055B8"/>
</svg>
