<svg width="100" height="100" viewBox="0 0 100 100" fill="none" xmlns="http://www.w3.org/2000/svg">
<mask id="mask0_2388_47375" style="mask-type:alpha" maskUnits="userSpaceOnUse" x="0" y="0" width="100" height="100">
<rect width="100" height="100" fill="#D9D9D9"/>
</mask>
<g mask="url(#mask0_2388_47375)">
<path d="M68.7528 69.7067C73.1141 61.8332 68.3547 52.0224 59.4639 50.6246L56.0226 50.085C55.996 50.085 55.9783 50.0761 55.9518 50.0673L47.3706 48.7226L38.8337 47.1037C38.8071 47.0949 38.7895 47.0949 38.7629 47.0949L35.3393 46.4491C26.4927 44.7771 18.7166 52.4205 20.1763 61.3024C20.654 64.2041 21.2379 66.92 21.8837 69.4766C22.2199 70.9629 22.6976 72.6172 23.2549 74.3334C25.6435 82.0299 28.5274 88.0279 30.6949 92.9023C30.7745 93.0881 30.8718 93.2739 30.9602 93.4597C32.4111 96.5913 35.4101 98.4845 38.6656 99.0065C41.9123 99.6169 45.3713 98.8384 47.7864 96.379C47.9368 96.2375 48.0872 96.0959 48.2287 95.9456C51.9001 92.0885 56.633 87.3998 61.4721 80.9506C62.569 79.5175 63.5775 78.1197 64.3914 76.837C65.8688 74.643 67.3285 72.281 68.7528 69.7067Z" fill="#F89E1C"/>
<path d="M50.8649 84.1181C54.0939 79.8629 49.8564 75.8289 44.0088 77.9874C37.0377 80.5529 33.5699 78.2617 30.5532 70.5121C28.1027 64.2222 22.8302 64.8149 20.937 65.2661C21.2466 66.7523 21.574 68.1854 21.9278 69.5655C22.264 71.0517 22.7417 72.706 23.2991 74.4223C25.6876 82.1188 28.5716 88.1167 30.739 92.9912C30.8186 93.177 30.9159 93.3627 31.0044 93.5485C32.4552 96.6802 35.4542 98.5734 38.7097 99.0953C41.9564 99.7057 45.4154 98.9272 47.8305 96.4679C47.9809 96.3263 48.1313 96.1848 48.2729 96.0344C49.476 94.7782 50.7853 93.4247 52.1831 91.9561C49.7414 91.1069 47.7509 88.2317 50.8649 84.1181Z" fill="#032663"/>
<path d="M38.4797 99.2009C35.0384 98.6082 32.1809 96.5204 30.8274 93.601C30.739 93.4241 30.6416 93.2383 30.562 93.0437C30.2524 92.3448 29.9251 91.6105 29.5801 90.8586C27.6073 86.4884 25.1568 81.0477 23.1132 74.4482C22.5205 72.6258 22.0605 70.9804 21.742 69.5826C21.3882 68.1848 21.052 66.734 20.7512 65.2832L20.7158 65.1328L20.8662 65.0974C22.9894 64.5931 28.2 64.1154 30.6682 70.4407C33.7468 78.3584 37.2146 80.2958 43.9203 77.8187C47.4855 76.5006 50.2456 77.4914 51.4134 79.0573C52.475 80.4993 52.3069 82.419 50.9622 84.1971C49.5998 86.0018 49.1133 87.718 49.5556 89.1866C49.9183 90.3632 50.9091 91.3363 52.2007 91.7786L52.4396 91.8582L52.2715 92.0352C51.493 92.8579 50.7322 93.6452 50.0068 94.3972C49.4406 94.9899 48.8921 95.5561 48.3613 96.1134C48.2198 96.2638 48.0694 96.4142 47.919 96.5469C45.6277 98.8824 42.1776 99.8909 38.6566 99.2186C38.5947 99.2274 38.5416 99.2186 38.4797 99.2009ZM38.7097 98.9178C42.1245 99.5636 45.4773 98.5905 47.6978 96.3346C47.8482 96.193 47.9986 96.0515 48.1313 95.91C48.6621 95.3526 49.2106 94.7864 49.7768 94.1937C50.4491 93.4948 51.148 92.7606 51.8734 92.0086C50.5907 91.4955 49.6264 90.4959 49.2548 89.2927C48.9187 88.2046 48.901 86.3999 50.7145 84.0202L50.8384 84.1175L50.7145 84.0202C51.9707 82.357 52.1388 80.5789 51.1657 79.2607C50.0776 77.7922 47.4501 76.8722 44.0442 78.1284C37.2147 80.6496 33.5168 78.5972 30.3851 70.5646C28.0673 64.6108 23.2371 64.9116 21.1051 65.3805C21.397 66.7782 21.7155 68.1671 22.0605 69.5207C22.379 70.9184 22.839 72.5462 23.4229 74.3686C25.4664 80.9504 27.9081 86.3822 29.872 90.7436C30.2082 91.4955 30.5355 92.2209 30.854 92.9287C30.9336 93.1144 31.0221 93.2914 31.1194 93.4772C32.4464 96.3434 35.2861 98.387 38.7097 98.9178Z" fill="#10319B"/>
<path d="M38.8072 99.2631C38.7453 99.2543 38.6922 99.2454 38.6303 99.2278C35.1094 98.6793 32.1812 96.5649 30.8099 93.5925C30.7215 93.4156 30.6242 93.2298 30.5445 93.0352C30.2349 92.3363 29.9076 91.602 29.5626 90.8501C27.5898 86.4799 25.1393 81.0392 23.0957 74.4397C22.503 72.6173 22.043 70.9718 21.7245 69.5741C21.0433 66.8847 20.4683 64.1334 20.0171 61.391C19.3094 57.0916 20.6895 52.8806 23.8035 49.8463C26.8997 46.8207 31.1019 45.5645 35.3659 46.3607L38.7895 47.0065L38.8603 47.0154L47.3972 48.6343L55.9784 49.979L56.0226 49.9878L59.4905 50.5274C63.7722 51.1998 67.3109 53.8095 69.2129 57.6932C71.1237 61.6033 71.0087 66.0266 68.9032 69.8395C67.5586 72.2634 66.09 74.6697 64.5419 76.9787C63.7722 78.1906 62.7902 79.5795 61.6136 81.1011C57.4734 86.6302 53.3333 90.9297 50.0158 94.3798C49.4408 94.9726 48.8923 95.5476 48.3615 96.1049C48.22 96.2553 48.0696 96.4057 47.9192 96.5384C45.6456 98.8562 42.2574 99.8559 38.8072 99.2631ZM38.6922 98.9181C42.107 99.5639 45.4598 98.5908 47.6803 96.3349C47.8307 96.1934 47.9811 96.0518 48.1138 95.9103C48.6446 95.353 49.1931 94.7779 49.7681 94.1852C53.0856 90.7351 57.2169 86.4445 61.3482 80.9331C62.516 79.4115 63.498 78.0314 64.2588 76.8283C65.8069 74.5282 67.2666 72.1307 68.6113 69.7156C70.6725 65.9912 70.7787 61.6741 68.9209 57.8612C67.0631 54.0749 63.5953 51.5271 59.4374 50.8725L55.9961 50.3328L55.9518 50.324L47.3353 48.9704L38.7895 47.3515L38.7188 47.3427L35.2951 46.6969C31.1549 45.9184 27.0324 47.1481 24.0158 50.094C20.9814 53.0576 19.6367 57.1624 20.3268 61.3645C20.7779 64.0892 21.353 66.8405 22.0341 69.521C22.3526 70.9188 22.8126 72.5465 23.3965 74.3689C25.4401 80.9508 27.8817 86.3825 29.8457 90.7439C30.1818 91.4959 30.5091 92.2213 30.8276 92.929C30.9072 93.1148 30.9957 93.2917 31.093 93.4775C32.4288 96.3349 35.2686 98.3785 38.6922 98.9181Z" fill="#10319B"/>
<path d="M66.7713 56.6764C64.8958 54.3852 62.286 52.7574 59.1367 52.262L55.6777 51.7223C55.6512 51.7223 55.6334 51.7135 55.6069 51.7046L46.9815 50.3688L38.4003 48.7322C38.3738 48.7234 38.3561 48.7234 38.3296 48.7234L34.8883 48.0687C30.12 47.1575 26.9352 50.1476 23.9982 53.6951C23.3347 54.4913 23.6355 55.7298 24.5732 56.0925C32.4643 59.1181 50.7059 64.1252 66.7713 56.6764Z" fill="#E26907"/>
<path d="M29.3853 6.24137C31.3404 5.31248 33.6051 4.62245 36.0556 4.16243L35.9052 4.17128C35.9052 4.17128 44.0086 1.36692 55.0314 3.26893C66.0189 5.17094 72.813 10.4258 72.8572 10.4612C75.0777 11.7528 77.024 13.1859 78.5898 14.7518C86.1448 22.2979 83.19 35.1962 77.2982 46.8028C73.0077 55.2513 59.3132 57.0649 46.3618 54.6144C33.3397 52.562 21.043 46.2544 19.8398 36.8593C18.1855 23.9433 19.7248 10.815 29.3853 6.24137Z" fill="#F89E1C"/>
<path d="M40.3816 75.792C39.5589 75.6505 38.7716 75.3055 38.0815 74.7658C36.6219 73.6158 35.8965 71.8376 36.1619 69.9887L37.6658 59.4347C37.9312 57.5947 39.1166 56.0819 40.8417 55.383C42.5668 54.693 44.4688 54.9584 45.9373 56.1084L54.3858 62.7345C55.8012 63.8403 56.5178 65.5654 56.3054 67.3524C56.0931 69.1394 54.9962 70.6433 53.3684 71.3864C53.3153 71.413 53.2622 71.4307 53.2092 71.4572L53.1384 71.4838L43.1772 75.4912C42.266 75.854 41.3017 75.9513 40.3816 75.792ZM43.5222 55.7104C42.7171 55.5688 41.8767 55.6573 41.0717 55.9757C39.5589 56.5862 38.5239 57.9131 38.2939 59.5232L36.79 70.0772C36.56 71.6872 37.1881 73.2531 38.4708 74.2616C39.7536 75.2701 41.4167 75.5001 42.9295 74.8985L52.9526 70.8645C52.9968 70.8468 53.0411 70.8291 53.0942 70.8026C54.5185 70.1568 55.4739 68.8386 55.6597 67.2728C55.8454 65.7158 55.2173 64.203 53.9788 63.2388L45.5304 56.6127C44.9376 56.135 44.2476 55.8342 43.5222 55.7104Z" fill="#F89E1C"/>
<path d="M40.3287 75.8646C39.5148 75.723 38.7363 75.378 38.0463 74.8472C36.5954 73.706 35.8789 71.9367 36.1443 70.1143L37.6836 59.3038C37.9401 57.4814 39.1167 55.9775 40.8329 55.2875C42.5492 54.5974 44.4335 54.8717 45.8843 56.004L54.5451 62.7893C55.9429 63.8863 56.6594 65.6025 56.4471 67.363C56.2348 69.1323 55.1467 70.6274 53.5366 71.3617C53.4835 71.3882 53.4305 71.4059 53.3774 71.4324L53.3154 71.459L43.1065 75.5638C42.1953 75.9265 41.2399 76.0238 40.3287 75.8646ZM43.5489 55.2963C42.6907 55.1459 41.7972 55.2344 40.948 55.5794C39.3467 56.2252 38.2409 57.6318 37.9932 59.348L36.4539 70.1585C36.2062 71.8748 36.8785 73.5291 38.2409 74.5995C39.6033 75.6699 41.3726 75.9176 42.9738 75.2718L53.2447 71.1405C53.2978 71.1228 53.342 71.0963 53.3951 71.0786C54.9078 70.3885 55.9252 68.9908 56.1198 67.3276C56.3144 65.6733 55.6509 64.0721 54.3417 63.037L45.6809 56.2517C45.0439 55.7475 44.3097 55.429 43.5489 55.2963Z" fill="#10319B"/>
<path d="M29.3764 6.28654C30.4026 5.79998 31.5173 5.37535 32.6939 5.02148C23.2015 9.68362 21.6799 22.7588 23.3254 35.6129C24.5285 45.0256 36.8164 51.3421 49.8385 53.3945C57.2077 54.7834 64.8069 54.7922 70.7872 52.9875C64.4796 56.1015 55.2349 56.4377 46.3353 54.7568C33.3132 52.7044 21.0253 46.388 19.8221 36.9753C18.1678 24.0327 19.716 10.8779 29.3764 6.28654Z" fill="#F5851F"/>
<path d="M31.5 17.9015C26.4132 15.8933 27.5191 7.41832 27.5721 7.06445L28.2003 7.15292C28.1914 7.23254 27.1121 15.4864 31.73 17.3088L31.5 17.9015Z" fill="#F89E1C"/>
<path d="M71.4863 25.137L71.4155 24.5001C76.9269 23.8896 78.7051 15.4058 78.7228 15.3262L79.3509 15.45C79.2712 15.8216 77.4577 24.4735 71.4863 25.137Z" fill="#F4B821"/>
<path d="M54.1205 10.797C51.1657 10.2839 48.5825 8.84195 47.2644 6.93109C47.2202 6.86917 47.176 6.80724 47.1406 6.74531L44.8228 3.01207L45.6367 2.50781L47.9544 6.24106C47.9898 6.29414 48.0164 6.33837 48.0606 6.39145C49.3434 8.24038 51.9973 9.6116 55.0051 9.95661C57.9245 10.2928 60.6227 9.63814 62.2239 8.19615L64.7364 5.93143L65.3733 6.63916L62.8432 8.91272C61.0385 10.5316 58.0661 11.2836 54.8724 10.912C54.6247 10.8767 54.3682 10.8413 54.1205 10.797Z" fill="#F4B821"/>
<path d="M53.5189 14.2035C49.5999 13.5223 46.2825 11.5938 44.4247 8.90445C44.3539 8.80713 44.292 8.70982 44.2301 8.61251L44.1593 8.4975L40.9834 3.37535L41.7973 2.87109L45.044 8.09941C45.097 8.18787 45.159 8.27634 45.2209 8.36481C46.9371 10.8418 50.0246 12.6288 53.6959 13.2658C53.9967 13.3189 54.2975 13.3631 54.6071 13.3985C58.5527 13.8585 62.1709 12.9031 64.5329 10.7711L68.1246 7.54208L68.7616 8.2498L65.1699 11.4788C62.6044 13.7877 58.7119 14.8316 54.4921 14.3451C54.1559 14.3008 53.8374 14.2566 53.5189 14.2035Z" fill="#F4B821"/>
<path d="M77.6876 16.9549C76.1218 15.3802 74.1756 13.9294 71.9551 12.6378C71.9109 12.6024 65.1963 6.73716 54.2089 4.83515C46.9812 3.58778 40.4525 3.69394 36.7988 3.92395C39.1962 3.26046 46.1673 1.73 55.0227 3.26046C66.0102 5.16247 72.8043 10.4527 72.8486 10.4881C75.069 11.7797 77.0153 13.2305 78.5811 14.8052C85.3134 21.5817 83.6679 32.6576 79.0411 43.2734C82.9602 33.3388 83.9687 23.2802 77.6876 16.9549Z" fill="#F4B821"/>
<path d="M72.0704 24.8012L72.0615 24.4828C77.1571 24.3147 79.2007 15.6539 79.2184 15.5654L79.528 15.6362C79.4484 15.9989 77.4049 24.6243 72.0704 24.8012Z" fill="#10319B"/>
<path d="M64.8336 11.0894L68.4252 7.86044C67.4521 7.34734 66.3198 6.79885 65.037 6.26806L62.5246 8.53278C60.8261 10.0632 57.9863 10.771 54.9342 10.4171C51.8026 10.0544 49.0159 8.6124 47.6535 6.64846C47.6093 6.59538 47.5739 6.53345 47.5386 6.47153L45.2207 2.73828C43.7964 2.80905 42.5049 2.94175 41.3813 3.10099L44.5573 8.22315L44.628 8.33815C44.6899 8.43546 44.7519 8.52393 44.8138 8.62124C46.6008 11.2044 49.8387 13.0711 53.5985 13.7169C53.9081 13.7699 54.2177 13.8142 54.5362 13.8496C58.6144 14.3096 62.3742 13.3099 64.8336 11.0894Z" fill="#032663"/>
<path d="M32.0304 17.8756C27.0675 15.9116 27.9876 7.18894 28.0318 6.81738L28.3503 6.85277C28.3414 6.94123 27.4125 15.7082 32.1543 17.5748L32.0304 17.8756Z" fill="#10319B"/>
<path d="M46.3002 54.4824C39.8599 53.465 33.5965 51.4657 28.6159 48.5994C27.6074 47.0601 26.9174 45.1758 26.6874 43.0969C26.0946 37.7447 25.6788 30.3313 26.422 22.2101C26.7847 18.2115 29.6244 15.0267 32.9507 14.8144C37.4801 14.5225 44.3982 14.4782 52.3955 15.7256V15.7168C52.6166 15.7521 52.8378 15.7964 53.059 15.8406C53.2801 15.876 53.5013 15.9114 53.7313 15.9468V15.9556C61.6755 17.4595 68.0538 19.6004 72.2294 21.3962C75.2903 22.7144 77.0154 26.8988 76.0158 30.7824C73.9899 38.6824 71.1059 45.5297 68.7527 50.3687C67.8504 52.2177 66.6119 53.7304 65.1787 54.8362C59.4639 55.9155 52.7936 55.712 46.3002 54.4824Z" fill="#032663"/>
<path d="M69.3278 53.5087L67.9478 53.9776C68.3016 53.323 68.8944 52.2083 69.3013 51.4298C70.3806 49.3686 71.5925 47.0331 72.5922 45.4938C74.1934 43.0079 77.7144 41.5482 79.9791 40.8936L79.3775 42.2028C77.272 42.8133 74.8304 43.7864 73.3884 46.0157C72.4153 47.5196 71.2122 49.8286 70.1417 51.8721C69.7436 52.6595 69.6817 52.8541 69.3278 53.5087Z" fill="#F4B821"/>
<path d="M25.44 46.1303C25.378 46.1214 25.3161 46.0683 25.3073 45.9976C25.21 45.3429 25.1038 44.6264 24.9976 43.9009C24.6792 41.6805 24.3165 39.1592 23.8918 37.3279C23.2637 34.674 21.229 32.9135 19.327 31.5423C19.2562 31.4892 19.2385 31.3919 19.2916 31.3211C19.3447 31.2504 19.442 31.2327 19.5128 31.2857C21.4679 32.6923 23.5556 34.5059 24.2014 37.2572C24.6349 39.0973 24.9976 41.6274 25.3161 43.8567C25.4223 44.591 25.5196 45.2987 25.6258 45.9533C25.6346 46.0418 25.5815 46.1214 25.4931 46.1391C25.4754 46.1391 25.4577 46.1391 25.44 46.1303Z" fill="#F89E1C"/>
<path d="M79.4925 42.1758C78.8379 43.7328 78.1213 45.2809 77.3428 46.8114C75.7505 49.9608 72.8753 52.1989 69.2217 53.6409C70.5133 51.2347 71.7253 48.5099 73.0788 46.4133C74.6712 43.9716 77.4932 42.7597 79.4925 42.1758Z" fill="#032663"/>
<path d="M76.3693 46.8553C76.8824 45.9794 77.369 45.0859 77.8378 44.1836C76.7497 44.6436 75.5996 45.3779 74.7592 46.5368C73.8746 47.7664 73.0164 49.3234 72.1406 50.8008C73.9099 49.8808 75.3696 48.5803 76.3693 46.8553Z" fill="#0E51A0"/>
<path d="M69.4247 53.6766L69.1416 53.5262C69.5839 52.6946 70.0351 51.81 70.4597 50.9607C71.2736 49.3418 72.1141 47.6698 73.0076 46.2897C74.6088 43.8215 77.422 42.583 79.5098 41.9814L79.5982 42.2911C77.5635 42.8749 74.8211 44.0781 73.273 46.4667C72.3883 47.829 71.5567 49.4922 70.7428 51.1023C70.3094 51.9604 69.867 52.845 69.4247 53.6766Z" fill="#10319B"/>
<path d="M19.2915 31.7637C19.3888 33.4534 19.5392 35.1519 19.7515 36.8504C20.1939 40.3537 22.149 43.4234 25.1037 46.0155C24.6968 43.3173 24.4667 40.3448 23.9006 37.912C23.2282 35.0723 20.9724 32.9845 19.2915 31.7637Z" fill="#032663"/>
<path d="M47.1849 54.8975C46.893 54.8444 46.6099 54.8001 46.3268 54.7471C34.8528 52.9424 20.9991 47.1744 19.6809 36.8682C18.4955 27.6412 18.1771 11.3724 29.3149 6.09984L29.3856 6.24139L29.3149 6.09984C31.2611 5.1798 35.7905 4.04744 35.9852 4.00321C36.0471 3.97667 44.1152 1.22539 55.0584 3.11855C66.0281 5.02056 72.893 10.2843 72.9549 10.3373C75.2285 11.6555 77.1659 13.1063 78.7052 14.6368C87.4279 23.3418 81.6599 38.5579 77.4401 46.8559C72.8488 55.8883 58.4731 56.8525 47.1849 54.8975ZM46.3799 54.4286C46.663 54.4817 46.946 54.5347 47.238 54.579C58.4289 56.5164 72.6453 55.5875 77.157 46.7055C81.3326 38.4871 87.0563 23.4214 78.4752 14.8579C76.9624 13.3452 75.0427 11.912 72.778 10.5939C72.6895 10.532 65.8954 5.30365 55.0053 3.41933C44.1505 1.54386 36.1621 4.2686 36.0825 4.29514C36.0206 4.31284 31.3761 5.46289 29.4564 6.37409C18.5043 11.5582 18.8317 27.6766 19.9994 36.8151C21.2999 46.9533 35.0209 52.6416 46.3799 54.4286Z" fill="#10319B"/>
<path d="M46.6095 53.1276C41.0893 52.2606 35.7017 50.6151 31.2784 48.2973C30.5884 47.9346 30.0222 47.3861 29.6684 46.6961C29.0757 45.5372 28.6687 44.2191 28.5006 42.7948C27.9344 37.9734 27.5186 31.2854 28.1821 23.9781C28.5094 20.3776 31.1104 17.5113 34.1713 17.3344C38.3468 17.0867 44.7164 17.069 52.0855 18.2279V18.219C52.289 18.2544 52.4925 18.2898 52.6959 18.334C52.8994 18.3694 53.1029 18.396 53.3152 18.4314V18.4402C60.6402 19.8203 66.6381 21.9877 70.4864 23.6154C73.3084 24.8097 74.8035 28.3837 73.9012 31.887C72.0611 38.9996 69.4336 45.1568 67.2751 49.5093C66.6469 50.7832 65.8331 51.8713 64.8953 52.7648C64.3557 53.2691 63.6745 53.5876 62.9402 53.6937C57.9242 54.428 52.2006 54.1803 46.6095 53.1276Z" fill="#FCE8CA"/>
<path d="M45.3182 54.3845C38.9664 53.2876 33.1896 51.3059 28.554 48.6343L28.5186 48.6166L28.5009 48.5812C27.4482 46.9711 26.7758 45.0426 26.5547 42.999C26.0062 38.0715 25.5196 30.4458 26.2981 22.0327C26.6697 17.9456 29.5448 14.69 32.9773 14.4689C37.5952 14.1681 57.8361 14.46 72.4506 21.2984C75.5823 22.7669 77.1924 26.7921 76.2016 30.6581C74.1049 38.8323 71.0794 45.8653 68.9208 50.3151C68.0362 52.1287 66.7888 53.6945 65.3026 54.8534L65.2761 54.8799L65.2407 54.8888C59.7469 55.9327 53.0236 55.8088 46.3179 54.5438C45.964 54.4995 45.6367 54.4465 45.3182 54.3845ZM46.3444 54.2341C53.0059 55.4904 59.6673 55.6142 65.1168 54.588C66.55 53.4645 67.7619 51.9429 68.6201 50.1913C70.7786 45.7503 73.7953 38.7438 75.8831 30.5961C76.8385 26.8717 75.2992 22.9969 72.3091 21.5992C57.7565 14.7962 37.5952 14.5043 32.995 14.7962C29.7129 15.0085 26.9705 18.1313 26.6078 22.0681C25.8381 30.4457 26.3247 38.0626 26.8643 42.9636C27.0855 44.9453 27.7313 46.8207 28.7398 48.3777C33.5081 51.1202 39.7538 53.1991 46.3444 54.2341Z" fill="#10319B"/>
<path d="M24.9974 45.8829C24.8559 44.9805 24.7409 44.0428 24.6259 43.1316C24.3959 41.3535 24.1658 39.5134 23.7854 37.9121C23.1308 35.1432 20.9545 33.0908 19.2383 31.8523L19.4241 31.5957C21.1845 32.8608 23.4227 34.9751 24.0951 37.8414C24.4755 39.4603 24.7143 41.3092 24.9355 43.0962C25.0505 43.9986 25.1655 44.9363 25.307 45.8387L24.9974 45.8829Z" fill="#10319B"/>
<path d="M20.6272 50.0138C19.2914 46.5106 15.5228 38.5045 7.10084 31.8872C6.27811 31.2414 5.08383 31.8872 5.16345 32.9311L5.22535 33.745C5.83576 41.99 11.5152 48.9876 19.4595 51.2877C20.2203 51.5001 20.9103 50.757 20.6272 50.0138Z" fill="#F5851F"/>
<path d="M19.4598 51.2791C20.2206 51.5003 20.9106 50.7572 20.6275 50.014C19.4509 46.9354 16.39 40.3713 9.94971 34.3291C14.9392 40.3625 17.372 48.1563 18.0974 50.8279C18.5397 50.996 18.9909 51.1464 19.4598 51.2791Z" fill="#F89E1C"/>
<path d="M10.5951 35.6469C10.887 35.3904 11.117 35.2931 11.1524 35.2754L11.409 35.8593L11.2851 35.5673L11.4178 35.8593C11.3824 35.877 7.94112 37.7436 10.9401 46.0859L10.0024 45.2543C7.7111 38.6282 9.59543 36.5139 10.5951 35.6469Z" fill="#F89E1C"/>
<path d="M9.05631 33.5149C9.05631 33.5149 5.44692 34.4526 6.84467 39.9994C6.84467 39.9994 4.3057 33.7891 5.68577 31.9225C5.69461 31.9225 6.58812 30.7194 9.05631 33.5149Z" fill="#032663"/>
<path d="M5.4645 31.808C5.54412 31.7373 5.62373 31.6842 5.72104 31.6311C6.20761 31.3745 6.76496 31.4276 7.19844 31.7638C15.7531 38.4872 19.5394 46.7322 20.7779 49.9612C20.9283 50.3593 20.8487 50.8016 20.5567 51.1201C20.2648 51.4385 19.8313 51.5624 19.4155 51.4385C11.4448 49.1296 5.68567 42.0258 5.06641 33.7543L5.00446 32.9404C4.96908 32.4981 5.14603 32.0823 5.4645 31.808ZM20.2471 50.9697C20.2737 50.952 20.3002 50.9254 20.3179 50.8989C20.5302 50.6689 20.5921 50.3593 20.4771 50.0673C19.2563 46.8649 15.4965 38.6818 7.0038 32.0026C6.67647 31.7461 6.24301 31.7107 5.87145 31.9053C5.4999 32.1 5.28756 32.4892 5.32295 32.905L5.38489 33.7189C5.98646 41.8577 11.6659 48.8553 19.504 51.1201C19.7694 51.2085 20.0436 51.1466 20.2471 50.9697Z" fill="#10319B"/>
<path d="M7.92367 34.0277C8.48985 33.5412 8.99413 33.3643 9.01183 33.3643L9.1091 33.665C8.96756 33.7093 5.69435 34.8505 6.91518 39.9992L6.60555 40.07C5.79166 36.6286 6.95055 34.8682 7.92367 34.0277Z" fill="#10319B"/>
<path d="M10.3833 35.602C10.6664 35.3543 10.8876 35.257 10.9229 35.2393L11.0468 35.5312C11.0114 35.5489 7.52588 37.159 10.1445 45.2005L9.84369 45.2978C7.7559 38.8752 9.42791 36.4247 10.3833 35.602Z" fill="#10319B"/>
<path d="M72.769 57.394C75.8564 55.2708 83.5087 50.8298 94.2042 50.1663C95.2481 50.1044 95.8673 51.3164 95.2127 52.1214L94.6996 52.7584C89.5066 59.1987 80.8636 61.7288 73.0167 59.1014C72.2559 58.8537 72.1143 57.8452 72.769 57.394Z" fill="#F89E1C"/>
<path d="M73.9987 57.9502C74.0164 57.9502 74.0253 57.9591 74.043 57.9591C76.98 58.7818 80.1471 57.6406 81.9164 55.1547C82.5003 54.332 82.9692 53.4031 83.1815 52.3857C78.5547 53.6066 75.2904 55.7386 73.7864 56.8709C73.3883 57.1717 73.5033 57.8087 73.9987 57.9502Z" fill="#F4B821"/>
<path d="M78.8818 60.0556C84.8886 60.1352 90.7627 57.5343 94.6995 52.7572L95.2126 52.1291C95.2745 52.0494 95.3187 51.9698 95.363 51.8902L94.8764 50.3597C94.6906 50.2536 94.4695 50.2005 94.2218 50.2182C93.1425 50.289 92.1074 50.3951 91.0901 50.5367C90.2674 55.9773 82.6859 58.9144 78.8818 60.0556Z" fill="#F5851F"/>
<path d="M89.2233 51.3415C89.5595 52.6331 89.4799 55.6143 83.9685 59.6484L82.8804 59.7191C90.5592 54.4112 88.4272 51.0318 88.4006 51.0053L88.9314 50.6426C88.958 50.6691 89.1083 50.9168 89.2233 51.3415Z" fill="#F89E1C"/>
<path d="M91.6655 50.3865C91.6655 50.3865 94.1071 53.2085 89.7988 56.9771C89.7988 56.9771 95.4164 53.3147 95.3368 50.988C95.3368 50.9969 95.2837 49.5018 91.6655 50.3865Z" fill="#032663"/>
<path d="M95.593 51.032C95.6991 51.4478 95.6107 51.8813 95.3364 52.2263L94.8234 52.8633C89.6127 59.3213 80.8281 61.8868 72.9635 59.2593C72.5566 59.1266 72.2646 58.7728 72.2027 58.3481C72.1408 57.9235 72.3265 57.5077 72.6804 57.2689C75.529 55.3138 83.3317 50.687 94.1952 50.0147C94.7349 49.9793 95.2303 50.2624 95.4868 50.749C95.5311 50.8374 95.5664 50.9347 95.593 51.032ZM72.5388 58.4012C72.6096 58.6666 72.7954 58.8701 73.0608 58.9586C80.8016 61.5418 89.4446 59.0205 94.5668 52.6598L95.0799 52.0229C95.3453 51.6955 95.3895 51.2621 95.1949 50.8817C95.0003 50.5101 94.6287 50.2978 94.2129 50.3243C83.429 50.9967 75.6882 55.588 72.8573 57.5254C72.6008 57.7023 72.4769 57.9854 72.5212 58.2951C72.5212 58.3305 72.53 58.3658 72.5388 58.4012Z" fill="#10319B"/>
<path d="M92.3111 51.4578C92.6384 52.7052 92.5854 54.8106 89.958 57.1815L89.7456 56.9427C93.6823 53.3952 91.6299 50.5997 91.5415 50.4847L91.798 50.29C91.798 50.3077 92.1165 50.7324 92.3111 51.4578Z" fill="#10319B"/>
<path d="M89.3917 51.3594C89.7101 52.5803 89.6924 55.5527 84.3137 59.6487L84.1191 59.3921C90.8691 54.2434 88.8963 50.9525 88.8786 50.9171L89.144 50.749C89.1705 50.7844 89.2943 50.9967 89.3917 51.3594Z" fill="#10319B"/>
<path d="M41.3902 73.4746C40.7621 73.3684 40.1605 73.103 39.6297 72.6872C38.515 71.8114 37.9666 70.4491 38.1612 69.0425L39.2847 61.1425C39.4882 59.7359 40.3905 58.577 41.7086 58.0462C43.0268 57.5154 44.4865 57.7189 45.6011 58.6035L51.9264 63.5664C53.0057 64.4157 53.5542 65.7339 53.3949 67.0962C53.2357 68.4586 52.3953 69.6086 51.1479 70.1837C51.1125 70.2014 51.0683 70.2191 51.0241 70.2368L50.971 70.2544L43.5134 73.2534C42.8233 73.5188 42.0891 73.5984 41.3902 73.4746ZM43.7345 58.4443C43.1418 58.3381 42.5314 58.4089 41.9475 58.6389C40.8417 59.0812 40.0809 60.0544 39.9128 61.231L38.7893 69.1309C38.6212 70.3075 39.0812 71.4487 40.019 72.183C40.9567 72.9173 42.1775 73.0942 43.2833 72.643L50.7852 69.6263C50.8206 69.6086 50.856 69.5998 50.8825 69.5821C51.9264 69.1044 52.6253 68.149 52.758 67.0078C52.8907 65.8666 52.4395 64.7696 51.5283 64.0619L45.203 59.0989C44.7695 58.7539 44.2653 58.5328 43.7345 58.4443Z" fill="#F89E1C"/>
<path d="M50.8473 69.8481C50.8827 69.8304 50.918 69.8127 50.9534 69.8038C53.3155 68.7246 53.7313 65.4956 51.6523 63.8678L45.4686 59.0199C43.3277 57.339 40.1784 58.6129 39.7891 61.3023L38.6921 69.0253C38.3117 71.7147 40.9834 73.8113 43.5047 72.8028L50.7942 69.8746C50.8208 69.8658 50.8385 69.8569 50.8473 69.8481Z" fill="#032663"/>
<path d="M48.2019 68.1762C48.2196 68.1674 48.2461 68.1585 48.2638 68.1497C49.5996 67.5393 49.8296 65.7257 48.6619 64.8057L45.1763 62.081C43.9732 61.1344 42.195 61.8509 41.9739 63.3637L41.3546 67.7162C41.1423 69.229 42.6462 70.4144 44.0705 69.8394L48.1753 68.1851C48.1842 68.1851 48.193 68.1851 48.2019 68.1762Z" fill="#33FCFE"/>
<path d="M74.8921 41.3088L79.3331 39.6545C79.3331 39.6545 82.4913 28.2601 79.6604 22.3418L78.0061 25.4823C77.9972 25.4823 79.2977 28.2955 74.8921 41.3088Z" fill="#F4B821"/>
<path d="M67.585 59.8613C66.3111 60.8875 59.5789 62.8868 59.5789 62.8868C59.5789 62.8868 61.4278 64.8508 60.8793 68.2302C60.4724 70.7603 57.7034 72.6004 57.7034 72.6004C59.4639 75.1659 57.9954 78.8814 55.8988 81.5354C53.8021 84.1894 55.0583 85.2863 55.0583 85.2863C55.0583 85.2863 66.7358 73.0339 68.8943 65.3904C69.7701 62.2853 67.585 59.8613 67.585 59.8613Z" fill="#F4B821"/>
<path d="M23.1484 67.2744C23.1484 67.2744 25.6255 67.2833 26.634 69.141C27.6425 70.99 32.8177 86.7811 35.4982 92.5667C35.9848 93.6106 37.0818 97.0962 39.0369 96.7777C39.0369 96.7777 36.2237 97.7862 33.1008 93.3364C29.9868 88.8777 24.5639 72.2373 23.1484 67.2744Z" fill="#0E51A0"/>
<path d="M31.9423 38.1333C31.8627 38.1156 31.7831 38.0979 31.7035 38.0625C31.1373 37.8236 30.8719 37.169 31.1107 36.6028C32.3227 33.7188 35.1182 32.2061 38.2322 32.7457C41.2666 33.2677 43.5578 35.8155 43.6905 38.7879C43.7171 39.4072 43.2394 39.9203 42.6201 39.9468C42.0008 39.9733 41.4877 39.4956 41.4612 38.8764C41.3904 37.2132 40.1254 35.3289 37.8518 34.9308C35.764 34.5681 33.9682 35.5324 33.1631 37.4521C32.9508 37.9475 32.4377 38.2129 31.9423 38.1333Z" fill="#0E51A0"/>
<path d="M54.2797 41.9907C54.2001 41.973 54.1205 41.9553 54.0409 41.9199C53.4747 41.6811 53.2093 41.0264 53.4481 40.4602C54.6601 37.5763 57.4556 36.0635 60.5696 36.6031C63.604 37.1251 65.8952 39.6729 66.0279 42.6453C66.0545 43.2646 65.5768 43.7865 64.9575 43.8131C64.3382 43.8396 63.8163 43.3619 63.7897 42.7426C63.719 41.0795 62.4539 39.1952 60.1804 38.7971C58.0926 38.4344 56.2967 39.3986 55.4917 41.3183C55.2882 41.8138 54.7839 42.0792 54.2797 41.9907Z" fill="#0E51A0"/>
<path d="M49.0957 45.6617C49.2903 45.6971 49.3965 45.9006 49.3168 46.0775C49.0514 46.6525 48.4233 46.9975 47.7687 46.8914C47.114 46.7764 46.6452 46.2367 46.5833 45.6086C46.5656 45.414 46.7425 45.2636 46.9283 45.2902L49.0957 45.6617Z" fill="#032663"/>
<path d="M35.5959 27.9782C35.649 27.9782 35.7109 27.9606 35.764 27.9252C36.5336 27.4563 37.4537 27.3767 38.2941 27.7128C38.4799 27.7836 38.6833 27.6952 38.7541 27.5182C38.8249 27.3324 38.7365 27.129 38.5595 27.0582C37.5156 26.6424 36.3656 26.7397 35.4013 27.3236C35.2332 27.4298 35.1801 27.6421 35.2863 27.8102C35.3394 27.9252 35.4632 27.9871 35.5959 27.9782Z" fill="#032663"/>
<path d="M63.5954 32.8246C63.5423 32.8069 63.4981 32.7715 63.4539 32.7184C62.8877 32.0195 62.0472 31.6303 61.1449 31.6657C60.9503 31.6745 60.7822 31.5241 60.7733 31.3207C60.7645 31.126 60.9149 30.958 61.1184 30.9491C62.2419 30.9049 63.2946 31.3826 64.0023 32.2584C64.1262 32.4088 64.0997 32.63 63.9493 32.7538C63.852 32.8511 63.7104 32.8688 63.5954 32.8246Z" fill="#032663"/>
<path d="M94.0272 55.9675C93.974 55.9142 93.974 55.8344 94.0272 55.7811C94.0805 55.7279 94.1603 55.7279 94.2135 55.7811C94.2667 55.8344 94.2667 55.9142 94.2135 55.9675C94.1692 56.0207 94.0805 56.0207 94.0272 55.9675Z" fill="white"/>
<path d="M82.9872 16.778C82.934 16.7248 82.934 16.6449 82.9872 16.5917C83.0404 16.5384 83.1203 16.5384 83.1735 16.5917C83.2268 16.6449 83.2268 16.7248 83.1735 16.778C83.1203 16.8312 83.0404 16.8312 82.9872 16.778Z" fill="white"/>
</g>
</svg>
