<svg width="100" height="100" viewBox="0 0 100 100" fill="none" xmlns="http://www.w3.org/2000/svg">
<mask id="mask0_4149_35760" style="mask-type:alpha" maskUnits="userSpaceOnUse" x="0" y="0" width="100" height="100">
<rect width="100" height="100" fill="#D9D9D9"/>
</mask>
<g mask="url(#mask0_4149_35760)">
<path d="M74.6315 65.5299C77.5652 57.089 71.2499 48.2967 62.317 48.4372L58.8563 48.4899C58.83 48.4899 58.8124 48.4899 58.7861 48.4899L50.1607 48.6304L41.5353 48.4899C41.5089 48.4899 41.4913 48.4899 41.465 48.4899L38.0043 48.4372C29.0714 48.2967 22.7561 57.089 25.6898 65.5299C26.6472 68.2879 27.6749 70.8527 28.7465 73.2331C29.3262 74.6296 30.0728 76.1668 30.9072 77.7566C34.5436 84.8888 38.382 90.2643 41.3244 94.6648C41.4386 94.8317 41.5616 94.9986 41.6846 95.1567C43.6345 97.9762 46.8844 99.3201 50.1694 99.2762C53.4457 99.3289 56.7044 97.9762 58.6543 95.1567C58.7773 94.9986 58.9003 94.8317 59.0144 94.6648C61.9569 90.2643 65.7953 84.8888 69.4317 77.7566C70.2661 76.1668 71.0127 74.6384 71.5924 73.2331C72.6464 70.8439 73.6741 68.2879 74.6315 65.5299Z" fill="#F89E1C"/>
<path d="M59.5674 82.6491C62.0004 77.9411 57.1783 74.7088 51.8203 77.8094C45.4347 81.4985 41.6578 79.8384 37.3978 72.7764C33.9371 67.032 28.8778 68.5164 27.1035 69.2718C27.6569 70.6684 28.219 72.0211 28.7987 73.3122C29.3784 74.7088 30.125 76.2459 30.9595 77.8357C34.5958 84.9679 38.4342 90.3435 41.3767 94.744C41.4909 94.9109 41.6139 95.0778 41.7368 95.2359C43.6868 98.0554 46.9367 99.3993 50.2217 99.3553C53.498 99.408 56.7566 98.0554 58.7066 95.2359C58.8296 95.0778 58.9525 94.9109 59.0667 94.744C60.0241 93.3035 61.0869 91.7664 62.1936 90.0887C59.6464 89.6759 57.2134 87.199 59.5674 82.6491Z" fill="#032663"/>
<path d="M50.003 99.5053C46.5335 99.5053 43.389 97.9506 41.5708 95.3156C41.4478 95.1575 41.3248 94.9906 41.2107 94.8149C40.7891 94.1825 40.3411 93.5237 39.8843 92.8474C37.2142 88.9036 33.9028 84.0024 30.7846 77.8891C29.8975 76.2026 29.1685 74.6743 28.6151 73.3568C28.0266 72.048 27.4557 70.6866 26.9199 69.3164L26.8672 69.1758L27.0077 69.1143C29.0016 68.2623 34.017 66.9097 37.4952 72.6892C41.8519 79.9181 45.5673 81.218 51.707 77.6695C54.9744 75.781 57.8466 76.2817 59.2432 77.6168C60.5256 78.8465 60.6925 80.7525 59.6736 82.72C58.6459 84.7139 58.4615 86.4793 59.1466 87.832C59.6999 88.9212 60.833 89.7029 62.1769 89.9225L62.4228 89.9576L62.2823 90.1596C61.6587 91.0995 61.0526 91.9954 60.4641 92.8562C60.0074 93.5325 59.5682 94.1825 59.1466 94.8061C59.0324 94.9818 58.9094 95.1487 58.7865 95.3068C56.9419 97.977 53.7359 99.5492 50.1786 99.4877C50.1171 99.5053 50.0557 99.5053 50.003 99.5053ZM50.1786 99.1891C53.6305 99.2418 56.7399 97.731 58.5317 95.1399C58.6547 94.973 58.7777 94.8149 58.8831 94.648C59.3047 94.0156 59.7439 93.3656 60.2006 92.6893C60.7452 91.89 61.2985 91.0555 61.8783 90.1948C60.5344 89.9137 59.4189 89.0968 58.8567 87.9813C58.3473 86.9712 58.0223 85.2145 59.3925 82.5795L59.5331 82.6497L59.3925 82.5795C60.3411 80.7437 60.2094 78.9782 59.0236 77.8539C57.7061 76.5979 54.9832 76.1411 51.8651 77.9506C45.6112 81.5694 41.6411 80.1903 37.2229 72.8649C33.9467 67.4367 29.2739 68.5434 27.2712 69.3603C27.7895 70.6778 28.3428 71.9865 28.905 73.2514C29.4495 74.5689 30.1786 76.0797 31.0657 77.7661C34.1751 83.8619 37.4865 88.7543 40.1479 92.6893C40.6046 93.3656 41.0526 94.0244 41.4742 94.6568C41.5883 94.8237 41.7025 94.9818 41.8255 95.1487C43.6173 97.731 46.7443 99.2506 50.1786 99.1891Z" fill="#10319B"/>
<path d="M50.328 99.5046C50.2665 99.5046 50.2138 99.5046 50.1523 99.5046C46.6213 99.5573 43.389 97.9939 41.5444 95.3149C41.4215 95.1568 41.2985 94.9899 41.1843 94.8142C40.7627 94.1818 40.3148 93.5231 39.858 92.8467C37.1878 88.9029 33.8764 84.0018 30.7583 77.8884C29.8712 76.202 29.1421 74.6737 28.5888 73.3561C27.4645 70.8353 26.4368 68.2441 25.5321 65.6442C24.1092 61.5599 24.7504 57.2033 27.28 53.7074C29.8009 50.2291 33.7008 48.2792 38.0047 48.3407L41.4566 48.3934H41.5269L50.1523 48.5339L58.7777 48.3934H58.8216L62.3087 48.3407C66.6126 48.2704 70.5125 50.2291 73.0333 53.7074C75.563 57.2033 76.2042 61.5599 74.7812 65.6442C73.8765 68.2441 72.8489 70.8441 71.7246 73.3649C71.18 74.6824 70.451 76.2108 69.5551 77.8972C66.4369 84.0017 63.1167 88.9117 60.4553 92.8555C59.9986 93.5319 59.5506 94.1906 59.129 94.823C59.0148 94.9987 58.8919 95.1656 58.7689 95.3237C56.9507 97.95 53.8062 99.5046 50.328 99.5046ZM50.1523 99.1884C53.6042 99.2411 56.7136 97.7304 58.5054 95.1392C58.6284 94.9724 58.7513 94.8142 58.8567 94.6474C59.2784 94.0149 59.7263 93.3562 60.1831 92.6799C62.8445 88.7448 66.1558 83.8436 69.2652 77.7567C70.1523 76.079 70.8726 74.5595 71.4259 73.2507C72.5502 70.7386 73.5779 68.1475 74.4738 65.5564C75.8616 61.5687 75.238 57.3174 72.7698 53.9094C70.3104 50.519 66.4896 48.613 62.3087 48.6745L58.8567 48.7272H58.8128L50.1611 48.8677L41.5269 48.7272H41.4566L37.9959 48.6745C33.815 48.613 29.9941 50.519 27.5347 53.9094C25.0666 57.3262 24.4429 61.5687 25.8307 65.5564C26.7267 68.1475 27.7543 70.7386 28.8786 73.2507C29.4232 74.5683 30.1522 76.079 31.0394 77.7655C34.1487 83.8612 37.4601 88.7536 40.1215 92.6886C40.5783 93.365 41.0262 94.0237 41.4478 94.6562C41.562 94.823 41.6762 94.9811 41.7992 95.148C43.5998 97.7304 46.7267 99.2499 50.1523 99.1884Z" fill="#10319B"/>
<path d="M70.4871 53.1108C68.2648 51.1872 65.4366 50.0278 62.2745 50.0892L58.805 50.1507C58.7786 50.1507 58.7611 50.1507 58.7347 50.1507L50.0654 50.3L41.3961 50.1507C41.3697 50.1507 41.3522 50.1507 41.3258 50.1507L37.8563 50.0892C33.043 50.0102 30.4255 53.4709 28.1593 57.4323C27.6499 58.3282 28.1505 59.4876 29.1255 59.6808C37.3381 61.3058 56.0206 63.124 70.4871 53.1108Z" fill="#E26907"/>
<path d="M47.903 76.2815C47.0774 76.2815 46.243 76.0795 45.4788 75.6667C43.8539 74.7883 42.8525 73.1634 42.791 71.3188L42.4748 60.7435C42.4221 58.899 43.3268 57.2125 44.8991 56.2463C46.4713 55.2714 48.3774 55.2187 50.0023 56.097L59.3919 61.1475C60.9641 61.9907 61.9567 63.5542 62.0533 65.3373C62.1499 67.1203 61.3243 68.7804 59.8574 69.7817C59.8135 69.8169 59.7608 69.8432 59.7169 69.8783L59.6554 69.9135L50.5908 75.5174C49.7564 76.018 48.8253 76.2815 47.903 76.2815ZM47.5781 56.1058C46.77 56.1058 45.9531 56.3342 45.2241 56.7821C43.8451 57.6341 43.0546 59.1098 43.1073 60.7259L43.4235 71.3013C43.4762 72.9174 44.3545 74.3404 45.7774 75.1045C47.2004 75.8687 48.878 75.8248 50.2482 74.9728L59.3743 69.3338C59.4182 69.3074 59.4621 69.2811 59.4973 69.2547C60.7797 68.3764 61.4999 66.9271 61.4121 65.3636C61.333 63.8089 60.4635 62.4387 59.0845 61.7009L49.6949 56.6504C49.0273 56.2815 48.2983 56.1058 47.5781 56.1058Z" fill="#F89E1C"/>
<path d="M47.8601 76.3608C47.0433 76.3608 46.2176 76.1587 45.4534 75.7459C43.8373 74.8763 42.8447 73.269 42.792 71.4332L42.467 60.5944C42.4143 58.7674 43.3103 57.0985 44.8649 56.1323C46.4196 55.1662 48.3169 55.1135 49.933 55.983L59.551 61.1653C61.1057 61.9997 62.0894 63.5544 62.186 65.3199C62.2826 67.0854 61.4658 68.7367 60.0165 69.7292C59.9726 69.7643 59.9199 69.7907 59.876 69.8258L59.8145 69.861L50.5215 75.6054C49.6959 76.106 48.7824 76.3608 47.8601 76.3608ZM47.5263 55.6932C46.6656 55.6932 45.8048 55.9303 45.0318 56.4134C43.5738 57.3181 42.7305 58.8816 42.7833 60.5944L43.1082 71.4332C43.1609 73.146 44.092 74.6568 45.6028 75.4736C47.1135 76.2905 48.8878 76.2378 50.3546 75.3331L59.7003 69.5535C59.7442 69.5272 59.7881 69.4921 59.832 69.4657C61.1935 68.5347 61.9576 66.9975 61.8698 65.3375C61.782 63.6862 60.8597 62.2281 59.4016 61.4464L49.7837 56.2641C49.0722 55.8864 48.2993 55.6932 47.5263 55.6932Z" fill="#10319B"/>
<path d="M48.4915 73.8488C47.8591 73.8488 47.2267 73.6907 46.6382 73.3745C45.391 72.707 44.6268 71.4685 44.5829 70.0544L44.3457 62.1316C44.3018 60.7175 44.9957 59.4351 46.199 58.6973C47.4024 57.9507 48.8604 57.9155 50.0989 58.5831L57.1257 62.3688C58.3291 63.0188 59.0844 64.2133 59.1547 65.5748C59.225 66.9362 58.6014 68.2098 57.4771 68.974C57.4419 69.0003 57.4068 69.0179 57.3717 69.0442L57.3277 69.0706L50.5381 73.2691C49.9057 73.6468 49.203 73.8488 48.4915 73.8488ZM48.2456 58.7412C47.6483 58.7412 47.0598 58.9081 46.524 59.2331C45.5227 59.8567 44.943 60.9283 44.9781 62.1141L45.2153 70.0368C45.2504 71.2226 45.8916 72.259 46.9369 72.8212C47.9733 73.3833 49.203 73.3482 50.2043 72.7245L57.0291 68.4997C57.0642 68.4821 57.0906 68.4558 57.1169 68.4382C58.0568 67.797 58.575 66.7342 58.5135 65.6011C58.452 64.468 57.8196 63.4667 56.8183 62.9221L49.7915 59.1365C49.3084 58.8729 48.7814 58.7412 48.2456 58.7412Z" fill="#F89E1C"/>
<path d="M57.1355 68.7008C57.1706 68.6832 57.2057 68.6569 57.2321 68.6393C59.3665 67.1812 59.2172 63.9577 56.9159 62.7192L50.0472 59.0126C47.6668 57.7302 44.8034 59.5045 44.8825 62.2098L45.1108 69.948C45.1899 72.6446 48.1675 74.2432 50.46 72.829L57.1003 68.7271C57.1091 68.7184 57.1267 68.7096 57.1355 68.7008Z" fill="#032663"/>
<path d="M54.2635 67.5075C54.2811 67.4987 54.2986 67.4811 54.3162 67.4723C55.5195 66.6554 55.4317 64.8373 54.1317 64.1346L50.2582 62.0529C48.9143 61.3326 47.2982 62.334 47.3509 63.8535L47.4826 68.2189C47.5265 69.7385 49.2042 70.6432 50.4954 69.8439L54.2371 67.5338C54.2459 67.525 54.2547 67.5162 54.2635 67.5075Z" fill="#33FCFE"/>
<path d="M71.8134 56.0879C70.7418 57.3088 64.4967 60.4094 64.4967 60.4094C64.4967 60.4094 66.6399 62.0168 66.6751 65.416C66.7014 67.9544 64.3035 70.2293 64.3035 70.2293C66.4643 72.434 65.6474 76.3251 64.0488 79.2764C62.4502 82.2276 63.8643 83.0884 63.8643 83.0884C63.8643 83.0884 73.21 69.1226 74.0269 61.2789C74.3606 58.0905 71.8134 56.0879 71.8134 56.0879Z" fill="#F4B821"/>
<path d="M29.5898 70.8623C29.5898 70.8623 32.0141 70.4582 33.3141 72.1008C34.614 73.7433 42.3435 88.3151 45.9447 93.5237C46.5947 94.4636 48.2636 97.6871 50.1169 97.0459C50.1169 97.0459 47.5346 98.5128 43.7313 94.6832C39.9368 90.8448 31.8209 75.4824 29.5898 70.8623Z" fill="#0E51A0"/>
<path d="M25.2536 9.92082C27.0232 8.67324 29.1379 7.61147 31.4738 6.72666L31.3233 6.76206C31.3233 6.76206 38.8265 2.6123 50.0193 2.6123C61.1768 2.6123 68.7684 6.63818 68.8127 6.66473C71.2194 7.55838 73.3783 8.63785 75.1922 9.91197C83.9252 16.0614 83.2085 29.2716 79.3773 41.7208C76.6078 50.7813 63.4153 54.9045 50.2317 54.701C37.0481 54.9045 23.8556 50.7813 21.0684 41.7208C17.2372 29.2804 16.5205 16.0702 25.2536 9.92082Z" fill="#F89E1C"/>
<path d="M25.2533 9.9662C26.1823 9.31144 27.2087 8.70977 28.3059 8.15234C19.7498 14.3725 20.4753 27.512 24.28 39.8993C27.0671 48.9774 40.2508 53.1006 53.4433 52.906C60.9376 53.021 68.4319 51.7292 74.0239 48.9332C68.3346 53.0741 59.283 54.9853 50.2226 54.8437C37.0389 55.0472 23.8464 50.9151 21.0593 41.837C17.2369 29.3701 16.5202 16.1333 25.2533 9.9662Z" fill="#F5851F"/>
<path d="M29.3321 21.0445C23.979 19.9296 23.6251 11.4001 23.6074 11.0284L24.2445 11.0107C24.2445 11.0904 24.5984 19.4076 29.456 20.4163L29.3321 21.0445Z" fill="#F89E1C"/>
<path d="M69.9699 21.3706L69.793 20.76C75.1195 19.2116 75.4292 10.5582 75.4292 10.4697L76.0663 10.4874C76.0574 10.859 75.7389 19.6983 69.9699 21.3706Z" fill="#F4B821"/>
<path d="M50.4157 10.1963C47.4162 10.1963 44.6291 9.21415 43.001 7.55955C42.9479 7.50647 42.8948 7.45338 42.8417 7.39144L39.9219 4.09995L40.6386 3.46289L43.5584 6.74553C43.5938 6.78977 43.6381 6.83401 43.6823 6.87825C45.2661 8.4886 48.1152 9.37341 51.1324 9.21415C54.0611 9.05488 56.6094 7.94002 57.9454 6.25004L60.0336 3.59561L60.7857 4.18843L58.6975 6.84286C57.2022 8.75405 54.3885 9.99278 51.1855 10.1697C50.92 10.1874 50.6723 10.1963 50.4157 10.1963Z" fill="#F4B821"/>
<path d="M50.3995 13.6549C46.4267 13.6549 42.8255 12.3188 40.5339 9.98294C40.4542 9.90331 40.3657 9.81483 40.2861 9.72635L40.1976 9.62902L36.1895 5.12534L36.9061 4.48828L40.994 9.08928C41.0647 9.16892 41.1355 9.24855 41.2152 9.31934C43.3299 11.4606 46.6833 12.6993 50.3995 12.6993C50.7003 12.6993 51.01 12.6905 51.3197 12.6728C55.2836 12.4516 58.6901 10.8943 60.6544 8.39029L63.6362 4.59446L64.3883 5.18728L61.4065 8.98311C59.2741 11.6995 55.611 13.3895 51.3728 13.6284C51.0542 13.646 50.7269 13.6549 50.3995 13.6549Z" fill="#F4B821"/>
<path d="M74.6967 12.2479C72.8828 10.9649 70.7239 9.86773 68.3172 8.97408C68.2641 8.94753 60.6548 4.31114 49.4973 4.31114C42.1534 4.30229 35.7386 5.53217 32.1816 6.37274C34.4379 5.31097 41.0386 2.6123 50.0282 2.6123C61.1857 2.6123 68.7773 6.67358 68.8216 6.70012C71.2282 7.60262 73.3872 8.69094 75.201 9.97391C82.9873 15.504 83.2616 26.6968 80.5099 37.9516C82.6865 27.4931 81.961 17.4063 74.6967 12.2479Z" fill="#F4B821"/>
<path d="M70.4936 20.937L70.4316 20.6273C75.422 19.5921 75.9617 10.7086 75.9705 10.6201L76.2891 10.6378C76.2625 11.0094 75.7228 19.8487 70.4936 20.937Z" fill="#10319B"/>
<path d="M61.0265 8.6577L64.0083 4.86187C62.9643 4.52564 61.7521 4.18057 60.3983 3.86204L58.3102 6.51646C56.8945 8.32147 54.2135 9.48942 51.1521 9.66638C48.0022 9.84334 45.0115 8.8966 43.3392 7.18892C43.2861 7.13583 43.2419 7.09159 43.1976 7.0385L40.2778 3.75586C38.8886 4.06554 37.641 4.41947 36.5527 4.76454L40.5609 9.26822L40.6494 9.36555C40.729 9.44518 40.7998 9.53366 40.8794 9.61329C43.0826 11.8519 46.5865 13.1348 50.4 13.1348C50.7097 13.1348 51.0282 13.126 51.3467 13.1083C55.4434 12.8959 58.9738 11.2679 61.0265 8.6577Z" fill="#032663"/>
<path d="M29.8543 20.9383C24.6251 19.85 24.05 11.0993 24.0234 10.7277L24.342 10.71C24.3508 10.7984 24.9259 19.5934 29.9163 20.6287L29.8543 20.9383Z" fill="#10319B"/>
<path d="M50.1602 54.5871C43.6392 54.6844 37.127 53.7819 31.7297 51.7999C30.4732 50.455 29.4734 48.7208 28.8894 46.7034C27.3941 41.5273 25.713 34.2896 25.0671 26.1582C24.7485 22.1588 27.0048 18.5311 30.2432 17.7525C34.6584 16.6907 41.4714 15.4608 49.5586 15.337V15.3281C49.7886 15.3281 50.0098 15.337 50.2399 15.337C50.4699 15.337 50.6911 15.3281 50.9212 15.3281V15.337C59.0083 15.4608 65.6621 16.4872 70.0773 17.549C73.3157 18.3276 75.7312 22.1588 75.4127 26.1582C74.7667 34.2896 73.0856 41.5273 71.5903 46.7034C71.0152 48.6765 70.0507 50.3754 68.8297 51.7203C63.3704 53.7553 56.7609 54.6844 50.1602 54.5871Z" fill="#032663"/>
<path d="M72.6775 49.7024L71.3945 50.4014C71.6334 49.6936 72.0316 48.4991 72.297 47.6585C73.0049 45.4465 73.8101 42.9337 74.5268 41.2525C75.6859 38.5362 78.9066 36.4834 81.0212 35.457L80.6585 36.8462C78.6854 37.8106 76.4468 39.1821 75.4027 41.633C74.7037 43.2787 73.9074 45.765 73.1995 47.9594C72.9429 48.7911 72.9164 48.9946 72.6775 49.7024Z" fill="#F4B821"/>
<path d="M28.1722 49.907C28.1014 49.907 28.0395 49.8627 28.0218 49.8008C27.8095 49.1726 27.5883 48.4824 27.3582 47.7834C26.6681 45.6511 25.8806 43.2267 25.1462 41.5013C24.0756 38.9973 21.7751 37.6081 19.6604 36.5729C19.5807 36.5375 19.5453 36.4402 19.5896 36.3606C19.625 36.2809 19.7223 36.2455 19.8019 36.2898C21.9697 37.3427 24.3322 38.7761 25.447 41.3774C26.1903 43.1205 26.9777 45.5449 27.6679 47.6861C27.8979 48.3851 28.1191 49.0664 28.3226 49.7035C28.3492 49.7831 28.305 49.8804 28.2253 49.907C28.2076 49.907 28.1899 49.907 28.1722 49.907Z" fill="#F89E1C"/>
<path d="M80.7664 36.8018C80.3859 38.4475 79.9435 40.1021 79.4392 41.739C78.404 45.119 75.953 47.8088 72.5996 49.8615C73.4667 47.269 74.1923 44.3757 75.1656 42.0841C76.3247 39.3854 78.8994 37.7043 80.7664 36.8018Z" fill="#032663"/>
<path d="M78.492 41.943C78.8459 40.9874 79.1733 40.0318 79.483 39.0674C78.492 39.7044 77.4745 40.6246 76.8551 41.9076C76.1915 43.2702 75.6075 44.9514 75.0059 46.5529C76.5808 45.3407 77.793 43.81 78.492 41.943Z" fill="#0E51A0"/>
<path d="M72.8028 49.8442L72.502 49.7469C72.8028 48.8532 73.0859 47.9065 73.3602 46.9951C73.8823 45.2609 74.4308 43.4736 75.0679 41.9606C76.2181 39.2531 78.7929 37.5542 80.7395 36.5986L80.8811 36.8818C78.9788 37.8108 76.4836 39.4566 75.3599 42.0756C74.7228 43.5709 74.1831 45.3494 73.661 47.0748C73.3868 48.0038 73.1036 48.9506 72.8028 49.8442Z" fill="#10319B"/>
<path d="M19.6602 36.8018C20.0406 38.4475 20.483 40.1021 20.9874 41.739C22.0226 45.119 24.4735 47.8088 27.8269 49.8615C26.9598 47.269 26.2343 44.3757 25.261 42.0841C24.1107 39.3854 21.5271 37.7043 19.6602 36.8018Z" fill="#032663"/>
<path d="M51.0977 54.8436C50.8058 54.8436 50.5138 54.8436 50.2306 54.8348C38.6131 55.0117 23.9784 51.6937 20.9169 41.7573C18.174 32.8561 15.086 16.8765 25.164 9.78032L25.2525 9.91304L25.164 9.78032C26.9248 8.54158 31.1984 6.65694 31.3842 6.57731C31.4461 6.54192 38.9228 2.4541 50.0271 2.4541C61.1669 2.4541 68.8205 6.47998 68.9001 6.52422C71.3687 7.43557 73.5276 8.53274 75.2973 9.78032C85.3752 16.8765 82.2872 32.8561 79.5443 41.7484C76.5537 51.4459 62.556 54.8436 51.0977 54.8436ZM50.2218 54.5162C50.5049 54.5162 50.7969 54.5251 51.0889 54.5251C62.441 54.5251 76.2971 51.1894 79.2346 41.66C81.951 32.8473 85.0213 17.0269 75.1114 10.0458C73.3595 8.81587 71.2271 7.72756 68.7674 6.81621C68.67 6.76312 61.0784 2.78148 50.0271 2.78148C39.0113 2.78148 31.5966 6.82506 31.5258 6.8693C31.4727 6.89584 27.0929 8.82472 25.3498 10.0458C15.4311 17.018 18.5103 32.8473 21.2178 41.66C24.2261 51.4282 38.7281 54.6932 50.2218 54.5162Z" fill="#10319B"/>
<path d="M50.2315 53.1889C44.6395 53.2685 39.0563 52.5695 34.2961 51.0388C33.5617 50.7999 32.8981 50.3575 32.438 49.7381C31.6505 48.694 31.0311 47.4641 30.6153 46.0927C29.235 41.4386 27.6865 34.9176 27.0937 27.6002C26.8017 23.999 28.881 20.7341 31.8628 20.0351C35.933 19.0795 42.2151 17.9735 49.674 17.8585V17.8496C49.8864 17.8496 50.0899 17.8496 50.3022 17.8585C50.5146 17.8585 50.7181 17.8496 50.9305 17.8496V17.8585C58.3894 17.9735 64.6627 19.0795 68.7417 20.0351C71.7323 20.7341 73.8028 23.999 73.5108 27.6002C72.9091 34.9176 71.3695 41.4386 69.9892 46.0927C69.5822 47.4553 68.9717 48.6675 68.1931 49.7027C67.7507 50.2955 67.1313 50.7202 66.4323 50.9503C61.6013 52.5518 55.9208 53.2773 50.2315 53.1889Z" fill="#FCE8CA"/>
<path d="M49.1688 54.6582C42.7185 54.6582 36.6841 53.6937 31.6673 51.8533L31.6319 51.8445L31.6053 51.8179C30.2958 50.4111 29.3048 48.6238 28.7297 46.6506C27.3582 41.8904 25.5709 34.4491 24.8985 26.0346C24.5711 21.9379 26.8451 18.2483 30.1985 17.4431C34.7022 16.3636 54.6988 13.196 70.2626 17.4431C73.5983 18.3545 75.8723 22.0441 75.5538 26.0346C74.8813 34.4491 73.1028 41.8904 71.7225 46.6506C71.1651 48.5884 70.1918 50.3491 68.9265 51.7383L68.9 51.7648L68.8646 51.7825C63.6265 53.7468 56.9816 54.7732 50.1509 54.667C49.8235 54.6582 49.4961 54.6582 49.1688 54.6582ZM50.1598 54.3308C56.9374 54.437 63.5204 53.4194 68.723 51.4817C69.9441 50.1279 70.882 48.4291 71.4217 46.5533C72.7932 41.8107 74.5716 34.3872 75.2352 25.9992C75.5449 22.1591 73.3683 18.6111 70.1741 17.7439C54.6723 13.5146 34.7552 16.6733 30.2693 17.7439C27.0751 18.5137 24.8985 22.0618 25.217 25.9992C25.8895 34.3872 27.6591 41.8107 29.0305 46.5533C29.588 48.4733 30.5436 50.2076 31.8088 51.5702C36.9673 53.446 43.4795 54.437 50.1598 54.3308Z" fill="#10319B"/>
<path d="M27.6866 49.738C27.3947 48.8709 27.1204 47.9684 26.8549 47.0924C26.3329 45.3759 25.7843 43.6063 25.1384 42.0844C24.0235 39.4654 21.5195 37.8108 19.6172 36.8906L19.7588 36.6074C21.7053 37.5542 24.2713 39.253 25.4304 41.9694C26.0851 43.5001 26.6337 45.2874 27.1558 47.0039C27.4212 47.8799 27.6955 48.7824 27.9875 49.6406L27.6866 49.738Z" fill="#10319B"/>
<path d="M76.084 36.7317L80.1806 34.3427C80.1806 34.3427 81.3486 22.5748 77.5439 17.2217L76.4468 20.5928C76.4468 20.5928 78.2075 23.1499 76.084 36.7317Z" fill="#F4B821"/>
<ellipse cx="50.4705" cy="45.2283" rx="2.17952" ry="2.99685" fill="#032663"/>
<path d="M36.4305 29.5256C36.4825 29.5169 36.5345 29.491 36.5778 29.4477C37.2448 28.8673 38.1197 28.6334 38.9859 28.8153C39.1765 28.8586 39.3584 28.7373 39.393 28.5468C39.4363 28.3562 39.3151 28.1743 39.1245 28.1396C38.0417 27.9144 36.9503 28.2003 36.1187 28.9279C35.9714 29.0578 35.9628 29.2744 36.084 29.4217C36.1793 29.517 36.3092 29.5516 36.4305 29.5256Z" fill="#032663"/>
<path d="M64.2545 29.5256C64.2025 29.5169 64.1505 29.491 64.1072 29.4477C63.4402 28.8673 62.5653 28.6334 61.6991 28.8153C61.5085 28.8586 61.3266 28.7373 61.292 28.5468C61.2487 28.3562 61.3699 28.1743 61.5605 28.1396C62.6433 27.9144 63.7347 28.2003 64.5663 28.9279C64.7136 29.0578 64.7222 29.2744 64.601 29.4217C64.5144 29.517 64.3758 29.5516 64.2545 29.5256Z" fill="#032663"/>
<path d="M45.1471 38.4385C45.0778 38.629 44.9912 38.8196 44.8872 38.9929L38.789 39.5126C38.6591 39.3567 38.5465 39.1834 38.4512 39.0015L45.1471 38.4385Z" fill="#0052A3"/>
<path d="M45.3457 37.6846C45.3197 37.8751 45.2764 38.057 45.2244 38.2303L38.3466 38.8193C38.2686 38.6547 38.1993 38.4815 38.1387 38.2996L45.3457 37.6846Z" fill="#0052A3"/>
<path d="M45.3463 36.1943L45.3809 36.7314L37.9574 37.3637L37.9141 36.8353L45.3463 36.1943Z" fill="#0052A3"/>
<path d="M45.3895 36.9395C45.3982 37.1214 45.3895 37.3033 45.3722 37.4765L38.0699 38.1002C38.0266 37.927 37.9919 37.7537 37.9746 37.5718L45.3895 36.9395Z" fill="#0052A3"/>
<path d="M44.0557 40.0146C43.7525 40.2745 43.4146 40.4824 43.0422 40.6383L40.8853 40.8202C40.4955 40.7336 40.123 40.5777 39.7852 40.3785L44.0557 40.0146Z" fill="#0052A3"/>
<path d="M44.1936 31.6384L38.3379 32.1408C38.4678 31.9329 38.6237 31.7424 38.7883 31.5691L43.6652 31.1533C43.8558 31.2919 44.0377 31.4565 44.1936 31.6384Z" fill="#0052A3"/>
<path d="M44.7568 39.2178C44.6183 39.4257 44.4623 39.6162 44.2977 39.7895L39.4988 40.1966C39.2996 40.0494 39.1177 39.8848 38.9531 39.7029L44.7568 39.2178Z" fill="#0052A3"/>
<path d="M42.3584 30.5205C42.7309 30.6158 43.0774 30.7631 43.3979 30.9709L39.0234 31.3434C39.3093 31.0922 39.6298 30.8843 39.985 30.7284L42.3584 30.5205Z" fill="#0052A3"/>
<path d="M44.7916 32.54C44.8695 32.7046 44.9388 32.8779 44.9908 33.0598L37.7578 33.6748C37.7838 33.4842 37.8271 33.3023 37.8791 33.1291L44.7916 32.54Z" fill="#0052A3"/>
<path d="M45.0519 33.2588C45.0952 33.432 45.1298 33.6053 45.1472 33.7872L37.7323 34.4195C37.7236 34.2376 37.7236 34.0557 37.7409 33.8825L45.0519 33.2588Z" fill="#0052A3"/>
<path d="M44.3671 31.8291C44.4884 31.985 44.601 32.1583 44.6963 32.3402L37.957 32.9119C38.0263 32.7213 38.1043 32.5307 38.2082 32.3575L44.3671 31.8291Z" fill="#0052A3"/>
<path d="M45.2243 34.7217L45.2677 35.2587L37.8441 35.8911L37.8008 35.354L45.2243 34.7217Z" fill="#0052A3"/>
<path d="M45.1725 33.9863L45.2071 34.5234L37.7835 35.1557L37.7402 34.6187L45.1725 33.9863Z" fill="#0052A3"/>
<path d="M45.2849 35.458L45.3282 35.9951L37.896 36.6274L37.8613 36.0904L45.2849 35.458Z" fill="#0052A3"/>
<path d="M62.5579 38.8358C62.4626 39.0177 62.3586 39.1996 62.2374 39.3642L56.1131 39.1737C56.0092 39.0004 55.9139 38.8185 55.8359 38.6279L62.5579 38.8358Z" fill="#0052A3"/>
<path d="M62.8452 38.1082C62.7932 38.2901 62.7326 38.4633 62.6546 38.6366L55.7508 38.4287C55.6901 38.2554 55.6382 38.0735 55.6035 37.8916L62.8452 38.1082Z" fill="#0052A3"/>
<path d="M63.0087 36.6276L62.9828 37.1646L55.5332 36.9394L55.5592 36.4023L63.0087 36.6276Z" fill="#0052A3"/>
<path d="M62.9752 37.3726C62.9579 37.5545 62.9405 37.7277 62.8972 37.901L55.5776 37.6757C55.5516 37.5025 55.543 37.3206 55.543 37.1387L62.9752 37.3726Z" fill="#0052A3"/>
<path d="M61.2859 40.2745C60.9567 40.4997 60.5929 40.6643 60.2031 40.7769L58.0375 40.7076C57.6564 40.5776 57.3099 40.3784 56.998 40.1445L61.2859 40.2745Z" fill="#0052A3"/>
<path d="M62.3945 31.9674L56.5215 31.7942C56.6774 31.6036 56.8507 31.4303 57.0326 31.2744L61.9181 31.4217C62.1 31.5863 62.2559 31.7682 62.3945 31.9674Z" fill="#0052A3"/>
<path d="M62.0828 39.5629C61.9268 39.7535 61.7449 39.9267 61.5544 40.0826L56.7468 39.9354C56.5649 39.7708 56.409 39.5889 56.2617 39.3896L62.0828 39.5629Z" fill="#0052A3"/>
<path d="M60.6953 30.6424C61.0504 30.781 61.3883 30.9716 61.6828 31.2055L57.291 31.0669C57.6029 30.8503 57.9493 30.6771 58.3132 30.5645L60.6953 30.6424Z" fill="#0052A3"/>
<path d="M62.8871 32.9285C62.9478 33.1017 62.9911 33.2836 63.0257 33.4655L55.7754 33.2403C55.8274 33.0584 55.888 32.8852 55.9573 32.7119L62.8871 32.9285Z" fill="#0052A3"/>
<path d="M63.0605 33.6746C63.0865 33.8478 63.0952 34.0297 63.0952 34.2116L55.6543 33.9864C55.663 33.8045 55.6889 33.6313 55.7236 33.458L63.0605 33.6746Z" fill="#0052A3"/>
<path d="M62.5408 32.1749C62.6447 32.3482 62.7313 32.5301 62.8093 32.7207L56.0527 32.5128C56.148 32.3309 56.2433 32.149 56.3646 31.9844L62.5408 32.1749Z" fill="#0052A3"/>
<path d="M63.0606 35.1539L63.0433 35.6823L55.5938 35.4571L55.6111 34.9287L63.0606 35.1539Z" fill="#0052A3"/>
<path d="M63.0947 34.4175L63.0687 34.9459L55.6191 34.7207L55.6451 34.1836L63.0947 34.4175Z" fill="#0052A3"/>
<path d="M63.0352 35.8912L63.0179 36.4283L55.5684 36.1944L55.5857 35.666L63.0352 35.8912Z" fill="#0052A3"/>
<path fill-rule="evenodd" clip-rule="evenodd" d="M59.7767 42.5979C55.4472 42.5979 51.9392 39.0764 51.9392 34.7604C51.9392 30.4309 55.4472 26.9094 59.7767 26.9094C64.0927 26.9094 67.6142 30.4309 67.6142 34.7604C67.6142 39.0764 64.0927 42.5979 59.7767 42.5979ZM40.7784 42.5979C36.4624 42.5979 32.9409 39.0764 32.9409 34.7604C32.9409 30.4309 36.4624 26.9094 40.7784 26.9094C45.108 26.9094 48.6294 30.4309 48.6294 34.7604C48.6294 39.0764 45.108 42.5979 40.7784 42.5979ZM59.7766 23.6006C55.7656 23.6006 52.243 25.7457 50.2848 28.9363C48.3119 25.7457 44.8028 23.6006 40.7782 23.6006C34.6357 23.6006 29.6309 28.6054 29.6309 34.7615C29.6309 40.9041 34.6357 45.9089 40.7782 45.9089C44.8028 45.9089 48.3119 43.7638 50.2848 40.5744C52.243 43.7638 55.7656 45.9089 59.7766 45.9089C65.9204 45.9089 70.924 40.9041 70.924 34.7615C70.924 28.6054 65.9204 23.6006 59.7766 23.6006Z" fill="#002E6D"/>
<path fill-rule="evenodd" clip-rule="evenodd" d="M67.5135 34.8232C67.5135 39.1824 63.9537 42.7391 59.5907 42.7391C55.2141 42.7391 51.668 39.1824 51.668 34.8232C51.668 30.4503 55.2141 26.8936 59.5907 26.8936C63.9537 26.8936 67.5135 30.4503 67.5135 34.8232Z" fill="#92E0FF"/>
<path fill-rule="evenodd" clip-rule="evenodd" d="M48.4998 34.8232C48.4998 39.1824 44.9431 42.7391 40.5702 42.7391C36.211 42.7391 32.6543 39.1824 32.6543 34.8232C32.6543 30.4503 36.211 26.8936 40.5702 26.8936C44.9431 26.8936 48.4998 30.4503 48.4998 34.8232Z" fill="#92E0FF"/>
<path fill-rule="evenodd" clip-rule="evenodd" d="M35.9137 39.5708C35.5666 39.5708 35.2183 39.4383 34.9532 39.1732C34.4218 38.6418 34.4218 37.7822 34.9532 37.2508L41.7424 30.4611C42.2738 29.9309 43.1334 29.9309 43.6635 30.4611C44.1949 30.9925 44.1949 31.8521 43.6635 32.3835L36.8742 39.1732C36.6092 39.4383 36.2608 39.5708 35.9137 39.5708Z" fill="white"/>
<path fill-rule="evenodd" clip-rule="evenodd" d="M41.5382 38.9369C41.2117 38.9369 40.884 38.801 40.6346 38.5254C40.1348 37.9767 40.1348 37.0858 40.6346 36.5371L44.4161 32.3763C44.9159 31.8277 45.7244 31.8277 46.2231 32.3763C46.7229 32.925 46.7229 33.8146 46.2231 34.3646L42.4417 38.5254C42.1923 38.801 41.8647 38.9369 41.5382 38.9369Z" fill="white"/>
<path fill-rule="evenodd" clip-rule="evenodd" d="M57.4645 40.2046C57.1174 40.2046 56.7691 40.0721 56.504 39.807C55.9726 39.2769 55.9726 38.4161 56.504 37.8848L63.2932 31.0958C63.8246 30.5644 64.6841 30.5644 65.2143 31.0958C65.7456 31.6259 65.7456 32.4867 65.2143 33.0167L58.425 39.807C58.16 40.0721 57.8116 40.2046 57.4645 40.2046Z" fill="white"/>
<path fill-rule="evenodd" clip-rule="evenodd" d="M57.3831 35.1341C57.0566 35.1341 56.7289 35.0094 56.4795 34.7601C55.9808 34.2602 55.9808 33.4515 56.4795 32.9516L60.2615 29.1708C60.7614 28.6709 61.57 28.6709 62.0687 29.1708C62.5687 29.6696 62.5687 30.4782 62.0687 30.9781L58.2868 34.7601C58.0374 35.0094 57.7097 35.1341 57.3831 35.1341Z" fill="white"/>
<path d="M14.8352 57.3692C15.7748 52.2653 18.8986 40.3825 28.7017 29.2203C29.6616 28.1319 31.4562 28.7077 31.6123 30.1473L31.739 31.2716C32.9843 42.6727 27.0092 53.6488 16.757 58.7998C15.7683 59.3035 14.6394 58.462 14.8352 57.3692Z" fill="#F5851F"/>
<path d="M16.7575 58.7984C15.775 59.2915 14.6461 58.45 14.8357 57.3678C15.6594 52.878 18.1742 43.1396 25.4482 33.2741C20.1666 42.7655 18.8211 54.0078 18.5063 57.8426C17.9299 58.1744 17.3535 58.5063 16.7575 58.7984Z" fill="#F89E1C"/>
<path d="M24.8835 35.2462C24.4169 34.9746 24.0811 34.8928 24.0325 34.8787L23.8294 35.7402L23.9226 35.3117L23.8126 35.7446C23.8612 35.7587 29.0339 37.434 27.0436 49.5647L28.1153 48.1865C29.5774 38.5738 26.4639 36.1657 24.8835 35.2462Z" fill="#F89E1C"/>
<path d="M26.4411 31.9353C26.4411 31.9353 31.5982 32.2954 31.1006 40.2262C31.1006 40.2262 32.9925 31.1191 30.6353 28.924C30.6353 28.924 29.103 27.5071 26.4411 31.9353Z" fill="#032663"/>
<path d="M30.9177 28.7058C30.7904 28.6318 30.6676 28.5745 30.5218 28.5322C29.799 28.3104 29.044 28.51 28.5403 29.0829C18.5774 40.4219 15.4831 52.6201 14.6182 57.3272C14.5101 57.9033 14.7369 58.4895 15.209 58.8494C15.681 59.2093 16.3153 59.266 16.8441 58.9916C27.1298 53.8318 33.1931 42.6798 31.9389 31.2451L31.8122 30.1208C31.7621 29.5237 31.4268 29.0021 30.9177 28.7058ZM15.5947 58.5769C15.5522 58.5522 15.5204 58.5337 15.4842 58.4984C15.1376 58.24 14.9764 57.8339 15.0528 57.4098C15.9161 52.73 18.9822 40.6291 28.8683 29.3732C29.2476 28.9408 29.8243 28.7794 30.3906 28.9528C30.9402 29.1307 31.3338 29.601 31.3963 30.1769L31.5229 31.3012C32.7558 42.5531 26.7806 53.5292 16.66 58.6005C16.313 58.782 15.9235 58.7682 15.5947 58.5769Z" fill="#10319B"/>
<path d="M28.123 32.3616C27.2215 31.837 26.4918 31.7247 26.475 31.7291L26.4198 32.1656C26.6159 32.1945 31.3759 32.9198 31.0155 40.2489L31.4598 40.2661C31.693 35.3759 29.6609 33.2565 28.123 32.3616Z" fill="#10319B"/>
<path d="M25.1646 35.1265C24.7085 34.8611 24.3834 34.7855 24.3348 34.7714L24.2416 35.1999C24.2902 35.214 29.4581 36.5316 27.9116 48.1681L28.348 48.2233C29.5808 38.9314 26.6707 36.0029 25.1646 35.1265Z" fill="#10319B"/>
<path d="M85.0303 57.3214C84.0023 52.2346 80.6731 40.4077 70.678 29.4171C69.6994 28.3455 67.9151 28.9522 67.7839 30.3943L67.6768 31.5207C66.6291 42.9417 72.7936 53.8126 83.1335 58.7851C84.1309 59.2716 85.245 58.4107 85.0303 57.3214Z" fill="#F89E1C"/>
<path d="M83.2712 56.6932C83.248 56.6785 83.2312 56.6744 83.208 56.6598C79.4772 54.6435 77.4363 50.4425 78.0892 46.2604C78.3027 44.8832 78.7349 43.4883 79.5068 42.2752C82.9341 47.9608 84.1311 53.2321 84.5262 55.8044C84.6321 56.5006 83.887 57.0233 83.2712 56.6932Z" fill="#F4B821"/>
<path d="M76.3751 54.0678C70.3192 48.3524 66.9849 40.0716 67.6754 31.5204L67.7616 30.4068C67.7674 30.2742 67.8069 30.1499 67.8464 30.0256L69.8205 28.974C70.1133 29.055 70.3791 29.2097 70.6032 29.4613C71.6072 30.5749 72.5396 31.6887 73.4173 32.807C68.9695 39.0137 73.6899 49.2526 76.3751 54.0678Z" fill="#F5851F"/>
<path d="M74.5031 35.4065C72.9179 36.366 70.114 39.4117 71.7057 48.7474L72.7265 49.8651C70.2125 37.1574 75.5971 35.8631 75.6454 35.8482L75.4653 34.9819C75.4064 35.0031 75.028 35.0888 74.5031 35.4065Z" fill="#F89E1C"/>
<path d="M72.9858 32.0935C72.9858 32.0935 67.8358 32.5429 68.4707 40.4639C68.4707 40.4639 66.4212 31.3909 68.7401 29.1553C68.7401 29.1553 70.2476 27.7121 72.9858 32.0935Z" fill="#032663"/>
<path d="M68.4539 28.9418C67.95 29.2468 67.6174 29.7637 67.563 30.3848L67.4558 31.5111C66.3999 42.9658 72.6661 54.0047 83.0292 58.9919C83.5732 59.2507 84.1895 59.1788 84.6616 58.8213C85.1274 58.4533 85.3503 57.8737 85.226 57.2892C84.2732 52.5872 80.9785 40.4382 70.8165 29.2903C70.3092 28.7367 69.5445 28.5398 68.8257 28.7741C68.7017 28.8062 68.5798 28.8656 68.4539 28.9418ZM84.2922 58.5429C83.9668 58.7399 83.5881 58.754 83.2339 58.5954C73.0269 53.7002 66.8624 42.8293 67.9001 31.5578L68.0072 30.4314C68.0597 29.8546 68.445 29.3775 68.9915 29.1901C69.5379 29.0028 70.1172 29.1542 70.5209 29.584C80.611 40.6606 83.8759 52.7129 84.8201 57.377C84.9039 57.7997 84.7497 58.2086 84.4077 58.473C84.3657 58.4984 84.3342 58.5175 84.2922 58.5429Z" fill="#10319B"/>
<path d="M71.3095 32.5481C69.7874 33.4695 67.7923 35.6239 68.1166 40.5198L68.5605 40.4949C68.0668 33.1626 72.8135 32.3549 73.0154 32.3331L72.9527 31.8977C72.9295 31.883 72.2018 32.008 71.3095 32.5481Z" fill="#10319B"/>
<path d="M74.3162 35.2617C72.8255 36.164 69.9666 39.1425 71.3603 48.4116L71.7956 48.3489C70.0497 36.6968 75.192 35.334 75.2403 35.3191L75.1397 34.8923C75.0914 34.9072 74.7676 34.9884 74.3162 35.2617Z" fill="#10319B"/>
</g>
</svg>
