<svg width="100" height="100" viewBox="0 0 100 100" fill="none" xmlns="http://www.w3.org/2000/svg">
<mask id="mask0_5457_25886" style="mask-type:alpha" maskUnits="userSpaceOnUse" x="0" y="0" width="100" height="100">
<rect width="100" height="100" fill="#D9D9D9"/>
</mask>
<g mask="url(#mask0_5457_25886)">
<path d="M74.0018 65.5195C76.9372 57.0736 70.6181 48.2761 61.68 48.4167L58.2172 48.4694C58.1909 48.4694 58.1733 48.4694 58.1469 48.4694L49.5164 48.6101L40.8859 48.4694C40.8595 48.4694 40.8419 48.4694 40.8156 48.4694L37.3528 48.4167C28.4147 48.2761 22.0956 57.0736 25.031 65.5195C25.989 68.2792 27.0173 70.8455 28.0895 73.2272C28.6696 74.6247 29.4166 76.1627 30.2515 77.7534C33.8901 84.8899 37.7307 90.2686 40.675 94.6717C40.7892 94.8387 40.9123 95.0057 41.0353 95.1639C42.9864 97.9851 46.2382 99.3297 49.5252 99.2858C52.8034 99.3385 56.064 97.9851 58.0151 95.1639C58.1381 95.0057 58.2612 94.8387 58.3754 94.6717C61.3197 90.2686 65.1603 84.8899 68.7989 77.7534C69.6338 76.1627 70.3808 74.6334 70.9609 73.2272C72.0155 70.8367 73.0438 68.2792 74.0018 65.5195Z" fill="#F89E1C"/>
<path d="M58.9294 82.6492C61.3639 77.9384 56.5389 74.7042 51.1777 77.8066C44.7883 81.4979 41.0092 79.8368 36.7467 72.7707C33.2839 67.0228 28.2216 68.5081 26.4463 69.264C27 70.6614 27.5625 72.0148 28.1425 73.3068C28.7226 74.7042 29.4696 76.2422 30.3045 77.833C33.9431 84.9694 37.7837 90.3481 40.728 94.7512C40.8422 94.9182 40.9652 95.0852 41.0883 95.2434C43.0394 98.0646 46.2912 99.4093 49.5782 99.3653C52.8564 99.418 56.117 98.0646 58.0681 95.2434C58.1911 95.0852 58.3142 94.9182 58.4284 94.7512C59.3864 93.3099 60.4498 91.7719 61.5572 90.0932C59.0085 89.6801 56.574 87.2017 58.9294 82.6492Z" fill="#032663"/>
<path d="M49.3585 99.5145C45.8869 99.5145 42.7406 97.9589 40.9213 95.3223C40.7983 95.1641 40.6752 94.9971 40.561 94.8213C40.1391 94.1885 39.6909 93.5294 39.2339 92.8526C36.5621 88.9065 33.2487 84.0024 30.1288 77.8855C29.2411 76.198 28.5116 74.6688 27.9579 73.3505C27.3691 72.041 26.7978 70.6787 26.2617 69.3077L26.209 69.167L26.3496 69.1055C28.3446 68.253 33.363 66.8996 36.8433 72.6825C41.2025 79.9156 44.9202 81.2164 51.0635 77.6657C54.3329 75.7762 57.2068 76.2771 58.6042 77.613C59.8873 78.8434 60.0543 80.7506 59.0348 82.7192C58.0066 84.7143 57.822 86.4808 58.5075 87.8343C59.0612 88.9241 60.1949 89.7063 61.5396 89.926L61.7857 89.9611L61.6451 90.1633C61.0211 91.1037 60.4147 92.0001 59.8258 92.8614C59.3688 93.5382 58.9294 94.1885 58.5075 94.8125C58.3933 94.9883 58.2702 95.1553 58.1472 95.3135C56.3015 97.9852 53.0937 99.5584 49.5342 99.4969C49.4727 99.5145 49.4112 99.5145 49.3585 99.5145ZM49.5342 99.1981C52.9882 99.2508 56.0994 97.7392 57.8923 95.1465C58.0153 94.9795 58.1384 94.8213 58.2439 94.6543C58.6657 94.0215 59.1051 93.3712 59.5622 92.6944C60.1071 91.8947 60.6607 91.0597 61.2408 90.1984C59.8961 89.9172 58.78 89.0999 58.2175 87.9837C57.7077 86.973 57.3826 85.2152 58.7536 82.5786L58.8942 82.6489L58.7536 82.5786C59.7028 80.7418 59.5709 78.9753 58.3845 77.8503C57.0662 76.5935 54.3417 76.1365 51.2217 77.947C44.9641 81.5679 40.9916 80.1881 36.5709 72.8583C33.2927 67.4269 28.6171 68.5343 26.6133 69.3516C27.1318 70.6699 27.6855 71.9794 28.248 73.245C28.7929 74.5633 29.5223 76.075 30.41 77.7624C33.5212 83.8618 36.8345 88.7571 39.4975 92.6944C39.9545 93.3712 40.4028 94.0303 40.8246 94.6631C40.9389 94.8301 41.0531 94.9883 41.1762 95.1553C42.9691 97.7392 46.0978 99.2596 49.5342 99.1981Z" fill="#10319B"/>
<path d="M18.1673 55.448C16.9105 58.9459 14.564 67.427 16.6117 77.868C16.8139 78.8875 18.1322 79.1775 18.7474 78.3426L19.2308 77.6922C24.1085 71.0831 24.3634 62.1362 19.8723 55.2546C19.4417 54.5867 18.4398 54.7009 18.1673 55.448Z" fill="#F5851F"/>
<path d="M49.6834 99.5145C49.6219 99.5145 49.5692 99.5145 49.5076 99.5145C45.9746 99.5672 42.7403 98.0028 40.8947 95.3223C40.7717 95.1641 40.6486 94.9971 40.5344 94.8213C40.1125 94.1885 39.6643 93.5293 39.2073 92.8526C36.5355 88.9065 33.2222 84.0024 30.1022 77.8854C29.2145 76.198 28.485 74.6688 27.9313 73.3505C26.8064 70.8281 25.7781 68.2354 24.8729 65.634C23.4491 61.5472 24.0907 57.188 26.6218 53.6901C29.1442 50.2098 33.0464 48.2587 37.3529 48.3202L40.8068 48.3729H40.8771L49.5076 48.5135L58.1382 48.3729H58.1821L61.6712 48.3202C65.9777 48.2499 69.8799 50.2098 72.4023 53.6901C74.9334 57.188 75.575 61.5472 74.1512 65.634C73.246 68.2354 72.2177 70.8369 71.0927 73.3592C70.5478 74.6776 69.8184 76.2068 68.9219 77.8942C65.8019 84.0024 62.4798 88.9153 59.8168 92.8614C59.3598 93.5381 58.9116 94.1973 58.4897 94.8301C58.3755 95.0058 58.2524 95.1728 58.1294 95.331C56.3101 97.9589 53.1638 99.5145 49.6834 99.5145ZM49.5076 99.1981C52.9616 99.2508 56.0728 97.7391 57.8657 95.1465C57.9888 94.9795 58.1118 94.8213 58.2173 94.6543C58.6391 94.0215 59.0873 93.3624 59.5444 92.6856C62.2073 88.7483 65.5207 83.8442 68.6319 77.7536C69.5196 76.075 70.2402 74.5545 70.7939 73.245C71.9189 70.7314 72.9472 68.1387 73.8436 65.5461C75.2322 61.556 74.6082 57.3023 72.1386 53.8922C69.6778 50.4998 65.8547 48.5926 61.6712 48.6542L58.2173 48.7069H58.1733L49.5164 48.8475L40.8771 48.7069H40.8068L37.3441 48.6542C33.1606 48.5926 29.3375 50.4998 26.8767 53.8922C24.4071 57.311 23.7831 61.556 25.1717 65.5461C26.0681 68.1387 27.0964 70.7314 28.2214 73.245C28.7663 74.5633 29.4957 76.075 30.3834 77.7624C33.4946 83.8618 36.808 88.7571 39.4709 92.6944C39.9279 93.3712 40.3762 94.0303 40.798 94.6631C40.9123 94.8301 41.0265 94.9883 41.1496 95.1553C42.9513 97.7391 46.08 99.2596 49.5076 99.1981Z" fill="#10319B"/>
<path d="M69.8536 53.0925C67.63 51.1678 64.8001 50.0077 61.6361 50.0692L58.1646 50.1307C58.1382 50.1307 58.1206 50.1307 58.0943 50.1307L49.4198 50.2802L40.7453 50.1307C40.719 50.1307 40.7014 50.1307 40.675 50.1307L37.2035 50.0692C32.3873 49.9901 29.7682 53.4529 27.5008 57.4166C26.991 58.313 27.492 59.4731 28.4675 59.6665C36.685 61.2924 55.3786 63.1117 69.8536 53.0925Z" fill="#E26907"/>
<path d="M47.2578 76.2772C46.4317 76.2772 45.5968 76.0751 44.8321 75.662C43.2062 74.7832 42.2043 73.1573 42.1428 71.3116L41.8264 60.73C41.7737 58.8844 42.6789 57.1969 44.2521 56.2302C45.8253 55.2546 47.7324 55.2019 49.3583 56.0808L58.7535 61.1343C60.3267 61.978 61.3198 63.5424 61.4165 65.3265C61.5131 67.1106 60.687 68.7717 59.2193 69.7736C59.1753 69.8088 59.1226 69.8351 59.0787 69.8703L59.0171 69.9054L49.9472 75.5126C49.1123 76.0136 48.1806 76.2772 47.2578 76.2772ZM46.9326 56.0896C46.1241 56.0896 45.3067 56.3181 44.5773 56.7663C43.1974 57.6188 42.4065 59.0953 42.4592 60.7124L42.7756 71.294C42.8283 72.9112 43.7072 74.3349 45.131 75.0996C46.5547 75.8642 48.2334 75.8202 49.6044 74.9677L58.7359 69.3254C58.7798 69.299 58.8238 69.2726 58.8589 69.2463C60.1421 68.3674 60.8628 66.9173 60.7749 65.3529C60.6958 63.7973 59.8257 62.4262 58.4459 61.688L49.0507 56.6345C48.3828 56.2653 47.6533 56.0896 46.9326 56.0896Z" fill="#F89E1C"/>
<path d="M47.2139 76.3561C46.3966 76.3561 45.5704 76.154 44.8058 75.7409C43.1887 74.8708 42.1955 73.2625 42.1428 71.4256L41.8176 60.5804C41.7649 58.7523 42.6613 57.0825 44.217 56.1157C45.7726 55.1489 47.6709 55.0962 49.288 55.9663L58.9117 61.1516C60.4673 61.9866 61.4516 63.5422 61.5483 65.3087C61.645 67.0752 60.8276 68.7275 59.3775 69.7206C59.3335 69.7558 59.2808 69.7822 59.2369 69.8173L59.1753 69.8525L49.8769 75.6003C49.0507 76.1012 48.1367 76.3561 47.2139 76.3561ZM46.8799 55.6763C46.0186 55.6763 45.1573 55.9136 44.3839 56.3969C42.925 57.3022 42.0813 58.8666 42.134 60.5804L42.4592 71.4256C42.5119 73.1394 43.4435 74.6511 44.9552 75.4685C46.4669 76.2858 48.2422 76.2331 49.7099 75.3278L59.0611 69.5449C59.105 69.5185 59.149 69.4833 59.1929 69.457C60.5552 68.5254 61.3198 66.9873 61.2319 65.3263C61.144 63.674 60.2212 62.2151 58.7623 61.4329L49.1386 56.2475C48.4267 55.8696 47.6533 55.6763 46.8799 55.6763Z" fill="#10319B"/>
<path d="M19.8722 55.254C19.4416 54.5948 18.4396 54.7091 18.1672 55.4473C17.0598 58.5234 15.1087 65.4577 16.0579 74.1849C16.2073 66.4069 19.424 58.9628 20.6105 56.4756C20.3732 56.0625 20.1359 55.6495 19.8722 55.254Z" fill="#F89E1C"/>
<path d="M16.4184 72.7619C16.0317 72.7619 15.7944 72.6916 15.7593 72.6828L15.9438 72.0764L15.8472 72.3752L15.9351 72.0676C15.9702 72.0764 19.7757 72.9025 22.9133 64.6763L23.0803 65.9155C20.5228 72.3928 17.7279 72.7619 16.4184 72.7619Z" fill="#F89E1C"/>
<path d="M16.1899 75.3724C16.1899 75.3724 19.5121 77.0071 22.0608 71.9185C22.0608 71.9185 19.9515 78.2375 17.7016 78.7473C17.7016 78.7473 16.2427 79.0725 16.1899 75.3724Z" fill="#032663"/>
<path d="M17.7981 78.9842C17.6926 78.9842 17.5959 78.9754 17.4905 78.949C16.9631 78.826 16.5676 78.4305 16.4622 77.8944C14.3793 67.2864 16.8577 58.6207 18.0178 55.3953C18.1584 54.9998 18.5099 54.7185 18.9318 54.6658C19.3537 54.6131 19.7667 54.8064 19.9952 55.1668C24.5039 62.0659 24.2402 71.1534 19.3449 77.7801L18.8615 78.4305C18.6154 78.782 18.2199 78.9842 17.7981 78.9842ZM19.0724 54.9734C19.0373 54.9734 19.0109 54.9734 18.9758 54.9822C18.6681 55.0173 18.4221 55.2107 18.3166 55.5007C17.1653 58.7086 14.7044 67.304 16.7698 77.8329C16.8489 78.2371 17.1477 78.5447 17.5608 78.6414C17.965 78.7293 18.3781 78.5799 18.6242 78.2459L19.1076 77.5956C23.9238 71.0743 24.1787 62.1274 19.7404 55.3425C19.591 55.1052 19.3449 54.9734 19.0724 54.9734Z" fill="#10319B"/>
<path d="M17.3852 75.7142C16.6382 75.7142 16.146 75.5209 16.1372 75.5121L16.2602 75.222C16.3921 75.2748 19.6 76.5403 22.0169 71.8735L22.2981 72.0229C20.681 75.1341 18.6596 75.7142 17.3852 75.7142Z" fill="#10319B"/>
<path d="M16.5503 72.9382C16.1724 72.9382 15.9438 72.8679 15.9087 72.8591L16.0054 72.5603C16.0405 72.5691 19.7142 73.6149 22.9485 65.8545L23.2385 65.9775C20.6546 72.1736 17.7983 72.9382 16.5503 72.9382Z" fill="#10319B"/>
<path d="M81.2527 55.448C82.5095 58.9459 84.8561 67.427 82.8083 77.868C82.6062 78.8875 81.2879 79.1775 80.6727 78.3426L80.1893 77.6922C75.3115 71.0831 75.0567 62.1362 79.5477 55.2546C79.9784 54.5867 80.9803 54.7009 81.2527 55.448Z" fill="#F89E1C"/>
<path d="M80.409 56.4852C80.4002 56.5028 80.3915 56.5116 80.3827 56.5292C78.8446 59.1482 79.1522 62.4791 81.1033 64.7993C81.7449 65.564 82.5271 66.2583 83.4499 66.7153C83.4411 61.9606 82.2195 58.2869 81.5076 56.5643C81.3143 56.0985 80.6639 56.0546 80.409 56.4852Z" fill="#F4B821"/>
<path d="M77.1573 60.6514C75.5665 66.3992 76.5948 72.7095 80.1894 77.6927L80.6552 78.3431C80.7079 78.4221 80.7782 78.4837 80.8485 78.5452L82.4481 78.4573C82.5975 78.2991 82.703 78.1058 82.7469 77.8685C82.9491 76.8138 83.1073 75.7855 83.2303 74.7748C78.2031 72.6216 77.2979 64.5975 77.1573 60.6514Z" fill="#F5851F"/>
<path d="M82.9314 72.779C81.6043 72.779 78.7567 71.9528 76.2695 65.6425L76.4805 64.5791C79.6532 73.2975 83.4323 72.0935 83.4675 72.0847L83.6784 72.6823C83.6345 72.6911 83.3708 72.779 82.9314 72.779Z" fill="#F89E1C"/>
<path d="M83.2302 75.3724C83.2302 75.3724 79.9081 77.0071 77.3594 71.9185C77.3594 71.9185 79.4687 78.2375 81.7186 78.7473C81.7186 78.7473 83.1775 79.0725 83.2302 75.3724Z" fill="#032663"/>
<path d="M81.6216 78.9844C81.1997 78.9844 80.8043 78.7911 80.5406 78.4307L80.0572 77.7804C75.1619 71.1537 74.907 62.0662 79.4069 55.167C79.6441 54.8067 80.0484 54.6221 80.4703 54.6661C80.8921 54.7188 81.2437 54.9912 81.3843 55.3955C82.5444 58.6298 85.0316 67.2954 82.9399 77.8946C82.8344 78.422 82.439 78.8262 81.9116 78.9493C81.8238 78.9756 81.7271 78.9844 81.6216 78.9844ZM80.3472 54.9737C80.0748 54.9737 79.8375 55.1055 79.6793 55.334C75.241 62.1189 75.4959 71.0658 80.3121 77.587L80.7955 78.2374C81.0416 78.5714 81.4546 78.7208 81.8589 78.6329C82.2632 78.545 82.562 78.2374 82.6499 77.8243C84.724 67.2954 82.2544 58.7001 81.1031 55.4922C80.9976 55.2022 80.7515 55.0088 80.4439 54.9737C80.4088 54.9737 80.3824 54.9737 80.3472 54.9737Z" fill="#10319B"/>
<path d="M82.035 75.7152C80.7606 75.7152 78.7392 75.1351 77.1221 72.0151L77.4033 71.8657C79.8202 76.5413 83.0281 75.2757 83.1599 75.2142L83.283 75.5042C83.2742 75.5218 82.782 75.7152 82.035 75.7152Z" fill="#10319B"/>
<path d="M82.8699 72.9382C81.6219 72.9382 78.7655 72.1736 76.1816 65.9775L76.4717 65.8545C79.7235 73.6413 83.3796 72.5691 83.4148 72.5603L83.5114 72.8591C83.4763 72.8679 83.2478 72.9382 82.8699 72.9382Z" fill="#10319B"/>
<path d="M47.8465 73.843C47.2137 73.843 46.581 73.6848 45.9921 73.3684C44.7441 72.7005 43.9795 71.4613 43.9356 70.0463L43.6983 62.1189C43.6543 60.7039 44.3486 59.4207 45.5527 58.6825C46.7567 57.9354 48.2157 57.9003 49.4549 58.5682L56.4858 62.3562C57.6899 63.0065 58.4457 64.2018 58.516 65.5641C58.5863 66.9263 57.9623 68.2007 56.8374 68.9653C56.8022 68.9917 56.7671 69.0092 56.7319 69.0356L56.688 69.062L49.8943 73.263C49.2615 73.6409 48.5584 73.843 47.8465 73.843ZM47.6004 58.7264C47.0028 58.7264 46.414 58.8934 45.8779 59.2186C44.8759 59.8426 44.2959 60.9148 44.331 62.1013L44.5683 70.0287C44.6035 71.2152 45.2451 72.2523 46.2909 72.8147C47.328 73.3772 48.5584 73.3421 49.5603 72.7181L56.3892 68.4907C56.4243 68.4731 56.4507 68.4467 56.4771 68.4292C57.4174 67.7876 57.936 66.7242 57.8745 65.5904C57.8129 64.4567 57.1801 63.4548 56.1782 62.9099L49.1473 59.1219C48.6639 58.8583 48.1366 58.7264 47.6004 58.7264Z" fill="#F89E1C"/>
<path d="M56.4948 68.6921C56.5299 68.6746 56.5651 68.6482 56.5914 68.6306C58.7271 67.1717 58.5777 63.9462 56.2751 62.707L49.4023 58.9982C47.0205 57.715 44.1554 59.4903 44.2345 62.1973L44.463 69.9401C44.5421 72.6383 47.5215 74.2378 49.8153 72.8228L56.4596 68.7185C56.4684 68.7097 56.486 68.7009 56.4948 68.6921Z" fill="#032663"/>
<path d="M53.6206 67.4976C53.6382 67.4889 53.6558 67.4713 53.6733 67.4625C54.8774 66.6451 54.7895 64.8259 53.4888 64.1228L49.613 62.0398C48.2683 61.3192 46.6512 62.3211 46.7039 63.8415L46.8357 68.2095C46.8797 69.73 48.5583 70.6352 49.8503 69.8354L53.5942 67.524C53.603 67.5152 53.6118 67.5064 53.6206 67.4976Z" fill="#33FCFE"/>
<path d="M71.1808 56.0728C70.1085 57.2944 63.8598 60.3968 63.8598 60.3968C63.8598 60.3968 66.0042 62.0051 66.0394 65.4064C66.0657 67.9463 63.6664 70.2226 63.6664 70.2226C65.8284 72.4286 65.0111 76.322 63.4115 79.275C61.812 82.228 63.227 83.0893 63.227 83.0893C63.227 83.0893 72.5782 69.1152 73.3955 61.2669C73.7295 58.0766 71.1808 56.0728 71.1808 56.0728Z" fill="#F4B821"/>
<path d="M28.9331 70.855C28.9331 70.855 31.3588 70.4507 32.6595 72.0942C33.9603 73.7377 41.6943 88.3182 45.2977 93.5299C45.9481 94.4703 47.6179 97.6957 49.4723 97.0542C49.4723 97.0542 46.8885 98.5219 43.0829 94.69C39.2862 90.8493 31.1654 75.4779 28.9331 70.855Z" fill="#0E51A0"/>
<path d="M24.8675 9.93586C26.6297 8.69355 28.7354 7.63626 31.0614 6.75519L30.9117 6.79043C30.9117 6.79043 38.3832 2.6582 49.5287 2.6582C60.639 2.6582 68.1986 6.66708 68.2427 6.69351C70.6392 7.5834 72.789 8.65831 74.5952 9.92705C83.2914 16.0505 82.5778 29.2049 78.7627 41.6016C76.0049 50.6238 62.8682 54.7296 49.7402 54.5269C36.6122 54.7296 23.4754 50.6238 20.7 41.6016C16.885 29.2137 16.1713 16.0593 24.8675 9.93586Z" fill="#F89E1C"/>
<path d="M24.8672 9.97905C25.7923 9.32706 26.8144 8.72793 27.9069 8.17285C19.3869 14.3668 20.1094 27.4507 23.898 39.7857C26.6734 48.8255 39.8014 52.9313 52.9382 52.7375C60.4008 52.852 67.8635 51.5657 73.4319 48.7815C67.7666 52.9049 58.7532 54.808 49.7311 54.667C36.6031 54.8697 23.4663 50.7551 20.6909 41.7153C16.8847 29.301 16.171 16.1201 24.8672 9.97905Z" fill="#F5851F"/>
<path d="M28.9291 21.0104C23.5986 19.9003 23.2461 11.4067 23.2285 11.0367L23.8629 11.019C23.8629 11.0983 24.2153 19.3804 29.0524 20.3848L28.9291 21.0104Z" fill="#F89E1C"/>
<path d="M69.3964 21.3363L69.2202 20.7283C74.5243 19.1864 74.8326 10.5696 74.8326 10.4814L75.467 10.4991C75.4582 10.8691 75.141 19.671 69.3964 21.3363Z" fill="#F4B821"/>
<path d="M49.9251 10.2089C46.9383 10.2089 44.1629 9.23088 42.5417 7.58327C42.4889 7.53041 42.436 7.47754 42.3831 7.41587L39.4756 4.13828L40.1893 3.50391L43.0968 6.77268C43.132 6.81674 43.1761 6.86079 43.2201 6.90485C44.7973 8.5084 47.6343 9.38947 50.6388 9.23088C53.5551 9.07228 56.0926 7.96213 57.423 6.27928L59.5024 3.63607L60.2513 4.22639L58.1719 6.8696C56.6829 8.77272 53.8811 10.0062 50.6916 10.1824C50.4273 10.2001 50.1806 10.2089 49.9251 10.2089Z" fill="#F4B821"/>
<path d="M49.9073 13.6538C45.9513 13.6538 42.3654 12.3234 40.0834 9.99734C40.0041 9.91804 39.916 9.82993 39.8367 9.74183L39.7486 9.64491L35.7573 5.16025L36.471 4.52588L40.5415 9.10745C40.612 9.18675 40.6825 9.26605 40.7618 9.33653C42.8676 11.4687 46.2068 12.7022 49.9073 12.7022C50.2069 12.7022 50.5153 12.6934 50.8237 12.6758C54.7709 12.4555 58.163 10.9048 60.119 8.41141L63.0882 4.63161L63.8371 5.22193L60.8679 9.00173C58.7445 11.7066 55.0969 13.3895 50.8765 13.6274C50.5593 13.645 50.2333 13.6538 49.9073 13.6538Z" fill="#F4B821"/>
<path d="M74.1021 12.2531C72.2959 10.9755 70.1461 9.883 67.7496 8.99311C67.6967 8.96668 60.1195 4.34986 49.0092 4.34986C41.6963 4.34105 35.3085 5.56574 31.7666 6.40276C34.0133 5.34547 40.5861 2.6582 49.5378 2.6582C60.6482 2.6582 68.2078 6.70232 68.2518 6.72876C70.6483 7.62745 72.7981 8.71117 74.6043 9.98872C82.3578 15.4954 82.6309 26.641 79.8908 37.8482C82.0582 27.434 81.3357 17.3897 74.1021 12.2531Z" fill="#F4B821"/>
<path d="M69.9167 20.9051L69.855 20.5968C74.8242 19.5659 75.3617 10.7199 75.3705 10.6318L75.6877 10.6495C75.6613 11.0195 75.1238 19.8214 69.9167 20.9051Z" fill="#10319B"/>
<path d="M60.4891 8.67557L63.4583 4.89577C62.4187 4.56097 61.2116 4.21735 59.8636 3.90016L57.7842 6.54338C56.3745 8.34077 53.7049 9.50378 50.6563 9.68C47.5197 9.85621 44.5417 8.91346 42.8765 7.21299C42.8236 7.16013 42.7796 7.11608 42.7355 7.06321L39.828 3.79443C38.4447 4.10281 37.2024 4.45524 36.1187 4.79886L40.1099 9.28351L40.198 9.38043C40.2773 9.45973 40.3478 9.54784 40.4271 9.62713C42.621 11.8562 46.11 13.1338 49.9074 13.1338C50.2158 13.1338 50.533 13.125 50.8502 13.1074C54.9295 12.8959 58.445 11.2747 60.4891 8.67557Z" fill="#032663"/>
<path d="M29.4488 20.9049C24.2417 19.8212 23.669 11.1074 23.6426 10.7373L23.9598 10.7197C23.9686 10.8078 24.5413 19.5657 29.5105 20.5965L29.4488 20.9049Z" fill="#10319B"/>
<path d="M49.6699 54.4115C43.1764 54.5085 36.6917 53.6098 31.3171 51.6362C30.066 50.2969 29.0704 48.57 28.4889 46.5612C26.9999 41.4069 25.3258 34.1997 24.6826 26.1027C24.3655 22.1202 26.6122 18.5078 29.8369 17.7325C34.2335 16.6752 41.0177 15.4505 49.0707 15.3272V15.3184C49.2998 15.3184 49.5201 15.3272 49.7492 15.3272C49.9782 15.3272 50.1985 15.3184 50.4276 15.3184V15.3272C58.4806 15.4505 65.1062 16.4726 69.5028 17.5299C72.7275 18.3052 75.1328 22.1202 74.8157 26.1027C74.1725 34.1997 72.4984 41.4069 71.0094 46.5612C70.4367 48.526 69.4764 50.2176 68.2605 51.5569C62.8243 53.5833 56.2427 54.5085 49.6699 54.4115Z" fill="#032663"/>
<path d="M72.093 49.5485L70.8154 50.2446C71.0533 49.5397 71.4498 48.3503 71.7141 47.5133C72.419 45.3106 73.2208 42.8083 73.9344 41.1343C75.0886 38.4294 78.2957 36.3853 80.4015 35.3633L80.0403 36.7466C78.0755 37.7069 75.8463 39.0726 74.8067 41.5132C74.1106 43.152 73.3177 45.6278 72.6128 47.8128C72.3573 48.641 72.3309 48.8437 72.093 49.5485Z" fill="#F4B821"/>
<path d="M27.7751 49.7517C27.7046 49.7517 27.6429 49.7077 27.6253 49.646C27.4138 49.0205 27.1936 48.3332 26.9645 47.6372C26.2772 45.5138 25.4931 43.0996 24.7618 41.3816C23.6957 38.8881 21.4049 37.5048 19.2991 36.474C19.2199 36.4387 19.1846 36.3418 19.2287 36.2625C19.2639 36.1832 19.3608 36.148 19.4401 36.192C21.5987 37.2405 23.9512 38.6679 25.0614 41.2582C25.8015 42.9939 26.5856 45.4081 27.2729 47.5403C27.5019 48.2363 27.7222 48.9147 27.9248 49.5491C27.9513 49.6284 27.9072 49.7253 27.8279 49.7517C27.8103 49.7517 27.7927 49.7517 27.7751 49.7517Z" fill="#F89E1C"/>
<path d="M80.146 36.7026C79.7671 38.3414 79.3266 39.989 78.8244 41.619C77.7935 44.9847 75.3529 47.6632 72.0137 49.7073C72.8771 47.1257 73.5996 44.2446 74.5688 41.9626C75.723 39.2754 78.2869 37.6013 80.146 36.7026Z" fill="#032663"/>
<path d="M77.8816 41.822C78.234 40.8704 78.56 39.9189 78.8684 38.9585C77.8816 39.5929 76.8684 40.5092 76.2516 41.7867C75.5908 43.1436 75.0093 44.8176 74.4102 46.4124C75.9785 45.2053 77.1855 43.681 77.8816 41.822Z" fill="#0E51A0"/>
<path d="M72.2166 49.6896L71.917 49.5927C72.2166 48.7028 72.4985 47.7601 72.7716 46.8526C73.2915 45.1257 73.8377 43.3459 74.4721 41.8393C75.6175 39.1432 78.1814 37.4516 80.1198 36.5L80.2607 36.7819C78.3664 37.7071 75.8818 39.3459 74.7629 41.9538C74.1285 43.4428 73.591 45.2138 73.0712 46.9319C72.7981 47.857 72.5161 48.7998 72.2166 49.6896Z" fill="#10319B"/>
<path d="M19.2993 36.7026C19.6782 38.3414 20.1187 39.989 20.6209 41.619C21.6518 44.9847 24.0923 47.6632 27.4316 49.7073C26.5682 47.1257 25.8457 44.2446 24.8765 41.9626C23.7311 39.2754 21.1584 37.6013 19.2993 36.7026Z" fill="#032663"/>
<path d="M50.6035 54.6683C50.3127 54.6683 50.0219 54.6683 49.74 54.6595C38.1715 54.8357 23.5986 51.5317 20.5501 41.6372C17.8188 32.7736 14.7438 16.8615 24.7792 9.79528L24.8673 9.92744L24.7792 9.79528C26.5326 8.56178 30.7881 6.68509 30.9732 6.6058C31.0348 6.57055 38.4799 2.5 49.5374 2.5C60.6301 2.5 68.2513 6.50888 68.3306 6.55293C70.7888 7.46044 72.9386 8.55297 74.7008 9.79528C84.7362 16.8615 81.6612 32.7736 78.9299 41.6284C75.9519 51.285 62.0133 54.6683 50.6035 54.6683ZM49.7312 54.3423C50.0131 54.3423 50.3039 54.3511 50.5946 54.3511C61.8988 54.3511 75.6964 51.0295 78.6215 41.5403C81.3264 32.7648 84.3838 17.0113 74.5158 10.0596C72.7712 8.83491 70.6478 7.75119 68.1985 6.84369C68.1015 6.79082 60.5419 2.826 49.5374 2.826C38.568 2.826 31.1846 6.8525 31.1141 6.89655C31.0613 6.92298 26.7 8.84372 24.9643 10.0596C15.0874 17.0024 18.1536 32.7648 20.8496 41.5403C23.8453 51.2673 38.2861 54.5185 49.7312 54.3423Z" fill="#10319B"/>
<path d="M49.7401 53.0201C44.1717 53.0994 38.6122 52.4034 33.872 50.8791C33.1407 50.6412 32.4799 50.2007 32.0217 49.5839C31.2376 48.5443 30.6208 47.3196 30.2067 45.9539C28.8322 41.3195 27.2904 34.826 26.7001 27.5395C26.4093 23.9535 28.4798 20.7024 31.449 20.0063C35.502 19.0548 41.7576 17.9534 49.185 17.8389V17.8301C49.3965 17.8301 49.5991 17.8301 49.8106 17.8389C50.022 17.8389 50.2247 17.8301 50.4361 17.8301V17.8389C57.8636 17.9534 64.1104 19.0548 68.1721 20.0063C71.1502 20.7024 73.2119 23.9535 72.9211 27.5395C72.322 34.826 70.7889 41.3195 69.4144 45.9539C69.0091 47.3108 68.4012 48.5178 67.6259 49.5487C67.1853 50.139 66.5686 50.5619 65.8725 50.791C61.0619 52.3857 55.4054 53.1082 49.7401 53.0201Z" fill="#FCE8CA"/>
<path fill-rule="evenodd" clip-rule="evenodd" d="M36.3862 35.7703C36.6012 35.5003 36.9944 35.4558 37.2644 35.6708C38.2856 36.484 41.0953 38.2477 44.0309 38.7348C44.3352 38.7853 44.5572 39.0502 44.5536 39.3586C44.55 39.667 44.322 39.9267 44.0166 39.9701C43.2948 40.0728 42.0718 40.3065 40.78 40.671C39.4796 41.0378 38.1568 41.5242 37.2053 42.1162C36.9122 42.2985 36.5268 42.2087 36.3444 41.9157C36.1621 41.6226 36.2518 41.2372 36.5449 41.0548C37.6453 40.3702 39.1012 39.8458 40.4406 39.4679C40.7071 39.3927 40.9709 39.3228 41.2286 39.2582C39.0828 38.458 37.2919 37.2906 36.4857 36.6486C36.2157 36.4336 36.1711 36.0404 36.3862 35.7703Z" fill="#0E51A0"/>
<path d="M41.2567 32.5531C41.3015 32.5607 41.3512 32.5845 41.3908 32.622C41.9726 33.1279 42.737 33.3271 43.4939 33.1642C43.6608 33.1312 43.8196 33.235 43.8539 33.3944C43.8869 33.5612 43.7831 33.7201 43.6238 33.7544C42.6838 33.9551 41.7279 33.708 40.9986 33.0772C40.8721 32.9635 40.8578 32.7769 40.9715 32.6504C41.0328 32.561 41.1461 32.5266 41.2567 32.5531Z" fill="#032663"/>
<path fill-rule="evenodd" clip-rule="evenodd" d="M62.877 35.7703C62.662 35.5003 62.2688 35.4558 61.9987 35.6708C60.9776 36.484 58.1679 38.2477 55.2323 38.7348C54.928 38.7853 54.706 39.0502 54.7096 39.3586C54.7132 39.667 54.9412 39.9267 55.2466 39.9701C55.9684 40.0728 57.1914 40.3065 58.4832 40.671C59.7836 41.0378 61.1064 41.5242 62.0579 42.1162C62.351 42.2985 62.7364 42.2087 62.9188 41.9157C63.1011 41.6226 63.0114 41.2372 62.7183 41.0548C61.6178 40.3702 60.162 39.8458 58.8226 39.4679C58.5561 39.3927 58.2923 39.3228 58.0346 39.2582C60.1804 38.458 61.9713 37.2906 62.7775 36.6486C63.0475 36.4336 63.092 36.0404 62.877 35.7703Z" fill="#0E51A0"/>
<path d="M58.0065 32.5531C57.9617 32.5607 57.912 32.5845 57.8723 32.622C57.2906 33.1279 56.5262 33.3271 55.7692 33.1642C55.6024 33.1312 55.4436 33.235 55.4093 33.3944C55.3763 33.5612 55.4801 33.7201 55.6394 33.7544C56.5794 33.9551 57.5352 33.708 58.2646 33.0772C58.3911 32.9635 58.4053 32.7769 58.2917 32.6504C58.2304 32.561 58.1171 32.5266 58.0065 32.5531Z" fill="#032663"/>
<path d="M45.8784 50C45.8149 49.9971 45.7513 49.9942 45.6852 49.9776C45.2167 49.8697 44.9186 49.4008 45.0197 48.9322C45.5313 46.5458 47.4548 45.0033 49.9194 45C52.3204 44.9938 54.445 46.6493 54.9768 48.9228C55.0867 49.3966 54.7961 49.8633 54.3254 49.9671C53.8546 50.071 53.3855 49.773 53.2755 49.2992C52.9807 48.0267 51.7385 46.7444 49.9385 46.7437C48.286 46.7452 47.0492 47.7303 46.71 49.3185C46.6257 49.7278 46.2777 50.0003 45.8784 50Z" fill="#0E51A0"/>
<path d="M48.6829 54.4826C42.2598 54.4826 36.2509 53.5223 31.2552 51.6896L31.22 51.6808L31.1936 51.6544C29.8896 50.2535 28.9028 48.4737 28.3301 46.5089C26.9644 41.7688 25.1847 34.359 24.515 25.98C24.189 21.9006 26.4534 18.2265 29.7927 17.4247C34.2773 16.3498 54.1896 13.1956 69.6876 17.4247C73.0093 18.3323 75.2736 22.0063 74.9564 25.98C74.2868 34.359 72.5159 41.7688 71.1414 46.5089C70.5863 48.4385 69.6171 50.1918 68.3572 51.5751L68.3308 51.6015L68.2955 51.6192C63.0796 53.5751 56.4627 54.5972 49.6608 54.4915C49.3349 54.4826 49.0089 54.4826 48.6829 54.4826ZM49.6697 54.1567C56.4187 54.2624 62.9739 53.2491 68.1546 51.3196C69.3704 49.9716 70.3044 48.2799 70.8418 46.412C72.2075 41.6895 73.9785 34.2973 74.6393 25.9447C74.9476 22.1209 72.7802 18.5878 69.5995 17.7243C54.1631 13.5128 34.3302 16.6582 29.8632 17.7243C26.6825 18.4908 24.515 22.0239 24.8322 25.9447C25.5018 34.2973 27.264 41.6895 28.6297 46.412C29.1847 48.3239 30.1363 50.0508 31.3962 51.4077C36.5329 53.2756 43.0176 54.2624 49.6697 54.1567Z" fill="#10319B"/>
<path d="M27.2903 49.5839C26.9995 48.7204 26.7264 47.8218 26.4621 46.9495C25.9422 45.2402 25.396 43.4781 24.7528 41.9626C23.6426 39.3547 21.1492 37.707 19.2549 36.7907L19.3959 36.5088C21.3342 37.4515 23.8893 39.1432 25.0435 41.8481C25.6955 43.3723 26.2418 45.1521 26.7616 46.8614C27.0259 47.7337 27.2991 48.6323 27.5898 49.487L27.2903 49.5839Z" fill="#10319B"/>
<path d="M75.4854 36.6317L79.5647 34.2529C79.5647 34.2529 80.7277 22.5346 76.9391 17.2041L75.8466 20.561C75.8466 20.561 77.5999 23.1073 75.4854 36.6317Z" fill="#F4B821"/>
</g>
</svg>
