<svg width="100" height="100" viewBox="0 0 100 100" fill="none" xmlns="http://www.w3.org/2000/svg">
<mask id="mask0_14392_24800" style="mask-type:alpha" maskUnits="userSpaceOnUse" x="0" y="0" width="100" height="100">
<rect width="100" height="100" fill="#D9D9D9"/>
</mask>
<g mask="url(#mask0_14392_24800)">
<path d="M68.7528 69.7068C73.1141 61.8334 68.3547 52.0225 59.4639 50.6248L56.0226 50.0851C55.996 50.0851 55.9783 50.0763 55.9518 50.0675L47.3706 48.7228L38.8337 47.1039C38.8071 47.095 38.7895 47.095 38.7629 47.095L35.3393 46.4492C26.4927 44.7772 18.7166 52.4206 20.1763 61.3026C20.654 64.2043 21.2379 66.9201 21.8837 69.4768C22.2199 70.963 22.6976 72.6173 23.2549 74.3336C25.6435 82.0301 28.5274 88.028 30.6949 92.9025C30.7745 93.0883 30.8718 93.274 30.9602 93.4598C32.4111 96.5915 35.4101 98.4847 38.6656 99.0066C41.9123 99.617 45.3713 98.8385 47.7864 96.3792C47.9368 96.2376 48.0872 96.0961 48.2287 95.9457C51.9001 92.0886 56.633 87.3999 61.4721 80.9508C62.569 79.5176 63.5775 78.1199 64.3914 76.8371C65.8688 74.6432 67.3285 72.2812 68.7528 69.7068Z" fill="#F89E1C"/>
<path d="M50.8644 84.1184C54.0934 79.8632 49.8559 75.8292 44.0083 77.9877C37.0372 80.5532 33.5694 78.262 30.5527 70.5124C28.1023 64.2225 22.8297 64.8152 20.9365 65.2664C21.2462 66.7526 21.5735 68.1857 21.9274 69.5658C22.2635 71.052 22.7412 72.7063 23.2986 74.4226C25.6871 82.1191 28.5711 88.117 30.7385 92.9915C30.8181 93.1773 30.9154 93.363 31.0039 93.5488C32.4547 96.6805 35.4537 98.5737 38.7092 99.0956C41.9559 99.706 45.4149 98.9275 47.8301 96.4682C47.9805 96.3266 48.1308 96.1851 48.2724 96.0347C49.4755 94.7785 50.7848 93.425 52.1826 91.9564C49.7409 91.1072 47.7504 88.232 50.8644 84.1184Z" fill="#032663"/>
<path d="M38.4797 99.2008C35.0384 98.6081 32.1809 96.5203 30.8274 93.601C30.739 93.424 30.6416 93.2383 30.562 93.0436C30.2524 92.3447 29.9251 91.6105 29.5801 90.8585C27.6073 86.4883 25.1568 81.0477 23.1132 74.4482C22.5205 72.6258 22.0605 70.9803 21.742 69.5826C21.3882 68.1848 21.052 66.734 20.7512 65.2831L20.7158 65.1327L20.8662 65.0973C22.9894 64.5931 28.2 64.1154 30.6682 70.4407C33.7468 78.3583 37.2146 80.2957 43.9203 77.8187C47.4855 76.5006 50.2456 77.4914 51.4134 79.0572C52.475 80.4992 52.3069 82.4189 50.9622 84.1971C49.5998 86.0018 49.1133 87.718 49.5556 89.1865C49.9183 90.3631 50.9091 91.3362 52.2007 91.7786L52.4396 91.8582L52.2715 92.0351C51.493 92.8578 50.7322 93.6452 50.0068 94.3972C49.4406 94.9899 48.8921 95.556 48.3613 96.1134C48.2198 96.2638 48.0694 96.4142 47.919 96.5469C45.6277 98.8824 42.1776 99.8909 38.6566 99.2185C38.5947 99.2274 38.5416 99.2185 38.4797 99.2008ZM38.7097 98.9177C42.1245 99.5635 45.4773 98.5904 47.6978 96.3345C47.8482 96.193 47.9986 96.0515 48.1313 95.9099C48.6621 95.3526 49.2106 94.7864 49.7768 94.1937C50.4491 93.4948 51.148 92.7605 51.8734 92.0086C50.5907 91.4955 49.6264 90.4958 49.2548 89.2927C48.9187 88.2046 48.901 86.3999 50.7145 84.0201L50.8384 84.1174L50.7145 84.0201C51.9707 82.357 52.1388 80.5788 51.1657 79.2607C50.0776 77.7922 47.4501 76.8721 44.0442 78.1283C37.2147 80.6496 33.5168 78.5972 30.3851 70.5645C28.0673 64.6108 23.2371 64.9116 21.1051 65.3804C21.397 66.7782 21.7155 68.1671 22.0605 69.5206C22.379 70.9184 22.839 72.5462 23.4229 74.3685C25.4664 80.9504 27.9081 86.3822 29.872 90.7435C30.2082 91.4955 30.5355 92.2209 30.854 92.9286C30.9336 93.1144 31.0221 93.2913 31.1194 93.4771C32.4464 96.3434 35.2861 98.387 38.7097 98.9177Z" fill="#10319B"/>
<path d="M38.8067 99.2635C38.7448 99.2546 38.6917 99.2458 38.6298 99.2281C35.1089 98.6796 32.1807 96.5653 30.8095 93.5928C30.721 93.4159 30.6237 93.2301 30.5441 93.0355C30.2344 92.3366 29.9071 91.6023 29.5621 90.8504C27.5893 86.4802 25.1388 81.0395 23.0952 74.44C22.5025 72.6176 22.0425 70.9722 21.724 69.5744C21.0428 66.885 20.4678 64.1338 20.0167 61.3913C19.3089 57.0919 20.689 52.8809 23.803 49.8466C26.8993 46.8211 31.1014 45.5648 35.3654 46.361L38.789 47.0068L38.8598 47.0157L47.3968 48.6346L55.9779 49.9793L56.0221 49.9881L59.49 50.5278C63.7717 51.2001 67.3104 53.8098 69.2124 57.6935C71.1232 61.6037 71.0082 66.0269 68.9027 69.8398C67.5581 72.2638 66.0895 74.67 64.5414 76.979C63.7717 78.191 62.7897 79.5799 61.6131 81.1015C57.473 86.6306 53.3328 90.93 50.0153 94.3802C49.4403 94.9729 48.8918 95.5479 48.361 96.1052C48.2195 96.2556 48.0691 96.406 47.9187 96.5387C45.6451 98.8565 42.2569 99.8562 38.8067 99.2635ZM38.6917 98.9184C42.1065 99.5642 45.4593 98.5911 47.6798 96.3352C47.8302 96.1937 47.9806 96.0522 48.1133 95.9106C48.6441 95.3533 49.1926 94.7783 49.7676 94.1855C53.0851 90.7354 57.2164 86.4448 61.3478 80.9334C62.5155 79.4118 63.4975 78.0317 64.2583 76.8286C65.8064 74.5285 67.2661 72.1311 68.6108 69.7159C70.672 65.9915 70.7782 61.6744 68.9204 57.8616C67.0626 54.0752 63.5948 51.5274 59.4369 50.8728L55.9956 50.3331L55.9514 50.3243L47.3348 48.9708L38.789 47.3518L38.7183 47.343L35.2946 46.6972C31.1544 45.9187 27.0319 47.1484 24.0153 50.0943C20.9809 53.0579 19.6363 57.1627 20.3263 61.3648C20.7775 64.0895 21.3525 66.8408 22.0337 69.5213C22.3521 70.9191 22.8121 72.5468 23.396 74.3692C25.4396 80.9511 27.8813 86.3829 29.8452 90.7442C30.1814 91.4962 30.5086 92.2216 30.8271 92.9293C30.9067 93.1151 30.9952 93.292 31.0925 93.4778C32.4283 96.3352 35.2681 98.3788 38.6917 98.9184Z" fill="#10319B"/>
<path d="M66.7708 56.6761C64.8953 54.3848 62.2856 52.757 59.1362 52.2616L55.6772 51.722C55.6507 51.722 55.6329 51.7132 55.6064 51.7043L46.981 50.3685L38.3999 48.7319C38.3733 48.723 38.3556 48.723 38.3291 48.723L34.8878 48.0684C30.1195 47.1572 26.9347 50.1473 23.9977 53.6948C23.3342 54.491 23.635 55.7295 24.5727 56.0922C32.4638 59.1177 50.7054 64.1249 66.7708 56.6761Z" fill="#E26907"/>
<path d="M29.3858 6.24149C31.3408 5.31261 33.6056 4.62257 36.0561 4.16255L35.9057 4.1714C35.9057 4.1714 44.0091 1.36704 55.0319 3.26905C66.0193 5.17106 72.8135 10.4259 72.8577 10.4613C75.0782 11.7529 77.0245 13.186 78.5903 14.7519C86.1453 22.298 83.1905 35.1963 77.2987 46.803C73.0081 55.2514 59.3137 57.065 46.3623 54.6145C33.3402 52.5621 21.0435 46.2545 19.8403 36.8594C18.186 23.9435 19.7253 10.8152 29.3858 6.24149Z" fill="#F89E1C"/>
<path d="M40.3821 75.7926C39.5594 75.6511 38.7721 75.3061 38.082 74.7664C36.6223 73.6164 35.897 71.8382 36.1623 69.9893L37.6663 59.4353C37.9317 57.5952 39.1171 56.0825 40.8422 55.3836C42.5672 54.6936 44.4693 54.959 45.9378 56.109L54.3863 62.7351C55.8017 63.8409 56.5183 65.566 56.3059 67.353C56.0936 69.14 54.9967 70.6439 53.3689 71.387C53.3158 71.4136 53.2627 71.4313 53.2096 71.4578L53.1389 71.4843L43.1777 75.4918C42.2665 75.8545 41.3022 75.9519 40.3821 75.7926ZM43.5227 55.7109C42.7176 55.5694 41.8772 55.6579 41.0722 55.9763C39.5594 56.5867 38.5244 57.9137 38.2944 59.5238L36.7905 70.0777C36.5605 71.6878 37.1886 73.2537 38.4713 74.2622C39.7541 75.2707 41.4172 75.5007 42.93 74.8991L52.9531 70.8651C52.9973 70.8474 53.0416 70.8297 53.0947 70.8032C54.5189 70.1574 55.4744 68.8392 55.6602 67.2734C55.8459 65.7164 55.2178 64.2036 53.9793 63.2393L45.5308 56.6133C44.9381 56.1356 44.2481 55.8348 43.5227 55.7109Z" fill="#F89E1C"/>
<path d="M40.3287 75.8645C39.5148 75.723 38.7363 75.3779 38.0463 74.8472C36.5954 73.7059 35.8789 71.9366 36.1443 70.1142L37.6836 59.3037C37.9401 57.4814 39.1167 55.9774 40.8329 55.2874C42.5492 54.5974 44.4335 54.8716 45.8843 56.004L54.5451 62.7893C55.9429 63.8863 56.6594 65.6025 56.4471 67.363C56.2348 69.1323 55.1467 70.6273 53.5366 71.3616C53.4835 71.3882 53.4305 71.4058 53.3774 71.4324L53.3154 71.4589L43.1065 75.5637C42.1953 75.9264 41.2399 76.0237 40.3287 75.8645ZM43.5489 55.2963C42.6907 55.1459 41.7972 55.2343 40.948 55.5793C39.3467 56.2251 38.2409 57.6317 37.9932 59.348L36.4539 70.1585C36.2062 71.8747 36.8785 73.529 38.2409 74.5994C39.6033 75.6699 41.3726 75.9176 42.9738 75.2718L53.2447 71.1404C53.2978 71.1228 53.342 71.0962 53.3951 71.0785C54.9078 70.3885 55.9252 68.9907 56.1198 67.3276C56.3144 65.6733 55.6509 64.072 54.3417 63.037L45.6809 56.2517C45.0439 55.7474 44.3097 55.429 43.5489 55.2963Z" fill="#10319B"/>
<path d="M29.3769 6.28657C30.4031 5.80001 31.5178 5.37538 32.6944 5.02151C23.202 9.68365 21.6804 22.7589 23.3259 35.6129C24.529 45.0257 36.8169 51.3421 49.839 53.3945C57.2082 54.7834 64.8074 54.7923 70.7877 52.9876C64.4801 56.1015 55.2354 56.4377 46.3358 54.7569C33.3136 52.7045 21.0258 46.388 19.8226 36.9753C18.1683 24.0328 19.7165 10.8779 29.3769 6.28657Z" fill="#F5851F"/>
<path d="M31.4995 17.9012C26.4127 15.8931 27.5186 7.41807 27.5717 7.06421L28.1998 7.15267C28.1909 7.23229 27.1116 15.4861 31.7295 17.3085L31.4995 17.9012Z" fill="#F89E1C"/>
<path d="M71.4868 25.137L71.416 24.5001C76.9274 23.8897 78.7056 15.4058 78.7233 15.3262L79.3513 15.4501C79.2717 15.8216 77.4582 24.4735 71.4868 25.137Z" fill="#F4B821"/>
<path d="M54.121 10.7974C51.1662 10.2843 48.583 8.84234 47.2649 6.93149C47.2207 6.86956 47.1764 6.80764 47.1411 6.74571L44.8232 3.01246L45.6371 2.50821L47.9549 6.24146C47.9903 6.29454 48.0169 6.33877 48.0611 6.39185C49.3438 8.24078 51.9978 9.612 55.0056 9.95701C57.925 10.2932 60.6232 9.63854 62.2244 8.19655L64.7368 5.93183L65.3738 6.63955L62.8437 8.91312C61.039 10.532 58.0665 11.284 54.8729 10.9124C54.6252 10.8771 54.3687 10.8417 54.121 10.7974Z" fill="#F4B821"/>
<path d="M53.5189 14.2039C49.5999 13.5227 46.2825 11.5941 44.4247 8.90478C44.3539 8.80747 44.292 8.71016 44.2301 8.61284L44.1593 8.49784L40.9834 3.37568L41.7973 2.87143L45.044 8.09974C45.097 8.18821 45.159 8.27668 45.2209 8.36514C46.9371 10.8422 50.0246 12.6292 53.6959 13.2661C53.9967 13.3192 54.2975 13.3634 54.6071 13.3988C58.5527 13.8589 62.1709 12.9034 64.5329 10.7714L68.1246 7.54241L68.7616 8.25014L65.1699 11.4791C62.6044 13.7881 58.7119 14.832 54.4921 14.3454C54.1559 14.3012 53.8374 14.2569 53.5189 14.2039Z" fill="#F4B821"/>
<path d="M77.6876 16.955C76.1218 15.3803 74.1756 13.9295 71.9551 12.6379C71.9109 12.6025 65.1963 6.7372 54.2089 4.83519C46.9812 3.58783 40.4525 3.69399 36.7988 3.924C39.1962 3.2605 46.1673 1.73005 55.0227 3.2605C66.0102 5.16251 72.8043 10.4528 72.8486 10.4881C75.069 11.7797 77.0153 13.2306 78.5811 14.8053C85.3134 21.5817 83.6679 32.6576 79.0411 43.2735C82.9602 33.3388 83.9687 23.2803 77.6876 16.955Z" fill="#F4B821"/>
<path d="M72.0704 24.8017L72.0615 24.4832C77.1571 24.3151 79.2007 15.6543 79.2184 15.5659L79.528 15.6366C79.4484 15.9994 77.4049 24.6247 72.0704 24.8017Z" fill="#10319B"/>
<path d="M64.8341 11.0891L68.4257 7.86009C67.4526 7.34699 66.3203 6.7985 65.0375 6.26771L62.5251 8.53243C60.8266 10.0629 57.9868 10.7706 54.9347 10.4167C51.8031 10.054 49.0164 8.61204 47.654 6.64811C47.6098 6.59503 47.5744 6.5331 47.539 6.47118L45.2212 2.73793C43.7969 2.8087 42.5053 2.9414 41.3818 3.10064L44.5577 8.2228L44.6285 8.3378C44.6904 8.43511 44.7524 8.52358 44.8143 8.62089C46.6013 11.2041 49.8392 13.0707 53.5989 13.7165C53.9086 13.7696 54.2182 13.8138 54.5366 13.8492C58.6149 14.3092 62.3747 13.3096 64.8341 11.0891Z" fill="#032663"/>
<path d="M32.0299 17.8753C27.067 15.9114 27.9871 7.18865 28.0313 6.81709L28.3498 6.85248C28.3409 6.94094 27.412 15.7079 32.1538 17.5745L32.0299 17.8753Z" fill="#10319B"/>
<path d="M46.2997 54.4821C39.8594 53.4647 33.596 51.4654 28.6154 48.5991C27.6069 47.0598 26.9169 45.1755 26.6869 43.0965C26.0941 37.7444 25.6784 30.331 26.4215 22.2098C26.7842 18.2112 29.6239 15.0264 32.9502 14.8141C37.4797 14.5222 44.3977 14.4779 52.395 15.7253V15.7165C52.6161 15.7518 52.8373 15.7961 53.0585 15.8403C53.2796 15.8757 53.5008 15.9111 53.7308 15.9465V15.9553C61.675 17.4592 68.0533 19.6001 72.2289 21.3959C75.2898 22.7141 77.0149 26.8985 76.0153 30.7821C73.9894 38.6821 71.1054 45.5293 68.7522 50.3684C67.8499 52.2173 66.6114 53.7301 65.1782 54.8359C59.4634 55.9152 52.7931 55.7117 46.2997 54.4821Z" fill="#032663"/>
<path d="M69.3273 53.5085L67.9473 53.9773C68.3011 53.3227 68.8939 52.208 69.3008 51.4295C70.3801 49.3683 71.592 47.0328 72.5917 45.4935C74.1929 43.0076 77.7139 41.5479 79.9786 40.8933L79.377 42.2026C77.2716 42.813 74.8299 43.7861 73.3879 46.0154C72.4148 47.5194 71.2117 49.8283 70.1412 51.8719C69.7431 52.6592 69.6812 52.8538 69.3273 53.5085Z" fill="#F4B821"/>
<path d="M25.44 46.1308C25.378 46.122 25.3161 46.0689 25.3073 45.9981C25.21 45.3435 25.1038 44.6269 24.9976 43.9015C24.6792 41.681 24.3165 39.1597 23.8918 37.3285C23.2637 34.6745 21.229 32.914 19.327 31.5428C19.2562 31.4898 19.2385 31.3924 19.2916 31.3217C19.3447 31.2509 19.442 31.2332 19.5128 31.2863C21.4679 32.6929 23.5556 34.5064 24.2014 37.2577C24.6349 39.0978 24.9976 41.6279 25.3161 43.8572C25.4223 44.5915 25.5196 45.2992 25.6258 45.9539C25.6346 46.0423 25.5815 46.122 25.4931 46.1397C25.4754 46.1397 25.4577 46.1397 25.44 46.1308Z" fill="#F89E1C"/>
<path d="M79.4925 42.176C78.8379 43.733 78.1213 45.2812 77.3428 46.8116C75.7505 49.961 72.8753 52.1992 69.2217 53.6412C70.5133 51.2349 71.7253 48.5102 73.0788 46.4135C74.6712 43.9719 77.4932 42.7599 79.4925 42.176Z" fill="#032663"/>
<path d="M76.3693 46.8556C76.8824 45.9798 77.369 45.0863 77.8378 44.1839C76.7497 44.644 75.5996 45.3782 74.7592 46.5371C73.8746 47.7668 73.0164 49.3238 72.1406 50.8012C73.9099 49.8811 75.3696 48.5807 76.3693 46.8556Z" fill="#0E51A0"/>
<path d="M69.4247 53.6768L69.1416 53.5264C69.5839 52.6949 70.0351 51.8102 70.4597 50.9609C71.2736 49.342 72.1141 47.67 73.0076 46.29C74.6088 43.8218 77.422 42.5833 79.5098 41.9817L79.5982 42.2913C77.5635 42.8752 74.8211 44.0783 73.273 46.4669C72.3883 47.8293 71.5567 49.4924 70.7428 51.1025C70.3094 51.9606 69.867 52.8453 69.4247 53.6768Z" fill="#10319B"/>
<path d="M19.292 31.7639C19.3893 33.4536 19.5397 35.1521 19.752 36.8507C20.1944 40.3539 22.1494 43.4237 25.1042 46.0157C24.6973 43.3175 24.4672 40.3451 23.9011 37.9123C23.2287 35.0725 20.9728 32.9847 19.292 31.7639Z" fill="#032663"/>
<path d="M47.1849 54.8975C46.893 54.8445 46.6099 54.8002 46.3268 54.7472C34.8528 52.9425 20.9991 47.1745 19.6809 36.8683C18.4955 27.6413 18.1771 11.3725 29.3149 6.09993L29.3856 6.24148L29.3149 6.09993C31.2611 5.17989 35.7905 4.04753 35.9852 4.0033C36.0471 3.97676 44.1152 1.22548 55.0584 3.11864C66.0281 5.02065 72.893 10.2844 72.9549 10.3374C75.2285 11.6556 77.1659 13.1064 78.7052 14.6369C87.4279 23.3419 81.6599 38.558 77.4401 46.856C72.8488 55.8884 58.4731 56.8526 47.1849 54.8975ZM46.3799 54.4287C46.663 54.4818 46.946 54.5348 47.238 54.5791C58.4289 56.5165 72.6453 55.5876 77.157 46.7056C81.3326 38.4872 87.0563 23.4215 78.4752 14.858C76.9624 13.3453 75.0427 11.9121 72.778 10.594C72.6895 10.5321 65.8954 5.30374 55.0053 3.41943C44.1505 1.54396 36.1621 4.2687 36.0825 4.29524C36.0206 4.31293 31.3761 5.46298 29.4564 6.37418C18.5043 11.5583 18.8317 27.6767 19.9994 36.8152C21.2999 46.9533 35.0209 52.6417 46.3799 54.4287Z" fill="#10319B"/>
<path d="M46.6095 53.1281C41.0893 52.2611 35.7017 50.6157 31.2784 48.2979C30.5884 47.9352 30.0222 47.3867 29.6684 46.6966C29.0757 45.5377 28.6687 44.2196 28.5006 42.7953C27.9344 37.9739 27.5186 31.2859 28.1821 23.9787C28.5094 20.3781 31.1104 17.5118 34.1713 17.3349C38.3468 17.0872 44.7164 17.0695 52.0855 18.2284V18.2196C52.289 18.255 52.4925 18.2903 52.6959 18.3346C52.8994 18.37 53.1029 18.3965 53.3152 18.4319V18.4407C60.6402 19.8208 66.6381 21.9882 70.4864 23.616C73.3084 24.8103 74.8035 28.3843 73.9012 31.8875C72.0611 39.0001 69.4336 45.1573 67.2751 49.5098C66.6469 50.7837 65.8331 51.8719 64.8953 52.7654C64.3557 53.2696 63.6745 53.5881 62.9402 53.6943C57.9242 54.4285 52.2006 54.1808 46.6095 53.1281Z" fill="#FCE8CA"/>
<path d="M45.3182 54.3846C38.9664 53.2877 33.1896 51.306 28.554 48.6344L28.5186 48.6167L28.5009 48.5813C27.4482 46.9712 26.7758 45.0427 26.5547 42.9991C26.0062 38.0716 25.5196 30.4458 26.2981 22.0328C26.6697 17.9457 29.5448 14.6901 32.9773 14.469C37.5952 14.1682 57.8361 14.4601 72.4506 21.2985C75.5823 22.767 77.1924 26.7922 76.2016 30.6582C74.1049 38.8324 71.0794 45.8654 68.9208 50.3152C68.0362 52.1288 66.7888 53.6946 65.3026 54.8535L65.2761 54.88L65.2407 54.8889C59.7469 55.9328 53.0236 55.8089 46.3179 54.5439C45.964 54.4996 45.6367 54.4466 45.3182 54.3846ZM46.3444 54.2342C53.0059 55.4904 59.6673 55.6143 65.1168 54.5881C66.55 53.4646 67.7619 51.943 68.6201 50.1914C70.7786 45.7504 73.7953 38.7439 75.8831 30.5962C76.8385 26.8718 75.2992 22.997 72.3091 21.5993C57.7565 14.7963 37.5952 14.5043 32.995 14.7963C29.7129 15.0086 26.9705 18.1314 26.6078 22.0682C25.8381 30.4458 26.3247 38.0627 26.8643 42.9637C27.0855 44.9454 27.7313 46.8208 28.7398 48.3778C33.5081 51.1202 39.7538 53.1992 46.3444 54.2342Z" fill="#10319B"/>
<path d="M24.9974 45.8828C24.8559 44.9805 24.7409 44.0428 24.6259 43.1316C24.3959 41.3534 24.1658 39.5133 23.7854 37.9121C23.1308 35.1431 20.9545 33.0907 19.2383 31.8522L19.4241 31.5957C21.1845 32.8607 23.4227 34.975 24.0951 37.8413C24.4755 39.4602 24.7143 41.3092 24.9355 43.0962C25.0505 43.9985 25.1655 44.9363 25.307 45.8386L24.9974 45.8828Z" fill="#10319B"/>
<path d="M20.6277 50.014C19.2919 46.5108 15.5233 38.5047 7.10133 31.8874C6.2786 31.2416 5.08432 31.8874 5.16394 32.9313L5.22584 33.7452C5.83625 41.9902 11.5157 48.9878 19.4599 51.2879C20.2207 51.5002 20.9108 50.7571 20.6277 50.014Z" fill="#F5851F"/>
<path d="M19.4593 51.2799C20.2201 51.5011 20.9101 50.758 20.627 50.0149C19.4504 46.9363 16.3895 40.3721 9.94922 34.3299C14.9387 40.3633 17.3715 48.1571 18.0969 50.8287C18.5392 50.9968 18.9904 51.1472 19.4593 51.2799Z" fill="#F89E1C"/>
<path d="M10.5951 35.6477C10.887 35.3911 11.117 35.2938 11.1524 35.2761L11.409 35.86L11.2851 35.5681L11.4178 35.86C11.3824 35.8777 7.94112 37.7443 10.9401 46.0866L10.0024 45.255C7.7111 38.629 9.59543 36.5146 10.5951 35.6477Z" fill="#F89E1C"/>
<path d="M9.05582 33.5156C9.05582 33.5156 5.44643 34.4533 6.84419 40.0001C6.84419 40.0001 4.30521 33.7898 5.68528 31.9232C5.69412 31.9232 6.58764 30.72 9.05582 33.5156Z" fill="#032663"/>
<path d="M5.4645 31.8085C5.54412 31.7378 5.62373 31.6847 5.72104 31.6316C6.20761 31.3751 6.76496 31.4281 7.19844 31.7643C15.7531 38.4877 19.5394 46.7327 20.7779 49.9617C20.9283 50.3598 20.8487 50.8021 20.5567 51.1206C20.2648 51.4391 19.8313 51.5629 19.4155 51.4391C11.4448 49.1301 5.68567 42.0263 5.06641 33.7548L5.00446 32.9409C4.96908 32.4986 5.14603 32.0828 5.4645 31.8085ZM20.2471 50.9702C20.2737 50.9525 20.3002 50.926 20.3179 50.8994C20.5302 50.6694 20.5921 50.3598 20.4771 50.0678C19.2563 46.8654 15.4965 38.6823 7.0038 32.0032C6.67647 31.7466 6.24301 31.7112 5.87145 31.9059C5.4999 32.1005 5.28756 32.4897 5.32295 32.9055L5.38489 33.7194C5.98646 41.8582 11.6659 48.8559 19.504 51.1206C19.7694 51.209 20.0436 51.1471 20.2471 50.9702Z" fill="#10319B"/>
<path d="M7.92416 34.0286C8.49034 33.542 8.99462 33.3651 9.01231 33.3651L9.10959 33.6658C8.96805 33.7101 5.69484 34.8513 6.91566 40L6.60603 40.0708C5.79215 36.6294 6.95104 34.869 7.92416 34.0286Z" fill="#10319B"/>
<path d="M10.3829 35.6028C10.6659 35.3551 10.8871 35.2578 10.9225 35.2401L11.0463 35.532C11.011 35.5497 7.5254 37.1598 10.144 45.2013L9.8432 45.2986C7.75542 38.876 9.42742 36.4256 10.3829 35.6028Z" fill="#10319B"/>
<path d="M72.7694 57.3934C75.8569 55.2702 83.5092 50.8293 94.2047 50.1658C95.2486 50.1038 95.8678 51.3158 95.2132 52.1209L94.7001 52.7578C89.5071 59.1981 80.8641 61.7282 73.0172 59.1008C72.2564 58.8531 72.1148 57.8446 72.7694 57.3934Z" fill="#F89E1C"/>
<path d="M73.9992 57.9501C74.0169 57.9501 74.0258 57.9589 74.0435 57.9589C76.9805 58.7817 80.1476 57.6404 81.9169 55.1546C82.5008 54.3318 82.9697 53.4029 83.182 52.3856C78.5552 53.6064 75.2908 55.7384 73.7869 56.8708C73.3888 57.1716 73.5038 57.8085 73.9992 57.9501Z" fill="#F4B821"/>
<path d="M78.8828 60.0551C84.8896 60.1347 90.7637 57.5338 94.7004 52.7567L95.2136 52.1286C95.2755 52.049 95.3197 51.9694 95.3639 51.8897L94.8774 50.3593C94.6916 50.2531 94.4704 50.2 94.2227 50.2177C93.1435 50.2885 92.1084 50.3947 91.0911 50.5362C90.2683 55.9768 82.6868 58.9139 78.8828 60.0551Z" fill="#F5851F"/>
<path d="M89.2238 51.341C89.56 52.6326 89.4804 55.6139 83.969 59.648L82.8809 59.7187C90.5597 54.4108 88.4276 51.0314 88.4011 51.0049L88.9319 50.6422C88.9584 50.6687 89.1088 50.9164 89.2238 51.341Z" fill="#F89E1C"/>
<path d="M91.6655 50.3857C91.6655 50.3857 94.1071 53.2078 89.7988 56.9764C89.7988 56.9764 95.4164 53.314 95.3368 50.9873C95.3368 50.9962 95.2837 49.5011 91.6655 50.3857Z" fill="#032663"/>
<path d="M95.5935 51.0318C95.6996 51.4476 95.6112 51.8811 95.3369 52.2261L94.8238 52.863C89.6132 59.321 80.8286 61.8865 72.964 59.2591C72.557 59.1264 72.2651 58.7725 72.2032 58.3479C72.1413 57.9233 72.327 57.5075 72.6809 57.2686C75.5295 55.3135 83.3322 50.6868 94.1957 50.0144C94.7354 49.9791 95.2308 50.2622 95.4873 50.7487C95.5316 50.8372 95.5669 50.9345 95.5935 51.0318ZM72.5393 58.401C72.6101 58.6664 72.7959 58.8699 73.0613 58.9583C80.802 61.5415 89.4451 59.0202 94.5673 52.6596L95.0804 52.0226C95.3458 51.6953 95.39 51.2618 95.1954 50.8814C95.0007 50.5099 94.6292 50.2975 94.2134 50.3241C83.4294 50.9964 75.6887 55.5878 72.8578 57.5252C72.6013 57.7021 72.4774 57.9852 72.5217 58.2948C72.5217 58.3302 72.5305 58.3656 72.5393 58.401Z" fill="#10319B"/>
<path d="M92.3116 51.4573C92.6389 52.7046 92.5859 54.8101 89.9584 57.181L89.7461 56.9421C93.6828 53.3947 91.6304 50.5992 91.542 50.4841L91.7985 50.2895C91.7985 50.3072 92.117 50.7318 92.3116 51.4573Z" fill="#10319B"/>
<path d="M89.3917 51.3594C89.7101 52.5802 89.6924 55.5526 84.3137 59.6486L84.1191 59.392C90.8691 54.2433 88.8963 50.9524 88.8786 50.917L89.144 50.749C89.1705 50.7843 89.2943 50.9967 89.3917 51.3594Z" fill="#10319B"/>
<path d="M41.3907 73.475C40.7626 73.3689 40.161 73.1035 39.6302 72.6877C38.5155 71.8119 37.9671 70.4495 38.1617 69.0429L39.2852 61.1429C39.4886 59.7363 40.391 58.5774 41.7091 58.0466C43.0273 57.5158 44.4869 57.7193 45.6016 58.604L51.9269 63.5669C53.0062 64.4161 53.5547 65.7343 53.3954 67.0967C53.2362 68.459 52.3958 69.6091 51.1484 70.1841C51.113 70.2018 51.0688 70.2195 51.0246 70.2372L50.9715 70.2549L43.5139 73.2539C42.8238 73.5192 42.0896 73.5989 41.3907 73.475ZM43.735 58.4447C43.1423 58.3386 42.5319 58.4093 41.948 58.6393C40.8422 59.0817 40.0814 60.0548 39.9133 61.2314L38.7898 69.1314C38.6217 70.308 39.0817 71.4492 40.0195 72.1834C40.9572 72.9177 42.178 73.0946 43.2838 72.6434L50.7857 69.6268C50.8211 69.6091 50.8565 69.6002 50.883 69.5825C51.9269 69.1048 52.6258 68.1494 52.7585 67.0082C52.8912 65.867 52.44 64.77 51.5288 64.0623L45.2035 59.0994C44.77 58.7543 44.2658 58.5332 43.735 58.4447Z" fill="#F89E1C"/>
<path d="M50.8468 69.8483C50.8822 69.8306 50.9176 69.8129 50.9529 69.8041C53.315 68.7248 53.7308 65.4958 51.6519 63.868L45.4681 59.0201C43.3272 57.3393 40.1779 58.6132 39.7886 61.3025L38.6916 69.0256C38.3112 71.7149 40.9829 73.8116 43.5042 72.8031L50.7937 69.8748C50.8203 69.866 50.838 69.8572 50.8468 69.8483Z" fill="#032663"/>
<path d="M48.2024 68.1767C48.2201 68.1679 48.2466 68.159 48.2643 68.1502C49.6001 67.5398 49.8301 65.7262 48.6624 64.8062L45.1768 62.0814C43.9737 61.1349 42.1955 61.8514 41.9744 63.3642L41.3551 67.7167C41.1428 69.2295 42.6467 70.4149 44.071 69.8399L48.1758 68.1856C48.1847 68.1856 48.1935 68.1856 48.2024 68.1767Z" fill="#33FCFE"/>
<path d="M74.8926 41.3091L79.3336 39.6548C79.3336 39.6548 82.4918 28.2605 79.6609 22.3421L78.0066 25.4826C77.9977 25.4826 79.2982 28.2958 74.8926 41.3091Z" fill="#F4B821"/>
<path d="M67.5845 59.8611C66.3106 60.8873 59.5784 62.8866 59.5784 62.8866C59.5784 62.8866 61.4273 64.8505 60.8789 68.2299C60.4719 70.76 57.703 72.6001 57.703 72.6001C59.4634 75.1656 57.9949 78.8812 55.8983 81.5351C53.8016 84.1891 55.0578 85.2861 55.0578 85.2861C55.0578 85.2861 66.7353 73.0336 68.8938 65.3902C69.7697 62.285 67.5845 59.8611 67.5845 59.8611Z" fill="#F4B821"/>
<path d="M23.1484 67.2743C23.1484 67.2743 25.6255 67.2832 26.634 69.141C27.6425 70.9899 32.8177 86.781 35.4982 92.5666C35.9848 93.6105 37.0818 97.0961 39.0369 96.7776C39.0369 96.7776 36.2237 97.7861 33.1008 93.3363C29.9868 88.8776 24.5639 72.2373 23.1484 67.2743Z" fill="#0E51A0"/>
<path d="M31.9418 38.1337C31.8622 38.116 31.7826 38.0983 31.703 38.0629C31.1368 37.824 30.8714 37.1694 31.1102 36.6032C32.3222 33.7192 35.1177 32.2065 38.2317 32.7461C41.2661 33.2681 43.5574 35.8159 43.6901 38.7883C43.7166 39.4076 43.2389 39.9207 42.6196 39.9472C42.0004 39.9738 41.4872 39.496 41.4607 38.8768C41.3899 37.2136 40.1249 35.3293 37.8513 34.9312C35.7635 34.5685 33.9677 35.5328 33.1627 37.4525C32.9503 37.9479 32.4372 38.2133 31.9418 38.1337Z" fill="#0E51A0"/>
<path d="M54.2797 41.9912C54.2001 41.9735 54.1205 41.9558 54.0409 41.9204C53.4747 41.6816 53.2093 41.0269 53.4481 40.4607C54.6601 37.5768 57.4556 36.064 60.5696 36.6036C63.604 37.1256 65.8952 39.6734 66.0279 42.6458C66.0545 43.2651 65.5768 43.787 64.9575 43.8136C64.3382 43.8401 63.8163 43.3624 63.7897 42.7431C63.719 41.08 62.4539 39.1957 60.1804 38.7976C58.0926 38.4349 56.2967 39.3991 55.4917 41.3189C55.2882 41.8143 54.7839 42.0797 54.2797 41.9912Z" fill="#0E51A0"/>
<path d="M49.0957 45.6618C49.2903 45.6972 49.3965 45.9007 49.3168 46.0776C49.0514 46.6526 48.4233 46.9977 47.7687 46.8915C47.114 46.7765 46.6452 46.2369 46.5833 45.6087C46.5656 45.4141 46.7425 45.2637 46.9283 45.2903L49.0957 45.6618Z" fill="#032663"/>
<path d="M35.5959 27.9783C35.649 27.9783 35.7109 27.9606 35.764 27.9252C36.5336 27.4563 37.4537 27.3767 38.2941 27.7129C38.4799 27.7837 38.6833 27.6952 38.7541 27.5183C38.8249 27.3325 38.7365 27.129 38.5595 27.0582C37.5156 26.6424 36.3656 26.7398 35.4013 27.3236C35.2332 27.4298 35.1801 27.6421 35.2863 27.8102C35.3394 27.9252 35.4632 27.9871 35.5959 27.9783Z" fill="#032663"/>
<path d="M63.5949 32.8251C63.5418 32.8074 63.4976 32.772 63.4534 32.719C62.8872 32.0201 62.0468 31.6308 61.1444 31.6662C60.9498 31.6751 60.7817 31.5247 60.7728 31.3212C60.764 31.1266 60.9144 30.9585 61.1179 30.9497C62.2414 30.9054 63.2941 31.3831 64.0018 32.2589C64.1257 32.4093 64.0992 32.6305 63.9488 32.7544C63.8515 32.8517 63.7099 32.8694 63.5949 32.8251Z" fill="#032663"/>
<path d="M94.0272 55.9678C93.974 55.9146 93.974 55.8347 94.0272 55.7815C94.0805 55.7283 94.1603 55.7283 94.2135 55.7815C94.2667 55.8347 94.2667 55.9146 94.2135 55.9678C94.1692 56.0211 94.0805 56.0211 94.0272 55.9678Z" fill="white"/>
<path d="M82.9872 16.7781C82.934 16.7249 82.934 16.645 82.9872 16.5918C83.0404 16.5385 83.1203 16.5385 83.1735 16.5918C83.2268 16.645 83.2268 16.7249 83.1735 16.7781C83.1203 16.8313 83.0404 16.8313 82.9872 16.7781Z" fill="white"/>
</g>
</svg>
