<svg width="80" height="80" viewBox="0 0 80 80" fill="none" xmlns="http://www.w3.org/2000/svg">
<mask id="mask0_12159_687293" style="mask-type:alpha" maskUnits="userSpaceOnUse" x="0" y="0" width="80" height="80">
<rect width="80" height="80" fill="#D9D9D9"/>
</mask>
<g mask="url(#mask0_12159_687293)">
<path d="M59.2018 52.416C61.5502 45.6593 56.4949 38.6213 49.3444 38.7338L46.5742 38.7759C46.5531 38.7759 46.539 38.7759 46.5179 38.7759L39.6135 38.8884L32.7091 38.7759C32.688 38.7759 32.6739 38.7759 32.6529 38.7759L29.8827 38.7338C22.7322 38.6213 17.6769 45.6593 20.0252 52.416C20.7916 54.6238 21.6142 56.6768 22.472 58.5822C22.9361 59.7001 23.5337 60.9305 24.2016 62.2031C27.1125 67.9123 30.185 72.2152 32.5404 75.7378C32.6318 75.8714 32.7302 76.0049 32.8286 76.1315C34.3895 78.3884 36.991 79.4642 39.6206 79.429C42.2431 79.4712 44.8516 78.3884 46.4125 76.1315C46.5109 76.0049 46.6093 75.8714 46.7007 75.7378C49.0561 72.2152 52.1287 67.9123 55.0395 62.2031C55.7074 60.9305 56.305 59.7071 56.7691 58.5822C57.6128 56.6698 58.4354 54.6238 59.2018 52.416Z" fill="#F89E1C"/>
<path d="M47.1437 66.1197C49.0913 62.3511 45.2313 59.7637 40.9424 62.2457C35.8309 65.1987 32.8075 63.8698 29.3975 58.2169C26.6273 53.6187 22.5775 54.8069 21.1572 55.4116C21.6002 56.5295 22.0502 57.6123 22.5142 58.6458C22.9782 59.7637 23.5759 60.9941 24.2438 62.2668C27.1546 67.9759 30.2272 72.2789 32.5826 75.8014C32.674 75.935 32.7724 76.0686 32.8708 76.1951C34.4317 78.4521 37.0332 79.5278 39.6627 79.4926C42.2853 79.5348 44.8938 78.4521 46.4547 76.1951C46.5531 76.0686 46.6515 75.935 46.7429 75.8014C47.5093 74.6483 48.3601 73.4179 49.246 72.075C47.207 71.7445 45.2594 69.7618 47.1437 66.1197Z" fill="#032663"/>
<path d="M39.4874 79.6122C36.7101 79.6122 34.193 78.3677 32.7376 76.2584C32.6392 76.1318 32.5408 75.9983 32.4494 75.8576C32.1119 75.3514 31.7533 74.8241 31.3877 74.2827C29.2503 71.1258 26.5996 67.2025 24.1036 62.3089C23.3935 60.959 22.8099 59.7356 22.3669 58.681C21.8959 57.6333 21.4388 56.5435 21.01 55.4467L20.9678 55.3342L21.0803 55.285C22.6763 54.603 26.691 53.5202 29.4753 58.1466C32.9626 63.9331 35.9367 64.9737 40.8514 62.1332C43.4669 60.6215 45.766 61.0223 46.8839 62.091C47.9105 63.0753 48.0441 64.601 47.2285 66.176C46.4058 67.772 46.2582 69.1852 46.8066 70.268C47.2495 71.1398 48.1565 71.7656 49.2323 71.9414L49.4292 71.9695L49.3167 72.1312C48.8175 72.8835 48.3323 73.6007 47.8612 74.2897C47.4956 74.8311 47.1441 75.3514 46.8066 75.8506C46.7152 75.9912 46.6168 76.1248 46.5183 76.2514C45.0418 78.3888 42.4755 79.6473 39.628 79.5981C39.5788 79.6122 39.5295 79.6122 39.4874 79.6122ZM39.628 79.3591C42.3911 79.4012 44.8801 78.1919 46.3144 76.1178C46.4129 75.9842 46.5113 75.8576 46.5957 75.724C46.9332 75.2178 47.2847 74.6975 47.6503 74.1561C48.0862 73.5163 48.5292 72.8484 48.9932 72.1593C47.9175 71.9343 47.0246 71.2805 46.5746 70.3875C46.1668 69.579 45.9066 68.1728 47.0035 66.0635L47.116 66.1197L47.0035 66.0635C47.7628 64.594 47.6573 63.1808 46.7082 62.2808C45.6535 61.2754 43.4739 60.9098 40.9779 62.3582C35.9719 65.2549 32.7939 64.1511 29.2573 58.2872C26.6347 53.9421 22.8943 54.828 21.2912 55.4819C21.706 56.5365 22.149 57.5841 22.599 58.5966C23.0349 59.6512 23.6184 60.8606 24.3286 62.2105C26.8175 67.09 29.4682 71.0063 31.5986 74.1561C31.9642 74.6975 32.3228 75.2248 32.6603 75.7311C32.7517 75.8647 32.8431 75.9912 32.9415 76.1248C34.3758 78.1919 36.8789 79.4083 39.628 79.3591Z" fill="#10319B"/>
<path d="M14.5337 44.3584C13.5282 47.1567 11.651 53.9416 13.2892 62.2944C13.4509 63.11 14.5055 63.342 14.9977 62.6741L15.3844 62.1538C19.2866 56.8665 19.4905 49.709 15.8977 44.2037C15.5532 43.6694 14.7516 43.7608 14.5337 44.3584Z" fill="#F5851F"/>
<path d="M39.7469 79.6112C39.6977 79.6112 39.6555 79.6112 39.6063 79.6112C36.7799 79.6534 34.1925 78.4019 32.716 76.2574C32.6175 76.1308 32.5191 75.9973 32.4277 75.8566C32.0902 75.3504 31.7316 74.8231 31.366 74.2817C29.2286 71.1248 26.5779 67.2015 24.0819 62.308C23.3718 60.958 22.7882 59.7346 22.3453 58.68C21.4453 56.6621 20.6227 54.5879 19.8985 52.5068C18.7595 49.2374 19.2727 45.75 21.2977 42.9517C23.3155 40.1674 26.4373 38.6065 29.8825 38.6558L32.6456 38.6979H32.7019L39.6063 38.8104L46.5107 38.6979H46.5459L49.3372 38.6558C52.7824 38.5995 55.9041 40.1674 57.922 42.9517C59.9469 45.75 60.4602 49.2374 59.3212 52.5068C58.597 54.5879 57.7743 56.6691 56.8744 58.687C56.4385 59.7416 55.8549 60.965 55.1377 62.315C52.6417 67.2015 49.984 71.1318 47.8536 74.2887C47.488 74.8301 47.1295 75.3574 46.792 75.8637C46.7006 76.0043 46.6021 76.1379 46.5037 76.2644C45.0483 78.3667 42.5312 79.6112 39.7469 79.6112ZM39.6063 79.3581C42.3695 79.4002 44.8584 78.1909 46.2928 76.1168C46.3912 75.9832 46.4896 75.8566 46.574 75.723C46.9115 75.2168 47.2701 74.6895 47.6357 74.1481C49.7661 70.9982 52.4167 67.075 54.9057 62.2025C55.6158 60.8596 56.1924 59.6432 56.6353 58.5956C57.5353 56.5847 58.3579 54.5106 59.0751 52.4365C60.186 49.2444 59.6868 45.8414 57.7111 43.1134C55.7424 40.3994 52.6839 38.8737 49.3372 38.9229L46.574 38.9651H46.5389L39.6133 39.0776L32.7019 38.9651H32.6456L29.8754 38.9229C26.5287 38.8737 23.4702 40.3994 21.5016 43.1134C19.5259 45.8484 19.0267 49.2444 20.1375 52.4365C20.8547 54.5106 21.6773 56.5847 22.5773 58.5956C23.0132 59.6502 23.5968 60.8596 24.3069 62.2095C26.7959 67.089 29.4466 71.0053 31.5769 74.1551C31.9426 74.6965 32.3011 75.2239 32.6386 75.7301C32.73 75.8637 32.8214 75.9902 32.9199 76.1238C34.3612 78.1909 36.8642 79.4073 39.6063 79.3581Z" fill="#10319B"/>
<path d="M55.8831 42.4742C54.1042 40.9344 51.8403 40.0064 49.3091 40.0556L46.5319 40.1048C46.5108 40.1048 46.4967 40.1048 46.4756 40.1048L39.536 40.2243L32.5965 40.1048C32.5754 40.1048 32.5613 40.1048 32.5402 40.1048L29.763 40.0556C25.91 39.9923 23.8148 42.7625 22.0008 45.9335C21.593 46.6506 21.9938 47.5787 22.7742 47.7334C29.3482 49.0341 44.303 50.4895 55.8831 42.4742Z" fill="#E26907"/>
<path d="M37.8069 61.0216C37.1459 61.0216 36.478 60.8599 35.8663 60.5294C34.5656 59.8263 33.764 58.5256 33.7148 57.0491L33.4617 48.5838C33.4195 47.1073 34.1437 45.7574 35.4023 44.984C36.6608 44.2035 38.1865 44.1613 39.4873 44.8644L47.0034 48.9072C48.2619 49.5822 49.0564 50.8337 49.1337 52.261C49.2111 53.6883 48.5502 55.0172 47.376 55.8187C47.3409 55.8468 47.2987 55.8679 47.2635 55.896L47.2143 55.9241L39.9583 60.4099C39.2904 60.8107 38.5451 61.0216 37.8069 61.0216ZM37.5467 44.8715C36.8999 44.8715 36.246 45.0543 35.6624 45.4128C34.5585 46.0948 33.9258 47.2761 33.9679 48.5697L34.2211 57.035C34.2632 58.3287 34.9663 59.4678 36.1054 60.0795C37.2444 60.6911 38.5873 60.656 39.6841 59.974L46.9893 55.4601C47.0245 55.439 47.0596 55.4179 47.0877 55.3968C48.1143 54.6937 48.6908 53.5336 48.6205 52.2821C48.5572 51.0376 47.8611 49.9408 46.7573 49.3502L39.2412 45.3074C38.7068 45.0121 38.1232 44.8715 37.5467 44.8715Z" fill="#F89E1C"/>
<path d="M37.7719 61.0851C37.118 61.0851 36.4571 60.9234 35.8454 60.5929C34.5517 59.8969 33.7572 58.6102 33.715 57.1407L33.4549 48.4645C33.4127 47.002 34.1299 45.6662 35.3743 44.8928C36.6188 44.1194 38.1375 44.0772 39.4312 44.7732L47.1301 48.9215C48.3746 49.5894 49.1621 50.8339 49.2394 52.2472C49.3168 53.6604 48.6629 54.9822 47.5028 55.7767C47.4676 55.8048 47.4254 55.8259 47.3903 55.854L47.3411 55.8822L39.9023 60.4804C39.2414 60.8812 38.5102 61.0851 37.7719 61.0851ZM37.5047 44.5412C36.8157 44.5412 36.1267 44.731 35.5079 45.1177C34.3408 45.8419 33.6658 47.0935 33.708 48.4645L33.9681 57.1407C34.0103 58.5118 34.7556 59.7211 35.9649 60.375C37.1743 61.0288 38.5945 60.9867 39.7687 60.2625L47.2497 55.6361C47.2848 55.615 47.32 55.5869 47.3551 55.5658C48.4449 54.8205 49.0566 53.5901 48.9863 52.2612C48.916 50.9394 48.1777 49.7723 47.0106 49.1465L39.3117 44.9982C38.7422 44.6959 38.1235 44.5412 37.5047 44.5412Z" fill="#10319B"/>
<path d="M15.8982 44.2034C15.5536 43.6761 14.7521 43.7675 14.5341 44.3581C13.6482 46.8189 12.0874 52.3663 12.8467 59.3481C12.9662 53.1257 15.5396 47.1705 16.4888 45.1807C16.2989 44.8502 16.1091 44.5198 15.8982 44.2034Z" fill="#F89E1C"/>
<path d="M13.1347 58.2097C12.8254 58.2097 12.6355 58.1535 12.6074 58.1464L12.7551 57.6613L12.6777 57.9003L12.748 57.6543C12.7762 57.6613 15.8206 58.3222 18.3306 51.7412L18.4642 52.7326C16.4182 57.9144 14.1824 58.2097 13.1347 58.2097Z" fill="#F89E1C"/>
<path d="M12.9521 60.2983C12.9521 60.2983 15.6099 61.6061 17.6488 57.5352C17.6488 57.5352 15.9614 62.5904 14.1615 62.9982C14.1615 62.9982 12.9943 63.2584 12.9521 60.2983Z" fill="#032663"/>
<path d="M14.2388 63.1872C14.1545 63.1872 14.0771 63.1801 13.9928 63.159C13.5709 63.0606 13.2545 62.7442 13.1701 62.3153C11.5038 53.8289 13.4865 46.8964 14.4146 44.316C14.5271 43.9996 14.8083 43.7746 15.1458 43.7324C15.4833 43.6903 15.8138 43.8449 15.9966 44.1332C19.6035 49.6525 19.3925 56.9226 15.4763 62.2239L15.0896 62.7442C14.8927 63.0254 14.5763 63.1872 14.2388 63.1872ZM15.2583 43.9785C15.2302 43.9785 15.2091 43.9785 15.181 43.9856C14.9349 44.0137 14.738 44.1684 14.6537 44.4004C13.7326 46.9667 11.7639 53.843 13.4162 62.2661C13.4795 62.5895 13.7185 62.8356 14.049 62.9129C14.3724 62.9832 14.7029 62.8637 14.8998 62.5965L15.2865 62.0763C19.1394 56.8593 19.3433 49.7017 15.7927 44.2738C15.6732 44.084 15.4763 43.9785 15.2583 43.9785Z" fill="#10319B"/>
<path d="M13.9086 60.5716C13.3109 60.5716 12.9172 60.4169 12.9102 60.4098L13.0086 60.1778C13.1141 60.22 15.6804 61.2325 17.6139 57.499L17.8389 57.6186C16.5452 60.1075 14.928 60.5716 13.9086 60.5716Z" fill="#10319B"/>
<path d="M13.2408 58.3506C12.9385 58.3506 12.7557 58.2943 12.7275 58.2873L12.8049 58.0482C12.833 58.0553 15.772 58.8919 18.3593 52.6836L18.5914 52.782C16.5243 57.7389 14.2392 58.3506 13.2408 58.3506Z" fill="#10319B"/>
<path d="M65.0026 44.3584C66.008 47.1567 67.8853 53.9416 66.247 62.2944C66.0853 63.11 65.0307 63.342 64.5385 62.6741L64.1518 62.1538C60.2496 56.8665 60.0457 49.709 63.6386 44.2037C63.9831 43.6694 64.7846 43.7608 65.0026 44.3584Z" fill="#F89E1C"/>
<path d="M64.3276 45.1878C64.3206 45.2018 64.3136 45.2089 64.3065 45.2229C63.0761 47.3182 63.3222 49.9829 64.8831 51.8391C65.3963 52.4508 66.0221 53.0062 66.7603 53.3718C66.7533 49.5681 65.776 46.6291 65.2065 45.2511C65.0518 44.8784 64.5315 44.8433 64.3276 45.1878Z" fill="#F4B821"/>
<path d="M61.7264 48.5215C60.4538 53.1197 61.2764 58.168 64.1521 62.1545L64.5247 62.6748C64.5669 62.7381 64.6232 62.7873 64.6794 62.8365L65.9591 62.7662C66.0786 62.6397 66.163 62.485 66.1981 62.2952C66.3598 61.4514 66.4864 60.6288 66.5848 59.8203C62.5631 58.0977 61.8389 51.6784 61.7264 48.5215Z" fill="#F5851F"/>
<path d="M66.3451 58.223C65.2834 58.223 63.0054 57.5621 61.0156 52.5138L61.1844 51.6631C63.7225 58.6378 66.7459 57.6746 66.774 57.6675L66.9427 58.1456C66.9076 58.1527 66.6967 58.223 66.3451 58.223Z" fill="#F89E1C"/>
<path d="M66.5844 60.2983C66.5844 60.2983 63.9267 61.6061 61.8877 57.5352C61.8877 57.5352 63.5751 62.5904 65.3751 62.9982C65.3751 62.9982 66.5422 63.2584 66.5844 60.2983Z" fill="#032663"/>
<path d="M65.2977 63.1874C64.9602 63.1874 64.6438 63.0327 64.4329 62.7444L64.0462 62.2241C60.1299 56.9228 59.926 49.6527 63.5259 44.1334C63.7157 43.8451 64.0391 43.6975 64.3766 43.7326C64.7141 43.7748 64.9953 43.9928 65.1078 44.3162C66.0359 46.9036 68.0257 53.8362 66.3523 62.3155C66.268 62.7374 65.9516 63.0608 65.5297 63.1592C65.4594 63.1803 65.382 63.1874 65.2977 63.1874ZM64.2782 43.9787C64.0602 43.9787 63.8704 44.0842 63.7438 44.267C60.1932 49.6949 60.3971 56.8524 64.2501 62.0694L64.6368 62.5897C64.8336 62.8569 65.1641 62.9764 65.4875 62.9061C65.8109 62.8358 66.05 62.5897 66.1203 62.2593C67.7796 53.8362 65.8039 46.9599 64.8829 44.3936C64.7985 44.1615 64.6016 44.0069 64.3555 43.9787C64.3274 43.9787 64.3063 43.9787 64.2782 43.9787Z" fill="#10319B"/>
<path d="M65.6286 60.5718C64.6091 60.5718 62.9919 60.1077 61.6982 57.6117L61.9232 57.4922C63.8567 61.2327 66.4231 60.2202 66.5285 60.171L66.627 60.403C66.6199 60.4171 66.2262 60.5718 65.6286 60.5718Z" fill="#10319B"/>
<path d="M66.2959 58.3506C65.2975 58.3506 63.0124 57.7389 60.9453 52.782L61.1773 52.6836C63.7788 58.913 66.7037 58.0553 66.7318 58.0482L66.8091 58.2873C66.781 58.2943 66.5982 58.3506 66.2959 58.3506Z" fill="#10319B"/>
<path d="M38.2772 59.0744C37.771 59.0744 37.2648 58.9479 36.7937 58.6947C35.7953 58.1604 35.1836 57.169 35.1484 56.037L34.9586 49.6951C34.9235 48.5631 35.4789 47.5366 36.4421 46.946C37.4054 46.3484 38.5725 46.3202 39.5639 46.8546L45.1887 49.8849C46.1519 50.4052 46.7566 51.3614 46.8128 52.4512C46.8691 53.541 46.3699 54.5605 45.4699 55.1722C45.4418 55.1933 45.4137 55.2074 45.3855 55.2285L45.3504 55.2496L39.9154 58.6104C39.4092 58.9127 38.8467 59.0744 38.2772 59.0744ZM38.0804 46.9811C37.6023 46.9811 37.1312 47.1147 36.7023 47.3749C35.9008 47.8741 35.4367 48.7319 35.4648 49.681L35.6547 56.023C35.6828 56.9722 36.1961 57.8018 37.0327 58.2518C37.8624 58.7018 38.8467 58.6737 39.6483 58.1745L45.1113 54.7926C45.1395 54.7785 45.1605 54.7574 45.1816 54.7433C45.934 54.2301 46.3488 53.3793 46.2996 52.4723C46.2503 51.5653 45.7441 50.7638 44.9426 50.3279L39.3178 47.2975C38.9311 47.0866 38.5092 46.9811 38.0804 46.9811Z" fill="#F89E1C"/>
<path d="M45.1962 54.9543C45.2243 54.9402 45.2525 54.9191 45.2735 54.9051C46.9821 53.7379 46.8626 51.1576 45.0204 50.1662L39.5222 47.1991C37.6168 46.1726 35.3247 47.5929 35.388 49.7584L35.5708 55.9527C35.6341 58.1112 38.0176 59.3908 39.8527 58.2588L45.1681 54.9754C45.1751 54.9684 45.1892 54.9613 45.1962 54.9543Z" fill="#032663"/>
<path d="M42.8967 53.9975C42.9107 53.9905 42.9248 53.9764 42.9389 53.9694C43.9021 53.3155 43.8318 51.8601 42.7912 51.2976L39.6906 49.6313C38.6148 49.0547 37.3211 49.8563 37.3633 51.0726L37.4688 54.567C37.5039 55.7834 38.8468 56.5076 39.8804 55.8678L42.8756 54.0186C42.8826 54.0116 42.8897 54.0046 42.8967 53.9975Z" fill="#33FCFE"/>
<path d="M56.9452 44.8584C56.0874 45.8357 51.0884 48.3176 51.0884 48.3176C51.0884 48.3176 52.804 49.6043 52.8321 52.3253C52.8532 54.3572 50.9337 56.1783 50.9337 56.1783C52.6633 57.943 52.0095 61.0578 50.7298 63.4202C49.4502 65.7826 50.5822 66.4716 50.5822 66.4716C50.5822 66.4716 58.0631 55.2924 58.717 49.0137C58.9842 46.4615 56.9452 44.8584 56.9452 44.8584Z" fill="#F4B821"/>
<path d="M23.1475 56.6836C23.1475 56.6836 25.088 56.3602 26.1286 57.675C27.1692 58.9898 33.3564 70.6542 36.2391 74.8235C36.7594 75.5758 38.0953 78.1562 39.5788 77.6429C39.5788 77.6429 37.5117 78.8171 34.4673 75.7516C31.4299 72.6791 24.9333 60.3819 23.1475 56.6836Z" fill="#0E51A0"/>
<path d="M19.894 7.94908C21.3037 6.95523 22.9883 6.1094 24.8492 5.40454L24.7293 5.43274C24.7293 5.43274 30.7065 2.12695 39.623 2.12695C48.5112 2.12695 54.5589 5.33406 54.5942 5.3552C56.5114 6.06711 58.2312 6.92704 59.6762 7.94203C66.6331 12.8408 66.0622 23.3643 63.0102 33.2817C60.804 40.4994 50.2945 43.7841 39.7921 43.6219C29.2898 43.7841 18.7803 40.4994 16.56 33.2817C13.508 23.3714 12.9371 12.8478 19.894 7.94908Z" fill="#F89E1C"/>
<path d="M19.8943 7.98304C20.6344 7.46145 21.4521 6.98215 22.3261 6.53809C15.5101 11.4932 16.0881 21.9604 19.119 31.8284C21.3393 39.0602 31.8417 42.3449 42.3511 42.1898C48.3213 42.2814 54.2914 41.2523 58.7461 39.025C54.2139 42.3237 47.0032 43.8462 39.7854 43.7334C29.2831 43.8955 18.7736 40.6039 16.5533 33.372C13.5083 23.4406 12.9374 12.8959 19.8943 7.98304Z" fill="#F5851F"/>
<path d="M23.1434 16.8085C18.879 15.9204 18.5971 9.12557 18.583 8.82953L19.0905 8.81543C19.0905 8.87887 19.3724 15.5045 23.2421 16.3081L23.1434 16.8085Z" fill="#F89E1C"/>
<path d="M55.5179 17.0686L55.377 16.5823C59.6202 15.3488 59.8669 8.45525 59.8669 8.38477L60.3744 8.39886C60.3673 8.6949 60.1136 15.7364 55.5179 17.0686Z" fill="#F4B821"/>
<path d="M39.9407 8.1667C37.5512 8.1667 35.3309 7.38431 34.034 6.06623C33.9917 6.02394 33.9494 5.98164 33.9071 5.9323L31.5811 3.31023L32.152 2.80273L34.478 5.41776C34.5062 5.453 34.5415 5.48824 34.5767 5.52349C35.8384 6.80633 38.108 7.51118 40.5116 7.38431C42.8447 7.25744 44.8747 6.36932 45.939 5.02304L47.6025 2.90846L48.2016 3.38072L46.5381 5.49529C45.3469 7.01778 43.1055 8.00459 40.5539 8.14556C40.3424 8.15965 40.1451 8.1667 39.9407 8.1667Z" fill="#F4B821"/>
<path d="M39.9265 10.9234C36.7617 10.9234 33.8929 9.85909 32.0673 7.99826C32.0039 7.93482 31.9334 7.86434 31.8699 7.79385L31.7995 7.71632L28.6064 4.12859L29.1774 3.62109L32.4338 7.28635C32.4902 7.34979 32.5466 7.41323 32.61 7.46962C34.2946 9.17537 36.9661 10.1622 39.9265 10.1622C40.1661 10.1622 40.4128 10.1551 40.6595 10.141C43.8173 9.96481 46.531 8.72426 48.0958 6.72952L50.4711 3.70568L51.0703 4.17793L48.6949 7.20177C46.9962 9.36569 44.0781 10.712 40.7018 10.9023C40.4481 10.9164 40.1873 10.9234 39.9265 10.9234Z" fill="#F4B821"/>
<path d="M59.2815 9.80285C57.8366 8.78081 56.1167 7.90679 54.1995 7.19488C54.1572 7.17374 48.0954 3.48028 39.2072 3.48028C33.3568 3.47323 28.2466 4.45298 25.4131 5.1226C27.2105 4.27677 32.4687 2.12695 39.6301 2.12695C48.5183 2.12695 54.566 5.36225 54.6013 5.3834C56.5185 6.10235 58.2383 6.96933 59.6833 7.99137C65.886 12.3967 66.1045 21.3132 63.9124 30.279C65.6464 21.9476 65.0684 13.9122 59.2815 9.80285Z" fill="#F4B821"/>
<path d="M55.9331 16.7235L55.8838 16.4768C59.8592 15.6521 60.2892 8.57537 60.2962 8.50488L60.5499 8.51898C60.5288 8.81502 60.0988 15.8565 55.9331 16.7235Z" fill="#10319B"/>
<path d="M48.3919 6.94105L50.7672 3.91721C49.9355 3.64936 48.9699 3.37446 47.8914 3.12072L46.228 5.23529C45.1002 6.6732 42.9645 7.60361 40.5257 7.74458C38.0164 7.88555 35.6339 7.13136 34.3018 5.77098C34.2595 5.72869 34.2242 5.69345 34.189 5.65116L31.863 3.03613C30.7563 3.28283 29.7625 3.56478 28.8955 3.83967L32.0885 7.4274L32.159 7.50493C32.2224 7.56837 32.2788 7.63885 32.3423 7.70229C34.0974 9.48558 36.8886 10.5076 39.9265 10.5076C40.1732 10.5076 40.427 10.5006 40.6807 10.4865C43.9442 10.3173 46.7566 9.02038 48.3919 6.94105Z" fill="#032663"/>
<path d="M23.5591 16.7243C19.3934 15.8574 18.9352 8.88631 18.9141 8.59027L19.1678 8.57617C19.1749 8.64666 19.633 15.6529 23.6084 16.4776L23.5591 16.7243Z" fill="#10319B"/>
<path d="M39.7363 43.5294C34.5415 43.607 29.3537 42.888 25.0541 41.3091C24.0532 40.2377 23.2567 38.8562 22.7915 37.2491C21.6003 33.1257 20.2611 27.36 19.7465 20.8823C19.4928 17.6964 21.2901 14.8065 23.8699 14.1862C27.3872 13.3404 32.8146 12.3606 39.257 12.2619V12.2549C39.4402 12.2549 39.6164 12.2619 39.7997 12.2619C39.983 12.2619 40.1592 12.2549 40.3425 12.2549V12.2619C46.7849 12.3606 52.0854 13.1782 55.6026 14.0241C58.1824 14.6444 60.1067 17.6964 59.8529 20.8823C59.3384 27.36 57.9991 33.1257 56.8079 37.2491C56.3498 38.821 55.5815 40.1743 54.6088 41.2457C50.2598 42.8669 44.9945 43.607 39.7363 43.5294Z" fill="#032663"/>
<path d="M57.6744 39.6392L56.6523 40.1961C56.8427 39.6322 57.1598 38.6806 57.3713 38.011C57.9352 36.2489 58.5766 34.2471 59.1475 32.9078C60.0709 30.7439 62.6366 29.1087 64.3212 28.291L64.0322 29.3976C62.4604 30.1659 60.6771 31.2585 59.8453 33.2109C59.2885 34.522 58.6541 36.5026 58.0903 38.2507C57.8858 38.9132 57.8647 39.0753 57.6744 39.6392Z" fill="#F4B821"/>
<path d="M22.2206 39.8016C22.1642 39.8016 22.1149 39.7663 22.1008 39.717C21.9316 39.2166 21.7554 38.6668 21.5722 38.1099C21.0224 36.4112 20.3951 34.4799 19.81 33.1054C18.9571 31.1107 17.1245 30.0041 15.4399 29.1794C15.3765 29.1512 15.3483 29.0737 15.3835 29.0102C15.4117 28.9468 15.4892 28.9186 15.5527 28.9538C17.2796 29.7926 19.1616 30.9345 20.0497 33.0068C20.6418 34.3953 21.2691 36.3266 21.8189 38.0324C22.0021 38.5892 22.1783 39.132 22.3405 39.6395C22.3616 39.7029 22.3264 39.7804 22.2629 39.8016C22.2488 39.8016 22.2347 39.8016 22.2206 39.8016Z" fill="#F89E1C"/>
<path d="M64.1172 29.3623C63.8141 30.6733 63.4617 31.9914 63.0599 33.2954C62.2352 35.988 60.2827 38.1307 57.6113 39.766C58.3021 37.7008 58.8801 35.3959 59.6554 33.5703C60.5788 31.4205 62.6299 30.0813 64.1172 29.3623Z" fill="#032663"/>
<path d="M62.3055 33.4578C62.5874 32.6965 62.8482 31.9353 63.0949 31.167C62.3055 31.6745 61.4949 32.4075 61.0015 33.4296C60.4728 34.5151 60.0076 35.8543 59.5283 37.1301C60.783 36.1644 61.7486 34.945 62.3055 33.4578Z" fill="#0E51A0"/>
<path d="M57.7729 39.7519L57.5332 39.6744C57.7729 38.9625 57.9984 38.2083 58.2169 37.4823C58.6328 36.1008 59.0698 34.6769 59.5773 33.4716C60.4936 31.3148 62.5447 29.9614 64.0954 29.2002L64.2082 29.4257C62.6928 30.1658 60.7051 31.4769 59.8099 33.5633C59.3024 34.7545 58.8724 36.1712 58.4566 37.5457C58.2381 38.2858 58.0125 39.04 57.7729 39.7519Z" fill="#10319B"/>
<path d="M15.4395 29.3623C15.7425 30.6733 16.095 31.9914 16.4967 33.2954C17.3214 35.988 19.2739 38.1307 21.9453 39.766C21.2545 37.7008 20.6765 35.3959 19.9012 33.5703C18.9849 31.4205 16.9267 30.0813 15.4395 29.3623Z" fill="#032663"/>
<path d="M40.483 43.7346C40.2504 43.7346 40.0178 43.7346 39.7922 43.7276C30.5374 43.8686 18.8791 41.2253 16.4403 33.3098C14.2552 26.2189 11.7952 13.4892 19.8236 7.83622L19.8941 7.94195L19.8236 7.83622C21.2262 6.84942 24.6307 5.34807 24.7787 5.28464C24.8281 5.25644 30.7841 2 39.6301 2C48.5042 2 54.6013 5.2071 54.6647 5.24235C56.6313 5.96835 58.3511 6.84237 59.7608 7.83622C67.7892 13.4892 65.3292 26.2189 63.1441 33.3027C60.7617 41.028 49.6109 43.7346 40.483 43.7346ZM39.7852 43.4738C40.0107 43.4738 40.2433 43.4809 40.4759 43.4809C49.5192 43.4809 60.5573 40.8236 62.8974 33.2322C65.0614 26.2119 67.5072 13.609 59.6128 8.04768C58.2172 7.06793 56.5185 6.20095 54.559 5.47495C54.4814 5.43266 48.4338 2.2608 39.6301 2.2608C30.8546 2.2608 24.9479 5.482 24.8915 5.51724C24.8492 5.53839 21.3602 7.07498 19.9716 8.04768C12.0701 13.602 14.523 26.2119 16.6799 33.2322C19.0764 41.0139 30.629 43.6148 39.7852 43.4738Z" fill="#10319B"/>
<path d="M39.7927 42.4157C35.338 42.4791 30.8903 41.9223 27.0982 40.7029C26.5131 40.5126 25.9845 40.1601 25.618 39.6667C24.9906 38.835 24.4972 37.8553 24.166 36.7627C23.0664 33.0552 21.8329 27.8604 21.3606 22.0312C21.128 19.1624 22.7844 16.5615 25.1598 16.0047C28.4022 15.2434 33.4066 14.3624 39.3486 14.2707V14.2637C39.5178 14.2637 39.6799 14.2637 39.8491 14.2707C40.0182 14.2707 40.1803 14.2637 40.3495 14.2637V14.2707C46.2915 14.3624 51.2889 15.2434 54.5383 16.0047C56.9207 16.5615 58.5701 19.1624 58.3375 22.0312C57.8582 27.8604 56.6317 33.0552 55.5321 36.7627C55.2079 37.8482 54.7215 38.8139 54.1013 39.6386C53.7488 40.1108 53.2554 40.4491 52.6986 40.6324C48.8501 41.9082 44.3249 42.4862 39.7927 42.4157Z" fill="#FCE8CA"/>
<path d="M38.9461 43.5865C33.8077 43.5865 29.0005 42.8182 25.004 41.3521L24.9758 41.3451L24.9547 41.3239C23.9115 40.2032 23.122 38.7794 22.6639 37.2075C21.5713 33.4154 20.1475 27.4876 19.6118 20.7844C19.351 17.5209 21.1625 14.5816 23.8339 13.9402C27.4217 13.0803 43.3515 10.5569 55.7499 13.9402C58.4072 14.6662 60.2187 17.6054 59.965 20.7844C59.4293 27.4876 58.0125 33.4154 56.9129 37.2075C56.4689 38.7512 55.6935 40.1538 54.6856 41.2605L54.6644 41.2816L54.6362 41.2957C50.4635 42.8605 45.17 43.6781 39.7285 43.5936C39.4677 43.5865 39.2069 43.5865 38.9461 43.5865ZM39.7355 43.3257C45.1347 43.4103 50.3789 42.5997 54.5234 41.0561C55.4962 39.9776 56.2433 38.6243 56.6733 37.13C57.7658 33.352 59.1826 27.4382 59.7112 20.7562C59.9579 17.6971 58.224 14.8706 55.6794 14.1798C43.3303 10.8106 27.464 13.327 23.8903 14.1798C21.3458 14.7931 19.6118 17.6195 19.8656 20.7562C20.4013 27.4382 21.811 33.352 22.9035 37.13C23.3476 38.6595 24.1088 40.0411 25.1168 41.1266C29.2261 42.6208 34.4139 43.4103 39.7355 43.3257Z" fill="#10319B"/>
<path d="M21.8326 39.6671C21.6 38.9764 21.3815 38.2574 21.17 37.5596C20.7542 36.1922 20.3172 34.7825 19.8026 33.5701C18.9145 31.4837 16.9197 30.1656 15.4043 29.4326L15.5171 29.207C17.0678 29.9612 19.1118 31.3146 20.0352 33.4785C20.5568 34.6979 20.9938 36.1217 21.4097 37.4891C21.6211 38.1869 21.8396 38.9059 22.0723 39.5896L21.8326 39.6671Z" fill="#10319B"/>
<path d="M60.3887 29.3058L63.6522 27.4027C63.6522 27.4027 64.5826 18.0281 61.5517 13.7637L60.6777 16.4492C60.6777 16.4492 62.0803 18.4862 60.3887 29.3058Z" fill="#F4B821"/>
<path fill-rule="evenodd" clip-rule="evenodd" d="M42.5409 34.3716V36.6056C42.5409 37.0403 42.4488 37.449 42.2712 37.8162C41.8306 38.7927 40.8573 39.4615 39.7327 39.4615H39.6735C38.5226 39.4615 37.5295 38.7532 37.102 37.7426C36.9507 37.3955 36.8652 37.0136 36.8652 36.6056V34.3716C36.8652 32.7938 38.128 31.5156 39.6735 31.5156H39.7327C41.2848 31.5156 42.5409 32.7938 42.5409 34.3716Z" fill="#002252"/>
<path fill-rule="evenodd" clip-rule="evenodd" d="M42.1621 37.8619C41.7428 38.8111 40.8166 39.4612 39.7464 39.4612H39.6901C38.5949 39.4612 37.6499 38.7721 37.2432 37.7904C37.9503 37.6474 38.7138 37.5693 39.5149 37.5693C40.4599 37.5693 41.3548 37.6734 42.1621 37.8619Z" fill="#D92037"/>
<path d="M30.7891 29.8579L35.1297 28.5557V42.2534C35.1297 42.2534 33.8275 42.1507 32.9594 42.0117C32.0913 41.8726 30.7891 41.6994 30.7891 41.6994V29.8579Z" fill="#47C4E9"/>
<path fill-rule="evenodd" clip-rule="evenodd" d="M29.0953 25.5616C29.2673 25.3456 29.5819 25.3099 29.7979 25.4819C30.6148 26.1325 32.8626 27.5435 35.2111 27.9331C35.4545 27.9735 35.6321 28.1854 35.6292 28.4322C35.6263 28.6789 35.4439 28.8867 35.1996 28.9214C34.6222 29.0035 33.6438 29.1905 32.6103 29.4821C31.57 29.7756 30.5117 30.1646 29.7505 30.6382C29.5161 30.7841 29.2077 30.7123 29.0619 30.4778C28.916 30.2434 28.9878 29.935 29.2223 29.7892C30.1026 29.2414 31.2673 28.822 32.3388 28.5197C32.552 28.4595 32.7631 28.4036 32.9692 28.3519C31.2526 27.7117 29.8199 26.7778 29.1749 26.2642C28.9589 26.0922 28.9232 25.7776 29.0953 25.5616Z" fill="#0E51A0"/>
<path d="M32.9921 22.9878C33.0279 22.9939 33.0677 23.0129 33.0994 23.0429C33.5648 23.4476 34.1763 23.607 34.7819 23.4767C34.9153 23.4503 35.0424 23.5333 35.0698 23.6608C35.0962 23.7943 35.0132 23.9214 34.8857 23.9488C34.1337 24.1094 33.3691 23.9117 32.7856 23.4071C32.6844 23.3161 32.673 23.1668 32.7639 23.0656C32.8129 22.9941 32.9036 22.9666 32.9921 22.9878Z" fill="#032663"/>
<path d="M48.5947 29.8579L44.2541 28.5557V42.2534C44.2541 42.2534 45.5563 42.1507 46.4244 42.0117C47.2925 41.8726 48.5947 41.6994 48.5947 41.6994V29.8579Z" fill="#47C4E9"/>
<path fill-rule="evenodd" clip-rule="evenodd" d="M50.2875 25.5616C50.1155 25.3456 49.8009 25.3099 49.5849 25.4819C48.768 26.1325 46.5202 27.5435 44.1717 27.9331C43.9283 27.9735 43.7508 28.1854 43.7536 28.4322C43.7565 28.6789 43.9389 28.8867 44.1832 28.9214C44.7606 29.0035 45.7391 29.1905 46.7725 29.4821C47.8128 29.7756 48.8711 30.1646 49.6323 30.6382C49.8667 30.7841 50.1751 30.7123 50.321 30.4778C50.4668 30.2434 50.395 29.935 50.1606 29.7892C49.2802 29.2414 48.1156 28.822 47.044 28.5197C46.8308 28.4595 46.6198 28.4036 46.4136 28.3519C48.1302 27.7117 49.5629 26.7778 50.2079 26.2642C50.4239 26.0922 50.4596 25.7776 50.2875 25.5616Z" fill="#0E51A0"/>
<path d="M46.3907 22.9878C46.3549 22.9939 46.3152 23.0129 46.2834 23.0429C45.818 23.4476 45.2065 23.607 44.6009 23.4767C44.4675 23.4503 44.3404 23.5333 44.313 23.6608C44.2866 23.7943 44.3696 23.9214 44.4971 23.9488C45.2491 24.1094 46.0137 23.9117 46.5972 23.4071C46.6984 23.3161 46.7098 23.1668 46.6189 23.0656C46.5699 22.9941 46.4792 22.9666 46.3907 22.9878Z" fill="#032663"/>
</g>
</svg>
