<svg width="100" height="100" viewBox="0 0 100 100" fill="none" xmlns="http://www.w3.org/2000/svg">
<mask id="mask0_662_134368" style="mask-type:alpha" maskUnits="userSpaceOnUse" x="0" y="0" width="100" height="100">
<rect width="100" height="100" fill="#D9D9D9"/>
</mask>
<g mask="url(#mask0_662_134368)">
<path d="M75.613 59.6382C76.3949 50.5928 67.9803 43.5104 59.218 45.8789L55.8229 46.7947C55.797 46.8013 55.7797 46.8057 55.7537 46.8123L47.2942 49.104L38.7644 51.1189C38.7385 51.1255 38.7212 51.1299 38.6952 51.1364L35.2738 51.9485C26.4392 54.0315 22.4167 64.2758 27.4132 71.8564C29.0446 74.3335 30.697 76.6029 32.3466 78.6796C33.2662 79.9103 34.3852 81.2377 35.6039 82.5951C40.9656 88.7114 46.0878 93.0472 50.0843 96.6464C50.2384 96.7823 50.4012 96.9159 50.5617 97.0409C53.186 99.3309 56.7221 99.8431 59.9464 98.9797C63.1861 98.2137 66.0577 96.068 67.2742 92.8045C67.3559 92.6181 67.4353 92.423 67.5061 92.2302C69.3054 87.1618 71.7436 80.9095 73.5443 72.9776C73.9692 71.2036 74.3229 69.512 74.543 67.9832C74.9846 65.3672 75.3586 62.5934 75.613 59.6382Z" fill="#F89E1C"/>
<path d="M65.0509 80.2599C66.2717 75.0159 60.7157 73.0364 56.213 77.4276C50.8452 82.6549 46.7111 81.9628 40.7527 76.0715C35.9104 71.2781 31.2984 74.003 29.7396 75.1899C30.6332 76.4272 31.5245 77.619 32.4178 78.7459C33.3373 79.9766 34.4564 81.304 35.675 82.6614C41.0368 88.7777 46.159 93.1134 50.1555 96.7127C50.3096 96.8485 50.4723 96.9822 50.6329 97.1072C53.2572 99.3972 56.7933 99.9093 60.0176 99.046C63.2573 98.28 66.1289 96.1343 67.3454 92.8707C67.427 92.6843 67.5065 92.4893 67.5773 92.2964C68.1606 90.6387 68.8235 88.8596 69.4946 86.9311C66.8852 87.1691 63.8684 85.3284 65.0509 80.2599Z" fill="#032663"/>
<path d="M59.8408 99.2561C56.4239 100.122 52.939 99.3761 50.4905 97.2349C50.3299 97.1099 50.1672 96.9763 50.0109 96.8318C49.4378 96.3142 48.8321 95.7772 48.2135 95.2252C44.5992 92.0078 40.1144 88.0076 35.5174 82.7653C34.2227 81.3259 33.1232 80.0028 32.2493 78.8434C31.343 77.7014 30.4408 76.5031 29.5711 75.2874L29.4841 75.1622L29.6071 75.0665C31.3581 73.7297 35.9597 71.1455 40.8281 75.9691C46.9234 82.0007 50.907 82.3534 56.0677 77.3259C58.8142 74.6503 61.7679 74.4264 63.4766 75.3926C65.0465 76.2835 65.6867 78.1189 65.1744 80.311C64.6601 82.5312 64.9192 84.3159 65.9316 85.4771C66.7485 86.4115 68.0595 86.8986 69.4379 86.7793L69.6888 86.7525L69.6009 86.9866C69.2213 88.0679 68.8481 89.1015 68.4834 90.0961C68.2025 90.8762 67.9322 91.626 67.6727 92.3454C67.6041 92.5469 67.5246 92.742 67.443 92.9284C66.293 96.0186 63.5282 98.3674 60.0094 99.1949C59.9533 99.2276 59.8927 99.2429 59.8408 99.2561ZM59.9327 98.8921C63.3454 98.0823 66.0305 95.8182 67.1483 92.819C67.2277 92.6239 67.3094 92.4375 67.3715 92.2469C67.6288 91.5188 67.8991 90.769 68.1801 89.9889C68.5169 89.0658 68.8535 88.1058 69.2095 87.1134C67.8159 87.1721 66.5133 86.6461 65.6812 85.6878C64.9273 84.8202 64.1687 83.1713 64.8603 80.2341L65.0163 80.2682L64.8603 80.2341C65.3363 78.1894 64.7658 76.4835 63.3173 75.6723C61.7062 74.7642 58.9106 74.9942 56.2914 77.5546C51.0358 82.6798 46.7815 82.3128 40.6016 76.2014C36.0199 71.6734 31.6942 73.9299 29.9259 75.2343C30.7652 76.4025 31.6368 77.5533 32.5062 78.6586C33.3715 79.8202 34.4666 81.126 35.7613 82.5654C40.3453 87.7925 44.8279 91.7841 48.4313 94.995C49.05 95.5471 49.6556 96.084 50.2287 96.6016C50.3828 96.7375 50.5347 96.8647 50.6975 96.9983C53.1069 99.0942 56.5657 99.8101 59.9327 98.8921Z" fill="#10319B"/>
<path d="M18.1437 63.6593C17.7795 67.4158 17.5859 76.3488 22.2151 86.1123C22.6684 87.0653 24.0383 87.0219 24.4355 86.0466L24.749 85.2859C27.901 77.5638 25.9196 68.6942 19.7823 63.0414C19.1853 62.5023 18.2277 62.8647 18.1437 63.6593Z" fill="#F5851F"/>
<path d="M60.1605 99.1753C60.0999 99.1906 60.048 99.2038 59.9875 99.2191C56.5232 100.153 52.9496 99.4197 50.4642 97.2418C50.3036 97.1168 50.1408 96.9832 49.9845 96.8387C49.4114 96.3211 48.8058 95.7842 48.1871 95.2321C44.5729 92.0147 40.0881 88.0145 35.4911 82.7723C34.1964 81.3329 33.0968 80.0097 32.223 78.8503C30.4864 76.6483 28.8274 74.353 27.2874 72.0184C24.8664 68.3512 24.4102 63.9006 26.0288 59.8262C27.6431 55.7713 30.9971 52.8774 35.2511 51.8634L38.6638 51.0536L38.733 51.036L47.2628 49.0211L55.7223 46.7294L55.7656 46.7184L59.1866 45.796C63.4077 44.6523 67.7375 45.6078 71.0885 48.404C74.4525 51.2153 76.1716 55.3458 75.7899 59.7235C75.548 62.5098 75.1849 65.3269 74.707 68.0902C74.4996 69.5237 74.1632 71.2109 73.7019 73.0954C72.155 79.8858 70.1109 85.5503 68.4744 90.0987C68.1934 90.8788 67.9167 91.6394 67.6594 92.3675C67.5908 92.569 67.5114 92.764 67.4297 92.9505C66.2925 95.9822 63.586 98.3069 60.1605 99.1753ZM59.9064 98.8991C63.3191 98.0892 66.0042 95.8251 67.122 92.8259C67.2014 92.6309 67.283 92.4445 67.3452 92.2538C67.6025 91.5257 67.8792 90.7651 68.1602 89.985C69.7989 85.4452 71.8365 79.7917 73.3791 73.0207C73.834 71.147 74.164 69.4707 74.3822 68.0437C74.8623 65.289 75.2275 62.4806 75.463 59.7051C75.8342 55.4313 74.1588 51.4002 70.8772 48.6601C67.6087 45.935 63.37 45.0118 59.2677 46.1161L55.8813 47.0297L55.8381 47.0407L47.3525 49.339L38.8142 51.3561L38.745 51.3736L35.3236 52.1857C31.1907 53.1689 27.9036 55.9999 26.3279 59.9529C24.7501 63.9341 25.1951 68.2679 27.5574 71.8487C29.0866 74.1769 30.7455 76.4722 32.4799 78.6655C33.3451 79.8271 34.4403 81.133 35.735 82.5724C40.319 87.7995 44.8016 91.791 48.405 95.002C49.0236 95.554 49.6293 96.091 50.2024 96.6085C50.3565 96.7444 50.5084 96.8716 50.6712 97.0052C53.0892 99.0989 56.5481 99.8148 59.9064 98.8991Z" fill="#10319B"/>
<path d="M68.4292 48.4442C65.7605 47.1046 62.6856 46.6688 59.5868 47.5188L56.1853 48.4455C56.1594 48.452 56.1421 48.4564 56.1161 48.463L47.6155 50.7743L39.0403 52.7916C39.0144 52.7981 38.9971 52.8025 38.9711 52.8091L35.5389 53.6147C30.7787 54.7385 29.0649 58.8002 27.822 63.2672C27.544 64.2767 28.3265 65.2936 29.3349 65.2405C37.8309 64.7992 56.6819 61.9172 68.4292 48.4442Z" fill="#E26907"/>
<path d="M13.3681 16.5145C14.7337 14.9208 16.4678 13.4194 18.452 12.0316L18.3191 12.1007C18.3191 12.1007 24.3809 6.41431 34.898 3.74832C45.3819 1.09076 53.4741 3.06536 53.522 3.07977C55.9963 3.34623 58.282 3.8463 60.2898 4.61147C69.9604 8.30955 72.4335 20.893 71.7988 33.5032C71.3546 42.6763 59.9406 49.6929 47.5044 52.6419C35.1651 55.9733 21.7869 55.2413 17.01 47.3917C10.4469 36.6148 6.62695 24.3728 13.3681 16.5145Z" fill="#F89E1C"/>
<path d="M13.3802 16.5648C14.0972 15.7283 14.9183 14.9185 15.8165 14.1334C9.25849 22.016 13.0699 34.1894 19.5954 44.9227C24.3766 52.7889 37.7464 53.523 50.0961 50.1978C57.1654 48.5209 63.8996 45.522 68.4881 41.5628C64.1285 46.8089 56.0786 50.7607 47.5314 52.7857C35.1921 56.1171 21.8118 55.3768 17.0306 47.5106C10.4674 36.6984 6.64119 24.4314 13.3802 16.5648Z" fill="#F5851F"/>
<path d="M19.852 26.0022C14.5566 26.2297 12.1924 18.2993 12.0872 17.9544L12.6816 17.786C12.7006 17.8608 15.0142 25.5916 19.8188 25.3824L19.852 26.0022Z" fill="#F89E1C"/>
<path d="M58.1143 16.6222L57.8026 16.0907C62.4388 13.3671 60.6686 5.16229 60.6475 5.07915L61.2504 4.94404C61.3306 5.29533 63.1367 13.6768 58.1143 16.6222Z" fill="#F4B821"/>
<path d="M37.0774 10.7788C34.259 11.4933 31.4062 11.2343 29.4823 10.0674C29.4198 10.0301 29.3572 9.99288 29.2926 9.94733L25.765 7.55002L26.2867 6.78071L29.8122 9.1697C29.856 9.20284 29.9081 9.23387 29.9602 9.26491C31.832 10.4008 34.7198 10.5536 37.5169 9.68527C40.2309 8.83803 42.3598 7.18352 43.2126 5.27732L44.5425 2.28577L45.3904 2.66367L44.0605 5.65522C43.1024 7.8093 40.7557 9.65175 37.7882 10.5809C37.5513 10.6587 37.3185 10.7177 37.0774 10.7788Z" fill="#F4B821"/>
<path d="M37.8852 14.0355C34.1522 14.9817 30.4502 14.5841 27.7405 12.9351C27.6467 12.8792 27.5425 12.8171 27.4466 12.753L27.3403 12.6826L22.5013 9.40549L23.023 8.63618L27.96 11.9858C28.0455 12.0437 28.1309 12.1017 28.2226 12.1492C30.7218 13.6658 34.1574 14.0248 37.6576 13.1376C37.9402 13.0659 38.2291 12.9838 38.5159 12.8934C42.1878 11.7414 45.0178 9.46679 46.2671 6.64608L48.173 2.36707L49.0209 2.74496L47.1233 7.02187C45.7666 10.0822 42.7272 12.5426 38.8017 13.7766C38.4983 13.8712 38.1928 13.9575 37.8852 14.0355Z" fill="#F4B821"/>
<path d="M60.3801 6.92511C58.3702 6.15163 56.0802 5.63493 53.606 5.36847C53.5498 5.35617 45.2954 2.81212 34.8116 5.46968C27.9193 7.2168 22.1742 9.89417 19.0344 11.5395C20.9015 10.0044 26.4609 5.89649 34.9079 3.75527C45.3918 1.09771 53.4925 3.10557 53.5403 3.11997C56.0167 3.39475 58.3045 3.90314 60.3145 4.67662C68.9479 8.01823 71.8716 18.47 71.9668 29.7008C71.5188 19.347 68.4345 10.0419 60.3801 6.92511Z" fill="#F4B821"/>
<path d="M58.4999 16.0887L58.368 15.8125C62.8104 13.6511 61.2017 5.17537 61.1889 5.09013L61.4924 5.03088C61.556 5.38639 63.1563 13.8289 58.4999 16.0887Z" fill="#10319B"/>
<path d="M46.6815 6.81319L48.5792 2.53628C47.518 2.46904 46.2968 2.43352 44.9489 2.45667L43.6191 5.44822C42.7188 7.48146 40.4779 9.21747 37.6434 10.1129C34.7258 11.0295 31.6902 10.8522 29.7121 9.64597C29.6495 9.60873 29.5974 9.5777 29.5432 9.53836L26.0177 7.14936C24.7862 7.77123 23.6983 8.40094 22.7578 8.98441L27.5968 12.2615L27.7031 12.3319C27.7969 12.3877 27.8845 12.454 27.9783 12.5099C30.5816 14.0885 34.1795 14.4595 37.7628 13.5512C38.0538 13.4774 38.351 13.3932 38.6461 13.3007C42.4428 12.1171 45.3723 9.74643 46.6815 6.81319Z" fill="#032663"/>
<path d="M20.3146 25.7704C15.1418 25.9933 12.5171 17.9078 12.4036 17.565L12.6987 17.4725C12.7281 17.5535 15.3634 25.6806 20.299 25.4647L20.3146 25.7704Z" fill="#10319B"/>
<path d="M47.4106 52.5512C41.3064 54.1959 34.9724 54.899 29.4288 54.3222C27.9279 53.3578 26.5753 51.9664 25.5461 50.2099C22.9081 45.7024 19.6046 39.302 17.0608 31.8154C15.809 28.1333 17.0649 24.1872 19.9224 22.6842C23.8181 20.6349 29.9269 17.8565 37.4963 15.8139L37.4942 15.8055C37.7104 15.7507 37.9204 15.7064 38.1365 15.6516C38.3527 15.5968 38.5584 15.5358 38.7746 15.481L38.7767 15.4893C46.4051 13.6794 52.9017 13.059 57.3032 13.005C60.5316 12.9653 63.7139 15.9899 64.3671 19.8237C65.697 27.618 65.8413 34.8193 65.6692 40.0391C65.5987 42.0301 65.0971 43.8561 64.2702 45.4106C59.6252 48.6232 53.636 51.0704 47.4106 52.5512Z" fill="#032663"/>
<path d="M67.4052 42.5972L66.3662 43.5596C66.4221 42.8376 66.5117 41.6203 66.5609 40.7673C66.6991 38.5202 66.8572 35.9673 67.1302 34.2169C67.5723 31.3884 70.1096 28.6925 71.8522 27.2244L71.8422 28.6161C70.2179 29.9923 68.4412 31.8141 68.0439 34.3658C67.7791 36.0786 67.623 38.6045 67.4806 40.835C67.4376 41.6776 67.4611 41.8752 67.4052 42.5972Z" fill="#F4B821"/>
<path d="M25.6363 53.397C25.5698 53.4138 25.5011 53.387 25.4697 53.333C25.1205 52.7933 24.7483 52.1975 24.3656 51.5955C23.2093 49.7562 21.8919 47.6658 20.7908 46.2195C19.1884 44.1216 16.6959 43.3643 14.4623 42.8953C14.3791 42.881 14.3226 42.798 14.3452 42.7126C14.3595 42.6293 14.4425 42.5729 14.5279 42.5955C16.8156 43.0685 19.3768 43.8527 21.044 46.0314C22.1576 47.4922 23.4749 49.5827 24.6335 51.4303C25.0161 52.0323 25.3862 52.6198 25.7292 53.1699C25.7731 53.2384 25.7547 53.3404 25.6862 53.3843C25.6675 53.3802 25.653 53.3927 25.6363 53.397Z" fill="#F89E1C"/>
<path d="M71.9316 28.5499C71.9661 30.1869 71.9445 31.847 71.8605 33.5052C71.6928 36.9277 70.0305 40.0389 67.3685 42.7665C67.5658 40.124 67.5583 37.2325 67.927 34.8474C68.3734 32.0355 70.3944 29.8509 71.9316 28.5499Z" fill="#032663"/>
<path d="M71.0202 33.9232C71.1251 32.941 71.2052 31.9651 71.2664 30.9851C70.487 31.8198 69.7501 32.9268 69.4737 34.2798C69.1747 35.7182 69.0264 37.437 68.8425 39.0851C70.0337 37.571 70.8102 35.8522 71.0202 33.9232Z" fill="#0E51A0"/>
<path d="M67.5558 42.7022L67.2499 42.6824C67.3197 41.771 67.3603 40.814 67.4009 39.8923C67.4784 38.1385 67.5681 36.3284 67.8064 34.7549C68.2423 31.9369 70.257 29.7274 71.8584 28.3658L72.0589 28.5981C70.4927 29.9242 68.5402 32.0649 68.1081 34.7935C67.8657 36.3503 67.7821 38.1499 67.7026 39.8955C67.6661 40.8338 67.6256 41.7908 67.5558 42.7022Z" fill="#10319B"/>
<path d="M14.5156 43.105C15.2651 44.5607 16.0749 46.0101 16.9387 47.428C18.7165 50.3574 21.6601 52.301 25.3001 53.4311C23.8678 51.2017 22.4969 48.6558 21.0365 46.7344C19.3129 44.4726 16.4869 43.5166 14.5156 43.105Z" fill="#032663"/>
<path d="M48.3522 52.5695C48.0779 52.639 47.8035 52.7086 47.5354 52.7677C36.653 55.7032 22.1197 56.0692 16.8764 47.4618C12.181 39.7597 5.47332 25.4802 13.2527 16.412L13.3674 16.5156L13.2527 16.412C14.6121 14.8286 18.1788 12.0399 18.3345 11.9208C18.3842 11.8728 24.4358 6.25089 34.8698 3.60597C45.3371 0.952623 53.4875 2.91247 53.5729 2.93507C56.1096 3.20342 58.3995 3.72011 60.3594 4.47088C71.5192 8.73821 72.4238 24.4887 71.9645 33.4975C71.4621 43.3136 59.1188 49.8402 48.3522 52.5695ZM47.4512 52.4705C47.7172 52.403 47.9937 52.3418 48.268 52.2723C58.9348 49.5683 71.1599 43.1336 71.6504 33.4798C72.1037 24.5522 71.2204 8.95553 60.246 4.75624C58.3069 4.01789 56.044 3.50318 53.5156 3.23273C53.4115 3.20603 45.3298 1.273 34.9457 3.90527C24.5948 6.52911 18.5909 12.0947 18.5349 12.1531C18.4914 12.1907 14.8354 15.0463 13.4884 16.6088C5.83129 25.531 12.4928 39.6629 17.1359 47.2987C22.2893 55.7608 36.6935 55.3744 47.4512 52.4705Z" fill="#10319B"/>
<path d="M47.1449 51.2302C41.9095 52.637 36.4969 53.31 31.6594 53.0056C30.9124 52.956 30.1835 52.6984 29.6037 52.226C28.615 51.4325 27.7401 50.4244 27.0227 49.2348C24.6172 45.1904 21.609 39.4319 19.3091 32.6974C18.177 29.3832 19.3531 25.8201 21.9884 24.4531C25.5852 22.5857 31.2246 20.0502 38.2059 18.1655L38.2038 18.1571C38.4033 18.1066 38.5945 18.0581 38.7962 18.0158C38.9957 17.9652 39.1848 17.9085 39.3843 17.8579L39.3865 17.8662C46.4225 16.1976 52.5805 15.7427 56.6409 15.669C59.6175 15.6135 62.3406 18.1882 62.924 21.6415C64.1015 28.6604 64.2081 35.1545 64.0197 39.8564C63.9618 41.2337 63.6769 42.5181 63.1918 43.6763C62.9174 44.3387 62.4365 44.8853 61.8345 45.268C57.6745 47.9152 52.5097 49.9499 47.1449 51.2302Z" fill="#FCE8CA"/>
<path d="M46.4952 52.8525C40.4344 54.3888 34.5346 54.9199 29.3822 54.3856L29.3468 54.3857L29.3156 54.3671C27.75 53.3571 26.3931 51.9137 25.3828 50.1967C22.9603 46.0504 19.5084 39.4841 16.8723 31.7378C15.5889 27.9664 16.8468 23.9578 19.806 22.4025C23.7807 20.3155 41.8157 12.5762 57.4515 12.8598C60.8029 12.9216 63.8184 15.8468 64.4696 19.6723C65.842 27.739 65.9433 35.1547 65.7802 39.9563C65.7179 41.9098 65.2228 43.7961 64.3648 45.4028L64.3462 45.4341L64.3171 45.4591C59.8631 48.5525 53.8638 51.0996 47.4202 52.6268C47.1105 52.6965 46.8028 52.7745 46.4952 52.8525ZM47.3484 52.3088C53.7422 50.7942 59.6854 48.2701 64.1124 45.2102C64.9373 43.6473 65.4139 41.8276 65.4743 39.9365C65.6333 35.1536 65.5363 27.7546 64.1619 19.7149C63.5382 16.0329 60.6479 13.2175 57.44 13.1635C41.8666 12.8818 23.9043 20.5939 19.9442 22.6683C17.1262 24.1525 15.9261 28.0048 17.1632 31.6286C19.793 39.3501 23.224 45.904 25.6422 50.0336C26.6234 51.7049 27.9343 53.1068 29.4478 54.0858C34.7437 54.628 41.0967 53.9997 47.3484 52.3088Z" fill="#10319B"/>
<path d="M25.1376 53.3463C24.6567 52.601 24.184 51.8184 23.7259 51.0585C22.8265 49.5699 21.8896 48.0378 20.9202 46.7617C19.2488 44.5663 16.5019 43.608 14.4952 43.1965L14.5608 42.8967C16.6153 43.3226 19.431 44.3077 21.1671 46.584C22.147 47.8664 23.0881 49.4151 23.9875 50.9037C24.4456 51.6636 24.9183 52.4462 25.3971 53.1831L25.1376 53.3463Z" fill="#10319B"/>
<path d="M67.5172 29.5988L70.7975 26.3783C70.7975 26.3783 69.0919 15.0426 64.2419 10.9189L64.0139 14.3478C64.0161 14.3561 66.2775 16.3311 67.5172 29.5988Z" fill="#F4B821"/>
<path d="M27.699 32.9738C27.7462 32.9537 27.7894 32.9173 27.8204 32.8664C28.3186 32.1652 29.0925 31.7441 29.9532 31.7182C30.1433 31.7156 30.2876 31.5594 30.2768 31.3713C30.2742 31.1811 30.118 31.0368 29.9298 31.0476C28.8545 31.082 27.8876 31.6018 27.2675 32.4798C27.158 32.6364 27.1993 32.8431 27.3476 32.9547C27.4595 33.023 27.5902 33.0261 27.699 32.9738Z" fill="#032663"/>
<path d="M54.0098 26.6169C53.9587 26.6206 53.9036 26.6079 53.8528 26.5768C53.0894 26.1804 52.2087 26.1591 51.4311 26.5291C51.2608 26.6136 51.061 26.5405 50.9847 26.3682C50.9002 26.1978 50.9733 25.9981 51.1456 25.9218C52.1181 25.4614 53.2155 25.4824 54.1682 25.9804C54.3371 26.0696 54.3948 26.2725 54.3137 26.4394C54.2536 26.5493 54.1305 26.6137 54.0098 26.6169Z" fill="#032663"/>
<path d="M37.9775 39.4105C37.9555 39.6065 37.9171 39.8065 37.8584 39.9941L32.2104 41.879C32.0519 41.7612 31.9058 41.6231 31.7742 41.4729L37.9775 39.4105Z" fill="#0052A3"/>
<path d="M37.994 38.6535C38.0129 38.8397 38.0136 39.0216 38.004 39.1973L31.6346 41.3259C31.5233 41.188 31.4181 41.04 31.3192 40.8819L37.994 38.6535Z" fill="#0052A3"/>
<path d="M37.6532 37.2447L37.8087 37.7446L30.9332 40.0388L30.7715 39.549L37.6532 37.2447Z" fill="#0052A3"/>
<path d="M37.8644 37.9376C37.9142 38.1076 37.9475 38.2816 37.9707 38.4494L31.2079 40.7077C31.1273 40.5538 31.055 40.3979 30.997 40.2298L37.8644 37.9376Z" fill="#0052A3"/>
<path d="M37.3059 41.1512C37.0786 41.4662 36.8067 41.74 36.4901 41.9725L34.492 42.6374C34.1036 42.6445 33.7157 42.5822 33.3507 42.471L37.3059 41.1512Z" fill="#0052A3"/>
<path d="M35.5232 33.1989L30.1006 35.0119C30.176 34.7857 30.2799 34.5698 30.396 34.3684L34.9127 32.8609C35.1246 32.9484 35.3342 33.0625 35.5232 33.1989Z" fill="#0052A3"/>
<path d="M37.7871 40.2374C37.7035 40.4656 37.5996 40.6815 37.4836 40.8829L33.0385 42.3644C32.8165 42.2707 32.6069 42.1566 32.4097 42.0222L37.7871 40.2374Z" fill="#0052A3"/>
<path d="M33.5307 32.5612C33.9047 32.5662 34.266 32.6263 34.6165 32.7497L30.565 34.1014C30.7779 33.7986 31.0335 33.5287 31.3337 33.3001L33.5307 32.5612Z" fill="#0052A3"/>
<path d="M36.294 33.9143C36.4053 34.0521 36.5105 34.2001 36.6012 34.3603L29.9019 36.5946C29.8829 36.4084 29.8823 36.2265 29.8918 36.0508L36.294 33.9143Z" fill="#0052A3"/>
<path d="M36.7045 34.5345C36.785 34.6884 36.8574 34.8443 36.9153 35.0124L30.0479 37.3046C29.9982 37.1346 29.9566 36.9625 29.9334 36.7948L36.7045 34.5345Z" fill="#0052A3"/>
<path d="M35.7306 33.3391C35.8809 33.4588 36.027 33.5969 36.1586 33.7471L29.9164 35.8276C29.9383 35.6316 29.9685 35.4336 30.0272 35.246L35.7306 33.3391Z" fill="#0052A3"/>
<path d="M37.2027 35.8792L37.3663 36.3772L30.4908 38.6714L30.3271 38.1734L37.2027 35.8792Z" fill="#0052A3"/>
<path d="M36.9853 35.1953L37.1408 35.6953L30.2652 37.9895L30.1015 37.4915L36.9853 35.1953Z" fill="#0052A3"/>
<path d="M37.4283 36.5628L37.5919 37.0608L30.7082 39.357L30.5527 38.857L37.4283 36.5628Z" fill="#0052A3"/>
<path d="M54.5349 35.8081C54.4864 36.0019 54.4296 36.1977 54.3526 36.3811L48.5177 37.6002C48.3798 37.4601 48.2481 37.3099 48.1309 37.1475L54.5349 35.8081Z" fill="#0052A3"/>
<path d="M54.6387 35.055C54.6311 35.2389 54.6134 35.4166 54.5792 35.5982L48.0032 36.9791C47.9063 36.8291 47.8155 36.669 47.7412 36.5049L54.6387 35.055Z" fill="#0052A3"/>
<path d="M54.4556 33.6169L54.5538 34.1307L47.4577 35.6199L47.3595 35.1061L54.4556 33.6169Z" fill="#0052A3"/>
<path d="M54.5934 34.3296C54.6186 34.5056 54.6418 34.6734 54.6404 34.8471L47.6672 36.3066C47.603 36.1487 47.5533 35.9787 47.5117 35.8066L54.5934 34.3296Z" fill="#0052A3"/>
<path d="M53.6587 37.4583C53.3988 37.7465 53.0924 37.9853 52.7495 38.1808L50.6858 38.6101C50.2957 38.5743 49.9226 38.4651 49.5742 38.3152L53.6587 37.4583Z" fill="#0052A3"/>
<path d="M52.8098 29.35L47.2164 30.5281C47.3203 30.3123 47.4446 30.1089 47.5809 29.9198L52.2346 28.9428C52.4442 29.0569 52.6332 29.1933 52.8098 29.35Z" fill="#0052A3"/>
<path d="M54.2503 36.6052C54.1464 36.8211 54.0139 37.0265 53.8694 37.2175L49.2895 38.1767C49.0798 38.0626 48.8908 37.9262 48.7061 37.7715L54.2503 36.6052Z" fill="#0052A3"/>
<path d="M50.9011 28.4848C51.2686 28.5348 51.6316 28.6378 51.9636 28.7916L47.7789 29.6641C48.0243 29.388 48.3123 29.145 48.6307 28.9554L50.9011 28.4848Z" fill="#0052A3"/>
<path d="M53.4963 30.1469C53.5932 30.2969 53.6758 30.459 53.7501 30.6231L46.8424 32.0668C46.85 31.8829 46.8678 31.7052 46.8937 31.5256L53.4963 30.1469Z" fill="#0052A3"/>
<path d="M53.8305 30.8104C53.8947 30.9683 53.9444 31.1383 53.986 31.3103L46.8981 32.7975C46.8647 32.6235 46.8497 32.4538 46.8429 32.282L53.8305 30.8104Z" fill="#0052A3"/>
<path d="M52.9963 29.5129C53.1342 29.653 53.2577 29.8052 53.3749 29.9676L46.9381 31.3149C46.9867 31.1211 47.0352 30.9273 47.1123 30.7439L52.9963 29.5129Z" fill="#0052A3"/>
<path d="M54.1681 32.2124L54.2725 32.7161L47.1764 34.2052L47.072 33.7016L54.1681 32.2124Z" fill="#0052A3"/>
<path d="M54.0328 31.5087L54.129 32.0143L47.0329 33.5035L46.9347 32.9897L54.0328 31.5087Z" fill="#0052A3"/>
<path d="M54.3117 32.9151L54.418 33.4269L47.32 34.9079L47.2156 34.4042L54.3117 32.9151Z" fill="#0052A3"/>
<path d="M42.6503 42.8352C42.2846 42.954 42.1739 43.6855 42.4443 44.3618C43.3368 46.5063 44.8322 47.8047 46.1066 47.4406C47.3811 47.0766 48.0367 45.1092 47.7645 42.7867C47.6808 42.0668 47.2391 41.4976 46.8488 41.5885L42.6503 42.8352Z" fill="#032663"/>
<path d="M51.9741 76.9017C51.161 77.1078 50.2888 77.1171 49.4331 76.9013C47.6135 76.442 46.2217 75.0916 45.7007 73.2904L42.7492 62.9543C42.2368 61.1509 42.7067 59.2642 44.0139 57.9201C45.319 56.5674 47.1829 56.0397 49.0025 56.4991L59.5106 59.1289C61.2695 59.5669 62.6373 60.8588 63.1776 62.5907C63.7179 64.3226 63.3192 66.1637 62.1246 67.516C62.0901 67.5616 62.0448 67.6007 62.0103 67.6463L61.9585 67.6962L54.4303 75.4781C53.7357 76.1881 52.8824 76.6714 51.9741 76.9017ZM46.6172 57.1129C45.8214 57.3147 45.0739 57.7435 44.4678 58.3667C43.3224 59.55 42.9122 61.2006 43.3676 62.7791L46.3191 73.1152C46.7745 74.6937 47.9948 75.8758 49.5869 76.2732C51.179 76.6705 52.8203 76.2084 53.957 75.0273L61.537 67.1955C61.5737 67.1585 61.6103 67.1216 61.6383 67.0869C62.682 65.9017 63.0295 64.2946 62.5527 62.7768C62.0867 61.2654 60.8883 60.133 59.346 59.7507L48.8379 57.1208C48.0884 56.9241 47.3265 56.9331 46.6172 57.1129Z" fill="#F89E1C"/>
<path d="M51.95 76.9917C51.1455 77.1957 50.2819 77.2028 49.4263 76.987C47.6175 76.5341 46.2388 75.1989 45.7286 73.4041L42.7026 62.8107C42.1946 61.0246 42.6603 59.1574 43.9502 57.8177C45.2401 56.478 47.0955 55.9525 48.9042 56.4054L59.6679 59.0994C61.4073 59.533 62.7643 60.8186 63.3002 62.5332C63.8361 64.2478 63.4439 66.078 62.2643 67.4173C62.2299 67.4628 62.1845 67.5019 62.15 67.5475L62.0983 67.5974L54.3803 75.5747C53.6943 76.2826 52.8583 76.7615 51.95 76.9917ZM46.4617 56.7208C45.6139 56.9357 44.8254 57.3841 44.1848 58.0529C42.9747 59.3078 42.5345 61.0581 43.014 62.7318L46.04 73.3252C46.5195 74.9988 47.8136 76.2543 49.5054 76.6816C51.1972 77.1089 52.9314 76.6141 54.1501 75.3569L61.9113 67.3318C61.9479 67.2949 61.9824 67.2494 62.0191 67.2124C63.1275 65.9556 63.4963 64.251 62.9954 62.638C62.4966 61.0337 61.2243 59.828 59.5932 59.4221L48.8295 56.7282C48.0324 56.5252 47.2229 56.5278 46.4617 56.7208Z" fill="#10319B"/>
<path d="M19.7733 63.043C19.185 62.5017 18.2273 62.8641 18.1434 63.6587C17.8209 66.9626 17.6306 74.2745 20.7423 82.6275C18.9488 74.9347 20.2575 66.8053 20.8047 64.0612C20.4681 63.7138 20.1315 63.3665 19.7733 63.043Z" fill="#F89E1C"/>
<path d="M20.7423 81.1347C20.3617 81.2312 20.1106 81.2212 20.0738 81.2213L20.1042 80.5784L20.0836 80.8966L20.0933 80.5719C20.1301 80.5718 24.0818 80.4355 25.1176 71.5559L25.5911 72.7339C24.6899 79.7473 22.0312 80.808 20.7423 81.1347Z" fill="#F89E1C"/>
<path d="M21.1694 83.7619C21.1694 83.7619 24.8471 84.542 26.0861 78.8975C26.0861 78.8975 25.5866 85.6434 23.4993 86.7065C23.4993 86.7065 22.1466 87.3992 21.1694 83.7619Z" fill="#032663"/>
<path d="M23.6532 86.9152C23.5494 86.9415 23.4521 86.957 23.3417 86.9573C22.792 86.9678 22.3041 86.6772 22.0665 86.1759C17.3697 76.2546 17.647 67.107 17.9841 63.6428C18.0238 63.2185 18.2997 62.854 18.7017 62.6968C19.1038 62.5396 19.5586 62.6269 19.8734 62.9245C26.0324 68.5902 28.0402 77.6004 24.8753 85.3442L24.5618 86.1049C24.4095 86.521 24.0685 86.8099 23.6532 86.9152ZM18.9169 62.9645C18.8823 62.9733 18.8563 62.9798 18.8239 62.9973C18.5299 63.1086 18.3359 63.3603 18.3045 63.6721C17.9717 67.1167 17.6855 76.1929 22.3539 86.0386C22.5326 86.4167 22.9035 86.6449 23.3342 86.637C23.754 86.6227 24.1233 86.3726 24.2822 85.9824L24.5957 85.2217C27.709 77.6015 25.7276 68.7319 19.6664 63.1611C19.4601 62.9649 19.185 62.8965 18.9169 62.9645Z" fill="#10319B"/>
<path d="M22.4327 83.8104C21.6974 83.9968 21.1647 83.9293 21.1539 83.9228L21.2026 83.6066C21.3456 83.6256 24.8187 84.0709 26.0332 78.8746L26.3473 78.9515C25.5318 82.4172 23.687 83.4924 22.4327 83.8104Z" fill="#10319B"/>
<path d="M20.9164 81.2748C20.5445 81.3691 20.302 81.3569 20.2652 81.357L20.2858 81.0388C20.3226 81.0386 24.1994 81.1514 25.4465 72.7062L25.7627 72.755C24.7654 79.4982 22.1448 80.9634 20.9164 81.2748Z" fill="#10319B"/>
<path d="M74.0846 48.4346C75.2482 44.8408 78.6389 36.5811 86.7841 29.4792C87.5739 28.7843 88.8162 29.3763 88.7887 30.4257L88.7703 31.2458C88.5755 39.5831 83.2185 46.9256 75.3274 49.6482C74.5768 49.9091 73.8404 49.2003 74.0846 48.4346Z" fill="#F89E1C"/>
<path d="M75.4064 48.1223C75.4174 48.1161 75.437 48.1124 75.448 48.1062C78.3044 46.9565 80.1322 44.0975 80.0177 41.0235C79.9816 40.0025 79.7811 38.9722 79.3248 38.0272C76.3721 41.8482 75.0752 45.5528 74.567 47.3844C74.4373 47.8763 74.935 48.3137 75.4064 48.1223Z" fill="#F4B821"/>
<path d="M80.6115 46.8027C85.466 43.1759 88.5602 37.4753 88.7734 31.239L88.8004 30.4213C88.8013 30.3196 88.7888 30.2326 88.7787 30.137L87.4447 29.213C87.2315 29.2455 87.021 29.3344 86.8339 29.5041C86.0196 30.2199 85.2483 30.9479 84.5285 31.6904C87.209 36.5465 82.9493 43.5499 80.6115 46.8027Z" fill="#F5851F"/>
<path d="M83.5249 33.4723C84.5913 34.2929 86.36 36.7307 84.4269 43.3435L83.6016 44.0655C86.479 35.0951 82.697 33.7114 82.6626 33.7016L82.8631 33.0906C82.895 33.1089 83.1735 33.2061 83.5249 33.4723Z" fill="#F89E1C"/>
<path d="M84.893 31.2162C84.893 31.2162 88.5751 31.9689 87.4568 37.6342C87.4568 37.6342 89.697 31.2473 88.2035 29.4436C88.2035 29.4436 87.2366 28.271 84.893 31.2162Z" fill="#032663"/>
<path d="M88.4267 29.311C88.7695 29.5748 88.9607 29.9812 88.9559 30.4249L88.9375 31.245C88.7441 39.6105 83.2991 47.0673 75.386 49.8022C74.9746 49.9456 74.5318 49.839 74.2183 49.5372C73.9134 49.2378 73.7993 48.7882 73.9329 48.3809C75.0104 45.0594 78.4016 36.5681 86.6825 29.3468C87.1007 28.9827 87.6594 28.9088 88.159 29.1426C88.2572 29.1889 88.342 29.25 88.4267 29.311ZM74.5157 49.3708C74.727 49.5418 75.0115 49.5851 75.2785 49.4936C83.0581 46.8044 88.4127 39.4705 88.6151 31.2374L88.6335 30.4173C88.6421 29.9931 88.413 29.6224 88.0287 29.4397C87.6445 29.2569 87.2095 29.3195 86.9002 29.5938C78.6902 36.7609 75.316 45.1921 74.2483 48.4792C74.1548 48.7774 74.2255 49.0848 74.4505 49.3061C74.4628 49.3281 74.4923 49.355 74.5157 49.3708Z" fill="#10319B"/>
<path d="M86.0608 31.6769C87.0891 32.4682 88.3446 34.1953 87.6967 37.703L87.3803 37.6414C88.3453 32.3872 84.9862 31.4104 84.8488 31.3716L84.9361 31.0624C84.9447 31.0648 85.46 31.2104 86.0608 31.6769Z" fill="#10319B"/>
<path d="M83.6678 33.3821C84.6728 34.1575 86.4904 36.5535 84.7055 43.134L84.3964 43.0467C86.631 34.7757 83.034 33.3607 82.9911 33.3486L83.1042 33.0467C83.1361 33.065 83.3631 33.1477 83.6678 33.3821Z" fill="#10319B"/>
<path d="M51.9451 74.3574C51.3223 74.5153 50.66 74.5175 50.0015 74.353C48.6065 74.0069 47.5447 72.978 47.1484 71.5963L44.937 63.8529C44.5407 62.4711 44.9039 61.0349 45.9048 60.0079C46.9035 58.9722 48.3307 58.5736 49.7171 58.9218L57.5825 60.8959C58.9298 61.2356 59.972 62.2235 60.3811 63.5468C60.7901 64.87 60.4939 66.28 59.5774 67.3133C59.5494 67.348 59.5192 67.3741 59.4912 67.4088L59.4545 67.4457L53.8159 73.2756C53.2874 73.8054 52.6458 74.1798 51.9451 74.3574ZM47.9313 59.5402C47.3431 59.6893 46.8052 60.0006 46.3587 60.4544C45.5282 61.3186 45.2248 62.5187 45.5554 63.6777L47.7669 71.4211C48.0975 72.5801 48.9877 73.4408 50.1575 73.7335C51.3185 74.0283 52.5208 73.6868 53.3513 72.8226L59.0179 66.958C59.0481 66.9319 59.0675 66.8994 59.089 66.8755C59.8545 66.0094 60.0996 64.8333 59.7562 63.7328C59.4127 62.6322 58.5399 61.804 57.4178 61.5176L49.5525 59.5436C49.0109 59.4047 48.459 59.4065 47.9313 59.5402Z" fill="#F89E1C"/>
<path d="M59.1728 67.1302C59.203 67.1042 59.2311 67.0694 59.2526 67.0456C60.9907 65.0767 60.0389 61.9393 57.4633 61.2941L49.7734 59.3585C47.109 58.6897 44.7319 61.152 45.4851 63.7965L47.6419 71.3605C48.3929 73.9964 51.7245 74.8274 53.6292 72.8624L59.1448 67.1649C59.1513 67.1541 59.1664 67.1411 59.1728 67.1302Z" fill="#032663"/>
<path d="M56.0477 66.6795C56.0628 66.6664 56.0757 66.6448 56.0908 66.6317C57.072 65.5268 56.5316 63.7581 55.0759 63.3906L50.7414 62.3075C49.2381 61.9337 47.8964 63.3233 48.3277 64.8067L49.5472 69.073C49.9698 70.5585 51.8479 71.0307 52.92 69.9212L56.0283 66.712C56.0326 66.6925 56.039 66.6817 56.0477 66.6795Z" fill="#33FCFE"/>
<path d="M70.4781 51.0448C69.7276 52.5147 64.3512 57.1273 64.3512 57.1273C64.3512 57.1273 66.8632 58.1753 67.7464 61.5142C68.406 64.0076 66.6124 66.8467 66.6124 66.8467C69.2908 68.4785 69.4577 72.5145 68.6201 75.8201C67.7825 79.1257 69.3901 79.6204 69.3901 79.6204C69.3901 79.6204 75.1076 63.5332 73.9539 55.6046C73.4867 52.3811 70.4781 51.0448 70.4781 51.0448Z" fill="#F4B821"/>
<path d="M32.5842 76.1351C32.5842 76.1351 34.8708 75.1319 36.5611 76.425C38.2514 77.7181 49.5016 90.1394 54.3485 94.37C55.2233 95.1333 57.6716 97.8914 59.3368 96.7972C59.3368 96.7972 57.1598 98.8865 52.4581 96.0644C47.7629 93.2315 35.9348 80.1282 32.5842 76.1351Z" fill="#0E51A0"/>
<path d="M67.6378 16.0596C67.4059 16.1184 67.1603 16.0827 66.9548 15.9603C66.7493 15.8379 66.6008 15.6389 66.5421 15.4071C62.8416 0.808983 53.1221 0.817763 41.9069 3.6607L28.5579 7.04455C17.3428 9.88749 8.79279 14.5098 12.4933 29.1079C12.552 29.3398 12.5163 29.5854 12.3939 29.7909C12.2716 29.9964 12.0726 30.1449 11.8407 30.2036C11.6089 30.2624 11.3632 30.2267 11.1577 30.1043C10.9522 29.9819 10.8038 29.7829 10.745 29.5511C6.80078 13.9915 15.9293 8.38517 28.1148 5.29627L41.4638 1.91243C53.6492 -1.17647 64.3461 -0.595734 68.2903 14.9639C68.3491 15.1957 68.3134 15.4414 68.191 15.6469C68.0686 15.8524 67.8696 16.0009 67.6378 16.0596Z" fill="#007BE0"/>
<path d="M40.6627 49.6173L31.2309 52.0082C30.1737 52.2762 29.5338 53.3505 29.8019 54.4078C30.0699 55.465 31.1442 56.1048 32.2015 55.8368L41.6332 53.446C42.6905 53.1779 43.3303 52.1036 43.0623 51.0464C42.7943 49.9891 41.72 49.3493 40.6627 49.6173Z" fill="#007BE0"/>
<path d="M24.4837 56.6582C20.2791 57.724 19.6734 57.645 18.9215 57.1379C16.9661 55.7729 11.6189 48.6255 11.336 47.7298C11.3018 47.6156 11.3133 47.4926 11.3681 47.3868C11.4228 47.281 11.5165 47.2005 11.6294 47.1623C11.6865 47.1427 11.7471 47.1351 11.8074 47.1398C11.8676 47.1446 11.9263 47.1617 11.9797 47.19C12.033 47.2183 12.0801 47.2573 12.1178 47.3045C12.1555 47.3517 12.1832 47.4061 12.199 47.4645C12.9351 49.8176 18.0039 55.4262 19.4309 56.3948C20.5965 57.0296 30.5036 54.2764 42.1551 50.4762C42.2692 50.4444 42.3912 50.4569 42.4965 50.5114C42.6017 50.5658 42.6825 50.6581 42.7225 50.7696C42.7406 50.8262 42.7474 50.8857 42.7424 50.9448C42.7375 51.004 42.7209 51.0616 42.6936 51.1143C42.6664 51.167 42.629 51.2138 42.5836 51.252C42.5382 51.2903 42.4857 51.3192 42.4291 51.3371C39.9275 52.148 31.2407 54.9454 24.4837 56.6582Z" fill="#007BE0"/>
<path d="M41.7439 53.8828L32.3121 56.2736C31.6885 56.4317 31.0276 56.3356 30.4748 56.0064C29.9221 55.6772 29.5227 55.1419 29.3647 54.5183C29.2066 53.8947 29.3027 53.2338 29.6319 52.681C29.9611 52.1283 30.4964 51.7289 31.12 51.5708L40.5518 49.18C41.1754 49.0219 41.8363 49.118 42.3891 49.4472C42.9418 49.7764 43.3412 50.3117 43.4993 50.9353C43.6573 51.5589 43.5612 52.2198 43.232 52.7726C42.9028 53.3253 42.3675 53.7247 41.7439 53.8828ZM31.3416 52.445C30.9498 52.5443 30.6135 52.7952 30.4067 53.1424C30.1999 53.4897 30.1395 53.9049 30.2388 54.2967C30.3381 54.6885 30.589 55.0248 30.9363 55.2316C31.2835 55.4384 31.6987 55.4988 32.0905 55.3995L41.5223 53.0086C41.9141 52.9093 42.2504 52.6584 42.4572 52.3112C42.664 51.9639 42.7244 51.5487 42.6251 51.1569C42.5258 50.7651 42.2749 50.4288 41.9276 50.222C41.5804 50.0152 41.1652 49.9548 40.7734 50.0541L31.3416 52.445Z" fill="#007BE0"/>
<path d="M7.39496 23.905L11.5645 22.848L18.6552 50.82L14.4943 51.8747C12.38 52.4107 10.1394 52.0848 8.26538 50.9687C6.39136 49.8527 5.03744 48.0379 4.50149 45.9235L1.45916 33.9218C1.18996 32.8743 1.13002 31.784 1.28276 30.7133C1.4355 29.6426 1.79792 28.6126 2.34928 27.6821C2.90064 26.7517 3.6301 25.9391 4.49592 25.291C5.36173 24.6429 6.34687 24.1719 7.39496 23.905Z" fill="#002E6D"/>
<path d="M75.0876 35.7349L70.9267 36.7897L63.8361 8.81769L67.9969 7.76296C69.0438 7.49758 70.1327 7.441 71.2015 7.59646C72.2703 7.75191 73.2979 8.11635 74.2259 8.66897C75.1538 9.22159 75.9638 9.95156 76.6096 10.8172C77.2554 11.6829 77.7244 12.6672 77.9898 13.7141L81.0365 25.7334C81.3032 26.7807 81.3609 27.8703 81.2062 28.94C81.0515 30.0096 80.6875 31.0383 80.135 31.9672C79.5825 32.8961 78.8524 33.7069 77.9863 34.3534C77.1202 34.9999 76.1352 35.4694 75.0876 35.7349Z" fill="#002E6D"/>
<path d="M82.8642 27.3057C74.0837 27.4464 66.878 22.0849 66.7698 15.3307C66.6616 8.57641 73.692 2.98701 82.4725 2.8464C91.2531 2.70579 98.4588 8.06721 98.5669 14.8215C98.6751 21.5757 91.6448 27.1651 82.8642 27.3057Z" fill="#FFF7D7"/>
<path d="M80.2497 16.963C80.3496 15.5649 81.0377 14.7398 82.7573 13.8757C84.3043 13.1141 84.78 12.6675 84.8365 11.8871C84.903 10.9512 84.1326 10.3147 82.8548 10.2202C81.8747 10.1485 81.1 10.4817 80.5951 11.1687C80.0174 11.955 79.1986 12.6978 78.2333 12.5553C77.3028 12.4179 76.6166 11.5539 76.9478 10.6736C77.8535 8.26705 80.1415 6.90435 83.102 7.12267C86.2833 7.35696 88.4682 9.4292 88.2823 12.0195C88.1701 13.6011 87.3076 14.6666 85.3627 15.6519C83.7864 16.481 83.4114 16.8443 83.3535 17.6472C83.3215 18.0906 82.9361 18.4242 82.4927 18.3923L81.4204 18.3152C80.7238 18.265 80.1996 17.6597 80.2497 16.963ZM79.6912 21.564C79.7641 20.5836 80.6174 19.8475 81.5979 19.9194L81.75 19.9305C82.7302 20.0023 83.4671 20.8544 83.3968 21.8347C83.3263 22.818 82.4706 23.5571 81.4876 23.4839L81.3355 23.4725C80.3544 23.3995 79.6183 22.5451 79.6912 21.564Z" fill="#002E6D"/>
<path d="M65.089 14.3638C65.1991 14.347 65.305 14.3069 65.4029 14.2451C65.6184 14.1317 65.7917 13.9181 65.8944 13.6395C65.997 13.3609 66.0229 13.034 65.9676 12.7127C65.8982 12.3537 65.7472 12.0235 65.5368 11.771C65.3264 11.5184 65.0678 11.3568 64.7991 11.31C64.6997 11.2909 64.6001 11.2891 64.5028 11.3048C64.3495 11.3237 64.2042 11.3876 64.0768 11.4923C63.9494 11.597 63.8429 11.7399 63.7644 11.9114C63.686 12.0829 63.6375 12.279 63.6223 12.4861C63.6071 12.6933 63.6255 12.9068 63.6762 13.112C63.7327 13.3442 63.826 13.5612 63.9492 13.7468C64.0724 13.9324 64.2223 14.082 64.3878 14.1845C64.6103 14.3333 64.8538 14.3956 65.089 14.3638Z" fill="#FFF7D7"/>
<path d="M61.9119 15.8856C61.9717 15.8763 62.0304 15.861 62.0871 15.8398C62.2568 15.7863 62.4013 15.6737 62.494 15.523C62.5867 15.3723 62.6212 15.1937 62.5912 15.0201C62.562 14.8349 62.4676 14.666 62.3247 14.5433C62.1818 14.4206 61.9995 14.3519 61.8101 14.3494C61.6671 14.3352 61.5229 14.365 61.3973 14.4346C61.2717 14.5043 61.1706 14.6104 61.1077 14.7387C61.0403 14.8949 61.0202 15.0671 61.0501 15.2341C61.0799 15.4011 61.1583 15.5558 61.2757 15.679C61.3557 15.7634 61.4559 15.8265 61.567 15.8625C61.6781 15.8986 61.7967 15.9066 61.9119 15.8856Z" fill="#FFF7D7"/>
</g>
</svg>
