<svg width="80" height="80" viewBox="0 0 80 80" fill="none" xmlns="http://www.w3.org/2000/svg">
<mask id="mask0_908_105484" style="mask-type:alpha" maskUnits="userSpaceOnUse" x="0" y="0" width="80" height="80">
<rect width="80" height="80" fill="#D9D9D9"/>
</mask>
<g mask="url(#mask0_908_105484)">
<path d="M61.5094 51.7303C63.1832 49.368 66.6895 43.5111 67.2955 35.278C67.3532 34.4742 66.4225 33.992 65.7877 34.4882L65.2898 34.8796C60.2541 38.8284 58.2196 45.4681 60.1892 51.5346C60.3767 52.1077 61.1559 52.2335 61.5094 51.7303Z" fill="#F5851F"/>
<path d="M60.1897 51.5265C60.3773 52.1066 61.1565 52.2254 61.51 51.7292C62.9818 49.6535 65.8748 44.8659 66.957 38.1494C65.2471 43.9364 61.2863 48.8497 59.8867 50.4642C59.9733 50.8206 60.0743 51.1771 60.1897 51.5265Z" fill="#F89E1C"/>
<path d="M59.8358 43.5947L59.908 42.9727C64.1213 37.3884 66.769 39.2475 66.8844 39.3244L66.6175 39.7437L66.7546 39.534L66.6319 39.583C66.6031 39.569 63.9986 37.9615 59.8358 43.5947Z" fill="#F89E1C"/>
<path d="M67.1009 37.228C67.1009 37.228 64.9293 35.327 61.9713 38.6118C61.9713 38.6118 64.7994 34.2367 66.603 34.3205C66.603 34.3205 67.8223 34.4463 67.1009 37.228Z" fill="#032663"/>
<path d="M60.9037 52.1705C60.8604 52.1705 60.8171 52.1705 60.7738 52.1636C60.442 52.1146 60.175 51.884 60.074 51.5695C58.0972 45.489 60.1606 38.7445 65.218 34.7817L65.7158 34.3903C66.0477 34.1317 66.495 34.0898 66.8701 34.2855C67.2453 34.4812 67.4617 34.8656 67.4256 35.2849C66.8124 43.6439 63.1619 49.6195 61.6179 51.8001C61.452 52.0308 61.1851 52.1705 60.9037 52.1705ZM66.3651 34.4113C66.1847 34.4113 66.0116 34.4672 65.8673 34.586L65.3695 34.9774C60.3987 38.8703 58.3642 45.5099 60.3121 51.4926C60.3843 51.7232 60.5718 51.877 60.8171 51.9119C61.0552 51.9469 61.2789 51.849 61.4159 51.6603C62.9454 49.4937 66.5743 43.567 67.1804 35.2709C67.202 34.9494 67.0433 34.6629 66.7547 34.5091C66.6248 34.4392 66.495 34.4113 66.3651 34.4113Z" fill="#10319B"/>
<path d="M62.0001 38.6602L61.8125 38.4925C64.756 35.3194 67.1513 37.1156 67.1729 37.1366L67.0214 37.3323C66.9348 37.2554 64.7849 35.6549 62.0001 38.6602Z" fill="#10319B"/>
<path d="M60.052 42.966L59.8572 42.8122C64.0488 37.4726 66.6894 39.087 66.7976 39.1639L66.6605 39.3736C66.6389 39.3596 64.0921 37.829 60.052 42.966Z" fill="#10319B"/>
<path d="M20.7979 56.9362C17.3204 50.9256 20.8916 43.3075 27.7743 42.1263L30.4365 41.672C30.4581 41.672 30.4726 41.6651 30.4942 41.6581L37.1388 40.5188L43.7473 39.17C43.769 39.163 43.7834 39.163 43.805 39.163L46.4528 38.6248C53.2922 37.227 59.4173 43.0209 58.3928 49.8842C58.061 52.1277 57.6425 54.2245 57.1664 56.2024C56.9211 57.3556 56.5748 58.6276 56.1636 59.9625C54.4032 65.9242 52.2388 70.5789 50.6156 74.353C50.5506 74.4998 50.4857 74.6396 50.4136 74.7794C49.3314 77.2046 47.0227 78.7072 44.4976 79.1406C41.987 79.6508 39.2887 79.0916 37.3841 77.2256C37.2687 77.1207 37.1532 77.0159 37.0378 76.8971C34.1375 73.9686 30.4076 70.4182 26.5767 65.5048C25.7037 64.4145 24.9101 63.3522 24.2608 62.3667C23.0993 60.7033 21.9378 58.9002 20.7979 56.9362Z" fill="#F89E1C"/>
<path d="M34.8588 67.8198C32.3048 64.5768 35.537 61.4248 40.1038 63.0113C45.5435 64.9053 48.2057 63.0951 50.4494 57.0915C52.2747 52.2131 56.3726 52.6115 57.8443 52.933C57.6279 54.0792 57.3826 55.1835 57.1301 56.2598C56.8848 57.413 56.5385 58.685 56.1273 60.0199C54.3669 65.9816 52.2026 70.6364 50.5793 74.4105C50.5144 74.5573 50.4494 74.697 50.3773 74.8368C49.2951 77.262 46.9864 78.7647 44.4614 79.198C41.9507 79.7082 39.2524 79.1491 37.3478 77.283C37.2324 77.1782 37.1169 77.0733 37.0015 76.9545C36.0564 75.997 35.0175 74.9766 33.9209 73.8583C35.8111 73.1874 37.3262 70.9509 34.8588 67.8198Z" fill="#032663"/>
<path d="M42.7303 79.4979C40.6525 79.4979 38.6974 78.7501 37.2833 77.3663C37.1679 77.2614 37.0525 77.1566 36.937 77.0378C36.5258 76.6184 36.0929 76.1851 35.6456 75.7378C35.0757 75.1647 34.4769 74.5706 33.8564 73.9416L33.7194 73.8018L33.8997 73.7389C34.9025 73.3825 35.6601 72.6207 35.9198 71.7121C36.2445 70.5799 35.8476 69.2589 34.7727 67.8891C33.7049 66.5332 33.5534 65.0585 34.3615 63.9332C35.2416 62.7171 37.3771 61.9204 40.1619 62.8849C45.3925 64.709 48.0547 63.1784 50.3489 57.042C52.1814 52.1356 56.236 52.4432 57.8881 52.8066L58.0035 52.8345L57.9819 52.9534C57.7654 54.0716 57.5274 55.1899 57.2676 56.2802C57.0368 57.3635 56.6977 58.6285 56.2648 60.0473C54.757 65.1563 52.9245 69.3707 51.4455 72.7674C51.193 73.3475 50.9477 73.9136 50.7168 74.4588C50.6519 74.6056 50.587 74.7523 50.5148 74.8921C49.4831 77.1915 47.2394 78.848 44.5123 79.3232C43.9135 79.442 43.3219 79.4979 42.7303 79.4979ZM34.1739 73.9067C34.7438 74.4868 35.2921 75.0389 35.826 75.5701C36.2733 76.0174 36.7062 76.4507 37.1246 76.87C37.2328 76.9819 37.3483 77.0867 37.4637 77.1915C39.2168 78.9109 41.8285 79.6168 44.469 79.0786C47.124 78.6243 49.2956 77.0168 50.2912 74.7873C50.3633 74.6405 50.4282 74.5007 50.4932 74.361C50.724 73.8158 50.9693 73.2567 51.2218 72.6696C52.6936 69.2869 54.5261 65.0724 56.0339 59.9774C56.4668 58.5656 56.8059 57.3076 57.0368 56.2312C57.2893 55.1829 57.5201 54.1066 57.7294 53.0302C56.07 52.6948 52.3185 52.527 50.5942 57.1328C48.2639 63.3601 45.4141 64.9816 40.0898 63.1225C37.4276 62.1999 35.4076 62.9338 34.5779 64.08C33.8348 65.1074 33.9863 66.4703 34.9819 67.7353C36.4104 69.5525 36.4176 70.9363 36.1723 71.782C35.8982 72.7115 35.1623 73.4943 34.1739 73.9067Z" fill="#10319B"/>
<path d="M42.7518 79.4981C40.674 79.4981 38.7189 78.7503 37.312 77.3665C37.1966 77.2616 37.0812 77.1568 36.9657 77.038C36.5473 76.6186 36.1144 76.1783 35.6599 75.731C33.041 73.1101 29.7801 69.8462 26.4974 65.6388C25.5668 64.4786 24.7876 63.4232 24.1743 62.4937C22.9479 60.7394 21.7791 58.9083 20.7042 57.0492C19.0232 54.1347 18.8789 50.724 20.3146 47.6978C21.743 44.6785 24.4629 42.6237 27.7672 42.0576L37.1317 40.4501L46.4312 38.556C49.7211 37.8851 53.0037 38.8146 55.4494 41.1001C57.9023 43.3995 59.0206 46.6284 58.5228 49.9483C58.2054 52.0659 57.7941 54.1906 57.2963 56.2734C57.0655 57.3567 56.7264 58.6217 56.2935 60.0405C54.7857 65.1495 52.9532 69.364 51.4742 72.7537C51.2217 73.3338 50.9764 73.8999 50.7455 74.445C50.6806 74.5918 50.6157 74.7386 50.5435 74.8783C49.5118 77.1777 47.2681 78.8342 44.541 79.3094C43.9278 79.4352 43.3362 79.4981 42.7518 79.4981ZM48.5234 38.591C47.8453 38.591 47.1599 38.6609 46.4817 38.8007L37.175 40.7017L27.8105 42.3092C24.5856 42.8613 21.9306 44.8672 20.5382 47.8096C19.1386 50.766 19.2757 54.0928 20.9206 56.9373C21.9883 58.7825 23.1499 60.6136 24.3764 62.3609C24.9896 63.2834 25.7615 64.3388 26.685 65.492C29.9604 69.6924 33.2142 72.9494 35.833 75.5633C36.2804 76.0106 36.7204 76.4509 37.1389 76.8702C37.2471 76.9821 37.3625 77.0869 37.478 77.1917C39.2311 78.9111 41.85 79.617 44.4833 79.0788C47.1382 78.6245 49.3098 77.017 50.3054 74.7875C50.3776 74.6407 50.4425 74.5009 50.5074 74.3612C50.7383 73.816 50.9836 73.2499 51.2433 72.6698C52.7151 69.2871 54.5476 65.0726 56.0482 59.9846C56.4811 58.5728 56.8202 57.3148 57.051 56.2384C57.5488 54.1627 57.9601 52.038 58.2775 49.9343C58.7609 46.6913 57.6643 43.5462 55.2762 41.3027C53.4005 39.5275 51.0197 38.591 48.5234 38.591Z" fill="#10319B"/>
<path d="M22.1758 46.8729C23.597 45.0907 25.6099 43.7977 28.0412 43.3854L30.7178 42.9311C30.7394 42.9311 30.7539 42.9241 30.7755 42.9171L37.4562 41.7779L44.0936 40.415C44.1152 40.408 44.1296 40.408 44.1513 40.408L46.8135 39.8629C50.5001 39.108 53.0107 41.3725 55.3338 44.0633C55.8605 44.6714 55.6368 45.6289 54.9154 45.9154C48.8263 48.3406 34.7363 52.4153 22.1758 46.8729Z" fill="#E26907"/>
<path d="M42.016 60.5011C41.7779 60.5011 41.5399 60.4801 41.2946 60.4382C39.8733 60.1866 38.7334 59.2291 38.2356 57.8872L35.4003 50.1083C34.9241 48.8083 35.1622 47.3896 36.0352 46.3063C36.9081 45.2299 38.25 44.6848 39.628 44.8665C39.6713 44.8735 39.7146 44.8805 39.7579 44.8875L39.7146 45.1321L39.7723 44.8875L39.8084 44.8945L48.0113 46.3412C49.4326 46.5928 50.5725 47.5503 51.0703 48.8922C51.5609 50.2411 51.3011 51.7018 50.3705 52.7991L45.0461 59.0823C44.2814 60.0049 43.1848 60.5011 42.016 60.5011ZM39.1086 45.3348C38.0697 45.3348 37.0957 45.796 36.4248 46.6208C35.66 47.5643 35.458 48.8014 35.8692 49.9406L38.7045 57.7194C39.1374 58.9006 40.133 59.7323 41.3811 59.9559C42.6293 60.1796 43.8557 59.7323 44.671 58.7748L49.9953 52.4916C50.8106 51.5341 51.0342 50.2551 50.6085 49.0739C50.1757 47.8928 49.1801 47.0611 47.932 46.8374L39.6929 45.3837L39.7146 45.1391L39.6713 45.3837C39.6352 45.3767 39.5919 45.3697 39.5559 45.3697C39.4188 45.3418 39.2601 45.3348 39.1086 45.3348Z" fill="#F89E1C"/>
<path d="M41.9729 60.5723C41.7348 60.5723 41.4967 60.5513 41.2586 60.5094C39.8518 60.2578 38.7191 59.3143 38.2285 57.9794L35.3211 50.0118C34.8521 48.7188 35.083 47.314 35.9487 46.2447C36.8145 45.1753 38.1492 44.6442 39.5127 44.8189C39.556 44.8259 39.5993 44.8329 39.6426 44.8399L39.6209 44.9657L39.6498 44.8469L39.6931 44.8538L48.098 46.3355C49.5049 46.5871 50.6375 47.5307 51.1281 48.8656C51.6187 50.2005 51.359 51.6472 50.4355 52.7375L44.9813 59.1745C44.2238 60.0761 43.1272 60.5723 41.9729 60.5723ZM39.0005 45.0356C37.8967 45.0356 36.8578 45.5248 36.1507 46.3984C35.3427 47.3979 35.1191 48.7188 35.5592 49.9279L38.4666 57.8955C38.9211 59.1465 39.9817 60.0341 41.3091 60.2648C42.6294 60.4954 43.9352 60.0272 44.801 59.0068L50.2552 52.5698C51.1209 51.5494 51.359 50.1935 50.9045 48.9425C50.45 47.6914 49.3894 46.8038 48.062 46.5732L39.6137 45.0845L39.6282 44.9587L39.6065 45.0845C39.5632 45.0775 39.5272 45.0705 39.4839 45.0635C39.3179 45.0425 39.1592 45.0356 39.0005 45.0356Z" fill="#10319B"/>
<path d="M42.3699 58.3983C42.1895 58.3983 42.0019 58.3843 41.8216 58.3493C40.7322 58.1606 39.8592 57.4268 39.4841 56.3994L37.3558 50.5775C36.9951 49.585 37.1754 48.4947 37.8392 47.67C38.5101 46.8453 39.5346 46.4329 40.5879 46.5727L40.7322 46.5937L46.879 47.677C47.9684 47.8657 48.8413 48.5996 49.2165 49.627C49.5916 50.6544 49.3896 51.7726 48.6826 52.6113L44.693 57.315C44.1014 58.0139 43.2573 58.3983 42.3699 58.3983ZM40.1911 47.041C39.4336 47.041 38.7193 47.3765 38.2287 47.9775C37.6732 48.6625 37.5217 49.571 37.8247 50.4028L39.953 56.2247C40.2705 57.0843 40.9991 57.6994 41.9082 57.8601C42.8172 58.0209 43.7118 57.6994 44.3106 56.9935L48.3002 52.2898C48.8918 51.5909 49.065 50.6544 48.7475 49.7947C48.4301 48.935 47.7014 48.32 46.7924 48.1593L40.5302 47.055C40.4147 47.048 40.3065 47.041 40.1911 47.041Z" fill="#F89E1C"/>
<path d="M40.66 46.9016C40.6311 46.8946 40.6022 46.8946 40.5662 46.8876C38.5677 46.629 36.9661 48.565 37.6659 50.48L39.7437 56.1761C40.4652 58.147 43.0624 58.6013 44.4187 57.0008L48.3146 52.402C49.6709 50.8015 48.7763 48.3413 46.6985 47.9709L40.696 46.9086C40.6816 46.9086 40.6672 46.9016 40.66 46.9016Z" fill="#032663"/>
<path d="M41.713 49.074C41.6986 49.074 41.6769 49.067 41.6625 49.067C40.5371 48.9202 39.6352 50.0175 40.0248 51.0938L41.1936 54.3018C41.5976 55.4131 43.0621 55.6717 43.8269 54.7701L46.0273 52.1771C46.7921 51.2755 46.287 49.8847 45.1183 49.682L41.7347 49.0809C41.7275 49.074 41.7202 49.074 41.713 49.074Z" fill="#F2D822"/>
<path d="M21.5912 49.332C22.594 50.1078 27.839 51.5685 27.839 51.5685C27.839 51.5685 26.425 53.0991 26.8939 55.6991C27.2402 57.6421 29.4118 59.0259 29.4118 59.0259C28.0771 61.0178 29.2603 63.8693 30.9196 65.8892C32.579 67.909 31.6122 68.7687 31.6122 68.7687C31.6122 68.7687 22.4064 59.4732 20.6389 53.6094C19.9246 51.2261 21.5912 49.332 21.5912 49.332Z" fill="#F4B821"/>
<path d="M56.1635 54.5117C56.1635 54.5117 54.2372 54.5537 53.4797 55.9934C52.7222 57.4332 48.8985 69.6571 46.8856 74.1441C46.5249 74.9478 45.7096 77.6526 44.1874 77.4289C44.1874 77.4289 46.3806 78.1768 48.747 74.7032C51.1133 71.2366 55.1174 58.3487 56.1635 54.5117Z" fill="#0E51A0"/>
<path d="M17.4789 57.9091C19.0228 55.4629 23.0991 49.9764 30.5012 46.2233C31.2226 45.8599 32.0379 46.5238 31.8214 47.2996L31.6555 47.9077C29.9457 54.0511 24.5708 58.4891 18.1787 59.0413C17.5655 59.0902 17.1471 58.4262 17.4789 57.9091Z" fill="#F89E1C"/>
<path d="M18.5253 57.9224C18.5397 57.9224 18.5469 57.9224 18.5614 57.9154C20.9061 57.6009 22.8107 55.8186 23.3013 53.5192C23.46 52.7574 23.5105 51.9537 23.3446 51.1709C20.4227 53.4493 18.7634 55.9584 18.0419 57.2165C17.8471 57.5589 18.1285 57.9713 18.5253 57.9224Z" fill="#F4B821"/>
<path d="M22.6447 57.9085C26.9445 56.1263 30.3209 52.478 31.6484 47.9001L31.8216 47.2991C31.8432 47.2292 31.8504 47.1523 31.8576 47.0894L31.0352 46.1528C30.8692 46.1389 30.6961 46.1668 30.5229 46.2507C29.7798 46.6281 29.0728 47.0265 28.3946 47.4388C29.4985 51.5414 25.0038 55.9376 22.6447 57.9085Z" fill="#F5851F"/>
<path d="M27.3195 48.5781C27.9616 49.3888 28.8201 51.5205 26.1435 56.0634L25.386 56.4478C29.2169 50.3393 26.6485 48.606 26.6269 48.592L26.8938 48.1797C26.9227 48.1937 27.1103 48.3125 27.3195 48.5781Z" fill="#F89E1C"/>
<path d="M28.7622 47.1594C28.7622 47.1594 31.3667 48.4034 29.4692 52.3872C29.4692 52.3872 32.3334 48.0749 31.5615 46.4604C31.5687 46.4604 31.0636 45.4191 28.7622 47.1594Z" fill="#032663"/>
<path d="M18.1143 59.1664C17.8112 59.1664 17.5299 59.0126 17.3712 58.754C17.198 58.4745 17.198 58.125 17.3784 57.8454C18.7996 55.588 22.9264 49.9268 30.4511 46.1177C30.8263 45.929 31.2664 45.971 31.5982 46.2436C31.9301 46.5091 32.0672 46.9285 31.9518 47.3408L31.7858 47.9489C30.076 54.1063 24.6146 58.6212 18.2008 59.1734C18.1648 59.1664 18.1359 59.1664 18.1143 59.1664ZM17.5804 57.9712C17.4505 58.1739 17.4505 58.4185 17.5804 58.6212C17.7102 58.8239 17.9267 58.9357 18.1648 58.9148C24.4703 58.3696 29.8451 53.9316 31.5333 47.872L31.6992 47.264C31.7858 46.9494 31.6848 46.6349 31.4323 46.4253C31.1798 46.2226 30.8479 46.1876 30.5593 46.3344C23.0923 50.1155 18.9944 55.7347 17.5804 57.9712Z" fill="#10319B"/>
<path d="M29.6501 52.4854L29.4192 52.3805C31.129 48.6623 28.7266 47.2785 28.705 47.2645L28.8276 47.0479C28.8492 47.0688 31.4537 48.5575 29.6501 52.4854Z" fill="#10319B"/>
<path d="M26.396 55.9582L26.1796 55.8394C29.3828 50.1503 26.9732 48.41 26.9515 48.396L27.0886 48.1934C27.1968 48.2633 29.7219 50.0525 26.396 55.9582Z" fill="#10319B"/>
<path d="M15.4594 10.4975C16.7203 9.32145 18.2737 8.25465 20.0207 7.30351L19.9059 7.34773C19.9059 7.34773 25.376 3.26086 34.2066 2.04822C43.0093 0.839402 49.4349 3.19314 49.4727 3.20929C51.4683 3.6536 53.2885 4.27134 54.8576 5.08005C62.4138 8.9855 63.2796 19.4854 61.6057 29.7223C60.4023 37.1706 50.4408 41.8529 40.0175 43.1207C29.6383 44.7096 18.7833 42.8859 15.6027 36.0396C11.2323 26.6398 9.23562 16.2952 15.4594 10.4975Z" fill="#F89E1C"/>
<path d="M15.464 10.5314C16.126 9.91416 16.8706 9.32827 17.6758 8.76962C11.5994 14.604 13.5953 24.8918 17.9391 34.2526C21.1216 41.1129 31.9696 42.9376 42.3567 41.3547C48.2819 40.6335 54.0546 38.8024 58.1635 35.9906C54.1235 39.874 47.1893 42.3625 40.0257 43.2324C29.6465 44.8213 18.7905 42.9906 15.6081 36.1303C11.2417 26.7086 9.24217 16.3431 15.464 10.5314Z" fill="#F5851F"/>
<path d="M19.8824 18.8311C15.5383 18.5315 14.3349 11.8404 14.2807 11.5491L14.7814 11.4661C14.79 11.529 15.9704 18.0525 19.9121 18.322L19.8824 18.8311Z" fill="#F89E1C"/>
<path d="M51.9802 14.6856L51.7744 14.2231C55.8091 12.4244 55.1158 5.56366 55.1063 5.49386L55.6108 5.4388C55.6441 5.73294 56.3504 12.7412 51.9802 14.6856Z" fill="#F4B821"/>
<path d="M35.342 7.98791C32.9756 8.31288 30.6702 7.83999 29.2065 6.71098C29.1589 6.67484 29.1112 6.63871 29.0626 6.5956L26.4024 4.31511L26.8988 3.73485L29.5581 6.00836C29.5908 6.03943 29.6305 6.06954 29.6702 6.09965C31.0942 7.19855 33.4379 7.58795 35.801 7.1354C38.0944 6.69245 39.9841 5.5368 40.8551 4.05873L42.2149 1.73828L42.8725 2.12451L41.5127 4.44496C40.54 6.1148 38.4543 7.39694 35.9465 7.88357C35.739 7.92629 35.5445 7.96011 35.342 7.98791Z" fill="#F4B821"/>
<path d="M35.7031 10.7189C32.5687 11.1493 29.5828 10.4853 27.5217 8.89072C27.4503 8.83652 27.3709 8.7763 27.2985 8.71512L27.2181 8.64792L23.5679 5.52898L24.0643 4.94872L27.7879 8.13582C27.8524 8.19097 27.9169 8.24613 27.9874 8.29335C29.8877 9.75358 32.6676 10.3676 35.5995 9.96494C35.8369 9.93235 36.0802 9.89182 36.3227 9.84431C39.4261 9.24033 41.9449 7.64265 43.2233 5.4543L45.1646 2.13651L45.8222 2.52274L43.8809 5.84052C42.4929 8.21463 39.786 9.94482 36.4681 10.5925C36.2187 10.6409 35.9614 10.6834 35.7031 10.7189Z" fill="#F4B821"/>
<path d="M54.7197 6.97633C53.1497 6.16064 51.3275 5.52893 49.3319 5.08463C49.2872 5.06943 42.7814 2.23595 33.9788 3.44476C28.1838 4.23343 23.256 5.89874 20.5408 6.94728C22.2059 5.86514 27.1211 3.0209 34.2135 2.04694C43.0162 0.83813 49.4457 3.21979 49.4835 3.23594C51.48 3.68723 53.3012 4.31196 54.8713 5.12764C61.6134 8.64701 63.0425 17.4479 62.0908 26.6255C62.675 18.1385 61.0098 10.2591 54.7197 6.97633Z" fill="#F4B821"/>
<path d="M52.3452 14.2861L52.2628 14.0485C56.0878 12.6911 55.5511 5.62399 55.5485 5.55323L55.8017 5.53268C55.8211 5.82874 56.3529 12.861 52.3452 14.2861Z" fill="#10319B"/>
<path d="M43.5453 5.62302L45.4866 2.30524C44.6264 2.15308 43.6327 2.01217 42.5301 1.90753L41.1703 4.22798C40.2489 5.80542 38.2603 7.01734 35.8641 7.48863C33.3981 7.96952 30.9361 7.54659 29.4317 6.38049C29.3841 6.34436 29.3444 6.31425 29.3037 6.27716L26.6445 4.00365C25.582 4.39848 24.6361 4.81287 23.8148 5.20303L27.4651 8.32196L27.5454 8.38917C27.6169 8.44337 27.6823 8.5055 27.7537 8.5597C29.7345 10.0871 32.6378 10.7197 35.6465 10.3066C35.8909 10.273 36.1412 10.2315 36.3906 10.183C39.5997 9.57167 42.2086 7.90473 43.5453 5.62302Z" fill="#032663"/>
<path d="M20.2826 18.6899C16.039 18.3979 14.6372 11.5562 14.576 11.2659L14.8254 11.2174C14.842 11.2863 16.2486 18.1628 20.2979 18.4389L20.2826 18.6899Z" fill="#10319B"/>
<path d="M39.9491 43.0377C34.8148 43.821 29.5792 43.8145 25.1063 42.8356C23.9693 41.9106 22.9926 40.6507 22.3133 39.1224C20.5728 35.2007 18.4623 29.6726 17.0717 23.3273C16.3871 20.2065 17.7742 17.1 20.2448 16.1348C23.6131 14.8188 28.855 13.1103 35.222 12.1364L35.221 12.1294C35.4025 12.1045 35.578 12.0875 35.7595 12.0626C35.941 12.0377 36.1146 12.0067 36.2961 11.9818L36.297 11.9888C42.6908 11.2104 48.0515 11.2992 51.6499 11.6586C54.2892 11.922 56.6101 14.683 56.792 17.8728C57.1634 24.358 56.6212 30.2504 56.0023 34.4961C55.7623 36.1151 55.1854 37.5599 54.3678 38.7533C50.2812 40.9503 45.1672 42.3994 39.9491 43.0377Z" fill="#032663"/>
<path d="M57.1858 36.7435L56.2493 37.434C56.3611 36.8497 56.5459 35.8641 56.6642 35.1722C56.983 33.3503 57.346 31.2806 57.7293 29.8766C58.3495 27.6079 60.6681 25.6395 62.2253 24.6006L62.0896 25.7359C60.6374 26.7105 59.0198 28.0351 58.4616 30.0818C58.0885 31.456 57.7296 33.5038 57.4088 35.3118C57.2965 35.9957 57.2976 36.1592 57.1858 36.7435Z" fill="#F4B821"/>
<path d="M22.095 41.727C22.0391 41.7347 21.9855 41.7065 21.9648 41.6595C21.7292 41.1869 21.4799 40.6664 21.2227 40.1398C20.4471 38.5322 19.5632 36.7048 18.7969 35.4231C17.6809 33.5636 15.7154 32.7169 13.9349 32.1292C13.8682 32.1099 13.8297 32.037 13.856 31.9694C13.8753 31.9027 13.9483 31.8642 14.0159 31.8905C15.8402 32.4863 17.8594 33.3613 19.0208 35.2928C19.796 36.5875 20.68 38.4149 21.4564 40.0295C21.7137 40.556 21.962 41.0696 22.1916 41.5501C22.2211 41.6101 22.1968 41.6917 22.1368 41.7212C22.1229 41.7231 22.1089 41.7251 22.095 41.727Z" fill="#F89E1C"/>
<path d="M62.1686 25.6904C62.0467 27.03 61.8769 28.3834 61.6564 29.7294C61.2058 32.5082 59.5636 34.8959 57.1403 36.8787C57.5435 34.7394 57.8024 32.3781 58.322 30.4647C58.9441 28.21 60.7934 26.6047 62.1686 25.6904Z" fill="#032663"/>
<path d="M60.9317 29.9926C61.1074 29.2003 61.2622 28.411 61.402 27.6165C60.6892 28.2265 59.9861 29.0627 59.6364 30.142C59.2605 31.289 58.9819 32.6786 58.6807 34.0073C59.792 32.8803 60.5825 31.5413 60.9317 29.9926Z" fill="#0E51A0"/>
<path d="M57.2989 36.8424L57.051 36.7982C57.1915 36.0605 57.3123 35.2829 57.43 34.5342C57.6539 33.1094 57.8931 31.6398 58.2318 30.3771C58.846 28.1164 60.6933 26.4971 62.1255 25.5323L62.2679 25.7404C60.8677 26.6795 59.0774 28.2482 58.4746 30.4362C58.134 31.685 57.9009 33.1466 57.6759 34.5644C57.5602 35.3271 57.4394 36.1047 57.2989 36.8424Z" fill="#10319B"/>
<path d="M13.9598 32.3105C14.4383 33.5677 14.9666 34.8252 15.5419 36.062C16.7248 38.6165 18.9499 40.4731 21.818 41.7293C20.853 39.7779 19.9671 37.5738 18.9509 35.8712C17.7511 33.8667 15.5306 32.8203 13.9598 32.3105Z" fill="#032663"/>
<path d="M40.7167 43.1383C40.4864 43.1699 40.256 43.2016 40.0317 43.2253C30.8852 44.6235 18.9796 43.5913 15.4877 36.0837C12.3593 29.3582 8.19178 17.0856 15.374 10.3952L15.4582 10.4903L15.374 10.3952C16.629 9.22712 19.7965 7.27722 19.9344 7.19426C19.9795 7.15963 25.4353 3.12451 34.1961 1.92144C42.9848 0.714548 49.4593 3.06157 49.527 3.08785C51.5733 3.53941 53.3955 4.17112 54.9268 4.96368C63.6466 9.47036 62.9416 22.4121 61.741 29.7249C60.4322 37.6998 49.7568 41.8969 40.7167 43.1383ZM39.9902 42.9749C40.2136 42.9442 40.4449 42.9196 40.6752 42.888C49.6315 41.6581 60.2019 37.5251 61.4871 29.6886C62.6754 22.4415 63.3837 9.62737 54.809 5.19323C53.2935 4.41272 51.4933 3.78511 49.4539 3.33259C49.3713 3.30125 42.9505 0.982421 34.2316 2.17973C25.5406 3.37321 20.1288 7.36672 20.0778 7.40929C20.0388 7.43598 16.7923 9.43229 15.5494 10.5845C8.47937 17.1599 12.6236 29.3148 15.7145 35.9743C19.1463 43.3551 30.9414 44.3598 39.9902 42.9749Z" fill="#10319B"/>
<path d="M39.8531 41.9269C35.4499 42.5956 30.9694 42.649 27.0479 41.9571C26.4426 41.8482 25.8711 41.571 25.441 41.1322C24.7066 40.3938 24.0847 39.4906 23.6081 38.4536C22.0148 34.9313 20.0867 29.9543 18.8262 24.2455C18.2057 21.4359 19.4925 18.6348 21.7692 17.7602C24.8768 16.5654 29.7133 15.0122 35.5856 14.1133L35.5846 14.1063C35.7522 14.0833 35.9127 14.0613 36.0812 14.0452C36.2488 14.0222 36.4084 13.9932 36.5759 13.9702L36.5769 13.9772C42.4741 13.2598 47.5432 13.4527 50.8649 13.7647C53.3001 13.9922 55.2873 16.3438 55.4471 19.2166C55.7652 25.0548 55.257 30.3664 54.6723 34.1878C54.4988 35.3069 54.1485 36.3294 53.6463 37.2305C53.3615 37.7462 52.9189 38.1484 52.3923 38.4056C48.7543 40.1925 44.3513 41.3803 39.8531 41.9269Z" fill="#FCE8CA"/>
<path d="M39.1751 43.2006C34.0862 43.8994 29.2208 43.7923 25.0634 42.8838L25.0345 42.8807L25.0107 42.8626C23.8251 41.8945 22.8496 40.5918 22.1821 39.0974C20.5843 35.4904 18.368 29.8132 16.9259 23.2474C16.2237 20.0508 17.618 16.8935 20.1765 15.8949C23.6127 14.5553 39.046 9.88977 51.7852 11.5543C54.5157 11.9119 56.7095 14.5765 56.8905 17.7593C57.2716 24.4709 56.6747 30.5343 56.1014 34.4395C55.8716 36.0287 55.2944 37.5233 54.4467 38.7563L54.4286 38.7802L54.4026 38.798C50.4829 40.9152 45.3515 42.4449 39.9509 43.1011C39.6917 43.1296 39.4334 43.1651 39.1751 43.2006ZM39.9215 42.8349C45.2802 42.1844 50.3636 40.6684 54.2584 38.5759C55.075 37.3756 55.6309 35.9337 55.8535 34.3953C56.4217 30.5051 57.0206 24.4556 56.6354 17.7659C56.4636 14.7027 54.362 12.1393 51.748 11.8012C39.0596 10.144 23.6882 14.7939 20.2649 16.1246C17.8283 17.078 16.4954 20.1131 17.1733 23.185C18.6126 29.7298 20.8131 35.3949 22.4089 38.988C23.0567 40.4425 23.9985 41.7071 25.1444 42.6451C29.4174 43.5661 34.6625 43.6424 39.9215 42.8349Z" fill="#10319B"/>
<path d="M21.6924 41.6463C21.3681 40.9938 21.054 40.3115 20.7496 39.6491C20.1518 38.3514 19.5273 37.0147 18.8528 35.884C17.6895 33.9385 15.5347 32.9044 13.9341 32.3845L14.0151 32.1458C15.6535 32.6818 17.8619 33.7441 19.0707 35.7616C19.7531 36.8984 20.3796 38.249 20.9774 39.5467C21.2817 40.2091 21.5959 40.8914 21.9192 41.5369L21.6924 41.6463Z" fill="#10319B"/>
<path d="M58.4681 26.1405L61.4414 23.8119C61.4414 23.8119 61.0879 14.401 57.5062 10.5899L57.0058 13.3684C57.0058 13.3684 58.672 15.1951 58.4681 26.1405Z" fill="#F4B821"/>
<path fill-rule="evenodd" clip-rule="evenodd" d="M30.4041 30.27C29.3846 30.6508 28.5557 31.4964 28.0993 32.3089C27.8979 32.6675 27.4397 32.7929 27.0758 32.5889C26.7119 32.385 26.5802 31.929 26.7816 31.5704C27.3687 30.5251 28.4415 29.4006 29.8591 28.8711C31.3269 28.3228 33.0846 28.4453 34.8783 29.7857C35.1234 29.9689 35.2345 30.2795 35.1596 30.5721C35.0847 30.8647 34.8386 31.0815 34.5365 31.121C34.0866 31.1798 33.3614 31.2964 32.7011 31.5365C32.001 31.7911 31.5826 32.1092 31.4493 32.438C31.2948 32.8192 30.8565 33.0004 30.4704 32.8427C30.0842 32.6849 29.8965 32.248 30.051 31.8668C30.4336 30.9233 31.39 30.4161 32.1683 30.1332C32.1762 30.1303 32.1841 30.1274 32.192 30.1246C31.5307 29.9912 30.9311 30.0731 30.4041 30.27Z" fill="#0E51A0"/>
<path d="M47.9481 30.3344L47.9548 30.7672L42.0251 30.9734L42.0184 30.5406L47.9481 30.3344Z" fill="#0052A3"/>
<path d="M47.9587 30.9275C47.9542 31.0746 47.9492 31.2146 47.9236 31.3561L42.0972 31.5556C42.0677 31.4178 42.0516 31.2721 42.0424 31.126L47.9587 30.9275Z" fill="#0052A3"/>
<path d="M47.221 26.6657L42.5466 26.8322C42.6608 26.6711 42.7897 26.5231 42.9263 26.3885L46.8149 26.2525C46.9677 26.3751 47.1008 26.513 47.221 26.6657Z" fill="#0052A3"/>
<path d="M45.8046 25.6968C46.0938 25.7895 46.3718 25.9248 46.6175 26.0971L43.122 26.2146C43.3587 26.0246 43.6252 25.8676 43.9085 25.7583L45.8046 25.6968Z" fill="#0052A3"/>
<path d="M47.6628 27.4009C47.7198 27.537 47.7634 27.6808 47.8002 27.8251L42.0288 28.0211C42.0608 27.8723 42.1002 27.73 42.1465 27.5872L47.6628 27.4009Z" fill="#0052A3"/>
<path d="M47.8383 27.9844C47.8678 28.1222 47.8839 28.2679 47.8932 28.414L41.9703 28.6198C41.968 28.4732 41.9798 28.3327 41.9985 28.1917L47.8383 27.9844Z" fill="#0052A3"/>
<path d="M47.349 26.8205C47.4404 26.9543 47.5185 27.0958 47.5901 27.2448L42.2119 27.4292C42.2783 27.2782 42.3448 27.1271 42.4328 26.9887L47.349 26.8205Z" fill="#0052A3"/>
<path d="M47.9141 29.162L47.9272 29.5874L41.9974 29.7937L41.9843 29.3682L47.9141 29.162Z" fill="#0052A3"/>
<path d="M47.9042 28.5747L47.9104 29.0006L41.9807 29.2068L41.974 28.774L47.9042 28.5747Z" fill="#0052A3"/>
<path d="M47.9311 29.7479L47.9447 30.1802L42.0145 30.3796L42.0014 29.9542L47.9311 29.7479Z" fill="#0052A3"/>
<path d="M40.2907 34.1951C40.4248 34.1787 40.5364 34.2906 40.5214 34.4228C40.4685 34.8538 40.1314 35.2077 39.6829 35.271C39.2326 35.3286 38.8146 35.0699 38.6433 34.6706C38.5912 34.5465 38.675 34.412 38.8016 34.3916L40.2907 34.1951Z" fill="#032663"/>
<path d="M27.8529 25.4307C27.8875 25.4199 27.9241 25.3957 27.9513 25.3616C28.3551 24.8966 28.9382 24.657 29.5563 24.707C29.6922 24.7158 29.8063 24.6162 29.8155 24.4854C29.8228 24.3488 29.7226 24.233 29.5925 24.2225C28.8251 24.1615 28.0958 24.4595 27.5892 25.0398C27.5018 25.1438 27.5116 25.2943 27.6159 25.3832C27.6745 25.448 27.7682 25.4636 27.8529 25.4307Z" fill="#032663"/>
<path d="M47.1183 22.8442C47.08 22.8433 47.0438 22.8291 47.0039 22.8033C46.4894 22.4599 45.8608 22.3753 45.2805 22.5818C45.1556 22.6272 45.0147 22.5627 44.9665 22.431C44.9202 22.3052 44.9831 22.1644 45.1137 22.1172C45.8363 21.86 46.6216 21.9595 47.2652 22.3901C47.3772 22.4636 47.4061 22.6141 47.334 22.7259C47.2909 22.8094 47.2024 22.8498 47.1183 22.8442Z" fill="#032663"/>
</g>
</svg>
