<svg width="100" height="100" viewBox="0 0 100 100" fill="none" xmlns="http://www.w3.org/2000/svg">
<mask id="mask0_12665_30565" style="mask-type:alpha" maskUnits="userSpaceOnUse" x="0" y="0" width="100" height="100">
<rect width="100" height="100" fill="#D9D9D9"/>
</mask>
<g mask="url(#mask0_12665_30565)">
<path d="M12.6768 19.6733C11.4161 19.5201 10.1419 19.8181 9.07984 20.5144C8.01778 21.2107 7.23642 22.2604 6.87414 23.4776C6.51186 24.6947 6.59205 26.0009 7.1005 27.1646C7.60896 28.3283 8.51286 29.2746 9.65212 29.8357L39.0179 33.3591L34.7109 69.2566L33.6432 78.1553L25.6344 77.1944C24.9264 77.1094 24.2136 77.3092 23.6529 77.7498C23.0921 78.1904 22.7294 78.8357 22.6445 79.5437C22.5595 80.2517 22.7593 80.9645 23.1999 81.5252C23.6405 82.086 24.2857 82.4487 24.9938 82.5336L46.3507 85.0961C47.0588 85.1811 47.7715 84.9813 48.3323 84.5407C48.893 84.1001 49.2557 83.4548 49.3407 82.7468C49.4256 82.0388 49.2258 81.326 48.7852 80.7653C48.3447 80.2045 47.6994 79.8418 46.9914 79.7569L38.9824 78.7959L40.0501 69.8972L44.3572 33.9997L73.723 37.5231C74.9627 37.2474 76.0648 36.5418 76.8341 35.5314C77.6034 34.521 77.9903 33.2709 77.9262 32.0026C77.8622 30.7342 77.3513 29.5295 76.4841 28.6017C75.6169 27.674 74.4493 27.083 73.1882 26.9336L12.6768 19.6733Z" fill="#FFE784"/>
<path fill-rule="evenodd" clip-rule="evenodd" d="M11.4141 29.7041L70.4609 36.7887L68.0578 56.817C67.5562 55.7663 66.8527 54.8381 65.9912 54.0903C65.1296 53.3425 64.1285 52.7911 63.0504 52.4706C61.9722 52.1501 60.84 52.0673 59.7245 52.2274C58.609 52.3875 57.534 52.787 56.5667 53.4011C55.5995 54.0152 54.7606 54.8306 54.1024 55.7965C53.4442 56.7624 52.9808 57.8581 52.7412 59.0152C52.5016 60.1723 52.4909 61.366 52.7097 62.5219C52.9286 63.6777 53.3722 64.7709 54.0131 65.7332C52.5486 65.698 51.1066 66.1597 49.9008 67.0499C48.6949 67.9401 47.7894 69.2114 47.3183 70.6754L15.1953 66.8212C13.0424 66.5629 11.0856 65.4151 9.75544 63.6303C8.4253 61.8456 7.83076 59.57 8.1026 57.3043L11.4141 29.7041ZM18.9501 51.0509L20.238 40.3175C20.3286 39.5623 20.7006 38.8722 21.2721 38.399C21.8436 37.9259 22.5679 37.7084 23.2855 37.7945L34.1091 39.0932C34.8268 39.1793 35.479 39.5619 35.9224 40.1568C36.3658 40.7517 36.564 41.5103 36.4734 42.2655L35.1855 52.9989C35.0949 53.7541 34.7229 54.4442 34.1514 54.9174C33.5799 55.3905 32.8556 55.608 32.138 55.5219L21.3144 54.2232C20.5967 54.1371 19.9445 53.7545 19.5011 53.1596C19.0577 52.5647 18.8595 51.8062 18.9501 51.0509Z" fill="#FFF7D7"/>
<path fill-rule="evenodd" clip-rule="evenodd" d="M64.0698 65.2159C65.2128 64.2696 65.9568 62.8894 66.138 61.3789C66.3193 59.8684 65.9229 58.3514 65.0362 57.1616C64.1494 55.9717 62.8449 55.2065 61.4096 55.0343C59.9743 54.8621 58.5258 55.297 57.3827 56.2433C56.2397 57.1896 55.4957 58.5698 55.3144 60.0803C55.1332 61.5908 55.5296 63.1078 56.4163 64.2976C57.3031 65.4875 58.6076 66.2527 60.0429 66.4249C61.4782 66.5971 62.9267 66.1622 64.0698 65.2159ZM58.3346 80.6631C65.0993 81.4747 68.234 78.2256 68.6594 74.6803C68.7953 73.5474 68.498 72.4096 67.833 71.5173C67.1679 70.6249 66.1895 70.051 65.113 69.9218L54.2894 68.6232C53.213 68.494 52.1266 68.8202 51.2693 69.5299C50.412 70.2396 49.854 71.2748 49.7181 72.4077C49.291 75.9672 51.5698 79.8514 58.3346 80.6631Z" fill="#FFF7D7"/>
<mask id="mask1_12665_30565" style="mask-type:alpha" maskUnits="userSpaceOnUse" x="29" y="12" width="78" height="77">
<rect x="29.7917" y="12.0002" width="76.25" height="76.25" fill="#D9D9D9"/>
</mask>
<g mask="url(#mask1_12665_30565)">
<path d="M86.2183 61.9589C88.4565 55.5189 83.6382 48.8108 76.8229 48.918L74.1826 48.9582C74.1624 48.9582 74.149 48.9582 74.1289 48.9582L67.5482 49.0654L60.9674 48.9582C60.9473 48.9582 60.9339 48.9582 60.9138 48.9582L58.2734 48.918C51.4581 48.8108 46.6398 55.5189 48.8781 61.9589C49.6085 64.0632 50.3926 66.02 51.2102 67.8361C51.6525 68.9016 52.2221 70.0743 52.8587 71.2873C55.6331 76.7288 58.5616 80.8301 60.8066 84.1875C60.8937 84.3148 60.9875 84.4421 61.0813 84.5627C62.569 86.7139 65.0485 87.7392 67.5549 87.7057C70.0545 87.7459 72.5407 86.7139 74.0284 84.5627C74.1222 84.4421 74.2161 84.3148 74.3032 84.1875C76.5481 80.8301 79.4767 76.7288 82.251 71.2873C82.8877 70.0743 83.4573 68.9083 83.8996 67.8361C84.7037 66.0133 85.4878 64.0632 86.2183 61.9589Z" fill="#F89E1C"/>
<path d="M74.7254 75.0201C76.5817 71.4282 72.9026 68.9621 68.8148 71.3277C63.9428 74.1422 61.0612 72.8757 57.8111 67.4878C55.1707 63.105 51.3107 64.2376 49.957 64.8139C50.3792 65.8794 50.8081 66.9114 51.2504 67.8965C51.6927 68.9621 52.2623 70.1348 52.8989 71.3478C55.6733 76.7893 58.6018 80.8905 60.8468 84.2479C60.9339 84.3753 61.0277 84.5026 61.1216 84.6232C62.6093 86.7744 65.0888 87.7997 67.5951 87.7662C70.0947 87.8064 72.5809 86.7744 74.0687 84.6232C74.1625 84.5026 74.2563 84.3753 74.3434 84.2479C75.0739 83.1489 75.8847 81.9762 76.7291 80.6962C74.7857 80.3812 72.9294 78.4914 74.7254 75.0201Z" fill="#032663"/>
<path d="M67.4276 87.8803C64.7805 87.8803 62.3814 86.6941 60.9943 84.6837C60.9004 84.5631 60.8066 84.4358 60.7195 84.3017C60.3978 83.8192 60.0561 83.3166 59.7076 82.8006C57.6704 79.7917 55.1439 76.0523 52.7649 71.3881C52.0881 70.1015 51.5319 68.9354 51.1097 67.9302C50.6607 66.9317 50.2251 65.893 49.8163 64.8476L49.7761 64.7404L49.8833 64.6934C51.4046 64.0434 55.2311 63.0114 57.8848 67.4209C61.2087 72.9362 64.0434 73.928 68.7277 71.2206C71.2206 69.7798 73.4119 70.1618 74.4775 71.1804C75.4559 72.1186 75.5832 73.5728 74.8058 75.0739C74.0218 76.5951 73.881 77.9421 74.4038 78.9741C74.8259 79.8051 75.6904 80.4015 76.7157 80.5691L76.9034 80.5959L76.7962 80.75C76.3204 81.467 75.858 82.1506 75.409 82.8073C75.0605 83.3233 74.7254 83.8192 74.4038 84.295C74.3166 84.4291 74.2228 84.5564 74.129 84.677C72.7217 86.7142 70.2757 87.9138 67.5616 87.8669C67.5147 87.8803 67.4678 87.8803 67.4276 87.8803ZM67.5616 87.639C70.1953 87.6792 72.5676 86.5266 73.9347 84.5497C74.0285 84.4224 74.1223 84.3017 74.2027 84.1744C74.5244 83.6919 74.8594 83.196 75.2079 82.68C75.6234 82.0702 76.0456 81.4335 76.4879 80.7768C75.4626 80.5624 74.6115 79.9391 74.1826 79.088C73.7939 78.3174 73.546 76.9771 74.5914 74.9667L74.6986 75.0203L74.5914 74.9667C75.3151 73.5661 75.2146 72.2191 74.3099 71.3613C73.3047 70.403 71.2273 70.0546 68.8483 71.435C64.0769 74.196 61.0479 73.1439 57.6771 67.5549C55.1774 63.4135 51.6123 64.2579 50.0844 64.8811C50.4798 65.8863 50.902 66.8848 51.3308 67.8498C51.7463 68.855 52.3025 70.0077 52.9794 71.2943C55.3517 75.9451 57.8781 79.6778 59.9086 82.68C60.2571 83.196 60.5989 83.6986 60.9205 84.1811C61.0077 84.3084 61.0948 84.4291 61.1886 84.5564C62.5557 86.5266 64.9414 87.6859 67.5616 87.639Z" fill="#10319B"/>
<path d="M43.6443 54.2795C42.686 56.9466 40.8967 63.4135 42.4581 71.3747C42.6123 72.1521 43.6175 72.3732 44.0866 71.7366L44.4552 71.2407C48.1744 66.2012 48.3688 59.3792 44.9444 54.132C44.616 53.6227 43.852 53.7098 43.6443 54.2795Z" fill="#F5851F"/>
<path d="M67.6756 87.88C67.6287 87.88 67.5885 87.88 67.5416 87.88C64.8476 87.9202 62.3815 86.7274 60.9742 84.6835C60.8804 84.5629 60.7866 84.4355 60.6995 84.3015C60.3778 83.819 60.036 83.3164 59.6876 82.8004C57.6503 79.7915 55.1239 76.0521 52.7449 71.3879C52.0681 70.1012 51.5119 68.9352 51.0897 67.93C50.2319 66.0067 49.4478 64.0298 48.7576 62.0462C47.672 58.93 48.1612 55.6061 50.0912 52.939C52.0145 50.2852 54.9899 48.7975 58.2736 48.8444L60.9072 48.8846H60.9608L67.5416 48.9918L74.1224 48.8846H74.1559L76.8163 48.8444C80.1 48.7908 83.0754 50.2852 84.9987 52.939C86.9287 55.6061 87.4179 58.93 86.3323 62.0462C85.6421 64.0298 84.858 66.0134 84.0002 67.9367C83.5847 68.9419 83.0285 70.1079 82.345 71.3946C79.966 76.0521 77.4329 79.7982 75.4023 82.8071C75.0539 83.3231 74.7121 83.8257 74.3904 84.3082C74.3033 84.4422 74.2095 84.5696 74.1157 84.6902C72.7285 86.6939 70.3294 87.88 67.6756 87.88ZM67.5416 87.6388C70.1752 87.679 72.5475 86.5264 73.9146 84.5494C74.0084 84.4221 74.1023 84.3015 74.1827 84.1742C74.5043 83.6917 74.8461 83.1891 75.1946 82.6731C77.2251 79.6708 79.7515 75.9315 82.1238 71.2874C82.8007 70.0074 83.3502 68.8481 83.7724 67.8496C84.6301 65.933 85.4142 63.9561 86.0978 61.9791C87.1566 58.9367 86.6808 55.6932 84.7977 53.0931C82.9213 50.5064 80.0062 49.0522 76.8163 49.0991L74.1827 49.1393H74.1492L67.5483 49.2465L60.9608 49.1393H60.9072L58.2669 49.0991C55.077 49.0522 52.1619 50.5064 50.2855 53.0931C48.4024 55.6999 47.9266 58.9367 48.9854 61.9791C49.669 63.9561 50.453 65.933 51.3108 67.8496C51.7263 68.8548 52.2825 70.0074 52.9594 71.2941C55.3316 75.9449 57.8581 79.6775 59.8886 82.6798C60.2371 83.1958 60.5788 83.6984 60.9005 84.1809C60.9876 84.3082 61.0747 84.4288 61.1686 84.5562C62.5423 86.5264 64.928 87.6857 67.5416 87.6388Z" fill="#10319B"/>
<path d="M83.0553 52.4833C81.3599 51.0157 79.202 50.1311 76.7895 50.178L74.1425 50.225C74.1223 50.225 74.1089 50.225 74.0888 50.225L67.4746 50.3389L60.8603 50.225C60.8402 50.225 60.8268 50.225 60.8067 50.225L58.1596 50.178C54.4873 50.1177 52.4902 52.7581 50.7613 55.7804C50.3726 56.464 50.7546 57.3485 51.4984 57.496C57.7642 58.7357 72.0181 60.1229 83.0553 52.4833Z" fill="#E26907"/>
<path d="M65.826 70.1618C65.1961 70.1618 64.5594 70.0076 63.9764 69.6927C62.7366 69.0225 61.9727 67.7828 61.9258 66.3755L61.6845 58.307C61.6443 56.8997 62.3346 55.613 63.5341 54.8759C64.7337 54.132 66.1879 54.0918 67.4276 54.762L74.5914 58.6153C75.791 59.2586 76.5482 60.4515 76.6219 61.8118C76.6957 63.1722 76.0657 64.4388 74.9466 65.2027C74.9131 65.2296 74.8729 65.2497 74.8394 65.2765L74.7925 65.3033L67.8766 69.5788C67.24 69.9607 66.5296 70.1618 65.826 70.1618ZM65.578 54.7687C64.9615 54.7687 64.3383 54.9429 63.7821 55.2847C62.7299 55.9347 62.1268 57.0606 62.167 58.2936L62.4083 66.3621C62.4485 67.5951 63.1186 68.6808 64.2043 69.2638C65.2899 69.8468 66.5698 69.8133 67.6153 69.1633L74.578 64.861C74.6115 64.8409 74.645 64.8208 74.6718 64.8007C75.6502 64.1305 76.1998 63.0248 76.1327 61.8319C76.0724 60.6458 75.409 59.6004 74.3569 59.0375L67.1931 55.1842C66.6838 54.9027 66.1276 54.7687 65.578 54.7687Z" fill="#F89E1C"/>
<path d="M65.7924 70.2219C65.1691 70.2219 64.5392 70.0678 63.9562 69.7528C62.7231 69.0894 61.9659 67.863 61.9257 66.4624L61.6777 58.1929C61.6375 56.799 62.321 55.5258 63.5072 54.7886C64.6933 54.0515 66.1408 54.0112 67.3739 54.6747L74.7119 58.6285C75.8981 59.2651 76.6486 60.4513 76.7223 61.7983C76.7961 63.1452 76.1728 64.4051 75.0671 65.1624C75.0336 65.1892 74.9934 65.2093 74.9599 65.2361L74.913 65.2629L67.8229 69.6456C67.193 70.0276 66.496 70.2219 65.7924 70.2219ZM65.5377 54.4535C64.881 54.4535 64.2242 54.6345 63.6345 55.0031C62.5221 55.6933 61.8787 56.8861 61.919 58.1929L62.1669 66.4624C62.2071 67.7692 62.9175 68.9219 64.0701 69.5451C65.2227 70.1683 66.5764 70.1281 67.6956 69.4379L74.8258 65.0283C74.8594 65.0082 74.8929 64.9814 74.9264 64.9613C75.9651 64.251 76.5481 63.0782 76.4811 61.8117C76.4141 60.5518 75.7104 59.4394 74.598 58.843L67.26 54.8891C66.7172 54.601 66.1274 54.4535 65.5377 54.4535Z" fill="#10319B"/>
<path d="M44.9444 54.1315C44.616 53.6289 43.852 53.716 43.6443 54.2789C42.7999 56.6244 41.3122 61.9118 42.036 68.5663C42.1499 62.6355 44.6026 56.9594 45.5073 55.063C45.3263 54.748 45.1454 54.433 44.9444 54.1315Z" fill="#F89E1C"/>
<path d="M42.3107 67.4814C42.0158 67.4814 41.8349 67.4278 41.8081 67.4211L41.9488 66.9587L41.8751 67.1866L41.9421 66.952C41.9689 66.9587 44.8706 67.5887 47.263 61.3162L47.3904 62.2611C45.4403 67.2 43.3092 67.4814 42.3107 67.4814Z" fill="#F89E1C"/>
<path d="M42.1365 69.4718C42.1365 69.4718 44.6696 70.7182 46.613 66.8381C46.613 66.8381 45.0047 71.6564 43.2891 72.0451C43.2891 72.0451 42.1767 72.2931 42.1365 69.4718Z" fill="#032663"/>
<path d="M43.3629 72.2258C43.2825 72.2258 43.2087 72.2191 43.1283 72.199C42.7262 72.1052 42.4247 71.8036 42.3443 71.3948C40.756 63.3063 42.6458 56.6987 43.5304 54.2393C43.6376 53.9377 43.9057 53.7233 44.2273 53.6831C44.549 53.6428 44.864 53.7903 45.0382 54.065C48.476 59.3256 48.275 66.2549 44.5423 71.3077L44.1737 71.8036C43.9861 72.0717 43.6845 72.2258 43.3629 72.2258ZM44.3346 53.9176C44.3078 53.9176 44.2877 53.9176 44.2609 53.9243C44.0263 53.9511 43.8387 54.0985 43.7583 54.3197C42.8804 56.7657 41.004 63.3197 42.5788 71.3479C42.6391 71.6562 42.867 71.8907 43.1819 71.9645C43.4902 72.0315 43.8052 71.9176 43.9928 71.6629L44.3614 71.167C48.0337 66.1946 48.2281 59.3725 44.8439 54.1991C44.73 54.0181 44.5423 53.9176 44.3346 53.9176Z" fill="#10319B"/>
<path d="M43.048 69.7325C42.4784 69.7325 42.1031 69.585 42.0964 69.5783L42.1903 69.3572C42.2908 69.3974 44.7368 70.3624 46.5797 66.804L46.7941 66.9179C45.5611 69.2902 44.0197 69.7325 43.048 69.7325Z" fill="#10319B"/>
<path d="M42.4113 67.6157C42.1232 67.6157 41.9489 67.5621 41.9221 67.5554L41.9958 67.3275C42.0226 67.3342 44.8238 68.1317 47.2899 62.2144L47.5111 62.3082C45.5409 67.0327 43.3629 67.6157 42.4113 67.6157Z" fill="#10319B"/>
<path d="M91.7468 54.2795C92.7051 56.9466 94.4944 63.4135 92.933 71.3747C92.7788 72.1521 91.7736 72.3732 91.3045 71.7366L90.936 71.2407C87.2167 66.2012 87.0223 59.3792 90.4468 54.132C90.7751 53.6227 91.5391 53.7098 91.7468 54.2795Z" fill="#F89E1C"/>
<path d="M91.1035 55.0702C91.0968 55.0836 91.0901 55.0903 91.0834 55.1037C89.9106 57.1007 90.1452 59.6405 91.6329 61.4097C92.1221 61.9927 92.7185 62.5221 93.4222 62.8706C93.4155 59.2451 92.484 56.4439 91.9412 55.1305C91.7937 54.7753 91.2978 54.7418 91.1035 55.0702Z" fill="#F4B821"/>
<path d="M88.624 58.2468C87.411 62.6295 88.1951 67.4411 90.936 71.2408L91.2911 71.7367C91.3314 71.7971 91.385 71.844 91.4386 71.8909L92.6582 71.8239C92.7722 71.7032 92.8526 71.5558 92.8861 71.3749C93.0402 70.5707 93.1608 69.7866 93.2547 69.016C89.4215 67.3741 88.7312 61.2558 88.624 58.2468Z" fill="#F5851F"/>
<path d="M93.0269 67.4944C92.015 67.4944 89.8438 66.8644 87.9473 62.0528L88.1081 61.2419C90.5273 67.8897 93.4089 66.9716 93.4357 66.9649L93.5965 67.4206C93.563 67.4273 93.362 67.4944 93.0269 67.4944Z" fill="#F89E1C"/>
<path d="M93.2549 69.4718C93.2549 69.4718 90.7217 70.7182 88.7783 66.8381C88.7783 66.8381 90.3867 71.6564 92.1022 72.0451C92.1022 72.0451 93.2146 72.2931 93.2549 69.4718Z" fill="#032663"/>
<path d="M92.0285 72.2259C91.7068 72.2259 91.4052 72.0784 91.2042 71.8037L90.8356 71.3078C87.1029 66.2549 86.9086 59.3257 90.3397 54.0651C90.5207 53.7903 90.8289 53.6496 91.1506 53.6831C91.4723 53.7233 91.7403 53.931 91.8475 54.2393C92.7321 56.7054 94.6286 63.313 93.0337 71.3949C92.9533 71.797 92.6517 72.1052 92.2496 72.199C92.1826 72.2192 92.1089 72.2259 92.0285 72.2259ZM91.0568 53.9176C90.849 53.9176 90.6681 54.0182 90.5475 54.1924C87.1633 59.3659 87.3576 66.1879 91.03 71.1603L91.3985 71.6562C91.5862 71.9109 91.9011 72.0248 92.2094 71.9578C92.5177 71.8908 92.7455 71.6562 92.8125 71.3413C94.3941 63.313 92.511 56.759 91.6331 54.313C91.5527 54.0919 91.365 53.9444 91.1305 53.9176C91.1037 53.9176 91.0836 53.9176 91.0568 53.9176Z" fill="#10319B"/>
<path d="M92.3435 69.7328C91.3718 69.7328 89.8305 69.2905 88.5974 66.9115L88.8119 66.7976C90.6547 70.3628 93.1007 69.3978 93.2013 69.3508L93.2951 69.572C93.2884 69.5854 92.9131 69.7328 92.3435 69.7328Z" fill="#10319B"/>
<path d="M92.9801 67.6157C92.0285 67.6157 89.8506 67.0327 87.8804 62.3082L88.1015 62.2144C90.581 68.1518 93.3688 67.3342 93.3956 67.3275L93.4693 67.5554C93.4425 67.5621 93.2683 67.6157 92.9801 67.6157Z" fill="#10319B"/>
<path d="M66.2749 68.3056C65.7924 68.3056 65.3099 68.185 64.8609 67.9437C63.9093 67.4344 63.3263 66.4895 63.2928 65.4106L63.1119 59.3659C63.0783 58.287 63.6078 57.3086 64.5258 56.7457C65.4439 56.1761 66.5564 56.1492 67.5013 56.6586L72.8624 59.5469C73.7805 60.0428 74.3568 60.9542 74.4104 61.9929C74.464 63.0316 73.9882 64.0033 73.1304 64.5863C73.1036 64.6064 73.0768 64.6198 73.05 64.6399L73.0165 64.66L67.8363 67.8633C67.3538 68.1515 66.8177 68.3056 66.2749 68.3056ZM66.0873 56.7792C65.6316 56.7792 65.1826 56.9065 64.7738 57.1545C64.0098 57.6303 63.5675 58.4478 63.5944 59.3525L63.7753 65.3972C63.8021 66.3019 64.2913 67.0926 65.0888 67.5215C65.8795 67.9504 66.8177 67.9236 67.5817 67.4478L72.7887 64.2244C72.8155 64.211 72.8356 64.1909 72.8557 64.1775C73.5727 63.6883 73.9681 62.8775 73.9212 62.013C73.8743 61.1485 73.3918 60.3845 72.6278 59.969L67.2667 57.0807C66.8981 56.8797 66.4961 56.7792 66.0873 56.7792Z" fill="#F89E1C"/>
<path d="M72.8692 64.378C72.896 64.3646 72.9228 64.3445 72.9429 64.3311C74.5714 63.2187 74.4574 60.7593 72.7017 59.8144L67.4612 56.9864C65.6451 56.008 63.4604 57.3617 63.5208 59.4257L63.695 65.3296C63.7553 67.3869 66.0271 68.6066 67.7761 67.5277L72.8424 64.3981C72.8491 64.3914 72.8625 64.3847 72.8692 64.378Z" fill="#032663"/>
<path d="M70.6778 63.467C70.6912 63.4603 70.7046 63.4469 70.718 63.4402C71.6361 62.817 71.5691 61.4298 70.5773 60.8937L67.622 59.3054C66.5966 58.7559 65.3636 59.5199 65.4038 60.6792L65.5043 64.0098C65.5378 65.1692 66.8178 65.8594 67.8029 65.2496L70.6577 63.4871C70.6644 63.4804 70.6711 63.4737 70.6778 63.467Z" fill="#33FCFE"/>
<path d="M84.0672 54.7556C83.2496 55.6871 78.4849 58.0527 78.4849 58.0527C78.4849 58.0527 80.12 59.2791 80.1469 61.8725C80.167 63.8092 78.3375 65.5449 78.3375 65.5449C79.986 67.2269 79.3628 70.1956 78.1431 72.4473C76.9235 74.699 78.0024 75.3557 78.0024 75.3557C78.0024 75.3557 85.1327 64.7005 85.7559 58.7161C86.0106 56.2835 84.0672 54.7556 84.0672 54.7556Z" fill="#F4B821"/>
<path d="M51.8535 66.0272C51.8535 66.0272 53.7031 65.7189 54.6949 66.9721C55.6867 68.2252 61.5839 79.3428 64.3315 83.3168C64.8274 84.0338 66.1007 86.4932 67.5147 86.004C67.5147 86.004 65.5445 87.1232 62.6428 84.2014C59.7478 81.2728 53.5557 69.5521 51.8535 66.0272Z" fill="#0E51A0"/>
<path d="M48.7532 19.5766C50.0968 18.6293 51.7025 17.8231 53.4761 17.1513L53.3619 17.1782C53.3619 17.1782 59.0589 14.0273 67.5574 14.0273C76.029 14.0273 81.7932 17.0841 81.8268 17.1043C83.6541 17.7828 85.2934 18.6024 86.6706 19.5698C93.3014 24.239 92.7573 34.2692 89.8483 43.7217C87.7455 50.6011 77.7287 53.7318 67.7186 53.5772C57.7085 53.7318 47.6917 50.6011 45.5755 43.7217C42.6665 34.2759 42.1224 24.2457 48.7532 19.5766Z" fill="#F89E1C"/>
<path d="M48.7532 19.6094C49.4586 19.1123 50.2379 18.6554 51.071 18.2322C44.5745 22.9551 45.1254 32.9315 48.0142 42.337C50.1305 49.2298 60.1405 52.3605 70.1573 52.2127C75.8476 52.3 81.5379 51.3192 85.7838 49.1962C81.464 52.3404 74.5913 53.7915 67.7119 53.684C57.7018 53.8385 47.685 50.7011 45.5688 43.8083C42.6666 34.3424 42.1224 24.292 48.7532 19.6094Z" fill="#F5851F"/>
<path d="M51.8503 28.0208C47.7858 27.1743 47.5171 20.6979 47.5037 20.4158L47.9874 20.4023C47.9874 20.4628 48.2561 26.7779 51.9444 27.5438L51.8503 28.0208Z" fill="#F89E1C"/>
<path d="M82.7066 28.2692L82.5723 27.8057C86.6166 26.63 86.8517 20.0596 86.8517 19.9924L87.3355 20.0059C87.3287 20.288 87.0869 26.9995 82.7066 28.2692Z" fill="#F4B821"/>
<path d="M67.8596 19.7844C65.5821 19.7844 63.4659 19.0387 62.2298 17.7824C62.1895 17.7421 62.1492 17.7018 62.1088 17.6547L59.8918 15.1556L60.436 14.6719L62.653 17.1643C62.6799 17.1979 62.7135 17.2315 62.7471 17.2651C63.9496 18.4878 66.1129 19.1596 68.4038 19.0387C70.6275 18.9178 72.5623 18.0713 73.5768 16.7881L75.1623 14.7726L75.7333 15.2228L74.1478 17.2382C73.0124 18.6893 70.8761 19.6299 68.4441 19.7643C68.2425 19.7777 68.0544 19.7844 67.8596 19.7844Z" fill="#F4B821"/>
<path d="M67.8463 22.4112C64.8298 22.4112 62.0955 21.3968 60.3555 19.6232C60.295 19.5627 60.2279 19.4955 60.1674 19.4283L60.1002 19.3544L57.0569 15.9349L57.6011 15.4512L60.7049 18.9446C60.7586 19.0051 60.8123 19.0656 60.8728 19.1193C62.4785 20.7451 65.0246 21.6856 67.8463 21.6856C68.0747 21.6856 68.3098 21.6789 68.545 21.6655C71.5547 21.4975 74.1412 20.3151 75.6326 18.4139L77.8967 15.5318L78.4677 15.9819L76.2037 18.864C74.5846 20.9265 71.8033 22.2097 68.5853 22.391C68.3434 22.4045 68.0948 22.4112 67.8463 22.4112Z" fill="#F4B821"/>
<path d="M86.2945 21.3434C84.9173 20.3693 83.2781 19.5362 81.4507 18.8577C81.4104 18.8376 75.6328 15.3172 67.1611 15.3172C61.5851 15.3105 56.7144 16.2443 54.0137 16.8826C55.7268 16.0764 60.7386 14.0273 67.5642 14.0273C76.0359 14.0273 81.8001 17.111 81.8336 17.1311C83.661 17.8164 85.3002 18.6427 86.6775 19.6169C92.5894 23.8157 92.7977 32.3142 90.7084 40.8597C92.361 32.9189 91.8101 25.2601 86.2945 21.3434Z" fill="#F4B821"/>
<path d="M83.1032 27.9403L83.0562 27.7052C86.8452 26.9192 87.255 20.1741 87.2617 20.1069L87.5036 20.1204C87.4834 20.4025 87.0736 27.114 83.1032 27.9403Z" fill="#10319B"/>
<path d="M75.915 18.6154L78.179 15.7333C77.3863 15.478 76.4659 15.216 75.438 14.9742L73.8525 16.9896C72.7776 18.3601 70.742 19.2469 68.4175 19.3813C66.0258 19.5157 63.7551 18.7968 62.4854 17.5002C62.4451 17.4599 62.4115 17.4263 62.3779 17.386L60.1609 14.8936C59.1061 15.1287 58.1589 15.3974 57.3325 15.6594L60.3759 19.079L60.443 19.1529C60.5035 19.2133 60.5572 19.2805 60.6177 19.341C62.2905 21.0407 64.9509 22.0148 67.8465 22.0148C68.0816 22.0148 68.3235 22.0081 68.5653 21.9947C71.6758 21.8334 74.3564 20.5973 75.915 18.6154Z" fill="#032663"/>
<path d="M52.2466 27.9405C48.2762 27.1142 47.8395 20.4699 47.8193 20.1878L48.0612 20.1743C48.0679 20.2415 48.5046 26.9194 52.2936 27.7054L52.2466 27.9405Z" fill="#10319B"/>
<path d="M67.6651 53.4892C62.7138 53.5631 57.7692 52.8779 53.6711 51.373C52.7171 50.3518 51.958 49.0351 51.5146 47.5033C50.3792 43.5732 49.1028 38.0777 48.6123 31.9037C48.3705 28.8671 50.0836 26.1126 52.5425 25.5214C55.8948 24.7153 61.0678 23.7814 67.2082 23.6874V23.6807C67.3829 23.6807 67.5509 23.6874 67.7255 23.6874C67.9002 23.6874 68.0682 23.6807 68.2428 23.6807V23.6874C74.3833 23.7814 79.4353 24.5607 82.7877 25.3669C85.2465 25.9581 87.0806 28.8671 86.8388 31.9037C86.3483 38.0777 85.0719 43.5732 83.9365 47.5033C83.4998 49.0015 82.7675 50.2914 81.8404 51.3125C77.6953 52.8577 72.6768 53.5631 67.6651 53.4892Z" fill="#032663"/>
<path d="M84.7627 49.7811L83.7886 50.3118C83.97 49.7744 84.2723 48.8674 84.4738 48.2292C85.0113 46.5497 85.6226 44.6417 86.1668 43.3652C87.0469 41.3028 89.4923 39.7442 91.0979 38.9648L90.8225 40.0196C89.3244 40.7519 87.6247 41.7932 86.8319 43.6541C86.3012 44.9037 85.6965 46.7915 85.1591 48.4576C84.9643 49.0891 84.9441 49.2437 84.7627 49.7811Z" fill="#F4B821"/>
<path d="M50.9702 49.9359C50.9165 49.9359 50.8695 49.9023 50.856 49.8553C50.6948 49.3783 50.5268 48.8543 50.3522 48.3236C49.8281 46.7045 49.2302 44.8637 48.6726 43.5537C47.8597 41.6524 46.113 40.5977 44.5073 39.8116C44.4469 39.7848 44.42 39.7109 44.4536 39.6504C44.4805 39.5899 44.5544 39.5631 44.6148 39.5967C46.2608 40.3961 48.0545 41.4845 48.901 43.4596C49.4654 44.7831 50.0633 46.6239 50.5873 48.2497C50.762 48.7804 50.9299 49.2977 51.0844 49.7814C51.1046 49.8419 51.071 49.9158 51.0105 49.9359C50.9971 49.9359 50.9837 49.9359 50.9702 49.9359Z" fill="#F89E1C"/>
<path d="M90.9033 39.9861C90.6144 41.2357 90.2785 42.492 89.8955 43.7348C89.1095 46.3012 87.2486 48.3435 84.7024 49.9021C85.3608 47.9337 85.9117 45.7368 86.6507 43.9968C87.5307 41.9478 89.4857 40.6713 90.9033 39.9861Z" fill="#032663"/>
<path d="M89.1765 43.8897C89.4452 43.1641 89.6938 42.4386 89.9289 41.7063C89.1765 42.19 88.4039 42.8887 87.9336 43.8628C87.4298 44.8974 86.9864 46.1739 86.5295 47.3899C87.7254 46.4695 88.6458 45.3072 89.1765 43.8897Z" fill="#0E51A0"/>
<path d="M84.8568 49.8887L84.6284 49.8148C84.8568 49.1362 85.0718 48.4174 85.2801 47.7254C85.6765 46.4086 86.093 45.0516 86.5767 43.9028C87.4501 41.847 89.405 40.5571 90.883 39.8315L90.9905 40.0465C89.5461 40.7519 87.6516 42.0015 86.7984 43.9901C86.3147 45.1255 85.9049 46.4758 85.5085 47.7859C85.3002 48.4913 85.0853 49.2101 84.8568 49.8887Z" fill="#10319B"/>
<path d="M44.5073 39.9861C44.7962 41.2357 45.1321 42.492 45.5151 43.7348C46.3011 46.3012 48.162 48.3435 50.7082 49.9021C50.0498 47.9337 49.4989 45.7368 48.7599 43.9968C47.8866 41.9478 45.9249 40.6713 44.5073 39.9861Z" fill="#032663"/>
<path d="M68.3769 53.6848C68.1552 53.6848 67.9335 53.6848 67.7185 53.6781C58.8976 53.8125 47.7857 51.2931 45.4612 43.7486C43.3786 36.9901 41.034 24.8571 48.686 19.4691L48.7531 19.5699L48.686 19.4691C50.0229 18.5286 53.2678 17.0976 53.4088 17.0372C53.4559 17.0103 59.1327 13.9065 67.564 13.9065C76.0222 13.9065 81.8334 16.9633 81.8939 16.9969C83.7683 17.6888 85.4075 18.5219 86.7511 19.4691C94.4031 24.8571 92.0585 36.9901 89.9759 43.7419C87.7051 51.105 77.077 53.6848 68.3769 53.6848ZM67.7118 53.4362C67.9268 53.4362 68.1485 53.443 68.3702 53.443C76.9896 53.443 87.5103 50.9102 89.7407 43.6747C91.8032 36.9834 94.1344 24.9713 86.6101 19.6707C85.2799 18.7369 83.6608 17.9105 81.7931 17.2186C81.7192 17.1782 75.955 14.1551 67.564 14.1551C59.1999 14.1551 53.5701 17.2253 53.5163 17.2589C53.476 17.279 50.1505 18.7436 48.827 19.6707C41.296 24.9646 43.6339 36.9834 45.6897 43.6747C47.9738 51.0916 58.9849 53.5706 67.7118 53.4362Z" fill="#10319B"/>
<path d="M67.7187 52.4281C63.4728 52.4886 59.2336 51.9578 55.6192 50.7956C55.0616 50.6142 54.5577 50.2783 54.2084 49.808C53.6105 49.0153 53.1402 48.0814 52.8245 47.0401C51.7764 43.5064 50.6007 38.5551 50.1506 32.9991C49.9289 30.2648 51.5077 27.7858 53.7717 27.2551C56.8621 26.5295 61.632 25.6898 67.2954 25.6024V25.5957C67.4566 25.5957 67.6112 25.5957 67.7724 25.6024C67.9336 25.6024 68.0882 25.5957 68.2494 25.5957V25.6024C73.9128 25.6898 78.676 26.5295 81.7731 27.2551C84.0438 27.7858 85.6159 30.2648 85.3942 32.9991C84.9373 38.5551 83.7684 43.5064 82.7203 47.0401C82.4113 48.0747 81.9478 48.9951 81.3566 49.7811C81.0206 50.2313 80.5504 50.5537 80.0196 50.7284C76.3515 51.9444 72.0384 52.4953 67.7187 52.4281Z" fill="#FCE8CA"/>
<path fill-rule="evenodd" clip-rule="evenodd" d="M57.5362 39.2752C57.7002 39.0693 58 39.0353 58.2059 39.1992C58.9845 39.8193 61.1269 41.1642 63.3653 41.5355C63.5973 41.574 63.7666 41.776 63.7639 42.0112C63.7611 42.2464 63.5873 42.4444 63.3544 42.4775C62.8041 42.5558 61.8715 42.734 60.8865 43.0119C59.895 43.2916 58.8863 43.6624 58.1608 44.1138C57.9373 44.2529 57.6434 44.1844 57.5044 43.961C57.3653 43.7375 57.4338 43.4436 57.6572 43.3046C58.4963 42.7825 59.6064 42.3827 60.6277 42.0946C60.8309 42.0372 61.0321 41.9839 61.2286 41.9347C59.5924 41.3245 58.2268 40.4344 57.6121 39.9448C57.4062 39.7809 57.3722 39.481 57.5362 39.2752Z" fill="#0E51A0"/>
<path d="M61.2499 36.822C61.284 36.8278 61.3219 36.846 61.3522 36.8746C61.7957 37.2603 62.3786 37.4122 62.9558 37.288C63.083 37.2629 63.2041 37.342 63.2302 37.4635C63.2554 37.5907 63.1763 37.7119 63.0547 37.738C62.338 37.8911 61.6092 37.7026 61.0531 37.2217C60.9566 37.135 60.9457 36.9927 61.0324 36.8962C61.0791 36.8281 61.1655 36.8018 61.2499 36.822Z" fill="#032663"/>
<path fill-rule="evenodd" clip-rule="evenodd" d="M77.7355 39.2752C77.5716 39.0693 77.2717 39.0353 77.0658 39.1992C76.2872 39.8193 74.1448 41.1642 71.9064 41.5355C71.6744 41.574 71.5051 41.776 71.5079 42.0112C71.5106 42.2464 71.6845 42.4444 71.9173 42.4775C72.4677 42.5558 73.4002 42.734 74.3853 43.0119C75.3768 43.2916 76.3855 43.6624 77.111 44.1138C77.3344 44.2529 77.6283 44.1844 77.7674 43.961C77.9064 43.7375 77.838 43.4436 77.6145 43.3046C76.7754 42.7825 75.6654 42.3827 74.6441 42.0946C74.4408 42.0372 74.2397 41.9839 74.0432 41.9347C75.6793 41.3245 77.0449 40.4344 77.6596 39.9448C77.8655 39.7809 77.8995 39.481 77.7355 39.2752Z" fill="#0E51A0"/>
<path d="M74.0218 36.822C73.9877 36.8278 73.9498 36.846 73.9196 36.8746C73.476 37.2603 72.8932 37.4122 72.316 37.288C72.1888 37.2629 72.0676 37.342 72.0415 37.4635C72.0163 37.5907 72.0955 37.7119 72.217 37.738C72.9337 37.8911 73.6625 37.7026 74.2187 37.2217C74.3151 37.135 74.326 36.9927 74.2393 36.8962C74.1926 36.8281 74.1062 36.8018 74.0218 36.822Z" fill="#032663"/>
<path d="M64.7741 50.1252C64.7256 50.123 64.6771 50.1208 64.6267 50.1082C64.2695 50.0259 64.0422 49.6684 64.1193 49.311C64.5093 47.4914 65.9761 46.3153 67.8553 46.3128C69.686 46.308 71.3061 47.5704 71.7115 49.3039C71.7954 49.6652 71.5738 50.021 71.2148 50.1002C70.8559 50.1794 70.4982 49.9522 70.4143 49.5909C70.1895 48.6206 69.2424 47.6429 67.8699 47.6423C66.6098 47.6434 65.6668 48.3946 65.4081 49.6056C65.3439 49.9177 65.0785 50.1255 64.7741 50.1252Z" fill="#0E51A0"/>
<path d="M66.9127 53.5433C62.0151 53.5433 57.4333 52.811 53.6241 51.4136L53.5972 51.4069L53.5771 51.3867C52.5828 50.3185 51.8303 48.9615 51.3937 47.4633C50.3523 43.8489 48.9953 38.199 48.4847 31.81C48.2361 28.6995 49.9627 25.898 52.5089 25.2866C55.9284 24.467 71.1115 22.0619 82.9288 25.2866C85.4615 25.9786 87.1881 28.7801 86.9463 31.81C86.4357 38.199 85.0853 43.8489 84.0373 47.4633C83.614 48.9346 82.875 50.2715 81.9143 51.3263L81.8942 51.3464L81.8673 51.3599C77.8902 52.8513 72.8448 53.6306 67.6584 53.55C67.4098 53.5433 67.1612 53.5433 66.9127 53.5433ZM67.6651 53.2947C72.8112 53.3753 77.8095 52.6027 81.7598 51.1314C82.6869 50.1036 83.3991 48.8137 83.8089 47.3894C84.8502 43.7885 86.2005 38.1519 86.7044 31.7831C86.9395 28.8674 85.2869 26.1734 82.8616 25.515C71.0914 22.3037 55.9687 24.7021 52.5626 25.515C50.1374 26.0995 48.4847 28.7935 48.7266 31.7831C49.2371 38.1519 50.5808 43.7885 51.6221 47.3894C52.0453 48.8473 52.7709 50.164 53.7316 51.1986C57.6483 52.6229 62.5929 53.3753 67.6651 53.2947Z" fill="#10319B"/>
<path d="M50.6006 49.8082C50.3789 49.1498 50.1706 48.4645 49.9691 47.7994C49.5727 46.4961 49.1562 45.1525 48.6658 43.9969C47.8193 42.0083 45.918 40.752 44.4736 40.0534L44.5811 39.8384C46.0591 40.5572 48.0074 41.8471 48.8875 43.9096C49.3846 45.0718 49.8011 46.4289 50.1975 47.7322C50.3991 48.3973 50.6073 49.0826 50.829 49.7343L50.6006 49.8082Z" fill="#10319B"/>
<path d="M87.3491 39.932L90.4596 38.1181C90.4596 38.1181 91.3464 29.1829 88.4576 25.1184L87.6246 27.678C87.6246 27.678 88.9615 29.6196 87.3491 39.932Z" fill="#F4B821"/>
</g>
</g>
</svg>
