<svg width="100" height="100" viewBox="0 0 100 100" fill="none" xmlns="http://www.w3.org/2000/svg">
<mask id="mask0_6924_50561" style="mask-type:alpha" maskUnits="userSpaceOnUse" x="0" y="0" width="100" height="100">
<rect width="100" height="100" fill="#D9D9D9"/>
</mask>
<g mask="url(#mask0_6924_50561)">
<path d="M74.6335 65.5303C77.5672 57.0893 71.2518 48.297 62.319 48.4376L58.8583 48.4903C58.8319 48.4903 58.8144 48.4903 58.788 48.4903L50.1626 48.6308L41.5372 48.4903C41.5109 48.4903 41.4933 48.4903 41.4669 48.4903L38.0062 48.4376C29.0734 48.297 22.7581 57.0893 25.6918 65.5303C26.6492 68.2883 27.6768 70.8531 28.7484 73.2334C29.3281 74.63 30.0747 76.1671 30.9092 77.7569C34.5455 84.8891 38.3839 90.2647 41.3264 94.6652C41.4406 94.8321 41.5636 94.999 41.6865 95.1571C43.6365 97.9766 46.8864 99.3204 50.1714 99.2765C53.4476 99.3292 56.7063 97.9766 58.6563 95.1571C58.7792 94.999 58.9022 94.8321 59.0164 94.6652C61.9589 90.2647 65.7973 84.8891 69.4336 77.7569C70.2681 76.1671 71.0147 74.6388 71.5944 73.2334C72.6484 70.8443 73.6761 68.2883 74.6335 65.5303Z" fill="#F89E1C"/>
<path d="M59.5693 82.6495C62.0024 77.9415 57.1802 74.7092 51.8223 77.8098C45.4367 81.4988 41.6597 79.8387 37.3997 72.7768C33.939 67.0324 28.8797 68.5168 27.1055 69.2722C27.6588 70.6688 28.221 72.0214 28.8007 73.3126C29.3804 74.7092 30.127 76.2463 30.9614 77.8361C34.5978 84.9683 38.4362 90.3438 41.3787 94.7444C41.4929 94.9113 41.6158 95.0781 41.7388 95.2362C43.6887 98.0557 46.9386 99.3996 50.2237 99.3557C53.4999 99.4084 56.7586 98.0557 58.7085 95.2362C58.8315 95.0781 58.9545 94.9113 59.0687 94.7444C60.0261 93.3039 61.0889 91.7668 62.1956 90.0891C59.6484 89.6763 57.2153 87.1993 59.5693 82.6495Z" fill="#032663"/>
<path d="M50.003 99.5054C46.5335 99.5054 43.389 97.9507 41.5708 95.3157C41.4478 95.1576 41.3248 94.9907 41.2107 94.815C40.7891 94.1826 40.3411 93.5238 39.8843 92.8475C37.2142 88.9037 33.9028 84.0025 30.7846 77.8892C29.8975 76.2028 29.1685 74.6744 28.6151 73.3569C28.0266 72.0482 27.4557 70.6867 26.9199 69.3165L26.8672 69.176L27.0077 69.1145C29.0016 68.2625 34.017 66.9098 37.4952 72.6894C41.8519 79.9182 45.5673 81.2181 51.707 77.6696C54.9744 75.7812 57.8466 76.2818 59.2432 77.6169C60.5256 78.8466 60.6925 80.7526 59.6736 82.7201C58.6459 84.714 58.4615 86.4795 59.1466 87.8321C59.6999 88.9213 60.833 89.703 62.1769 89.9226L62.4228 89.9577L62.2823 90.1598C61.6587 91.0996 61.0526 91.9955 60.4641 92.8563C60.0074 93.5326 59.5682 94.1826 59.1466 94.8062C59.0324 94.9819 58.9094 95.1488 58.7865 95.3069C56.9419 97.9771 53.7359 99.5493 50.1786 99.4878C50.1171 99.5054 50.0557 99.5054 50.003 99.5054ZM50.1786 99.1892C53.6305 99.2419 56.7399 97.7311 58.5317 95.14C58.6547 94.9731 58.7777 94.815 58.8831 94.6481C59.3047 94.0157 59.7439 93.3657 60.2006 92.6894C60.7452 91.8901 61.2985 91.0557 61.8783 90.1949C60.5344 89.9138 59.4189 89.0969 58.8567 87.9814C58.3473 86.9713 58.0223 85.2146 59.3925 82.5796L59.5331 82.6499L59.3925 82.5796C60.3411 80.7438 60.2094 78.9783 59.0236 77.8541C57.7061 76.598 54.9832 76.1413 51.8651 77.9507C45.6112 81.5695 41.6411 80.1905 37.2229 72.865C33.9467 67.4368 29.2739 68.5435 27.2712 69.3604C27.7895 70.6779 28.3428 71.9867 28.905 73.2515C29.4495 74.569 30.1786 76.0798 31.0657 77.7662C34.1751 83.862 37.4865 88.7544 40.1479 92.6894C40.6046 93.3657 41.0526 94.0245 41.4742 94.6569C41.5883 94.8238 41.7025 94.9819 41.8255 95.1488C43.6173 97.7311 46.7443 99.2507 50.1786 99.1892Z" fill="#10319B"/>
<path d="M50.328 99.5046C50.2665 99.5046 50.2138 99.5046 50.1523 99.5046C46.6213 99.5573 43.389 97.9939 41.5444 95.3149C41.4215 95.1568 41.2985 94.9899 41.1843 94.8142C40.7627 94.1818 40.3148 93.5231 39.858 92.8467C37.1878 88.9029 33.8764 84.0018 30.7583 77.8884C29.8712 76.202 29.1421 74.6737 28.5888 73.3561C27.4645 70.8353 26.4368 68.2441 25.5321 65.6442C24.1092 61.5599 24.7504 57.2033 27.28 53.7074C29.8009 50.2291 33.7008 48.2792 38.0047 48.3407L41.4566 48.3934H41.5269L50.1523 48.5339L58.7777 48.3934H58.8216L62.3087 48.3407C66.6126 48.2704 70.5125 50.2291 73.0333 53.7074C75.563 57.2033 76.2042 61.5599 74.7812 65.6442C73.8765 68.2441 72.8489 70.8441 71.7246 73.3649C71.18 74.6824 70.451 76.2108 69.5551 77.8972C66.4369 84.0017 63.1167 88.9117 60.4553 92.8555C59.9986 93.5319 59.5506 94.1906 59.129 94.823C59.0148 94.9987 58.8919 95.1656 58.7689 95.3237C56.9507 97.95 53.8062 99.5046 50.328 99.5046ZM50.1523 99.1884C53.6042 99.2411 56.7136 97.7304 58.5054 95.1392C58.6284 94.9724 58.7513 94.8142 58.8567 94.6474C59.2784 94.0149 59.7263 93.3562 60.1831 92.6799C62.8445 88.7448 66.1558 83.8436 69.2652 77.7567C70.1523 76.079 70.8726 74.5595 71.4259 73.2507C72.5502 70.7386 73.5779 68.1475 74.4738 65.5564C75.8616 61.5687 75.238 57.3174 72.7698 53.9094C70.3104 50.519 66.4896 48.613 62.3087 48.6745L58.8567 48.7272H58.8128L50.1611 48.8677L41.5269 48.7272H41.4566L37.9959 48.6745C33.815 48.613 29.9941 50.519 27.5347 53.9094C25.0666 57.3262 24.4429 61.5687 25.8307 65.5564C26.7267 68.1475 27.7543 70.7386 28.8786 73.2507C29.4232 74.5683 30.1522 76.079 31.0394 77.7655C34.1487 83.8612 37.4601 88.7536 40.1215 92.6886C40.5783 93.365 41.0262 94.0237 41.4478 94.6562C41.562 94.823 41.6762 94.9811 41.7992 95.148C43.5998 97.7304 46.7267 99.2499 50.1523 99.1884Z" fill="#10319B"/>
<path d="M70.4871 53.1106C68.2648 51.1871 65.4366 50.0276 62.2745 50.0891L58.805 50.1506C58.7786 50.1506 58.7611 50.1506 58.7347 50.1506L50.0654 50.2999L41.3961 50.1506C41.3697 50.1506 41.3522 50.1506 41.3258 50.1506L37.8563 50.0891C33.043 50.0101 30.4255 53.4708 28.1593 57.4321C27.6499 58.3281 28.1505 59.4875 29.1255 59.6807C37.3381 61.3057 56.0206 63.1238 70.4871 53.1106Z" fill="#E26907"/>
<path d="M47.903 76.2812C47.0774 76.2812 46.243 76.0791 45.4788 75.6663C43.8539 74.788 42.8525 73.163 42.791 71.3185L42.4748 60.7431C42.4221 58.8986 43.3268 57.2121 44.8991 56.246C46.4713 55.271 48.3774 55.2183 50.0023 56.0966L59.3919 61.1472C60.9641 61.9904 61.9567 63.5538 62.0533 65.3369C62.1499 67.12 61.3243 68.78 59.8574 69.7814C59.8135 69.8165 59.7608 69.8428 59.7169 69.878L59.6554 69.9131L50.5908 75.517C49.7564 76.0176 48.8253 76.2812 47.903 76.2812ZM47.5781 56.1054C46.77 56.1054 45.9531 56.3338 45.2241 56.7818C43.8451 57.6338 43.0546 59.1094 43.1073 60.7256L43.4235 71.3009C43.4762 72.9171 44.3545 74.34 45.7774 75.1042C47.2004 75.8683 48.878 75.8244 50.2482 74.9724L59.3743 69.3334C59.4182 69.307 59.4621 69.2807 59.4973 69.2543C60.7797 68.376 61.4999 66.9267 61.4121 65.3632C61.333 63.8086 60.4635 62.4383 59.0845 61.7005L49.6949 56.65C49.0273 56.2811 48.2983 56.1054 47.5781 56.1054Z" fill="#F89E1C"/>
<path d="M47.8601 76.361C47.0433 76.361 46.2176 76.159 45.4534 75.7462C43.8373 74.8766 42.8447 73.2692 42.792 71.4335L42.467 60.5946C42.4143 58.7676 43.3103 57.0988 44.8649 56.1326C46.4196 55.1664 48.3169 55.1137 49.933 55.9833L59.551 61.1655C61.1057 62 62.0894 63.5546 62.186 65.3201C62.2826 67.0856 61.4658 68.7369 60.0165 69.7295C59.9726 69.7646 59.9199 69.7909 59.876 69.8261L59.8145 69.8612L50.5215 75.6056C49.6959 76.1063 48.7824 76.361 47.8601 76.361ZM47.5263 55.6934C46.6656 55.6934 45.8048 55.9306 45.0318 56.4137C43.5738 57.3184 42.7305 58.8818 42.7833 60.5946L43.1082 71.4335C43.1609 73.1462 44.092 74.657 45.6028 75.4739C47.1135 76.2907 48.8878 76.238 50.3546 75.3333L59.7003 69.5538C59.7442 69.5274 59.7881 69.4923 59.832 69.466C61.1935 68.5349 61.9576 66.9978 61.8698 65.3377C61.782 63.6864 60.8597 62.2283 59.4016 61.4466L49.7837 56.2643C49.0722 55.8866 48.2993 55.6934 47.5263 55.6934Z" fill="#10319B"/>
<path d="M48.4915 73.8483C47.8591 73.8483 47.2267 73.6902 46.6382 73.374C45.391 72.7065 44.6268 71.468 44.5829 70.0539L44.3457 62.1311C44.3018 60.717 44.9957 59.4346 46.199 58.6968C47.4024 57.9502 48.8604 57.9151 50.0989 58.5826L57.1257 62.3683C58.3291 63.0183 59.0844 64.2128 59.1547 65.5743C59.225 66.9357 58.6014 68.2093 57.4771 68.9735C57.4419 68.9998 57.4068 69.0174 57.3717 69.0438L57.3277 69.0701L50.5381 73.2686C49.9057 73.6463 49.203 73.8483 48.4915 73.8483ZM48.2456 58.7407C47.6483 58.7407 47.0598 58.9076 46.524 59.2326C45.5227 59.8562 44.943 60.9278 44.9781 62.1136L45.2153 70.0363C45.2504 71.2221 45.8916 72.2585 46.9369 72.8207C47.9733 73.3828 49.203 73.3477 50.2043 72.724L57.0291 68.4992C57.0642 68.4816 57.0906 68.4553 57.1169 68.4377C58.0568 67.7965 58.575 66.7337 58.5135 65.6006C58.452 64.4676 57.8196 63.4662 56.8183 62.9217L49.7915 59.136C49.3084 58.8725 48.7814 58.7407 48.2456 58.7407Z" fill="#F89E1C"/>
<path d="M57.1335 68.7012C57.1686 68.6836 57.2038 68.6572 57.2301 68.6397C59.3645 67.1816 59.2152 63.9581 56.9139 62.7196L50.0452 59.0129C47.6649 57.7305 44.8015 59.5048 44.8805 62.2101L45.1089 69.9484C45.1879 72.6449 48.1655 74.2435 50.458 72.8294L57.0984 68.7275C57.1072 68.7187 57.1247 68.7099 57.1335 68.7012Z" fill="#032663"/>
<path d="M54.2615 67.507C54.2791 67.4982 54.2967 67.4806 54.3142 67.4718C55.5176 66.655 55.4297 64.8368 54.1298 64.1341L50.2563 62.0524C48.9124 61.3321 47.2962 62.3335 47.3489 63.853L47.4807 68.2184C47.5246 69.738 49.2022 70.6427 50.4934 69.8434L54.2352 67.5333C54.244 67.5245 54.2528 67.5157 54.2615 67.507Z" fill="#33FCFE"/>
<path d="M71.8115 56.0883C70.7399 57.3092 64.4948 60.4097 64.4948 60.4097C64.4948 60.4097 66.638 62.0171 66.6731 65.4163C66.6995 67.9548 64.3016 70.2297 64.3016 70.2297C66.4623 72.4344 65.6454 76.3255 64.0468 79.2767C62.4482 82.228 63.8624 83.0888 63.8624 83.0888C63.8624 83.0888 73.208 69.123 74.0249 61.2793C74.3587 58.0909 71.8115 56.0883 71.8115 56.0883Z" fill="#F4B821"/>
<path d="M29.5898 70.8618C29.5898 70.8618 32.0141 70.4578 33.3141 72.1003C34.614 73.7428 42.3435 88.3146 45.9447 93.5233C46.5947 94.4631 48.2636 97.6866 50.1169 97.0454C50.1169 97.0454 47.5346 98.5123 43.7313 94.6827C39.9368 90.8443 31.8209 75.4819 29.5898 70.8618Z" fill="#0E51A0"/>
<path d="M25.2516 9.92107C27.0212 8.67349 29.1359 7.61172 31.4718 6.72691L31.3214 6.7623C31.3214 6.7623 38.8246 2.61255 50.0174 2.61255C61.1748 2.61255 68.7665 6.63843 68.8107 6.66497C71.2174 7.55863 73.3763 8.63809 75.1902 9.91222C83.9233 16.0616 83.2066 29.2718 79.3753 41.7211C76.6059 50.7815 63.4134 54.9047 50.2297 54.7012C37.0461 54.9047 23.8536 50.7815 21.0665 41.7211C17.2352 29.2807 16.5186 16.0705 25.2516 9.92107Z" fill="#F89E1C"/>
<path d="M25.2533 9.96645C26.1823 9.31169 27.2087 8.71002 28.3059 8.15259C19.7498 14.3728 20.4753 27.5122 24.28 39.8995C27.0671 48.9777 40.2508 53.1009 53.4433 52.9062C60.9376 53.0212 68.4319 51.7294 74.0239 48.9334C68.3346 53.0743 59.283 54.9855 50.2226 54.8439C37.0389 55.0474 23.8464 50.9154 21.0593 41.8372C17.2369 29.3703 16.5202 16.1336 25.2533 9.96645Z" fill="#F5851F"/>
<path d="M29.3302 21.0448C23.9771 19.93 23.6232 11.4004 23.6055 11.0288L24.2425 11.0111C24.2425 11.0907 24.5965 19.4079 29.4541 20.4166L29.3302 21.0448Z" fill="#F89E1C"/>
<path d="M69.9699 21.3712L69.793 20.7607C75.1195 19.2122 75.4292 10.5588 75.4292 10.4703L76.0663 10.488C76.0574 10.8597 75.7389 19.6989 69.9699 21.3712Z" fill="#F4B821"/>
<path d="M50.4157 10.1965C47.4162 10.1965 44.6291 9.21439 43.001 7.5598C42.9479 7.50671 42.8948 7.45362 42.8417 7.39168L39.9219 4.1002L40.6386 3.46313L43.5584 6.74577C43.5938 6.79001 43.6381 6.83426 43.6823 6.8785C45.2661 8.48885 48.1152 9.37366 51.1324 9.21439C54.0611 9.05512 56.6094 7.94027 57.9454 6.25028L60.0336 3.59586L60.7857 4.18868L58.6975 6.8431C57.2022 8.75429 54.3885 9.99302 51.1855 10.17C50.92 10.1877 50.6723 10.1965 50.4157 10.1965Z" fill="#F4B821"/>
<path d="M50.3975 13.6554C46.4247 13.6554 42.8236 12.3193 40.5319 9.98343C40.4523 9.9038 40.3638 9.81532 40.2842 9.72684L40.1957 9.62951L36.1875 5.12583L36.9042 4.48877L40.992 9.08977C41.0628 9.16941 41.1336 9.24904 41.2132 9.31982C43.3279 11.4611 46.6813 12.6998 50.3975 12.6998C50.6984 12.6998 51.008 12.6909 51.3177 12.6732C55.2817 12.452 58.6882 10.8948 60.6525 8.39077L63.6343 4.59495L64.3863 5.18777L61.4045 8.9836C59.2722 11.7 55.609 13.3899 51.3708 13.6288C51.0523 13.6465 50.7249 13.6554 50.3975 13.6554Z" fill="#F4B821"/>
<path d="M74.6947 12.2481C72.8809 10.9651 70.7219 9.86798 68.3153 8.97432C68.2622 8.94778 60.6528 4.31138 49.4954 4.31138C42.1515 4.30253 35.7366 5.53242 32.1797 6.37298C34.4359 5.31121 41.0366 2.61255 50.0263 2.61255C61.1837 2.61255 68.7754 6.67382 68.8196 6.70036C71.2263 7.60287 73.3852 8.69118 75.1991 9.97415C82.9854 15.5042 83.2597 26.697 80.5079 37.9518C82.6846 27.4934 81.959 17.4065 74.6947 12.2481Z" fill="#F4B821"/>
<path d="M70.4916 20.9375L70.4297 20.6278C75.42 19.5926 75.9597 10.7091 75.9686 10.6206L76.2871 10.6383C76.2606 11.0099 75.7208 19.8492 70.4916 20.9375Z" fill="#10319B"/>
<path d="M61.0246 8.65733L64.0064 4.8615C62.9623 4.52528 61.7501 4.1802 60.3964 3.86167L58.3082 6.5161C56.8925 8.3211 54.2116 9.48905 51.1501 9.66601C48.0002 9.84298 45.0096 8.89623 43.3373 7.18855C43.2842 7.13546 43.2399 7.09122 43.1957 7.03813L40.2758 3.75549C38.8867 4.06518 37.6391 4.4191 36.5508 4.76417L40.559 9.26785L40.6474 9.36518C40.7271 9.44481 40.7979 9.53329 40.8775 9.61293C43.0807 11.8515 46.5845 13.1345 50.398 13.1345C50.7077 13.1345 51.0262 13.1256 51.3448 13.1079C55.4414 12.8956 58.9718 11.2675 61.0246 8.65733Z" fill="#032663"/>
<path d="M29.8543 20.9383C24.6251 19.85 24.05 11.0993 24.0234 10.7277L24.342 10.71C24.3508 10.7984 24.9259 19.5934 29.9163 20.6287L29.8543 20.9383Z" fill="#10319B"/>
<path d="M50.1583 54.5877C43.6372 54.685 37.125 53.7825 31.7277 51.8005C30.4713 50.4556 29.4714 48.7214 28.8875 46.704C27.3921 41.5279 25.711 34.2902 25.0651 26.1588C24.7466 22.1595 27.0028 18.5317 30.2412 17.7531C34.6564 16.6913 41.4694 15.4615 49.5566 15.3376V15.3287C49.7866 15.3287 50.0078 15.3376 50.2379 15.3376C50.4679 15.3376 50.6892 15.3287 50.9192 15.3287V15.3376C59.0064 15.4615 65.6601 16.4878 70.0753 17.5496C73.3137 18.3282 75.7292 22.1595 75.4107 26.1588C74.7648 34.2902 73.0837 41.5279 71.5883 46.704C71.0132 48.6772 70.0488 50.376 68.8277 51.7209C63.3685 53.756 56.7589 54.685 50.1583 54.5877Z" fill="#032663"/>
<path d="M72.6775 49.7029L71.3945 50.4019C71.6334 49.6941 72.0316 48.4996 72.297 47.659C73.0049 45.447 73.8101 42.9342 74.5268 41.253C75.6859 38.5367 78.9066 36.4839 81.0212 35.4575L80.6585 36.8467C78.6854 37.8111 76.4468 39.1826 75.4027 41.6335C74.7037 43.2792 73.9074 45.7655 73.1995 47.9599C72.9429 48.7916 72.9164 48.9951 72.6775 49.7029Z" fill="#F4B821"/>
<path d="M28.1722 49.9067C28.1014 49.9067 28.0395 49.8625 28.0218 49.8006C27.8095 49.1723 27.5883 48.4822 27.3582 47.7832C26.6681 45.6508 25.8806 43.2264 25.1462 41.5011C24.0756 38.997 21.7751 37.6079 19.6604 36.5727C19.5807 36.5373 19.5453 36.44 19.5896 36.3603C19.625 36.2807 19.7223 36.2453 19.8019 36.2895C21.9697 37.3425 24.3322 38.7758 25.447 41.3772C26.1903 43.1203 26.9777 45.5446 27.6679 47.6859C27.8979 48.3849 28.1191 49.0662 28.3226 49.7032C28.3492 49.7829 28.305 49.8802 28.2253 49.9067C28.2076 49.9067 28.1899 49.9067 28.1722 49.9067Z" fill="#F89E1C"/>
<path d="M80.7644 36.8024C80.384 38.4481 79.9416 40.1027 79.4372 41.7396C78.402 45.1196 75.9511 47.8094 72.5977 49.8621C73.4648 47.2697 74.1903 44.3763 75.1636 42.0847C76.3227 39.386 78.8975 37.7049 80.7644 36.8024Z" fill="#032663"/>
<path d="M78.4901 41.9435C78.844 40.9879 79.1714 40.0323 79.481 39.0679C78.4901 39.7049 77.4725 40.6251 76.8532 41.9081C76.1896 43.2707 75.6056 44.9518 75.0039 46.5533C76.5789 45.3412 77.7911 43.8104 78.4901 41.9435Z" fill="#0E51A0"/>
<path d="M72.8008 49.8442L72.5 49.7469C72.8008 48.8532 73.084 47.9065 73.3583 46.9951C73.8803 45.2609 74.4289 43.4736 75.0659 41.9606C76.2162 39.2531 78.791 37.5542 80.7376 36.5986L80.8791 36.8818C78.9768 37.8108 76.4816 39.4566 75.3579 42.0756C74.7209 43.5709 74.1811 45.3494 73.6591 47.0748C73.3848 48.0038 73.1017 48.9506 72.8008 49.8442Z" fill="#10319B"/>
<path d="M19.6602 36.8024C20.0406 38.4481 20.483 40.1027 20.9874 41.7396C22.0226 45.1196 24.4735 47.8094 27.8269 49.8621C26.9598 47.2697 26.2343 44.3763 25.261 42.0847C24.1107 39.386 21.5271 37.7049 19.6602 36.8024Z" fill="#032663"/>
<path d="M51.0977 54.8437C50.8058 54.8437 50.5138 54.8437 50.2306 54.8349C38.6131 55.0118 23.9784 51.6938 20.9169 41.7574C18.174 32.8562 15.086 16.8766 25.164 9.78044L25.2525 9.91316L25.164 9.78044C26.9248 8.54171 31.1984 6.65706 31.3842 6.57743C31.4461 6.54204 38.9228 2.45422 50.0271 2.45422C61.1669 2.45422 68.8205 6.4801 68.9001 6.52434C71.3687 7.43569 73.5276 8.53286 75.2973 9.78044C85.3752 16.8766 82.2872 32.8562 79.5443 41.7486C76.5537 51.4461 62.556 54.8437 51.0977 54.8437ZM50.2218 54.5163C50.5049 54.5163 50.7969 54.5252 51.0889 54.5252C62.441 54.5252 76.2971 51.1895 79.2346 41.6601C81.951 32.8474 85.0213 17.027 75.1114 10.0459C73.3595 8.816 71.2271 7.72768 68.7674 6.81633C68.67 6.76324 61.0784 2.7816 50.0271 2.7816C39.0113 2.7816 31.5966 6.82518 31.5258 6.86942C31.4727 6.89596 27.0929 8.82484 25.3498 10.0459C15.4311 17.0182 18.5103 32.8474 21.2178 41.6601C24.2261 51.4284 38.7281 54.6933 50.2218 54.5163Z" fill="#10319B"/>
<path d="M50.2315 53.1893C44.6395 53.269 39.0563 52.57 34.2961 51.0393C33.5617 50.8004 32.8981 50.358 32.438 49.7386C31.6505 48.6945 31.0311 47.4646 30.6153 46.0932C29.235 41.4391 27.6865 34.9181 27.0937 27.6007C26.8017 23.9995 28.881 20.7346 31.8628 20.0356C35.933 19.08 42.2151 17.974 49.674 17.8589V17.8501C49.8864 17.8501 50.0899 17.8501 50.3022 17.8589C50.5146 17.8589 50.7181 17.8501 50.9305 17.8501V17.8589C58.3894 17.974 64.6627 19.08 68.7417 20.0356C71.7323 20.7346 73.8028 23.9995 73.5108 27.6007C72.9091 34.9181 71.3695 41.4391 69.9892 46.0932C69.5822 47.4558 68.9717 48.668 68.1931 49.7032C67.7507 50.296 67.1313 50.7207 66.4323 50.9508C61.6013 52.5523 55.9208 53.2778 50.2315 53.1893Z" fill="#FCE8CA"/>
<path d="M49.1688 54.6583C42.7185 54.6583 36.6841 53.6938 31.6673 51.8534L31.6319 51.8446L31.6053 51.818C30.2958 50.4112 29.3048 48.6239 28.7297 46.6508C27.3582 41.8905 25.5709 34.4493 24.8985 26.0347C24.5711 21.9381 26.8451 18.2484 30.1985 17.4432C34.7022 16.3638 54.6988 13.1961 70.2626 17.4432C73.5983 18.3546 75.8723 22.0442 75.5538 26.0347C74.8813 34.4493 73.1028 41.8905 71.7225 46.6508C71.1651 48.5885 70.1918 50.3493 68.9265 51.7384L68.9 51.765L68.8646 51.7826C63.6265 53.7469 56.9816 54.7733 50.1509 54.6671C49.8235 54.6583 49.4961 54.6583 49.1688 54.6583ZM50.1598 54.3309C56.9374 54.4371 63.5204 53.4195 68.723 51.4818C69.9441 50.1281 70.882 48.4292 71.4217 46.5534C72.7932 41.8109 74.5716 34.3873 75.2352 25.9993C75.5449 22.1593 73.3683 18.6112 70.1741 17.7441C54.6723 13.5147 34.7552 16.6734 30.2693 17.7441C27.0751 18.5138 24.8985 22.0619 25.217 25.9993C25.8895 34.3873 27.6591 41.8109 29.0305 46.5534C29.588 48.4735 30.5436 50.2077 31.8088 51.5703C36.9673 53.4461 43.4795 54.4371 50.1598 54.3309Z" fill="#10319B"/>
<path d="M27.6866 49.738C27.3947 48.8709 27.1204 47.9684 26.8549 47.0924C26.3329 45.3759 25.7843 43.6063 25.1384 42.0844C24.0235 39.4654 21.5195 37.8108 19.6172 36.8906L19.7588 36.6074C21.7053 37.5542 24.2713 39.253 25.4304 41.9694C26.0851 43.5001 26.6337 45.2874 27.1558 47.0039C27.4212 47.8799 27.6955 48.7824 27.9875 49.6406L27.6866 49.738Z" fill="#10319B"/>
<path d="M76.0859 36.7318L80.1826 34.3428C80.1826 34.3428 81.3505 22.5749 77.5459 17.2218L76.4487 20.5929C76.4487 20.5929 78.2095 23.15 76.0859 36.7318Z" fill="#F4B821"/>
<ellipse cx="50.4686" cy="45.2283" rx="2.17952" ry="2.99685" fill="#032663"/>
<path d="M36.4305 29.5259C36.4825 29.5172 36.5345 29.4912 36.5778 29.4479C37.2448 28.8675 38.1197 28.6336 38.9859 28.8156C39.1765 28.8589 39.3584 28.7376 39.393 28.547C39.4363 28.3565 39.3151 28.1745 39.1245 28.1399C38.0417 27.9147 36.9503 28.2005 36.1187 28.9282C35.9714 29.0581 35.9628 29.2747 36.084 29.4219C36.1793 29.5172 36.3092 29.5518 36.4305 29.5259Z" fill="#032663"/>
<path d="M64.2525 29.526C64.2006 29.5173 64.1486 29.4913 64.1053 29.448C63.4383 28.8676 62.5634 28.6338 61.6972 28.8157C61.5066 28.859 61.3247 28.7377 61.29 28.5471C61.2467 28.3566 61.368 28.1747 61.5586 28.14C62.6413 27.9148 63.7328 28.2007 64.5644 28.9283C64.7116 29.0582 64.7203 29.2748 64.599 29.422C64.5124 29.5173 64.3738 29.552 64.2525 29.526Z" fill="#032663"/>
<path d="M45.1452 38.4388C45.0759 38.6294 44.9892 38.82 44.8853 38.9932L38.787 39.513C38.6571 39.357 38.5445 39.1838 38.4492 39.0019L45.1452 38.4388Z" fill="#0052A3"/>
<path d="M45.3476 37.6844C45.3216 37.875 45.2783 38.0569 45.2264 38.2302L38.3485 38.8192C38.2706 38.6546 38.2013 38.4814 38.1406 38.2995L45.3476 37.6844Z" fill="#0052A3"/>
<path d="M45.3463 36.1949L45.3809 36.732L37.9574 37.3644L37.9141 36.836L45.3463 36.1949Z" fill="#0052A3"/>
<path d="M45.3915 36.9399C45.4001 37.1218 45.3915 37.3038 45.3741 37.477L38.0718 38.1007C38.0285 37.9274 37.9939 37.7542 37.9766 37.5723L45.3915 36.9399Z" fill="#0052A3"/>
<path d="M44.0557 40.0151C43.7525 40.275 43.4146 40.4829 43.0422 40.6388L40.8853 40.8207C40.4955 40.7341 40.123 40.5782 39.7852 40.379L44.0557 40.0151Z" fill="#0052A3"/>
<path d="M44.1955 31.6385L38.3398 32.1409C38.4698 31.933 38.6257 31.7425 38.7903 31.5692L43.6671 31.1534C43.8577 31.292 44.0396 31.4566 44.1955 31.6385Z" fill="#0052A3"/>
<path d="M44.7568 39.218C44.6183 39.4259 44.4623 39.6165 44.2977 39.7897L39.4988 40.1969C39.2996 40.0496 39.1177 39.885 38.9531 39.7031L44.7568 39.218Z" fill="#0052A3"/>
<path d="M42.3584 30.5208C42.7309 30.616 43.0774 30.7633 43.3979 30.9712L39.0234 31.3437C39.3093 31.0925 39.6298 30.8846 39.985 30.7286L42.3584 30.5208Z" fill="#0052A3"/>
<path d="M44.7916 32.5398C44.8695 32.7044 44.9388 32.8776 44.9908 33.0595L37.7578 33.6746C37.7838 33.484 37.8271 33.3021 37.8791 33.1288L44.7916 32.5398Z" fill="#0052A3"/>
<path d="M45.0519 33.2588C45.0952 33.432 45.1298 33.6053 45.1472 33.7872L37.7323 34.4195C37.7236 34.2376 37.7236 34.0557 37.7409 33.8825L45.0519 33.2588Z" fill="#0052A3"/>
<path d="M44.3671 31.829C44.4884 31.9849 44.601 32.1581 44.6963 32.3401L37.957 32.9118C38.0263 32.7212 38.1043 32.5306 38.2082 32.3574L44.3671 31.829Z" fill="#0052A3"/>
<path d="M45.2243 34.7222L45.2677 35.2592L37.8441 35.8916L37.8008 35.3545L45.2243 34.7222Z" fill="#0052A3"/>
<path d="M45.1744 33.9865L45.2091 34.5235L37.7855 35.1559L37.7422 34.6188L45.1744 33.9865Z" fill="#0052A3"/>
<path d="M45.2868 35.458L45.3302 35.9951L37.8979 36.6274L37.8633 36.0904L45.2868 35.458Z" fill="#0052A3"/>
<path d="M62.5618 38.8361C62.4665 39.018 62.3625 39.1999 62.2413 39.3645L56.117 39.1739C56.0131 39.0007 55.9178 38.8187 55.8398 38.6282L62.5618 38.8361Z" fill="#0052A3"/>
<path d="M62.8471 38.1084C62.7952 38.2903 62.7345 38.4636 62.6566 38.6368L55.7527 38.4289C55.6921 38.2557 55.6401 38.0738 55.6055 37.8918L62.8471 38.1084Z" fill="#0052A3"/>
<path d="M63.0107 36.6276L62.9847 37.1646L55.5352 36.9394L55.5611 36.4023L63.0107 36.6276Z" fill="#0052A3"/>
<path d="M62.9752 37.3726C62.9579 37.5545 62.9405 37.7277 62.8972 37.901L55.5776 37.6757C55.5516 37.5025 55.543 37.3206 55.543 37.1387L62.9752 37.3726Z" fill="#0052A3"/>
<path d="M61.2878 40.2743C60.9587 40.4996 60.5948 40.6641 60.205 40.7768L58.0395 40.7075C57.6583 40.5775 57.3118 40.3783 57 40.1444L61.2878 40.2743Z" fill="#0052A3"/>
<path d="M62.3965 31.9675L56.5234 31.7943C56.6794 31.6037 56.8526 31.4305 57.0345 31.2745L61.92 31.4218C62.1019 31.5864 62.2579 31.7683 62.3965 31.9675Z" fill="#0052A3"/>
<path d="M62.0828 39.5633C61.9268 39.7538 61.7449 39.9271 61.5544 40.083L56.7468 39.9357C56.5649 39.7712 56.409 39.5892 56.2617 39.39L62.0828 39.5633Z" fill="#0052A3"/>
<path d="M60.6972 30.6422C61.0524 30.7808 61.3902 30.9713 61.6847 31.2052L57.293 31.0666C57.6048 30.8501 57.9513 30.6768 58.3151 30.5642L60.6972 30.6422Z" fill="#0052A3"/>
<path d="M62.8891 32.9285C62.9497 33.1017 62.993 33.2836 63.0277 33.4655L55.7773 33.2403C55.8293 33.0584 55.89 32.8852 55.9593 32.7119L62.8891 32.9285Z" fill="#0052A3"/>
<path d="M63.0625 33.6741C63.0885 33.8473 63.0971 34.0292 63.0971 34.2111L55.6562 33.9859C55.6649 33.804 55.6909 33.6308 55.7255 33.4575L63.0625 33.6741Z" fill="#0052A3"/>
<path d="M62.5427 32.1754C62.6467 32.3487 62.7333 32.5306 62.8113 32.7212L56.0547 32.5133C56.15 32.3314 56.2453 32.1494 56.3665 31.9849L62.5427 32.1754Z" fill="#0052A3"/>
<path d="M63.0645 35.1543L63.0472 35.6827L55.5977 35.4575L55.615 34.9291L63.0645 35.1543Z" fill="#0052A3"/>
<path d="M63.0966 34.4178L63.0706 34.9462L55.6211 34.721L55.6471 34.184L63.0966 34.4178Z" fill="#0052A3"/>
<path d="M63.0372 35.8912L63.0199 36.4283L55.5703 36.1944L55.5876 35.666L63.0372 35.8912Z" fill="#0052A3"/>
<path fill-rule="evenodd" clip-rule="evenodd" d="M59.7787 42.5979C55.4491 42.5979 51.9412 39.0764 51.9412 34.7604C51.9412 30.4309 55.4491 26.9094 59.7787 26.9094C64.0947 26.9094 67.6162 30.4309 67.6162 34.7604C67.6162 39.0764 64.0947 42.5979 59.7787 42.5979ZM40.7803 42.5979C36.4643 42.5979 32.9429 39.0764 32.9429 34.7604C32.9429 30.4309 36.4643 26.9094 40.7803 26.9094C45.1099 26.9094 48.6314 30.4309 48.6314 34.7604C48.6314 39.0764 45.1099 42.5979 40.7803 42.5979ZM59.7786 23.6006C55.7676 23.6006 52.2449 25.7457 50.2868 28.9363C48.3139 25.7457 44.8047 23.6006 40.7802 23.6006C34.6376 23.6006 29.6328 28.6054 29.6328 34.7615C29.6328 40.9041 34.6376 45.9089 40.7802 45.9089C44.8047 45.9089 48.3139 43.7638 50.2868 40.5744C52.2449 43.7638 55.7676 45.9089 59.7786 45.9089C65.9224 45.9089 70.926 40.9041 70.926 34.7615C70.926 28.6054 65.9224 23.6006 59.7786 23.6006Z" fill="#002E6D"/>
<path fill-rule="evenodd" clip-rule="evenodd" d="M67.5174 34.8235C67.5174 39.1827 63.9576 42.7395 59.5946 42.7395C55.218 42.7395 51.6719 39.1827 51.6719 34.8235C51.6719 30.4506 55.218 26.8939 59.5946 26.8939C63.9576 26.8939 67.5174 30.4506 67.5174 34.8235Z" fill="#92E0FF"/>
<path fill-rule="evenodd" clip-rule="evenodd" d="M48.5018 34.8235C48.5018 39.1827 44.9451 42.7395 40.5722 42.7395C36.213 42.7395 32.6562 39.1827 32.6562 34.8235C32.6562 30.4506 36.213 26.8939 40.5722 26.8939C44.9451 26.8939 48.5018 30.4506 48.5018 34.8235Z" fill="#92E0FF"/>
<path fill-rule="evenodd" clip-rule="evenodd" d="M35.9176 39.5708C35.5705 39.5708 35.2222 39.4383 34.9571 39.1732C34.4258 38.6418 34.4258 37.7822 34.9571 37.2508L41.7464 30.4611C42.2777 29.9309 43.1373 29.9309 43.6674 30.4611C44.1988 30.9925 44.1988 31.8521 43.6674 32.3835L36.8782 39.1732C36.6131 39.4383 36.2647 39.5708 35.9176 39.5708Z" fill="white"/>
<path fill-rule="evenodd" clip-rule="evenodd" d="M41.5401 38.9366C41.2136 38.9366 40.8859 38.8008 40.6366 38.5251C40.1368 37.9765 40.1368 37.0855 40.6366 36.5369L44.418 32.3761C44.9179 31.8274 45.7264 31.8274 46.2251 32.3761C46.7249 32.9248 46.7249 33.8144 46.2251 34.3644L42.4436 38.5251C42.1943 38.8008 41.8666 38.9366 41.5401 38.9366Z" fill="white"/>
<path fill-rule="evenodd" clip-rule="evenodd" d="M57.4645 40.2047C57.1174 40.2047 56.7691 40.0722 56.504 39.8071C55.9726 39.277 55.9726 38.4163 56.504 37.8849L63.2932 31.0959C63.8246 30.5645 64.6841 30.5645 65.2143 31.0959C65.7456 31.626 65.7456 32.4868 65.2143 33.0169L58.425 39.8071C58.16 40.0722 57.8116 40.2047 57.4645 40.2047Z" fill="white"/>
<path fill-rule="evenodd" clip-rule="evenodd" d="M57.3831 35.1339C57.0566 35.1339 56.7289 35.0092 56.4795 34.7598C55.9808 34.2599 55.9808 33.4513 56.4795 32.9514L60.2615 29.1706C60.7614 28.6707 61.57 28.6707 62.0687 29.1706C62.5687 29.6693 62.5687 30.4779 62.0687 30.9779L58.2868 34.7598C58.0374 35.0092 57.7097 35.1339 57.3831 35.1339Z" fill="white"/>
<path d="M14.8352 57.3687C15.7748 52.2648 18.8986 40.382 28.7017 29.2198C29.6616 28.1314 31.4562 28.7072 31.6123 30.1468L31.739 31.2711C32.9843 42.6722 27.0092 53.6483 16.757 58.7993C15.7683 59.303 14.6394 58.4615 14.8352 57.3687Z" fill="#F5851F"/>
<path d="M16.7556 58.7985C15.773 59.2916 14.6441 58.4502 14.8338 57.3679C15.6574 52.8781 18.1723 43.1397 25.4462 33.2742C20.1646 42.7657 18.8191 54.008 18.5044 57.8427C17.9279 58.1746 17.3515 58.5064 16.7556 58.7985Z" fill="#F89E1C"/>
<path d="M24.8835 35.2459C24.4169 34.9744 24.0811 34.8926 24.0325 34.8785L23.8294 35.7399L23.9226 35.3114L23.8126 35.7444C23.8612 35.7584 29.0339 37.4338 27.0436 49.5645L28.1153 48.1863C29.5774 38.5735 26.4639 36.1655 24.8835 35.2459Z" fill="#F89E1C"/>
<path d="M26.4411 31.9355C26.4411 31.9355 31.5982 32.2956 31.1006 40.2264C31.1006 40.2264 32.9925 31.1193 30.6353 28.9242C30.6353 28.9242 29.103 27.5073 26.4411 31.9355Z" fill="#032663"/>
<path d="M30.9177 28.7056C30.7904 28.6315 30.6676 28.5742 30.5218 28.532C29.799 28.3102 29.044 28.5097 28.5403 29.0827C18.5774 40.4217 15.4831 52.6198 14.6182 57.327C14.5101 57.903 14.7369 58.4893 15.209 58.8492C15.681 59.209 16.3153 59.2658 16.8441 58.9914C27.1298 53.8315 33.1931 42.6795 31.9389 31.2448L31.8122 30.1205C31.7621 29.5235 31.4268 29.0018 30.9177 28.7056ZM15.5947 58.5767C15.5522 58.552 15.5204 58.5335 15.4842 58.4982C15.1376 58.2398 14.9764 57.8336 15.0528 57.4095C15.9161 52.7298 18.9822 40.6288 28.8683 29.3729C29.2476 28.9406 29.8243 28.7792 30.3906 28.9526C30.9402 29.1304 31.3338 29.6008 31.3963 30.1766L31.5229 31.3009C32.7558 42.5528 26.7806 53.5289 16.66 58.6003C16.313 58.7817 15.9235 58.768 15.5947 58.5767Z" fill="#10319B"/>
<path d="M28.125 32.3613C27.2234 31.8367 26.4937 31.7245 26.4769 31.7289L26.4218 32.1653C26.6179 32.1942 31.3779 32.9196 31.0174 40.2487L31.4618 40.2659C31.695 35.3757 29.6629 33.2562 28.125 32.3613Z" fill="#10319B"/>
<path d="M25.1666 35.1265C24.7105 34.8611 24.3854 34.7855 24.3368 34.7714L24.2436 35.1999C24.2922 35.214 29.46 36.5316 27.9136 48.1681L28.35 48.2233C29.5827 38.9314 26.6726 36.0029 25.1666 35.1265Z" fill="#10319B"/>
<path d="M85.0303 57.3207C84.0023 52.2339 80.6731 40.407 70.678 29.4163C69.6994 28.3448 67.9151 28.9515 67.7839 30.3936L67.6768 31.5199C66.6291 42.9409 72.7936 53.8119 83.1335 58.7844C84.1309 59.2708 85.245 58.41 85.0303 57.3207Z" fill="#F89E1C"/>
<path d="M83.2712 56.6923C83.248 56.6777 83.2312 56.6735 83.208 56.6589C79.4772 54.6426 77.4363 50.4416 78.0892 46.2595C78.3027 44.8823 78.7349 43.4875 79.5068 42.2744C82.9341 47.96 84.1311 53.2313 84.5262 55.8035C84.6321 56.4997 83.887 57.0224 83.2712 56.6923Z" fill="#F4B821"/>
<path d="M76.3751 54.0671C70.3192 48.3518 66.9849 40.071 67.6754 31.5198L67.7616 30.4062C67.7674 30.2736 67.8069 30.1493 67.8464 30.025L69.8205 28.9734C70.1133 29.0543 70.3791 29.209 70.6032 29.4607C71.6072 30.5743 72.5396 31.6881 73.4173 32.8064C68.9695 39.0131 73.6899 49.252 76.3751 54.0671Z" fill="#F5851F"/>
<path d="M74.505 35.4059C72.9199 36.3654 70.116 39.4111 71.7077 48.7468L72.7285 49.8645C70.2145 37.1568 75.599 35.8625 75.6474 35.8476L75.4672 34.9812C75.4084 35.0025 75.0299 35.0882 74.505 35.4059Z" fill="#F89E1C"/>
<path d="M72.9878 32.0931C72.9878 32.0931 67.8377 32.5425 68.4727 40.4635C68.4727 40.4635 66.4232 31.3906 68.742 29.155C68.742 29.155 70.2495 27.7117 72.9878 32.0931Z" fill="#032663"/>
<path d="M68.4539 28.9412C67.95 29.2462 67.6174 29.7631 67.563 30.3842L67.4558 31.5105C66.3999 42.9652 72.6661 54.0041 83.0292 58.9912C83.5732 59.2501 84.1895 59.1782 84.6616 58.8207C85.1274 58.4527 85.3503 57.8731 85.226 57.2885C84.2732 52.5866 80.9785 40.4376 70.8165 29.2897C70.3092 28.7361 69.5445 28.5392 68.8257 28.7735C68.7017 28.8055 68.5798 28.8649 68.4539 28.9412ZM84.2922 58.5423C83.9668 58.7393 83.5881 58.7534 83.2339 58.5948C73.0269 53.6996 66.8624 42.8287 67.9001 31.5572L68.0072 30.4308C68.0597 29.854 68.445 29.3769 68.9915 29.1895C69.5379 29.0022 70.1172 29.1536 70.5209 29.5834C80.611 40.66 83.8759 52.7123 84.8201 57.3764C84.9039 57.7991 84.7497 58.208 84.4077 58.4724C84.3657 58.4978 84.3342 58.5168 84.2922 58.5423Z" fill="#10319B"/>
<path d="M71.3115 32.5481C69.7893 33.4695 67.7943 35.6239 68.1185 40.5198L68.5625 40.4949C68.0687 33.1626 72.8154 32.3549 73.0174 32.3331L72.9547 31.8977C72.9315 31.883 72.2038 32.008 71.3115 32.5481Z" fill="#10319B"/>
<path d="M74.3162 35.2609C72.8255 36.1633 69.9666 39.1418 71.3603 48.4109L71.7956 48.3482C70.0497 36.696 75.192 35.3333 75.2403 35.3184L75.1397 34.8915C75.0914 34.9065 74.7676 34.9877 74.3162 35.2609Z" fill="#10319B"/>
</g>
</svg>
