<svg width="100" height="100" viewBox="0 0 100 100" fill="none" xmlns="http://www.w3.org/2000/svg">
<mask id="mask0_6118_33363" style="mask-type:alpha" maskUnits="userSpaceOnUse" x="0" y="0" width="100" height="100">
<rect width="100" height="100" fill="#D9D9D9"/>
</mask>
<g mask="url(#mask0_6118_33363)">
<path d="M74.654 65.3999C77.5924 56.9455 71.267 48.1392 62.3199 48.28L58.8537 48.3328C58.8273 48.3328 58.8097 48.3328 58.7833 48.3328L50.1442 48.4735L41.505 48.3328C41.4786 48.3328 41.461 48.3328 41.4346 48.3328L37.9684 48.28C29.0214 48.1392 22.6959 56.9455 25.6343 65.3999C26.5932 68.1624 27.6226 70.7312 28.6958 73.1154C29.2765 74.5142 30.0243 76.0537 30.86 77.6461C34.5022 84.7897 38.3467 90.1737 41.2939 94.5813C41.4083 94.7484 41.5314 94.9156 41.6546 95.074C43.6076 97.898 46.8627 99.244 50.153 99.2C53.4344 99.2528 56.6983 97.898 58.6514 95.074C58.7745 94.9156 58.8977 94.7484 59.0121 94.5813C61.9592 90.1737 65.8037 84.7897 69.4459 77.6461C70.2817 76.0537 71.0295 74.523 71.6101 73.1154C72.6658 70.7224 73.6951 68.1624 74.654 65.3999Z" fill="#F89E1C"/>
<path d="M59.5664 82.5456C62.0033 77.8302 57.1735 74.5927 51.807 77.6982C45.4112 81.3932 41.6283 79.7304 37.3615 72.6572C33.8952 66.9037 28.8279 68.3904 27.0508 69.147C27.605 70.5458 28.1681 71.9007 28.7487 73.1939C29.3293 74.5927 30.0771 76.1323 30.9129 77.7246C34.5551 84.8682 38.3996 90.2523 41.3467 94.6598C41.4611 94.827 41.5843 94.9941 41.7074 95.1525C43.6605 97.9765 46.9156 99.3225 50.2058 99.2785C53.4873 99.3313 56.7512 97.9765 58.7042 95.1525C58.8274 94.9941 58.9506 94.827 59.0649 94.6598C60.0239 93.217 61.0884 91.6775 62.1968 89.9971C59.6456 89.5837 57.2086 87.1028 59.5664 82.5456Z" fill="#032663"/>
<path d="M49.9861 99.4265C46.5111 99.4265 43.3616 97.8694 41.5405 95.2301C41.4173 95.0718 41.2942 94.9046 41.1798 94.7287C40.7575 94.0953 40.3089 93.4354 39.8514 92.758C37.1769 88.8079 33.8603 83.8989 30.7372 77.7759C29.8486 76.0868 29.1184 74.556 28.5642 73.2364C27.9747 71.9255 27.4029 70.5619 26.8663 69.1895L26.8135 69.0487L26.9542 68.9872C28.9513 68.1338 33.9747 66.779 37.4585 72.5677C41.822 79.8081 45.5434 81.1101 51.6928 77.5559C54.9655 75.6645 57.8423 76.1659 59.2411 77.5031C60.5255 78.7348 60.6927 80.6439 59.6722 82.6145C58.6429 84.6115 58.4581 86.3798 59.1443 87.7346C59.6986 88.8255 60.8335 89.6085 62.1795 89.8285L62.4258 89.8636L62.285 90.066C61.6604 91.0073 61.0534 91.9047 60.464 92.7668C60.0065 93.4442 59.5666 94.0953 59.1443 94.7199C59.03 94.8958 58.9068 95.063 58.7836 95.2213C56.9362 97.8958 53.7251 99.4705 50.1621 99.409C50.1005 99.4265 50.0389 99.4265 49.9861 99.4265ZM50.1621 99.1098C53.6195 99.1626 56.7338 97.6495 58.5285 95.0542C58.6517 94.887 58.7748 94.7287 58.8804 94.5615C59.3027 93.9281 59.7426 93.2771 60.2 92.5997C60.7455 91.7991 61.2997 90.9633 61.8804 90.1012C60.5343 89.8197 59.4171 89.0015 58.854 87.8842C58.3438 86.8725 58.0182 85.113 59.3907 82.4737L59.5314 82.5441L59.3907 82.4737C60.3408 80.6351 60.2088 78.8668 59.0212 77.7407C57.7015 76.4826 54.9743 76.0252 51.8512 77.8375C45.5874 81.462 41.6109 80.0808 37.1857 72.7437C33.9043 67.3068 29.224 68.4153 27.2182 69.2335C27.7372 70.5531 28.2915 71.8639 28.8545 73.1308C29.3999 74.4504 30.1301 75.9636 31.0187 77.6527C34.133 83.7582 37.4497 88.6584 40.1153 92.5997C40.5728 93.2771 41.0215 93.9369 41.4437 94.5703C41.5581 94.7375 41.6725 94.8958 41.7956 95.063C43.5903 97.6495 46.7222 99.1714 50.1621 99.1098Z" fill="#10319B"/>
<path d="M18.7625 55.3192C17.5044 58.8206 15.1555 67.3102 17.2053 77.7617C17.4076 78.7822 18.7273 79.0725 19.3431 78.2368L19.827 77.5857C24.7096 70.97 24.9647 62.0141 20.4692 55.1257C20.0381 54.4571 19.0352 54.5714 18.7625 55.3192Z" fill="#F5851F"/>
<path d="M50.311 99.429C50.2495 99.429 50.1967 99.429 50.1351 99.429C46.5985 99.4818 43.361 97.9158 41.5135 95.2326C41.3904 95.0742 41.2672 94.907 41.1528 94.7311C40.7306 94.0977 40.2819 93.4379 39.8244 92.7605C37.15 88.8104 33.8333 83.9014 30.7102 77.7783C29.8216 76.0892 29.0914 74.5584 28.5372 73.2388C27.4111 70.7139 26.3818 68.1186 25.4757 65.5146C24.0505 61.4237 24.6927 57.0602 27.2264 53.5587C29.7513 50.0749 33.6574 48.1219 37.9681 48.1835L41.4256 48.2363H41.4959L50.1351 48.377L58.7743 48.2363H58.8182L62.3108 48.1835C66.6216 48.1131 70.5277 50.0749 73.0526 53.5587C75.5863 57.0602 76.2285 61.4237 74.8033 65.5146C73.8972 68.1186 72.8679 70.7227 71.7418 73.2476C71.1963 74.5672 70.4661 76.098 69.5688 77.7871C66.4457 83.9014 63.1202 88.8192 60.4546 92.7693C59.9971 93.4467 59.5484 94.1065 59.1262 94.7399C59.0118 94.9158 58.8886 95.083 58.7655 95.2414C56.9444 97.8718 53.7949 99.429 50.311 99.429ZM50.1351 99.1123C53.5925 99.165 56.7068 97.6519 58.5015 95.0566C58.6247 94.8895 58.7479 94.7311 58.8534 94.5639C59.2757 93.9305 59.7244 93.2707 60.1819 92.5933C62.8475 88.652 66.1642 83.743 69.2785 77.6463C70.167 75.966 70.8884 74.444 71.4427 73.1332C72.5688 70.6171 73.5981 68.0219 74.4954 65.4266C75.8854 61.4325 75.2608 57.1745 72.7887 53.7611C70.3254 50.3653 66.4985 48.4562 62.3108 48.5178L58.8534 48.5706H58.8094L50.1439 48.7113L41.4959 48.5706H41.4256L37.9593 48.5178C33.7717 48.4562 29.9448 50.3653 27.4815 53.7611C25.0094 57.1833 24.3848 61.4325 25.7748 65.4266C26.6721 68.0219 27.7014 70.6171 28.8275 73.1332C29.373 74.4528 30.1032 75.966 30.9917 77.6551C34.106 83.7606 37.4227 88.6608 40.0883 92.6021C40.5458 93.2795 40.9945 93.9393 41.4168 94.5728C41.5311 94.7399 41.6455 94.8983 41.7687 95.0654C43.5722 97.6519 46.7041 99.1738 50.1351 99.1123Z" fill="#10319B"/>
<path d="M70.5011 52.9598C68.2754 51.0332 65.4426 49.8719 62.2755 49.9335L58.8005 49.9951C58.7741 49.9951 58.7565 49.9951 58.7301 49.9951L50.0469 50.1446L41.3638 49.9951C41.3374 49.9951 41.3198 49.9951 41.2934 49.9951L37.8184 49.9335C32.9974 49.8543 30.3757 53.3205 28.1059 57.2882C27.5957 58.1855 28.0971 59.3468 29.0737 59.5404C37.2993 61.1679 56.0116 62.989 70.5011 52.9598Z" fill="#E26907"/>
<path d="M47.8824 76.1677C47.0554 76.1677 46.2197 75.9654 45.4543 75.5519C43.8268 74.6721 42.8238 73.0446 42.7623 71.1971L42.4455 60.6049C42.3928 58.7574 43.2989 57.0683 44.8737 56.1006C46.4484 55.1241 48.3575 55.0713 49.985 55.951L59.3896 61.0096C60.9643 61.8542 61.9584 63.4201 62.0552 65.206C62.152 66.9919 61.325 68.6546 59.8558 69.6575C59.8118 69.6927 59.7591 69.7191 59.7151 69.7543L59.6535 69.7895L50.5744 75.4023C49.7387 75.9038 48.8061 76.1677 47.8824 76.1677ZM47.5569 55.9598C46.7475 55.9598 45.9294 56.1886 45.1992 56.6372C43.818 57.4906 43.0262 58.9686 43.079 60.5873L43.3957 71.1795C43.4485 72.7983 44.3282 74.2235 45.7534 74.9888C47.1786 75.7542 48.8589 75.7102 50.2313 74.8569L59.372 69.2089C59.4159 69.1825 59.4599 69.1561 59.4951 69.1297C60.7796 68.2499 61.501 66.7984 61.413 65.2324C61.3338 63.6752 60.4629 62.3028 59.0816 61.5638L49.6771 56.5053C49.0085 56.1358 48.2783 55.9598 47.5569 55.9598Z" fill="#F89E1C"/>
<path d="M47.8394 76.2482C47.0213 76.2482 46.1943 76.0459 45.4289 75.6324C43.8102 74.7615 42.816 73.1515 42.7633 71.3128L42.4378 60.4567C42.385 58.6268 43.2823 56.9553 44.8395 55.9876C46.3966 55.0198 48.2969 54.9671 49.9156 55.838L59.5489 61.0285C61.1061 61.8643 62.0914 63.4215 62.1882 65.1898C62.2849 66.9581 61.4668 68.612 60.0152 69.6061C59.9712 69.6413 59.9184 69.6677 59.8744 69.7029L59.8128 69.7381L50.5051 75.4916C49.6781 75.9931 48.7632 76.2482 47.8394 76.2482ZM47.5051 55.5477C46.643 55.5477 45.7808 55.7852 45.0066 56.2691C43.5462 57.1752 42.7017 58.7412 42.7545 60.4567L43.08 71.3128C43.1328 73.0283 44.0653 74.5415 45.5785 75.3597C47.0916 76.1779 48.8687 76.1251 50.3379 75.2189L59.6985 69.4302C59.7425 69.4038 59.7864 69.3686 59.8304 69.3422C61.194 68.4096 61.9594 66.8701 61.8714 65.2074C61.7835 63.5534 60.8597 62.093 59.3994 61.3101L49.7661 56.1195C49.0535 55.7412 48.2793 55.5477 47.5051 55.5477Z" fill="#10319B"/>
<path d="M20.4705 55.1241C20.0394 54.4642 19.0365 54.5786 18.7638 55.3176C17.6553 58.3967 15.7023 65.338 16.6524 74.0739C16.8019 66.2881 20.0218 58.8366 21.2095 56.3469C20.972 55.9334 20.7344 55.5199 20.4705 55.1241Z" fill="#F89E1C"/>
<path d="M17.0124 72.6489C16.6253 72.6489 16.3877 72.5785 16.3525 72.5697L16.5373 71.9627L16.4405 72.2618L16.5285 71.9539C16.5637 71.9627 20.373 72.7896 23.5137 64.5552L23.6809 65.7956C21.1208 72.2794 18.3232 72.6489 17.0124 72.6489Z" fill="#F89E1C"/>
<path d="M16.7842 75.2621C16.7842 75.2621 20.1096 76.8984 22.6609 71.8047C22.6609 71.8047 20.5495 78.1301 18.2974 78.6404C18.2974 78.6404 16.837 78.9659 16.7842 75.2621Z" fill="#032663"/>
<path d="M18.394 78.8767C18.2884 78.8767 18.1916 78.8679 18.086 78.8415C17.5582 78.7183 17.1623 78.3224 17.0567 77.7858C14.9717 67.1672 17.4526 58.4929 18.6139 55.2642C18.7547 54.8683 19.1066 54.5868 19.5288 54.534C19.9511 54.4812 20.3646 54.6747 20.5933 55.0354C25.1065 61.9415 24.8425 71.0381 19.9423 77.6714L19.4585 78.3224C19.2121 78.6743 18.8162 78.8767 18.394 78.8767ZM19.6696 54.8419C19.6344 54.8419 19.608 54.8419 19.5728 54.8507C19.2649 54.8859 19.0186 55.0794 18.913 55.3697C17.7605 58.5808 15.2972 67.1848 17.3646 77.7242C17.4438 78.1289 17.7429 78.4368 18.1564 78.5336C18.5611 78.6216 18.9746 78.472 19.2209 78.1377L19.7048 77.4867C24.5258 70.9589 24.7809 62.0031 20.3382 55.2114C20.1886 54.9739 19.9423 54.8419 19.6696 54.8419Z" fill="#10319B"/>
<path d="M17.9797 75.6053C17.2319 75.6053 16.7393 75.4117 16.7305 75.4029L16.8536 75.1126C16.9856 75.1654 20.1967 76.4322 22.616 71.7607L22.8975 71.9103C21.2788 75.0246 19.2554 75.6053 17.9797 75.6053Z" fill="#10319B"/>
<path d="M17.1442 72.8252C16.7659 72.8252 16.5371 72.7548 16.502 72.746L16.5987 72.4469C16.6339 72.4557 20.3113 73.5026 23.5488 65.7344L23.8391 65.8575C21.2526 72.0598 18.3934 72.8252 17.1442 72.8252Z" fill="#10319B"/>
<path d="M48.4718 73.7304C47.8384 73.7304 47.2049 73.572 46.6155 73.2553C45.3663 72.5867 44.6009 71.3462 44.5569 69.9298L44.3194 61.9945C44.2754 60.5781 44.9704 59.2937 46.1756 58.5547C47.3809 57.8069 48.8413 57.7717 50.0817 58.4403L57.1197 62.232C58.325 62.883 59.0816 64.0795 59.152 65.4431C59.2223 66.8067 58.5977 68.0824 57.4716 68.8477C57.4364 68.8741 57.4013 68.8917 57.3661 68.9181L57.3221 68.9445L50.5216 73.1497C49.8882 73.528 49.1844 73.7304 48.4718 73.7304ZM48.2254 58.5986C47.6272 58.5986 47.0378 58.7658 46.5011 59.0913C45.4982 59.7159 44.9176 60.7892 44.9528 61.9769L45.1903 69.9122C45.2255 71.0999 45.8677 72.138 46.9146 72.7011C47.9527 73.2641 49.1844 73.2289 50.1873 72.6043L57.023 68.3727C57.0581 68.3551 57.0845 68.3287 57.1109 68.3111C58.0523 67.6689 58.5713 66.6044 58.5097 65.4695C58.4482 64.3346 57.8147 63.3317 56.8118 62.7863L49.7738 58.9945C49.2899 58.7306 48.7621 58.5986 48.2254 58.5986Z" fill="#F89E1C"/>
<path d="M57.1296 68.5773C57.1648 68.5597 57.2 68.5333 57.2264 68.5157C59.3642 67.0553 59.2146 63.8266 56.9097 62.5862L50.03 58.8736C47.6459 57.5892 44.7779 59.3663 44.8571 62.0759L45.0858 69.8265C45.165 72.5273 48.1473 74.1285 50.4435 72.7121L57.0944 68.6036C57.1032 68.5948 57.1208 68.5861 57.1296 68.5773Z" fill="#032663"/>
<path d="M54.252 67.3779C54.2696 67.3691 54.2872 67.3515 54.3048 67.3427C55.5101 66.5245 55.4221 64.7034 54.1201 63.9996L50.2404 61.9146C48.8944 61.1932 47.2756 62.1961 47.3284 63.7181L47.4604 68.0904C47.5044 69.6124 49.1847 70.5186 50.4779 69.718L54.2257 67.4042C54.2345 67.3954 54.2432 67.3867 54.252 67.3779Z" fill="#33FCFE"/>
<path d="M71.8299 55.9429C70.7566 57.1657 64.5016 60.2712 64.5016 60.2712C64.5016 60.2712 66.6482 61.8812 66.6834 65.2858C66.7098 67.8283 64.3081 70.1069 64.3081 70.1069C66.4722 72.315 65.6541 76.2123 64.0529 79.1683C62.4518 82.1243 63.8682 82.9864 63.8682 82.9864C63.8682 82.9864 73.2287 68.9984 74.0469 61.1422C74.3812 57.9487 71.8299 55.9429 71.8299 55.9429Z" fill="#F4B821"/>
<path d="M29.54 70.7408C29.54 70.7408 31.9682 70.3361 33.2702 71.9812C34.5722 73.6264 42.314 88.2214 45.921 93.4384C46.572 94.3797 48.2435 97.6084 50.0998 96.9662C50.0998 96.9662 47.5133 98.4354 43.704 94.5996C39.9035 90.7551 31.7746 75.3683 29.54 70.7408Z" fill="#0E51A0"/>
<path d="M23.7687 8.83004C25.5742 7.55711 27.7319 6.47377 30.1152 5.57099L29.9618 5.6071C29.9618 5.6071 37.6174 1.37305 49.0376 1.37305C60.4217 1.37305 68.1675 5.48071 68.2127 5.5078C70.6683 6.41961 72.871 7.521 74.7217 8.82101C83.6322 15.0954 82.901 28.5739 78.9919 41.2761C76.1662 50.5206 62.7057 54.7276 49.2542 54.5199C35.8028 54.7276 22.3423 50.5206 19.4985 41.2761C15.5894 28.5829 14.8582 15.1044 23.7687 8.83004Z" fill="#F89E1C"/>
<path d="M23.7684 8.87561C24.7163 8.20755 25.7635 7.59366 26.883 7.0249C18.1531 13.3715 18.8934 26.7778 22.7753 39.4168C25.6191 48.6793 39.0706 52.8863 52.5311 52.6877C60.1776 52.8051 67.8242 51.487 73.5298 48.6342C67.7249 52.8592 58.4894 54.8092 49.2449 54.6648C35.7935 54.8724 22.333 50.6564 19.4892 41.3939C15.5892 28.6736 14.8579 15.168 23.7684 8.87561Z" fill="#F5851F"/>
<path d="M27.9309 20.179C22.469 19.0415 22.1079 10.3386 22.0898 9.95946L22.7398 9.94141C22.7398 10.0227 23.101 18.5088 28.0572 19.538L27.9309 20.179Z" fill="#F89E1C"/>
<path d="M69.3954 20.5124L69.2148 19.8895C74.6496 18.3096 74.9656 9.48042 74.9656 9.39014L75.6156 9.40819C75.6065 9.78736 75.2815 18.8062 69.3954 20.5124Z" fill="#F4B821"/>
<path d="M49.4443 9.11042C46.3839 9.11042 43.5401 8.10833 41.879 6.42012C41.8248 6.36596 41.7707 6.31179 41.7165 6.24859L38.7373 2.89024L39.4686 2.24023L42.4477 5.58956C42.4839 5.6347 42.529 5.67984 42.5741 5.72498C44.1901 7.36804 47.0971 8.27083 50.1756 8.10833C53.1638 7.94583 55.7638 6.80832 57.127 5.084L59.2576 2.37565L60.0249 2.98052L57.8944 5.68887C56.3687 7.63888 53.4978 8.90278 50.2297 9.08333C49.9589 9.10139 49.7061 9.11042 49.4443 9.11042Z" fill="#F4B821"/>
<path d="M49.4264 12.6404C45.3729 12.6404 41.6986 11.2772 39.3604 8.89388C39.2792 8.81263 39.1889 8.72235 39.1076 8.63208L39.0173 8.53277L34.9277 3.9376L35.659 3.2876L39.8298 7.98207C39.9021 8.06332 39.9743 8.14457 40.0555 8.2168C42.2132 10.4015 45.6347 11.6654 49.4264 11.6654C49.7334 11.6654 50.0494 11.6564 50.3653 11.6383C54.4098 11.4126 57.8855 9.82375 59.8897 7.26887L62.9321 3.39593L63.6994 4.0008L60.6571 7.87374C58.4814 10.6453 54.7438 12.3696 50.4195 12.6134C50.0945 12.6314 49.7605 12.6404 49.4264 12.6404Z" fill="#F4B821"/>
<path d="M74.2166 11.2044C72.3659 9.89532 70.1631 8.77587 67.7076 7.86406C67.6534 7.83698 59.8895 3.10639 48.5054 3.10639C41.0123 3.09736 34.4671 4.35223 30.8379 5.20988C33.14 4.12654 39.8748 1.37305 49.047 1.37305C60.4311 1.37305 68.177 5.51682 68.2221 5.54391C70.6777 6.46474 72.8805 7.57517 74.7312 8.8842C82.6757 14.5266 82.9556 25.9468 80.1479 37.4302C82.3688 26.7593 81.6285 16.4676 74.2166 11.2044Z" fill="#F4B821"/>
<path d="M69.9275 20.0699L69.8643 19.7539C74.956 18.6977 75.5067 9.63374 75.5157 9.54346L75.8407 9.56151C75.8136 9.94068 75.2629 18.9595 69.9275 20.0699Z" fill="#10319B"/>
<path d="M60.2688 7.53999L63.3112 3.66705C62.2459 3.324 61.0091 2.97191 59.6279 2.64691L57.4973 5.35526C56.0528 7.19694 53.3174 8.38861 50.1938 8.56917C46.9799 8.74972 43.9285 7.78375 42.2222 6.04137C42.168 5.98721 42.1229 5.94207 42.0778 5.8879L39.0986 2.53857C37.6812 2.85455 36.4083 3.21566 35.2979 3.56775L39.3875 8.16292L39.4777 8.26222C39.559 8.34347 39.6312 8.43375 39.7125 8.515C41.9604 10.799 45.5354 12.1081 49.4264 12.1081C49.7424 12.1081 50.0674 12.0991 50.3924 12.081C54.5723 11.8643 58.1744 10.2032 60.2688 7.53999Z" fill="#032663"/>
<path d="M28.463 20.0709C23.1276 18.9605 22.5408 10.032 22.5137 9.65282L22.8387 9.63477C22.8477 9.72504 23.4345 18.6987 28.5262 19.755L28.463 20.0709Z" fill="#10319B"/>
<path d="M49.1823 54.4032C42.5288 54.5025 35.8843 53.5816 30.3773 51.5594C29.0954 50.1872 28.0752 48.4177 27.4794 46.3594C25.9537 41.0781 24.2384 33.6933 23.5794 25.3967C23.2544 21.3162 25.5565 17.6148 28.8607 16.8203C33.3656 15.737 40.317 14.4821 48.5684 14.3557V14.3467C48.8032 14.3467 49.0288 14.3557 49.2636 14.3557C49.4983 14.3557 49.724 14.3467 49.9587 14.3467V14.3557C58.2102 14.4821 64.9991 15.5293 69.504 16.6127C72.8082 17.4071 75.2728 21.3162 74.9478 25.3967C74.2887 33.6933 72.5734 41.0781 71.0477 46.3594C70.4609 48.3726 69.4769 50.1059 68.231 51.4782C62.6609 53.5546 55.9171 54.5025 49.1823 54.4032Z" fill="#032663"/>
<path d="M72.1577 49.4191L70.8486 50.1323C71.0924 49.4101 71.4986 48.1913 71.7695 47.3337C72.4917 45.0767 73.3132 42.5128 74.0445 40.7975C75.2271 38.026 78.5133 35.9315 80.6709 34.8843L80.3008 36.3016C78.2876 37.2857 76.0035 38.685 74.9382 41.1857C74.225 42.8649 73.4125 45.4017 72.6903 47.6406C72.4285 48.4892 72.4014 48.6969 72.1577 49.4191Z" fill="#F4B821"/>
<path d="M26.7474 49.6269C26.6751 49.6269 26.6119 49.5817 26.5939 49.5185C26.3772 48.8776 26.1515 48.1734 25.9168 47.4602C25.2126 45.2845 24.4092 42.8109 23.6598 41.0504C22.5675 38.4956 20.2202 37.0782 18.0626 36.0219C17.9813 35.9858 17.9452 35.8865 17.9904 35.8053C18.0265 35.724 18.1258 35.6879 18.207 35.733C20.4189 36.8074 22.8293 38.2699 23.9668 40.924C24.7251 42.7025 25.5286 45.1762 26.2328 47.3609C26.4675 48.0741 26.6932 48.7692 26.9008 49.4192C26.9279 49.5005 26.8828 49.5998 26.8015 49.6269C26.7835 49.6269 26.7654 49.6269 26.7474 49.6269Z" fill="#F89E1C"/>
<path d="M80.4098 36.2563C80.0216 37.9355 79.5703 39.6237 79.0557 41.2939C77.9994 44.7425 75.4987 47.487 72.0771 49.5814C72.9619 46.9363 73.7022 43.9842 74.6952 41.646C75.8779 38.8925 78.505 37.1772 80.4098 36.2563Z" fill="#032663"/>
<path d="M78.0892 41.5019C78.4503 40.5269 78.7843 39.5519 79.1003 38.5679C78.0892 39.2179 77.051 40.1568 76.419 41.4658C75.742 42.8561 75.1461 44.5714 74.5322 46.2054C76.1392 44.9686 77.376 43.4068 78.0892 41.5019Z" fill="#0E51A0"/>
<path d="M72.2845 49.5645L71.9775 49.4652C72.2845 48.5534 72.5734 47.5874 72.8532 46.6575C73.3859 44.8881 73.9456 43.0644 74.5956 41.5207C75.7692 38.7582 78.3963 37.0248 80.3825 36.0498L80.5269 36.3387C78.5859 37.2866 76.0401 38.9658 74.8935 41.638C74.2435 43.1637 73.6928 44.9783 73.1602 46.7388C72.8803 47.6867 72.5914 48.6527 72.2845 49.5645Z" fill="#10319B"/>
<path d="M18.0635 36.2563C18.4517 37.9355 18.9031 39.6237 19.4177 41.2939C20.4739 44.7425 22.9746 47.487 26.3962 49.5814C25.5114 46.9363 24.7712 43.9842 23.7781 41.646C22.6045 38.8925 19.9683 37.1772 18.0635 36.2563Z" fill="#032663"/>
<path d="M50.1386 54.6647C49.8407 54.6647 49.5428 54.6647 49.2539 54.6557C37.4004 54.8363 22.4683 51.4508 19.3447 41.3126C16.5461 32.2306 13.3954 15.9263 23.6781 8.68599L23.7683 8.8214L23.6781 8.68599C25.4746 7.42209 29.8351 5.49916 30.0246 5.41791C30.0878 5.3818 37.7164 1.21094 49.0463 1.21094C60.4123 1.21094 68.2214 5.3186 68.3027 5.36374C70.8214 6.29361 73.0242 7.41306 74.8298 8.68599C85.1125 15.9263 81.9618 32.2306 79.1631 41.3036C76.1117 51.1981 61.8297 54.6647 50.1386 54.6647ZM49.2449 54.3307C49.5338 54.3307 49.8317 54.3397 50.1296 54.3397C61.7123 54.3397 75.8499 50.9362 78.8472 41.2133C81.6187 32.2215 84.7514 16.0798 74.6402 8.95682C72.8527 7.70195 70.677 6.59153 68.1672 5.66166C68.0679 5.60749 60.322 1.54497 49.0463 1.54497C37.8066 1.54497 30.2413 5.67069 30.1691 5.71583C30.1149 5.74291 25.6461 7.71098 23.8677 8.95682C13.7475 16.0708 16.8891 32.2215 19.6517 41.2133C22.7211 51.18 37.5177 54.5113 49.2449 54.3307Z" fill="#10319B"/>
<path d="M49.2538 52.9771C43.5482 53.0583 37.8517 52.3451 32.9947 50.7833C32.2454 50.5396 31.5683 50.0882 31.0988 49.4562C30.2954 48.3909 29.6634 47.1361 29.2391 45.7368C27.8308 40.9881 26.2509 34.3346 25.646 26.8686C25.3481 23.1943 27.4697 19.863 30.512 19.1498C34.6648 18.1748 41.0746 17.0463 48.6851 16.929V16.9199C48.9017 16.9199 49.1094 16.9199 49.326 16.929C49.5427 16.929 49.7504 16.9199 49.967 16.9199V16.929C57.5775 17.0463 63.9782 18.1748 68.14 19.1498C71.1915 19.863 73.304 23.1943 73.0061 26.8686C72.3922 34.3346 70.8213 40.9881 69.413 45.7368C68.9977 47.1271 68.3748 48.3639 67.5803 49.4201C67.1289 50.025 66.497 50.4583 65.7838 50.693C60.8546 52.3271 55.0587 53.0674 49.2538 52.9771Z" fill="#FCE8CA"/>
<path d="M48.1713 54.475C41.59 54.475 35.433 53.4909 30.3142 51.6131L30.2781 51.6041L30.251 51.577C28.9149 50.1416 27.9038 48.318 27.317 46.3048C25.9176 41.4478 24.094 33.8554 23.4079 25.2699C23.0739 21.09 25.394 17.3254 28.8156 16.5039C33.4107 15.4025 53.8137 12.1705 69.6936 16.5039C73.0971 17.4338 75.4173 21.1984 75.0923 25.2699C74.4061 33.8554 72.5915 41.4478 71.1832 46.3048C70.6145 48.2819 69.6214 50.0784 68.3304 51.4958L68.3033 51.5229L68.2672 51.5409C62.9227 53.5451 56.1428 54.5923 49.1733 54.484C48.8393 54.475 48.5053 54.475 48.1713 54.475ZM49.1824 54.1409C56.0977 54.2493 62.8144 53.2111 68.1228 51.234C69.3686 49.8527 70.3256 48.1194 70.8763 46.2055C72.2756 41.3665 74.0902 33.7922 74.7673 25.2338C75.0832 21.3157 72.8624 17.6956 69.6033 16.8108C53.7866 12.4955 33.4649 15.7185 28.8878 16.8108C25.6288 17.5963 23.4079 21.2164 23.7329 25.2338C24.419 33.7922 26.2246 41.3665 27.6239 46.2055C28.1927 48.1645 29.1677 49.934 30.4586 51.3242C35.7219 53.2382 42.3664 54.2493 49.1824 54.1409Z" fill="#10319B"/>
<path d="M26.251 49.4559C25.953 48.5712 25.6732 47.6503 25.4023 46.7566C24.8697 45.0052 24.31 43.1996 23.6509 41.6468C22.5134 38.9746 19.9586 37.2864 18.0176 36.3475L18.162 36.0586C20.1481 37.0246 22.7662 38.7579 23.9489 41.5295C24.6169 43.0913 25.1767 44.9149 25.7093 46.6663C25.9801 47.5601 26.26 48.4809 26.5579 49.3566L26.251 49.4559Z" fill="#10319B"/>
<path d="M75.6338 36.1857L79.8137 33.7482C79.8137 33.7482 81.0054 21.7411 77.1234 16.2793L76.0039 19.7189C76.0039 19.7189 77.8005 22.3279 75.6338 36.1857Z" fill="#F4B821"/>
<ellipse cx="49.4972" cy="44.8531" rx="2.2238" ry="3.05773" fill="#032663"/>
<path d="M35.1727 28.8322C35.2257 28.8233 35.2787 28.7968 35.3229 28.7526C36.0035 28.1604 36.8961 27.9218 37.7799 28.1074C37.9744 28.1516 38.16 28.0279 38.1953 27.8334C38.2395 27.639 38.1158 27.4534 37.9214 27.418C36.8166 27.1882 35.703 27.4799 34.8545 28.2223C34.7042 28.3549 34.6954 28.5758 34.8191 28.7261C34.9164 28.8233 35.0489 28.8587 35.1727 28.8322Z" fill="#032663"/>
<path d="M63.5619 28.8322C63.5089 28.8233 63.4559 28.7968 63.4117 28.7526C62.7311 28.1604 61.8385 27.9218 60.9546 28.1074C60.7602 28.1516 60.5746 28.0279 60.5392 27.8334C60.495 27.639 60.6188 27.4534 60.8132 27.418C61.918 27.1882 63.0316 27.4799 63.8801 28.2223C64.0303 28.3549 64.0392 28.5758 63.9154 28.7261C63.8271 28.8233 63.6856 28.8587 63.5619 28.8322Z" fill="#032663"/>
<path d="M44.0654 37.9248C43.9947 38.1192 43.9063 38.3137 43.8002 38.4905L37.5781 39.0207C37.4455 38.8617 37.3306 38.6849 37.2334 38.4993L44.0654 37.9248Z" fill="#0052A3"/>
<path d="M44.2685 37.1558C44.2419 37.3502 44.1978 37.5358 44.1447 37.7126L37.1272 38.3136C37.0476 38.1456 36.9769 37.9689 36.915 37.7833L44.2685 37.1558Z" fill="#0052A3"/>
<path d="M44.2688 35.6367L44.3041 36.1847L36.7297 36.8299L36.6855 36.2907L44.2688 35.6367Z" fill="#0052A3"/>
<path d="M44.3126 36.3955C44.3214 36.5811 44.3126 36.7667 44.2949 36.9435L36.8443 37.5798C36.8001 37.4031 36.7647 37.2263 36.7471 37.0407L44.3126 36.3955Z" fill="#0052A3"/>
<path d="M42.952 39.5342C42.6426 39.7993 42.298 40.0114 41.9179 40.1705L39.7172 40.3561C39.3195 40.2678 38.9394 40.1087 38.5947 39.9054L42.952 39.5342Z" fill="#0052A3"/>
<path d="M43.0928 30.9871L37.1182 31.4997C37.2507 31.2876 37.4098 31.0932 37.5778 30.9164L42.5537 30.4922C42.7481 30.6336 42.9337 30.8015 43.0928 30.9871Z" fill="#0052A3"/>
<path d="M43.6677 38.7212C43.5263 38.9333 43.3672 39.1277 43.1993 39.3045L38.3029 39.7199C38.0996 39.5697 37.914 39.4017 37.7461 39.2161L43.6677 38.7212Z" fill="#0052A3"/>
<path d="M41.2191 29.8472C41.5992 29.9444 41.9527 30.0946 42.2797 30.3068L37.8164 30.6868C38.1081 30.4305 38.4351 30.2184 38.7975 30.0593L41.2191 29.8472Z" fill="#0052A3"/>
<path d="M43.703 31.9062C43.7826 32.0742 43.8533 32.2509 43.9063 32.4365L36.5264 33.0641C36.5529 32.8696 36.5971 32.684 36.6501 32.5072L43.703 31.9062Z" fill="#0052A3"/>
<path d="M43.9683 32.6411C44.0125 32.8179 44.0478 32.9946 44.0655 33.1802L36.4999 33.8254C36.4911 33.6398 36.4911 33.4542 36.5088 33.2775L43.9683 32.6411Z" fill="#0052A3"/>
<path d="M43.2698 31.1821C43.3935 31.3412 43.5084 31.518 43.6057 31.7036L36.7295 32.2869C36.8002 32.0925 36.8797 31.898 36.9858 31.7213L43.2698 31.1821Z" fill="#0052A3"/>
<path d="M44.1447 34.1343L44.1889 34.6822L36.6145 35.3274L36.5703 34.7795L44.1447 34.1343Z" fill="#0052A3"/>
<path d="M44.092 33.3828L44.1274 33.9308L36.553 34.576L36.5088 34.028L44.092 33.3828Z" fill="#0052A3"/>
<path d="M44.2072 34.8853L44.2514 35.4332L36.6682 36.0784L36.6328 35.5304L44.2072 34.8853Z" fill="#0052A3"/>
<path d="M61.8321 38.3322C61.7349 38.5178 61.6288 38.7034 61.5051 38.8714L55.2565 38.6769C55.1504 38.5002 55.0532 38.3146 54.9736 38.1201L61.8321 38.3322Z" fill="#0052A3"/>
<path d="M62.1241 37.5896C62.0711 37.7752 62.0092 37.952 61.9297 38.1287L54.8856 37.9166C54.8237 37.7399 54.7707 37.5543 54.7354 37.3687L62.1241 37.5896Z" fill="#0052A3"/>
<path d="M62.2915 36.0784L62.265 36.6264L54.6641 36.3966L54.6906 35.8486L62.2915 36.0784Z" fill="#0052A3"/>
<path d="M62.2561 36.8387C62.2384 37.0243 62.2207 37.2011 62.1765 37.3779L54.7082 37.1481C54.6817 36.9713 54.6729 36.7857 54.6729 36.6001L62.2561 36.8387Z" fill="#0052A3"/>
<path d="M60.5322 39.7996C60.1963 40.0294 59.8251 40.1973 59.4274 40.3122L57.2178 40.2415C56.8289 40.1089 56.4754 39.9056 56.1572 39.667L60.5322 39.7996Z" fill="#0052A3"/>
<path d="M61.6642 31.3238L55.6719 31.147C55.831 30.9526 56.0077 30.7758 56.1933 30.6167L61.1781 30.767C61.3637 30.9349 61.5228 31.1205 61.6642 31.3238Z" fill="#0052A3"/>
<path d="M61.3456 39.0747C61.1865 39.2692 61.0009 39.4459 60.8064 39.605L55.9012 39.4548C55.7156 39.2868 55.5565 39.1012 55.4062 38.8979L61.3456 39.0747Z" fill="#0052A3"/>
<path d="M59.9314 29.9716C60.2938 30.113 60.6385 30.3075 60.939 30.5461L56.458 30.4047C56.7762 30.1838 57.1297 30.007 57.5009 29.8921L59.9314 29.9716Z" fill="#0052A3"/>
<path d="M62.1683 32.304C62.2302 32.4807 62.2744 32.6663 62.3097 32.8519L54.9121 32.6221C54.9651 32.4365 55.027 32.2598 55.0977 32.083L62.1683 32.304Z" fill="#0052A3"/>
<path d="M62.3448 33.0642C62.3713 33.241 62.3801 33.4266 62.3801 33.6122L54.7881 33.3824C54.7969 33.1968 54.8234 33.02 54.8588 32.8433L62.3448 33.0642Z" fill="#0052A3"/>
<path d="M61.8142 31.5357C61.9202 31.7125 62.0086 31.8981 62.0882 32.0926L55.1943 31.8804C55.2916 31.6948 55.3888 31.5092 55.5125 31.3413L61.8142 31.5357Z" fill="#0052A3"/>
<path d="M62.3442 34.576L62.3265 35.1151L54.7256 34.8853L54.7433 34.3462L62.3442 34.576Z" fill="#0052A3"/>
<path d="M62.3803 33.8241L62.3538 34.3632L54.7529 34.1334L54.7794 33.5854L62.3803 33.8241Z" fill="#0052A3"/>
<path d="M62.3178 35.3265L62.3001 35.8744L54.6992 35.6358L54.7169 35.0967L62.3178 35.3265Z" fill="#0052A3"/>
<path d="M80.7316 64.387C77.5282 60.4922 69.2745 51.8653 55.6838 46.9979C54.3553 46.5252 53.1014 47.8601 53.647 49.1571L54.0691 50.1723C58.3827 60.4485 68.6324 66.9613 79.7724 66.5084C80.85 66.4706 81.4129 65.2235 80.7316 64.387Z" fill="#F5851F"/>
<path d="M79.7706 66.5088C80.838 66.4648 81.4009 65.2178 80.7298 64.3874C77.9143 60.9598 71.1885 53.8684 60.3584 48.9114C69.3191 54.4893 75.7597 63.4097 77.834 66.5204C78.4803 66.5308 79.1265 66.5413 79.7706 66.5088Z" fill="#F89E1C"/>
<path d="M61.7684 50.3197C62.0371 49.869 62.2839 49.6413 62.3185 49.6065L62.8971 50.2429L62.616 49.9226L62.9134 50.2387C62.8787 50.2736 59.2721 54.1346 66.6792 63.5063L65.119 62.84C59.3471 55.3594 60.8586 51.8458 61.7684 50.3197Z" fill="#F89E1C"/>
<path d="M58.8859 48.241C58.8859 48.241 54.6727 50.9769 58.8324 57.4826C58.8324 57.4826 52.9335 50.6342 53.9025 47.658C53.9025 47.658 54.5372 45.7319 58.8859 48.241Z" fill="#032663"/>
<path d="M53.5586 47.6053C53.6319 47.4824 53.7093 47.3759 53.8133 47.2713C54.3231 46.7422 55.0587 46.5561 55.7568 46.8056C69.5665 51.748 77.9437 60.6568 80.8967 64.2497C81.2599 64.6883 81.3434 65.2934 81.1118 65.8217C80.8802 66.3499 80.3679 66.697 79.7892 66.713C68.6165 67.1742 58.209 60.5534 53.8872 50.2445L53.4651 49.2294C53.2264 48.6983 53.2655 48.097 53.5586 47.6053ZM80.6556 65.7718C80.68 65.7309 80.6984 65.7001 80.7125 65.6531C80.8853 65.2701 80.8309 64.849 80.5662 64.5246C77.6276 60.9542 69.3201 52.1148 55.6148 47.2069C55.0887 47.0182 54.5226 47.1527 54.1229 47.5669C53.7396 47.977 53.6268 48.5622 53.845 49.081L54.2672 50.0962C58.521 60.2396 68.7707 66.7525 79.7614 66.2938C80.1417 66.2845 80.4663 66.0893 80.6556 65.7718Z" fill="#10319B"/>
<path d="M57.6541 49.3945C58.1731 48.5239 58.7403 48.0847 58.7567 48.0806L59.0092 48.4254C58.8562 48.5424 55.1526 51.4017 58.9122 57.4606L58.5427 57.6845C56.0404 53.6384 56.7687 50.8797 57.6541 49.3945Z" fill="#10319B"/>
<path d="M61.4727 50.3508C61.7352 49.9103 61.9759 49.6929 62.0106 49.658L62.2917 49.9783C62.257 50.0131 58.4859 53.5679 65.283 62.7286L64.9381 62.9811C59.5123 55.6652 60.6057 51.8052 61.4727 50.3508Z" fill="#10319B"/>
</g>
</svg>
