<svg width="100" height="100" viewBox="0 0 100 100" fill="none" xmlns="http://www.w3.org/2000/svg">
<mask id="mask0_18564_43034" style="mask-type:alpha" maskUnits="userSpaceOnUse" x="0" y="0" width="100" height="100">
<rect width="100" height="100" fill="#D9D9D9"/>
</mask>
<g mask="url(#mask0_18564_43034)">
<path d="M68.9419 69.7436C73.3056 61.866 68.5436 52.0499 59.648 50.6514L56.2049 50.1115C56.1783 50.1115 56.1606 50.1026 56.1341 50.0938L47.5483 48.7484L39.0068 47.1286C38.9803 47.1197 38.9626 47.1197 38.936 47.1197L35.5106 46.4736C26.6593 44.8007 18.879 52.4482 20.3395 61.3349C20.8175 64.2381 21.4017 66.9555 22.0478 69.5135C22.3842 71.0005 22.8621 72.6557 23.4198 74.3728C25.8096 82.0734 28.6951 88.0746 30.8637 92.9517C30.9433 93.1376 31.0407 93.3234 31.1292 93.5093C32.5808 96.6427 35.5814 98.5368 38.8387 99.0591C42.0871 99.6698 45.5479 98.8909 47.9643 96.4302C48.1148 96.2886 48.2653 96.147 48.4069 95.9965C52.0802 92.1374 56.8156 87.4462 61.6573 80.9936C62.7549 79.5597 63.7639 78.1612 64.5782 76.8777C66.0564 74.6826 67.5168 72.3193 68.9419 69.7436Z" fill="#F89E1C"/>
<path d="M51.0435 84.1625C54.2742 79.905 50.0344 75.8688 44.1837 78.0285C37.2089 80.5954 33.7393 78.3029 30.721 70.5492C28.2692 64.2559 22.9938 64.849 21.0996 65.3004C21.4094 66.7874 21.7369 68.2213 22.091 69.6021C22.4273 71.0891 22.9053 72.7443 23.4629 74.4615C25.8528 82.1621 28.7382 88.1632 30.9068 93.0403C30.9865 93.2262 31.0838 93.412 31.1724 93.5979C32.624 96.7313 35.6246 98.6255 38.8818 99.1477C42.1302 99.7584 45.5911 98.9795 48.0075 96.5188C48.158 96.3772 48.3084 96.2356 48.4501 96.0851C49.6538 94.8283 50.9639 93.474 52.3624 92.0047C49.9194 91.155 47.9278 88.2783 51.0435 84.1625Z" fill="#032663"/>
<path d="M38.6523 99.2544C35.2091 98.6613 32.3502 96.5724 30.9959 93.6515C30.9074 93.4745 30.81 93.2886 30.7304 93.0939C30.4206 92.3946 30.0931 91.66 29.7479 90.9076C27.7741 86.5351 25.3223 81.0916 23.2776 74.4885C22.6846 72.6651 22.2243 71.0188 21.9057 69.6203C21.5516 68.2218 21.2152 66.7702 20.9143 65.3186L20.8789 65.1681L21.0294 65.1327C23.1537 64.6282 28.3671 64.1502 30.8366 70.4789C33.9168 78.4008 37.3865 80.3392 44.0958 77.8608C47.6629 76.542 50.4245 77.5333 51.5929 79.1C52.655 80.5428 52.4868 82.4635 51.1414 84.2426C49.7783 86.0483 49.2915 87.7654 49.7341 89.2347C50.097 90.412 51.0883 91.3856 52.3806 91.8282L52.6196 91.9078L52.4514 92.0848C51.6725 92.908 50.9113 93.6958 50.1855 94.4481C49.619 95.0412 49.0702 95.6076 48.5392 96.1653C48.3975 96.3158 48.2471 96.4662 48.0966 96.599C45.8041 98.9357 42.3521 99.9448 38.8293 99.2721C38.7673 99.2809 38.7142 99.2721 38.6523 99.2544ZM38.8824 98.9711C42.299 99.6173 45.6536 98.6436 47.8753 96.3866C48.0258 96.2449 48.1763 96.1033 48.309 95.9617C48.8401 95.4041 49.3889 94.8376 49.9554 94.2446C50.6281 93.5453 51.3273 92.8107 52.0531 92.0583C50.7697 91.5449 49.8049 90.5447 49.4332 89.3409C49.0968 88.2522 49.0791 86.4466 50.8936 84.0656L51.0175 84.1629L50.8936 84.0656C52.1505 82.4015 52.3187 80.6224 51.345 79.3036C50.2563 77.8343 47.6275 76.9138 44.2198 78.1706C37.3866 80.6932 33.6867 78.6398 30.5533 70.6028C28.2343 64.6459 23.4015 64.9468 21.2684 65.4159C21.5604 66.8144 21.8791 68.2041 22.2243 69.5583C22.543 70.9568 23.0032 72.5855 23.5874 74.4088C25.6321 80.9942 28.075 86.4289 30.04 90.7926C30.3763 91.5449 30.7038 92.2707 31.0225 92.9788C31.1021 93.1647 31.1907 93.3417 31.288 93.5276C32.6157 96.3954 35.457 98.4401 38.8824 98.9711Z" fill="#10319B"/>
<path d="M38.9799 99.3159C38.918 99.3071 38.8649 99.2982 38.8029 99.2805C35.2801 98.7317 32.3503 96.6163 30.9784 93.6422C30.8899 93.4652 30.7925 93.2793 30.7129 93.0846C30.4031 92.3854 30.0756 91.6507 29.7304 90.8983C27.7565 86.5258 25.3047 81.0823 23.2601 74.4792C22.667 72.6559 22.2068 71.0095 21.8881 69.611C21.2066 66.9202 20.6313 64.1675 20.1798 61.4236C19.4717 57.1219 20.8525 52.9086 23.9682 49.8727C27.0661 46.8455 31.2705 45.5886 35.5368 46.3853L38.9622 47.0314L39.0331 47.0402L47.5746 48.66L56.1603 50.0054L56.2046 50.0143L59.6742 50.5542C63.9582 51.2269 67.4988 53.838 69.4018 57.7237C71.3137 61.636 71.1986 66.0616 69.092 69.8766C67.7466 72.3018 66.2773 74.7094 64.7283 77.0195C63.9583 78.2322 62.9758 79.6218 61.7985 81.1442C57.6561 86.6763 53.5138 90.978 50.1945 94.43C49.6192 95.023 49.0704 95.5984 48.5393 96.156C48.3977 96.3065 48.2472 96.457 48.0968 96.5897C45.822 98.9088 42.4319 99.909 38.9799 99.3159ZM38.8649 98.9707C42.2815 99.6169 45.6361 98.6432 47.8578 96.3861C48.0082 96.2445 48.1587 96.1029 48.2915 95.9613C48.8226 95.4036 49.3713 94.8283 49.9467 94.2353C53.2659 90.7833 57.3994 86.4904 61.533 80.9761C62.7014 79.4536 63.6839 78.0728 64.4451 76.8691C65.9941 74.5677 67.4545 72.169 68.7999 69.7526C70.8623 66.0262 70.9685 61.7068 69.1097 57.8919C67.2509 54.1036 63.7813 51.5544 59.6212 50.8994L56.178 50.3595L56.1337 50.3506L47.5126 48.9964L38.9622 47.3766L38.8914 47.3677L35.466 46.7216C31.3236 45.9427 27.1989 47.173 24.1806 50.1205C21.1446 53.0857 19.7992 57.1927 20.4896 61.397C20.941 64.1232 21.5164 66.876 22.1979 69.5579C22.5166 70.9564 22.9768 72.585 23.561 74.4084C25.6056 80.9938 28.0486 86.4284 30.0136 90.7921C30.35 91.5445 30.6774 92.2703 30.9961 92.9784C31.0757 93.1643 31.1643 93.3413 31.2616 93.5272C32.5982 96.3861 35.4395 98.4308 38.8649 98.9707Z" fill="#10319B"/>
<path d="M66.9579 56.7045C65.0814 54.4121 62.4703 52.7834 59.3192 52.2877L55.8584 51.7478C55.8318 51.7478 55.8141 51.739 55.7875 51.7301L47.1575 50.3936L38.5718 48.7561C38.5452 48.7472 38.5276 48.7472 38.501 48.7472L35.0579 48.0922C30.287 47.1805 27.1006 50.1723 24.1619 53.7217C23.4981 54.5183 23.799 55.7574 24.7373 56.1203C32.6326 59.1475 50.8839 64.1573 66.9579 56.7045Z" fill="#E26907"/>
<path d="M29.5523 6.24331C31.5084 5.31393 33.7743 4.62353 36.2262 4.16326L36.0757 4.17211C36.0757 4.17211 44.1835 1.36626 55.2122 3.26928C66.2054 5.17231 73.0032 10.43 73.0475 10.4654C75.2692 11.7577 77.2165 13.1916 78.7831 14.7582C86.3421 22.3084 83.3858 35.2136 77.4909 46.8264C73.198 55.2794 59.4962 57.0939 46.5379 54.6421C33.5088 52.5886 21.2055 46.2777 20.0018 36.8776C18.3466 23.9547 19.8867 10.8194 29.5523 6.24331Z" fill="#F89E1C"/>
<path d="M40.5553 75.8315C39.7321 75.6898 38.9444 75.3446 38.254 74.8047C36.7935 73.654 36.0677 71.8749 36.3333 70.025L37.838 59.4654C38.1035 57.6244 39.2896 56.1108 41.0156 55.4115C42.7416 54.7211 44.6446 54.9867 46.1139 56.1374L54.5669 62.767C55.9831 63.8734 56.7 65.5994 56.4876 67.3873C56.2752 69.1753 55.1777 70.68 53.549 71.4235C53.4959 71.4501 53.4428 71.4678 53.3897 71.4943L53.3189 71.5209L43.3523 75.5305C42.4406 75.8934 41.4758 75.9908 40.5553 75.8315ZM43.6975 55.739C42.892 55.5974 42.0512 55.6859 41.2457 56.0046C39.7322 56.6153 38.6966 57.943 38.4664 59.5539L36.9617 70.1135C36.7316 71.7245 37.36 73.2911 38.6435 74.3002C39.9269 75.3092 41.5909 75.5394 43.1045 74.9375L53.133 70.9013C53.1772 70.8836 53.2215 70.8659 53.2746 70.8393C54.6997 70.1932 55.6556 68.8744 55.8415 67.3077C56.0274 65.7498 55.3989 64.2363 54.1597 63.2715L45.7068 56.6419C45.1137 56.1639 44.4233 55.863 43.6975 55.739Z" fill="#F89E1C"/>
<path d="M40.5009 75.9041C39.6866 75.7624 38.9076 75.4172 38.2172 74.8862C36.7656 73.7443 36.0487 71.9741 36.3142 70.1507L37.8543 59.3345C38.111 57.5111 39.2883 56.0064 41.0054 55.316C42.7225 54.6256 44.6079 54.9 46.0595 56.0329L54.7249 62.8219C56.1234 63.9194 56.8403 65.6366 56.6279 67.398C56.4155 69.1682 55.3268 70.6641 53.7159 71.3988C53.6627 71.4253 53.6097 71.443 53.5565 71.4696L53.4946 71.4961L43.2802 75.6031C42.3685 75.966 41.4126 76.0634 40.5009 75.9041ZM43.7228 55.3248C42.8642 55.1744 41.9702 55.2629 41.1205 55.6081C39.5184 56.2542 38.412 57.6616 38.1641 59.3787L36.624 70.195C36.3762 71.9121 37.0489 73.5673 38.412 74.6383C39.7751 75.7093 41.5453 75.9572 43.1474 75.311L53.4238 71.1775C53.4769 71.1598 53.5211 71.1332 53.5742 71.1155C55.0878 70.4251 56.1057 69.0266 56.3004 67.3626C56.4952 65.7074 55.8313 64.1053 54.5213 63.0697L45.8559 56.2808C45.2186 55.7762 44.484 55.4576 43.7228 55.3248Z" fill="#10319B"/>
<path d="M29.5444 6.28819C30.5712 5.80137 31.6864 5.37651 32.8637 5.02246C23.3662 9.68709 21.8438 22.7693 23.4902 35.6302C24.6939 45.048 36.9884 51.3678 50.0175 53.4213C57.3906 54.8109 64.9938 54.8198 70.9773 53.0141C64.6663 56.1298 55.4167 56.4661 46.5123 54.7844C33.4833 52.7309 21.1888 46.4111 19.985 36.9933C18.3298 24.0439 19.8788 10.882 29.5444 6.28819Z" fill="#F5851F"/>
<path d="M31.6687 17.9092C26.5792 15.9 27.6856 7.42046 27.7387 7.06641L28.3672 7.15492C28.3583 7.23458 27.2785 15.4928 31.8988 17.3162L31.6687 17.9092Z" fill="#F89E1C"/>
<path d="M71.6763 25.1501L71.6055 24.5128C77.1198 23.902 78.8989 15.4136 78.9166 15.334L79.545 15.4579C79.4654 15.8297 77.6509 24.4862 71.6763 25.1501Z" fill="#F4B821"/>
<path d="M54.3008 10.8015C51.3444 10.2881 48.7598 8.84533 47.441 6.93345C47.3968 6.87149 47.3525 6.80954 47.3171 6.74758L44.998 3.01234L45.8124 2.50781L48.1314 6.24305C48.1668 6.29616 48.1934 6.34042 48.2376 6.39353C49.5211 8.24344 52.1764 9.61539 55.1859 9.96059C58.1068 10.2969 60.8065 9.64195 62.4085 8.19919L64.9223 5.93326L65.5596 6.64136L63.0281 8.91614C61.2225 10.5359 58.2484 11.2883 55.0531 10.9165C54.8053 10.8811 54.5486 10.8457 54.3008 10.8015Z" fill="#F4B821"/>
<path d="M53.7004 14.2076C49.7793 13.5261 46.4601 11.5965 44.6013 8.90571C44.5305 8.80835 44.4686 8.71099 44.4066 8.61362L44.3358 8.49856L41.1582 3.37366L41.9725 2.86914L45.2209 8.10025C45.274 8.18876 45.336 8.27727 45.398 8.36579C47.1151 10.8441 50.2042 12.6321 53.8775 13.2694C54.1784 13.3225 54.4794 13.3668 54.7892 13.4022C58.7368 13.8624 62.357 12.9065 64.7203 10.7733L68.3139 7.54262L68.9512 8.25072L65.3576 11.4814C62.7907 13.7916 58.8961 14.8361 54.6741 14.3493C54.3377 14.305 54.0191 14.2607 53.7004 14.2076Z" fill="#F4B821"/>
<path d="M77.8813 16.9616C76.3147 15.3861 74.3674 13.9345 72.1457 12.6422C72.1015 12.6068 65.3833 6.73839 54.3901 4.83536C47.1586 3.58733 40.6263 3.69355 36.9707 3.92368C39.3694 3.25983 46.3442 1.72856 55.2043 3.25983C66.1976 5.16286 72.9954 10.4559 73.0397 10.4913C75.2613 11.7836 77.2087 13.2352 78.7753 14.8108C85.5112 21.5908 83.8648 32.6726 79.2356 43.2942C83.1567 33.3542 84.1658 23.2903 77.8813 16.9616Z" fill="#F4B821"/>
<path d="M72.2608 24.812L72.252 24.4934C77.3503 24.3252 79.3949 15.6598 79.4126 15.5713L79.7224 15.6421C79.6428 16.005 77.5981 24.635 72.2608 24.812Z" fill="#10319B"/>
<path d="M65.0194 11.0939L68.613 7.86317C67.6394 7.3498 66.5064 6.80102 65.223 6.26994L62.7092 8.53587C61.0098 10.0671 58.1685 10.7752 55.1148 10.4212C51.9815 10.0583 49.1933 8.61553 47.8302 6.65055C47.786 6.59744 47.7506 6.53548 47.7152 6.47352L45.3961 2.73828C43.9711 2.80909 42.6788 2.94186 41.5547 3.10118L44.7323 8.22608L44.8031 8.34114C44.865 8.43851 44.927 8.52702 44.989 8.62438C46.7769 11.209 50.0165 13.0766 53.7783 13.7227C54.0881 13.7758 54.3979 13.8201 54.7165 13.8555C58.797 14.3158 62.5588 13.3156 65.0194 11.0939Z" fill="#032663"/>
<path d="M32.1991 17.8825C27.2335 15.9175 28.1541 7.19011 28.1984 6.81836L28.517 6.85376C28.5081 6.94228 27.5787 15.7139 32.323 17.5815L32.1991 17.8825Z" fill="#10319B"/>
<path d="M46.4775 54.5075C40.0338 53.4897 33.767 51.4893 28.7838 48.6214C27.7747 47.0813 27.0843 45.196 26.8542 43.116C26.2612 37.7609 25.8452 30.3436 26.5887 22.2181C26.9516 18.2173 29.7928 15.0308 33.1209 14.8184C37.6528 14.5263 44.5745 14.4821 52.576 15.7301V15.7212C52.7973 15.7566 53.0186 15.8009 53.2399 15.8452C53.4612 15.8806 53.6825 15.916 53.9126 15.9514V15.9602C61.861 17.4649 68.2428 19.6069 72.4206 21.4038C75.4831 22.7226 77.2092 26.9093 76.209 30.795C74.182 38.6992 71.2965 45.5501 68.9421 50.3917C68.0392 52.2416 66.8001 53.7552 65.3661 54.8616C59.6482 55.9415 52.9744 55.7379 46.4775 54.5075Z" fill="#032663"/>
<path d="M69.5175 53.5321L68.1367 54.0012C68.4908 53.3462 69.0838 52.2309 69.491 51.452C70.5708 49.3897 71.7834 47.0529 72.7836 45.5128C74.3857 43.0256 77.9085 41.5652 80.1745 40.9102L79.5726 42.2201C77.466 42.8309 75.023 43.8045 73.5803 46.0351C72.6066 47.5398 71.4029 49.8499 70.3319 51.8946C69.9336 52.6824 69.8716 52.8771 69.5175 53.5321Z" fill="#F4B821"/>
<path d="M25.6044 46.1538C25.5424 46.145 25.4805 46.0919 25.4716 46.0211C25.3743 45.3661 25.268 44.6491 25.1618 43.9233C24.8432 41.7016 24.4803 39.179 24.0554 37.3468C23.427 34.6914 21.3912 32.93 19.4882 31.5581C19.4173 31.505 19.3996 31.4076 19.4528 31.3368C19.5059 31.266 19.6032 31.2483 19.674 31.3014C21.6302 32.7087 23.7191 34.5233 24.3652 37.276C24.7989 39.1171 25.1618 41.6485 25.4805 43.8791C25.5867 44.6137 25.6841 45.3218 25.7903 45.9768C25.7991 46.0653 25.746 46.145 25.6575 46.1627C25.6398 46.1627 25.6221 46.1627 25.6044 46.1538Z" fill="#F89E1C"/>
<path d="M79.6865 42.1992C79.0315 43.757 78.3146 45.306 77.5357 46.8373C75.9424 49.9883 73.0657 52.2277 69.4102 53.6705C70.7024 51.2629 71.9151 48.5367 73.2693 46.439C74.8626 43.996 77.6861 42.7834 79.6865 42.1992Z" fill="#032663"/>
<path d="M76.563 46.8801C77.0763 46.0038 77.5632 45.1099 78.0323 44.207C76.9436 44.6673 75.7929 45.402 74.952 46.5615C74.0669 47.7918 73.2083 49.3496 72.332 50.8278C74.1023 49.9073 75.5628 48.6061 76.563 46.8801Z" fill="#0E51A0"/>
<path d="M69.6133 53.7043L69.3301 53.5539C69.7726 52.7218 70.224 51.8367 70.6489 50.987C71.4632 49.3672 72.3041 47.6943 73.1981 46.3135C74.8002 43.844 77.6149 42.6048 79.7038 42.0029L79.7923 42.3127C77.7565 42.8969 75.0126 44.1007 73.4636 46.4905C72.5785 47.8536 71.7465 49.5177 70.9322 51.1286C70.4985 51.9872 70.0559 52.8723 69.6133 53.7043Z" fill="#10319B"/>
<path d="M19.4531 31.7803C19.5505 33.4709 19.701 35.1703 19.9134 36.8698C20.356 40.3749 22.3121 43.4463 25.2684 46.0397C24.8613 43.3401 24.6311 40.366 24.0647 37.9319C23.392 35.0907 21.1349 33.0018 19.4531 31.7803Z" fill="#032663"/>
<path d="M47.361 54.9254C47.0689 54.8723 46.7857 54.8281 46.5024 54.775C35.0223 52.9693 21.1612 47.1983 19.8424 36.8865C18.6563 27.6547 18.3377 11.3772 29.4814 6.10179L29.5522 6.24341L29.4814 6.10179C31.4287 5.18126 35.9606 4.04829 36.1553 4.00403C36.2173 3.97748 44.2896 1.22473 55.2387 3.11891C66.2143 5.02193 73.0828 10.2884 73.1448 10.3416C75.4196 11.6604 77.358 13.112 78.8981 14.6433C87.6255 23.3529 81.8545 38.5771 77.6324 46.8796C73.0386 55.9168 58.6553 56.8816 47.361 54.9254ZM46.5556 54.4563C46.8388 54.5094 47.122 54.5625 47.4141 54.6068C58.611 56.5452 72.835 55.6159 77.3492 46.7292C81.527 38.5063 87.2537 23.4326 78.668 14.8646C77.1544 13.351 75.2337 11.9171 72.9678 10.5982C72.8793 10.5363 66.0815 5.30517 55.1856 3.41985C44.325 1.54338 36.3323 4.26957 36.2527 4.29613C36.1907 4.31383 31.5438 5.4645 29.623 6.37618C18.6651 11.563 18.9927 27.6901 20.161 36.8334C21.4622 46.977 35.1905 52.6684 46.5556 54.4563Z" fill="#10319B"/>
<path d="M46.7875 53.1546C41.2643 52.2871 35.8739 50.6408 31.4482 48.3218C30.7578 47.9589 30.1914 47.4101 29.8373 46.7197C29.2443 45.5602 28.8371 44.2413 28.6689 42.8163C28.1024 37.9923 27.6864 31.3007 28.3503 23.9896C28.6778 20.3871 31.2801 17.5193 34.3426 17.3423C38.5204 17.0944 44.8933 17.0767 52.2665 18.2362V18.2274C52.47 18.2628 52.6736 18.2982 52.8772 18.3425C53.0808 18.3779 53.2843 18.4044 53.4968 18.4398V18.4487C60.8256 19.8295 66.8268 21.998 70.6771 23.6267C73.5007 24.8216 74.9966 28.3975 74.0937 31.9026C72.2527 39.0191 69.6238 45.1795 67.4641 49.5344C66.8356 50.809 66.0213 51.8977 65.0831 52.7917C64.5432 53.2962 63.8616 53.6148 63.127 53.721C58.1083 54.4557 52.3815 54.2079 46.7875 53.1546Z" fill="#FCE8CA"/>
<path d="M36.212 36.8858C36.1457 36.8703 36.0795 36.8549 36.0132 36.8245C35.5419 36.6191 35.3204 36.0648 35.5185 35.5885C36.5239 33.1624 38.8481 31.9041 41.4394 32.3802C43.9644 32.8409 45.8733 35.0065 45.9868 37.5163C46.0095 38.0391 45.6126 38.469 45.0974 38.4873C44.5822 38.5056 44.1548 38.099 44.1321 37.5762C44.0715 36.1719 43.0171 34.5731 41.1252 34.222C39.3878 33.902 37.8947 34.704 37.227 36.3189C37.0508 36.7357 36.6242 36.9563 36.212 36.8858Z" fill="#0E51A0"/>
<path d="M54.8682 40.1729C54.802 40.1574 54.7357 40.1419 54.6694 40.1115C54.1982 39.9062 53.9767 39.3519 54.1748 38.8756C55.1801 36.4495 57.5043 35.1912 60.0956 35.6673C62.6206 36.128 64.5295 38.2936 64.643 40.8034C64.6657 41.3262 64.2688 41.7636 63.7536 41.7819C63.2385 41.8002 62.8037 41.3935 62.781 40.8706C62.7204 39.4664 61.666 37.8676 59.774 37.5165C58.0367 37.1965 56.5436 37.9985 55.8759 39.6134C55.7071 40.0302 55.2878 40.2509 54.8682 40.1729Z" fill="#0E51A0"/>
<path d="M51.6058 42.1916C51.9822 42.2704 52.1708 42.9857 51.9747 43.6872C51.3178 45.9152 49.9706 47.3667 48.6644 47.1417C47.3582 46.9167 46.4949 45.0312 46.516 42.6928C46.5219 41.9682 46.8998 41.3548 47.2977 41.4032L51.6058 42.1916Z" fill="#032663"/>
<path d="M39.2699 28.4158C39.3142 28.4161 39.3659 28.4015 39.4102 28.3719C40.0526 27.9804 40.8202 27.9178 41.5211 28.2054C41.676 28.2659 41.8458 28.1924 41.905 28.0435C41.9642 27.8873 41.8905 27.7153 41.743 27.6548C40.8725 27.2991 39.913 27.3755 39.1081 27.863C38.9678 27.9516 38.9233 28.1304 39.0118 28.2726C39.056 28.3698 39.1592 28.4226 39.2699 28.4158Z" fill="#032663"/>
<path d="M62.6522 32.5528C62.6079 32.5377 62.5711 32.5077 62.5343 32.4629C62.0627 31.8723 61.3625 31.5407 60.6104 31.5658C60.4482 31.5722 60.3082 31.4449 60.3009 31.2738C60.2936 31.1101 60.4191 30.9695 60.5887 30.9631C61.5251 30.9318 62.4022 31.3389 62.9916 32.0789C63.0948 32.206 63.0725 32.3918 62.9471 32.4952C62.866 32.5765 62.748 32.5906 62.6522 32.5528Z" fill="#032663"/>
<path d="M45.4946 54.4108C39.1394 53.3132 33.3595 51.3305 28.7215 48.6574L28.6861 48.6397L28.6683 48.6043C27.615 46.9934 26.9423 45.0638 26.7211 43.0192C26.1723 38.089 25.6855 30.4592 26.4644 22.0416C26.8361 17.9523 29.7128 14.6951 33.1471 14.4738C37.7675 14.1728 58.0192 14.4649 72.6415 21.307C75.7748 22.7763 77.3858 26.8036 76.3945 30.6716C74.2967 38.8502 71.2695 45.887 69.1098 50.3392C68.2247 52.1537 66.9767 53.7204 65.4897 54.8799L65.4631 54.9064L65.4277 54.9153C59.931 55.9598 53.2041 55.8358 46.4948 54.5701C46.1408 54.5258 45.8133 54.4727 45.4946 54.4108ZM46.5214 54.2603C53.1864 55.5172 59.8514 55.6411 65.3038 54.6144C66.7377 53.4902 67.9503 51.9678 68.8089 50.2153C70.9686 45.7719 73.9869 38.7617 76.0758 30.6097C77.0317 26.8833 75.4916 23.0064 72.4999 21.6079C57.9395 14.8013 37.7674 14.5092 33.1648 14.8013C29.8809 15.0137 27.1371 18.1382 26.7742 22.077C26.0041 30.4592 26.4909 38.0802 27.0308 42.9838C27.2521 44.9665 27.8983 46.8429 28.9073 48.4008C33.6782 51.1447 39.9272 53.2247 46.5214 54.2603Z" fill="#10319B"/>
<path d="M25.1626 45.9061C25.021 45.0033 24.9059 44.0651 24.7909 43.1534C24.5607 41.3743 24.3306 39.5332 23.95 37.9311C23.295 35.1607 21.1175 33.1072 19.4004 31.868L19.5863 31.6113C21.3477 32.8771 23.5871 34.9925 24.2598 37.8603C24.6404 39.4801 24.8794 41.33 25.1006 43.118C25.2157 44.0208 25.3308 44.9591 25.4724 45.8619L25.1626 45.9061Z" fill="#10319B"/>
<path d="M20.7903 50.0403C19.4537 46.5352 15.6831 38.5247 7.25666 31.904C6.43349 31.2578 5.23858 31.904 5.31824 32.9484L5.38017 33.7628C5.99091 42.0122 11.6734 49.0135 19.6219 51.3148C20.3831 51.5273 21.0735 50.7838 20.7903 50.0403Z" fill="#F5851F"/>
<path d="M19.6225 51.3057C20.3838 51.527 21.0742 50.7835 20.7909 50.04C19.6137 46.9598 16.5512 40.3921 10.1074 34.3467C15.0995 40.3833 17.5337 48.1812 18.2595 50.8543C18.702 51.0225 19.1534 51.173 19.6225 51.3057Z" fill="#F89E1C"/>
<path d="M10.7522 35.6657C11.0443 35.409 11.2744 35.3116 11.3099 35.2939L11.5665 35.8781L11.4426 35.586L11.5754 35.8781C11.54 35.8958 8.09685 37.7635 11.0974 46.1102L10.1592 45.2782C7.8667 38.6486 9.75205 36.5331 10.7522 35.6657Z" fill="#F89E1C"/>
<path d="M9.21312 33.5315C9.21312 33.5315 5.60179 34.4697 7.0003 40.0195C7.0003 40.0195 4.45997 33.8059 5.84077 31.9383C5.84962 31.9383 6.74361 30.7345 9.21312 33.5315Z" fill="#032663"/>
<path d="M5.61905 31.8238C5.69871 31.753 5.77836 31.6999 5.87573 31.6468C6.36255 31.3901 6.92019 31.4432 7.35391 31.7796C15.9131 38.5065 19.7014 46.7559 20.9406 49.9867C21.0911 50.385 21.0114 50.8275 20.7193 51.1462C20.4272 51.4648 19.9935 51.5887 19.5775 51.4648C11.6025 49.1546 5.84033 42.0471 5.22074 33.7711L5.15876 32.9568C5.12336 32.5142 5.3004 32.0982 5.61905 31.8238ZM20.4095 50.9957C20.4361 50.978 20.4626 50.9514 20.4803 50.9249C20.6928 50.6948 20.7547 50.385 20.6396 50.0929C19.4182 46.8887 15.6564 38.7013 7.15916 32.0186C6.83166 31.7619 6.39797 31.7265 6.02622 31.9212C5.65446 32.1159 5.44201 32.5054 5.47742 32.9214L5.5394 33.7357C6.14128 41.8789 11.8238 48.8802 19.666 51.1462C19.9315 51.2347 20.206 51.1727 20.4095 50.9957Z" fill="#10319B"/>
<path d="M8.08029 34.0447C8.64677 33.5579 9.15132 33.3809 9.16902 33.3809L9.26635 33.6818C9.12473 33.7261 5.84977 34.8679 7.07125 40.0193L6.76145 40.0901C5.94714 36.647 7.10665 34.8856 8.08029 34.0447Z" fill="#10319B"/>
<path d="M10.5409 35.6217C10.8241 35.3739 11.0454 35.2765 11.0808 35.2588L11.2047 35.5509C11.1693 35.5686 7.68192 37.1795 10.3019 45.2253L10.001 45.3227C7.91206 38.8967 9.58496 36.4449 10.5409 35.6217Z" fill="#10319B"/>
<path d="M72.9581 57.4213C76.0472 55.297 83.7036 50.8536 94.4048 50.1898C95.4493 50.1278 96.0689 51.3405 95.4139 52.1459L94.9005 52.7832C89.7048 59.2269 81.0571 61.7584 73.206 59.1296C72.4448 58.8817 72.3032 57.8727 72.9581 57.4213Z" fill="#F89E1C"/>
<path d="M74.1889 57.9776C74.2066 57.9776 74.2155 57.9865 74.2332 57.9865C77.1718 58.8096 80.3406 57.6678 82.1108 55.1806C82.695 54.3574 83.1641 53.4281 83.3766 52.4102C78.7474 53.6316 75.4812 55.7648 73.9765 56.8978C73.5782 57.1987 73.6933 57.836 74.1889 57.9776Z" fill="#F4B821"/>
<path d="M79.0742 60.0862C85.0842 60.1659 90.9615 57.5636 94.9003 52.7839L95.4137 52.1555C95.4757 52.0758 95.5199 51.9961 95.5641 51.9165L95.0773 50.3852C94.8914 50.279 94.6702 50.2259 94.4223 50.2436C93.3425 50.3144 92.3069 50.4206 91.289 50.5622C90.4658 56.0058 82.8803 58.9444 79.0742 60.0862Z" fill="#F5851F"/>
<path d="M89.4225 51.3672C89.7589 52.6595 89.6792 55.6424 84.1649 59.6786L83.0762 59.7494C90.7591 54.4386 88.6259 51.0574 88.5994 51.0309L89.1304 50.668C89.157 50.6945 89.3075 50.9424 89.4225 51.3672Z" fill="#F89E1C"/>
<path d="M91.8657 50.413C91.8657 50.413 94.3086 53.2365 89.998 57.0072C89.998 57.0072 95.6186 53.3427 95.539 51.0149C95.539 51.0237 95.4858 49.5278 91.8657 50.413Z" fill="#032663"/>
<path d="M95.7954 51.058C95.9016 51.474 95.8131 51.9077 95.5387 52.2529L95.0254 52.8902C89.812 59.3516 81.0226 61.9185 73.1539 59.2897C72.7467 59.1569 72.4546 58.8028 72.3926 58.378C72.3307 57.9531 72.5165 57.5371 72.8706 57.2981C75.7207 55.342 83.5276 50.7128 94.3969 50.0401C94.9369 50.0047 95.4325 50.2879 95.6892 50.7747C95.7335 50.8633 95.7689 50.9606 95.7954 51.058ZM72.729 58.4311C72.7998 58.6966 72.9857 58.9002 73.2512 58.9887C80.9961 61.5733 89.6438 59.0507 94.7687 52.6866L95.2821 52.0493C95.5476 51.7218 95.5918 51.2881 95.3971 50.9075C95.2024 50.5358 94.8306 50.3233 94.4146 50.3499C83.6249 51.0226 75.88 55.6164 73.0476 57.5548C72.7909 57.7318 72.667 58.0151 72.7113 58.3249C72.7113 58.3603 72.7201 58.3957 72.729 58.4311Z" fill="#10319B"/>
<path d="M92.5122 51.4818C92.8397 52.7299 92.7866 54.8365 90.1578 57.2086L89.9453 56.9696C93.8841 53.4203 91.8307 50.6233 91.7422 50.5082L91.9988 50.3135C91.9988 50.3312 92.3175 50.756 92.5122 51.4818Z" fill="#10319B"/>
<path d="M89.5898 51.3822C89.9084 52.6037 89.8907 55.5777 84.5092 59.6759L84.3145 59.4192C91.068 54.2677 89.0941 50.9751 89.0764 50.9397L89.342 50.7715C89.3685 50.8069 89.4924 51.0193 89.5898 51.3822Z" fill="#10319B"/>
<path d="M41.5643 73.5123C40.9359 73.4061 40.3339 73.1405 39.8029 72.7245C38.6876 71.8482 38.1389 70.4851 38.3336 69.0778L39.4577 61.1736C39.6612 59.7662 40.5641 58.6067 41.8829 58.0756C43.2018 57.5446 44.6622 57.7481 45.7775 58.6333L52.1061 63.5988C53.186 64.4486 53.7348 65.7674 53.5755 67.1305C53.4161 68.4936 52.5753 69.6443 51.3272 70.2196C51.2918 70.2373 51.2476 70.255 51.2033 70.2727L51.1502 70.2904L43.6886 73.291C42.9982 73.5565 42.2635 73.6362 41.5643 73.5123ZM43.9099 58.474C43.3169 58.3677 42.7061 58.4385 42.1219 58.6687C41.0155 59.1112 40.2543 60.0849 40.0861 61.2621L38.962 69.1663C38.7938 70.3435 39.2541 71.4853 40.1923 72.22C41.1306 72.9546 42.3521 73.1317 43.4585 72.6803L50.9643 69.662C50.9997 69.6443 51.0352 69.6354 51.0617 69.6177C52.1062 69.1397 52.8054 68.1838 52.9382 67.042C53.071 65.9002 52.6195 64.8026 51.7078 64.0945L45.3792 59.1289C44.9455 58.7837 44.441 58.5625 43.9099 58.474Z" fill="#F89E1C"/>
<path d="M51.0262 69.8845C51.0616 69.8668 51.097 69.8491 51.1324 69.8403C53.4956 68.7604 53.9117 65.5297 51.8316 63.9011L45.6446 59.0506C43.5026 57.3688 40.3515 58.6434 39.9621 61.3342L38.8645 69.0614C38.4839 71.7522 41.157 73.8499 43.6796 72.8409L50.9731 69.9111C50.9996 69.9022 51.0173 69.8934 51.0262 69.8845Z" fill="#032663"/>
<path d="M48.3789 68.2129C48.3966 68.2041 48.4231 68.1952 48.4408 68.1864C49.7774 67.5756 50.0075 65.7611 48.8391 64.8406L45.3517 62.1144C44.148 61.1673 42.3688 61.8843 42.1476 63.3978L41.528 67.7527C41.3155 69.2662 42.8203 70.4523 44.2453 69.877L48.3523 68.2218C48.3612 68.2218 48.37 68.2218 48.3789 68.2129Z" fill="#33FCFE"/>
<path d="M75.084 41.3307L79.5273 39.6755C79.5273 39.6755 82.6872 28.275 79.8548 22.3535L78.1997 25.4957C78.1908 25.4957 79.4919 28.3104 75.084 41.3307Z" fill="#F4B821"/>
<path d="M67.7721 59.8926C66.4975 60.9193 59.7617 62.9197 59.7617 62.9197C59.7617 62.9197 61.6116 64.8847 61.0628 68.2659C60.6557 70.7974 57.8852 72.6384 57.8852 72.6384C59.6466 75.2053 58.1773 78.9228 56.0796 81.5782C53.9818 84.2336 55.2387 85.3312 55.2387 85.3312C55.2387 85.3312 66.9224 73.0721 69.0821 65.4246C69.9584 62.3178 67.7721 59.8926 67.7721 59.8926Z" fill="#F4B821"/>
<path d="M23.3125 67.3105C23.3125 67.3105 25.7908 67.3194 26.7999 69.1782C27.8089 71.0281 32.987 86.8276 35.6689 92.6164C36.1557 93.6608 37.2533 97.1482 39.2094 96.8296C39.2094 96.8296 36.3947 97.8386 33.2702 93.3864C30.1545 88.9254 24.7287 72.2761 23.3125 67.3105Z" fill="#0E51A0"/>
<path d="M83.1825 16.785C83.1293 16.7317 83.1293 16.6518 83.1825 16.5985C83.2358 16.5453 83.3157 16.5453 83.369 16.5985C83.4222 16.6518 83.4222 16.7317 83.369 16.785C83.3157 16.8382 83.2358 16.8382 83.1825 16.785Z" fill="white"/>
<path d="M3.31845 52.8988C5.46689 52.2542 8.4201 52.4333 10.2186 53.9158C11.6183 55.0616 12.4021 57.5468 10.3516 58.399C9.54681 58.7285 6.89452 58.7285 6.5796 57.6112C6.35566 56.8306 7.17445 56.3651 7.83228 56.2648C9.75677 55.9569 11.5623 58.0338 11.5133 59.8887C11.4503 62.6746 8.28016 63.5985 6.04075 63.62C5.89378 63.62 5.92878 63.9065 6.04075 63.9136C9.85475 64.2932 14.1096 60.6765 10.7155 57.0526C9.80576 56.0786 8.37813 55.3839 7.06247 55.9211C6.32067 56.229 5.73282 56.9165 6.10373 57.7402C6.69857 59.0651 9.09194 59.2943 10.2536 58.9577C10.5616 58.8738 10.8495 58.7262 11.0995 58.524C11.3496 58.3217 11.5564 58.0692 11.7073 57.7819C11.8581 57.4946 11.9498 57.1787 11.9766 56.8537C12.0034 56.5287 11.9648 56.2015 11.8632 55.8924C10.9255 52.3688 6.10371 51.5953 3.24846 52.6911C3.16448 52.6911 3.19948 52.9274 3.29745 52.8988H3.31845Z" fill="#FF9E16"/>
<path d="M74.6889 5.76855C74.6889 5.76855 74.3564 11.9569 78.9469 15.3963L83.7548 13.9259C83.7548 13.9259 80.5453 12.3916 78.9469 5.76855H74.6889Z" fill="#0055B8"/>
<path d="M9.05774 83.5582C9.05774 83.5582 7.22702 86.9474 3.4987 87.3632L1.25 85.1038C1.25 85.1038 4.00027 85.5039 7.10163 82.4834L9.05774 83.5582Z" fill="#007BE0"/>
<path d="M98.72 28.7672C96.4024 28.0631 93.2166 28.2587 91.2689 29.8779C89.759 31.1295 88.9211 33.8439 91.133 34.7747C92.0012 35.1345 94.8623 35.1345 95.202 33.9143C95.4436 33.0616 94.5604 32.5532 93.8507 32.4437C91.7747 32.1073 89.827 34.3758 89.8723 36.4018C89.9478 39.4447 93.3676 40.4537 95.7833 40.4772C95.9419 40.4772 95.9041 40.7901 95.7833 40.7979C91.669 41.2125 87.079 37.2622 90.7329 33.3041C91.7218 32.2403 93.2619 31.4815 94.6811 32.0682C95.4814 32.4045 96.1155 33.1555 95.7154 34.0551C95.0737 35.5022 92.4919 35.7525 91.2387 35.3849C90.9064 35.2933 90.5959 35.1321 90.3262 34.9112C90.0564 34.6903 89.8333 34.4144 89.6706 34.1006C89.5078 33.7868 89.409 33.4418 89.38 33.0868C89.3511 32.7319 89.3927 32.3745 89.5023 32.0369C90.514 28.1883 95.7078 27.3435 98.7955 28.5403C98.8861 28.5403 98.8483 28.7984 98.7427 28.7672H98.72Z" fill="#002E6D"/>
<path d="M62.793 94.7071C62.793 94.7071 64.6256 98.5929 68.358 99.0697L70.6007 96.4791C70.6007 96.4791 68.2743 96.677 65.2031 93.2139L62.793 94.7071Z" fill="#998122"/>
<path d="M10.0332 13.8608C10.0332 13.8608 16.1837 14.6279 19.9302 10.2808L18.805 5.38379C18.805 5.38379 17.0404 8.47796 10.3273 9.62869L10.0332 13.8608Z" fill="#FF9E16"/>
<path d="M85.1836 70.326C85.1836 70.326 87.472 75.0709 92.1324 75.6531L94.9433 72.4898C94.9433 72.4898 91.5054 73.05 87.6287 68.8213L85.1836 70.326Z" fill="#FFE784"/>
</g>
</svg>
