<svg width="100" height="89" viewBox="0 0 100 89" fill="none" xmlns="http://www.w3.org/2000/svg">
<path d="M3.84766 14C3.84766 11.7909 5.63852 10 7.84766 10H51.1607C53.3699 10 55.1607 11.7909 55.1607 14V70.1414C55.1607 72.3505 53.3699 74.1414 51.1607 74.1414H7.84766C5.63852 74.1414 3.84766 72.3505 3.84766 70.1414V14Z" fill="#FFF7D7"/>
<path fill-rule="evenodd" clip-rule="evenodd" d="M1.28282 17.4805C0.493866 18.2111 0 19.2559 0 20.416V76.5573C0 78.7665 1.79086 80.5573 4 80.5573H47.3131C49.5222 80.5573 51.3131 78.7665 51.3131 76.5573V75.6446C50.5997 76.3053 49.645 76.7091 48.5959 76.7091H5.28282C3.07368 76.7091 1.28282 74.9183 1.28282 72.7091V17.4805Z" fill="#FFE784"/>
<rect x="30.7891" y="17.6968" width="16.6768" height="20.5252" rx="1" transform="rotate(90 30.7891 17.6968)" fill="#FFE784"/>
<rect x="50.0312" y="42.0708" width="3.84848" height="39.7676" rx="1.92424" transform="rotate(90 50.0312 42.0708)" fill="#FFE784"/>
<rect x="50.0312" y="20.2627" width="3.84848" height="15.3939" rx="1.92424" transform="rotate(90 50.0312 20.2627)" fill="#FFE784"/>
<rect x="50.0312" y="27.9595" width="3.84848" height="15.3939" rx="1.92424" transform="rotate(90 50.0312 27.9595)" fill="#FFE784"/>
<rect x="50.0312" y="52.3335" width="3.84848" height="39.7676" rx="1.92424" transform="rotate(90 50.0312 52.3335)" fill="#FFE784"/>
<rect x="50.0312" y="62.5962" width="3.84848" height="39.7676" rx="1.92424" transform="rotate(90 50.0312 62.5962)" fill="#FFE784"/>
<mask id="mask0_21308_63284" style="mask-type:alpha" maskUnits="userSpaceOnUse" x="11" y="0" width="89" height="89">
<rect x="11.1094" width="88.8889" height="88.8889" fill="#D9D9D9"/>
</mask>
<g mask="url(#mask0_21308_63284)">
<path d="M72.2234 61.9615C76.1001 54.9629 71.8695 46.2422 63.9666 44.9997L60.9077 44.5201C60.8841 44.5201 60.8683 44.5122 60.8447 44.5043L53.217 43.3091L45.6286 41.87C45.605 41.8622 45.5893 41.8621 45.5657 41.8621L42.5225 41.2881C34.6589 39.8019 27.7468 46.596 29.0443 54.4911C29.4689 57.0704 29.988 59.4845 30.562 61.7571C30.8608 63.0782 31.2855 64.5487 31.7809 66.0742C33.904 72.9155 36.4675 78.2471 38.3941 82.5799C38.4649 82.745 38.5514 82.9102 38.63 83.0753C39.9197 85.859 42.5854 87.5418 45.4792 88.0058C48.3652 88.5484 51.4399 87.8564 53.5866 85.6703C53.7203 85.5445 53.854 85.4187 53.9798 85.285C57.2432 81.8565 61.4502 77.6887 65.7516 71.9562C66.7267 70.6823 67.6232 69.4398 68.3466 68.2996C69.6599 66.3494 70.9573 64.2498 72.2234 61.9615Z" fill="#F89E1C"/>
<path d="M56.3252 74.7721C59.1954 70.9897 55.4288 67.4039 50.2309 69.3226C44.0344 71.603 40.9519 69.5664 38.2704 62.6778C36.0922 57.0868 31.4055 57.6137 29.7227 58.0147C29.9979 59.3358 30.2889 60.6097 30.6034 61.8364C30.9022 63.1575 31.3268 64.628 31.8223 66.1535C33.9454 72.9949 36.5089 78.3264 38.4355 82.6593C38.5063 82.8244 38.5928 82.9895 38.6714 83.1547C39.9611 85.9384 42.6268 87.6212 45.5206 88.0851C48.4066 88.6277 51.4813 87.9357 53.628 85.7497C53.7617 85.6238 53.8954 85.498 54.0212 85.3643C55.0907 84.2477 56.2545 83.0446 57.4969 81.7392C55.3266 80.9843 53.5572 78.4286 56.3252 74.7721Z" fill="#032663"/>
<path d="M45.606 88.2341C45.5509 88.2262 45.5038 88.2184 45.4487 88.2027C42.319 87.7151 39.7162 85.8357 38.4973 83.1935C38.4187 83.0363 38.3322 82.8711 38.2614 82.6981C37.9862 82.0769 37.6952 81.4242 37.3885 80.7558C35.6349 76.8712 33.4567 72.0351 31.6402 66.1688C31.1134 64.5489 30.7044 63.0863 30.4214 61.8438C29.8159 59.4533 29.3047 57.0077 28.9037 54.57C28.2746 50.7483 29.5013 47.0052 32.2693 44.308C35.0216 41.6186 38.7568 40.502 42.5471 41.2097L45.5902 41.7838L45.6532 41.7916L53.2416 43.2307L60.8693 44.426L60.9086 44.4338L63.9911 44.9135C67.7971 45.5111 70.9425 47.8309 72.6332 51.283C74.3318 54.7587 74.2295 58.6905 72.358 62.0798C71.1627 64.2344 69.8573 66.3733 68.4812 68.4257C67.7971 69.503 66.9242 70.7376 65.8783 72.0901C62.1982 77.0049 58.518 80.8266 55.5692 83.8934C55.0581 84.4203 54.5705 84.9314 54.0987 85.4268C53.9729 85.5605 53.8392 85.6942 53.7055 85.8121C51.6846 87.8724 48.6728 88.761 45.606 88.2341ZM45.5038 87.9274C48.5391 88.5015 51.5194 87.6365 53.4932 85.6313C53.6269 85.5054 53.7606 85.3796 53.8785 85.2538C54.3503 84.7584 54.8379 84.2473 55.349 83.7204C58.2978 80.6536 61.9701 76.8397 65.6424 71.9407C66.6804 70.5882 67.5533 69.3615 68.2296 68.292C69.6057 66.2475 70.9032 64.1164 72.0985 61.9697C73.9307 58.6591 74.0251 54.8216 72.3737 51.4324C70.7223 48.0668 67.6398 45.8021 63.9439 45.2202L60.885 44.7405L60.8456 44.7326L53.1865 43.5295L45.5902 42.0905L45.5273 42.0826L42.4841 41.5086C38.804 40.8166 35.1395 41.9096 32.458 44.5282C29.7608 47.1625 28.5656 50.8112 29.1789 54.5464C29.58 56.9684 30.0911 59.414 30.6966 61.7967C30.9797 63.0391 31.3886 64.486 31.9076 66.1059C33.7241 71.9564 35.8944 76.7847 37.6402 80.6615C37.939 81.3299 38.2299 81.9747 38.513 82.6038C38.5838 82.7689 38.6624 82.9262 38.7489 83.0913C39.9363 85.6313 42.4606 87.4478 45.5038 87.9274Z" fill="#10319B"/>
<path d="M70.4629 50.3789C68.7958 48.3422 66.476 46.8953 63.6766 46.4549L60.602 45.9752C60.5784 45.9752 60.5626 45.9674 60.539 45.9595L52.872 44.7721L45.2443 43.3173C45.2207 43.3095 45.205 43.3095 45.1814 43.3095L42.1225 42.7276C37.884 41.9176 35.0531 44.5755 32.4424 47.7288C31.8526 48.4366 32.12 49.5375 32.9535 49.8599C39.9679 52.5492 56.1826 57 70.4629 50.3789Z" fill="#E26907"/>
<path d="M37.2309 5.54805C38.9688 4.72237 40.9818 4.10901 43.1601 3.7001L43.0264 3.70797C43.0264 3.70797 50.2295 1.2152 60.0275 2.90588C69.7941 4.59655 75.8334 9.26754 75.8727 9.29899C77.8464 10.4471 79.5765 11.721 80.9683 13.1128C87.6838 19.8205 85.0574 31.2856 79.8202 41.6027C76.0064 49.1124 63.8335 50.7245 52.3212 48.5462C40.7459 46.7219 29.8155 41.1151 28.7461 32.764C27.2756 21.2831 28.6439 9.61353 37.2309 5.54805Z" fill="#F89E1C"/>
<path d="M47.0059 67.3711C46.2746 67.2453 45.5747 66.9386 44.9614 66.459C43.6639 65.4367 43.0191 63.8561 43.255 62.2126L44.5918 52.8313C44.8277 51.1957 45.8814 49.851 47.4148 49.2298C48.9482 48.6164 50.6389 48.8523 51.9443 49.8746L59.454 55.7645C60.7122 56.7474 61.3491 58.2808 61.1604 59.8692C60.9717 61.4577 59.9966 62.7945 58.5497 63.4551C58.5025 63.4786 58.4553 63.4944 58.4081 63.518L58.3452 63.5416L49.4908 67.1038C48.6809 67.4262 47.8237 67.5127 47.0059 67.3711ZM49.7975 49.5207C49.0819 49.3949 48.3349 49.4736 47.6193 49.7567C46.2746 50.2992 45.3546 51.4788 45.1501 52.91L43.8133 62.2912C43.6089 63.7224 44.1672 65.1143 45.3074 66.0107C46.4476 66.9072 47.926 67.1116 49.2706 66.5769L58.1801 62.9911C58.2194 62.9754 58.2587 62.9596 58.3059 62.9361C59.572 62.362 60.4212 61.1903 60.5864 59.7985C60.7515 58.4145 60.1932 57.0698 59.0923 56.2127L51.5825 50.3228C51.0557 49.8982 50.4423 49.6308 49.7975 49.5207Z" fill="#F89E1C"/>
<path d="M39.1094 15.9122C34.5878 14.1272 35.5708 6.59384 35.6179 6.2793L36.1763 6.35793C36.1684 6.42871 35.209 13.7655 39.3138 15.3854L39.1094 15.9122Z" fill="#F89E1C"/>
<path d="M72.822 47.7131L72.5703 47.5794C72.9635 46.8402 73.3645 46.0538 73.742 45.2989C74.4654 43.8599 75.2125 42.3737 76.0067 41.147C77.43 38.953 79.9307 37.8521 81.7865 37.3174L81.8651 37.5926C80.0565 38.1116 77.6188 39.1811 76.2426 41.3042C75.4563 42.5152 74.7171 43.9936 73.9936 45.4248C73.6083 46.1875 73.2151 46.9739 72.822 47.7131Z" fill="#10319B"/>
<path d="M28.2578 28.2349C28.3443 29.7368 28.478 31.2466 28.6667 32.7564C29.0599 35.8704 30.7978 38.5991 33.4242 40.9031C33.0625 38.5047 32.858 35.8626 32.3548 33.7001C31.7571 31.1759 29.7519 29.32 28.2578 28.2349Z" fill="#032663"/>
<path d="M53.0537 48.7979C52.7942 48.7508 52.5425 48.7114 52.2909 48.6643C42.0918 47.0601 29.7774 41.933 28.6057 32.7719C27.552 24.5702 27.2689 10.109 37.1692 5.4223L37.2321 5.54812L37.1692 5.4223C38.8992 4.60448 42.9254 3.59794 43.0984 3.55862C43.1534 3.53503 50.325 1.08945 60.0523 2.77226C69.8032 4.46294 75.9053 9.14178 75.9604 9.18897C77.9813 10.3606 79.7034 11.6503 81.0717 13.0107C88.8252 20.7485 83.6982 34.2739 79.9472 41.6499C75.866 49.6787 63.0877 50.5358 53.0537 48.7979ZM52.3381 48.3812C52.5897 48.4284 52.8413 48.4755 53.1008 48.5149C63.0483 50.237 75.6851 49.4113 79.6956 41.5163C83.4072 34.211 88.4949 20.8192 80.8672 13.2073C79.5226 11.8626 77.8162 10.5887 75.8031 9.41701C75.7245 9.36197 69.6852 4.71457 60.0051 3.03963C50.3565 1.37254 43.2556 3.79453 43.1849 3.81812C43.1298 3.83385 39.0014 4.85612 37.295 5.66607C27.5599 10.2741 27.8508 24.6016 28.8888 32.7247C30.0448 41.7364 42.2412 46.7927 52.3381 48.3812Z" fill="#10319B"/>
<path d="M52.5418 47.2253C47.6349 46.4546 42.846 44.992 38.9142 42.9317C38.3008 42.6093 37.7975 42.1218 37.483 41.5084C36.9561 40.4783 36.5944 39.3066 36.445 38.0406C35.9417 33.7549 35.5721 27.81 36.1619 21.3147C36.4528 18.1142 38.7648 15.5664 41.4856 15.4091C45.1972 15.1889 50.859 15.1732 57.4094 16.2033V16.1955C57.5902 16.2269 57.7711 16.2584 57.952 16.2977C58.1328 16.3291 58.3137 16.3527 58.5024 16.3842V16.392C65.0135 17.6188 70.345 19.5454 73.7657 20.9923C76.2742 22.0538 77.6031 25.2307 76.801 28.3447C75.1654 34.6671 72.8299 40.1401 70.9112 44.009C70.3528 45.1414 69.6294 46.1086 68.7959 46.9028C68.3162 47.3511 67.7107 47.6342 67.058 47.7285C62.5993 48.3812 57.5116 48.161 52.5418 47.2253Z" fill="#FCE8CA"/>
<path d="M51.3923 48.342C45.7462 47.3669 40.6112 45.6054 36.4907 43.2306L36.4593 43.2149L36.4435 43.1834C35.5078 41.7523 34.9101 40.038 34.7135 38.2215C34.226 33.8415 33.7935 27.0631 34.4855 19.5848C34.8158 15.9518 37.3714 13.058 40.4225 12.8614C44.5273 12.594 62.5192 12.8535 75.5099 18.9321C78.2936 20.2374 79.7248 23.8154 78.8441 27.2518C76.9804 34.5177 74.2911 40.7693 72.3723 44.7247C71.586 46.3368 70.4772 47.7286 69.1561 48.7587L69.1326 48.7823L69.1011 48.7902C64.2178 49.7181 58.2414 49.608 52.2808 48.4835C51.9663 48.4442 51.6753 48.397 51.3923 48.342ZM52.3044 48.2083C58.2257 49.3249 64.147 49.435 68.991 48.5228C70.2649 47.5242 71.3422 46.1716 72.105 44.6146C74.0237 40.6671 76.7052 34.4391 78.561 27.1967C79.4103 23.8862 78.042 20.4419 75.3841 19.1994C62.4485 13.1523 44.5273 12.8928 40.4382 13.1523C37.5208 13.3411 35.0831 16.1169 34.7607 19.6162C34.0766 27.0631 34.5091 33.8336 34.9888 38.1901C35.1854 39.9515 35.7594 41.6186 36.6559 43.0026C40.8943 45.4403 46.4461 47.2882 52.3044 48.2083Z" fill="#10319B"/>
<path d="M33.3302 40.7847C33.2043 39.9826 33.1021 39.1491 32.9999 38.3391C32.7955 36.7585 32.591 35.1229 32.2529 33.6996C31.671 31.2383 29.7365 29.4139 28.2109 28.313L28.3761 28.085C29.9409 29.2095 31.9305 31.0889 32.5281 33.6367C32.8662 35.0757 33.0785 36.7192 33.2751 38.3076C33.3774 39.1097 33.4796 39.9433 33.6054 40.7454L33.3302 40.7847Z" fill="#10319B"/>
<path d="M29.4442 44.4569C28.2568 41.3429 24.907 34.2264 17.4208 28.3444C16.6895 27.7703 15.6279 28.3444 15.6987 29.2723L15.7537 29.9957C16.2963 37.3246 21.3447 43.5447 28.4062 45.5893C29.0825 45.778 29.6959 45.1175 29.4442 44.4569Z" fill="#F5851F"/>
<path d="M28.4065 45.5823C29.0828 45.7789 29.6961 45.1183 29.4445 44.4578C28.3987 41.7213 25.6778 35.8865 19.9531 30.5156C24.3882 35.8786 26.5507 42.8064 27.1955 45.1812C27.5887 45.3307 27.9897 45.4643 28.4065 45.5823Z" fill="#F89E1C"/>
<path d="M20.5294 31.6867C20.7889 31.4587 20.9933 31.3722 21.0248 31.3564L21.2528 31.8754L21.1428 31.6159L21.2607 31.8754C21.2293 31.8912 18.1703 33.5504 20.8361 40.9658L20.0025 40.2266C17.9659 34.3368 19.6408 32.4574 20.5294 31.6867Z" fill="#F89E1C"/>
<path d="M19.162 29.7918C19.162 29.7918 15.9537 30.6253 17.1961 35.5558C17.1961 35.5558 14.9393 30.0355 16.166 28.3763C16.1739 28.3763 16.9681 27.3069 19.162 29.7918Z" fill="#032663"/>
<path d="M15.9676 28.2743C16.0384 28.2114 16.1091 28.1643 16.1956 28.1171C16.6281 27.889 17.1235 27.9362 17.5089 28.235C25.113 34.2114 28.4786 41.5402 29.5795 44.4105C29.7132 44.7643 29.6424 45.1575 29.3829 45.4406C29.1234 45.7237 28.7381 45.8338 28.3685 45.7237C21.2834 43.6713 16.1642 37.3568 15.6137 30.0043L15.5587 29.2809C15.5272 28.8877 15.6845 28.5181 15.9676 28.2743ZM29.1077 45.3069C29.1313 45.2912 29.1548 45.2676 29.1706 45.244C29.3593 45.0395 29.4143 44.7643 29.3121 44.5048C28.2269 41.6582 24.8849 34.3844 17.3358 28.4473C17.0449 28.2193 16.6596 28.1878 16.3293 28.3608C15.999 28.5338 15.8103 28.8798 15.8418 29.2494L15.8968 29.9729C16.4315 37.2074 21.4799 43.4275 28.4471 45.4406C28.683 45.5192 28.9268 45.4642 29.1077 45.3069Z" fill="#10319B"/>
<path d="M18.1544 30.2475C18.6576 29.815 19.1059 29.6577 19.1216 29.6577L19.2081 29.9251C19.0823 29.9644 16.1728 30.9788 17.2579 35.5554L16.9827 35.6183C16.2593 32.5594 17.2894 30.9945 18.1544 30.2475Z" fill="#10319B"/>
<path d="M20.3394 31.6471C20.5911 31.4269 20.7876 31.3404 20.8191 31.3247L20.9292 31.5842C20.8978 31.5999 17.7995 33.0311 20.1271 40.1791L19.8598 40.2656C18.0039 34.5566 19.4902 32.3784 20.3394 31.6471Z" fill="#10319B"/>
<path d="M75.7964 51.0164C78.5408 49.1292 85.3428 45.1816 94.8499 44.5919C95.7778 44.5368 96.3283 45.6141 95.7464 46.3297L95.2902 46.8959C90.6743 52.6206 82.9916 54.8696 76.0166 52.5341C75.3403 52.3139 75.2145 51.4175 75.7964 51.0164Z" fill="#F89E1C"/>
<path d="M76.8865 51.5111C76.9022 51.5111 76.9101 51.519 76.9258 51.519C79.5365 52.2503 82.3517 51.2359 83.9244 49.0262C84.4434 48.2949 84.8602 47.4693 85.0489 46.5649C80.9363 47.6501 78.0346 49.5452 76.6978 50.5518C76.3439 50.8191 76.4461 51.3853 76.8865 51.5111Z" fill="#F4B821"/>
<path d="M81.2305 53.3821C86.5699 53.4528 91.7913 51.1409 95.2906 46.8946L95.7467 46.3363C95.8017 46.2655 95.841 46.1947 95.8804 46.124L95.4479 44.7636C95.2827 44.6692 95.0861 44.622 94.866 44.6377C93.9066 44.7007 92.9866 44.795 92.0822 44.9208C91.3509 49.757 84.6118 52.3677 81.2305 53.3821Z" fill="#F5851F"/>
<path d="M90.4194 45.6364C90.7183 46.7844 90.6475 49.4345 85.7485 53.0203L84.7812 53.0832C91.6069 48.365 89.7117 45.3611 89.6881 45.3375L90.16 45.0151C90.1835 45.0387 90.3172 45.2589 90.4194 45.6364Z" fill="#F89E1C"/>
<path d="M92.5928 44.7875C92.5928 44.7875 94.7632 47.296 90.9336 50.6459C90.9336 50.6459 95.927 47.3903 95.8562 45.3222C95.8562 45.3301 95.809 44.0011 92.5928 44.7875Z" fill="#032663"/>
<path d="M96.0831 45.3615C96.1774 45.7311 96.0988 46.1164 95.855 46.4231L95.399 46.9893C90.7673 52.7297 82.9587 55.0102 75.968 52.6747C75.6063 52.5567 75.3468 52.2422 75.2917 51.8647C75.2367 51.4873 75.4018 51.1177 75.7163 50.9054C78.2484 49.1675 85.1841 45.0549 94.8406 44.4572C95.3203 44.4258 95.7607 44.6774 95.9887 45.1099C96.0281 45.1885 96.0595 45.275 96.0831 45.3615ZM75.5905 51.9119C75.6534 52.1478 75.8186 52.3287 76.0545 52.4073C82.9352 54.7035 90.6179 52.4624 95.1709 46.8084L95.627 46.2423C95.8629 45.9513 95.9022 45.566 95.7292 45.2279C95.5562 44.8976 95.2259 44.7089 94.8564 44.7325C85.2706 45.3301 78.39 49.4113 75.8736 51.1334C75.6456 51.2907 75.5355 51.5423 75.5748 51.8176C75.5748 51.849 75.5827 51.8805 75.5905 51.9119Z" fill="#10319B"/>
<path d="M93.1672 45.7397C93.4581 46.8484 93.411 48.72 91.0755 50.8274L90.8867 50.6151C94.386 47.4618 92.5617 44.9769 92.4831 44.8747L92.7111 44.7017C92.7111 44.7174 92.9942 45.0948 93.1672 45.7397Z" fill="#10319B"/>
<path d="M90.5695 45.6529C90.8526 46.7381 90.8369 49.3803 86.0558 53.0211L85.8828 52.7931C91.8827 48.2165 90.1291 45.2912 90.1134 45.2598L90.3493 45.1104C90.3729 45.1418 90.483 45.3305 90.5695 45.6529Z" fill="#10319B"/>
<path d="M47.9007 65.3111C47.3423 65.2167 46.8076 64.9808 46.3358 64.6112C45.345 63.8327 44.8574 62.6217 45.0304 61.3714L46.0291 54.3492C46.21 53.0989 47.012 52.0688 48.1837 51.5969C49.3554 51.1251 50.6529 51.306 51.6437 52.0924L57.2662 56.5038C58.2255 57.2587 58.7131 58.4304 58.5715 59.6414C58.43 60.8524 57.683 61.8747 56.5742 62.3858C56.5427 62.4015 56.5034 62.4173 56.4641 62.433L56.4169 62.4487L49.7879 65.1145C49.1746 65.3504 48.5219 65.4212 47.9007 65.3111ZM49.9845 51.9508C49.4576 51.8564 48.915 51.9193 48.396 52.1238C47.4131 52.517 46.7368 53.382 46.5874 54.4278L45.5887 61.45C45.4393 62.4959 45.8483 63.5103 46.6818 64.163C47.5153 64.8157 48.6005 64.9729 49.5835 64.5719L56.2518 61.8904C56.2832 61.8747 56.3147 61.8668 56.3383 61.8511C57.2662 61.4264 57.8874 60.5772 58.0054 59.5628C58.1233 58.5484 57.7223 57.5733 56.9123 56.9442L51.2898 52.5327C50.9045 52.226 50.4563 52.0294 49.9845 51.9508Z" fill="#F89E1C"/>
<path d="M56.3096 62.0877C56.341 62.0719 56.3725 62.0562 56.4039 62.0483C58.5035 61.089 58.8731 58.2188 57.0252 56.7719L51.5285 52.4626C49.6255 50.9685 46.8261 52.1009 46.4801 54.4914L45.505 61.3563C45.1669 63.7469 47.5417 65.6106 49.7828 64.7141L56.2624 62.1113C56.286 62.1034 56.3017 62.0955 56.3096 62.0877Z" fill="#032663"/>
<path d="M53.9559 60.6015C53.9717 60.5936 53.9952 60.5858 54.011 60.5779C55.1984 60.0353 55.4028 58.4233 54.3648 57.6054L51.2666 55.1835C50.1971 54.342 48.6165 54.979 48.4199 56.3237L47.8695 60.1926C47.6807 61.5372 49.0176 62.591 50.2836 62.0798L53.9323 60.6093C53.9402 60.6093 53.9481 60.6093 53.9559 60.6015Z" fill="#33FCFE"/>
<path d="M77.6797 36.7194L81.6272 35.2489C81.6272 35.2489 84.4345 25.1206 81.9182 19.8599L80.4477 22.6514C80.4398 22.6514 81.5958 25.1521 77.6797 36.7194Z" fill="#F4B821"/>
<path d="M71.1854 53.21C70.053 54.1221 64.0688 55.8993 64.0688 55.8993C64.0688 55.8993 65.7123 57.645 65.2248 60.6489C64.8631 62.8979 62.4018 64.5336 62.4018 64.5336C63.9666 66.814 62.6613 70.1167 60.7976 72.4758C58.9339 74.8349 60.0505 75.81 60.0505 75.81C60.0505 75.81 70.4305 64.9189 72.3492 58.1247C73.1277 55.3646 71.1854 53.21 71.1854 53.21Z" fill="#F4B821"/>
<path d="M31.6875 59.7993C31.6875 59.7993 33.8893 59.8072 34.7858 61.4585C35.6822 63.102 40.2824 77.1386 42.6651 82.2814C43.0976 83.2093 44.0727 86.3075 45.8105 86.0244C45.8105 86.0244 43.3099 86.9209 40.5341 82.9655C37.7661 79.0022 32.9457 64.2108 31.6875 59.7993Z" fill="#0E51A0"/>
<path d="M39.5047 33.8967C39.4339 33.8809 39.3632 33.8652 39.2924 33.8338C38.7891 33.6214 38.5532 33.0395 38.7655 32.5363C39.8428 29.9727 42.3277 28.6281 45.0957 29.1077C47.7929 29.5717 49.8296 31.8364 49.9476 34.4786C49.9712 35.029 49.5465 35.4851 48.9961 35.5087C48.4456 35.5323 47.9895 35.1077 47.9659 34.5572C47.903 33.0789 46.7785 31.4039 44.7576 31.05C42.9018 30.7276 41.3055 31.5848 40.5899 33.2912C40.4012 33.7315 39.9451 33.9674 39.5047 33.8967Z" fill="#0E51A0"/>
<path d="M59.3602 37.3254C59.2894 37.3097 59.2186 37.2939 59.1479 37.2625C58.6446 37.0502 58.4087 36.4682 58.621 35.965C59.6983 33.4014 62.1832 32.0568 64.9512 32.5364C67.6484 33.0004 69.6851 35.2651 69.8031 37.9073C69.8266 38.4577 69.402 38.9217 68.8515 38.9453C68.3011 38.9689 67.8371 38.5442 67.8135 37.9938C67.7506 36.5154 66.6261 34.8405 64.6052 34.4866C62.7494 34.1642 61.1531 35.0213 60.4375 36.7277C60.2566 37.1681 59.8084 37.404 59.3602 37.3254Z" fill="#0E51A0"/>
<path d="M54.75 40.5883C54.923 40.6198 55.0173 40.8007 54.9466 40.9579C54.7106 41.4691 54.1523 41.7757 53.5704 41.6814C52.9885 41.5792 52.5718 41.0995 52.5167 40.5412C52.501 40.3682 52.6583 40.2345 52.8234 40.2581L54.75 40.5883Z" fill="#032663"/>
<path d="M42.7498 24.8697C42.7969 24.8697 42.852 24.854 42.8992 24.8225C43.5833 24.4058 44.4011 24.335 45.1482 24.6338C45.3133 24.6967 45.4941 24.6181 45.557 24.4608C45.62 24.2957 45.5413 24.1148 45.3841 24.0519C44.4562 23.6823 43.4339 23.7688 42.5767 24.2878C42.4273 24.3822 42.3802 24.5709 42.4745 24.7203C42.5217 24.8225 42.6318 24.8776 42.7498 24.8697Z" fill="#032663"/>
<path d="M67.6378 29.1779C67.5906 29.1622 67.5512 29.1307 67.5119 29.0835C67.0087 28.4623 66.2616 28.1163 65.4595 28.1478C65.2865 28.1556 65.1371 28.0219 65.1292 27.8411C65.1214 27.6681 65.2551 27.5187 65.4359 27.5108C66.4346 27.4715 67.3704 27.8961 67.9994 28.6746C68.1095 28.8083 68.086 29.0049 67.9523 29.115C67.8658 29.2015 67.74 29.2172 67.6378 29.1779Z" fill="#032663"/>
<path d="M94.6917 49.7494C94.6444 49.7021 94.6444 49.6311 94.6917 49.5838C94.7391 49.5365 94.81 49.5365 94.8573 49.5838C94.9046 49.6311 94.9046 49.7021 94.8573 49.7494C94.8179 49.7968 94.7391 49.7968 94.6917 49.7494Z" fill="white"/>
<path d="M84.8753 14.914C84.828 14.8667 84.828 14.7957 84.8753 14.7484C84.9227 14.7011 84.9936 14.7011 85.041 14.7484C85.0883 14.7957 85.0883 14.8667 85.041 14.914C84.9936 14.9613 84.9227 14.9613 84.8753 14.914Z" fill="white"/>
</g>
</svg>
