<svg width="100" height="100" viewBox="0 0 100 100" fill="none" xmlns="http://www.w3.org/2000/svg">
<mask id="mask0_14854_30443" style="mask-type:alpha" maskUnits="userSpaceOnUse" x="0" y="0" width="100" height="100">
<rect width="100" height="100" fill="#D9D9D9"/>
</mask>
<g mask="url(#mask0_14854_30443)">
<path d="M4.87109 11.6664C4.87109 9.0823 5.89763 6.60402 7.72488 4.77676C9.55214 2.94951 12.0304 1.92297 14.6145 1.92297H36.9563C39.5402 1.92353 42.0181 2.95043 43.8449 4.77781L60.477 21.4099C62.3044 23.2367 63.3313 25.7146 63.3318 28.2985V70.1271C63.3318 72.7113 62.3053 75.1896 60.478 77.0168C58.6508 78.8441 56.1725 79.8706 53.5884 79.8706H46.1444C51.1223 74.3018 53.7796 67.0387 53.5707 59.5722C53.3617 52.1058 50.3024 45.0026 45.0207 39.721C39.7391 34.4393 32.6359 31.38 25.1695 31.171C17.703 30.9621 10.4399 33.6194 4.87109 38.5973V11.6664Z" fill="#FFF7D7"/>
<path fill-rule="evenodd" clip-rule="evenodd" d="M24.3596 40.8966C20.9234 40.8961 17.5482 41.8042 14.5761 43.5289C11.6041 45.2536 9.14094 47.7335 7.43643 50.7171C5.73191 53.7008 4.84665 57.0821 4.87039 60.5182C4.89414 63.9543 5.82606 67.3231 7.57165 70.2829L1.4284 76.4212C0.97577 76.8736 0.616659 77.4106 0.371573 78.0017C0.126487 78.5928 0.000226505 79.2264 3.04474e-07 79.8663C-0.000225896 80.5062 0.125587 81.1398 0.370255 81.7311C0.614923 82.3224 0.973654 82.8597 1.42597 83.3123C1.87828 83.7649 2.41532 84.124 3.00642 84.3691C3.59751 84.6142 4.2311 84.7405 4.87099 84.7407C5.51089 84.7409 6.14456 84.6151 6.73583 84.3704C7.3271 84.1258 7.86439 83.7671 8.31702 83.3147L14.4603 77.1715C17.0415 78.6928 19.9388 79.5985 22.927 79.818C25.9152 80.0376 28.9138 79.5651 31.6897 78.4373C34.4656 77.3096 36.944 75.5569 38.9324 73.3155C40.9208 71.0741 42.3655 68.4044 43.1543 65.5138C43.9432 62.6233 44.0548 59.5898 43.4806 56.6491C42.9064 53.7084 41.6619 50.9397 39.8436 48.5582C38.0254 46.1767 35.6825 44.2465 32.9971 42.9178C30.3116 41.589 27.3559 40.8973 24.3596 40.8966ZM14.6162 60.3835C14.6162 57.7994 15.6427 55.3211 17.47 53.4939C19.2972 51.6666 21.7755 50.6401 24.3596 50.6401C26.9437 50.6401 29.422 51.6666 31.2493 53.4939C33.0765 55.3211 34.1031 57.7994 34.1031 60.3835C34.1031 62.9676 33.0765 65.4459 31.2493 67.2732C29.422 69.1004 26.9437 70.127 24.3596 70.127C21.7755 70.127 19.2972 69.1004 17.47 67.2732C15.6427 65.4459 14.6162 62.9676 14.6162 60.3835Z" fill="#FFE784"/>
<mask id="mask1_14854_30443" style="mask-type:alpha" maskUnits="userSpaceOnUse" x="35" y="12" width="77" height="77">
<rect x="35.625" y="12.0001" width="76.25" height="76.25" fill="#D9D9D9"/>
</mask>
<g mask="url(#mask1_14854_30443)">
<path d="M92.5325 61.967C94.7694 55.5307 89.954 48.8266 83.1427 48.9338L80.5039 48.974C80.4838 48.974 80.4704 48.974 80.4503 48.974L73.8734 49.0811L67.2966 48.974C67.2765 48.974 67.2631 48.974 67.243 48.974L64.6042 48.9338C57.7929 48.8266 52.9775 55.5307 55.2144 61.967C55.9444 64.0699 56.728 66.0256 57.5451 67.8406C57.9872 68.9055 58.5564 70.0775 59.1927 71.2898C61.9654 76.7281 64.8922 80.8269 67.1358 84.1823C67.2229 84.3096 67.3167 84.4368 67.4104 84.5574C68.8973 86.7072 71.3753 87.732 73.8801 87.6985C76.3783 87.7387 78.863 86.7072 80.3499 84.5574C80.4436 84.4368 80.5374 84.3096 80.6245 84.1823C82.8681 80.8269 85.7949 76.7281 88.5676 71.2898C89.2039 70.0775 89.7731 68.9122 90.2152 67.8406C91.0189 66.0189 91.8025 64.0699 92.5325 61.967Z" fill="#F89E1C"/>
<path d="M81.0467 75.0203C82.9018 71.4305 79.225 68.9659 75.1395 71.33C70.2705 74.143 67.3906 72.8772 64.1424 67.4924C61.5036 63.1123 57.6458 64.2442 56.293 64.8201C56.7149 65.885 57.1435 66.9164 57.5856 67.901C58.0276 68.9659 58.5969 70.1379 59.2331 71.3501C62.0059 76.7885 64.9326 80.8873 67.1763 84.2427C67.2634 84.3699 67.3571 84.4972 67.4509 84.6177C68.9377 86.7676 71.4158 87.7923 73.9206 87.7588C76.4187 87.799 78.9035 86.7676 80.3903 84.6177C80.4841 84.4972 80.5778 84.3699 80.6649 84.2427C81.3949 83.1443 82.2053 81.9723 83.0492 80.6931C81.1069 80.3783 79.2517 78.4896 81.0467 75.0203Z" fill="#032663"/>
<path d="M73.7543 87.873C71.1088 87.873 68.7111 86.6876 67.3248 84.6784C67.231 84.5578 67.1372 84.4305 67.0502 84.2966C66.7287 83.8144 66.3871 83.3121 66.0389 82.7964C64.0028 79.7892 61.4779 76.0521 59.1003 71.3907C58.4239 70.1048 57.868 68.9394 57.4461 67.9348C56.9973 66.9369 56.562 65.8988 56.1535 64.854L56.1133 64.7468L56.2204 64.6999C57.7408 64.0503 61.565 63.0189 64.2172 67.4258C67.5391 72.9378 70.3721 73.929 75.0536 71.2232C77.545 69.7833 79.7351 70.165 80.8 71.183C81.7778 72.1207 81.9051 73.574 81.1282 75.0742C80.3446 76.5946 80.2039 77.9407 80.7263 78.9721C81.1483 79.8026 82.0122 80.3987 83.0369 80.5661L83.2245 80.5929L83.1173 80.747C82.6418 81.4636 82.1797 82.1467 81.7309 82.8031C81.3827 83.3188 81.0478 83.8144 80.7263 84.2899C80.6393 84.4239 80.5455 84.5511 80.4517 84.6717C79.0453 86.7077 76.6007 87.9065 73.8883 87.8596C73.8414 87.873 73.7945 87.873 73.7543 87.873ZM73.8883 87.6319C76.5203 87.6721 78.8912 86.5201 80.2575 84.5444C80.3513 84.4172 80.445 84.2966 80.5254 84.1693C80.8469 83.6871 81.1817 83.1915 81.53 82.6758C81.9453 82.0664 82.3672 81.4301 82.8092 80.7738C81.7845 80.5594 80.9339 79.9366 80.5053 79.086C80.1169 78.3158 79.8691 76.9763 80.9139 74.9671L81.021 75.0207L80.9139 74.9671C81.6372 73.5673 81.5367 72.2211 80.6326 71.3639C79.6279 70.4061 77.5517 70.0579 75.1742 71.4375C70.4056 74.1969 67.3784 73.1454 64.0095 67.5597C61.5114 63.4207 57.9484 64.2646 56.4214 64.8875C56.8165 65.8921 57.2384 66.89 57.6671 67.8544C58.0823 68.859 58.6382 70.011 59.3147 71.2969C61.6855 75.9449 64.2105 79.6754 66.2398 82.6758C66.5881 83.1915 66.9296 83.6938 67.2511 84.176C67.3382 84.3033 67.4252 84.4239 67.519 84.5511C68.8853 86.5201 71.2696 87.6788 73.8883 87.6319Z" fill="#10319B"/>
<path d="M74.0007 87.8724C73.9539 87.8724 73.9137 87.8724 73.8668 87.8724C71.1744 87.9126 68.7098 86.7205 67.3033 84.6778C67.2096 84.5572 67.1158 84.4299 67.0287 84.296C66.7073 83.8138 66.3657 83.3115 66.0174 82.7958C63.9814 79.7886 61.4565 76.0515 59.0789 71.3901C58.4024 70.1042 57.8466 68.9388 57.4246 67.9342C56.5673 66.012 55.7837 64.0363 55.0939 62.0538C54.0089 58.9395 54.4978 55.6176 56.4267 52.952C58.3489 50.2999 61.3225 48.813 64.6043 48.8599L67.2363 48.9001H67.2899L73.8668 49.0073L80.4437 48.9001H80.4772L83.136 48.8599C86.4178 48.8063 89.3914 50.2999 91.3136 52.952C93.2425 55.6176 93.7314 58.9395 92.6464 62.0538C91.9565 64.0363 91.173 66.0187 90.3157 67.9409C89.9004 68.9455 89.3446 70.1108 88.6614 71.3968C86.2838 76.0515 83.7522 79.7953 81.7229 82.8025C81.3746 83.3182 81.033 83.8205 80.7116 84.3027C80.6245 84.4366 80.5307 84.5639 80.437 84.6845C79.0506 86.687 76.6529 87.8724 74.0007 87.8724ZM73.8668 87.6313C76.4989 87.6715 78.8698 86.5195 80.2361 84.5438C80.3298 84.4166 80.4236 84.296 80.504 84.1687C80.8254 83.6865 81.167 83.1842 81.5153 82.6685C83.5446 79.6681 86.0695 75.9309 88.4404 71.2896C89.1168 70.0104 89.666 68.8517 90.088 67.8538C90.9452 65.9384 91.7288 63.9626 92.412 61.9869C93.4702 58.9462 92.9947 55.7047 91.1127 53.1061C89.2374 50.5209 86.324 49.0675 83.136 49.1144L80.504 49.1546H80.4705L73.8735 49.2618L67.2899 49.1546H67.2363L64.5976 49.1144C61.4096 49.0675 58.4962 50.5209 56.6209 53.1061C54.7389 55.7114 54.2634 58.9462 55.3216 61.9869C56.0048 63.9626 56.7884 65.9384 57.6456 67.8538C58.0609 68.8584 58.6168 70.0104 59.2932 71.2963C61.6641 75.9443 64.189 79.6748 66.2183 82.6752C66.5666 83.1909 66.9082 83.6932 67.2296 84.1754C67.3167 84.3027 67.4038 84.4233 67.4975 84.5505C68.8705 86.5195 71.2548 87.6782 73.8668 87.6313Z" fill="#10319B"/>
<path d="M89.3706 52.4971C87.6761 51.0304 85.5195 50.1463 83.1085 50.1932L80.463 50.2401C80.4429 50.2401 80.4295 50.2401 80.4094 50.2401L73.799 50.3539L67.1887 50.2401C67.1686 50.2401 67.1552 50.2401 67.1351 50.2401L64.4896 50.1932C60.8194 50.1329 58.8236 52.7717 57.0957 55.7922C56.7072 56.4754 57.089 57.3594 57.8324 57.5068C64.0945 58.7458 78.3399 60.1322 89.3706 52.4971Z" fill="#E26907"/>
<path d="M72.1524 70.1645C71.5228 70.1645 70.8866 70.0104 70.3039 69.6956C69.0649 69.0259 68.3014 67.7869 68.2545 66.3804L68.0134 58.3167C67.9732 56.9103 68.663 55.6243 69.8619 54.8876C71.0607 54.1442 72.5141 54.104 73.7531 54.7738L80.9126 58.6248C82.1115 59.2677 82.8683 60.4599 82.9419 61.8195C83.0156 63.179 82.3861 64.4449 81.2676 65.2084C81.2341 65.2352 81.1939 65.2552 81.1604 65.282L81.1136 65.3088L74.2018 69.5818C73.5656 69.9635 72.8556 70.1645 72.1524 70.1645ZM71.9046 54.7805C71.2884 54.7805 70.6656 54.9546 70.1097 55.2962C69.0582 55.9458 68.4554 57.071 68.4956 58.3033L68.7367 66.367C68.7769 67.5993 69.4466 68.6843 70.5316 69.267C71.6166 69.8497 72.8958 69.8162 73.9406 69.1665L80.8992 64.8668C80.9327 64.8467 80.9662 64.8266 80.993 64.8065C81.9708 64.1368 82.52 63.0317 82.453 61.8396C82.3928 60.6541 81.7297 59.6093 80.6782 59.0467L73.5187 55.1957C73.0097 54.9144 72.4538 54.7805 71.9046 54.7805Z" fill="#F89E1C"/>
<path d="M72.1178 70.2254C71.4949 70.2254 70.8654 70.0713 70.2827 69.7566C69.0504 69.0935 68.2936 67.8679 68.2534 66.4681L68.0056 58.2035C67.9654 56.8104 68.6485 55.5379 69.834 54.8012C71.0194 54.0645 72.4661 54.0243 73.6984 54.6873L81.0321 58.6388C82.2175 59.2751 82.9676 60.4605 83.0413 61.8067C83.115 63.1529 82.4921 64.412 81.387 65.1688C81.3536 65.1956 81.3134 65.2157 81.2799 65.2425L81.233 65.2693L74.1471 69.6494C73.5176 70.0311 72.821 70.2254 72.1178 70.2254ZM71.8633 54.4663C71.207 54.4663 70.5506 54.6472 69.9612 55.0155C68.8495 55.7054 68.2065 56.8975 68.2467 58.2035L68.4945 66.4681C68.5347 67.7741 69.2446 68.9261 70.3966 69.5489C71.5485 70.1718 72.9014 70.1316 74.0199 69.4418L81.1459 65.0349C81.1794 65.0148 81.2129 64.988 81.2464 64.9679C82.2845 64.258 82.8672 63.0859 82.8002 61.8201C82.7332 60.561 82.03 59.4492 80.9182 58.8531L73.5845 54.9017C73.0421 54.6137 72.4527 54.4663 71.8633 54.4663Z" fill="#10319B"/>
<path d="M72.6002 68.3096C72.118 68.3096 71.6358 68.189 71.187 67.9479C70.236 67.4389 69.6533 66.4946 69.6198 65.4163L69.439 59.3752C69.4055 58.2969 69.9346 57.3191 70.8522 56.7565C71.7697 56.1872 72.8815 56.1604 73.8258 56.6694L79.1838 59.556C80.1013 60.0516 80.6773 60.9625 80.7309 62.0006C80.7844 63.0387 80.3089 64.0098 79.4516 64.5925C79.4249 64.6126 79.3981 64.626 79.3713 64.6461L79.3378 64.6662L74.1607 67.8675C73.6785 68.1555 73.1427 68.3096 72.6002 68.3096ZM72.4127 56.79C71.9572 56.79 71.5085 56.9173 71.1 57.1651C70.3365 57.6406 69.8944 58.4577 69.9212 59.3618L70.102 65.4029C70.1288 66.307 70.6177 67.0973 71.4147 67.526C72.205 67.9546 73.1427 67.9278 73.9062 67.4523L79.1101 64.2308C79.1369 64.2174 79.157 64.1974 79.1771 64.184C79.8937 63.695 80.2888 62.8847 80.2419 62.0207C80.1951 61.1567 79.7128 60.3932 78.9493 59.978L73.5914 57.0914C73.223 56.8905 72.8212 56.79 72.4127 56.79Z" fill="#F89E1C"/>
<path d="M79.1918 64.3848C79.2186 64.3714 79.2454 64.3513 79.2655 64.3379C80.8929 63.2261 80.7791 60.7682 79.0244 59.8239L73.787 56.9975C71.972 56.0197 69.7886 57.3726 69.8489 59.4354L70.023 65.3358C70.0833 67.3919 72.3537 68.6109 74.1017 67.5326L79.165 64.4049C79.1717 64.3982 79.1851 64.3915 79.1918 64.3848Z" fill="#032663"/>
<path d="M77.0023 63.4742C77.0157 63.4675 77.0291 63.4541 77.0425 63.4474C77.96 62.8246 77.8931 61.4382 76.9018 60.9024L73.9483 59.3151C72.9236 58.7659 71.6912 59.5294 71.7314 60.6881L71.8319 64.0167C71.8654 65.1754 73.1446 65.8652 74.1291 65.2557L76.9822 63.4943C76.9889 63.4876 76.9956 63.4809 77.0023 63.4742Z" fill="#33FCFE"/>
<path d="M90.3841 54.7675C89.567 55.6984 84.8052 58.0626 84.8052 58.0626C84.8052 58.0626 86.4393 59.2882 86.4661 61.8801C86.4862 63.8157 84.6578 65.5503 84.6578 65.5503C86.3054 67.2314 85.6825 70.1983 84.4636 72.4487C83.2447 74.699 84.3229 75.3553 84.3229 75.3553C84.3229 75.3553 91.449 64.7064 92.0719 58.7256C92.3264 56.2945 90.3841 54.7675 90.3841 54.7675Z" fill="#F4B821"/>
<path d="M58.1875 66.0323C58.1875 66.0323 60.036 65.7242 61.0272 66.9766C62.0184 68.229 67.9122 79.3401 70.6581 83.3116C71.1537 84.0283 72.4262 86.4862 73.8394 85.9973C73.8394 85.9973 71.8703 87.1158 68.9704 84.1957C66.0771 81.2689 59.8886 69.5551 58.1875 66.0323Z" fill="#0E51A0"/>
<path d="M54.8794 19.5649C56.2287 18.6137 57.8412 17.8041 59.6223 17.1294L59.5076 17.1564C59.5076 17.1564 65.2288 13.9922 73.7633 13.9922C82.2709 13.9922 88.0595 17.0619 88.0932 17.0822C89.9283 17.7636 91.5745 18.5867 92.9576 19.5582C99.6165 24.2471 99.0701 34.3199 96.1487 43.8124C94.037 50.721 83.9778 53.865 73.9252 53.7098C63.8727 53.865 53.8134 50.721 51.6882 43.8124C48.7669 34.3266 48.2204 24.2539 54.8794 19.5649Z" fill="#F89E1C"/>
<path d="M54.8807 19.5995C55.5891 19.1002 56.3717 18.6415 57.2083 18.2164C50.6842 22.9593 51.2375 32.9781 54.1385 42.4235C56.2637 49.3455 66.3163 52.4895 76.3755 52.3411C82.09 52.4288 87.8044 51.4438 92.0683 49.3118C87.7302 52.4692 80.8283 53.9265 73.9198 53.8186C63.8672 53.9738 53.8079 50.8231 51.6827 43.901C48.7682 34.3949 48.2217 24.3019 54.8807 19.5995Z" fill="#F5851F"/>
<path d="M57.9901 28.0468C53.9084 27.1968 53.6385 20.693 53.625 20.4096L54.1108 20.3961C54.1108 20.4568 54.3806 26.7987 58.0845 27.5678L57.9901 28.0468Z" fill="#F89E1C"/>
<path d="M88.9787 28.2957L88.8438 27.8301C92.9052 26.6495 93.1414 20.0512 93.1414 19.9838L93.6271 19.9973C93.6204 20.2806 93.3775 27.0205 88.9787 28.2957Z" fill="#F4B821"/>
<path d="M74.068 19.775C71.7808 19.775 69.6556 19.0261 68.4142 17.7645C68.3738 17.724 68.3333 17.6835 68.2928 17.6363L66.0664 15.1265L66.6129 14.6407L68.8393 17.1438C68.8663 17.1775 68.9 17.2112 68.9337 17.245C70.1414 18.4729 72.3138 19.1475 74.6144 19.0261C76.8476 18.9046 78.7906 18.0546 79.8094 16.7659L81.4016 14.7419L81.975 15.194L80.3828 17.218C79.2426 18.6753 77.0972 19.6198 74.6549 19.7547C74.4525 19.7682 74.2636 19.775 74.068 19.775Z" fill="#F4B821"/>
<path d="M74.0539 22.4124C71.0246 22.4124 68.2787 21.3937 66.5314 19.6125C66.4706 19.5518 66.4032 19.4843 66.3425 19.4169L66.275 19.3427L63.2188 15.9086L63.7652 15.4229L66.8822 18.9311C66.9362 18.9918 66.9901 19.0526 67.0509 19.1065C68.6633 20.7392 71.2203 21.6838 74.0539 21.6838C74.2833 21.6838 74.5194 21.677 74.7555 21.6635C77.7781 21.4948 80.3755 20.3074 81.8733 18.3981L84.1469 15.5038L84.7204 15.9558L82.4467 18.8502C80.8208 20.9214 78.0277 22.21 74.796 22.3922C74.5531 22.4056 74.3035 22.4124 74.0539 22.4124Z" fill="#F4B821"/>
<path d="M92.5818 21.3393C91.1987 20.361 89.5525 19.5245 87.7174 18.843C87.677 18.8228 81.8748 15.2875 73.3673 15.2875C67.7676 15.2808 62.8762 16.2186 60.1641 16.8595C61.8845 16.0499 66.9175 13.9922 73.7721 13.9922C82.2796 13.9922 88.0683 17.0889 88.102 17.1091C89.9371 17.7973 91.5833 18.6271 92.9663 19.6054C98.9034 23.8221 99.1126 32.3566 97.0143 40.9384C98.674 32.9638 98.1208 25.2726 92.5818 21.3393Z" fill="#F4B821"/>
<path d="M89.3754 27.9649L89.3281 27.7287C93.1332 26.9394 93.5448 20.1657 93.5515 20.0983L93.7944 20.1118C93.7742 20.3951 93.3626 27.135 89.3754 27.9649Z" fill="#10319B"/>
<path d="M82.1574 18.6014L84.431 15.7071C83.6349 15.4507 82.7106 15.1876 81.6784 14.9447L80.0861 16.9687C79.0067 18.345 76.9624 19.2356 74.6281 19.3705C72.2263 19.5055 69.9459 18.7836 68.6708 17.4815C68.6303 17.441 68.5966 17.4073 68.5628 17.3668L66.3364 14.8638C65.2772 15.0999 64.3259 15.3698 63.4961 15.6329L66.5523 19.0669L66.6198 19.1412C66.6805 19.2019 66.7345 19.2693 66.7952 19.3301C68.4751 21.037 71.1468 22.0152 74.0546 22.0152C74.2908 22.0152 74.5336 22.0085 74.7765 21.995C77.9002 21.8331 80.5921 20.5917 82.1574 18.6014Z" fill="#032663"/>
<path d="M58.3875 27.9656C54.4002 27.1358 53.9616 20.4634 53.9414 20.18L54.1843 20.1665C54.191 20.234 54.6296 26.9402 58.4347 27.7295L58.3875 27.9656Z" fill="#10319B"/>
<path d="M73.8712 53.6232C68.8989 53.6974 63.9334 53.0092 59.8179 51.498C58.8599 50.4725 58.0975 49.1501 57.6522 47.6119C56.512 43.6651 55.2302 38.1463 54.7377 31.9461C54.4948 28.8967 56.2152 26.1305 58.6845 25.5368C62.0511 24.7272 67.246 23.7894 73.4124 23.695V23.6882C73.5879 23.6882 73.7565 23.695 73.9319 23.695C74.1073 23.695 74.276 23.6882 74.4514 23.6882V23.695C80.6179 23.7894 85.6914 24.572 89.058 25.3816C91.5272 25.9754 93.3691 28.8967 93.1262 31.9461C92.6337 38.1463 91.3518 43.6651 90.2116 47.6119C89.7731 49.1164 89.0377 50.4118 88.1067 51.4373C83.944 52.989 78.9042 53.6974 73.8712 53.6232Z" fill="#032663"/>
<path d="M91.0408 49.8986L90.0625 50.4316C90.2447 49.8919 90.5483 48.9811 90.7507 48.3401C91.2904 46.6535 91.9043 44.7374 92.4508 43.4556C93.3346 41.3843 95.7904 39.8191 97.4029 39.0365L97.1263 40.0957C95.6218 40.8311 93.9148 41.8768 93.1187 43.7457C92.5858 45.0005 91.9786 46.8964 91.4388 48.5695C91.2432 49.2037 91.2229 49.3589 91.0408 49.8986Z" fill="#F4B821"/>
<path d="M57.1058 50.0539C57.0519 50.0539 57.0046 50.0202 56.9911 49.973C56.8292 49.494 56.6606 48.9677 56.4851 48.4347C55.9589 46.8088 55.3584 44.9602 54.7985 43.6446C53.9821 41.7353 52.228 40.6761 50.6155 39.8867C50.5548 39.8597 50.5278 39.7855 50.5616 39.7248C50.5886 39.6641 50.6628 39.6371 50.7235 39.6708C52.3764 40.4737 54.1778 41.5666 55.0279 43.5502C55.5946 44.8792 56.195 46.7278 56.7213 48.3605C56.8967 48.8935 57.0654 49.413 57.2205 49.8988C57.2408 49.9595 57.207 50.0337 57.1463 50.0539C57.1328 50.0539 57.1193 50.0539 57.1058 50.0539Z" fill="#F89E1C"/>
<path d="M97.2076 40.0619C96.9175 41.3168 96.5802 42.5784 96.1956 43.8265C95.4063 46.4038 93.5375 48.4547 90.9805 50.02C91.6416 48.0432 92.1949 45.837 92.937 44.0896C93.8208 42.0319 95.7841 40.75 97.2076 40.0619Z" fill="#032663"/>
<path d="M95.4746 43.9821C95.7445 43.2535 95.9941 42.5248 96.2302 41.7894C95.4746 42.2752 94.6987 42.9768 94.2265 43.9551C93.7205 44.9941 93.2752 46.276 92.8164 47.4971C94.0173 46.5728 94.9416 45.4056 95.4746 43.9821Z" fill="#0E51A0"/>
<path d="M91.1356 50.0064L90.9062 49.9322C91.1356 49.2507 91.3515 48.5289 91.5607 47.8339C91.9587 46.5116 92.377 45.1488 92.8628 43.9951C93.7398 41.9306 95.7031 40.6353 97.1874 39.9066L97.2953 40.1225C95.8448 40.8309 93.9422 42.0858 93.0854 44.0828C92.5997 45.223 92.1881 46.5791 91.7901 47.8947C91.5809 48.6031 91.365 49.325 91.1356 50.0064Z" fill="#10319B"/>
<path d="M50.6172 40.0619C50.9073 41.3168 51.2446 42.5784 51.6292 43.8265C52.4185 46.4038 54.2874 48.4547 56.8444 50.02C56.1832 48.0432 55.63 45.837 54.8878 44.0896C54.0108 42.0319 52.0407 40.75 50.6172 40.0619Z" fill="#032663"/>
<path d="M74.5868 53.8185C74.3641 53.8185 74.1415 53.8185 73.9256 53.8117C65.0672 53.9467 53.9083 51.4167 51.5739 43.8401C49.4824 37.053 47.1279 24.8685 54.8123 19.4577L54.8798 19.5589L54.8123 19.4577C56.1549 18.5132 59.4135 17.0761 59.5552 17.0154C59.6024 16.9884 65.3034 13.8715 73.7704 13.8715C82.2645 13.8715 88.1004 16.9412 88.1611 16.9749C90.0434 17.6698 91.6896 18.5064 93.0389 19.4577C100.723 24.8685 98.3688 37.053 96.2773 43.8334C93.9969 51.2277 83.3237 53.8185 74.5868 53.8185ZM73.9189 53.5688C74.1348 53.5688 74.3574 53.5756 74.58 53.5756C83.236 53.5756 93.8013 51.0321 96.0412 43.7659C98.1124 37.0463 100.453 24.9832 92.8972 19.6601C91.5614 18.7223 89.9354 17.8925 88.0599 17.1976C87.9857 17.1571 82.197 14.1211 73.7704 14.1211C65.3708 14.1211 59.7171 17.2043 59.6632 17.238C59.6227 17.2583 56.2831 18.7291 54.954 19.6601C47.391 24.9765 49.7388 37.0463 51.8033 43.7659C54.0972 51.2143 65.1549 53.7038 73.9189 53.5688Z" fill="#10319B"/>
<path d="M73.9251 52.557C69.6612 52.6177 65.404 52.0847 61.7743 50.9176C61.2144 50.7354 60.7084 50.3981 60.3575 49.9258C59.7571 49.1297 59.2848 48.1919 58.9677 47.1462C57.9152 43.5974 56.7346 38.6252 56.2825 33.0457C56.0599 30.2998 57.6454 27.8103 59.919 27.2773C63.0225 26.5486 67.8126 25.7053 73.5 25.6176V25.6108C73.662 25.6108 73.8171 25.6108 73.979 25.6176C74.141 25.6176 74.2961 25.6108 74.4581 25.6108V25.6176C80.1455 25.7053 84.9289 26.5486 88.0391 27.2773C90.3195 27.8103 91.8982 30.2998 91.6755 33.0457C91.2168 38.6252 90.0429 43.5974 88.9904 47.1462C88.68 48.1852 88.2145 49.1095 87.6208 49.8988C87.2835 50.3509 86.8112 50.6747 86.2782 50.8501C82.5945 52.0712 78.2632 52.6245 73.9251 52.557Z" fill="#FCE8CA"/>
<path d="M73.1159 53.677C68.1976 53.677 63.5964 52.9416 59.771 51.5383L59.744 51.5315L59.7238 51.5113C58.7253 50.4386 57.9696 49.0758 57.5311 47.5712C56.4854 43.9415 55.1225 38.2676 54.6098 31.8515C54.3602 28.7278 56.0941 25.9145 58.651 25.3005C62.0851 24.4774 77.3326 22.0621 89.2 25.3005C91.7434 25.9954 93.4773 28.8088 93.2345 31.8515C92.7217 38.2676 91.3656 43.9415 90.3131 47.5712C89.8881 49.0488 89.146 50.3914 88.1812 51.4506L88.161 51.4708L88.134 51.4843C84.14 52.9821 79.0732 53.7647 73.8648 53.6837C73.6152 53.677 73.3655 53.677 73.1159 53.677ZM73.8715 53.4274C79.0395 53.5083 84.059 52.7324 88.026 51.2549C88.9571 50.2227 89.6722 48.9273 90.0838 47.497C91.1295 43.8808 92.4856 38.2204 92.9916 31.8245C93.2277 28.8965 91.568 26.1911 89.1325 25.5299C77.3123 22.305 62.1256 24.7135 58.705 25.5299C56.2695 26.1169 54.6098 28.8223 54.8527 31.8245C55.3654 38.2204 56.7148 43.8808 57.7605 47.497C58.1855 48.9611 58.9142 50.2834 59.8789 51.3224C63.8122 52.7527 68.7778 53.5083 73.8715 53.4274Z" fill="#10319B"/>
<path d="M56.735 49.9253C56.5123 49.2641 56.3032 48.5759 56.1008 47.908C55.7027 46.5992 55.2845 45.2498 54.7919 44.0894C53.9419 42.0924 52.0326 40.8308 50.582 40.1291L50.69 39.9132C52.1742 40.6351 54.1308 41.9305 55.0146 44.0017C55.5138 45.1689 55.9321 46.5317 56.3302 47.8405C56.5326 48.5085 56.7417 49.1966 56.9644 49.851L56.735 49.9253Z" fill="#10319B"/>
<path d="M93.6406 40.0081L96.7643 38.1865C96.7643 38.1865 97.6549 29.2134 94.7538 25.1317L93.9172 27.7022C93.9172 27.7022 95.2598 29.652 93.6406 40.0081Z" fill="#F4B821"/>
<ellipse cx="74.1072" cy="46.4866" rx="1.66189" ry="2.28509" fill="#032663"/>
<path d="M63.4025 34.5135C63.4421 34.5069 63.4818 34.4871 63.5148 34.4541C64.0234 34.0116 64.6905 33.8332 65.351 33.9719C65.4963 34.005 65.635 33.9125 65.6614 33.7672C65.6944 33.6219 65.6019 33.4832 65.4566 33.4568C64.631 33.285 63.7988 33.503 63.1647 34.0578C63.0524 34.1569 63.0458 34.322 63.1383 34.4343C63.2109 34.5069 63.31 34.5334 63.4025 34.5135Z" fill="#032663"/>
<path d="M84.6172 34.5137C84.5775 34.5071 84.5379 34.4872 84.5049 34.4542C83.9963 34.0117 83.3292 33.8334 82.6687 33.9721C82.5234 34.0051 82.3847 33.9126 82.3583 33.7673C82.3252 33.622 82.4177 33.4833 82.563 33.4569C83.3886 33.2851 84.2209 33.5031 84.8549 34.0579C84.9672 34.157 84.9738 34.3221 84.8814 34.4344C84.8153 34.5071 84.7096 34.5335 84.6172 34.5137Z" fill="#032663"/>
<path d="M70.0471 41.3096C69.9942 41.4549 69.9282 41.6002 69.8489 41.7323L65.199 42.1286C65.0999 42.0097 65.0141 41.8776 64.9414 41.7389L70.0471 41.3096Z" fill="#0052A3"/>
<path d="M70.2024 40.7344C70.1826 40.8797 70.1495 41.0184 70.1099 41.1505L64.8656 41.5996C64.8061 41.4741 64.7533 41.342 64.707 41.2033L70.2024 40.7344Z" fill="#0052A3"/>
<path d="M70.2022 39.5986L70.2287 40.0081L64.5682 40.4903L64.5352 40.0874L70.2022 39.5986Z" fill="#0052A3"/>
<path d="M70.232 40.1667C70.2386 40.3055 70.232 40.4442 70.2188 40.5763L64.6508 41.0518C64.6178 40.9197 64.5913 40.7876 64.5781 40.6489L70.232 40.1667Z" fill="#0052A3"/>
<path d="M69.2172 42.5116C68.986 42.7097 68.7284 42.8683 68.4444 42.9872L66.7998 43.1259C66.5025 43.0598 66.2185 42.9409 65.9609 42.789L69.2172 42.5116Z" fill="#0052A3"/>
<path d="M69.3204 36.1244L64.8555 36.5075C64.9545 36.349 65.0734 36.2037 65.1989 36.0716L68.9175 35.7545C69.0628 35.8602 69.2015 35.9857 69.3204 36.1244Z" fill="#0052A3"/>
<path d="M69.7496 41.9037C69.6439 42.0622 69.525 42.2075 69.3995 42.3396L65.7403 42.65C65.5884 42.5378 65.4497 42.4123 65.3242 42.2736L69.7496 41.9037Z" fill="#0052A3"/>
<path d="M67.9218 35.2721C68.2058 35.3447 68.47 35.457 68.7144 35.6156L65.3789 35.8996C65.5969 35.708 65.8413 35.5495 66.1121 35.4306L67.9218 35.2721Z" fill="#0052A3"/>
<path d="M69.7773 36.8116C69.8368 36.9371 69.8896 37.0692 69.9292 37.2079L64.4141 37.6769C64.4339 37.5316 64.4669 37.3929 64.5065 37.2608L69.7773 36.8116Z" fill="#0052A3"/>
<path d="M69.9762 37.3599C70.0092 37.492 70.0356 37.6241 70.0488 37.7628L64.395 38.2449C64.3884 38.1062 64.3884 37.9675 64.4016 37.8354L69.9762 37.3599Z" fill="#0052A3"/>
<path d="M69.4541 36.2695C69.5466 36.3884 69.6324 36.5205 69.7051 36.6592L64.5664 37.0952C64.6192 36.9498 64.6787 36.8045 64.758 36.6724L69.4541 36.2695Z" fill="#0052A3"/>
<path d="M70.1097 38.4757L70.1427 38.8852L64.4822 39.3674L64.4492 38.9579L70.1097 38.4757Z" fill="#0052A3"/>
<path d="M70.0694 37.9147L70.0958 38.3242L64.4354 38.8063L64.4023 38.3968L70.0694 37.9147Z" fill="#0052A3"/>
<path d="M70.1527 39.0367L70.1857 39.4463L64.5186 39.9284L64.4922 39.5189L70.1527 39.0367Z" fill="#0052A3"/>
<path d="M83.3247 41.6126C83.252 41.7513 83.1728 41.89 83.0803 42.0155L78.4106 41.8702C78.3313 41.7381 78.2587 41.5994 78.1992 41.4541L83.3247 41.6126Z" fill="#0052A3"/>
<path d="M83.5452 41.0578C83.5056 41.1965 83.4593 41.3286 83.3999 41.4607L78.1357 41.3022C78.0895 41.1701 78.0499 41.0314 78.0234 40.8927L83.5452 41.0578Z" fill="#0052A3"/>
<path d="M83.6688 39.9287L83.649 40.3382L77.9688 40.1665L77.9886 39.757L83.6688 39.9287Z" fill="#0052A3"/>
<path d="M83.6436 40.4968C83.6304 40.6355 83.6172 40.7676 83.5842 40.8997L78.003 40.728C77.9832 40.5959 77.9766 40.4572 77.9766 40.3185L83.6436 40.4968Z" fill="#0052A3"/>
<path d="M82.3554 42.7093C82.1044 42.881 81.827 43.0065 81.5298 43.0924L79.8785 43.0396C79.5879 42.9405 79.3237 42.7886 79.0859 42.6102L82.3554 42.7093Z" fill="#0052A3"/>
<path d="M83.2008 36.3754L78.7227 36.2433C78.8415 36.098 78.9736 35.9659 79.1123 35.847L82.8376 35.9593C82.9763 36.0848 83.0952 36.2235 83.2008 36.3754Z" fill="#0052A3"/>
<path d="M82.962 42.1671C82.8431 42.3124 82.7044 42.4445 82.5591 42.5634L78.8933 42.4511C78.7546 42.3257 78.6357 42.1869 78.5234 42.035L82.962 42.1671Z" fill="#0052A3"/>
<path d="M81.9044 35.3649C82.1752 35.4705 82.4327 35.6159 82.6573 35.7942L79.3086 35.6885C79.5464 35.5234 79.8106 35.3913 80.088 35.3054L81.9044 35.3649Z" fill="#0052A3"/>
<path d="M83.575 37.1081C83.6213 37.2402 83.6543 37.3789 83.6807 37.5176L78.1523 37.3459C78.192 37.2072 78.2382 37.0751 78.291 36.943L83.575 37.1081Z" fill="#0052A3"/>
<path d="M83.7098 37.6766C83.7296 37.8087 83.7362 37.9474 83.7362 38.0861L78.0625 37.9144C78.0691 37.7757 78.0889 37.6436 78.1153 37.5115L83.7098 37.6766Z" fill="#0052A3"/>
<path d="M83.3104 36.5339C83.3897 36.666 83.4557 36.8047 83.5152 36.95L78.3633 36.7915C78.4359 36.6527 78.5086 36.514 78.6011 36.3885L83.3104 36.5339Z" fill="#0052A3"/>
<path d="M83.7091 38.8053L83.6959 39.2082L78.0156 39.0364L78.0288 38.6335L83.7091 38.8053Z" fill="#0052A3"/>
<path d="M83.7353 38.2438L83.7154 38.6467L78.0352 38.4749L78.055 38.0654L83.7353 38.2438Z" fill="#0052A3"/>
<path d="M83.6896 39.3672L83.6764 39.7767L77.9961 39.5983L78.0093 39.1954L83.6896 39.3672Z" fill="#0052A3"/>
<path fill-rule="evenodd" clip-rule="evenodd" d="M81.205 44.4811C77.9037 44.4811 75.2289 41.7959 75.2289 38.505C75.2289 35.2037 77.9037 32.5186 81.205 32.5186C84.4959 32.5186 87.181 35.2037 87.181 38.505C87.181 41.7959 84.4959 44.4811 81.205 44.4811ZM66.7187 44.4811C63.4278 44.4811 60.7427 41.7959 60.7427 38.505C60.7427 35.2037 63.4278 32.5186 66.7187 32.5186C70.02 32.5186 72.7051 35.2037 72.7051 38.505C72.7051 41.7959 70.02 44.4811 66.7187 44.4811ZM81.2049 29.9956C78.1465 29.9956 75.4605 31.6312 73.9674 34.0641C72.4631 31.6312 69.7873 29.9956 66.7186 29.9956C62.0349 29.9956 58.2188 33.8118 58.2188 38.5058C58.2188 43.1895 62.0349 47.0057 66.7186 47.0057C69.7873 47.0057 72.4631 45.37 73.9674 42.9382C75.4605 45.37 78.1465 47.0057 81.2049 47.0057C85.8895 47.0057 89.7048 43.1895 89.7048 38.5058C89.7048 33.8118 85.8895 29.9956 81.2049 29.9956Z" fill="#002E6D"/>
<path fill-rule="evenodd" clip-rule="evenodd" d="M87.1057 38.553C87.1057 41.8769 84.3913 44.5889 81.0645 44.5889C77.7273 44.5889 75.0234 41.8769 75.0234 38.553C75.0234 35.2187 77.7273 32.5067 81.0645 32.5067C84.3913 32.5067 87.1057 35.2187 87.1057 38.553Z" fill="#92E0FF"/>
<path fill-rule="evenodd" clip-rule="evenodd" d="M72.6057 38.553C72.6057 41.8769 69.8937 44.5889 66.5593 44.5889C63.2354 44.5889 60.5234 41.8769 60.5234 38.553C60.5234 35.2187 63.2354 32.5067 66.5593 32.5067C69.8937 32.5067 72.6057 35.2187 72.6057 38.553Z" fill="#92E0FF"/>
<path fill-rule="evenodd" clip-rule="evenodd" d="M63.0089 42.1729C62.7443 42.1729 62.4786 42.0719 62.2765 41.8697C61.8714 41.4645 61.8714 40.8091 62.2765 40.4039L67.4533 35.2268C67.8585 34.8225 68.5139 34.8225 68.9181 35.2268C69.3233 35.632 69.3233 36.2874 68.9181 36.6926L63.7413 41.8697C63.5392 42.0719 63.2736 42.1729 63.0089 42.1729Z" fill="white"/>
<path fill-rule="evenodd" clip-rule="evenodd" d="M67.299 41.6893C67.05 41.6893 66.8002 41.5858 66.6101 41.3756C66.2289 40.9572 66.2289 40.2779 66.6101 39.8595L69.4934 36.6869C69.8745 36.2686 70.491 36.2686 70.8713 36.6869C71.2524 37.1053 71.2524 37.7836 70.8713 38.203L67.9879 41.3756C67.7978 41.5858 67.5479 41.6893 67.299 41.6893Z" fill="white"/>
<path fill-rule="evenodd" clip-rule="evenodd" d="M79.4425 42.6562C79.1779 42.6562 78.9122 42.5551 78.7101 42.353C78.305 41.9488 78.305 41.2925 78.7101 40.8873L83.8869 35.7107C84.2921 35.3056 84.9475 35.3056 85.3517 35.7107C85.7569 36.1149 85.7569 36.7713 85.3517 37.1755L80.1749 42.353C79.9728 42.5551 79.7072 42.6562 79.4425 42.6562Z" fill="white"/>
<path fill-rule="evenodd" clip-rule="evenodd" d="M79.3805 38.7897C79.1315 38.7897 78.8816 38.6946 78.6915 38.5045C78.3112 38.1233 78.3112 37.5067 78.6915 37.1255L81.5752 34.2427C81.9564 33.8615 82.573 33.8615 82.9533 34.2427C83.3344 34.6229 83.3344 35.2395 82.9533 35.6207L80.0695 38.5045C79.8794 38.6946 79.6295 38.7897 79.3805 38.7897Z" fill="white"/>
<path d="M46.9352 55.7436C47.6516 51.852 50.0335 42.7913 57.5084 34.2801C58.2403 33.4502 59.6087 33.8892 59.7277 34.9869L59.8243 35.8442C60.7739 44.5376 56.2179 52.9069 48.4006 56.8345C47.6466 57.2185 46.7859 56.5769 46.9352 55.7436Z" fill="#F5851F"/>
<path d="M48.4043 56.834C47.6551 57.21 46.7943 56.5684 46.9389 55.7432C47.567 52.3197 49.4845 44.8941 55.0309 37.3717C51.0037 44.609 49.9777 53.1812 49.7378 56.1052C49.2982 56.3582 48.8587 56.6113 48.4043 56.834Z" fill="#F89E1C"/>
<path d="M54.6 38.8752C54.2442 38.6681 53.9882 38.6058 53.9511 38.595L53.7962 39.2519L53.8673 38.9251L53.7835 39.2553C53.8205 39.266 57.7646 40.5434 56.2471 49.7931L57.0643 48.7422C58.1791 41.4125 55.805 39.5764 54.6 38.8752Z" fill="#F89E1C"/>
<path d="M55.7869 36.3509C55.7869 36.3509 59.7192 36.6255 59.3398 42.6727C59.3398 42.6727 60.7824 35.7286 58.985 34.0548C58.985 34.0548 57.8166 32.9744 55.7869 36.3509Z" fill="#032663"/>
<path d="M59.1997 33.8881C59.1027 33.8316 59.009 33.788 58.8979 33.7557C58.3467 33.5866 57.7711 33.7388 57.387 34.1756C49.7903 42.8216 47.4309 52.1227 46.7713 55.7119C46.689 56.1511 46.8619 56.5982 47.2218 56.8726C47.5818 57.147 48.0654 57.1902 48.4686 56.981C56.3115 53.0466 60.9348 44.5432 59.9784 35.8243L59.8818 34.967C59.8436 34.5118 59.5879 34.114 59.1997 33.8881ZM47.5159 56.6648C47.4836 56.646 47.4593 56.6319 47.4317 56.605C47.1675 56.4079 47.0445 56.0982 47.1028 55.7749C47.761 52.2066 50.0989 42.9796 57.6371 34.3969C57.9263 34.0673 58.366 33.9442 58.7979 34.0764C59.2169 34.212 59.517 34.5707 59.5647 35.0098L59.6612 35.8671C60.6013 44.4466 56.0452 52.8159 48.3282 56.6828C48.0637 56.8212 47.7666 56.8107 47.5159 56.6648Z" fill="#10319B"/>
<path d="M57.0681 36.6756C56.3807 36.2756 55.8243 36.19 55.8115 36.1934L55.7694 36.5261C55.919 36.5482 59.5485 37.1013 59.2737 42.6897L59.6124 42.7028C59.7903 38.9741 58.2408 37.358 57.0681 36.6756Z" fill="#10319B"/>
<path d="M54.813 38.7841C54.4652 38.5817 54.2173 38.5241 54.1803 38.5133L54.1092 38.8401C54.1463 38.8508 58.0868 39.8555 56.9076 48.7283L57.2403 48.7703C58.1803 41.6853 55.9614 39.4523 54.813 38.7841Z" fill="#10319B"/>
<path d="M100.462 55.707C99.6785 51.8284 97.14 42.8103 89.5187 34.43C88.7725 33.6129 87.4119 34.0755 87.3119 35.1751L87.2302 36.034C86.4314 44.7425 91.1318 53.0316 99.016 56.8231C99.7765 57.194 100.626 56.5376 100.462 55.707Z" fill="#F89E1C"/>
<path d="M99.12 55.2281C99.1023 55.2169 99.0894 55.2137 99.0717 55.2026C96.2271 53.6652 94.6708 50.4619 95.1687 47.273C95.3315 46.2229 95.6611 45.1594 96.2496 44.2344C98.8629 48.5696 99.7756 52.589 100.077 54.5504C100.158 55.0812 99.5895 55.4798 99.12 55.2281Z" fill="#F4B821"/>
<path d="M93.8645 53.2263C89.2468 48.8683 86.7044 42.5542 87.2309 36.0339L87.2966 35.1848C87.301 35.0837 87.3311 34.9889 87.3613 34.8941L88.8665 34.0923C89.0898 34.154 89.2925 34.272 89.4633 34.4639C90.2289 35.3129 90.9399 36.1623 91.6091 37.0149C88.2177 41.7476 91.817 49.5547 93.8645 53.2263Z" fill="#F5851F"/>
<path d="M92.4334 38.9971C91.2248 39.7288 89.0868 42.0511 90.3004 49.1695L91.0788 50.0218C89.1619 40.3322 93.2676 39.3453 93.3045 39.3339L93.1671 38.6733C93.1222 38.6895 92.8337 38.7549 92.4334 38.9971Z" fill="#F89E1C"/>
<path d="M91.2787 36.4711C91.2787 36.4711 87.3518 36.8138 87.8359 42.8535C87.8359 42.8535 86.2732 35.9354 88.0413 34.2308C88.0413 34.2308 89.1908 33.1303 91.2787 36.4711Z" fill="#032663"/>
<path d="M87.8196 34.0677C87.4354 34.3003 87.1818 34.6945 87.1404 35.168L87.0587 36.0268C86.2535 44.761 91.0315 53.1782 98.9333 56.9809C99.3481 57.1783 99.8181 57.1235 100.178 56.8509C100.533 56.5703 100.703 56.1283 100.608 55.6826C99.8819 52.0974 97.3697 42.8337 89.6211 34.3335C89.2344 33.9114 88.6513 33.7612 88.1032 33.9399C88.0086 33.9643 87.9157 34.0096 87.8196 34.0677ZM99.8964 56.6386C99.6483 56.7888 99.3595 56.7995 99.0894 56.6786C91.3066 52.946 86.6062 44.657 87.3974 36.0624L87.4791 35.2036C87.5191 34.7637 87.8129 34.3999 88.2296 34.2571C88.6462 34.1143 89.088 34.2297 89.3958 34.5574C97.0895 43.0033 99.579 52.1932 100.299 55.7496C100.363 56.0719 100.245 56.3836 99.9845 56.5853C99.9524 56.6046 99.9284 56.6192 99.8964 56.6386Z" fill="#10319B"/>
<path d="M90.0007 36.818C88.84 37.5205 87.3188 39.1633 87.5661 42.8964L87.9046 42.8774C87.5281 37.2866 91.1475 36.6707 91.3014 36.654L91.2536 36.322C91.2359 36.3109 90.6811 36.4061 90.0007 36.818Z" fill="#10319B"/>
<path d="M92.2916 38.8866C91.1549 39.5746 88.975 41.8458 90.0376 48.9134L90.3696 48.8656C89.0383 39.9809 92.9593 38.9418 92.9962 38.9304L92.9195 38.6049C92.8826 38.6163 92.6357 38.6783 92.2916 38.8866Z" fill="#10319B"/>
</g>
</g>
</svg>
