<svg width="138" height="131" viewBox="0 0 138 131" fill="none" xmlns="http://www.w3.org/2000/svg">
<mask id="mask0_33584_83260" style="mask-type:alpha" maskUnits="userSpaceOnUse" x="0" y="26" width="104" height="105">
<rect x="0.332031" y="26.3271" width="103" height="104" fill="#D9D9D9"/>
</mask>
<g mask="url(#mask0_33584_83260)">
<path d="M70.7155 88.2995C71.5563 78.9096 62.8968 71.5917 53.8432 74.0829L50.3352 75.0462C50.3084 75.0532 50.2905 75.0578 50.2637 75.0647L41.5229 77.4751L32.7106 79.5985C32.6838 79.6054 32.6659 79.61 32.6391 79.6169L29.1044 80.4726C19.9771 82.6679 15.7868 93.3142 20.9161 101.162C22.5909 103.727 24.2881 106.075 25.9831 108.224C26.9278 109.498 28.0779 110.871 29.3308 112.275C34.8427 118.602 40.1139 123.082 44.2258 126.802C44.3844 126.943 44.5519 127.081 44.7172 127.21C47.4175 129.576 51.0657 130.094 54.3972 129.186C57.7442 128.379 60.7164 126.141 61.9843 122.75C62.0692 122.556 62.152 122.353 62.2258 122.153C64.1019 116.886 66.6421 110.389 68.5304 102.151C68.9756 100.308 69.347 98.5511 69.5799 96.9638C70.0455 94.2473 70.4419 91.3673 70.7155 88.2995Z" fill="#F89E1C"/>
<path d="M59.7809 109.757C61.0602 104.312 55.3343 102.279 50.6716 106.852C45.1131 112.295 40.8497 111.593 34.7231 105.504C29.7442 100.549 24.9749 103.394 23.3619 104.631C24.2795 105.911 25.1948 107.144 26.1123 108.31C27.0567 109.583 28.2064 110.956 29.459 112.359C34.969 118.684 40.2385 123.162 44.3491 126.881C44.5076 127.021 44.6751 127.159 44.8403 127.289C47.5397 129.654 51.1868 130.172 54.5171 129.264C57.8631 128.457 60.8342 126.221 62.1017 122.83C62.1866 122.637 62.2693 122.434 62.3431 122.234C62.9511 120.512 63.6419 118.664 64.3416 116.66C61.648 116.917 58.5419 115.019 59.7809 109.757Z" fill="#032663"/>
<path d="M54.3324 129.483C50.8033 130.394 47.21 129.633 44.6914 127.421C44.5262 127.292 44.3587 127.154 44.1979 127.005C43.6085 126.47 42.9855 125.916 42.3492 125.345C38.6316 122.021 34.0187 117.888 29.2945 112.468C27.9639 110.979 26.8342 109.611 25.9368 108.411C25.0058 107.23 24.0793 105.991 23.1864 104.733L23.0971 104.603L23.2244 104.503C25.0361 103.11 29.7942 100.412 34.7999 105.397C41.0672 111.631 45.1765 111.982 50.5206 106.747C53.3646 103.961 56.4133 103.717 58.1729 104.713C59.7896 105.631 60.4434 107.533 59.9066 109.809C59.3676 112.114 59.6284 113.965 60.6688 115.165C61.5082 116.132 62.8593 116.632 64.282 116.503L64.5411 116.474L64.4494 116.718C64.0538 117.841 63.6648 118.914 63.2848 119.948C62.992 120.758 62.7103 121.537 62.4398 122.284C62.3683 122.493 62.2856 122.696 62.2006 122.89C61.0025 126.1 58.1407 128.547 54.5066 129.419C54.4486 129.453 54.386 129.469 54.3324 129.483ZM54.4286 129.105C57.9532 128.252 60.7323 125.893 61.8969 122.777C61.9796 122.575 62.0646 122.381 62.1294 122.183C62.3977 121.427 62.6793 120.648 62.9721 119.838C63.3231 118.879 63.6741 117.881 64.0451 116.851C62.6068 116.917 61.2647 116.376 60.4096 115.385C59.6349 114.488 58.8582 112.78 59.5828 109.731L59.7436 109.765L59.5828 109.731C60.0816 107.608 59.4992 105.84 58.0075 105.004C56.3484 104.068 53.4628 104.317 50.7505 106.983C45.3082 112.32 40.9196 111.955 34.5653 105.639C29.8543 100.959 25.3823 103.316 23.5527 104.676C24.4144 105.885 25.3096 107.075 26.2026 108.219C27.0911 109.42 28.2163 110.771 29.547 112.259C34.2577 117.664 38.8684 121.788 42.5749 125.106C43.2112 125.676 43.8341 126.231 44.4236 126.766C44.5821 126.906 44.7384 127.037 44.9059 127.175C47.3843 129.34 50.9508 130.07 54.4286 129.105Z" fill="#10319B"/>
<path d="M11.4322 92.5479C11.0422 96.4552 10.8112 105.745 15.5722 115.881C16.0385 116.871 17.4574 116.821 17.8721 115.805L18.1993 115.013C21.4899 106.973 19.4681 97.7564 13.1313 91.8997C12.5149 91.3412 11.5219 91.7213 11.4322 92.5479Z" fill="#F5851F"/>
<path d="M54.6186 129.388C54.5561 129.404 54.5024 129.418 54.4399 129.434C50.8604 130.416 47.1743 129.669 44.6169 127.418C44.4516 127.289 44.2841 127.151 44.1233 127.002C43.5336 126.467 42.9105 125.912 42.2739 125.341C38.5551 122.016 33.9407 117.882 29.215 112.459C27.8839 110.97 26.7538 109.601 25.8561 108.401C24.0717 106.123 22.3678 103.747 20.7868 101.33C18.3015 97.5339 17.8472 92.9169 19.5331 88.6825C21.2146 84.4684 24.6875 81.4524 29.0824 80.3841L32.6082 79.5307L32.6797 79.5122L41.492 77.3888L50.2328 74.9785L50.2775 74.9669L53.8123 73.9967C58.1737 72.7938 62.6395 73.7689 66.0881 76.6579C69.5501 79.5626 71.3093 83.8426 70.8989 88.387C70.6388 91.2795 70.2536 94.2043 69.75 97.0738C69.5306 98.5622 69.177 100.314 68.6938 102.272C67.0717 109.325 64.9406 115.211 63.2344 119.937C62.9415 120.748 62.653 121.538 62.3847 122.295C62.3131 122.504 62.2304 122.707 62.1454 122.9C60.9603 126.051 58.1578 128.474 54.6186 129.388ZM54.3573 129.102C57.8831 128.249 60.6632 125.889 61.8282 122.772C61.9109 122.57 61.9959 122.376 62.0607 122.178C62.3291 121.421 62.6176 120.631 62.9105 119.82C64.6189 115.103 66.7433 109.228 68.3609 102.196C68.8374 100.249 69.1843 98.5085 69.4149 97.0267C69.9207 94.1662 70.3082 91.2503 70.5616 88.3691C70.9607 83.9326 69.2462 79.7557 65.8691 76.9245C62.5054 74.109 58.1334 73.1669 53.8948 74.3285L50.3958 75.2895L50.3511 75.3011L41.5835 77.7184L32.7623 79.8441L32.6908 79.8625L29.156 80.7182C24.8862 81.7543 21.4826 84.7046 19.8414 88.8129C18.1979 92.9504 18.6411 97.4461 21.0662 101.153C22.636 103.563 24.3399 105.939 26.122 108.209C27.0108 109.411 28.1364 110.762 29.4675 112.251C34.1798 117.658 38.792 121.783 42.4997 125.102C43.1362 125.672 43.7594 126.227 44.349 126.762C44.5076 126.902 44.6639 127.034 44.8315 127.172C47.3196 129.335 50.8873 130.065 54.3573 129.102Z" fill="#10319B"/>
<path d="M63.2397 76.6876C60.4953 75.3115 57.3296 74.8712 54.1351 75.7603L50.6284 76.7298C50.6016 76.7367 50.5838 76.7412 50.5571 76.7481L41.7938 79.1661L32.9546 81.2803C32.9279 81.2872 32.91 81.2918 32.8833 81.2987L29.3454 82.143C24.4387 83.3208 22.6601 87.5257 21.3653 92.1482C21.0755 93.1928 21.8782 94.2415 22.9171 94.1833C31.6694 93.6986 51.0955 90.656 63.2397 76.6876Z" fill="#E26907"/>
<path d="M6.49491 43.6525C7.91044 41.9942 9.70585 40.4302 11.7588 38.983L11.6213 39.0552C11.6213 39.0552 17.8991 33.1338 28.7621 30.3263C39.5907 27.5277 47.933 29.5423 47.9823 29.557C50.5344 29.8232 52.8909 30.3325 54.9597 31.1177C64.9237 34.9131 67.4252 47.9517 66.7198 61.0309C66.2248 70.545 54.4189 77.8677 41.5745 80.9764C28.8286 84.4814 15.027 83.7769 10.1293 75.6565C3.40014 64.508 -0.492529 51.8289 6.49491 43.6525Z" fill="#F89E1C"/>
<path d="M6.52652 43.7002C7.26977 42.8298 8.12034 41.9866 9.05032 41.1687C2.25135 49.3703 6.1357 61.9792 12.8266 73.0836C17.729 81.2219 31.5228 81.9286 44.2802 78.4298C51.582 76.6618 58.5432 73.5243 63.294 69.3997C58.7743 74.858 50.4515 78.989 41.6232 81.124C28.8766 84.6293 15.072 83.9161 10.1696 75.7779C3.44013 64.5918 -0.459202 51.8859 6.52652 43.7002Z" fill="#F5851F"/>
<path d="M13.1792 53.3492C7.70234 53.6072 5.28937 45.3786 5.18203 45.0207L5.79735 44.8433C5.81667 44.921 8.17813 52.9425 13.1474 52.7055L13.1792 53.3492Z" fill="#F89E1C"/>
<path d="M52.5602 43.6139L52.24 43.0631C57.0454 40.2146 55.2477 31.6983 55.2263 31.612L55.8502 31.4692C55.9317 31.8338 57.7659 40.5336 52.5602 43.6139Z" fill="#F4B821"/>
<path d="M30.909 37.5128C28.0024 38.2627 25.0643 38.0066 23.0869 36.8084C23.0226 36.7702 22.9584 36.7319 22.892 36.6851L19.2672 34.2218L19.8078 33.4246L23.4304 35.8793C23.4754 35.9134 23.5289 35.9453 23.5825 35.9771C25.5063 37.1435 28.4809 37.2896 31.3661 36.3808C34.1656 35.4942 36.3655 33.7755 37.2518 31.802L38.6338 28.7047L39.5059 29.0918L38.1238 32.1891C37.1281 34.4193 34.7031 36.333 31.6421 37.3054C31.3977 37.3867 31.1576 37.4487 30.909 37.5128Z" fill="#F4B821"/>
<path d="M31.7368 40.8901C27.8871 41.8833 24.0746 41.4874 21.2895 39.794C21.1931 39.7367 21.086 39.673 20.9874 39.607L20.8782 39.5347L15.9059 36.1674L16.4464 35.3701L21.5194 38.812C21.6072 38.8716 21.6951 38.9311 21.7893 38.9799C24.3581 40.5372 27.8962 40.8943 31.5059 39.963C31.7974 39.8878 32.0953 39.8018 32.3911 39.7072C36.1788 38.5016 39.1035 36.1392 40.4019 33.2187L42.3826 28.7884L43.2547 29.1755L41.2825 33.6036C39.8725 36.7721 36.7313 39.3275 32.6821 40.6188C32.3691 40.7178 32.054 40.8083 31.7368 40.8901Z" fill="#F4B821"/>
<path d="M54.9922 33.5097C52.9219 32.7162 50.5619 32.1899 48.0106 31.9238C47.9527 31.9113 39.4482 29.308 28.623 32.1054C21.5064 33.9445 15.5694 36.743 12.3239 38.4613C14.2561 36.8625 20.0073 32.5819 28.7292 30.328C39.5544 27.5306 47.9026 29.5788 47.9519 29.5935C50.5053 29.8682 52.8632 30.3858 54.9335 31.1794C63.8259 34.6078 66.8 45.4293 66.8532 57.0698C66.4325 46.3397 63.2882 36.7074 54.9922 33.5097Z" fill="#F4B821"/>
<path d="M52.9592 43.06L52.8238 42.7735C57.4268 40.51 55.7971 31.7113 55.7842 31.6228L56.0983 31.56C56.1627 31.9291 57.7838 40.6932 52.9592 43.06Z" fill="#10319B"/>
<path d="M40.8254 33.3852L42.7977 28.9563C41.7047 28.8911 40.4466 28.8593 39.0577 28.8887L37.6756 31.9867C36.7398 34.0922 34.424 35.8959 31.5 36.8332C28.4903 37.7925 25.3633 37.6216 23.3301 36.3827C23.2658 36.3445 23.2122 36.3126 23.1565 36.2721L19.5337 33.8168C18.2623 34.4647 17.1389 35.1201 16.1676 35.7271L21.1402 39.0951L21.2494 39.1674C21.3458 39.2248 21.4358 39.293 21.5322 39.3503C24.2082 40.9717 27.9138 41.3405 31.6094 40.3869C31.9095 40.3095 32.216 40.2213 32.5204 40.1244C36.4369 38.8854 39.4647 36.4228 40.8254 33.3852Z" fill="#032663"/>
<path d="M13.6562 53.106C8.30602 53.3588 5.62415 44.9699 5.5082 44.6142L5.81373 44.5169C5.84379 44.6009 8.53639 53.033 13.6413 52.7885L13.6562 53.106Z" fill="#10319B"/>
<path d="M41.4995 80.904C35.1949 82.6341 28.6569 83.389 22.9396 82.8136C21.3949 81.8198 20.0049 80.3827 18.9501 78.5657C16.2464 73.903 12.8635 67.2804 10.269 59.5284C8.99206 55.7158 10.3037 51.6193 13.2579 50.0493C17.2856 47.9086 23.5995 45.0029 31.4175 42.8541L31.4153 42.8455C31.6386 42.7878 31.8554 42.741 32.0786 42.6833C32.3019 42.6256 32.5144 42.5615 32.7376 42.5038L32.7398 42.5124C40.6177 40.6048 47.3231 39.935 51.8646 39.8611C55.1957 39.8067 58.4669 42.9297 59.1256 46.902C60.4665 54.978 60.5865 62.4438 60.388 67.8566C60.3074 69.9212 59.7825 71.8165 58.9231 73.4317C54.1177 76.7815 47.9285 79.3433 41.4995 80.904Z" fill="#032663"/>
<path d="M62.1232 70.6254L61.0452 71.6292C61.1059 70.879 61.2034 69.6144 61.2577 68.7282C61.4096 66.3938 61.5832 63.7416 61.8724 61.9225C62.3408 58.983 64.9746 56.1725 66.7818 54.6406L66.7659 56.0861C65.0813 57.5221 63.2373 59.4216 62.8164 62.0734C62.5358 63.8535 62.3643 66.4776 62.2081 68.7948C62.1603 69.6702 62.1838 69.8752 62.1232 70.6254Z" fill="#F4B821"/>
<path d="M19.1367 81.83C19.0678 81.8478 18.9969 81.8202 18.9647 81.7642C18.6059 81.2051 18.2235 80.5878 17.8303 79.9641C16.6423 78.0585 15.2888 75.8927 14.1564 74.395C12.5084 72.2227 9.93479 71.4463 7.62768 70.9683C7.54167 70.9538 7.48366 70.8678 7.50737 70.779C7.52248 70.6925 7.60853 70.6335 7.69668 70.6566C10.0597 71.1386 12.7042 71.9426 14.4189 74.1987C15.5642 75.7114 16.9176 77.8772 18.1078 79.7914C18.501 80.4151 18.8813 81.0238 19.2336 81.5938C19.2787 81.6647 19.2593 81.7708 19.1883 81.8166C19.1689 81.8125 19.1539 81.8255 19.1367 81.83Z" fill="#F89E1C"/>
<path d="M66.8592 56.0197C66.8883 57.7199 66.8593 59.4443 66.7658 61.167C66.5788 64.7226 64.8478 67.961 62.0847 70.8049C62.2992 68.0594 62.3032 65.0561 62.6939 62.5772C63.1666 59.6547 65.2648 57.3773 66.8592 56.0197Z" fill="#032663"/>
<path d="M65.8905 61.6055C66.003 60.5848 66.0896 59.5708 66.1569 58.5525C65.3476 59.4227 64.5812 60.5757 64.29 61.9823C63.9751 63.4777 63.8148 65.2637 63.6181 66.9765C64.8558 65.3988 65.6656 63.6103 65.8905 61.6055Z" fill="#0E51A0"/>
<path d="M62.2776 70.7354L61.9615 70.7161C62.0373 69.7692 62.0831 68.775 62.1288 67.8176C62.2159 65.9956 62.3159 64.1151 62.5685 62.4799C63.0305 59.5511 65.1222 57.2479 66.7832 55.8271L66.9895 56.0676C65.365 57.4514 63.3379 59.6828 62.8803 62.5187C62.6235 64.1367 62.5299 66.0062 62.4406 67.8196C62.3992 68.7943 62.3534 69.7885 62.2776 70.7354Z" fill="#10319B"/>
<path d="M7.68359 71.1853C8.45261 72.6943 9.284 74.1964 10.1713 75.6657C11.9975 78.7011 15.033 80.7079 18.7916 81.8669C17.3198 79.557 15.9127 76.9183 14.4106 74.9284C12.6378 72.5862 9.71997 71.6048 7.68359 71.1853Z" fill="#032663"/>
<path d="M42.4506 80.8957C42.1672 80.969 41.8838 81.0422 41.6069 81.1046C30.3659 84.1931 15.368 84.632 9.992 75.7277C5.17782 67.7598 -1.68653 52.9797 6.37707 43.5443L6.49507 43.6513L6.37707 43.5443C7.78616 41.8969 11.4777 38.9904 11.6388 38.8663C11.6903 38.8163 17.9573 32.9618 28.7345 30.1765C39.5459 27.3823 47.9483 29.3814 48.0363 29.4045C50.6528 29.6724 53.0136 30.1988 55.033 30.9694C66.5314 35.349 67.4018 51.6782 66.8918 61.0221C66.3341 71.2033 53.5712 78.0216 42.4506 80.8957ZM41.5212 80.7968C41.796 80.7258 42.0815 80.6611 42.3649 80.5879C53.3825 77.7404 66.023 71.0179 66.5677 61.0051C67.0712 51.7454 66.2222 35.5755 54.9148 31.2657C52.9168 30.508 50.5839 29.9835 47.9761 29.7134C47.8687 29.6861 39.5372 27.7146 28.8116 30.4866C18.1203 33.2497 11.9027 39.0456 11.8447 39.1064C11.7996 39.1455 8.0157 42.1217 6.61951 43.7475C-1.31736 53.0309 5.49985 67.6583 10.2604 75.5575C15.5442 84.3114 30.4091 83.852 41.5212 80.7968Z" fill="#10319B"/>
<path d="M41.2312 79.5358C35.8242 81.0156 30.2373 81.7355 25.2477 81.4396C24.4772 81.3912 23.7262 81.1271 23.1299 80.6397C22.1131 79.8211 21.2145 78.7795 20.4791 77.5491C18.0135 73.3659 14.933 67.408 12.5871 60.4355C11.4324 57.0041 12.66 53.3052 15.3843 51.8772C19.1026 49.9265 24.931 47.2748 32.1411 45.2923L32.139 45.2837C32.345 45.2304 32.5425 45.1794 32.7507 45.1348C32.9568 45.0815 33.1521 45.0219 33.3582 44.9686L33.3603 44.9772C40.6261 43.2186 46.9812 42.7218 51.1705 42.6289C54.2417 42.5592 57.0408 45.2174 57.6289 48.7952C58.8157 56.0673 58.8997 62.7996 58.6865 67.6751C58.6213 69.1032 58.3221 70.436 57.8171 71.6388C57.5312 72.3267 57.033 72.8953 56.4104 73.2945C52.1078 76.0559 46.7712 78.1866 41.2312 79.5358Z" fill="#FCE8CA"/>
<path d="M40.5542 81.2187C34.2947 82.8363 28.2055 83.4111 22.8917 82.8781L22.8552 82.8783L22.823 82.8592C21.2118 81.8184 19.8176 80.3274 18.782 78.5513C16.2992 74.2623 12.7641 67.4683 10.0753 59.4474C8.76623 55.5425 10.0801 51.3812 13.1394 49.7565C17.2487 47.5765 35.8872 39.4786 52.0183 39.7088C55.4759 39.7592 58.5755 42.7799 59.232 46.7435C60.6157 55.1017 60.6905 62.7899 60.503 67.769C60.431 69.7947 59.9125 71.7525 59.0209 73.4218L59.0015 73.4543L58.9715 73.4804C54.3637 76.7058 48.1637 79.3712 41.5094 80.981C41.1895 81.0545 40.8718 81.1366 40.5542 81.2187ZM41.4366 80.6515C48.0394 79.0551 54.1814 76.4138 58.7613 73.2231C59.6186 71.5994 60.1176 69.7107 60.1875 67.7498C60.3707 62.7901 60.3002 55.119 58.9143 46.789C58.2856 42.9739 55.3148 40.0666 52.0053 40.0238C35.9386 39.7952 17.3751 47.8645 13.2809 50.0316C10.3675 51.5818 9.1139 55.5809 10.3758 59.3331C13.0582 67.3281 16.5719 74.1093 19.0504 78.3811C20.056 80.11 21.4029 81.5582 22.9605 82.567C28.4224 83.1076 34.9796 82.4302 41.4366 80.6515Z" fill="#10319B"/>
<path d="M18.6216 81.7785C18.1274 81.0065 17.6419 80.1955 17.1714 79.4081C16.2476 77.8657 15.2852 76.2782 14.2881 74.9567C12.5691 72.6833 9.73325 71.6992 7.66045 71.28L7.72945 70.9683C9.8517 71.4023 12.7585 72.414 14.5442 74.7712C15.5519 76.0991 16.5187 77.7039 17.4425 79.2463C17.913 80.0336 18.3985 80.8446 18.8905 81.6081L18.6216 81.7785Z" fill="#10319B"/>
<path d="M62.2384 57.1093L65.6565 53.7461C65.6565 53.7461 63.9317 41.9623 58.9137 37.693L58.6632 41.2605C58.6654 41.2691 61.0049 43.3142 62.2384 57.1093Z" fill="#F4B821"/>
<path d="M21.2565 60.6195C21.3052 60.5985 21.3498 60.5607 21.3821 60.5079C21.8984 59.7805 22.6978 59.3417 23.5851 59.3112C23.781 59.3077 23.9304 59.1455 23.9201 58.951C23.9182 58.7543 23.7578 58.6057 23.5638 58.6177C22.4553 58.6578 21.4566 59.1995 20.8138 60.1104C20.7002 60.2728 20.7419 60.4865 20.8943 60.6012C21.0094 60.6714 21.1442 60.674 21.2565 60.6195Z" fill="#032663"/>
<path d="M48.3603 54.0008C48.3076 54.0048 48.2509 53.9919 48.1986 53.96C47.4134 53.5532 46.5057 53.5349 45.7027 53.9209C45.5268 54.009 45.3212 53.9342 45.2433 53.7563C45.1569 53.5805 45.2331 53.3736 45.411 53.2939C46.4153 52.8136 47.5463 52.8306 48.5262 53.3418C48.6999 53.4333 48.7585 53.6429 48.6743 53.8159C48.6119 53.9298 48.4847 53.997 48.3603 54.0008Z" fill="#032663"/>
<path d="M31.8515 67.3137C31.8282 67.5161 31.7881 67.7226 31.727 67.9164L25.9048 69.8805C25.7419 69.7595 25.592 69.6175 25.4569 69.4629L31.8515 67.3137Z" fill="#0052A3"/>
<path d="M31.869 66.5259C31.8879 66.718 31.888 66.9057 31.8775 67.087L25.3118 69.3049C25.1976 69.163 25.0898 69.0106 24.9885 68.8478L31.869 66.5259Z" fill="#0052A3"/>
<path d="M31.5182 65.0603L31.6766 65.5757L24.5891 67.9661L24.4242 67.4612L31.5182 65.0603Z" fill="#0052A3"/>
<path d="M31.7357 65.7825C31.7863 65.9578 31.8201 66.1372 31.8435 66.3103L24.8721 68.6633C24.7897 68.5047 24.7157 68.344 24.6566 68.1708L31.7357 65.7825Z" fill="#0052A3"/>
<path d="M31.1583 69.1239C30.9231 69.4499 30.6421 69.7335 30.3152 69.9747L28.2552 70.6679C27.8552 70.6767 27.456 70.6137 27.0805 70.5001L31.1583 69.1239Z" fill="#0052A3"/>
<path d="M29.3213 60.8488L23.7312 62.7384C23.8096 62.5046 23.9173 62.2815 24.0374 62.0732L28.6937 60.502C28.9116 60.5916 29.1271 60.7087 29.3213 60.8488Z" fill="#0052A3"/>
<path d="M31.656 68.1728C31.5692 68.4087 31.4615 68.6318 31.3413 68.8401L26.7591 70.3842C26.5307 70.2882 26.3152 70.1712 26.1126 70.0331L31.656 68.1728Z" fill="#0052A3"/>
<path d="M27.2699 60.1917C27.655 60.1955 28.0269 60.2563 28.3875 60.3824L24.2105 61.7919C24.4308 61.4785 24.6949 61.1991 25.0049 60.9621L27.2699 60.1917Z" fill="#0052A3"/>
<path d="M30.1181 61.5967C30.2323 61.7385 30.3401 61.8909 30.433 62.0558L23.5271 64.3838C23.5082 64.1918 23.5082 64.0041 23.5186 63.8227L30.1181 61.5967Z" fill="#0052A3"/>
<path d="M30.5409 62.2426C30.6234 62.4012 30.6973 62.5618 30.7565 62.7351L23.6774 65.1234C23.6267 64.9481 23.5845 64.7707 23.5611 64.5976L30.5409 62.2426Z" fill="#0052A3"/>
<path d="M29.5358 60.9992C29.6902 61.1222 29.8402 61.2643 29.9753 61.4189L23.5404 63.5869C23.5637 63.3845 23.5955 63.18 23.6565 62.9862L29.5358 60.9992Z" fill="#0052A3"/>
<path d="M31.0527 63.6405L31.2196 64.1538L24.1321 66.5442L23.9652 66.0309L31.0527 63.6405Z" fill="#0052A3"/>
<path d="M30.8287 62.9287L30.9872 63.4441L23.8997 65.8345L23.7328 65.3212L30.8287 62.9287Z" fill="#0052A3"/>
<path d="M31.2851 64.3507L31.452 64.864L24.3561 67.2565L24.1976 66.7411L31.2851 64.3507Z" fill="#0052A3"/>
<path d="M48.9044 63.5671C48.8538 63.7672 48.7948 63.9693 48.7149 64.1587L42.7035 65.4341C42.562 65.29 42.4269 65.1354 42.3066 64.9683L48.9044 63.5671Z" fill="#0052A3"/>
<path d="M49.0103 62.7842C49.0019 62.9739 48.9831 63.1573 48.9474 63.3447L42.1726 64.7889C42.0733 64.6345 41.9803 64.4696 41.9043 64.3005L49.0103 62.7842Z" fill="#0052A3"/>
<path d="M48.8222 61.2865L48.9217 61.8162L41.6112 63.3736L41.5116 62.8439L48.8222 61.2865Z" fill="#0052A3"/>
<path d="M48.9636 62.0281C48.989 62.2096 49.0124 62.3826 49.0105 62.5618L41.8266 64.0882C41.761 63.9255 41.7103 63.7503 41.668 63.573L48.9636 62.0281Z" fill="#0052A3"/>
<path d="M48.0015 65.2836C47.7331 65.5818 47.4167 65.8292 47.063 66.0321L44.9367 66.4818C44.5351 66.4462 44.1512 66.3347 43.793 66.1812L48.0015 65.2836Z" fill="#0052A3"/>
<path d="M47.1257 56.8459L41.3629 58.0787C41.4706 57.8557 41.5991 57.6455 41.7402 57.4501L46.5347 56.4276C46.7502 56.5447 46.9443 56.6848 47.1257 56.8459Z" fill="#0052A3"/>
<path d="M48.6105 64.3958C48.5029 64.6188 48.3659 64.8311 48.2164 65.0286L43.4979 66.0324C43.2824 65.9154 43.0882 65.7753 42.8984 65.6162L48.6105 64.3958Z" fill="#0052A3"/>
<path d="M45.1597 55.9525C45.538 56.0028 45.9114 56.108 46.2527 56.2656L41.9409 57.1796C42.1945 56.8939 42.4919 56.6422 42.8203 56.4455L45.1597 55.9525Z" fill="#0052A3"/>
<path d="M47.8329 57.6787C47.9323 57.8331 48.0167 58.0001 48.0928 58.1691L40.9763 59.6791C40.9847 59.4894 41.0035 59.3061 41.0308 59.1207L47.8329 57.6787Z" fill="#0052A3"/>
<path d="M48.1784 58.3701C48.244 58.5327 48.2947 58.708 48.337 58.8853L41.0349 60.4406C41.0011 60.2612 40.9861 60.0861 40.9796 59.909L48.1784 58.3701Z" fill="#0052A3"/>
<path d="M47.3189 57.0204C47.4605 57.1645 47.5871 57.3211 47.7074 57.4883L41.0759 58.8976C41.1265 58.6976 41.1771 58.4975 41.257 58.3082L47.3189 57.0204Z" fill="#0052A3"/>
<path d="M48.5266 59.8267L48.6325 60.3459L41.322 61.9032L41.2161 61.3841L48.5266 59.8267Z" fill="#0052A3"/>
<path d="M48.3867 59.0943L48.4842 59.6155L41.1737 61.1729L41.0741 60.6432L48.3867 59.0943Z" fill="#0052A3"/>
<path d="M48.6751 60.5566L48.783 61.0842L41.4705 62.6332L41.3645 62.114L48.6751 60.5566Z" fill="#0052A3"/>
<path d="M36.6614 70.8916C36.2833 71.0164 36.166 71.7757 36.4423 72.4761C37.3549 74.6969 38.8935 76.0374 40.211 75.6543C41.5285 75.2713 42.2136 73.2276 41.9422 70.8195C41.8588 70.0731 41.4051 69.4845 41.0017 69.5805L36.6614 70.8916Z" fill="#032663"/>
<path d="M46.2131 106.285C45.3726 106.502 44.472 106.516 43.5893 106.295C41.7123 105.826 40.2806 104.43 39.7499 102.563L36.7438 91.8495C36.222 89.9801 36.7149 88.0203 38.0701 86.6202C39.423 85.2111 41.3498 84.6558 43.2268 85.1251L54.0665 87.811C55.8809 88.2583 57.2881 89.5933 57.839 91.3884C58.3899 93.1834 57.9708 95.0955 56.7318 96.5037C56.6961 96.5512 56.6491 96.5919 56.6133 96.6394L56.5596 96.6914L48.755 104.798C48.0349 105.537 47.1519 106.042 46.2131 106.285ZM40.7614 85.7719C39.9388 85.9845 39.1653 86.4326 38.5369 87.0817C37.3494 88.3144 36.9193 90.029 37.3831 91.6651L40.3892 102.379C40.853 104.015 42.1083 105.237 43.7506 105.643C45.393 106.048 47.0896 105.562 48.2681 104.332L56.1264 96.1735C56.1644 96.135 56.2024 96.0966 56.2315 96.0604C57.3139 94.8263 57.6792 93.1571 57.193 91.584C56.7179 90.0175 55.485 88.8473 53.894 88.4569L43.0543 85.7709C42.2812 85.5699 41.4945 85.5824 40.7614 85.7719Z" fill="#F89E1C"/>
<path d="M46.1876 106.379C45.3561 106.594 44.4644 106.605 43.5818 106.385C41.7159 105.922 40.2976 104.542 39.778 102.682L36.6962 91.701C36.1788 89.8495 36.6672 87.91 38.0045 86.5145C39.3418 85.119 41.2597 84.566 43.1255 85.0286L54.2289 87.78C56.0232 88.2229 57.4192 89.5513 57.9657 91.3284C58.5121 93.1055 58.0998 95.0064 56.8764 96.401C56.8407 96.4485 56.7937 96.4892 56.7579 96.5366L56.7042 96.5887L48.7028 104.899C47.9916 105.636 47.1264 106.136 46.1876 106.379ZM40.6021 85.3658C39.7259 85.5923 38.9099 86.0609 38.2457 86.7575C36.9912 88.0648 36.5297 89.8829 37.018 91.6178L40.0999 102.598C40.5883 104.333 41.9195 105.631 43.6647 106.067C45.4098 106.504 47.2025 105.983 48.466 104.673L56.5122 96.3138C56.5502 96.2754 56.586 96.228 56.624 96.1895C57.7736 94.8807 58.1613 93.1103 57.6505 91.4385C57.142 89.7757 55.8331 88.5297 54.1505 88.1152L43.0471 85.3638C42.2248 85.1564 41.3889 85.1625 40.6021 85.3658Z" fill="#10319B"/>
<path d="M13.1271 91.8936C12.5192 91.3326 11.5258 91.7127 11.4362 92.5394C11.0911 95.9766 10.8698 103.582 14.0665 112.259C12.2334 104.264 13.6163 95.8048 14.1924 92.9491C13.8448 92.589 13.4971 92.2288 13.1271 91.8936Z" fill="#F89E1C"/>
<path d="M14.0735 110.704C13.68 110.806 13.4208 110.797 13.3828 110.797L13.4167 110.13L13.3941 110.46L13.4055 110.123C13.4435 110.123 17.5249 109.965 18.6302 100.745L19.1145 101.966C18.1556 109.248 15.4058 110.36 14.0735 110.704Z" fill="#F89E1C"/>
<path d="M14.5237 113.448C14.5237 113.448 18.3185 114.244 19.6189 108.38C19.6189 108.38 19.078 115.384 16.9186 116.496C16.9186 116.496 15.5193 117.22 14.5237 113.448Z" fill="#032663"/>
<path d="M17.0606 116.712C16.953 116.739 16.8521 116.756 16.7378 116.757C16.1685 116.769 15.6642 116.469 15.4199 115.948C10.5898 105.648 10.9082 96.1356 11.2692 92.5324C11.3117 92.091 11.5987 91.711 12.0156 91.5462C12.4325 91.3814 12.9032 91.4706 13.2281 91.779C19.5869 97.6488 21.6354 107.011 18.3315 115.074L18.0042 115.866C17.8451 116.299 17.4909 116.601 17.0606 116.712ZM12.2374 91.8238C12.2016 91.8331 12.1747 91.84 12.1411 91.8582C11.8362 91.975 11.6345 92.2374 11.6009 92.5617C11.2444 96.1447 10.9171 105.583 15.718 115.805C15.9018 116.197 16.285 116.433 16.7311 116.424C17.1659 116.407 17.5492 116.146 17.7151 115.74L18.0423 114.948C21.2925 107.013 19.2709 97.7972 13.013 92.0257C12.8 91.8223 12.5154 91.7522 12.2374 91.8238Z" fill="#10319B"/>
<path d="M15.828 113.486C15.0691 113.682 14.5201 113.614 14.5089 113.607L14.5603 113.279C14.7076 113.298 18.2874 113.747 19.5588 108.357L19.8824 108.435C19.0288 112.03 17.1225 113.151 15.828 113.486Z" fill="#10319B"/>
<path d="M14.2553 110.851C13.871 110.95 13.6208 110.939 13.5828 110.939L13.6053 110.609C13.6432 110.608 17.6442 110.711 18.9628 101.943L19.289 101.992C18.2345 108.993 15.5242 110.523 14.2553 110.851Z" fill="#10319B"/>
<path d="M69.0406 76.7372C70.2478 72.9929 73.7565 64.3843 82.1347 56.9611C82.9471 56.2347 84.2183 56.8457 84.1859 57.9377L84.1637 58.7912C83.931 67.4674 78.41 75.1296 70.3099 77.9949C69.5394 78.2694 68.7873 77.5349 69.0406 76.7372Z" fill="#F89E1C"/>
<path d="M70.3952 76.3853C70.4065 76.3789 70.4266 76.3749 70.4379 76.3685C73.3685 75.1608 75.2523 72.1791 75.1472 68.9818C75.1142 67.9199 74.913 66.8489 74.4493 65.8677C71.4094 69.8547 70.0661 73.7137 69.5382 75.6212C69.4034 76.1334 69.9116 76.5864 70.3952 76.3853Z" fill="#F4B821"/>
<path d="M75.7593 75.0189C80.7396 71.2277 83.9275 65.2874 84.1702 58.8018L84.201 57.9514C84.2024 57.8456 84.1899 57.7552 84.18 57.6558L82.819 56.7005C82.6008 56.7351 82.385 56.8284 82.193 57.0057C81.3572 57.7533 80.5653 58.5134 79.826 59.2885C82.5489 64.3271 78.1636 71.6269 75.7593 75.0189Z" fill="#F5851F"/>
<path d="M78.7831 61.1361C79.8726 61.9854 81.6751 64.5144 79.6668 71.4033L78.8181 72.1581C81.8038 62.8121 77.9337 61.3883 77.8985 61.3784L78.1065 60.7417C78.1391 60.7606 78.4242 60.8606 78.7831 61.1361Z" fill="#F89E1C"/>
<path d="M80.1858 58.7976C80.1858 58.7976 83.9597 59.566 82.79 65.4673C82.79 65.4673 85.1134 58.8103 83.5887 56.9391C83.5887 56.9391 82.6015 55.7225 80.1858 58.7976Z" fill="#032663"/>
<path d="M83.8207 56.7791C84.1711 57.0522 84.3655 57.4743 84.3588 57.9361L84.3367 58.7896C84.1051 67.4953 78.4933 75.2769 70.37 78.1553C69.9476 78.3062 69.4941 78.1971 69.1739 77.8843C68.8625 77.574 68.7473 77.1067 68.8859 76.6822C70.0038 73.2216 73.5141 64.3717 82.0325 56.8235C82.4626 56.443 83.0357 56.3637 83.5469 56.605C83.6474 56.6528 83.7341 56.716 83.8207 56.7791ZM69.4794 77.71C69.6954 77.887 69.9869 77.9309 70.261 77.8346C78.2472 75.0044 83.7659 67.351 84.0062 58.7829L84.0283 57.9295C84.0388 57.4881 83.8054 57.1032 83.4122 56.9147C83.019 56.7261 82.5728 56.793 82.2546 57.0796C73.8093 64.5712 70.3165 73.3584 69.2088 76.7833C69.1118 77.0939 69.1831 77.4136 69.4129 77.6428C69.4254 77.6657 69.4556 77.6935 69.4794 77.71Z" fill="#10319B"/>
<path d="M81.3857 59.2676C82.4388 60.0876 83.7213 61.8816 83.0419 65.5382L82.7171 65.4754C83.7293 59.9981 80.2831 58.9944 80.1421 58.9545L80.2331 58.6321C80.2419 58.6346 80.7705 58.7841 81.3857 59.2676Z" fill="#10319B"/>
<path d="M78.9303 61.0422C79.9577 61.8451 81.8119 64.331 79.9555 71.1864L79.6389 71.0967C81.9631 62.4803 78.2805 61.0225 78.2365 61.0101L78.3537 60.6955C78.3864 60.7144 78.6188 60.7995 78.9303 61.0422Z" fill="#10319B"/>
<path d="M46.1977 103.644C45.554 103.811 44.8701 103.816 44.1908 103.648C42.7518 103.294 41.6596 102.231 41.2559 100.799L39.0036 92.7721C38.6 91.3399 38.9808 89.848 40.0185 88.7781C41.0539 87.6993 42.5291 87.2798 43.9592 87.6355L52.0728 89.6517C53.4627 89.9987 54.5348 91.0196 54.9518 92.3911C55.3689 93.7626 55.0574 95.227 54.1069 96.303C54.0778 96.3391 54.0465 96.3663 54.0175 96.4025L53.9794 96.4409L48.1338 102.514C47.5859 103.066 46.9219 103.457 46.1977 103.644ZM42.1128 88.2845C41.5048 88.4416 40.9482 88.7669 40.4853 89.2396C39.6243 90.1398 39.3062 91.3864 39.6429 92.5878L41.8952 100.614C42.2319 101.816 43.1477 102.705 44.3543 103.004C45.552 103.305 46.7948 102.946 47.6558 102.046L53.5305 95.9366C53.5618 95.9094 53.582 95.8756 53.6043 95.8507C54.3983 94.9488 54.656 93.7274 54.3059 92.5867C53.9557 91.446 53.0578 90.5901 51.9003 90.2976L43.7867 88.2813C43.2281 88.1394 42.6582 88.1435 42.1128 88.2845Z" fill="#F89E1C"/>
<path d="M53.6897 96.1169C53.7211 96.0897 53.7501 96.0535 53.7725 96.0287C55.5751 93.9784 54.6049 90.7266 51.948 90.0676L44.0154 88.0904C41.2669 87.4074 38.8025 89.9723 39.5696 92.7136L41.7662 100.554C42.5311 103.286 45.9678 104.135 47.9425 102.088L53.6607 96.153C53.6674 96.1417 53.683 96.1281 53.6897 96.1169Z" fill="#032663"/>
<path d="M50.4671 95.6593C50.4828 95.6457 50.4962 95.6232 50.5119 95.6096C51.5295 94.459 50.9786 92.6258 49.4769 92.2504L45.0056 91.1442C43.4548 90.7624 42.0639 92.21 42.5032 93.7475L43.7453 98.1698C44.1757 99.7097 46.1131 100.192 47.2245 99.0362L50.447 95.6932C50.4515 95.6729 50.4582 95.6616 50.4671 95.6593Z" fill="#33FCFE"/>
<path d="M65.3731 79.4217C64.5912 80.9524 59.0111 85.7667 59.0111 85.7667C59.0111 85.7667 61.607 86.8471 62.5092 90.3148C63.183 92.9043 61.3169 95.8621 61.3169 95.8621C64.0829 97.5488 64.2414 101.744 63.3629 105.183C62.4845 108.622 64.1464 109.131 64.1464 109.131C64.1464 109.131 70.1199 92.3872 68.954 84.1492C68.4818 80.8001 65.3731 79.4217 65.3731 79.4217Z" fill="#F4B821"/>
<path d="M26.2924 105.575C26.2924 105.575 28.658 104.525 30.3991 105.861C32.1402 107.197 43.7144 120.053 48.7052 124.427C49.6059 125.216 52.1245 128.071 53.8485 126.929C53.8485 126.929 51.5921 129.106 46.7462 126.194C41.9071 123.27 29.7384 109.709 26.2924 105.575Z" fill="#0E51A0"/>
</g>
<circle cx="119.455" cy="34.2961" r="9.86369" transform="rotate(39.9256 119.455 34.2961)" fill="#EFF7FF"/>
<g clip-path="url(#clip0_33584_83260)">
<path d="M121.448 34.405C121.572 34.7523 121.284 35.0963 120.92 35.0357L119.674 34.8213L118.428 34.6069C118.064 34.5463 117.913 34.1153 118.147 33.8358L118.963 32.8612L119.778 31.8866C120.012 31.6071 120.457 31.687 120.587 32.027L121.017 33.216L121.448 34.405Z" fill="#0055B8"/>
<path d="M118.685 29.277C118.914 29.4691 119.256 29.4387 119.448 29.2092C119.64 28.9796 119.61 28.6378 119.38 28.4457C119.151 28.2536 118.809 28.284 118.617 28.5135C118.425 28.7431 118.455 29.0849 118.685 29.277Z" fill="#A958FF"/>
<path d="M116.65 37.6636C116.248 37.3277 115.911 36.9597 115.649 36.5583C115.481 36.3079 115.551 35.9766 115.802 35.8085C116.052 35.6403 116.383 35.7104 116.552 35.9608C116.765 36.2735 117.03 36.5684 117.353 36.8383C118.908 38.1397 120.616 38.1074 121.882 36.5953C122.074 36.366 122.416 36.3356 122.645 36.5275C122.875 36.7194 122.905 37.0617 122.713 37.291C121.045 39.2701 118.678 39.3608 116.65 37.6636ZM115.133 34.7733C115.018 34.6773 114.945 34.5312 114.937 34.3661C114.92 33.3526 115.29 32.358 116.021 31.4837L117.545 29.6634C117.737 29.4341 118.079 29.4037 118.308 29.5956C118.538 29.7876 118.568 30.1298 118.376 30.3591L116.853 32.1794C116.289 32.853 116.004 33.6014 116.017 34.3432C116.023 34.6412 115.787 34.8943 115.489 34.9009C115.35 34.9066 115.226 34.8513 115.133 34.7733Z" fill="#A958FF"/>
<path d="M113.727 36.0587C113.641 35.9868 113.579 35.8861 113.542 35.77C113.498 35.5749 113.554 35.3776 113.701 35.2451L115.1 33.9667C115.321 33.7614 115.667 33.7836 115.866 33.9982C116.071 34.2188 116.055 34.5585 115.834 34.7639L115.159 35.381L116.2 35.6667C116.485 35.7475 116.651 36.0445 116.577 36.3363C116.497 36.6221 116.2 36.7877 115.908 36.7142L113.929 36.1668C113.848 36.1475 113.784 36.1067 113.727 36.0587Z" fill="#A958FF"/>
<path d="M124.597 34.2247C124.826 34.4168 125.168 34.3865 125.36 34.1569C125.552 33.9274 125.522 33.5856 125.293 33.3935C125.063 33.2014 124.721 33.2317 124.529 33.4613C124.337 33.6908 124.367 34.0326 124.597 34.2247Z" fill="#0055B8"/>
<path d="M122.954 36.1882C122.724 35.9963 122.694 35.6541 122.886 35.4248L123.51 34.6795C123.701 34.4502 124.044 34.4198 124.273 34.6117C124.502 34.8037 124.533 35.1459 124.341 35.3752L123.711 36.1276C123.512 36.3509 123.183 36.3802 122.954 36.1882Z" fill="#0055B8"/>
</g>
<circle cx="88.478" cy="45.2561" r="9.59826" transform="rotate(39.9256 88.478 45.2561)" fill="#FEEFEF"/>
<g clip-path="url(#clip1_33584_83260)">
<path d="M88.4565 45.9348L88.1707 45.8996C87.783 45.8532 87.505 45.565 87.5549 45.2173C87.5939 44.8606 87.9402 44.6683 88.3371 44.7037L88.6938 44.7427C89.0397 44.7726 89.2583 44.733 89.4134 44.5476C89.5777 44.3513 89.5528 44.0709 89.3456 43.8975C88.9421 43.5598 88.5263 43.8794 88.1447 43.56C87.8393 43.3044 87.86 42.9695 88.0608 42.7296C88.4532 42.2607 89.5055 42.2884 90.2471 42.9089C91.1631 43.6755 91.1136 44.7096 90.5569 45.3747C90.1188 45.8982 89.5795 46.0773 88.4565 45.9348ZM87.7143 47.3533C87.404 47.7241 86.8523 47.763 86.4815 47.4527C86.1108 47.1424 86.0627 46.6016 86.373 46.2308C86.6833 45.86 87.2333 45.8011 87.604 46.1114C87.9748 46.4217 88.0246 46.9825 87.7143 47.3533Z" fill="#0055B8"/>
<path d="M92.2907 46.0284C92.1162 45.8823 91.9782 45.6927 91.9004 45.4977L91.6658 45.357L91.1748 45.0574L91.8601 44.7038C91.9116 44.4873 92.0158 44.2963 92.1618 44.1219C92.6728 43.5112 93.5124 43.4165 94.1012 43.9093C94.6901 44.4021 94.7539 45.2342 94.2337 45.8558C93.7099 46.4373 92.8795 46.5212 92.2907 46.0284Z" fill="#0055B8"/>
<path d="M89.6811 50.742L90.0586 49.5375C90.7584 49.2331 91.3821 48.7537 91.884 48.154C92.2308 47.7396 92.5048 47.3014 92.6952 46.8302C92.4568 46.7606 92.224 46.6399 92.0277 46.4756C92.0168 46.4665 92.0168 46.4665 92.0059 46.4574C91.8412 46.8758 91.5945 47.2813 91.2751 47.6629C90.8097 48.2191 90.2316 48.6439 89.5775 48.8938C89.4609 48.9445 89.3787 49.0427 89.3476 49.1464C89.3494 49.1664 89.3402 49.1773 89.3402 49.1773L88.948 50.4437L88.5792 50.0424C88.5683 50.0332 88.5574 50.0241 88.5465 50.015L87.8199 49.2215C87.7636 49.1558 87.689 49.112 87.5871 49.1008C86.9009 48.9901 86.2898 48.7012 85.7446 48.2449C84.0652 46.8395 83.9045 44.4614 85.3738 42.7057C86.8523 40.9391 89.2397 40.6564 90.9191 42.0619C91.4098 42.4725 91.7783 42.9849 91.9975 43.5206C92.1927 43.3317 92.4333 43.1993 92.6775 43.107C92.4111 42.4947 91.9772 41.9275 91.421 41.4621C89.4036 39.7738 86.5445 40.0882 84.7832 42.1928C83.031 44.2866 83.2435 47.1345 85.2609 48.8228C85.8716 49.3339 86.5882 49.6741 87.338 49.8195L88.0083 50.5473C88.0192 50.5564 88.0192 50.5564 88.0301 50.5656L88.377 50.9486C88.5678 51.1639 88.8589 51.2591 89.1357 51.1942C89.3961 51.1711 89.6022 50.9912 89.6811 50.742Z" fill="#FFD600"/>
</g>
<circle cx="88.9989" cy="14.5732" r="8.65691" transform="rotate(39.9256 88.9989 14.5732)" fill="#FFF7D7"/>
<g clip-path="url(#clip2_33584_83260)">
<path d="M86.2353 17.8694C85.7558 17.4681 85.3667 16.9588 85.0894 16.3707C84.6022 15.3198 84.5483 14.1493 84.952 13.0631C85.2185 12.333 85.6743 11.6923 86.2752 11.2075C86.4853 11.0388 86.7942 11.0677 86.9629 11.2778C87.1316 11.4879 87.1028 11.7968 86.8927 11.9655C86.4262 12.3445 86.0767 12.8444 85.8703 13.4067C85.563 14.2405 85.6005 15.1562 85.9788 15.9666C86.3571 16.777 87.0245 17.393 87.8651 17.706C88.2662 17.8579 88.6844 17.9208 89.1084 17.9082C89.458 17.9021 89.8021 17.8341 90.1293 17.7175C90.5412 17.5684 90.9217 17.347 91.2459 17.0556C91.6571 16.6878 91.9727 16.2284 92.1644 15.7112C92.4263 15.0002 92.4403 14.2425 92.2016 13.5259C92.1165 13.2709 92.2546 12.9961 92.5096 12.9109C92.7647 12.8257 93.0395 12.9639 93.1247 13.2189C93.426 14.1487 93.4127 15.1252 93.0759 16.0491C92.8287 16.715 92.426 17.3197 91.8927 17.7922C91.4759 18.1668 90.9881 18.4477 90.4555 18.6451C90.0312 18.7953 89.5822 18.8789 89.1391 18.887C88.5899 18.8982 88.0511 18.8148 87.5282 18.6299C87.0483 18.435 86.6135 18.186 86.2353 17.8694Z" fill="#24C11B"/>
<path d="M91.0961 12.061C91.3199 12.2483 91.6532 12.2187 91.8405 11.9949C92.0278 11.7711 91.9982 11.4378 91.7744 11.2505C91.5506 11.0632 91.2173 11.0928 91.03 11.3166C90.8427 11.5404 90.8723 11.8737 91.0961 12.061Z" fill="#24C11B"/>
<path d="M89.3343 11.1045C89.4909 11.2356 89.7242 11.2149 89.8553 11.0583C89.9864 10.9016 89.9657 10.6683 89.8091 10.5372C89.6524 10.4061 89.4191 10.4268 89.288 10.5835C89.1569 10.7401 89.1776 10.9734 89.3343 11.1045Z" fill="#24C11B"/>
<path d="M87.6636 11.0155C87.7456 11.0842 87.8678 11.0733 87.9365 10.9913C88.0052 10.9092 87.9943 10.787 87.9123 10.7183C87.8302 10.6497 87.708 10.6605 87.6393 10.7426C87.5706 10.8246 87.5815 10.9468 87.6636 11.0155Z" fill="#24C11B"/>
<path d="M87.6388 15.5877C87.5769 15.5244 87.5387 15.4465 87.5242 15.354L87.1877 13.4645C87.1465 13.2119 87.3184 12.9653 87.571 12.9241C87.8294 12.8761 88.0703 13.0548 88.1115 13.3075L88.3645 14.748L91.0727 14.3387C91.3254 14.2975 91.5663 14.4762 91.6075 14.7288C91.6487 14.9815 91.4701 15.2224 91.2174 15.2636L88.0647 15.7374C87.8978 15.7585 87.7423 15.6972 87.6388 15.5877Z" fill="#0055B8"/>
</g>
<circle cx="107.046" cy="58.1559" r="2.26682" transform="rotate(9.77652 107.046 58.1559)" fill="#FFE784"/>
<circle cx="98.3763" cy="30.633" r="2.26682" transform="rotate(9.77652 98.3763 30.633)" fill="#FFE784"/>
<circle cx="73.4193" cy="28.633" r="2.26682" transform="rotate(9.77652 73.4193 28.633)" fill="#FFE784"/>
<defs>
<clipPath id="clip0_33584_83260">
<rect width="11.8364" height="11.8364" fill="white" transform="translate(118.715 25.9597) rotate(39.9256)"/>
</clipPath>
<clipPath id="clip1_33584_83260">
<rect width="11.5179" height="11.5179" fill="white" transform="translate(87.7578 37.144) rotate(39.9256)"/>
</clipPath>
<clipPath id="clip2_33584_83260">
<rect width="10.3883" height="10.3883" fill="white" transform="translate(88.3496 7.25635) rotate(39.9256)"/>
</clipPath>
</defs>
</svg>
