<svg width="100" height="100" viewBox="0 0 100 100" fill="none" xmlns="http://www.w3.org/2000/svg">
<mask id="mask0_21758_183897" style="mask-type:alpha" maskUnits="userSpaceOnUse" x="0" y="0" width="100" height="100">
<rect width="100" height="100" fill="#D9D9D9"/>
</mask>
<g mask="url(#mask0_21758_183897)">
<path d="M2.66297 45.8834C2.61885 45.8305 2.61885 45.751 2.66297 45.7069C2.71592 45.6628 2.79534 45.6628 2.83946 45.7069C2.88358 45.7599 2.88358 45.8393 2.83946 45.8834C2.78651 45.9364 2.7071 45.9364 2.66297 45.8834Z" fill="white"/>
<path d="M11.8222 28.0748C11.778 28.0219 11.778 27.9424 11.8222 27.8983C11.8751 27.8542 11.9545 27.8542 11.9986 27.8983C12.0428 27.9513 12.0428 28.0307 11.9986 28.0748C11.9457 28.1189 11.8663 28.1189 11.8222 28.0748Z" fill="white"/>
<path d="M43.1719 68.558C38.9485 60.5072 43.6118 50.987 52.2874 50.0456L55.6397 49.6848C55.6661 49.6848 55.6837 49.676 55.71 49.676L64.0776 48.7697L72.4012 47.5907C72.4276 47.5907 72.4452 47.5907 72.4716 47.5819L75.8063 47.1068C84.429 45.8838 91.9871 53.873 90.5353 62.6365C90.0602 65.4961 89.4883 68.1709 88.846 70.6785C88.5116 72.1391 88.0453 73.7581 87.4998 75.4386C85.1505 82.9791 82.3173 88.7951 80.1881 93.5376C80.1089 93.7223 80.0209 93.8983 79.9241 94.0743C78.5075 97.1098 75.5775 98.852 72.3924 99.2039C69.2249 99.6527 65.855 98.7024 63.5057 96.1332C63.3561 95.9836 63.2154 95.8428 63.0834 95.6844C59.5111 91.6634 54.9182 86.7714 50.2197 80.1107C49.155 78.6326 48.1783 77.1984 47.3865 75.8698C45.9611 73.6173 44.5533 71.1888 43.1719 68.558Z" fill="#F89E1C"/>
<path d="M70.8876 99.4328C68.0192 99.4328 65.2916 98.2801 63.3999 96.2124C63.2591 96.0717 63.1095 95.9221 62.9687 95.7637C62.4584 95.183 61.9217 94.5847 61.3674 93.9688C58.1383 90.3701 54.1261 85.8828 50.1051 80.1812C48.97 78.6062 48.011 77.1809 47.2631 75.9314C45.7673 73.5646 44.3419 71.1009 43.0397 68.6197C40.9544 64.6515 40.9192 60.0058 42.9517 56.2047C44.8522 52.6413 48.2485 50.3448 52.2695 49.9049L64.0598 48.6203L75.7885 46.9573C79.8623 46.3766 83.9097 47.802 86.9012 50.8639C89.9632 53.9963 91.371 58.4044 90.6759 62.6454C90.2271 65.3466 89.6552 68.0566 88.9865 70.6962C88.6698 72.0776 88.2211 73.679 87.6315 75.4651C85.6166 81.9233 83.2146 87.2114 81.2789 91.4611C80.9445 92.1914 80.6278 92.8953 80.3198 93.5816C80.2406 93.7488 80.1614 93.9248 80.0558 94.1271C78.7096 97.0043 75.85 98.9488 72.4185 99.3272C71.8994 99.3976 71.3891 99.4328 70.8876 99.4328ZM43.2948 68.4965C44.597 70.969 46.0137 73.4238 47.5095 75.7907C48.2573 77.0313 49.2076 78.4567 50.3426 80.0228C54.3548 85.7156 58.3671 90.1941 61.5874 93.784C62.1417 94.3999 62.6784 94.9982 63.1887 95.5789C63.3295 95.7285 63.4703 95.8781 63.6111 96.0277C65.7756 98.3945 69.0486 99.5296 72.3746 99.0632C75.7181 98.6937 78.4897 96.8108 79.8007 94.0128C79.9063 93.8104 79.9943 93.6432 80.0647 93.4761C80.3726 92.7898 80.6894 92.0858 81.0237 91.3556C82.9506 87.1146 85.3527 81.8354 87.3676 75.3947C87.9483 73.6174 88.397 72.016 88.7138 70.6434C89.3913 68.0038 89.9544 65.3026 90.4031 62.6102C91.0894 58.4572 89.708 54.137 86.7077 51.0663C83.7777 48.0659 79.8183 46.6757 75.8325 47.2389L64.1038 48.9018L52.3047 50.1864C48.3805 50.6088 45.0634 52.8524 43.2069 56.3455C41.2183 60.0586 41.2535 64.6075 43.2948 68.4965Z" fill="#10319B"/>
<path d="M58.7011 85.5378C55.1112 80.2937 61.4991 76.9854 64.9306 79.0619C71.2129 82.8717 73.3598 78.8771 76.1929 71.2751C78.7534 64.4033 87.9656 64.9664 89.215 68.4243C88.9159 69.8849 89.1534 69.3833 88.8103 70.7383C88.4759 72.1989 88.0096 73.8179 87.464 75.4984C85.1148 83.0389 82.2816 88.8549 80.1524 93.5974C80.0732 93.7821 79.9852 93.9581 79.8884 94.1341C78.4718 97.1696 75.5418 98.9118 72.3567 99.2637C69.1892 99.7125 65.8193 98.7622 63.47 96.193C63.3204 96.0434 63.1796 95.9026 63.0476 95.7442C61.8862 94.4332 60.6016 93.0255 59.2554 91.4945C61.6311 90.7818 61.6487 89.8403 58.7011 85.5378Z" fill="#032663"/>
<path d="M45.1426 55.6927C46.9727 53.5107 49.5243 52.0149 52.5951 51.6893L55.965 51.3286C55.9914 51.3286 56.009 51.3198 56.0354 51.3198L64.447 50.4223L72.8145 49.2257C72.8409 49.2257 72.8585 49.2257 72.8849 49.2169L76.2372 48.733C80.8829 48.0643 83.9801 51.2054 86.8309 54.8745C87.4732 55.7015 87.174 56.9158 86.2589 57.2237C78.5689 59.8369 60.7779 63.9019 45.1426 55.6927Z" fill="#E26907"/>
<path d="M44.1308 61.2012C45.1954 62.2306 50.2723 64.2719 50.2723 64.2719C50.2723 64.2719 49.2957 66.2076 50.2283 69.5687C50.9322 72.0852 53.1847 73.9329 53.1847 73.9329C52.3664 76.4669 54.0117 80.1712 55.9211 82.8196C57.8304 85.4768 57.1265 86.5502 57.1265 86.5502C57.1265 86.5502 46.8848 74.2936 44.1132 66.6828C42.9958 63.5944 44.1308 61.2012 44.1308 61.2012Z" fill="#F4B821"/>
<path d="M87.6313 68.4077C87.6313 68.4077 85.2117 68.2933 84.2262 70.0883C83.2408 71.8832 78.1463 87.3249 75.5155 92.9473C75.0404 93.9591 73.9493 97.373 72.0488 96.9595C72.0488 96.9595 74.7852 98.1033 77.8384 93.8272C80.9003 89.551 86.2323 73.2822 87.6313 68.4077Z" fill="#0E51A0"/>
<path d="M51.5127 75.4293C51.0024 75.4293 50.4921 75.3149 50.0082 75.0862C48.5652 74.3999 47.6325 72.8513 47.5621 71.0476L47.2278 61.5186C47.1662 59.662 48.0108 57.9815 49.4538 57.128C50.6152 56.4417 51.9439 56.4417 53.0965 57.128L60.3642 61.457C61.552 62.1609 62.3351 63.5071 62.4583 65.0556C62.5903 66.7098 61.9744 68.2848 60.8129 69.2614C60.7778 69.2878 60.7426 69.323 60.6986 69.3494L60.6546 69.3846L53.73 74.6638C53.0437 75.1653 52.2782 75.4293 51.5127 75.4293ZM51.2752 57.2424C50.7648 57.2424 50.2457 57.3832 49.7706 57.6647C48.53 58.395 47.7997 59.8644 47.8525 61.4834L48.1868 71.0124C48.2396 72.5873 49.0403 73.9247 50.2721 74.5054C51.284 74.9894 52.4014 74.8486 53.3341 74.1359L60.3026 68.8303C60.3378 68.8039 60.3642 68.7775 60.3994 68.7511C61.4025 67.9064 61.9392 66.5338 61.8248 65.082C61.7192 63.7446 61.0505 62.5832 60.0387 61.9761L52.7709 57.6471C52.287 57.3832 51.7855 57.2424 51.2752 57.2424Z" fill="#F89E1C"/>
<path d="M51.4766 75.4922C50.9838 75.4922 50.4823 75.3778 50.0072 75.1491C48.5818 74.4716 47.658 72.9406 47.5964 71.1544L47.2532 61.3879C47.1916 59.549 48.0275 57.886 49.4529 57.0413C50.5879 56.3638 51.8901 56.3638 53.0163 57.0413L60.46 61.4759C61.6303 62.171 62.4046 63.4996 62.5277 65.0305C62.6597 66.6759 62.0526 68.2333 60.9 69.1923C60.8648 69.2187 60.8296 69.2539 60.7944 69.2803L60.7504 69.3155L53.6587 74.7179C52.9724 75.237 52.2332 75.4922 51.4766 75.4922ZM51.239 56.8654C50.6847 56.8654 50.1304 57.0149 49.6113 57.3229C48.2915 58.106 47.5084 59.6633 47.5699 61.3879L47.9131 71.1544C47.9747 72.8262 48.8282 74.2516 50.1392 74.8763C51.2302 75.3954 52.4445 75.2546 53.4475 74.4804L60.5832 69.0428C60.6184 69.0164 60.6536 68.99 60.68 68.9636C61.7535 68.0661 62.3166 66.6055 62.1934 65.0657C62.079 63.6404 61.3663 62.3997 60.2841 61.7574L52.8404 57.3229C52.3388 57.0149 51.7845 56.8654 51.239 56.8654Z" fill="#10319B"/>
<path d="M51.6883 73.126C51.2923 73.126 50.9052 73.038 50.5268 72.862C49.4182 72.3341 48.6967 71.155 48.6527 69.7649L48.3975 62.6291C48.3447 61.2125 48.9959 59.9279 50.1045 59.2768C51.002 58.7489 52.0226 58.7489 52.9113 59.2768L58.3489 62.5147C59.2639 63.0602 59.8623 64.0897 59.959 65.2687C60.0646 66.5357 59.5895 67.7324 58.7008 68.4802L58.6128 68.5506L58.4193 68.2955L58.5952 68.5594L53.3952 72.5188C52.8673 72.9236 52.2778 73.126 51.6883 73.126ZM51.5123 59.5056C51.1427 59.5056 50.7732 59.6112 50.4212 59.8135C49.5237 60.3502 48.987 61.4149 49.031 62.6027L49.2862 69.7385C49.3302 70.8823 49.9109 71.8589 50.7996 72.2813C51.5299 72.6244 52.3394 72.5276 53.0081 72.0173L58.1905 68.0667L58.4105 68.2955L58.2169 68.0491L58.2873 67.9963C59.0176 67.3804 59.4047 66.3774 59.3255 65.3215C59.2463 64.3449 58.7624 63.5002 58.0233 63.0602L52.5857 59.8223C52.2426 59.6112 51.873 59.5056 51.5123 59.5056Z" fill="#F89E1C"/>
<path d="M58.3675 68.2425C58.3939 68.2249 58.4202 68.1985 58.4466 68.1809C60.0744 66.8171 59.9336 63.9135 58.1475 62.8489L52.8331 59.6813C50.9942 58.5903 48.8033 60.2532 48.8912 62.6905L49.1376 69.6679C49.2256 72.0963 51.5221 73.4689 53.273 72.1315L58.341 68.2689C58.341 68.2513 58.3499 68.2425 58.3675 68.2425Z" fill="#032663"/>
<path d="M57.4523 67.0973C57.4699 67.0885 57.4787 67.0709 57.4963 67.0621C58.4114 66.2966 58.3322 64.66 57.3291 64.0529L54.3288 62.2668C53.2906 61.6509 52.0587 62.5923 52.1027 63.9561L52.2435 67.8892C52.2963 69.2618 53.5897 70.0273 54.5752 69.2794L57.4347 67.1061C57.4347 67.1061 57.4435 67.1061 57.4523 67.0973Z" fill="#33FCFE"/>
<path d="M87.2086 57.6203C90.0154 60.8054 96.0513 68.8122 98.2422 80.7521C98.4534 81.9135 97.1776 82.7758 96.1745 82.151L95.3914 81.6583C87.4462 76.6871 83.4252 67.3076 85.3169 58.1306C85.5017 57.2507 86.6191 56.9516 87.2086 57.6203Z" fill="#F5851F"/>
<path d="M85.3255 58.1304C85.5103 57.2505 86.6189 56.9514 87.2084 57.6289C89.6721 60.4268 94.6433 66.9643 97.2917 76.6165C93.8778 68.4337 87.3492 61.8786 85.0527 59.7405C85.1231 59.195 85.2111 58.6671 85.3255 58.1304Z" fill="#F89E1C"/>
<path d="M94.6529 75.5181C92.814 75.5181 90.2184 74.7878 86.3293 70.626L86.0918 69.6758C92.638 76.6707 96.5446 74.4007 96.5798 74.3743L96.9758 74.867C96.8966 74.9198 96.1047 75.5181 94.6529 75.5181Z" fill="#F89E1C"/>
<path d="M97.653 77.93C97.653 77.93 94.811 81.0536 89.9805 76.7246C89.9805 76.7246 94.8638 82.5493 97.4682 82.1446C97.4682 82.1446 99.1487 81.8806 97.653 77.93Z" fill="#032663"/>
<path d="M96.905 82.5206C96.6234 82.5206 96.3507 82.4414 96.0955 82.283L95.3124 81.7903C87.3496 76.8102 83.2758 67.29 85.1675 58.0954C85.2643 57.6291 85.6075 57.2595 86.0738 57.1363C86.5313 57.0131 87.0152 57.1627 87.332 57.5147C89.9188 60.4534 96.1747 68.601 98.4096 80.7169C98.5152 81.3152 98.2776 81.8959 97.7673 82.239C97.5033 82.4238 97.2042 82.5206 96.905 82.5206ZM86.3994 57.4091C86.3202 57.4091 86.2322 57.4179 86.153 57.4443C85.801 57.5411 85.5459 57.805 85.4755 58.157C83.6102 67.2196 87.6311 76.6167 95.4796 81.5175L96.2627 82.0103C96.6762 82.2654 97.1777 82.2566 97.5825 81.9839C97.9784 81.7111 98.172 81.2536 98.0928 80.7784C95.8755 68.733 89.6637 60.647 87.0944 57.7258C86.9097 57.5235 86.6633 57.4091 86.3994 57.4091Z" fill="#10319B"/>
<path d="M94.732 79.1169C93.421 79.1169 91.7404 78.6154 89.7959 76.9172L90.0071 76.6797C94.5472 80.6391 97.4244 77.9379 97.5476 77.8235L97.7675 78.0523C97.7411 78.0611 96.6325 79.1169 94.732 79.1169Z" fill="#10319B"/>
<path d="M94.6789 75.7546C92.9192 75.7546 90.2972 74.9539 86.4521 71.0033L86.4874 70.6777C93.1832 77.5671 96.6587 74.9099 96.6939 74.8835L96.8962 75.1299C96.8258 75.1827 96.0867 75.7546 94.6789 75.7546Z" fill="#10319B"/>
<path d="M57.6368 64.2989L3.10547 24.2754V99.4319L53.7127 69.5781L57.6368 64.2989Z" fill="url(#paint0_radial_21758_183897)"/>
<path d="M31.4335 63.5943C31.3894 63.5414 31.3894 63.462 31.4335 63.4179C31.4864 63.3737 31.5658 63.3737 31.61 63.4179C31.6541 63.4708 31.6541 63.5502 31.61 63.5943C31.5658 63.6385 31.4864 63.6385 31.4335 63.5943Z" fill="white"/>
<path d="M39.1415 66.067C39.0974 66.0141 39.0974 65.9346 39.1415 65.8905C39.1944 65.8464 39.2739 65.8464 39.318 65.8905C39.3621 65.9435 39.3621 66.0229 39.318 66.067C39.265 66.1199 39.1944 66.1199 39.1415 66.067Z" fill="white"/>
<path d="M6.38465 56.3971C6.34053 56.3441 6.34053 56.2647 6.38465 56.2206C6.4376 56.1765 6.51702 56.1765 6.56114 56.2206C6.60526 56.2735 6.60526 56.353 6.56114 56.3971C6.50819 56.45 6.4376 56.45 6.38465 56.3971Z" fill="white"/>
<path d="M91.9424 10.2484C90.1924 8.97489 88.1133 7.892 85.7916 6.97371L85.9389 7.00836C85.9389 7.00836 78.5232 2.76343 67.3738 2.59883C56.259 2.43423 48.6354 6.32398 48.5921 6.34996C46.1838 7.19895 44.0093 8.24719 42.1901 9.49468C33.397 15.4896 34.7657 28.8135 38.3956 41.271C41.0379 50.3327 53.2615 54.4823 66.4035 54.4823C79.5368 54.8808 92.7394 50.9737 95.6502 41.9901C99.6439 29.6624 100.554 16.5118 91.9424 10.2484Z" fill="#F89E1C"/>
<path d="M91.943 10.3012C91.0247 9.63411 90.0198 9.01903 88.9282 8.44727C97.3574 14.7713 96.4391 27.8527 92.4628 40.137C89.5519 49.138 76.3493 53.0537 63.216 52.6552C55.7484 52.6552 48.1249 50.7233 42.6064 47.8472C48.2115 52.0575 57.3684 54.6304 66.3954 54.6304C79.5287 55.0289 92.7313 51.1132 95.6421 42.1122C99.6445 29.7499 100.554 16.5733 91.943 10.3012Z" fill="#F5851F"/>
<path d="M87.6108 21.8315L87.4375 20.9132C92.1936 20.0035 92.8346 11.6003 92.8433 11.5137L93.7789 11.583C93.7529 11.9555 93.0685 20.7832 87.6108 21.8315Z" fill="#F89E1C"/>
<path d="M47.484 20.6532C41.4805 18.9985 41.2899 10.3441 41.2812 9.98022L42.2169 9.96289C42.2169 10.0495 42.4075 18.2795 47.7353 19.7522L47.484 20.6532Z" fill="#F4B821"/>
<path d="M67.0797 10.1439C66.7592 10.1439 66.4386 10.1352 66.1094 10.1092C62.9214 9.88397 60.1492 8.60183 58.6851 6.68727L56.6406 4.01037L57.3857 3.44727L59.4302 6.12417C60.7296 7.83081 63.2593 8.97434 66.1787 9.18226C69.1848 9.39017 72.0437 8.54985 73.6377 6.96449C73.681 6.92118 73.7243 6.87786 73.7676 6.82589L76.7217 3.6032L77.4148 4.23561L74.4607 7.46696C74.4087 7.5276 74.3567 7.57958 74.2961 7.63156C72.6847 9.21691 69.9818 10.1439 67.0797 10.1439Z" fill="#F4B821"/>
<path d="M67.0973 13.5839C67.0106 13.5839 66.924 13.5839 66.8287 13.5839C66.5082 13.5752 66.179 13.5666 65.8671 13.5406C61.6481 13.246 58.0356 11.5048 55.9478 8.76721L53.0283 4.9381L53.7734 4.375L56.6928 8.2041C58.6161 10.7251 61.986 12.3278 65.9364 12.6136C66.2396 12.631 66.5428 12.6483 66.8547 12.6483C70.5712 12.7003 73.9238 11.5221 76.0636 9.41694C76.1416 9.33897 76.2109 9.26967 76.2888 9.1917L76.3755 9.0964L80.4298 4.66955L81.1229 5.30195L76.9732 9.83277C76.8866 9.9194 76.8086 10.006 76.722 10.084C74.4436 12.3191 70.9524 13.5839 67.0973 13.5839Z" fill="#F4B821"/>
<path d="M42.658 11.8348C44.486 10.5786 46.6517 9.52173 49.0687 8.66408C49.1207 8.63809 56.7789 4.13326 67.885 4.29786C75.1881 4.41048 81.5728 5.72728 85.0987 6.61958C82.8723 5.52803 76.3316 2.74716 67.3739 2.60855C56.2591 2.44395 48.6356 6.36835 48.5836 6.39434C46.1753 7.25199 44.0008 8.30889 42.1729 9.56504C34.3328 14.9622 34.7053 26.1463 37.2695 37.3997C35.277 26.9433 35.3464 16.8594 42.658 11.8348Z" fill="#F4B821"/>
<path d="M46.6431 20.3602C41.4539 19.1994 41.0467 10.5882 41.0381 10.2157L41.35 10.207C41.35 10.2937 41.7571 18.9481 46.7124 20.057L46.6431 20.3602Z" fill="#10319B"/>
<path d="M56.3286 8.46394L53.4092 4.63484C54.4574 4.3143 55.6702 3.9851 57.0217 3.69922L59.0662 6.37613C60.4523 8.19538 63.1032 9.39956 66.1526 9.61614C69.2887 9.84138 72.2861 8.94041 73.9754 7.26843C74.0274 7.21645 74.0707 7.17313 74.1227 7.12115L77.0768 3.88981C78.4543 4.21901 79.6931 4.59152 80.776 4.95537L76.7216 9.38223L76.6264 9.47753C76.5484 9.55549 76.4704 9.64212 76.3924 9.72009C74.166 11.9205 70.6488 13.1507 66.8543 13.0901C66.5425 13.0814 66.2306 13.0727 65.9187 13.0467C61.8297 12.7609 58.3298 11.0889 56.3286 8.46394Z" fill="#032663"/>
<path d="M87.1954 21.1566L87.1348 20.8533C92.1247 19.8917 92.7831 11.2546 92.7918 11.168L93.1037 11.194C93.0863 11.5578 92.4193 20.1516 87.1954 21.1566Z" fill="#10319B"/>
<path d="M63.7875 53.0448C70.2761 53.2441 76.7908 52.4384 82.1966 50.5498C83.4701 49.2244 84.4837 47.5177 85.0988 45.5166C86.6668 40.388 88.4427 33.1976 89.2137 25.1062C89.5949 21.1298 87.4031 17.474 84.1891 16.6597C79.8056 15.5421 73.0397 14.2167 64.983 13.9654V13.9568C64.7577 13.9568 64.5325 13.9568 64.3072 13.9568C64.082 13.9481 63.8568 13.9481 63.6315 13.9395V13.9481C55.5748 13.9568 48.9302 14.8751 44.512 15.8627C41.272 16.5904 38.8117 20.3675 39.0716 24.3612C39.6 32.4699 41.1594 39.7036 42.5715 44.8841C42.6841 45.3 42.814 45.6985 42.9613 46.0883C43.8623 48.4707 45.8894 50.2466 48.3324 50.9743C53.0452 52.3604 58.4077 53.0448 63.7875 53.0448Z" fill="#032663"/>
<path d="M42.6061 47.8548L43.5591 48.6692C43.4032 48.1321 43.1346 47.2138 42.9527 46.5727C42.4762 44.8834 41.9391 42.9602 41.4366 41.6607C40.631 39.5642 38.9243 38.2994 37.2783 37.3984L37.4689 38.1781C38.9936 39.0184 39.9985 39.9974 40.7262 41.8859C41.22 43.1594 41.7485 45.0566 42.2163 46.7286C42.3982 47.3784 42.4415 47.3091 42.6061 47.8548Z" fill="#F4B821"/>
<path d="M87.1431 50.8191C87.1258 50.8191 87.1085 50.8191 87.0911 50.8104C87.0132 50.7845 86.9698 50.6892 86.9958 50.6112C87.3597 49.5803 87.7149 48.4714 88.0701 47.3972C88.8064 45.1448 89.5601 42.8144 90.4005 40.9172C91.9079 37.5212 95.0439 35.7366 97.2703 34.697C97.3483 34.6624 97.4436 34.697 97.4782 34.775C97.5129 34.853 97.4782 34.9483 97.4003 34.9829C95.2172 36.0052 92.1504 37.7464 90.6863 41.0471C89.8547 42.927 89.0923 45.2487 88.3646 47.4925C88.0181 48.5667 87.6542 49.6842 87.2904 50.7152C87.2644 50.7845 87.2038 50.8191 87.1431 50.8191Z" fill="#F89E1C"/>
<path d="M37.4688 38.1797C37.7027 39.4272 38.0578 40.5361 38.387 41.7835C39.0714 44.3652 40.4315 45.9159 42.6753 47.8824C42.0948 45.8985 41.575 44.01 40.8993 42.234C40.0936 40.1722 38.9155 38.9767 37.4688 38.1797Z" fill="#032663"/>
<path d="M38.4912 41.8951C38.2486 41.1674 38.084 40.4571 37.8848 39.7207C38.6471 40.2578 39.1409 41.0202 39.5827 42.0164C40.0592 43.0733 40.4231 44.6414 40.8389 45.8715C39.6261 44.8666 38.9677 43.3246 38.4912 41.8951Z" fill="#0E51A0"/>
<path d="M42.4162 47.6646C42.2949 47.2575 42.1823 46.8676 42.0697 46.4778C41.6539 45.0224 41.2554 43.645 40.7183 42.2415C39.9992 40.3876 38.977 39.1748 37.3916 38.3085L37.5389 38.0312C39.1935 38.9409 40.2591 40.2057 41.0041 42.1289C41.5499 43.541 41.9484 44.9271 42.3643 46.3912C42.4769 46.7723 42.5895 47.1708 42.7021 47.5693L42.4162 47.6646Z" fill="#10319B"/>
<path d="M97.5567 35.3984C97.0629 37.4169 96.4912 39.2709 95.9281 41.298C94.8365 45.2398 92.4715 48.0293 87.1523 50.8101C88.2612 47.6481 89.3441 44.5814 90.5829 41.7745C92.047 38.4912 95.2437 36.4813 97.5567 35.3984Z" fill="#032663"/>
<path d="M63.7358 51.6581C69.2975 51.8227 74.8765 51.2076 79.6413 49.7609C80.3776 49.5357 81.0447 49.1025 81.5125 48.4961C82.3095 47.4652 82.9506 46.2523 83.3751 44.8922C84.8218 40.2748 86.4591 33.8034 87.1608 26.5177C87.5074 22.9312 85.4889 19.6479 82.5174 18.9115C78.4718 17.8979 72.2343 16.7024 64.81 16.4772V16.4685C64.6021 16.4685 64.3942 16.4685 64.1862 16.4685C63.9783 16.4598 63.7704 16.4598 63.5625 16.4512V16.4598C56.1295 16.4598 49.8574 17.4734 45.7858 18.3571C42.797 19.0068 40.6832 22.2295 40.9171 25.8247C41.4022 33.1277 42.8403 39.6424 44.1484 44.3031C44.5296 45.6632 45.1273 46.8847 45.881 47.933C46.3142 48.5307 46.9293 48.9639 47.6223 49.2065C52.413 50.8438 58.0701 51.6581 63.7358 51.6581Z" fill="#FCE8CA"/>
<path d="M65.7287 53.1307C65.0876 53.1307 64.4379 53.1221 63.7795 53.1047H63.7708C58.2437 53.1047 52.8899 52.377 48.2725 51.0083C45.7515 50.2546 43.707 48.4007 42.8234 46.0356C42.6761 45.6371 42.5375 45.2213 42.4249 44.7968C41.1254 40.0321 39.4621 32.5991 38.9163 24.2045C38.6564 20.2282 40.9782 16.5897 44.3135 15.732C59.8811 11.7383 79.7543 15.1862 84.2245 16.3298C87.5425 17.1787 89.7515 20.8866 89.3704 24.9669C88.5734 33.3441 86.6935 40.7251 85.2467 45.4465C84.649 47.4131 83.6267 49.1717 82.3099 50.5578L82.2839 50.5838L82.2493 50.5924C77.4673 52.2644 71.7929 53.1307 65.7287 53.1307ZM63.7882 52.7929C70.4414 53.0008 76.9388 52.1085 82.1107 50.3066C83.3842 48.9638 84.3717 47.2571 84.9522 45.3512C86.3902 40.6472 88.2702 33.2835 89.0585 24.9322C89.431 21.0078 87.3172 17.4386 84.1465 16.633C79.6937 15.4981 59.8984 12.0502 44.3914 16.0352C41.2034 16.8582 38.977 20.3581 39.2282 24.1872C39.7653 32.5558 41.4286 39.9714 42.7194 44.7188C42.832 45.1347 42.962 45.5332 43.1093 45.9317C43.9669 48.2014 45.9248 49.986 48.3591 50.7137C52.9506 52.0738 58.2784 52.8015 63.7708 52.8015C63.7795 52.7929 63.7795 52.7929 63.7882 52.7929Z" fill="#10319B"/>
<path d="M87.6207 50.6358L87.3262 50.5319C87.7247 49.4056 88.0712 48.3054 88.4004 47.2399C89.0155 45.2907 89.5959 43.4541 90.4016 41.6435C91.8656 38.3515 95.045 36.3157 97.4447 35.1895L97.5746 35.4753C95.2183 36.5842 92.1082 38.5681 90.6788 41.7734C89.8818 43.5667 89.3013 45.3946 88.6949 47.3352C88.3657 48.4007 88.0192 49.5009 87.6207 50.6358Z" fill="#10319B"/>
<path d="M38.163 35.3364L36.7509 34.1236C36.7509 34.1236 35.8239 24.187 37.9897 18.3047L38.3796 21.6746C38.3882 21.6833 37.5133 21.7959 38.163 35.3364Z" fill="#F4B821"/>
<path d="M68.1278 54.673C67.5387 54.673 66.9583 54.6643 66.3865 54.647C66.3865 54.647 66.3865 54.647 66.3779 54.647C54.648 54.647 41.0902 51.1471 38.2314 41.3231C33.5013 25.0971 34.8008 14.3461 42.0951 9.38215C43.8797 8.16065 46.0455 7.10375 48.5405 6.22011C48.835 6.06418 56.3373 2.29572 67.3828 2.46032C78.4456 2.62492 85.9479 6.85252 86.0172 6.89584L86.1211 6.95648C88.3995 7.87477 90.3921 8.94034 92.0294 10.1358C101.957 17.3522 98.6394 33.2317 95.7805 42.0595C92.7484 51.4156 79.3726 54.673 68.1278 54.673ZM66.3952 54.3351C77.8565 54.6816 92.3499 51.6496 95.4947 41.9555C98.3275 33.2144 101.628 17.4822 91.8561 10.3784C90.1668 9.14825 88.1137 8.0567 85.74 7.12974L85.7486 7.09509C84.761 6.56664 77.6053 2.91946 67.3741 2.76353C56.4153 2.59026 48.7397 6.46268 48.6618 6.49733C46.1841 7.37231 44.0357 8.42921 42.2684 9.63339C35.104 14.5194 33.8478 25.149 38.5346 41.2365C41.3501 50.8959 54.7693 54.3351 66.3952 54.3351Z" fill="#10319B"/>
<path d="M74.2792 27.2543C74.2272 27.2456 74.1752 27.2196 74.1232 27.1763C73.4388 26.5959 72.5465 26.3706 71.6715 26.5699C71.481 26.6132 71.2904 26.4919 71.2471 26.3013C71.2037 26.1107 71.325 25.9201 71.5156 25.8768C72.6072 25.6342 73.7247 25.9115 74.5824 26.6392C74.7296 26.7691 74.747 26.9857 74.6257 27.133C74.5391 27.2456 74.4091 27.2802 74.2792 27.2543Z" fill="#032663"/>
<path d="M46.4963 27.679C46.5483 27.6704 46.6003 27.6444 46.6523 27.6011C47.3367 27.0206 48.229 26.8041 49.1126 26.9946C49.3032 27.038 49.4938 26.9167 49.5371 26.7261C49.5804 26.5355 49.4591 26.3449 49.2685 26.3016C48.177 26.0504 47.0594 26.3276 46.2018 27.0553C46.0545 27.1852 46.0372 27.4018 46.1585 27.5491C46.2451 27.6617 46.375 27.705 46.4963 27.679Z" fill="#032663"/>
<path d="M53.7476 40.8029C53.661 40.9849 53.557 41.1581 53.4444 41.3141L47.3542 41.2101C47.2416 41.0455 47.1463 40.8722 47.0684 40.6816L53.7476 40.8029Z" fill="#0052A3"/>
<path d="M54.0164 40.0931C53.9731 40.2663 53.9125 40.4396 53.8432 40.6129L46.9733 40.5003C46.904 40.3357 46.8607 40.1537 46.8174 39.9805L54.0164 40.0931Z" fill="#0052A3"/>
<path d="M46.7353 38.5154L46.7266 39.0352L54.1328 39.1596L54.1415 38.6399L46.7353 38.5154Z" fill="#0052A3"/>
<path d="M54.1288 39.3732C54.1201 39.5465 54.0941 39.7198 54.0595 39.893L46.7738 39.7717C46.7478 39.5985 46.7305 39.4252 46.7305 39.252L54.1288 39.3732Z" fill="#0052A3"/>
<path d="M52.517 42.2236C52.1965 42.4402 51.8326 42.6134 51.4515 42.7261L49.2943 42.6914C48.9132 42.5701 48.558 42.3882 48.2461 42.1543L52.517 42.2236Z" fill="#0052A3"/>
<path d="M53.4355 34.1318L47.5879 34.0365C47.7352 33.8546 47.9084 33.6813 48.0903 33.5254L52.9504 33.6034C53.1323 33.768 53.2969 33.9412 53.4355 34.1318Z" fill="#0052A3"/>
<path d="M53.2889 41.5133C53.133 41.7039 52.9597 41.8685 52.7778 42.0244L47.9958 41.9464C47.8138 41.7905 47.6492 41.6086 47.502 41.418L53.2889 41.5133Z" fill="#0052A3"/>
<path d="M51.7204 32.8686C52.0843 32.9986 52.4135 33.1805 52.708 33.4058L48.3418 33.3364C48.645 33.1199 48.9828 32.9466 49.3467 32.834L51.7204 32.8686Z" fill="#0052A3"/>
<path d="M53.9462 35.0607C54.0068 35.2253 54.0588 35.4073 54.1022 35.5805L46.8857 35.4592C46.9291 35.2773 46.9897 35.1127 47.059 34.9395L53.9462 35.0607Z" fill="#0052A3"/>
<path d="M54.1372 35.7873C54.1632 35.9606 54.1805 36.1338 54.1805 36.3071L46.7822 36.1858C46.7909 36.0125 46.8082 35.8393 46.8428 35.666L54.1372 35.7873Z" fill="#0052A3"/>
<path d="M53.5831 34.3394C53.6871 34.504 53.7823 34.6773 53.8603 34.8679L47.1377 34.7553C47.2243 34.5733 47.3197 34.4001 47.4323 34.2441L53.5831 34.3394Z" fill="#0052A3"/>
<path d="M46.7656 37.076L46.7568 37.5957L54.1631 37.7202L54.1718 37.2004L46.7656 37.076Z" fill="#0052A3"/>
<path d="M46.7773 36.3611L46.7686 36.8809L54.1748 37.0053L54.1835 36.4856L46.7773 36.3611Z" fill="#0052A3"/>
<path d="M46.746 37.8006L46.7373 38.3203L54.1435 38.4448L54.1523 37.925L46.746 37.8006Z" fill="#0052A3"/>
<path d="M73.3346 40.8381C73.2479 41.02 73.144 41.1933 73.0313 41.3492L66.9411 41.2452C66.8285 41.0806 66.7332 40.9074 66.6553 40.7168L73.3346 40.8381Z" fill="#0052A3"/>
<path d="M73.6033 40.1185C73.56 40.2917 73.4994 40.465 73.4301 40.6383L66.5602 40.5256C66.4909 40.361 66.4476 40.1791 66.4043 40.0059L73.6033 40.1185Z" fill="#0052A3"/>
<path d="M66.33 38.5428L66.3213 39.0625L73.7275 39.187L73.7363 38.6672L66.33 38.5428Z" fill="#0052A3"/>
<path d="M73.7157 39.3986C73.707 39.5719 73.681 39.7451 73.6464 39.9184L66.3607 39.7971C66.3347 39.6239 66.3174 39.4506 66.3174 39.2773L73.7157 39.3986Z" fill="#0052A3"/>
<path d="M72.1049 42.249C71.7844 42.4656 71.4205 42.6388 71.0393 42.7514L68.8822 42.7168C68.501 42.5955 68.1459 42.4136 67.834 42.1797L72.1049 42.249Z" fill="#0052A3"/>
<path d="M73.0312 34.167L67.1836 34.0717C67.3309 33.8897 67.5041 33.7165 67.686 33.5605L72.5461 33.6385C72.7193 33.7945 72.8839 33.9764 73.0312 34.167Z" fill="#0052A3"/>
<path d="M72.8758 41.5484C72.7199 41.739 72.5466 41.9036 72.3647 42.0595L67.5826 41.9816C67.4007 41.8256 67.2361 41.6437 67.0889 41.4531L72.8758 41.5484Z" fill="#0052A3"/>
<path d="M71.3073 32.9018C71.6712 33.0318 72.0004 33.2137 72.295 33.439L67.9287 33.3696C68.2319 33.1531 68.5698 32.9798 68.9336 32.8672L71.3073 32.9018Z" fill="#0052A3"/>
<path d="M73.5341 35.0939C73.5947 35.2585 73.6467 35.4405 73.69 35.6137L66.4736 35.4924C66.5169 35.3105 66.5776 35.1459 66.6469 34.9727L73.5341 35.0939Z" fill="#0052A3"/>
<path d="M73.7242 35.8127C73.7502 35.986 73.7675 36.1592 73.7675 36.3325L66.3691 36.2112C66.3778 36.0379 66.3951 35.8647 66.4298 35.6914L73.7242 35.8127Z" fill="#0052A3"/>
<path d="M73.17 34.3648C73.2739 34.5294 73.3692 34.7027 73.4472 34.8933L66.7246 34.7807C66.8112 34.5987 66.9065 34.4255 67.0191 34.2695L73.17 34.3648Z" fill="#0052A3"/>
<path d="M66.3515 37.1072L66.3428 37.627L73.749 37.7514L73.7577 37.2317L66.3515 37.1072Z" fill="#0052A3"/>
<path d="M66.3632 36.3904L66.3545 36.9102L73.7607 37.0346L73.7695 36.5149L66.3632 36.3904Z" fill="#0052A3"/>
<path d="M66.3408 37.8299L66.332 38.3496L73.7383 38.4741L73.747 37.9543L66.3408 37.8299Z" fill="#0052A3"/>
<path d="M58.786 42.9875C58.4865 43.0133 58.2686 43.5549 58.3503 44.1222C58.6363 45.9272 59.535 47.1908 60.5699 47.1392C61.6048 47.0876 62.4627 45.6952 62.6805 43.8643C62.7486 43.297 62.5171 42.7812 62.2039 42.7812L58.786 42.9875Z" fill="#032663"/>
</g>
<defs>
<radialGradient id="paint0_radial_21758_183897" cx="0" cy="0" r="1" gradientUnits="userSpaceOnUse" gradientTransform="translate(60.9363 66.8065) scale(56.3066 56.3067)">
<stop offset="0.0783725" stop-color="#33FCFE"/>
<stop offset="1" stop-color="#33FCFE" stop-opacity="0"/>
</radialGradient>
</defs>
</svg>
