<svg width="105" height="100" viewBox="0 0 105 100" fill="none" xmlns="http://www.w3.org/2000/svg">
<path d="M12.4995 17.75C12.4995 15.5409 14.2904 13.75 16.4995 13.75H58.4995C60.7087 13.75 62.4995 15.5409 62.4995 17.75V72.25C62.4995 74.4591 60.7087 76.25 58.4995 76.25H16.4995C14.2904 76.25 12.4995 74.4591 12.4995 72.25V17.75Z" fill="#FFF7D7"/>
<path fill-rule="evenodd" clip-rule="evenodd" d="M9.99969 21.0956C9.23007 21.8246 8.75 22.8563 8.75 24V78.5C8.75 80.7092 10.5409 82.5 12.75 82.5H54.75C56.9591 82.5 58.75 80.7092 58.75 78.5V77.6544C58.0331 78.3335 57.0651 78.75 55.9997 78.75H13.9997C11.7906 78.75 9.99969 76.9591 9.99969 74.75V21.0956Z" fill="#FFE784"/>
<rect x="38.7495" y="21.25" width="16.25" height="20" rx="1" transform="rotate(90 38.7495 21.25)" fill="#FFE784"/>
<rect x="57.4995" y="45" width="3.75" height="38.75" rx="1.875" transform="rotate(90 57.4995 45)" fill="#FFE784"/>
<rect x="57.4995" y="23.75" width="3.75" height="15" rx="1.875" transform="rotate(90 57.4995 23.75)" fill="#FFE784"/>
<rect x="57.4995" y="31.25" width="3.75" height="15" rx="1.875" transform="rotate(90 57.4995 31.25)" fill="#FFE784"/>
<rect x="57.4995" y="55" width="3.75" height="38.75" rx="1.875" transform="rotate(90 57.4995 55)" fill="#FFE784"/>
<rect x="57.4995" y="65" width="3.75" height="38.75" rx="1.875" transform="rotate(90 57.4995 65)" fill="#FFE784"/>
<mask id="mask0_24573_142992" style="mask-type:alpha" maskUnits="userSpaceOnUse" x="35" y="21" width="70" height="70">
<rect x="35.417" y="21.2501" width="69.1667" height="69.1667" fill="#D9D9D9"/>
</mask>
<g mask="url(#mask0_24573_142992)">
<path d="M86.602 66.5677C88.6324 60.726 84.2617 54.641 78.0795 54.7383L75.6844 54.7747C75.6662 54.7747 75.654 54.7747 75.6358 54.7747L69.6663 54.872L63.6969 54.7747C63.6786 54.7747 63.6665 54.7747 63.6483 54.7747L61.2532 54.7383C55.071 54.641 50.7003 60.726 52.7306 66.5677C53.3932 68.4765 54.1044 70.2515 54.8461 71.8989C55.2473 72.8654 55.764 73.9292 56.3415 75.0295C58.8581 79.9656 61.5146 83.6858 63.551 86.7313C63.63 86.8468 63.7151 86.9623 63.8002 87.0717C65.1497 89.0231 67.3989 89.9531 69.6724 89.9227C71.9398 89.9592 74.1951 89.0231 75.5446 87.0717C75.6297 86.9623 75.7148 86.8468 75.7938 86.7313C77.8302 83.6858 80.4867 79.9656 83.0033 75.0295C83.5808 73.9292 84.0975 72.8715 84.4987 71.8989C85.2282 70.2455 85.9394 68.4765 86.602 66.5677Z" fill="#F89E1C"/>
<path d="M76.1765 78.4157C77.8603 75.1574 74.523 72.9204 70.8149 75.0662C66.3956 77.6194 63.7817 76.4705 60.8334 71.5831C58.4383 67.6075 54.9369 68.6348 53.709 69.1576C54.092 70.1241 54.481 71.0603 54.8822 71.9539C55.2834 72.9204 55.8001 73.9842 56.3776 75.0845C58.8943 80.0205 61.5507 83.7408 63.5871 86.7863C63.6662 86.9018 63.7513 87.0173 63.8364 87.1267C65.1859 89.078 67.4351 90.0081 69.7086 89.9777C71.976 90.0142 74.2312 89.078 75.5807 87.1267C75.6658 87.0173 75.7509 86.9018 75.83 86.7863C76.4926 85.7894 77.2281 84.7256 77.994 83.5645C76.2312 83.2788 74.5473 81.5645 76.1765 78.4157Z" fill="#032663"/>
<path d="M69.5566 90.0811C67.1555 90.0811 64.9793 89.0051 63.7209 87.1815C63.6358 87.0721 63.5507 86.9566 63.4717 86.835C63.1799 86.3973 62.8699 85.9414 62.5538 85.4733C60.7058 82.7439 58.4141 79.3519 56.2561 75.121C55.6421 73.9539 55.1376 72.8961 54.7546 71.9843C54.3473 71.0786 53.9522 70.1363 53.5814 69.188L53.5449 69.0908L53.6422 69.0482C55.0221 68.4586 58.4931 67.5224 60.9003 71.5223C63.9155 76.5252 66.4868 77.4249 70.7359 74.969C72.9973 73.6621 74.9851 74.0086 75.9516 74.9326C76.8391 75.7836 76.9546 77.1027 76.2495 78.4644C75.5382 79.8443 75.4106 81.0661 75.8847 82.0023C76.2677 82.7561 77.0519 83.2971 77.9819 83.449L78.1522 83.4734L78.0549 83.6132C77.6233 84.2636 77.2038 84.8837 76.7966 85.4794C76.4805 85.9475 76.1765 86.3973 75.8847 86.8289C75.8057 86.9505 75.7206 87.066 75.6355 87.1754C74.3589 89.0234 72.1402 90.1115 69.6782 90.0689C69.6357 90.0811 69.5931 90.0811 69.5566 90.0811ZM69.6782 89.8623C72.0672 89.8987 74.2191 88.8532 75.4592 87.0599C75.5443 86.9444 75.6294 86.835 75.7024 86.7195C75.9942 86.2818 76.2981 85.832 76.6142 85.3639C76.9911 84.8107 77.3741 84.2332 77.7753 83.6375C76.8452 83.443 76.0732 82.8776 75.6841 82.1056C75.3316 81.4065 75.1066 80.1908 76.0549 78.3671L76.1522 78.4157L76.0549 78.3671C76.7115 77.0966 76.6203 75.8748 75.7996 75.0967C74.8878 74.2274 73.0034 73.9113 70.8454 75.1636C66.5172 77.668 63.7696 76.7137 60.7119 71.6439C58.4445 67.8872 55.2105 68.6531 53.8245 69.2184C54.1832 70.1303 54.5662 71.036 54.9552 71.9114C55.3321 72.8232 55.8367 73.8688 56.4506 75.0359C58.6025 79.2546 60.8943 82.6406 62.7362 85.3639C63.0523 85.832 63.3623 86.2879 63.6541 86.7256C63.7331 86.8411 63.8121 86.9505 63.8972 87.066C65.1373 88.8532 67.3014 89.9048 69.6782 89.8623Z" fill="#10319B"/>
<path d="M47.9828 59.6016C47.1135 62.021 45.4905 67.8871 46.9068 75.1088C47.0466 75.814 47.9585 76.0146 48.384 75.4371L48.7183 74.9873C52.0921 70.4159 52.2684 64.2277 49.1621 59.4679C48.8642 59.0059 48.1712 59.0849 47.9828 59.6016Z" fill="#F5851F"/>
<path d="M69.7818 90.081C69.7393 90.081 69.7028 90.081 69.6602 90.081C67.2165 90.1175 64.9795 89.0354 63.7029 87.1814C63.6178 87.072 63.5327 86.9565 63.4537 86.8349C63.1619 86.3972 62.8519 85.9413 62.5358 85.4732C60.6878 82.7438 58.3961 79.3518 56.2381 75.1209C55.6241 73.9538 55.1196 72.896 54.7366 71.9842C53.9585 70.2396 53.2473 68.4463 52.6212 66.647C51.6364 63.8203 52.0802 60.8052 53.8309 58.3858C55.5755 55.9786 58.2745 54.6291 61.2532 54.6716L63.6422 54.7081H63.6908L69.6602 54.8053L75.6297 54.7081H75.6601L78.0734 54.6716C81.052 54.623 83.751 55.9786 85.4957 58.3858C87.2464 60.8052 87.6901 63.8203 86.7054 66.647C86.0792 68.4463 85.368 70.2457 84.5899 71.9903C84.213 72.9021 83.7085 73.9598 83.0884 75.127C80.9304 79.3518 78.6326 82.7499 76.7907 85.4793C76.4746 85.9474 76.1646 86.4033 75.8728 86.841C75.7938 86.9625 75.7087 87.078 75.6236 87.1875C74.3653 89.005 72.189 90.081 69.7818 90.081ZM69.6602 89.8622C72.0492 89.8986 74.2011 88.8531 75.4412 87.0598C75.5263 86.9443 75.6114 86.8349 75.6844 86.7194C75.9762 86.2817 76.2862 85.8258 76.6023 85.3577C78.4442 82.6344 80.7359 79.2424 82.8878 75.0297C83.5018 73.8687 84.0003 72.817 84.3832 71.9113C85.1613 70.1727 85.8726 68.3795 86.4926 66.5862C87.4531 63.8264 87.0215 60.8842 85.3133 58.5256C83.6112 56.1792 80.9669 54.8601 78.0734 54.9026L75.6844 54.9391H75.654L69.6663 55.0363L63.6908 54.9391H63.6422L61.2471 54.9026C58.3535 54.8601 55.7092 56.1792 54.0072 58.5256C52.299 60.8903 51.8674 63.8264 52.8279 66.5862C53.4479 68.3795 54.1591 70.1727 54.9372 71.9113C55.3141 72.8231 55.8187 73.8687 56.4326 75.0358C58.5845 79.2545 60.8763 82.6405 62.7182 85.3638C63.0343 85.8319 63.3443 86.2878 63.6361 86.7255C63.7151 86.841 63.7941 86.9504 63.8792 87.0659C65.1254 88.8531 67.2895 89.9047 69.6602 89.8622Z" fill="#10319B"/>
<path d="M83.7329 57.9725C82.1949 56.6412 80.2375 55.8388 78.0491 55.8814L75.648 55.9239C75.6297 55.9239 75.6176 55.9239 75.5994 55.9239L69.5995 56.0273L63.5997 55.9239C63.5814 55.9239 63.5693 55.9239 63.551 55.9239L61.1499 55.8814C57.8187 55.8267 56.0072 58.2217 54.4388 60.9633C54.0863 61.5833 54.4328 62.3858 55.1075 62.5195C60.7912 63.6441 73.721 64.9024 83.7329 57.9725Z" fill="#E26907"/>
<path d="M68.104 74.0085C67.5325 74.0085 66.955 73.8687 66.4262 73.583C65.3016 72.9751 64.6086 71.8505 64.5661 70.5739L64.3472 63.255C64.3107 61.9784 64.9369 60.8113 66.025 60.1426C67.1131 59.4679 68.4322 59.4314 69.5568 60.0393L76.0551 63.5346C77.1432 64.1182 77.8301 65.2002 77.897 66.4342C77.9639 67.6682 77.3925 68.8171 76.3773 69.5101C76.3469 69.5345 76.3104 69.5527 76.28 69.577L76.2375 69.6013L69.9641 73.4796C69.3866 73.8261 68.7422 74.0085 68.104 74.0085ZM67.879 60.0453C67.3198 60.0453 66.7544 60.2034 66.2499 60.5134C65.2955 61.1031 64.7484 62.1243 64.7849 63.2428L65.0037 70.5618C65.0402 71.6803 65.6481 72.6651 66.6329 73.1939C67.6176 73.7228 68.7787 73.6924 69.727 73.1027L76.0429 69.2001C76.0733 69.1819 76.1037 69.1636 76.128 69.1454C77.0156 68.5375 77.514 67.5345 77.4532 66.4525C77.3985 65.3765 76.7967 64.4282 75.8423 63.9176L69.344 60.4222C68.882 60.1669 68.3775 60.0453 67.879 60.0453Z" fill="#F89E1C"/>
<path d="M68.0733 74.0632C67.508 74.0632 66.9366 73.9234 66.4077 73.6377C65.2892 73.0359 64.6023 71.9235 64.5658 70.653L64.3409 63.1517C64.3044 61.8873 64.9244 60.7323 66.0004 60.0636C67.0764 59.3949 68.3894 59.3585 69.5079 59.9603L76.1643 63.5468C77.2402 64.1243 77.9211 65.2002 77.9879 66.4221C78.0548 67.6439 77.4895 68.7868 76.4864 69.4737C76.4561 69.498 76.4196 69.5162 76.3892 69.5405L76.3466 69.5649L69.9152 73.5404C69.3438 73.8869 68.7116 74.0632 68.0733 74.0632ZM67.8423 59.7597C67.2466 59.7597 66.6508 59.9238 66.1159 60.2581C65.1068 60.8842 64.5232 61.9663 64.5597 63.1517L64.7846 70.653C64.8211 71.8384 65.4655 72.8839 66.511 73.4493C67.5566 74.0146 68.7845 73.9781 69.7997 73.352L76.2676 69.3521C76.298 69.3339 76.3284 69.3096 76.3588 69.2913C77.301 68.647 77.8299 67.5832 77.7691 66.4342C77.7083 65.2914 77.07 64.2823 76.0609 63.7413L69.4046 60.1548C68.9122 59.8934 68.3772 59.7597 67.8423 59.7597Z" fill="#10319B"/>
<path d="M49.1621 59.4675C48.8643 59.0116 48.1713 59.0906 47.9828 59.6012C47.2169 61.7288 45.8674 66.5251 46.5239 72.5614C46.6273 67.1816 48.8521 62.0328 49.6728 60.3125C49.5086 60.0268 49.3445 59.741 49.1621 59.4675Z" fill="#F89E1C"/>
<path d="M46.7733 71.5772C46.5058 71.5772 46.3417 71.5285 46.3174 71.5225L46.445 71.103L46.3782 71.3097L46.439 71.0969C46.4633 71.103 49.0954 71.6744 51.2656 65.9846L51.3811 66.8417C49.6121 71.3219 47.679 71.5772 46.7733 71.5772Z" fill="#F89E1C"/>
<path d="M46.6152 73.3827C46.6152 73.3827 48.913 74.5134 50.6759 70.9937C50.6759 70.9937 49.217 75.3644 47.6608 75.717C47.6608 75.717 46.6517 75.9419 46.6152 73.3827Z" fill="#032663"/>
<path d="M47.7275 75.8809C47.6546 75.8809 47.5877 75.8748 47.5148 75.8566C47.15 75.7715 46.8765 75.4979 46.8035 75.1271C45.3628 67.7899 47.0771 61.7962 47.8795 59.5652C47.9767 59.2917 48.2199 59.0972 48.5117 59.0607C48.8035 59.0242 49.0892 59.1579 49.2472 59.4072C52.3657 64.1791 52.1833 70.4646 48.7974 75.0481L48.4631 75.4979C48.2928 75.7411 48.0193 75.8809 47.7275 75.8809ZM48.6089 59.2734C48.5846 59.2734 48.5664 59.2734 48.5421 59.2795C48.3293 59.3038 48.1591 59.4376 48.0862 59.6382C47.2898 61.857 45.5878 67.8021 47.0163 75.0846C47.071 75.3642 47.2777 75.5769 47.5634 75.6438C47.843 75.7046 48.1287 75.6013 48.2989 75.3703L48.6333 74.9204C51.9645 70.4099 52.1408 64.2216 49.0709 59.5288C48.9676 59.3646 48.7974 59.2734 48.6089 59.2734Z" fill="#10319B"/>
<path d="M47.4418 73.6192C46.9251 73.6192 46.5847 73.4855 46.5786 73.4794L46.6637 73.2788C46.7549 73.3153 48.9737 74.1906 50.6454 70.9628L50.8399 71.0661C49.7214 73.218 48.3232 73.6192 47.4418 73.6192Z" fill="#10319B"/>
<path d="M46.8642 71.699C46.6028 71.699 46.4447 71.6504 46.4204 71.6443L46.4873 71.4376C46.5116 71.4437 49.0526 72.1671 51.2896 66.7994L51.4902 66.8845C49.703 71.1701 47.7274 71.699 46.8642 71.699Z" fill="#10319B"/>
<path d="M91.6166 59.6016C92.4859 62.021 94.109 67.8871 92.6926 75.1088C92.5528 75.814 91.641 76.0146 91.2154 75.4371L90.8811 74.9873C87.5073 70.4159 87.331 64.2277 90.4373 59.4679C90.7352 59.0059 91.4282 59.0849 91.6166 59.6016Z" fill="#F89E1C"/>
<path d="M91.0334 60.3189C91.0274 60.3311 91.0213 60.3372 91.0152 60.3493C89.9514 62.1608 90.1642 64.4647 91.5137 66.0695C91.9574 66.5984 92.4984 67.0786 93.1367 67.3947C93.1306 64.1061 92.2857 61.5651 91.7933 60.3736C91.6596 60.0515 91.2097 60.0211 91.0334 60.3189Z" fill="#F4B821"/>
<path d="M88.784 63.2006C87.6837 67.1761 88.3949 71.5408 90.8812 74.9875L91.2034 75.4373C91.2398 75.492 91.2885 75.5346 91.3371 75.5771L92.4435 75.5163C92.5468 75.4069 92.6197 75.2732 92.6501 75.1091C92.79 74.3796 92.8994 73.6684 92.9845 72.9693C89.5074 71.48 88.8812 65.93 88.784 63.2006Z" fill="#F5851F"/>
<path d="M92.7782 71.589C91.8603 71.589 89.8907 71.0176 88.1704 66.653L88.3163 65.9174C90.5108 71.9477 93.1247 71.1148 93.149 71.1088L93.2949 71.5221C93.2645 71.5282 93.0821 71.589 92.7782 71.589Z" fill="#F89E1C"/>
<path d="M92.9845 73.3827C92.9845 73.3827 90.6867 74.5134 88.9238 70.9937C88.9238 70.9937 90.3828 75.3644 91.9389 75.717C91.9389 75.717 92.948 75.9419 92.9845 73.3827Z" fill="#032663"/>
<path d="M91.872 75.881C91.5802 75.881 91.3067 75.7473 91.1243 75.4981L90.79 75.0482C87.4041 70.4648 87.2278 64.1792 90.3402 59.4073C90.5043 59.1581 90.7839 59.0304 91.0757 59.0608C91.3675 59.0973 91.6106 59.2857 91.7079 59.5654C92.5103 61.8024 94.2306 67.7961 92.7839 75.1272C92.7109 75.492 92.4374 75.7716 92.0726 75.8567C92.0118 75.8749 91.945 75.881 91.872 75.881ZM90.9906 59.2736C90.8022 59.2736 90.638 59.3648 90.5286 59.5228C87.4588 64.2157 87.6351 70.404 90.9663 74.9145L91.3006 75.3643C91.4708 75.5953 91.7565 75.6987 92.0362 75.6379C92.3158 75.5771 92.5225 75.3643 92.5833 75.0786C94.0179 67.7961 92.3097 61.851 91.5134 59.6322C91.4404 59.4316 91.2702 59.2979 91.0575 59.2736C91.0332 59.2736 91.0149 59.2736 90.9906 59.2736Z" fill="#10319B"/>
<path d="M92.1578 73.6196C91.2764 73.6196 89.8783 73.2184 88.7598 71.0604L88.9543 70.9571C90.626 74.1911 92.8448 73.3157 92.9359 73.2731L93.021 73.4737C93.015 73.4859 92.6746 73.6196 92.1578 73.6196Z" fill="#10319B"/>
<path d="M92.7354 71.699C91.8722 71.699 89.8966 71.1701 88.1094 66.8845L88.31 66.7994C90.5592 72.1853 93.088 71.4437 93.1123 71.4376L93.1791 71.6443C93.1548 71.6504 92.9968 71.699 92.7354 71.699Z" fill="#10319B"/>
<path d="M68.5112 72.3248C68.0735 72.3248 67.6359 72.2154 67.2286 71.9965C66.3654 71.5345 65.8365 70.6774 65.8061 69.6987L65.642 64.2156C65.6116 63.2369 66.0918 62.3494 66.9246 61.8388C67.7574 61.3221 68.7665 61.2977 69.6236 61.7597L74.4867 64.3797C75.3195 64.8296 75.8423 65.6563 75.891 66.5985C75.9396 67.5407 75.508 68.4222 74.7299 68.951C74.7056 68.9693 74.6813 68.9814 74.6569 68.9997L74.6265 69.0179L69.9276 71.9236C69.4899 72.185 69.0036 72.3248 68.5112 72.3248ZM68.341 61.8692C67.9276 61.8692 67.5204 61.9847 67.1495 62.2096C66.4566 62.6412 66.0553 63.3828 66.0797 64.2034L66.2438 69.6866C66.2681 70.5072 66.7119 71.2245 67.4353 71.6136C68.1526 72.0026 69.0036 71.9783 69.6966 71.5467L74.4199 68.6228C74.4442 68.6106 74.4624 68.5924 74.4807 68.5802C75.1311 68.1365 75.4897 67.4009 75.4472 66.6167C75.4046 65.8326 74.967 65.1396 74.274 64.7627L69.4109 62.1427C69.0765 61.9603 68.7118 61.8692 68.341 61.8692Z" fill="#F89E1C"/>
<path d="M74.4928 68.7623C74.5172 68.7501 74.5415 68.7319 74.5597 68.7197C76.0369 67.7106 75.9335 65.4797 74.3409 64.6226L69.5872 62.0573C67.9398 61.1698 65.9581 62.3977 66.0128 64.27L66.1709 69.6255C66.2256 71.4917 68.2863 72.598 69.8729 71.6193L74.4685 68.7805C74.4746 68.7744 74.4868 68.7683 74.4928 68.7623Z" fill="#032663"/>
<path d="M72.5051 67.9358C72.5173 67.9298 72.5295 67.9176 72.5416 67.9115C73.3744 67.3462 73.3136 66.0879 72.414 65.6016L69.7332 64.1609C68.8031 63.6624 67.6846 64.3554 67.7211 65.407L67.8123 68.4282C67.8427 69.4799 69.0037 70.106 69.8973 69.5528L72.4869 67.9541C72.493 67.948 72.4991 67.9419 72.5051 67.9358Z" fill="#33FCFE"/>
<path d="M84.6504 60.0337C83.9087 60.8787 79.5867 63.0245 79.5867 63.0245C79.5867 63.0245 81.0699 64.1369 81.0942 66.4894C81.1125 68.2462 79.4529 69.8207 79.4529 69.8207C80.9483 71.3465 80.383 74.0394 79.2767 76.0819C78.1703 78.1244 79.149 78.7201 79.149 78.7201C79.149 78.7201 85.6169 69.0547 86.1822 63.6263C86.4132 61.4197 84.6504 60.0337 84.6504 60.0337Z" fill="#F4B821"/>
<path d="M55.4292 70.2582C55.4292 70.2582 57.107 69.9786 58.0066 71.1153C58.9063 72.2521 64.2557 82.3369 66.748 85.9417C67.1979 86.5921 68.3529 88.823 69.6355 88.3793C69.6355 88.3793 67.8483 89.3945 65.2162 86.7441C62.5901 84.0876 56.9732 73.4557 55.4292 70.2582Z" fill="#0E51A0"/>
<path d="M52.6174 28.1225C53.8362 27.2633 55.2927 26.532 56.9015 25.9226L56.7979 25.9469C56.7979 25.9469 61.9657 23.0888 69.6747 23.0888C77.3593 23.0888 82.5881 25.8616 82.6185 25.8799C84.2761 26.4954 85.7631 27.2389 87.0124 28.1164C93.0272 32.3518 92.5336 41.4503 89.8949 50.0247C87.9874 56.265 78.9011 59.1048 69.821 58.9647C60.7408 59.1048 51.6545 56.265 49.7349 50.0247C47.0961 41.4564 46.6025 32.3579 52.6174 28.1225Z" fill="#F89E1C"/>
<path d="M52.617 28.1524C53.2569 27.7015 53.9638 27.2871 54.7195 26.9031C48.8265 31.1873 49.3262 40.237 51.9467 48.7687C53.8663 55.0212 62.9465 57.8611 72.0328 57.727C77.1945 57.8062 82.3562 56.9165 86.2076 54.9908C82.2891 57.8428 76.0549 59.1591 69.8145 59.0616C60.7344 59.2018 51.6481 56.3558 49.7284 50.1033C47.0958 41.5167 46.6022 32.4 52.617 28.1524Z" fill="#F5851F"/>
<path d="M55.4268 35.7823C51.7398 35.0144 51.4961 29.1397 51.4839 28.8838L51.9227 28.8716C51.9227 28.9264 52.1664 34.6549 55.5121 35.3496L55.4268 35.7823Z" fill="#F89E1C"/>
<path d="M83.4168 36.0077L83.2949 35.5872C86.9636 34.5208 87.1769 28.5608 87.1769 28.4998L87.6156 28.512C87.6095 28.768 87.3901 34.8559 83.4168 36.0077Z" fill="#F4B821"/>
<path d="M69.9488 28.3111C67.8829 28.3111 65.9632 27.6347 64.8419 26.4951C64.8054 26.4585 64.7688 26.422 64.7322 26.3793L62.7212 24.1123L63.2148 23.6735L65.2259 25.9344C65.2502 25.9649 65.2807 25.9954 65.3112 26.0258C66.402 27.135 68.3643 27.7444 70.4424 27.6347C72.4595 27.525 74.2146 26.7571 75.1348 25.5932L76.573 23.7649L77.091 24.1732L75.6528 26.0015C74.6229 27.3178 72.685 28.171 70.479 28.2928C70.2961 28.305 70.1255 28.3111 69.9488 28.3111Z" fill="#F4B821"/>
<path d="M69.9365 30.6939C67.2003 30.6939 64.72 29.7737 63.1416 28.1649C63.0868 28.11 63.0258 28.0491 62.971 27.9881L62.91 27.9211L60.1494 24.8192L60.643 24.3804L63.4585 27.5494C63.5073 27.6042 63.556 27.659 63.6109 27.7078C65.0673 29.1826 67.377 30.0357 69.9365 30.0357C70.1437 30.0357 70.357 30.0296 70.5703 30.0175C73.3004 29.8651 75.6467 28.7925 76.9996 27.0679L79.0533 24.4536L79.5713 24.8619L77.5176 27.4762C76.0489 29.3471 73.5259 30.5111 70.6069 30.6756C70.3875 30.6878 70.162 30.6939 69.9365 30.6939Z" fill="#F4B821"/>
<path d="M86.6712 29.7253C85.4219 28.8416 83.935 28.086 82.2774 27.4705C82.2408 27.4522 76.9999 24.2589 69.3153 24.2589C64.2572 24.2528 59.839 25.0999 57.3892 25.6788C58.9432 24.9475 63.4893 23.0888 69.6809 23.0888C77.3656 23.0888 82.5943 25.886 82.6248 25.9043C84.2824 26.5259 85.7693 27.2754 87.0186 28.1591C92.3814 31.9679 92.5703 39.6769 90.675 47.4286C92.1742 40.2254 91.6745 33.2781 86.6712 29.7253Z" fill="#F4B821"/>
<path d="M83.7765 35.7093L83.7339 35.496C87.1709 34.783 87.5427 28.6646 87.5488 28.6036L87.7682 28.6158C87.7499 28.8718 87.3781 34.9598 83.7765 35.7093Z" fill="#10319B"/>
<path d="M77.2556 27.2508L79.3094 24.6365C78.5903 24.4049 77.7554 24.1672 76.823 23.9478L75.3848 25.776C74.4097 27.0192 72.5632 27.8237 70.4547 27.9455C68.2852 28.0674 66.2254 27.4154 65.0736 26.2392C65.037 26.2026 65.0065 26.1722 64.9761 26.1356L62.965 23.8747C62.0083 24.088 61.149 24.3318 60.3994 24.5694L63.16 27.6713L63.221 27.7383C63.2758 27.7932 63.3246 27.8541 63.3794 27.909C64.8968 29.4508 67.3101 30.3344 69.9367 30.3344C70.1499 30.3344 70.3693 30.3283 70.5887 30.3161C73.4103 30.1699 75.8418 29.0486 77.2556 27.2508Z" fill="#032663"/>
<path d="M55.786 35.7095C52.1844 34.9599 51.7883 28.9329 51.77 28.6769L51.9894 28.6647C51.9955 28.7257 52.3916 34.7832 55.8287 35.4962L55.786 35.7095Z" fill="#10319B"/>
<path d="M69.7722 58.8849C65.2809 58.9519 60.7956 58.3303 57.0782 56.9652C56.2129 56.0389 55.5242 54.8445 55.122 53.455C54.0921 49.89 52.9342 44.905 52.4894 39.3046C52.27 36.55 53.824 34.0515 56.0544 33.5152C59.0954 32.7839 63.7878 31.9368 69.3578 31.8515V31.8454C69.5162 31.8454 69.6686 31.8515 69.827 31.8515C69.9855 31.8515 70.1378 31.8454 70.2963 31.8454V31.8515C75.8663 31.9368 80.449 32.6437 83.49 33.375C85.7204 33.9113 87.3841 36.55 87.1647 39.3046C86.7198 44.905 85.562 49.89 84.5321 53.455C84.1359 54.814 83.4717 55.9841 82.6307 56.9104C78.8707 58.312 74.3184 58.9519 69.7722 58.8849Z" fill="#032663"/>
<path d="M85.2816 55.5211L84.3979 56.0026C84.5625 55.515 84.8367 54.6923 85.0195 54.1134C85.5071 52.5899 86.0616 50.8592 86.5553 49.7013C87.3536 47.8304 89.5718 46.4166 91.0283 45.7097L90.7785 46.6664C89.4195 47.3307 87.8777 48.2753 87.1586 49.9633C86.6771 51.0968 86.1287 52.8093 85.6411 54.3206C85.4644 54.8934 85.4461 55.0336 85.2816 55.5211Z" fill="#F4B821"/>
<path d="M54.6281 55.6617C54.5794 55.6617 54.5367 55.6312 54.5245 55.5885C54.3783 55.1559 54.2259 54.6805 54.0675 54.1991C53.5922 52.7304 53.0498 51.0606 52.544 49.8723C51.8066 48.1477 50.2221 47.1909 48.7656 46.4779C48.7108 46.4535 48.6864 46.3865 48.7169 46.3316C48.7413 46.2768 48.8083 46.2524 48.8631 46.2829C50.3562 47.0081 51.9833 47.9953 52.7512 49.787C53.2631 50.9875 53.8054 52.6573 54.2808 54.132C54.4392 54.6135 54.5916 55.0827 54.7317 55.5215C54.75 55.5763 54.7196 55.6434 54.6647 55.6617C54.6525 55.6617 54.6403 55.6617 54.6281 55.6617Z" fill="#F89E1C"/>
<path d="M90.8514 46.6361C90.5894 47.7696 90.2847 48.9092 89.9373 50.0366C89.2243 52.3645 87.5362 54.2171 85.2266 55.631C85.8238 53.8454 86.3235 51.8526 86.9938 50.2743C87.7922 48.4156 89.5656 47.2577 90.8514 46.6361Z" fill="#032663"/>
<path d="M89.2853 50.1771C89.5291 49.5189 89.7546 48.8608 89.9679 48.1965C89.2854 48.6353 88.5845 49.2691 88.1579 50.1527C87.7009 51.0912 87.2987 52.2491 86.8843 53.3521C87.969 52.5172 88.8039 51.463 89.2853 50.1771Z" fill="#0E51A0"/>
<path d="M85.3669 55.6188L85.1597 55.5518C85.3669 54.9363 85.5619 54.2842 85.7508 53.6565C86.1103 52.4621 86.4882 51.2311 86.927 50.189C87.7192 48.3242 89.4926 47.1541 90.8333 46.496L90.9308 46.691C89.6205 47.3309 87.902 48.4644 87.1281 50.2682C86.6893 51.2981 86.3175 52.523 85.958 53.7114C85.7691 54.3512 85.5741 55.0033 85.3669 55.6188Z" fill="#10319B"/>
<path d="M48.7656 46.6361C49.0277 47.7696 49.3324 48.9092 49.6797 50.0366C50.3927 52.3645 52.0808 54.2171 54.3905 55.631C53.7932 53.8454 53.2935 51.8526 52.6232 50.2743C51.8309 48.4156 50.0515 47.2577 48.7656 46.6361Z" fill="#032663"/>
<path d="M70.418 59.0623C70.2169 59.0623 70.0158 59.0623 69.8208 59.0562C61.8192 59.1781 51.7396 56.8928 49.6311 50.0492C47.7419 43.9185 45.6151 32.9126 52.5562 28.0251L52.6172 28.1166L52.5562 28.0251C53.7689 27.172 56.7124 25.8739 56.8404 25.8191C56.883 25.7947 62.0325 22.9792 69.6806 22.9792C77.353 22.9792 82.6244 25.7521 82.6793 25.7825C84.3795 26.4102 85.8665 27.1659 87.0853 28.0251C94.0264 32.9126 91.8996 43.9185 90.0104 50.0431C87.9506 56.7222 78.3098 59.0623 70.418 59.0623ZM69.8147 58.8368C70.0097 58.8368 70.2108 58.8429 70.4119 58.8429C78.2306 58.8429 87.7739 56.5455 89.7972 49.9821C91.668 43.9124 93.7827 33.0162 86.9573 28.208C85.7507 27.3609 84.282 26.6113 82.5879 25.9836C82.5208 25.9471 77.2921 23.2047 69.6806 23.2047C62.0935 23.2047 56.9866 25.9897 56.9379 26.0202C56.9013 26.0385 53.8847 27.367 52.6842 28.208C45.8527 33.0101 47.9735 43.9124 49.8383 49.9821C51.9102 56.71 61.8984 58.9587 69.8147 58.8368Z" fill="#10319B"/>
<path d="M69.8206 57.9223C65.9691 57.9772 62.1237 57.4958 58.8451 56.4415C58.3393 56.2769 57.8823 55.9722 57.5654 55.5457C57.023 54.8266 56.5964 53.9795 56.31 53.0349C55.3593 49.8294 54.2928 45.3381 53.8845 40.2983C53.6834 37.818 55.1155 35.5693 57.1692 35.0878C59.9725 34.4297 64.2993 33.6679 69.4366 33.5887V33.5826C69.5829 33.5826 69.7231 33.5826 69.8693 33.5887C70.0156 33.5887 70.1557 33.5826 70.302 33.5826V33.5887C75.4393 33.6679 79.76 34.4297 82.5694 35.0878C84.6292 35.5693 86.0552 37.818 85.8541 40.2983C85.4397 45.3381 84.3793 49.8294 83.4286 53.0349C83.1483 53.9734 82.7278 54.8083 82.1916 55.5213C81.8868 55.9296 81.4603 56.2221 80.9788 56.3805C77.6515 57.4836 73.7391 57.9833 69.8206 57.9223Z" fill="#FCE8CA"/>
<path fill-rule="evenodd" clip-rule="evenodd" d="M60.5844 45.9912C60.7332 45.8044 61.0051 45.7736 61.1919 45.9223C61.8982 46.4848 63.8416 47.7047 65.872 48.0416C66.0825 48.0765 66.236 48.2597 66.2335 48.4731C66.2311 48.6864 66.0734 48.866 65.8621 48.896C65.3629 48.967 64.517 49.1287 63.6235 49.3808C62.7241 49.6345 61.8091 49.9709 61.151 50.3804C60.9482 50.5065 60.6817 50.4444 60.5555 50.2417C60.4294 50.039 60.4915 49.7724 60.6942 49.6463C61.4554 49.1727 62.4623 48.8101 63.3887 48.5487C63.5731 48.4967 63.7555 48.4483 63.9338 48.4036C62.4496 47.8501 61.2109 47.0427 60.6533 46.5987C60.4665 46.4499 60.4357 46.178 60.5844 45.9912Z" fill="#0E51A0"/>
<path d="M63.9532 43.7659C63.9842 43.7712 64.0186 43.7877 64.046 43.8136C64.4483 44.1635 64.9771 44.3013 65.5006 44.1886C65.616 44.1658 65.7259 44.2376 65.7496 44.3478C65.7724 44.4632 65.7007 44.5731 65.5904 44.5968C64.9403 44.7357 64.2792 44.5647 63.7747 44.1284C63.6872 44.0498 63.6773 43.9207 63.756 43.8332C63.7983 43.7714 63.8767 43.7476 63.9532 43.7659Z" fill="#032663"/>
<path fill-rule="evenodd" clip-rule="evenodd" d="M78.9073 45.9912C78.7585 45.8044 78.4866 45.7736 78.2998 45.9223C77.5935 46.4848 75.6501 47.7047 73.6197 48.0416C73.4092 48.0765 73.2557 48.2597 73.2582 48.4731C73.2606 48.6864 73.4183 48.866 73.6295 48.896C74.1288 48.967 74.9747 49.1287 75.8682 49.3808C76.7676 49.6345 77.6826 49.9709 78.3407 50.3804C78.5435 50.5065 78.81 50.4444 78.9362 50.2417C79.0623 50.039 79.0002 49.7724 78.7975 49.6463C78.0363 49.1727 77.0294 48.8101 76.103 48.5487C75.9186 48.4967 75.7362 48.4483 75.5579 48.4036C77.0421 47.8501 78.2808 47.0427 78.8384 46.5987C79.0252 46.4499 79.056 46.178 78.9073 45.9912Z" fill="#0E51A0"/>
<path d="M75.5385 43.7659C75.5075 43.7712 75.4731 43.7877 75.4457 43.8136C75.0434 44.1635 74.5146 44.3013 73.9911 44.1886C73.8757 44.1658 73.7658 44.2376 73.7421 44.3478C73.7193 44.4632 73.791 44.5731 73.9013 44.5968C74.5514 44.7357 75.2125 44.5647 75.717 44.1284C75.8045 44.0498 75.8144 43.9207 75.7357 43.8332C75.6934 43.7714 75.615 43.7476 75.5385 43.7659Z" fill="#032663"/>
<path d="M67.1501 55.8334C67.1061 55.8314 67.0621 55.8294 67.0164 55.8179C66.6924 55.7433 66.4862 55.4189 66.5561 55.0948C66.9099 53.4443 68.2404 52.3773 69.9451 52.3751C71.6058 52.3708 73.0753 53.5159 73.4431 55.0884C73.5191 55.4161 73.3181 55.7388 72.9925 55.8107C72.6669 55.8825 72.3424 55.6764 72.2664 55.3487C72.0624 54.4685 71.2033 53.5816 69.9583 53.5811C68.8153 53.5821 67.9599 54.2635 67.7252 55.362C67.667 55.6451 67.4262 55.8336 67.1501 55.8334Z" fill="#0E51A0"/>
<path d="M69.0897 58.9338C64.6471 58.9338 60.4909 58.2696 57.0356 57.002L57.0112 56.9959L56.9929 56.9776C56.091 56.0087 55.4085 54.7777 55.0123 53.4187C54.0678 50.1401 52.8368 45.015 52.3736 39.2195C52.1481 36.3979 53.7143 33.8567 56.024 33.3021C59.1258 32.5587 72.8985 30.377 83.618 33.3021C85.9154 33.9298 87.4816 36.4711 87.2622 39.2195C86.7991 45.015 85.5742 50.1401 84.6235 53.4187C84.2396 54.7533 83.5692 55.966 82.6978 56.9228L82.6795 56.9411L82.6551 56.9533C79.0474 58.3062 74.4707 59.0131 69.7661 58.9399C69.5406 58.9338 69.3152 58.9338 69.0897 58.9338ZM69.7722 58.7084C74.4403 58.7815 78.9743 58.0807 82.5576 56.7461C83.3986 55.8137 84.0446 54.6436 84.4163 53.3517C85.3609 50.0852 86.5858 44.9723 87.0428 39.1951C87.2561 36.5503 85.757 34.1065 83.557 33.5093C72.8802 30.5964 59.1624 32.7719 56.0727 33.5093C53.8727 34.0395 52.3736 36.4832 52.593 39.1951C53.0561 44.9723 54.275 50.0852 55.2195 53.3517C55.6035 54.6741 56.2616 55.8685 57.1331 56.807C60.6859 58.099 65.1712 58.7815 69.7722 58.7084Z" fill="#10319B"/>
<path d="M54.2932 55.5458C54.0921 54.9485 53.9031 54.3269 53.7203 53.7236C53.3608 52.5414 52.9829 51.3226 52.5381 50.2744C51.7702 48.4705 50.0456 47.3309 48.7354 46.6971L48.8329 46.5021C50.1736 47.1542 51.9408 48.3243 52.7392 50.1951C53.1901 51.2494 53.568 52.4804 53.9275 53.6627C54.1103 54.266 54.2992 54.8876 54.5004 55.4787L54.2932 55.5458Z" fill="#10319B"/>
<path d="M87.6279 46.5872L90.4495 44.9418C90.4495 44.9418 91.2539 36.8366 88.6335 33.1497L87.8778 35.4716C87.8778 35.4716 89.0905 37.2328 87.6279 46.5872Z" fill="#F4B821"/>
</g>
</svg>
