<svg width="100" height="100" viewBox="0 0 100 100" fill="none" xmlns="http://www.w3.org/2000/svg">
<mask id="mask0_15740_102805" style="mask-type:alpha" maskUnits="userSpaceOnUse" x="0" y="0" width="100" height="100">
<rect width="100" height="100" fill="#D9D9D9"/>
</mask>
<g mask="url(#mask0_15740_102805)">
<path d="M2.66297 45.8818C2.61885 45.8288 2.61885 45.7494 2.66297 45.7053C2.71592 45.6611 2.79534 45.6611 2.83946 45.7053C2.88358 45.7582 2.88358 45.8376 2.83946 45.8818C2.78651 45.9347 2.7071 45.9347 2.66297 45.8818Z" fill="white"/>
<path d="M11.8226 28.0738C11.7785 28.0208 11.7785 27.9414 11.8226 27.8973C11.8756 27.8532 11.955 27.8532 11.9991 27.8973C12.0433 27.9502 12.0433 28.0297 11.9991 28.0738C11.9462 28.1179 11.8668 28.1179 11.8226 28.0738Z" fill="white"/>
<path d="M43.1719 68.556C38.9485 60.5051 43.6118 50.9849 52.2874 50.0435L55.6397 49.6827C55.6661 49.6827 55.6837 49.6739 55.71 49.6739L64.0776 48.7677L72.4012 47.5886C72.4276 47.5886 72.4452 47.5886 72.4716 47.5798L75.8063 47.1047C84.429 45.8817 91.9871 53.8709 90.5353 62.6344C90.0602 65.494 89.4883 68.1688 88.846 70.6764C88.5116 72.137 88.0453 73.756 87.4998 75.4365C85.1505 82.977 82.3173 88.793 80.1881 93.5355C80.1089 93.7203 80.0209 93.8962 79.9241 94.0722C78.5075 97.1077 75.5775 98.8499 72.3924 99.2018C69.2249 99.6506 65.855 98.7003 63.5057 96.1311C63.3561 95.9815 63.2154 95.8407 63.0834 95.6824C59.5111 91.6614 54.9182 86.7693 50.2197 80.1087C49.155 78.6305 48.1783 77.1963 47.3865 75.8677C45.9611 73.6152 44.5533 71.1868 43.1719 68.556Z" fill="#F89E1C"/>
<path d="M70.8881 99.4303C68.0197 99.4303 65.2921 98.2777 63.4004 96.21C63.2596 96.0692 63.11 95.9196 62.9692 95.7612C62.4589 95.1805 61.9222 94.5822 61.3679 93.9663C58.1388 90.3676 54.1266 85.8803 50.1056 80.1787C48.9705 78.6038 48.0114 77.1784 47.2635 75.929C45.7678 73.5621 44.3424 71.0985 43.0402 68.6172C40.9549 64.649 40.9197 60.0033 42.9522 56.2023C44.8527 52.6388 48.249 50.3423 52.27 49.9024L64.0603 48.6178L75.789 46.9548C79.8628 46.3741 83.9102 47.7995 86.9017 50.8615C89.9637 53.9938 91.3714 58.4019 90.6763 62.6429C90.2276 65.3441 89.6557 68.0541 88.987 70.6937C88.6703 72.0751 88.2215 73.6765 87.632 75.4626C85.6171 81.9209 83.2151 87.2089 81.2793 91.4587C80.945 92.189 80.6283 92.8929 80.3203 93.5792C80.2411 93.7463 80.1619 93.9223 80.0563 94.1247C78.7101 97.0019 75.8505 98.9464 72.419 99.3247C71.8999 99.3951 71.3896 99.4303 70.8881 99.4303ZM43.2953 68.4941C44.5975 70.9665 46.0142 73.4213 47.5099 75.7882C48.2578 77.0288 49.2081 78.4542 50.3431 80.0204C54.3553 85.7131 58.3675 90.1917 61.5879 93.7815C62.1422 94.3974 62.6789 94.9957 63.1892 95.5765C63.33 95.726 63.4708 95.8756 63.6116 96.0252C65.776 98.3921 69.0491 99.5271 72.375 99.0608C75.7185 98.6912 78.4902 96.8083 79.8012 94.0103C79.9068 93.8079 79.9948 93.6408 80.0651 93.4736C80.3731 92.7873 80.6898 92.0834 81.0242 91.3531C82.9511 87.1121 85.3532 81.8329 87.3681 75.3922C87.9488 73.6149 88.3975 72.0135 88.7143 70.6409C89.3918 68.0013 89.9549 65.3001 90.4036 62.6077C91.0899 58.4547 89.7085 54.1346 86.7082 51.0638C83.7782 48.0635 79.8188 46.6733 75.833 47.2364L64.1043 48.8993L52.3052 50.184C48.381 50.6063 45.0639 52.85 43.2073 56.343C41.2188 60.0561 41.254 64.605 43.2953 68.4941Z" fill="#10319B"/>
<path d="M58.7021 85.5364C55.1122 80.2924 61.5001 76.9841 64.9316 79.0606C71.2138 82.8704 73.3607 78.8758 76.1939 71.2737C78.7543 64.4019 87.9666 64.965 89.216 68.4229C88.9168 69.8835 89.1544 69.382 88.8112 70.737C88.4769 72.1976 88.0105 73.8165 87.465 75.4971C85.1158 83.0376 82.2826 88.8535 80.1533 93.596C80.0741 93.7808 79.9862 93.9568 79.8894 94.1327C78.4728 97.1683 75.5428 98.9104 72.3577 99.2624C69.1901 99.7111 65.8202 98.7609 63.471 96.1916C63.3214 96.0421 63.1806 95.9013 63.0486 95.7429C61.8872 94.4319 60.6026 93.0241 59.2564 91.4931C61.6321 90.7804 61.6496 89.839 58.7021 85.5364Z" fill="#032663"/>
<path d="M45.1426 55.692C46.9727 53.5099 49.5243 52.0141 52.5951 51.6886L55.965 51.3278C55.9914 51.3278 56.009 51.319 56.0354 51.319L64.447 50.4215L72.8145 49.2249C72.8409 49.2249 72.8585 49.2249 72.8849 49.2161L76.2372 48.7322C80.8829 48.0635 83.9801 51.2046 86.8309 54.8737C87.4732 55.7008 87.174 56.915 86.2589 57.2229C78.5689 59.8362 60.7779 63.9012 45.1426 55.692Z" fill="#E26907"/>
<path d="M44.1313 61.1997C45.1959 62.2291 50.2728 64.2704 50.2728 64.2704C50.2728 64.2704 49.2961 66.2061 50.2288 69.5672C50.9327 72.0837 53.1852 73.9314 53.1852 73.9314C52.3669 76.4654 54.0122 80.1697 55.9215 82.8181C57.8309 85.4753 57.127 86.5487 57.127 86.5487C57.127 86.5487 46.8853 74.2921 44.1137 66.6813C42.9963 63.5929 44.1313 61.1997 44.1313 61.1997Z" fill="#F4B821"/>
<path d="M87.6323 68.4052C87.6323 68.4052 85.2127 68.2908 84.2272 70.0857C83.2417 71.8806 78.1473 87.3224 75.5165 92.9447C75.0414 93.9566 73.9503 97.3705 72.0498 96.957C72.0498 96.957 74.7862 98.1008 77.8393 93.8246C80.9013 89.5484 86.2333 73.2796 87.6323 68.4052Z" fill="#0E51A0"/>
<path d="M51.5132 75.4267C51.0029 75.4267 50.4926 75.3123 50.0086 75.0836C48.5657 74.3973 47.633 72.8487 47.5626 71.045L47.2282 61.516C47.1667 59.6594 48.0113 57.9789 49.4543 57.1254C50.6157 56.4391 51.9444 56.4391 53.097 57.1254L60.3647 61.4544C61.5525 62.1583 62.3356 63.5045 62.4588 65.053C62.5908 66.7072 61.9749 68.2822 60.8134 69.2588C60.7782 69.2852 60.7431 69.3204 60.6991 69.3468L60.6551 69.382L53.7305 74.6612C53.0442 75.1628 52.2787 75.4267 51.5132 75.4267ZM51.2757 57.2398C50.7653 57.2398 50.2462 57.3806 49.7711 57.6621C48.5304 58.3924 47.8002 59.8618 47.853 61.4808L48.1873 71.0098C48.2401 72.5847 49.0408 73.9221 50.2726 74.5029C51.2845 74.9868 52.4019 74.846 53.3345 74.1333L60.3031 68.8277C60.3383 68.8013 60.3647 68.7749 60.3999 68.7485C61.403 67.9038 61.9397 66.5312 61.8253 65.0794C61.7197 63.742 61.051 62.5806 60.0392 61.9735L52.7714 57.6445C52.2875 57.3806 51.786 57.2398 51.2757 57.2398Z" fill="#F89E1C"/>
<path d="M51.477 75.4896C50.9843 75.4896 50.4828 75.3752 50.0077 75.1464C48.5823 74.4689 47.6584 72.938 47.5969 71.1518L47.2537 61.3853C47.1921 59.5463 48.028 57.8834 49.4533 57.0387C50.5884 56.3612 51.8906 56.3612 53.0168 57.0387L60.4605 61.4733C61.6308 62.1684 62.405 63.497 62.5282 65.0279C62.6602 66.6733 62.0531 68.2307 60.9005 69.1897C60.8653 69.2161 60.8301 69.2513 60.7949 69.2777L60.7509 69.3129L53.6592 74.7153C52.9729 75.2344 52.2337 75.4896 51.477 75.4896ZM51.2395 56.8627C50.6852 56.8627 50.1309 57.0123 49.6117 57.3203C48.2919 58.1034 47.5088 59.6607 47.5704 61.3853L47.9136 71.1518C47.9752 72.8236 48.8287 74.249 50.1397 74.8737C51.2307 75.3928 52.4449 75.252 53.448 74.4777L60.5837 69.0401C60.6189 69.0137 60.6541 68.9874 60.6805 68.961C61.7539 68.0635 62.3171 66.6029 62.1939 65.0631C62.0795 63.6377 61.3668 62.3971 60.2846 61.7548L52.8408 57.3203C52.3393 57.0123 51.785 56.8627 51.2395 56.8627Z" fill="#10319B"/>
<path d="M51.6892 73.1226C51.2933 73.1226 50.9061 73.0346 50.5278 72.8586C49.4192 72.3307 48.6977 71.1517 48.6537 69.7615L48.3985 62.6258C48.3457 61.2092 48.9968 59.9245 50.1055 59.2734C51.0029 58.7455 52.0236 58.7455 52.9123 59.2734L58.3498 62.5114C59.2649 63.0569 59.8632 64.0863 59.96 65.2654C60.0656 66.5324 59.5905 67.729 58.7018 68.4769L58.6138 68.5473L58.4202 68.2921L58.5962 68.5561L53.3962 72.5155C52.8683 72.9202 52.2788 73.1226 51.6892 73.1226ZM51.5133 59.5022C51.1437 59.5022 50.7741 59.6078 50.4222 59.8102C49.5247 60.3469 48.988 61.4115 49.032 62.5994L49.2872 69.7351C49.3312 70.8789 49.9119 71.8556 50.8006 72.2779C51.5309 72.6211 52.3403 72.5243 53.009 72.014L58.1915 68.0633L58.4114 68.2921L58.2179 68.0457L58.2883 67.993C59.0186 67.3771 59.4057 66.374 59.3265 65.3182C59.2473 64.3415 58.7634 63.4968 58.0243 63.0569L52.5867 59.819C52.2435 59.6078 51.874 59.5022 51.5133 59.5022Z" fill="#F89E1C"/>
<path d="M58.3679 68.239C58.3943 68.2214 58.4207 68.195 58.4471 68.1774C60.0749 66.8136 59.9341 63.91 58.148 62.8454L52.8336 59.6778C50.9946 58.5868 48.8037 60.2497 48.8917 62.687L49.1381 69.6643C49.2261 72.0928 51.5226 73.4654 53.2735 72.128L58.3415 68.2653C58.3415 68.2478 58.3504 68.239 58.3679 68.239Z" fill="#032663"/>
<path d="M57.4523 67.095C57.4699 67.0862 57.4787 67.0686 57.4963 67.0598C58.4114 66.2943 58.3322 64.6577 57.3291 64.0506L54.3288 62.2645C53.2906 61.6486 52.0587 62.59 52.1027 63.9538L52.2435 67.8869C52.2963 69.2595 53.5897 70.0249 54.5752 69.2771L57.4347 67.1038C57.4347 67.1038 57.4435 67.1038 57.4523 67.095Z" fill="#33FCFE"/>
<path d="M87.2101 57.6193C90.0169 60.8044 96.0528 68.8113 98.2437 80.7511C98.4548 81.9125 97.179 82.7748 96.176 82.1501L95.3929 81.6574C87.4477 76.6861 83.4267 67.3067 85.3184 58.1296C85.5031 57.2498 86.6206 56.9506 87.2101 57.6193Z" fill="#F5851F"/>
<path d="M85.327 58.1293C85.5117 57.2495 86.6204 56.9503 87.2099 57.6278C89.6735 60.4258 94.6448 66.9632 97.2932 76.6154C93.8793 68.4326 87.3507 61.8776 85.0542 59.7395C85.1246 59.194 85.2126 58.6661 85.327 58.1293Z" fill="#F89E1C"/>
<path d="M94.6539 75.516C92.815 75.516 90.2193 74.7857 86.3303 70.6239L86.0928 69.6737C92.639 76.6686 96.5456 74.3986 96.5808 74.3722L96.9767 74.8649C96.8976 74.9177 96.1057 75.516 94.6539 75.516Z" fill="#F89E1C"/>
<path d="M97.6539 77.9273C97.6539 77.9273 94.8119 81.0508 89.9814 76.7219C89.9814 76.7219 94.8647 82.5466 97.4691 82.1419C97.4691 82.1419 99.1497 81.8779 97.6539 77.9273Z" fill="#032663"/>
<path d="M96.906 82.5188C96.6244 82.5188 96.3516 82.4396 96.0965 82.2812L95.3134 81.7885C87.3506 76.8084 83.2768 67.2882 85.1685 58.0936C85.2653 57.6273 85.6084 57.2577 86.0748 57.1345C86.5323 57.0113 87.0162 57.1609 87.333 57.5129C89.9198 60.4516 96.1757 68.5992 98.4106 80.7151C98.5161 81.3134 98.2786 81.8941 97.7682 82.2372C97.5043 82.422 97.2051 82.5188 96.906 82.5188ZM86.4003 57.4073C86.3211 57.4073 86.2331 57.4161 86.1539 57.4425C85.802 57.5393 85.5469 57.8032 85.4765 58.1552C83.6111 67.2178 87.6321 76.6149 95.4806 81.5157L96.2636 82.0085C96.6772 82.2636 97.1787 82.2548 97.5834 81.9821C97.9794 81.7093 98.173 81.2518 98.0938 80.7766C95.8765 68.7312 89.6646 60.6452 87.0954 57.724C86.9106 57.5217 86.6643 57.4073 86.4003 57.4073Z" fill="#10319B"/>
<path d="M94.733 79.1144C93.4219 79.1144 91.7414 78.6129 89.7969 76.9147L90.0081 76.6772C94.5482 80.6366 97.4254 77.9354 97.5485 77.821L97.7685 78.0498C97.7421 78.0586 96.6335 79.1144 94.733 79.1144Z" fill="#10319B"/>
<path d="M94.6799 75.7526C92.9202 75.7526 90.2982 74.9519 86.4531 71.0013L86.4884 70.6758C93.1842 77.5652 96.6597 74.9079 96.6948 74.8815L96.8972 75.1279C96.8268 75.1807 96.0877 75.7526 94.6799 75.7526Z" fill="#10319B"/>
<path d="M57.6373 64.2972L3.10596 24.2737V99.4302L53.7131 69.5764L57.6373 64.2972Z" fill="url(#paint0_radial_15740_102805)"/>
<path d="M13 59C13 57.3431 14.3431 56 16 56H25C26.6569 56 28 57.3431 28 59V71C28 72.6568 26.6569 74 25 74H16C14.3431 74 13 72.6568 13 71V59Z" fill="#0055B8"/>
<path d="M31.8292 60.6583C31.321 60.9124 31 61.4318 31 62V68C31 68.5681 31.321 69.0875 31.8292 69.3416L34.8292 70.8416C35.2942 71.0741 35.8464 71.0493 36.2886 70.776C36.7308 70.5027 37 70.0199 37 69.5V60.5C37 59.9801 36.7308 59.4973 36.2886 59.224C35.8464 58.9507 35.2942 58.9259 34.8292 59.1583L31.8292 60.6583Z" fill="#0055B8"/>
<path d="M31.4345 63.5935C31.3903 63.5405 31.3903 63.4611 31.4345 63.417C31.4874 63.3729 31.5668 63.3729 31.6109 63.417C31.6551 63.4699 31.6551 63.5494 31.6109 63.5935C31.5668 63.6376 31.4874 63.6376 31.4345 63.5935Z" fill="white"/>
<path d="M39.142 66.0658C39.0979 66.0129 39.0979 65.9334 39.142 65.8893C39.1949 65.8452 39.2743 65.8452 39.3185 65.8893C39.3626 65.9423 39.3626 66.0217 39.3185 66.0658C39.2655 66.1188 39.1949 66.1188 39.142 66.0658Z" fill="white"/>
<path d="M6.38465 56.3963C6.34053 56.3434 6.34053 56.2639 6.38465 56.2198C6.4376 56.1757 6.51702 56.1757 6.56114 56.2198C6.60526 56.2728 6.60526 56.3522 6.56114 56.3963C6.50819 56.4492 6.4376 56.4492 6.38465 56.3963Z" fill="white"/>
<path d="M91.9434 10.2479C90.1934 8.97441 88.1143 7.89152 85.7926 6.97323L85.9398 7.00788C85.9398 7.00788 78.5242 2.76295 67.3747 2.59835C56.2599 2.43375 48.6364 6.32349 48.5931 6.34948C46.1847 7.19847 44.0103 8.24671 42.191 9.4942C33.398 15.4891 34.7667 28.813 38.3966 41.2706C41.0388 50.3322 53.2625 54.4818 66.4045 54.4818C79.5378 54.8803 92.7404 50.9733 95.6512 41.9896C99.6449 29.662 100.555 16.5113 91.9434 10.2479Z" fill="#F89E1C"/>
<path d="M91.9435 10.2996C91.0252 9.6325 90.0203 9.01742 88.9287 8.44566C97.3579 14.7697 96.4396 27.8511 92.4632 40.1354C89.5524 49.1364 76.3498 53.0521 63.2165 52.6536C55.7489 52.6536 48.1253 50.7217 42.6069 47.8456C48.212 52.0558 57.3689 54.6288 66.3959 54.6288C79.5292 55.0273 92.7318 51.1116 95.6426 42.1106C99.645 29.7483 100.555 16.5717 91.9435 10.2996Z" fill="#F5851F"/>
<path d="M87.6117 21.8306L87.4385 20.9123C92.1945 20.0027 92.8356 11.5994 92.8443 11.5128L93.7799 11.5821C93.7539 11.9546 93.0695 20.7823 87.6117 21.8306Z" fill="#F89E1C"/>
<path d="M47.4845 20.6521C41.481 18.9975 41.2904 10.343 41.2817 9.97916L42.2173 9.96184C42.2173 10.0485 42.4079 18.2784 47.7358 19.7512L47.4845 20.6521Z" fill="#F4B821"/>
<path d="M67.0802 10.1436C66.7596 10.1436 66.4391 10.1349 66.1099 10.1089C62.9219 9.88368 60.1497 8.60154 58.6856 6.68698L56.6411 4.01008L57.3862 3.44698L59.4307 6.12388C60.7301 7.83052 63.2598 8.97405 66.1792 9.18197C69.1853 9.38988 72.0442 8.54956 73.6382 6.9642C73.6815 6.92089 73.7248 6.87757 73.7681 6.8256L76.7222 3.60291L77.4153 4.23532L74.4612 7.46667C74.4092 7.52731 74.3572 7.57929 74.2966 7.63127C72.6852 9.21662 69.9823 10.1436 67.0802 10.1436Z" fill="#F4B821"/>
<path d="M67.0978 13.5829C67.0111 13.5829 66.9245 13.5829 66.8292 13.5829C66.5087 13.5742 66.1795 13.5655 65.8676 13.5395C61.6486 13.245 58.0361 11.5037 55.9483 8.76615L53.0288 4.93705L53.7738 4.37395L56.6933 8.20305C58.6166 10.724 61.9865 12.3267 65.9369 12.6126C66.2401 12.6299 66.5433 12.6472 66.8552 12.6472C70.5717 12.6992 73.9243 11.521 76.0641 9.41589C76.1421 9.33792 76.2113 9.26861 76.2893 9.19065L76.3759 9.09535L80.4303 4.66849L81.1234 5.3009L76.9737 9.83172C76.8871 9.91835 76.8091 10.005 76.7225 10.0829C74.4441 12.318 70.9529 13.5829 67.0978 13.5829Z" fill="#F4B821"/>
<path d="M42.6585 11.8332C44.4864 10.5771 46.6522 9.52017 49.0692 8.66252C49.1212 8.63653 56.7794 4.13171 67.8855 4.29631C75.1885 4.40893 81.5733 5.72572 85.0992 6.61802C82.8728 5.52647 76.3321 2.74561 67.3744 2.607C56.2596 2.4424 48.6361 6.36679 48.5841 6.39278C46.1757 7.25043 44.0013 8.30733 42.1734 9.56349C34.3332 14.9606 34.7058 26.1447 37.27 37.3981C35.2775 26.9417 35.3468 16.8578 42.6585 11.8332Z" fill="#F4B821"/>
<path d="M46.6436 20.3584C41.4544 19.1975 41.0472 10.5864 41.0386 10.2139L41.3505 10.2052C41.3505 10.2918 41.7576 18.9463 46.7129 20.0552L46.6436 20.3584Z" fill="#10319B"/>
<path d="M56.3296 8.46377L53.4102 4.63467C54.4584 4.31413 55.6712 3.98493 57.0227 3.69905L59.0672 6.37596C60.4533 8.19522 63.1042 9.39939 66.1536 9.61597C69.2896 9.84121 72.2871 8.94024 73.9764 7.26826C74.0284 7.21628 74.0717 7.17297 74.1237 7.12099L77.0778 3.88964C78.4552 4.21884 79.6941 4.59135 80.777 4.9552L76.7226 9.38206L76.6273 9.47736C76.5494 9.55533 76.4714 9.64196 76.3934 9.71992C74.167 11.9204 70.6498 13.1505 66.8553 13.0899C66.5434 13.0812 66.2316 13.0726 65.9197 13.0466C61.8307 12.7607 58.3308 11.0887 56.3296 8.46377Z" fill="#032663"/>
<path d="M87.1959 21.1549L87.1353 20.8517C92.1252 19.8901 92.7836 11.253 92.7923 11.1663L93.1041 11.1923C93.0868 11.5562 92.4198 20.15 87.1959 21.1549Z" fill="#10319B"/>
<path d="M63.7884 53.0433C70.2771 53.2425 76.7918 52.4369 82.1976 50.5483C83.4711 49.2229 84.4847 47.5162 85.0997 45.515C86.6678 40.3865 88.4437 33.1961 89.2147 25.1047C89.5959 21.1283 87.4041 17.4725 84.1901 16.6581C79.8066 15.5406 73.0406 14.2151 64.9839 13.9639V13.9553C64.7587 13.9553 64.5335 13.9553 64.3082 13.9553C64.083 13.9466 63.8578 13.9466 63.6325 13.9379V13.9466C55.5758 13.9553 48.9312 14.8735 44.513 15.8611C41.273 16.5888 38.8127 20.366 39.0726 24.3597C39.601 32.4684 41.1604 39.7021 42.5724 44.8826C42.6851 45.2985 42.815 45.697 42.9623 46.0868C43.8633 48.4692 45.8904 50.2451 48.3334 50.9728C53.0462 52.3589 58.4086 53.0433 63.7884 53.0433Z" fill="#032663"/>
<path d="M42.6071 47.8541L43.5601 48.6685C43.4041 48.1314 43.1356 47.2131 42.9536 46.572C42.4772 44.8827 41.9401 42.9595 41.4376 41.66C40.6319 39.5635 38.9253 38.2987 37.2793 37.3978L37.4699 38.1774C38.9946 39.0178 39.9995 39.9967 40.7272 41.8853C41.221 43.1587 41.7495 45.056 42.2173 46.7279C42.3992 47.3777 42.4425 47.3084 42.6071 47.8541Z" fill="#F4B821"/>
<path d="M87.1441 50.8176C87.1268 50.8176 87.1094 50.8176 87.0921 50.8089C87.0141 50.7829 86.9708 50.6876 86.9968 50.6096C87.3607 49.5787 87.7158 48.4698 88.071 47.3956C88.8074 45.1432 89.5611 42.8128 90.4014 40.9156C91.9088 37.5196 95.0449 35.735 97.2713 34.6955C97.3493 34.6608 97.4445 34.6955 97.4792 34.7734C97.5138 34.8514 97.4792 34.9467 97.4012 34.9814C95.2181 36.0036 92.1514 37.7449 90.6873 41.0455C89.8557 42.9254 89.0933 45.2472 88.3656 47.4909C88.0191 48.5651 87.6552 49.6827 87.2914 50.7136C87.2654 50.7829 87.2047 50.8176 87.1441 50.8176Z" fill="#F89E1C"/>
<path d="M37.4692 38.1782C37.7031 39.4257 38.0583 40.5346 38.3875 41.7821C39.0719 44.3637 40.432 45.9144 42.6757 47.8809C42.0953 45.897 41.5755 44.0085 40.8998 42.2325C40.0941 40.1707 38.916 38.9752 37.4692 38.1782Z" fill="#032663"/>
<path d="M38.4917 41.8943C38.2491 41.1666 38.0845 40.4562 37.8853 39.7198C38.6476 40.2569 39.1414 41.0193 39.5832 42.0156C40.0597 43.0725 40.4236 44.6405 40.8394 45.8707C39.6266 44.8657 38.9681 43.3237 38.4917 41.8943Z" fill="#0E51A0"/>
<path d="M42.4162 47.6638C42.2949 47.2567 42.1823 46.8668 42.0697 46.477C41.6539 45.0216 41.2554 43.6441 40.7183 42.2407C39.9992 40.3868 38.977 39.174 37.3916 38.3076L37.5389 38.0304C39.1935 38.9401 40.2591 40.2049 41.0041 42.1281C41.5499 43.5402 41.9484 44.9263 42.3643 46.3903C42.4769 46.7715 42.5895 47.17 42.7021 47.5685L42.4162 47.6638Z" fill="#10319B"/>
<path d="M97.5572 35.3967C97.0634 37.4152 96.4917 39.2691 95.9286 41.2963C94.837 45.238 92.472 48.0275 87.1528 50.8084C88.2617 47.6463 89.3446 44.5796 90.5834 41.7727C92.0475 38.4894 95.2442 36.4796 97.5572 35.3967Z" fill="#032663"/>
<path d="M63.7362 51.6582C69.298 51.8228 74.877 51.2077 79.6417 49.761C80.3781 49.5357 81.0452 49.1026 81.513 48.4961C82.31 47.4652 82.9511 46.2524 83.3756 44.8923C84.8223 40.2748 86.4596 33.8035 87.1613 26.5178C87.5078 22.9313 85.4894 19.6479 82.5179 18.9116C78.4722 17.898 72.2348 16.7025 64.8105 16.4772V16.4686C64.6025 16.4686 64.3946 16.4686 64.1867 16.4686C63.9788 16.4599 63.7709 16.4599 63.563 16.4512V16.4599C56.13 16.4599 49.8579 17.4735 45.7863 18.3571C42.7975 19.0069 40.6837 22.2295 40.9176 25.8247C41.4027 33.1278 42.8408 39.6424 44.1489 44.3032C44.5301 45.6633 45.1278 46.8848 45.8815 47.933C46.3147 48.5308 46.9298 48.964 47.6228 49.2065C52.4135 50.8438 58.0705 51.6582 63.7362 51.6582Z" fill="#FCE8CA"/>
<path d="M65.7287 53.1306C65.0876 53.1306 64.4379 53.122 63.7795 53.1046H63.7708C58.2437 53.1046 52.8899 52.3769 48.2725 51.0082C45.7515 50.2545 43.707 48.4006 42.8234 46.0355C42.6761 45.637 42.5375 45.2212 42.4249 44.7967C41.1254 40.032 39.4621 32.599 38.9163 24.2044C38.6564 20.2281 40.9782 16.5895 44.3135 15.7319C59.8811 11.7382 79.7543 15.1861 84.2245 16.3296C87.5424 17.1786 89.7515 20.8865 89.3704 24.9668C88.5734 33.344 86.6935 40.725 85.2467 45.4464C84.649 47.413 83.6267 49.1716 82.3099 50.5577L82.2839 50.5837L82.2493 50.5923C77.4672 52.2643 71.7929 53.1306 65.7287 53.1306ZM63.7882 52.7928C70.4414 53.0007 76.9388 52.1084 82.1107 50.3064C83.3842 48.9637 84.3717 47.257 84.9522 45.3511C86.3902 40.6471 88.2702 33.2834 89.0585 24.9321C89.431 21.0077 87.3172 17.4385 84.1465 16.6329C79.6937 15.498 59.8984 12.0501 44.3914 16.0351C41.2034 16.8581 38.977 20.358 39.2282 24.1871C39.7653 32.5557 41.4286 39.9713 42.7194 44.7187C42.832 45.1346 42.962 45.5331 43.1093 45.9316C43.9669 48.2013 45.9248 49.9859 48.3591 50.7136C52.9506 52.0737 58.2784 52.8014 63.7708 52.8014C63.7795 52.7928 63.7795 52.7928 63.7882 52.7928Z" fill="#10319B"/>
<path d="M87.6207 50.635L87.3262 50.5311C87.7247 49.4049 88.0712 48.3047 88.4004 47.2391C89.0155 45.2899 89.5959 43.4533 90.4016 41.6427C91.8657 38.3507 95.045 36.3149 97.4447 35.1887L97.5746 35.4746C95.2183 36.5834 92.1082 38.5673 90.6788 41.7727C89.8818 43.5659 89.3013 45.3938 88.6949 47.3344C88.3657 48.3999 88.0192 49.5002 87.6207 50.635Z" fill="#10319B"/>
<path d="M38.163 35.3363L36.7509 34.1234C36.7509 34.1234 35.8239 24.1868 37.9897 18.3046L38.3796 21.6745C38.3882 21.6832 37.5133 21.7958 38.163 35.3363Z" fill="#F4B821"/>
<path d="M68.1283 54.6721C67.5392 54.6721 66.9588 54.6635 66.387 54.6461C66.387 54.6461 66.387 54.6461 66.3784 54.6461C54.6485 54.6461 41.0907 51.1462 38.2319 41.3223C33.5018 25.0962 34.8013 14.3453 42.0956 9.3813C43.8802 8.1598 46.046 7.1029 48.541 6.21926C48.8355 6.06332 56.3378 2.29486 67.3833 2.45946C78.4461 2.62406 85.9484 6.85167 86.0177 6.89498L86.1216 6.95562C88.4 7.87392 90.3926 8.93948 92.0299 10.135C101.958 17.3514 98.6398 33.2309 95.781 42.0586C92.7489 51.4148 79.3731 54.6721 68.1283 54.6721ZM66.3957 54.3343C77.857 54.6808 92.3504 51.6487 95.4951 41.9547C98.328 33.2136 101.629 17.4813 91.8566 10.3776C90.1673 9.1474 88.1141 8.05584 85.7404 7.12889L85.7491 7.09423C84.7615 6.56578 77.6058 2.91861 67.3746 2.76267C56.4158 2.58941 48.7402 6.46183 48.6623 6.49648C46.1846 7.37145 44.0362 8.42836 42.2689 9.63253C35.1045 14.5185 33.8483 25.1482 38.5351 41.2356C41.3506 50.895 54.7698 54.3343 66.3957 54.3343Z" fill="#10319B"/>
<path d="M74.2792 27.2537C74.2272 27.245 74.1752 27.2191 74.1232 27.1757C73.4388 26.5953 72.5465 26.3701 71.6715 26.5693C71.481 26.6126 71.2904 26.4913 71.2471 26.3008C71.2037 26.1102 71.325 25.9196 71.5156 25.8763C72.6072 25.6337 73.7247 25.9109 74.5824 26.6386C74.7296 26.7686 74.747 26.9851 74.6257 27.1324C74.5391 27.245 74.4091 27.2797 74.2792 27.2537Z" fill="#032663"/>
<path d="M46.4968 27.6783C46.5488 27.6696 46.6008 27.6436 46.6528 27.6003C47.3371 27.0199 48.2294 26.8033 49.1131 26.9939C49.3037 27.0372 49.4943 26.9159 49.5376 26.7253C49.5809 26.5347 49.4596 26.3441 49.269 26.3008C48.1774 26.0496 47.0599 26.3268 46.2023 27.0545C46.055 27.1845 46.0377 27.401 46.1589 27.5483C46.2456 27.6609 46.3755 27.7043 46.4968 27.6783Z" fill="#032663"/>
<path d="M53.7481 40.8027C53.6615 40.9846 53.5575 41.1579 53.4449 41.3138L47.3547 41.2098C47.2421 41.0452 47.1468 40.872 47.0688 40.6814L53.7481 40.8027Z" fill="#0052A3"/>
<path d="M54.0164 40.0918C53.9731 40.2651 53.9125 40.4383 53.8432 40.6116L46.9733 40.499C46.904 40.3344 46.8607 40.1524 46.8174 39.9792L54.0164 40.0918Z" fill="#0052A3"/>
<path d="M46.7358 38.5141L46.7271 39.0339L54.1333 39.1583L54.142 38.6386L46.7358 38.5141Z" fill="#0052A3"/>
<path d="M54.1293 39.3728C54.1206 39.5461 54.0946 39.7193 54.06 39.8926L46.7743 39.7713C46.7483 39.598 46.731 39.4248 46.731 39.2515L54.1293 39.3728Z" fill="#0052A3"/>
<path d="M52.518 42.2234C52.1974 42.44 51.8336 42.6133 51.4524 42.7259L49.2953 42.6912C48.9141 42.5699 48.5589 42.388 48.2471 42.1541L52.518 42.2234Z" fill="#0052A3"/>
<path d="M53.436 34.1316L47.5884 34.0363C47.7357 33.8544 47.9089 33.6811 48.0908 33.5252L52.9508 33.6031C53.1328 33.7677 53.2974 33.941 53.436 34.1316Z" fill="#0052A3"/>
<path d="M53.2889 41.5124C53.133 41.703 52.9597 41.8676 52.7778 42.0235L47.9958 41.9456C47.8138 41.7896 47.6492 41.6077 47.502 41.4171L53.2889 41.5124Z" fill="#0052A3"/>
<path d="M51.7204 32.8675C52.0843 32.9975 52.4135 33.1794 52.708 33.4047L48.3418 33.3353C48.645 33.1188 48.9828 32.9455 49.3467 32.8329L51.7204 32.8675Z" fill="#0052A3"/>
<path d="M53.9472 35.0589C54.0078 35.2235 54.0598 35.4055 54.1031 35.5787L46.8867 35.4574C46.93 35.2755 46.9907 35.1109 47.06 34.9377L53.9472 35.0589Z" fill="#0052A3"/>
<path d="M54.1377 35.7866C54.1637 35.9599 54.181 36.1331 54.181 36.3064L46.7827 36.1851C46.7914 36.0119 46.8087 35.8386 46.8433 35.6653L54.1377 35.7866Z" fill="#0052A3"/>
<path d="M53.5836 34.3394C53.6875 34.504 53.7828 34.6773 53.8608 34.8679L47.1382 34.7553C47.2248 34.5733 47.3201 34.4001 47.4328 34.2441L53.5836 34.3394Z" fill="#0052A3"/>
<path d="M46.7665 37.0756L46.7578 37.5954L54.164 37.7198L54.1728 37.2001L46.7665 37.0756Z" fill="#0052A3"/>
<path d="M46.7773 36.3611L46.7686 36.8808L54.1748 37.0053L54.1835 36.4855L46.7773 36.3611Z" fill="#0052A3"/>
<path d="M46.7465 37.799L46.7378 38.3187L54.144 38.4432L54.1528 37.9234L46.7465 37.799Z" fill="#0052A3"/>
<path d="M73.3355 40.8374C73.2489 41.0193 73.1449 41.1926 73.0323 41.3485L66.9421 41.2446C66.8295 41.08 66.7342 40.9067 66.6562 40.7161L73.3355 40.8374Z" fill="#0052A3"/>
<path d="M73.6038 40.1185C73.5605 40.2917 73.4999 40.465 73.4306 40.6383L66.5607 40.5256C66.4914 40.361 66.4481 40.1791 66.4048 40.0058L73.6038 40.1185Z" fill="#0052A3"/>
<path d="M66.33 38.5438L66.3213 39.0635L73.7275 39.188L73.7363 38.6683L66.33 38.5438Z" fill="#0052A3"/>
<path d="M73.7162 39.3988C73.7075 39.5721 73.6815 39.7454 73.6468 39.9186L66.3612 39.7973C66.3352 39.6241 66.3179 39.4508 66.3179 39.2776L73.7162 39.3988Z" fill="#0052A3"/>
<path d="M72.1049 42.2488C71.7844 42.4654 71.4205 42.6387 71.0393 42.7513L68.8822 42.7166C68.501 42.5954 68.1459 42.4134 67.834 42.1795L72.1049 42.2488Z" fill="#0052A3"/>
<path d="M73.0317 34.1669L67.1841 34.0716C67.3314 33.8897 67.5046 33.7165 67.6865 33.5605L72.5465 33.6385C72.7198 33.7944 72.8844 33.9763 73.0317 34.1669Z" fill="#0052A3"/>
<path d="M72.8758 41.5478C72.7199 41.7384 72.5466 41.903 72.3647 42.0589L67.5826 41.9809C67.4007 41.825 67.2361 41.6431 67.0889 41.4525L72.8758 41.5478Z" fill="#0052A3"/>
<path d="M71.3078 32.9017C71.6717 33.0316 72.0009 33.2135 72.2954 33.4388L67.9292 33.3695C68.2324 33.1529 68.5703 32.9796 68.9341 32.867L71.3078 32.9017Z" fill="#0052A3"/>
<path d="M73.5346 35.0931C73.5952 35.2577 73.6472 35.4396 73.6905 35.6128L66.4741 35.4916C66.5174 35.3096 66.5781 35.145 66.6474 34.9718L73.5346 35.0931Z" fill="#0052A3"/>
<path d="M73.7247 35.812C73.7506 35.9853 73.768 36.1586 73.768 36.3318L66.3696 36.2105C66.3783 36.0373 66.3956 35.864 66.4303 35.6908L73.7247 35.812Z" fill="#0052A3"/>
<path d="M73.1705 34.3655C73.2744 34.5301 73.3697 34.7033 73.4477 34.8939L66.7251 34.7813C66.8117 34.5994 66.907 34.4261 67.0196 34.2702L73.1705 34.3655Z" fill="#0052A3"/>
<path d="M66.3525 37.1072L66.3438 37.6269L73.75 37.7513L73.7587 37.2316L66.3525 37.1072Z" fill="#0052A3"/>
<path d="M66.3637 36.3901L66.355 36.9098L73.7612 37.0343L73.77 36.5146L66.3637 36.3901Z" fill="#0052A3"/>
<path d="M66.3413 37.8299L66.3325 38.3496L73.7387 38.4741L73.7475 37.9543L66.3413 37.8299Z" fill="#0052A3"/>
<path d="M58.787 42.9858C58.4874 43.0116 58.2696 43.5531 58.3513 44.1204C58.6373 45.9255 59.536 47.189 60.5709 47.1375C61.6058 47.0859 62.4636 45.6934 62.6815 43.8626C62.7496 43.2952 62.5181 42.7795 62.2049 42.7795L58.787 42.9858Z" fill="#032663"/>
</g>
<defs>
<radialGradient id="paint0_radial_15740_102805" cx="0" cy="0" r="1" gradientUnits="userSpaceOnUse" gradientTransform="translate(60.9368 66.8048) scale(56.3066 56.3067)">
<stop offset="0.0783725" stop-color="#33FCFE"/>
<stop offset="1" stop-color="#33FCFE" stop-opacity="0"/>
</radialGradient>
</defs>
</svg>
