<svg width="100" height="100" viewBox="0 0 100 100" fill="none" xmlns="http://www.w3.org/2000/svg">
<mask id="mask0_14392_25118" style="mask-type:alpha" maskUnits="userSpaceOnUse" x="0" y="0" width="100" height="100">
<rect width="100" height="100" fill="#D9D9D9"/>
</mask>
<g mask="url(#mask0_14392_25118)">
<path d="M2.66297 45.8818C2.61885 45.8288 2.61885 45.7494 2.66297 45.7053C2.71592 45.6612 2.79534 45.6612 2.83946 45.7053C2.88358 45.7582 2.88358 45.8377 2.83946 45.8818C2.78651 45.9347 2.7071 45.9347 2.66297 45.8818Z" fill="white"/>
<path d="M11.8222 28.0738C11.778 28.0208 11.778 27.9414 11.8222 27.8973C11.8751 27.8532 11.9545 27.8532 11.9986 27.8973C12.0428 27.9502 12.0428 28.0297 11.9986 28.0738C11.9457 28.1179 11.8663 28.1179 11.8222 28.0738Z" fill="white"/>
<path d="M43.1719 68.556C38.9485 60.5052 43.6118 50.985 52.2874 50.0435L55.6397 49.6827C55.6661 49.6827 55.6837 49.6739 55.71 49.6739L64.0776 48.7677L72.4012 47.5887C72.4276 47.5887 72.4452 47.5887 72.4716 47.5799L75.8063 47.1047C84.429 45.8817 91.9871 53.8709 90.5353 62.6344C90.0602 65.494 89.4883 68.1688 88.846 70.6765C88.5116 72.137 88.0453 73.756 87.4998 75.4366C85.1505 82.977 82.3173 88.793 80.1881 93.5355C80.1089 93.7203 80.0209 93.8962 79.9241 94.0722C78.5075 97.1078 75.5775 98.8499 72.3924 99.2019C69.2249 99.6506 65.855 98.7003 63.5057 96.1311C63.3561 95.9815 63.2154 95.8408 63.0834 95.6824C59.5111 91.6614 54.9182 86.7693 50.2197 80.1087C49.155 78.6305 48.1783 77.1963 47.3865 75.8677C45.9611 73.6152 44.5533 71.1868 43.1719 68.556Z" fill="#F89E1C"/>
<path d="M70.8876 99.4303C68.0192 99.4303 65.2916 98.2777 63.3999 96.21C63.2591 96.0692 63.1095 95.9196 62.9687 95.7613C62.4584 95.1805 61.9217 94.5822 61.3674 93.9663C58.1383 90.3676 54.1261 85.8803 50.1051 80.1788C48.97 78.6038 48.011 77.1784 47.2631 75.929C45.7673 73.5621 44.3419 71.0985 43.0397 68.6173C40.9544 64.649 40.9192 60.0033 42.9517 56.2023C44.8522 52.6388 48.2485 50.3423 52.2695 49.9024L64.0598 48.6178L75.7885 46.9548C79.8623 46.3741 83.9097 47.7995 86.9012 50.8615C89.9632 53.9938 91.371 58.402 90.6759 62.6429C90.2271 65.3441 89.6552 68.0541 88.9865 70.6938C88.6698 72.0751 88.2211 73.6765 87.6315 75.4626C85.6166 81.9209 83.2146 87.2089 81.2789 91.4587C80.9445 92.189 80.6278 92.8929 80.3198 93.5792C80.2406 93.7463 80.1614 93.9223 80.0558 94.1247C78.7096 97.0019 75.85 98.9464 72.4185 99.3247C71.8994 99.3951 71.3891 99.4303 70.8876 99.4303ZM43.2948 68.4941C44.597 70.9665 46.0137 73.4213 47.5095 75.7882C48.2573 77.0288 49.2076 78.4542 50.3426 80.0204C54.3548 85.7131 58.3671 90.1917 61.5874 93.7815C62.1417 94.3975 62.6784 94.9958 63.1887 95.5765C63.3295 95.7261 63.4703 95.8756 63.6111 96.0252C65.7756 98.3921 69.0486 99.5271 72.3746 99.0608C75.7181 98.6912 78.4897 96.8083 79.8007 94.0103C79.9063 93.8079 79.9943 93.6408 80.0647 93.4736C80.3726 92.7873 80.6894 92.0834 81.0237 91.3531C82.9506 87.1121 85.3527 81.8329 87.3676 75.3923C87.9483 73.6149 88.397 72.0136 88.7138 70.641C89.3913 68.0013 89.9544 65.3001 90.4031 62.6077C91.0894 58.4548 89.708 54.1346 86.7077 51.0638C83.7777 48.0635 79.8183 46.6733 75.8325 47.2364L64.1038 48.8994L52.3047 50.184C48.3805 50.6063 45.0634 52.85 43.2069 56.3431C41.2183 60.0561 41.2535 64.605 43.2948 68.4941Z" fill="#10319B"/>
<path d="M58.7011 85.5364C55.1112 80.2924 61.4991 76.9841 64.9306 79.0606C71.2129 82.8704 73.3598 78.8758 76.1929 71.2737C78.7534 64.4019 87.9656 64.9651 89.215 68.4229C88.9159 69.8835 89.1534 69.382 88.8103 70.737C88.4759 72.1976 88.0096 73.8166 87.464 75.4971C85.1148 83.0376 82.2816 88.8535 80.1524 93.596C80.0732 93.7808 79.9852 93.9568 79.8884 94.1328C78.4718 97.1683 75.5418 98.9105 72.3567 99.2624C69.1892 99.7111 65.8193 98.7609 63.47 96.1917C63.3204 96.0421 63.1796 95.9013 63.0476 95.7429C61.8862 94.4319 60.6016 93.0241 59.2554 91.4932C61.6311 90.7805 61.6487 89.839 58.7011 85.5364Z" fill="#032663"/>
<path d="M45.1426 55.692C46.9727 53.5099 49.5243 52.0141 52.5951 51.6886L55.965 51.3278C55.9914 51.3278 56.009 51.319 56.0354 51.319L64.447 50.4216L72.8145 49.2249C72.8409 49.2249 72.8585 49.2249 72.8849 49.2161L76.2372 48.7322C80.8829 48.0635 83.9801 51.2046 86.8309 54.8737C87.4732 55.7008 87.174 56.915 86.2589 57.223C78.5689 59.8362 60.7779 63.9012 45.1426 55.692Z" fill="#E26907"/>
<path d="M44.1308 61.1997C45.1954 62.2291 50.2723 64.2704 50.2723 64.2704C50.2723 64.2704 49.2957 66.2061 50.2283 69.5672C50.9322 72.0837 53.1847 73.9314 53.1847 73.9314C52.3664 76.4654 54.0117 80.1697 55.9211 82.8181C57.8304 85.4753 57.1265 86.5487 57.1265 86.5487C57.1265 86.5487 46.8848 74.2921 44.1132 66.6813C42.9958 63.5929 44.1308 61.1997 44.1308 61.1997Z" fill="#F4B821"/>
<path d="M87.6313 68.4052C87.6313 68.4052 85.2117 68.2908 84.2262 70.0857C83.2408 71.8807 78.1463 87.3224 75.5155 92.9448C75.0404 93.9566 73.9493 97.3705 72.0488 96.957C72.0488 96.957 74.7852 98.1008 77.8384 93.8246C80.9003 89.5485 86.2323 73.2797 87.6313 68.4052Z" fill="#0E51A0"/>
<path d="M51.5127 75.4267C51.0024 75.4267 50.4921 75.3123 50.0082 75.0836C48.5652 74.3973 47.6325 72.8487 47.5621 71.045L47.2278 61.516C47.1662 59.6594 48.0108 57.9789 49.4538 57.1254C50.6152 56.4391 51.9439 56.4391 53.0965 57.1254L60.3642 61.4544C61.552 62.1583 62.3351 63.5045 62.4583 65.0531C62.5903 66.7072 61.9744 68.2822 60.8129 69.2588C60.7778 69.2852 60.7426 69.3204 60.6986 69.3468L60.6546 69.382L53.73 74.6612C53.0437 75.1628 52.2782 75.4267 51.5127 75.4267ZM51.2752 57.2398C50.7648 57.2398 50.2457 57.3806 49.7706 57.6621C48.53 58.3924 47.7997 59.8618 47.8525 61.4808L48.1868 71.0098C48.2396 72.5847 49.0403 73.9222 50.2721 74.5029C51.284 74.9868 52.4014 74.846 53.3341 74.1333L60.3026 68.8277C60.3378 68.8013 60.3642 68.7749 60.3994 68.7485C61.4025 67.9038 61.9392 66.5312 61.8248 65.0795C61.7192 63.742 61.0505 62.5806 60.0387 61.9735L52.7709 57.6445C52.287 57.3806 51.7855 57.2398 51.2752 57.2398Z" fill="#F89E1C"/>
<path d="M51.4766 75.4896C50.9838 75.4896 50.4823 75.3752 50.0072 75.1465C48.5818 74.469 47.658 72.938 47.5964 71.1518L47.2532 61.3853C47.1916 59.5464 48.0275 57.8834 49.4529 57.0387C50.5879 56.3612 51.8901 56.3612 53.0163 57.0387L60.46 61.4733C61.6303 62.1684 62.4046 63.497 62.5277 65.028C62.6597 66.6733 62.0526 68.2307 60.9 69.1897C60.8648 69.2161 60.8296 69.2513 60.7944 69.2777L60.7504 69.3129L53.6587 74.7153C52.9724 75.2344 52.2332 75.4896 51.4766 75.4896ZM51.239 56.8628C50.6847 56.8628 50.1304 57.0123 49.6113 57.3203C48.2915 58.1034 47.5084 59.6607 47.5699 61.3853L47.9131 71.1518C47.9747 72.8236 48.8282 74.249 50.1392 74.8737C51.2302 75.3928 52.4445 75.252 53.4475 74.4778L60.5832 69.0402C60.6184 69.0138 60.6536 68.9874 60.68 68.961C61.7535 68.0635 62.3166 66.6029 62.1934 65.0632C62.079 63.6378 61.3663 62.3971 60.2841 61.7548L52.8404 57.3203C52.3388 57.0123 51.7845 56.8628 51.239 56.8628Z" fill="#10319B"/>
<path d="M51.6883 73.1226C51.2923 73.1226 50.9052 73.0346 50.5268 72.8587C49.4182 72.3307 48.6967 71.1517 48.6527 69.7615L48.3975 62.6258C48.3447 61.2092 48.9959 59.9246 50.1045 59.2735C51.002 58.7456 52.0226 58.7456 52.9113 59.2735L58.3489 62.5114C59.2639 63.0569 59.8623 64.0864 59.959 65.2654C60.0646 66.5324 59.5895 67.729 58.7008 68.4769L58.6128 68.5473L58.4193 68.2921L58.5952 68.5561L53.3952 72.5155C52.8673 72.9203 52.2778 73.1226 51.6883 73.1226ZM51.5123 59.5022C51.1427 59.5022 50.7732 59.6078 50.4212 59.8102C49.5237 60.3469 48.987 61.4116 49.031 62.5994L49.2862 69.7351C49.3302 70.879 49.9109 71.8556 50.7996 72.278C51.5299 72.6211 52.3394 72.5243 53.0081 72.014L58.1905 68.0634L58.4105 68.2921L58.2169 68.0458L58.2873 67.993C59.0176 67.3771 59.4047 66.374 59.3255 65.3182C59.2463 64.3415 58.7624 63.4969 58.0233 63.0569L52.5857 59.819C52.2426 59.6078 51.873 59.5022 51.5123 59.5022Z" fill="#F89E1C"/>
<path d="M58.3675 68.239C58.3939 68.2214 58.4202 68.195 58.4466 68.1774C60.0744 66.8136 59.9336 63.91 58.1475 62.8454L52.8331 59.6778C50.9942 58.5868 48.8033 60.2498 48.8912 62.687L49.1376 69.6644C49.2256 72.0928 51.5221 73.4654 53.273 72.128L58.341 68.2654C58.341 68.2478 58.3499 68.239 58.3675 68.239Z" fill="#032663"/>
<path d="M57.4523 67.095C57.4699 67.0862 57.4787 67.0686 57.4963 67.0598C58.4114 66.2943 58.3322 64.6578 57.3291 64.0506L54.3288 62.2645C53.2906 61.6486 52.0587 62.5901 52.1027 63.9539L52.2435 67.8869C52.2963 69.2595 53.5897 70.025 54.5752 69.2771L57.4347 67.1038C57.4347 67.1038 57.4435 67.1038 57.4523 67.095Z" fill="#33FCFE"/>
<path d="M87.2086 57.6193C90.0154 60.8044 96.0513 68.8113 98.2422 80.7511C98.4534 81.9125 97.1776 82.7748 96.1745 82.1501L95.3914 81.6574C87.4462 76.6861 83.4252 67.3067 85.3169 58.1296C85.5017 57.2498 86.6191 56.9506 87.2086 57.6193Z" fill="#F5851F"/>
<path d="M85.3255 58.1293C85.5103 57.2495 86.6189 56.9503 87.2084 57.6278C89.6721 60.4258 94.6433 66.9632 97.2917 76.6154C93.8778 68.4326 87.3492 61.8776 85.0527 59.7395C85.1231 59.194 85.2111 58.6661 85.3255 58.1293Z" fill="#F89E1C"/>
<path d="M94.6529 75.516C92.814 75.516 90.2184 74.7857 86.3293 70.6239L86.0918 69.6737C92.638 76.6686 96.5446 74.3986 96.5798 74.3722L96.9758 74.8649C96.8966 74.9177 96.1047 75.516 94.6529 75.516Z" fill="#F89E1C"/>
<path d="M97.653 77.9273C97.653 77.9273 94.811 81.0508 89.9805 76.7219C89.9805 76.7219 94.8638 82.5466 97.4682 82.1419C97.4682 82.1419 99.1487 81.8779 97.653 77.9273Z" fill="#032663"/>
<path d="M96.905 82.5188C96.6234 82.5188 96.3507 82.4396 96.0955 82.2812L95.3124 81.7885C87.3496 76.8084 83.2758 67.2882 85.1675 58.0936C85.2643 57.6273 85.6075 57.2577 86.0738 57.1345C86.5313 57.0113 87.0152 57.1609 87.332 57.5129C89.9188 60.4516 96.1747 68.5992 98.4096 80.7151C98.5152 81.3134 98.2776 81.8941 97.7673 82.2372C97.5033 82.422 97.2042 82.5188 96.905 82.5188ZM86.3994 57.4073C86.3202 57.4073 86.2322 57.4161 86.153 57.4425C85.801 57.5393 85.5459 57.8032 85.4755 58.1552C83.6102 67.2178 87.6311 76.6149 95.4796 81.5157L96.2627 82.0085C96.6762 82.2636 97.1777 82.2548 97.5825 81.9821C97.9784 81.7093 98.172 81.2518 98.0928 80.7766C95.8755 68.7312 89.6637 60.6452 87.0944 57.724C86.9097 57.5217 86.6633 57.4073 86.3994 57.4073Z" fill="#10319B"/>
<path d="M94.732 79.1144C93.421 79.1144 91.7404 78.6129 89.7959 76.9147L90.0071 76.6772C94.5472 80.6366 97.4244 77.9354 97.5476 77.821L97.7675 78.0498C97.7411 78.0586 96.6325 79.1144 94.732 79.1144Z" fill="#10319B"/>
<path d="M94.6789 75.7526C92.9192 75.7526 90.2972 74.9519 86.4521 71.0013L86.4874 70.6758C93.1832 77.5652 96.6587 74.9079 96.6939 74.8815L96.8962 75.1279C96.8258 75.1807 96.0867 75.7526 94.6789 75.7526Z" fill="#10319B"/>
<path d="M57.6368 64.2972L3.10547 24.2737V99.4302L53.7127 69.5764L57.6368 64.2972Z" fill="url(#paint0_radial_14392_25118)"/>
<path d="M26.0935 66.3892L25.4639 66.7966C24.612 67.3522 23.575 67.2411 23.0935 66.4633C22.575 65.6855 22.9453 64.7225 23.7972 64.1299L24.575 63.6114C25.3157 63.0929 25.6861 62.6484 25.6861 62.0188C25.6861 61.3521 25.1676 60.8336 24.4639 60.8336C23.0935 60.8336 22.7972 62.1669 21.5009 62.1669C20.4638 62.1669 19.9453 61.4632 19.9453 60.6484C19.9453 59.0558 22.0935 57.3521 24.612 57.3521C27.7232 57.3521 29.3528 59.5002 29.3528 61.7595C29.3528 63.5373 28.575 64.7966 26.0935 66.3892ZM26.9824 70.4633C26.9824 71.7226 25.9454 72.7226 24.6861 72.7226C23.4268 72.7226 22.4268 71.7226 22.4268 70.4633C22.4268 69.204 23.4268 68.167 24.6861 68.167C25.9454 68.167 26.9824 69.204 26.9824 70.4633Z" fill="#0055B8"/>
<path d="M33.9075 60.1668C33.3149 60.1668 32.7223 60.0186 32.2409 59.7594L31.5372 59.8705L30.0557 60.0927L30.8334 58.2408C30.5742 57.7223 30.4631 57.1668 30.4631 56.5742C30.4631 54.5001 31.9816 52.9075 33.9816 52.9075C35.9816 52.9075 37.5002 54.463 37.5002 56.5742C37.4261 58.6112 35.9076 60.1668 33.9075 60.1668Z" fill="#0055B8"/>
<path d="M36.5743 73.9446L35.315 70.9076C36.2039 69.1298 36.6484 67.1298 36.6484 65.0927C36.6484 63.6853 36.4632 62.3519 36.0557 61.0927C35.4631 61.3519 34.7965 61.5001 34.1298 61.5001C34.0928 61.5001 34.0928 61.5001 34.0557 61.5001C34.4261 62.6112 34.6113 63.8334 34.6113 65.1297C34.6113 67.0186 34.1668 68.8335 33.2779 70.4261C33.1298 70.7224 33.1298 71.0557 33.2409 71.315C33.278 71.352 33.2779 71.3891 33.2779 71.3891L34.6113 74.5743L33.2039 74.3891C33.1668 74.3891 33.1298 74.3891 33.0928 74.3891L30.315 74.0187C30.0927 73.9817 29.8705 74.0187 29.6483 74.1669C28.0927 75.0928 26.389 75.5372 24.5371 75.5372C18.8334 75.5372 14.5371 71.0557 14.5371 65.0927C14.5371 59.0926 18.8334 54.5371 24.5371 54.5371C26.2038 54.5371 27.7964 54.9445 29.1298 55.6482C29.2039 54.9445 29.4631 54.2778 29.7964 53.6852C28.2409 52.9074 26.426 52.5 24.5371 52.5C17.6852 52.5 12.5 57.9075 12.5 65.0557C12.5 72.1668 17.6852 77.5002 24.5371 77.5002C26.6112 77.5002 28.6113 76.9817 30.352 76.0187L32.9076 76.3521C32.9446 76.3521 32.9446 76.3521 32.9816 76.3521L34.315 76.5372C35.0558 76.6484 35.7965 76.3521 36.2409 75.7595C36.7224 75.278 36.8335 74.5743 36.5743 73.9446Z" fill="#FFD600"/>
<path d="M31.4335 63.5935C31.3894 63.5406 31.3894 63.4611 31.4335 63.417C31.4864 63.3729 31.5658 63.3729 31.61 63.417C31.6541 63.47 31.6541 63.5494 31.61 63.5935C31.5658 63.6376 31.4864 63.6376 31.4335 63.5935Z" fill="white"/>
<path d="M39.1415 66.0658C39.0974 66.0129 39.0974 65.9335 39.1415 65.8893C39.1944 65.8452 39.2739 65.8452 39.318 65.8893C39.3621 65.9423 39.3621 66.0217 39.318 66.0658C39.265 66.1188 39.1944 66.1188 39.1415 66.0658Z" fill="white"/>
<path d="M6.38465 56.3963C6.34053 56.3434 6.34053 56.2639 6.38465 56.2198C6.4376 56.1757 6.51702 56.1757 6.56114 56.2198C6.60526 56.2728 6.60526 56.3522 6.56114 56.3963C6.50819 56.4493 6.4376 56.4493 6.38465 56.3963Z" fill="white"/>
<path d="M91.9424 10.2479C90.1924 8.97442 88.1133 7.89153 85.7916 6.97324L85.9389 7.00789C85.9389 7.00789 78.5232 2.76296 67.3738 2.59836C56.259 2.43376 48.6354 6.3235 48.5921 6.34949C46.1838 7.19848 44.0093 8.24672 42.1901 9.49421C33.397 15.4891 34.7657 28.813 38.3956 41.2706C41.0379 50.3322 53.2615 54.4818 66.4035 54.4818C79.5368 54.8803 92.7394 50.9733 95.6502 41.9896C99.6439 29.662 100.554 16.5113 91.9424 10.2479Z" fill="#F89E1C"/>
<path d="M91.943 10.2996C91.0247 9.6325 90.0198 9.01741 88.9282 8.44565C97.3574 14.7697 96.4391 27.8511 92.4628 40.1354C89.5519 49.1364 76.3493 53.0521 63.216 52.6536C55.7484 52.6536 48.1249 50.7217 42.6064 47.8456C48.2115 52.0558 57.3684 54.6288 66.3954 54.6288C79.5287 55.0273 92.7313 51.1116 95.6421 42.1106C99.6445 29.7483 100.554 16.5717 91.943 10.2996Z" fill="#F5851F"/>
<path d="M87.6108 21.8306L87.4375 20.9123C92.1936 20.0027 92.8346 11.5994 92.8433 11.5128L93.7789 11.5821C93.7529 11.9546 93.0685 20.7823 87.6108 21.8306Z" fill="#F89E1C"/>
<path d="M47.484 20.6521C41.4805 18.9975 41.2899 10.343 41.2812 9.97916L42.2169 9.96184C42.2169 10.0485 42.4075 18.2784 47.7353 19.7512L47.484 20.6521Z" fill="#F4B821"/>
<path d="M67.0797 10.1436C66.7592 10.1436 66.4386 10.1349 66.1094 10.1089C62.9214 9.88368 60.1492 8.60154 58.6851 6.68698L56.6406 4.01008L57.3857 3.44698L59.4302 6.12388C60.7296 7.83052 63.2593 8.97405 66.1787 9.18197C69.1848 9.38988 72.0437 8.54956 73.6377 6.9642C73.681 6.92089 73.7243 6.87757 73.7676 6.8256L76.7217 3.60291L77.4148 4.23532L74.4607 7.46667C74.4087 7.52731 74.3567 7.57929 74.2961 7.63127C72.6847 9.21662 69.9818 10.1436 67.0797 10.1436Z" fill="#F4B821"/>
<path d="M67.0973 13.5829C67.0106 13.5829 66.924 13.5829 66.8287 13.5829C66.5082 13.5742 66.179 13.5655 65.8671 13.5395C61.6481 13.245 58.0356 11.5037 55.9478 8.76615L53.0283 4.93705L53.7734 4.37395L56.6928 8.20305C58.6161 10.724 61.986 12.3267 65.9364 12.6126C66.2396 12.6299 66.5428 12.6472 66.8547 12.6472C70.5712 12.6992 73.9238 11.521 76.0636 9.41589C76.1416 9.33792 76.2109 9.26861 76.2888 9.19065L76.3755 9.09535L80.4298 4.66849L81.1229 5.3009L76.9732 9.83172C76.8866 9.91835 76.8086 10.005 76.722 10.0829C74.4436 12.318 70.9524 13.5829 67.0973 13.5829Z" fill="#F4B821"/>
<path d="M42.658 11.8332C44.486 10.5771 46.6517 9.52017 49.0687 8.66252C49.1207 8.63653 56.7789 4.13171 67.885 4.29631C75.1881 4.40893 81.5728 5.72572 85.0987 6.61802C82.8723 5.52647 76.3316 2.74561 67.3739 2.607C56.2591 2.4424 48.6356 6.36679 48.5836 6.39278C46.1753 7.25043 44.0008 8.30733 42.1729 9.56349C34.3328 14.9606 34.7053 26.1447 37.2695 37.3981C35.277 26.9417 35.3464 16.8578 42.658 11.8332Z" fill="#F4B821"/>
<path d="M46.6431 20.3584C41.4539 19.1975 41.0467 10.5864 41.0381 10.2139L41.35 10.2052C41.35 10.2918 41.7571 18.9463 46.7124 20.0552L46.6431 20.3584Z" fill="#10319B"/>
<path d="M56.3286 8.46377L53.4092 4.63467C54.4574 4.31413 55.6702 3.98493 57.0217 3.69905L59.0662 6.37596C60.4523 8.19522 63.1032 9.39939 66.1526 9.61597C69.2887 9.84121 72.2861 8.94024 73.9754 7.26826C74.0274 7.21628 74.0707 7.17297 74.1227 7.12099L77.0768 3.88964C78.4543 4.21884 79.6931 4.59135 80.776 4.9552L76.7216 9.38206L76.6264 9.47736C76.5484 9.55533 76.4704 9.64196 76.3924 9.71992C74.166 11.9204 70.6488 13.1505 66.8543 13.0899C66.5425 13.0812 66.2306 13.0726 65.9187 13.0466C61.8297 12.7607 58.3298 11.0887 56.3286 8.46377Z" fill="#032663"/>
<path d="M87.1954 21.1549L87.1348 20.8517C92.1247 19.8901 92.7831 11.253 92.7918 11.1663L93.1037 11.1923C93.0863 11.5562 92.4193 20.15 87.1954 21.1549Z" fill="#10319B"/>
<path d="M63.7875 53.0433C70.2761 53.2425 76.7908 52.4369 82.1966 50.5483C83.4701 49.2229 84.4837 47.5162 85.0988 45.515C86.6668 40.3865 88.4427 33.1961 89.2137 25.1047C89.5949 21.1283 87.4031 17.4725 84.1891 16.6581C79.8056 15.5406 73.0397 14.2151 64.983 13.9639V13.9553C64.7577 13.9553 64.5325 13.9553 64.3072 13.9553C64.082 13.9466 63.8568 13.9466 63.6315 13.9379V13.9466C55.5748 13.9553 48.9302 14.8735 44.512 15.8611C41.272 16.5888 38.8117 20.366 39.0716 24.3597C39.6 32.4684 41.1594 39.7021 42.5715 44.8826C42.6841 45.2985 42.814 45.697 42.9613 46.0868C43.8623 48.4692 45.8894 50.2451 48.3324 50.9728C53.0452 52.3589 58.4077 53.0433 63.7875 53.0433Z" fill="#032663"/>
<path d="M42.6061 47.8541L43.5591 48.6685C43.4032 48.1314 43.1346 47.2131 42.9527 46.572C42.4762 44.8827 41.9391 42.9595 41.4366 41.66C40.631 39.5635 38.9243 38.2987 37.2783 37.3978L37.4689 38.1774C38.9936 39.0178 39.9985 39.9967 40.7262 41.8853C41.22 43.1587 41.7485 45.056 42.2163 46.7279C42.3982 47.3777 42.4415 47.3084 42.6061 47.8541Z" fill="#F4B821"/>
<path d="M87.1431 50.8176C87.1258 50.8176 87.1085 50.8176 87.0911 50.8089C87.0132 50.7829 86.9698 50.6876 86.9958 50.6096C87.3597 49.5787 87.7149 48.4698 88.0701 47.3956C88.8064 45.1432 89.5601 42.8128 90.4005 40.9156C91.9079 37.5196 95.0439 35.735 97.2703 34.6955C97.3483 34.6608 97.4436 34.6955 97.4782 34.7734C97.5129 34.8514 97.4782 34.9467 97.4003 34.9814C95.2172 36.0036 92.1504 37.7449 90.6863 41.0455C89.8547 42.9254 89.0923 45.2472 88.3646 47.4909C88.0181 48.5651 87.6542 49.6827 87.2904 50.7136C87.2644 50.7829 87.2038 50.8176 87.1431 50.8176Z" fill="#F89E1C"/>
<path d="M37.4688 38.1782C37.7027 39.4257 38.0578 40.5346 38.387 41.7821C39.0714 44.3637 40.4315 45.9144 42.6753 47.8809C42.0948 45.897 41.575 44.0085 40.8993 42.2325C40.0936 40.1707 38.9155 38.9752 37.4688 38.1782Z" fill="#032663"/>
<path d="M38.4912 41.8943C38.2486 41.1666 38.084 40.4562 37.8848 39.7198C38.6471 40.2569 39.1409 41.0193 39.5827 42.0156C40.0592 43.0725 40.4231 44.6405 40.8389 45.8707C39.6261 44.8657 38.9677 43.3237 38.4912 41.8943Z" fill="#0E51A0"/>
<path d="M42.4162 47.6638C42.2949 47.2567 42.1823 46.8668 42.0697 46.477C41.6539 45.0216 41.2554 43.6441 40.7183 42.2407C39.9992 40.3868 38.977 39.174 37.3916 38.3076L37.5389 38.0304C39.1935 38.9401 40.2591 40.2049 41.0041 42.1281C41.5499 43.5402 41.9484 44.9263 42.3643 46.3903C42.4769 46.7715 42.5895 47.17 42.7021 47.5685L42.4162 47.6638Z" fill="#10319B"/>
<path d="M97.5567 35.3967C97.0629 37.4152 96.4912 39.2691 95.9281 41.2963C94.8365 45.238 92.4715 48.0275 87.1523 50.8084C88.2612 47.6463 89.3441 44.5796 90.5829 41.7727C92.047 38.4894 95.2437 36.4796 97.5567 35.3967Z" fill="#032663"/>
<path d="M63.7357 51.6582C69.2975 51.8228 74.8765 51.2077 79.6413 49.761C80.3776 49.5357 81.0447 49.1026 81.5125 48.4961C82.3095 47.4652 82.9506 46.2524 83.3751 44.8923C84.8218 40.2748 86.4591 33.8035 87.1608 26.5178C87.5074 22.9313 85.4889 19.6479 82.5174 18.9116C78.4717 17.898 72.2343 16.7025 64.81 16.4772V16.4686C64.602 16.4686 64.3942 16.4686 64.1862 16.4686C63.9783 16.4599 63.7704 16.4599 63.5625 16.4512V16.4599C56.1295 16.4599 49.8574 17.4735 45.7858 18.3571C42.797 19.0069 40.6832 22.2295 40.9171 25.8247C41.4022 33.1278 42.8403 39.6424 44.1484 44.3032C44.5296 45.6633 45.1273 46.8848 45.881 47.933C46.3142 48.5308 46.9293 48.964 47.6223 49.2065C52.413 50.8438 58.0701 51.6582 63.7357 51.6582Z" fill="#FCE8CA"/>
<path d="M65.7287 53.1306C65.0876 53.1306 64.4379 53.1219 63.7795 53.1046H63.7708C58.2437 53.1046 52.8899 52.3769 48.2725 51.0081C45.7515 50.2545 43.707 48.4005 42.8234 46.0355C42.6761 45.637 42.5375 45.2212 42.4249 44.7967C41.1254 40.032 39.4621 32.599 38.9163 24.2044C38.6564 20.228 40.9782 16.5895 44.3135 15.7319C59.8811 11.7382 79.7543 15.1861 84.2245 16.3296C87.5424 17.1786 89.7515 20.8864 89.3704 24.9668C88.5734 33.344 86.6935 40.725 85.2467 45.4464C84.649 47.4129 83.6267 49.1716 82.3099 50.5577L82.2839 50.5837L82.2493 50.5923C77.4672 52.2643 71.7929 53.1306 65.7287 53.1306ZM63.7882 52.7928C70.4414 53.0007 76.9388 52.1084 82.1107 50.3064C83.3842 48.9636 84.3717 47.257 84.9522 45.3511C86.3902 40.647 88.2702 33.2834 89.0585 24.9321C89.431 21.0077 87.3172 17.4385 84.1465 16.6328C79.6937 15.498 59.8984 12.0501 44.3914 16.0351C41.2034 16.8581 38.977 20.358 39.2282 24.1871C39.7653 32.5557 41.4286 39.9713 42.7194 44.7187C42.832 45.1345 42.962 45.533 43.1093 45.9316C43.9669 48.2013 45.9248 49.9859 48.3591 50.7136C52.9506 52.0737 58.2784 52.8014 63.7708 52.8014C63.7795 52.7928 63.7795 52.7928 63.7882 52.7928Z" fill="#10319B"/>
<path d="M87.6207 50.635L87.3262 50.5311C87.7247 49.4049 88.0712 48.3047 88.4004 47.2391C89.0155 45.2899 89.5959 43.4533 90.4016 41.6427C91.8657 38.3507 95.045 36.3149 97.4447 35.1887L97.5746 35.4746C95.2183 36.5834 92.1082 38.5673 90.6788 41.7727C89.8818 43.5659 89.3013 45.3938 88.6949 47.3344C88.3657 48.3999 88.0192 49.5002 87.6207 50.635Z" fill="#10319B"/>
<path d="M38.163 35.3363L36.7509 34.1234C36.7509 34.1234 35.8239 24.1868 37.9897 18.3046L38.3796 21.6745C38.3882 21.6832 37.5133 21.7958 38.163 35.3363Z" fill="#F4B821"/>
<path d="M68.1278 54.6721C67.5387 54.6721 66.9583 54.6635 66.3865 54.6461C66.3865 54.6461 66.3865 54.6461 66.3779 54.6461C54.648 54.6461 41.0902 51.1462 38.2314 41.3223C33.5013 25.0962 34.8008 14.3453 42.0951 9.3813C43.8797 8.1598 46.0455 7.1029 48.5405 6.21926C48.835 6.06332 56.3373 2.29486 67.3828 2.45946C78.4456 2.62406 85.9479 6.85167 86.0172 6.89498L86.1211 6.95562C88.3995 7.87392 90.3921 8.93948 92.0294 10.135C101.957 17.3514 98.6393 33.2309 95.7805 42.0586C92.7484 51.4148 79.3726 54.6721 68.1278 54.6721ZM66.3952 54.3343C77.8565 54.6808 92.3499 51.6487 95.4946 41.9547C98.3275 33.2136 101.628 17.4813 91.8561 10.3776C90.1668 9.1474 88.1137 8.05584 85.74 7.12889L85.7486 7.09423C84.761 6.56578 77.6053 2.91861 67.3741 2.76267C56.4153 2.58941 48.7397 6.46183 48.6618 6.49648C46.1841 7.37145 44.0357 8.42836 42.2684 9.63253C35.104 14.5185 33.8478 25.1482 38.5346 41.2356C41.3501 50.895 54.7693 54.3343 66.3952 54.3343Z" fill="#10319B"/>
<path d="M74.2792 27.2537C74.2272 27.245 74.1752 27.2191 74.1232 27.1757C73.4388 26.5953 72.5465 26.3701 71.6715 26.5693C71.481 26.6126 71.2904 26.4913 71.2471 26.3008C71.2037 26.1102 71.325 25.9196 71.5156 25.8763C72.6072 25.6337 73.7247 25.9109 74.5824 26.6386C74.7296 26.7686 74.747 26.9851 74.6257 27.1324C74.5391 27.245 74.4091 27.2797 74.2792 27.2537Z" fill="#032663"/>
<path d="M46.4963 27.6783C46.5483 27.6696 46.6003 27.6436 46.6523 27.6003C47.3367 27.0199 48.229 26.8033 49.1126 26.9939C49.3032 27.0372 49.4938 26.9159 49.5371 26.7253C49.5804 26.5347 49.4591 26.3441 49.2685 26.3008C48.177 26.0496 47.0594 26.3268 46.2018 27.0545C46.0545 27.1845 46.0372 27.401 46.1585 27.5483C46.2451 27.6609 46.375 27.7043 46.4963 27.6783Z" fill="#032663"/>
<path d="M53.7476 40.8027C53.661 40.9846 53.5571 41.1579 53.4444 41.3138L47.3542 41.2098C47.2416 41.0452 47.1463 40.872 47.0684 40.6814L53.7476 40.8027Z" fill="#0052A3"/>
<path d="M54.0164 40.0918C53.9731 40.2651 53.9125 40.4383 53.8432 40.6116L46.9733 40.499C46.904 40.3344 46.8607 40.1524 46.8174 39.9792L54.0164 40.0918Z" fill="#0052A3"/>
<path d="M46.7353 38.5141L46.7266 39.0339L54.1328 39.1583L54.1415 38.6386L46.7353 38.5141Z" fill="#0052A3"/>
<path d="M54.1288 39.3728C54.1201 39.5461 54.0941 39.7193 54.0595 39.8926L46.7738 39.7713C46.7478 39.598 46.7305 39.4248 46.7305 39.2515L54.1288 39.3728Z" fill="#0052A3"/>
<path d="M52.517 42.2234C52.1965 42.44 51.8326 42.6133 51.4515 42.7259L49.2943 42.6912C48.9132 42.5699 48.558 42.388 48.2461 42.1541L52.517 42.2234Z" fill="#0052A3"/>
<path d="M53.4355 34.1316L47.5879 34.0363C47.7352 33.8544 47.9084 33.6811 48.0903 33.5252L52.9504 33.6031C53.1323 33.7677 53.2969 33.941 53.4355 34.1316Z" fill="#0052A3"/>
<path d="M53.2889 41.5124C53.133 41.703 52.9597 41.8676 52.7778 42.0235L47.9958 41.9456C47.8138 41.7896 47.6492 41.6077 47.502 41.4171L53.2889 41.5124Z" fill="#0052A3"/>
<path d="M51.7204 32.8675C52.0843 32.9975 52.4135 33.1794 52.708 33.4047L48.3418 33.3353C48.645 33.1188 48.9828 32.9455 49.3467 32.8329L51.7204 32.8675Z" fill="#0052A3"/>
<path d="M53.9462 35.0589C54.0068 35.2235 54.0588 35.4055 54.1022 35.5787L46.8857 35.4574C46.9291 35.2755 46.9897 35.1109 47.059 34.9377L53.9462 35.0589Z" fill="#0052A3"/>
<path d="M54.1372 35.7866C54.1632 35.9599 54.1805 36.1331 54.1805 36.3064L46.7822 36.1851C46.7909 36.0119 46.8082 35.8386 46.8428 35.6653L54.1372 35.7866Z" fill="#0052A3"/>
<path d="M53.5831 34.3394C53.6871 34.504 53.7823 34.6773 53.8603 34.8679L47.1377 34.7553C47.2243 34.5733 47.3197 34.4001 47.4323 34.2441L53.5831 34.3394Z" fill="#0052A3"/>
<path d="M46.7656 37.0756L46.7568 37.5954L54.1631 37.7198L54.1718 37.2001L46.7656 37.0756Z" fill="#0052A3"/>
<path d="M46.7773 36.3611L46.7686 36.8808L54.1748 37.0053L54.1835 36.4855L46.7773 36.3611Z" fill="#0052A3"/>
<path d="M46.746 37.799L46.7373 38.3187L54.1435 38.4432L54.1523 37.9234L46.746 37.799Z" fill="#0052A3"/>
<path d="M73.3346 40.8374C73.2479 41.0193 73.144 41.1926 73.0313 41.3485L66.9411 41.2446C66.8285 41.08 66.7332 40.9067 66.6553 40.7161L73.3346 40.8374Z" fill="#0052A3"/>
<path d="M73.6033 40.1185C73.56 40.2917 73.4994 40.465 73.4301 40.6383L66.5602 40.5256C66.4909 40.361 66.4476 40.1791 66.4043 40.0058L73.6033 40.1185Z" fill="#0052A3"/>
<path d="M66.33 38.5438L66.3213 39.0635L73.7275 39.188L73.7363 38.6683L66.33 38.5438Z" fill="#0052A3"/>
<path d="M73.7157 39.3988C73.707 39.5721 73.681 39.7454 73.6464 39.9186L66.3607 39.7973C66.3347 39.6241 66.3174 39.4508 66.3174 39.2776L73.7157 39.3988Z" fill="#0052A3"/>
<path d="M72.1049 42.2488C71.7844 42.4654 71.4205 42.6387 71.0393 42.7513L68.8822 42.7166C68.501 42.5954 68.1459 42.4134 67.834 42.1795L72.1049 42.2488Z" fill="#0052A3"/>
<path d="M73.0312 34.1669L67.1836 34.0716C67.3309 33.8897 67.5041 33.7165 67.686 33.5605L72.5461 33.6385C72.7193 33.7944 72.8839 33.9763 73.0312 34.1669Z" fill="#0052A3"/>
<path d="M72.8758 41.5478C72.7199 41.7384 72.5466 41.903 72.3647 42.0589L67.5826 41.9809C67.4007 41.825 67.2361 41.6431 67.0889 41.4525L72.8758 41.5478Z" fill="#0052A3"/>
<path d="M71.3073 32.9017C71.6712 33.0316 72.0004 33.2135 72.295 33.4388L67.9287 33.3695C68.2319 33.1529 68.5698 32.9796 68.9336 32.867L71.3073 32.9017Z" fill="#0052A3"/>
<path d="M73.5341 35.0931C73.5947 35.2577 73.6467 35.4396 73.69 35.6128L66.4736 35.4916C66.5169 35.3096 66.5776 35.145 66.6469 34.9718L73.5341 35.0931Z" fill="#0052A3"/>
<path d="M73.7242 35.812C73.7502 35.9853 73.7675 36.1586 73.7675 36.3318L66.3691 36.2105C66.3778 36.0373 66.3951 35.864 66.4298 35.6908L73.7242 35.812Z" fill="#0052A3"/>
<path d="M73.17 34.3655C73.2739 34.5301 73.3692 34.7033 73.4472 34.8939L66.7246 34.7813C66.8112 34.5994 66.9065 34.4261 67.0191 34.2702L73.17 34.3655Z" fill="#0052A3"/>
<path d="M66.3515 37.1072L66.3428 37.6269L73.749 37.7513L73.7577 37.2316L66.3515 37.1072Z" fill="#0052A3"/>
<path d="M66.3632 36.3901L66.3545 36.9098L73.7607 37.0343L73.7695 36.5146L66.3632 36.3901Z" fill="#0052A3"/>
<path d="M66.3408 37.8299L66.332 38.3496L73.7383 38.4741L73.747 37.9543L66.3408 37.8299Z" fill="#0052A3"/>
<path d="M58.786 42.9858C58.4865 43.0116 58.2686 43.5531 58.3503 44.1204C58.6363 45.9255 59.535 47.189 60.5699 47.1375C61.6048 47.0859 62.4627 45.6934 62.6805 43.8626C62.7486 43.2952 62.5171 42.7795 62.2039 42.7795L58.786 42.9858Z" fill="#032663"/>
</g>
<defs>
<radialGradient id="paint0_radial_14392_25118" cx="0" cy="0" r="1" gradientUnits="userSpaceOnUse" gradientTransform="translate(60.9363 66.8048) scale(56.3066 56.3067)">
<stop offset="0.0783725" stop-color="#33FCFE"/>
<stop offset="1" stop-color="#33FCFE" stop-opacity="0"/>
</radialGradient>
</defs>
</svg>
