<svg width="100" height="100" viewBox="0 0 100 100" fill="none" xmlns="http://www.w3.org/2000/svg">
<mask id="mask0_13410_56836" style="mask-type:alpha" maskUnits="userSpaceOnUse" x="0" y="0" width="100" height="100">
<rect width="100" height="100" fill="#D9D9D9"/>
</mask>
<g mask="url(#mask0_13410_56836)">
<path d="M68.9419 69.7436C73.3056 61.866 68.5436 52.0499 59.648 50.6514L56.2049 50.1115C56.1783 50.1115 56.1606 50.1026 56.1341 50.0938L47.5483 48.7484L39.0068 47.1286C38.9803 47.1197 38.9626 47.1197 38.936 47.1197L35.5106 46.4736C26.6593 44.8007 18.879 52.4482 20.3395 61.3349C20.8175 64.2381 21.4017 66.9555 22.0478 69.5135C22.3842 71.0005 22.8621 72.6557 23.4198 74.3728C25.8096 82.0734 28.6951 88.0746 30.8637 92.9517C30.9433 93.1375 31.0407 93.3234 31.1292 93.5093C32.5808 96.6427 35.5814 98.5368 38.8387 99.0591C42.0871 99.6698 45.5479 98.8909 47.9643 96.4302C48.1148 96.2886 48.2653 96.147 48.4069 95.9965C52.0802 92.1374 56.8156 87.4462 61.6573 80.9936C62.7549 79.5597 63.7639 78.1612 64.5782 76.8777C66.0564 74.6826 67.5168 72.3193 68.9419 69.7436Z" fill="#F89E1C"/>
<path d="M51.0435 84.1621C54.2742 79.9046 50.0344 75.8684 44.1837 78.0282C37.2089 80.595 33.7393 78.3025 30.721 70.5488C28.2692 64.2556 22.9938 64.8486 21.0996 65.3C21.4094 66.787 21.7369 68.2209 22.091 69.6017C22.4273 71.0888 22.9053 72.7439 23.4629 74.4611C25.8528 82.1617 28.7382 88.1629 30.9068 93.0399C30.9865 93.2258 31.0838 93.4117 31.1724 93.5976C32.624 96.7309 35.6246 98.6251 38.8818 99.1473C42.1302 99.7581 45.5911 98.9791 48.0075 96.5185C48.158 96.3769 48.3084 96.2352 48.4501 96.0848C49.6538 94.8279 50.9639 93.4736 52.3624 92.0043C49.9194 91.1546 47.9278 88.2779 51.0435 84.1621Z" fill="#032663"/>
<path d="M38.6523 99.2546C35.2091 98.6616 32.3502 96.5727 30.9959 93.6518C30.9074 93.4747 30.81 93.2889 30.7304 93.0941C30.4206 92.3949 30.0931 91.6602 29.7479 90.9079C27.7741 86.5353 25.3223 81.0918 23.2776 74.4887C22.6846 72.6654 22.2243 71.019 21.9057 69.6205C21.5516 68.222 21.2152 66.7704 20.9143 65.3188L20.8789 65.1683L21.0294 65.1329C23.1537 64.6284 28.3671 64.1504 30.8366 70.4791C33.9168 78.401 37.3865 80.3394 44.0958 77.8611C47.6629 76.5422 50.4245 77.5336 51.5929 79.1003C52.655 80.543 52.4868 82.4637 51.1414 84.2429C49.7783 86.0485 49.2915 87.7657 49.7341 89.235C50.097 90.4122 51.0883 91.3858 52.3806 91.8284L52.6196 91.9081L52.4514 92.0851C51.6725 92.9083 50.9113 93.696 50.1855 94.4484C49.619 95.0414 49.0702 95.6079 48.5392 96.1655C48.3975 96.316 48.2471 96.4665 48.0966 96.5992C45.8041 98.936 42.3521 99.945 38.8293 99.2723C38.7673 99.2812 38.7142 99.2723 38.6523 99.2546ZM38.8824 98.9714C42.299 99.6175 45.6536 98.6439 47.8753 96.3868C48.0258 96.2452 48.1763 96.1036 48.309 95.962C48.8401 95.4043 49.3889 94.8378 49.9554 94.2448C50.6281 93.5455 51.3273 92.8109 52.0531 92.0585C50.7697 91.5452 49.8049 90.545 49.4332 89.3412C49.0968 88.2525 49.0791 86.4468 50.8936 84.0658L51.0175 84.1632L50.8936 84.0658C52.1505 82.4018 52.3187 80.6227 51.345 79.3038C50.2563 77.8345 47.6275 76.914 44.2198 78.1709C37.3866 80.6935 33.6867 78.64 30.5533 70.603C28.2343 64.6461 23.4015 64.9471 21.2684 65.4162C21.5604 66.8147 21.8791 68.2043 22.2243 69.5586C22.543 70.9571 23.0032 72.5857 23.5874 74.4091C25.6321 80.9944 28.075 86.4291 30.04 90.7928C30.3763 91.5452 30.7038 92.271 31.0225 92.9791C31.1021 93.1649 31.1907 93.342 31.288 93.5278C32.6157 96.3957 35.457 98.4403 38.8824 98.9714Z" fill="#10319B"/>
<path d="M38.9799 99.316C38.918 99.3072 38.8649 99.2983 38.8029 99.2806C35.2801 98.7319 32.3503 96.6164 30.9784 93.6424C30.8899 93.4653 30.7925 93.2795 30.7129 93.0847C30.4031 92.3855 30.0756 91.6508 29.7304 90.8985C27.7565 86.5259 25.3047 81.0824 23.2601 74.4793C22.667 72.656 22.2068 71.0096 21.8881 69.6111C21.2066 66.9203 20.6313 64.1676 20.1798 61.4237C19.4717 57.122 20.8525 52.9088 23.9682 49.8728C27.0661 46.8456 31.2705 45.5888 35.5368 46.3854L38.9622 47.0315L39.0331 47.0404L47.5746 48.6602L56.1603 50.0055L56.2046 50.0144L59.6742 50.5543C63.9582 51.227 67.4988 53.8382 69.4018 57.7239C71.3137 61.6361 71.1986 66.0618 69.092 69.8767C67.7466 72.3019 66.2773 74.7095 64.7283 77.0197C63.9583 78.2323 62.9758 79.6219 61.7985 81.1444C57.6561 86.6764 53.5138 90.9781 50.1945 94.4301C49.6192 95.0232 49.0704 95.5985 48.5393 96.1561C48.3977 96.3066 48.2472 96.4571 48.0968 96.5898C45.822 98.9089 42.4319 99.9091 38.9799 99.316ZM38.8649 98.9708C42.2815 99.617 45.6361 98.6433 47.8578 96.3863C48.0082 96.2446 48.1587 96.103 48.2915 95.9614C48.8226 95.4038 49.3713 94.8284 49.9467 94.2354C53.2659 90.7834 57.3994 86.4905 61.533 80.9762C62.7014 79.4538 63.6839 78.073 64.4451 76.8692C65.9941 74.5679 67.4545 72.1692 68.7999 69.7528C70.8623 66.0264 70.9685 61.7069 69.1097 57.892C67.2509 54.1037 63.7813 51.5545 59.6212 50.8995L56.178 50.3596L56.1337 50.3507L47.5126 48.9965L38.9622 47.3767L38.8914 47.3679L35.466 46.7217C31.3236 45.9428 27.1989 47.1731 24.1806 50.1206C21.1446 53.0858 19.7992 57.1928 20.4896 61.3971C20.941 64.1233 21.5164 66.8761 22.1979 69.558C22.5166 70.9565 22.9768 72.5852 23.561 74.4085C25.6056 80.9939 28.0486 86.4286 30.0136 90.7922C30.35 91.5446 30.6774 92.2704 30.9961 92.9785C31.0757 93.1644 31.1643 93.3414 31.2616 93.5273C32.5982 96.3863 35.4395 98.4309 38.8649 98.9708Z" fill="#10319B"/>
<path d="M66.9579 56.7044C65.0814 54.4119 62.4703 52.7833 59.3192 52.2876L55.8584 51.7477C55.8318 51.7477 55.8141 51.7388 55.7875 51.73L47.1575 50.3934L38.5718 48.756C38.5452 48.7471 38.5276 48.7471 38.501 48.7471L35.0579 48.0921C30.287 47.1804 27.1006 50.1722 24.1619 53.7215C23.4981 54.5181 23.799 55.7573 24.7373 56.1202C32.6326 59.1474 50.884 64.1572 66.9579 56.7044Z" fill="#E26907"/>
<path d="M29.5523 6.24343C31.5084 5.31405 33.7743 4.62365 36.2262 4.16338L36.0757 4.17223C36.0757 4.17223 44.1835 1.36638 55.2122 3.2694C66.2054 5.17243 73.0032 10.4301 73.0475 10.4655C75.2692 11.7578 77.2165 13.1917 78.7831 14.7584C86.3421 22.3085 83.3858 35.2137 77.4909 46.8266C73.198 55.2795 59.4962 57.094 46.5379 54.6422C33.5088 52.5887 21.2055 46.2778 20.0018 36.8777C18.3466 23.9548 19.8867 10.8195 29.5523 6.24343Z" fill="#F89E1C"/>
<path d="M40.5553 75.8317C39.7321 75.6901 38.9444 75.3449 38.254 74.805C36.7935 73.6543 36.0677 71.8752 36.3333 70.0253L37.838 59.4657C38.1035 57.6246 39.2896 56.111 41.0156 55.4118C42.7416 54.7214 44.6446 54.9869 46.1139 56.1376L54.5669 62.7672C55.9831 63.8736 56.7 65.5996 56.4876 67.3876C56.2752 69.1755 55.1777 70.6803 53.549 71.4238C53.4959 71.4503 53.4428 71.468 53.3897 71.4946L53.3189 71.5211L43.3523 75.5308C42.4406 75.8937 41.4758 75.991 40.5553 75.8317ZM43.6975 55.7393C42.892 55.5977 42.0512 55.6862 41.2457 56.0048C39.7322 56.6156 38.6966 57.9433 38.4664 59.5542L36.9617 70.1138C36.7316 71.7247 37.36 73.2914 38.6435 74.3004C39.9269 75.3095 41.5909 75.5396 43.1045 74.9377L53.133 70.9015C53.1772 70.8838 53.2215 70.8661 53.2746 70.8396C54.6997 70.1934 55.6556 68.8746 55.8415 67.3079C56.0274 65.7501 55.3989 64.2365 54.1597 63.2717L45.7068 56.6421C45.1137 56.1642 44.4233 55.8632 43.6975 55.7393Z" fill="#F89E1C"/>
<path d="M40.5009 75.9043C39.6866 75.7627 38.9076 75.4175 38.2172 74.8864C36.7656 73.7446 36.0487 71.9743 36.3142 70.151L37.8543 59.3347C38.111 57.5113 39.2883 56.0066 41.0054 55.3162C42.7225 54.6258 44.6079 54.9002 46.0595 56.0332L54.7249 62.8221C56.1234 63.9197 56.8403 65.6368 56.6279 67.3982C56.4155 69.1685 55.3268 70.6643 53.7159 71.399C53.6627 71.4256 53.6097 71.4433 53.5565 71.4698L53.4946 71.4964L43.2802 75.6034C42.3685 75.9663 41.4126 76.0636 40.5009 75.9043ZM43.7228 55.3251C42.8642 55.1746 41.9702 55.2631 41.1205 55.6083C39.5184 56.2545 38.412 57.6618 38.1641 59.379L36.624 70.1952C36.3762 71.9124 37.0489 73.5676 38.412 74.6386C39.7751 75.7096 41.5453 75.9574 43.1474 75.3113L53.4238 71.1777C53.4769 71.16 53.5211 71.1335 53.5742 71.1158C55.0878 70.4254 56.1057 69.0269 56.3004 67.3628C56.4952 65.7076 55.8313 64.1055 54.5213 63.0699L45.8559 56.281C45.2186 55.7765 44.484 55.4578 43.7228 55.3251Z" fill="#10319B"/>
<path d="M29.5444 6.28783C30.5712 5.80101 31.6864 5.37615 32.8637 5.02209C23.3662 9.68672 21.8438 22.7689 23.4902 35.6298C24.6939 45.0476 36.9884 51.3674 50.0175 53.4209C57.3906 54.8106 64.9938 54.8194 70.9773 53.0137C64.6663 56.1294 55.4167 56.4657 46.5123 54.784C33.4833 52.7305 21.1888 46.4107 19.985 36.9929C18.3298 24.0435 19.8788 10.8816 29.5444 6.28783Z" fill="#F5851F"/>
<path d="M31.6687 17.9089C26.5792 15.8996 27.6856 7.42009 27.7387 7.06604L28.3672 7.15455C28.3583 7.23421 27.2785 15.4925 31.8988 17.3158L31.6687 17.9089Z" fill="#F89E1C"/>
<path d="M71.6763 25.1503L71.6055 24.513C77.1198 23.9023 78.8989 15.4139 78.9166 15.3342L79.545 15.4581C79.4654 15.8299 77.6509 24.4865 71.6763 25.1503Z" fill="#F4B821"/>
<path d="M54.3008 10.8018C51.3444 10.2885 48.7598 8.8457 47.441 6.93382C47.3968 6.87186 47.3525 6.8099 47.3171 6.74794L44.998 3.0127L45.8124 2.50818L48.1314 6.24342C48.1668 6.29653 48.1934 6.34078 48.2376 6.39389C49.5211 8.24381 52.1764 9.61576 55.1859 9.96096C58.1068 10.2973 60.8065 9.64231 62.4085 8.19955L64.9223 5.93362L65.5596 6.64173L63.0281 8.91651C61.2225 10.5363 58.2484 11.2886 55.0531 10.9169C54.8053 10.8815 54.5486 10.8461 54.3008 10.8018Z" fill="#F4B821"/>
<path d="M53.7004 14.208C49.7793 13.5264 46.4601 11.5969 44.6013 8.90608C44.5305 8.80872 44.4686 8.71135 44.4066 8.61399L44.3358 8.49892L41.1582 3.37403L41.9725 2.86951L45.2209 8.10061C45.274 8.18913 45.336 8.27764 45.398 8.36615C47.1151 10.8445 50.2042 12.6325 53.8775 13.2698C54.1784 13.3229 54.4794 13.3671 54.7892 13.4025C58.7368 13.8628 62.357 12.9069 64.7203 10.7737L68.3139 7.54298L68.9512 8.25109L65.3576 11.4818C62.7907 13.792 58.8961 14.8364 54.6741 14.3496C54.3377 14.3054 54.0191 14.2611 53.7004 14.208Z" fill="#F4B821"/>
<path d="M77.8813 16.962C76.3147 15.3865 74.3674 13.9348 72.1457 12.6426C72.1015 12.6072 65.3833 6.73875 54.3901 4.83573C47.1586 3.5877 40.6263 3.69391 36.9707 3.92405C39.3694 3.2602 46.3442 1.72893 55.2043 3.2602C66.1976 5.16323 72.9954 10.4563 73.0397 10.4917C75.2613 11.784 77.2087 13.2356 78.7753 14.8111C85.5112 21.5912 83.8648 32.673 79.2356 43.2945C83.1567 33.3546 84.1658 23.2906 77.8813 16.962Z" fill="#F4B821"/>
<path d="M72.2608 24.8121L72.252 24.4935C77.3503 24.3253 79.3949 15.6599 79.4126 15.5714L79.7224 15.6422C79.6428 16.0051 77.5981 24.6351 72.2608 24.8121Z" fill="#10319B"/>
<path d="M65.0194 11.0935L68.613 7.86281C67.6394 7.34943 66.5064 6.80065 65.223 6.26958L62.7092 8.5355C61.0098 10.0668 58.1685 10.7749 55.1148 10.4208C51.9815 10.0579 49.1933 8.61517 47.8302 6.65018C47.786 6.59707 47.7506 6.53512 47.7152 6.47316L45.3961 2.73792C43.9711 2.80873 42.6788 2.94149 41.5547 3.10082L44.7323 8.22571L44.8031 8.34078C44.865 8.43814 44.927 8.52665 44.989 8.62402C46.7769 11.2086 50.0165 13.0762 53.7783 13.7224C54.0881 13.7755 54.3979 13.8197 54.7165 13.8551C58.797 14.3154 62.5588 13.3152 65.0194 11.0935Z" fill="#032663"/>
<path d="M32.1991 17.8825C27.2335 15.9175 28.1541 7.19011 28.1984 6.81836L28.517 6.85376C28.5081 6.94228 27.5787 15.7139 32.323 17.5815L32.1991 17.8825Z" fill="#10319B"/>
<path d="M46.4775 54.5077C40.0338 53.4898 33.767 51.4894 28.7838 48.6216C27.7747 47.0814 27.0843 45.1961 26.8542 43.1161C26.2612 37.761 25.8452 30.3437 26.5887 22.2182C26.9516 18.2174 29.7928 15.031 33.1209 14.8185C37.6528 14.5264 44.5745 14.4822 52.576 15.7302V15.7214C52.7973 15.7568 53.0186 15.801 53.2399 15.8453C53.4612 15.8807 53.6825 15.9161 53.9126 15.9515V15.9603C61.8611 17.4651 68.2428 19.6071 72.4206 21.4039C75.4831 22.7227 77.2092 26.9094 76.209 30.7951C74.182 38.6993 71.2965 45.5502 68.9421 50.3918C68.0392 52.2417 66.8001 53.7553 65.3661 54.8617C59.6482 55.9416 52.9744 55.738 46.4775 54.5077Z" fill="#032663"/>
<path d="M69.5175 53.5326L68.1367 54.0017C68.4908 53.3467 69.0838 52.2314 69.491 51.4525C70.5708 49.3902 71.7834 47.0534 72.7836 45.5133C74.3857 43.0261 77.9085 41.5656 80.1745 40.9106L79.5726 42.2206C77.466 42.8314 75.023 43.805 73.5803 46.0355C72.6066 47.5403 71.4029 49.8504 70.3319 51.8951C69.9336 52.6828 69.8716 52.8776 69.5175 53.5326Z" fill="#F4B821"/>
<path d="M25.6044 46.1543C25.5424 46.1455 25.4805 46.0924 25.4716 46.0216C25.3743 45.3666 25.268 44.6496 25.1618 43.9238C24.8432 41.7021 24.4803 39.1795 24.0554 37.3473C23.427 34.6919 21.3912 32.9305 19.4882 31.5586C19.4173 31.5055 19.3996 31.4081 19.4528 31.3373C19.5059 31.2665 19.6032 31.2488 19.674 31.3019C21.6302 32.7092 23.7191 34.5237 24.3652 37.2765C24.7989 39.1176 25.1618 41.649 25.4805 43.8795C25.5867 44.6142 25.6841 45.3223 25.7903 45.9773C25.7991 46.0658 25.746 46.1455 25.6575 46.1632C25.6398 46.1632 25.6221 46.1632 25.6044 46.1543Z" fill="#F89E1C"/>
<path d="M79.6865 42.199C79.0315 43.7568 78.3146 45.3058 77.5357 46.837C75.9424 49.9881 73.0657 52.2275 69.4102 53.6702C70.7024 51.2627 71.9151 48.5365 73.2693 46.4387C74.8626 43.9958 77.6861 42.7832 79.6865 42.199Z" fill="#032663"/>
<path d="M76.563 46.8806C77.0763 46.0043 77.5632 45.1103 78.0323 44.2075C76.9436 44.6678 75.7929 45.4024 74.952 46.562C74.0669 47.7923 73.2083 49.3501 72.332 50.8283C74.1023 49.9077 75.5628 48.6066 76.563 46.8806Z" fill="#0E51A0"/>
<path d="M69.6133 53.7048L69.3301 53.5543C69.7726 52.7223 70.224 51.8372 70.6489 50.9875C71.4632 49.3677 72.3041 47.6948 73.1981 46.314C74.8002 43.8445 77.6149 42.6053 79.7038 42.0034L79.7923 42.3132C77.7565 42.8974 75.0126 44.1012 73.4636 46.491C72.5785 47.8541 71.7465 49.5182 70.9322 51.1291C70.4985 51.9877 70.0559 52.8728 69.6133 53.7048Z" fill="#10319B"/>
<path d="M19.4531 31.7806C19.5505 33.4712 19.701 35.1707 19.9134 36.8701C20.356 40.3752 22.3121 43.4466 25.2684 46.0401C24.8613 43.3404 24.6311 40.3664 24.0647 37.9323C23.392 35.091 21.1349 33.0021 19.4531 31.7806Z" fill="#032663"/>
<path d="M47.361 54.9256C47.0689 54.8725 46.7857 54.8282 46.5024 54.7751C35.0223 52.9694 21.1612 47.1984 19.8424 36.8867C18.6563 27.6548 18.3377 11.3773 29.4814 6.10191L29.5522 6.24353L29.4814 6.10191C31.4287 5.18138 35.9606 4.04841 36.1553 4.00416C36.2173 3.9776 44.2896 1.22485 55.2387 3.11903C66.2143 5.02205 73.0828 10.2886 73.1448 10.3417C75.4196 11.6605 77.358 13.1121 78.8981 14.6434C87.6255 23.3531 81.8545 38.5773 77.6324 46.8798C73.0386 55.9169 58.6553 56.8817 47.361 54.9256ZM46.5556 54.4565C46.8388 54.5096 47.122 54.5627 47.4141 54.6069C58.611 56.5454 72.835 55.616 77.3492 46.7293C81.527 38.5065 87.2537 23.4327 78.668 14.8647C77.1544 13.3511 75.2337 11.9172 72.9678 10.5984C72.8793 10.5364 66.0815 5.30529 55.1856 3.41997C44.325 1.5435 36.3323 4.26969 36.2527 4.29625C36.1907 4.31395 31.5438 5.46462 29.623 6.3763C18.6651 11.5632 18.9927 27.6902 20.161 36.8336C21.4622 46.9771 35.1905 52.6685 46.5556 54.4565Z" fill="#10319B"/>
<path d="M46.7875 53.1547C41.2643 52.2872 35.8739 50.6409 31.4482 48.3219C30.7578 47.959 30.1914 47.4102 29.8373 46.7198C29.2443 45.5603 28.8371 44.2414 28.6689 42.8164C28.1024 37.9924 27.6864 31.3009 28.3503 23.9897C28.6778 20.3872 31.2801 17.5194 34.3426 17.3424C38.5204 17.0945 44.8933 17.0768 52.2665 18.2364V18.2275C52.47 18.2629 52.6736 18.2983 52.8772 18.3426C53.0808 18.378 53.2843 18.4045 53.4968 18.4399V18.4488C60.8256 19.8296 66.8268 21.9982 70.6771 23.6268C73.5007 24.8217 74.9966 28.3976 74.0937 31.9027C72.2527 39.0192 69.6238 45.1797 67.4641 49.5345C66.8356 50.8091 66.0213 51.8978 65.0831 52.7918C64.5432 53.2963 63.8616 53.6149 63.127 53.7212C58.1083 54.4558 52.3815 54.208 46.7875 53.1547Z" fill="#FCE8CA"/>
<path d="M36.212 36.8857C36.1457 36.8702 36.0795 36.8547 36.0132 36.8243C35.5419 36.619 35.3204 36.0647 35.5185 35.5884C36.5239 33.1622 38.8481 31.904 41.4394 32.3801C43.9644 32.8408 45.8733 35.0064 45.9868 37.5162C46.0095 38.039 45.6126 38.4689 45.0974 38.4872C44.5822 38.5055 44.1548 38.0989 44.1321 37.576C44.0715 36.1718 43.0171 34.573 41.1252 34.2219C39.3878 33.9019 37.8947 34.7039 37.227 36.3188C37.0508 36.7356 36.6242 36.9562 36.212 36.8857Z" fill="#0E51A0"/>
<path d="M54.8682 40.1726C54.802 40.1572 54.7357 40.1417 54.6694 40.1113C54.1982 39.9059 53.9767 39.3516 54.1748 38.8753C55.1801 36.4492 57.5043 35.1909 60.0956 35.6671C62.6206 36.1278 64.5295 38.2934 64.643 40.8031C64.6657 41.326 64.2688 41.7633 63.7536 41.7816C63.2385 41.7999 62.8037 41.3932 62.781 40.8704C62.7204 39.4662 61.666 37.8673 59.774 37.5163C58.0367 37.1963 56.5436 37.9982 55.8759 39.6132C55.7071 40.03 55.2878 40.2506 54.8682 40.1726Z" fill="#0E51A0"/>
<path d="M51.6058 42.1922C51.9822 42.271 52.1708 42.9863 51.9747 43.6878C51.3178 45.9158 49.9706 47.3673 48.6644 47.1423C47.3582 46.9173 46.4949 45.0318 46.516 42.6935C46.5219 41.9688 46.8998 41.3554 47.2977 41.4038L51.6058 42.1922Z" fill="#032663"/>
<path d="M39.2699 28.4157C39.3142 28.416 39.3659 28.4013 39.4102 28.3718C40.0526 27.9803 40.8202 27.9177 41.5211 28.2052C41.676 28.2658 41.8458 28.1922 41.905 28.0434C41.9642 27.8872 41.8905 27.7152 41.743 27.6546C40.8725 27.299 39.913 27.3754 39.1081 27.8628C38.9678 27.9515 38.9233 28.1302 39.0118 28.2725C39.056 28.3697 39.1592 28.4225 39.2699 28.4157Z" fill="#032663"/>
<path d="M62.6522 32.5528C62.6079 32.5377 62.5711 32.5077 62.5343 32.4629C62.0627 31.8723 61.3625 31.5407 60.6104 31.5658C60.4482 31.5722 60.3082 31.4449 60.3009 31.2738C60.2936 31.1101 60.4191 30.9695 60.5887 30.9631C61.5251 30.9318 62.4022 31.3389 62.9916 32.0789C63.0948 32.206 63.0725 32.3918 62.9471 32.4952C62.866 32.5765 62.748 32.5906 62.6522 32.5528Z" fill="#032663"/>
<path d="M45.4946 54.4109C39.1394 53.3133 33.3595 51.3307 28.7215 48.6576L28.6861 48.6399L28.6683 48.6045C27.615 46.9935 26.9423 45.0639 26.7211 43.0193C26.1723 38.0891 25.6855 30.4593 26.4644 22.0418C26.8361 17.9525 29.7128 14.6952 33.1471 14.4739C37.7675 14.173 58.0192 14.4651 72.6415 21.3071C75.7748 22.7764 77.3858 26.8037 76.3945 30.6718C74.2967 38.8503 71.2695 45.8871 69.1098 50.3393C68.2247 52.1538 66.9767 53.7205 65.4897 54.88L65.4631 54.9066L65.4277 54.9154C59.931 55.9599 53.2041 55.836 46.4948 54.5702C46.1408 54.526 45.8133 54.4729 45.4946 54.4109ZM46.5214 54.2604C53.1864 55.5173 59.8514 55.6412 65.3038 54.6145C66.7377 53.4904 67.9503 51.9679 68.8089 50.2154C70.9686 45.772 73.9869 38.7618 76.0758 30.6098C77.0317 26.8834 75.4916 23.0065 72.4999 21.608C57.9395 14.8014 37.7674 14.5093 33.1648 14.8014C29.8809 15.0138 27.1371 18.1383 26.7742 22.0772C26.0041 30.4593 26.4909 38.0803 27.0308 42.9839C27.2521 44.9666 27.8983 46.8431 28.9073 48.4009C33.6782 51.1448 39.9272 53.2248 46.5214 54.2604Z" fill="#10319B"/>
<path d="M25.1626 45.906C25.021 45.0032 24.9059 44.065 24.7909 43.1533C24.5607 41.3742 24.3306 39.5331 23.95 37.931C23.295 35.1606 21.1175 33.1071 19.4004 31.8679L19.5863 31.6112C21.3477 32.8769 23.5871 34.9924 24.2598 37.8602C24.6404 39.48 24.8794 41.3299 25.1007 43.1179C25.2157 44.0207 25.3308 44.9589 25.4724 45.8618L25.1626 45.906Z" fill="#10319B"/>
<path d="M20.7903 50.0395C19.4537 46.5344 15.6831 38.524 7.25666 31.9033C6.43349 31.2571 5.23858 31.9033 5.31824 32.9477L5.38017 33.762C5.99091 42.0114 11.6734 49.0128 19.6219 51.3141C20.3831 51.5265 21.0735 50.783 20.7903 50.0395Z" fill="#F5851F"/>
<path d="M19.6225 51.3054C20.3838 51.5267 21.0742 50.7831 20.7909 50.0396C19.6137 46.9594 16.5512 40.3917 10.1074 34.3463C15.0995 40.3829 17.5337 48.1809 18.2595 50.854C18.702 51.0221 19.1534 51.1726 19.6225 51.3054Z" fill="#F89E1C"/>
<path d="M10.7522 35.6655C11.0443 35.4088 11.2744 35.3114 11.3099 35.2937L11.5665 35.8779L11.4426 35.5858L11.5754 35.8779C11.54 35.8956 8.09685 37.7632 11.0974 46.11L10.1592 45.2779C7.8667 38.6483 9.75205 36.5329 10.7522 35.6655Z" fill="#F89E1C"/>
<path d="M9.21312 33.5316C9.21312 33.5316 5.60179 34.4698 7.0003 40.0196C7.0003 40.0196 4.45997 33.806 5.84077 31.9384C5.84962 31.9384 6.74361 30.7346 9.21312 33.5316Z" fill="#032663"/>
<path d="M5.61905 31.8236C5.69871 31.7528 5.77836 31.6997 5.87573 31.6466C6.36255 31.3899 6.92019 31.443 7.35391 31.7793C15.9131 38.5063 19.7014 46.7557 20.9406 49.9864C21.0911 50.3847 21.0114 50.8273 20.7193 51.1459C20.4272 51.4646 19.9935 51.5885 19.5775 51.4646C11.6025 49.1544 5.84033 42.0468 5.22074 33.7709L5.15876 32.9566C5.12336 32.514 5.3004 32.098 5.61905 31.8236ZM20.4095 50.9955C20.4361 50.9778 20.4626 50.9512 20.4803 50.9247C20.6928 50.6945 20.7547 50.3847 20.6396 50.0926C19.4182 46.8885 15.6564 38.701 7.15916 32.0183C6.83166 31.7616 6.39797 31.7262 6.02622 31.921C5.65446 32.1157 5.44201 32.5051 5.47742 32.9211L5.5394 33.7355C6.14128 41.8786 11.8238 48.88 19.666 51.1459C19.9315 51.2344 20.206 51.1725 20.4095 50.9955Z" fill="#10319B"/>
<path d="M8.08029 34.0447C8.64677 33.5579 9.15132 33.3809 9.16902 33.3809L9.26635 33.6818C9.12473 33.7261 5.84977 34.8679 7.07125 40.0193L6.76145 40.0901C5.94714 36.647 7.10665 34.8856 8.08029 34.0447Z" fill="#10319B"/>
<path d="M10.5409 35.6212C10.8241 35.3734 11.0454 35.276 11.0808 35.2583L11.2047 35.5504C11.1693 35.5681 7.68192 37.179 10.3019 45.2248L10.001 45.3222C7.91206 38.8962 9.58496 36.4444 10.5409 35.6212Z" fill="#10319B"/>
<path d="M72.9581 57.422C76.0472 55.2977 83.7036 50.8544 94.4048 50.1905C95.4493 50.1286 96.0689 51.3412 95.4139 52.1467L94.9005 52.7839C89.7048 59.2277 81.0571 61.7591 73.206 59.1303C72.4448 58.8825 72.3032 57.8734 72.9581 57.422Z" fill="#F89E1C"/>
<path d="M74.1889 57.9783C74.2066 57.9783 74.2155 57.9872 74.2332 57.9872C77.1718 58.8104 80.3406 57.6685 82.1108 55.1813C82.695 54.3582 83.1641 53.4288 83.3766 52.4109C78.7474 53.6324 75.4812 55.7655 73.9765 56.8985C73.5782 57.1994 73.6933 57.8367 74.1889 57.9783Z" fill="#F4B821"/>
<path d="M79.0742 60.0869C85.0842 60.1666 90.9615 57.5643 94.9003 52.7846L95.4137 52.1562C95.4757 52.0765 95.5199 51.9969 95.5641 51.9172L95.0773 50.3859C94.8914 50.2797 94.6702 50.2266 94.4223 50.2443C93.3425 50.3151 92.3069 50.4213 91.289 50.563C90.4658 56.0065 82.8803 58.9451 79.0742 60.0869Z" fill="#F5851F"/>
<path d="M89.4225 51.3679C89.7589 52.6602 89.6792 55.6431 84.1649 59.6793L83.0762 59.7501C90.7591 54.4393 88.6259 51.0582 88.5994 51.0316L89.1304 50.6687C89.157 50.6953 89.3075 50.9431 89.4225 51.3679Z" fill="#F89E1C"/>
<path d="M91.8657 50.4137C91.8657 50.4137 94.3086 53.2373 89.998 57.0079C89.998 57.0079 95.6186 53.3435 95.539 51.0156C95.539 51.0244 95.4858 49.5286 91.8657 50.4137Z" fill="#032663"/>
<path d="M95.7954 51.0585C95.9016 51.4745 95.8131 51.9082 95.5387 52.2534L95.0254 52.8907C89.812 59.3521 81.0226 61.919 73.1539 59.2902C72.7467 59.1574 72.4546 58.8033 72.3926 58.3785C72.3307 57.9536 72.5165 57.5376 72.8706 57.2986C75.7207 55.3425 83.5276 50.7133 94.3969 50.0406C94.9369 50.0052 95.4325 50.2884 95.6892 50.7752C95.7335 50.8637 95.7689 50.9611 95.7954 51.0585ZM72.729 58.4316C72.7998 58.6971 72.9857 58.9007 73.2512 58.9892C80.9961 61.5738 89.6438 59.0512 94.7687 52.6871L95.2821 52.0498C95.5476 51.7223 95.5918 51.2886 95.3971 50.908C95.2024 50.5362 94.8306 50.3238 94.4146 50.3504C83.6249 51.0231 75.88 55.6169 73.0476 57.5553C72.7909 57.7323 72.667 58.0156 72.7113 58.3254C72.7113 58.3608 72.7201 58.3962 72.729 58.4316Z" fill="#10319B"/>
<path d="M92.5122 51.482C92.8397 52.73 92.7866 54.8366 90.1578 57.2087L89.9453 56.9698C93.8841 53.4204 91.8307 50.6234 91.7422 50.5083L91.9988 50.3136C91.9988 50.3313 92.3175 50.7562 92.5122 51.482Z" fill="#10319B"/>
<path d="M89.5898 51.3832C89.9084 52.6047 89.8907 55.5787 84.5092 59.6768L84.3145 59.4202C91.068 54.2687 89.0941 50.976 89.0764 50.9406L89.342 50.7725C89.3685 50.8079 89.4924 51.0203 89.5898 51.3832Z" fill="#10319B"/>
<path d="M41.5643 73.512C40.9359 73.4058 40.3339 73.1403 39.8029 72.7243C38.6876 71.848 38.1389 70.4849 38.3336 69.0775L39.4577 61.1734C39.6612 59.766 40.5641 58.6065 41.8829 58.0754C43.2018 57.5443 44.6622 57.7479 45.7775 58.633L52.1061 63.5986C53.186 64.4483 53.7348 65.7672 53.5755 67.1303C53.4161 68.4934 52.5753 69.644 51.3272 70.2194C51.2918 70.2371 51.2476 70.2548 51.2033 70.2725L51.1502 70.2902L43.6886 73.2908C42.9982 73.5563 42.2635 73.636 41.5643 73.512ZM43.9099 58.4737C43.3169 58.3675 42.7061 58.4383 42.1219 58.6684C41.0155 59.111 40.2543 60.0846 40.0861 61.2619L38.962 69.1661C38.7938 70.3433 39.2541 71.4851 40.1923 72.2197C41.1306 72.9544 42.3521 73.1314 43.4585 72.68L50.9643 69.6617C50.9997 69.644 51.0352 69.6352 51.0617 69.6175C52.1062 69.1395 52.8054 68.1836 52.9382 67.0418C53.071 65.8999 52.6195 64.8024 51.7078 64.0943L45.3792 59.1287C44.9455 58.7835 44.441 58.5622 43.9099 58.4737Z" fill="#F89E1C"/>
<path d="M51.0262 69.8843C51.0616 69.8666 51.097 69.8489 51.1324 69.84C53.4956 68.7602 53.9117 65.5295 51.8316 63.9008L45.6446 59.0503C43.5026 57.3686 40.3515 58.6432 39.9621 61.334L38.8645 69.0611C38.4839 71.7519 41.157 73.8497 43.6796 72.8406L50.9731 69.9108C50.9996 69.902 51.0173 69.8931 51.0262 69.8843Z" fill="#032663"/>
<path d="M48.3789 68.2132C48.3966 68.2043 48.4231 68.1955 48.4408 68.1866C49.7774 67.5759 50.0075 65.7614 48.8391 64.8408L45.3517 62.1146C44.148 61.1675 42.3688 61.8845 42.1476 63.3981L41.528 67.7529C41.3155 69.2665 42.8203 70.4525 44.2453 69.8772L48.3523 68.222C48.3612 68.222 48.37 68.222 48.3789 68.2132Z" fill="#33FCFE"/>
<path d="M75.084 41.331L79.5273 39.6758C79.5273 39.6758 82.6872 28.2754 79.8548 22.3539L78.1997 25.4961C78.1908 25.4961 79.4919 28.3108 75.084 41.331Z" fill="#F4B821"/>
<path d="M67.7721 59.8927C66.4975 60.9194 59.7617 62.9198 59.7617 62.9198C59.7617 62.9198 61.6116 64.8848 61.0628 68.266C60.6557 70.7975 57.8852 72.6385 57.8852 72.6385C59.6466 75.2054 58.1773 78.923 56.0796 81.5783C53.9818 84.2337 55.2387 85.3313 55.2387 85.3313C55.2387 85.3313 66.9224 73.0723 69.0821 65.4248C69.9584 62.318 67.7721 59.8927 67.7721 59.8927Z" fill="#F4B821"/>
<path d="M23.3125 67.3103C23.3125 67.3103 25.7908 67.3192 26.7999 69.1779C27.8089 71.0278 32.987 86.8274 35.6689 92.6161C36.1557 93.6606 37.2533 97.148 39.2094 96.8293C39.2094 96.8293 36.3947 97.8384 33.2702 93.3862C30.1545 88.9251 24.7287 72.2759 23.3125 67.3103Z" fill="#0E51A0"/>
<path d="M83.1825 16.785C83.1293 16.7317 83.1293 16.6518 83.1825 16.5985C83.2358 16.5453 83.3157 16.5453 83.369 16.5985C83.4222 16.6518 83.4222 16.7317 83.369 16.785C83.3157 16.8382 83.2358 16.8382 83.1825 16.785Z" fill="white"/>
<path d="M3.31845 52.8985C5.46689 52.254 8.4201 52.433 10.2186 53.9155C11.6183 55.0614 12.4021 57.5465 10.3516 58.3988C9.54681 58.7282 6.89452 58.7282 6.5796 57.611C6.35566 56.8304 7.17445 56.3648 7.83228 56.2646C9.75677 55.9566 11.5623 58.0335 11.5133 59.8884C11.4503 62.6744 8.28016 63.5983 6.04075 63.6197C5.89378 63.6197 5.92877 63.9062 6.04075 63.9134C9.85475 64.293 14.1096 60.6762 10.7155 57.0524C9.80576 56.0784 8.37813 55.3837 7.06247 55.9208C6.32067 56.2288 5.73282 56.9163 6.10373 57.7399C6.69857 59.0648 9.09194 59.294 10.2536 58.9574C10.5616 58.8736 10.8495 58.726 11.0995 58.5237C11.3496 58.3215 11.5564 58.0689 11.7073 57.7816C11.8581 57.4943 11.9498 57.1784 11.9766 56.8534C12.0034 56.5284 11.9648 56.2013 11.8632 55.8922C10.9255 52.3686 6.10371 51.5951 3.24846 52.6908C3.16448 52.6908 3.19948 52.9272 3.29745 52.8985H3.31845Z" fill="#FF9E16"/>
<path d="M74.6889 5.76904C74.6889 5.76904 74.3564 11.9574 78.9469 15.3968L83.7548 13.9264C83.7548 13.9264 80.5453 12.3921 78.9469 5.76904H74.6889Z" fill="#0055B8"/>
<path d="M9.05774 83.5588C9.05774 83.5588 7.22702 86.948 3.4987 87.3638L1.25 85.1044C1.25 85.1044 4.00027 85.5045 7.10163 82.484L9.05774 83.5588Z" fill="#007BE0"/>
<path d="M98.72 28.7673C96.4024 28.0633 93.2166 28.2588 91.2689 29.878C89.759 31.1296 88.9211 33.844 91.133 34.7748C92.0012 35.1347 94.8623 35.1347 95.202 33.9144C95.4436 33.0617 94.5604 32.5533 93.8507 32.4438C91.7747 32.1074 89.827 34.3759 89.8723 36.4019C89.9478 39.4448 93.3676 40.4539 95.7833 40.4773C95.9419 40.4773 95.9041 40.7902 95.7833 40.798C91.669 41.2126 87.079 37.2623 90.7329 33.3042C91.7218 32.2404 93.2619 31.4816 94.6811 32.0683C95.4814 32.4047 96.1155 33.1556 95.7154 34.0552C95.0737 35.5023 92.4919 35.7526 91.2387 35.385C90.9064 35.2934 90.5959 35.1322 90.3262 34.9113C90.0564 34.6904 89.8333 34.4145 89.6706 34.1007C89.5078 33.7869 89.409 33.4419 89.38 33.0869C89.3511 32.732 89.3927 32.3746 89.5023 32.037C90.514 28.1884 95.7078 27.3436 98.7955 28.5404C98.8861 28.5404 98.8483 28.7986 98.7427 28.7673H98.72Z" fill="#002E6D"/>
<path d="M62.793 94.7072C62.793 94.7072 64.6256 98.5931 68.358 99.0698L70.6007 96.4792C70.6007 96.4792 68.2743 96.6771 65.2031 93.214L62.793 94.7072Z" fill="#998122"/>
<path d="M10.0332 13.8605C10.0332 13.8605 16.1837 14.6277 19.9302 10.2805L18.805 5.38354C18.805 5.38354 17.0404 8.47772 10.3273 9.62844L10.0332 13.8605Z" fill="#FF9E16"/>
<path d="M85.1836 70.3257C85.1836 70.3257 87.472 75.0706 92.1324 75.6527L94.9433 72.4894C94.9433 72.4894 91.5054 73.0496 87.6287 68.8209L85.1836 70.3257Z" fill="#FFE784"/>
</g>
</svg>
