<svg width="200" height="200" viewBox="0 0 200 200" fill="none" xmlns="http://www.w3.org/2000/svg">
<mask id="mask0_1893_370979" style="mask-type:alpha" maskUnits="userSpaceOnUse" x="0" y="0" width="200" height="200">
<rect width="200" height="200" fill="#D9D9D9"/>
</mask>
<g mask="url(#mask0_1893_370979)">
<path d="M148.285 132.11C154.049 115.526 141.641 98.2526 124.091 98.5287L117.292 98.6322C117.24 98.6322 117.206 98.6322 117.154 98.6322L100.208 98.9083L83.2622 98.6322C83.2104 98.6322 83.1759 98.6322 83.1241 98.6322L76.325 98.5287C58.775 98.2526 46.3675 115.526 52.1313 132.11C54.0122 137.529 56.0312 142.568 58.1366 147.244C59.2755 149.988 60.7423 153.008 62.3817 156.131C69.5259 170.144 77.0671 180.705 82.848 189.35C83.0724 189.678 83.314 190.006 83.5555 190.317C87.3865 195.856 93.7715 198.496 100.225 198.41C106.662 198.513 113.064 195.856 116.895 190.317C117.137 190.006 117.379 189.678 117.603 189.35C123.384 180.705 130.925 170.144 138.069 156.131C139.709 153.008 141.175 150.005 142.314 147.244C144.385 142.55 146.404 137.529 148.285 132.11Z" fill="#F89E1C"/>
<path d="M118.69 165.743C123.47 156.493 113.997 150.143 103.47 156.235C90.9245 163.482 83.5041 160.221 75.1347 146.347C68.3356 135.061 58.3957 137.977 54.9099 139.461C55.9971 142.205 57.1015 144.862 58.2404 147.399C59.3794 150.143 60.8462 153.163 62.4856 156.286C69.6298 170.299 77.1709 180.86 82.9519 189.505C83.1762 189.833 83.4178 190.161 83.6594 190.472C87.4904 196.011 93.8753 198.651 100.329 198.565C106.766 198.669 113.168 196.011 116.999 190.472C117.241 190.161 117.482 189.833 117.707 189.505C119.588 186.675 121.676 183.655 123.85 180.359C118.846 179.548 114.066 174.682 118.69 165.743Z" fill="#032663"/>
<path d="M99.898 198.859C93.0816 198.859 86.9038 195.805 83.3317 190.628C83.0901 190.317 82.8485 189.989 82.6241 189.644C81.7958 188.401 80.9157 187.107 80.0184 185.778C74.7724 178.03 68.2666 168.401 62.1405 156.39C60.3976 153.077 58.9653 150.074 57.8782 147.486C56.722 144.915 55.6003 142.24 54.5476 139.548L54.4441 139.272L54.7202 139.151C58.6374 137.477 68.491 134.82 75.3246 146.174C83.8839 160.377 91.1834 162.931 103.246 155.959C109.665 152.249 115.308 153.232 118.052 155.855C120.571 158.271 120.899 162.016 118.898 165.882C116.879 169.799 116.516 173.267 117.862 175.925C118.949 178.065 121.175 179.601 123.816 180.032L124.299 180.101L124.023 180.498C122.798 182.344 121.607 184.105 120.451 185.796C119.553 187.124 118.69 188.401 117.862 189.627C117.638 189.972 117.396 190.3 117.155 190.61C113.531 195.856 107.232 198.945 100.243 198.824C100.122 198.859 100.002 198.859 99.898 198.859ZM100.243 198.238C107.025 198.341 113.134 195.373 116.654 190.282C116.896 189.955 117.137 189.644 117.344 189.316C118.173 188.074 119.036 186.797 119.933 185.468C121.003 183.897 122.09 182.258 123.229 180.567C120.589 180.015 118.397 178.41 117.293 176.218C116.292 174.234 115.653 170.782 118.345 165.605L118.621 165.743L118.345 165.605C120.209 161.999 119.95 158.53 117.621 156.321C115.032 153.854 109.683 152.956 103.556 156.511C91.2697 163.621 83.4697 160.912 74.7896 146.52C68.3529 135.855 59.1724 138.029 55.2379 139.634C56.256 142.223 57.3432 144.794 58.4476 147.279C59.5175 149.867 60.9498 152.836 62.6928 156.149C68.8016 168.125 75.3073 177.737 80.5361 185.468C81.4334 186.797 82.3135 188.091 83.1418 189.333C83.3662 189.661 83.5905 189.972 83.8321 190.3C87.3524 195.373 93.4958 198.358 100.243 198.238Z" fill="#10319B"/>
<path d="M100.536 198.859C100.416 198.859 100.312 198.859 100.191 198.859C93.254 198.962 86.9036 195.891 83.2797 190.627C83.0381 190.317 82.7965 189.989 82.5722 189.644C81.7439 188.401 80.8638 187.107 79.9664 185.778C74.7204 178.03 68.2147 168.401 62.0886 156.39C60.3457 153.077 58.9134 150.074 57.8262 147.486C55.6174 142.533 53.5983 137.443 51.8209 132.335C49.0253 124.31 50.2851 115.751 55.255 108.883C60.2076 102.049 67.8696 98.2182 76.3253 98.339L83.1071 98.4426H83.2452L100.191 98.7187L117.137 98.4426H117.223L124.074 98.339C132.53 98.201 140.192 102.049 145.145 108.883C150.115 115.751 151.374 124.31 148.579 132.335C146.801 137.443 144.782 142.55 142.573 147.503C141.504 150.092 140.071 153.094 138.311 156.408C132.185 168.401 125.662 178.047 120.433 185.796C119.536 187.124 118.656 188.419 117.827 189.661C117.603 190.006 117.362 190.334 117.12 190.645C113.548 195.804 107.37 198.859 100.536 198.859ZM100.191 198.238C106.973 198.341 113.082 195.373 116.602 190.282C116.844 189.954 117.085 189.644 117.292 189.316C118.121 188.073 119.001 186.779 119.898 185.45C125.127 177.719 131.633 168.09 137.742 156.131C139.484 152.835 140.9 149.85 141.987 147.279C144.196 142.343 146.215 137.253 147.975 132.162C150.701 124.328 149.476 115.975 144.627 109.28C139.795 102.619 132.288 98.874 124.074 98.9948L117.292 99.0983H117.206L100.208 99.3744L83.2452 99.0983H83.1071L76.308 98.9948C68.0939 98.874 60.5873 102.619 55.7554 109.28C50.9063 115.993 49.6811 124.328 52.4076 132.162C54.1678 137.253 56.1868 142.343 58.3957 147.279C59.4656 149.867 60.8979 152.835 62.6408 156.149C68.7496 168.125 75.2554 177.737 80.4841 185.468C81.3815 186.796 82.2616 188.091 83.0899 189.333C83.3142 189.661 83.5386 189.972 83.7802 190.3C87.3178 195.373 93.4611 198.358 100.191 198.238Z" fill="#10319B"/>
<path d="M140.14 107.71C135.774 103.931 130.218 101.653 124.005 101.773L117.189 101.894C117.137 101.894 117.102 101.894 117.051 101.894L100.018 102.188L82.9862 101.894C82.9344 101.894 82.8999 101.894 82.8481 101.894L76.0317 101.773C66.5751 101.618 61.4327 108.417 56.9804 116.2C55.9796 117.96 56.9632 120.238 58.8787 120.618C75.0136 123.81 111.718 127.382 140.14 107.71Z" fill="#E26907"/>
<path d="M95.7731 153.231C94.151 153.231 92.5116 152.834 91.0103 152.023C87.8178 150.297 85.8506 147.105 85.7298 143.481L85.1085 122.704C85.005 119.08 86.7824 115.767 89.8714 113.868C92.9603 111.953 96.705 111.849 99.8975 113.575L118.345 123.498C121.434 125.154 123.384 128.226 123.574 131.729C123.763 135.232 122.141 138.494 119.259 140.461C119.173 140.53 119.07 140.582 118.983 140.651L118.862 140.72L101.054 151.729C99.4143 152.713 97.5851 153.231 95.7731 153.231ZM95.1346 113.592C93.547 113.592 91.9422 114.041 90.5099 114.921C87.8006 116.595 86.2475 119.494 86.351 122.669L86.9723 143.446C87.0758 146.622 88.8015 149.417 91.597 150.918C94.3926 152.42 97.6886 152.333 100.381 150.66L118.31 139.581C118.397 139.529 118.483 139.477 118.552 139.426C121.071 137.7 122.486 134.853 122.314 131.781C122.158 128.726 120.45 126.034 117.741 124.585L99.2935 114.662C97.982 113.937 96.5497 113.592 95.1346 113.592Z" fill="#F89E1C"/>
<path d="M95.687 153.388C94.0822 153.388 92.4601 152.991 90.9587 152.18C87.7835 150.471 85.8335 147.313 85.73 143.707L85.0915 122.412C84.9879 118.823 86.7481 115.544 89.8025 113.646C92.857 111.747 96.5844 111.644 99.7596 113.352L118.656 123.534C121.71 125.173 123.643 128.228 123.833 131.696C124.022 135.165 122.418 138.409 119.57 140.359C119.484 140.428 119.38 140.48 119.294 140.549L119.173 140.618L100.916 151.904C99.2937 152.887 97.499 153.388 95.687 153.388ZM95.0313 112.783C93.3401 112.783 91.649 113.249 90.1304 114.198C87.2658 115.975 85.6092 119.047 85.7127 122.412L86.3512 143.707C86.4548 147.072 88.284 150.04 91.2521 151.645C94.2202 153.25 97.7061 153.146 100.588 151.369L118.949 140.014C119.035 139.962 119.122 139.893 119.208 139.841C121.883 138.012 123.384 134.992 123.211 131.731C123.039 128.486 121.227 125.622 118.362 124.086L99.4662 113.905C98.0685 113.163 96.5499 112.783 95.0313 112.783Z" fill="#10319B"/>
<path d="M138.709 45.5325L138.364 44.3418C148.752 41.3219 149.356 24.4449 149.356 24.2723L150.598 24.3069C150.581 25.0316 149.96 42.271 138.709 45.5325Z" fill="#F4B821"/>
<path d="M139.726 44.6877L139.605 44.0838C149.338 42.0647 150.391 24.7391 150.408 24.5665L151.029 24.601C150.977 25.3258 149.925 42.5652 139.726 44.6877Z" fill="#10319B"/>
<path d="M96.9295 148.451C95.687 148.451 94.4446 148.141 93.2884 147.519C90.8379 146.208 89.3366 143.775 89.2503 140.996L88.7844 125.431C88.6981 122.653 90.0614 120.133 92.4255 118.684C94.7897 117.217 97.6543 117.148 100.087 118.459L113.893 125.897C116.257 127.174 117.741 129.521 117.879 132.196C118.017 134.87 116.792 137.373 114.583 138.874C114.514 138.926 114.445 138.96 114.376 139.012L114.29 139.064L100.95 147.312C99.7078 148.054 98.3273 148.451 96.9295 148.451ZM96.4463 118.77C95.2729 118.77 94.1167 119.098 93.064 119.736C91.0968 120.962 89.9578 123.067 90.0269 125.396L90.4928 140.962C90.5618 143.292 91.8215 145.328 93.8751 146.432C95.9114 147.537 98.3273 147.468 100.295 146.242L113.703 137.942C113.772 137.908 113.824 137.856 113.875 137.821C115.722 136.562 116.74 134.473 116.619 132.247C116.499 130.021 115.256 128.054 113.289 126.984L99.4835 119.547C98.5344 119.029 97.499 118.77 96.4463 118.77Z" fill="#F89E1C"/>
<path d="M113.911 138.34C113.98 138.305 114.049 138.253 114.1 138.219C118.294 135.354 118 129.021 113.479 126.588L99.9845 119.306C95.308 116.786 89.6823 120.272 89.8376 125.587L90.2863 140.79C90.4416 146.088 96.2916 149.228 100.796 146.45L113.842 138.391C113.859 138.374 113.893 138.357 113.911 138.34Z" fill="#032663"/>
<path d="M108.268 135.992C108.302 135.975 108.337 135.94 108.371 135.923C110.735 134.318 110.563 130.746 108.009 129.365L100.398 125.276C97.7582 123.861 94.583 125.828 94.6865 128.813L94.9454 137.39C95.0317 140.375 98.3277 142.153 100.864 140.582L108.216 136.044C108.233 136.026 108.25 136.009 108.268 135.992Z" fill="#33FCFE"/>
<path d="M50.3996 19.7922C53.9267 17.3055 58.1417 15.1892 62.7976 13.4256L62.4977 13.4962C62.4977 13.4962 77.4529 5.22498 99.7623 5.22498C122.001 5.22498 137.133 13.2493 137.221 13.3022C142.018 15.0834 146.321 17.235 149.936 19.7745C167.343 32.0315 165.914 58.3618 158.278 83.1754C152.758 101.234 126.463 109.453 100.186 109.047C73.9081 109.453 47.6131 101.234 42.0578 83.1754C34.4215 58.3794 32.993 32.0491 50.3996 19.7922Z" fill="#F89E1C"/>
<path d="M50.3992 19.8809C52.251 18.5758 54.2967 17.3766 56.4836 16.2655C39.4297 28.6635 40.8758 54.8527 48.4592 79.5429C54.0145 97.6373 80.2919 105.856 106.587 105.468C121.525 105.697 136.462 103.122 147.608 97.5491C136.268 105.803 118.227 109.612 100.168 109.33C73.8901 109.735 47.5951 101.5 42.0398 83.4052C34.4211 58.5563 32.9926 32.173 50.3992 19.8809Z" fill="#F5851F"/>
<path d="M58.5295 41.9605C47.8598 39.7384 47.1544 22.7374 47.1191 21.9967L48.3889 21.9614C48.3889 22.1201 49.0944 38.6978 58.7764 40.7083L58.5295 41.9605Z" fill="#F89E1C"/>
<path d="M100.554 20.3397C94.5755 20.3397 89.0202 18.3821 85.7752 15.0842C85.6694 14.9784 85.5636 14.8726 85.4578 14.7491L79.6379 8.1886L81.0664 6.91882L86.8863 13.4617C86.9568 13.5499 87.045 13.6381 87.1332 13.7263C90.29 16.936 95.9687 18.6996 101.983 18.3821C107.82 18.0647 112.899 15.8426 115.562 12.4741L119.724 7.18336L121.223 8.36496L117.061 13.6557C114.081 17.4651 108.473 19.9341 102.088 20.2868C101.559 20.3221 101.065 20.3397 100.554 20.3397Z" fill="#F4B821"/>
<path d="M100.519 27.2359C92.601 27.2359 85.4232 24.5729 80.8555 19.9171C80.6968 19.7583 80.5204 19.582 80.3617 19.4056L80.1853 19.2116L72.1963 10.235L73.6248 8.96521L81.7725 18.1358C81.9136 18.2946 82.0547 18.4533 82.2134 18.5944C86.4284 22.8623 93.1124 25.3313 100.519 25.3313C101.119 25.3313 101.736 25.3136 102.354 25.2784C110.254 24.8375 117.044 21.7336 120.959 16.7426L126.903 9.17684L128.402 10.3584L122.458 17.9242C118.208 23.3384 110.907 26.7069 102.459 27.183C101.824 27.2183 101.172 27.2359 100.519 27.2359Z" fill="#F4B821"/>
<path d="M148.948 24.4304C145.333 21.8732 141.029 19.6864 136.233 17.9051C136.127 17.8522 120.96 8.61106 98.7211 8.61106C84.0834 8.59342 71.2974 11.0448 64.2078 12.7202C68.7049 10.6039 81.8612 5.22498 99.7793 5.22498C122.018 5.22498 137.15 13.3198 137.238 13.3727C142.035 15.1716 146.338 17.3408 149.953 19.898C165.473 30.9204 166.019 53.2297 160.535 75.6625C164.873 54.817 163.427 34.7121 148.948 24.4304Z" fill="#F4B821"/>
<path d="M121.702 17.2701L127.645 9.70436C125.564 9.0342 123.148 8.3464 120.449 7.71151L116.287 13.0023C113.466 16.6 108.122 18.9279 102.02 19.2806C95.7417 19.6333 89.7808 17.7463 86.4476 14.3426C86.3418 14.2368 86.2536 14.1486 86.1654 14.0428L80.3456 7.49988C77.5768 8.11713 75.0901 8.82257 72.9209 9.51036L80.9099 18.487L81.0863 18.681C81.245 18.8397 81.3861 19.0161 81.5448 19.1748C85.9362 23.6367 92.9199 26.1939 100.521 26.1939C101.138 26.1939 101.773 26.1762 102.408 26.141C110.573 25.7177 117.61 22.4727 121.702 17.2701Z" fill="#032663"/>
<path d="M59.5698 41.7486C49.147 39.5794 48.0007 22.1375 47.9478 21.3968L48.5826 21.3616C48.6003 21.5379 49.7466 39.068 59.6932 41.1313L59.5698 41.7486Z" fill="#10319B"/>
<path d="M100.044 108.819C87.0466 109.013 74.0666 107.215 63.3087 103.264C60.8044 100.583 58.8116 97.1269 57.6476 93.1059C54.6671 82.7889 51.3163 68.3628 50.0289 52.1555C49.394 44.1841 53.8912 36.9534 60.3459 35.4014C69.1462 33.2851 82.7258 30.8338 98.8449 30.5869V30.5692C99.3035 30.5692 99.7444 30.5869 100.203 30.5869C100.661 30.5869 101.102 30.5692 101.561 30.5692V30.5869C117.68 30.8338 130.942 32.8795 139.742 34.9958C146.197 36.5478 151.012 44.1841 150.377 52.1555C149.089 68.3628 145.739 82.7889 142.758 93.1059C141.612 97.0387 139.69 100.425 137.256 103.105C126.374 107.162 113.201 109.013 100.044 108.819Z" fill="#032663"/>
<path d="M144.927 99.0852L142.37 100.478C142.846 99.0676 143.64 96.6867 144.169 95.0113C145.58 90.6024 147.185 85.5938 148.613 82.243C150.924 76.8288 157.343 72.7373 161.558 70.6915L160.835 73.4604C156.902 75.3827 152.44 78.1162 150.359 83.0013C148.966 86.2816 147.379 91.2373 145.968 95.611C145.456 97.2687 145.403 97.6744 144.927 99.0852Z" fill="#F4B821"/>
<path d="M56.2184 99.4895C56.0773 99.4895 55.9539 99.4014 55.9186 99.2779C55.4954 98.0258 55.0545 96.6502 54.5959 95.2569C53.2203 91.0067 51.6507 86.1745 50.187 82.7355C48.053 77.7446 43.4677 74.9757 39.2527 72.9123C39.094 72.8418 39.0235 72.6478 39.1117 72.4891C39.1822 72.3303 39.3762 72.2598 39.5349 72.348C43.8557 74.4466 48.5645 77.3037 50.7866 82.4886C52.268 85.9629 53.8376 90.7951 55.2132 95.0629C55.6717 96.4562 56.1126 97.8141 56.5182 99.0839C56.5711 99.2426 56.483 99.4366 56.3242 99.4895C56.289 99.4895 56.2537 99.4895 56.2184 99.4895Z" fill="#F89E1C"/>
<path d="M161.047 73.3712C160.289 76.6515 159.407 79.9494 158.402 83.212C156.338 89.9489 151.453 95.3102 144.769 99.4017C146.498 94.2344 147.944 88.4675 149.884 83.8998C152.194 78.5209 157.326 75.1701 161.047 73.3712Z" fill="#032663"/>
<path d="M156.513 83.6179C157.219 81.7132 157.871 79.8085 158.488 77.8862C156.513 79.156 154.485 80.9901 153.251 83.5473C151.928 86.2633 150.764 89.6141 149.565 92.8061C152.704 90.39 155.12 87.339 156.513 83.6179Z" fill="#0E51A0"/>
<path d="M145.174 99.3661L144.574 99.1721C145.174 97.3908 145.738 95.5038 146.285 93.6873C147.326 90.2307 148.419 86.6683 149.689 83.6525C151.982 78.256 157.114 74.8699 160.993 72.9652L161.276 73.5296C157.484 75.3813 152.511 78.6616 150.271 83.8818C149.001 86.8622 147.925 90.4071 146.885 93.846C146.338 95.6978 145.774 97.5848 145.174 99.3661Z" fill="#10319B"/>
<path d="M39.2537 73.3712C40.012 76.6515 40.8938 79.9494 41.899 83.212C43.9624 89.9489 48.8476 95.3102 55.5315 99.4017C53.8032 94.2344 52.3571 88.4675 50.4171 83.8998C48.1245 78.5209 42.9748 75.1701 39.2537 73.3712Z" fill="#032663"/>
<path d="M101.913 109.33C101.331 109.33 100.75 109.33 100.185 109.313C77.0293 109.665 47.8596 103.052 41.7576 83.2468C36.2905 65.5052 30.1356 33.6549 50.2228 19.5109L50.3992 19.7755L50.2228 19.5109C53.7324 17.0419 62.2505 13.2855 62.6208 13.1267C62.7443 13.0562 77.6466 4.90845 99.7795 4.90845C121.983 4.90845 137.238 12.9328 137.397 13.0209C142.317 14.8374 146.62 17.0243 150.147 19.5109C170.235 33.6549 164.08 65.5052 158.613 83.2292C152.652 102.558 124.752 109.33 101.913 109.33ZM100.168 108.678C100.732 108.678 101.314 108.695 101.896 108.695C124.523 108.695 152.14 102.047 157.995 83.0528C163.41 65.4876 169.529 33.9547 149.777 20.04C146.285 17.5886 142.035 15.4194 137.132 13.6029C136.938 13.4971 121.807 5.56097 99.7795 5.56097C77.8229 5.56097 63.0441 13.6206 62.903 13.7087C62.7972 13.7616 54.0674 17.6063 50.5932 20.04C30.8234 33.937 36.9607 65.4876 42.3572 83.0528C48.3534 102.523 77.2586 109.03 100.168 108.678Z" fill="#10319B"/>
<path d="M100.186 106.031C89.0398 106.19 77.9115 104.796 68.4235 101.745C66.9597 101.269 65.637 100.387 64.7199 99.1529C63.1503 97.0719 61.9158 94.6205 61.0869 91.887C58.3358 82.6105 55.2495 69.6129 54.0679 55.0281C53.4859 47.8503 57.6303 41.3427 63.5736 39.9494C71.6861 38.0448 84.2075 35.8403 99.0745 35.611V35.5934C99.4978 35.5934 99.9034 35.5934 100.327 35.611C100.75 35.611 101.156 35.5934 101.579 35.5934V35.611C116.446 35.8403 128.95 38.0448 137.08 39.9494C143.041 41.3427 147.167 47.8503 146.586 55.0281C145.386 69.6129 142.318 82.6105 139.566 91.887C138.755 94.6029 137.538 97.019 135.986 99.0824C135.105 100.264 133.87 101.111 132.477 101.569C122.848 104.761 111.525 106.207 100.186 106.031Z" fill="#FCE8CA"/>
<path d="M72.4591 74.5124C72.3202 74.5045 72.1814 74.4965 72.0373 74.4585C71.0164 74.2099 70.3764 73.1711 70.6087 72.1426C71.7842 66.9051 76.0242 63.5579 81.4091 63.6099C86.6552 63.6539 91.2571 67.3471 92.3639 72.3614C92.5927 73.4063 91.9438 74.411 90.9128 74.6281C89.8817 74.8452 88.8788 74.176 88.6501 73.131C88.0366 70.3244 85.3537 67.4737 81.4209 67.4288C77.8103 67.3924 75.0843 69.5299 74.3047 73.0157C74.0958 73.9166 73.3139 74.5101 72.4591 74.5124Z" fill="#0E51A0"/>
<path d="M109.935 74.6043C109.797 74.5963 109.658 74.5884 109.514 74.5503C108.493 74.3017 107.853 73.263 108.085 72.2345C109.26 66.997 113.501 63.6498 118.885 63.7018C124.131 63.7459 128.733 67.439 129.84 72.4532C130.069 73.4982 129.423 74.5179 128.392 74.735C127.361 74.9521 126.343 74.2853 126.114 73.2403C125.501 70.4338 122.818 67.5831 118.885 67.5382C115.274 67.5018 112.548 69.6392 111.769 73.1251C111.575 74.0234 110.808 74.6145 109.935 74.6043Z" fill="#0E51A0"/>
<path d="M95.5196 79.7938C94.734 79.8174 94.0979 81.1892 94.2409 82.6711C94.7636 87.3899 96.9539 90.7939 99.663 90.8096C102.372 90.8254 104.785 87.3409 105.582 82.628C105.83 81.1678 105.289 79.7979 104.471 79.7527L95.5196 79.7938Z" fill="#032663"/>
<path d="M75.6529 56.3843C75.7422 56.3694 75.8411 56.3219 75.92 56.2468C77.0767 55.2336 78.6006 54.839 80.1126 55.1728C80.4457 55.2405 80.7619 55.0329 80.829 54.7126C80.8935 54.3771 80.6851 54.0566 80.3668 53.9863C78.4892 53.5747 76.5838 54.0643 75.1335 55.3277C74.882 55.5553 74.855 55.9308 75.0829 56.1863C75.2059 56.3666 75.4324 56.4368 75.6529 56.3843Z" fill="#032663"/>
<path d="M122.945 56.5357C122.851 56.5207 122.766 56.4732 122.676 56.3958C121.52 55.3716 119.994 54.9488 118.488 55.2625C118.164 55.3322 117.837 55.1248 117.763 54.7828C117.691 54.4557 117.894 54.1288 118.234 54.0566C120.108 53.6657 122.017 54.1785 123.463 55.4625C123.715 55.6824 123.735 56.0643 123.519 56.3164C123.384 56.5085 123.151 56.5783 122.945 56.5357Z" fill="#032663"/>
<path d="M98.0683 108.96C85.2118 108.96 73.1842 107.038 63.1846 103.369L63.1141 103.352L63.0612 103.299C60.4511 100.495 58.4759 96.9323 57.3295 92.9995C54.596 83.5114 51.0336 68.6796 49.6932 51.9079C49.0407 43.7425 53.5731 36.3884 60.2571 34.7835C69.2337 32.632 109.091 26.3183 140.112 34.7835C146.761 36.6 151.293 43.9542 150.658 51.9079C149.318 68.6796 145.773 83.5114 143.022 92.9995C141.911 96.8617 139.971 100.371 137.449 103.14L137.396 103.193L137.326 103.228C126.885 107.143 113.641 109.189 100.026 108.978C99.3734 108.96 98.7209 108.96 98.0683 108.96ZM100.044 108.307C113.553 108.519 126.674 106.491 137.044 102.629C139.477 99.9303 141.347 96.5443 142.422 92.8055C145.156 83.3526 148.701 68.5562 150.024 51.8374C150.641 44.1834 146.302 37.1115 139.936 35.3832C109.038 26.9532 69.3396 33.2492 60.3982 35.3832C54.0316 36.9175 49.6932 43.9894 50.3281 51.8374C51.6684 68.5562 55.1956 83.3526 57.9292 92.8055C59.0402 96.6324 60.9449 100.089 63.4668 102.805C73.7485 106.544 86.7285 108.519 100.044 108.307Z" fill="#10319B"/>
<path d="M55.2487 99.1541C54.6667 97.4258 54.12 95.627 53.5909 93.881C52.5504 90.4597 51.457 86.9325 50.1696 83.8991C47.9474 78.6789 42.9565 75.381 39.1648 73.5469L39.447 72.9825C43.3269 74.8696 48.4412 78.2557 50.7515 83.6699C52.0566 86.7209 53.15 90.2833 54.1905 93.7047C54.7196 95.4506 55.2663 97.2495 55.8483 98.9601L55.2487 99.1541Z" fill="#10319B"/>
<path d="M151.718 73.2299L159.883 68.4682C159.883 68.4682 162.211 45.0126 154.628 34.3429L152.441 41.0621C152.441 41.0621 155.951 46.1589 151.718 73.2299Z" fill="#F4B821"/>
<path d="M142.746 113.561C140.641 115.959 128.371 122.051 128.371 122.051C128.371 122.051 132.582 125.209 132.651 131.887C132.703 136.874 127.992 141.344 127.992 141.344C132.237 145.675 130.632 153.32 127.491 159.118C124.351 164.916 127.129 166.607 127.129 166.607C127.129 166.607 145.49 139.169 147.095 123.759C147.751 117.495 142.746 113.561 142.746 113.561Z" fill="#F4B821"/>
<path d="M59.7927 142.585C59.7927 142.585 64.5555 141.791 67.1095 145.018C69.6635 148.245 84.8493 176.874 91.9245 187.107C93.2015 188.953 96.4803 195.286 100.121 194.027C100.121 194.027 95.048 196.909 87.5759 189.385C80.121 181.844 64.1759 151.662 59.7927 142.585Z" fill="#0E51A0"/>
<path d="M36.4389 120.291C41.7445 109.295 56.2075 84.3122 85.4018 65.1165C88.2362 63.2612 91.9457 65.6762 91.4061 69.0381L90.9862 71.6617C86.7187 98.282 66.3348 119.448 39.8667 124.742C37.3549 125.226 35.3099 122.63 36.4389 120.291Z" fill="#F5851F"/>
<path d="M39.8839 124.71C37.3553 125.225 35.3032 122.605 36.4322 120.266C41.0856 110.583 52.8466 90.0979 75.4883 72.2456C57.6195 90.4796 47.5588 115.12 44.4538 123.616C42.9391 124.039 41.4341 124.407 39.8839 124.71Z" fill="#F89E1C"/>
<path d="M78.5774 69.847C78.5774 69.847 90.0583 73.8895 83.9847 91.5173C83.9847 91.5173 94.5323 72.121 90.5398 65.6768C90.5398 65.6768 87.3886 61.4563 78.5774 69.847Z" fill="#032663"/>
<path d="M45.6657 123.752C43.7991 124.305 41.9042 124.763 39.988 125.148C38.6364 125.419 37.2634 124.915 36.416 123.812C35.5756 122.734 35.4346 121.292 36.0053 120.055C40.9113 109.906 55.4939 84.1856 85.1482 64.6974C86.6096 63.7436 88.4266 63.7257 89.9104 64.6917C91.3942 65.6577 92.1513 67.3337 91.8562 69.0612L91.4364 71.6848C87.4763 96.4438 69.4046 116.716 45.6657 123.752ZM86.5814 65.0536C86.2703 65.1458 85.9494 65.293 85.6428 65.488C56.1826 84.8405 41.7082 110.399 36.8359 120.486C36.3857 121.426 36.485 122.464 37.1445 123.284C37.7801 124.111 38.7781 124.492 39.8044 124.266C65.9065 119.055 86.3384 97.8744 90.5403 71.5598L90.9601 68.9363C91.1798 67.5695 90.601 66.2312 89.4106 65.4646C88.5446 64.9143 87.5147 64.777 86.5814 65.0536Z" fill="#10319B"/>
<path d="M84.6779 91.8335L83.811 91.5437C89.2306 75.0469 78.5074 70.3112 78.3904 70.2678L78.7422 69.4346C78.8592 69.478 90.3774 74.5248 84.6779 91.8335Z" fill="#10319B"/>
<path d="M72.7092 107.928L71.876 107.576C82.6785 82.0127 71.6946 75.8704 71.5944 75.796L72.0322 74.9894C72.5047 75.2659 83.8368 81.6174 72.7092 107.928Z" fill="#10319B"/>
<path d="M163.698 120.291C158.392 109.295 143.929 84.3122 114.735 65.1165C111.9 63.2612 108.191 65.6762 108.73 69.0381L109.15 71.6617C113.418 98.282 133.802 119.448 160.27 124.742C162.782 125.226 164.827 122.63 163.698 120.291Z" fill="#F5851F"/>
<path d="M160.253 124.71C162.782 125.225 164.834 122.605 163.705 120.266C159.051 110.583 147.29 90.0979 124.649 72.2456C142.517 90.4796 152.578 115.12 155.683 123.616C157.198 124.039 158.703 124.407 160.253 124.71Z" fill="#F89E1C"/>
<path d="M121.559 69.847C121.559 69.847 110.078 73.8895 116.152 91.5173C116.152 91.5173 105.604 72.121 109.597 65.6768C109.597 65.6768 112.748 61.4563 121.559 69.847Z" fill="#032663"/>
<path d="M154.471 123.752C156.338 124.305 158.232 124.763 160.149 125.148C161.5 125.419 162.873 124.915 163.721 123.812C164.561 122.734 164.702 121.292 164.131 120.055C159.225 109.906 144.643 84.1856 114.989 64.6974C113.527 63.7436 111.71 63.7257 110.226 64.6917C108.743 65.6577 107.985 67.3337 108.28 69.0612L108.7 71.6848C112.66 96.4438 130.732 116.716 154.471 123.752ZM113.555 65.0536C113.866 65.1458 114.187 65.293 114.494 65.488C143.954 84.8405 158.429 110.399 163.301 120.486C163.751 121.426 163.652 122.464 162.992 123.284C162.357 124.111 161.359 124.492 160.332 124.266C134.23 119.055 113.798 97.8744 109.596 71.5598L109.177 68.9363C108.957 67.5695 109.536 66.2312 110.726 65.4646C111.592 64.9143 112.622 64.777 113.555 65.0536Z" fill="#10319B"/>
<path d="M115.459 91.8335L116.326 91.5437C110.907 75.0469 121.63 70.3112 121.747 70.2678L121.395 69.4346C121.278 69.478 109.76 74.5248 115.459 91.8335Z" fill="#10319B"/>
<path d="M127.428 107.928L128.261 107.576C117.458 82.0127 128.442 75.8704 128.542 75.796L128.104 74.9894C127.632 75.2659 116.3 81.6174 127.428 107.928Z" fill="#10319B"/>
</g>
</svg>
