<svg width="64" height="64" viewBox="0 0 64 64" fill="none" xmlns="http://www.w3.org/2000/svg">
<rect x="6" y="6" width="52" height="52" rx="26" fill="#F6EEFF"/>
<path opacity="0.5" d="M18 16.9387C19.5067 16.9387 20.7288 18.2547 20.7288 19.8773C20.7288 18.2547 21.9508 16.9387 23.4575 16.9387C21.9508 16.9387 20.7288 15.6226 20.7288 14C20.7288 15.6226 19.5067 16.9387 18 16.9387Z" fill="#D4ABFF"/>
<path opacity="0.5" d="M45 41C46.1043 41 47 41.8957 47 43C47 41.8957 47.8957 41 49 41C47.8957 41 47 40.1043 47 39C47 40.1043 46.1043 41 45 41Z" fill="#D4ABFF"/>
<path opacity="0.5" d="M14 48.5C15.931 48.5 17.5 50.069 17.5 52C17.5 50.069 19.069 48.5 21 48.5C19.069 48.5 17.5 46.931 17.5 45C17.5 46.931 15.931 48.5 14 48.5Z" fill="#D4ABFF"/>
<path opacity="0.5" d="M44 18.6179C46.5478 18.6179 48.6179 20.688 48.6179 23.2358C48.6179 20.688 50.688 18.6179 53.2358 18.6179C50.688 18.6179 48.6179 16.5478 48.6179 14C48.6179 16.5478 46.5478 18.6179 44 18.6179Z" fill="#D4ABFF"/>
<path d="M22.5312 26C21.8599 26 21.2161 26.2739 20.7414 26.7615C20.2667 27.2491 20 27.9104 20 28.6V42.4667C20 43.1562 20.2667 43.8175 20.7414 44.3051C21.2161 44.7927 21.8599 45.0667 22.5312 45.0667H29.2812C29.9526 45.0667 30.5964 44.7927 31.0711 44.3051C31.5458 43.8175 31.8125 43.1562 31.8125 42.4667V28.6C31.8125 27.9104 31.5458 27.2491 31.0711 26.7615C30.5964 26.2739 29.9526 26 29.2812 26H22.5312ZM24.2188 40.7333C24.2188 40.5035 24.3076 40.283 24.4659 40.1205C24.6241 39.958 24.8387 39.8667 25.0625 39.8667H26.75C26.9738 39.8667 27.1884 39.958 27.3466 40.1205C27.5049 40.283 27.5938 40.5035 27.5938 40.7333C27.5938 40.9632 27.5049 41.1836 27.3466 41.3462C27.1884 41.5087 26.9738 41.6 26.75 41.6H25.0625C24.8387 41.6 24.6241 41.5087 24.4659 41.3462C24.3076 41.1836 24.2188 40.9632 24.2188 40.7333Z" fill="#A958FF"/>
<path fill-rule="evenodd" clip-rule="evenodd" d="M27.1458 19H41.5903C42.1796 19 42.7449 19.2391 43.1616 19.6646C43.5784 20.0901 43.8125 20.6673 43.8125 21.2691V38.5C43.8125 39.0523 43.3648 39.5 42.8125 39.5H33.8125V27.1364C33.8125 26.3045 33.4964 25.5068 32.9338 24.9186C32.3712 24.3304 31.6081 24 30.8125 24H23.8125V22.4036C23.8125 19.9065 25.8058 19 27.1458 19ZM33.8079 44.0382H42.678C43.3045 44.0382 43.8125 43.5302 43.8125 42.9036C43.8125 42.277 43.3045 41.7691 42.678 41.7691H33.8125V43.8636C33.8125 43.922 33.8109 43.9802 33.8079 44.0382ZM40.7948 28.6282C41.1251 28.8702 41.5903 28.6343 41.5903 28.2249V22.2691C41.5903 21.7168 41.1426 21.2691 40.5903 21.2691H38.1458C37.5935 21.2691 37.1458 21.7168 37.1458 22.2691V28.1687C37.1458 28.5883 37.6315 28.8213 37.9587 28.5587L39.0876 27.653C39.1935 27.5681 39.3431 27.5648 39.4526 27.645L40.7948 28.6282Z" fill="#A958FF"/>
</svg>
