<svg width="64" height="64" viewBox="0 0 64 64" fill="none" xmlns="http://www.w3.org/2000/svg">
<rect x="6" y="6" width="52" height="52" rx="26" fill="#E1F4FE"/>
<path opacity="0.3" d="M16 14.9387C17.5067 14.9387 18.7288 16.2547 18.7288 17.8773C18.7288 16.2547 19.9508 14.9387 21.4575 14.9387C19.9508 14.9387 18.7288 13.6226 18.7288 12C18.7288 13.6226 17.5067 14.9387 16 14.9387Z" fill="#007BE0"/>
<path opacity="0.3" d="M43 47C44.1043 47 45 47.8957 45 49C45 47.8957 45.8957 47 47 47C45.8957 47 45 46.1043 45 45C45 46.1043 44.1043 47 43 47Z" fill="#007BE0"/>
<path opacity="0.3" d="M15 47.6179C17.5478 47.6179 19.6179 49.688 19.6179 52.2358C19.6179 49.688 21.688 47.6179 24.2358 47.6179C21.688 47.6179 19.6179 45.5478 19.6179 43C19.6179 45.5478 17.5478 47.6179 15 47.6179Z" fill="#007BE0"/>
<path opacity="0.3" d="M44 21.6179C46.5478 21.6179 48.6179 23.688 48.6179 26.2358C48.6179 23.688 50.688 21.6179 53.2358 21.6179C50.688 21.6179 48.6179 19.5478 48.6179 17C48.6179 19.5478 46.5478 21.6179 44 21.6179Z" fill="#007BE0"/>
<path d="M39.7778 19H25.3333C23.9933 19 22 19.9065 22 22.4036L22 40.6345C22 43.1317 23.9933 44.0382 25.3333 44.0382H40.8655C41.492 44.0382 42 43.5302 42 42.9036C42 42.277 41.492 41.7691 40.8655 41.7691H25.3467C24.8333 41.7555 24.2222 41.549 24.2222 40.6345C24.2222 40.52 24.2322 40.4178 24.2489 40.3248C24.3733 39.6713 24.8978 39.5113 25.3467 39.5H41C41.5523 39.5 42 39.0523 42 38.5V21.2691C42 20.6673 41.7659 20.0901 41.3491 19.6646C40.9324 19.2391 40.3671 19 39.7778 19ZM39.7778 28.2249C39.7778 28.6343 39.3126 28.8702 38.9823 28.6282L37.6401 27.645C37.5306 27.5648 37.381 27.5681 37.2751 27.653L36.1462 28.5587C35.819 28.8213 35.3333 28.5883 35.3333 28.1687V22.2691C35.3333 21.7168 35.781 21.2691 36.3333 21.2691H38.7778C39.3301 21.2691 39.7778 21.7168 39.7778 22.2691V28.2249Z" fill="#0055B8"/>
</svg>
