<svg width="64" height="64" viewBox="0 0 64 64" fill="none" xmlns="http://www.w3.org/2000/svg">
<circle cx="32" cy="32" r="30.5" fill="white" stroke="#EFF7FF" stroke-width="3"/>
<rect x="6" y="6" width="52" height="52" rx="26" fill="#E1F4FE"/>
<path opacity="0.3" d="M16 16.9387C17.5067 16.9387 18.7288 18.2547 18.7288 19.8773C18.7288 18.2547 19.9508 16.9387 21.4575 16.9387C19.9508 16.9387 18.7288 15.6226 18.7288 14C18.7288 15.6226 17.5067 16.9387 16 16.9387Z" fill="#007BE0"/>
<path opacity="0.3" d="M43 43C44.1043 43 45 43.8957 45 45C45 43.8957 45.8957 43 47 43C45.8957 43 45 42.1043 45 41C45 42.1043 44.1043 43 43 43Z" fill="#007BE0"/>
<path opacity="0.3" d="M14 47.5C15.931 47.5 17.5 49.069 17.5 51C17.5 49.069 19.069 47.5 21 47.5C19.069 47.5 17.5 45.931 17.5 44C17.5 45.931 15.931 47.5 14 47.5Z" fill="#007BE0"/>
<path opacity="0.3" d="M45 28.6179C47.5478 28.6179 49.6179 30.688 49.6179 33.2358C49.6179 30.688 51.688 28.6179 54.2358 28.6179C51.688 28.6179 49.6179 26.5478 49.6179 24C49.6179 26.5478 47.5478 28.6179 45 28.6179Z" fill="#007BE0"/>
<path d="M41.76 32.72C41.6 32.72 41.44 32.7886 41.3143 32.9143L40.1714 34.0571L42.5143 36.4L43.6571 35.2571C43.9086 35.0171 43.9086 34.6171 43.6571 34.3771L42.1943 32.9143C42.1386 32.8544 42.0715 32.8064 41.9969 32.773C41.9223 32.7396 41.8417 32.7216 41.76 32.72ZM39.5086 34.72L32.5714 41.6457V44H34.9257L41.8514 37.0629L39.5086 34.72ZM39.4286 31.5657L31.3257 39.6571C30.8571 39.3714 30.2857 39.2 29.7143 39.2C28 39.2 26.6286 40.5714 26.6286 42.2857V44H22.2857C21.6795 44 21.0981 43.7592 20.6695 43.3305C20.2408 42.9019 20 42.3205 20 41.7143V37.3714H21.7143C23.4286 37.3714 24.8 36 24.8 34.2857C24.8 32.5714 23.4286 31.2 21.7143 31.2H20V26.8571C20 25.6 21.0286 24.5714 22.2857 24.5714H26.8571V22.8571C26.8571 22.0994 27.1582 21.3727 27.694 20.8368C28.2298 20.301 28.9565 20 29.7143 20C30.472 20 31.1988 20.301 31.7346 20.8368C32.2704 21.3727 32.5714 22.0994 32.5714 22.8571V24.5714H37.1429C37.7491 24.5714 38.3304 24.8122 38.7591 25.2409C39.1878 25.6696 39.4286 26.2509 39.4286 26.8571V31.5657Z" fill="#0055B8"/>
<mask id="path-8-inside-1_433_193" fill="white">
<path d="M32 0C38.7577 8.05852e-08 45.342 2.13936 50.8091 6.11146C56.2763 10.0836 60.3456 15.6845 62.4338 22.1115L59.5426 23.0509C57.6527 17.2344 53.97 12.1656 49.0223 8.57087C44.0745 4.97612 38.1158 3.04 32 3.04V0Z"/>
</mask>
<path d="M32 0C38.7577 8.05852e-08 45.342 2.13936 50.8091 6.11146C56.2763 10.0836 60.3456 15.6845 62.4338 22.1115L59.5426 23.0509C57.6527 17.2344 53.97 12.1656 49.0223 8.57087C44.0745 4.97612 38.1158 3.04 32 3.04V0Z" stroke="#0055B8" stroke-width="6" mask="url(#path-8-inside-1_433_193)"/>
</svg>
