<svg width="17" height="16" viewBox="0 0 17 16" fill="none" xmlns="http://www.w3.org/2000/svg">
<path d="M1.83337 7.33317V12.9998C1.83337 13.184 1.98254 13.3332 2.16671 13.3332H3.83337V6.66651H2.50004C2.13192 6.66651 1.83337 6.96505 1.83337 7.33317ZM9.33337 6.33317H8.83337V5.49984C8.83337 5.40776 8.75879 5.33317 8.66671 5.33317H8.33337C8.24129 5.33317 8.16671 5.40776 8.16671 5.49984V6.83317C8.16671 6.92526 8.24129 6.99984 8.33337 6.99984H9.33337C9.42546 6.99984 9.50004 6.92526 9.50004 6.83317V6.49984C9.50004 6.40776 9.42546 6.33317 9.33337 6.33317ZM12.2032 5.00067L8.86983 2.77838C8.7603 2.70543 8.63164 2.6665 8.50004 2.6665C8.36844 2.6665 8.23978 2.70543 8.13025 2.77838L4.79692 5.00067C4.70561 5.06154 4.63075 5.14401 4.57896 5.24075C4.52717 5.33749 4.50006 5.44552 4.50004 5.55526V13.3332H7.16671V10.3332C7.16671 10.149 7.31587 9.99984 7.50004 9.99984H9.50004C9.68421 9.99984 9.83337 10.149 9.83337 10.3332V13.3332H12.5V5.55546C12.5 5.33255 12.3886 5.12421 12.2032 5.00067ZM8.50004 7.99984C7.57962 7.99984 6.83337 7.25359 6.83337 6.33317C6.83337 5.41276 7.57962 4.66651 8.50004 4.66651C9.42046 4.66651 10.1667 5.41276 10.1667 6.33317C10.1667 7.25359 9.42046 7.99984 8.50004 7.99984ZM14.5 6.66651H13.1667V13.3332H14.8334C15.0175 13.3332 15.1667 13.184 15.1667 12.9998V7.33317C15.1667 6.96505 14.8682 6.66651 14.5 6.66651Z" fill="#0055B8"/>
</svg>
