<svg width="33" height="32" viewBox="0 0 33 32" fill="none" xmlns="http://www.w3.org/2000/svg">
<rect x="0.167969" width="32" height="32" rx="16" fill="#D6EBFF"/>
<path fill-rule="evenodd" clip-rule="evenodd" d="M9.16797 23C9.16797 22.4477 9.61568 22 10.168 22H22.168C22.7203 22 23.168 22.4477 23.168 23C23.168 23.5523 22.7203 24 22.168 24H10.168C9.61568 24 9.16797 23.5523 9.16797 23ZM12.4609 12.7071C12.0703 12.3166 12.0703 11.6834 12.4609 11.2929L15.4609 8.29289C15.6484 8.10536 15.9028 8 16.168 8C16.4332 8 16.6875 8.10536 16.8751 8.29289L19.8751 11.2929C20.2656 11.6834 20.2656 12.3166 19.8751 12.7071C19.4846 13.0976 18.8514 13.0976 18.4609 12.7071L17.168 11.4142L17.168 19C17.168 19.5523 16.7203 20 16.168 20C15.6157 20 15.168 19.5523 15.168 19L15.168 11.4142L13.8751 12.7071C13.4846 13.0976 12.8514 13.0976 12.4609 12.7071Z" fill="#0055B8"/>
</svg>
