<svg width="16" height="20" viewBox="0 0 16 20" fill="none" xmlns="http://www.w3.org/2000/svg">
<path d="M12.6671 0.706787H1.22046C0.887418 0.717244 0.572079 0.859193 0.34344 1.10158C0.114801 1.34396 -0.00852095 1.66704 0.000458105 2.00012V18.1001C-0.00319606 18.4298 0.122498 18.7477 0.350576 18.9858C0.578654 19.2238 0.890947 19.363 1.22046 19.3735H14.7805C14.9442 19.37 15.1056 19.3343 15.2556 19.2684C15.4055 19.2026 15.541 19.1078 15.6543 18.9895C15.7676 18.8713 15.8564 18.7319 15.9158 18.5793C15.9752 18.4267 16.004 18.2638 16.0005 18.1001V4.00012L12.6671 0.706787ZM10.6671 15.3335C10.4841 15.3343 10.3028 15.2992 10.1334 15.2299C9.96403 15.1607 9.80993 15.0588 9.67993 14.9301C9.54993 14.8013 9.44656 14.6482 9.37573 14.4795C9.3049 14.3108 9.268 14.1298 9.26713 13.9468V13.7468L5.51379 12.0001L5.46046 12.0535C5.26101 12.2411 5.01045 12.3656 4.74038 12.411C4.47031 12.4565 4.19282 12.421 3.94291 12.309C3.69299 12.1969 3.48186 12.0134 3.33612 11.7815C3.19038 11.5497 3.11657 11.2798 3.12399 11.006C3.13141 10.7323 3.21974 10.4668 3.37783 10.2432C3.53593 10.0195 3.7567 9.84773 4.01232 9.7494C4.26793 9.65108 4.54694 9.63065 4.81415 9.69069C5.08136 9.75074 5.32481 9.88856 5.51379 10.0868L9.27379 8.31345V8.16012C9.28193 7.78818 9.43503 7.43413 9.70046 7.17345C9.89827 6.98343 10.148 6.85634 10.418 6.80827C10.6881 6.76019 10.9663 6.79328 11.2176 6.90336C11.4688 7.01343 11.6818 7.19555 11.8295 7.42667C11.9772 7.65779 12.0531 7.92752 12.0475 8.20176C12.0419 8.476 11.9551 8.74242 11.798 8.96731C11.641 9.19221 11.4208 9.36549 11.1653 9.46522C10.9098 9.56496 10.6304 9.58667 10.3625 9.52761C10.0947 9.46856 9.85035 9.33139 9.66046 9.13346L5.88713 10.9001V11.1935L9.70046 12.9668C9.95499 12.7044 10.3017 12.5513 10.6671 12.5401C11.0375 12.5401 11.3928 12.6873 11.6547 12.9492C11.9166 13.2111 12.0638 13.5664 12.0638 13.9368C12.0638 14.3072 11.9166 14.6625 11.6547 14.9244C11.3928 15.1863 11.0375 15.3335 10.6671 15.3335ZM12.0005 4.66679V1.89345L14.8005 4.70679L12.0005 4.66679Z" fill="#0055B8"/>
</svg>
