<svg width="56" height="56" viewBox="0 0 56 56" fill="none" xmlns="http://www.w3.org/2000/svg">
<g clip-path="url(#clip0_917_74888)">
<path d="M11.2766 62.64C4.96318 59.3067 -1.44098 54.5364 -4.27584 47.9748C-7.0713 41.3672 -6.30395 32.9093 -3.45846 25.698C-0.61297 18.4868 -0.925088 8.16645 4.94736 5.04967C10.8198 1.93289 23.1713 3.03556 28.3229 6.01251C34.7101 9.70343 35.2953 18.0621 41.3664 21.0542C47.4374 24.0004 58.347 25.068 61.6682 30.2845C64.9894 35.501 64.2166 39.7465 60.3821 45.1467C56.5936 50.501 49.941 53.2306 44.4354 56.9117C38.8904 60.6322 34.4466 65.2581 29.133 66.5901C23.8194 67.9221 17.5901 65.9733 11.2766 62.64Z" fill="#FFCE00"/>
<path opacity="0.8" d="M35.6322 24.7824C39.0839 27.9824 42.3482 32.113 43.0339 36.7752C43.6866 41.4601 41.7547 46.7153 38.7122 50.822C35.6697 54.9287 34.1074 61.5541 29.8359 62.5369C25.5644 63.5196 17.887 60.7099 15.1143 57.935C11.6766 54.4947 12.7302 49.072 9.37462 46.1306C6.01117 43.2185 -0.75401 40.6771 -1.97891 36.7884C-3.20382 32.8997 -1.98723 30.328 1.37608 27.5433C4.70229 24.7801 9.40457 24.177 13.5387 22.7723C17.7047 21.3492 21.324 19.1616 24.935 19.22C28.5461 19.2784 32.1805 21.5824 35.6322 24.7824Z" fill="#FFE784"/>
<path opacity="0.8" d="M27.7331 45.2921C26.6877 49.8814 24.7427 54.7737 21.0478 57.6986C17.317 60.6063 11.7999 61.5608 6.72216 60.9792C1.64439 60.3977 -4.87451 62.3574 -7.86137 59.1496C-10.8482 55.9417 -12.2536 47.888 -11.2369 44.0994C-9.97632 39.4021 -4.75326 37.6032 -3.88377 33.2265C-3.04353 28.8576 -4.22519 21.7281 -1.46996 18.7229C1.28528 15.7178 4.12076 15.4855 8.214 17.0059C12.2702 18.5049 15.1436 22.2756 18.4272 25.1535C21.7426 28.0498 25.4468 30.0904 27.2017 33.2469C28.9566 36.4034 28.7785 40.7028 27.7331 45.2921Z" fill="#FFF7D7"/>
<path d="M17.0019 14.9502C17.0019 14.9502 13.5621 14.1367 10.9093 17.1255C8.25647 20.1144 9.29107 23.5453 8.11499 25.4377C6.97427 27.277 5.98389 28.0198 5.98389 28.0198C5.98389 28.0198 10.5556 30.9025 13.5533 30.929C16.5598 30.9644 15.8082 31.3358 15.8082 31.3358C15.8082 31.3358 21.1757 31.3004 24.2353 30.2747C24.2353 30.2747 22.7409 26.7553 23.0238 24.0671C23.298 21.3877 22.6967 18.0363 21.0254 16.8072" fill="#002E6D"/>
<path d="M4.69318 56.0776C4.69318 56.0776 3.1457 67.184 4.22452 73.6039C5.30333 80.0237 5.48019 84.9933 5.41829 87.6108C5.36523 90.1044 5.71894 102.926 6.48826 106.216C6.55016 106.472 6.77122 106.649 7.02766 106.676C7.97384 106.746 10.3437 106.817 12.2183 106.101C12.5102 105.986 12.7047 105.703 12.6959 105.393C12.6251 102.67 12.3068 89.6534 12.5102 88.6896C12.7401 87.6196 12.5632 87.1421 12.5632 86.3109C12.5632 85.4797 12.7931 68.4309 12.9611 68.4309C13.1291 68.4309 13.5271 68.4309 13.589 68.7846C13.642 69.1383 13.757 86.134 13.757 86.6115C13.757 87.089 13.9869 88.8134 13.9869 89.5827C13.9869 90.2547 13.8543 101.856 13.8277 104.863C13.8189 105.287 14.1107 105.65 14.5175 105.747C15.6405 106.012 17.9838 106.826 19.4871 106.481C19.8673 106.393 20.1414 106.066 20.1503 105.676C20.221 104.058 20.4598 99.1417 20.9727 94.9856C21.6005 89.9364 20.9019 87.1421 21.0169 86.6115C21.1318 86.081 21.2291 84.6927 21.0611 84.5689C20.8931 84.4539 23.1833 74.7976 23.5459 72.0299C25.1376 59.8799 21.5474 55.7681 21.5474 55.7681C21.5474 55.7681 21.3617 56.1483 13.474 56.3252C5.5863 56.4843 4.69318 56.0776 4.69318 56.0776Z" fill="#558AF0"/>
<path d="M26.2252 57.3248L27.702 56.8472C27.9407 56.7765 28.0734 56.5378 28.0026 56.3167C27.9407 56.1133 27.7196 55.9895 27.4897 56.0426L26.2341 56.3344C26.0837 56.3697 25.9511 56.4759 25.898 56.6173L25.7212 57.0948" fill="#F38F6F"/>
<path d="M5.66572 53.8672L5.36506 53.9379C4.7107 55.7153 2.72993 64.4077 4.14477 73.6484C5.26779 81.0055 5.40044 85.0909 5.34738 87.7083C5.29432 90.2108 5.83373 102.829 6.50578 106.154C6.64726 106.879 7.66418 106.738 7.66418 106.738C7.66418 106.738 6.28471 93.182 6.50578 89.1232C6.72685 85.0644 6.52346 79.3343 5.48002 72.4546C4.63996 66.9102 6.08133 57.6873 6.86833 54.4066C5.83373 54.159 5.87794 54.0794 5.66572 53.8672Z" fill="#EBF4FF"/>
<path d="M19.1331 54.937C19.8493 56.5022 21.892 61.2949 22.0688 65.6455C22.2899 70.9335 19.0269 82.4644 19.6017 84.852C20.1853 87.2395 19.3807 101.016 18.8766 103.988C18.3814 106.888 19.1065 106.481 19.1684 106.526C19.1684 106.526 20.2207 106.375 20.1853 105.579C20.1146 103.961 20.486 99.2745 21.0077 95.1007C21.6355 90.025 20.937 87.2218 21.0519 86.6913C21.1669 86.1607 21.2642 84.7635 21.0961 84.6397C20.9281 84.5248 23.2272 74.8243 23.5898 72.0477C24.9958 61.2065 21.3172 55.0254 21.158 54.7778C21.1492 54.7955 20.9193 54.8574 19.1331 54.937Z" fill="#EBF4FF"/>
<path d="M21.1582 54.769C21.1582 54.769 21.1582 54.769 21.167 54.7779C21.167 54.769 21.1582 54.769 21.1582 54.769Z" fill="#EBF4FF"/>
<path d="M4.69321 55.6621C4.69321 55.6621 3.25185 67.6617 4.13612 73.5156C5.10882 79.9531 5.48022 84.8166 5.41832 87.4341C5.36526 89.9012 5.67476 102.095 6.44407 106.083C6.51482 106.446 6.82431 106.72 7.19571 106.738C8.26568 106.791 10.5206 106.791 12.3068 106.075C12.5456 105.977 12.6959 105.739 12.687 105.482C12.6251 102.944 12.3068 89.6536 12.5102 88.6897C12.7401 87.6198 12.5632 87.1422 12.5632 86.311C12.5632 85.4798 12.7932 68.431 12.9612 68.431C13.1292 68.431 13.5271 68.431 13.589 68.7847C13.6421 69.1384 13.757 86.1342 13.757 86.6117C13.757 87.0892 13.9869 88.8135 13.9869 89.5828C13.9869 90.2549 13.8543 101.972 13.8278 104.907C13.8189 105.305 14.0842 105.668 14.4644 105.792C15.5786 106.154 17.9043 106.8 19.4341 106.534C19.8673 106.455 20.1945 106.075 20.2034 105.632C20.2564 103.926 20.451 99.1684 20.9462 95.1007C21.574 90.0515 20.9285 87.1246 21.0434 86.594C21.1584 86.0634 21.2822 84.5867 21.1142 84.4629C20.9462 84.3391 23.2276 74.559 23.6078 71.8001C25.0669 61.2596 21.8481 56.175 21.8481 56.175C21.8481 56.175 21.3795 56.1308 13.4829 56.3165C5.58633 56.4845 4.69321 55.6621 4.69321 55.6621Z" stroke="#1148B7" stroke-width="0.205417" stroke-miterlimit="10" stroke-linecap="round"/>
<path d="M12.9875 28.6831L12.4746 31.9461L11.6346 31.557C11.6346 31.557 10.4939 34.8907 13.9249 35.2709C17.3558 35.6512 18.3639 32.4943 18.3639 32.4943L17.3558 32.4766L17.4 29.2667" fill="#FBC6B6"/>
<path d="M-0.417891 54.7161L-0.453262 53.8319C-0.462105 53.6285 -0.302935 53.4516 -0.0907095 53.4428C0.103831 53.4339 0.271842 53.5754 0.29837 53.77L0.439855 54.8399C0.45754 54.9726 0.404483 55.1052 0.29837 55.1848L-0.0553391 55.4589" fill="#F38F6F"/>
<path d="M4.51636 50.9312L4.98503 52.3283L1.77512 56.0157C1.56289 56.2633 1.23571 56.3694 0.91737 56.2987L-0.0199594 56.0953C-0.267556 56.0423 -0.479782 55.8831 -0.594737 55.662L-1.41711 54.1234C-1.54091 53.8935 -1.42595 53.6105 -1.17836 53.5309C-0.966132 53.4602 -0.727378 53.5574 -0.621265 53.752L0.0596253 54.9546L2.32336 52.3371L4.51636 50.9312Z" fill="#FBC6B6"/>
<path d="M22.2635 51.3735L21.3262 53.1686L24.147 57.1655C24.3327 57.4308 24.651 57.5723 24.9694 57.5369L25.9244 57.4308C26.172 57.4043 26.4019 57.2628 26.5434 57.0594L27.5161 55.6181C27.6576 55.4058 27.578 55.114 27.3392 55.0079C27.1358 54.9195 26.8883 54.9814 26.7645 55.1671L25.9686 56.2989L23.979 53.4693L22.2635 51.3735Z" fill="#FBC6B6"/>
<path d="M12.059 31.6454C12.059 31.6454 8.37157 29.7176 6.61187 30.5577C4.85216 31.3978 -4.12321 39.1971 -5.21087 40.8772C-6.30737 42.5484 1.91638 52.6115 1.91638 52.6115L4.68415 50.9314L0.99673 42.9641L5.52421 39.8603C5.52421 39.8603 6.86831 46.9875 5.27661 50.6749C4.60457 52.2224 4.23317 53.2393 4.02979 53.9025C3.82641 54.548 3.86178 55.2466 4.1359 55.8568C4.33928 56.3077 4.72836 56.6526 5.20587 56.7941C6.44385 57.1655 9.0613 57.7845 12.2358 57.5457C16.6837 57.2097 20.2827 57.5457 20.2827 57.5457L22.0336 56.1928C22.3254 55.9717 22.4669 55.6092 22.405 55.2466C22.0336 53.0271 20.9283 45.0421 23.5103 42.239L29.5941 45.891C29.5941 45.891 24.0232 49.7553 22.2547 51.4265L24.3681 54.0352C24.3681 54.0352 32.5299 50.6661 33.874 48.7384C34.2896 48.1459 34.6433 47.633 34.944 47.1997C35.5453 46.3331 35.4745 45.1571 34.7671 44.37C33.1843 42.6103 30.3192 39.48 27.9229 37.0836C24.4034 33.5642 23.0594 32.2997 20.7956 32.2201C18.5319 32.1405 18.0278 32.4677 18.0278 32.4677C18.0278 32.4677 16.9137 34.7049 14.4819 34.3689C12.0413 34.0594 12.059 31.6454 12.059 31.6454Z" fill="#EBF4FF"/>
<path d="M12.059 31.7162C12.059 31.7162 8.37158 29.7884 6.61188 30.6285C4.85218 31.4686 -4.1232 39.2679 -5.21086 40.9391C-6.29851 42.6192 1.91639 52.6823 1.91639 52.6823L4.68416 51.0022L0.996743 43.0349L5.52422 39.9311C5.52422 39.9311 6.86832 47.0583 5.27663 50.7457C4.45425 52.6557 4.07401 53.7522 3.906 54.3712C3.79105 54.7868 3.82642 55.2378 4.00327 55.6357L4.29508 56.2813C4.39235 56.5023 4.57805 56.6703 4.79912 56.7411C5.78066 57.0683 8.65455 57.8906 12.2359 57.6165C15.7287 57.3512 18.6999 57.5016 19.8141 57.5812C20.1236 57.5988 20.4242 57.5104 20.663 57.3247L21.6976 56.5289C22.1928 56.1486 22.4315 55.5296 22.3431 54.9195C21.9275 52.2667 21.0697 44.9714 23.5192 42.3186L29.603 45.9706C29.603 45.9706 23.7933 49.9145 22.0336 51.5946L24.3062 54.1413C24.3062 54.1413 32.5388 50.7546 33.874 48.8268C34.2896 48.2344 34.6433 47.7215 34.944 47.2882C35.5453 46.4216 35.4746 45.2455 34.7671 44.4585C33.1843 42.6988 30.3193 39.5685 27.9229 37.1721C24.4035 33.6527 23.0594 32.3882 20.7956 32.3086C18.5319 32.229 18.0279 32.5562 18.0279 32.5562C18.0279 32.5562 16.8518 34.7757 14.42 34.4397C11.9706 34.1037 12.059 31.7162 12.059 31.7162Z" stroke="#191708" stroke-width="0.205417" stroke-miterlimit="10" stroke-linecap="round"/>
<path d="M1.47415 44.0163L0.262695 41.4873" stroke="#191708" stroke-width="0.205417" stroke-miterlimit="10" stroke-linecap="round"/>
<path d="M4.55176 36.0488C4.55176 36.0488 5.3476 38.7989 5.61289 40.5498" stroke="#191708" stroke-width="0.205417" stroke-miterlimit="10" stroke-linecap="round"/>
<path d="M24.1471 41.6196C24.1471 41.6196 23.4485 42.2828 22.918 43.1494" stroke="#191708" stroke-width="0.205417" stroke-miterlimit="10" stroke-linecap="round"/>
<path d="M11.2278 31.3975C11.2278 31.3975 10.8388 35.0584 14.031 35.5005C17.798 36.0222 19.1509 32.3878 19.1509 32.3878" stroke="#191708" stroke-width="0.205417" stroke-miterlimit="10"/>
<path d="M18.6736 55.8832L16.4541 53.8848" stroke="#191708" stroke-width="0.205417" stroke-miterlimit="10" stroke-linecap="round"/>
<path d="M19.6461 55.0432L19.4692 53.7964" stroke="#191708" stroke-width="0.205417" stroke-miterlimit="10" stroke-linecap="round"/>
<path d="M6.12549 55.397L6.97439 54.0176" stroke="#191708" stroke-width="0.205417" stroke-miterlimit="10" stroke-linecap="round"/>
<path d="M30.7349 45.2456L28.8779 46.4482" stroke="#191708" stroke-width="0.205417" stroke-miterlimit="10" stroke-linecap="round"/>
<path d="M22.8828 50.9404L25.2527 53.6905" stroke="#191708" stroke-width="0.205417" stroke-miterlimit="10" stroke-linecap="round"/>
<path d="M4.22425 50.0557L1.22656 51.7358" stroke="#191708" stroke-width="0.205417" stroke-miterlimit="10" stroke-linecap="round"/>
<path d="M10.2551 30.2392C10.2551 30.2392 9.3885 32.6356 12.1828 40.2139C14.9771 47.7921 13.2439 66.8393 12.6515 68.2365C12.6515 68.2365 5.45348 71.5525 2.8095 69.9962C2.8095 69.9962 0.430809 60.0569 1.27971 57.2626C1.53615 56.4137 3.91485 52.0896 3.91485 52.0896L1.72185 52.7971C1.72185 52.7971 -4.63608 47.2527 -6.16587 44.3965C-7.69566 41.5403 -6.36925 39.9397 -6.36925 39.9397C-6.36925 39.9397 -1.76219 35.5537 -0.117441 33.7587C1.52731 31.9636 4.69301 30.7256 5.73645 30.0359C6.77989 29.3461 10.2551 30.2392 10.2551 30.2392Z" fill="#F89E1C"/>
<path d="M28.3388 36.9512C28.3388 36.9512 23.0243 44.2641 19.16 46.0592C15.8529 47.5978 16.1181 59.5178 16.2596 62.8869C16.2773 63.3821 15.9413 68.3429 16.4365 68.3252C18.3642 68.281 23.5018 70.0937 25.2085 69.3244C25.2085 69.3244 25.0847 59.1818 25.0228 57.7228C24.952 56.2637 23.8113 54.8931 23.8113 54.8931C23.8113 54.8931 26.2696 55.0965 29.1965 53.832C32.1235 52.5674 35.581 50.905 36.1735 46.183C36.4299 44.273 30.9386 38.817 28.3388 36.9512Z" fill="#F89E1C"/>
<path d="M1.27966 36.5175C2.67681 34.3864 7.66411 33.2545 7.66411 33.2545C7.6199 31.6275 7.28387 30.416 7.0628 29.7705C6.51455 29.7705 6.0282 29.8412 5.73639 30.0358C4.69295 30.7255 1.52725 31.9635 -0.117495 33.7586C-1.7534 35.5537 -6.36046 39.9397 -6.36046 39.9397C-6.36046 39.9397 -7.68687 41.5313 -6.15708 44.3964C-4.62729 47.2526 1.73064 52.797 1.73064 52.797L3.00399 52.3814C2.70334 51.6828 1.88981 50.1088 0.421912 49.1449C-0.984083 48.2253 -3.37162 44.9093 -4.56539 43.1761C-4.9191 42.6632 -4.63613 41.9646 -4.02598 41.832C-4.03483 41.832 -0.117495 38.6398 1.27966 36.5175Z" fill="#EBF4FF"/>
<path d="M28.2681 41.7258C28.2681 41.7258 31.5222 44.9799 32.5922 46.5097C33.6621 48.0395 33.4588 51.2317 33.4588 51.2317C33.4588 51.2317 35.3246 49.702 35.6517 48.0395C35.6517 48.0395 34.0601 42.3006 28.834 39.2764" fill="#EBF4FF"/>
<path d="M10.1579 30.2393C10.1579 30.2393 9.29133 32.6357 12.0856 40.2139C14.8799 47.7921 13.1468 66.8394 12.5543 68.2365C12.5543 68.2365 5.35631 71.5526 2.71234 69.9962C2.71234 69.9962 0.598922 59.721 1.18254 57.2627C1.38593 56.405 3.81768 52.0897 3.81768 52.0897L1.62468 52.7971C1.62468 52.7971 -4.73325 47.2527 -6.26304 44.3965C-7.79283 41.5403 -6.46642 39.9398 -6.46642 39.9398C-6.46642 39.9398 -1.85936 35.5538 -0.214609 33.7587C1.43014 31.9636 4.59584 30.7257 5.63928 30.0359C6.67388 29.355 10.1579 30.2393 10.1579 30.2393Z" stroke="#D57E02" stroke-width="0.205417" stroke-miterlimit="10" stroke-linecap="round"/>
<path d="M28.2411 36.9507C28.2411 36.9507 22.9267 44.2636 19.0624 46.0587C15.7552 47.5973 16.0205 59.5173 16.162 62.8864C16.1797 63.3816 15.8436 68.3424 16.3388 68.3247C18.2665 68.2805 23.4042 70.0933 25.1108 69.3239C25.1108 69.3239 25.0224 59.0221 24.9605 57.5543C24.8986 56.0864 23.7137 54.8926 23.7137 54.8926C23.7137 54.8926 26.1719 55.096 29.0989 53.8315C32.0258 52.567 35.4833 50.9045 36.0758 46.1825C36.3234 44.2725 30.8321 38.8165 28.2411 36.9507Z" stroke="#D57E02" stroke-width="0.205417" stroke-miterlimit="10" stroke-linecap="round"/>
<path d="M7.39014 30.6548C7.39014 30.6548 8.40705 40.3199 7.83227 43.1496C7.83227 43.1496 11.5109 46.3418 12.572 49.6667" stroke="#D57E02" stroke-width="0.205417" stroke-miterlimit="10" stroke-linecap="round"/>
<path d="M23.7227 54.9018L23.7934 48.4731" stroke="#D57E02" stroke-width="0.205417" stroke-miterlimit="10" stroke-linecap="round"/>
<path d="M23.3423 42.9819C23.3423 42.9819 23.3423 45.3341 23.1655 45.6878C22.9886 46.0415 23.6518 47.8631 26.225 47.9958" stroke="#D57E02" stroke-width="0.205417" stroke-miterlimit="10" stroke-linecap="round"/>
<path d="M27.1889 46.6956C27.1889 46.6956 26.0482 46.2623 25.7122 46.616C25.3762 46.9697 25.3143 48.2077 24.9606 48.4553C24.6069 48.7029 24.1382 48.8797 24.1382 48.8797" stroke="#D57E02" stroke-width="0.205417" stroke-miterlimit="10" stroke-linecap="round"/>
<path d="M16.3564 53.4427C16.3564 53.4427 20.7424 45.6611 27.7901 42.6369C27.7901 42.6369 28.922 40.4439 28.922 38.9141" stroke="#D57E02" stroke-width="0.205417" stroke-miterlimit="10" stroke-linecap="round"/>
<path d="M21.7949 49.5869C21.7949 49.5869 22.1486 51.7622 24.3239 52.5139" stroke="#D57E02" stroke-width="0.205417" stroke-miterlimit="10" stroke-linecap="round"/>
<path d="M19.7788 52.9915C20.0087 53.7078 20.8753 56.0069 23.0771 57.4659C23.1656 57.519 23.2717 57.519 23.3601 57.4659L23.6784 57.2626C23.8465 57.1565 23.8376 56.9177 23.6696 56.8204C22.8914 56.3783 21.1671 55.1491 20.5835 52.7174C20.5481 52.5582 20.3801 52.4786 20.2298 52.5405L19.9291 52.6732C19.7965 52.7351 19.7346 52.8677 19.7788 52.9915Z" fill="#D57E02"/>
<path d="M7.08089 52.9915C6.85098 53.7078 5.98439 56.0069 3.78255 57.4659C3.69412 57.519 3.58801 57.519 3.49958 57.4659L3.18125 57.2626C3.01323 57.1565 3.02208 56.9177 3.19009 56.8204C3.96825 56.3783 5.69258 55.1491 6.2762 52.7174C6.31157 52.5582 6.47959 52.4786 6.62991 52.5405L6.93056 52.6732C7.06321 52.7351 7.1251 52.8677 7.08089 52.9915Z" fill="#D57E02"/>
<path d="M3.96822 40.9922C3.96822 40.9922 2.96899 42.7873 1.64258 42.7165" stroke="#D57E02" stroke-width="0.205417" stroke-miterlimit="10" stroke-linecap="round"/>
<path d="M-4.48584 41.956C-4.48584 41.956 -1.42625 41.2043 0.651788 42.7076C2.73867 44.2109 3.1366 46.5188 4.72829 47.4031C6.31998 48.2874 3.81749 52.0897 3.81749 52.0897" stroke="#D57E02" stroke-width="0.205417" stroke-miterlimit="10" stroke-linecap="round"/>
<path d="M3.8883 47.2793C3.8883 47.2793 2.56189 47.7214 1.53613 48.6499" stroke="#D57E02" stroke-width="0.205417" stroke-miterlimit="10" stroke-linecap="round"/>
<path d="M6.01962 45.9087C6.01962 45.9087 5.53327 48.6588 4.9585 49.8083" stroke="#D57E02" stroke-width="0.205417" stroke-miterlimit="10" stroke-linecap="round"/>
<path d="M21.9102 39.4092L24.1208 41.6287" stroke="#191708" stroke-width="0.205417" stroke-miterlimit="10" stroke-linecap="round"/>
<path d="M20.8398 40.1787C20.8398 40.1787 21.9717 40.8419 22.5023 40.9392" stroke="#191708" stroke-width="0.205417" stroke-miterlimit="10" stroke-linecap="round"/>
<path d="M12.8018 50.8428C12.8018 50.8428 13.1997 53.9024 12.9344 57.1565" stroke="#D57E02" stroke-width="0.205417" stroke-miterlimit="10" stroke-linecap="round"/>
<path d="M2.47363 37.3403C2.47363 37.3403 4.23334 38.4368 4.26871 40.2673" stroke="#D57E02" stroke-width="0.205417" stroke-miterlimit="10" stroke-linecap="round"/>
<path d="M4.99365 40.1611C4.99365 40.1611 5.7895 39.8958 5.99288 39.3652" stroke="#D57E02" stroke-width="0.205417" stroke-miterlimit="10" stroke-linecap="round"/>
<path d="M15.9408 14.6938C15.9408 14.6938 16.5156 14.2251 16.2061 13.1905C15.8966 12.1559 14.7029 11.3247 13.2438 12.0409C11.5018 12.8898 10.7236 12.5361 10.7236 12.5361C10.7236 12.5361 10.8474 15.1713 13.5798 15.3835" fill="#002E6D"/>
<path d="M13.6065 15.6048C13.6065 15.6048 13.4827 14.8178 13.748 14.4994C14.0133 14.1899 16.3831 13.3322 17.0552 15.145" fill="#F89E1C"/>
<path d="M14.7649 30.0361L14.7206 30.0273C11.9352 29.4171 10.1578 26.6317 10.7679 23.8462L11.7937 19.1684C12.4038 16.3829 15.1893 14.6055 17.9748 15.2157L18.019 15.2245C20.8044 15.8347 22.5818 18.6202 21.9717 21.4056L20.9459 26.0834C20.3269 28.8689 17.5503 30.6463 14.7649 30.0361Z" fill="#FAC8BB"/>
<path d="M17.1171 23.5363C17.4973 24.0845 17.9218 24.9776 17.179 25.5436C17.064 25.632 16.8872 25.5524 16.8783 25.4021L16.7722 23.6512C16.7634 23.4655 17.011 23.3771 17.1171 23.5363Z" fill="#FF8D76"/>
<path d="M12.3378 23.6319C12.5883 22.3821 12.0732 21.225 11.1873 21.0475C10.3014 20.87 9.38025 21.7392 9.12978 22.989C8.87931 24.2388 9.39441 25.3959 10.2803 25.5734C11.1661 25.7509 12.0873 24.8817 12.3378 23.6319Z" fill="#FAC8BB"/>
<path d="M10.5732 21.6709C10.5732 21.6709 11.3691 21.7682 11.3072 23.1742" stroke="#FF7F66" stroke-width="0.248003" stroke-miterlimit="10" stroke-linecap="round" stroke-linejoin="round"/>
<path d="M14.1108 22.3516L14.6237 22.6522" stroke="#002E6D" stroke-width="0.422143" stroke-miterlimit="10" stroke-linecap="round"/>
<path d="M15.3246 23.2969C15.3608 22.8245 15.0705 22.4171 14.6761 22.3868C14.2816 22.3565 13.9325 22.7149 13.8962 23.1872C13.86 23.6596 14.1503 24.067 14.5448 24.0973C14.9392 24.1276 15.2883 23.7692 15.3246 23.2969Z" fill="white"/>
<path d="M15.2163 23.281C15.2459 22.8963 15.0093 22.5644 14.6879 22.5398C14.3665 22.5151 14.082 22.8069 14.0525 23.1916C14.023 23.5763 14.2596 23.9082 14.581 23.9329C14.9023 23.9575 15.1868 23.6657 15.2163 23.281Z" fill="#002E6D"/>
<path d="M19.9205 23.1118L19.3457 23.2975" stroke="#002E6D" stroke-width="0.422143" stroke-miterlimit="10" stroke-linecap="round"/>
<path d="M19.9463 23.9749C20.0167 23.5064 19.7566 23.079 19.3654 23.0203C18.9742 22.9615 18.6001 23.2937 18.5297 23.7621C18.4594 24.2306 18.7195 24.658 19.1107 24.7167C19.5018 24.7755 19.876 24.4433 19.9463 23.9749Z" fill="white"/>
<path d="M19.7844 23.9439C19.8417 23.5624 19.6297 23.2143 19.311 23.1665C18.9922 23.1186 18.6874 23.3891 18.6301 23.7706C18.5728 24.1521 18.7848 24.5002 19.1035 24.5481C19.4223 24.596 19.7271 24.3255 19.7844 23.9439Z" fill="#002E6D"/>
<path d="M13.987 20.9545C14.4998 20.7953 15.3399 20.645 15.7732 21.1844C15.8262 21.2552 15.7555 21.3348 15.6582 21.3082C15.3841 21.2375 14.8712 21.1314 14.0489 21.1225C13.9251 21.1225 13.872 20.9899 13.987 20.9545Z" fill="#002E6D"/>
<path d="M20.5303 22.2541C20.1324 21.8916 19.4338 21.4052 18.8148 21.7147C18.7353 21.7589 18.7706 21.8562 18.8679 21.8739C19.142 21.9181 19.6549 22.0419 20.4065 22.3779C20.5126 22.431 20.6099 22.3337 20.5303 22.2541Z" fill="#002E6D"/>
<path d="M11.4845 19.1152C10.7417 20.5654 11.8736 23.0149 11.8736 23.0149L13.9074 20.5389L11.4845 19.1152Z" fill="#002E6D"/>
<path d="M22.7323 23.9873C22.7323 23.9873 24.7927 17.3287 19.0361 15.3479C14.4998 13.7828 12.9169 15.684 12.351 16.5506C10.9273 18.7436 10.8566 20.4148 10.8389 21.0338C10.8389 21.0692 12.9788 21.6263 12.9788 21.6263L15.499 18.6198L22.7323 23.9873Z" fill="#002E6D"/>
<path d="M15.4989 18.6202L14.314 17.6475L15.0125 19.4691" fill="#FAC8BB"/>
<path d="M15.6052 30.1158C15.6052 30.1158 13.6775 30.3722 11.9531 28.4976" stroke="#FF7F66" stroke-width="0.248003" stroke-miterlimit="10" stroke-linecap="round" stroke-linejoin="round"/>
<path d="M14.0225 25.7295C14.0225 25.7295 14.9244 27.6749 17.2235 27.1178" stroke="#FF7F66" stroke-width="0.248003" stroke-miterlimit="10" stroke-linecap="round" stroke-linejoin="round"/>
<g style="mix-blend-mode:overlay">
<path d="M23.2271 13.2045C23.8419 13.2045 24.3407 13.7032 24.3407 14.3181C24.3407 13.7032 24.8394 13.2045 25.4543 13.2045C24.8394 13.2045 24.3407 12.7057 24.3407 12.0908C24.3407 12.7057 23.8419 13.2045 23.2271 13.2045Z" fill="#002E6D"/>
</g>
<g style="mix-blend-mode:overlay">
<path d="M22.2729 31.3407C22.8878 31.3407 23.3866 31.8394 23.3866 32.4543C23.3866 31.8394 23.8853 31.3407 24.5002 31.3407C23.8853 31.3407 23.3866 30.8419 23.3866 30.2271C23.3866 30.8419 22.8878 31.3407 22.2729 31.3407Z" fill="#002E6D"/>
</g>
<g style="mix-blend-mode:overlay">
<path d="M18.4546 9.38614C20.4734 9.38614 22.1137 11.0264 22.1137 13.0452C22.1137 11.0264 23.754 9.38614 25.7728 9.38614C23.754 9.38614 22.1137 7.74586 22.1137 5.72705C22.1137 7.74586 20.4734 9.38614 18.4546 9.38614Z" fill="#002E6D"/>
</g>
<g style="mix-blend-mode:overlay">
<path d="M45.1816 40.8862C46.6738 40.8862 47.8862 42.0986 47.8862 43.5907C47.8862 42.0986 49.0986 40.8862 50.5907 40.8862C49.0986 40.8862 47.8862 39.6738 47.8862 38.1816C47.8862 39.6738 46.6738 40.8862 45.1816 40.8862Z" fill="#002E6D"/>
</g>
<g style="mix-blend-mode:overlay">
<path d="M44.2271 44.8637C44.7537 44.8637 45.1816 45.2916 45.1816 45.8183C45.1816 45.2916 45.6095 44.8637 46.1361 44.8637C45.6095 44.8637 45.1816 44.4358 45.1816 43.9092C45.1816 44.4358 44.7537 44.8637 44.2271 44.8637Z" fill="#002E6D"/>
</g>
<rect x="29.6011" y="9.21826" width="15.1782" height="18.5855" rx="1.27273" transform="rotate(-2.53912 29.6011 9.21826)" fill="#E7EBEE"/>
<rect x="28.9546" y="8.62695" width="15.1782" height="18.5855" rx="1.27273" transform="rotate(-2.53912 28.9546 8.62695)" fill="white"/>
<g clip-path="url(#clip1_917_74888)">
<path d="M31.7921 18.1345C31.5589 17.2636 31.6139 16.3406 31.9487 15.5036C32.2835 14.6665 32.8803 13.9602 33.6497 13.4904C34.4192 13.0205 35.32 12.8123 36.2176 12.8968C37.1152 12.9813 37.9613 13.354 38.6296 13.9592C39.2978 14.5645 39.7522 15.3697 39.9249 16.2546C40.0976 17.1394 39.9793 18.0564 39.5877 18.8685C39.1961 19.6806 38.5522 20.3441 37.7523 20.7599C36.9523 21.1758 36.0393 21.3216 35.1497 21.1755C34.5148 21.5128 33.8221 21.8425 33.5032 21.9926C33.4216 22.0308 33.332 22.0486 33.242 22.0445C33.1521 22.0403 33.0645 22.0143 32.9868 21.9687C32.9092 21.9231 32.8438 21.8593 32.7963 21.7827C32.7488 21.7062 32.7207 21.6193 32.7144 21.5294C32.69 21.1843 32.6424 20.4431 32.6277 19.7408C32.2346 19.2732 31.9493 18.7248 31.7921 18.1345ZM34.4923 14.9939C34.2886 15.1845 34.1543 15.432 34.083 15.7319C34.0618 15.8379 34.0825 15.9479 34.1408 16.039C34.199 16.13 34.2903 16.1949 34.3954 16.2201C34.5005 16.2452 34.6113 16.2286 34.7044 16.1737C34.7976 16.1189 34.8658 16.0301 34.8948 15.926C34.935 15.7596 34.9969 15.6657 35.0634 15.6041C35.1324 15.5389 35.235 15.4832 35.3937 15.4406C35.5142 15.4084 35.667 15.4129 35.7937 15.4707C35.9059 15.5213 36.0183 15.6203 36.0755 15.8338C36.1036 15.9387 36.0762 15.9979 35.8584 16.2886C35.6674 16.5439 35.3672 16.9552 35.5306 17.5651C35.5593 17.6721 35.6293 17.7633 35.7252 17.8187C35.8211 17.8741 35.9351 17.8891 36.0421 17.8604C36.149 17.8317 36.2403 17.7617 36.2956 17.6658C36.351 17.5699 36.366 17.4559 36.3374 17.3489C36.284 17.1499 36.3464 17.03 36.5264 16.7893L36.5627 16.7421C36.7279 16.526 37.0228 16.1421 36.8823 15.6177C36.7601 15.1616 36.4776 14.8626 36.1384 14.709C35.836 14.5756 35.4971 14.5491 35.1775 14.6339C34.9328 14.6994 34.6923 14.8065 34.4923 14.9939ZM36.8681 18.792C36.8299 18.6493 36.7366 18.5277 36.6087 18.4539C36.4808 18.38 36.3288 18.36 36.1862 18.3983C36.0435 18.4365 35.9219 18.5298 35.8481 18.6577C35.7742 18.7856 35.7542 18.9376 35.7924 19.0802C35.8307 19.2229 35.924 19.3445 36.0519 19.4183C36.1798 19.4922 36.3318 19.5122 36.4744 19.4739C36.6171 19.4357 36.7387 19.3424 36.8125 19.2145C36.8864 19.0866 36.9064 18.9346 36.8681 18.792ZM36.9971 21.6397C37.928 22.1329 39.0112 22.2546 40.0283 21.9804C40.6015 21.8277 41.1353 21.5541 41.594 21.1781C42.3135 21.1525 43.0816 21.0908 43.4346 21.0596C43.5245 21.0518 43.611 21.0222 43.6868 20.9733C43.7626 20.9245 43.8254 20.8579 43.8696 20.7793C43.9139 20.7007 43.9383 20.6125 43.9408 20.5224C43.9432 20.4322 43.9237 20.3428 43.8838 20.2619C43.6209 19.727 43.3465 19.1978 43.0608 18.6747C43.1627 18.0986 43.1425 17.5075 43.0015 16.9396C42.8604 16.3718 42.6017 15.84 42.242 15.3785C41.8824 14.917 41.4298 14.5362 40.9136 14.2608C40.3974 13.9854 39.8291 13.8214 39.2456 13.7796C39.8176 14.3769 40.2232 15.1136 40.4219 15.9164C40.6206 16.7192 40.6055 17.5601 40.378 18.3552C40.1506 19.1504 39.7187 19.872 39.1255 20.4483C38.5323 21.0246 37.7985 21.4354 36.9971 21.6397Z" fill="#007BE0"/>
</g>
</g>
<defs>
<clipPath id="clip0_917_74888">
<rect width="56" height="56" rx="28" fill="white"/>
</clipPath>
<clipPath id="clip1_917_74888">
<rect width="13.3636" height="13.3636" fill="white" transform="translate(29.2031 12.7754) rotate(-15)"/>
</clipPath>
</defs>
</svg>
