<svg width="130" height="59" viewBox="0 0 130 59" fill="none" xmlns="http://www.w3.org/2000/svg">
<path d="M69.0028 56.9451C68.1462 56.9451 67.4873 56.4674 67.4873 55.7097H68.245C68.278 56.0556 68.5251 56.3521 69.0192 56.3521C69.5134 56.3521 69.7934 56.0886 69.7934 55.7262C69.7934 54.6884 67.5202 55.3638 67.5202 53.7824C67.5202 53.0247 68.1133 52.5635 69.0028 52.5635C69.8264 52.5635 70.4029 52.9918 70.4688 53.733H69.6946C69.6617 53.4365 69.4146 53.173 68.9698 53.1565C68.558 53.14 68.245 53.3377 68.245 53.7495C68.245 54.7214 70.5182 54.1119 70.5182 55.6768C70.4853 56.3192 69.9582 56.9451 69.0028 56.9451Z" fill="#002E6D"/>
<path d="M72.7913 56.9616C71.8194 56.9616 71.0781 56.2698 71.0781 55.1991C71.0781 54.1284 71.8523 53.4365 72.8077 53.4365C73.7796 53.4365 74.5373 54.1284 74.5373 55.1991C74.5538 56.2533 73.7631 56.9616 72.7913 56.9616ZM72.7913 56.3357C73.3184 56.3357 73.829 55.9568 73.829 55.1826C73.829 54.4084 73.3348 54.046 72.8077 54.046C72.2806 54.046 71.8029 54.4249 71.8029 55.1826C71.8029 55.9568 72.2641 56.3357 72.7913 56.3357Z" fill="#002E6D"/>
<path d="M75.2617 52.333H75.97V56.9123H75.2617V52.333Z" fill="#002E6D"/>
<path d="M79.9736 56.8956H79.2653V56.4838C79.0347 56.7803 78.6558 56.945 78.2605 56.945C77.4698 56.945 76.8604 56.4509 76.8604 55.4955V53.4858H77.5522V55.3802C77.5522 56.0061 77.8981 56.3191 78.4088 56.3191C78.9359 56.3191 79.2653 55.9896 79.2653 55.3802V53.4858H79.9736V56.8956Z" fill="#002E6D"/>
<path d="M82.1315 56.9616C81.3243 56.9616 80.7478 56.4839 80.7148 55.858H81.4396C81.4726 56.138 81.7361 56.3686 82.115 56.3686C82.5268 56.3686 82.7409 56.1874 82.7409 55.9568C82.7409 55.2814 80.7643 55.6768 80.7643 54.4249C80.7643 53.8813 81.2749 53.4365 82.082 53.4365C82.8563 53.4365 83.3669 53.8483 83.3998 54.5237H82.6915C82.6586 54.2272 82.4444 54.0295 82.0491 54.0295C81.6702 54.0295 81.4726 54.1778 81.4726 54.4084C81.4726 55.1002 83.3998 54.7049 83.4328 55.9403C83.4328 56.5169 82.9386 56.9616 82.1315 56.9616Z" fill="#002E6D"/>
<path d="M84.1074 52.5966C84.1074 52.3495 84.3051 52.1519 84.5522 52.1519C84.7993 52.1519 84.9969 52.3495 84.9969 52.5966C84.9969 52.8437 84.7993 53.0414 84.5522 53.0414C84.3051 53.0414 84.1074 52.8437 84.1074 52.5966ZM84.1898 53.4861H84.8981V56.8959H84.1898V53.4861Z" fill="#002E6D"/>
<path d="M89.1487 56.8957H87.4355V52.5964H89.0663C89.9723 52.5964 90.45 53.0906 90.45 53.7001C90.45 54.2272 90.137 54.5402 89.7252 54.6884C90.1864 54.7708 90.5488 55.232 90.5488 55.7427C90.5488 56.4016 90.0217 56.8957 89.1487 56.8957ZM89.0004 53.173H88.1274V54.4084H89.0004C89.4616 54.4084 89.7417 54.1943 89.7417 53.7989C89.7417 53.4036 89.4616 53.173 89.0004 53.173ZM89.0663 54.9849H88.1274V56.3192H89.0828C89.5605 56.3192 89.857 56.0721 89.857 55.6603C89.857 55.2485 89.5275 54.9849 89.0663 54.9849Z" fill="#002E6D"/>
<path d="M92.7884 56.9616C91.8166 56.9616 91.0918 56.2698 91.0918 55.1991C91.0918 54.1284 91.7836 53.4365 92.7884 53.4365C93.7603 53.4365 94.4522 54.1119 94.4522 55.1167C94.4522 55.232 94.4522 55.3473 94.4192 55.4626H91.8166C91.866 56.0227 92.2613 56.3686 92.7884 56.3686C93.2167 56.3686 93.4638 56.1545 93.5956 55.8909H94.3533C94.1557 56.4839 93.6121 56.9616 92.7884 56.9616ZM91.8166 54.8861H93.6944C93.678 54.359 93.2662 54.0295 92.739 54.0295C92.2778 54.0295 91.8989 54.359 91.8166 54.8861Z" fill="#002E6D"/>
<path d="M95.1279 52.333H95.8362V56.9123H95.1279V52.333Z" fill="#002E6D"/>
<path d="M98.142 53.4365C98.7186 53.4365 99.1139 53.7001 99.3281 53.9801V53.4859H100.036V56.8957H99.3281V56.3851C99.1139 56.6816 98.7021 56.9451 98.142 56.9451C97.2525 56.9451 96.5442 56.2204 96.5442 55.1661C96.5278 54.1284 97.2361 53.4365 98.142 53.4365ZM98.2903 54.046C97.7632 54.046 97.2525 54.4413 97.2525 55.1826C97.2525 55.9239 97.7632 56.3521 98.2903 56.3521C98.8174 56.3521 99.3281 55.9403 99.3281 55.1991C99.3116 54.4578 98.8174 54.046 98.2903 54.046Z" fill="#002E6D"/>
<path d="M101.651 53.4861V57.5548C101.651 58.2466 101.272 58.5102 100.679 58.5102H100.316V57.9172H100.563C100.86 57.9172 100.959 57.8184 100.959 57.5548V53.4861H101.651ZM100.86 52.5966C100.86 52.3495 101.058 52.1519 101.305 52.1519C101.552 52.1519 101.75 52.3495 101.75 52.5966C101.75 52.8437 101.552 53.0414 101.305 53.0414C101.058 53.0414 100.86 52.8437 100.86 52.5966Z" fill="#002E6D"/>
<path d="M103.957 53.4365C104.534 53.4365 104.929 53.7001 105.143 53.9801V53.4859H105.852V56.8957H105.143V56.3851C104.929 56.6816 104.518 56.9451 103.957 56.9451C103.068 56.9451 102.36 56.2204 102.36 55.1661C102.343 54.1284 103.051 53.4365 103.957 53.4365ZM104.106 54.046C103.579 54.046 103.068 54.4413 103.068 55.1826C103.068 55.9239 103.579 56.3521 104.106 56.3521C104.633 56.3521 105.143 55.9403 105.143 55.1991C105.127 54.4578 104.633 54.046 104.106 54.046Z" fill="#002E6D"/>
<path d="M107.482 56.8957H106.773V53.4859H107.482V53.9801C107.679 53.6342 108.025 53.4365 108.503 53.4365V54.1613H108.322C107.795 54.1613 107.482 54.3755 107.482 55.1002V56.8957Z" fill="#002E6D"/>
<path d="M112.704 56.945C111.485 56.945 110.513 56.039 110.513 54.7377C110.513 53.4529 111.501 52.5469 112.704 52.5469C113.922 52.5469 114.894 53.4529 114.894 54.7377C114.894 56.039 113.939 56.945 112.704 56.945ZM112.704 56.3355C113.56 56.3355 114.17 55.7096 114.17 54.7542C114.17 53.7823 113.544 53.1728 112.704 53.1728C111.847 53.1728 111.237 53.7823 111.237 54.7542C111.237 55.7096 111.847 56.3355 112.704 56.3355Z" fill="#002E6D"/>
<path d="M118.008 55.0015C118.008 54.3756 117.662 54.0626 117.152 54.0626C116.625 54.0626 116.295 54.392 116.295 55.0015V56.9123H115.587V53.5025H116.295V53.8979C116.526 53.6179 116.905 53.4531 117.317 53.4531C118.107 53.4531 118.717 53.9473 118.717 54.9027V56.9123H118.025V55.0015H118.008Z" fill="#002E6D"/>
<path d="M119.605 52.333H120.314V56.9123H119.605V52.333Z" fill="#002E6D"/>
<path d="M121.138 52.5966C121.138 52.3495 121.335 52.1519 121.582 52.1519C121.83 52.1519 122.027 52.3495 122.027 52.5966C122.027 52.8437 121.83 53.0414 121.582 53.0414C121.335 53.0414 121.138 52.8437 121.138 52.5966ZM121.237 53.4861H121.945V56.8959H121.237V53.4861Z" fill="#002E6D"/>
<path d="M125.272 55.0015C125.272 54.3756 124.926 54.0626 124.415 54.0626C123.888 54.0626 123.559 54.392 123.559 55.0015V56.9123H122.851V53.5025H123.559V53.8979C123.79 53.6179 124.168 53.4531 124.58 53.4531C125.371 53.4531 125.98 53.9473 125.98 54.9027V56.9123H125.288V55.0015H125.272Z" fill="#002E6D"/>
<path d="M128.336 56.9616C127.364 56.9616 126.64 56.2698 126.64 55.1991C126.64 54.1284 127.331 53.4365 128.336 53.4365C129.308 53.4365 130 54.1119 130 55.1167C130 55.232 130 55.3473 129.967 55.4626H127.364C127.414 56.0227 127.809 56.3686 128.336 56.3686C128.765 56.3686 129.012 56.1545 129.143 55.8909H129.901C129.704 56.4839 129.176 56.9616 128.336 56.9616ZM127.381 54.8861H129.259C129.242 54.359 128.83 54.0295 128.303 54.0295C127.826 54.0295 127.447 54.359 127.381 54.8861Z" fill="#002E6D"/>
<path d="M82.5926 28.5136C82.1808 28.5136 81.9667 28.3489 81.6702 27.937L77.5356 22.3035H74.8506V27.69C74.8506 28.1512 74.4882 28.4806 74.027 28.4806C73.5658 28.4806 73.2363 28.1512 73.2363 27.69V10.4269C73.2363 9.96568 73.5658 9.63623 74.027 9.63623C74.4882 9.63623 74.8506 9.96568 74.8506 10.4269V20.8704H77.5356L81.5878 15.8628C81.8349 15.5004 82.082 15.3192 82.4609 15.3192C83.1362 15.3192 83.4163 15.9452 83.0374 16.4723L78.9358 21.5293L83.2021 27.2946C83.6304 27.9206 83.2186 28.5136 82.5926 28.5136Z" fill="#002E6D"/>
<path d="M97.1216 21.2824C97.1216 21.9412 96.7427 22.3531 96.0509 22.3531H86.1345C86.3322 25.1369 88.3748 27.3277 91.2739 27.3277C93.9589 27.3277 94.799 25.9605 95.425 25.9605C95.8038 25.9605 96.0509 26.2076 96.0509 26.5535C96.0509 27.4595 94.0083 28.7608 91.208 28.7608C87.2711 28.7608 84.4873 25.6805 84.4873 21.9083C84.4873 18.1361 87.1394 15.0723 90.8786 15.0723C94.8155 15.0723 97.1216 18.235 97.1216 21.2824ZM86.1345 21.167H95.5073C95.2273 18.235 93.3165 16.4889 90.8621 16.4889C88.2924 16.4889 86.431 18.515 86.1345 21.167Z" fill="#002E6D"/>
<path d="M100.58 9.63623C101.042 9.63623 101.404 9.96568 101.404 10.4269V27.69C101.404 28.1512 101.042 28.4806 100.58 28.4806C100.119 28.4806 99.7897 28.1512 99.7897 27.69V10.4269C99.7732 9.96568 100.103 9.63623 100.58 9.63623Z" fill="#002E6D"/>
<path d="M117.431 16.1429V27.7065C117.431 28.1677 117.102 28.4971 116.641 28.4971C116.147 28.4971 115.817 28.1677 115.817 27.7065V25.8451C114.746 27.5912 112.967 28.7772 110.711 28.7772C107.07 28.7772 104.319 25.7627 104.319 21.9247C104.319 18.1031 107.021 15.0886 110.711 15.0886C112.984 15.0886 114.763 16.2087 115.817 17.9548V16.1429C115.817 15.6816 116.147 15.3522 116.641 15.3522C117.102 15.3522 117.431 15.6816 117.431 16.1429ZM115.817 21.8752C115.817 18.9267 113.774 16.5711 110.892 16.5711C108.026 16.5711 105.917 18.9267 105.917 21.8752C105.917 24.8238 108.026 27.2617 110.892 27.2617C113.758 27.2617 115.817 24.8238 115.817 21.8752Z" fill="#002E6D"/>
<path d="M125.207 28.7608C122.275 28.7608 120.067 27.1795 120.067 26.2405C120.067 25.7958 120.364 25.6146 120.743 25.6146C121.451 25.6146 122.357 27.3607 125.339 27.3607C127.282 27.3607 128.402 26.4382 128.402 25.071C128.402 21.513 120.529 23.2426 120.529 18.5644C120.529 16.5713 122.258 15.0723 125.124 15.0723C127.496 15.0723 129.44 16.1924 129.44 17.016C129.44 17.3949 129.16 17.6255 128.814 17.6255C128.073 17.6255 127.2 16.4724 125.009 16.4724C123.23 16.4724 122.11 17.3455 122.11 18.515C122.11 21.793 129.984 20.2116 129.984 24.9886C130 27.2124 128.221 28.7608 125.207 28.7608Z" fill="#002E6D"/>
<path d="M16.4232 6.58882C15.8466 7.21477 15.1383 8.08781 14.6936 9.35618C14.4959 9.81741 14.3806 10.4104 14.3477 11.0528C14.3477 11.0528 14.3477 11.0528 14.3641 11.0528C14.3147 12.4036 14.6112 14.4461 14.7924 15.6157H14.7759C15.0395 17.0323 15.336 18.0865 15.336 18.0865L18.0704 28.0688L19.0423 32.2857H19.0752H19.0917L23.111 47.5227L23.6051 49.4005C25.2359 55.4953 33.225 57.4061 37.8867 52.8103L43.685 47.0779C42.2354 45.1012 39.9457 44.1129 37.969 45.4966C35.4488 47.2756 30.7047 53.9469 29.5846 52.0196C28.728 50.5371 32.632 46.139 35.1193 40.4066C37.6231 34.6742 32.6814 31.3303 29.5681 27.6076C26.4549 23.8848 25.4171 20.7551 25.9772 20.3103C26.8996 19.5855 27.8221 21.381 29.1234 22.9294C31.2813 25.4662 32.4837 27.064 39.3857 29.9137C38.4797 28.9089 38.002 27.5252 38.1997 26.0921C38.5456 23.473 40.9505 21.6116 43.5861 21.9576C46.2052 22.3035 48.0666 24.7084 47.7207 27.344C47.4407 29.436 45.8593 31.0174 43.9156 31.4127C49.3844 32.6975 52.3494 32.0057 54.5403 31.2974C58.1312 30.1278 57.5382 32.7305 52.2177 34.2295C46.4029 35.8602 45.1181 36.305 44.7227 38.4464C44.3274 40.5713 45.6122 42.581 46.65 44.1623L64.6543 26.3886C68.7724 22.3199 66.911 15.3192 61.3104 13.8531L58.296 13.0625L55.6274 12.4365C53.9802 12.1235 52.613 11.6129 51.4105 11.4152L25.0218 4.24974C24.2311 4.0356 23.4404 3.93677 22.6662 3.93677C20.2118 3.93677 17.9551 4.92511 16.4232 6.58882Z" fill="#FF9E18"/>
<path d="M12.4367 13.6719C12.5521 13.046 12.9803 12.3706 13.4086 11.9094C13.9193 11.3164 14.5617 10.8552 15.2865 10.5422C17.6585 9.75151 19.4705 11.2834 16.8349 14.2485C15.9124 15.2698 14.8911 15.731 14.051 15.731C12.9639 15.7145 12.2061 14.9568 12.4367 13.6719ZM6.7373 10.0974C8.86224 10.0974 10.6248 11.1846 11.5472 13.1448C11.8932 14.1002 12.0908 15.418 11.5802 16.7687C12.8156 17.7406 16.8184 17.7406 18.6468 20.3103C19.7999 21.9411 20.1788 24.5931 18.2515 27.5746C17.0655 29.4195 15.3524 30.5726 15.55 31.6598C15.7312 32.6481 18.1527 32.3022 19.0422 32.2693H19.0751C21.0683 32.2857 26.2077 32.1704 27.2784 36.2885C28.5138 41.1149 24.198 46.2543 23.1273 47.5062L23.6215 49.384C25.2523 55.4788 33.2414 57.3896 37.903 52.7938L43.7013 47.0614C42.2517 45.0848 39.9621 44.0964 37.9854 45.4801C35.4651 47.2591 30.7211 53.9304 29.601 52.0032C28.7444 50.5206 32.6484 46.1225 35.1357 40.3901C37.6395 34.6577 32.6978 31.3139 29.5845 27.5911C26.4712 23.8683 25.4335 20.7386 25.9935 20.2938C26.916 19.569 27.8384 21.3645 29.1397 22.9129C31.2976 25.4497 32.5001 27.0475 39.402 29.8972C38.496 28.8924 38.0183 27.5087 38.216 26.0756C38.5619 23.4565 40.9669 21.5952 43.6025 21.9411C46.2216 22.287 48.083 24.692 47.737 27.3275C47.457 29.4195 45.8757 31.0009 43.9319 31.3962C49.4008 32.6811 52.3658 31.9892 54.5566 31.2809C58.1476 30.1114 57.5546 32.714 52.234 34.213C46.4193 35.8438 45.1344 36.2885 44.7391 38.4299C44.3437 40.5549 45.6286 42.5645 46.6663 44.1458L64.6707 26.3721C68.7887 22.3035 66.9274 15.3027 61.3268 13.8367L58.3123 13.046L55.6438 12.42C51.2786 11.5964 48.8572 9.29029 46.0239 15.7639C42.4824 23.8354 37.9689 19.569 38.0183 15.1874C38.1007 8.61492 33.9991 10.6081 30.3752 12.0576C26.01 13.8037 23.8521 13.9849 21.6119 11.3493C20.7059 10.2786 19.9976 9.38912 19.2893 8.76317C18.9928 9.10909 17.5267 10.5092 14.957 9.5209C13.2439 8.63139 12.0579 6.8359 12.0579 4.77686C12.0579 7.70894 9.66939 10.0974 6.7373 10.0974Z" fill="#FFCD00"/>
<path d="M1.05469 10.1303L2.70193 11.8435L4.39858 10.1303L2.70193 8.38428L1.05469 10.1303Z" fill="#FFCF3C"/>
<path d="M10.0312 2.00963C11.1349 2.00963 12.0409 2.91561 12.0409 4.01926C12.0409 2.91561 12.9469 2.00963 14.0505 2.00963C12.9469 2.00963 12.0409 1.10365 12.0409 0C12.0574 1.10365 11.1514 2.00963 10.0312 2.00963Z" fill="#FFCF3C"/>
<path d="M3.68945 4.54608C5.17197 4.54608 6.37445 5.74857 6.37445 7.23108C6.37445 5.74857 7.57693 4.54608 9.05945 4.54608C7.57693 4.54608 6.37445 3.3436 6.37445 1.86108C6.37445 3.3436 5.17197 4.54608 3.68945 4.54608Z" fill="#FFCF3C"/>
<path d="M0 4.92508L1.00481 5.96284L2.04257 4.92508L1.00481 3.87085L0 4.92508Z" fill="#FFCF3C"/>
<path d="M1.92676 15.9453C4.29878 15.9453 6.22605 17.8726 6.22605 20.2446C6.22605 17.8726 8.15332 15.9453 10.5253 15.9453C8.15332 15.9453 6.22605 14.018 6.22605 11.646C6.22605 14.018 4.29878 15.9453 1.92676 15.9453Z" fill="#FFCF3C"/>
<path d="M23.6543 6.1441C22.9624 7.16539 23.7202 8.89499 25.3674 10.0151C26.9982 11.1352 28.8925 11.2341 29.5843 10.2128C30.2762 9.19149 29.5184 7.46189 27.8712 6.34177C26.9982 5.74877 26.0592 5.43579 25.2521 5.43579C24.5603 5.43579 23.9837 5.6664 23.6543 6.1441Z" fill="#FFCD00"/>
<path d="M75.6738 32.1541C75.6738 33.1589 76.481 33.9826 77.4693 33.9826C78.4741 33.9826 79.2978 33.1754 79.2978 32.1541C79.2978 31.1658 78.4906 30.3586 77.4693 30.3586C76.4974 30.3586 75.6738 31.1658 75.6738 32.1541Z" fill="#FF9E18"/>
<path d="M73.9279 42.1032C73.9279 46.1554 71.1111 48.9393 67.6848 48.9393C65.9717 48.9393 64.6374 48.2639 63.6985 47.1438V52.5797C63.6985 53.5515 63.0231 54.2598 62.0513 54.2598C61.0465 54.2598 60.3711 53.5515 60.3711 52.5797V37.1615C60.3711 36.1896 61.0465 35.4978 62.0513 35.4978C62.9408 35.4978 63.5997 36.0743 63.6985 36.9309C64.621 35.8437 65.9552 35.2178 67.6848 35.2178C71.2593 35.2507 73.9279 38.1993 73.9279 42.1032ZM70.584 42.1362C70.584 40.0112 69.1509 38.3311 67.1412 38.3311C65.1646 38.3311 63.6985 40.0112 63.6985 42.1362C63.6985 44.1952 65.1646 45.8589 67.1412 45.8589C69.1509 45.8589 70.584 44.1952 70.584 42.1362Z" fill="#002E6D"/>
<path d="M77.486 48.676C76.5141 48.676 75.8223 48.0006 75.8223 47.0287V37.1782C75.8223 36.2064 76.4976 35.531 77.453 35.531C78.4578 35.531 79.1332 36.2064 79.1332 37.1782V47.0287C79.1497 48.0006 78.4743 48.676 77.486 48.676Z" fill="#002E6D"/>
<path d="M93.6457 40.7195V47.012C93.6457 47.9839 92.9704 48.6592 91.982 48.6592C91.0102 48.6592 90.3018 47.9839 90.3018 47.012V41.1972C90.3018 39.4347 89.2641 38.3146 87.6663 38.3146C86.0355 38.3146 85.0307 39.4347 85.0307 41.1972V47.012C85.0307 47.9839 84.3553 48.6592 83.3834 48.6592C82.4116 48.6592 81.7197 47.9839 81.7197 47.012V37.1615C81.7197 36.1896 82.3951 35.4978 83.3505 35.4978C84.2729 35.4978 84.8989 36.0414 84.9977 36.8815C85.8049 35.8272 87.0897 35.2178 88.6546 35.2178C91.702 35.2507 93.6457 37.3427 93.6457 40.7195Z" fill="#002E6D"/>
<path d="M103.496 45.4473C104.386 45.4473 104.847 46.0403 104.847 46.6992C104.847 47.9511 103.496 48.9559 101.338 48.9559C98.6531 48.9559 96.94 47.3251 96.94 44.1459V38.5289H95.7375C94.8645 38.5289 94.2715 37.9359 94.2715 37.0299C94.2715 36.1898 94.8645 35.5968 95.7375 35.5968H96.9565V33.8342C96.9565 32.8294 97.6319 32.1541 98.5872 32.1541C99.5921 32.1541 100.267 32.8294 100.267 33.8342V35.5968H102.705C103.545 35.5968 104.138 36.1898 104.138 37.0628C104.138 37.9359 103.545 38.5289 102.705 38.5289H100.317V44.5248C100.317 45.4967 100.745 45.8591 101.486 45.8591C102.244 45.8591 102.87 45.4473 103.496 45.4473Z" fill="#002E6D"/>
<path d="M118.584 37.1785V47.029C118.584 48.0008 117.909 48.6762 116.92 48.6762C115.965 48.6762 115.29 48.0503 115.24 47.1607C114.318 48.2809 112.984 48.9562 111.27 48.9562C107.828 48.9562 105.027 46.1559 105.027 42.0873C105.027 38.1833 107.663 35.2512 111.27 35.2512C112.984 35.2512 114.318 35.8772 115.24 36.9643C115.356 36.0913 115.998 35.5313 116.92 35.5313C117.909 35.5148 118.584 36.1901 118.584 37.1785ZM115.24 42.0873C115.24 39.9953 113.807 38.348 111.814 38.348C109.804 38.348 108.338 39.9953 108.338 42.0873C108.338 44.1792 109.804 45.8594 111.814 45.8594C113.807 45.8594 115.24 44.1792 115.24 42.0873Z" fill="#002E6D"/>
<path d="M130 37.0301C130 38.002 129.324 38.6115 128.369 38.6115C127.858 38.6115 127.282 38.4467 126.524 38.4467C125.338 38.4467 124.547 39.3362 124.547 40.7199V47.0124C124.547 47.9842 123.872 48.6596 122.883 48.6596C121.895 48.6596 121.22 47.9842 121.22 47.0124V37.1619C121.22 36.19 121.895 35.4982 122.85 35.4982C123.806 35.4982 124.448 36.0912 124.531 36.9642C125.239 35.9594 126.326 35.2346 127.759 35.2346C128.846 35.2511 130 35.8112 130 37.0301Z" fill="#002E6D"/>
</svg>
