<svg width="40" height="40" viewBox="0 0 40 40" fill="none" xmlns="http://www.w3.org/2000/svg">
<path d="M17.6098 5.15326C17.8299 4.70686 18.1706 4.33098 18.5932 4.06815C19.0159 3.80531 19.5037 3.66602 20.0014 3.66602C20.4992 3.66602 20.987 3.80531 21.4096 4.06815C21.8323 4.33098 22.173 4.70686 22.3931 5.15326L26.0998 12.6599L34.3864 13.8633C34.879 13.9348 35.3418 14.1428 35.7223 14.4637C36.1029 14.7846 36.386 15.2056 36.5397 15.6791C36.6933 16.1525 36.7114 16.6596 36.5918 17.1428C36.4722 17.626 36.2198 18.0661 35.8631 18.4133L29.8664 24.2566L31.2831 32.5099C31.3674 33.0002 31.3128 33.5042 31.1256 33.9651C30.9385 34.426 30.6261 34.8253 30.2239 35.118C29.8216 35.4106 29.3456 35.585 28.8494 35.6212C28.3533 35.6575 27.857 35.5543 27.4164 35.3233L19.9998 31.4233L12.5864 35.3233C12.1459 35.5543 11.6495 35.6575 11.1534 35.6212C10.6573 35.585 10.1812 35.4106 9.77899 35.118C9.37676 34.8253 9.0644 34.426 8.87722 33.9651C8.69004 33.5042 8.6355 33.0002 8.71977 32.5099L10.1331 24.2566L4.13644 18.4133C3.77965 18.0659 3.52726 17.6255 3.40786 17.142C3.28846 16.6586 3.30682 16.1514 3.46086 15.6778C3.6149 15.2042 3.89845 14.7833 4.27942 14.4626C4.66039 14.1419 5.12355 13.9343 5.61644 13.8633L13.9031 12.6633L17.6064 5.15326H17.6098Z" fill="#FFCE00"/>
</svg>
