<svg width="19" height="20" viewBox="0 0 19 20" fill="none" xmlns="http://www.w3.org/2000/svg">
<path fill-rule="evenodd" clip-rule="evenodd" d="M13.749 0H12.999H8.50002H2.99602L2.24902 0.000999928C1.65229 0.000999928 1.07999 0.238053 0.658033 0.66001C0.236076 1.08197 -0.000976562 1.65426 -0.000976562 2.251L-0.000636974 7.17505L2.46549 5.09353C2.75426 4.8498 3.17926 4.85896 3.45725 5.11492L6.56954 7.98051L10.0782 4.75H9.28477C8.87056 4.75 8.53477 4.41421 8.53477 4C8.53477 3.58579 8.87056 3.25 9.28477 3.25H12C12.4142 3.25 12.75 3.58579 12.75 4V6.5C12.75 6.91421 12.4142 7.25 12 7.25C11.5858 7.25 11.25 6.91421 11.25 6.5V5.71004L7.07755 9.55174C6.79046 9.81608 6.34863 9.81608 6.06153 9.55174L2.92768 6.6663L-0.000501611 9.13782L2.3365e-05 16.75C2.3365e-05 17.3467 0.237076 17.919 0.659033 18.341C1.08099 18.7629 1.65329 19 2.25002 19H9.66802C9.21502 18.353 9.00002 17.611 9.00002 16.87V16.767C9.00002 16.403 9.07172 16.0425 9.21102 15.7062C9.35033 15.3699 9.55451 15.0643 9.81192 14.8069C10.0693 14.5495 10.3749 14.3453 10.7112 14.206C11.0475 14.0667 11.408 13.995 11.772 13.995H12.05C11.4575 13.4159 11.0897 12.6454 11.012 11.8205C10.9343 10.9957 11.1516 10.17 11.6255 9.49037C12.0993 8.81075 12.7989 8.32125 13.5997 8.10896C14.4006 7.89667 15.2507 7.97535 15.999 8.331V2.25C15.999 1.65326 15.762 1.08097 15.34 0.65901C14.918 0.237053 14.3458 0 13.749 0ZM17 11.495C17 12.158 16.7366 12.7939 16.2678 13.2628C15.7989 13.7316 15.1631 13.995 14.5 13.995C13.837 13.995 13.2011 13.7316 12.7323 13.2628C12.2634 12.7939 12 12.158 12 11.495C12 10.832 12.2634 10.1961 12.7323 9.72723C13.2011 9.25839 13.837 8.995 14.5 8.995C15.1631 8.995 15.7989 9.25839 16.2678 9.72723C16.7366 10.1961 17 10.832 17 11.495ZM19 16.87C19 18.426 17.714 19.995 14.5 19.995C11.286 19.995 10 18.432 10 16.87V16.767C10 15.787 10.794 14.995 11.773 14.995H17.227C18.207 14.995 19 15.788 19 16.767V16.87Z" fill="#0055B8"/>
</svg>
