<svg width="14" height="14" viewBox="0 0 14 14" fill="none" xmlns="http://www.w3.org/2000/svg">
<path fill-rule="evenodd" clip-rule="evenodd" d="M3.79998 0.600098C3.35815 0.600098 2.99998 0.95827 2.99998 1.4001V2.2001H2.19998C1.31632 2.2001 0.599976 2.91644 0.599976 3.8001V11.8001C0.599976 12.6838 1.31632 13.4001 2.19998 13.4001H11.8C12.6836 13.4001 13.4 12.6838 13.4 11.8001V3.8001C13.4 2.91644 12.6836 2.2001 11.8 2.2001H11V1.4001C11 0.95827 10.6418 0.600098 10.2 0.600098C9.75815 0.600098 9.39997 0.95827 9.39997 1.4001V2.2001H4.59998V1.4001C4.59998 0.95827 4.2418 0.600098 3.79998 0.600098ZM3.79998 4.6001C3.35815 4.6001 2.99998 4.95827 2.99998 5.4001C2.99998 5.84193 3.35815 6.2001 3.79998 6.2001H10.2C10.6418 6.2001 11 5.84193 11 5.4001C11 4.95827 10.6418 4.6001 10.2 4.6001H3.79998Z" fill="#0055B8"/>
</svg>
