<svg width="52" height="52" viewBox="0 0 52 52" fill="none" xmlns="http://www.w3.org/2000/svg">
<rect width="52" height="52" rx="26" fill="#E1F4FE"/>
<path opacity="0.8" d="M11 12.9387C12.5067 12.9387 13.7288 14.2547 13.7288 15.8773C13.7288 14.2547 14.9508 12.9387 16.4575 12.9387C14.9508 12.9387 13.7288 11.6226 13.7288 10C13.7288 11.6226 12.5067 12.9387 11 12.9387Z" fill="#90D5FD"/>
<path opacity="0.8" d="M36 42C37.1043 42 38 42.8957 38 44C38 42.8957 38.8957 42 40 42C38.8957 42 38 41.1043 38 40C38 41.1043 37.1043 42 36 42Z" fill="#90D5FD"/>
<path opacity="0.8" d="M8 40.6179C10.5478 40.6179 12.6179 42.688 12.6179 45.2358C12.6179 42.688 14.688 40.6179 17.2358 40.6179C14.688 40.6179 12.6179 38.5478 12.6179 36C12.6179 38.5478 10.5478 40.6179 8 40.6179Z" fill="#90D5FD"/>
<path opacity="0.8" d="M37 18.6179C39.5478 18.6179 41.6179 20.688 41.6179 23.2358C41.6179 20.688 43.688 18.6179 46.2358 18.6179C43.688 18.6179 41.6179 16.5478 41.6179 14C41.6179 16.5478 39.5478 18.6179 37 18.6179Z" fill="#90D5FD"/>
<path d="M27.2857 20V14H19.5714C18.8894 14 18.2354 14.2709 17.7532 14.7532C17.2709 15.2354 17 15.8894 17 16.5714V35.4286C17 36.1106 17.2709 36.7646 17.7532 37.2468C18.2354 37.7291 18.8894 38 19.5714 38H33.2857C33.9677 38 34.6218 37.7291 35.104 37.2468C35.5862 36.7646 35.8571 36.1106 35.8571 35.4286V22.5714H29.8571C29.1752 22.5714 28.5211 22.3005 28.0389 21.8183C27.5566 21.336 27.2857 20.682 27.2857 20ZM29 20V14.1003C29.4188 14.2206 29.8002 14.4453 30.1083 14.7534L35.1037 19.7489C35.4118 20.057 35.6366 20.4383 35.7569 20.8571H29.8571C29.6298 20.8571 29.4118 20.7668 29.2511 20.6061C29.0903 20.4453 29 20.2273 29 20Z" fill="#2BAFFC"/>
<path d="M20.5 34L24.0696 29.9842C24.2873 29.7393 24.6776 29.7664 24.8593 30.039L26.125 31.9376C26.3115 32.2172 26.7152 32.237 26.928 31.9768L31 27" stroke="#E1F4FE" stroke-width="1.5" stroke-linecap="round"/>
<path d="M28.8555 26.1582L31.8403 25.8566L32.1419 28.8414" stroke="#E1F4FE" stroke-width="1.5" stroke-linecap="round" stroke-linejoin="round"/>
</svg>
