<svg width="344" height="195" viewBox="0 0 344 195" fill="none" xmlns="http://www.w3.org/2000/svg">
<g clip-path="url(#clip0_20410_187178)">
<rect width="344" height="194.524" rx="10" fill="#0055B8"/>
<path opacity="0.4" d="M346.053 -37.8909C343.96 -39.6237 341.797 -40.3931 340.123 -40.8724C335.675 -42.1467 330.616 -41.486 326.211 -38.9021C324.822 -38.087 323.504 -37.0831 322.303 -35.8791L282.261 4.33687C280.305 5.94584 278.373 8.27135 275.736 10.5486L271.586 14.4442L266.984 18.9899C258.429 27.4301 262.238 41.5385 273.783 44.2637L348.802 61.9344C361.861 65.002 374.248 53.2754 370.951 40.982L361.574 6.53016L361.663 6.47814L359.101 -1.86287L353.815 -22.0643C353.815 -22.0643 353.271 -24.2059 352.297 -26.9417L352.268 -26.9244C351.399 -29.1447 349.845 -33.0015 348.377 -35.2934L348.407 -35.3108C347.691 -36.3909 346.879 -37.2986 346.053 -37.8909Z" fill="#007BE0"/>
<path opacity="0.4" d="M21.7332 242.264C23.9516 244.091 26.2411 244.899 28.0128 245.402C32.7211 246.739 38.0713 246.03 42.7248 243.289C44.1926 242.424 45.5846 241.36 46.8515 240.085L89.1154 197.488C91.181 195.783 93.2195 193.321 96.0033 190.908L100.384 186.781L105.242 181.966C114.271 173.026 110.211 158.122 97.9916 155.267L18.5951 136.754C4.77407 133.54 -8.30146 145.962 -4.78557 158.949L5.21244 195.345L5.11874 195.4L7.84797 204.211L13.4861 225.552C13.4861 225.552 14.0669 227.814 15.103 230.704L15.1343 230.686C16.0587 233.031 17.711 237.104 19.2692 239.523L19.2379 239.542C19.9969 240.682 20.8584 241.639 21.7332 242.264Z" fill="#007BE0"/>
<path opacity="0.4" d="M256 148.5C267.586 148.5 277 157.69 277 169C277 157.69 286.414 148.5 298 148.5C286.414 148.5 277 139.31 277 128C277 139.31 267.586 148.5 256 148.5Z" fill="#0064C8"/>
<path opacity="0.4" d="M28 45C39.5862 45 49 54.4138 49 66C49 54.4138 58.4138 45 70 45C58.4138 45 49 35.5862 49 24C49 35.5862 39.5862 45 28 45Z" fill="#0064C8"/>
<path opacity="0.4" d="M102 62.5C104.209 62.5 106 64.5153 106 67C106 64.5153 107.791 62.5 110 62.5C107.791 62.5 106 60.4847 106 58C106 60.4847 104.209 62.5 102 62.5Z" fill="#0064C8"/>
<path opacity="0.4" d="M3 17.5C5.20859 17.5 7 19.5153 7 22C7 19.5153 8.79141 17.5 11 17.5C8.79141 17.5 7 15.4847 7 13C7 15.4847 5.20859 17.5 3 17.5Z" fill="#0064C8"/>
<path d="M41.125 31.3845C40.7883 31.3845 40.5293 31.1967 40.5293 30.8989H40.8272C40.8401 31.0349 40.9372 31.1514 41.1315 31.1514C41.3257 31.1514 41.4358 31.0478 41.4358 30.9053C41.4358 30.4974 40.5422 30.7629 40.5422 30.1413C40.5422 29.8434 40.7754 29.6621 41.125 29.6621C41.4488 29.6621 41.6754 29.8305 41.7013 30.1218H41.397C41.384 30.0053 41.2869 29.9017 41.1121 29.8952C40.9502 29.8887 40.8272 29.9664 40.8272 30.1283C40.8272 30.5104 41.7207 30.2708 41.7207 30.8859C41.7078 31.1385 41.5006 31.3845 41.125 31.3845Z" fill="white"/>
<path d="M42.6129 31.3911C42.2308 31.3911 41.9395 31.1191 41.9395 30.6982C41.9395 30.2773 42.2438 30.0054 42.6194 30.0054C43.0014 30.0054 43.2992 30.2773 43.2992 30.6982C43.3057 31.1126 42.9949 31.3911 42.6129 31.3911ZM42.6129 31.145C42.8201 31.145 43.0208 30.9961 43.0208 30.6917C43.0208 30.3874 42.8266 30.245 42.6194 30.245C42.4121 30.245 42.2244 30.3939 42.2244 30.6917C42.2244 30.9961 42.4057 31.145 42.6129 31.145Z" fill="white"/>
<path d="M43.584 29.5715H43.8624V31.3716H43.584V29.5715Z" fill="white"/>
<path d="M45.4367 31.3653H45.1583V31.2034C45.0676 31.3199 44.9187 31.3847 44.7633 31.3847C44.4525 31.3847 44.2129 31.1904 44.2129 30.8149V30.0249H44.4848V30.7696C44.4848 31.0156 44.6208 31.1386 44.8216 31.1386C45.0288 31.1386 45.1583 31.0091 45.1583 30.7696V30.0249H45.4367V31.3653Z" fill="white"/>
<path d="M46.2854 31.3911C45.9681 31.3911 45.7415 31.2033 45.7285 30.9572H46.0134C46.0264 31.0673 46.13 31.158 46.2789 31.158C46.4408 31.158 46.525 31.0867 46.525 30.9961C46.525 30.7306 45.7479 30.886 45.7479 30.3939C45.7479 30.1802 45.9487 30.0054 46.266 30.0054C46.5703 30.0054 46.771 30.1673 46.784 30.4327H46.5055C46.4926 30.3162 46.4084 30.2385 46.253 30.2385C46.1041 30.2385 46.0264 30.2968 46.0264 30.3874C46.0264 30.6594 46.784 30.504 46.7969 30.9896C46.7969 31.2162 46.6027 31.3911 46.2854 31.3911Z" fill="white"/>
<path d="M47.0645 29.6753C47.0645 29.5782 47.1422 29.5005 47.2393 29.5005C47.3364 29.5005 47.4141 29.5782 47.4141 29.6753C47.4141 29.7724 47.3364 29.8501 47.2393 29.8501C47.1422 29.8501 47.0645 29.7724 47.0645 29.6753ZM47.0968 30.025H47.3753V31.3653H47.0968V30.025Z" fill="white"/>
<path d="M49.0426 31.3653H48.3691V29.6753H49.0102C49.3663 29.6753 49.5541 29.8696 49.5541 30.1091C49.5541 30.3163 49.4311 30.4394 49.2692 30.4976C49.4505 30.53 49.593 30.7113 49.593 30.9121C49.593 31.1711 49.3858 31.3653 49.0426 31.3653ZM48.9843 29.9019H48.6411V30.3876H48.9843C49.1656 30.3876 49.2757 30.3034 49.2757 30.148C49.2757 29.9926 49.1656 29.9019 48.9843 29.9019ZM49.0102 30.6142H48.6411V31.1387H49.0167C49.2044 31.1387 49.321 31.0416 49.321 30.8797C49.321 30.7178 49.1915 30.6142 49.0102 30.6142Z" fill="white"/>
<path d="M50.4736 31.3911C50.0915 31.3911 49.8066 31.1191 49.8066 30.6982C49.8066 30.2773 50.0786 30.0054 50.4736 30.0054C50.8556 30.0054 51.1276 30.2709 51.1276 30.6658C51.1276 30.7112 51.1276 30.7565 51.1146 30.8018H50.0916C50.111 31.022 50.2664 31.158 50.4736 31.158C50.6419 31.158 50.7391 31.0738 50.7909 30.9702H51.0887C51.011 31.2033 50.7973 31.3911 50.4736 31.3911ZM50.0916 30.5752H50.8297C50.8232 30.368 50.6614 30.2385 50.4542 30.2385C50.2729 30.2385 50.1239 30.368 50.0916 30.5752Z" fill="white"/>
<path d="M51.3945 29.5715H51.673V31.3716H51.3945V29.5715Z" fill="white"/>
<path d="M52.5794 30.0054C52.806 30.0054 52.9614 30.109 53.0456 30.2191V30.0248H53.324V31.3652H53.0456V31.1644C52.9614 31.281 52.7995 31.3846 52.5794 31.3846C52.2297 31.3846 51.9513 31.0997 51.9513 30.6853C51.9448 30.2773 52.2232 30.0054 52.5794 30.0054ZM52.6377 30.245C52.4305 30.245 52.2297 30.4004 52.2297 30.6917C52.2297 30.9831 52.4305 31.1515 52.6377 31.1515C52.8449 31.1515 53.0456 30.9896 53.0456 30.6982C53.0391 30.4068 52.8449 30.245 52.6377 30.245Z" fill="white"/>
<path d="M53.9581 30.025V31.6244C53.9581 31.8963 53.8092 31.9999 53.576 31.9999H53.4336V31.7668H53.5307C53.6473 31.7668 53.6861 31.728 53.6861 31.6244V30.025H53.9581ZM53.6473 29.6753C53.6473 29.5782 53.725 29.5005 53.8221 29.5005C53.9192 29.5005 53.9969 29.5782 53.9969 29.6753C53.9969 29.7724 53.9192 29.8501 53.8221 29.8501C53.725 29.8501 53.6473 29.7724 53.6473 29.6753Z" fill="white"/>
<path d="M54.8645 30.0054C55.0912 30.0054 55.2466 30.109 55.3307 30.2191V30.0248H55.6092V31.3652H55.3307V31.1644C55.2466 31.281 55.0847 31.3846 54.8645 31.3846C54.5149 31.3846 54.2364 31.0997 54.2364 30.6853C54.23 30.2773 54.5084 30.0054 54.8645 30.0054ZM54.9228 30.245C54.7156 30.245 54.5149 30.4004 54.5149 30.6917C54.5149 30.9831 54.7156 31.1515 54.9228 31.1515C55.13 31.1515 55.3307 30.9896 55.3307 30.6982C55.3243 30.4068 55.13 30.245 54.9228 30.245Z" fill="white"/>
<path d="M56.2511 31.3652H55.9727V30.0248H56.2511V30.2191C56.3288 30.0831 56.4648 30.0054 56.6526 30.0054V30.2903H56.5813C56.3741 30.2903 56.2511 30.3745 56.2511 30.6594V31.3652Z" fill="white"/>
<path d="M58.3046 31.3846C57.8254 31.3846 57.4434 31.0285 57.4434 30.517C57.4434 30.0119 57.8319 29.6558 58.3046 29.6558C58.7837 29.6558 59.1658 30.0119 59.1658 30.517C59.1658 31.0285 58.7902 31.3846 58.3046 31.3846ZM58.3046 31.1451C58.6413 31.1451 58.8809 30.899 58.8809 30.5234C58.8809 30.1414 58.6348 29.9018 58.3046 29.9018C57.9679 29.9018 57.7283 30.1414 57.7283 30.5234C57.7283 30.899 57.9679 31.1451 58.3046 31.1451Z" fill="white"/>
<path d="M60.3874 30.6206C60.3874 30.3746 60.2514 30.2515 60.0507 30.2515C59.8435 30.2515 59.714 30.381 59.714 30.6206V31.3718H59.4355V30.0314H59.714V30.1868C59.8046 30.0767 59.9536 30.012 60.1154 30.012C60.4263 30.012 60.6658 30.2062 60.6658 30.5818V31.3718H60.3939V30.6206H60.3874Z" fill="white"/>
<path d="M61.0176 29.5715H61.296V31.3716H61.0176V29.5715Z" fill="white"/>
<path d="M61.6191 29.6753C61.6191 29.5782 61.6968 29.5005 61.794 29.5005C61.8911 29.5005 61.9688 29.5782 61.9688 29.6753C61.9688 29.7724 61.8911 29.8501 61.794 29.8501C61.6968 29.8501 61.6191 29.7724 61.6191 29.6753ZM61.658 30.025H61.9364V31.3653H61.658V30.025Z" fill="white"/>
<path d="M63.2448 30.6206C63.2448 30.3746 63.1088 30.2515 62.9081 30.2515C62.7009 30.2515 62.5714 30.381 62.5714 30.6206V31.3718H62.293V30.0314H62.5714V30.1868C62.6621 30.0767 62.811 30.012 62.9729 30.012C63.2837 30.012 63.5233 30.2062 63.5233 30.5818V31.3718H63.2513V30.6206H63.2448Z" fill="white"/>
<path d="M64.4482 31.3911C64.0662 31.3911 63.7812 31.1191 63.7812 30.6982C63.7812 30.2773 64.0532 30.0054 64.4482 30.0054C64.8302 30.0054 65.1022 30.2709 65.1022 30.6658C65.1022 30.7112 65.1022 30.7565 65.0892 30.8018H64.0662C64.0856 31.022 64.241 31.158 64.4482 31.158C64.6166 31.158 64.7137 31.0738 64.7655 30.9702H65.0633C64.9856 31.2033 64.7784 31.3911 64.4482 31.3911ZM64.0726 30.5752H64.8108C64.8043 30.368 64.6425 30.2385 64.4352 30.2385C64.2475 30.2385 64.0985 30.368 64.0726 30.5752Z" fill="white"/>
<path d="M46.467 20.2087C46.3051 20.2087 46.2209 20.1439 46.1044 19.982L44.4791 17.7675H43.4236V19.8849C43.4236 20.0662 43.2812 20.1957 43.0999 20.1957C42.9186 20.1957 42.7891 20.0662 42.7891 19.8849V13.0989C42.7891 12.9176 42.9186 12.7881 43.0999 12.7881C43.2812 12.7881 43.4236 12.9176 43.4236 13.0989V17.2042H44.4791L46.072 15.2357C46.1691 15.0933 46.2663 15.022 46.4152 15.022C46.6807 15.022 46.7907 15.2681 46.6418 15.4753L45.0295 17.4632L46.7066 19.7295C46.8749 19.9756 46.713 20.2087 46.467 20.2087Z" fill="white"/>
<path d="M52.1794 17.366C52.1794 17.625 52.0304 17.7868 51.7585 17.7868H47.8604C47.9381 18.8812 48.741 19.7424 49.8807 19.7424C50.9361 19.7424 51.2664 19.2049 51.5124 19.2049C51.6614 19.2049 51.7585 19.302 51.7585 19.438C51.7585 19.7942 50.9556 20.3057 49.8548 20.3057C48.3072 20.3057 47.2129 19.0948 47.2129 17.612C47.2129 16.1292 48.2554 14.9248 49.7253 14.9248C51.2728 14.9248 52.1794 16.168 52.1794 17.366ZM47.8604 17.3206H51.5448C51.4347 16.168 50.6836 15.4817 49.7188 15.4817C48.7087 15.4817 47.977 16.2781 47.8604 17.3206Z" fill="white"/>
<path d="M53.5376 12.7881C53.7189 12.7881 53.8614 12.9176 53.8614 13.0989V19.8849C53.8614 20.0662 53.7189 20.1957 53.5376 20.1957C53.3563 20.1957 53.2268 20.0662 53.2268 19.8849V13.0989C53.2203 12.9176 53.3498 12.7881 53.5376 12.7881Z" fill="white"/>
<path d="M60.1621 15.3456V19.8912C60.1621 20.0725 60.0326 20.202 59.8513 20.202C59.657 20.202 59.5275 20.0725 59.5275 19.8912V19.1595C59.1066 19.8458 58.4073 20.3121 57.5202 20.3121C56.0892 20.3121 55.0078 19.1271 55.0078 17.6184C55.0078 16.1161 56.0697 14.9312 57.5202 14.9312C58.4138 14.9312 59.1131 15.3715 59.5275 16.0578V15.3456C59.5275 15.1643 59.657 15.0348 59.8513 15.0348C60.0326 15.0348 60.1621 15.1643 60.1621 15.3456ZM59.5275 17.5989C59.5275 16.4399 58.7246 15.5139 57.5914 15.5139C56.4647 15.5139 55.6359 16.4399 55.6359 17.5989C55.6359 18.758 56.4647 19.7163 57.5914 19.7163C58.7181 19.7163 59.5275 18.758 59.5275 17.5989Z" fill="white"/>
<path d="M63.2175 20.3057C62.0649 20.3057 61.1973 19.6841 61.1973 19.315C61.1973 19.1402 61.3138 19.0689 61.4627 19.0689C61.7412 19.0689 62.0973 19.7553 63.2693 19.7553C64.0334 19.7553 64.4737 19.3927 64.4737 18.8553C64.4737 17.4566 61.3786 18.1365 61.3786 16.2975C61.3786 15.514 62.0585 14.9248 63.1852 14.9248C64.1176 14.9248 64.8817 15.3651 64.8817 15.6889C64.8817 15.8378 64.7716 15.9285 64.6356 15.9285C64.3442 15.9285 64.001 15.4752 63.1398 15.4752C62.4405 15.4752 62.0002 15.8184 62.0002 16.2781C62.0002 17.5667 65.0953 16.9451 65.0953 18.8229C65.1018 19.697 64.4025 20.3057 63.2175 20.3057Z" fill="white"/>
<path d="M20.4545 11.5901C20.2279 11.8362 19.9495 12.1794 19.7747 12.678C19.6969 12.8593 19.6516 13.0924 19.6387 13.3449C19.6387 13.3449 19.6387 13.3449 19.6451 13.3449C19.6257 13.8759 19.7423 14.6788 19.8135 15.1385H19.807C19.9106 15.6954 20.0272 16.1098 20.0272 16.1098L21.1021 20.0338L21.4841 21.6914H21.4971H21.5035L23.0835 27.681L23.2777 28.4192C23.9188 30.815 27.0593 31.5661 28.8917 29.7596L31.171 27.5062C30.6012 26.7292 29.7012 26.3407 28.9241 26.8846C27.9334 27.5839 26.0686 30.2064 25.6282 29.4488C25.2915 28.866 26.8262 27.1371 27.8039 24.8837C28.7881 22.6304 26.8456 21.3159 25.6218 19.8525C24.398 18.3891 23.99 17.1588 24.2102 16.984C24.5728 16.6991 24.9354 17.4049 25.4469 18.0135C26.2952 19.0107 26.7679 19.6388 29.481 20.759C29.1249 20.364 28.9371 19.8201 29.0148 19.2568C29.1508 18.2272 30.0961 17.4955 31.1322 17.6315C32.1617 17.7675 32.8934 18.7129 32.7575 19.7489C32.6474 20.5712 32.0258 21.1929 31.2617 21.3483C33.4114 21.8533 34.577 21.5814 35.4382 21.3029C36.8498 20.8432 36.6167 21.8663 34.5252 22.4555C32.2394 23.0966 31.7344 23.2714 31.579 24.1132C31.4236 24.9485 31.9286 25.7385 32.3366 26.3601L39.414 19.3733C41.0328 17.7739 40.3011 15.022 38.0995 14.4457L36.9145 14.1349L35.8656 13.8888C35.218 13.7658 34.6806 13.5651 34.2079 13.4874L23.8346 10.6706C23.5238 10.5865 23.213 10.5476 22.9087 10.5476C21.9438 10.5476 21.0567 10.9361 20.4545 11.5901Z" fill="#FF9E18"/>
<path d="M18.8889 14.3743C18.9342 14.1282 19.1025 13.8628 19.2709 13.6815C19.4716 13.4483 19.7242 13.267 20.0091 13.144C20.9415 12.8332 21.6538 13.4354 20.6177 14.6009C20.2551 15.0024 19.8537 15.1837 19.5234 15.1837C19.0961 15.1772 18.7982 14.8794 18.8889 14.3743ZM16.6484 12.9692C17.4837 12.9692 18.1766 13.3965 18.5392 14.1671C18.6752 14.5427 18.7529 15.0607 18.5522 15.5916C19.0378 15.9737 20.6113 15.9737 21.33 16.9838C21.7833 17.6249 21.9322 18.6674 21.1746 19.8394C20.7084 20.5646 20.035 21.0179 20.1127 21.4452C20.1839 21.8337 21.1358 21.6978 21.4854 21.6848H21.4984C22.2819 21.6913 24.3021 21.646 24.723 23.2648C25.2087 25.162 23.5122 27.1823 23.0913 27.6744L23.2855 28.4126C23.9266 30.8084 27.0671 31.5595 28.8995 29.7529L31.1788 27.4996C30.609 26.7225 29.7089 26.334 28.9319 26.8779C27.9412 27.5773 26.0763 30.1997 25.636 29.4421C25.2993 28.8594 26.8339 27.1305 27.8117 24.8771C28.7959 22.6237 26.8534 21.3093 25.6296 19.8459C24.4057 18.3825 23.9978 17.1522 24.218 16.9773C24.5806 16.6924 24.9432 17.3982 25.4547 18.0069C26.303 19.0041 26.7757 19.6322 29.4888 20.7524C29.1326 20.3574 28.9449 19.8135 29.0226 19.2501C29.1585 18.2206 30.1039 17.4889 31.14 17.6249C32.1695 17.7608 32.9012 18.7062 32.7652 19.7423C32.6552 20.5646 32.0335 21.1862 31.2695 21.3416C33.4192 21.8467 34.5848 21.5747 35.446 21.2963C36.8576 20.8366 36.6245 21.8596 34.533 22.4489C32.2472 23.0899 31.7422 23.2648 31.5868 24.1065C31.4313 24.9418 31.9364 25.7318 32.3444 26.3534L39.4218 19.3667C41.0406 17.7673 40.3089 15.0153 38.1073 14.4391L36.9223 14.1282L35.8733 13.8822C34.1574 13.5584 33.2056 12.6519 32.0918 15.1967C30.6996 18.3695 28.9254 16.6924 28.9449 14.97C28.9772 12.3864 27.3649 13.1699 25.9404 13.7397C24.2244 14.4261 23.3762 14.4973 22.4956 13.4613C22.1394 13.0404 21.861 12.6907 21.5825 12.4447C21.466 12.5807 20.8897 13.1311 19.8796 12.7425C19.2061 12.3929 18.7399 11.6871 18.7399 10.8777C18.7399 12.0303 17.801 12.9692 16.6484 12.9692Z" fill="#FFCD00"/>
<path d="M14.4141 12.982L15.0616 13.6554L15.7285 12.982L15.0616 12.2957L14.4141 12.982Z" fill="#FFCF3C"/>
<path d="M17.9434 9.78998C18.3772 9.78998 18.7333 10.1461 18.7333 10.58C18.7333 10.1461 19.0895 9.78998 19.5233 9.78998C19.0895 9.78998 18.7333 9.43384 18.7333 9C18.7398 9.43384 18.3837 9.78998 17.9434 9.78998Z" fill="#FFCF3C"/>
<path d="M15.4492 10.7874C16.032 10.7874 16.5047 11.2601 16.5047 11.8429C16.5047 11.2601 16.9774 10.7874 17.5601 10.7874C16.9774 10.7874 16.5047 10.3147 16.5047 9.73193C16.5047 10.3147 16.032 10.7874 15.4492 10.7874Z" fill="#FFCF3C"/>
<path d="M14 10.9361L14.395 11.3441L14.8029 10.9361L14.395 10.5217L14 10.9361Z" fill="#FFCF3C"/>
<path d="M14.7578 15.2679C15.6902 15.2679 16.4478 16.0255 16.4478 16.9579C16.4478 16.0255 17.2054 15.2679 18.1379 15.2679C17.2054 15.2679 16.4478 14.5103 16.4478 13.5779C16.4478 14.5103 15.6902 15.2679 14.7578 15.2679Z" fill="#FFCF3C"/>
<path d="M23.2978 11.4152C23.0259 11.8166 23.3237 12.4965 23.9713 12.9368C24.6123 13.3771 25.357 13.416 25.6289 13.0145C25.9009 12.6131 25.603 11.9332 24.9555 11.4929C24.6123 11.2597 24.2432 11.1367 23.9259 11.1367C23.654 11.1367 23.4273 11.2274 23.2978 11.4152Z" fill="#FFCD00"/>
<path d="M43.7461 21.6391C43.7461 22.0341 44.0634 22.3579 44.4519 22.3579C44.8469 22.3579 45.1706 22.0406 45.1706 21.6391C45.1706 21.2506 44.8534 20.9333 44.4519 20.9333C44.0699 20.9333 43.7461 21.2506 43.7461 21.6391Z" fill="#FF9E18"/>
<path d="M43.0596 25.5504C43.0596 27.1433 41.9523 28.2376 40.6055 28.2376C39.932 28.2376 39.4075 27.9721 39.0385 27.5318V29.6686C39.0385 30.0507 38.773 30.3291 38.3909 30.3291C37.996 30.3291 37.7305 30.0507 37.7305 29.6686V23.6078C37.7305 23.2258 37.996 22.9538 38.3909 22.9538C38.7406 22.9538 38.9996 23.1805 39.0385 23.5172C39.4011 23.0898 39.9256 22.8438 40.6055 22.8438C42.0106 22.8567 43.0596 24.0158 43.0596 25.5504ZM41.7451 25.5633C41.7451 24.728 41.1818 24.0676 40.3918 24.0676C39.6148 24.0676 39.0385 24.728 39.0385 25.5633C39.0385 26.3727 39.6148 27.0267 40.3918 27.0267C41.1818 27.0267 41.7451 26.3727 41.7451 25.5633Z" fill="white"/>
<path d="M44.4587 28.1338C44.0766 28.1338 43.8047 27.8683 43.8047 27.4863V23.6141C43.8047 23.232 44.0702 22.9666 44.4457 22.9666C44.8407 22.9666 45.1062 23.232 45.1062 23.6141V27.4863C45.1127 27.8683 44.8472 28.1338 44.4587 28.1338Z" fill="white"/>
<path d="M50.8091 25.0065V27.48C50.8091 27.862 50.5437 28.1275 50.1552 28.1275C49.7731 28.1275 49.4947 27.862 49.4947 27.48V25.1943C49.4947 24.5014 49.0867 24.0611 48.4586 24.0611C47.8176 24.0611 47.4226 24.5014 47.4226 25.1943V27.48C47.4226 27.862 47.1571 28.1275 46.7751 28.1275C46.3931 28.1275 46.1211 27.862 46.1211 27.48V23.6078C46.1211 23.2258 46.3866 22.9538 46.7621 22.9538C47.1248 22.9538 47.3708 23.1675 47.4097 23.4977C47.7269 23.0833 48.232 22.8438 48.8472 22.8438C50.0451 22.8567 50.8091 23.6791 50.8091 25.0065Z" fill="white"/>
<path d="M54.6828 26.8644C55.0324 26.8644 55.2137 27.0975 55.2137 27.3565C55.2137 27.8486 54.6828 28.2436 53.8345 28.2436C52.779 28.2436 52.1056 27.6026 52.1056 26.3529V24.1448H51.6329C51.2897 24.1448 51.0566 23.9117 51.0566 23.5556C51.0566 23.2253 51.2897 22.9922 51.6329 22.9922H52.1121V22.2994C52.1121 21.9044 52.3776 21.6389 52.7531 21.6389C53.1481 21.6389 53.4136 21.9044 53.4136 22.2994V22.9922H54.372C54.7022 22.9922 54.9353 23.2253 54.9353 23.5685C54.9353 23.9117 54.7022 24.1448 54.372 24.1448H53.433V26.5018C53.433 26.8838 53.6014 27.0263 53.8928 27.0263C54.1906 27.0263 54.4367 26.8644 54.6828 26.8644Z" fill="white"/>
<path d="M60.6143 23.6143V27.4865C60.6143 27.8685 60.3488 28.134 59.9603 28.134C59.5847 28.134 59.3192 27.8879 59.2998 27.5383C58.9372 27.9786 58.4127 28.2441 57.7393 28.2441C56.3859 28.2441 55.2852 27.1433 55.2852 25.5439C55.2852 24.0093 56.3212 22.8567 57.7393 22.8567C58.4127 22.8567 58.9372 23.1027 59.2998 23.5301C59.3451 23.1869 59.5976 22.9668 59.9603 22.9668C60.3488 22.9603 60.6143 23.2258 60.6143 23.6143ZM59.2998 25.5439C59.2998 24.7216 58.7364 24.074 57.9529 24.074C57.163 24.074 56.5867 24.7216 56.5867 25.5439C56.5867 26.3663 57.163 27.0267 57.9529 27.0267C58.7364 27.0267 59.2998 26.3663 59.2998 25.5439Z" fill="white"/>
<path d="M65.1017 23.5559C65.1017 23.9379 64.8362 24.1775 64.4606 24.1775C64.2599 24.1775 64.0333 24.1128 63.7354 24.1128C63.2692 24.1128 62.9584 24.4624 62.9584 25.0063V27.4799C62.9584 27.8619 62.6929 28.1274 62.3044 28.1274C61.9159 28.1274 61.6504 27.8619 61.6504 27.4799V23.6077C61.6504 23.2257 61.9159 22.9537 62.2914 22.9537C62.667 22.9537 62.9195 23.1868 62.9519 23.53C63.2303 23.135 63.6577 22.8501 64.221 22.8501C64.6484 22.8566 65.1017 23.0767 65.1017 23.5559Z" fill="white"/>
<path fill-rule="evenodd" clip-rule="evenodd" d="M104 71.9299C104.744 71.1676 105.633 70.5621 106.615 70.1493C107.596 69.7364 108.65 69.5244 109.714 69.5259H127.999C129.698 69.5259 131.177 70.4509 131.963 71.8223C132.123 72.0993 132.182 72.4175 132.182 72.7381V77.9902L133.714 111.882C133.714 113.4 133.112 114.856 132.04 115.929C130.968 117.003 129.515 117.606 127.999 117.606H80.0012C78.4857 117.606 77.0323 117.003 75.9607 115.929C74.8891 114.856 74.2871 113.4 74.2871 111.882L75.8185 77.9902V72.7381C75.8185 72.4175 75.8779 72.0993 76.0379 71.8223C76.4384 71.1241 77.0158 70.5441 77.7117 70.1409C78.4075 69.7377 79.1973 69.5256 80.0012 69.5259H98.2863C100.526 69.5259 102.549 70.4463 104 71.9299Z" fill="#CED4DA"/>
<path d="M107.958 122.185H132.569C134.466 122.185 136 120.632 136 118.739V116.324C136 114.43 134.469 110.735 132.569 110.735H75.4284C73.5337 110.737 72 114.432 72 116.326V118.762C72 120.655 73.5314 122.185 75.4307 122.185H100.04C100.441 122.881 101.018 123.459 101.713 123.861C102.408 124.263 103.196 124.474 103.999 124.474C104.801 124.474 105.589 124.263 106.284 123.861C106.979 123.459 107.556 122.881 107.958 122.185Z" fill="#002252"/>
<path fill-rule="evenodd" clip-rule="evenodd" d="M75.4307 76.3943H99.4276V78.6838H108.57V76.3943H132.567C134.464 76.3943 135.998 77.9237 135.998 79.8171V116.449C135.998 118.343 134.466 119.895 132.567 119.895H107.958C107.556 120.591 106.979 121.169 106.284 121.571C105.589 121.973 104.801 122.184 103.999 122.184C103.196 122.184 102.408 121.973 101.713 121.571C101.018 121.169 100.441 120.591 100.04 119.895H75.4284C73.5337 119.895 72 118.366 72 116.472V79.8171C72 77.9237 73.5314 76.3943 75.4307 76.3943ZM107.427 116.461C107.427 117.372 107.066 118.245 106.423 118.889C105.78 119.533 104.908 119.895 103.999 119.895C103.09 119.895 102.218 119.533 101.575 118.889C100.932 118.245 100.57 117.372 100.57 116.461C100.57 115.55 100.932 114.677 101.575 114.032C102.218 113.388 103.09 113.027 103.999 113.027C104.908 113.027 105.78 113.388 106.423 114.032C107.066 114.677 107.427 115.55 107.427 116.461Z" fill="#FFCE00"/>
<path d="M97.1434 71.8157H80.6937C80.1293 71.8157 79.5737 71.9553 79.0761 72.2221C78.5785 72.4889 78.1543 72.8747 77.8413 73.3451L74.2871 78.6842V111.882C74.2871 112.793 74.6483 113.667 75.2913 114.311C75.9342 114.955 76.8063 115.317 77.7156 115.317H130.285C131.194 115.317 132.066 114.955 132.709 114.311C133.352 113.667 133.714 112.793 133.714 111.882V78.6842L130.159 73.3451C129.846 72.8747 129.422 72.4889 128.925 72.2221C128.427 71.9553 127.871 71.8157 127.307 71.8157H110.857V78.6842H97.1434V71.8157Z" fill="#CED4DA"/>
<path d="M79.9985 71.8157H98.2836C99.7991 71.8157 101.252 72.4187 102.324 73.4921C103.396 74.5656 103.998 76.0214 103.998 77.5395V115.317L102.976 113.27C102.596 112.509 102.012 111.868 101.29 111.421C100.567 110.974 99.7342 110.737 98.8847 110.738H79.9985C79.3923 110.738 78.811 110.496 78.3823 110.067C77.9537 109.638 77.7129 109.055 77.7129 108.448V74.1052C77.7129 73.498 77.9537 72.9156 78.3823 72.4863C78.811 72.0569 79.3923 71.8157 79.9985 71.8157ZM109.712 71.8157H127.997C128.603 71.8157 129.184 72.0569 129.613 72.4863C130.042 72.9156 130.282 73.498 130.282 74.1052V108.448C130.282 109.055 130.042 109.638 129.613 110.067C129.184 110.496 128.603 110.738 127.997 110.738H109.108C108.303 110.738 107.512 110.951 106.815 111.356C106.118 111.761 105.54 112.343 105.14 113.043V74.1052C106.183 72.7155 107.842 71.8157 109.712 71.8157Z" fill="#F3EEF8"/>
<path d="M166.479 89.644V105H163.399V95.012L159.285 105H156.953L152.817 95.012V105H149.737V89.644H153.235L158.119 101.062L163.003 89.644H166.479ZM175.186 105.198C174.013 105.198 172.957 104.941 172.018 104.428C171.079 103.9 170.339 103.159 169.796 102.206C169.268 101.253 169.004 100.153 169.004 98.906C169.004 97.6593 169.275 96.5593 169.818 95.606C170.375 94.6527 171.131 93.9193 172.084 93.406C173.037 92.878 174.101 92.614 175.274 92.614C176.447 92.614 177.511 92.878 178.464 93.406C179.417 93.9193 180.165 94.6527 180.708 95.606C181.265 96.5593 181.544 97.6593 181.544 98.906C181.544 100.153 181.258 101.253 180.686 102.206C180.129 103.159 179.366 103.9 178.398 104.428C177.445 104.941 176.374 105.198 175.186 105.198ZM175.186 102.514C175.743 102.514 176.264 102.382 176.748 102.118C177.247 101.839 177.643 101.429 177.936 100.886C178.229 100.343 178.376 99.6833 178.376 98.906C178.376 97.7473 178.068 96.86 177.452 96.244C176.851 95.6133 176.11 95.298 175.23 95.298C174.35 95.298 173.609 95.6133 173.008 96.244C172.421 96.86 172.128 97.7473 172.128 98.906C172.128 100.065 172.414 100.959 172.986 101.59C173.573 102.206 174.306 102.514 175.186 102.514ZM183.261 98.862C183.261 97.63 183.503 96.5373 183.987 95.584C184.486 94.6307 185.16 93.8973 186.011 93.384C186.862 92.8707 187.808 92.614 188.849 92.614C189.641 92.614 190.396 92.79 191.115 93.142C191.834 93.4793 192.406 93.934 192.831 94.506V88.72H195.955V105H192.831V103.196C192.45 103.797 191.914 104.281 191.225 104.648C190.536 105.015 189.736 105.198 188.827 105.198C187.8 105.198 186.862 104.934 186.011 104.406C185.16 103.878 184.486 103.137 183.987 102.184C183.503 101.216 183.261 100.109 183.261 98.862ZM192.853 98.906C192.853 98.158 192.706 97.52 192.413 96.992C192.12 96.4493 191.724 96.0387 191.225 95.76C190.726 95.4667 190.191 95.32 189.619 95.32C189.047 95.32 188.519 95.4593 188.035 95.738C187.551 96.0167 187.155 96.4273 186.847 96.97C186.554 97.498 186.407 98.1287 186.407 98.862C186.407 99.5953 186.554 100.241 186.847 100.798C187.155 101.341 187.551 101.759 188.035 102.052C188.534 102.345 189.062 102.492 189.619 102.492C190.191 102.492 190.726 102.353 191.225 102.074C191.724 101.781 192.12 101.37 192.413 100.842C192.706 100.299 192.853 99.654 192.853 98.906ZM210.719 92.812V105H207.617V103.46C207.221 103.988 206.701 104.406 206.055 104.714C205.425 105.007 204.735 105.154 203.987 105.154C203.034 105.154 202.191 104.956 201.457 104.56C200.724 104.149 200.145 103.555 199.719 102.778C199.309 101.986 199.103 101.047 199.103 99.962V92.812H202.183V99.522C202.183 100.49 202.425 101.238 202.909 101.766C203.393 102.279 204.053 102.536 204.889 102.536C205.74 102.536 206.407 102.279 206.891 101.766C207.375 101.238 207.617 100.49 207.617 99.522V92.812H210.719ZM217.088 88.72V105H214.008V88.72H217.088ZM235.289 102.074H229.173L228.161 105H224.927L230.449 89.622H234.035L239.557 105H236.301L235.289 102.074ZM234.453 99.61L232.231 93.186L230.009 99.61H234.453ZM243.434 91.36C242.876 91.36 242.414 91.1913 242.048 90.854C241.696 90.502 241.52 90.0693 241.52 89.556C241.52 89.0427 241.696 88.6173 242.048 88.28C242.414 87.928 242.876 87.752 243.434 87.752C243.976 87.752 244.424 87.928 244.776 88.28C245.128 88.6173 245.304 89.0427 245.304 89.556C245.304 90.0693 245.128 90.502 244.776 90.854C244.424 91.1913 243.976 91.36 243.434 91.36ZM244.952 107.002C244.952 108.351 244.614 109.319 243.94 109.906C243.28 110.507 242.326 110.808 241.08 110.808H239.716V108.19H240.596C241.065 108.19 241.395 108.095 241.586 107.904C241.776 107.728 241.872 107.435 241.872 107.024V92.812H244.952V107.002ZM247.453 98.862C247.453 97.63 247.695 96.5373 248.179 95.584C248.677 94.6307 249.345 93.8973 250.181 93.384C251.031 92.8707 251.977 92.614 253.019 92.614C253.928 92.614 254.72 92.7973 255.395 93.164C256.084 93.5307 256.634 93.9927 257.045 94.55V92.812H260.147V105H257.045V103.218C256.649 103.79 256.099 104.267 255.395 104.648C254.705 105.015 253.906 105.198 252.997 105.198C251.97 105.198 251.031 104.934 250.181 104.406C249.345 103.878 248.677 103.137 248.179 102.184C247.695 101.216 247.453 100.109 247.453 98.862ZM257.045 98.906C257.045 98.158 256.898 97.52 256.605 96.992C256.311 96.4493 255.915 96.0387 255.417 95.76C254.918 95.4667 254.383 95.32 253.811 95.32C253.239 95.32 252.711 95.4593 252.227 95.738C251.743 96.0167 251.347 96.4273 251.039 96.97C250.745 97.498 250.599 98.1287 250.599 98.862C250.599 99.5953 250.745 100.241 251.039 100.798C251.347 101.341 251.743 101.759 252.227 102.052C252.725 102.345 253.253 102.492 253.811 102.492C254.383 102.492 254.918 102.353 255.417 102.074C255.915 101.781 256.311 101.37 256.605 100.842C256.898 100.299 257.045 99.654 257.045 98.906ZM266.485 94.704C266.881 94.0587 267.394 93.5527 268.025 93.186C268.67 92.8193 269.403 92.636 270.225 92.636V95.87H269.411C268.443 95.87 267.709 96.0973 267.211 96.552C266.727 97.0067 266.485 97.7987 266.485 98.928V105H263.405V92.812H266.485V94.704Z" fill="white"/>
</g>
<defs>
<clipPath id="clip0_20410_187178">
<rect width="344" height="194.524" rx="10" fill="white"/>
</clipPath>
</defs>
</svg>
