<svg width="344" height="195" viewBox="0 0 344 195" fill="none" xmlns="http://www.w3.org/2000/svg">
<g clip-path="url(#clip0_20410_187256)">
<rect width="344" height="194.524" rx="10" fill="#0055B8"/>
<path opacity="0.4" d="M346.053 -37.8909C343.96 -39.6237 341.797 -40.3931 340.123 -40.8724C335.675 -42.1467 330.616 -41.486 326.211 -38.9021C324.822 -38.087 323.504 -37.0831 322.303 -35.8791L282.261 4.33687C280.305 5.94584 278.373 8.27135 275.736 10.5486L271.586 14.4442L266.984 18.9899C258.429 27.4301 262.238 41.5385 273.783 44.2637L348.802 61.9344C361.861 65.002 374.248 53.2754 370.951 40.982L361.574 6.53016L361.663 6.47814L359.101 -1.86287L353.815 -22.0643C353.815 -22.0643 353.271 -24.2059 352.297 -26.9417L352.268 -26.9244C351.399 -29.1447 349.845 -33.0015 348.377 -35.2934L348.407 -35.3108C347.691 -36.3909 346.879 -37.2986 346.053 -37.8909Z" fill="#007BE0"/>
<path opacity="0.4" d="M21.7332 242.264C23.9516 244.091 26.2411 244.899 28.0128 245.402C32.7211 246.739 38.0713 246.03 42.7248 243.289C44.1926 242.424 45.5846 241.36 46.8515 240.085L89.1154 197.488C91.181 195.783 93.2195 193.321 96.0033 190.908L100.384 186.781L105.242 181.966C114.271 173.026 110.211 158.122 97.9916 155.267L18.5951 136.754C4.77407 133.54 -8.30146 145.962 -4.78557 158.949L5.21244 195.345L5.11874 195.4L7.84797 204.211L13.4861 225.552C13.4861 225.552 14.0669 227.814 15.103 230.704L15.1343 230.686C16.0587 233.031 17.711 237.104 19.2692 239.523L19.2379 239.542C19.9969 240.682 20.8584 241.639 21.7332 242.264Z" fill="#007BE0"/>
<path opacity="0.4" d="M256 148.5C267.586 148.5 277 157.69 277 169C277 157.69 286.414 148.5 298 148.5C286.414 148.5 277 139.31 277 128C277 139.31 267.586 148.5 256 148.5Z" fill="#0064C8"/>
<path opacity="0.4" d="M28 45C39.5862 45 49 54.4138 49 66C49 54.4138 58.4138 45 70 45C58.4138 45 49 35.5862 49 24C49 35.5862 39.5862 45 28 45Z" fill="#0064C8"/>
<path opacity="0.4" d="M102 62.5C104.209 62.5 106 64.5153 106 67C106 64.5153 107.791 62.5 110 62.5C107.791 62.5 106 60.4847 106 58C106 60.4847 104.209 62.5 102 62.5Z" fill="#0064C8"/>
<path opacity="0.4" d="M3 17.5C5.20859 17.5 7 19.5153 7 22C7 19.5153 8.79141 17.5 11 17.5C8.79141 17.5 7 15.4847 7 13C7 15.4847 5.20859 17.5 3 17.5Z" fill="#0064C8"/>
<path d="M41.125 31.3845C40.7883 31.3845 40.5293 31.1967 40.5293 30.8989H40.8272C40.8401 31.0349 40.9372 31.1514 41.1315 31.1514C41.3257 31.1514 41.4358 31.0478 41.4358 30.9053C41.4358 30.4974 40.5422 30.7629 40.5422 30.1413C40.5422 29.8434 40.7754 29.6621 41.125 29.6621C41.4488 29.6621 41.6754 29.8305 41.7013 30.1218H41.397C41.384 30.0053 41.2869 29.9017 41.1121 29.8952C40.9502 29.8887 40.8272 29.9664 40.8272 30.1283C40.8272 30.5104 41.7207 30.2708 41.7207 30.8859C41.7078 31.1385 41.5006 31.3845 41.125 31.3845Z" fill="white"/>
<path d="M42.6129 31.3911C42.2308 31.3911 41.9395 31.1191 41.9395 30.6982C41.9395 30.2773 42.2438 30.0054 42.6194 30.0054C43.0014 30.0054 43.2992 30.2773 43.2992 30.6982C43.3057 31.1126 42.9949 31.3911 42.6129 31.3911ZM42.6129 31.145C42.8201 31.145 43.0208 30.9961 43.0208 30.6917C43.0208 30.3874 42.8266 30.245 42.6194 30.245C42.4121 30.245 42.2244 30.3939 42.2244 30.6917C42.2244 30.9961 42.4057 31.145 42.6129 31.145Z" fill="white"/>
<path d="M43.584 29.5715H43.8624V31.3716H43.584V29.5715Z" fill="white"/>
<path d="M45.4367 31.3653H45.1583V31.2034C45.0676 31.3199 44.9187 31.3847 44.7633 31.3847C44.4525 31.3847 44.2129 31.1904 44.2129 30.8149V30.0249H44.4848V30.7696C44.4848 31.0156 44.6208 31.1386 44.8216 31.1386C45.0288 31.1386 45.1583 31.0091 45.1583 30.7696V30.0249H45.4367V31.3653Z" fill="white"/>
<path d="M46.2854 31.3911C45.9681 31.3911 45.7415 31.2033 45.7285 30.9572H46.0134C46.0264 31.0673 46.13 31.158 46.2789 31.158C46.4408 31.158 46.525 31.0867 46.525 30.9961C46.525 30.7306 45.7479 30.886 45.7479 30.3939C45.7479 30.1802 45.9487 30.0054 46.266 30.0054C46.5703 30.0054 46.771 30.1673 46.784 30.4327H46.5055C46.4926 30.3162 46.4084 30.2385 46.253 30.2385C46.1041 30.2385 46.0264 30.2968 46.0264 30.3874C46.0264 30.6594 46.784 30.504 46.7969 30.9896C46.7969 31.2162 46.6027 31.3911 46.2854 31.3911Z" fill="white"/>
<path d="M47.0645 29.6753C47.0645 29.5782 47.1422 29.5005 47.2393 29.5005C47.3364 29.5005 47.4141 29.5782 47.4141 29.6753C47.4141 29.7724 47.3364 29.8501 47.2393 29.8501C47.1422 29.8501 47.0645 29.7724 47.0645 29.6753ZM47.0968 30.025H47.3753V31.3653H47.0968V30.025Z" fill="white"/>
<path d="M49.0426 31.3653H48.3691V29.6753H49.0102C49.3663 29.6753 49.5541 29.8696 49.5541 30.1091C49.5541 30.3163 49.4311 30.4394 49.2692 30.4976C49.4505 30.53 49.593 30.7113 49.593 30.9121C49.593 31.1711 49.3858 31.3653 49.0426 31.3653ZM48.9843 29.9019H48.6411V30.3876H48.9843C49.1656 30.3876 49.2757 30.3034 49.2757 30.148C49.2757 29.9926 49.1656 29.9019 48.9843 29.9019ZM49.0102 30.6142H48.6411V31.1387H49.0167C49.2044 31.1387 49.321 31.0416 49.321 30.8797C49.321 30.7178 49.1915 30.6142 49.0102 30.6142Z" fill="white"/>
<path d="M50.4736 31.3911C50.0915 31.3911 49.8066 31.1191 49.8066 30.6982C49.8066 30.2773 50.0786 30.0054 50.4736 30.0054C50.8556 30.0054 51.1276 30.2709 51.1276 30.6658C51.1276 30.7112 51.1276 30.7565 51.1146 30.8018H50.0916C50.111 31.022 50.2664 31.158 50.4736 31.158C50.6419 31.158 50.7391 31.0738 50.7909 30.9702H51.0887C51.011 31.2033 50.7973 31.3911 50.4736 31.3911ZM50.0916 30.5752H50.8297C50.8232 30.368 50.6614 30.2385 50.4542 30.2385C50.2729 30.2385 50.1239 30.368 50.0916 30.5752Z" fill="white"/>
<path d="M51.3945 29.5715H51.673V31.3716H51.3945V29.5715Z" fill="white"/>
<path d="M52.5794 30.0054C52.806 30.0054 52.9614 30.109 53.0456 30.2191V30.0248H53.324V31.3652H53.0456V31.1644C52.9614 31.281 52.7995 31.3846 52.5794 31.3846C52.2297 31.3846 51.9513 31.0997 51.9513 30.6853C51.9448 30.2773 52.2232 30.0054 52.5794 30.0054ZM52.6377 30.245C52.4305 30.245 52.2297 30.4004 52.2297 30.6917C52.2297 30.9831 52.4305 31.1515 52.6377 31.1515C52.8449 31.1515 53.0456 30.9896 53.0456 30.6982C53.0391 30.4068 52.8449 30.245 52.6377 30.245Z" fill="white"/>
<path d="M53.9581 30.025V31.6244C53.9581 31.8963 53.8092 31.9999 53.576 31.9999H53.4336V31.7668H53.5307C53.6473 31.7668 53.6861 31.728 53.6861 31.6244V30.025H53.9581ZM53.6473 29.6753C53.6473 29.5782 53.725 29.5005 53.8221 29.5005C53.9192 29.5005 53.9969 29.5782 53.9969 29.6753C53.9969 29.7724 53.9192 29.8501 53.8221 29.8501C53.725 29.8501 53.6473 29.7724 53.6473 29.6753Z" fill="white"/>
<path d="M54.8645 30.0054C55.0912 30.0054 55.2466 30.109 55.3307 30.2191V30.0248H55.6092V31.3652H55.3307V31.1644C55.2466 31.281 55.0847 31.3846 54.8645 31.3846C54.5149 31.3846 54.2364 31.0997 54.2364 30.6853C54.23 30.2773 54.5084 30.0054 54.8645 30.0054ZM54.9228 30.245C54.7156 30.245 54.5149 30.4004 54.5149 30.6917C54.5149 30.9831 54.7156 31.1515 54.9228 31.1515C55.13 31.1515 55.3307 30.9896 55.3307 30.6982C55.3243 30.4068 55.13 30.245 54.9228 30.245Z" fill="white"/>
<path d="M56.2521 31.3652H55.9736V30.0248H56.2521V30.2191C56.3298 30.0831 56.4657 30.0054 56.6535 30.0054V30.2903H56.5823C56.3751 30.2903 56.2521 30.3745 56.2521 30.6594V31.3652Z" fill="white"/>
<path d="M58.3055 31.3846C57.8264 31.3846 57.4443 31.0285 57.4443 30.517C57.4443 30.0119 57.8328 29.6558 58.3055 29.6558C58.7847 29.6558 59.1667 30.0119 59.1667 30.517C59.1667 31.0285 58.7912 31.3846 58.3055 31.3846ZM58.3055 31.1451C58.6422 31.1451 58.8818 30.899 58.8818 30.5234C58.8818 30.1414 58.6358 29.9018 58.3055 29.9018C57.9688 29.9018 57.7292 30.1414 57.7292 30.5234C57.7292 30.899 57.9688 31.1451 58.3055 31.1451Z" fill="white"/>
<path d="M60.3874 30.6206C60.3874 30.3746 60.2514 30.2515 60.0507 30.2515C59.8435 30.2515 59.714 30.381 59.714 30.6206V31.3718H59.4355V30.0314H59.714V30.1868C59.8046 30.0767 59.9536 30.012 60.1154 30.012C60.4263 30.012 60.6658 30.2062 60.6658 30.5818V31.3718H60.3939V30.6206H60.3874Z" fill="white"/>
<path d="M61.0166 29.5715H61.295V31.3716H61.0166V29.5715Z" fill="white"/>
<path d="M61.6191 29.6753C61.6191 29.5782 61.6968 29.5005 61.794 29.5005C61.8911 29.5005 61.9688 29.5782 61.9688 29.6753C61.9688 29.7724 61.8911 29.8501 61.794 29.8501C61.6968 29.8501 61.6191 29.7724 61.6191 29.6753ZM61.658 30.025H61.9364V31.3653H61.658V30.025Z" fill="white"/>
<path d="M63.2448 30.6206C63.2448 30.3746 63.1088 30.2515 62.9081 30.2515C62.7009 30.2515 62.5714 30.381 62.5714 30.6206V31.3718H62.293V30.0314H62.5714V30.1868C62.6621 30.0767 62.811 30.012 62.9729 30.012C63.2837 30.012 63.5233 30.2062 63.5233 30.5818V31.3718H63.2513V30.6206H63.2448Z" fill="white"/>
<path d="M64.4482 31.3911C64.0662 31.3911 63.7812 31.1191 63.7812 30.6982C63.7812 30.2773 64.0532 30.0054 64.4482 30.0054C64.8302 30.0054 65.1022 30.2709 65.1022 30.6658C65.1022 30.7112 65.1022 30.7565 65.0892 30.8018H64.0662C64.0856 31.022 64.241 31.158 64.4482 31.158C64.6166 31.158 64.7137 31.0738 64.7655 30.9702H65.0633C64.9856 31.2033 64.7784 31.3911 64.4482 31.3911ZM64.0726 30.5752H64.8108C64.8043 30.368 64.6425 30.2385 64.4352 30.2385C64.2475 30.2385 64.0985 30.368 64.0726 30.5752Z" fill="white"/>
<path d="M46.467 20.2087C46.3051 20.2087 46.2209 20.1439 46.1044 19.982L44.4791 17.7675H43.4236V19.8849C43.4236 20.0662 43.2812 20.1957 43.0999 20.1957C42.9186 20.1957 42.7891 20.0662 42.7891 19.8849V13.0989C42.7891 12.9176 42.9186 12.7881 43.0999 12.7881C43.2812 12.7881 43.4236 12.9176 43.4236 13.0989V17.2042H44.4791L46.072 15.2357C46.1691 15.0933 46.2663 15.022 46.4152 15.022C46.6807 15.022 46.7907 15.2681 46.6418 15.4753L45.0295 17.4632L46.7066 19.7295C46.8749 19.9756 46.713 20.2087 46.467 20.2087Z" fill="white"/>
<path d="M52.1794 17.366C52.1794 17.625 52.0304 17.7868 51.7585 17.7868H47.8604C47.9381 18.8812 48.741 19.7424 49.8807 19.7424C50.9361 19.7424 51.2664 19.2049 51.5124 19.2049C51.6614 19.2049 51.7585 19.302 51.7585 19.438C51.7585 19.7942 50.9556 20.3057 49.8548 20.3057C48.3072 20.3057 47.2129 19.0948 47.2129 17.612C47.2129 16.1292 48.2554 14.9248 49.7253 14.9248C51.2728 14.9248 52.1794 16.168 52.1794 17.366ZM47.8604 17.3206H51.5448C51.4347 16.168 50.6836 15.4817 49.7188 15.4817C48.7087 15.4817 47.977 16.2781 47.8604 17.3206Z" fill="white"/>
<path d="M53.5376 12.7881C53.7189 12.7881 53.8614 12.9176 53.8614 13.0989V19.8849C53.8614 20.0662 53.7189 20.1957 53.5376 20.1957C53.3563 20.1957 53.2268 20.0662 53.2268 19.8849V13.0989C53.2203 12.9176 53.3498 12.7881 53.5376 12.7881Z" fill="white"/>
<path d="M60.1621 15.3456V19.8912C60.1621 20.0725 60.0326 20.202 59.8513 20.202C59.657 20.202 59.5275 20.0725 59.5275 19.8912V19.1595C59.1066 19.8458 58.4073 20.3121 57.5202 20.3121C56.0892 20.3121 55.0078 19.1271 55.0078 17.6184C55.0078 16.1161 56.0697 14.9312 57.5202 14.9312C58.4138 14.9312 59.1131 15.3715 59.5275 16.0578V15.3456C59.5275 15.1643 59.657 15.0348 59.8513 15.0348C60.0326 15.0348 60.1621 15.1643 60.1621 15.3456ZM59.5275 17.5989C59.5275 16.4399 58.7246 15.5139 57.5914 15.5139C56.4647 15.5139 55.6359 16.4399 55.6359 17.5989C55.6359 18.758 56.4647 19.7163 57.5914 19.7163C58.7181 19.7163 59.5275 18.758 59.5275 17.5989Z" fill="white"/>
<path d="M63.2185 20.3057C62.0659 20.3057 61.1982 19.6841 61.1982 19.315C61.1982 19.1402 61.3148 19.0689 61.4637 19.0689C61.7422 19.0689 62.0983 19.7553 63.2703 19.7553C64.0344 19.7553 64.4747 19.3927 64.4747 18.8553C64.4747 17.4566 61.3795 18.1365 61.3795 16.2975C61.3795 15.514 62.0594 14.9248 63.1861 14.9248C64.1186 14.9248 64.8826 15.3651 64.8826 15.6889C64.8826 15.8378 64.7726 15.9285 64.6366 15.9285C64.3452 15.9285 64.002 15.4752 63.1408 15.4752C62.4415 15.4752 62.0012 15.8184 62.0012 16.2781C62.0012 17.5667 65.0963 16.9451 65.0963 18.8229C65.1028 19.697 64.4035 20.3057 63.2185 20.3057Z" fill="white"/>
<path d="M20.4545 11.5901C20.2279 11.8362 19.9495 12.1794 19.7747 12.678C19.6969 12.8593 19.6516 13.0924 19.6387 13.3449C19.6387 13.3449 19.6387 13.3449 19.6451 13.3449C19.6257 13.8759 19.7423 14.6788 19.8135 15.1385H19.807C19.9106 15.6954 20.0272 16.1098 20.0272 16.1098L21.1021 20.0338L21.4841 21.6914H21.4971H21.5035L23.0835 27.681L23.2777 28.4192C23.9188 30.815 27.0593 31.5661 28.8917 29.7596L31.171 27.5062C30.6012 26.7292 29.7012 26.3407 28.9241 26.8846C27.9334 27.5839 26.0686 30.2064 25.6282 29.4488C25.2915 28.866 26.8262 27.1371 27.8039 24.8837C28.7881 22.6304 26.8456 21.3159 25.6218 19.8525C24.398 18.3891 23.99 17.1588 24.2102 16.984C24.5728 16.6991 24.9354 17.4049 25.4469 18.0135C26.2952 19.0107 26.7679 19.6388 29.481 20.759C29.1249 20.364 28.9371 19.8201 29.0148 19.2568C29.1508 18.2272 30.0961 17.4955 31.1322 17.6315C32.1617 17.7675 32.8934 18.7129 32.7575 19.7489C32.6474 20.5712 32.0258 21.1929 31.2617 21.3483C33.4114 21.8533 34.577 21.5814 35.4382 21.3029C36.8498 20.8432 36.6167 21.8663 34.5252 22.4555C32.2394 23.0966 31.7344 23.2714 31.579 24.1132C31.4236 24.9485 31.9286 25.7385 32.3366 26.3601L39.414 19.3733C41.0328 17.7739 40.3011 15.022 38.0995 14.4457L36.9145 14.1349L35.8656 13.8888C35.218 13.7658 34.6806 13.5651 34.2079 13.4874L23.8346 10.6706C23.5238 10.5865 23.213 10.5476 22.9087 10.5476C21.9438 10.5476 21.0567 10.9361 20.4545 11.5901Z" fill="#FF9E18"/>
<path d="M18.8889 14.3743C18.9342 14.1282 19.1025 13.8628 19.2709 13.6815C19.4716 13.4483 19.7242 13.267 20.0091 13.144C20.9415 12.8332 21.6538 13.4354 20.6177 14.6009C20.2551 15.0024 19.8537 15.1837 19.5234 15.1837C19.0961 15.1772 18.7982 14.8794 18.8889 14.3743ZM16.6484 12.9692C17.4837 12.9692 18.1766 13.3965 18.5392 14.1671C18.6752 14.5427 18.7529 15.0607 18.5522 15.5916C19.0378 15.9737 20.6113 15.9737 21.33 16.9838C21.7833 17.6249 21.9322 18.6674 21.1746 19.8394C20.7084 20.5646 20.035 21.0179 20.1127 21.4452C20.1839 21.8337 21.1358 21.6978 21.4854 21.6848H21.4984C22.2819 21.6913 24.3021 21.646 24.723 23.2648C25.2087 25.162 23.5122 27.1823 23.0913 27.6744L23.2855 28.4126C23.9266 30.8084 27.0671 31.5595 28.8995 29.7529L31.1788 27.4996C30.609 26.7225 29.7089 26.334 28.9319 26.8779C27.9412 27.5773 26.0763 30.1997 25.636 29.4421C25.2993 28.8594 26.8339 27.1305 27.8117 24.8771C28.7959 22.6237 26.8534 21.3093 25.6296 19.8459C24.4057 18.3825 23.9978 17.1522 24.218 16.9773C24.5806 16.6924 24.9432 17.3982 25.4547 18.0069C26.303 19.0041 26.7757 19.6322 29.4888 20.7524C29.1326 20.3574 28.9449 19.8135 29.0226 19.2501C29.1585 18.2206 30.1039 17.4889 31.14 17.6249C32.1695 17.7608 32.9012 18.7062 32.7652 19.7423C32.6552 20.5646 32.0335 21.1862 31.2695 21.3416C33.4192 21.8467 34.5848 21.5747 35.446 21.2963C36.8576 20.8366 36.6245 21.8596 34.533 22.4489C32.2472 23.0899 31.7422 23.2648 31.5868 24.1065C31.4313 24.9418 31.9364 25.7318 32.3444 26.3534L39.4218 19.3667C41.0406 17.7673 40.3089 15.0153 38.1073 14.4391L36.9223 14.1282L35.8733 13.8822C34.1574 13.5584 33.2056 12.6519 32.0918 15.1967C30.6996 18.3695 28.9254 16.6924 28.9449 14.97C28.9772 12.3864 27.3649 13.1699 25.9404 13.7397C24.2244 14.4261 23.3762 14.4973 22.4956 13.4613C22.1394 13.0404 21.861 12.6907 21.5825 12.4447C21.466 12.5807 20.8897 13.1311 19.8796 12.7425C19.2061 12.3929 18.7399 11.6871 18.7399 10.8777C18.7399 12.0303 17.801 12.9692 16.6484 12.9692Z" fill="#FFCD00"/>
<path d="M14.4141 12.982L15.0616 13.6554L15.7285 12.982L15.0616 12.2957L14.4141 12.982Z" fill="#FFCF3C"/>
<path d="M17.9434 9.78998C18.3772 9.78998 18.7333 10.1461 18.7333 10.58C18.7333 10.1461 19.0895 9.78998 19.5233 9.78998C19.0895 9.78998 18.7333 9.43384 18.7333 9C18.7398 9.43384 18.3837 9.78998 17.9434 9.78998Z" fill="#FFCF3C"/>
<path d="M15.4492 10.7874C16.032 10.7874 16.5047 11.2601 16.5047 11.8429C16.5047 11.2601 16.9774 10.7874 17.5601 10.7874C16.9774 10.7874 16.5047 10.3147 16.5047 9.73193C16.5047 10.3147 16.032 10.7874 15.4492 10.7874Z" fill="#FFCF3C"/>
<path d="M14 10.9361L14.395 11.3441L14.8029 10.9361L14.395 10.5217L14 10.9361Z" fill="#FFCF3C"/>
<path d="M14.7578 15.2679C15.6902 15.2679 16.4478 16.0255 16.4478 16.9579C16.4478 16.0255 17.2054 15.2679 18.1379 15.2679C17.2054 15.2679 16.4478 14.5103 16.4478 13.5779C16.4478 14.5103 15.6902 15.2679 14.7578 15.2679Z" fill="#FFCF3C"/>
<path d="M23.2978 11.4152C23.0259 11.8166 23.3237 12.4965 23.9713 12.9368C24.6123 13.3771 25.357 13.416 25.6289 13.0145C25.9009 12.6131 25.603 11.9332 24.9555 11.4929C24.6123 11.2597 24.2432 11.1367 23.9259 11.1367C23.654 11.1367 23.4273 11.2274 23.2978 11.4152Z" fill="#FFCD00"/>
<path d="M43.7461 21.6391C43.7461 22.0341 44.0634 22.3579 44.4519 22.3579C44.8469 22.3579 45.1706 22.0406 45.1706 21.6391C45.1706 21.2506 44.8534 20.9333 44.4519 20.9333C44.0699 20.9333 43.7461 21.2506 43.7461 21.6391Z" fill="#FF9E18"/>
<path d="M43.0596 25.5504C43.0596 27.1433 41.9523 28.2376 40.6055 28.2376C39.932 28.2376 39.4075 27.9721 39.0385 27.5318V29.6686C39.0385 30.0507 38.773 30.3291 38.3909 30.3291C37.996 30.3291 37.7305 30.0507 37.7305 29.6686V23.6078C37.7305 23.2258 37.996 22.9538 38.3909 22.9538C38.7406 22.9538 38.9996 23.1805 39.0385 23.5172C39.4011 23.0898 39.9256 22.8438 40.6055 22.8438C42.0106 22.8567 43.0596 24.0158 43.0596 25.5504ZM41.7451 25.5633C41.7451 24.728 41.1818 24.0676 40.3918 24.0676C39.6148 24.0676 39.0385 24.728 39.0385 25.5633C39.0385 26.3727 39.6148 27.0267 40.3918 27.0267C41.1818 27.0267 41.7451 26.3727 41.7451 25.5633Z" fill="white"/>
<path d="M44.4587 28.1338C44.0766 28.1338 43.8047 27.8683 43.8047 27.4863V23.6141C43.8047 23.232 44.0702 22.9666 44.4457 22.9666C44.8407 22.9666 45.1062 23.232 45.1062 23.6141V27.4863C45.1127 27.8683 44.8472 28.1338 44.4587 28.1338Z" fill="white"/>
<path d="M50.8091 25.0065V27.48C50.8091 27.862 50.5437 28.1275 50.1552 28.1275C49.7731 28.1275 49.4947 27.862 49.4947 27.48V25.1943C49.4947 24.5014 49.0867 24.0611 48.4586 24.0611C47.8176 24.0611 47.4226 24.5014 47.4226 25.1943V27.48C47.4226 27.862 47.1571 28.1275 46.7751 28.1275C46.3931 28.1275 46.1211 27.862 46.1211 27.48V23.6078C46.1211 23.2258 46.3866 22.9538 46.7621 22.9538C47.1248 22.9538 47.3708 23.1675 47.4097 23.4977C47.7269 23.0833 48.232 22.8438 48.8472 22.8438C50.0451 22.8567 50.8091 23.6791 50.8091 25.0065Z" fill="white"/>
<path d="M54.6828 26.8644C55.0324 26.8644 55.2137 27.0975 55.2137 27.3565C55.2137 27.8486 54.6828 28.2436 53.8345 28.2436C52.779 28.2436 52.1056 27.6026 52.1056 26.3529V24.1448H51.6329C51.2897 24.1448 51.0566 23.9117 51.0566 23.5556C51.0566 23.2253 51.2897 22.9922 51.6329 22.9922H52.1121V22.2994C52.1121 21.9044 52.3776 21.6389 52.7531 21.6389C53.1481 21.6389 53.4136 21.9044 53.4136 22.2994V22.9922H54.372C54.7022 22.9922 54.9353 23.2253 54.9353 23.5685C54.9353 23.9117 54.7022 24.1448 54.372 24.1448H53.433V26.5018C53.433 26.8838 53.6014 27.0263 53.8928 27.0263C54.1906 27.0263 54.4367 26.8644 54.6828 26.8644Z" fill="white"/>
<path d="M60.6152 23.6143V27.4865C60.6152 27.8685 60.3497 28.134 59.9612 28.134C59.5857 28.134 59.3202 27.8879 59.3008 27.5383C58.9382 27.9786 58.4137 28.2441 57.7402 28.2441C56.3869 28.2441 55.2861 27.1433 55.2861 25.5439C55.2861 24.0093 56.3222 22.8567 57.7402 22.8567C58.4137 22.8567 58.9382 23.1027 59.3008 23.5301C59.3461 23.1869 59.5986 22.9668 59.9612 22.9668C60.3497 22.9603 60.6152 23.2258 60.6152 23.6143ZM59.3008 25.5439C59.3008 24.7216 58.7374 24.074 57.9539 24.074C57.1639 24.074 56.5877 24.7216 56.5877 25.5439C56.5877 26.3663 57.1639 27.0267 57.9539 27.0267C58.7374 27.0267 59.3008 26.3663 59.3008 25.5439Z" fill="white"/>
<path d="M65.1017 23.5559C65.1017 23.9379 64.8362 24.1775 64.4606 24.1775C64.2599 24.1775 64.0333 24.1128 63.7354 24.1128C63.2692 24.1128 62.9584 24.4624 62.9584 25.0063V27.4799C62.9584 27.8619 62.6929 28.1274 62.3044 28.1274C61.9159 28.1274 61.6504 27.8619 61.6504 27.4799V23.6077C61.6504 23.2257 61.9159 22.9537 62.2914 22.9537C62.667 22.9537 62.9195 23.1868 62.9519 23.53C63.2303 23.135 63.6577 22.8501 64.221 22.8501C64.6484 22.8566 65.1017 23.0767 65.1017 23.5559Z" fill="white"/>
<path d="M62.4 77.8H97.6C101.12 77.8 104 80.68 104 84.2V109.8C104 113.32 101.12 116.2 97.6 116.2H62.4C58.88 116.2 56 113.32 56 109.8V84.2C56 80.68 58.88 77.8 62.4 77.8Z" fill="#FFCE00"/>
<path d="M120 114.6L104 105V88.9997L120 79.3997V114.6Z" fill="#E3B700"/>
<path fill-rule="evenodd" clip-rule="evenodd" d="M80.2567 107.629C81.6412 107.629 83.0122 107.349 84.2913 106.806C85.5704 106.264 86.7327 105.468 87.7116 104.465C88.6906 103.462 89.4672 102.272 89.9971 100.962C90.5269 99.6512 90.7996 98.2468 90.7996 96.8286C90.7996 95.4103 90.5269 94.0059 89.9971 92.6956C89.4672 91.3853 88.6906 90.1947 87.7116 89.1918C86.7327 88.1889 85.5704 87.3934 84.2913 86.8507C83.0122 86.3079 81.6412 86.0286 80.2567 86.0286C77.4606 86.0286 74.779 87.1664 72.8018 89.1918C70.8246 91.2172 69.7139 93.9642 69.7139 96.8286C69.7139 99.6929 70.8246 102.44 72.8018 104.465C74.779 106.491 77.4606 107.629 80.2567 107.629ZM78.8311 92.0166L85.4426 95.7798C85.6252 95.8837 85.7772 96.0358 85.8831 96.2202C85.989 96.4046 86.0448 96.6146 86.0448 96.8286C86.0448 97.0425 85.989 97.2525 85.8831 97.437C85.7772 97.6214 85.6252 97.7734 85.4426 97.8774L78.8311 101.641C78.617 101.762 78.3756 101.825 78.1307 101.822C77.8857 101.819 77.6459 101.75 77.4348 101.623C77.2238 101.495 77.0489 101.314 76.9274 101.096C76.806 100.878 76.7422 100.631 76.7424 100.381V93.2766C76.7422 93.0257 76.806 92.7791 76.9274 92.5612C77.0489 92.3433 77.2238 92.1617 77.4348 92.0344C77.6459 91.9071 77.8857 91.8384 78.1307 91.8353C78.3756 91.8322 78.617 91.8947 78.8311 92.0166Z" fill="white"/>
<path d="M143.5 89.644L137.868 105H134.128L128.496 89.644H131.796L136.02 101.854L140.222 89.644H143.5ZM147.158 91.36C146.615 91.36 146.161 91.1913 145.794 90.854C145.442 90.502 145.266 90.0693 145.266 89.556C145.266 89.0427 145.442 88.6173 145.794 88.28C146.161 87.928 146.615 87.752 147.158 87.752C147.701 87.752 148.148 87.928 148.5 88.28C148.867 88.6173 149.05 89.0427 149.05 89.556C149.05 90.0693 148.867 90.502 148.5 90.854C148.148 91.1913 147.701 91.36 147.158 91.36ZM148.676 92.812V105H145.596V92.812H148.676ZM151.177 98.862C151.177 97.63 151.419 96.5373 151.903 95.584C152.402 94.6307 153.077 93.8973 153.927 93.384C154.778 92.8707 155.724 92.614 156.765 92.614C157.557 92.614 158.313 92.79 159.031 93.142C159.75 93.4793 160.322 93.934 160.747 94.506V88.72H163.871V105H160.747V103.196C160.366 103.797 159.831 104.281 159.141 104.648C158.452 105.015 157.653 105.198 156.743 105.198C155.717 105.198 154.778 104.934 153.927 104.406C153.077 103.878 152.402 103.137 151.903 102.184C151.419 101.216 151.177 100.109 151.177 98.862ZM160.769 98.906C160.769 98.158 160.623 97.52 160.329 96.992C160.036 96.4493 159.64 96.0387 159.141 95.76C158.643 95.4667 158.107 95.32 157.535 95.32C156.963 95.32 156.435 95.4593 155.951 95.738C155.467 96.0167 155.071 96.4273 154.763 96.97C154.47 97.498 154.323 98.1287 154.323 98.862C154.323 99.5953 154.47 100.241 154.763 100.798C155.071 101.341 155.467 101.759 155.951 102.052C156.45 102.345 156.978 102.492 157.535 102.492C158.107 102.492 158.643 102.353 159.141 102.074C159.64 101.781 160.036 101.37 160.329 100.842C160.623 100.299 160.769 99.654 160.769 98.906ZM178.459 98.642C178.459 99.082 178.43 99.478 178.371 99.83H169.461C169.535 100.71 169.843 101.399 170.385 101.898C170.928 102.397 171.595 102.646 172.387 102.646C173.531 102.646 174.345 102.155 174.829 101.172H178.151C177.799 102.345 177.125 103.313 176.127 104.076C175.13 104.824 173.905 105.198 172.453 105.198C171.28 105.198 170.224 104.941 169.285 104.428C168.361 103.9 167.635 103.159 167.107 102.206C166.594 101.253 166.337 100.153 166.337 98.906C166.337 97.6447 166.594 96.5373 167.107 95.584C167.621 94.6307 168.339 93.8973 169.263 93.384C170.187 92.8707 171.251 92.614 172.453 92.614C173.612 92.614 174.646 92.8633 175.555 93.362C176.479 93.8607 177.191 94.572 177.689 95.496C178.203 96.4053 178.459 97.454 178.459 98.642ZM175.269 97.762C175.255 96.97 174.969 96.3393 174.411 95.87C173.854 95.386 173.172 95.144 172.365 95.144C171.603 95.144 170.957 95.3787 170.429 95.848C169.916 96.3027 169.601 96.9407 169.483 97.762H175.269ZM186.369 105.198C185.196 105.198 184.14 104.941 183.201 104.428C182.263 103.9 181.522 103.159 180.979 102.206C180.451 101.253 180.187 100.153 180.187 98.906C180.187 97.6593 180.459 96.5593 181.001 95.606C181.559 94.6527 182.314 93.9193 183.267 93.406C184.221 92.878 185.284 92.614 186.457 92.614C187.631 92.614 188.694 92.878 189.647 93.406C190.601 93.9193 191.349 94.6527 191.891 95.606C192.449 96.5593 192.727 97.6593 192.727 98.906C192.727 100.153 192.441 101.253 191.869 102.206C191.312 103.159 190.549 103.9 189.581 104.428C188.628 104.941 187.557 105.198 186.369 105.198ZM186.369 102.514C186.927 102.514 187.447 102.382 187.931 102.118C188.43 101.839 188.826 101.429 189.119 100.886C189.413 100.343 189.559 99.6833 189.559 98.906C189.559 97.7473 189.251 96.86 188.635 96.244C188.034 95.6133 187.293 95.298 186.413 95.298C185.533 95.298 184.793 95.6133 184.191 96.244C183.605 96.86 183.311 97.7473 183.311 98.906C183.311 100.065 183.597 100.959 184.169 101.59C184.756 102.206 185.489 102.514 186.369 102.514ZM211.179 89.644V92.13H207.087V105H204.007V92.13H199.915V89.644H211.179ZM225.182 92.812V105H222.08V103.46C221.684 103.988 221.164 104.406 220.518 104.714C219.888 105.007 219.198 105.154 218.45 105.154C217.497 105.154 216.654 104.956 215.92 104.56C215.187 104.149 214.608 103.555 214.182 102.778C213.772 101.986 213.566 101.047 213.566 99.962V92.812H216.646V99.522C216.646 100.49 216.888 101.238 217.372 101.766C217.856 102.279 218.516 102.536 219.352 102.536C220.203 102.536 220.87 102.279 221.354 101.766C221.838 101.238 222.08 100.49 222.08 99.522V92.812H225.182ZM232.057 95.342V101.238C232.057 101.649 232.152 101.949 232.343 102.14C232.548 102.316 232.886 102.404 233.355 102.404H234.785V105H232.849C230.253 105 228.955 103.739 228.955 101.216V95.342H227.503V92.812H228.955V89.798H232.057V92.812H234.785V95.342H232.057ZM242.662 105.198C241.489 105.198 240.433 104.941 239.494 104.428C238.556 103.9 237.815 103.159 237.272 102.206C236.744 101.253 236.48 100.153 236.48 98.906C236.48 97.6593 236.752 96.5593 237.294 95.606C237.852 94.6527 238.607 93.9193 239.56 93.406C240.514 92.878 241.577 92.614 242.75 92.614C243.924 92.614 244.987 92.878 245.94 93.406C246.894 93.9193 247.642 94.6527 248.184 95.606C248.742 96.5593 249.02 97.6593 249.02 98.906C249.02 100.153 248.734 101.253 248.162 102.206C247.605 103.159 246.842 103.9 245.874 104.428C244.921 104.941 243.85 105.198 242.662 105.198ZM242.662 102.514C243.22 102.514 243.74 102.382 244.224 102.118C244.723 101.839 245.119 101.429 245.412 100.886C245.706 100.343 245.852 99.6833 245.852 98.906C245.852 97.7473 245.544 96.86 244.928 96.244C244.327 95.6133 243.586 95.298 242.706 95.298C241.826 95.298 241.086 95.6133 240.484 96.244C239.898 96.86 239.604 97.7473 239.604 98.906C239.604 100.065 239.89 100.959 240.462 101.59C241.049 102.206 241.782 102.514 242.662 102.514ZM254.61 94.704C255.006 94.0587 255.519 93.5527 256.15 93.186C256.795 92.8193 257.528 92.636 258.35 92.636V95.87H257.536C256.568 95.87 255.834 96.0973 255.336 96.552C254.852 97.0067 254.61 97.7987 254.61 98.928V105H251.53V92.812H254.61V94.704ZM262.236 91.36C261.694 91.36 261.239 91.1913 260.872 90.854C260.52 90.502 260.344 90.0693 260.344 89.556C260.344 89.0427 260.52 88.6173 260.872 88.28C261.239 87.928 261.694 87.752 262.236 87.752C262.779 87.752 263.226 87.928 263.578 88.28C263.945 88.6173 264.128 89.0427 264.128 89.556C264.128 90.0693 263.945 90.502 263.578 90.854C263.226 91.1913 262.779 91.36 262.236 91.36ZM263.754 92.812V105H260.674V92.812H263.754ZM266.255 98.862C266.255 97.63 266.497 96.5373 266.981 95.584C267.48 94.6307 268.147 93.8973 268.983 93.384C269.834 92.8707 270.78 92.614 271.821 92.614C272.731 92.614 273.523 92.7973 274.197 93.164C274.887 93.5307 275.437 93.9927 275.847 94.55V92.812H278.949V105H275.847V103.218C275.451 103.79 274.901 104.267 274.197 104.648C273.508 105.015 272.709 105.198 271.799 105.198C270.773 105.198 269.834 104.934 268.983 104.406C268.147 103.878 267.48 103.137 266.981 102.184C266.497 101.216 266.255 100.109 266.255 98.862ZM275.847 98.906C275.847 98.158 275.701 97.52 275.407 96.992C275.114 96.4493 274.718 96.0387 274.219 95.76C273.721 95.4667 273.185 95.32 272.613 95.32C272.041 95.32 271.513 95.4593 271.029 95.738C270.545 96.0167 270.149 96.4273 269.841 96.97C269.548 97.498 269.401 98.1287 269.401 98.862C269.401 99.5953 269.548 100.241 269.841 100.798C270.149 101.341 270.545 101.759 271.029 102.052C271.528 102.345 272.056 102.492 272.613 102.492C273.185 102.492 273.721 102.353 274.219 102.074C274.718 101.781 275.114 101.37 275.407 100.842C275.701 100.299 275.847 99.654 275.847 98.906ZM285.287 88.72V105H282.207V88.72H285.287Z" fill="white"/>
</g>
<defs>
<clipPath id="clip0_20410_187256">
<rect width="344" height="194.524" rx="10" fill="white"/>
</clipPath>
</defs>
</svg>
