<svg width="344" height="195" viewBox="0 0 344 195" fill="none" xmlns="http://www.w3.org/2000/svg">
<g clip-path="url(#clip0_20410_187104)">
<rect width="344" height="194.524" rx="10" fill="#0055B8"/>
<path opacity="0.4" d="M346.053 -37.8909C343.96 -39.6237 341.797 -40.3931 340.123 -40.8724C335.675 -42.1467 330.616 -41.486 326.211 -38.9021C324.822 -38.087 323.504 -37.0831 322.303 -35.8791L282.261 4.33687C280.305 5.94584 278.373 8.27135 275.736 10.5486L271.586 14.4442L266.984 18.9899C258.429 27.4301 262.238 41.5385 273.783 44.2637L348.802 61.9344C361.861 65.002 374.248 53.2754 370.951 40.982L361.574 6.53016L361.663 6.47814L359.101 -1.86287L353.815 -22.0643C353.815 -22.0643 353.271 -24.2059 352.297 -26.9417L352.268 -26.9244C351.399 -29.1447 349.845 -33.0015 348.377 -35.2934L348.407 -35.3108C347.691 -36.3909 346.879 -37.2986 346.053 -37.8909Z" fill="#007BE0"/>
<path opacity="0.4" d="M21.7332 242.264C23.9516 244.091 26.2411 244.899 28.0128 245.402C32.7211 246.739 38.0713 246.03 42.7248 243.289C44.1926 242.424 45.5846 241.36 46.8515 240.085L89.1154 197.488C91.181 195.783 93.2195 193.321 96.0033 190.908L100.384 186.781L105.242 181.966C114.271 173.026 110.211 158.122 97.9916 155.267L18.5951 136.754C4.77407 133.54 -8.30146 145.962 -4.78557 158.949L5.21244 195.345L5.11874 195.4L7.84797 204.211L13.4861 225.552C13.4861 225.552 14.0669 227.814 15.103 230.704L15.1343 230.686C16.0587 233.031 17.711 237.104 19.2692 239.523L19.2379 239.542C19.9969 240.682 20.8584 241.639 21.7332 242.264Z" fill="#007BE0"/>
<path opacity="0.4" d="M256 148.5C267.586 148.5 277 157.69 277 169C277 157.69 286.414 148.5 298 148.5C286.414 148.5 277 139.31 277 128C277 139.31 267.586 148.5 256 148.5Z" fill="#0064C8"/>
<path opacity="0.4" d="M28 45C39.5862 45 49 54.4138 49 66C49 54.4138 58.4138 45 70 45C58.4138 45 49 35.5862 49 24C49 35.5862 39.5862 45 28 45Z" fill="#0064C8"/>
<path opacity="0.4" d="M102 62.5C104.209 62.5 106 64.5153 106 67C106 64.5153 107.791 62.5 110 62.5C107.791 62.5 106 60.4847 106 58C106 60.4847 104.209 62.5 102 62.5Z" fill="#0064C8"/>
<path opacity="0.4" d="M3 17.5C5.20859 17.5 7 19.5153 7 22C7 19.5153 8.79141 17.5 11 17.5C8.79141 17.5 7 15.4847 7 13C7 15.4847 5.20859 17.5 3 17.5Z" fill="#0064C8"/>
<path d="M41.125 31.3845C40.7883 31.3845 40.5293 31.1967 40.5293 30.8989H40.8272C40.8401 31.0349 40.9372 31.1514 41.1315 31.1514C41.3257 31.1514 41.4358 31.0478 41.4358 30.9053C41.4358 30.4974 40.5422 30.7629 40.5422 30.1413C40.5422 29.8434 40.7754 29.6621 41.125 29.6621C41.4488 29.6621 41.6754 29.8305 41.7013 30.1218H41.397C41.384 30.0053 41.2869 29.9017 41.1121 29.8952C40.9502 29.8887 40.8272 29.9664 40.8272 30.1283C40.8272 30.5104 41.7207 30.2708 41.7207 30.8859C41.7078 31.1385 41.5006 31.3845 41.125 31.3845Z" fill="white"/>
<path d="M42.6129 31.3911C42.2308 31.3911 41.9395 31.1191 41.9395 30.6982C41.9395 30.2773 42.2438 30.0054 42.6194 30.0054C43.0014 30.0054 43.2992 30.2773 43.2992 30.6982C43.3057 31.1126 42.9949 31.3911 42.6129 31.3911ZM42.6129 31.145C42.8201 31.145 43.0208 30.9961 43.0208 30.6917C43.0208 30.3874 42.8266 30.245 42.6194 30.245C42.4121 30.245 42.2244 30.3939 42.2244 30.6917C42.2244 30.9961 42.4057 31.145 42.6129 31.145Z" fill="white"/>
<path d="M43.584 29.5715H43.8624V31.3716H43.584V29.5715Z" fill="white"/>
<path d="M45.4367 31.3653H45.1583V31.2034C45.0676 31.3199 44.9187 31.3847 44.7633 31.3847C44.4525 31.3847 44.2129 31.1904 44.2129 30.8149V30.0249H44.4848V30.7696C44.4848 31.0156 44.6208 31.1386 44.8216 31.1386C45.0288 31.1386 45.1583 31.0091 45.1583 30.7696V30.0249H45.4367V31.3653Z" fill="white"/>
<path d="M46.2854 31.3911C45.9681 31.3911 45.7415 31.2033 45.7285 30.9572H46.0134C46.0264 31.0673 46.13 31.158 46.2789 31.158C46.4408 31.158 46.525 31.0867 46.525 30.9961C46.525 30.7306 45.7479 30.886 45.7479 30.3939C45.7479 30.1802 45.9487 30.0054 46.266 30.0054C46.5703 30.0054 46.771 30.1673 46.784 30.4327H46.5055C46.4926 30.3162 46.4084 30.2385 46.253 30.2385C46.1041 30.2385 46.0264 30.2968 46.0264 30.3874C46.0264 30.6594 46.784 30.504 46.7969 30.9896C46.7969 31.2162 46.6027 31.3911 46.2854 31.3911Z" fill="white"/>
<path d="M47.0645 29.6753C47.0645 29.5782 47.1422 29.5005 47.2393 29.5005C47.3364 29.5005 47.4141 29.5782 47.4141 29.6753C47.4141 29.7724 47.3364 29.8501 47.2393 29.8501C47.1422 29.8501 47.0645 29.7724 47.0645 29.6753ZM47.0968 30.025H47.3753V31.3653H47.0968V30.025Z" fill="white"/>
<path d="M49.0426 31.3653H48.3691V29.6753H49.0102C49.3663 29.6753 49.5541 29.8696 49.5541 30.1091C49.5541 30.3163 49.4311 30.4394 49.2692 30.4976C49.4505 30.53 49.593 30.7113 49.593 30.9121C49.593 31.1711 49.3858 31.3653 49.0426 31.3653ZM48.9843 29.9019H48.6411V30.3876H48.9843C49.1656 30.3876 49.2757 30.3034 49.2757 30.148C49.2757 29.9926 49.1656 29.9019 48.9843 29.9019ZM49.0102 30.6142H48.6411V31.1387H49.0167C49.2044 31.1387 49.321 31.0416 49.321 30.8797C49.321 30.7178 49.1915 30.6142 49.0102 30.6142Z" fill="white"/>
<path d="M50.4736 31.3911C50.0915 31.3911 49.8066 31.1191 49.8066 30.6982C49.8066 30.2773 50.0786 30.0054 50.4736 30.0054C50.8556 30.0054 51.1276 30.2709 51.1276 30.6658C51.1276 30.7112 51.1276 30.7565 51.1146 30.8018H50.0916C50.111 31.022 50.2664 31.158 50.4736 31.158C50.6419 31.158 50.7391 31.0738 50.7909 30.9702H51.0887C51.011 31.2033 50.7973 31.3911 50.4736 31.3911ZM50.0916 30.5752H50.8297C50.8232 30.368 50.6614 30.2385 50.4542 30.2385C50.2729 30.2385 50.1239 30.368 50.0916 30.5752Z" fill="white"/>
<path d="M51.3945 29.5715H51.673V31.3716H51.3945V29.5715Z" fill="white"/>
<path d="M52.5794 30.0054C52.806 30.0054 52.9614 30.109 53.0456 30.2191V30.0248H53.324V31.3652H53.0456V31.1644C52.9614 31.281 52.7995 31.3846 52.5794 31.3846C52.2297 31.3846 51.9513 31.0997 51.9513 30.6853C51.9448 30.2773 52.2232 30.0054 52.5794 30.0054ZM52.6377 30.245C52.4305 30.245 52.2297 30.4004 52.2297 30.6917C52.2297 30.9831 52.4305 31.1515 52.6377 31.1515C52.8449 31.1515 53.0456 30.9896 53.0456 30.6982C53.0391 30.4068 52.8449 30.245 52.6377 30.245Z" fill="white"/>
<path d="M53.9581 30.025V31.6244C53.9581 31.8963 53.8092 31.9999 53.576 31.9999H53.4336V31.7668H53.5307C53.6473 31.7668 53.6861 31.728 53.6861 31.6244V30.025H53.9581ZM53.6473 29.6753C53.6473 29.5782 53.725 29.5005 53.8221 29.5005C53.9192 29.5005 53.9969 29.5782 53.9969 29.6753C53.9969 29.7724 53.9192 29.8501 53.8221 29.8501C53.725 29.8501 53.6473 29.7724 53.6473 29.6753Z" fill="white"/>
<path d="M54.8645 30.0054C55.0912 30.0054 55.2466 30.109 55.3307 30.2191V30.0248H55.6092V31.3652H55.3307V31.1644C55.2466 31.281 55.0847 31.3846 54.8645 31.3846C54.5149 31.3846 54.2364 31.0997 54.2364 30.6853C54.23 30.2773 54.5084 30.0054 54.8645 30.0054ZM54.9228 30.245C54.7156 30.245 54.5149 30.4004 54.5149 30.6917C54.5149 30.9831 54.7156 31.1515 54.9228 31.1515C55.13 31.1515 55.3307 30.9896 55.3307 30.6982C55.3243 30.4068 55.13 30.245 54.9228 30.245Z" fill="white"/>
<path d="M56.2521 31.3652H55.9736V30.0248H56.2521V30.2191C56.3298 30.0831 56.4657 30.0054 56.6535 30.0054V30.2903H56.5823C56.3751 30.2903 56.2521 30.3745 56.2521 30.6594V31.3652Z" fill="white"/>
<path d="M58.3055 31.3846C57.8264 31.3846 57.4443 31.0285 57.4443 30.517C57.4443 30.0119 57.8328 29.6558 58.3055 29.6558C58.7847 29.6558 59.1667 30.0119 59.1667 30.517C59.1667 31.0285 58.7912 31.3846 58.3055 31.3846ZM58.3055 31.1451C58.6422 31.1451 58.8818 30.899 58.8818 30.5234C58.8818 30.1414 58.6358 29.9018 58.3055 29.9018C57.9688 29.9018 57.7292 30.1414 57.7292 30.5234C57.7292 30.899 57.9688 31.1451 58.3055 31.1451Z" fill="white"/>
<path d="M60.3874 30.6206C60.3874 30.3746 60.2514 30.2515 60.0507 30.2515C59.8435 30.2515 59.714 30.381 59.714 30.6206V31.3718H59.4355V30.0314H59.714V30.1868C59.8046 30.0767 59.9536 30.012 60.1154 30.012C60.4263 30.012 60.6658 30.2062 60.6658 30.5818V31.3718H60.3939V30.6206H60.3874Z" fill="white"/>
<path d="M61.0166 29.5715H61.295V31.3716H61.0166V29.5715Z" fill="white"/>
<path d="M61.6191 29.6753C61.6191 29.5782 61.6968 29.5005 61.794 29.5005C61.8911 29.5005 61.9688 29.5782 61.9688 29.6753C61.9688 29.7724 61.8911 29.8501 61.794 29.8501C61.6968 29.8501 61.6191 29.7724 61.6191 29.6753ZM61.658 30.025H61.9364V31.3653H61.658V30.025Z" fill="white"/>
<path d="M63.2448 30.6206C63.2448 30.3746 63.1088 30.2515 62.9081 30.2515C62.7009 30.2515 62.5714 30.381 62.5714 30.6206V31.3718H62.293V30.0314H62.5714V30.1868C62.6621 30.0767 62.811 30.012 62.9729 30.012C63.2837 30.012 63.5233 30.2062 63.5233 30.5818V31.3718H63.2513V30.6206H63.2448Z" fill="white"/>
<path d="M64.4482 31.3911C64.0662 31.3911 63.7812 31.1191 63.7812 30.6982C63.7812 30.2773 64.0532 30.0054 64.4482 30.0054C64.8302 30.0054 65.1022 30.2709 65.1022 30.6658C65.1022 30.7112 65.1022 30.7565 65.0892 30.8018H64.0662C64.0856 31.022 64.241 31.158 64.4482 31.158C64.6166 31.158 64.7137 31.0738 64.7655 30.9702H65.0633C64.9856 31.2033 64.7784 31.3911 64.4482 31.3911ZM64.0726 30.5752H64.8108C64.8043 30.368 64.6425 30.2385 64.4352 30.2385C64.2475 30.2385 64.0985 30.368 64.0726 30.5752Z" fill="white"/>
<path d="M46.467 20.2087C46.3051 20.2087 46.2209 20.1439 46.1044 19.982L44.4791 17.7675H43.4236V19.8849C43.4236 20.0662 43.2812 20.1957 43.0999 20.1957C42.9186 20.1957 42.7891 20.0662 42.7891 19.8849V13.0989C42.7891 12.9176 42.9186 12.7881 43.0999 12.7881C43.2812 12.7881 43.4236 12.9176 43.4236 13.0989V17.2042H44.4791L46.072 15.2357C46.1691 15.0933 46.2663 15.022 46.4152 15.022C46.6807 15.022 46.7907 15.2681 46.6418 15.4753L45.0295 17.4632L46.7066 19.7295C46.8749 19.9756 46.713 20.2087 46.467 20.2087Z" fill="white"/>
<path d="M52.1794 17.366C52.1794 17.625 52.0304 17.7868 51.7585 17.7868H47.8604C47.9381 18.8812 48.741 19.7424 49.8807 19.7424C50.9361 19.7424 51.2664 19.2049 51.5124 19.2049C51.6614 19.2049 51.7585 19.302 51.7585 19.438C51.7585 19.7942 50.9556 20.3057 49.8548 20.3057C48.3072 20.3057 47.2129 19.0948 47.2129 17.612C47.2129 16.1292 48.2554 14.9248 49.7253 14.9248C51.2728 14.9248 52.1794 16.168 52.1794 17.366ZM47.8604 17.3206H51.5448C51.4347 16.168 50.6836 15.4817 49.7188 15.4817C48.7087 15.4817 47.977 16.2781 47.8604 17.3206Z" fill="white"/>
<path d="M53.5376 12.7881C53.7189 12.7881 53.8614 12.9176 53.8614 13.0989V19.8849C53.8614 20.0662 53.7189 20.1957 53.5376 20.1957C53.3563 20.1957 53.2268 20.0662 53.2268 19.8849V13.0989C53.2203 12.9176 53.3498 12.7881 53.5376 12.7881Z" fill="white"/>
<path d="M60.1621 15.3456V19.8912C60.1621 20.0725 60.0326 20.202 59.8513 20.202C59.657 20.202 59.5275 20.0725 59.5275 19.8912V19.1595C59.1066 19.8458 58.4073 20.3121 57.5202 20.3121C56.0892 20.3121 55.0078 19.1271 55.0078 17.6184C55.0078 16.1161 56.0697 14.9312 57.5202 14.9312C58.4138 14.9312 59.1131 15.3715 59.5275 16.0578V15.3456C59.5275 15.1643 59.657 15.0348 59.8513 15.0348C60.0326 15.0348 60.1621 15.1643 60.1621 15.3456ZM59.5275 17.5989C59.5275 16.4399 58.7246 15.5139 57.5914 15.5139C56.4647 15.5139 55.6359 16.4399 55.6359 17.5989C55.6359 18.758 56.4647 19.7163 57.5914 19.7163C58.7181 19.7163 59.5275 18.758 59.5275 17.5989Z" fill="white"/>
<path d="M63.2185 20.3057C62.0659 20.3057 61.1982 19.6841 61.1982 19.315C61.1982 19.1402 61.3148 19.0689 61.4637 19.0689C61.7422 19.0689 62.0983 19.7553 63.2703 19.7553C64.0344 19.7553 64.4747 19.3927 64.4747 18.8553C64.4747 17.4566 61.3795 18.1365 61.3795 16.2975C61.3795 15.514 62.0594 14.9248 63.1861 14.9248C64.1186 14.9248 64.8826 15.3651 64.8826 15.6889C64.8826 15.8378 64.7726 15.9285 64.6366 15.9285C64.3452 15.9285 64.002 15.4752 63.1408 15.4752C62.4415 15.4752 62.0012 15.8184 62.0012 16.2781C62.0012 17.5667 65.0963 16.9451 65.0963 18.8229C65.1028 19.697 64.4035 20.3057 63.2185 20.3057Z" fill="white"/>
<path d="M20.4545 11.5901C20.2279 11.8362 19.9495 12.1794 19.7747 12.678C19.6969 12.8593 19.6516 13.0924 19.6387 13.3449C19.6387 13.3449 19.6387 13.3449 19.6451 13.3449C19.6257 13.8759 19.7423 14.6788 19.8135 15.1385H19.807C19.9106 15.6954 20.0272 16.1098 20.0272 16.1098L21.1021 20.0338L21.4841 21.6914H21.4971H21.5035L23.0835 27.681L23.2777 28.4192C23.9188 30.815 27.0593 31.5661 28.8917 29.7596L31.171 27.5062C30.6012 26.7292 29.7012 26.3407 28.9241 26.8846C27.9334 27.5839 26.0686 30.2064 25.6282 29.4488C25.2915 28.866 26.8262 27.1371 27.8039 24.8837C28.7881 22.6304 26.8456 21.3159 25.6218 19.8525C24.398 18.3891 23.99 17.1588 24.2102 16.984C24.5728 16.6991 24.9354 17.4049 25.4469 18.0135C26.2952 19.0107 26.7679 19.6388 29.481 20.759C29.1249 20.364 28.9371 19.8201 29.0148 19.2568C29.1508 18.2272 30.0961 17.4955 31.1322 17.6315C32.1617 17.7675 32.8934 18.7129 32.7575 19.7489C32.6474 20.5712 32.0258 21.1929 31.2617 21.3483C33.4114 21.8533 34.577 21.5814 35.4382 21.3029C36.8498 20.8432 36.6167 21.8663 34.5252 22.4555C32.2394 23.0966 31.7344 23.2714 31.579 24.1132C31.4236 24.9485 31.9286 25.7385 32.3366 26.3601L39.414 19.3733C41.0328 17.7739 40.3011 15.022 38.0995 14.4457L36.9145 14.1349L35.8656 13.8888C35.218 13.7658 34.6806 13.5651 34.2079 13.4874L23.8346 10.6706C23.5238 10.5865 23.213 10.5476 22.9087 10.5476C21.9438 10.5476 21.0567 10.9361 20.4545 11.5901Z" fill="#FF9E18"/>
<path d="M18.8889 14.3743C18.9342 14.1282 19.1025 13.8628 19.2709 13.6815C19.4716 13.4483 19.7242 13.267 20.0091 13.144C20.9415 12.8332 21.6538 13.4354 20.6177 14.6009C20.2551 15.0024 19.8537 15.1837 19.5234 15.1837C19.0961 15.1772 18.7982 14.8794 18.8889 14.3743ZM16.6484 12.9692C17.4837 12.9692 18.1766 13.3965 18.5392 14.1671C18.6752 14.5427 18.7529 15.0607 18.5522 15.5916C19.0378 15.9737 20.6113 15.9737 21.33 16.9838C21.7833 17.6249 21.9322 18.6674 21.1746 19.8394C20.7084 20.5646 20.035 21.0179 20.1127 21.4452C20.1839 21.8337 21.1358 21.6978 21.4854 21.6848H21.4984C22.2819 21.6913 24.3021 21.646 24.723 23.2648C25.2087 25.162 23.5122 27.1823 23.0913 27.6744L23.2855 28.4126C23.9266 30.8084 27.0671 31.5595 28.8995 29.7529L31.1788 27.4996C30.609 26.7225 29.7089 26.334 28.9319 26.8779C27.9412 27.5773 26.0763 30.1997 25.636 29.4421C25.2993 28.8594 26.8339 27.1305 27.8117 24.8771C28.7959 22.6237 26.8534 21.3093 25.6296 19.8459C24.4057 18.3825 23.9978 17.1522 24.218 16.9773C24.5806 16.6924 24.9432 17.3982 25.4547 18.0069C26.303 19.0041 26.7757 19.6322 29.4888 20.7524C29.1326 20.3574 28.9449 19.8135 29.0226 19.2501C29.1585 18.2206 30.1039 17.4889 31.14 17.6249C32.1695 17.7608 32.9012 18.7062 32.7652 19.7423C32.6552 20.5646 32.0335 21.1862 31.2695 21.3416C33.4192 21.8467 34.5848 21.5747 35.446 21.2963C36.8576 20.8366 36.6245 21.8596 34.533 22.4489C32.2472 23.0899 31.7422 23.2648 31.5868 24.1065C31.4313 24.9418 31.9364 25.7318 32.3444 26.3534L39.4218 19.3667C41.0406 17.7673 40.3089 15.0153 38.1073 14.4391L36.9223 14.1282L35.8733 13.8822C34.1574 13.5584 33.2056 12.6519 32.0918 15.1967C30.6996 18.3695 28.9254 16.6924 28.9449 14.97C28.9772 12.3864 27.3649 13.1699 25.9404 13.7397C24.2244 14.4261 23.3762 14.4973 22.4956 13.4613C22.1394 13.0404 21.861 12.6907 21.5825 12.4447C21.466 12.5807 20.8897 13.1311 19.8796 12.7425C19.2061 12.3929 18.7399 11.6871 18.7399 10.8777C18.7399 12.0303 17.801 12.9692 16.6484 12.9692Z" fill="#FFCD00"/>
<path d="M14.4141 12.982L15.0616 13.6554L15.7285 12.982L15.0616 12.2957L14.4141 12.982Z" fill="#FFCF3C"/>
<path d="M17.9434 9.78998C18.3772 9.78998 18.7333 10.1461 18.7333 10.58C18.7333 10.1461 19.0895 9.78998 19.5233 9.78998C19.0895 9.78998 18.7333 9.43384 18.7333 9C18.7398 9.43384 18.3837 9.78998 17.9434 9.78998Z" fill="#FFCF3C"/>
<path d="M15.4492 10.7874C16.032 10.7874 16.5047 11.2601 16.5047 11.8429C16.5047 11.2601 16.9774 10.7874 17.5601 10.7874C16.9774 10.7874 16.5047 10.3147 16.5047 9.73193C16.5047 10.3147 16.032 10.7874 15.4492 10.7874Z" fill="#FFCF3C"/>
<path d="M14 10.9361L14.395 11.3441L14.8029 10.9361L14.395 10.5217L14 10.9361Z" fill="#FFCF3C"/>
<path d="M14.7578 15.2679C15.6902 15.2679 16.4478 16.0255 16.4478 16.9579C16.4478 16.0255 17.2054 15.2679 18.1379 15.2679C17.2054 15.2679 16.4478 14.5103 16.4478 13.5779C16.4478 14.5103 15.6902 15.2679 14.7578 15.2679Z" fill="#FFCF3C"/>
<path d="M23.2978 11.4152C23.0259 11.8166 23.3237 12.4965 23.9713 12.9368C24.6123 13.3771 25.357 13.416 25.6289 13.0145C25.9009 12.6131 25.603 11.9332 24.9555 11.4929C24.6123 11.2597 24.2432 11.1367 23.9259 11.1367C23.654 11.1367 23.4273 11.2274 23.2978 11.4152Z" fill="#FFCD00"/>
<path d="M43.7461 21.6391C43.7461 22.0341 44.0634 22.3579 44.4519 22.3579C44.8469 22.3579 45.1706 22.0406 45.1706 21.6391C45.1706 21.2506 44.8534 20.9333 44.4519 20.9333C44.0699 20.9333 43.7461 21.2506 43.7461 21.6391Z" fill="#FF9E18"/>
<path d="M43.0596 25.5504C43.0596 27.1433 41.9523 28.2376 40.6055 28.2376C39.932 28.2376 39.4075 27.9721 39.0385 27.5318V29.6686C39.0385 30.0507 38.773 30.3291 38.3909 30.3291C37.996 30.3291 37.7305 30.0507 37.7305 29.6686V23.6078C37.7305 23.2258 37.996 22.9538 38.3909 22.9538C38.7406 22.9538 38.9996 23.1805 39.0385 23.5172C39.4011 23.0898 39.9256 22.8438 40.6055 22.8438C42.0106 22.8567 43.0596 24.0158 43.0596 25.5504ZM41.7451 25.5633C41.7451 24.728 41.1818 24.0676 40.3918 24.0676C39.6148 24.0676 39.0385 24.728 39.0385 25.5633C39.0385 26.3727 39.6148 27.0267 40.3918 27.0267C41.1818 27.0267 41.7451 26.3727 41.7451 25.5633Z" fill="white"/>
<path d="M44.4587 28.1338C44.0766 28.1338 43.8047 27.8683 43.8047 27.4863V23.6141C43.8047 23.232 44.0702 22.9666 44.4457 22.9666C44.8407 22.9666 45.1062 23.232 45.1062 23.6141V27.4863C45.1127 27.8683 44.8472 28.1338 44.4587 28.1338Z" fill="white"/>
<path d="M50.8091 25.0065V27.48C50.8091 27.862 50.5437 28.1275 50.1552 28.1275C49.7731 28.1275 49.4947 27.862 49.4947 27.48V25.1943C49.4947 24.5014 49.0867 24.0611 48.4586 24.0611C47.8176 24.0611 47.4226 24.5014 47.4226 25.1943V27.48C47.4226 27.862 47.1571 28.1275 46.7751 28.1275C46.3931 28.1275 46.1211 27.862 46.1211 27.48V23.6078C46.1211 23.2258 46.3866 22.9538 46.7621 22.9538C47.1248 22.9538 47.3708 23.1675 47.4097 23.4977C47.7269 23.0833 48.232 22.8438 48.8472 22.8438C50.0451 22.8567 50.8091 23.6791 50.8091 25.0065Z" fill="white"/>
<path d="M54.6828 26.8644C55.0324 26.8644 55.2137 27.0975 55.2137 27.3565C55.2137 27.8486 54.6828 28.2436 53.8345 28.2436C52.779 28.2436 52.1056 27.6026 52.1056 26.3529V24.1448H51.6329C51.2897 24.1448 51.0566 23.9117 51.0566 23.5556C51.0566 23.2253 51.2897 22.9922 51.6329 22.9922H52.1121V22.2994C52.1121 21.9044 52.3776 21.6389 52.7531 21.6389C53.1481 21.6389 53.4136 21.9044 53.4136 22.2994V22.9922H54.372C54.7022 22.9922 54.9353 23.2253 54.9353 23.5685C54.9353 23.9117 54.7022 24.1448 54.372 24.1448H53.433V26.5018C53.433 26.8838 53.6014 27.0263 53.8928 27.0263C54.1906 27.0263 54.4367 26.8644 54.6828 26.8644Z" fill="white"/>
<path d="M60.6152 23.6143V27.4865C60.6152 27.8685 60.3497 28.134 59.9612 28.134C59.5857 28.134 59.3202 27.8879 59.3008 27.5383C58.9382 27.9786 58.4137 28.2441 57.7402 28.2441C56.3869 28.2441 55.2861 27.1433 55.2861 25.5439C55.2861 24.0093 56.3222 22.8567 57.7402 22.8567C58.4137 22.8567 58.9382 23.1027 59.3008 23.5301C59.3461 23.1869 59.5986 22.9668 59.9612 22.9668C60.3497 22.9603 60.6152 23.2258 60.6152 23.6143ZM59.3008 25.5439C59.3008 24.7216 58.7374 24.074 57.9539 24.074C57.1639 24.074 56.5877 24.7216 56.5877 25.5439C56.5877 26.3663 57.1639 27.0267 57.9539 27.0267C58.7374 27.0267 59.3008 26.3663 59.3008 25.5439Z" fill="white"/>
<path d="M65.1017 23.5559C65.1017 23.9379 64.8362 24.1775 64.4606 24.1775C64.2599 24.1775 64.0333 24.1128 63.7354 24.1128C63.2692 24.1128 62.9584 24.4624 62.9584 25.0063V27.4799C62.9584 27.8619 62.6929 28.1274 62.3044 28.1274C61.9159 28.1274 61.6504 27.8619 61.6504 27.4799V23.6077C61.6504 23.2257 61.9159 22.9537 62.2914 22.9537C62.667 22.9537 62.9195 23.1868 62.9519 23.53C63.2303 23.135 63.6577 22.8501 64.221 22.8501C64.6484 22.8566 65.1017 23.0767 65.1017 23.5559Z" fill="white"/>
<path d="M112.702 125.999H57.2968C56.9529 125.999 56.623 125.863 56.3798 125.62C56.1366 125.376 56 125.047 56 124.703V69.2973C56 68.9534 56.1366 68.6235 56.3798 68.3803C56.623 68.1371 56.9529 68.0005 57.2968 68.0005H89.121L113.999 92.8783V124.702C113.999 124.873 113.965 125.041 113.9 125.199C113.835 125.356 113.739 125.499 113.619 125.62C113.499 125.74 113.356 125.836 113.198 125.901C113.041 125.966 112.872 125.999 112.702 125.999Z" fill="#FFE784"/>
<path d="M82.064 82.6458H64.8472C63.8729 82.6458 63.083 81.8559 63.083 80.8816C63.083 79.9073 63.8729 79.1174 64.8472 79.1174H82.064C83.0383 79.1174 83.8281 79.9073 83.8281 80.8816C83.8281 81.8559 83.0383 82.6458 82.064 82.6458ZM83.8281 92.4289C83.8281 91.4545 83.0383 90.6647 82.064 90.6647H64.8472C63.8729 90.6647 63.083 91.4545 63.083 92.4289C63.083 93.4032 63.8729 94.193 64.8472 94.193H82.064C83.0383 94.1929 83.8281 93.4032 83.8281 92.4289ZM83.8281 103.976C83.8281 103.002 83.0383 102.212 82.064 102.212H64.8472C63.8729 102.212 63.083 103.002 63.083 103.976C63.083 104.95 63.8729 105.74 64.8472 105.74H82.064C83.0383 105.74 83.8281 104.95 83.8281 103.976ZM98.7331 115.523C98.7331 114.549 97.9433 113.759 96.969 113.759H64.8472C63.8729 113.759 63.083 114.549 63.083 115.523C63.083 116.497 63.8729 117.287 64.8472 117.287H96.969C97.9433 117.287 98.7331 116.497 98.7331 115.523ZM104.676 103.976C104.676 103.002 103.886 102.212 102.911 102.212H91.0264C90.0522 102.212 89.2622 103.002 89.2622 103.976C89.2622 104.95 90.0521 105.74 91.0264 105.74H102.911C103.886 105.74 104.676 104.95 104.676 103.976Z" fill="#597B91"/>
<path d="M89.123 68.0005L114.001 92.8783H94.411C91.4905 92.8783 89.123 90.5108 89.123 87.5904V68.0005Z" fill="#FFB636"/>
<path d="M152.725 86.574H146.609L145.597 89.5H142.363L147.885 74.122H151.471L156.993 89.5H153.737L152.725 86.574ZM151.889 84.11L149.667 77.686L147.445 84.11H151.889ZM162.387 73.22V89.5H159.307V73.22H162.387ZM177.186 77.312V89.5H174.084V87.96C173.688 88.488 173.167 88.906 172.522 89.214C171.891 89.5073 171.202 89.654 170.454 89.654C169.501 89.654 168.657 89.456 167.924 89.06C167.191 88.6493 166.611 88.0553 166.186 87.278C165.775 86.486 165.57 85.5473 165.57 84.462V77.312H168.65V84.022C168.65 84.99 168.892 85.738 169.376 86.266C169.86 86.7793 170.52 87.036 171.356 87.036C172.207 87.036 172.874 86.7793 173.358 86.266C173.842 85.738 174.084 84.99 174.084 84.022V77.312H177.186ZM183.555 79.204C183.951 78.5587 184.464 78.0527 185.095 77.686C185.74 77.3193 186.474 77.136 187.295 77.136V80.37H186.481C185.513 80.37 184.78 80.5973 184.281 81.052C183.797 81.5067 183.555 82.2987 183.555 83.428V89.5H180.475V77.312H183.555V79.204ZM205.562 74.144V76.63H201.47V89.5H198.39V76.63H194.298V74.144H205.562ZM219.565 77.312V89.5H216.463V87.96C216.067 88.488 215.546 88.906 214.901 89.214C214.27 89.5073 213.581 89.654 212.833 89.654C211.88 89.654 211.036 89.456 210.303 89.06C209.57 88.6493 208.99 88.0553 208.565 87.278C208.154 86.486 207.949 85.5473 207.949 84.462V77.312H211.029V84.022C211.029 84.99 211.271 85.738 211.755 86.266C212.239 86.7793 212.899 87.036 213.735 87.036C214.586 87.036 215.253 86.7793 215.737 86.266C216.221 85.738 216.463 84.99 216.463 84.022V77.312H219.565ZM224.416 75.86C223.859 75.86 223.397 75.6913 223.03 75.354C222.678 75.002 222.502 74.5693 222.502 74.056C222.502 73.5427 222.678 73.1173 223.03 72.78C223.397 72.428 223.859 72.252 224.416 72.252C224.959 72.252 225.406 72.428 225.758 72.78C226.11 73.1173 226.286 73.5427 226.286 74.056C226.286 74.5693 226.11 75.002 225.758 75.354C225.406 75.6913 224.959 75.86 224.416 75.86ZM225.934 91.502C225.934 92.8513 225.597 93.8193 224.922 94.406C224.262 95.0073 223.309 95.308 222.062 95.308H220.698V92.69H221.578C222.047 92.69 222.377 92.5947 222.568 92.404C222.759 92.228 222.854 91.9347 222.854 91.524V77.312H225.934V91.502ZM240.733 77.312V89.5H237.631V87.96C237.235 88.488 236.714 88.906 236.069 89.214C235.438 89.5073 234.749 89.654 234.001 89.654C233.048 89.654 232.204 89.456 231.471 89.06C230.738 88.6493 230.158 88.0553 229.733 87.278C229.322 86.486 229.117 85.5473 229.117 84.462V77.312H232.197V84.022C232.197 84.99 232.439 85.738 232.923 86.266C233.407 86.7793 234.067 87.036 234.903 87.036C235.754 87.036 236.421 86.7793 236.905 86.266C237.389 85.738 237.631 84.99 237.631 84.022V77.312H240.733ZM243.23 83.362C243.23 82.13 243.472 81.0373 243.956 80.084C244.455 79.1307 245.122 78.3973 245.958 77.884C246.809 77.3707 247.755 77.114 248.796 77.114C249.705 77.114 250.497 77.2973 251.172 77.664C251.861 78.0307 252.411 78.4927 252.822 79.05V77.312H255.924V89.5H252.822V87.718C252.426 88.29 251.876 88.7667 251.172 89.148C250.483 89.5147 249.683 89.698 248.774 89.698C247.747 89.698 246.809 89.434 245.958 88.906C245.122 88.378 244.455 87.6373 243.956 86.684C243.472 85.716 243.23 84.6087 243.23 83.362ZM252.822 83.406C252.822 82.658 252.675 82.02 252.382 81.492C252.089 80.9493 251.693 80.5387 251.194 80.26C250.695 79.9667 250.16 79.82 249.588 79.82C249.016 79.82 248.488 79.9593 248.004 80.238C247.52 80.5167 247.124 80.9273 246.816 81.47C246.523 81.998 246.376 82.6287 246.376 83.362C246.376 84.0953 246.523 84.7407 246.816 85.298C247.124 85.8407 247.52 86.2587 248.004 86.552C248.503 86.8453 249.031 86.992 249.588 86.992C250.16 86.992 250.695 86.8527 251.194 86.574C251.693 86.2807 252.089 85.87 252.382 85.342C252.675 84.7993 252.822 84.154 252.822 83.406ZM265.936 77.136C267.388 77.136 268.561 77.598 269.456 78.522C270.351 79.4313 270.798 80.7073 270.798 82.35V89.5H267.718V82.768C267.718 81.8 267.476 81.0593 266.992 80.546C266.508 80.018 265.848 79.754 265.012 79.754C264.161 79.754 263.487 80.018 262.988 80.546C262.504 81.0593 262.262 81.8 262.262 82.768V89.5H259.182V77.312H262.262V78.83C262.673 78.302 263.193 77.8913 263.824 77.598C264.469 77.29 265.173 77.136 265.936 77.136ZM138.881 109.896C138.881 110.717 138.683 111.487 138.287 112.206C137.906 112.925 137.297 113.504 136.461 113.944C135.64 114.384 134.598 114.604 133.337 114.604H130.763V120.5H127.683V105.144H133.337C134.525 105.144 135.537 105.349 136.373 105.76C137.209 106.171 137.832 106.735 138.243 107.454C138.668 108.173 138.881 108.987 138.881 109.896ZM133.205 112.118C134.056 112.118 134.686 111.927 135.097 111.546C135.508 111.15 135.713 110.6 135.713 109.896C135.713 108.4 134.877 107.652 133.205 107.652H130.763V112.118H133.205ZM152.648 114.142C152.648 114.582 152.618 114.978 152.56 115.33H143.65C143.723 116.21 144.031 116.899 144.574 117.398C145.116 117.897 145.784 118.146 146.576 118.146C147.72 118.146 148.534 117.655 149.018 116.672H152.34C151.988 117.845 151.313 118.813 150.316 119.576C149.318 120.324 148.094 120.698 146.642 120.698C145.468 120.698 144.412 120.441 143.474 119.928C142.55 119.4 141.824 118.659 141.296 117.706C140.782 116.753 140.526 115.653 140.526 114.406C140.526 113.145 140.782 112.037 141.296 111.084C141.809 110.131 142.528 109.397 143.452 108.884C144.376 108.371 145.439 108.114 146.642 108.114C147.8 108.114 148.834 108.363 149.744 108.862C150.668 109.361 151.379 110.072 151.878 110.996C152.391 111.905 152.648 112.954 152.648 114.142ZM149.458 113.262C149.443 112.47 149.157 111.839 148.6 111.37C148.042 110.886 147.36 110.644 146.554 110.644C145.791 110.644 145.146 110.879 144.618 111.348C144.104 111.803 143.789 112.441 143.672 113.262H149.458ZM170.282 108.136C171.778 108.136 172.981 108.598 173.89 109.522C174.814 110.431 175.276 111.707 175.276 113.35V120.5H172.196V113.768C172.196 112.815 171.954 112.089 171.47 111.59C170.986 111.077 170.326 110.82 169.49 110.82C168.654 110.82 167.987 111.077 167.488 111.59C167.004 112.089 166.762 112.815 166.762 113.768V120.5H163.682V113.768C163.682 112.815 163.44 112.089 162.956 111.59C162.472 111.077 161.812 110.82 160.976 110.82C160.125 110.82 159.451 111.077 158.952 111.59C158.468 112.089 158.226 112.815 158.226 113.768V120.5H155.146V108.312H158.226V109.786C158.622 109.273 159.128 108.869 159.744 108.576C160.375 108.283 161.064 108.136 161.812 108.136C162.765 108.136 163.616 108.341 164.364 108.752C165.112 109.148 165.691 109.72 166.102 110.468C166.498 109.764 167.07 109.199 167.818 108.774C168.581 108.349 169.402 108.136 170.282 108.136ZM181.529 110.094C181.925 109.507 182.467 109.031 183.157 108.664C183.861 108.297 184.66 108.114 185.555 108.114C186.596 108.114 187.535 108.371 188.371 108.884C189.221 109.397 189.889 110.131 190.373 111.084C190.871 112.023 191.121 113.115 191.121 114.362C191.121 115.609 190.871 116.716 190.373 117.684C189.889 118.637 189.221 119.378 188.371 119.906C187.535 120.434 186.596 120.698 185.555 120.698C184.645 120.698 183.846 120.522 183.157 120.17C182.482 119.803 181.939 119.334 181.529 118.762V120.5H178.449V104.22H181.529V110.094ZM187.975 114.362C187.975 113.629 187.821 112.998 187.513 112.47C187.219 111.927 186.823 111.517 186.325 111.238C185.841 110.959 185.313 110.82 184.741 110.82C184.183 110.82 183.655 110.967 183.157 111.26C182.673 111.539 182.277 111.949 181.969 112.492C181.675 113.035 181.529 113.673 181.529 114.406C181.529 115.139 181.675 115.777 181.969 116.32C182.277 116.863 182.673 117.281 183.157 117.574C183.655 117.853 184.183 117.992 184.741 117.992C185.313 117.992 185.841 117.845 186.325 117.552C186.823 117.259 187.219 116.841 187.513 116.298C187.821 115.755 187.975 115.11 187.975 114.362ZM204.939 114.142C204.939 114.582 204.909 114.978 204.851 115.33H195.941C196.014 116.21 196.322 116.899 196.865 117.398C197.407 117.897 198.075 118.146 198.867 118.146C200.011 118.146 200.825 117.655 201.309 116.672H204.631C204.279 117.845 203.604 118.813 202.607 119.576C201.609 120.324 200.385 120.698 198.933 120.698C197.759 120.698 196.703 120.441 195.765 119.928C194.841 119.4 194.115 118.659 193.587 117.706C193.073 116.753 192.817 115.653 192.817 114.406C192.817 113.145 193.073 112.037 193.587 111.084C194.1 110.131 194.819 109.397 195.743 108.884C196.667 108.371 197.73 108.114 198.933 108.114C200.091 108.114 201.125 108.363 202.035 108.862C202.959 109.361 203.67 110.072 204.169 110.996C204.682 111.905 204.939 112.954 204.939 114.142ZM201.749 113.262C201.734 112.47 201.448 111.839 200.891 111.37C200.333 110.886 199.651 110.644 198.845 110.644C198.082 110.644 197.437 110.879 196.909 111.348C196.395 111.803 196.08 112.441 195.963 113.262H201.749ZM210.517 104.22V120.5H207.437V104.22H210.517ZM213.018 114.362C213.018 113.13 213.26 112.037 213.744 111.084C214.243 110.131 214.91 109.397 215.746 108.884C216.597 108.371 217.543 108.114 218.584 108.114C219.493 108.114 220.285 108.297 220.96 108.664C221.649 109.031 222.199 109.493 222.61 110.05V108.312H225.712V120.5H222.61V118.718C222.214 119.29 221.664 119.767 220.96 120.148C220.271 120.515 219.471 120.698 218.562 120.698C217.535 120.698 216.597 120.434 215.746 119.906C214.91 119.378 214.243 118.637 213.744 117.684C213.26 116.716 213.018 115.609 213.018 114.362ZM222.61 114.406C222.61 113.658 222.463 113.02 222.17 112.492C221.877 111.949 221.481 111.539 220.982 111.26C220.483 110.967 219.948 110.82 219.376 110.82C218.804 110.82 218.276 110.959 217.792 111.238C217.308 111.517 216.912 111.927 216.604 112.47C216.311 112.998 216.164 113.629 216.164 114.362C216.164 115.095 216.311 115.741 216.604 116.298C216.912 116.841 217.308 117.259 217.792 117.552C218.291 117.845 218.819 117.992 219.376 117.992C219.948 117.992 220.483 117.853 220.982 117.574C221.481 117.281 221.877 116.87 222.17 116.342C222.463 115.799 222.61 115.154 222.61 114.406ZM230.532 106.86C229.975 106.86 229.513 106.691 229.146 106.354C228.794 106.002 228.618 105.569 228.618 105.056C228.618 104.543 228.794 104.117 229.146 103.78C229.513 103.428 229.975 103.252 230.532 103.252C231.075 103.252 231.522 103.428 231.874 103.78C232.226 104.117 232.402 104.543 232.402 105.056C232.402 105.569 232.226 106.002 231.874 106.354C231.522 106.691 231.075 106.86 230.532 106.86ZM232.05 122.502C232.05 123.851 231.713 124.819 231.038 125.406C230.378 126.007 229.425 126.308 228.178 126.308H226.814V123.69H227.694C228.163 123.69 228.493 123.595 228.684 123.404C228.875 123.228 228.97 122.935 228.97 122.524V108.312H232.05V122.502ZM234.551 114.362C234.551 113.13 234.793 112.037 235.277 111.084C235.776 110.131 236.443 109.397 237.279 108.884C238.13 108.371 239.076 108.114 240.117 108.114C241.027 108.114 241.819 108.297 242.493 108.664C243.183 109.031 243.733 109.493 244.143 110.05V108.312H247.245V120.5H244.143V118.718C243.747 119.29 243.197 119.767 242.493 120.148C241.804 120.515 241.005 120.698 240.095 120.698C239.069 120.698 238.13 120.434 237.279 119.906C236.443 119.378 235.776 118.637 235.277 117.684C234.793 116.716 234.551 115.609 234.551 114.362ZM244.143 114.406C244.143 113.658 243.997 113.02 243.703 112.492C243.41 111.949 243.014 111.539 242.515 111.26C242.017 110.967 241.481 110.82 240.909 110.82C240.337 110.82 239.809 110.959 239.325 111.238C238.841 111.517 238.445 111.927 238.137 112.47C237.844 112.998 237.697 113.629 237.697 114.362C237.697 115.095 237.844 115.741 238.137 116.298C238.445 116.841 238.841 117.259 239.325 117.552C239.824 117.845 240.352 117.992 240.909 117.992C241.481 117.992 242.017 117.853 242.515 117.574C243.014 117.281 243.41 116.87 243.703 116.342C243.997 115.799 244.143 115.154 244.143 114.406ZM253.583 110.204C253.979 109.559 254.493 109.053 255.123 108.686C255.769 108.319 256.502 108.136 257.323 108.136V111.37H256.509C255.541 111.37 254.808 111.597 254.309 112.052C253.825 112.507 253.583 113.299 253.583 114.428V120.5H250.503V108.312H253.583V110.204ZM258.856 114.362C258.856 113.13 259.098 112.037 259.582 111.084C260.081 110.131 260.748 109.397 261.584 108.884C262.435 108.371 263.381 108.114 264.422 108.114C265.331 108.114 266.123 108.297 266.798 108.664C267.487 109.031 268.037 109.493 268.448 110.05V108.312H271.55V120.5H268.448V118.718C268.052 119.29 267.502 119.767 266.798 120.148C266.109 120.515 265.309 120.698 264.4 120.698C263.373 120.698 262.435 120.434 261.584 119.906C260.748 119.378 260.081 118.637 259.582 117.684C259.098 116.716 258.856 115.609 258.856 114.362ZM268.448 114.406C268.448 113.658 268.301 113.02 268.008 112.492C267.715 111.949 267.319 111.539 266.82 111.26C266.321 110.967 265.786 110.82 265.214 110.82C264.642 110.82 264.114 110.959 263.63 111.238C263.146 111.517 262.75 111.927 262.442 112.47C262.149 112.998 262.002 113.629 262.002 114.362C262.002 115.095 262.149 115.741 262.442 116.298C262.75 116.841 263.146 117.259 263.63 117.552C264.129 117.845 264.657 117.992 265.214 117.992C265.786 117.992 266.321 117.853 266.82 117.574C267.319 117.281 267.715 116.87 268.008 116.342C268.301 115.799 268.448 115.154 268.448 114.406ZM281.562 108.136C283.014 108.136 284.187 108.598 285.082 109.522C285.977 110.431 286.424 111.707 286.424 113.35V120.5H283.344V113.768C283.344 112.8 283.102 112.059 282.618 111.546C282.134 111.018 281.474 110.754 280.638 110.754C279.787 110.754 279.113 111.018 278.614 111.546C278.13 112.059 277.888 112.8 277.888 113.768V120.5H274.808V108.312H277.888V109.83C278.299 109.302 278.819 108.891 279.45 108.598C280.095 108.29 280.799 108.136 281.562 108.136Z" fill="white"/>
</g>
<defs>
<clipPath id="clip0_20410_187104">
<rect width="344" height="194.524" rx="10" fill="white"/>
</clipPath>
</defs>
</svg>
