<svg width="344" height="195" viewBox="0 0 344 195" fill="none" xmlns="http://www.w3.org/2000/svg">
<g clip-path="url(#clip0_20410_187035)">
<rect width="344" height="194.524" rx="10" fill="#0055B8"/>
<path opacity="0.4" d="M346.053 -37.8909C343.96 -39.6237 341.797 -40.3931 340.123 -40.8724C335.675 -42.1467 330.616 -41.486 326.211 -38.9021C324.822 -38.087 323.504 -37.0831 322.303 -35.8791L282.261 4.33687C280.305 5.94584 278.373 8.27135 275.736 10.5486L271.586 14.4442L266.984 18.9899C258.429 27.4301 262.238 41.5385 273.783 44.2637L348.802 61.9344C361.861 65.002 374.248 53.2754 370.951 40.982L361.574 6.53016L361.663 6.47814L359.101 -1.86287L353.815 -22.0643C353.815 -22.0643 353.271 -24.2059 352.297 -26.9417L352.268 -26.9244C351.399 -29.1447 349.845 -33.0015 348.377 -35.2934L348.407 -35.3108C347.691 -36.3909 346.879 -37.2986 346.053 -37.8909Z" fill="#007BE0"/>
<path opacity="0.4" d="M21.7332 242.264C23.9516 244.091 26.2411 244.899 28.0128 245.402C32.7211 246.739 38.0713 246.03 42.7248 243.289C44.1926 242.424 45.5846 241.36 46.8515 240.085L89.1154 197.488C91.181 195.783 93.2195 193.321 96.0033 190.908L100.384 186.781L105.242 181.966C114.271 173.026 110.211 158.122 97.9916 155.267L18.5951 136.754C4.77407 133.54 -8.30146 145.962 -4.78557 158.949L5.21244 195.345L5.11874 195.4L7.84797 204.211L13.4861 225.552C13.4861 225.552 14.0669 227.814 15.103 230.704L15.1343 230.686C16.0587 233.031 17.711 237.104 19.2692 239.523L19.2379 239.542C19.9969 240.682 20.8584 241.639 21.7332 242.264Z" fill="#007BE0"/>
<path opacity="0.4" d="M256 148.5C267.586 148.5 277 157.69 277 169C277 157.69 286.414 148.5 298 148.5C286.414 148.5 277 139.31 277 128C277 139.31 267.586 148.5 256 148.5Z" fill="#0064C8"/>
<path opacity="0.4" d="M28 45C39.5862 45 49 54.4138 49 66C49 54.4138 58.4138 45 70 45C58.4138 45 49 35.5862 49 24C49 35.5862 39.5862 45 28 45Z" fill="#0064C8"/>
<path opacity="0.4" d="M102 62.5C104.209 62.5 106 64.5153 106 67C106 64.5153 107.791 62.5 110 62.5C107.791 62.5 106 60.4847 106 58C106 60.4847 104.209 62.5 102 62.5Z" fill="#0064C8"/>
<path opacity="0.4" d="M3 17.5C5.20859 17.5 7 19.5153 7 22C7 19.5153 8.79141 17.5 11 17.5C8.79141 17.5 7 15.4847 7 13C7 15.4847 5.20859 17.5 3 17.5Z" fill="#0064C8"/>
<path d="M41.125 31.3845C40.7883 31.3845 40.5293 31.1967 40.5293 30.8989H40.8272C40.8401 31.0349 40.9372 31.1514 41.1315 31.1514C41.3257 31.1514 41.4358 31.0478 41.4358 30.9053C41.4358 30.4974 40.5422 30.7629 40.5422 30.1413C40.5422 29.8434 40.7754 29.6621 41.125 29.6621C41.4488 29.6621 41.6754 29.8305 41.7013 30.1218H41.397C41.384 30.0053 41.2869 29.9017 41.1121 29.8952C40.9502 29.8887 40.8272 29.9664 40.8272 30.1283C40.8272 30.5104 41.7207 30.2708 41.7207 30.8859C41.7078 31.1385 41.5006 31.3845 41.125 31.3845Z" fill="white"/>
<path d="M42.6129 31.3911C42.2308 31.3911 41.9395 31.1191 41.9395 30.6982C41.9395 30.2773 42.2438 30.0054 42.6194 30.0054C43.0014 30.0054 43.2992 30.2773 43.2992 30.6982C43.3057 31.1126 42.9949 31.3911 42.6129 31.3911ZM42.6129 31.145C42.8201 31.145 43.0208 30.9961 43.0208 30.6917C43.0208 30.3874 42.8266 30.245 42.6194 30.245C42.4121 30.245 42.2244 30.3939 42.2244 30.6917C42.2244 30.9961 42.4057 31.145 42.6129 31.145Z" fill="white"/>
<path d="M43.584 29.5715H43.8624V31.3716H43.584V29.5715Z" fill="white"/>
<path d="M45.4367 31.3653H45.1583V31.2034C45.0676 31.3199 44.9187 31.3847 44.7633 31.3847C44.4525 31.3847 44.2129 31.1904 44.2129 30.8149V30.0249H44.4848V30.7696C44.4848 31.0156 44.6208 31.1386 44.8216 31.1386C45.0288 31.1386 45.1583 31.0091 45.1583 30.7696V30.0249H45.4367V31.3653Z" fill="white"/>
<path d="M46.2854 31.3911C45.9681 31.3911 45.7415 31.2033 45.7285 30.9572H46.0134C46.0264 31.0673 46.13 31.158 46.2789 31.158C46.4408 31.158 46.525 31.0867 46.525 30.9961C46.525 30.7306 45.7479 30.886 45.7479 30.3939C45.7479 30.1802 45.9487 30.0054 46.266 30.0054C46.5703 30.0054 46.771 30.1673 46.784 30.4327H46.5055C46.4926 30.3162 46.4084 30.2385 46.253 30.2385C46.1041 30.2385 46.0264 30.2968 46.0264 30.3874C46.0264 30.6594 46.784 30.504 46.7969 30.9896C46.7969 31.2162 46.6027 31.3911 46.2854 31.3911Z" fill="white"/>
<path d="M47.0645 29.6753C47.0645 29.5782 47.1422 29.5005 47.2393 29.5005C47.3364 29.5005 47.4141 29.5782 47.4141 29.6753C47.4141 29.7724 47.3364 29.8501 47.2393 29.8501C47.1422 29.8501 47.0645 29.7724 47.0645 29.6753ZM47.0968 30.025H47.3753V31.3653H47.0968V30.025Z" fill="white"/>
<path d="M49.0426 31.3653H48.3691V29.6753H49.0102C49.3663 29.6753 49.5541 29.8696 49.5541 30.1091C49.5541 30.3163 49.4311 30.4394 49.2692 30.4976C49.4505 30.53 49.593 30.7113 49.593 30.9121C49.593 31.1711 49.3858 31.3653 49.0426 31.3653ZM48.9843 29.9019H48.6411V30.3876H48.9843C49.1656 30.3876 49.2757 30.3034 49.2757 30.148C49.2757 29.9926 49.1656 29.9019 48.9843 29.9019ZM49.0102 30.6142H48.6411V31.1387H49.0167C49.2044 31.1387 49.321 31.0416 49.321 30.8797C49.321 30.7178 49.1915 30.6142 49.0102 30.6142Z" fill="white"/>
<path d="M50.4736 31.3911C50.0915 31.3911 49.8066 31.1191 49.8066 30.6982C49.8066 30.2773 50.0786 30.0054 50.4736 30.0054C50.8556 30.0054 51.1276 30.2709 51.1276 30.6658C51.1276 30.7112 51.1276 30.7565 51.1146 30.8018H50.0916C50.111 31.022 50.2664 31.158 50.4736 31.158C50.6419 31.158 50.7391 31.0738 50.7909 30.9702H51.0887C51.011 31.2033 50.7973 31.3911 50.4736 31.3911ZM50.0916 30.5752H50.8297C50.8232 30.368 50.6614 30.2385 50.4542 30.2385C50.2729 30.2385 50.1239 30.368 50.0916 30.5752Z" fill="white"/>
<path d="M51.3945 29.5715H51.673V31.3716H51.3945V29.5715Z" fill="white"/>
<path d="M52.5794 30.0054C52.806 30.0054 52.9614 30.109 53.0456 30.2191V30.0248H53.324V31.3652H53.0456V31.1644C52.9614 31.281 52.7995 31.3846 52.5794 31.3846C52.2297 31.3846 51.9513 31.0997 51.9513 30.6853C51.9448 30.2773 52.2232 30.0054 52.5794 30.0054ZM52.6377 30.245C52.4305 30.245 52.2297 30.4004 52.2297 30.6917C52.2297 30.9831 52.4305 31.1515 52.6377 31.1515C52.8449 31.1515 53.0456 30.9896 53.0456 30.6982C53.0391 30.4068 52.8449 30.245 52.6377 30.245Z" fill="white"/>
<path d="M53.9581 30.025V31.6244C53.9581 31.8963 53.8092 31.9999 53.576 31.9999H53.4336V31.7668H53.5307C53.6473 31.7668 53.6861 31.728 53.6861 31.6244V30.025H53.9581ZM53.6473 29.6753C53.6473 29.5782 53.725 29.5005 53.8221 29.5005C53.9192 29.5005 53.9969 29.5782 53.9969 29.6753C53.9969 29.7724 53.9192 29.8501 53.8221 29.8501C53.725 29.8501 53.6473 29.7724 53.6473 29.6753Z" fill="white"/>
<path d="M54.8645 30.0054C55.0912 30.0054 55.2466 30.109 55.3307 30.2191V30.0248H55.6092V31.3652H55.3307V31.1644C55.2466 31.281 55.0847 31.3846 54.8645 31.3846C54.5149 31.3846 54.2364 31.0997 54.2364 30.6853C54.23 30.2773 54.5084 30.0054 54.8645 30.0054ZM54.9228 30.245C54.7156 30.245 54.5149 30.4004 54.5149 30.6917C54.5149 30.9831 54.7156 31.1515 54.9228 31.1515C55.13 31.1515 55.3307 30.9896 55.3307 30.6982C55.3243 30.4068 55.13 30.245 54.9228 30.245Z" fill="white"/>
<path d="M56.2511 31.3652H55.9727V30.0248H56.2511V30.2191C56.3288 30.0831 56.4648 30.0054 56.6526 30.0054V30.2903H56.5813C56.3741 30.2903 56.2511 30.3745 56.2511 30.6594V31.3652Z" fill="white"/>
<path d="M58.3046 31.3846C57.8254 31.3846 57.4434 31.0285 57.4434 30.517C57.4434 30.0119 57.8319 29.6558 58.3046 29.6558C58.7837 29.6558 59.1658 30.0119 59.1658 30.517C59.1658 31.0285 58.7902 31.3846 58.3046 31.3846ZM58.3046 31.1451C58.6413 31.1451 58.8809 30.899 58.8809 30.5234C58.8809 30.1414 58.6348 29.9018 58.3046 29.9018C57.9679 29.9018 57.7283 30.1414 57.7283 30.5234C57.7283 30.899 57.9679 31.1451 58.3046 31.1451Z" fill="white"/>
<path d="M60.3874 30.6206C60.3874 30.3746 60.2514 30.2515 60.0507 30.2515C59.8435 30.2515 59.714 30.381 59.714 30.6206V31.3718H59.4355V30.0314H59.714V30.1868C59.8046 30.0767 59.9536 30.012 60.1154 30.012C60.4263 30.012 60.6658 30.2062 60.6658 30.5818V31.3718H60.3939V30.6206H60.3874Z" fill="white"/>
<path d="M61.0176 29.5715H61.296V31.3716H61.0176V29.5715Z" fill="white"/>
<path d="M61.6191 29.6753C61.6191 29.5782 61.6968 29.5005 61.794 29.5005C61.8911 29.5005 61.9688 29.5782 61.9688 29.6753C61.9688 29.7724 61.8911 29.8501 61.794 29.8501C61.6968 29.8501 61.6191 29.7724 61.6191 29.6753ZM61.658 30.025H61.9364V31.3653H61.658V30.025Z" fill="white"/>
<path d="M63.2448 30.6206C63.2448 30.3746 63.1088 30.2515 62.9081 30.2515C62.7009 30.2515 62.5714 30.381 62.5714 30.6206V31.3718H62.293V30.0314H62.5714V30.1868C62.6621 30.0767 62.811 30.012 62.9729 30.012C63.2837 30.012 63.5233 30.2062 63.5233 30.5818V31.3718H63.2513V30.6206H63.2448Z" fill="white"/>
<path d="M64.4482 31.3911C64.0662 31.3911 63.7812 31.1191 63.7812 30.6982C63.7812 30.2773 64.0532 30.0054 64.4482 30.0054C64.8302 30.0054 65.1022 30.2709 65.1022 30.6658C65.1022 30.7112 65.1022 30.7565 65.0892 30.8018H64.0662C64.0856 31.022 64.241 31.158 64.4482 31.158C64.6166 31.158 64.7137 31.0738 64.7655 30.9702H65.0633C64.9856 31.2033 64.7784 31.3911 64.4482 31.3911ZM64.0726 30.5752H64.8108C64.8043 30.368 64.6425 30.2385 64.4352 30.2385C64.2475 30.2385 64.0985 30.368 64.0726 30.5752Z" fill="white"/>
<path d="M46.467 20.2087C46.3051 20.2087 46.2209 20.1439 46.1044 19.982L44.4791 17.7675H43.4236V19.8849C43.4236 20.0662 43.2812 20.1957 43.0999 20.1957C42.9186 20.1957 42.7891 20.0662 42.7891 19.8849V13.0989C42.7891 12.9176 42.9186 12.7881 43.0999 12.7881C43.2812 12.7881 43.4236 12.9176 43.4236 13.0989V17.2042H44.4791L46.072 15.2357C46.1691 15.0933 46.2663 15.022 46.4152 15.022C46.6807 15.022 46.7907 15.2681 46.6418 15.4753L45.0295 17.4632L46.7066 19.7295C46.8749 19.9756 46.713 20.2087 46.467 20.2087Z" fill="white"/>
<path d="M52.1794 17.366C52.1794 17.625 52.0304 17.7868 51.7585 17.7868H47.8604C47.9381 18.8812 48.741 19.7424 49.8807 19.7424C50.9361 19.7424 51.2664 19.2049 51.5124 19.2049C51.6614 19.2049 51.7585 19.302 51.7585 19.438C51.7585 19.7942 50.9556 20.3057 49.8548 20.3057C48.3072 20.3057 47.2129 19.0948 47.2129 17.612C47.2129 16.1292 48.2554 14.9248 49.7253 14.9248C51.2728 14.9248 52.1794 16.168 52.1794 17.366ZM47.8604 17.3206H51.5448C51.4347 16.168 50.6836 15.4817 49.7188 15.4817C48.7087 15.4817 47.977 16.2781 47.8604 17.3206Z" fill="white"/>
<path d="M53.5376 12.7881C53.7189 12.7881 53.8614 12.9176 53.8614 13.0989V19.8849C53.8614 20.0662 53.7189 20.1957 53.5376 20.1957C53.3563 20.1957 53.2268 20.0662 53.2268 19.8849V13.0989C53.2203 12.9176 53.3498 12.7881 53.5376 12.7881Z" fill="white"/>
<path d="M60.1621 15.3456V19.8912C60.1621 20.0725 60.0326 20.202 59.8513 20.202C59.657 20.202 59.5275 20.0725 59.5275 19.8912V19.1595C59.1066 19.8458 58.4073 20.3121 57.5202 20.3121C56.0892 20.3121 55.0078 19.1271 55.0078 17.6184C55.0078 16.1161 56.0697 14.9312 57.5202 14.9312C58.4138 14.9312 59.1131 15.3715 59.5275 16.0578V15.3456C59.5275 15.1643 59.657 15.0348 59.8513 15.0348C60.0326 15.0348 60.1621 15.1643 60.1621 15.3456ZM59.5275 17.5989C59.5275 16.4399 58.7246 15.5139 57.5914 15.5139C56.4647 15.5139 55.6359 16.4399 55.6359 17.5989C55.6359 18.758 56.4647 19.7163 57.5914 19.7163C58.7181 19.7163 59.5275 18.758 59.5275 17.5989Z" fill="white"/>
<path d="M63.2175 20.3057C62.0649 20.3057 61.1973 19.6841 61.1973 19.315C61.1973 19.1402 61.3138 19.0689 61.4627 19.0689C61.7412 19.0689 62.0973 19.7553 63.2693 19.7553C64.0334 19.7553 64.4737 19.3927 64.4737 18.8553C64.4737 17.4566 61.3786 18.1365 61.3786 16.2975C61.3786 15.514 62.0585 14.9248 63.1852 14.9248C64.1176 14.9248 64.8817 15.3651 64.8817 15.6889C64.8817 15.8378 64.7716 15.9285 64.6356 15.9285C64.3442 15.9285 64.001 15.4752 63.1398 15.4752C62.4405 15.4752 62.0002 15.8184 62.0002 16.2781C62.0002 17.5667 65.0953 16.9451 65.0953 18.8229C65.1018 19.697 64.4025 20.3057 63.2175 20.3057Z" fill="white"/>
<path d="M20.4545 11.5901C20.2279 11.8362 19.9495 12.1794 19.7747 12.678C19.6969 12.8593 19.6516 13.0924 19.6387 13.3449C19.6387 13.3449 19.6387 13.3449 19.6451 13.3449C19.6257 13.8759 19.7423 14.6788 19.8135 15.1385H19.807C19.9106 15.6954 20.0272 16.1098 20.0272 16.1098L21.1021 20.0338L21.4841 21.6914H21.4971H21.5035L23.0835 27.681L23.2777 28.4192C23.9188 30.815 27.0593 31.5661 28.8917 29.7596L31.171 27.5062C30.6012 26.7292 29.7012 26.3407 28.9241 26.8846C27.9334 27.5839 26.0686 30.2064 25.6282 29.4488C25.2915 28.866 26.8262 27.1371 27.8039 24.8837C28.7881 22.6304 26.8456 21.3159 25.6218 19.8525C24.398 18.3891 23.99 17.1588 24.2102 16.984C24.5728 16.6991 24.9354 17.4049 25.4469 18.0135C26.2952 19.0107 26.7679 19.6388 29.481 20.759C29.1249 20.364 28.9371 19.8201 29.0148 19.2568C29.1508 18.2272 30.0961 17.4955 31.1322 17.6315C32.1617 17.7675 32.8934 18.7129 32.7575 19.7489C32.6474 20.5712 32.0258 21.1929 31.2617 21.3483C33.4114 21.8533 34.577 21.5814 35.4382 21.3029C36.8498 20.8432 36.6167 21.8663 34.5252 22.4555C32.2394 23.0966 31.7344 23.2714 31.579 24.1132C31.4236 24.9485 31.9286 25.7385 32.3366 26.3601L39.414 19.3733C41.0328 17.7739 40.3011 15.022 38.0995 14.4457L36.9145 14.1349L35.8656 13.8888C35.218 13.7658 34.6806 13.5651 34.2079 13.4874L23.8346 10.6706C23.5238 10.5865 23.213 10.5476 22.9087 10.5476C21.9438 10.5476 21.0567 10.9361 20.4545 11.5901Z" fill="#FF9E18"/>
<path d="M18.8889 14.3743C18.9342 14.1282 19.1025 13.8628 19.2709 13.6815C19.4716 13.4483 19.7242 13.267 20.0091 13.144C20.9415 12.8332 21.6538 13.4354 20.6177 14.6009C20.2551 15.0024 19.8537 15.1837 19.5234 15.1837C19.0961 15.1772 18.7982 14.8794 18.8889 14.3743ZM16.6484 12.9692C17.4837 12.9692 18.1766 13.3965 18.5392 14.1671C18.6752 14.5427 18.7529 15.0607 18.5522 15.5916C19.0378 15.9737 20.6113 15.9737 21.33 16.9838C21.7833 17.6249 21.9322 18.6674 21.1746 19.8394C20.7084 20.5646 20.035 21.0179 20.1127 21.4452C20.1839 21.8337 21.1358 21.6978 21.4854 21.6848H21.4984C22.2819 21.6913 24.3021 21.646 24.723 23.2648C25.2087 25.162 23.5122 27.1823 23.0913 27.6744L23.2855 28.4126C23.9266 30.8084 27.0671 31.5595 28.8995 29.7529L31.1788 27.4996C30.609 26.7225 29.7089 26.334 28.9319 26.8779C27.9412 27.5773 26.0763 30.1997 25.636 29.4421C25.2993 28.8594 26.8339 27.1305 27.8117 24.8771C28.7959 22.6237 26.8534 21.3093 25.6296 19.8459C24.4057 18.3825 23.9978 17.1522 24.218 16.9773C24.5806 16.6924 24.9432 17.3982 25.4547 18.0069C26.303 19.0041 26.7757 19.6322 29.4888 20.7524C29.1326 20.3574 28.9449 19.8135 29.0226 19.2501C29.1585 18.2206 30.1039 17.4889 31.14 17.6249C32.1695 17.7608 32.9012 18.7062 32.7652 19.7423C32.6552 20.5646 32.0335 21.1862 31.2695 21.3416C33.4192 21.8467 34.5848 21.5747 35.446 21.2963C36.8576 20.8366 36.6245 21.8596 34.533 22.4489C32.2472 23.0899 31.7422 23.2648 31.5868 24.1065C31.4313 24.9418 31.9364 25.7318 32.3444 26.3534L39.4218 19.3667C41.0406 17.7673 40.3089 15.0153 38.1073 14.4391L36.9223 14.1282L35.8733 13.8822C34.1574 13.5584 33.2056 12.6519 32.0918 15.1967C30.6996 18.3695 28.9254 16.6924 28.9449 14.97C28.9772 12.3864 27.3649 13.1699 25.9404 13.7397C24.2244 14.4261 23.3762 14.4973 22.4956 13.4613C22.1394 13.0404 21.861 12.6907 21.5825 12.4447C21.466 12.5807 20.8897 13.1311 19.8796 12.7425C19.2061 12.3929 18.7399 11.6871 18.7399 10.8777C18.7399 12.0303 17.801 12.9692 16.6484 12.9692Z" fill="#FFCD00"/>
<path d="M14.4141 12.982L15.0616 13.6554L15.7285 12.982L15.0616 12.2957L14.4141 12.982Z" fill="#FFCF3C"/>
<path d="M17.9434 9.78998C18.3772 9.78998 18.7333 10.1461 18.7333 10.58C18.7333 10.1461 19.0895 9.78998 19.5233 9.78998C19.0895 9.78998 18.7333 9.43384 18.7333 9C18.7398 9.43384 18.3837 9.78998 17.9434 9.78998Z" fill="#FFCF3C"/>
<path d="M15.4492 10.7874C16.032 10.7874 16.5047 11.2601 16.5047 11.8429C16.5047 11.2601 16.9774 10.7874 17.5601 10.7874C16.9774 10.7874 16.5047 10.3147 16.5047 9.73193C16.5047 10.3147 16.032 10.7874 15.4492 10.7874Z" fill="#FFCF3C"/>
<path d="M14 10.9361L14.395 11.3441L14.8029 10.9361L14.395 10.5217L14 10.9361Z" fill="#FFCF3C"/>
<path d="M14.7578 15.2679C15.6902 15.2679 16.4478 16.0255 16.4478 16.9579C16.4478 16.0255 17.2054 15.2679 18.1379 15.2679C17.2054 15.2679 16.4478 14.5103 16.4478 13.5779C16.4478 14.5103 15.6902 15.2679 14.7578 15.2679Z" fill="#FFCF3C"/>
<path d="M23.2978 11.4152C23.0259 11.8166 23.3237 12.4965 23.9713 12.9368C24.6123 13.3771 25.357 13.416 25.6289 13.0145C25.9009 12.6131 25.603 11.9332 24.9555 11.4929C24.6123 11.2597 24.2432 11.1367 23.9259 11.1367C23.654 11.1367 23.4273 11.2274 23.2978 11.4152Z" fill="#FFCD00"/>
<path d="M43.7461 21.6391C43.7461 22.0341 44.0634 22.3579 44.4519 22.3579C44.8469 22.3579 45.1706 22.0406 45.1706 21.6391C45.1706 21.2506 44.8534 20.9333 44.4519 20.9333C44.0699 20.9333 43.7461 21.2506 43.7461 21.6391Z" fill="#FF9E18"/>
<path d="M43.0596 25.5504C43.0596 27.1433 41.9523 28.2376 40.6055 28.2376C39.932 28.2376 39.4075 27.9721 39.0385 27.5318V29.6686C39.0385 30.0507 38.773 30.3291 38.3909 30.3291C37.996 30.3291 37.7305 30.0507 37.7305 29.6686V23.6078C37.7305 23.2258 37.996 22.9538 38.3909 22.9538C38.7406 22.9538 38.9996 23.1805 39.0385 23.5172C39.4011 23.0898 39.9256 22.8438 40.6055 22.8438C42.0106 22.8567 43.0596 24.0158 43.0596 25.5504ZM41.7451 25.5633C41.7451 24.728 41.1818 24.0676 40.3918 24.0676C39.6148 24.0676 39.0385 24.728 39.0385 25.5633C39.0385 26.3727 39.6148 27.0267 40.3918 27.0267C41.1818 27.0267 41.7451 26.3727 41.7451 25.5633Z" fill="white"/>
<path d="M44.4587 28.1338C44.0766 28.1338 43.8047 27.8683 43.8047 27.4863V23.6141C43.8047 23.232 44.0702 22.9666 44.4457 22.9666C44.8407 22.9666 45.1062 23.232 45.1062 23.6141V27.4863C45.1127 27.8683 44.8472 28.1338 44.4587 28.1338Z" fill="white"/>
<path d="M50.8091 25.0065V27.48C50.8091 27.862 50.5437 28.1275 50.1552 28.1275C49.7731 28.1275 49.4947 27.862 49.4947 27.48V25.1943C49.4947 24.5014 49.0867 24.0611 48.4586 24.0611C47.8176 24.0611 47.4226 24.5014 47.4226 25.1943V27.48C47.4226 27.862 47.1571 28.1275 46.7751 28.1275C46.3931 28.1275 46.1211 27.862 46.1211 27.48V23.6078C46.1211 23.2258 46.3866 22.9538 46.7621 22.9538C47.1248 22.9538 47.3708 23.1675 47.4097 23.4977C47.7269 23.0833 48.232 22.8438 48.8472 22.8438C50.0451 22.8567 50.8091 23.6791 50.8091 25.0065Z" fill="white"/>
<path d="M54.6828 26.8644C55.0324 26.8644 55.2137 27.0975 55.2137 27.3565C55.2137 27.8486 54.6828 28.2436 53.8345 28.2436C52.779 28.2436 52.1056 27.6026 52.1056 26.3529V24.1448H51.6329C51.2897 24.1448 51.0566 23.9117 51.0566 23.5556C51.0566 23.2253 51.2897 22.9922 51.6329 22.9922H52.1121V22.2994C52.1121 21.9044 52.3776 21.6389 52.7531 21.6389C53.1481 21.6389 53.4136 21.9044 53.4136 22.2994V22.9922H54.372C54.7022 22.9922 54.9353 23.2253 54.9353 23.5685C54.9353 23.9117 54.7022 24.1448 54.372 24.1448H53.433V26.5018C53.433 26.8838 53.6014 27.0263 53.8928 27.0263C54.1906 27.0263 54.4367 26.8644 54.6828 26.8644Z" fill="white"/>
<path d="M60.6143 23.6143V27.4865C60.6143 27.8685 60.3488 28.134 59.9603 28.134C59.5847 28.134 59.3192 27.8879 59.2998 27.5383C58.9372 27.9786 58.4127 28.2441 57.7393 28.2441C56.3859 28.2441 55.2852 27.1433 55.2852 25.5439C55.2852 24.0093 56.3212 22.8567 57.7393 22.8567C58.4127 22.8567 58.9372 23.1027 59.2998 23.5301C59.3451 23.1869 59.5976 22.9668 59.9603 22.9668C60.3488 22.9603 60.6143 23.2258 60.6143 23.6143ZM59.2998 25.5439C59.2998 24.7216 58.7364 24.074 57.9529 24.074C57.163 24.074 56.5867 24.7216 56.5867 25.5439C56.5867 26.3663 57.163 27.0267 57.9529 27.0267C58.7364 27.0267 59.2998 26.3663 59.2998 25.5439Z" fill="white"/>
<path d="M65.1017 23.5559C65.1017 23.9379 64.8362 24.1775 64.4606 24.1775C64.2599 24.1775 64.0333 24.1128 63.7354 24.1128C63.2692 24.1128 62.9584 24.4624 62.9584 25.0063V27.4799C62.9584 27.8619 62.6929 28.1274 62.3044 28.1274C61.9159 28.1274 61.6504 27.8619 61.6504 27.4799V23.6077C61.6504 23.2257 61.9159 22.9537 62.2914 22.9537C62.667 22.9537 62.9195 23.1868 62.9519 23.53C63.2303 23.135 63.6577 22.8501 64.221 22.8501C64.6484 22.8566 65.1017 23.0767 65.1017 23.5559Z" fill="white"/>
<path d="M85.0006 121C99.7282 121 111.667 109.061 111.667 94.3334C111.667 79.6058 99.7282 67.6667 85.0006 67.6667C70.2731 67.6667 58.334 79.6058 58.334 94.3334C58.334 109.061 70.2731 121 85.0006 121Z" fill="#FFF59D"/>
<path d="M102.333 94.3333C102.333 84.0667 93.5326 75.9333 82.9992 77.1333C74.9992 78.0667 68.5992 84.4667 67.7992 92.4667C67.1326 98.6 69.6659 104.067 73.9326 107.533C75.7992 109.133 76.9992 111.4 76.9992 113.933V114.333H92.9992V114.2C92.9992 111.8 94.0659 109.4 95.9326 107.8C99.7992 104.6 102.333 99.8 102.333 94.3333Z" fill="#FBC02D"/>
<path d="M93.8008 91.9333L89.8008 89.2667C89.4008 89 88.7341 89 88.3341 89.2667L85.0008 91.4L81.8008 89.2667C81.4008 89 80.7341 89 80.3341 89.2667L76.3341 91.9333C76.0674 92.2 75.8008 92.4666 75.8008 92.8666C75.8008 93.2666 75.8008 93.6667 76.0674 93.9333L81.1341 100.2V114.333H83.8008V99.6666C83.8008 99.4 83.6674 99.1333 83.5341 98.8666L79.1341 93.4L81.1341 92.0666L84.3341 94.2C84.7341 94.4666 85.4008 94.4666 85.8008 94.2L89.0008 92.0666L91.0008 93.4L86.6008 98.8666C86.4674 99.1333 86.3341 99.4 86.3341 99.6666V114.333H89.0008V100.2L94.0674 93.9333C94.3341 93.6667 94.4674 93.2666 94.3341 92.8666C94.2008 92.4666 94.0674 92.0667 93.8008 91.9333Z" fill="#FFF59D"/>
<path d="M85 127.667C87.2091 127.667 89 125.876 89 123.667C89 121.458 87.2091 119.667 85 119.667C82.7909 119.667 81 121.458 81 123.667C81 125.876 82.7909 127.667 85 127.667Z" fill="#5C6BC0"/>
<path d="M87.6667 125H82.3333C79.4 125 77 122.6 77 119.667V113H93V119.667C93 122.6 90.6 125 87.6667 125Z" fill="#9FA8DA"/>
<path d="M93 119.667L77.5333 121.8C77.9333 122.733 78.7333 123.667 79.6667 124.2L92.2 122.467C92.7333 121.667 93 120.733 93 119.667ZM77 116.6V119.267L93 117V114.333L77 116.6Z" fill="#5C6BC0"/>
<path d="M161.422 81.8C161.422 80.2893 161.76 78.94 162.434 77.752C163.124 76.5493 164.055 75.618 165.228 74.958C166.416 74.2833 167.744 73.946 169.21 73.946C170.926 73.946 172.43 74.386 173.72 75.266C175.011 76.146 175.913 77.3633 176.426 78.918H172.884C172.532 78.1847 172.034 77.6347 171.388 77.268C170.758 76.9013 170.024 76.718 169.188 76.718C168.294 76.718 167.494 76.9307 166.79 77.356C166.101 77.7667 165.558 78.3533 165.162 79.116C164.781 79.8787 164.59 80.7733 164.59 81.8C164.59 82.812 164.781 83.7067 165.162 84.484C165.558 85.2467 166.101 85.8407 166.79 86.266C167.494 86.6767 168.294 86.882 169.188 86.882C170.024 86.882 170.758 86.6987 171.388 86.332C172.034 85.9507 172.532 85.3933 172.884 84.66H176.426C175.913 86.2293 175.011 87.454 173.72 88.334C172.444 89.1993 170.941 89.632 169.21 89.632C167.744 89.632 166.416 89.302 165.228 88.642C164.055 87.9673 163.124 87.036 162.434 85.848C161.76 84.66 161.422 83.3107 161.422 81.8ZM178.515 83.362C178.515 82.13 178.757 81.0373 179.241 80.084C179.74 79.1307 180.407 78.3973 181.243 77.884C182.094 77.3707 183.04 77.114 184.081 77.114C184.99 77.114 185.782 77.2973 186.457 77.664C187.146 78.0307 187.696 78.4927 188.107 79.05V77.312H191.209V89.5H188.107V87.718C187.711 88.29 187.161 88.7667 186.457 89.148C185.768 89.5147 184.968 89.698 184.059 89.698C183.032 89.698 182.094 89.434 181.243 88.906C180.407 88.378 179.74 87.6373 179.241 86.684C178.757 85.716 178.515 84.6087 178.515 83.362ZM188.107 83.406C188.107 82.658 187.96 82.02 187.667 81.492C187.374 80.9493 186.978 80.5387 186.479 80.26C185.98 79.9667 185.445 79.82 184.873 79.82C184.301 79.82 183.773 79.9593 183.289 80.238C182.805 80.5167 182.409 80.9273 182.101 81.47C181.808 81.998 181.661 82.6287 181.661 83.362C181.661 84.0953 181.808 84.7407 182.101 85.298C182.409 85.8407 182.805 86.2587 183.289 86.552C183.788 86.8453 184.316 86.992 184.873 86.992C185.445 86.992 185.98 86.8527 186.479 86.574C186.978 86.2807 187.374 85.87 187.667 85.342C187.96 84.7993 188.107 84.154 188.107 83.406ZM197.547 79.072C197.943 78.5147 198.486 78.0527 199.175 77.686C199.879 77.3047 200.679 77.114 201.573 77.114C202.615 77.114 203.553 77.3707 204.389 77.884C205.24 78.3973 205.907 79.1307 206.391 80.084C206.89 81.0227 207.139 82.1153 207.139 83.362C207.139 84.6087 206.89 85.716 206.391 86.684C205.907 87.6373 205.24 88.378 204.389 88.906C203.553 89.434 202.615 89.698 201.573 89.698C200.679 89.698 199.887 89.5147 199.197 89.148C198.523 88.7813 197.973 88.3193 197.547 87.762V95.308H194.467V77.312H197.547V79.072ZM203.993 83.362C203.993 82.6287 203.839 81.998 203.531 81.47C203.238 80.9273 202.842 80.5167 202.343 80.238C201.859 79.9593 201.331 79.82 200.759 79.82C200.202 79.82 199.674 79.9667 199.175 80.26C198.691 80.5387 198.295 80.9493 197.987 81.492C197.694 82.0347 197.547 82.6727 197.547 83.406C197.547 84.1393 197.694 84.7773 197.987 85.32C198.295 85.8627 198.691 86.2807 199.175 86.574C199.674 86.8527 200.202 86.992 200.759 86.992C201.331 86.992 201.859 86.8453 202.343 86.552C202.842 86.2587 203.238 85.8407 203.531 85.298C203.839 84.7553 203.993 84.11 203.993 83.362ZM208.835 83.362C208.835 82.13 209.077 81.0373 209.561 80.084C210.06 79.1307 210.727 78.3973 211.563 77.884C212.414 77.3707 213.36 77.114 214.401 77.114C215.311 77.114 216.103 77.2973 216.777 77.664C217.467 78.0307 218.017 78.4927 218.427 79.05V77.312H221.529V89.5H218.427V87.718C218.031 88.29 217.481 88.7667 216.777 89.148C216.088 89.5147 215.289 89.698 214.379 89.698C213.353 89.698 212.414 89.434 211.563 88.906C210.727 88.378 210.06 87.6373 209.561 86.684C209.077 85.716 208.835 84.6087 208.835 83.362ZM218.427 83.406C218.427 82.658 218.281 82.02 217.987 81.492C217.694 80.9493 217.298 80.5387 216.799 80.26C216.301 79.9667 215.765 79.82 215.193 79.82C214.621 79.82 214.093 79.9593 213.609 80.238C213.125 80.5167 212.729 80.9273 212.421 81.47C212.128 81.998 211.981 82.6287 211.981 83.362C211.981 84.0953 212.128 84.7407 212.421 85.298C212.729 85.8407 213.125 86.2587 213.609 86.552C214.108 86.8453 214.636 86.992 215.193 86.992C215.765 86.992 216.301 86.8527 216.799 86.574C217.298 86.2807 217.694 85.87 217.987 85.342C218.281 84.7993 218.427 84.154 218.427 83.406ZM226.35 75.86C225.807 75.86 225.352 75.6913 224.986 75.354C224.634 75.002 224.458 74.5693 224.458 74.056C224.458 73.5427 224.634 73.1173 224.986 72.78C225.352 72.428 225.807 72.252 226.35 72.252C226.892 72.252 227.34 72.428 227.692 72.78C228.058 73.1173 228.242 73.5427 228.242 74.056C228.242 74.5693 228.058 75.002 227.692 75.354C227.34 75.6913 226.892 75.86 226.35 75.86ZM227.868 77.312V89.5H224.788V77.312H227.868ZM230.369 83.362C230.369 82.13 230.611 81.0373 231.095 80.084C231.593 79.1307 232.261 78.3973 233.097 77.884C233.947 77.3707 234.893 77.114 235.935 77.114C236.844 77.114 237.636 77.2973 238.311 77.664C239 78.0307 239.55 78.4927 239.961 79.05V77.312H243.063V89.5H239.961V87.718C239.565 88.29 239.015 88.7667 238.311 89.148C237.621 89.5147 236.822 89.698 235.913 89.698C234.886 89.698 233.947 89.434 233.097 88.906C232.261 88.378 231.593 87.6373 231.095 86.684C230.611 85.716 230.369 84.6087 230.369 83.362ZM239.961 83.406C239.961 82.658 239.814 82.02 239.521 81.492C239.227 80.9493 238.831 80.5387 238.333 80.26C237.834 79.9667 237.299 79.82 236.727 79.82C236.155 79.82 235.627 79.9593 235.143 80.238C234.659 80.5167 234.263 80.9273 233.955 81.47C233.661 81.998 233.515 82.6287 233.515 83.362C233.515 84.0953 233.661 84.7407 233.955 85.298C234.263 85.8407 234.659 86.2587 235.143 86.552C235.641 86.8453 236.169 86.992 236.727 86.992C237.299 86.992 237.834 86.8527 238.333 86.574C238.831 86.2807 239.227 85.87 239.521 85.342C239.814 84.7993 239.961 84.154 239.961 83.406ZM253.075 77.136C254.527 77.136 255.7 77.598 256.595 78.522C257.489 79.4313 257.937 80.7073 257.937 82.35V89.5H254.857V82.768C254.857 81.8 254.615 81.0593 254.131 80.546C253.647 80.018 252.987 79.754 252.151 79.754C251.3 79.754 250.625 80.018 250.127 80.546C249.643 81.0593 249.401 81.8 249.401 82.768V89.5H246.321V77.312H249.401V78.83C249.811 78.302 250.332 77.8913 250.963 77.598C251.608 77.29 252.312 77.136 253.075 77.136ZM141.881 109.896C141.881 110.717 141.683 111.487 141.287 112.206C140.906 112.925 140.297 113.504 139.461 113.944C138.64 114.384 137.598 114.604 136.337 114.604H133.763V120.5H130.683V105.144H136.337C137.525 105.144 138.537 105.349 139.373 105.76C140.209 106.171 140.832 106.735 141.243 107.454C141.668 108.173 141.881 108.987 141.881 109.896ZM136.205 112.118C137.056 112.118 137.686 111.927 138.097 111.546C138.508 111.15 138.713 110.6 138.713 109.896C138.713 108.4 137.877 107.652 136.205 107.652H133.763V112.118H136.205ZM155.648 114.142C155.648 114.582 155.618 114.978 155.56 115.33H146.65C146.723 116.21 147.031 116.899 147.574 117.398C148.116 117.897 148.784 118.146 149.576 118.146C150.72 118.146 151.534 117.655 152.018 116.672H155.34C154.988 117.845 154.313 118.813 153.316 119.576C152.318 120.324 151.094 120.698 149.642 120.698C148.468 120.698 147.412 120.441 146.474 119.928C145.55 119.4 144.824 118.659 144.296 117.706C143.782 116.753 143.526 115.653 143.526 114.406C143.526 113.145 143.782 112.037 144.296 111.084C144.809 110.131 145.528 109.397 146.452 108.884C147.376 108.371 148.439 108.114 149.642 108.114C150.8 108.114 151.834 108.363 152.744 108.862C153.668 109.361 154.379 110.072 154.878 110.996C155.391 111.905 155.648 112.954 155.648 114.142ZM152.458 113.262C152.443 112.47 152.157 111.839 151.6 111.37C151.042 110.886 150.36 110.644 149.554 110.644C148.791 110.644 148.146 110.879 147.618 111.348C147.104 111.803 146.789 112.441 146.672 113.262H152.458ZM173.282 108.136C174.778 108.136 175.981 108.598 176.89 109.522C177.814 110.431 178.276 111.707 178.276 113.35V120.5H175.196V113.768C175.196 112.815 174.954 112.089 174.47 111.59C173.986 111.077 173.326 110.82 172.49 110.82C171.654 110.82 170.987 111.077 170.488 111.59C170.004 112.089 169.762 112.815 169.762 113.768V120.5H166.682V113.768C166.682 112.815 166.44 112.089 165.956 111.59C165.472 111.077 164.812 110.82 163.976 110.82C163.125 110.82 162.451 111.077 161.952 111.59C161.468 112.089 161.226 112.815 161.226 113.768V120.5H158.146V108.312H161.226V109.786C161.622 109.273 162.128 108.869 162.744 108.576C163.375 108.283 164.064 108.136 164.812 108.136C165.765 108.136 166.616 108.341 167.364 108.752C168.112 109.148 168.691 109.72 169.102 110.468C169.498 109.764 170.07 109.199 170.818 108.774C171.581 108.349 172.402 108.136 173.282 108.136ZM184.529 110.094C184.925 109.507 185.467 109.031 186.157 108.664C186.861 108.297 187.66 108.114 188.555 108.114C189.596 108.114 190.535 108.371 191.371 108.884C192.221 109.397 192.889 110.131 193.373 111.084C193.871 112.023 194.121 113.115 194.121 114.362C194.121 115.609 193.871 116.716 193.373 117.684C192.889 118.637 192.221 119.378 191.371 119.906C190.535 120.434 189.596 120.698 188.555 120.698C187.645 120.698 186.846 120.522 186.157 120.17C185.482 119.803 184.939 119.334 184.529 118.762V120.5H181.449V104.22H184.529V110.094ZM190.975 114.362C190.975 113.629 190.821 112.998 190.513 112.47C190.219 111.927 189.823 111.517 189.325 111.238C188.841 110.959 188.313 110.82 187.741 110.82C187.183 110.82 186.655 110.967 186.157 111.26C185.673 111.539 185.277 111.949 184.969 112.492C184.675 113.035 184.529 113.673 184.529 114.406C184.529 115.139 184.675 115.777 184.969 116.32C185.277 116.863 185.673 117.281 186.157 117.574C186.655 117.853 187.183 117.992 187.741 117.992C188.313 117.992 188.841 117.845 189.325 117.552C189.823 117.259 190.219 116.841 190.513 116.298C190.821 115.755 190.975 115.11 190.975 114.362ZM207.939 114.142C207.939 114.582 207.909 114.978 207.851 115.33H198.941C199.014 116.21 199.322 116.899 199.865 117.398C200.407 117.897 201.075 118.146 201.867 118.146C203.011 118.146 203.825 117.655 204.309 116.672H207.631C207.279 117.845 206.604 118.813 205.607 119.576C204.609 120.324 203.385 120.698 201.933 120.698C200.759 120.698 199.703 120.441 198.765 119.928C197.841 119.4 197.115 118.659 196.587 117.706C196.073 116.753 195.817 115.653 195.817 114.406C195.817 113.145 196.073 112.037 196.587 111.084C197.1 110.131 197.819 109.397 198.743 108.884C199.667 108.371 200.73 108.114 201.933 108.114C203.091 108.114 204.125 108.363 205.035 108.862C205.959 109.361 206.67 110.072 207.169 110.996C207.682 111.905 207.939 112.954 207.939 114.142ZM204.749 113.262C204.734 112.47 204.448 111.839 203.891 111.37C203.333 110.886 202.651 110.644 201.845 110.644C201.082 110.644 200.437 110.879 199.909 111.348C199.395 111.803 199.08 112.441 198.963 113.262H204.749ZM213.517 104.22V120.5H210.437V104.22H213.517ZM216.018 114.362C216.018 113.13 216.26 112.037 216.744 111.084C217.243 110.131 217.91 109.397 218.746 108.884C219.597 108.371 220.543 108.114 221.584 108.114C222.493 108.114 223.285 108.297 223.96 108.664C224.649 109.031 225.199 109.493 225.61 110.05V108.312H228.712V120.5H225.61V118.718C225.214 119.29 224.664 119.767 223.96 120.148C223.271 120.515 222.471 120.698 221.562 120.698C220.535 120.698 219.597 120.434 218.746 119.906C217.91 119.378 217.243 118.637 216.744 117.684C216.26 116.716 216.018 115.609 216.018 114.362ZM225.61 114.406C225.61 113.658 225.463 113.02 225.17 112.492C224.877 111.949 224.481 111.539 223.982 111.26C223.483 110.967 222.948 110.82 222.376 110.82C221.804 110.82 221.276 110.959 220.792 111.238C220.308 111.517 219.912 111.927 219.604 112.47C219.311 112.998 219.164 113.629 219.164 114.362C219.164 115.095 219.311 115.741 219.604 116.298C219.912 116.841 220.308 117.259 220.792 117.552C221.291 117.845 221.819 117.992 222.376 117.992C222.948 117.992 223.483 117.853 223.982 117.574C224.481 117.281 224.877 116.87 225.17 116.342C225.463 115.799 225.61 115.154 225.61 114.406ZM233.532 106.86C232.975 106.86 232.513 106.691 232.146 106.354C231.794 106.002 231.618 105.569 231.618 105.056C231.618 104.543 231.794 104.117 232.146 103.78C232.513 103.428 232.975 103.252 233.532 103.252C234.075 103.252 234.522 103.428 234.874 103.78C235.226 104.117 235.402 104.543 235.402 105.056C235.402 105.569 235.226 106.002 234.874 106.354C234.522 106.691 234.075 106.86 233.532 106.86ZM235.05 122.502C235.05 123.851 234.713 124.819 234.038 125.406C233.378 126.007 232.425 126.308 231.178 126.308H229.814V123.69H230.694C231.163 123.69 231.493 123.595 231.684 123.404C231.875 123.228 231.97 122.935 231.97 122.524V108.312H235.05V122.502ZM237.551 114.362C237.551 113.13 237.793 112.037 238.277 111.084C238.776 110.131 239.443 109.397 240.279 108.884C241.13 108.371 242.076 108.114 243.117 108.114C244.027 108.114 244.819 108.297 245.493 108.664C246.183 109.031 246.733 109.493 247.143 110.05V108.312H250.245V120.5H247.143V118.718C246.747 119.29 246.197 119.767 245.493 120.148C244.804 120.515 244.005 120.698 243.095 120.698C242.069 120.698 241.13 120.434 240.279 119.906C239.443 119.378 238.776 118.637 238.277 117.684C237.793 116.716 237.551 115.609 237.551 114.362ZM247.143 114.406C247.143 113.658 246.997 113.02 246.703 112.492C246.41 111.949 246.014 111.539 245.515 111.26C245.017 110.967 244.481 110.82 243.909 110.82C243.337 110.82 242.809 110.959 242.325 111.238C241.841 111.517 241.445 111.927 241.137 112.47C240.844 112.998 240.697 113.629 240.697 114.362C240.697 115.095 240.844 115.741 241.137 116.298C241.445 116.841 241.841 117.259 242.325 117.552C242.824 117.845 243.352 117.992 243.909 117.992C244.481 117.992 245.017 117.853 245.515 117.574C246.014 117.281 246.41 116.87 246.703 116.342C246.997 115.799 247.143 115.154 247.143 114.406ZM256.583 110.204C256.979 109.559 257.493 109.053 258.123 108.686C258.769 108.319 259.502 108.136 260.323 108.136V111.37H259.509C258.541 111.37 257.808 111.597 257.309 112.052C256.825 112.507 256.583 113.299 256.583 114.428V120.5H253.503V108.312H256.583V110.204ZM261.856 114.362C261.856 113.13 262.098 112.037 262.582 111.084C263.081 110.131 263.748 109.397 264.584 108.884C265.435 108.371 266.381 108.114 267.422 108.114C268.331 108.114 269.123 108.297 269.798 108.664C270.487 109.031 271.037 109.493 271.448 110.05V108.312H274.55V120.5H271.448V118.718C271.052 119.29 270.502 119.767 269.798 120.148C269.109 120.515 268.309 120.698 267.4 120.698C266.373 120.698 265.435 120.434 264.584 119.906C263.748 119.378 263.081 118.637 262.582 117.684C262.098 116.716 261.856 115.609 261.856 114.362ZM271.448 114.406C271.448 113.658 271.301 113.02 271.008 112.492C270.715 111.949 270.319 111.539 269.82 111.26C269.321 110.967 268.786 110.82 268.214 110.82C267.642 110.82 267.114 110.959 266.63 111.238C266.146 111.517 265.75 111.927 265.442 112.47C265.149 112.998 265.002 113.629 265.002 114.362C265.002 115.095 265.149 115.741 265.442 116.298C265.75 116.841 266.146 117.259 266.63 117.552C267.129 117.845 267.657 117.992 268.214 117.992C268.786 117.992 269.321 117.853 269.82 117.574C270.319 117.281 270.715 116.87 271.008 116.342C271.301 115.799 271.448 115.154 271.448 114.406ZM284.562 108.136C286.014 108.136 287.187 108.598 288.082 109.522C288.977 110.431 289.424 111.707 289.424 113.35V120.5H286.344V113.768C286.344 112.8 286.102 112.059 285.618 111.546C285.134 111.018 284.474 110.754 283.638 110.754C282.787 110.754 282.113 111.018 281.614 111.546C281.13 112.059 280.888 112.8 280.888 113.768V120.5H277.808V108.312H280.888V109.83C281.299 109.302 281.819 108.891 282.45 108.598C283.095 108.29 283.799 108.136 284.562 108.136Z" fill="white"/>
</g>
<defs>
<clipPath id="clip0_20410_187035">
<rect width="344" height="194.524" rx="10" fill="white"/>
</clipPath>
</defs>
</svg>
