<svg width="56" height="56" viewBox="0 0 56 56" fill="none" xmlns="http://www.w3.org/2000/svg">
<g clip-path="url(#clip0_917_74924)">
<path d="M11.2766 62.64C4.96318 59.3067 -1.44098 54.5364 -4.27584 47.9748C-7.0713 41.3672 -6.30395 32.9093 -3.45846 25.698C-0.61297 18.4868 -0.925088 8.16645 4.94736 5.04967C10.8198 1.93289 23.1713 3.03556 28.3229 6.01251C34.7101 9.70343 35.2953 18.0621 41.3664 21.0542C47.4374 24.0004 58.347 25.068 61.6682 30.2845C64.9894 35.501 64.2166 39.7465 60.3821 45.1467C56.5936 50.501 49.941 53.2306 44.4354 56.9117C38.8904 60.6322 34.4466 65.2581 29.133 66.5901C23.8194 67.9221 17.5901 65.9733 11.2766 62.64Z" fill="#FFCE00"/>
<path opacity="0.8" d="M35.6322 24.7824C39.0839 27.9824 42.3482 32.113 43.0339 36.7752C43.6866 41.4601 41.7547 46.7153 38.7122 50.822C35.6697 54.9287 34.1074 61.5541 29.8359 62.5369C25.5644 63.5196 17.887 60.7099 15.1143 57.935C11.6766 54.4947 12.7302 49.072 9.37462 46.1306C6.01117 43.2185 -0.75401 40.6771 -1.97891 36.7884C-3.20382 32.8997 -1.98723 30.328 1.37608 27.5433C4.70229 24.7801 9.40457 24.177 13.5387 22.7723C17.7047 21.3492 21.324 19.1616 24.935 19.22C28.5461 19.2784 32.1805 21.5824 35.6322 24.7824Z" fill="#FFE784"/>
<path opacity="0.8" d="M27.7331 45.2921C26.6877 49.8814 24.7427 54.7737 21.0478 57.6986C17.317 60.6063 11.7999 61.5608 6.72216 60.9792C1.64439 60.3977 -4.87451 62.3574 -7.86137 59.1496C-10.8482 55.9417 -12.2536 47.888 -11.2369 44.0994C-9.97632 39.4021 -4.75326 37.6032 -3.88377 33.2265C-3.04353 28.8576 -4.22519 21.7281 -1.46996 18.7229C1.28528 15.7178 4.12076 15.4855 8.214 17.0059C12.2702 18.5049 15.1436 22.2756 18.4272 25.1535C21.7426 28.0498 25.4468 30.0904 27.2017 33.2469C28.9566 36.4034 28.7785 40.7028 27.7331 45.2921Z" fill="#FFF7D7"/>
<g style="mix-blend-mode:overlay">
<path d="M23.2271 13.2045C23.8419 13.2045 24.3407 13.7032 24.3407 14.3181C24.3407 13.7032 24.8394 13.2045 25.4543 13.2045C24.8394 13.2045 24.3407 12.7057 24.3407 12.0908C24.3407 12.7057 23.8419 13.2045 23.2271 13.2045Z" fill="#002E6D"/>
</g>
<g style="mix-blend-mode:overlay">
<path d="M22.2729 31.3407C22.8878 31.3407 23.3866 31.8394 23.3866 32.4543C23.3866 31.8394 23.8853 31.3407 24.5002 31.3407C23.8853 31.3407 23.3866 30.8419 23.3866 30.2271C23.3866 30.8419 22.8878 31.3407 22.2729 31.3407Z" fill="#002E6D"/>
</g>
<g style="mix-blend-mode:overlay">
<path d="M18.4546 9.38614C20.4734 9.38614 22.1137 11.0264 22.1137 13.0452C22.1137 11.0264 23.754 9.38614 25.7728 9.38614C23.754 9.38614 22.1137 7.74586 22.1137 5.72705C22.1137 7.74586 20.4734 9.38614 18.4546 9.38614Z" fill="#002E6D"/>
</g>
<g style="mix-blend-mode:overlay">
<path d="M45.1816 40.8862C46.6738 40.8862 47.8862 42.0986 47.8862 43.5907C47.8862 42.0986 49.0986 40.8862 50.5907 40.8862C49.0986 40.8862 47.8862 39.6738 47.8862 38.1816C47.8862 39.6738 46.6738 40.8862 45.1816 40.8862Z" fill="#002E6D"/>
</g>
<g style="mix-blend-mode:overlay">
<path d="M44.2271 44.8637C44.7537 44.8637 45.1816 45.2916 45.1816 45.8183C45.1816 45.2916 45.6095 44.8637 46.1361 44.8637C45.6095 44.8637 45.1816 44.4358 45.1816 43.9092C45.1816 44.4358 44.7537 44.8637 44.2271 44.8637Z" fill="#002E6D"/>
</g>
<rect x="29.6011" y="9.21826" width="15.1782" height="18.5855" rx="1.27273" transform="rotate(-2.53912 29.6011 9.21826)" fill="#E7EBEE"/>
<rect x="28.9546" y="8.62695" width="15.1782" height="18.5855" rx="1.27273" transform="rotate(-2.53912 28.9546 8.62695)" fill="white"/>
<g clip-path="url(#clip1_917_74924)">
<path fill-rule="evenodd" clip-rule="evenodd" d="M38.7702 22.6633C41.6218 21.8992 43.3141 18.9681 42.55 16.1165C41.7859 13.2649 38.8548 11.5726 36.0032 12.3367C33.1515 13.1008 31.4593 16.0319 32.2233 18.8835C32.9874 21.7351 35.9185 23.4274 38.7702 22.6633ZM39.5557 16.0245C39.7402 15.7049 39.6307 15.2962 39.3111 15.1117C38.9915 14.9272 38.5829 15.0367 38.3984 15.3563L36.8426 18.051L35.7845 17.4402C35.4649 17.2557 35.0563 17.3652 34.8718 17.6847C34.6872 18.0043 34.7967 18.413 35.1163 18.5975L36.753 19.5425C37.0726 19.727 37.4813 19.6175 37.6658 19.2979L39.5557 16.0245Z" fill="#0055B8"/>
</g>
<path d="M6.84944 54.6073C6.84944 54.6073 5.30195 65.7138 6.38077 72.1336C7.45958 78.5535 7.63643 83.5231 7.57454 86.1405C7.52148 88.6342 7.8752 101.456 8.64451 104.746C8.70641 105.002 8.92747 105.179 9.18391 105.205C10.1301 105.276 12.5 105.347 14.3746 104.631C14.6664 104.516 14.861 104.233 14.8521 103.923C14.7814 101.2 14.463 88.1832 14.6664 87.2193C14.8963 86.1494 14.7195 85.6719 14.7195 84.8407C14.7195 84.0094 14.9494 66.9606 15.1174 66.9606C15.2854 66.9606 15.6833 66.9606 15.7452 67.3144C15.8071 67.6681 15.9132 84.6638 15.9132 85.1413C15.9132 85.6188 16.1432 87.3432 16.1432 88.1125C16.1432 88.7845 16.0105 100.386 15.984 103.393C15.9751 103.817 16.267 104.18 16.6737 104.277C17.7967 104.542 20.1401 105.356 21.6433 105.011C22.0236 104.923 22.2977 104.595 22.3065 104.206C22.3773 102.588 22.616 97.6715 23.1289 93.5154C23.7568 88.4662 23.0582 85.6719 23.1731 85.1413C23.2881 84.6107 23.3854 83.2224 23.2173 83.0986C23.0493 82.9837 25.3396 73.3274 25.7021 70.5596C27.2938 58.4097 23.7037 54.2979 23.7037 54.2979C23.7037 54.2979 23.518 54.6781 15.6303 54.8549C7.74256 55.0053 6.84944 54.6073 6.84944 54.6073Z" fill="#558AF0"/>
<path d="M7.82196 52.3965L7.52132 52.4672C6.86696 54.2446 4.88618 62.937 6.30102 72.1777C7.42404 79.5348 7.55667 83.6202 7.50362 86.2376C7.45056 88.7401 7.98997 101.359 8.66202 104.684C8.80351 105.409 9.82043 105.267 9.82043 105.267C9.82043 105.267 8.44095 91.7113 8.66202 87.6525C8.88309 83.5937 8.6797 77.8636 7.63626 70.9839C6.7962 65.4395 8.23758 56.2165 9.02458 52.9359C7.98998 52.6794 8.03419 52.6087 7.82196 52.3965Z" fill="#EBF4FF"/>
<path d="M21.2981 53.4663C22.0143 55.0315 24.057 59.8242 24.2339 64.1749C24.455 69.4628 21.192 80.9937 21.7668 83.3813C22.3504 85.7688 21.5457 99.5458 21.0417 102.517C20.5465 105.417 21.2716 105.011 21.3335 105.055C21.3335 105.055 22.3858 104.904 22.3504 104.109C22.2796 102.49 22.651 97.8038 23.1728 93.63C23.8006 88.5543 23.102 85.7511 23.217 85.2206C23.3319 84.6812 23.4292 83.2928 23.2612 83.169C23.0932 83.0541 25.3923 73.3536 25.7548 70.577C27.1608 59.7358 23.4823 53.5547 23.3231 53.3071C23.3054 53.3248 23.0755 53.3867 21.2981 53.4663Z" fill="#EBF4FF"/>
<path d="M23.3145 53.2983C23.3145 53.2983 23.3145 53.2983 23.3233 53.3072C23.3321 53.2983 23.3145 53.2983 23.3145 53.2983Z" fill="#EBF4FF"/>
<path d="M6.84947 54.1919C6.84947 54.1919 5.4081 66.1915 6.29237 72.0454C7.26507 78.4829 7.63647 83.3464 7.57457 85.9638C7.52151 88.431 7.83102 100.625 8.60033 104.613C8.67107 104.976 8.98057 105.25 9.35197 105.268C10.4219 105.321 12.6768 105.321 14.4631 104.604C14.7018 104.507 14.8521 104.268 14.8433 104.012C14.7814 101.474 14.4631 88.1834 14.6664 87.2195C14.8963 86.1495 14.7195 85.672 14.7195 84.8408C14.7195 84.0096 14.9494 66.9608 15.1174 66.9608C15.2854 66.9608 15.6834 66.9608 15.7453 67.3145C15.8072 67.6682 15.9133 84.664 15.9133 85.1415C15.9133 85.619 16.1432 87.3433 16.1432 88.1126C16.1432 88.7847 16.0105 100.501 15.984 103.437C15.9752 103.835 16.2405 104.198 16.6207 104.321C17.7349 104.684 20.0605 105.329 21.5903 105.064C22.0236 104.985 22.3508 104.604 22.3596 104.162C22.4127 102.456 22.6072 97.6981 23.1024 93.6305C23.7303 88.5813 23.0847 85.6543 23.1997 85.1238C23.3146 84.5932 23.4384 83.1165 23.2704 82.9927C23.1024 82.8689 25.3838 73.0888 25.7641 70.3299C27.2231 59.7805 24.0044 54.6959 24.0044 54.6959C24.0044 54.6959 23.5357 54.6517 15.6391 54.8374C7.74257 55.0054 6.84947 54.1919 6.84947 54.1919Z" stroke="#1148B7" stroke-width="0.205417" stroke-miterlimit="10" stroke-linecap="round"/>
<path d="M16.1782 13.5772C16.1782 13.5772 12.65 13.2854 10.4835 16.6456C8.30821 20.0059 9.84683 23.2335 8.96255 25.285C8.10481 27.2746 7.24707 28.15 7.24707 28.15C7.24707 28.15 12.1902 30.3165 15.1702 29.9009C18.1413 29.4853 17.4604 29.9716 17.4604 29.9716C17.4604 29.9716 22.7661 29.1316 25.6311 27.6637C25.6311 27.6637 23.6238 24.4007 23.5 21.7125C23.3762 19.0155 22.2797 15.7967 20.4316 14.8329" fill="#002E6D"/>
<path d="M14.1447 27.9375L13.8352 30.0244L12.1286 30.3516C12.1286 30.3516 11.6511 34.1451 15.0821 34.5253C18.5131 34.9056 20.6442 30.4312 20.6442 30.4312L18.4511 30.1836L18.5484 28.5211" fill="#FBC6B6"/>
<path d="M15.0822 13.4798C15.0822 13.4798 15.5774 12.9227 15.1175 11.9588C14.6577 10.995 13.349 10.3406 12.0137 11.2602C10.422 12.3656 9.59082 12.1268 9.59082 12.1268C9.59082 12.1268 10.1037 14.7178 12.845 14.5144" fill="#002E6D"/>
<path d="M12.9152 14.7356C12.9152 14.7356 12.6765 13.9751 12.8887 13.6214C13.1098 13.2677 15.3204 12.0739 16.2578 13.7629" fill="#F89E1C"/>
<path d="M16.214 28.831H16.1698C13.3224 28.6453 11.1471 26.1605 11.3417 23.3131L11.66 18.5292C11.8457 15.6818 14.3305 13.5065 17.1779 13.7011H17.2221C20.0695 13.8868 22.2448 16.3716 22.0502 19.2189L21.7319 24.0028C21.5462 26.8502 19.0614 29.0167 16.214 28.831Z" fill="#FAC8BB"/>
<path d="M17.0008 21.9689C17.4518 22.4553 18.0089 23.2776 17.3634 23.9497C17.2573 24.0558 17.0804 24.0028 17.0451 23.8524L16.6825 22.1369C16.6471 21.9512 16.8682 21.8363 17.0008 21.9689Z" fill="#FF8D76"/>
<path d="M12.8578 22.843C12.9188 21.5697 12.2367 20.5025 11.3342 20.4592C10.4317 20.4159 9.65059 21.413 9.58954 22.6863C9.52849 23.9595 10.2106 25.0268 11.1131 25.0701C12.0156 25.1133 12.7967 24.1162 12.8578 22.843Z" fill="#FAC8BB"/>
<path d="M10.9699 23.9674C10.9699 23.9674 10.1652 23.8967 10.1829 22.4995" stroke="#FF7F66" stroke-width="0.248003" stroke-miterlimit="10" stroke-linecap="round" stroke-linejoin="round"/>
<path d="M23.4295 22.9737C23.5499 21.7048 22.9183 20.607 22.0189 20.5217C21.1194 20.4364 20.2928 21.3959 20.1725 22.6648C20.0521 23.9337 20.6837 25.0315 21.5831 25.1168C22.4826 25.2021 23.3092 24.2426 23.4295 22.9737Z" fill="#FAC8BB"/>
<path d="M21.8818 24.0204C21.8818 24.0204 22.6865 24.0646 22.8722 22.6763" stroke="#FF7F66" stroke-width="0.248003" stroke-miterlimit="10" stroke-linecap="round" stroke-linejoin="round"/>
<path d="M13.853 21.2437L14.4101 21.4736" stroke="#002E6D" stroke-width="0.422143" stroke-miterlimit="10" stroke-linecap="round"/>
<path d="M14.5392 22.9035C14.9337 22.8745 15.2254 22.4681 15.1907 21.9956C15.156 21.5232 14.8081 21.1637 14.4136 21.1927C14.019 21.2216 13.7273 21.6281 13.762 22.1005C13.7967 22.573 14.1447 22.9325 14.5392 22.9035Z" fill="white"/>
<path d="M14.5452 22.7364C14.8667 22.7128 15.1044 22.3817 15.0761 21.9969C15.0479 21.6122 14.7643 21.3194 14.4429 21.343C14.1214 21.3666 13.8837 21.6977 13.912 22.0824C13.9403 22.4672 14.2238 22.76 14.5452 22.7364Z" fill="#002E6D"/>
<path d="M19.7157 21.1289L19.1763 21.3942" stroke="#002E6D" stroke-width="0.422143" stroke-miterlimit="10" stroke-linecap="round"/>
<path d="M19.1499 22.8444C19.5454 22.8444 19.8661 22.4604 19.8661 21.9867C19.8661 21.5129 19.5454 21.1289 19.1499 21.1289C18.7543 21.1289 18.4336 21.5129 18.4336 21.9867C18.4336 22.4604 18.7543 22.8444 19.1499 22.8444Z" fill="white"/>
<path d="M19.1232 22.6764C19.4455 22.6764 19.7068 22.3637 19.7068 21.9779C19.7068 21.5921 19.4455 21.2793 19.1232 21.2793C18.8009 21.2793 18.5396 21.5921 18.5396 21.9779C18.5396 22.3637 18.8009 22.6764 19.1232 22.6764Z" fill="#002E6D"/>
<path d="M13.5169 19.882C14.0033 19.6432 14.808 19.3691 15.312 19.8466C15.3739 19.9085 15.3209 19.9969 15.2148 19.9881C14.9318 19.9527 14.4101 19.935 13.5965 20.0411C13.4816 20.0588 13.4197 19.935 13.5169 19.882Z" fill="#002E6D"/>
<path d="M20.1843 20.1916C19.7334 19.8909 18.9729 19.5107 18.4069 19.9175C18.3362 19.9705 18.3804 20.0678 18.4865 20.0678C18.7695 20.0678 19.2912 20.1208 20.0782 20.3331C20.202 20.3684 20.2816 20.2535 20.1843 20.1916Z" fill="#002E6D"/>
<path d="M10.6608 18.6265C10.1391 20.1739 11.6335 22.4288 11.6335 22.4288L13.2783 19.6787L10.6608 18.6265Z" fill="#002E6D"/>
<path d="M21.7759 21.8628C21.7759 21.8628 24.0131 14.771 18.0177 13.6745C13.3045 12.8079 11.5625 15.0186 11.1381 15.9647C10.0593 18.3434 10.2361 20.0059 10.3069 20.616C10.3069 20.6514 12.5087 20.8813 12.5087 20.8813L14.5514 17.5388L21.7759 21.8628Z" fill="#002E6D"/>
<path d="M14.8253 17.7241L13.5166 16.9282L14.4805 18.6349" fill="#FAC8BB"/>
<path d="M17.0629 28.7779C17.0629 28.7779 15.1882 29.3173 13.2163 27.7256" stroke="#FF7F66" stroke-width="0.248003" stroke-miterlimit="10" stroke-linecap="round" stroke-linejoin="round"/>
<path d="M17.7525 24.9487L14.914 24.7983C14.8344 24.7983 14.7637 24.8602 14.7637 24.9398C14.7814 25.4173 14.9936 26.8499 17.0451 26.8852C17.1158 26.8852 17.1689 26.841 17.1866 26.7703L17.4607 25.3112C17.4695 25.267 17.5049 25.2228 17.5491 25.2051L17.7791 25.1167C17.8763 25.0902 17.8498 24.9575 17.7525 24.9487Z" fill="#E86752"/>
<path d="M12.2081 31.855C12.2081 31.855 14.0297 34.5343 21.0862 31.9788C21.0862 31.9788 28.1427 48.6473 28.2665 53.7584C28.3903 58.8695 6.48682 57.1629 6.48682 57.1629L12.2081 31.855Z" fill="#EBF4FF"/>
<path d="M11.9692 34.0391C11.9692 34.0391 14.8873 35.6219 20.246 34.0391" stroke="#191708" stroke-width="0.205417" stroke-miterlimit="10" stroke-linecap="round"/>
<path d="M12.2168 31.855C12.2168 31.855 14.0385 34.5343 21.095 31.9788C21.095 31.9788 28.1515 48.6473 28.2753 53.7584C28.3991 58.8695 6.49561 57.1629 6.49561 57.1629L12.2168 31.855Z" stroke="#191708" stroke-width="0.205417" stroke-miterlimit="10" stroke-linecap="round"/>
<path d="M4.77128 32.3768C2.39259 34.8616 -0.472449 48.7093 -1.71927 54.7047C-2.9661 60.7001 -3.55858 60.5409 -2.99264 62.2387C-2.57703 63.4944 -0.543195 64.1929 1.26072 64.2902C2.24227 64.3433 3.12654 63.6978 3.3653 62.7427L3.40951 62.5924C3.40951 62.5924 4.08155 69.87 5.21342 70.542C5.21342 70.542 11.1204 69.87 13.6052 68.1722C16.09 66.4744 14.3833 33.5882 13.1365 29.8566C13.1365 29.8478 7.14114 29.892 4.77128 32.3768Z" fill="#F89E1C"/>
<path d="M26.8782 32.2972C29.2569 34.782 32.122 48.6297 33.3688 54.6251C34.6156 60.6204 35.2081 60.4613 34.6422 62.1591C34.2266 63.4147 32.1927 64.1133 30.3888 64.2106C29.4073 64.2636 28.523 63.6181 28.2842 62.6631L28.24 62.5128C28.24 62.5128 28.072 68.9591 26.9401 69.64C26.9401 69.64 20.7944 69.4543 18.3008 67.7565C15.816 66.0587 17.7879 33.827 19.0347 30.0953C19.0259 30.0776 24.4995 29.8035 26.8782 32.2972Z" fill="#F89E1C"/>
<path d="M3.36523 62.7429L6.35406 48.7803" stroke="#D57E02" stroke-width="0.218592" stroke-miterlimit="10" stroke-linecap="round"/>
<path d="M28.2309 62.5037L26.4712 54.0146" stroke="#D57E02" stroke-width="0.218592" stroke-miterlimit="10" stroke-linecap="round"/>
<path d="M21.6078 31.2803C21.6078 31.2803 21.7227 41.2372 21.7227 42.7051C21.7227 44.173 18.3271 49.3813 18.3271 55.7127" stroke="#D57E02" stroke-width="0.218592" stroke-miterlimit="10" stroke-linecap="round"/>
<path d="M25.472 41.0869C25.472 41.0869 23.8891 43.4656 24.57 45.4994" stroke="#D57E02" stroke-width="0.218592" stroke-miterlimit="10" stroke-linecap="round"/>
<path d="M25.7021 43.6953C25.7021 43.6953 24.1193 44.9421 25.2512 48.4439" stroke="#D57E02" stroke-width="0.218592" stroke-miterlimit="10" stroke-linecap="round"/>
<path d="M6.12451 40.8657C6.12451 40.8657 7.5924 42.3336 7.48628 43.9165" stroke="#D57E02" stroke-width="0.218592" stroke-miterlimit="10" stroke-linecap="round"/>
<path d="M33.3598 54.7047C32.113 48.7093 29.2037 34.7201 26.825 32.2265C25.6047 30.9443 23.4559 30.4668 21.6255 30.1484L21.6962 32.1823C22.6424 32.421 24.3756 32.8278 25.1626 33.2788C26.3564 33.9597 27.9923 40.2911 27.9923 40.2911L32.785 62.4686L33.1122 63.6536C33.855 63.3087 34.4298 62.84 34.6331 62.2299C35.1991 60.5321 34.6066 60.7001 33.3598 54.7047Z" fill="#EBF4FF"/>
<path d="M4.77128 32.3767C2.39259 34.8615 -0.472449 48.7092 -1.71927 54.7046C-2.9661 60.7 -3.55858 60.5408 -2.99264 62.2386C-2.78926 62.8399 -2.21448 63.3174 -1.47169 63.6623L-1.41863 62.9372C-1.41863 62.9372 2.04771 45.7734 3.48024 40.1229C3.91353 38.3986 5.25764 33.8976 6.46025 33.2256C7.59212 32.5889 10.6429 32.3944 10.6429 32.3944L11.1204 30.0068C9.16613 30.2191 6.25686 30.8204 4.77128 32.3767Z" fill="#EBF4FF"/>
<path d="M10.7666 31.8105C10.7666 31.8105 9.8646 38.2569 10.0857 40.7505C10.3156 43.2354 12.6854 46.4099 12.6854 51.9543" stroke="#D57E02" stroke-width="0.218592" stroke-miterlimit="10" stroke-linecap="round"/>
</g>
<defs>
<clipPath id="clip0_917_74924">
<rect width="56" height="56" rx="28" fill="white"/>
</clipPath>
<clipPath id="clip1_917_74924">
<rect width="13.3636" height="13.3636" fill="white" transform="translate(29.2031 12.7754) rotate(-15)"/>
</clipPath>
</defs>
</svg>
