<svg width="24" height="24" viewBox="0 0 24 24" fill="none" xmlns="http://www.w3.org/2000/svg">
<path fill-rule="evenodd" clip-rule="evenodd" d="M16.999 2H17.749C18.3458 2 18.918 2.23705 19.34 2.65901C19.762 3.08097 19.999 3.65326 19.999 4.25V10.331C19.2507 9.97535 18.4006 9.89667 17.5997 10.109C16.7989 10.3212 16.0993 10.8107 15.6255 11.4904C15.1516 12.17 14.9343 12.9957 15.012 13.8205C15.0897 14.6454 15.4575 15.4159 16.05 15.995H15.772C15.408 15.995 15.0475 16.0667 14.7112 16.206C14.3749 16.3453 14.0693 16.5495 13.8119 16.8069C13.5545 17.0643 13.3503 17.3699 13.211 17.7062C13.0717 18.0425 13 18.403 13 18.767V18.87C13 19.611 13.215 20.353 13.668 21H6.25002C5.65329 21 5.08099 20.7629 4.65903 20.341C4.23708 19.919 4.00002 19.3467 4.00002 18.75L3.99902 4.251C3.99902 3.65426 4.23608 3.08197 4.65803 2.66001C5.07999 2.23805 5.65229 2.001 6.24902 2.001L6.99602 2L12.5 2H16.999ZM7.74602 13H11.247L11.349 13.007C11.5285 13.0317 11.693 13.1206 11.8121 13.2571C11.9312 13.3937 11.9968 13.5688 11.9968 13.75C11.9968 13.9312 11.9312 14.1063 11.8121 14.2429C11.693 14.3794 11.5285 14.4683 11.349 14.493L11.247 14.5H7.74602L7.64402 14.493C7.46451 14.4683 7.30001 14.3794 7.18093 14.2429C7.06186 14.1063 6.99625 13.9312 6.99625 13.75C6.99625 13.5688 7.06186 13.3937 7.18093 13.2571C7.30001 13.1206 7.46451 13.0317 7.64402 13.007L7.74602 13ZM7.74602 5H16.247L16.349 5.007C16.5285 5.0317 16.693 5.12055 16.8121 5.25714C16.9312 5.39372 16.9968 5.5688 16.9968 5.75C16.9968 5.9312 16.9312 6.10628 16.8121 6.24286C16.693 6.37945 16.5285 6.4683 16.349 6.493L16.247 6.5H7.74602L7.64402 6.493C7.46451 6.4683 7.30001 6.37945 7.18093 6.24286C7.06186 6.10628 6.99625 5.9312 6.99625 5.75C6.99625 5.5688 7.06186 5.39372 7.18093 5.25714C7.30001 5.12055 7.46451 5.0317 7.64402 5.007L7.74602 5ZM7.74602 10.5C7.33202 10.5 6.99602 10.164 6.99602 9.75C6.99602 9.55109 7.07504 9.36032 7.21569 9.21967C7.35635 9.07902 7.54711 9 7.74602 9H13.249C13.4479 9 13.6387 9.07902 13.7793 9.21967C13.92 9.36032 13.999 9.55109 13.999 9.75C13.999 9.94891 13.92 10.1397 13.7793 10.2803C13.6387 10.421 13.4479 10.5 13.249 10.5H7.74602Z" fill="#0055B8"/>
<path fill-rule="evenodd" clip-rule="evenodd" d="M20.2678 15.2628C20.7366 14.7939 21 14.158 21 13.495C21 12.832 20.7366 12.1961 20.2678 11.7272C19.7989 11.2584 19.1631 10.995 18.5 10.995C17.837 10.995 17.2011 11.2584 16.7323 11.7272C16.2634 12.1961 16 12.832 16 13.495C16 14.158 16.2634 14.7939 16.7323 15.2628C17.2011 15.7316 17.837 15.995 18.5 15.995C19.1631 15.995 19.7989 15.7316 20.2678 15.2628ZM18.5 21.995C21.714 21.995 23 20.426 23 18.87V18.767C23 17.788 22.207 16.995 21.227 16.995H15.773C14.794 16.995 14 17.787 14 18.767V18.87C14 20.432 15.286 21.995 18.5 21.995Z" fill="#0055B8"/>
</svg>
