<svg width="52" height="52" viewBox="0 0 52 52" fill="none" xmlns="http://www.w3.org/2000/svg">
<rect width="52" height="52" rx="26" fill="#EFF7FF"/>
<path opacity="0.3" d="M11 12.9387C12.5067 12.9387 13.7288 14.2547 13.7288 15.8773C13.7288 14.2547 14.9508 12.9387 16.4575 12.9387C14.9508 12.9387 13.7288 11.6226 13.7288 10C13.7288 11.6226 12.5067 12.9387 11 12.9387Z" fill="#007BE0"/>
<path opacity="0.3" d="M36 42C37.1043 42 38 42.8957 38 44C38 42.8957 38.8957 42 40 42C38.8957 42 38 41.1043 38 40C38 41.1043 37.1043 42 36 42Z" fill="#007BE0"/>
<path opacity="0.3" d="M8 40.6179C10.5478 40.6179 12.6179 42.688 12.6179 45.2358C12.6179 42.688 14.688 40.6179 17.2358 40.6179C14.688 40.6179 12.6179 38.5478 12.6179 36C12.6179 38.5478 10.5478 40.6179 8 40.6179Z" fill="#007BE0"/>
<path opacity="0.3" d="M37 18.6179C39.5478 18.6179 41.6179 20.688 41.6179 23.2358C41.6179 20.688 43.688 18.6179 46.2358 18.6179C43.688 18.6179 41.6179 16.5478 41.6179 14C41.6179 16.5478 39.5478 18.6179 37 18.6179Z" fill="#007BE0"/>
<path fill-rule="evenodd" clip-rule="evenodd" d="M27.2857 20V14H19.5714C18.8894 14 18.2354 14.2709 17.7532 14.7532C17.2709 15.2354 17 15.8894 17 16.5714V35.4286C17 36.1106 17.2709 36.7646 17.7532 37.2468C18.2354 37.7291 18.8894 38 19.5714 38H33.2857C33.9677 38 34.6218 37.7291 35.104 37.2468C35.5862 36.7646 35.8571 36.1106 35.8571 35.4286V22.5714H29.8571C29.1752 22.5714 28.5211 22.3005 28.0389 21.8183C27.5566 21.336 27.2857 20.682 27.2857 20ZM29 20V14.1003C29.4188 14.2206 29.8002 14.4453 30.1083 14.7534L35.1037 19.7489C35.4118 20.057 35.6366 20.4383 35.7569 20.8571H29.8571C29.6298 20.8571 29.4118 20.7668 29.2511 20.6061C29.0903 20.4453 29 20.2273 29 20ZM28.5045 27.5669C28.6653 27.4062 28.7556 27.1882 28.7556 26.9608C28.7556 26.7335 28.6653 26.5155 28.5045 26.3547C28.3438 26.194 28.1258 26.1037 27.8984 26.1037L20.1841 26.1037C19.9568 26.1037 19.7388 26.194 19.5781 26.3547C19.4173 26.5155 19.327 26.7335 19.327 26.9608C19.327 27.1882 19.4173 27.4062 19.5781 27.5669C19.7388 27.7277 19.9568 27.818 20.1841 27.818H27.8984C28.1258 27.818 28.3438 27.7277 28.5045 27.5669ZM33.2188 30.9955C33.3796 30.8348 33.4699 30.6167 33.4699 30.3894C33.4699 30.1621 33.3796 29.9441 33.2188 29.7833C33.0581 29.6226 32.84 29.5323 32.6127 29.5323H20.1841C19.9568 29.5323 19.7388 29.6226 19.5781 29.7833C19.4173 29.9441 19.327 30.1621 19.327 30.3894C19.327 30.6167 19.4173 30.8348 19.5781 30.9955C19.7388 31.1562 19.9568 31.2465 20.1841 31.2465L32.6127 31.2465C32.84 31.2465 33.0581 31.1562 33.2188 30.9955ZM33.4699 33.818C33.4699 34.0453 33.3796 34.2633 33.2188 34.4241C33.0581 34.5848 32.8401 34.6751 32.6127 34.6751H20.1841C19.9568 34.6751 19.7388 34.5848 19.5781 34.4241C19.4173 34.2633 19.327 34.0453 19.327 33.818C19.327 33.5906 19.4173 33.3726 19.5781 33.2119C19.7388 33.0511 19.9568 32.9608 20.1841 32.9608H32.6127C32.8401 32.9608 33.0581 33.0511 33.2188 33.2119C33.3796 33.3726 33.4699 33.5906 33.4699 33.818ZM23.3617 18.9955C23.5224 18.8348 23.6127 18.6167 23.6127 18.3894C23.6127 18.1621 23.5224 17.9441 23.3617 17.7833C23.2009 17.6226 22.9829 17.5323 22.7556 17.5323L20.1842 17.5323C19.9568 17.5323 19.7388 17.6226 19.5781 17.7833C19.4173 17.9441 19.327 18.1621 19.327 18.3894C19.327 18.6167 19.4173 18.8348 19.5781 18.9955C19.7388 19.1562 19.9568 19.2465 20.1842 19.2465L22.7556 19.2465C22.9829 19.2465 23.2009 19.1562 23.3617 18.9955ZM23.3617 22.4241C23.5224 22.2633 23.6127 22.0453 23.6127 21.818C23.6127 21.5906 23.5224 21.3726 23.3617 21.2119C23.2009 21.0511 22.9829 20.9608 22.7556 20.9608H20.1842C19.9568 20.9608 19.7388 21.0511 19.5781 21.2119C19.4173 21.3726 19.327 21.5906 19.327 21.818C19.327 22.0453 19.4173 22.2633 19.5781 22.4241C19.7388 22.5848 19.9568 22.6751 20.1842 22.6751H22.7556C22.9829 22.6751 23.2009 22.5848 23.3617 22.4241Z" fill="#007BE0"/>
</svg>
