<svg width="52" height="52" viewBox="0 0 52 52" fill="none" xmlns="http://www.w3.org/2000/svg">
<rect width="52" height="52" rx="26" fill="#E1F4FE"/>
<path opacity="0.3" d="M10 8.93865C11.5067 8.93865 12.7288 10.2547 12.7288 11.8773C12.7288 10.2547 13.9508 8.93865 15.4575 8.93865C13.9508 8.93865 12.7288 7.62257 12.7288 6C12.7288 7.62257 11.5067 8.93865 10 8.93865Z" fill="#007BE0"/>
<path opacity="0.3" d="M37 41C38.1043 41 39 41.8957 39 43C39 41.8957 39.8957 41 41 41C39.8957 41 39 40.1043 39 39C39 40.1043 38.1043 41 37 41Z" fill="#007BE0"/>
<path opacity="0.3" d="M9 41.6179C11.5478 41.6179 13.6179 43.688 13.6179 46.2358C13.6179 43.688 15.688 41.6179 18.2358 41.6179C15.688 41.6179 13.6179 39.5478 13.6179 37C13.6179 39.5478 11.5478 41.6179 9 41.6179Z" fill="#007BE0"/>
<path opacity="0.3" d="M38 15.6179C40.5478 15.6179 42.6179 17.688 42.6179 20.2358C42.6179 17.688 44.688 15.6179 47.2358 15.6179C44.688 15.6179 42.6179 13.5478 42.6179 11C42.6179 13.5478 40.5478 15.6179 38 15.6179Z" fill="#007BE0"/>
<path d="M33.7778 13H19.3333C17.9933 13 16 13.9065 16 16.4036L16 34.6345C16 37.1317 17.9933 38.0382 19.3333 38.0382H34.8655C35.492 38.0382 36 37.5302 36 36.9036C36 36.277 35.492 35.7691 34.8655 35.7691H19.3467C18.8333 35.7555 18.2222 35.549 18.2222 34.6345C18.2222 34.52 18.2322 34.4178 18.2489 34.3248C18.3733 33.6713 18.8978 33.5113 19.3467 33.5H35C35.5523 33.5 36 33.0523 36 32.5V15.2691C36 14.6673 35.7659 14.0901 35.3491 13.6646C34.9324 13.2391 34.3671 13 33.7778 13ZM33.7778 22.2249C33.7778 22.6343 33.3126 22.8702 32.9823 22.6282L31.6401 21.645C31.5306 21.5648 31.381 21.5681 31.2751 21.653L30.1462 22.5587C29.819 22.8213 29.3333 22.5883 29.3333 22.1687V16.2691C29.3333 15.7168 29.781 15.2691 30.3333 15.2691H32.7778C33.3301 15.2691 33.7778 15.7168 33.7778 16.2691V22.2249Z" fill="#0055B8"/>
</svg>
