<svg width="40" height="40" viewBox="0 0 40 40" fill="none" xmlns="http://www.w3.org/2000/svg">
<g clip-path="url(#clip0_696_174465)">
<rect width="40" height="40" rx="20" fill="#FFF7D7"/>
<path fill-rule="evenodd" clip-rule="evenodd" d="M13.583 13.3335C12.8537 13.3335 12.1542 13.6345 11.6385 14.1703C11.1227 14.7062 10.833 15.4329 10.833 16.1906V23.8097C10.833 24.5674 11.1227 25.2942 11.6385 25.83C12.1542 26.3658 12.8537 26.6668 13.583 26.6668H22.7497C23.479 26.6668 24.1785 26.3658 24.6942 25.83C25.2099 25.2942 25.4997 24.5674 25.4997 23.8097V22.2992L27.6016 24.483C27.7298 24.6162 27.8931 24.7068 28.0709 24.7436C28.2487 24.7803 28.433 24.7614 28.6004 24.6894C28.7679 24.6173 28.9111 24.4953 29.0118 24.3387C29.1125 24.1821 29.1663 23.998 29.1663 23.8097V16.1906C29.1663 16.0023 29.1125 15.8182 29.0118 15.6616C28.9111 15.505 28.7679 15.383 28.6004 15.3109C28.433 15.2389 28.2487 15.22 28.0709 15.2567C27.8931 15.2935 27.7298 15.3842 27.6016 15.5173L25.4997 17.7011V16.1906C25.4997 15.4329 25.2099 14.7062 24.6942 14.1703C24.1785 13.6345 23.479 13.3335 22.7497 13.3335H13.583Z" fill="#FF9E16"/>
<path opacity="0.7" d="M7.69238 9.18335C8.85136 9.18335 9.79142 10.1957 9.79142 11.4439C9.79142 10.1957 10.7315 9.18335 11.8905 9.18335C10.7315 9.18335 9.79142 8.17098 9.79142 6.92285C9.79142 8.17098 8.85136 9.18335 7.69238 9.18335Z" fill="#FFCE8A"/>
<path opacity="0.7" d="M28.4619 29.2308C29.3114 29.2308 30.0004 29.9198 30.0004 30.7693C30.0004 29.9198 30.6894 29.2308 31.5388 29.2308C30.6894 29.2308 30.0004 28.5418 30.0004 27.6924C30.0004 28.5418 29.3114 29.2308 28.4619 29.2308Z" fill="#FFCE8A"/>
<path opacity="0.7" d="M6.92285 30.3847C8.40826 30.3847 9.61516 31.5916 9.61516 33.077C9.61516 31.5916 10.8221 30.3847 12.3075 30.3847C10.8221 30.3847 9.61516 29.1778 9.61516 27.6924C9.61516 29.1778 8.40826 30.3847 6.92285 30.3847Z" fill="#FFCE8A"/>
<path opacity="0.7" d="M30 18.1675C31.9598 18.1675 33.5522 19.7598 33.5522 21.7197C33.5522 19.7598 35.1446 18.1675 37.1044 18.1675C35.1446 18.1675 33.5522 16.5751 33.5522 14.6152C33.5522 16.5751 31.9598 18.1675 30 18.1675Z" fill="#FFCE8A"/>
</g>
<defs>
<clipPath id="clip0_696_174465">
<rect width="40" height="40" fill="white"/>
</clipPath>
</defs>
</svg>
