<svg width="24" height="24" viewBox="0 0 24 24" fill="none" xmlns="http://www.w3.org/2000/svg">
<path d="M2.3999 7.1998C2.3999 5.87432 3.47442 4.7998 4.7999 4.7998H11.9999C13.3254 4.7998 14.3999 5.87432 14.3999 7.1998V16.7998C14.3999 18.1253 13.3254 19.1998 11.9999 19.1998H4.7999C3.47442 19.1998 2.3999 18.1253 2.3999 16.7998V7.1998Z" fill="white"/>
<path d="M17.4632 8.52649C17.0567 8.72976 16.7999 9.14528 16.7999 9.59981V14.3998C16.7999 14.8543 17.0567 15.2698 17.4632 15.4731L19.8632 16.6731C20.2352 16.8591 20.677 16.8392 21.0308 16.6206C21.3846 16.4019 21.5999 16.0157 21.5999 15.5998V8.39981C21.5999 7.98391 21.3846 7.59767 21.0308 7.37902C20.677 7.16038 20.2352 7.1405 19.8632 7.32649L17.4632 8.52649Z" fill="white"/>
</svg>
