<svg width="20" height="16" viewBox="0 0 20 16" fill="none" xmlns="http://www.w3.org/2000/svg">
<path d="M0.399902 3.1998C0.399902 1.87432 1.47442 0.799805 2.7999 0.799805H9.9999C11.3254 0.799805 12.3999 1.87432 12.3999 3.1998V12.7998C12.3999 14.1253 11.3254 15.1998 9.9999 15.1998H2.7999C1.47442 15.1998 0.399902 14.1253 0.399902 12.7998V3.1998Z" fill="#0055B8"/>
<path d="M15.4632 4.52649C15.0567 4.72976 14.7999 5.14528 14.7999 5.59981V10.3998C14.7999 10.8543 15.0567 11.2698 15.4632 11.4731L17.8632 12.6731C18.2352 12.8591 18.677 12.8392 19.0308 12.6206C19.3846 12.4019 19.5999 12.0157 19.5999 11.5998V4.39981C19.5999 3.98391 19.3846 3.59767 19.0308 3.37902C18.677 3.16038 18.2352 3.1405 17.8632 3.32649L15.4632 4.52649Z" fill="#0055B8"/>
</svg>
