<svg width="24" height="24" viewBox="0 0 24 24" fill="none" xmlns="http://www.w3.org/2000/svg">
<path fill-rule="evenodd" clip-rule="evenodd" d="M3.60156 4.79961C3.60156 4.13687 4.13882 3.59961 4.80156 3.59961H19.2016C19.8643 3.59961 20.4016 4.13687 20.4016 4.79961C20.4016 5.46235 19.8643 5.99961 19.2016 5.99961H4.80156C4.13882 5.99961 3.60156 5.46235 3.60156 4.79961ZM3.60156 9.59961C3.60156 8.93687 4.13882 8.39961 4.80156 8.39961H19.2016C19.8643 8.39961 20.4016 8.93687 20.4016 9.59961C20.4016 10.2624 19.8643 10.7996 19.2016 10.7996H4.80156C4.13882 10.7996 3.60156 10.2624 3.60156 9.59961ZM3.60156 14.3996C3.60156 13.7369 4.13882 13.1996 4.80156 13.1996H19.2016C19.8643 13.1996 20.4016 13.7369 20.4016 14.3996C20.4016 15.0624 19.8643 15.5996 19.2016 15.5996H4.80156C4.13882 15.5996 3.60156 15.0624 3.60156 14.3996ZM3.60156 19.1996C3.60156 18.5369 4.13882 17.9996 4.80156 17.9996H19.2016C19.8643 17.9996 20.4016 18.5369 20.4016 19.1996C20.4016 19.8624 19.8643 20.3996 19.2016 20.3996H4.80156C4.13882 20.3996 3.60156 19.8624 3.60156 19.1996Z" fill="white"/>
</svg>
